
    <svg width="350" height="350" viewBox="0 0 350 350" fill="none" xmlns="http://www.w3.org/2000/svg">
    
  <g clip-path="url(#clip0_28_300)">
  <g filter="url(#filter0_f_28_300)">
  <rect x="350.08" y="350.045" width="350" height="350" transform="rotate(-180 350.08 350.045)" fill="#0E103E"/>
  </g>
  <g style="mix-blend-mode:overlay" filter="url(#filter1_f_28_300)">
  <ellipse rx="270.447" ry="92.7881" transform="matrix(0.999998 0.00221055 0.00221055 -0.999998 176.733 365.186)" fill="url(#paint0_radial_28_300)"/>
  </g>
  <g style="mix-blend-mode:overlay" filter="url(#filter2_f_28_300)">
  <ellipse cx="174.396" cy="133.051" rx="273.297" ry="336.951" transform="rotate(0.126655 174.396 133.051)" fill="url(#paint1_radial_28_300)"/>
  </g>
  <g opacity="0.6">
  <circle cx="21.3375" cy="78.6408" r="1.16688" fill="white"/>
  <circle cx="214.322" cy="248.224" r="1.16688" transform="rotate(165 214.322 248.224)" fill="white"/>
  <circle cx="325.548" cy="113.155" r="1.16688" transform="rotate(75 325.548 113.155)" fill="white"/>
  <circle cx="340.036" cy="124.932" r="1.16688" transform="rotate(75 340.036 124.932)" fill="white"/>
  <circle cx="322.718" cy="82.5488" r="1.16688" transform="rotate(75 322.718 82.5488)" fill="white"/>
  <circle cx="157.078" cy="146.729" r="1.16688" transform="rotate(75 157.078 146.729)" fill="white"/>
  <circle cx="266.453" cy="142.627" r="1.16688" transform="rotate(75 266.453 142.627)" fill="white"/>
  <circle cx="8.72079" cy="30.1401" r="1.16688" transform="rotate(75 8.72079 30.1401)" fill="white"/>
  <circle cx="64.4347" cy="118.315" r="1.16688" fill="white"/>
  <circle cx="162.425" cy="221.056" r="1.16688" transform="rotate(165 162.425 221.056)" fill="white"/>
  <circle cx="298.38" cy="165.052" r="1.16688" transform="rotate(75 298.38 165.052)" fill="white"/>
  <circle cx="129.91" cy="198.626" r="1.16688" transform="rotate(75 129.91 198.626)" fill="white"/>
  <circle cx="239.285" cy="194.524" r="1.16688" transform="rotate(75 239.285 194.524)" fill="white"/>
  <circle cx="40.5872" cy="93.8078" r="1.16688" transform="rotate(75 40.5872 93.8078)" fill="white"/>
  <circle cx="58.3666" cy="79.7299" r="1.16688" fill="white"/>
  <circle cx="178.273" cy="256.756" r="1.16688" transform="rotate(165 178.273 256.756)" fill="white"/>
  <circle cx="334.079" cy="149.204" r="1.16688" transform="rotate(75 334.079 149.204)" fill="white"/>
  <circle cx="165.609" cy="182.778" r="1.16688" transform="rotate(75 165.609 182.778)" fill="white"/>
  <circle cx="274.984" cy="178.677" r="1.16688" transform="rotate(75 274.984 178.677)" fill="white"/>
  <circle cx="294.007" cy="195.114" r="1.16688" transform="rotate(75 294.007 195.114)" fill="white"/>
  <circle cx="67.0543" cy="101.689" r="1.16688" transform="rotate(75 67.0543 101.689)" fill="white"/>
  <circle cx="17.2924" cy="169.813" r="1.16688" fill="white"/>
  <circle cx="194.632" cy="159.112" r="1.16688" transform="rotate(165 194.632 159.112)" fill="white"/>
  <circle cx="236.435" cy="132.845" r="1.16688" transform="rotate(75 236.435 132.845)" fill="white"/>
  <circle cx="67.9657" cy="166.419" r="1.16688" transform="rotate(75 67.9657 166.419)" fill="white"/>
  <circle cx="177.341" cy="162.317" r="1.16688" transform="rotate(75 177.341 162.317)" fill="white"/>
  <circle cx="3.44544" cy="159.7" r="1.16688" fill="white"/>
  <circle cx="210.625" cy="165.296" r="1.16688" transform="rotate(165 210.625 165.296)" fill="white"/>
  <circle cx="242.62" cy="116.852" r="1.16688" transform="rotate(75 242.62 116.852)" fill="white"/>
  <circle cx="74.15" cy="150.426" r="1.16688" transform="rotate(75 74.15 150.426)" fill="white"/>
  <circle cx="183.525" cy="146.325" r="1.16688" transform="rotate(75 183.525 146.325)" fill="white"/>
  <circle cx="52.2987" cy="174.792" r="1.16688" fill="white"/>
  <circle cx="59.5001" cy="192.117" r="1.16688" fill="white"/>
  <circle cx="159.53" cy="163.363" r="1.16688" transform="rotate(165 159.53 163.363)" fill="white"/>
  <circle cx="278.968" cy="303.578" r="1.16688" transform="rotate(75 278.968 303.578)" fill="white"/>
  <circle cx="72.2166" cy="201.521" r="1.16688" transform="rotate(75 72.2166 201.521)" fill="white"/>
  <circle cx="181.592" cy="197.419" r="1.16688" transform="rotate(75 181.592 197.419)" fill="white"/>
  <circle cx="9.20203" cy="90.7765" r="1.16688" fill="white"/>
  <circle cx="222.903" cy="233.361" r="1.16688" transform="rotate(165 222.903 233.361)" fill="white"/>
  <circle cx="310.685" cy="104.574" r="1.16688" transform="rotate(75 310.685 104.574)" fill="white"/>
  <circle cx="214.255" cy="306.768" r="1.16688" transform="rotate(75 214.255 306.768)" fill="white"/>
  <circle cx="251.59" cy="134.046" r="1.16688" transform="rotate(75 251.59 134.046)" fill="white"/>
  <circle cx="10.088" cy="12.3666" r="1.16688" transform="rotate(75 10.088 12.3666)" fill="white"/>
  <circle cx="320.177" cy="231.31" r="1.16688" fill="white"/>
  <circle cx="217.762" cy="208.162" r="1.16688" transform="rotate(165 217.762 208.162)" fill="white"/>
  <circle cx="216.989" cy="70.6999" r="1.16688" transform="rotate(75 216.989 70.6999)" fill="white"/>
  <circle cx="117.016" cy="143.289" r="1.16688" transform="rotate(75 117.016 143.289)" fill="white"/>
  <circle cx="226.39" cy="139.188" r="1.16688" transform="rotate(75 226.39 139.188)" fill="white"/>
  <circle cx="27.6927" cy="38.4716" r="1.16688" transform="rotate(75 27.6927 38.4716)" fill="white"/>
  <circle cx="23.6713" cy="121.893" r="1.16688" fill="white"/>
  <circle cx="200.874" cy="207.05" r="1.16688" transform="rotate(165 200.874 207.05)" fill="white"/>
  <circle cx="284.373" cy="126.604" r="1.16688" transform="rotate(75 284.373 126.604)" fill="white"/>
  <circle cx="13.734" cy="323.63" r="1.16688" transform="rotate(75 13.734 323.63)" fill="white"/>
  <circle cx="225.278" cy="156.076" r="1.16688" transform="rotate(75 225.278 156.076)" fill="white"/>
  <circle cx="26.5804" cy="55.3598" r="1.16688" transform="rotate(75 26.5804 55.3598)" fill="white"/>
  <circle cx="43.0939" cy="61.3231" r="1.16688" fill="white"/>
  <circle cx="49.4743" cy="27.1434" r="1.16688" fill="white"/>
  <circle cx="69.5263" cy="41.2709" r="1.16688" fill="white"/>
  <circle cx="81.3751" cy="11.1928" r="1.16688" fill="white"/>
  <circle cx="273.693" cy="83.6537" r="1.16688" fill="white"/>
  <circle cx="312.886" cy="35.8021" r="1.16688" fill="white"/>
  <circle cx="253.641" cy="54.9428" r="1.16688" fill="white"/>
  <circle cx="249.084" cy="29.422" r="1.16688" fill="white"/>
  <circle cx="167.052" cy="5.72401" r="1.16688" fill="white"/>
  <circle cx="133.784" cy="8.91419" r="1.16688" fill="white"/>
  <circle cx="136.063" cy="40.8153" r="1.16688" fill="white"/>
  <circle cx="90.4899" cy="71.8048" r="1.16688" fill="white"/>
  <circle cx="208.068" cy="17.5731" r="1.16688" fill="white"/>
  <circle cx="219.006" cy="47.1954" r="1.16688" fill="white"/>
  <circle cx="243.615" cy="90.0341" r="1.16688" fill="white"/>
  <circle cx="123.302" cy="71.8048" r="1.16688" fill="white"/>
  <circle cx="107.808" cy="96.4142" r="1.16688" fill="white"/>
  <circle cx="144.319" cy="266.498" r="1.16688" transform="rotate(165 144.319 266.498)" fill="white"/>
  <circle cx="343.821" cy="183.158" r="1.16688" transform="rotate(75 343.821 183.158)" fill="white"/>
  <circle cx="175.352" cy="216.731" r="1.16688" transform="rotate(75 175.352 216.731)" fill="white"/>
  <circle cx="284.727" cy="212.63" r="1.16688" transform="rotate(75 284.727 212.63)" fill="white"/>
  <circle cx="86.0289" cy="111.914" r="1.16688" transform="rotate(75 86.0289 111.914)" fill="white"/>
  <circle cx="9.37" cy="55.8544" r="1.16688" fill="white"/>
  <circle cx="126.226" cy="263.292" r="1.16688" transform="rotate(165 126.226 263.292)" fill="white"/>
  <circle cx="340.616" cy="201.251" r="1.16688" transform="rotate(75 340.616 201.251)" fill="white"/>
  <circle cx="114.45" cy="331.377" r="1.16688" transform="rotate(75 114.45 331.377)" fill="white"/>
  <circle cx="281.522" cy="230.723" r="1.16688" transform="rotate(75 281.522 230.723)" fill="white"/>
  <circle cx="308.135" cy="246.156" r="1.16688" transform="rotate(75 308.135 246.156)" fill="white"/>
  <circle cx="279.88" cy="253.903" r="1.16688" transform="rotate(75 279.88 253.903)" fill="white"/>
  <circle cx="239.775" cy="278.513" r="1.16688" transform="rotate(75 239.775 278.513)" fill="white"/>
  <circle cx="197.848" cy="185.088" r="1.16688" transform="rotate(75 197.848 185.088)" fill="white"/>
  <circle cx="144.984" cy="206.963" r="1.16688" transform="rotate(75 144.984 206.963)" fill="white"/>
  <circle cx="145.895" cy="244.333" r="1.16688" transform="rotate(75 145.895 244.333)" fill="white"/>
  <circle cx="93.9422" cy="209.697" r="1.16688" transform="rotate(75 93.9422 209.697)" fill="white"/>
  <circle cx="93.0309" cy="184.177" r="1.16688" transform="rotate(75 93.0309 184.177)" fill="white"/>
  <circle cx="82.8236" cy="130.007" r="1.16688" transform="rotate(75 82.8236 130.007)" fill="white"/>
  <circle cx="101.775" cy="130.295" r="1.16688" fill="white"/>
  <circle cx="123.257" cy="219.149" r="1.16688" transform="rotate(165 123.257 219.149)" fill="white"/>
  <circle cx="326.364" cy="266.208" r="1.16688" transform="rotate(75 326.364 266.208)" fill="white"/>
  <circle cx="313.604" cy="187.822" r="1.16688" transform="rotate(75 313.604 187.822)" fill="white"/>
  <circle cx="321.807" cy="169.593" r="1.16688" transform="rotate(75 321.807 169.593)" fill="white"/>
  <circle cx="285.348" cy="148.63" r="1.16688" transform="rotate(75 285.348 148.63)" fill="white"/>
  <circle cx="329.098" cy="322.718" r="1.16688" transform="rotate(75 329.098 322.718)" fill="white"/>
  <circle cx="255.726" cy="157.744" r="1.16688" transform="rotate(75 255.726 157.744)" fill="white"/>
  <circle cx="337.757" cy="91.2077" r="1.16688" transform="rotate(75 337.757 91.2077)" fill="white"/>
  <circle cx="341.403" cy="69.3327" r="1.16688" transform="rotate(75 341.403 69.3327)" fill="white"/>
  <circle cx="128.003" cy="237.794" r="1.16688" transform="rotate(75 128.003 237.794)" fill="white"/>
  <circle cx="237.378" cy="233.693" r="1.16688" transform="rotate(75 237.378 233.693)" fill="white"/>
  <circle cx="247.067" cy="216.533" r="1.16688" transform="rotate(75 247.067 216.533)" fill="white"/>
  <circle cx="221.546" cy="184.632" r="1.16688" transform="rotate(75 221.546 184.632)" fill="white"/>
  <circle cx="38.68" cy="132.976" r="1.16688" transform="rotate(75 38.68 132.976)" fill="white"/>
  <circle cx="46.7399" cy="342.052" r="1.16688" fill="white"/>
  <circle cx="131.026" cy="187.43" r="1.16688" transform="rotate(165 131.026 187.43)" fill="white"/>
  <circle cx="264.754" cy="196.451" r="1.16688" transform="rotate(75 264.754 196.451)" fill="white"/>
  <circle cx="96.2838" cy="230.025" r="1.16688" transform="rotate(75 96.2838 230.025)" fill="white"/>
  <circle cx="205.659" cy="225.923" r="1.16688" transform="rotate(75 205.659 225.923)" fill="white"/>
  <circle cx="269.398" cy="336.846" r="1.16688" transform="rotate(75 269.398 336.846)" fill="white"/>
  <circle cx="79.837" cy="172.925" r="1.16688" fill="white"/>
  <circle cx="133.413" cy="172.294" r="1.16688" transform="rotate(165 133.413 172.294)" fill="white"/>
  <circle cx="249.617" cy="194.064" r="1.16688" transform="rotate(75 249.617 194.064)" fill="white"/>
  <circle cx="81.1476" cy="227.638" r="1.16688" transform="rotate(75 81.1476 227.638)" fill="white"/>
  <circle cx="190.523" cy="223.536" r="1.16688" transform="rotate(75 190.523 223.536)" fill="white"/>
  <circle cx="105.664" cy="158.611" r="1.16688" fill="white"/>
  <circle cx="112.171" cy="192.804" r="1.16688" transform="rotate(165 112.171 192.804)" fill="white"/>
  <circle cx="270.128" cy="215.306" r="1.16688" transform="rotate(75 270.128 215.306)" fill="white"/>
  <circle cx="101.658" cy="248.879" r="1.16688" transform="rotate(75 101.658 248.879)" fill="white"/>
  <circle cx="211.033" cy="244.778" r="1.16688" transform="rotate(75 211.033 244.778)" fill="white"/>
  <circle cx="12.335" cy="144.062" r="1.16688" transform="rotate(75 12.335 144.062)" fill="white"/>
  <path d="M255.397 175.377L254.977 174.242L253.841 173.821L254.977 173.401L255.397 172.266L255.818 173.401L256.953 173.821L255.818 174.242L255.397 175.377Z" fill="#FFF7B0"/>
  <path d="M88.8035 163.528L88.3833 162.393L87.2477 161.972L88.3833 161.552L88.8035 160.417L89.2238 161.552L90.3594 161.972L89.2238 162.393L88.8035 163.528Z" fill="#FFF7B0"/>
  <path d="M53.7122 68.2808L53.292 67.1451L52.1564 66.7249L53.292 66.3047L53.7122 65.1691L54.1324 66.3047L55.2681 66.7249L54.1324 67.1451L53.7122 68.2808Z" fill="#FFF7B0"/>
  <path d="M339.252 47.7729L338.831 46.6373L337.696 46.2171L338.831 45.7969L339.252 44.6613L339.672 45.7969L340.807 46.2171L339.672 46.6373L339.252 47.7729Z" fill="#FFF7B0"/>
  <path d="M239.907 220.862L239.487 219.726L238.351 219.306L239.487 218.886L239.907 217.75L240.327 218.886L241.463 219.306L240.327 219.726L239.907 220.862Z" fill="#FFF7B0"/>
  <path d="M80.4019 217.672L79.9817 216.536L78.8461 216.116L79.9817 215.695L80.4019 214.56L80.8221 215.695L81.9578 216.116L80.8221 216.536L80.4019 217.672Z" fill="#FFF7B0"/>
  <path d="M45.3109 122.424L44.8906 121.289L43.755 120.868L44.8906 120.448L45.3109 119.313L45.7311 120.448L46.8667 120.868L45.7311 121.289L45.3109 122.424Z" fill="#FFF7B0"/>
  <path d="M288.214 116.5L287.794 115.364L286.659 114.944L287.794 114.524L288.214 113.388L288.635 114.524L289.77 114.944L288.635 115.364L288.214 116.5Z" fill="#FFF7B0"/>
  <path d="M250.642 205.148L250.222 204.012L249.087 203.592L250.222 203.172L250.642 202.036L251.063 203.172L252.198 203.592L251.063 204.012L250.642 205.148Z" fill="#FFF7B0"/>
  <path d="M91.137 201.958L90.7168 200.822L89.5812 200.402L90.7168 199.981L91.137 198.846L91.5573 199.981L92.6929 200.402L91.5573 200.822L91.137 201.958Z" fill="#FFF7B0"/>
  <path d="M56.046 106.71L55.6258 105.575L54.4901 105.154L55.6258 104.734L56.046 103.599L56.4662 104.734L57.6018 105.154L56.4662 105.575L56.046 106.71Z" fill="#FFF7B0"/>
  <path d="M298.95 100.786L298.529 99.65L297.394 99.2298L298.529 98.8096L298.95 97.674L299.37 98.8096L300.505 99.2298L299.37 99.65L298.95 100.786Z" fill="#FFF7B0"/>
  <path d="M248.308 243.577L247.888 242.441L246.753 242.021L247.888 241.601L248.308 240.465L248.729 241.601L249.864 242.021L248.729 242.441L248.308 243.577Z" fill="#FFF7B0"/>
  <path d="M270.892 243.737L270.472 242.601L269.336 242.181L270.472 241.761L270.892 240.625L271.312 241.761L272.448 242.181L271.312 242.601L270.892 243.737Z" fill="#FFF7B0"/>
  <path d="M254.486 258.32L254.066 257.184L252.93 256.764L254.066 256.344L254.486 255.208L254.906 256.344L256.042 256.764L254.906 257.184L254.486 258.32Z" fill="#FFF7B0"/>
  <path d="M88.8035 240.387L88.3833 239.251L87.2477 238.831L88.3833 238.411L88.8035 237.275L89.2238 238.411L90.3594 238.831L89.2238 239.251L88.8035 240.387Z" fill="#FFF7B0"/>
  <path d="M53.7122 145.139L53.292 144.004L52.1564 143.584L53.292 143.163L53.7122 142.028L54.1324 143.163L55.2681 143.584L54.1324 144.004L53.7122 145.139Z" fill="#FFF7B0"/>
  <path d="M296.616 139.215L296.195 138.079L295.06 137.659L296.195 137.239L296.616 136.103L297.036 137.239L298.171 137.659L297.036 138.079L296.616 139.215Z" fill="#FFF7B0"/>
  <path d="M161.316 310.328L160.581 308.341L158.594 307.605L160.581 306.87L161.316 304.883L162.052 306.87L164.039 307.605L162.052 308.341L161.316 310.328Z" fill="#FFF7B0"/>
  <path d="M110.663 247.232L109.927 245.245L107.94 244.51L109.927 243.774L110.663 241.787L111.398 243.774L113.385 244.51L111.398 245.245L110.663 247.232Z" fill="#FFF7B0"/>
  <path d="M91.1342 146.721L90.3988 144.734L88.4115 143.999L90.3988 143.263L91.1342 141.276L91.8696 143.263L93.8569 143.999L91.8696 144.734L91.1342 146.721Z" fill="#FFF7B0"/>
  <path d="M98.4257 43.7266L97.6903 41.7392L95.703 41.0038L97.6903 40.2685L98.4257 38.2811L99.1611 40.2685L101.148 41.0038L99.1611 41.7392L98.4257 43.7266Z" fill="#FFF7B0"/>
  <path d="M311.251 209.612L310.516 207.625L308.529 206.889L310.516 206.154L311.251 204.167L311.987 206.154L313.974 206.889L311.987 207.625L311.251 209.612Z" fill="#FFF7B0"/>
  <path d="M221.315 199.391L220.579 197.404L218.592 196.668L220.579 195.933L221.315 193.946L222.05 195.933L224.037 196.668L222.05 197.404L221.315 199.391Z" fill="#FFF7B0"/>
  <path d="M65.6132 303.492L64.8778 301.505L62.8905 300.769L64.8778 300.034L65.6132 298.047L66.3486 300.034L68.3359 300.769L66.3486 301.505L65.6132 303.492Z" fill="#FFF7B0"/>
  <path d="M26.7184 100.953L25.9831 98.966L23.9957 98.2307L25.9831 97.4953L26.7184 95.5079L27.4538 97.4953L29.4412 98.2307L27.4538 98.966L26.7184 100.953Z" fill="#FFF7B0"/>
  <path d="M301.681 86.1096L300.946 84.1223L298.958 83.3869L300.946 82.6515L301.681 80.6642L302.416 82.6515L304.404 83.3869L302.416 84.1223L301.681 86.1096Z" fill="#FFF7B0"/>
  <path d="M287.098 50.5627L286.362 48.5754L284.375 47.84L286.362 47.1046L287.098 45.1173L287.833 47.1046L289.82 47.84L287.833 48.5754L287.098 50.5627Z" fill="#FFF7B0"/>
  <path d="M335.861 5.90088L335.125 3.91354L333.138 3.17816L335.125 2.44278L335.861 0.455448L336.596 2.44278L338.583 3.17816L336.596 3.91354L335.861 5.90088Z" fill="#FFF7B0"/>
  <path d="M264.723 228.33L263.987 226.342L262 225.607L263.987 224.871L264.723 222.884L265.458 224.871L267.445 225.607L265.458 226.342L264.723 228.33Z" fill="#FFF7B0"/>
  <path d="M292.111 267.49L291.375 265.502L289.388 264.767L291.375 264.032L292.111 262.044L292.846 264.032L294.833 264.767L292.846 265.502L292.111 267.49Z" fill="#FFF7B0"/>
  <path d="M264.767 284.807L264.032 282.82L262.044 282.085L264.032 281.349L264.767 279.362L265.502 281.349L267.49 282.085L265.502 282.82L264.767 284.807Z" fill="#FFF7B0"/>
  <path d="M105.217 225.14L104.482 223.152L102.495 222.417L104.482 221.681L105.217 219.694L105.953 221.681L107.94 222.417L105.953 223.152L105.217 225.14Z" fill="#FFF7B0"/>
  <path d="M16.3945 261.109L15.6591 259.122L13.6718 258.387L15.6591 257.651L16.3945 255.664L17.1299 257.651L19.1172 258.387L17.1299 259.122L16.3945 261.109Z" fill="#FFF7B0"/>
  <path d="M313.03 123.968L312.295 121.98L310.307 121.245L312.295 120.509L313.03 118.522L313.765 120.509L315.753 121.245L313.765 121.98L313.03 123.968Z" fill="#FFF7B0"/>
  <path d="M280.125 170.608L279.39 168.621L277.402 167.885L279.39 167.15L280.125 165.163L280.861 167.15L282.848 167.885L280.861 168.621L280.125 170.608Z" fill="#FFF7B0"/>
  <path d="M232.41 175.888L231.675 173.901L229.687 173.165L231.675 172.43L232.41 170.443L233.145 172.43L235.133 173.165L233.145 173.901L232.41 175.888Z" fill="#FFF7B0"/>
  <path d="M29.155 236.044L28.4196 234.057L26.4323 233.322L28.4196 232.586L29.155 230.599L29.8904 232.586L31.8777 233.322L29.8904 234.057L29.155 236.044Z" fill="#FFF7B0"/>
  <path d="M73.8163 273.414L73.081 271.427L71.0936 270.691L73.081 269.956L73.8163 267.969L74.5517 269.956L76.5391 270.691L74.5517 271.427L73.8163 273.414Z" fill="#FFF7B0"/>
  <path d="M37.8255 287.109L36.2254 282.785L31.901 281.185L36.2254 279.585L37.8255 275.26L39.4257 279.585L43.75 281.185L39.4257 282.785L37.8255 287.109Z" fill="#FFF7B0"/>
  <path d="M114.844 25.9766L113.244 21.6522L108.919 20.0521L113.244 18.4519L114.844 14.1276L116.444 18.4519L120.768 20.0521L116.444 21.6522L114.844 25.9766Z" fill="#FFF7B0"/>
  <path d="M313.997 154.948L312.397 150.623L308.073 149.023L312.397 147.423L313.997 143.099L315.598 147.423L319.922 149.023L315.598 150.623L313.997 154.948Z" fill="#FFF7B0"/>
  <path d="M121.668 298.023L120.933 296.036L118.945 295.301L120.933 294.565L121.668 292.578L122.403 294.565L124.391 295.301L122.403 296.036L121.668 298.023Z" fill="#FFF7B0"/>
  <path d="M36.4467 185.914L35.7113 183.927L33.724 183.191L35.7113 182.456L36.4467 180.469L37.1821 182.456L39.1694 183.191L37.1821 183.927L36.4467 185.914Z" fill="#FFF7B0"/>
  <path d="M328.433 66.2458L327.697 64.2585L325.71 63.5231L327.697 62.7878L328.433 60.8004L329.168 62.7878L331.155 63.5231L329.168 64.2585L328.433 66.2458Z" fill="#FFF7B0"/>
  <path d="M280.262 19.1172L279.526 17.1299L277.539 16.3945L279.526 15.6591L280.262 13.6718L280.997 15.6591L282.984 16.3945L280.997 17.1299L280.262 19.1172Z" fill="#FFF7B0"/>
  <path d="M227.461 250.423L227.04 249.287L225.905 248.867L227.04 248.447L227.461 247.311L227.881 248.447L229.016 248.867L227.881 249.287L227.461 250.423Z" fill="#FFF7B0"/>
  <path d="M67.9554 247.232L67.5352 246.097L66.3996 245.677L67.5352 245.256L67.9554 244.121L68.3756 245.256L69.5112 245.677L68.3756 246.097L67.9554 247.232Z" fill="#FFF7B0"/>
  <path d="M32.8641 151.985L32.4439 150.849L31.3082 150.429L32.4439 150.009L32.8641 148.873L33.2843 150.009L34.4199 150.429L33.2843 150.849L32.8641 151.985Z" fill="#FFF7B0"/>
  <path d="M275.768 146.061L275.348 144.925L274.212 144.505L275.348 144.084L275.768 142.949L276.188 144.084L277.324 144.505L276.188 144.925L275.768 146.061Z" fill="#FFF7B0"/>
  <path d="M210.657 227.396L210.237 226.261L209.101 225.84L210.237 225.42L210.657 224.285L211.078 225.42L212.213 225.84L211.078 226.261L210.657 227.396Z" fill="#FFF7B0"/>
  <path d="M51.1519 224.206L50.7317 223.07L49.5961 222.65L50.7317 222.23L51.1519 221.094L51.5721 222.23L52.7078 222.65L51.5721 223.07L51.1519 224.206Z" fill="#FFF7B0"/>
  <path d="M196.152 340.807L195.732 339.671L194.597 339.251L195.732 338.831L196.152 337.695L196.573 338.831L197.708 339.251L196.573 339.671L196.152 340.807Z" fill="#FFF7B0"/>
  <path d="M258.964 123.034L258.544 121.899L257.409 121.478L258.544 121.058L258.964 119.923L259.385 121.058L260.52 121.478L259.385 121.899L258.964 123.034Z" fill="#FFF7B0"/>
  <path d="M249.473 297.057L249.053 295.921L247.917 295.501L249.053 295.081L249.473 293.945L249.893 295.081L251.029 295.501L249.893 295.921L249.473 297.057Z" fill="#FFF7B0"/>
  <path d="M48.0406 263.102L47.6204 261.966L46.4848 261.546L47.6204 261.126L48.0406 259.99L48.4608 261.126L49.5964 261.546L48.4608 261.966L48.0406 263.102Z" fill="#FFF7B0"/>
  <path d="M15.6837 205.911L15.2634 204.776L14.1278 204.355L15.2634 203.935L15.6837 202.799L16.1039 203.935L17.2395 204.355L16.1039 204.776L15.6837 205.911Z" fill="#FFF7B0"/>
  <path d="M266.791 160.338L266.37 159.203L265.235 158.782L266.37 158.362L266.791 157.226L267.211 158.362L268.346 158.782L267.211 159.203L266.791 160.338Z" fill="#FFF7B0"/>
  </g>
  </g>
  <defs>
  <filter id="filter0_f_28_300" x="-1.74333" y="-1.77824" width="353.646" height="353.646" filterUnits="userSpaceOnUse" color-interpolation-filters="sRGB">
  <feFlood flood-opacity="0" result="BackgroundImageFix"/>
  <feBlend mode="normal" in="SourceGraphic" in2="BackgroundImageFix" result="shape"/>
  <feGaussianBlur stdDeviation="0.911458" result="effect1_foregroundBlur_28_300"/>
  </filter>
  <filter id="filter1_f_28_300" x="-98.2707" y="267.838" width="550.008" height="194.694" filterUnits="userSpaceOnUse" color-interpolation-filters="sRGB">
  <feFlood flood-opacity="0" result="BackgroundImageFix"/>
  <feBlend mode="normal" in="SourceGraphic" in2="BackgroundImageFix" result="shape"/>
  <feGaussianBlur stdDeviation="2.27865" result="effect1_foregroundBlur_28_300"/>
  </filter>
  <filter id="filter2_f_28_300" x="-103.459" y="-208.456" width="555.71" height="683.015" filterUnits="userSpaceOnUse" color-interpolation-filters="sRGB">
  <feFlood flood-opacity="0" result="BackgroundImageFix"/>
  <feBlend mode="normal" in="SourceGraphic" in2="BackgroundImageFix" result="shape"/>
  <feGaussianBlur stdDeviation="2.27865" result="effect1_foregroundBlur_28_300"/>
  </filter>
  <radialGradient id="paint0_radial_28_300" cx="0" cy="0" r="1" gradientUnits="userSpaceOnUse" gradientTransform="translate(270.447 106.491) rotate(99.1226) scale(61.1193 174.192)">
  <stop stop-color="white" stop-opacity="0.75"/>
  <stop offset="1" stop-color="white" stop-opacity="0"/>
  </radialGradient>
  <radialGradient id="paint1_radial_28_300" cx="0" cy="0" r="1" gradientUnits="userSpaceOnUse" gradientTransform="translate(174.396 182.812) rotate(92.5586) scale(219.36 178.105)">
  <stop stop-color="white" stop-opacity="0.75"/>
  <stop offset="1" stop-color="white" stop-opacity="0"/>
  </radialGradient>
  <clipPath id="clip0_28_300">
  <rect width="350" height="350" fill="white"/>
  </clipPath>
  </defs>
    
  <g clip-path="url(#clip0_589_123547)">
  <g style="mix-blend-mode:overlay">
  <path fill-rule="evenodd" clip-rule="evenodd" d="M78.8411 117.851C113.323 117.851 141.276 89.8984 141.276 55.4166C141.276 20.9347 113.323 -7.01834 78.8411 -7.01834C44.3593 -7.01834 16.4062 20.9347 16.4062 55.4166C16.4062 89.8984 44.3593 117.851 78.8411 117.851ZM78.8411 -0.0293641C79.6131 -0.0293641 80.3813 -0.0135894 81.1455 0.0176539C116.331 3.89748 114.168 54.4846 79.0743 54.4846C79.0411 54.4846 79.0081 54.4886 78.9751 54.4966C78.6985 54.4887 78.4208 54.4847 78.1423 54.4847C62.3166 54.4847 49.4874 67.3139 49.4874 83.1395C49.4874 95.1042 56.8204 105.356 67.2372 109.646C42.1859 104.312 23.3952 82.0586 23.3952 55.4166C23.3952 24.7946 48.2192 -0.0293641 78.8411 -0.0293641ZM78.1423 90.8274C82.3881 90.8274 85.8301 87.3854 85.8301 83.1395C85.8301 78.8936 82.3881 75.4516 78.1423 75.4516C73.8963 75.4516 70.4544 78.8936 70.4544 83.1395C70.4544 87.3854 73.8963 90.8274 78.1423 90.8274Z" fill="white" fill-opacity="0.25"/>
  <path d="M85.8301 27.6936C85.8301 31.9395 82.3881 35.3815 78.1423 35.3815C73.8964 35.3815 70.4544 31.9395 70.4544 27.6936C70.4544 23.4477 73.8964 20.0057 78.1423 20.0057C82.3881 20.0057 85.8301 23.4477 85.8301 27.6936Z" fill="white" fill-opacity="0.25"/>
  </g>
  <g style="mix-blend-mode:overlay">
  <path fill-rule="evenodd" clip-rule="evenodd" d="M91.8296 270.521C113.349 270.521 130.794 253.076 130.794 231.556C130.794 210.036 113.349 192.591 91.8296 192.591C70.3099 192.591 52.8647 210.036 52.8647 231.556C52.8647 253.076 70.3099 270.521 91.8296 270.521ZM91.8296 196.953C92.3113 196.953 92.7908 196.963 93.2677 196.982C115.226 199.403 113.877 230.974 91.9751 230.974C91.9544 230.974 91.9338 230.977 91.9132 230.982C91.7405 230.977 91.5673 230.974 91.3934 230.974C81.5168 230.974 73.5103 238.981 73.5103 248.857C73.5103 256.324 78.0867 262.723 84.5877 265.4C68.9535 262.071 57.2265 248.183 57.2265 231.556C57.2265 212.445 72.7188 196.953 91.8296 196.953ZM91.3934 253.655C94.0432 253.655 96.1913 251.507 96.1913 248.857C96.1913 246.208 94.0432 244.06 91.3934 244.06C88.7436 244.06 86.5955 246.208 86.5955 248.857C86.5955 251.507 88.7436 253.655 91.3934 253.655Z" fill="white" fill-opacity="0.25"/>
  <path d="M96.1913 214.254C96.1913 216.904 94.0432 219.052 91.3934 219.052C88.7436 219.052 86.5955 216.904 86.5955 214.254C86.5955 211.605 88.7436 209.456 91.3934 209.456C94.0432 209.456 96.1913 211.605 96.1913 214.254Z" fill="white" fill-opacity="0.25"/>
  </g>
  <g style="mix-blend-mode:overlay">
  <path fill-rule="evenodd" clip-rule="evenodd" d="M255.436 366.68C276.956 366.68 294.401 349.235 294.401 327.715C294.401 306.195 276.956 288.75 255.436 288.75C233.916 288.75 216.471 306.195 216.471 327.715C216.471 349.235 233.916 366.68 255.436 366.68ZM255.436 293.112C255.918 293.112 256.397 293.122 256.874 293.141C278.833 295.562 277.483 327.133 255.582 327.133C255.561 327.133 255.54 327.136 255.52 327.141C255.347 327.136 255.174 327.133 255 327.133C245.123 327.133 237.117 335.14 237.117 345.016C237.117 352.483 241.693 358.882 248.194 361.559C232.56 358.23 220.833 344.342 220.833 327.715C220.833 308.604 236.325 293.112 255.436 293.112ZM255 349.814C257.65 349.814 259.798 347.666 259.798 345.016C259.798 342.367 257.65 340.219 255 340.219C252.35 340.219 250.202 342.367 250.202 345.016C250.202 347.666 252.35 349.814 255 349.814Z" fill="white" fill-opacity="0.25"/>
  <path d="M259.798 310.413C259.798 313.063 257.65 315.211 255 315.211C252.35 315.211 250.202 313.063 250.202 310.413C250.202 307.764 252.35 305.615 255 305.615C257.65 305.615 259.798 307.764 259.798 310.413Z" fill="white" fill-opacity="0.25"/>
  </g>
  <g style="mix-blend-mode:overlay">
  <path fill-rule="evenodd" clip-rule="evenodd" d="M236.751 43.1119C258.271 43.1119 275.716 25.6668 275.716 4.1471C275.716 -17.3726 258.271 -34.8177 236.751 -34.8177C215.232 -34.8177 197.787 -17.3726 197.787 4.1471C197.787 25.6668 215.232 43.1119 236.751 43.1119ZM236.751 -30.456C237.233 -30.456 237.713 -30.4462 238.19 -30.4267C260.148 -28.0053 258.799 3.5655 236.897 3.5655C236.876 3.5655 236.856 3.568 236.835 3.57295C236.662 3.56802 236.489 3.56554 236.315 3.56554C226.439 3.56554 218.432 11.5721 218.432 21.4487C218.432 28.9156 223.009 35.3138 229.51 37.9912C213.875 34.6621 202.148 20.7741 202.148 4.1471C202.148 -14.9637 217.641 -30.456 236.751 -30.456ZM236.315 26.2466C238.965 26.2466 241.113 24.0985 241.113 21.4487C241.113 18.7988 238.965 16.6507 236.315 16.6507C233.665 16.6507 231.517 18.7988 231.517 21.4487C231.517 24.0985 233.665 26.2466 236.315 26.2466Z" fill="white" fill-opacity="0.25"/>
  <path d="M241.113 -13.1545C241.113 -10.5046 238.965 -8.35654 236.315 -8.35654C233.665 -8.35654 231.517 -10.5046 231.517 -13.1545C231.517 -15.8043 233.665 -17.9524 236.315 -17.9524C238.965 -17.9524 241.113 -15.8043 241.113 -13.1545Z" fill="white" fill-opacity="0.25"/>
  </g>
  <g style="mix-blend-mode:overlay">
  <path fill-rule="evenodd" clip-rule="evenodd" d="M289.388 211.732C315.312 211.732 336.328 190.716 336.328 164.792C336.328 138.867 315.312 117.852 289.388 117.852C263.464 117.852 242.448 138.867 242.448 164.792C242.448 190.716 263.464 211.732 289.388 211.732ZM289.388 123.106C289.968 123.106 290.546 123.118 291.12 123.141C317.574 126.058 315.947 164.091 289.563 164.091C289.538 164.091 289.513 164.094 289.489 164.1C289.281 164.094 289.072 164.091 288.862 164.091C276.964 164.091 267.319 173.736 267.319 185.635C267.319 194.63 272.832 202.338 280.664 205.563C261.83 201.552 247.702 184.822 247.702 164.792C247.702 141.769 266.366 123.106 289.388 123.106ZM288.862 191.414C292.055 191.414 294.642 188.827 294.642 185.635C294.642 182.442 292.055 179.855 288.862 179.855C285.67 179.855 283.082 182.442 283.082 185.635C283.082 188.827 285.67 191.414 288.862 191.414Z" fill="white" fill-opacity="0.25"/>
  <path d="M294.642 143.949C294.642 147.141 292.055 149.729 288.862 149.729C285.67 149.729 283.082 147.141 283.082 143.949C283.082 140.757 285.67 138.169 288.862 138.169C292.055 138.169 294.642 140.757 294.642 143.949Z" fill="white" fill-opacity="0.25"/>
  </g>
  </g>
  <defs>
  <clipPath id="clip0_589_123547">
  <rect width="350" height="350" fill="white"/>
  </clipPath>
  </defs>

    
    
  <g clip-path="url(#clip0_680_69025)">
  <mask id="mask0_680_69025" style="mask-type:alpha" maskUnits="userSpaceOnUse" x="217" y="77" width="102" height="210">
  <path d="M286.125 141.452L286.15 141.712L286.408 141.752L286.538 141.772L286.025 145.077C285.934 145.663 285.477 146.101 284.904 146.144C283.985 146.214 282.554 146.287 280.643 146.286L280.364 146.286L280.312 146.56L274.16 179.037C274.099 179.359 273.93 179.577 273.695 179.653C273.133 179.834 272.005 180.071 269.928 180.102L269.711 180.105L269.624 180.303C267.404 185.339 266.167 195.414 271.757 209.39C279.967 229.915 284.554 242.082 276.779 258.339C273.717 264.742 266.667 270.662 258.909 275.545C251.338 280.31 243.147 284.055 237.475 286.273L234.166 265.095C237.669 263.922 242.531 261.732 247.125 258.638C251.836 255.466 256.295 251.323 258.702 246.326C263.363 236.644 259.679 228.342 255.922 219.877L255.901 219.829C254.807 217.365 253.707 214.887 252.791 212.341C251.363 208.377 250.487 202.434 250.188 196.359L250.179 196.171L250.015 196.08C249.158 195.605 248.078 195.303 246.738 195.303H229.27V195.303L229.26 195.303C228.618 195.321 227.883 195.742 227.183 196.33C226.467 196.931 225.729 197.757 225.074 198.686C224.42 199.616 223.842 200.66 223.454 201.701C223.328 202.04 223.22 202.381 223.137 202.719L218.352 184.344C219.024 184.634 220.002 184.961 221.209 185.244C222.942 185.652 225.174 185.977 227.705 185.977H244.652H244.664L244.675 185.976C245.923 185.892 248.452 185.5 250.224 184.55L250.384 184.465L250.401 184.285C250.658 181.568 251.068 179.169 251.627 177.329L251.715 177.042L251.439 176.922C249.576 176.112 248.573 175.351 248.094 174.911C247.898 174.731 247.809 174.45 247.84 174.13L251.022 141.952L251.048 141.682L250.79 141.599C249.141 141.063 247.887 140.593 247.065 140.266C246.523 140.05 246.213 139.486 246.305 138.893L246.815 135.606L246.922 135.622L247.57 135.723L247.274 135.138C247.268 135.126 247.265 135.117 247.264 135.112C247.263 135.111 247.263 135.11 247.263 135.109C247.268 135.101 247.282 135.082 247.318 135.055C247.384 135.005 247.497 134.948 247.672 134.891C248.021 134.777 248.543 134.69 249.231 134.635C250.602 134.525 252.557 134.551 254.931 134.71L255.048 134.717L255.144 134.651C255.835 134.175 256.632 133.159 257.393 131.571C258.159 129.974 258.903 127.765 259.47 124.865C260.895 117.569 261.736 111.361 260.552 105.141C260.438 104.542 260.124 103.683 259.698 102.66C259.27 101.63 258.717 100.405 258.113 99.066L258.111 99.0622C256.628 95.7771 254.83 91.7907 253.722 88.1637C253.169 86.3503 252.793 84.6426 252.712 83.1681C252.631 81.6879 252.849 80.488 253.434 79.6474C253.617 79.3845 253.931 79.1358 254.395 78.913C254.857 78.6911 255.447 78.5043 256.154 78.3541C257.57 78.0538 259.413 77.9082 261.548 77.8972C265.814 77.8752 271.189 78.3909 276.506 79.2402C281.823 80.0895 287.066 81.27 291.068 82.5723C293.071 83.224 294.75 83.9022 295.97 84.5787C296.58 84.9171 297.065 85.2495 297.416 85.5706C297.77 85.8946 297.964 86.1864 298.035 86.4394C298.249 87.2069 298.136 88.0911 297.734 89.0882C297.333 90.085 296.654 91.1666 295.78 92.309C294.031 94.5952 291.546 97.0667 289.076 99.5229L289.054 99.5454C286.287 102.296 283.533 105.035 281.942 107.422C280.83 109.09 279.963 111.174 279.298 113.41L279.142 113.934L279.68 113.838C280.966 113.608 283.491 113.629 286.831 113.894C290.157 114.158 294.256 114.662 298.67 115.382C304.119 116.271 309.008 117.319 312.504 118.295C314.255 118.784 315.645 119.251 316.58 119.666C317.05 119.875 317.387 120.063 317.595 120.224C317.7 120.305 317.756 120.367 317.783 120.409C317.784 120.409 317.784 120.409 317.784 120.41L317.343 120.86L317.99 120.961L318.17 120.989L317.657 124.294C317.566 124.88 317.108 125.318 316.536 125.361C313.994 125.552 307.539 125.779 297.856 124.355C288.009 122.907 281.259 120.502 278.696 119.483C278.62 119.452 278.549 119.415 278.483 119.373L278.043 119.088L277.967 119.607C277.521 122.67 277.36 125.634 277.407 127.922C277.444 129.773 277.807 132.109 278.247 134.146C278.468 135.167 278.708 136.117 278.94 136.901C279.17 137.678 279.396 138.311 279.59 138.684L279.658 138.814L279.8 138.853C281.784 139.397 283.391 139.93 284.506 140.415C285.065 140.658 285.486 140.883 285.767 141.083C285.907 141.183 286.001 141.27 286.06 141.341C286.119 141.413 286.124 141.449 286.125 141.452ZM247.26 135.114C247.26 135.114 247.26 135.113 247.261 135.112L247.26 135.114Z" fill="#C4C4C4" stroke="black" stroke-width="0.673831"/>
  </mask>
  <g mask="url(#mask0_680_69025)">
  <rect x="318.098" y="289.929" width="135.807" height="226.497" rx="2" transform="rotate(-180 318.098 289.929)" fill="url(#paint0_linear_680_69025)"/>
  <g opacity="0.5">
  <g style="mix-blend-mode:overlay" opacity="0.5">
  <path d="M299.567 222.6C243.287 184.475 378.256 114.766 424.471 110.187H272.088C226.123 115.183 212.967 138.082 212.134 148.907V240.087C225.041 257.573 251.301 292.105 333.291 313.78C441.957 342.508 573.01 286.699 528.141 222.6C493.168 172.639 377.007 275.06 299.567 222.6Z" fill="white"/>
  </g>
  <g style="mix-blend-mode:overlay" opacity="0.5">
  <path fill-rule="evenodd" clip-rule="evenodd" d="M476.93 123.926C440.292 131.837 373.01 151.405 396.992 166.393C407.964 173.251 430.986 173.248 458.033 173.244C504.877 173.237 563.793 173.228 593.091 208.861C640.508 266.531 603.083 357.496 488.172 393.718C486.57 394.223 484.959 394.731 483.339 395.241C368.751 431.346 211.042 481.037 303.314 528.615C331.834 543.321 363.535 532.587 396.317 521.488C455.416 501.478 518.029 480.279 571.857 604.806H671.78C600.585 557.343 607.202 464.935 653.045 442.431C705.416 416.721 699.23 366.572 694.808 330.723C693.43 319.547 692.223 309.761 693.014 302.539V123.926H476.93ZM571.857 406.209C554.87 433.188 493.168 448.26 464.44 452.423C440.708 481.151 498.164 468.661 506.907 461.167C515.65 453.672 533.137 471.159 538.133 494.891C543.129 518.622 585.597 514.875 583.099 494.891C580.6 474.906 580.6 452.423 609.328 429.941C638.056 407.458 593.091 372.485 571.857 406.209Z" fill="white"/>
  </g>
  </g>
  <g opacity="0.6">
  <circle cx="231.232" cy="194.507" r="1.16688" fill="white"/>
  <circle cx="296.707" cy="274.818" r="1.16688" transform="rotate(75 296.707 274.818)" fill="white"/>
  <circle cx="225.164" cy="155.922" r="1.16688" fill="white"/>
  <circle cx="233.851" cy="177.882" r="1.16688" transform="rotate(75 233.851 177.882)" fill="white"/>
  <circle cx="234.762" cy="242.611" r="1.16688" transform="rotate(75 234.762 242.611)" fill="white"/>
  <circle cx="240.946" cy="226.619" r="1.16688" transform="rotate(75 240.946 226.619)" fill="white"/>
  <circle cx="219.095" cy="250.984" r="1.16688" fill="white"/>
  <circle cx="226.297" cy="268.31" r="1.16688" fill="white"/>
  <circle cx="239.013" cy="277.713" r="1.16688" transform="rotate(75 239.013 277.713)" fill="white"/>
  <circle cx="283.812" cy="219.482" r="1.16688" transform="rotate(75 283.812 219.482)" fill="white"/>
  <circle cx="236.323" cy="117.463" r="1.16688" fill="white"/>
  <circle cx="248.172" cy="87.3854" r="1.16688" fill="white"/>
  <circle cx="300.58" cy="85.1067" r="1.16688" fill="white"/>
  <circle cx="302.86" cy="117.008" r="1.16688" fill="white"/>
  <circle cx="257.287" cy="147.997" r="1.16688" fill="white"/>
  <circle cx="290.099" cy="147.997" r="1.16688" fill="white"/>
  <circle cx="274.604" cy="172.607" r="1.16688" fill="white"/>
  <circle cx="252.825" cy="188.106" r="1.16688" transform="rotate(75 252.825 188.106)" fill="white"/>
  <circle cx="311.781" cy="283.155" r="1.16688" transform="rotate(75 311.781 283.155)" fill="white"/>
  <circle cx="260.738" cy="285.89" r="1.16688" transform="rotate(75 260.738 285.89)" fill="white"/>
  <circle cx="259.827" cy="260.369" r="1.16688" transform="rotate(75 259.827 260.369)" fill="white"/>
  <circle cx="249.62" cy="206.2" r="1.16688" transform="rotate(75 249.62 206.2)" fill="white"/>
  <circle cx="268.571" cy="206.487" r="1.16688" fill="white"/>
  <circle cx="297.823" cy="263.622" r="1.16688" transform="rotate(165 297.823 263.622)" fill="white"/>
  <circle cx="246.634" cy="249.117" r="1.16688" fill="white"/>
  <circle cx="300.21" cy="248.486" r="1.16688" transform="rotate(165 300.21 248.486)" fill="white"/>
  <circle cx="272.46" cy="234.803" r="1.16688" fill="white"/>
  <circle cx="278.968" cy="268.996" r="1.16688" transform="rotate(165 278.968 268.996)" fill="white"/>
  <path d="M255.6 239.721L255.18 238.585L254.044 238.165L255.18 237.745L255.6 236.609L256.02 237.745L257.156 238.165L256.02 238.585L255.6 239.721Z" fill="#FFF7B0"/>
  <path d="M220.509 144.473L220.088 143.338L218.953 142.918L220.088 142.497L220.509 141.362L220.929 142.497L222.064 142.918L220.929 143.338L220.509 144.473Z" fill="#FFF7B0"/>
  <path d="M257.933 278.15L257.513 277.014L256.377 276.594L257.513 276.174L257.933 275.038L258.354 276.174L259.489 276.594L258.354 277.014L257.933 278.15Z" fill="#FFF7B0"/>
  <path d="M222.842 182.903L222.422 181.767L221.287 181.347L222.422 180.927L222.842 179.791L223.263 180.927L224.398 181.347L223.263 181.767L222.842 182.903Z" fill="#FFF7B0"/>
  <path d="M220.509 221.332L220.088 220.196L218.953 219.776L220.088 219.356L220.509 218.22L220.929 219.356L222.064 219.776L220.929 220.196L220.509 221.332Z" fill="#FFF7B0"/>
  <path d="M257.931 222.914L257.196 220.927L255.208 220.191L257.196 219.456L257.931 217.468L258.666 219.456L260.654 220.191L258.666 220.927L257.931 222.914Z" fill="#FFF7B0"/>
  <path d="M265.222 119.919L264.486 117.932L262.499 117.196L264.486 116.461L265.222 114.474L265.957 116.461L267.944 117.196L265.957 117.932L265.222 119.919Z" fill="#FFF7B0"/>
  <path d="M281.641 102.169L280.04 97.8446L275.716 96.2445L280.04 94.6443L281.641 90.32L283.241 94.6443L287.565 96.2445L283.241 97.8446L281.641 102.169Z" fill="#FFF7B0"/>
  </g>
  </g>
  <g filter="url(#filter0_d_680_69025)">
  <mask id="mask1_680_69025" style="mask-type:alpha" maskUnits="userSpaceOnUse" x="112" y="212" width="128" height="104">
  <path d="M205.983 315.45H176.56H145.385C122.517 315.45 108.3 292.999 113.717 269.712L115.608 261.585L125.529 212.456C136.099 221.295 153.515 225.872 176.56 225.872C199.604 225.872 211.687 220.431 224.675 212.456L235.758 261.585L237.649 269.703C243.072 292.992 228.854 315.45 205.983 315.45Z" fill="url(#paint1_radial_680_69025)" stroke="black" stroke-width="0.455729"/>
  </mask>
  <g mask="url(#mask1_680_69025)">
  <rect x="274.367" y="370.594" width="166.797" height="166.797" rx="0.911458" transform="rotate(-180 274.367 370.594)" fill="url(#paint2_linear_680_69025)"/>
  <g style="mix-blend-mode:overlay" filter="url(#filter1_f_680_69025)">
  <ellipse cx="263.737" cy="247.069" rx="273.297" ry="336.951" transform="rotate(0.126655 263.737 247.069)" fill="url(#paint3_radial_680_69025)"/>
  </g>
  <g opacity="0.5">
  <g style="mix-blend-mode:overlay" opacity="0.5">
  <path d="M141.262 210.18C115.614 192.805 177.123 161.037 198.184 158.95H128.739C107.791 161.227 101.796 171.662 101.416 176.596V218.149C107.298 226.118 119.266 241.855 156.631 251.733C206.153 264.825 265.878 239.391 245.43 210.18C229.492 187.411 176.554 234.087 141.262 210.18Z" fill="white"/>
  </g>
  <g style="mix-blend-mode:overlay" opacity="0.5">
  <path fill-rule="evenodd" clip-rule="evenodd" d="M222.091 165.211C205.394 168.816 174.732 177.734 185.661 184.565C190.662 187.69 201.153 187.689 213.479 187.687C234.827 187.684 261.677 187.679 275.029 203.918C296.639 230.2 279.583 271.656 227.214 288.164C226.484 288.394 225.75 288.625 225.012 288.858C172.791 305.311 100.918 327.957 142.969 349.64C155.967 356.342 170.414 351.45 185.353 346.392C212.287 337.273 240.821 327.611 265.352 384.362H310.89C278.444 362.732 281.46 320.619 302.352 310.363C326.219 298.647 323.4 275.792 321.385 259.455C320.756 254.362 320.206 249.902 320.567 246.61V165.211H222.091ZM265.352 293.856C257.611 306.151 229.491 313.02 216.399 314.917C205.584 328.009 231.768 322.317 235.753 318.902C239.737 315.486 247.706 323.455 249.983 334.271C252.26 345.086 271.614 343.378 270.475 334.271C269.337 325.163 269.337 314.917 282.429 304.671C295.521 294.425 275.029 278.487 265.352 293.856Z" fill="white"/>
  </g>
  <g style="mix-blend-mode:overlay" opacity="0.5">
  <path d="M147.523 273.933C171.43 273.933 170.292 293.287 147.523 297.271C125.328 301.155 103.674 307.203 103.123 319.105V320.04C103.109 319.724 103.109 319.413 103.123 319.105V260.831C112.31 266.027 130.403 273.933 147.523 273.933Z" fill="white"/>
  </g>
  </g>
  <g opacity="0.6">
  <ellipse rx="1.10576" ry="1.1626" transform="matrix(-0.961979 0.273124 -0.24516 -0.969483 232.684 277.476)" fill="white"/>
  <ellipse rx="1.10576" ry="1.1626" transform="matrix(-0.961979 0.273124 -0.24516 -0.969483 183.707 250.308)" fill="white"/>
  <ellipse rx="1.1626" ry="1.10576" transform="matrix(0.24516 0.969483 -0.961979 0.273124 153.02 227.878)" fill="white"/>
  <ellipse rx="1.10576" ry="1.1626" transform="matrix(-0.961979 0.273124 -0.24516 -0.969483 198.662 286.008)" fill="white"/>
  <ellipse rx="1.1626" ry="1.10576" transform="matrix(0.24516 0.969483 -0.961979 0.273124 186.712 212.03)" fill="white"/>
  <ellipse rx="1.1626" ry="1.10576" transform="matrix(0.24516 0.969483 -0.961979 0.273124 201.795 226.671)" fill="white"/>
  <ellipse rx="1.10576" ry="1.1626" transform="matrix(-0.961979 0.273124 -0.24516 -0.969483 235.93 237.414)" fill="white"/>
  <ellipse rx="1.10576" ry="1.1626" transform="matrix(-0.961979 0.273124 -0.24516 -0.969483 219.992 236.302)" fill="white"/>
  <ellipse rx="1.10576" ry="1.1626" transform="matrix(-0.961979 0.273124 -0.24516 -0.969483 166.619 295.75)" fill="white"/>
  <ellipse rx="1.1626" ry="1.10576" transform="matrix(0.24516 0.969483 -0.961979 0.273124 195.905 245.984)" fill="white"/>
  <ellipse rx="1.10576" ry="1.1626" transform="matrix(-0.961979 0.273124 -0.24516 -0.969483 149.544 292.545)" fill="white"/>
  <ellipse rx="1.1626" ry="1.10576" transform="matrix(0.24516 0.969483 -0.961979 0.273124 217.137 214.34)" fill="white"/>
  <ellipse rx="1.1626" ry="1.10576" transform="matrix(0.24516 0.969483 -0.961979 0.273124 167.246 236.215)" fill="white"/>
  <ellipse rx="1.1626" ry="1.10576" transform="matrix(0.24516 0.969483 -0.961979 0.273124 168.106 273.585)" fill="white"/>
  <ellipse rx="1.1626" ry="1.10576" transform="matrix(0.24516 0.969483 -0.961979 0.273124 119.076 238.95)" fill="white"/>
  <ellipse rx="1.1626" ry="1.10576" transform="matrix(0.24516 0.969483 -0.961979 0.273124 118.215 213.429)" fill="white"/>
  <ellipse rx="1.10576" ry="1.1626" transform="matrix(-0.961979 0.273124 -0.24516 -0.969483 146.741 248.401)" fill="white"/>
  <ellipse rx="1.1626" ry="1.10576" transform="matrix(0.24516 0.969483 -0.961979 0.273124 151.22 267.046)" fill="white"/>
  <ellipse rx="1.1626" ry="1.10576" transform="matrix(0.24516 0.969483 -0.961979 0.273124 239.503 213.885)" fill="white"/>
  <ellipse rx="1.10576" ry="1.1626" transform="matrix(-0.961979 0.273124 -0.24516 -0.969483 154.073 216.682)" fill="white"/>
  <ellipse rx="1.1626" ry="1.10576" transform="matrix(0.24516 0.969483 -0.961979 0.273124 121.285 259.277)" fill="white"/>
  <ellipse rx="1.1626" ry="1.10576" transform="matrix(0.24516 0.969483 -0.961979 0.273124 224.508 255.176)" fill="white"/>
  <ellipse rx="1.1626" ry="1.10576" transform="matrix(0.24516 0.969483 -0.961979 0.273124 210.224 252.788)" fill="white"/>
  <ellipse rx="1.10576" ry="1.1626" transform="matrix(-0.961979 0.273124 -0.24516 -0.969483 136.28 222.056)" fill="white"/>
  <ellipse rx="1.1626" ry="1.10576" transform="matrix(0.24516 0.969483 -0.961979 0.273124 126.357 278.132)" fill="white"/>
  <ellipse rx="1.1626" ry="1.10576" transform="matrix(0.24516 0.969483 -0.961979 0.273124 229.58 274.03)" fill="white"/>
  <path d="M116.428 231.21L116.032 230.074L114.96 229.654L116.032 229.234L116.428 228.098L116.825 229.234L117.897 229.654L116.825 230.074L116.428 231.21Z" fill="#7A6F0C"/>
  <path d="M114.226 269.639L113.829 268.504L112.757 268.083L113.829 267.663L114.226 266.528L114.622 267.663L115.694 268.083L114.622 268.504L114.226 269.639Z" fill="#7A6F0C"/>
  <path d="M134.855 276.485L134.161 274.497L132.285 273.762L134.161 273.026L134.855 271.039L135.549 273.026L137.424 273.762L135.549 274.497L134.855 276.485Z" fill="#7A6F0C"/>
  <path d="M239.283 228.643L238.589 226.656L236.714 225.921L238.589 225.185L239.283 223.198L239.977 225.185L241.853 225.921L239.977 226.656L239.283 228.643Z" fill="#7A6F0C"/>
  <path d="M129.717 254.392L129.023 252.404L127.147 251.669L129.023 250.934L129.717 248.946L130.411 250.934L132.286 251.669L130.411 252.404L129.717 254.392Z" fill="#7A6F0C"/>
  <path d="M229.225 256.648L228.829 255.513L227.757 255.093L228.829 254.672L229.225 253.537L229.622 254.672L230.693 255.093L229.622 255.513L229.225 256.648Z" fill="#7A6F0C"/>
  </g>
  </g>
  </g>
  <mask id="mask2_680_69025" style="mask-type:alpha" maskUnits="userSpaceOnUse" x="148" y="49" width="54" height="54">
  <path d="M148.568 49.7631H201.432V95.336C201.432 95.336 195.508 102.445 175 102.445C154.492 102.445 148.568 95.336 148.568 95.336V49.7631Z" fill="url(#paint4_radial_680_69025)"/>
  </mask>
  <g mask="url(#mask2_680_69025)">
  <rect x="260" y="135" width="128" height="105" rx="2" transform="rotate(-180 260 135)" fill="url(#paint5_linear_680_69025)"/>
  <g style="mix-blend-mode:overlay" filter="url(#filter2_f_680_69025)">
  <ellipse cx="251.379" cy="68.7798" rx="241.928" ry="298.276" transform="rotate(0.126655 251.379 68.7798)" fill="url(#paint6_radial_680_69025)"/>
  </g>
  <g opacity="0.5">
  <g style="mix-blend-mode:overlay" opacity="0.5">
  <path d="M118.353 92.6033C95.649 77.2229 150.098 49.1009 168.742 47.2534H107.268C88.7247 49.2689 83.4171 58.5069 83.0811 62.8739V99.6577C88.288 106.712 98.8821 120.643 131.958 129.387C175.797 140.977 228.666 118.462 210.565 92.6033C196.456 72.4478 149.594 113.767 118.353 92.6033Z" fill="white"/>
  </g>
  <g style="mix-blend-mode:overlay" opacity="0.5">
  <path fill-rule="evenodd" clip-rule="evenodd" d="M189.905 52.7961C175.125 55.9874 147.982 63.8816 157.657 69.9283C162.083 72.6949 171.371 72.6935 182.282 72.6919C201.18 72.689 224.948 72.6854 236.767 87.0605C255.896 110.326 240.798 147.023 194.44 161.636C193.794 161.84 193.144 162.044 192.491 162.25C146.264 176.816 82.6408 196.862 119.865 216.056C131.371 221.989 144.16 217.659 157.384 213.181C181.226 205.108 206.486 196.556 228.201 246.793H268.512C239.79 227.645 242.46 190.366 260.954 181.288C282.081 170.916 279.586 150.685 277.802 136.222C277.246 131.714 276.759 127.766 277.078 124.852V52.7961H189.905ZM228.201 166.675C221.348 177.559 196.456 183.639 184.867 185.319C175.293 196.908 198.472 191.869 201.999 188.846C205.526 185.823 212.58 192.877 214.596 202.451C216.612 212.025 233.744 210.513 232.736 202.451C231.728 194.389 231.728 185.319 243.318 176.249C254.907 167.179 236.767 153.07 228.201 166.675Z" fill="white"/>
  </g>
  </g>
  <g opacity="0.6">
  <circle cx="154.039" cy="55.7346" r="1.03294" fill="white"/>
  <circle cx="157.164" cy="98.3173" r="1.03294" transform="rotate(75 157.164 98.3173)" fill="white"/>
  <circle cx="162.639" cy="84.1605" r="1.03294" transform="rotate(75 162.639 84.1605)" fill="white"/>
  <circle cx="200.585" cy="77.8429" r="1.03294" transform="rotate(75 200.585 77.8429)" fill="white"/>
  <circle cx="173.154" cy="50.0683" r="1.03294" transform="rotate(75 173.154 50.0683)" fill="white"/>
  <circle cx="170.317" cy="66.085" r="1.03294" transform="rotate(75 170.317 66.085)" fill="white"/>
  <circle cx="187.093" cy="66.3396" r="1.03294" fill="white"/>
  <circle cx="190.536" cy="91.4056" r="1.03294" fill="white"/>
  <path d="M175.61 95.7587L175.238 94.7534L174.233 94.3814L175.238 94.0094L175.61 93.0042L175.982 94.0094L176.988 94.3814L175.982 94.7534L175.61 95.7587Z" fill="#FFF7B0"/>
  <path d="M177.674 80.8809L177.023 79.1216L175.264 78.4707L177.023 77.8197L177.674 76.0605L178.325 77.8197L180.084 78.4707L178.325 79.1216L177.674 80.8809Z" fill="#FFF7B0"/>
  </g>
  </g>
  <ellipse cx="275.03" cy="85.2993" rx="20.0253" ry="3.1901" transform="rotate(9.26455 275.03 85.2993)" fill="white" fill-opacity="0.45"/>
  <mask id="mask3_680_69025" style="mask-type:alpha" maskUnits="userSpaceOnUse" x="144" y="40" width="63" height="10">
  <rect x="144.467" y="40.6456" width="61.9792" height="9.11458" rx="2.27865" fill="#C4C4C4"/>
  </mask>
  <g mask="url(#mask3_680_69025)">
  <rect x="269.789" y="118.423" width="166.797" height="166.797" rx="0.911458" transform="rotate(-180 269.789 118.423)" fill="url(#paint7_linear_680_69025)"/>
  <g style="mix-blend-mode:overlay" filter="url(#filter3_f_680_69025)">
  <ellipse cx="259.158" cy="-5.10082" rx="273.297" ry="336.951" transform="rotate(0.126655 259.158 -5.10082)" fill="url(#paint8_radial_680_69025)"/>
  </g>
  <g opacity="0.5">
  <g style="mix-blend-mode:overlay" opacity="0.5">
  <path fill-rule="evenodd" clip-rule="evenodd" d="M217.514 -86.9589C200.817 -83.3539 170.155 -74.436 181.084 -67.6053C186.085 -64.48 196.576 -64.4815 208.902 -64.4834C230.25 -64.4866 257.1 -64.4907 270.452 -48.2517C292.062 -21.9699 275.006 19.4859 222.637 35.9934C221.907 36.2235 221.173 36.4548 220.435 36.6874C168.214 53.1413 96.3415 75.7871 138.392 97.4695C151.39 104.171 165.837 99.28 180.776 94.2218C207.71 85.1026 236.244 75.4413 260.775 132.192H306.313C273.868 110.562 276.883 68.4491 297.775 58.1931C321.642 46.4765 318.823 23.6221 316.808 7.28435C316.18 2.19141 315.629 -2.26828 315.99 -5.55996V-86.9589H217.514ZM260.775 41.6856C253.034 53.9808 224.914 60.8495 211.822 62.7469C201.007 75.839 227.191 70.1468 231.176 66.7314C235.16 63.3161 243.129 71.2852 245.406 82.1005C247.683 92.9157 267.037 91.2081 265.898 82.1005C264.76 72.9929 264.76 62.7469 277.852 52.5009C290.944 42.2548 270.452 26.3166 260.775 41.6856Z" fill="white"/>
  </g>
  <g style="mix-blend-mode:overlay" opacity="0.5">
  <path d="M142.946 21.7628C166.853 21.7628 165.715 41.1164 142.946 45.1009C120.751 48.9851 99.0969 55.0327 98.5466 66.9348V67.8699C98.5323 67.5542 98.5324 67.2425 98.5466 66.9348V8.66075C107.733 13.8572 125.826 21.7628 142.946 21.7628Z" fill="white"/>
  </g>
  </g>
  <g opacity="0.6">
  <circle cx="177.792" cy="46.0244" r="1.16688" transform="rotate(75 177.792 46.0244)" fill="white"/>
  </g>
  </g>
  <path d="M243.549 195.64C239.377 195.64 235.178 195.64 231.093 195.64M243.549 195.64H231.093M243.549 195.64C247.72 195.64 249.049 195.93 249.853 196.375C250.151 202.463 251.031 208.445 252.474 212.455C256.576 223.849 264.323 233.875 258.399 246.179C253.659 256.023 243.056 262.586 236.068 264.864M231.093 195.64C227.009 195.64 223.043 201.199 223.46 204.708L219.206 183.71C221.161 184.354 222.7 185.64 227.706 185.64M227.706 185.64C232.712 185.64 241.09 185.64 244.653 185.64M227.706 185.64H244.653M244.653 185.64C245.883 185.557 248.356 185.17 250.066 184.254C250.325 181.524 250.737 179.101 251.306 177.231M318.099 120.707L317.535 124.345C317.421 125.077 316.844 125.642 316.106 125.697C313.541 125.89 307.517 126.117 297.807 124.689C287.93 123.236 280.875 120.742 278.293 119.715M238.119 286.511C249.512 282.106 271.096 271.7 277.084 258.484C284.93 241.166 280.274 229.773 272.071 209.265C266.506 195.354 267.757 185.375 269.933 180.439M246.99 135.221L246.428 138.842C246.313 139.581 246.245 140.302 246.941 140.579C247.769 140.909 249.03 141.381 250.687 141.919M286.468 141.491L285.903 145.129C285.79 145.86 285.668 146.425 284.93 146.48C284.003 146.55 282.563 146.624 280.644 146.623M269.933 180.439C272.032 180.408 273.195 180.168 273.799 179.974C274.187 179.849 274.416 179.501 274.492 179.1L280.644 146.623M269.933 180.439C267.935 180.468 265.087 180.307 261.066 179.737C256.49 179.087 253.382 178.133 251.306 177.231M251.306 177.231C249.412 176.408 248.376 175.627 247.866 175.159C247.573 174.89 247.467 174.493 247.506 174.097L250.687 141.919M280.644 146.623C277.256 146.621 272.374 146.383 266.176 145.472C259.469 144.486 254.192 143.057 250.687 141.919M254.954 134.374C254.624 134.601 254.335 134.679 254.111 134.62C260.481 137.637 271.878 139.648 280.091 138.81C279.476 138.363 277.825 131.938 277.744 127.916C277.673 124.393 278.095 119.243 279.311 114.616C279.409 114.242 279.513 113.872 279.621 113.506M254.954 134.374C256.193 133.52 258.015 130.558 259.14 124.8C260.564 117.508 261.392 111.356 260.222 105.204C259.488 101.349 249.512 84.6959 253.158 79.455C256.804 74.2142 296.85 80.938 298.36 86.3489C299.87 91.7597 286.581 101.072 282.223 107.609C281.136 109.239 280.281 111.289 279.621 113.506M254.954 134.374C250.193 134.056 247.059 134.265 246.93 135.054C246.71 136.405 255.38 138.943 266.295 140.724C277.21 142.505 286.238 142.853 286.458 141.502C286.578 140.766 284.059 139.678 279.976 138.552M279.621 113.506C282.29 113.03 289.882 113.607 298.725 115.049C309.64 116.83 318.329 119.254 318.131 120.465C317.934 121.676 308.925 121.213 298.01 119.433C288.882 117.944 281.312 116.005 279.192 114.702M294.939 88.5957C294.655 90.3345 285.576 90.3008 274.661 88.5202C263.746 86.7397 255.127 83.8867 255.41 82.1478C255.694 80.4089 264.773 80.4427 275.688 82.2232C286.603 84.0038 295.222 86.8568 294.939 88.5957Z" stroke="black" stroke-width="0.911458"/>
  <path d="M225.131 212.456C225.131 212.456 206.618 226.127 175.229 226.127C143.84 226.127 125.326 212.456 125.326 212.456" stroke="black" stroke-width="0.911458"/>
  <path d="M201.433 95.3331C201.433 95.3331 192.774 102.169 175.001 102.169C157.228 102.169 148.569 95.3331 148.569 95.3331" stroke="black" stroke-width="0.911458"/>
  <g filter="url(#filter4_b_680_69025)">
  <mask id="path-107-inside-1_680_69025" fill="white">
  <path fill-rule="evenodd" clip-rule="evenodd" d="M147.107 50.1733C145.346 50.1733 143.917 48.745 143.917 46.9832V43.3799C143.917 41.618 145.346 40.1898 147.107 40.1898H203.712C205.474 40.1898 206.902 41.618 206.902 43.3799V46.9832C206.902 48.745 205.474 50.1733 203.712 50.1733H203.084C202.424 50.1733 201.888 50.7087 201.888 51.3691V96.9671C201.888 97.0459 201.896 97.1247 201.912 97.202L213.06 152.835L225.178 211.109C225.184 211.139 225.221 211.152 225.244 211.132V211.132C225.268 211.112 225.304 211.124 225.31 211.154L236.173 260.87L237.619 268.133C243.059 291.731 229.704 315.906 206.761 315.906H176.334H144.151C121.212 315.906 108.313 291.738 113.746 268.142L115.192 260.87L125.13 211.156C125.137 211.126 125.173 211.113 125.197 211.133V211.133C125.221 211.153 125.257 211.14 125.263 211.11L148.819 93.5596C148.827 93.5181 148.838 93.4774 148.85 93.4376C148.925 93.1965 149.024 92.9557 149.024 92.7031V51.3691C149.024 50.7087 148.488 50.1733 147.828 50.1733H147.107Z"/>
  </mask>
  <path d="M213.06 152.835L212.166 153.014L212.168 153.021L213.06 152.835ZM236.173 260.87L237.067 260.692L237.066 260.684L237.064 260.676L236.173 260.87ZM237.619 268.133L236.725 268.311L236.728 268.324L236.731 268.338L237.619 268.133ZM113.746 268.142L114.634 268.347L114.638 268.334L114.64 268.32L113.746 268.142ZM115.192 260.87L114.298 260.692L114.298 260.693L115.192 260.87ZM148.819 93.5596L147.925 93.3805L147.925 93.3805L148.819 93.5596ZM125.263 211.11L124.37 210.93L125.263 211.11ZM201.912 97.202L201.018 97.3811L201.912 97.202ZM125.13 211.156L126.024 211.335L125.13 211.156ZM148.85 93.4376L149.72 93.7091L148.85 93.4376ZM225.31 211.154L224.42 211.349L225.31 211.154ZM225.178 211.109L224.286 211.294L225.178 211.109ZM143.006 46.9832C143.006 49.2484 144.842 51.0847 147.107 51.0847V49.2618C145.849 49.2618 144.829 48.2416 144.829 46.9832H143.006ZM143.006 43.3799V46.9832H144.829V43.3799H143.006ZM147.107 39.2783C144.842 39.2783 143.006 41.1146 143.006 43.3799H144.829C144.829 42.1214 145.849 41.1012 147.107 41.1012V39.2783ZM203.712 39.2783H147.107V41.1012H203.712V39.2783ZM207.814 43.3799C207.814 41.1147 205.977 39.2783 203.712 39.2783V41.1012C204.97 41.1012 205.991 42.1214 205.991 43.3799H207.814ZM207.814 46.9832V43.3799H205.991V46.9832H207.814ZM203.712 51.0847C205.977 51.0847 207.814 49.2484 207.814 46.9832H205.991C205.991 48.2416 204.97 49.2618 203.712 49.2618V51.0847ZM203.084 51.0847H203.712V49.2618H203.084V51.0847ZM202.8 96.9671V51.3691H200.977V96.9671H202.8ZM213.954 152.656L202.805 97.0229L201.018 97.3811L212.166 153.014L213.954 152.656ZM226.071 210.923L213.952 152.649L212.168 153.021L224.286 211.294L226.071 210.923ZM237.064 260.676L226.201 210.96L224.42 211.349L235.283 261.065L237.064 260.676ZM238.513 267.955L237.067 260.692L235.279 261.048L236.725 268.311L238.513 267.955ZM206.761 316.818C218.59 316.818 227.94 310.572 233.61 301.346C239.27 292.135 241.278 279.945 238.507 267.928L236.731 268.338C239.401 279.919 237.45 291.615 232.057 300.392C226.673 309.152 217.874 314.995 206.761 314.995V316.818ZM176.334 316.818H206.761V314.995H176.334V316.818ZM144.151 316.818H176.334V314.995H144.151V316.818ZM112.858 267.938C110.093 279.947 111.983 292.132 117.528 301.343C123.084 310.571 132.321 316.818 144.151 316.818V314.995C133.042 314.995 124.36 309.157 119.09 300.403C113.808 291.63 111.966 279.934 114.634 268.347L112.858 267.938ZM114.298 260.693L112.852 267.965L114.64 268.32L116.086 261.048L114.298 260.693ZM124.237 210.977L114.298 260.692L116.086 261.049L126.024 211.335L124.237 210.977ZM147.925 93.3805L124.37 210.93L126.157 211.289L149.713 93.7387L147.925 93.3805ZM147.98 93.1661C147.958 93.2361 147.94 93.3077 147.925 93.3805L149.713 93.7387C149.715 93.7285 149.717 93.7186 149.72 93.7091L147.98 93.1661ZM148.112 51.3691V92.7031H149.935V51.3691H148.112ZM147.107 51.0847H147.828V49.2618H147.107V51.0847ZM149.935 51.3691C149.935 50.2053 148.992 49.2618 147.828 49.2618V51.0847C147.985 51.0847 148.112 51.2121 148.112 51.3691H149.935ZM124.61 211.83C125.164 212.296 126.015 211.998 126.157 211.289L124.37 210.93C124.5 210.282 125.277 210.009 125.784 210.435L124.61 211.83ZM200.977 96.9671C200.977 97.1061 200.991 97.2448 201.018 97.3811L202.805 97.0229C202.802 97.0045 202.8 96.9858 202.8 96.9671H200.977ZM126.024 211.335C125.894 211.984 125.116 212.256 124.61 211.83L125.784 210.435C125.23 209.969 124.379 210.267 124.237 210.977L126.024 211.335ZM149.72 93.7091C149.761 93.5778 149.935 93.1372 149.935 92.7031H148.112C148.112 92.7133 148.11 92.7474 148.087 92.8297C148.076 92.8703 148.062 92.9151 148.043 92.9727C148.026 93.0243 148.001 93.0975 147.98 93.1661L149.72 93.7091ZM225.831 211.829C225.33 212.251 224.56 211.989 224.42 211.349L226.201 210.96C226.048 210.26 225.206 209.973 224.657 210.434L225.831 211.829ZM224.286 211.294C224.433 212 225.279 212.293 225.831 211.829L224.657 210.434C225.162 210.01 225.936 210.278 226.071 210.923L224.286 211.294ZM203.084 49.2618C201.92 49.2618 200.977 50.2053 200.977 51.3691H202.8C202.8 51.2121 202.927 51.0847 203.084 51.0847V49.2618Z" fill="black" mask="url(#path-107-inside-1_680_69025)"/>
  </g>
  </g>
  <defs>
  <filter id="filter0_d_680_69025" x="110.06" y="212.035" width="132.16" height="109.112" filterUnits="userSpaceOnUse" color-interpolation-filters="sRGB">
  <feFlood flood-opacity="0" result="BackgroundImageFix"/>
  <feColorMatrix in="SourceAlpha" type="matrix" values="0 0 0 0 0 0 0 0 0 0 0 0 0 0 0 0 0 0 127 0" result="hardAlpha"/>
  <feOffset dx="0.455729" dy="2.73438"/>
  <feGaussianBlur stdDeviation="1.36719"/>
  <feComposite in2="hardAlpha" operator="out"/>
  <feColorMatrix type="matrix" values="0 0 0 0 0 0 0 0 0 0 0 0 0 0 0 0 0 0 0.25 0"/>
  <feBlend mode="normal" in2="BackgroundImageFix" result="effect1_dropShadow_680_69025"/>
  <feBlend mode="normal" in="SourceGraphic" in2="effect1_dropShadow_680_69025" result="shape"/>
  </filter>
  <filter id="filter1_f_680_69025" x="-14.1181" y="-94.4384" width="555.71" height="683.015" filterUnits="userSpaceOnUse" color-interpolation-filters="sRGB">
  <feFlood flood-opacity="0" result="BackgroundImageFix"/>
  <feBlend mode="normal" in="SourceGraphic" in2="BackgroundImageFix" result="shape"/>
  <feGaussianBlur stdDeviation="2.27865" result="effect1_foregroundBlur_680_69025"/>
  </filter>
  <filter id="filter2_f_680_69025" x="5.41584" y="-233.53" width="491.926" height="604.619" filterUnits="userSpaceOnUse" color-interpolation-filters="sRGB">
  <feFlood flood-opacity="0" result="BackgroundImageFix"/>
  <feBlend mode="normal" in="SourceGraphic" in2="BackgroundImageFix" result="shape"/>
  <feGaussianBlur stdDeviation="2.0171" result="effect1_foregroundBlur_680_69025"/>
  </filter>
  <filter id="filter3_f_680_69025" x="-18.6972" y="-346.609" width="555.71" height="683.015" filterUnits="userSpaceOnUse" color-interpolation-filters="sRGB">
  <feFlood flood-opacity="0" result="BackgroundImageFix"/>
  <feBlend mode="normal" in="SourceGraphic" in2="BackgroundImageFix" result="shape"/>
  <feGaussianBlur stdDeviation="2.27865" result="effect1_foregroundBlur_680_69025"/>
  </filter>
  <filter id="filter4_b_680_69025" x="98.1596" y="25.8395" width="155.02" height="304.417" filterUnits="userSpaceOnUse" color-interpolation-filters="sRGB">
  <feFlood flood-opacity="0" result="BackgroundImageFix"/>
  <feGaussianBlur in="BackgroundImage" stdDeviation="7.17515"/>
  <feComposite in2="SourceAlpha" operator="in" result="effect1_backgroundBlur_680_69025"/>
  <feBlend mode="normal" in="SourceGraphic" in2="effect1_backgroundBlur_680_69025" result="shape"/>
  </filter>
  <linearGradient id="paint0_linear_680_69025" x1="398.553" y1="396.002" x2="358.841" y2="456.553" gradientUnits="userSpaceOnUse">
  <stop stop-color="#830101"/>
  <stop offset="0.979167" stop-color="#FF1818" stop-opacity="0.98"/>
  </linearGradient>
  <radialGradient id="paint1_radial_680_69025" cx="0" cy="0" r="1" gradientUnits="userSpaceOnUse" gradientTransform="translate(231.78 201.518) rotate(136.943) scale(153.528 198.077)">
  <stop stop-color="#FF0000"/>
  <stop offset="0.530354" stop-color="#FFE925"/>
  <stop offset="1" stop-color="#289B04"/>
  </radialGradient>
  <linearGradient id="paint2_linear_680_69025" x1="409.28" y1="467.208" x2="331.035" y2="468.88" gradientUnits="userSpaceOnUse">
  <stop stop-color="#830101"/>
  <stop offset="0.557538" stop-color="#FF1818" stop-opacity="0.98"/>
  <stop offset="1" stop-color="#830101"/>
  </linearGradient>
  <radialGradient id="paint3_radial_680_69025" cx="0" cy="0" r="1" gradientUnits="userSpaceOnUse" gradientTransform="translate(263.737 296.83) rotate(92.5586) scale(219.36 178.105)">
  <stop offset="0.479167" stop-color="white" stop-opacity="0.75"/>
  <stop offset="1" stop-color="white" stop-opacity="0"/>
  </radialGradient>
  <radialGradient id="paint4_radial_680_69025" cx="0" cy="0" r="1" gradientUnits="userSpaceOnUse" gradientTransform="translate(198.491 44.4395) rotate(132.639) scale(69.3519 89.3771)">
  <stop stop-color="#FF0000"/>
  <stop offset="0.530354" stop-color="#FFE925"/>
  <stop offset="1" stop-color="#6DF244"/>
  </radialGradient>
  <linearGradient id="paint5_linear_680_69025" x1="357.968" y1="197.697" x2="319.644" y2="199.127" gradientUnits="userSpaceOnUse">
  <stop stop-color="#830101"/>
  <stop offset="0.41086" stop-color="#FF1818" stop-opacity="0.98"/>
  <stop offset="0.823546" stop-color="#830101"/>
  </linearGradient>
  <radialGradient id="paint6_radial_680_69025" cx="0" cy="0" r="1" gradientUnits="userSpaceOnUse" gradientTransform="translate(251.379 112.829) rotate(92.5586) scale(194.182 157.662)">
  <stop offset="0.479167" stop-color="white" stop-opacity="0.75"/>
  <stop offset="1" stop-color="white" stop-opacity="0"/>
  </radialGradient>
  <linearGradient id="paint7_linear_680_69025" x1="433.743" y1="190.732" x2="377.491" y2="179.684" gradientUnits="userSpaceOnUse">
  <stop stop-color="#830101"/>
  <stop offset="0.557538" stop-color="#FF1818" stop-opacity="0.98"/>
  <stop offset="1" stop-color="#830101"/>
  </linearGradient>
  <radialGradient id="paint8_radial_680_69025" cx="0" cy="0" r="1" gradientUnits="userSpaceOnUse" gradientTransform="translate(259.158 44.6598) rotate(92.5586) scale(219.36 178.105)">
  <stop offset="0.479167" stop-color="white" stop-opacity="0.75"/>
  <stop offset="1" stop-color="white" stop-opacity="0"/>
  </radialGradient>
  <clipPath id="clip0_680_69025">
  <rect width="350" height="350" fill="white" transform="translate(0 0.99707)"/>
  </clipPath>
  </defs>

    
    <path d="M148.647 94.3351L124.888 210.017C124.817 210.363 124.947 210.714 125.237 210.915C128.356 213.082 146.958 225.128 174.998 225.128C203.038 225.128 221.64 213.082 224.76 210.915C225.05 210.714 225.18 210.363 225.109 210.017L201.35 94.3351C201.316 94.4021 201.271 94.4644 201.216 94.5198C199.881 95.8685 193.226 101.484 174.998 101.484C156.771 101.484 150.116 95.8685 148.78 94.5198C148.725 94.4644 148.681 94.4021 148.647 94.3351Z" fill="#FFFFFF" fill-opacity="0.75"/>;
    
    <!-- Color -->
    <path d="M201.049 94.2304L205.113 114.031C203.523 113.76 201.871 113.447 200.18 113.127C186.038 110.452 169.252 107.276 165.003 123.73C163.148 130.914 165.836 135.212 168.45 139.394C170.975 143.43 173.431 147.358 171.668 153.669C169.523 161.35 157.859 166.325 148.479 162.994C138.57 159.476 139.266 144.903 144.961 137.849C150.656 130.794 151.48 120.031 150.656 112.87C150.259 109.409 148.549 106.935 146.313 105.251L148.649 93.8801C148.683 93.9471 148.727 94.0094 148.782 94.0649C150.117 95.4136 156.772 101.03 175 101.03C192.557 101.03 199.378 95.8189 201.049 94.2304Z" fill="url(#paint0_radial_702_67017)"/>

    <!-- Filter -->
    <mask id="mask0_702_67017" style="mask-type:alpha" maskUnits="userSpaceOnUse" x="140" y="93" width="66" height="72">
      <path d="M201.049 94.2304L205.113 114.031C203.523 113.76 201.871 113.447 200.18 113.127C186.038 110.452 169.252 107.276 165.003 123.73C163.148 130.914 165.836 135.212 168.45 139.394C170.975 143.43 173.431 147.358 171.668 153.669C169.523 161.35 157.859 166.325 148.479 162.994C138.57 159.476 139.266 144.903 144.961 137.849C150.656 130.794 151.48 120.031 150.656 112.87C150.259 109.409 148.549 106.935 146.313 105.251L148.649 93.8801C148.683 93.9471 148.727 94.0094 148.782 94.0649C150.117 95.4136 156.772 101.03 175 101.03C192.557 101.03 199.378 95.8189 201.049 94.2304Z" fill="url(#paint1_radial_702_67017)"/>
    </mask>
    <g mask="url(#mask0_702_67017)">
      <g filter="url(#filter0_f_702_67017)">
        <mask id="mask1_702_67017" style="mask-type:alpha" maskUnits="userSpaceOnUse" x="124" y="94" width="102" height="132">
          <path d="M148.862 95.0637C148.949 94.6399 149.322 94.3357 149.754 94.3357H200.246C200.678 94.3357 201.051 94.6399 201.138 95.0637L224.993 211.158C225.074 211.554 224.888 211.954 224.527 212.137C220.624 214.108 198.375 224.817 175 225.127C151.578 225.438 129.287 214.178 125.45 212.14C125.099 211.954 124.924 211.562 125.004 211.173L148.862 95.0637Z" fill="#577096" fill-opacity="0.75"/>
        </mask>
        <g mask="url(#mask1_702_67017)">
          <g filter="url(#filter1_f_702_67017)">
            <path d="M207.208 76.1064C210.866 110.268 145.941 132.571 113.021 139.453L113.021 76.1064L207.208 76.1064Z" fill="url(#paint2_linear_702_67017)" fill-opacity="0.5"/>
          </g>
          <g filter="url(#filter2_f_702_67017)">
            <path d="M155.407 125.301C156.469 105.018 134.471 86.1828 128.929 66.9985C133.388 65.1973 144.05 70.7896 152.675 76.1247C163.456 82.7936 162.879 109.124 164.625 125.784C166.022 139.112 148.453 223.401 144.015 241.481L131.716 240.837C140.242 214.68 154.587 140.955 155.407 125.301Z" fill="url(#paint3_linear_702_67017)" fill-opacity="0.6"/>
          </g>
        </g>
      </g>
    </g>

    <defs>
      <!-- Color -->
      <radialGradient id="paint0_radial_702_67017" cx="0" cy="0" r="1" gradientUnits="userSpaceOnUse" gradientTransform="translate(155.882 109.102) rotate(53.1177) scale(37.8177 40.2646)">
        <stop offset="0.203125" style="stop-color: #FFFFFF;"/>
        <stop offset="0.890625" style="stop-color: #D0C9C9;"/>
      </radialGradient>

      <!-- Filter -->
      <filter id="filter0_f_702_67017" x="122.591" y="92.057" width="104.818" height="135.355" filterUnits="userSpaceOnUse" color-interpolation-filters="sRGB">
        <feFlood flood-opacity="0" result="BackgroundImageFix"/>
        <feBlend mode="normal" in="SourceGraphic" in2="BackgroundImageFix" result="shape"/>
        <feGaussianBlur stdDeviation="1.13932" result="effect1_foregroundBlur_702_67017"/>
      </filter>
      <filter id="filter1_f_702_67017" x="112.109" y="75.195" width="96.1589" height="65.1694" filterUnits="userSpaceOnUse" color-interpolation-filters="sRGB">
        <feFlood flood-opacity="0" result="BackgroundImageFix"/>
        <feBlend mode="normal" in="SourceGraphic" in2="BackgroundImageFix" result="shape"/>
        <feGaussianBlur stdDeviation="0.455729" result="effect1_foregroundBlur_702_67017"/>
      </filter>
      <filter id="filter2_f_702_67017" x="128.017" y="65.7426" width="37.5979" height="176.65" filterUnits="userSpaceOnUse" color-interpolation-filters="sRGB">
        <feFlood flood-opacity="0" result="BackgroundImageFix"/>
        <feBlend mode="normal" in="SourceGraphic" in2="BackgroundImageFix" result="shape"/>
        <feGaussianBlur stdDeviation="0.455729" result="effect1_foregroundBlur_702_67017"/>
      </filter>
      <radialGradient id="paint1_radial_702_67017" cx="0" cy="0" r="1" gradientUnits="userSpaceOnUse" gradientTransform="translate(155.882 109.102) rotate(53.1177) scale(37.8177 40.2646)">
        <stop offset="0.203125" stop-color="#71FF30"/>
        <stop offset="0.890625" stop-color="#25BC46"/>
      </radialGradient>
      <linearGradient id="paint2_linear_702_67017" x1="145.215" y1="123.01" x2="155.829" y2="72.2914" gradientUnits="userSpaceOnUse">
        <stop stop-color="white" stop-opacity="0"/>
        <stop offset="0.471361" stop-color="white"/>
        <stop offset="1" stop-color="white"/>
      </linearGradient>
      <linearGradient id="paint3_linear_702_67017" x1="160.729" y1="220.938" x2="201.954" y2="178" gradientUnits="userSpaceOnUse">
        <stop stop-color="#F2F2F2"/>
        <stop offset="0.0001" stop-color="#F2F2F2"/>
        <stop offset="0.0520833" stop-color="#F2F2F2" stop-opacity="0.948011"/>
        <stop offset="1" stop-color="#F2F2F2" stop-opacity="0"/>
      </linearGradient>
    </defs>
  
    
    <!-- Color -->
    <path d="M177.734 130.914C177.734 127.951 179.774 122.048 187.933 122.136C196.091 122.224 198.203 128.025 198.239 130.914C198.312 133.035 197.089 137.629 191.621 139.033C184.786 140.789 177.734 136.839 177.734 130.914Z" fill="url(#paint0_radial_702_67018)"/>

    <defs>
      <!-- Color -->
      <radialGradient id="paint0_radial_702_67018" cx="0" cy="0" r="1" gradientUnits="userSpaceOnUse" gradientTransform="translate(182.539 125.892) rotate(45.8803) scale(10.3998 11.5271)">
        <stop offset="0.203125" style="stop-color: #FFB800;"/>
        <stop offset="0.890625" style="stop-color: #FF7800;"/>
      </radialGradient>
    </defs>
  
    
    
    <!-- Color -->
    <path d="M223.109 211.89C217.522 215.445 199.996 225.13 174.887 225.13C146.901 225.13 128.335 213.098 125.221 210.933C125.032 210.801 124.911 210.606 124.87 210.39C128.808 199.004 144.115 175.86 164.064 181.919C173.943 184.919 180.859 192.452 187.364 199.536C197.438 210.508 206.525 220.404 224.106 210.722C223.783 211.11 223.451 211.499 223.109 211.89Z" fill="url(#paint0_radial_702_67020)"/>

    <!-- Filter -->
    <mask id="mask0_702_67020" style="mask-type:alpha" maskUnits="userSpaceOnUse" x="124" y="180" width="101" height="46">
      <path d="M223.109 211.89C217.522 215.445 199.996 225.13 174.887 225.13C146.901 225.13 128.335 213.098 125.221 210.933C125.032 210.802 124.911 210.606 124.87 210.39C128.808 199.004 144.115 175.86 164.064 181.919C173.943 184.92 180.859 192.452 187.364 199.536C197.438 210.508 206.525 220.405 224.106 210.722C223.783 211.11 223.451 211.499 223.109 211.89Z" fill="url(#paint1_radial_702_67020)"/>
    </mask>
    <g mask="url(#mask0_702_67020)">
      <g filter="url(#filter0_f_702_67020)">
        <mask id="mask1_702_67020" style="mask-type:alpha" maskUnits="userSpaceOnUse" x="124" y="94" width="102" height="132">
          <path d="M148.862 95.0639C148.949 94.6401 149.322 94.3359 149.754 94.3359H200.246C200.678 94.3359 201.051 94.6401 201.138 95.0639L224.993 211.159C225.074 211.555 224.888 211.955 224.527 212.137C220.624 214.109 198.375 224.817 175 225.128C151.578 225.438 129.287 214.178 125.45 212.141C125.099 211.954 124.924 211.562 125.004 211.173L148.862 95.0639Z" fill="#577096" fill-opacity="0.75"/>
        </mask>
        <g mask="url(#mask1_702_67020)">
          <g filter="url(#filter1_f_702_67020)">
            <path d="M155.407 125.301C156.469 105.018 134.471 86.183 128.929 66.9987C133.388 65.1975 144.05 70.7899 152.675 76.125C163.456 82.7938 162.879 109.124 164.625 125.784C166.022 139.112 148.453 223.401 144.015 241.482L131.716 240.837C140.242 214.68 154.587 140.955 155.407 125.301Z" fill="url(#paint2_linear_702_67020)" fill-opacity="0.6"/>
          </g>
        </g>
      </g>
    </g>

    <defs>
      <!-- Color -->
      <radialGradient id="paint0_radial_702_67020" cx="0" cy="0" r="1" gradientUnits="userSpaceOnUse" gradientTransform="translate(148.118 190.514) rotate(28.5454) scale(39.8814 37.1287)">
        <stop offset="0.203125" style="stop-color: #5000B6;"/>
        <stop offset="0.890625" style="stop-color: #7E5EFF;"/>
      </radialGradient>

      <!-- Filter -->
      <filter id="filter0_f_702_67020" x="122.591" y="92.0573" width="104.818" height="135.355" filterUnits="userSpaceOnUse" color-interpolation-filters="sRGB">
        <feFlood flood-opacity="0" result="BackgroundImageFix"/>
        <feBlend mode="normal" in="SourceGraphic" in2="BackgroundImageFix" result="shape"/>
        <feGaussianBlur stdDeviation="1.13932" result="effect1_foregroundBlur_702_67020"/>
      </filter>
      <filter id="filter1_f_702_67020" x="128.017" y="65.7428" width="37.5979" height="176.65" filterUnits="userSpaceOnUse" color-interpolation-filters="sRGB">
        <feFlood flood-opacity="0" result="BackgroundImageFix"/>
        <feBlend mode="normal" in="SourceGraphic" in2="BackgroundImageFix" result="shape"/>
        <feGaussianBlur stdDeviation="0.455729" result="effect1_foregroundBlur_702_67020"/>
      </filter>
      <radialGradient id="paint1_radial_702_67020" cx="0" cy="0" r="1" gradientUnits="userSpaceOnUse" gradientTransform="translate(146.218 191.259) rotate(27.3324) scale(58.602 42.3474)">
        <stop offset="0.302083" stop-color="#FFB800"/>
        <stop offset="1" stop-color="#FF7800"/>
      </radialGradient>
      <linearGradient id="paint2_linear_702_67020" x1="160.729" y1="220.939" x2="201.954" y2="178" gradientUnits="userSpaceOnUse">
        <stop stop-color="#F2F2F2"/>
        <stop offset="0.0001" stop-color="#F2F2F2"/>
        <stop offset="0.0520833" stop-color="#F2F2F2" stop-opacity="0.948011"/>
        <stop offset="1" stop-color="#F2F2F2" stop-opacity="0"/>
      </linearGradient>
    </defs>
  
  
    </svg>
  