
    <svg width="350" height="350" viewBox="0 0 350 350" fill="none" xmlns="http://www.w3.org/2000/svg">
    
  <g clip-path="url(#clip0_28_276)">
  <rect width="350" height="350" fill="white"/>
  <rect x="0.0788574" y="0.0444336" width="350" height="350" fill="#2183F7" fill-opacity="0.25"/>
  <path d="M125.979 290.538L299.832 190.751L430.987 233.879L212.56 294.049L125.979 290.538Z" fill="url(#paint0_linear_28_276)" fill-opacity="0.1"/>
  <g opacity="0.45" filter="url(#filter0_f_28_276)">
  <ellipse rx="194.596" ry="66.7643" transform="matrix(0.999998 0.00221055 0.00221055 -0.999998 176.078 304.638)" fill="url(#paint1_radial_28_276)"/>
  </g>
  <g opacity="0.7" filter="url(#filter1_f_28_276)">
  <ellipse cx="174.396" cy="137.609" rx="196.647" ry="242.448" transform="rotate(0.126655 174.396 137.609)" fill="url(#paint2_radial_28_276)"/>
  </g>
  </g>
  <defs>
  <filter id="filter0_f_28_276" x="-23.0756" y="233.315" width="398.306" height="142.646" filterUnits="userSpaceOnUse" color-interpolation-filters="sRGB">
  <feFlood flood-opacity="0" result="BackgroundImageFix"/>
  <feBlend mode="normal" in="SourceGraphic" in2="BackgroundImageFix" result="shape"/>
  <feGaussianBlur stdDeviation="2.27865" result="effect1_foregroundBlur_28_276"/>
  </filter>
  <filter id="filter1_f_28_276" x="-26.8085" y="-109.396" width="402.409" height="494.01" filterUnits="userSpaceOnUse" color-interpolation-filters="sRGB">
  <feFlood flood-opacity="0" result="BackgroundImageFix"/>
  <feBlend mode="normal" in="SourceGraphic" in2="BackgroundImageFix" result="shape"/>
  <feGaussianBlur stdDeviation="2.27865" result="effect1_foregroundBlur_28_276"/>
  </filter>
  <linearGradient id="paint0_linear_28_276" x1="194.836" y1="271.638" x2="316.537" y2="167.936" gradientUnits="userSpaceOnUse">
  <stop/>
  <stop offset="1" stop-color="#333333" stop-opacity="0"/>
  </linearGradient>
  <radialGradient id="paint1_radial_28_276" cx="0" cy="0" r="1" gradientUnits="userSpaceOnUse" gradientTransform="translate(194.596 76.624) rotate(99.1226) scale(43.9775 125.337)">
  <stop stop-color="#2183F7"/>
  <stop offset="1" stop-color="#2183F7" stop-opacity="0"/>
  </radialGradient>
  <radialGradient id="paint2_radial_28_276" cx="0" cy="0" r="1" gradientUnits="userSpaceOnUse" gradientTransform="translate(174.396 173.413) rotate(92.5586) scale(157.837 128.153)">
  <stop stop-color="#2183F7"/>
  <stop offset="1" stop-color="#2183F7" stop-opacity="0"/>
  </radialGradient>
  <clipPath id="clip0_28_276">
  <rect width="350" height="350" fill="white"/>
  </clipPath>
  </defs>

    
  <g clip-path="url(#clip0_589_123547)">
  <g style="mix-blend-mode:overlay">
  <path fill-rule="evenodd" clip-rule="evenodd" d="M78.8411 117.851C113.323 117.851 141.276 89.8984 141.276 55.4166C141.276 20.9347 113.323 -7.01834 78.8411 -7.01834C44.3593 -7.01834 16.4062 20.9347 16.4062 55.4166C16.4062 89.8984 44.3593 117.851 78.8411 117.851ZM78.8411 -0.0293641C79.6131 -0.0293641 80.3813 -0.0135894 81.1455 0.0176539C116.331 3.89748 114.168 54.4846 79.0743 54.4846C79.0411 54.4846 79.0081 54.4886 78.9751 54.4966C78.6985 54.4887 78.4208 54.4847 78.1423 54.4847C62.3166 54.4847 49.4874 67.3139 49.4874 83.1395C49.4874 95.1042 56.8204 105.356 67.2372 109.646C42.1859 104.312 23.3952 82.0586 23.3952 55.4166C23.3952 24.7946 48.2192 -0.0293641 78.8411 -0.0293641ZM78.1423 90.8274C82.3881 90.8274 85.8301 87.3854 85.8301 83.1395C85.8301 78.8936 82.3881 75.4516 78.1423 75.4516C73.8963 75.4516 70.4544 78.8936 70.4544 83.1395C70.4544 87.3854 73.8963 90.8274 78.1423 90.8274Z" fill="white" fill-opacity="0.25"/>
  <path d="M85.8301 27.6936C85.8301 31.9395 82.3881 35.3815 78.1423 35.3815C73.8964 35.3815 70.4544 31.9395 70.4544 27.6936C70.4544 23.4477 73.8964 20.0057 78.1423 20.0057C82.3881 20.0057 85.8301 23.4477 85.8301 27.6936Z" fill="white" fill-opacity="0.25"/>
  </g>
  <g style="mix-blend-mode:overlay">
  <path fill-rule="evenodd" clip-rule="evenodd" d="M91.8296 270.521C113.349 270.521 130.794 253.076 130.794 231.556C130.794 210.036 113.349 192.591 91.8296 192.591C70.3099 192.591 52.8647 210.036 52.8647 231.556C52.8647 253.076 70.3099 270.521 91.8296 270.521ZM91.8296 196.953C92.3113 196.953 92.7908 196.963 93.2677 196.982C115.226 199.403 113.877 230.974 91.9751 230.974C91.9544 230.974 91.9338 230.977 91.9132 230.982C91.7405 230.977 91.5673 230.974 91.3934 230.974C81.5168 230.974 73.5103 238.981 73.5103 248.857C73.5103 256.324 78.0867 262.723 84.5877 265.4C68.9535 262.071 57.2265 248.183 57.2265 231.556C57.2265 212.445 72.7188 196.953 91.8296 196.953ZM91.3934 253.655C94.0432 253.655 96.1913 251.507 96.1913 248.857C96.1913 246.208 94.0432 244.06 91.3934 244.06C88.7436 244.06 86.5955 246.208 86.5955 248.857C86.5955 251.507 88.7436 253.655 91.3934 253.655Z" fill="white" fill-opacity="0.25"/>
  <path d="M96.1913 214.254C96.1913 216.904 94.0432 219.052 91.3934 219.052C88.7436 219.052 86.5955 216.904 86.5955 214.254C86.5955 211.605 88.7436 209.456 91.3934 209.456C94.0432 209.456 96.1913 211.605 96.1913 214.254Z" fill="white" fill-opacity="0.25"/>
  </g>
  <g style="mix-blend-mode:overlay">
  <path fill-rule="evenodd" clip-rule="evenodd" d="M255.436 366.68C276.956 366.68 294.401 349.235 294.401 327.715C294.401 306.195 276.956 288.75 255.436 288.75C233.916 288.75 216.471 306.195 216.471 327.715C216.471 349.235 233.916 366.68 255.436 366.68ZM255.436 293.112C255.918 293.112 256.397 293.122 256.874 293.141C278.833 295.562 277.483 327.133 255.582 327.133C255.561 327.133 255.54 327.136 255.52 327.141C255.347 327.136 255.174 327.133 255 327.133C245.123 327.133 237.117 335.14 237.117 345.016C237.117 352.483 241.693 358.882 248.194 361.559C232.56 358.23 220.833 344.342 220.833 327.715C220.833 308.604 236.325 293.112 255.436 293.112ZM255 349.814C257.65 349.814 259.798 347.666 259.798 345.016C259.798 342.367 257.65 340.219 255 340.219C252.35 340.219 250.202 342.367 250.202 345.016C250.202 347.666 252.35 349.814 255 349.814Z" fill="white" fill-opacity="0.25"/>
  <path d="M259.798 310.413C259.798 313.063 257.65 315.211 255 315.211C252.35 315.211 250.202 313.063 250.202 310.413C250.202 307.764 252.35 305.615 255 305.615C257.65 305.615 259.798 307.764 259.798 310.413Z" fill="white" fill-opacity="0.25"/>
  </g>
  <g style="mix-blend-mode:overlay">
  <path fill-rule="evenodd" clip-rule="evenodd" d="M236.751 43.1119C258.271 43.1119 275.716 25.6668 275.716 4.1471C275.716 -17.3726 258.271 -34.8177 236.751 -34.8177C215.232 -34.8177 197.787 -17.3726 197.787 4.1471C197.787 25.6668 215.232 43.1119 236.751 43.1119ZM236.751 -30.456C237.233 -30.456 237.713 -30.4462 238.19 -30.4267C260.148 -28.0053 258.799 3.5655 236.897 3.5655C236.876 3.5655 236.856 3.568 236.835 3.57295C236.662 3.56802 236.489 3.56554 236.315 3.56554C226.439 3.56554 218.432 11.5721 218.432 21.4487C218.432 28.9156 223.009 35.3138 229.51 37.9912C213.875 34.6621 202.148 20.7741 202.148 4.1471C202.148 -14.9637 217.641 -30.456 236.751 -30.456ZM236.315 26.2466C238.965 26.2466 241.113 24.0985 241.113 21.4487C241.113 18.7988 238.965 16.6507 236.315 16.6507C233.665 16.6507 231.517 18.7988 231.517 21.4487C231.517 24.0985 233.665 26.2466 236.315 26.2466Z" fill="white" fill-opacity="0.25"/>
  <path d="M241.113 -13.1545C241.113 -10.5046 238.965 -8.35654 236.315 -8.35654C233.665 -8.35654 231.517 -10.5046 231.517 -13.1545C231.517 -15.8043 233.665 -17.9524 236.315 -17.9524C238.965 -17.9524 241.113 -15.8043 241.113 -13.1545Z" fill="white" fill-opacity="0.25"/>
  </g>
  <g style="mix-blend-mode:overlay">
  <path fill-rule="evenodd" clip-rule="evenodd" d="M289.388 211.732C315.312 211.732 336.328 190.716 336.328 164.792C336.328 138.867 315.312 117.852 289.388 117.852C263.464 117.852 242.448 138.867 242.448 164.792C242.448 190.716 263.464 211.732 289.388 211.732ZM289.388 123.106C289.968 123.106 290.546 123.118 291.12 123.141C317.574 126.058 315.947 164.091 289.563 164.091C289.538 164.091 289.513 164.094 289.489 164.1C289.281 164.094 289.072 164.091 288.862 164.091C276.964 164.091 267.319 173.736 267.319 185.635C267.319 194.63 272.832 202.338 280.664 205.563C261.83 201.552 247.702 184.822 247.702 164.792C247.702 141.769 266.366 123.106 289.388 123.106ZM288.862 191.414C292.055 191.414 294.642 188.827 294.642 185.635C294.642 182.442 292.055 179.855 288.862 179.855C285.67 179.855 283.082 182.442 283.082 185.635C283.082 188.827 285.67 191.414 288.862 191.414Z" fill="white" fill-opacity="0.25"/>
  <path d="M294.642 143.949C294.642 147.141 292.055 149.729 288.862 149.729C285.67 149.729 283.082 147.141 283.082 143.949C283.082 140.757 285.67 138.169 288.862 138.169C292.055 138.169 294.642 140.757 294.642 143.949Z" fill="white" fill-opacity="0.25"/>
  </g>
  </g>
  <defs>
  <clipPath id="clip0_589_123547">
  <rect width="350" height="350" fill="white"/>
  </clipPath>
  </defs>

    
  <g filter="url(#filter0_d_559_36466)">
  <path d="M216.24 25.3087C216.24 25.3087 216.24 25.3124 216.238 25.3199C216.238 25.3125 216.239 25.3087 216.24 25.3087ZM215.963 24.9666C216.147 25.1635 216.21 25.2863 216.231 25.3395C216.21 25.3928 216.147 25.5156 215.963 25.7125C215.626 26.0741 215.016 26.5326 214.038 27.0399C212.086 28.0515 209.113 29.0303 205.248 29.8777C197.555 31.5642 186.818 32.6265 174.883 32.6265C162.947 32.6265 152.211 31.5642 144.518 29.8777C140.653 29.0303 137.679 28.0515 135.727 27.0399C134.749 26.5326 134.14 26.0741 133.802 25.7125C133.618 25.5156 133.555 25.3928 133.534 25.3395C133.555 25.2863 133.618 25.1635 133.802 24.9666C134.14 24.605 134.749 24.1465 135.727 23.6392C137.679 22.6276 140.653 21.6487 144.518 20.8014C152.211 19.1149 162.947 18.0526 174.883 18.0526C186.818 18.0526 197.555 19.1149 205.248 20.8014C209.113 21.6487 212.086 22.6276 214.038 23.6392C215.016 24.1465 215.626 24.605 215.963 24.9666ZM133.526 25.3087C133.526 25.3087 133.527 25.3125 133.528 25.3199C133.526 25.3124 133.525 25.3087 133.526 25.3087ZM133.526 25.3704C133.525 25.3704 133.526 25.3667 133.528 25.3592C133.527 25.3666 133.526 25.3704 133.526 25.3704ZM216.238 25.3591C216.24 25.3667 216.24 25.3704 216.24 25.3704C216.239 25.3703 216.238 25.3666 216.238 25.3591Z" stroke="#FDF21B" stroke-width="4.55729" shape-rendering="crispEdges"/>
  </g>
  <defs>
  <filter id="filter0_d_559_36466" x="127.926" y="12.4498" width="93.9133" height="25.7795" filterUnits="userSpaceOnUse" color-interpolation-filters="sRGB">
  <feFlood flood-opacity="0" result="BackgroundImageFix"/>
  <feColorMatrix in="SourceAlpha" type="matrix" values="0 0 0 0 0 0 0 0 0 0 0 0 0 0 0 0 0 0 127 0" result="hardAlpha"/>
  <feOffset/>
  <feGaussianBlur stdDeviation="1.66205"/>
  <feComposite in2="hardAlpha" operator="out"/>
  <feColorMatrix type="matrix" values="0 0 0 0 1 0 0 0 0 1 0 0 0 0 1 0 0 0 1 0"/>
  <feBlend mode="normal" in2="BackgroundImageFix" result="effect1_dropShadow_559_36466"/>
  <feBlend mode="normal" in="SourceGraphic" in2="effect1_dropShadow_559_36466" result="shape"/>
  </filter>
  </defs>
    
    
  <g clip-path="url(#clip0_680_71459)">
  <g filter="url(#filter0_d_680_71459)">
  <path d="M125.511 312.513C125.13 312.308 124.966 311.864 125.102 311.454L138.023 272.344C138.074 272.19 138.083 272.025 138.048 271.866L125.242 212.727C125.086 212.003 125.807 211.379 126.502 211.634C131.735 213.554 149.256 219.175 174.998 219.175C200.741 219.175 218.262 213.554 223.494 211.634C224.189 211.379 224.911 212.003 224.754 212.727L211.949 271.866C211.914 272.025 211.923 272.19 211.974 272.344L224.895 311.454C225.031 311.864 224.867 312.308 224.485 312.513C220.652 314.572 200.122 324.932 174.998 324.932C149.875 324.932 129.345 314.572 125.511 312.513Z" fill="url(#paint0_linear_680_71459)" shape-rendering="crispEdges"/>
  </g>
  <g filter="url(#filter1_f_680_71459)">
  <mask id="mask0_680_71459" style="mask-type:alpha" maskUnits="userSpaceOnUse" x="123" y="211" width="102" height="115">
  <path d="M124.148 312.918C123.765 312.713 123.6 312.268 123.737 311.856L136.776 272.59C136.827 272.435 136.836 272.269 136.801 272.109L123.877 212.725C123.72 212.002 124.44 211.377 125.135 211.631C130.396 213.553 148.085 219.208 174.087 219.208C200.089 219.208 217.778 213.553 223.04 211.631C223.735 211.377 224.455 212.002 224.298 212.725L211.373 272.109C211.339 272.269 211.347 272.435 211.399 272.59L224.438 311.856C224.574 312.268 224.409 312.713 224.027 312.918C220.165 314.982 199.445 325.388 174.087 325.388C148.73 325.388 128.009 314.982 124.148 312.918Z" fill="#2D2E32"/>
  <path d="M124.148 312.918C123.765 312.713 123.6 312.268 123.737 311.856L136.776 272.59C136.827 272.435 136.836 272.269 136.801 272.109L123.877 212.725C123.72 212.002 124.44 211.377 125.135 211.631C130.396 213.553 148.085 219.208 174.087 219.208C200.089 219.208 217.778 213.553 223.04 211.631C223.735 211.377 224.455 212.002 224.298 212.725L211.373 272.109C211.339 272.269 211.347 272.435 211.399 272.59L224.438 311.856C224.574 312.268 224.409 312.713 224.027 312.918C220.165 314.982 199.445 325.388 174.087 325.388C148.73 325.388 128.009 314.982 124.148 312.918Z" fill="url(#paint1_linear_680_71459)"/>
  </mask>
  <g mask="url(#mask0_680_71459)">
  <g opacity="0.25" filter="url(#filter2_d_680_71459)">
  <path d="M72.9163 273.326C168.028 276.029 230.123 228.041 249.282 203.709H72.9163V273.326Z" fill="url(#paint2_linear_680_71459)" fill-opacity="0.55" shape-rendering="crispEdges"/>
  </g>
  <path opacity="0.25" d="M133.954 266.928C133.954 244.078 107.52 196.064 97.7296 174.838C104.256 172.552 120.639 169.351 133.954 174.838C150.597 181.695 156.219 243.966 160.135 262.58C163.268 277.471 139.175 326.689 133.954 347.263H68.3588C118.289 320.811 133.954 284.563 133.954 266.928Z" fill="url(#paint3_radial_680_71459)"/>
  <path opacity="0.25" d="M148.537 271.03C148.537 248.18 122.103 200.166 112.313 178.939C118.839 176.653 135.222 173.453 148.537 178.939C165.18 185.797 170.802 248.067 174.718 266.681C177.851 281.572 153.758 330.791 148.537 351.364H82.9418C132.872 324.913 148.537 288.664 148.537 271.03Z" fill="url(#paint4_radial_680_71459)"/>
  </g>
  </g>
  <path d="M175.436 324.932C200.389 324.932 220.78 314.572 224.587 312.513C224.965 312.308 225.128 311.864 224.993 311.454L212.16 272.344C212.109 272.19 212.101 272.025 212.135 271.866L224.854 212.727C224.995 212.071 224.42 211.498 223.797 211.585C224.206 211.317 224.529 211.096 224.763 210.932C225.051 210.73 225.18 210.38 225.11 210.034L201.397 93.6961C201.342 93.4291 201.175 93.2095 200.951 93.0835L195.579 55.4275C195.574 55.4003 195.571 55.3736 195.568 55.3468C195.566 55.3257 195.563 55.3045 195.56 55.283C195.469 54.6574 194.146 50.1298 174.999 50.1298L175.436 324.932Z" fill="#161A70" fill-opacity="0.1"/>
  <path d="M154.308 55.4579C154.319 55.3892 154.32 55.3222 154.327 55.253C154.399 54.5253 155.623 50.1298 174.783 50.1298C194.295 50.1298 195.582 54.6878 195.667 55.2892C195.673 55.3333 195.676 55.3766 195.683 55.4206L201.373 93.9909C201.41 94.2403 201.343 94.4909 201.166 94.6701C199.833 96.0172 193.19 101.627 174.998 101.627C156.806 101.627 150.164 96.0172 148.831 94.6701C148.654 94.4909 148.587 94.2403 148.624 93.9909L154.308 55.4579Z" fill="url(#paint5_linear_680_71459)"/>
  </g>
  <defs>
  <filter id="filter0_d_680_71459" x="122.776" y="211.576" width="105.356" height="118.825" filterUnits="userSpaceOnUse" color-interpolation-filters="sRGB">
  <feFlood flood-opacity="0" result="BackgroundImageFix"/>
  <feColorMatrix in="SourceAlpha" type="matrix" values="0 0 0 0 0 0 0 0 0 0 0 0 0 0 0 0 0 0 127 0" result="hardAlpha"/>
  <feOffset dx="0.455725" dy="2.73435"/>
  <feGaussianBlur stdDeviation="1.36718"/>
  <feComposite in2="hardAlpha" operator="out"/>
  <feColorMatrix type="matrix" values="0 0 0 0 0 0 0 0 0 0 0 0 0 0 0 0 0 0 0.25 0"/>
  <feBlend mode="normal" in2="BackgroundImageFix" result="effect1_dropShadow_680_71459"/>
  <feBlend mode="normal" in="SourceGraphic" in2="effect1_dropShadow_680_71459" result="shape"/>
  </filter>
  <filter id="filter1_f_680_71459" x="120.312" y="208.722" width="106.452" height="118.944" filterUnits="userSpaceOnUse" color-interpolation-filters="sRGB">
  <feFlood flood-opacity="0" result="BackgroundImageFix"/>
  <feBlend mode="normal" in="SourceGraphic" in2="BackgroundImageFix" result="shape"/>
  <feGaussianBlur stdDeviation="1.13931" result="effect1_foregroundBlur_680_71459"/>
  </filter>
  <filter id="filter2_d_680_71459" x="71.5491" y="203.253" width="179.1" height="72.4603" filterUnits="userSpaceOnUse" color-interpolation-filters="sRGB">
  <feFlood flood-opacity="0" result="BackgroundImageFix"/>
  <feColorMatrix in="SourceAlpha" type="matrix" values="0 0 0 0 0 0 0 0 0 0 0 0 0 0 0 0 0 0 127 0" result="hardAlpha"/>
  <feOffset dy="0.911451"/>
  <feGaussianBlur stdDeviation="0.683588"/>
  <feComposite in2="hardAlpha" operator="out"/>
  <feColorMatrix type="matrix" values="0 0 0 0 0 0 0 0 0 0 0 0 0 0 0 0 0 0 0.25 0"/>
  <feBlend mode="normal" in2="BackgroundImageFix" result="effect1_dropShadow_680_71459"/>
  <feBlend mode="normal" in="SourceGraphic" in2="effect1_dropShadow_680_71459" result="shape"/>
  </filter>
  <linearGradient id="paint0_linear_680_71459" x1="99.348" y1="200.975" x2="216.014" y2="304.88" gradientUnits="userSpaceOnUse">
  <stop stop-color="#C59651"/>
  <stop offset="0.536458" stop-color="#E0A50D" stop-opacity="0.98"/>
  <stop offset="1" stop-color="#FFF27B" stop-opacity="0.98"/>
  </linearGradient>
  <linearGradient id="paint1_linear_680_71459" x1="123.502" y1="211.001" x2="241.339" y2="297.278" gradientUnits="userSpaceOnUse">
  <stop stop-color="#C3C3C3"/>
  <stop offset="1" stop-color="#C3C3C3" stop-opacity="0.15"/>
  </linearGradient>
  <linearGradient id="paint2_linear_680_71459" x1="203.502" y1="227.505" x2="112.602" y2="299.165" gradientUnits="userSpaceOnUse">
  <stop stop-color="white" stop-opacity="0"/>
  <stop offset="0.471361" stop-color="white"/>
  <stop offset="1" stop-color="white"/>
  </linearGradient>
  <radialGradient id="paint3_radial_680_71459" cx="0" cy="0" r="1" gradientUnits="userSpaceOnUse" gradientTransform="translate(122.54 265.347) rotate(79.4004) scale(83.3375 37.0264)">
  <stop stop-color="#F2F2F2"/>
  <stop offset="0.0001" stop-color="#F2F2F2"/>
  <stop offset="1" stop-color="#F2F2F2" stop-opacity="0"/>
  </radialGradient>
  <radialGradient id="paint4_radial_680_71459" cx="0" cy="0" r="1" gradientUnits="userSpaceOnUse" gradientTransform="translate(137.123 269.449) rotate(79.4004) scale(83.3375 37.0264)">
  <stop stop-color="#F2F2F2"/>
  <stop offset="0.0001" stop-color="#F2F2F2"/>
  <stop offset="1" stop-color="#F2F2F2" stop-opacity="0"/>
  </radialGradient>
  <linearGradient id="paint5_linear_680_71459" x1="156.015" y1="58.5753" x2="197.676" y2="103.508" gradientUnits="userSpaceOnUse">
  <stop stop-color="#C59651"/>
  <stop offset="0.536458" stop-color="#E0AE0D" stop-opacity="0.98"/>
  <stop offset="1" stop-color="#FFF27B" stop-opacity="0.98"/>
  </linearGradient>
  <clipPath id="clip0_680_71459">
  <rect width="349.997" height="349.997" fill="white"/>
  </clipPath>
  </defs>

    
    <path d="M148.647 94.3351L124.888 210.017C124.817 210.363 124.947 210.714 125.237 210.915C128.356 213.082 146.958 225.128 174.998 225.128C203.038 225.128 221.64 213.082 224.76 210.915C225.05 210.714 225.18 210.363 225.109 210.017L201.35 94.3351C201.316 94.4021 201.271 94.4644 201.216 94.5198C199.881 95.8685 193.226 101.484 174.998 101.484C156.771 101.484 150.116 95.8685 148.78 94.5198C148.725 94.4644 148.681 94.4021 148.647 94.3351Z" fill="#000000" fill-opacity="0.75"/>;
    
    <!-- Color -->
    <path d="M201.049 94.2304L205.113 114.031C203.523 113.76 201.871 113.447 200.18 113.127C186.038 110.452 169.252 107.276 165.003 123.73C163.148 130.914 165.836 135.212 168.45 139.394C170.975 143.43 173.431 147.358 171.668 153.669C169.523 161.35 157.859 166.325 148.479 162.994C138.57 159.476 139.266 144.903 144.961 137.849C150.656 130.794 151.48 120.031 150.656 112.87C150.259 109.409 148.549 106.935 146.313 105.251L148.649 93.8801C148.683 93.9471 148.727 94.0094 148.782 94.0649C150.117 95.4136 156.772 101.03 175 101.03C192.557 101.03 199.378 95.8189 201.049 94.2304Z" fill="url(#paint0_radial_702_67017)"/>

    <!-- Filter -->
    <mask id="mask0_702_67017" style="mask-type:alpha" maskUnits="userSpaceOnUse" x="140" y="93" width="66" height="72">
      <path d="M201.049 94.2304L205.113 114.031C203.523 113.76 201.871 113.447 200.18 113.127C186.038 110.452 169.252 107.276 165.003 123.73C163.148 130.914 165.836 135.212 168.45 139.394C170.975 143.43 173.431 147.358 171.668 153.669C169.523 161.35 157.859 166.325 148.479 162.994C138.57 159.476 139.266 144.903 144.961 137.849C150.656 130.794 151.48 120.031 150.656 112.87C150.259 109.409 148.549 106.935 146.313 105.251L148.649 93.8801C148.683 93.9471 148.727 94.0094 148.782 94.0649C150.117 95.4136 156.772 101.03 175 101.03C192.557 101.03 199.378 95.8189 201.049 94.2304Z" fill="url(#paint1_radial_702_67017)"/>
    </mask>
    <g mask="url(#mask0_702_67017)">
      <g filter="url(#filter0_f_702_67017)">
        <mask id="mask1_702_67017" style="mask-type:alpha" maskUnits="userSpaceOnUse" x="124" y="94" width="102" height="132">
          <path d="M148.862 95.0637C148.949 94.6399 149.322 94.3357 149.754 94.3357H200.246C200.678 94.3357 201.051 94.6399 201.138 95.0637L224.993 211.158C225.074 211.554 224.888 211.954 224.527 212.137C220.624 214.108 198.375 224.817 175 225.127C151.578 225.438 129.287 214.178 125.45 212.14C125.099 211.954 124.924 211.562 125.004 211.173L148.862 95.0637Z" fill="#577096" fill-opacity="0.75"/>
        </mask>
        <g mask="url(#mask1_702_67017)">
          <g filter="url(#filter1_f_702_67017)">
            <path d="M207.208 76.1064C210.866 110.268 145.941 132.571 113.021 139.453L113.021 76.1064L207.208 76.1064Z" fill="url(#paint2_linear_702_67017)" fill-opacity="0.5"/>
          </g>
          <g filter="url(#filter2_f_702_67017)">
            <path d="M155.407 125.301C156.469 105.018 134.471 86.1828 128.929 66.9985C133.388 65.1973 144.05 70.7896 152.675 76.1247C163.456 82.7936 162.879 109.124 164.625 125.784C166.022 139.112 148.453 223.401 144.015 241.481L131.716 240.837C140.242 214.68 154.587 140.955 155.407 125.301Z" fill="url(#paint3_linear_702_67017)" fill-opacity="0.6"/>
          </g>
        </g>
      </g>
    </g>

    <defs>
      <!-- Color -->
      <radialGradient id="paint0_radial_702_67017" cx="0" cy="0" r="1" gradientUnits="userSpaceOnUse" gradientTransform="translate(155.882 109.102) rotate(53.1177) scale(37.8177 40.2646)">
        <stop offset="0.203125" style="stop-color: #FFB800;"/>
        <stop offset="0.890625" style="stop-color: #FF7800;"/>
      </radialGradient>

      <!-- Filter -->
      <filter id="filter0_f_702_67017" x="122.591" y="92.057" width="104.818" height="135.355" filterUnits="userSpaceOnUse" color-interpolation-filters="sRGB">
        <feFlood flood-opacity="0" result="BackgroundImageFix"/>
        <feBlend mode="normal" in="SourceGraphic" in2="BackgroundImageFix" result="shape"/>
        <feGaussianBlur stdDeviation="1.13932" result="effect1_foregroundBlur_702_67017"/>
      </filter>
      <filter id="filter1_f_702_67017" x="112.109" y="75.195" width="96.1589" height="65.1694" filterUnits="userSpaceOnUse" color-interpolation-filters="sRGB">
        <feFlood flood-opacity="0" result="BackgroundImageFix"/>
        <feBlend mode="normal" in="SourceGraphic" in2="BackgroundImageFix" result="shape"/>
        <feGaussianBlur stdDeviation="0.455729" result="effect1_foregroundBlur_702_67017"/>
      </filter>
      <filter id="filter2_f_702_67017" x="128.017" y="65.7426" width="37.5979" height="176.65" filterUnits="userSpaceOnUse" color-interpolation-filters="sRGB">
        <feFlood flood-opacity="0" result="BackgroundImageFix"/>
        <feBlend mode="normal" in="SourceGraphic" in2="BackgroundImageFix" result="shape"/>
        <feGaussianBlur stdDeviation="0.455729" result="effect1_foregroundBlur_702_67017"/>
      </filter>
      <radialGradient id="paint1_radial_702_67017" cx="0" cy="0" r="1" gradientUnits="userSpaceOnUse" gradientTransform="translate(155.882 109.102) rotate(53.1177) scale(37.8177 40.2646)">
        <stop offset="0.203125" stop-color="#71FF30"/>
        <stop offset="0.890625" stop-color="#25BC46"/>
      </radialGradient>
      <linearGradient id="paint2_linear_702_67017" x1="145.215" y1="123.01" x2="155.829" y2="72.2914" gradientUnits="userSpaceOnUse">
        <stop stop-color="white" stop-opacity="0"/>
        <stop offset="0.471361" stop-color="white"/>
        <stop offset="1" stop-color="white"/>
      </linearGradient>
      <linearGradient id="paint3_linear_702_67017" x1="160.729" y1="220.938" x2="201.954" y2="178" gradientUnits="userSpaceOnUse">
        <stop stop-color="#F2F2F2"/>
        <stop offset="0.0001" stop-color="#F2F2F2"/>
        <stop offset="0.0520833" stop-color="#F2F2F2" stop-opacity="0.948011"/>
        <stop offset="1" stop-color="#F2F2F2" stop-opacity="0"/>
      </linearGradient>
    </defs>
  
    
    <!-- Color -->
    <path d="M177.734 130.914C177.734 127.951 179.774 122.048 187.933 122.136C196.091 122.224 198.203 128.025 198.239 130.914C198.312 133.035 197.089 137.629 191.621 139.033C184.786 140.789 177.734 136.839 177.734 130.914Z" fill="url(#paint0_radial_702_67018)"/>

    <defs>
      <!-- Color -->
      <radialGradient id="paint0_radial_702_67018" cx="0" cy="0" r="1" gradientUnits="userSpaceOnUse" gradientTransform="translate(182.539 125.892) rotate(45.8803) scale(10.3998 11.5271)">
        <stop offset="0.203125" style="stop-color: #321A93;"/>
        <stop offset="0.890625" style="stop-color: #3603FF;"/>
      </radialGradient>
    </defs>
  
    
    
    <!-- Color -->
    <path d="M223.109 211.89C217.522 215.445 199.996 225.13 174.887 225.13C146.901 225.13 128.335 213.098 125.221 210.933C125.032 210.801 124.911 210.606 124.87 210.39C128.808 199.004 144.115 175.86 164.064 181.919C173.943 184.919 180.859 192.452 187.364 199.536C197.438 210.508 206.525 220.404 224.106 210.722C223.783 211.11 223.451 211.499 223.109 211.89Z" fill="url(#paint0_radial_702_67020)"/>

    <!-- Filter -->
    <mask id="mask0_702_67020" style="mask-type:alpha" maskUnits="userSpaceOnUse" x="124" y="180" width="101" height="46">
      <path d="M223.109 211.89C217.522 215.445 199.996 225.13 174.887 225.13C146.901 225.13 128.335 213.098 125.221 210.933C125.032 210.802 124.911 210.606 124.87 210.39C128.808 199.004 144.115 175.86 164.064 181.919C173.943 184.92 180.859 192.452 187.364 199.536C197.438 210.508 206.525 220.405 224.106 210.722C223.783 211.11 223.451 211.499 223.109 211.89Z" fill="url(#paint1_radial_702_67020)"/>
    </mask>
    <g mask="url(#mask0_702_67020)">
      <g filter="url(#filter0_f_702_67020)">
        <mask id="mask1_702_67020" style="mask-type:alpha" maskUnits="userSpaceOnUse" x="124" y="94" width="102" height="132">
          <path d="M148.862 95.0639C148.949 94.6401 149.322 94.3359 149.754 94.3359H200.246C200.678 94.3359 201.051 94.6401 201.138 95.0639L224.993 211.159C225.074 211.555 224.888 211.955 224.527 212.137C220.624 214.109 198.375 224.817 175 225.128C151.578 225.438 129.287 214.178 125.45 212.141C125.099 211.954 124.924 211.562 125.004 211.173L148.862 95.0639Z" fill="#577096" fill-opacity="0.75"/>
        </mask>
        <g mask="url(#mask1_702_67020)">
          <g filter="url(#filter1_f_702_67020)">
            <path d="M155.407 125.301C156.469 105.018 134.471 86.183 128.929 66.9987C133.388 65.1975 144.05 70.7899 152.675 76.125C163.456 82.7938 162.879 109.124 164.625 125.784C166.022 139.112 148.453 223.401 144.015 241.482L131.716 240.837C140.242 214.68 154.587 140.955 155.407 125.301Z" fill="url(#paint2_linear_702_67020)" fill-opacity="0.6"/>
          </g>
        </g>
      </g>
    </g>

    <defs>
      <!-- Color -->
      <radialGradient id="paint0_radial_702_67020" cx="0" cy="0" r="1" gradientUnits="userSpaceOnUse" gradientTransform="translate(148.118 190.514) rotate(28.5454) scale(39.8814 37.1287)">
        <stop offset="0.203125" style="stop-color: #FF00D6;"/>
        <stop offset="0.890625" style="stop-color: #D700B4;"/>
      </radialGradient>

      <!-- Filter -->
      <filter id="filter0_f_702_67020" x="122.591" y="92.0573" width="104.818" height="135.355" filterUnits="userSpaceOnUse" color-interpolation-filters="sRGB">
        <feFlood flood-opacity="0" result="BackgroundImageFix"/>
        <feBlend mode="normal" in="SourceGraphic" in2="BackgroundImageFix" result="shape"/>
        <feGaussianBlur stdDeviation="1.13932" result="effect1_foregroundBlur_702_67020"/>
      </filter>
      <filter id="filter1_f_702_67020" x="128.017" y="65.7428" width="37.5979" height="176.65" filterUnits="userSpaceOnUse" color-interpolation-filters="sRGB">
        <feFlood flood-opacity="0" result="BackgroundImageFix"/>
        <feBlend mode="normal" in="SourceGraphic" in2="BackgroundImageFix" result="shape"/>
        <feGaussianBlur stdDeviation="0.455729" result="effect1_foregroundBlur_702_67020"/>
      </filter>
      <radialGradient id="paint1_radial_702_67020" cx="0" cy="0" r="1" gradientUnits="userSpaceOnUse" gradientTransform="translate(146.218 191.259) rotate(27.3324) scale(58.602 42.3474)">
        <stop offset="0.302083" stop-color="#FFB800"/>
        <stop offset="1" stop-color="#FF7800"/>
      </radialGradient>
      <linearGradient id="paint2_linear_702_67020" x1="160.729" y1="220.939" x2="201.954" y2="178" gradientUnits="userSpaceOnUse">
        <stop stop-color="#F2F2F2"/>
        <stop offset="0.0001" stop-color="#F2F2F2"/>
        <stop offset="0.0520833" stop-color="#F2F2F2" stop-opacity="0.948011"/>
        <stop offset="1" stop-color="#F2F2F2" stop-opacity="0"/>
      </linearGradient>
    </defs>
  
  
    </svg>
  