
    <svg width="350" height="350" viewBox="0 0 350 350" fill="none" xmlns="http://www.w3.org/2000/svg">
    
  <g clip-path="url(#clip0_28_283)">
  <rect width="350" height="350" fill="white"/>
  <rect x="0.0800781" y="0.0449219" width="350" height="350" fill="#FFA19B"/>
  <path d="M125.979 290.538L299.833 190.751L430.988 233.879L212.56 294.049L125.979 290.538Z" fill="url(#paint0_linear_28_283)" fill-opacity="0.1"/>
  <g opacity="0.45" filter="url(#filter0_f_28_283)">
  <ellipse rx="194.596" ry="66.7643" transform="matrix(0.999998 0.00221055 0.00221055 -0.999998 176.078 304.638)" fill="url(#paint1_radial_28_283)"/>
  </g>
  <g opacity="0.7" filter="url(#filter1_f_28_283)">
  <ellipse cx="174.396" cy="137.609" rx="196.647" ry="242.448" transform="rotate(0.126655 174.396 137.609)" fill="url(#paint2_radial_28_283)"/>
  </g>
  </g>
  <defs>
  <filter id="filter0_f_28_283" x="-23.0756" y="233.315" width="398.306" height="142.646" filterUnits="userSpaceOnUse" color-interpolation-filters="sRGB">
  <feFlood flood-opacity="0" result="BackgroundImageFix"/>
  <feBlend mode="normal" in="SourceGraphic" in2="BackgroundImageFix" result="shape"/>
  <feGaussianBlur stdDeviation="2.27865" result="effect1_foregroundBlur_28_283"/>
  </filter>
  <filter id="filter1_f_28_283" x="-26.8085" y="-109.396" width="402.409" height="494.01" filterUnits="userSpaceOnUse" color-interpolation-filters="sRGB">
  <feFlood flood-opacity="0" result="BackgroundImageFix"/>
  <feBlend mode="normal" in="SourceGraphic" in2="BackgroundImageFix" result="shape"/>
  <feGaussianBlur stdDeviation="2.27865" result="effect1_foregroundBlur_28_283"/>
  </filter>
  <linearGradient id="paint0_linear_28_283" x1="194.836" y1="271.638" x2="316.538" y2="167.936" gradientUnits="userSpaceOnUse">
  <stop/>
  <stop offset="1" stop-color="#333333" stop-opacity="0"/>
  </linearGradient>
  <radialGradient id="paint1_radial_28_283" cx="0" cy="0" r="1" gradientUnits="userSpaceOnUse" gradientTransform="translate(194.596 76.624) rotate(99.1226) scale(43.9775 125.337)">
  <stop offset="0.229167" stop-color="#CF0000"/>
  <stop offset="0.90625" stop-color="#CF0000" stop-opacity="0"/>
  </radialGradient>
  <radialGradient id="paint2_radial_28_283" cx="0" cy="0" r="1" gradientUnits="userSpaceOnUse" gradientTransform="translate(174.396 173.413) rotate(92.5586) scale(157.837 128.153)">
  <stop offset="0.229167" stop-color="#CF0000"/>
  <stop offset="0.90625" stop-color="#CF0000" stop-opacity="0"/>
  </radialGradient>
  <clipPath id="clip0_28_283">
  <rect width="350" height="350" fill="white"/>
  </clipPath>
  </defs>

    
  <g style="mix-blend-mode:overlay" clip-path="url(#clip0_559_45925)">
  <circle cx="267.057" cy="334.049" r="28.7109" fill="white" fill-opacity="0.25"/>
  <circle cx="114.388" cy="66.5365" r="22.7865" fill="white" fill-opacity="0.25"/>
  <circle cx="279.362" cy="110.287" r="16.4062" fill="white" fill-opacity="0.25"/>
  <circle cx="8.20312" cy="234.701" r="16.4062" fill="white" fill-opacity="0.25"/>
  <circle cx="335.872" cy="14.5833" r="40.1042" fill="white" fill-opacity="0.25"/>
  <path d="M65.9326 288.461C29.3383 277.341 1.34401 320.346 -5.46875 340.81C53.705 430.699 146.791 390.296 179.557 350.911C127.002 379.87 111.675 302.361 65.9326 288.461Z" fill="white" fill-opacity="0.25"/>
  <path d="M296.664 236.375C285.544 199.781 328.549 171.787 349.013 164.974C438.902 224.148 398.499 317.234 359.115 350C388.074 297.444 310.565 282.118 296.664 236.375Z" fill="white" fill-opacity="0.25"/>
  <path d="M-26.4321 3.86974C-13.3545 0.661562 15.8469 6.61965 18.8009 32.2851C21.0691 51.9925 19.2624 85.9076 3.10779 101.032C-15.8162 118.749 -14.5043 160.554 12.8006 170.237C38.648 179.403 69.97 166.112 74.1882 144.572C80.545 112.109 53.2633 106.516 57.1104 74.9081C67.4481 -10.0259 219.591 11.8327 236.979 -4.55717C236.979 -87.4437 3.10779 -222.311 -26.4321 3.86974Z" fill="white" fill-opacity="0.25"/>
  </g>
  <defs>
  <clipPath id="clip0_559_45925">
  <rect width="350" height="350" fill="white"/>
  </clipPath>
  </defs>

    
  <g filter="url(#filter0_d_584_56451)">
  <path d="M130.999 154.49C132.151 149.477 130.801 146.279 128.887 145.373C125.474 143.755 122.561 149.427 122.022 153.568C121.484 157.71 122.147 160.537 123.962 161.39C125.777 162.244 129.848 159.504 130.999 154.49Z" fill="#6DF244"/>
  <path d="M100.213 190.945C99.0026 189.835 98.0945 188.541 97.4799 187.155L81.7398 187.434L81.6143 180.363L96.7613 180.094C97.3936 177.146 99.1836 174.424 102.054 172.698L106.118 170.254C108.852 168.61 111.938 168.254 114.743 168.945L121.803 156.199L127.989 159.626L120.765 172.669C121.713 173.789 122.463 175.119 122.938 176.629L127.603 197.103L124.413 212.37L100.213 190.945Z" fill="url(#paint0_radial_584_56451)"/>
  <path d="M75.7939 187.683C70.8262 186.349 68.6346 183.657 68.7311 181.543C68.9033 177.769 75.279 177.856 79.1891 179.323C83.0992 180.789 85.2854 182.7 85.1881 184.704C85.0908 186.707 80.7617 189.017 75.7939 187.683Z" fill="#6DF244"/>
  <path d="M62.564 151.617C60.244 144.392 59.9498 118.89 68.6994 113.629C77.449 108.369 99.0653 121.05 104.936 126.14C110.806 131.231 117.27 136.313 117.037 147.628C116.743 161.869 108.128 171.872 104.793 173.877C101.458 175.882 88.5832 178.8 75.8678 172.381C65.7642 167.281 64.884 158.842 62.564 151.617Z" fill="#6DF244"/>
  <path d="M62.564 151.617C60.244 144.392 59.9498 118.89 68.6994 113.629C77.449 108.369 99.0653 121.05 104.936 126.14C110.806 131.231 117.27 136.313 117.037 147.628C116.743 161.869 108.128 171.872 104.793 173.877C101.458 175.882 88.5832 178.8 75.8678 172.381C65.7642 167.281 64.884 158.842 62.564 151.617Z" fill="url(#paint1_linear_584_56451)" fill-opacity="0.8"/>
  <path d="M76.5187 168.942C69.103 164.997 66.6376 159.91 67.6021 156.579C69.3232 150.637 79.4633 153.115 85.1405 156.882C90.8178 160.65 93.5737 164.494 92.6506 167.646C91.7275 170.798 83.9343 172.887 76.5187 168.942Z" stroke="url(#paint2_linear_584_56451)" stroke-width="0.880654"/>
  <path fill-rule="evenodd" clip-rule="evenodd" d="M103.54 171.793C104.87 171.142 106.676 168.884 105.707 163.641L100.13 166.994L100.13 166.994L95.3228 169.884C99.5 173.2 102.342 172.663 103.54 171.793Z" fill="#57BF37"/>
  <path d="M113.134 146.387C113.192 138.874 110.214 134.818 107.157 134.208C101.702 133.121 99.3093 142.19 99.8586 148.251C100.408 154.311 102.273 158.084 105.171 158.653C108.07 159.222 113.077 153.9 113.134 146.387Z" fill="#070707" stroke="#070707" stroke-width="0.220163"/>
  <path d="M113.469 146.726C113.506 138.3 110.163 133.74 106.744 133.045C100.644 131.806 98.0029 141.968 98.6391 148.767C99.2753 155.565 101.374 159.804 104.615 160.453C107.856 161.101 113.433 155.151 113.469 146.726Z" stroke="url(#paint3_linear_584_56451)" stroke-width="0.880654"/>
  <path d="M113.853 146.494C113.89 138.069 110.548 133.508 107.129 132.814C101.028 131.575 98.3872 141.737 99.0234 148.535C99.6595 155.334 101.758 159.573 104.999 160.221C108.241 160.87 113.817 154.92 113.853 146.494Z" stroke="url(#paint4_linear_584_56451)" stroke-width="0.880654"/>
  <path d="M108.909 137.161C107.645 135.824 106.436 135.631 105.799 136.062C104.662 136.829 105.781 138.852 106.905 139.826C108.029 140.799 108.995 141.138 109.598 140.728C110.2 140.319 110.173 138.498 108.909 137.161Z" fill="url(#paint5_radial_584_56451)"/>
  <path fill-rule="evenodd" clip-rule="evenodd" d="M98.7913 163.896C98.1305 164.19 96.7264 165.199 96.3974 166.881L99.4742 165.031L102.551 163.181C100.911 162.683 99.3612 163.45 98.7913 163.896Z" fill="#57BF37"/>
  <path d="M76.7609 168.257C70.1415 164.759 67.9499 160.23 68.8201 157.259C70.3729 151.959 79.4311 154.142 84.497 157.487C89.5629 160.832 92.0172 164.251 91.1845 167.063C90.3517 169.875 83.3804 171.755 76.7609 168.257Z" fill="#070707" stroke="#070707" stroke-width="0.220163"/>
  <path d="M70.4977 160.255C69.9097 158.512 70.3062 157.354 70.9852 156.993C72.1968 156.349 73.4581 158.286 73.7911 159.735C74.124 161.184 73.9699 162.196 73.3254 162.537C72.681 162.877 71.0858 161.998 70.4977 160.255Z" fill="url(#paint6_radial_584_56451)"/>
  <path d="M76.5187 168.942C69.103 164.997 66.6376 159.91 67.6021 156.579C69.3232 150.637 79.4633 153.115 85.1405 156.882C90.8178 160.65 93.5737 164.494 92.6506 167.646C91.7275 170.798 83.9343 172.887 76.5187 168.942Z" stroke="url(#paint7_linear_584_56451)" stroke-width="0.880654"/>
  <rect width="4.0506" height="27.9009" transform="matrix(0.99987 -0.0160966 0.0193936 0.999812 87.3584 106.92)" fill="#6DF244"/>
  <path d="M95.2877 103.653C95.2926 97.7492 92.9482 94.5458 90.5599 94.0507C86.2983 93.1675 84.4797 100.281 84.9405 105.046C85.4013 109.811 86.8765 112.787 89.1407 113.249C91.4049 113.711 95.2829 109.556 95.2877 103.653Z" fill="#57BF37"/>
  <rect width="4.05059" height="27.9009" transform="matrix(-0.483106 0.875562 0.873962 0.485994 53.9727 126.993)" fill="#6DF244"/>
  <path d="M47.3686 132.466C42.1523 129.701 40.4224 126.129 41.1052 123.787C42.3235 119.609 49.4593 121.339 53.4519 123.98C57.4445 126.622 59.3804 129.32 58.727 131.537C58.0736 133.753 52.5848 135.23 47.3686 132.466Z" fill="#57BF37"/>
  <g filter="url(#filter1_d_584_56451)">
  <circle cx="110.523" cy="181.467" r="4.33642" transform="rotate(-6.77196 110.523 181.467)" fill="url(#paint8_radial_584_56451)" stroke="#56CCF2" stroke-width="0.47927"/>
  <g filter="url(#filter2_d_584_56451)">
  <path d="M114.083 179.006C117.014 178.182 118.279 177.96 118.427 178.383C118.638 178.986 115.662 181.231 110.761 182.947C105.861 184.664 102.543 185.004 102.333 184.402C102.182 183.973 103.246 182.992 106.12 181.786" stroke="#6DF244" stroke-width="0.684672"/>
  </g>
  </g>
  </g>
  <defs>
  <filter id="filter0_d_584_56451" x="38.229" y="93.5201" width="95.9297" height="123.863" filterUnits="userSpaceOnUse" color-interpolation-filters="sRGB">
  <feFlood flood-opacity="0" result="BackgroundImageFix"/>
  <feColorMatrix in="SourceAlpha" type="matrix" values="0 0 0 0 0 0 0 0 0 0 0 0 0 0 0 0 0 0 127 0" result="hardAlpha"/>
  <feOffset dy="2.27865"/>
  <feGaussianBlur stdDeviation="1.36719"/>
  <feComposite in2="hardAlpha" operator="out"/>
  <feColorMatrix type="matrix" values="0 0 0 0 0 0 0 0 0 0 0 0 0 0 0 0 0 0 0.15 0"/>
  <feBlend mode="normal" in2="BackgroundImageFix" result="effect1_dropShadow_584_56451"/>
  <feBlend mode="normal" in="SourceGraphic" in2="effect1_dropShadow_584_56451" result="shape"/>
  </filter>
  <filter id="filter1_d_584_56451" x="101.702" y="176.891" width="17.3514" height="9.70081" filterUnits="userSpaceOnUse" color-interpolation-filters="sRGB">
  <feFlood flood-opacity="0" result="BackgroundImageFix"/>
  <feColorMatrix in="SourceAlpha" type="matrix" values="0 0 0 0 0 0 0 0 0 0 0 0 0 0 0 0 0 0 127 0" result="hardAlpha"/>
  <feOffset dy="0.273869"/>
  <feGaussianBlur stdDeviation="0.136934"/>
  <feComposite in2="hardAlpha" operator="out"/>
  <feColorMatrix type="matrix" values="0 0 0 0 0 0 0 0 0 0 0 0 0 0 0 0 0 0 0.25 0"/>
  <feBlend mode="normal" in2="BackgroundImageFix" result="effect1_dropShadow_584_56451"/>
  <feBlend mode="normal" in="SourceGraphic" in2="effect1_dropShadow_584_56451" result="shape"/>
  </filter>
  <filter id="filter2_d_584_56451" x="101.086" y="176.941" width="18.5839" height="8.96899" filterUnits="userSpaceOnUse" color-interpolation-filters="sRGB">
  <feFlood flood-opacity="0" result="BackgroundImageFix"/>
  <feColorMatrix in="SourceAlpha" type="matrix" values="0 0 0 0 0 0 0 0 0 0 0 0 0 0 0 0 0 0 127 0" result="hardAlpha"/>
  <feOffset/>
  <feGaussianBlur stdDeviation="0.445037"/>
  <feComposite in2="hardAlpha" operator="out"/>
  <feColorMatrix type="matrix" values="0 0 0 0 1 0 0 0 0 1 0 0 0 0 1 0 0 0 1 0"/>
  <feBlend mode="normal" in2="BackgroundImageFix" result="effect1_dropShadow_584_56451"/>
  <feBlend mode="normal" in="SourceGraphic" in2="effect1_dropShadow_584_56451" result="shape"/>
  </filter>
  <radialGradient id="paint0_radial_584_56451" cx="0" cy="0" r="1" gradientUnits="userSpaceOnUse" gradientTransform="translate(105.857 176.821) rotate(61.8214) scale(36.1903 30.5505)">
  <stop offset="0.552083" stop-color="white"/>
  <stop offset="1" stop-color="#CCD0C9"/>
  </radialGradient>
  <linearGradient id="paint1_linear_584_56451" x1="99.1276" y1="164.455" x2="67.1981" y2="113.092" gradientUnits="userSpaceOnUse">
  <stop offset="0.527397" stop-color="#6DF244"/>
  <stop offset="1" stop-color="#388E1D"/>
  </linearGradient>
  <linearGradient id="paint2_linear_584_56451" x1="73.5638" y1="151.548" x2="86.1667" y2="172.509" gradientUnits="userSpaceOnUse">
  <stop stop-color="#6CB835"/>
  <stop offset="0.40625" stop-color="#6CB835" stop-opacity="0"/>
  </linearGradient>
  <linearGradient id="paint3_linear_584_56451" x1="99.4284" y1="135.998" x2="112.031" y2="156.958" gradientUnits="userSpaceOnUse">
  <stop stop-color="#6CB835"/>
  <stop offset="0.40625" stop-color="#6CB835" stop-opacity="0"/>
  </linearGradient>
  <linearGradient id="paint4_linear_584_56451" x1="99.8127" y1="135.766" x2="112.416" y2="156.727" gradientUnits="userSpaceOnUse">
  <stop offset="0.541667" stop-color="#6CB835" stop-opacity="0"/>
  <stop offset="1" stop-color="#6CB835"/>
  </linearGradient>
  <radialGradient id="paint5_radial_584_56451" cx="0" cy="0" r="1" gradientUnits="userSpaceOnUse" gradientTransform="translate(107.665 138.344) rotate(48.0079) scale(2.79886 2.28334)">
  <stop stop-color="white" stop-opacity="0.75"/>
  <stop offset="1" stop-color="white" stop-opacity="0"/>
  <stop offset="1" stop-color="white"/>
  </radialGradient>
  <radialGradient id="paint6_radial_584_56451" cx="0" cy="0" r="1" gradientUnits="userSpaceOnUse" gradientTransform="translate(72.126 159.712) rotate(69.9583) scale(2.79886 2.28334)">
  <stop stop-color="white" stop-opacity="0.75"/>
  <stop offset="1" stop-color="white" stop-opacity="0"/>
  <stop offset="1" stop-color="white"/>
  </radialGradient>
  <linearGradient id="paint7_linear_584_56451" x1="73.5638" y1="151.548" x2="86.1667" y2="172.509" gradientUnits="userSpaceOnUse">
  <stop offset="0.671875" stop-color="#6CB835" stop-opacity="0"/>
  <stop offset="1" stop-color="#6CB835"/>
  </linearGradient>
  <radialGradient id="paint8_radial_584_56451" cx="0" cy="0" r="1" gradientUnits="userSpaceOnUse" gradientTransform="translate(107.916 179.031) rotate(49.243) scale(7.35423 6.44312)">
  <stop offset="0.3125" stop-color="#321A93"/>
  <stop offset="1" stop-color="#3603FF"/>
  <stop offset="1" stop-color="#3603FF"/>
  </radialGradient>
  </defs>
  
    
  <path d="M230.077 316.485L204.589 287.054C204.416 286.854 204.164 286.739 203.9 286.739H174.804H145.887C145.622 286.739 145.369 286.855 145.196 287.057L119.919 316.485C119.622 316.83 119.62 317.331 119.941 317.654C123.163 320.91 140.897 337.097 175 337.097C209.097 337.097 226.83 320.917 230.058 317.656C230.379 317.332 230.376 316.83 230.077 316.485Z" fill="url(#paint0_linear_680_65515)"/>
  <mask id="mask0_680_65515" style="mask-type:alpha" maskUnits="userSpaceOnUse" x="119" y="286" width="111" height="51">
  <path d="M229.621 316.029L204.133 286.598C203.959 286.398 203.708 286.284 203.444 286.284H174.347H145.431C145.165 286.284 144.913 286.4 144.74 286.601L119.462 316.029C119.166 316.375 119.164 316.875 119.484 317.198C122.706 320.454 140.44 336.642 174.544 336.642C208.64 336.642 226.374 320.462 229.602 317.2C229.923 316.876 229.92 316.374 229.621 316.029Z" fill="url(#paint1_linear_680_65515)"/>
  </mask>
  <g mask="url(#mask0_680_65515)">
  <g style="mix-blend-mode:overlay">
  <circle cx="169.837" cy="326.159" r="1.22977" fill="white"/>
  <circle cx="137.679" cy="307.196" r="1.22977" fill="white"/>
  <circle cx="154.254" cy="317.528" r="1.22977" fill="white"/>
  <circle cx="188.535" cy="323.516" r="1.22977" fill="white"/>
  <path d="M125.467 315.559L124.692 313.464L122.598 312.689L124.692 311.914L125.467 309.82L126.242 311.914L128.337 312.689L126.242 313.464L125.467 315.559Z" fill="#FFF7B0"/>
  <path d="M139.133 322.101L138.358 320.006L136.263 319.231L138.358 318.456L139.133 316.362L139.908 318.456L142.002 319.231L139.908 320.006L139.133 322.101Z" fill="#FFF7B0"/>
  <path d="M184.705 338.507L183.93 336.412L181.835 335.637L183.93 334.862L184.705 332.768L185.48 334.862L187.574 335.637L185.48 336.412L184.705 338.507Z" fill="#FFF7B0"/>
  <path d="M222.066 315.081L220.38 310.524L215.823 308.837L220.38 307.151L222.066 302.594L223.753 307.151L228.31 308.837L223.753 310.524L222.066 315.081Z" fill="#FFF7B0"/>
  <path opacity="0.25" d="M143.099 292.664L139.53 283.017L129.883 279.448L139.53 275.878L143.099 266.231L146.669 275.878L156.315 279.448L146.669 283.017L143.099 292.664Z" fill="#FFF7B0"/>
  <path opacity="0.25" d="M157.683 354.187L154.114 344.374L144.467 340.743L154.114 337.112L157.683 327.299L161.253 337.112L170.9 340.743L161.253 344.374L157.683 354.187Z" fill="#FFF7B0"/>
  <path opacity="0.25" d="M207.584 335.502L204.446 327.02L195.963 323.881L204.446 320.742L207.584 312.26L210.723 320.742L219.206 323.881L210.723 327.02L207.584 335.502Z" fill="#FFF7B0"/>
  </g>
  </g>

  <path d="M155.658 64.3044C159.113 51.3268 161.899 34.7211 174.785 34.7211C187.671 34.7211 192.186 55.2815 194.342 64.6208C196.328 73.2253 200.673 93.1271 201.344 96.2052C201.402 96.4697 201.335 96.7311 201.145 96.9245C199.763 98.3363 193.094 103.992 175 103.992C156.851 103.992 150.197 98.302 148.842 96.9118C148.66 96.7245 148.593 96.4718 148.642 96.2148C149.177 93.408 152.494 76.1925 155.658 64.3044Z" fill="url(#paint2_linear_680_65515)"/>
  <path d="M124.486 212.334C124.643 211.724 125.349 211.438 125.891 211.76C130.804 214.68 151.572 226.127 175.229 226.127C198.848 226.127 219.241 214.717 224.108 211.774C224.65 211.446 225.361 211.733 225.52 212.346C229.593 228.14 244.818 265.011 232.898 283.941C217.483 308.422 200.522 316.817 175.001 316.817C149.48 316.817 132.519 308.422 117.104 283.941C105.181 265.006 120.417 228.121 124.486 212.334Z" fill="url(#paint3_linear_680_65515)"/>
  <mask id="mask1_680_65515" style="mask-type:alpha" maskUnits="userSpaceOnUse" x="112" y="211" width="126" height="107">
  <path d="M124.726 211.543C124.726 211.543 148.046 226.582 175.162 226.582C202.278 226.582 225.142 211.543 225.142 211.543C228.665 226.547 245.079 264.944 232.831 284.396C217.416 308.876 200.455 317.272 174.934 317.272C149.413 317.272 132.451 308.876 117.037 284.396C104.788 264.944 121.203 226.547 124.726 211.543Z" fill="url(#paint4_radial_680_65515)"/>
  </mask>
  <g mask="url(#mask1_680_65515)">
  <path d="M203.644 320.919C210.522 302.924 220.151 257.678 203.644 220.659" stroke="#773B06" stroke-opacity="0.1" stroke-width="4.55729"/>
  <path d="M181.314 320.919C186.782 303.601 192.251 258.028 181.314 220.659" stroke="#773B06" stroke-opacity="0.1" stroke-width="4.55729"/>
  <path d="M165.362 320.919C159.893 303.601 154.425 258.028 165.362 220.659" stroke="#773B06" stroke-opacity="0.1" stroke-width="4.55729"/>
  <path d="M143.032 320.919C136.154 302.924 126.525 257.678 143.032 220.659" stroke="#773B06" stroke-opacity="0.1" stroke-width="4.55729"/>
  </g>
  <path d="M154.675 247.319C155.201 246.407 156.517 246.407 157.043 247.319L166.91 264.409C167.436 265.32 166.778 266.459 165.726 266.459H145.992C144.94 266.459 144.282 265.32 144.808 264.409L154.675 247.319Z" fill="black"/>
  <path d="M194.412 247.319C193.886 246.407 192.571 246.407 192.044 247.319L182.178 264.409C181.651 265.32 182.309 266.459 183.362 266.459H203.095C204.148 266.459 204.806 265.32 204.279 264.409L194.412 247.319Z" fill="black"/>
  <path fill-rule="evenodd" clip-rule="evenodd" d="M163.58 277.717H185.252V284.06H192.652V277.717H209.041C210.855 277.717 211.842 279.653 210.622 280.995C205.795 286.309 194.305 296.217 175.737 296.217C175.203 296.217 174.674 296.209 174.151 296.193V289.874H166.751V295.414C153.296 292.961 144.315 285.466 140.041 281.056C138.751 279.725 139.726 277.717 141.58 277.717H156.18V284.06H163.58V277.717Z" fill="black"/>
  <path d="M194.445 64.1351C192.245 54.5887 187.667 34.7211 175 34.7211L175.215 337.097C213.132 337.097 230.814 317.087 230.814 317.087L218.057 302.357C223.366 297.623 228.314 291.561 233.112 283.941C242.928 268.352 234.335 240.595 228.721 222.463C227.33 217.97 226.122 214.068 225.423 211.088C225.423 211.088 225.308 211.163 225.086 211.303L201.465 96.6008C201.534 96.3694 201.54 96.1174 201.486 95.8663C200.617 91.8881 196.481 72.955 194.557 64.6208L194.445 64.1351Z" fill="#161A70" fill-opacity="0.1"/>
  <mask id="mask2_680_65515" style="mask-type:alpha" maskUnits="userSpaceOnUse" x="112" y="211" width="126" height="106">
  <path d="M124.419 212.334C124.577 211.724 125.283 211.438 125.825 211.76C130.738 214.68 151.506 226.127 175.163 226.127C198.782 226.127 219.175 214.717 224.042 211.774C224.584 211.446 225.295 211.733 225.453 212.346C229.527 228.14 244.752 265.011 232.832 283.941C217.417 308.422 200.456 316.817 174.935 316.817C149.414 316.817 132.452 308.422 117.038 283.941C105.115 265.006 120.351 228.121 124.419 212.334Z" fill="url(#paint5_linear_680_65515)"/>
  </mask>
  <g mask="url(#mask2_680_65515)">
  <g style="mix-blend-mode:overlay">
  <circle cx="134.289" cy="302.917" r="1.22977" fill="white"/>
  <circle cx="124.918" cy="247.496" r="1.22977" fill="white"/>
  <circle cx="146.051" cy="262.385" r="1.22977" fill="white"/>
  <circle cx="148.429" cy="241.029" r="1.22977" fill="white"/>
  <circle cx="157.089" cy="309.388" r="1.22977" fill="white"/>
  <circle cx="202.725" cy="294.564" r="1.22977" fill="white"/>
  <path d="M127.876 290.93L127.433 289.733L126.236 289.29L127.433 288.848L127.876 287.651L128.319 288.848L129.516 289.29L128.319 289.733L127.876 290.93Z" fill="#FFF7B0"/>
  <path d="M114.204 261.308L113.761 260.111L112.564 259.668L113.761 259.225L114.204 258.028L114.647 259.225L115.844 259.668L114.647 260.111L114.204 261.308Z" fill="#FFF7B0"/>
  <path d="M214.009 229.407L213.566 228.21L212.369 227.767L213.566 227.324L214.009 226.127L214.451 227.324L215.648 227.767L214.451 228.21L214.009 229.407Z" fill="#FFF7B0"/>
  <path d="M222.211 254.472L221.768 253.275L220.571 252.832L221.768 252.389L222.211 251.192L222.654 252.389L223.851 252.832L222.654 253.275L222.211 254.472Z" fill="#FFF7B0"/>
  <path d="M176.507 264.973L175.732 262.878L173.638 262.103L175.732 261.328L176.507 259.234L177.282 261.328L179.377 262.103L177.282 262.878L176.507 264.973Z" fill="#FFF7B0"/>
  <path d="M162.83 239.614L162.055 237.519L159.96 236.744L162.055 235.969L162.83 233.875L163.605 235.969L165.699 236.744L163.605 237.519L162.83 239.614Z" fill="#FFF7B0"/>
  <path d="M149.158 315.72L148.383 313.626L146.289 312.851L148.383 312.076L149.159 309.981L149.934 312.076L152.028 312.851L149.934 313.626L149.158 315.72Z" fill="#FFF7B0"/>
  <path d="M186.072 307.517L185.297 305.423L183.203 304.648L185.297 303.873L186.072 301.778L186.847 303.873L188.942 304.648L186.847 305.423L186.072 307.517Z" fill="#FFF7B0"/>
  <path d="M193.81 246.266L192.124 241.709L187.566 240.022L192.124 238.336L193.81 233.778L195.496 238.336L200.054 240.022L195.496 241.709L193.81 246.266Z" fill="#FFF7B0"/>
  <path opacity="0.25" d="M134.895 237.521L131.325 227.874L121.679 224.304L131.325 220.735L134.895 211.088L138.464 220.735L148.111 224.304L138.464 227.874L134.895 237.521Z" fill="#FFF7B0"/>
  <path opacity="0.25" d="M152.668 278.536L149.099 268.723L139.452 265.092L149.099 261.461L152.668 251.648L156.238 261.461L165.884 265.092L156.238 268.723L152.668 278.536Z" fill="#FFF7B0"/>
  <path opacity="0.25" d="M199.381 280.359L196.242 271.877L187.759 268.738L196.242 265.599L199.381 257.117L202.519 265.599L211.002 268.738L202.519 271.877L199.381 280.359Z" fill="#FFF7B0"/>
  </g>
  </g>
  <mask id="mask3_680_65515" style="mask-type:alpha" maskUnits="userSpaceOnUse" x="148" y="33" width="54" height="70">
  <path d="M155.658 62.9372C159.113 49.9596 161.899 33.3539 174.785 33.3539C187.671 33.3539 192.186 53.9143 194.342 63.2536C196.328 71.8581 200.673 91.7599 201.344 94.838C201.402 95.1025 201.335 95.3639 201.145 95.5574C199.763 96.9691 193.094 102.625 175 102.625C156.851 102.625 150.197 96.9348 148.842 95.5447C148.66 95.3573 148.593 95.1046 148.642 94.8476C149.177 92.0408 152.494 74.8253 155.658 62.9372Z" fill="url(#paint6_linear_680_65515)"/>
  </mask>
  <g mask="url(#mask3_680_65515)">
  <g style="mix-blend-mode:overlay">
  <circle cx="151.268" cy="56.2541" r="1.21779" fill="white"/>
  <circle cx="154.002" cy="38.9037" r="1.21779" transform="rotate(75 154.002 38.9037)" fill="white"/>
  <circle cx="170.46" cy="68.4567" r="1.21779" transform="rotate(75 170.46 68.4567)" fill="white"/>
  <circle cx="190.238" cy="68.757" r="1.21779" fill="white"/>
  <path d="M179.132 85.9004L178.365 83.8264L176.291 83.0589L178.365 82.2914L179.132 80.2174L179.9 82.2914L181.974 83.0589L179.9 83.8264L179.132 85.9004Z" fill="#FFF7B0"/>
  <path d="M162.379 50.9083L161.611 48.8343L159.537 48.0668L161.611 47.2994L162.379 45.2253L163.146 47.2994L165.22 48.0668L163.146 48.8343L162.379 50.9083Z" fill="#FFF7B0"/>
  <path d="M162.804 95.5474L162.036 93.4733L159.962 92.7059L162.036 91.9384L162.804 89.8643L163.571 91.9384L165.645 92.7059L163.571 93.4733L162.804 95.5474Z" fill="#FFF7B0"/>
  <path d="M191.514 92.3573L190.747 90.2832L188.673 89.5158L190.747 88.7483L191.514 86.6743L192.282 88.7483L194.356 89.5158L192.282 90.2832L191.514 92.3573Z" fill="#FFF7B0"/>
  <path d="M178.298 63.1906L177.531 61.1166L175.457 60.3491L177.531 59.5816L178.298 57.5076L179.066 59.5816L181.14 60.3491L179.066 61.1166L178.298 63.1906Z" fill="#FFF7B0"/>
  <path opacity="0.25" d="M157.228 81.2055L154.889 74.8853L148.569 72.5466L154.889 70.2079L157.228 63.8878L159.567 70.2079L165.887 72.5466L159.567 74.8853L157.228 81.2055Z" fill="#FFF7B0"/>
  <path opacity="0.25" d="M175.001 112.651L172.662 106.331L166.342 103.992L172.662 101.653L175.001 95.3331L177.339 101.653L183.66 103.992L177.339 106.331L175.001 112.651Z" fill="#FFF7B0"/>
  <path opacity="0.25" d="M144.011 99.8904L141.673 93.5702L135.353 91.2315L141.673 88.8929L144.011 82.5727L146.35 88.8929L152.67 91.2315L146.35 93.5702L144.011 99.8904Z" fill="#FFF7B0"/>
  <path opacity="0.25" d="M187.306 50.6716L184.967 44.3515L178.647 42.0128L184.967 39.6741L187.306 33.3539L189.644 39.6741L195.964 42.0128L189.644 44.3515L187.306 50.6716Z" fill="#FFF7B0"/>
  </g>
  </g>
  <defs>
  <linearGradient id="paint0_linear_680_65515" x1="135.808" y1="292.166" x2="144.601" y2="344.569" gradientUnits="userSpaceOnUse">
  <stop offset="0.00712166" stop-color="#6A9EE2"/>
  <stop offset="0.282888" stop-color="#4883C2" stop-opacity="0.98"/>
  <stop offset="0.635608" stop-color="#9CCBF4" stop-opacity="0.98"/>
  <stop offset="1" stop-color="#E8F3FC" stop-opacity="0.98"/>
  </linearGradient>
  <linearGradient id="paint1_linear_680_65515" x1="135.351" y1="291.71" x2="144.144" y2="344.113" gradientUnits="userSpaceOnUse">
  <stop offset="0.00712166" stop-color="#6A9EE2"/>
  <stop offset="0.282888" stop-color="#4883C2" stop-opacity="0.98"/>
  <stop offset="0.635608" stop-color="#9CCBF4" stop-opacity="0.98"/>
  <stop offset="1" stop-color="#E8F3FC" stop-opacity="0.98"/>
  </linearGradient>
  <linearGradient id="paint2_linear_680_65515" x1="156.367" y1="42.1856" x2="185.487" y2="102.161" gradientUnits="userSpaceOnUse">
  <stop offset="0.00712166" stop-color="#6A9EE2"/>
  <stop offset="0.282888" stop-color="#4883C2" stop-opacity="0.98"/>
  <stop offset="0.635608" stop-color="#9CCBF4" stop-opacity="0.98"/>
  <stop offset="1" stop-color="#E8F3FC" stop-opacity="0.98"/>
  </linearGradient>
  <linearGradient id="paint3_linear_680_65515" x1="131.036" y1="222.482" x2="163.373" y2="325.447" gradientUnits="userSpaceOnUse">
  <stop offset="0.00712166" stop-color="#6A9EE2"/>
  <stop offset="0.282888" stop-color="#4883C2" stop-opacity="0.98"/>
  <stop offset="0.635608" stop-color="#9CCBF4" stop-opacity="0.98"/>
  <stop offset="1" stop-color="#E8F3FC" stop-opacity="0.98"/>
  </linearGradient>
  <radialGradient id="paint4_radial_680_65515" cx="0" cy="0" r="1" gradientUnits="userSpaceOnUse" gradientTransform="translate(153.059 258.939) rotate(36.2538) scale(76.2935 67.5721)">
  <stop offset="0.0989583" stop-color="#FFB800"/>
  <stop offset="1" stop-color="#E96D00"/>
  </radialGradient>
  <linearGradient id="paint5_linear_680_65515" x1="130.97" y1="222.482" x2="163.307" y2="325.447" gradientUnits="userSpaceOnUse">
  <stop offset="0.00712166" stop-color="#6A9EE2"/>
  <stop offset="0.282888" stop-color="#4883C2" stop-opacity="0.98"/>
  <stop offset="0.635608" stop-color="#9CCBF4" stop-opacity="0.98"/>
  <stop offset="1" stop-color="#E8F3FC" stop-opacity="0.98"/>
  </linearGradient>
  <linearGradient id="paint6_linear_680_65515" x1="156.367" y1="40.8184" x2="185.487" y2="100.794" gradientUnits="userSpaceOnUse">
  <stop offset="0.00712166" stop-color="#6A9EE2"/>
  <stop offset="0.282888" stop-color="#4883C2" stop-opacity="0.98"/>
  <stop offset="0.635608" stop-color="#9CCBF4" stop-opacity="0.98"/>
  <stop offset="1" stop-color="#E8F3FC" stop-opacity="0.98"/>
  </linearGradient>
  </defs>

    
    <path d="M148.647 94.3351L124.888 210.017C124.817 210.363 124.947 210.714 125.237 210.915C128.356 213.082 146.958 225.128 174.998 225.128C203.038 225.128 221.64 213.082 224.76 210.915C225.05 210.714 225.18 210.363 225.109 210.017L201.35 94.3351C201.316 94.4021 201.271 94.4644 201.216 94.5198C199.881 95.8685 193.226 101.484 174.998 101.484C156.771 101.484 150.116 95.8685 148.78 94.5198C148.725 94.4644 148.681 94.4021 148.647 94.3351Z" fill="#000000" fill-opacity="0.75"/>;
    
    <!-- Color -->
    <path d="M201.049 94.2304L205.113 114.031C203.523 113.76 201.871 113.447 200.18 113.127C186.038 110.452 169.252 107.276 165.003 123.73C163.148 130.914 165.836 135.212 168.45 139.394C170.975 143.43 173.431 147.358 171.668 153.669C169.523 161.35 157.859 166.325 148.479 162.994C138.57 159.476 139.266 144.903 144.961 137.849C150.656 130.794 151.48 120.031 150.656 112.87C150.259 109.409 148.549 106.935 146.313 105.251L148.649 93.8801C148.683 93.9471 148.727 94.0094 148.782 94.0649C150.117 95.4136 156.772 101.03 175 101.03C192.557 101.03 199.378 95.8189 201.049 94.2304Z" fill="url(#paint0_radial_702_67017)"/>

    <!-- Filter -->
    <mask id="mask0_702_67017" style="mask-type:alpha" maskUnits="userSpaceOnUse" x="140" y="93" width="66" height="72">
      <path d="M201.049 94.2304L205.113 114.031C203.523 113.76 201.871 113.447 200.18 113.127C186.038 110.452 169.252 107.276 165.003 123.73C163.148 130.914 165.836 135.212 168.45 139.394C170.975 143.43 173.431 147.358 171.668 153.669C169.523 161.35 157.859 166.325 148.479 162.994C138.57 159.476 139.266 144.903 144.961 137.849C150.656 130.794 151.48 120.031 150.656 112.87C150.259 109.409 148.549 106.935 146.313 105.251L148.649 93.8801C148.683 93.9471 148.727 94.0094 148.782 94.0649C150.117 95.4136 156.772 101.03 175 101.03C192.557 101.03 199.378 95.8189 201.049 94.2304Z" fill="url(#paint1_radial_702_67017)"/>
    </mask>
    <g mask="url(#mask0_702_67017)">
      <g filter="url(#filter0_f_702_67017)">
        <mask id="mask1_702_67017" style="mask-type:alpha" maskUnits="userSpaceOnUse" x="124" y="94" width="102" height="132">
          <path d="M148.862 95.0637C148.949 94.6399 149.322 94.3357 149.754 94.3357H200.246C200.678 94.3357 201.051 94.6399 201.138 95.0637L224.993 211.158C225.074 211.554 224.888 211.954 224.527 212.137C220.624 214.108 198.375 224.817 175 225.127C151.578 225.438 129.287 214.178 125.45 212.14C125.099 211.954 124.924 211.562 125.004 211.173L148.862 95.0637Z" fill="#577096" fill-opacity="0.75"/>
        </mask>
        <g mask="url(#mask1_702_67017)">
          <g filter="url(#filter1_f_702_67017)">
            <path d="M207.208 76.1064C210.866 110.268 145.941 132.571 113.021 139.453L113.021 76.1064L207.208 76.1064Z" fill="url(#paint2_linear_702_67017)" fill-opacity="0.5"/>
          </g>
          <g filter="url(#filter2_f_702_67017)">
            <path d="M155.407 125.301C156.469 105.018 134.471 86.1828 128.929 66.9985C133.388 65.1973 144.05 70.7896 152.675 76.1247C163.456 82.7936 162.879 109.124 164.625 125.784C166.022 139.112 148.453 223.401 144.015 241.481L131.716 240.837C140.242 214.68 154.587 140.955 155.407 125.301Z" fill="url(#paint3_linear_702_67017)" fill-opacity="0.6"/>
          </g>
        </g>
      </g>
    </g>

    <defs>
      <!-- Color -->
      <radialGradient id="paint0_radial_702_67017" cx="0" cy="0" r="1" gradientUnits="userSpaceOnUse" gradientTransform="translate(155.882 109.102) rotate(53.1177) scale(37.8177 40.2646)">
        <stop offset="0.203125" style="stop-color: #FFFFFF;"/>
        <stop offset="0.890625" style="stop-color: #D0C9C9;"/>
      </radialGradient>

      <!-- Filter -->
      <filter id="filter0_f_702_67017" x="122.591" y="92.057" width="104.818" height="135.355" filterUnits="userSpaceOnUse" color-interpolation-filters="sRGB">
        <feFlood flood-opacity="0" result="BackgroundImageFix"/>
        <feBlend mode="normal" in="SourceGraphic" in2="BackgroundImageFix" result="shape"/>
        <feGaussianBlur stdDeviation="1.13932" result="effect1_foregroundBlur_702_67017"/>
      </filter>
      <filter id="filter1_f_702_67017" x="112.109" y="75.195" width="96.1589" height="65.1694" filterUnits="userSpaceOnUse" color-interpolation-filters="sRGB">
        <feFlood flood-opacity="0" result="BackgroundImageFix"/>
        <feBlend mode="normal" in="SourceGraphic" in2="BackgroundImageFix" result="shape"/>
        <feGaussianBlur stdDeviation="0.455729" result="effect1_foregroundBlur_702_67017"/>
      </filter>
      <filter id="filter2_f_702_67017" x="128.017" y="65.7426" width="37.5979" height="176.65" filterUnits="userSpaceOnUse" color-interpolation-filters="sRGB">
        <feFlood flood-opacity="0" result="BackgroundImageFix"/>
        <feBlend mode="normal" in="SourceGraphic" in2="BackgroundImageFix" result="shape"/>
        <feGaussianBlur stdDeviation="0.455729" result="effect1_foregroundBlur_702_67017"/>
      </filter>
      <radialGradient id="paint1_radial_702_67017" cx="0" cy="0" r="1" gradientUnits="userSpaceOnUse" gradientTransform="translate(155.882 109.102) rotate(53.1177) scale(37.8177 40.2646)">
        <stop offset="0.203125" stop-color="#71FF30"/>
        <stop offset="0.890625" stop-color="#25BC46"/>
      </radialGradient>
      <linearGradient id="paint2_linear_702_67017" x1="145.215" y1="123.01" x2="155.829" y2="72.2914" gradientUnits="userSpaceOnUse">
        <stop stop-color="white" stop-opacity="0"/>
        <stop offset="0.471361" stop-color="white"/>
        <stop offset="1" stop-color="white"/>
      </linearGradient>
      <linearGradient id="paint3_linear_702_67017" x1="160.729" y1="220.938" x2="201.954" y2="178" gradientUnits="userSpaceOnUse">
        <stop stop-color="#F2F2F2"/>
        <stop offset="0.0001" stop-color="#F2F2F2"/>
        <stop offset="0.0520833" stop-color="#F2F2F2" stop-opacity="0.948011"/>
        <stop offset="1" stop-color="#F2F2F2" stop-opacity="0"/>
      </linearGradient>
    </defs>
  
    
    <!-- Color -->
    <path d="M177.734 130.914C177.734 127.951 179.774 122.048 187.933 122.136C196.091 122.224 198.203 128.025 198.239 130.914C198.312 133.035 197.089 137.629 191.621 139.033C184.786 140.789 177.734 136.839 177.734 130.914Z" fill="url(#paint0_radial_702_67018)"/>

    <defs>
      <!-- Color -->
      <radialGradient id="paint0_radial_702_67018" cx="0" cy="0" r="1" gradientUnits="userSpaceOnUse" gradientTransform="translate(182.539 125.892) rotate(45.8803) scale(10.3998 11.5271)">
        <stop offset="0.203125" style="stop-color: #21F6EA;"/>
        <stop offset="0.890625" style="stop-color: #2183F6;"/>
      </radialGradient>
    </defs>
  
    
    <!-- Color -->
    <path d="M214.052 156.619L218.831 179.91C216.932 182.156 214.118 184.13 210.037 185.164C197.278 188.398 184.115 181.122 184.115 170.207C184.115 164.75 187.922 153.876 203.151 154.038C207.743 154.087 211.309 155.092 214.052 156.619Z" fill="url(#paint0_radial_702_67019)"/>

    <defs>
      <!-- Color -->
      <radialGradient id="paint0_radial_702_67019" cx="0" cy="0" r="1" gradientUnits="userSpaceOnUse" gradientTransform="translate(192.248 160.957) rotate(48.2936) scale(18.4215 20.2932)">
        <stop offset="0.203125" style="stop-color: #FF00D6;"/>
        <stop offset="0.890625" style="stop-color: #D700B4;"/>
      </radialGradient>
    </defs>
  
    
    <!-- Color -->
    <path d="M223.109 211.89C217.522 215.445 199.996 225.13 174.887 225.13C146.901 225.13 128.335 213.098 125.221 210.933C125.032 210.801 124.911 210.606 124.87 210.39C128.808 199.004 144.115 175.86 164.064 181.919C173.943 184.919 180.859 192.452 187.364 199.536C197.438 210.508 206.525 220.404 224.106 210.722C223.783 211.11 223.451 211.499 223.109 211.89Z" fill="url(#paint0_radial_702_67020)"/>

    <!-- Filter -->
    <mask id="mask0_702_67020" style="mask-type:alpha" maskUnits="userSpaceOnUse" x="124" y="180" width="101" height="46">
      <path d="M223.109 211.89C217.522 215.445 199.996 225.13 174.887 225.13C146.901 225.13 128.335 213.098 125.221 210.933C125.032 210.802 124.911 210.606 124.87 210.39C128.808 199.004 144.115 175.86 164.064 181.919C173.943 184.92 180.859 192.452 187.364 199.536C197.438 210.508 206.525 220.405 224.106 210.722C223.783 211.11 223.451 211.499 223.109 211.89Z" fill="url(#paint1_radial_702_67020)"/>
    </mask>
    <g mask="url(#mask0_702_67020)">
      <g filter="url(#filter0_f_702_67020)">
        <mask id="mask1_702_67020" style="mask-type:alpha" maskUnits="userSpaceOnUse" x="124" y="94" width="102" height="132">
          <path d="M148.862 95.0639C148.949 94.6401 149.322 94.3359 149.754 94.3359H200.246C200.678 94.3359 201.051 94.6401 201.138 95.0639L224.993 211.159C225.074 211.555 224.888 211.955 224.527 212.137C220.624 214.109 198.375 224.817 175 225.128C151.578 225.438 129.287 214.178 125.45 212.141C125.099 211.954 124.924 211.562 125.004 211.173L148.862 95.0639Z" fill="#577096" fill-opacity="0.75"/>
        </mask>
        <g mask="url(#mask1_702_67020)">
          <g filter="url(#filter1_f_702_67020)">
            <path d="M155.407 125.301C156.469 105.018 134.471 86.183 128.929 66.9987C133.388 65.1975 144.05 70.7899 152.675 76.125C163.456 82.7938 162.879 109.124 164.625 125.784C166.022 139.112 148.453 223.401 144.015 241.482L131.716 240.837C140.242 214.68 154.587 140.955 155.407 125.301Z" fill="url(#paint2_linear_702_67020)" fill-opacity="0.6"/>
          </g>
        </g>
      </g>
    </g>

    <defs>
      <!-- Color -->
      <radialGradient id="paint0_radial_702_67020" cx="0" cy="0" r="1" gradientUnits="userSpaceOnUse" gradientTransform="translate(148.118 190.514) rotate(28.5454) scale(39.8814 37.1287)">
        <stop offset="0.203125" style="stop-color: #FFB800;"/>
        <stop offset="0.890625" style="stop-color: #FF7800;"/>
      </radialGradient>

      <!-- Filter -->
      <filter id="filter0_f_702_67020" x="122.591" y="92.0573" width="104.818" height="135.355" filterUnits="userSpaceOnUse" color-interpolation-filters="sRGB">
        <feFlood flood-opacity="0" result="BackgroundImageFix"/>
        <feBlend mode="normal" in="SourceGraphic" in2="BackgroundImageFix" result="shape"/>
        <feGaussianBlur stdDeviation="1.13932" result="effect1_foregroundBlur_702_67020"/>
      </filter>
      <filter id="filter1_f_702_67020" x="128.017" y="65.7428" width="37.5979" height="176.65" filterUnits="userSpaceOnUse" color-interpolation-filters="sRGB">
        <feFlood flood-opacity="0" result="BackgroundImageFix"/>
        <feBlend mode="normal" in="SourceGraphic" in2="BackgroundImageFix" result="shape"/>
        <feGaussianBlur stdDeviation="0.455729" result="effect1_foregroundBlur_702_67020"/>
      </filter>
      <radialGradient id="paint1_radial_702_67020" cx="0" cy="0" r="1" gradientUnits="userSpaceOnUse" gradientTransform="translate(146.218 191.259) rotate(27.3324) scale(58.602 42.3474)">
        <stop offset="0.302083" stop-color="#FFB800"/>
        <stop offset="1" stop-color="#FF7800"/>
      </radialGradient>
      <linearGradient id="paint2_linear_702_67020" x1="160.729" y1="220.939" x2="201.954" y2="178" gradientUnits="userSpaceOnUse">
        <stop stop-color="#F2F2F2"/>
        <stop offset="0.0001" stop-color="#F2F2F2"/>
        <stop offset="0.0520833" stop-color="#F2F2F2" stop-opacity="0.948011"/>
        <stop offset="1" stop-color="#F2F2F2" stop-opacity="0"/>
      </linearGradient>
    </defs>
  
  
    </svg>
  