
    <svg width="350" height="350" viewBox="0 0 350 350" fill="none" xmlns="http://www.w3.org/2000/svg">
    
  <g clip-path="url(#clip0_28_290)">
  <rect x="0.0789795" y="0.0444336" width="350" height="350" fill="black" fill-opacity="0.89"/>
  <rect x="0.0789795" y="0.0444336" width="350" height="350" fill="url(#paint0_radial_28_290)" fill-opacity="0.2"/>
  <path d="M125.979 290.538L299.832 190.751L430.987 233.879L230.789 294.049L125.979 290.538Z" fill="url(#paint1_linear_28_290)"/>
  <g opacity="0.45" filter="url(#filter0_f_28_290)">
  <ellipse rx="194.596" ry="66.7643" transform="matrix(0.999998 0.00221055 0.00221055 -0.999998 176.078 304.637)" fill="url(#paint2_radial_28_290)"/>
  </g>
  <g opacity="0.7" filter="url(#filter1_f_28_290)">
  <ellipse cx="174.396" cy="137.609" rx="196.647" ry="242.448" transform="rotate(0.126655 174.396 137.609)" fill="url(#paint3_radial_28_290)"/>
  </g>
  </g>
  <defs>
  <filter id="filter0_f_28_290" x="-23.0754" y="233.314" width="398.306" height="142.646" filterUnits="userSpaceOnUse" color-interpolation-filters="sRGB">
  <feFlood flood-opacity="0" result="BackgroundImageFix"/>
  <feBlend mode="normal" in="SourceGraphic" in2="BackgroundImageFix" result="shape"/>
  <feGaussianBlur stdDeviation="2.27865" result="effect1_foregroundBlur_28_290"/>
  </filter>
  <filter id="filter1_f_28_290" x="-26.8086" y="-109.396" width="402.41" height="494.01" filterUnits="userSpaceOnUse" color-interpolation-filters="sRGB">
  <feFlood flood-opacity="0" result="BackgroundImageFix"/>
  <feBlend mode="normal" in="SourceGraphic" in2="BackgroundImageFix" result="shape"/>
  <feGaussianBlur stdDeviation="2.27865" result="effect1_foregroundBlur_28_290"/>
  </filter>
  <radialGradient id="paint0_radial_28_290" cx="0" cy="0" r="1" gradientUnits="userSpaceOnUse" gradientTransform="translate(156.622 401.542) rotate(-84.441) scale(239.93 241.682)">
  <stop/>
  <stop offset="1" stop-opacity="0"/>
  </radialGradient>
  <linearGradient id="paint1_linear_28_290" x1="194.836" y1="271.638" x2="316.537" y2="167.936" gradientUnits="userSpaceOnUse">
  <stop/>
  <stop offset="1" stop-color="#333333" stop-opacity="0"/>
  </linearGradient>
  <radialGradient id="paint2_radial_28_290" cx="0" cy="0" r="1" gradientUnits="userSpaceOnUse" gradientTransform="translate(194.596 76.624) rotate(99.1226) scale(43.9775 125.337)">
  <stop stop-color="#737373"/>
  <stop offset="1" stop-color="#9A9A9A" stop-opacity="0"/>
  </radialGradient>
  <radialGradient id="paint3_radial_28_290" cx="0" cy="0" r="1" gradientUnits="userSpaceOnUse" gradientTransform="translate(174.396 173.413) rotate(92.5586) scale(157.837 128.153)">
  <stop stop-color="#737373"/>
  <stop offset="1" stop-color="#9A9A9A" stop-opacity="0"/>
  </radialGradient>
  <clipPath id="clip0_28_290">
  <rect width="350" height="350" fill="white"/>
  </clipPath>
  </defs>
  
    
    
    
  <g filter="url(#filter0_d_680_67634)">
  <path d="M147.434 222.636C147.226 221.75 145.978 221.676 145.655 222.526C135.557 249.089 116.921 275.654 115.808 336.227C115.789 337.265 117.241 337.496 117.577 336.515C131.889 294.71 145.73 278.768 159.92 281.902C160.611 282.054 161.266 281.445 161.104 280.756L147.434 222.636Z" fill="url(#paint0_linear_680_67634)" shape-rendering="crispEdges"/>
  </g>
  <mask id="mask0_680_67634" style="mask-type:alpha" maskUnits="userSpaceOnUse" x="115" y="222" width="47" height="117">
  <path d="M147.434 223.676C147.226 222.791 145.978 222.717 145.655 223.567C135.557 250.13 116.921 276.695 115.808 337.268C115.789 338.305 117.241 338.537 117.577 337.555C131.889 295.751 145.73 279.809 159.92 282.942C160.611 283.095 161.266 282.486 161.104 281.797L147.434 223.676Z" fill="url(#paint1_linear_680_67634)"/>
  </mask>
  <g mask="url(#mask0_680_67634)">
  <g style="mix-blend-mode:overlay">
  <circle cx="124.434" cy="296.384" r="1.52224" transform="rotate(75 124.434 296.384)" fill="white"/>
  <circle cx="133.684" cy="305.15" r="1.52224" transform="rotate(75 133.684 305.15)" fill="white"/>
  <circle cx="135.962" cy="251.032" r="1.52224" transform="rotate(75 135.962 251.032)" fill="white"/>
  <circle cx="151.913" cy="277.806" r="1.52224" transform="rotate(75 151.913 277.806)" fill="white"/>
  <circle cx="114.315" cy="335.911" r="1.52224" transform="rotate(75 114.315 335.911)" fill="white"/>
  <circle cx="149.156" cy="296.759" r="1.52224" fill="white"/>
  <path d="M135.275 318.188L134.316 315.595L131.723 314.636L134.316 313.677L135.275 311.084L136.234 313.677L138.827 314.636L136.234 315.595L135.275 318.188Z" fill="#FFF7B0"/>
  <path d="M114.333 274.448L113.374 271.855L110.781 270.896L113.374 269.937L114.333 267.344L115.292 269.937L117.885 270.896L115.292 271.855L114.333 274.448Z" fill="#FFF7B0"/>
  <path d="M134.232 289.801L133.273 287.208L130.68 286.249L133.273 285.29L134.232 282.697L135.191 285.29L137.784 286.249L135.191 287.208L134.232 289.801Z" fill="#FFF7B0"/>
  <path d="M127.966 272.792L127.006 270.199L124.414 269.24L127.006 268.28L127.966 265.688L128.925 268.28L131.518 269.24L128.925 270.199L127.966 272.792Z" fill="#FFF7B0"/>
  <path opacity="0.25" d="M107.894 312.319L104.97 304.419L97.0701 301.496L104.97 298.572L107.894 290.672L110.817 298.572L118.717 301.496L110.817 304.419L107.894 312.319Z" fill="#FFF7B0"/>
  <path opacity="0.25" d="M145.491 274.152L142.568 266.252L134.668 263.329L142.568 260.405L145.491 252.505L148.415 260.405L156.315 263.329L148.415 266.252L145.491 274.152Z" fill="#FFF7B0"/>
  <path opacity="0.25" d="M122.705 332.908L119.781 325.008L111.881 322.084L119.781 319.161L122.705 311.261L125.628 319.161L133.528 322.084L125.628 325.008L122.705 332.908Z" fill="#FFF7B0"/>
  </g>
  </g>
  <g filter="url(#filter1_d_680_67634)">
  <path d="M202.565 222.636C202.774 221.75 204.022 221.676 204.345 222.526C214.442 249.089 233.079 275.654 234.192 336.227C234.211 337.265 232.758 337.496 232.422 336.515C218.11 294.71 204.27 278.768 190.08 281.902C189.389 282.054 188.734 281.445 188.896 280.756L202.565 222.636Z" fill="url(#paint2_linear_680_67634)" shape-rendering="crispEdges"/>
  </g>
  <mask id="mask1_680_67634" style="mask-type:alpha" maskUnits="userSpaceOnUse" x="188" y="220" width="46" height="116">
  <path d="M201.799 221.398C202.007 220.512 203.256 220.438 203.579 221.289C213.676 247.851 232.313 274.416 233.426 334.989C233.445 336.027 231.992 336.258 231.656 335.277C217.344 293.472 203.504 277.53 189.313 280.664C188.622 280.816 187.967 280.207 188.129 279.518L201.799 221.398Z" fill="url(#paint3_linear_680_67634)"/>
  </mask>
  <g mask="url(#mask1_680_67634)">
  <g style="mix-blend-mode:overlay">
  <circle cx="211.337" cy="280.218" r="1.43536" fill="white"/>
  <circle cx="214.022" cy="261.38" r="1.43536" transform="rotate(75 214.022 261.38)" fill="white"/>
  <circle cx="226.933" cy="293.198" r="1.43536" transform="rotate(75 226.933 293.198)" fill="white"/>
  <circle cx="222.635" cy="316.296" r="1.43536" transform="rotate(75 222.635 316.296)" fill="white"/>
  <circle cx="200.075" cy="274.398" r="1.43536" transform="rotate(75 200.075 274.398)" fill="white"/>
  <circle cx="233.421" cy="296.212" r="1.43536" transform="rotate(75 233.421 296.212)" fill="white"/>
  <path d="M223.832 278.012L222.309 273.895L218.192 272.372L222.309 270.848L223.832 266.732L225.355 270.848L229.472 272.372L225.355 273.895L223.832 278.012Z" fill="#FFF7B0"/>
  <path opacity="0.25" d="M217.824 311.239L215.067 303.79L207.618 301.033L215.067 298.277L217.824 290.827L220.58 298.277L228.029 301.033L220.58 303.79L217.824 311.239Z" fill="#FFF7B0"/>
  <path opacity="0.25" d="M233.769 338.172L231.013 330.723L223.563 327.966L231.013 325.21L233.769 317.761L236.526 325.21L243.975 327.966L236.526 330.723L233.769 338.172Z" fill="#FFF7B0"/>
  </g>
  </g>
  <g filter="url(#filter2_d_680_67634)">
  <path d="M125.849 212.153C125.101 211.745 124.172 212.483 124.421 213.298L137.223 255.13C137.228 255.145 137.227 255.142 137.232 255.158C137.415 255.656 153.266 298.585 175 298.585C196.734 298.585 212.585 255.656 212.768 255.158C212.774 255.142 212.772 255.145 212.777 255.13L225.579 213.298C225.828 212.483 224.899 211.745 224.151 212.153C218.252 215.37 200.596 223.639 175 223.639C149.404 223.639 131.748 215.37 125.849 212.153Z" fill="url(#paint4_linear_680_67634)" shape-rendering="crispEdges"/>
  </g>
  <mask id="mask2_680_67634" style="mask-type:alpha" maskUnits="userSpaceOnUse" x="125" y="212" width="102" height="87">
  <path d="M126.578 212.347C125.83 211.939 124.901 212.677 125.15 213.492L137.952 255.323C137.957 255.339 137.955 255.336 137.961 255.351C138.144 255.849 153.995 298.778 175.729 298.778C197.462 298.778 213.313 255.849 213.497 255.351C213.502 255.336 213.501 255.339 213.505 255.323L226.308 213.492C226.557 212.677 225.628 211.939 224.88 212.347C218.98 215.564 201.325 223.833 175.729 223.833C150.132 223.833 132.477 215.564 126.578 212.347Z" fill="url(#paint5_linear_680_67634)"/>
  </mask>
  <g mask="url(#mask2_680_67634)">
  <g style="mix-blend-mode:overlay">
  <circle cx="125.863" cy="212.691" r="1.40712" transform="rotate(75 125.863 212.691)" fill="white"/>
  <circle cx="144.879" cy="246.839" r="1.40712" transform="rotate(75 144.879 246.839)" fill="white"/>
  <circle cx="185.839" cy="226.939" r="1.40712" transform="rotate(75 185.839 226.939)" fill="white"/>
  <circle cx="167.732" cy="247.186" r="1.40712" fill="white"/>
  <path d="M146.988 266.995L146.101 264.598L143.705 263.711L146.101 262.825L146.988 260.428L147.875 262.825L150.271 263.711L147.875 264.598L146.988 266.995Z" fill="#FFF7B0"/>
  <path d="M135.543 226.562L134.656 224.166L132.26 223.279L134.656 222.392L135.543 219.996L136.43 222.392L138.826 223.279L136.43 224.166L135.543 226.562Z" fill="#FFF7B0"/>
  <path d="M153.936 240.754L153.05 238.358L150.653 237.471L153.05 236.584L153.936 234.188L154.823 236.584L157.22 237.471L154.823 238.358L153.936 240.754Z" fill="#FFF7B0"/>
  <path d="M157.776 297.391L156.89 294.995L154.493 294.108L156.89 293.221L157.776 290.824L158.663 293.221L161.06 294.108L158.663 294.995L157.776 297.391Z" fill="#FFF7B0"/>
  <path opacity="0.25" d="M129.59 261.57L126.888 254.267L119.585 251.565L126.888 248.862L129.59 241.56L132.292 248.862L139.595 251.565L132.292 254.267L129.59 261.57Z" fill="#FFF7B0"/>
  <path opacity="0.25" d="M164.344 226.289L161.641 218.986L154.338 216.284L161.641 213.582L164.344 206.279L167.046 213.582L174.349 216.284L167.046 218.986L164.344 226.289Z" fill="#FFF7B0"/>
  </g>
  <g style="mix-blend-mode:overlay">
  <circle cx="187.612" cy="220.739" r="1.40712" fill="white"/>
  <circle cx="209.788" cy="234.839" r="1.40712" transform="rotate(75 209.788 234.839)" fill="white"/>
  <path d="M219.809 254.995L218.922 252.598L216.526 251.711L218.922 250.825L219.809 248.428L220.696 250.825L223.092 251.711L220.696 252.598L219.809 254.995Z" fill="#FFF7B0"/>
  <path d="M200.451 214.562L199.564 212.166L197.168 211.279L199.564 210.392L200.451 207.996L201.338 210.392L203.734 211.279L201.338 212.166L200.451 214.562Z" fill="#FFF7B0"/>
  <path d="M218.844 228.754L217.958 226.358L215.561 225.471L217.958 224.584L218.844 222.188L219.731 224.584L222.128 225.471L219.731 226.358L218.844 228.754Z" fill="#FFF7B0"/>
  <path opacity="0.25" d="M194.498 249.57L191.796 242.267L184.493 239.565L191.796 236.862L194.498 229.56L197.2 236.862L204.503 239.565L197.2 242.267L194.498 249.57Z" fill="#FFF7B0"/>
  <path opacity="0.25" d="M229.252 214.289L226.549 206.986L219.246 204.284L226.549 201.581L229.252 194.279L231.954 201.581L239.257 204.284L231.954 206.986L229.252 214.289Z" fill="#FFF7B0"/>
  </g>
  <g style="mix-blend-mode:overlay">
  <circle cx="166.341" cy="281.285" r="1.40712" fill="white"/>
  <circle cx="163.12" cy="265.794" r="1.40712" transform="rotate(75 163.12 265.794)" fill="white"/>
  <circle cx="188.516" cy="295.385" r="1.40712" transform="rotate(75 188.516 295.385)" fill="white"/>
  <circle cx="211.369" cy="295.732" r="1.40712" fill="white"/>
  <path d="M179.179 275.108L178.292 272.711L175.896 271.825L178.292 270.938L179.179 268.541L180.066 270.938L182.462 271.825L180.066 272.711L179.179 275.108Z" fill="#FFF7B0"/>
  <path d="M197.573 289.3L196.686 286.903L194.289 286.017L196.686 285.13L197.573 282.733L198.459 285.13L200.856 286.017L198.459 286.903L197.573 289.3Z" fill="#FFF7B0"/>
  <path opacity="0.25" d="M207.98 274.834L205.278 267.532L197.975 264.829L205.278 262.127L207.98 254.824L210.683 262.127L217.985 264.829L210.683 267.532L207.98 274.834Z" fill="#FFF7B0"/>
  <path opacity="0.25" d="M143.772 296.107L141.07 288.804L133.767 286.102L141.07 283.4L143.772 276.097L146.474 283.4L153.777 286.102L146.474 288.804L143.772 296.107Z" fill="#FFF7B0"/>
  </g>
  </g>
  <g filter="url(#filter3_d_680_67634)">
  <path d="M175 224.319C175 223.37 176.244 223.066 176.665 223.916C189.647 250.183 192.092 280.871 192.252 339.858C192.255 340.921 190.945 341.085 190.745 340.041C187.345 322.297 188.497 304.065 175.217 288.113C175.079 287.948 175 287.737 175 287.522V224.319Z" fill="url(#paint6_linear_680_67634)" shape-rendering="crispEdges"/>
  </g>
  <mask id="mask3_680_67634" style="mask-type:alpha" maskUnits="userSpaceOnUse" x="174" y="224" width="19" height="119">
  <path d="M174.999 225.664C174.999 224.716 176.243 224.411 176.663 225.262C189.646 251.528 192.09 282.217 192.251 341.204C192.254 342.266 190.944 342.43 190.744 341.387C187.344 323.642 188.495 305.41 175.215 289.459C175.078 289.294 174.999 289.083 174.999 288.868V225.664Z" fill="url(#paint7_linear_680_67634)"/>
  </mask>
  <g mask="url(#mask3_680_67634)">
  <g style="mix-blend-mode:overlay">
  <circle cx="187.638" cy="293.534" r="1.46092" transform="rotate(75 187.638 293.534)" fill="white"/>
  <circle cx="180.66" cy="239.802" r="1.46092" transform="rotate(75 180.66 239.802)" fill="white"/>
  <path d="M189.933 274.9L189.013 272.412L186.524 271.491L189.013 270.571L189.933 268.082L190.854 270.571L193.342 271.491L190.854 272.412L189.933 274.9Z" fill="#FFF7B0"/>
  <path d="M182.826 285.834L181.905 283.346L179.417 282.426L181.905 281.505L182.826 279.017L183.746 281.505L186.234 282.426L183.746 283.346L182.826 285.834Z" fill="#FFF7B0"/>
  <path opacity="0.25" d="M171.762 308.828L168.957 301.246L161.375 298.44L168.957 295.635L171.762 288.053L174.568 295.635L182.15 298.44L174.568 301.246L171.762 308.828Z" fill="#FFF7B0"/>
  <path opacity="0.25" d="M184.338 266.442L181.532 258.86L173.95 256.055L181.532 253.249L184.338 245.667L187.143 253.249L194.725 256.055L187.143 258.86L184.338 266.442Z" fill="#FFF7B0"/>
  <path opacity="0.25" d="M179.417 310.726L176.611 303.144L169.029 300.339L176.611 297.533L179.417 289.951L182.222 297.533L189.804 300.339L182.222 303.144L179.417 310.726Z" fill="#FFF7B0"/>
  <path opacity="0.25" d="M195.818 340.795L193.012 333.213L185.43 330.408L193.012 327.602L195.818 320.02L198.624 327.602L206.205 330.408L198.624 333.213L195.818 340.795Z" fill="#FFF7B0"/>
  </g>
  </g>
  <path d="M155.658 62.9372C159.112 49.9596 161.898 33.3539 174.785 33.3539C187.671 33.3539 192.186 53.9143 194.341 63.2536C196.328 71.8581 200.673 91.7599 201.344 94.838C201.402 95.1025 201.335 95.3639 201.145 95.5574C199.762 96.9691 193.094 102.625 175 102.625C156.85 102.625 150.197 96.9348 148.842 95.5447C148.659 95.3573 148.593 95.1046 148.642 94.8476C149.177 92.0408 152.493 74.8253 155.658 62.9372Z" fill="url(#paint8_linear_680_67634)"/>
  <mask id="mask4_680_67634" style="mask-type:alpha" maskUnits="userSpaceOnUse" x="148" y="33" width="54" height="70">
  <path d="M155.658 62.9372C159.112 49.9596 161.898 33.3539 174.785 33.3539C187.671 33.3539 192.186 53.9143 194.341 63.2536C196.328 71.8581 200.673 91.7599 201.344 94.838C201.402 95.1025 201.335 95.3639 201.145 95.5574C199.762 96.9691 193.094 102.625 175 102.625C156.85 102.625 150.197 96.9348 148.842 95.5447C148.659 95.3573 148.593 95.1046 148.642 94.8476C149.177 92.0408 152.493 74.8253 155.658 62.9372Z" fill="url(#paint9_linear_680_67634)"/>
  </mask>
  <g mask="url(#mask4_680_67634)">
  <g style="mix-blend-mode:overlay">
  <circle cx="151.267" cy="56.2541" r="1.21779" fill="white"/>
  <circle cx="154.001" cy="38.9036" r="1.21779" transform="rotate(75 154.001 38.9036)" fill="white"/>
  <circle cx="170.459" cy="68.4567" r="1.21779" transform="rotate(75 170.459 68.4567)" fill="white"/>
  <circle cx="190.237" cy="68.757" r="1.21779" fill="white"/>
  <path d="M179.131 85.9004L178.364 83.8264L176.29 83.0589L178.364 82.2914L179.131 80.2174L179.899 82.2914L181.973 83.0589L179.899 83.8264L179.131 85.9004Z" fill="#FFF7B0"/>
  <path d="M162.378 50.9083L161.61 48.8343L159.536 48.0668L161.61 47.2994L162.378 45.2253L163.145 47.2994L165.219 48.0668L163.145 48.8343L162.378 50.9083Z" fill="#FFF7B0"/>
  <path d="M162.802 95.5474L162.034 93.4733L159.96 92.7059L162.034 91.9384L162.802 89.8643L163.569 91.9384L165.643 92.7059L163.569 93.4733L162.802 95.5474Z" fill="#FFF7B0"/>
  <path d="M191.513 92.3573L190.746 90.2832L188.672 89.5158L190.746 88.7483L191.513 86.6743L192.281 88.7483L194.355 89.5158L192.281 90.2832L191.513 92.3573Z" fill="#FFF7B0"/>
  <path d="M178.297 63.1906L177.529 61.1166L175.455 60.3491L177.529 59.5816L178.297 57.5076L179.064 59.5816L181.138 60.3491L179.064 61.1166L178.297 63.1906Z" fill="#FFF7B0"/>
  <path opacity="0.25" d="M157.226 81.2055L154.888 74.8853L148.568 72.5466L154.888 70.2079L157.226 63.8878L159.565 70.2079L165.885 72.5466L159.565 74.8853L157.226 81.2055Z" fill="#FFF7B0"/>
  <path opacity="0.25" d="M175 112.651L172.661 106.331L166.341 103.992L172.661 101.653L175 95.3331L177.339 101.653L183.659 103.992L177.339 106.331L175 112.651Z" fill="#FFF7B0"/>
  <path opacity="0.25" d="M144.01 99.8904L141.672 93.5702L135.352 91.2315L141.672 88.8929L144.01 82.5727L146.349 88.8929L152.669 91.2315L146.349 93.5702L144.01 99.8904Z" fill="#FFF7B0"/>
  <path opacity="0.25" d="M187.305 50.6716L184.966 44.3515L178.646 42.0128L184.966 39.6741L187.305 33.3539L189.644 39.6741L195.964 42.0128L189.644 44.3515L187.305 50.6716Z" fill="#FFF7B0"/>
  </g>
  </g>
  <defs>
  <filter id="filter0_d_680_67634" x="115.807" y="221.928" width="46.233" height="118.402" filterUnits="userSpaceOnUse" color-interpolation-filters="sRGB">
  <feFlood flood-opacity="0" result="BackgroundImageFix"/>
  <feColorMatrix in="SourceAlpha" type="matrix" values="0 0 0 0 0 0 0 0 0 0 0 0 0 0 0 0 0 0 127 0" result="hardAlpha"/>
  <feOffset dx="0.455729" dy="2.73438"/>
  <feGaussianBlur stdDeviation="0.227865"/>
  <feComposite in2="hardAlpha" operator="out"/>
  <feColorMatrix type="matrix" values="0 0 0 0 0 0 0 0 0 0 0 0 0 0 0 0 0 0 0.25 0"/>
  <feBlend mode="normal" in2="BackgroundImageFix" result="effect1_dropShadow_680_67634"/>
  <feBlend mode="normal" in="SourceGraphic" in2="effect1_dropShadow_680_67634" result="shape"/>
  </filter>
  <filter id="filter1_d_680_67634" x="188.871" y="221.928" width="46.233" height="118.402" filterUnits="userSpaceOnUse" color-interpolation-filters="sRGB">
  <feFlood flood-opacity="0" result="BackgroundImageFix"/>
  <feColorMatrix in="SourceAlpha" type="matrix" values="0 0 0 0 0 0 0 0 0 0 0 0 0 0 0 0 0 0 127 0" result="hardAlpha"/>
  <feOffset dx="0.455729" dy="2.73438"/>
  <feGaussianBlur stdDeviation="0.227865"/>
  <feComposite in2="hardAlpha" operator="out"/>
  <feColorMatrix type="matrix" values="0 0 0 0 0 0 0 0 0 0 0 0 0 0 0 0 0 0 0.25 0"/>
  <feBlend mode="normal" in2="BackgroundImageFix" result="effect1_dropShadow_680_67634"/>
  <feBlend mode="normal" in="SourceGraphic" in2="effect1_dropShadow_680_67634" result="shape"/>
  </filter>
  <filter id="filter2_d_680_67634" x="124.38" y="212.037" width="102.152" height="89.7373" filterUnits="userSpaceOnUse" color-interpolation-filters="sRGB">
  <feFlood flood-opacity="0" result="BackgroundImageFix"/>
  <feColorMatrix in="SourceAlpha" type="matrix" values="0 0 0 0 0 0 0 0 0 0 0 0 0 0 0 0 0 0 127 0" result="hardAlpha"/>
  <feOffset dx="0.455729" dy="2.73438"/>
  <feGaussianBlur stdDeviation="0.227865"/>
  <feComposite in2="hardAlpha" operator="out"/>
  <feColorMatrix type="matrix" values="0 0 0 0 0 0 0 0 0 0 0 0 0 0 0 0 0 0 0.25 0"/>
  <feBlend mode="normal" in2="BackgroundImageFix" result="effect1_dropShadow_680_67634"/>
  <feBlend mode="normal" in="SourceGraphic" in2="effect1_dropShadow_680_67634" result="shape"/>
  </filter>
  <filter id="filter3_d_680_67634" x="175" y="223.417" width="18.1629" height="120.518" filterUnits="userSpaceOnUse" color-interpolation-filters="sRGB">
  <feFlood flood-opacity="0" result="BackgroundImageFix"/>
  <feColorMatrix in="SourceAlpha" type="matrix" values="0 0 0 0 0 0 0 0 0 0 0 0 0 0 0 0 0 0 127 0" result="hardAlpha"/>
  <feOffset dx="0.455729" dy="2.73438"/>
  <feGaussianBlur stdDeviation="0.227865"/>
  <feComposite in2="hardAlpha" operator="out"/>
  <feColorMatrix type="matrix" values="0 0 0 0 0 0 0 0 0 0 0 0 0 0 0 0 0 0 0.25 0"/>
  <feBlend mode="normal" in2="BackgroundImageFix" result="effect1_dropShadow_680_67634"/>
  <feBlend mode="normal" in="SourceGraphic" in2="effect1_dropShadow_680_67634" result="shape"/>
  </filter>
  <linearGradient id="paint0_linear_680_67634" x1="122.5" y1="232.802" x2="187.95" y2="298.804" gradientUnits="userSpaceOnUse">
  <stop offset="0.00712166" stop-color="#6A9EE2"/>
  <stop offset="0.282888" stop-color="#4883C2" stop-opacity="0.98"/>
  <stop offset="0.635608" stop-color="#9CCBF4" stop-opacity="0.98"/>
  <stop offset="1" stop-color="#E8F3FC" stop-opacity="0.98"/>
  </linearGradient>
  <linearGradient id="paint1_linear_680_67634" x1="122.5" y1="233.843" x2="187.95" y2="299.845" gradientUnits="userSpaceOnUse">
  <stop offset="0.00712166" stop-color="#6A9EE2"/>
  <stop offset="0.282888" stop-color="#4883C2" stop-opacity="0.98"/>
  <stop offset="0.635608" stop-color="#9CCBF4" stop-opacity="0.98"/>
  <stop offset="1" stop-color="#E8F3FC" stop-opacity="0.98"/>
  </linearGradient>
  <linearGradient id="paint2_linear_680_67634" x1="227.499" y1="232.802" x2="162.049" y2="298.804" gradientUnits="userSpaceOnUse">
  <stop offset="0.00712166" stop-color="#6A9EE2"/>
  <stop offset="0.282888" stop-color="#4883C2" stop-opacity="0.98"/>
  <stop offset="0.635608" stop-color="#9CCBF4" stop-opacity="0.98"/>
  <stop offset="1" stop-color="#E8F3FC" stop-opacity="0.98"/>
  </linearGradient>
  <linearGradient id="paint3_linear_680_67634" x1="226.733" y1="231.564" x2="161.283" y2="297.566" gradientUnits="userSpaceOnUse">
  <stop offset="0.00712166" stop-color="#6A9EE2"/>
  <stop offset="0.282888" stop-color="#4883C2" stop-opacity="0.98"/>
  <stop offset="0.635608" stop-color="#9CCBF4" stop-opacity="0.98"/>
  <stop offset="1" stop-color="#E8F3FC" stop-opacity="0.98"/>
  </linearGradient>
  <linearGradient id="paint4_linear_680_67634" x1="138.828" y1="220.344" x2="165.825" y2="305.618" gradientUnits="userSpaceOnUse">
  <stop offset="0.00712166" stop-color="#6A9EE2"/>
  <stop offset="0.282888" stop-color="#4883C2" stop-opacity="0.98"/>
  <stop offset="0.635608" stop-color="#9CCBF4" stop-opacity="0.98"/>
  <stop offset="1" stop-color="#E8F3FC" stop-opacity="0.98"/>
  </linearGradient>
  <linearGradient id="paint5_linear_680_67634" x1="139.556" y1="220.538" x2="166.553" y2="305.811" gradientUnits="userSpaceOnUse">
  <stop offset="0.00712166" stop-color="#6A9EE2"/>
  <stop offset="0.282888" stop-color="#4883C2" stop-opacity="0.98"/>
  <stop offset="0.635608" stop-color="#9CCBF4" stop-opacity="0.98"/>
  <stop offset="1" stop-color="#E8F3FC" stop-opacity="0.98"/>
  </linearGradient>
  <linearGradient id="paint6_linear_680_67634" x1="189.714" y1="234.253" x2="145.871" y2="250.468" gradientUnits="userSpaceOnUse">
  <stop offset="0.00712166" stop-color="#6A9EE2"/>
  <stop offset="0.282888" stop-color="#4883C2" stop-opacity="0.98"/>
  <stop offset="0.635608" stop-color="#9CCBF4" stop-opacity="0.98"/>
  <stop offset="1" stop-color="#E8F3FC" stop-opacity="0.98"/>
  </linearGradient>
  <linearGradient id="paint7_linear_680_67634" x1="189.713" y1="235.598" x2="145.87" y2="251.813" gradientUnits="userSpaceOnUse">
  <stop offset="0.00712166" stop-color="#6A9EE2"/>
  <stop offset="0.282888" stop-color="#4883C2" stop-opacity="0.98"/>
  <stop offset="0.635608" stop-color="#9CCBF4" stop-opacity="0.98"/>
  <stop offset="1" stop-color="#E8F3FC" stop-opacity="0.98"/>
  </linearGradient>
  <linearGradient id="paint8_linear_680_67634" x1="156.367" y1="40.8184" x2="185.486" y2="100.794" gradientUnits="userSpaceOnUse">
  <stop offset="0.00712166" stop-color="#6A9EE2"/>
  <stop offset="0.282888" stop-color="#4883C2" stop-opacity="0.98"/>
  <stop offset="0.635608" stop-color="#9CCBF4" stop-opacity="0.98"/>
  <stop offset="1" stop-color="#E8F3FC" stop-opacity="0.98"/>
  </linearGradient>
  <linearGradient id="paint9_linear_680_67634" x1="156.367" y1="40.8184" x2="185.486" y2="100.794" gradientUnits="userSpaceOnUse">
  <stop offset="0.00712166" stop-color="#6A9EE2"/>
  <stop offset="0.282888" stop-color="#4883C2" stop-opacity="0.98"/>
  <stop offset="0.635608" stop-color="#9CCBF4" stop-opacity="0.98"/>
  <stop offset="1" stop-color="#E8F3FC" stop-opacity="0.98"/>
  </linearGradient>
  </defs>
    
    <path d="M148.647 94.3351L124.888 210.017C124.817 210.363 124.947 210.714 125.237 210.915C128.356 213.082 146.958 225.128 174.998 225.128C203.038 225.128 221.64 213.082 224.76 210.915C225.05 210.714 225.18 210.363 225.109 210.017L201.35 94.3351C201.316 94.4021 201.271 94.4644 201.216 94.5198C199.881 95.8685 193.226 101.484 174.998 101.484C156.771 101.484 150.116 95.8685 148.78 94.5198C148.725 94.4644 148.681 94.4021 148.647 94.3351Z" fill="#000000" fill-opacity="0.75"/>;
    
    <!-- Color -->
    <path d="M201.049 94.2304L205.113 114.031C203.523 113.76 201.871 113.447 200.18 113.127C186.038 110.452 169.252 107.276 165.003 123.73C163.148 130.914 165.836 135.212 168.45 139.394C170.975 143.43 173.431 147.358 171.668 153.669C169.523 161.35 157.859 166.325 148.479 162.994C138.57 159.476 139.266 144.903 144.961 137.849C150.656 130.794 151.48 120.031 150.656 112.87C150.259 109.409 148.549 106.935 146.313 105.251L148.649 93.8801C148.683 93.9471 148.727 94.0094 148.782 94.0649C150.117 95.4136 156.772 101.03 175 101.03C192.557 101.03 199.378 95.8189 201.049 94.2304Z" fill="url(#paint0_radial_702_67017)"/>

    <!-- Filter -->
    <mask id="mask0_702_67017" style="mask-type:alpha" maskUnits="userSpaceOnUse" x="140" y="93" width="66" height="72">
      <path d="M201.049 94.2304L205.113 114.031C203.523 113.76 201.871 113.447 200.18 113.127C186.038 110.452 169.252 107.276 165.003 123.73C163.148 130.914 165.836 135.212 168.45 139.394C170.975 143.43 173.431 147.358 171.668 153.669C169.523 161.35 157.859 166.325 148.479 162.994C138.57 159.476 139.266 144.903 144.961 137.849C150.656 130.794 151.48 120.031 150.656 112.87C150.259 109.409 148.549 106.935 146.313 105.251L148.649 93.8801C148.683 93.9471 148.727 94.0094 148.782 94.0649C150.117 95.4136 156.772 101.03 175 101.03C192.557 101.03 199.378 95.8189 201.049 94.2304Z" fill="url(#paint1_radial_702_67017)"/>
    </mask>
    <g mask="url(#mask0_702_67017)">
      <g filter="url(#filter0_f_702_67017)">
        <mask id="mask1_702_67017" style="mask-type:alpha" maskUnits="userSpaceOnUse" x="124" y="94" width="102" height="132">
          <path d="M148.862 95.0637C148.949 94.6399 149.322 94.3357 149.754 94.3357H200.246C200.678 94.3357 201.051 94.6399 201.138 95.0637L224.993 211.158C225.074 211.554 224.888 211.954 224.527 212.137C220.624 214.108 198.375 224.817 175 225.127C151.578 225.438 129.287 214.178 125.45 212.14C125.099 211.954 124.924 211.562 125.004 211.173L148.862 95.0637Z" fill="#577096" fill-opacity="0.75"/>
        </mask>
        <g mask="url(#mask1_702_67017)">
          <g filter="url(#filter1_f_702_67017)">
            <path d="M207.208 76.1064C210.866 110.268 145.941 132.571 113.021 139.453L113.021 76.1064L207.208 76.1064Z" fill="url(#paint2_linear_702_67017)" fill-opacity="0.5"/>
          </g>
          <g filter="url(#filter2_f_702_67017)">
            <path d="M155.407 125.301C156.469 105.018 134.471 86.1828 128.929 66.9985C133.388 65.1973 144.05 70.7896 152.675 76.1247C163.456 82.7936 162.879 109.124 164.625 125.784C166.022 139.112 148.453 223.401 144.015 241.481L131.716 240.837C140.242 214.68 154.587 140.955 155.407 125.301Z" fill="url(#paint3_linear_702_67017)" fill-opacity="0.6"/>
          </g>
        </g>
      </g>
    </g>

    <defs>
      <!-- Color -->
      <radialGradient id="paint0_radial_702_67017" cx="0" cy="0" r="1" gradientUnits="userSpaceOnUse" gradientTransform="translate(155.882 109.102) rotate(53.1177) scale(37.8177 40.2646)">
        <stop offset="0.203125" style="stop-color: #5000B6;"/>
        <stop offset="0.890625" style="stop-color: #7E5EFF;"/>
      </radialGradient>

      <!-- Filter -->
      <filter id="filter0_f_702_67017" x="122.591" y="92.057" width="104.818" height="135.355" filterUnits="userSpaceOnUse" color-interpolation-filters="sRGB">
        <feFlood flood-opacity="0" result="BackgroundImageFix"/>
        <feBlend mode="normal" in="SourceGraphic" in2="BackgroundImageFix" result="shape"/>
        <feGaussianBlur stdDeviation="1.13932" result="effect1_foregroundBlur_702_67017"/>
      </filter>
      <filter id="filter1_f_702_67017" x="112.109" y="75.195" width="96.1589" height="65.1694" filterUnits="userSpaceOnUse" color-interpolation-filters="sRGB">
        <feFlood flood-opacity="0" result="BackgroundImageFix"/>
        <feBlend mode="normal" in="SourceGraphic" in2="BackgroundImageFix" result="shape"/>
        <feGaussianBlur stdDeviation="0.455729" result="effect1_foregroundBlur_702_67017"/>
      </filter>
      <filter id="filter2_f_702_67017" x="128.017" y="65.7426" width="37.5979" height="176.65" filterUnits="userSpaceOnUse" color-interpolation-filters="sRGB">
        <feFlood flood-opacity="0" result="BackgroundImageFix"/>
        <feBlend mode="normal" in="SourceGraphic" in2="BackgroundImageFix" result="shape"/>
        <feGaussianBlur stdDeviation="0.455729" result="effect1_foregroundBlur_702_67017"/>
      </filter>
      <radialGradient id="paint1_radial_702_67017" cx="0" cy="0" r="1" gradientUnits="userSpaceOnUse" gradientTransform="translate(155.882 109.102) rotate(53.1177) scale(37.8177 40.2646)">
        <stop offset="0.203125" stop-color="#71FF30"/>
        <stop offset="0.890625" stop-color="#25BC46"/>
      </radialGradient>
      <linearGradient id="paint2_linear_702_67017" x1="145.215" y1="123.01" x2="155.829" y2="72.2914" gradientUnits="userSpaceOnUse">
        <stop stop-color="white" stop-opacity="0"/>
        <stop offset="0.471361" stop-color="white"/>
        <stop offset="1" stop-color="white"/>
      </linearGradient>
      <linearGradient id="paint3_linear_702_67017" x1="160.729" y1="220.938" x2="201.954" y2="178" gradientUnits="userSpaceOnUse">
        <stop stop-color="#F2F2F2"/>
        <stop offset="0.0001" stop-color="#F2F2F2"/>
        <stop offset="0.0520833" stop-color="#F2F2F2" stop-opacity="0.948011"/>
        <stop offset="1" stop-color="#F2F2F2" stop-opacity="0"/>
      </linearGradient>
    </defs>
  
    
    <!-- Color -->
    <path d="M177.734 130.914C177.734 127.951 179.774 122.048 187.933 122.136C196.091 122.224 198.203 128.025 198.239 130.914C198.312 133.035 197.089 137.629 191.621 139.033C184.786 140.789 177.734 136.839 177.734 130.914Z" fill="url(#paint0_radial_702_67018)"/>

    <defs>
      <!-- Color -->
      <radialGradient id="paint0_radial_702_67018" cx="0" cy="0" r="1" gradientUnits="userSpaceOnUse" gradientTransform="translate(182.539 125.892) rotate(45.8803) scale(10.3998 11.5271)">
        <stop offset="0.203125" style="stop-color: #321A93;"/>
        <stop offset="0.890625" style="stop-color: #3603FF;"/>
      </radialGradient>
    </defs>
  
    
    <!-- Color -->
    <path d="M214.052 156.619L218.831 179.91C216.932 182.156 214.118 184.13 210.037 185.164C197.278 188.398 184.115 181.122 184.115 170.207C184.115 164.75 187.922 153.876 203.151 154.038C207.743 154.087 211.309 155.092 214.052 156.619Z" fill="url(#paint0_radial_702_67019)"/>

    <defs>
      <!-- Color -->
      <radialGradient id="paint0_radial_702_67019" cx="0" cy="0" r="1" gradientUnits="userSpaceOnUse" gradientTransform="translate(192.248 160.957) rotate(48.2936) scale(18.4215 20.2932)">
        <stop offset="0.203125" style="stop-color: #71FF30;"/>
        <stop offset="0.890625" style="stop-color: #25BC46;"/>
      </radialGradient>
    </defs>
  
    
    <!-- Color -->
    <path d="M223.109 211.89C217.522 215.445 199.996 225.13 174.887 225.13C146.901 225.13 128.335 213.098 125.221 210.933C125.032 210.801 124.911 210.606 124.87 210.39C128.808 199.004 144.115 175.86 164.064 181.919C173.943 184.919 180.859 192.452 187.364 199.536C197.438 210.508 206.525 220.404 224.106 210.722C223.783 211.11 223.451 211.499 223.109 211.89Z" fill="url(#paint0_radial_702_67020)"/>

    <!-- Filter -->
    <mask id="mask0_702_67020" style="mask-type:alpha" maskUnits="userSpaceOnUse" x="124" y="180" width="101" height="46">
      <path d="M223.109 211.89C217.522 215.445 199.996 225.13 174.887 225.13C146.901 225.13 128.335 213.098 125.221 210.933C125.032 210.802 124.911 210.606 124.87 210.39C128.808 199.004 144.115 175.86 164.064 181.919C173.943 184.92 180.859 192.452 187.364 199.536C197.438 210.508 206.525 220.405 224.106 210.722C223.783 211.11 223.451 211.499 223.109 211.89Z" fill="url(#paint1_radial_702_67020)"/>
    </mask>
    <g mask="url(#mask0_702_67020)">
      <g filter="url(#filter0_f_702_67020)">
        <mask id="mask1_702_67020" style="mask-type:alpha" maskUnits="userSpaceOnUse" x="124" y="94" width="102" height="132">
          <path d="M148.862 95.0639C148.949 94.6401 149.322 94.3359 149.754 94.3359H200.246C200.678 94.3359 201.051 94.6401 201.138 95.0639L224.993 211.159C225.074 211.555 224.888 211.955 224.527 212.137C220.624 214.109 198.375 224.817 175 225.128C151.578 225.438 129.287 214.178 125.45 212.141C125.099 211.954 124.924 211.562 125.004 211.173L148.862 95.0639Z" fill="#577096" fill-opacity="0.75"/>
        </mask>
        <g mask="url(#mask1_702_67020)">
          <g filter="url(#filter1_f_702_67020)">
            <path d="M155.407 125.301C156.469 105.018 134.471 86.183 128.929 66.9987C133.388 65.1975 144.05 70.7899 152.675 76.125C163.456 82.7938 162.879 109.124 164.625 125.784C166.022 139.112 148.453 223.401 144.015 241.482L131.716 240.837C140.242 214.68 154.587 140.955 155.407 125.301Z" fill="url(#paint2_linear_702_67020)" fill-opacity="0.6"/>
          </g>
        </g>
      </g>
    </g>

    <defs>
      <!-- Color -->
      <radialGradient id="paint0_radial_702_67020" cx="0" cy="0" r="1" gradientUnits="userSpaceOnUse" gradientTransform="translate(148.118 190.514) rotate(28.5454) scale(39.8814 37.1287)">
        <stop offset="0.203125" style="stop-color: #FF00D6;"/>
        <stop offset="0.890625" style="stop-color: #D700B4;"/>
      </radialGradient>

      <!-- Filter -->
      <filter id="filter0_f_702_67020" x="122.591" y="92.0573" width="104.818" height="135.355" filterUnits="userSpaceOnUse" color-interpolation-filters="sRGB">
        <feFlood flood-opacity="0" result="BackgroundImageFix"/>
        <feBlend mode="normal" in="SourceGraphic" in2="BackgroundImageFix" result="shape"/>
        <feGaussianBlur stdDeviation="1.13932" result="effect1_foregroundBlur_702_67020"/>
      </filter>
      <filter id="filter1_f_702_67020" x="128.017" y="65.7428" width="37.5979" height="176.65" filterUnits="userSpaceOnUse" color-interpolation-filters="sRGB">
        <feFlood flood-opacity="0" result="BackgroundImageFix"/>
        <feBlend mode="normal" in="SourceGraphic" in2="BackgroundImageFix" result="shape"/>
        <feGaussianBlur stdDeviation="0.455729" result="effect1_foregroundBlur_702_67020"/>
      </filter>
      <radialGradient id="paint1_radial_702_67020" cx="0" cy="0" r="1" gradientUnits="userSpaceOnUse" gradientTransform="translate(146.218 191.259) rotate(27.3324) scale(58.602 42.3474)">
        <stop offset="0.302083" stop-color="#FFB800"/>
        <stop offset="1" stop-color="#FF7800"/>
      </radialGradient>
      <linearGradient id="paint2_linear_702_67020" x1="160.729" y1="220.939" x2="201.954" y2="178" gradientUnits="userSpaceOnUse">
        <stop stop-color="#F2F2F2"/>
        <stop offset="0.0001" stop-color="#F2F2F2"/>
        <stop offset="0.0520833" stop-color="#F2F2F2" stop-opacity="0.948011"/>
        <stop offset="1" stop-color="#F2F2F2" stop-opacity="0"/>
      </linearGradient>
    </defs>
  
  
    </svg>
  