
    <svg width="350" height="350" viewBox="0 0 350 350" fill="none" xmlns="http://www.w3.org/2000/svg">
    
  <g clip-path="url(#clip0_28_290)">
  <rect x="0.0789795" y="0.0444336" width="350" height="350" fill="black" fill-opacity="0.89"/>
  <rect x="0.0789795" y="0.0444336" width="350" height="350" fill="url(#paint0_radial_28_290)" fill-opacity="0.2"/>
  <path d="M125.979 290.538L299.832 190.751L430.987 233.879L230.789 294.049L125.979 290.538Z" fill="url(#paint1_linear_28_290)"/>
  <g opacity="0.45" filter="url(#filter0_f_28_290)">
  <ellipse rx="194.596" ry="66.7643" transform="matrix(0.999998 0.00221055 0.00221055 -0.999998 176.078 304.637)" fill="url(#paint2_radial_28_290)"/>
  </g>
  <g opacity="0.7" filter="url(#filter1_f_28_290)">
  <ellipse cx="174.396" cy="137.609" rx="196.647" ry="242.448" transform="rotate(0.126655 174.396 137.609)" fill="url(#paint3_radial_28_290)"/>
  </g>
  </g>
  <defs>
  <filter id="filter0_f_28_290" x="-23.0754" y="233.314" width="398.306" height="142.646" filterUnits="userSpaceOnUse" color-interpolation-filters="sRGB">
  <feFlood flood-opacity="0" result="BackgroundImageFix"/>
  <feBlend mode="normal" in="SourceGraphic" in2="BackgroundImageFix" result="shape"/>
  <feGaussianBlur stdDeviation="2.27865" result="effect1_foregroundBlur_28_290"/>
  </filter>
  <filter id="filter1_f_28_290" x="-26.8086" y="-109.396" width="402.41" height="494.01" filterUnits="userSpaceOnUse" color-interpolation-filters="sRGB">
  <feFlood flood-opacity="0" result="BackgroundImageFix"/>
  <feBlend mode="normal" in="SourceGraphic" in2="BackgroundImageFix" result="shape"/>
  <feGaussianBlur stdDeviation="2.27865" result="effect1_foregroundBlur_28_290"/>
  </filter>
  <radialGradient id="paint0_radial_28_290" cx="0" cy="0" r="1" gradientUnits="userSpaceOnUse" gradientTransform="translate(156.622 401.542) rotate(-84.441) scale(239.93 241.682)">
  <stop/>
  <stop offset="1" stop-opacity="0"/>
  </radialGradient>
  <linearGradient id="paint1_linear_28_290" x1="194.836" y1="271.638" x2="316.537" y2="167.936" gradientUnits="userSpaceOnUse">
  <stop/>
  <stop offset="1" stop-color="#333333" stop-opacity="0"/>
  </linearGradient>
  <radialGradient id="paint2_radial_28_290" cx="0" cy="0" r="1" gradientUnits="userSpaceOnUse" gradientTransform="translate(194.596 76.624) rotate(99.1226) scale(43.9775 125.337)">
  <stop stop-color="#737373"/>
  <stop offset="1" stop-color="#9A9A9A" stop-opacity="0"/>
  </radialGradient>
  <radialGradient id="paint3_radial_28_290" cx="0" cy="0" r="1" gradientUnits="userSpaceOnUse" gradientTransform="translate(174.396 173.413) rotate(92.5586) scale(157.837 128.153)">
  <stop stop-color="#737373"/>
  <stop offset="1" stop-color="#9A9A9A" stop-opacity="0"/>
  </radialGradient>
  <clipPath id="clip0_28_290">
  <rect width="350" height="350" fill="white"/>
  </clipPath>
  </defs>
  
    
  <g style="mix-blend-mode:overlay" clip-path="url(#clip0_559_45925)">
  <circle cx="267.057" cy="334.049" r="28.7109" fill="white" fill-opacity="0.25"/>
  <circle cx="114.388" cy="66.5365" r="22.7865" fill="white" fill-opacity="0.25"/>
  <circle cx="279.362" cy="110.287" r="16.4062" fill="white" fill-opacity="0.25"/>
  <circle cx="8.20312" cy="234.701" r="16.4062" fill="white" fill-opacity="0.25"/>
  <circle cx="335.872" cy="14.5833" r="40.1042" fill="white" fill-opacity="0.25"/>
  <path d="M65.9326 288.461C29.3383 277.341 1.34401 320.346 -5.46875 340.81C53.705 430.699 146.791 390.296 179.557 350.911C127.002 379.87 111.675 302.361 65.9326 288.461Z" fill="white" fill-opacity="0.25"/>
  <path d="M296.664 236.375C285.544 199.781 328.549 171.787 349.013 164.974C438.902 224.148 398.499 317.234 359.115 350C388.074 297.444 310.565 282.118 296.664 236.375Z" fill="white" fill-opacity="0.25"/>
  <path d="M-26.4321 3.86974C-13.3545 0.661562 15.8469 6.61965 18.8009 32.2851C21.0691 51.9925 19.2624 85.9076 3.10779 101.032C-15.8162 118.749 -14.5043 160.554 12.8006 170.237C38.648 179.403 69.97 166.112 74.1882 144.572C80.545 112.109 53.2633 106.516 57.1104 74.9081C67.4481 -10.0259 219.591 11.8327 236.979 -4.55717C236.979 -87.4437 3.10779 -222.311 -26.4321 3.86974Z" fill="white" fill-opacity="0.25"/>
  </g>
  <defs>
  <clipPath id="clip0_559_45925">
  <rect width="350" height="350" fill="white"/>
  </clipPath>
  </defs>

    
  <g filter="url(#filter0_d_559_36465)">
  <path d="M257.528 150.902C249.652 153.534 240.882 153.402 234.142 152.261C243.181 142.11 255.176 129.932 264.686 123.065C267.288 121.186 269.629 119.761 271.616 118.88C273.67 117.97 275.032 117.785 275.821 117.941C276.161 118.008 276.386 118.136 276.566 118.315C276.76 118.507 277.002 118.862 277.198 119.519C277.608 120.895 277.704 123.22 277.122 126.85C274.87 140.908 266.781 147.809 257.528 150.902Z" stroke="white" stroke-width="4.55729" shape-rendering="crispEdges"/>
  </g>
  <g filter="url(#filter1_d_559_36465)">
  <path d="M250.354 171.675C242.923 167.967 236.816 161.672 232.856 156.099C246.426 155.314 263.519 155.183 275.099 157.053C278.267 157.564 280.93 158.211 282.958 158.994C285.054 159.803 286.148 160.635 286.596 161.303C286.789 161.591 286.857 161.84 286.858 162.094C286.859 162.368 286.78 162.789 286.454 163.393C285.771 164.655 284.194 166.367 281.216 168.522C269.683 176.87 259.083 176.031 250.354 171.675Z" stroke="white" stroke-width="4.55729" shape-rendering="crispEdges"/>
  </g>
  <g filter="url(#filter2_d_559_36465)">
  <path d="M92.41 150.902C100.286 153.534 109.056 153.402 115.796 152.261C106.757 142.11 94.7621 129.932 85.2516 123.065C82.6502 121.186 80.3093 119.761 78.3217 118.88C76.2681 117.97 74.9063 117.785 74.1174 117.941C73.7768 118.008 73.5521 118.136 73.3723 118.315C73.178 118.507 72.9358 118.862 72.7399 119.519C72.33 120.895 72.2345 123.22 72.816 126.85C75.0683 140.908 83.1571 147.809 92.41 150.902Z" stroke="white" stroke-width="4.55729" shape-rendering="crispEdges"/>
  </g>
  <g filter="url(#filter3_d_559_36465)">
  <path d="M99.5842 171.675C107.015 167.967 113.122 161.672 117.082 156.099C103.512 155.314 86.4192 155.183 74.8386 157.053C71.6709 157.564 69.0076 158.211 66.9795 158.994C64.8841 159.803 63.79 160.635 63.3425 161.303C63.1493 161.591 63.0807 161.84 63.0798 162.094C63.0788 162.368 63.1579 162.789 63.4843 163.393C64.1674 164.655 65.7438 166.367 68.7217 168.522C80.2548 176.87 90.8547 176.031 99.5842 171.675Z" stroke="white" stroke-width="4.55729" shape-rendering="crispEdges"/>
  </g>
  <defs>
  <filter id="filter0_d_559_36465" x="226.526" y="112.289" width="56.6081" height="46.3486" filterUnits="userSpaceOnUse" color-interpolation-filters="sRGB">
  <feFlood flood-opacity="0" result="BackgroundImageFix"/>
  <feColorMatrix in="SourceAlpha" type="matrix" values="0 0 0 0 0 0 0 0 0 0 0 0 0 0 0 0 0 0 127 0" result="hardAlpha"/>
  <feOffset/>
  <feGaussianBlur stdDeviation="1.66205"/>
  <feComposite in2="hardAlpha" operator="out"/>
  <feColorMatrix type="matrix" values="0 0 0 0 1 0 0 0 0 1 0 0 0 0 1 0 0 0 1 0"/>
  <feBlend mode="normal" in2="BackgroundImageFix" result="effect1_dropShadow_559_36465"/>
  <feBlend mode="normal" in="SourceGraphic" in2="effect1_dropShadow_559_36465" result="shape"/>
  </filter>
  <filter id="filter1_d_559_36465" x="225.487" y="149.953" width="66.9734" height="30.552" filterUnits="userSpaceOnUse" color-interpolation-filters="sRGB">
  <feFlood flood-opacity="0" result="BackgroundImageFix"/>
  <feColorMatrix in="SourceAlpha" type="matrix" values="0 0 0 0 0 0 0 0 0 0 0 0 0 0 0 0 0 0 127 0" result="hardAlpha"/>
  <feOffset/>
  <feGaussianBlur stdDeviation="1.66205"/>
  <feComposite in2="hardAlpha" operator="out"/>
  <feColorMatrix type="matrix" values="0 0 0 0 1 0 0 0 0 1 0 0 0 0 1 0 0 0 1 0"/>
  <feBlend mode="normal" in2="BackgroundImageFix" result="effect1_dropShadow_559_36465"/>
  <feBlend mode="normal" in="SourceGraphic" in2="effect1_dropShadow_559_36465" result="shape"/>
  </filter>
  <filter id="filter2_d_559_36465" x="66.8034" y="112.289" width="56.6081" height="46.3486" filterUnits="userSpaceOnUse" color-interpolation-filters="sRGB">
  <feFlood flood-opacity="0" result="BackgroundImageFix"/>
  <feColorMatrix in="SourceAlpha" type="matrix" values="0 0 0 0 0 0 0 0 0 0 0 0 0 0 0 0 0 0 127 0" result="hardAlpha"/>
  <feOffset/>
  <feGaussianBlur stdDeviation="1.66205"/>
  <feComposite in2="hardAlpha" operator="out"/>
  <feColorMatrix type="matrix" values="0 0 0 0 1 0 0 0 0 1 0 0 0 0 1 0 0 0 1 0"/>
  <feBlend mode="normal" in2="BackgroundImageFix" result="effect1_dropShadow_559_36465"/>
  <feBlend mode="normal" in="SourceGraphic" in2="effect1_dropShadow_559_36465" result="shape"/>
  </filter>
  <filter id="filter3_d_559_36465" x="57.4772" y="149.953" width="66.9734" height="30.552" filterUnits="userSpaceOnUse" color-interpolation-filters="sRGB">
  <feFlood flood-opacity="0" result="BackgroundImageFix"/>
  <feColorMatrix in="SourceAlpha" type="matrix" values="0 0 0 0 0 0 0 0 0 0 0 0 0 0 0 0 0 0 127 0" result="hardAlpha"/>
  <feOffset/>
  <feGaussianBlur stdDeviation="1.66205"/>
  <feComposite in2="hardAlpha" operator="out"/>
  <feColorMatrix type="matrix" values="0 0 0 0 1 0 0 0 0 1 0 0 0 0 1 0 0 0 1 0"/>
  <feBlend mode="normal" in2="BackgroundImageFix" result="effect1_dropShadow_559_36465"/>
  <feBlend mode="normal" in="SourceGraphic" in2="effect1_dropShadow_559_36465" result="shape"/>
  </filter>
  </defs>
    
    
  <path d="M230.077 316.485L204.589 287.054C204.416 286.854 204.164 286.739 203.9 286.739H174.804H145.887C145.622 286.739 145.369 286.855 145.196 287.057L119.919 316.485C119.622 316.83 119.62 317.331 119.941 317.654C123.163 320.91 140.897 337.097 175 337.097C209.097 337.097 226.83 320.917 230.058 317.656C230.379 317.332 230.376 316.83 230.077 316.485Z" fill="url(#paint0_linear_680_65515)"/>
  <mask id="mask0_680_65515" style="mask-type:alpha" maskUnits="userSpaceOnUse" x="119" y="286" width="111" height="51">
  <path d="M229.621 316.029L204.133 286.598C203.959 286.398 203.708 286.284 203.444 286.284H174.347H145.431C145.165 286.284 144.913 286.4 144.74 286.601L119.462 316.029C119.166 316.375 119.164 316.875 119.484 317.198C122.706 320.454 140.44 336.642 174.544 336.642C208.64 336.642 226.374 320.462 229.602 317.2C229.923 316.876 229.92 316.374 229.621 316.029Z" fill="url(#paint1_linear_680_65515)"/>
  </mask>
  <g mask="url(#mask0_680_65515)">
  <g style="mix-blend-mode:overlay">
  <circle cx="169.837" cy="326.159" r="1.22977" fill="white"/>
  <circle cx="137.679" cy="307.196" r="1.22977" fill="white"/>
  <circle cx="154.254" cy="317.528" r="1.22977" fill="white"/>
  <circle cx="188.535" cy="323.516" r="1.22977" fill="white"/>
  <path d="M125.467 315.559L124.692 313.464L122.598 312.689L124.692 311.914L125.467 309.82L126.242 311.914L128.337 312.689L126.242 313.464L125.467 315.559Z" fill="#FFF7B0"/>
  <path d="M139.133 322.101L138.358 320.006L136.263 319.231L138.358 318.456L139.133 316.362L139.908 318.456L142.002 319.231L139.908 320.006L139.133 322.101Z" fill="#FFF7B0"/>
  <path d="M184.705 338.507L183.93 336.412L181.835 335.637L183.93 334.862L184.705 332.768L185.48 334.862L187.574 335.637L185.48 336.412L184.705 338.507Z" fill="#FFF7B0"/>
  <path d="M222.066 315.081L220.38 310.524L215.823 308.837L220.38 307.151L222.066 302.594L223.753 307.151L228.31 308.837L223.753 310.524L222.066 315.081Z" fill="#FFF7B0"/>
  <path opacity="0.25" d="M143.099 292.664L139.53 283.017L129.883 279.448L139.53 275.878L143.099 266.231L146.669 275.878L156.315 279.448L146.669 283.017L143.099 292.664Z" fill="#FFF7B0"/>
  <path opacity="0.25" d="M157.683 354.187L154.114 344.374L144.467 340.743L154.114 337.112L157.683 327.299L161.253 337.112L170.9 340.743L161.253 344.374L157.683 354.187Z" fill="#FFF7B0"/>
  <path opacity="0.25" d="M207.584 335.502L204.446 327.02L195.963 323.881L204.446 320.742L207.584 312.26L210.723 320.742L219.206 323.881L210.723 327.02L207.584 335.502Z" fill="#FFF7B0"/>
  </g>
  </g>

  <path d="M155.658 64.3044C159.113 51.3268 161.899 34.7211 174.785 34.7211C187.671 34.7211 192.186 55.2815 194.342 64.6208C196.328 73.2253 200.673 93.1271 201.344 96.2052C201.402 96.4697 201.335 96.7311 201.145 96.9245C199.763 98.3363 193.094 103.992 175 103.992C156.851 103.992 150.197 98.302 148.842 96.9118C148.66 96.7245 148.593 96.4718 148.642 96.2148C149.177 93.408 152.494 76.1925 155.658 64.3044Z" fill="url(#paint2_linear_680_65515)"/>
  <path d="M124.486 212.334C124.643 211.724 125.349 211.438 125.891 211.76C130.804 214.68 151.572 226.127 175.229 226.127C198.848 226.127 219.241 214.717 224.108 211.774C224.65 211.446 225.361 211.733 225.52 212.346C229.593 228.14 244.818 265.011 232.898 283.941C217.483 308.422 200.522 316.817 175.001 316.817C149.48 316.817 132.519 308.422 117.104 283.941C105.181 265.006 120.417 228.121 124.486 212.334Z" fill="url(#paint3_linear_680_65515)"/>
  <mask id="mask1_680_65515" style="mask-type:alpha" maskUnits="userSpaceOnUse" x="112" y="211" width="126" height="107">
  <path d="M124.726 211.543C124.726 211.543 148.046 226.582 175.162 226.582C202.278 226.582 225.142 211.543 225.142 211.543C228.665 226.547 245.079 264.944 232.831 284.396C217.416 308.876 200.455 317.272 174.934 317.272C149.413 317.272 132.451 308.876 117.037 284.396C104.788 264.944 121.203 226.547 124.726 211.543Z" fill="url(#paint4_radial_680_65515)"/>
  </mask>
  <g mask="url(#mask1_680_65515)">
  <path d="M203.644 320.919C210.522 302.924 220.151 257.678 203.644 220.659" stroke="#773B06" stroke-opacity="0.1" stroke-width="4.55729"/>
  <path d="M181.314 320.919C186.782 303.601 192.251 258.028 181.314 220.659" stroke="#773B06" stroke-opacity="0.1" stroke-width="4.55729"/>
  <path d="M165.362 320.919C159.893 303.601 154.425 258.028 165.362 220.659" stroke="#773B06" stroke-opacity="0.1" stroke-width="4.55729"/>
  <path d="M143.032 320.919C136.154 302.924 126.525 257.678 143.032 220.659" stroke="#773B06" stroke-opacity="0.1" stroke-width="4.55729"/>
  </g>
  <path d="M154.675 247.319C155.201 246.407 156.517 246.407 157.043 247.319L166.91 264.409C167.436 265.32 166.778 266.459 165.726 266.459H145.992C144.94 266.459 144.282 265.32 144.808 264.409L154.675 247.319Z" fill="black"/>
  <path d="M194.412 247.319C193.886 246.407 192.571 246.407 192.044 247.319L182.178 264.409C181.651 265.32 182.309 266.459 183.362 266.459H203.095C204.148 266.459 204.806 265.32 204.279 264.409L194.412 247.319Z" fill="black"/>
  <path fill-rule="evenodd" clip-rule="evenodd" d="M163.58 277.717H185.252V284.06H192.652V277.717H209.041C210.855 277.717 211.842 279.653 210.622 280.995C205.795 286.309 194.305 296.217 175.737 296.217C175.203 296.217 174.674 296.209 174.151 296.193V289.874H166.751V295.414C153.296 292.961 144.315 285.466 140.041 281.056C138.751 279.725 139.726 277.717 141.58 277.717H156.18V284.06H163.58V277.717Z" fill="black"/>
  <path d="M194.445 64.1351C192.245 54.5887 187.667 34.7211 175 34.7211L175.215 337.097C213.132 337.097 230.814 317.087 230.814 317.087L218.057 302.357C223.366 297.623 228.314 291.561 233.112 283.941C242.928 268.352 234.335 240.595 228.721 222.463C227.33 217.97 226.122 214.068 225.423 211.088C225.423 211.088 225.308 211.163 225.086 211.303L201.465 96.6008C201.534 96.3694 201.54 96.1174 201.486 95.8663C200.617 91.8881 196.481 72.955 194.557 64.6208L194.445 64.1351Z" fill="#161A70" fill-opacity="0.1"/>
  <mask id="mask2_680_65515" style="mask-type:alpha" maskUnits="userSpaceOnUse" x="112" y="211" width="126" height="106">
  <path d="M124.419 212.334C124.577 211.724 125.283 211.438 125.825 211.76C130.738 214.68 151.506 226.127 175.163 226.127C198.782 226.127 219.175 214.717 224.042 211.774C224.584 211.446 225.295 211.733 225.453 212.346C229.527 228.14 244.752 265.011 232.832 283.941C217.417 308.422 200.456 316.817 174.935 316.817C149.414 316.817 132.452 308.422 117.038 283.941C105.115 265.006 120.351 228.121 124.419 212.334Z" fill="url(#paint5_linear_680_65515)"/>
  </mask>
  <g mask="url(#mask2_680_65515)">
  <g style="mix-blend-mode:overlay">
  <circle cx="134.289" cy="302.917" r="1.22977" fill="white"/>
  <circle cx="124.918" cy="247.496" r="1.22977" fill="white"/>
  <circle cx="146.051" cy="262.385" r="1.22977" fill="white"/>
  <circle cx="148.429" cy="241.029" r="1.22977" fill="white"/>
  <circle cx="157.089" cy="309.388" r="1.22977" fill="white"/>
  <circle cx="202.725" cy="294.564" r="1.22977" fill="white"/>
  <path d="M127.876 290.93L127.433 289.733L126.236 289.29L127.433 288.848L127.876 287.651L128.319 288.848L129.516 289.29L128.319 289.733L127.876 290.93Z" fill="#FFF7B0"/>
  <path d="M114.204 261.308L113.761 260.111L112.564 259.668L113.761 259.225L114.204 258.028L114.647 259.225L115.844 259.668L114.647 260.111L114.204 261.308Z" fill="#FFF7B0"/>
  <path d="M214.009 229.407L213.566 228.21L212.369 227.767L213.566 227.324L214.009 226.127L214.451 227.324L215.648 227.767L214.451 228.21L214.009 229.407Z" fill="#FFF7B0"/>
  <path d="M222.211 254.472L221.768 253.275L220.571 252.832L221.768 252.389L222.211 251.192L222.654 252.389L223.851 252.832L222.654 253.275L222.211 254.472Z" fill="#FFF7B0"/>
  <path d="M176.507 264.973L175.732 262.878L173.638 262.103L175.732 261.328L176.507 259.234L177.282 261.328L179.377 262.103L177.282 262.878L176.507 264.973Z" fill="#FFF7B0"/>
  <path d="M162.83 239.614L162.055 237.519L159.96 236.744L162.055 235.969L162.83 233.875L163.605 235.969L165.699 236.744L163.605 237.519L162.83 239.614Z" fill="#FFF7B0"/>
  <path d="M149.158 315.72L148.383 313.626L146.289 312.851L148.383 312.076L149.159 309.981L149.934 312.076L152.028 312.851L149.934 313.626L149.158 315.72Z" fill="#FFF7B0"/>
  <path d="M186.072 307.517L185.297 305.423L183.203 304.648L185.297 303.873L186.072 301.778L186.847 303.873L188.942 304.648L186.847 305.423L186.072 307.517Z" fill="#FFF7B0"/>
  <path d="M193.81 246.266L192.124 241.709L187.566 240.022L192.124 238.336L193.81 233.778L195.496 238.336L200.054 240.022L195.496 241.709L193.81 246.266Z" fill="#FFF7B0"/>
  <path opacity="0.25" d="M134.895 237.521L131.325 227.874L121.679 224.304L131.325 220.735L134.895 211.088L138.464 220.735L148.111 224.304L138.464 227.874L134.895 237.521Z" fill="#FFF7B0"/>
  <path opacity="0.25" d="M152.668 278.536L149.099 268.723L139.452 265.092L149.099 261.461L152.668 251.648L156.238 261.461L165.884 265.092L156.238 268.723L152.668 278.536Z" fill="#FFF7B0"/>
  <path opacity="0.25" d="M199.381 280.359L196.242 271.877L187.759 268.738L196.242 265.599L199.381 257.117L202.519 265.599L211.002 268.738L202.519 271.877L199.381 280.359Z" fill="#FFF7B0"/>
  </g>
  </g>
  <mask id="mask3_680_65515" style="mask-type:alpha" maskUnits="userSpaceOnUse" x="148" y="33" width="54" height="70">
  <path d="M155.658 62.9372C159.113 49.9596 161.899 33.3539 174.785 33.3539C187.671 33.3539 192.186 53.9143 194.342 63.2536C196.328 71.8581 200.673 91.7599 201.344 94.838C201.402 95.1025 201.335 95.3639 201.145 95.5574C199.763 96.9691 193.094 102.625 175 102.625C156.851 102.625 150.197 96.9348 148.842 95.5447C148.66 95.3573 148.593 95.1046 148.642 94.8476C149.177 92.0408 152.494 74.8253 155.658 62.9372Z" fill="url(#paint6_linear_680_65515)"/>
  </mask>
  <g mask="url(#mask3_680_65515)">
  <g style="mix-blend-mode:overlay">
  <circle cx="151.268" cy="56.2541" r="1.21779" fill="white"/>
  <circle cx="154.002" cy="38.9037" r="1.21779" transform="rotate(75 154.002 38.9037)" fill="white"/>
  <circle cx="170.46" cy="68.4567" r="1.21779" transform="rotate(75 170.46 68.4567)" fill="white"/>
  <circle cx="190.238" cy="68.757" r="1.21779" fill="white"/>
  <path d="M179.132 85.9004L178.365 83.8264L176.291 83.0589L178.365 82.2914L179.132 80.2174L179.9 82.2914L181.974 83.0589L179.9 83.8264L179.132 85.9004Z" fill="#FFF7B0"/>
  <path d="M162.379 50.9083L161.611 48.8343L159.537 48.0668L161.611 47.2994L162.379 45.2253L163.146 47.2994L165.22 48.0668L163.146 48.8343L162.379 50.9083Z" fill="#FFF7B0"/>
  <path d="M162.804 95.5474L162.036 93.4733L159.962 92.7059L162.036 91.9384L162.804 89.8643L163.571 91.9384L165.645 92.7059L163.571 93.4733L162.804 95.5474Z" fill="#FFF7B0"/>
  <path d="M191.514 92.3573L190.747 90.2832L188.673 89.5158L190.747 88.7483L191.514 86.6743L192.282 88.7483L194.356 89.5158L192.282 90.2832L191.514 92.3573Z" fill="#FFF7B0"/>
  <path d="M178.298 63.1906L177.531 61.1166L175.457 60.3491L177.531 59.5816L178.298 57.5076L179.066 59.5816L181.14 60.3491L179.066 61.1166L178.298 63.1906Z" fill="#FFF7B0"/>
  <path opacity="0.25" d="M157.228 81.2055L154.889 74.8853L148.569 72.5466L154.889 70.2079L157.228 63.8878L159.567 70.2079L165.887 72.5466L159.567 74.8853L157.228 81.2055Z" fill="#FFF7B0"/>
  <path opacity="0.25" d="M175.001 112.651L172.662 106.331L166.342 103.992L172.662 101.653L175.001 95.3331L177.339 101.653L183.66 103.992L177.339 106.331L175.001 112.651Z" fill="#FFF7B0"/>
  <path opacity="0.25" d="M144.011 99.8904L141.673 93.5702L135.353 91.2315L141.673 88.8929L144.011 82.5727L146.35 88.8929L152.67 91.2315L146.35 93.5702L144.011 99.8904Z" fill="#FFF7B0"/>
  <path opacity="0.25" d="M187.306 50.6716L184.967 44.3515L178.647 42.0128L184.967 39.6741L187.306 33.3539L189.644 39.6741L195.964 42.0128L189.644 44.3515L187.306 50.6716Z" fill="#FFF7B0"/>
  </g>
  </g>
  <defs>
  <linearGradient id="paint0_linear_680_65515" x1="135.808" y1="292.166" x2="144.601" y2="344.569" gradientUnits="userSpaceOnUse">
  <stop offset="0.00712166" stop-color="#6A9EE2"/>
  <stop offset="0.282888" stop-color="#4883C2" stop-opacity="0.98"/>
  <stop offset="0.635608" stop-color="#9CCBF4" stop-opacity="0.98"/>
  <stop offset="1" stop-color="#E8F3FC" stop-opacity="0.98"/>
  </linearGradient>
  <linearGradient id="paint1_linear_680_65515" x1="135.351" y1="291.71" x2="144.144" y2="344.113" gradientUnits="userSpaceOnUse">
  <stop offset="0.00712166" stop-color="#6A9EE2"/>
  <stop offset="0.282888" stop-color="#4883C2" stop-opacity="0.98"/>
  <stop offset="0.635608" stop-color="#9CCBF4" stop-opacity="0.98"/>
  <stop offset="1" stop-color="#E8F3FC" stop-opacity="0.98"/>
  </linearGradient>
  <linearGradient id="paint2_linear_680_65515" x1="156.367" y1="42.1856" x2="185.487" y2="102.161" gradientUnits="userSpaceOnUse">
  <stop offset="0.00712166" stop-color="#6A9EE2"/>
  <stop offset="0.282888" stop-color="#4883C2" stop-opacity="0.98"/>
  <stop offset="0.635608" stop-color="#9CCBF4" stop-opacity="0.98"/>
  <stop offset="1" stop-color="#E8F3FC" stop-opacity="0.98"/>
  </linearGradient>
  <linearGradient id="paint3_linear_680_65515" x1="131.036" y1="222.482" x2="163.373" y2="325.447" gradientUnits="userSpaceOnUse">
  <stop offset="0.00712166" stop-color="#6A9EE2"/>
  <stop offset="0.282888" stop-color="#4883C2" stop-opacity="0.98"/>
  <stop offset="0.635608" stop-color="#9CCBF4" stop-opacity="0.98"/>
  <stop offset="1" stop-color="#E8F3FC" stop-opacity="0.98"/>
  </linearGradient>
  <radialGradient id="paint4_radial_680_65515" cx="0" cy="0" r="1" gradientUnits="userSpaceOnUse" gradientTransform="translate(153.059 258.939) rotate(36.2538) scale(76.2935 67.5721)">
  <stop offset="0.0989583" stop-color="#FFB800"/>
  <stop offset="1" stop-color="#E96D00"/>
  </radialGradient>
  <linearGradient id="paint5_linear_680_65515" x1="130.97" y1="222.482" x2="163.307" y2="325.447" gradientUnits="userSpaceOnUse">
  <stop offset="0.00712166" stop-color="#6A9EE2"/>
  <stop offset="0.282888" stop-color="#4883C2" stop-opacity="0.98"/>
  <stop offset="0.635608" stop-color="#9CCBF4" stop-opacity="0.98"/>
  <stop offset="1" stop-color="#E8F3FC" stop-opacity="0.98"/>
  </linearGradient>
  <linearGradient id="paint6_linear_680_65515" x1="156.367" y1="40.8184" x2="185.487" y2="100.794" gradientUnits="userSpaceOnUse">
  <stop offset="0.00712166" stop-color="#6A9EE2"/>
  <stop offset="0.282888" stop-color="#4883C2" stop-opacity="0.98"/>
  <stop offset="0.635608" stop-color="#9CCBF4" stop-opacity="0.98"/>
  <stop offset="1" stop-color="#E8F3FC" stop-opacity="0.98"/>
  </linearGradient>
  </defs>

    
    <path d="M148.647 94.3351L124.888 210.017C124.817 210.363 124.947 210.714 125.237 210.915C128.356 213.082 146.958 225.128 174.998 225.128C203.038 225.128 221.64 213.082 224.76 210.915C225.05 210.714 225.18 210.363 225.109 210.017L201.35 94.3351C201.316 94.4021 201.271 94.4644 201.216 94.5198C199.881 95.8685 193.226 101.484 174.998 101.484C156.771 101.484 150.116 95.8685 148.78 94.5198C148.725 94.4644 148.681 94.4021 148.647 94.3351Z" fill="#000000" fill-opacity="0.75"/>;
    
    <!-- Color -->
    <path d="M201.049 94.2304L205.113 114.031C203.523 113.76 201.871 113.447 200.18 113.127C186.038 110.452 169.252 107.276 165.003 123.73C163.148 130.914 165.836 135.212 168.45 139.394C170.975 143.43 173.431 147.358 171.668 153.669C169.523 161.35 157.859 166.325 148.479 162.994C138.57 159.476 139.266 144.903 144.961 137.849C150.656 130.794 151.48 120.031 150.656 112.87C150.259 109.409 148.549 106.935 146.313 105.251L148.649 93.8801C148.683 93.9471 148.727 94.0094 148.782 94.0649C150.117 95.4136 156.772 101.03 175 101.03C192.557 101.03 199.378 95.8189 201.049 94.2304Z" fill="url(#paint0_radial_702_67017)"/>

    <!-- Filter -->
    <mask id="mask0_702_67017" style="mask-type:alpha" maskUnits="userSpaceOnUse" x="140" y="93" width="66" height="72">
      <path d="M201.049 94.2304L205.113 114.031C203.523 113.76 201.871 113.447 200.18 113.127C186.038 110.452 169.252 107.276 165.003 123.73C163.148 130.914 165.836 135.212 168.45 139.394C170.975 143.43 173.431 147.358 171.668 153.669C169.523 161.35 157.859 166.325 148.479 162.994C138.57 159.476 139.266 144.903 144.961 137.849C150.656 130.794 151.48 120.031 150.656 112.87C150.259 109.409 148.549 106.935 146.313 105.251L148.649 93.8801C148.683 93.9471 148.727 94.0094 148.782 94.0649C150.117 95.4136 156.772 101.03 175 101.03C192.557 101.03 199.378 95.8189 201.049 94.2304Z" fill="url(#paint1_radial_702_67017)"/>
    </mask>
    <g mask="url(#mask0_702_67017)">
      <g filter="url(#filter0_f_702_67017)">
        <mask id="mask1_702_67017" style="mask-type:alpha" maskUnits="userSpaceOnUse" x="124" y="94" width="102" height="132">
          <path d="M148.862 95.0637C148.949 94.6399 149.322 94.3357 149.754 94.3357H200.246C200.678 94.3357 201.051 94.6399 201.138 95.0637L224.993 211.158C225.074 211.554 224.888 211.954 224.527 212.137C220.624 214.108 198.375 224.817 175 225.127C151.578 225.438 129.287 214.178 125.45 212.14C125.099 211.954 124.924 211.562 125.004 211.173L148.862 95.0637Z" fill="#577096" fill-opacity="0.75"/>
        </mask>
        <g mask="url(#mask1_702_67017)">
          <g filter="url(#filter1_f_702_67017)">
            <path d="M207.208 76.1064C210.866 110.268 145.941 132.571 113.021 139.453L113.021 76.1064L207.208 76.1064Z" fill="url(#paint2_linear_702_67017)" fill-opacity="0.5"/>
          </g>
          <g filter="url(#filter2_f_702_67017)">
            <path d="M155.407 125.301C156.469 105.018 134.471 86.1828 128.929 66.9985C133.388 65.1973 144.05 70.7896 152.675 76.1247C163.456 82.7936 162.879 109.124 164.625 125.784C166.022 139.112 148.453 223.401 144.015 241.481L131.716 240.837C140.242 214.68 154.587 140.955 155.407 125.301Z" fill="url(#paint3_linear_702_67017)" fill-opacity="0.6"/>
          </g>
        </g>
      </g>
    </g>

    <defs>
      <!-- Color -->
      <radialGradient id="paint0_radial_702_67017" cx="0" cy="0" r="1" gradientUnits="userSpaceOnUse" gradientTransform="translate(155.882 109.102) rotate(53.1177) scale(37.8177 40.2646)">
        <stop offset="0.203125" style="stop-color: #F85449;"/>
        <stop offset="0.890625" style="stop-color: #C53434;"/>
      </radialGradient>

      <!-- Filter -->
      <filter id="filter0_f_702_67017" x="122.591" y="92.057" width="104.818" height="135.355" filterUnits="userSpaceOnUse" color-interpolation-filters="sRGB">
        <feFlood flood-opacity="0" result="BackgroundImageFix"/>
        <feBlend mode="normal" in="SourceGraphic" in2="BackgroundImageFix" result="shape"/>
        <feGaussianBlur stdDeviation="1.13932" result="effect1_foregroundBlur_702_67017"/>
      </filter>
      <filter id="filter1_f_702_67017" x="112.109" y="75.195" width="96.1589" height="65.1694" filterUnits="userSpaceOnUse" color-interpolation-filters="sRGB">
        <feFlood flood-opacity="0" result="BackgroundImageFix"/>
        <feBlend mode="normal" in="SourceGraphic" in2="BackgroundImageFix" result="shape"/>
        <feGaussianBlur stdDeviation="0.455729" result="effect1_foregroundBlur_702_67017"/>
      </filter>
      <filter id="filter2_f_702_67017" x="128.017" y="65.7426" width="37.5979" height="176.65" filterUnits="userSpaceOnUse" color-interpolation-filters="sRGB">
        <feFlood flood-opacity="0" result="BackgroundImageFix"/>
        <feBlend mode="normal" in="SourceGraphic" in2="BackgroundImageFix" result="shape"/>
        <feGaussianBlur stdDeviation="0.455729" result="effect1_foregroundBlur_702_67017"/>
      </filter>
      <radialGradient id="paint1_radial_702_67017" cx="0" cy="0" r="1" gradientUnits="userSpaceOnUse" gradientTransform="translate(155.882 109.102) rotate(53.1177) scale(37.8177 40.2646)">
        <stop offset="0.203125" stop-color="#71FF30"/>
        <stop offset="0.890625" stop-color="#25BC46"/>
      </radialGradient>
      <linearGradient id="paint2_linear_702_67017" x1="145.215" y1="123.01" x2="155.829" y2="72.2914" gradientUnits="userSpaceOnUse">
        <stop stop-color="white" stop-opacity="0"/>
        <stop offset="0.471361" stop-color="white"/>
        <stop offset="1" stop-color="white"/>
      </linearGradient>
      <linearGradient id="paint3_linear_702_67017" x1="160.729" y1="220.938" x2="201.954" y2="178" gradientUnits="userSpaceOnUse">
        <stop stop-color="#F2F2F2"/>
        <stop offset="0.0001" stop-color="#F2F2F2"/>
        <stop offset="0.0520833" stop-color="#F2F2F2" stop-opacity="0.948011"/>
        <stop offset="1" stop-color="#F2F2F2" stop-opacity="0"/>
      </linearGradient>
    </defs>
  
    
    <!-- Color -->
    <path d="M177.734 130.914C177.734 127.951 179.774 122.048 187.933 122.136C196.091 122.224 198.203 128.025 198.239 130.914C198.312 133.035 197.089 137.629 191.621 139.033C184.786 140.789 177.734 136.839 177.734 130.914Z" fill="url(#paint0_radial_702_67018)"/>

    <defs>
      <!-- Color -->
      <radialGradient id="paint0_radial_702_67018" cx="0" cy="0" r="1" gradientUnits="userSpaceOnUse" gradientTransform="translate(182.539 125.892) rotate(45.8803) scale(10.3998 11.5271)">
        <stop offset="0.203125" style="stop-color: #5000B6;"/>
        <stop offset="0.890625" style="stop-color: #7E5EFF;"/>
      </radialGradient>
    </defs>
  
    
    <!-- Color -->
    <path d="M214.052 156.619L218.831 179.91C216.932 182.156 214.118 184.13 210.037 185.164C197.278 188.398 184.115 181.122 184.115 170.207C184.115 164.75 187.922 153.876 203.151 154.038C207.743 154.087 211.309 155.092 214.052 156.619Z" fill="url(#paint0_radial_702_67019)"/>

    <defs>
      <!-- Color -->
      <radialGradient id="paint0_radial_702_67019" cx="0" cy="0" r="1" gradientUnits="userSpaceOnUse" gradientTransform="translate(192.248 160.957) rotate(48.2936) scale(18.4215 20.2932)">
        <stop offset="0.203125" style="stop-color: #FFFFFF;"/>
        <stop offset="0.890625" style="stop-color: #D0C9C9;"/>
      </radialGradient>
    </defs>
  
    
    <!-- Color -->
    <path d="M223.109 211.89C217.522 215.445 199.996 225.13 174.887 225.13C146.901 225.13 128.335 213.098 125.221 210.933C125.032 210.801 124.911 210.606 124.87 210.39C128.808 199.004 144.115 175.86 164.064 181.919C173.943 184.919 180.859 192.452 187.364 199.536C197.438 210.508 206.525 220.404 224.106 210.722C223.783 211.11 223.451 211.499 223.109 211.89Z" fill="url(#paint0_radial_702_67020)"/>

    <!-- Filter -->
    <mask id="mask0_702_67020" style="mask-type:alpha" maskUnits="userSpaceOnUse" x="124" y="180" width="101" height="46">
      <path d="M223.109 211.89C217.522 215.445 199.996 225.13 174.887 225.13C146.901 225.13 128.335 213.098 125.221 210.933C125.032 210.802 124.911 210.606 124.87 210.39C128.808 199.004 144.115 175.86 164.064 181.919C173.943 184.92 180.859 192.452 187.364 199.536C197.438 210.508 206.525 220.405 224.106 210.722C223.783 211.11 223.451 211.499 223.109 211.89Z" fill="url(#paint1_radial_702_67020)"/>
    </mask>
    <g mask="url(#mask0_702_67020)">
      <g filter="url(#filter0_f_702_67020)">
        <mask id="mask1_702_67020" style="mask-type:alpha" maskUnits="userSpaceOnUse" x="124" y="94" width="102" height="132">
          <path d="M148.862 95.0639C148.949 94.6401 149.322 94.3359 149.754 94.3359H200.246C200.678 94.3359 201.051 94.6401 201.138 95.0639L224.993 211.159C225.074 211.555 224.888 211.955 224.527 212.137C220.624 214.109 198.375 224.817 175 225.128C151.578 225.438 129.287 214.178 125.45 212.141C125.099 211.954 124.924 211.562 125.004 211.173L148.862 95.0639Z" fill="#577096" fill-opacity="0.75"/>
        </mask>
        <g mask="url(#mask1_702_67020)">
          <g filter="url(#filter1_f_702_67020)">
            <path d="M155.407 125.301C156.469 105.018 134.471 86.183 128.929 66.9987C133.388 65.1975 144.05 70.7899 152.675 76.125C163.456 82.7938 162.879 109.124 164.625 125.784C166.022 139.112 148.453 223.401 144.015 241.482L131.716 240.837C140.242 214.68 154.587 140.955 155.407 125.301Z" fill="url(#paint2_linear_702_67020)" fill-opacity="0.6"/>
          </g>
        </g>
      </g>
    </g>

    <defs>
      <!-- Color -->
      <radialGradient id="paint0_radial_702_67020" cx="0" cy="0" r="1" gradientUnits="userSpaceOnUse" gradientTransform="translate(148.118 190.514) rotate(28.5454) scale(39.8814 37.1287)">
        <stop offset="0.203125" style="stop-color: #321A93;"/>
        <stop offset="0.890625" style="stop-color: #3603FF;"/>
      </radialGradient>

      <!-- Filter -->
      <filter id="filter0_f_702_67020" x="122.591" y="92.0573" width="104.818" height="135.355" filterUnits="userSpaceOnUse" color-interpolation-filters="sRGB">
        <feFlood flood-opacity="0" result="BackgroundImageFix"/>
        <feBlend mode="normal" in="SourceGraphic" in2="BackgroundImageFix" result="shape"/>
        <feGaussianBlur stdDeviation="1.13932" result="effect1_foregroundBlur_702_67020"/>
      </filter>
      <filter id="filter1_f_702_67020" x="128.017" y="65.7428" width="37.5979" height="176.65" filterUnits="userSpaceOnUse" color-interpolation-filters="sRGB">
        <feFlood flood-opacity="0" result="BackgroundImageFix"/>
        <feBlend mode="normal" in="SourceGraphic" in2="BackgroundImageFix" result="shape"/>
        <feGaussianBlur stdDeviation="0.455729" result="effect1_foregroundBlur_702_67020"/>
      </filter>
      <radialGradient id="paint1_radial_702_67020" cx="0" cy="0" r="1" gradientUnits="userSpaceOnUse" gradientTransform="translate(146.218 191.259) rotate(27.3324) scale(58.602 42.3474)">
        <stop offset="0.302083" stop-color="#FFB800"/>
        <stop offset="1" stop-color="#FF7800"/>
      </radialGradient>
      <linearGradient id="paint2_linear_702_67020" x1="160.729" y1="220.939" x2="201.954" y2="178" gradientUnits="userSpaceOnUse">
        <stop stop-color="#F2F2F2"/>
        <stop offset="0.0001" stop-color="#F2F2F2"/>
        <stop offset="0.0520833" stop-color="#F2F2F2" stop-opacity="0.948011"/>
        <stop offset="1" stop-color="#F2F2F2" stop-opacity="0"/>
      </linearGradient>
    </defs>
  
  
    </svg>
  