
    <svg width="350" height="350" viewBox="0 0 350 350" fill="none" xmlns="http://www.w3.org/2000/svg">
    
  <g clip-path="url(#clip0_559_25940)">
  <rect x="0.0799561" y="0.0449219" width="350" height="350" fill="#27004F" fill-opacity="0.89"/>
  <rect x="0.0799561" y="0.0449219" width="350" height="350" fill="url(#paint0_radial_559_25940)" fill-opacity="0.2"/>
  <path d="M125.979 290.538L299.832 190.751L430.987 233.879L212.56 294.049L125.979 290.538Z" fill="url(#paint1_linear_559_25940)"/>
  <g opacity="0.7" filter="url(#filter0_f_559_25940)">
  <ellipse cx="174.608" cy="126.187" rx="209.039" ry="257.726" transform="rotate(0.126655 174.608 126.187)" fill="url(#paint2_radial_559_25940)"/>
  </g>
  </g>
  <defs>
  <filter id="filter0_f_559_25940" x="-44.4312" y="-141.538" width="438.079" height="535.452" filterUnits="userSpaceOnUse" color-interpolation-filters="sRGB">
  <feFlood flood-opacity="0" result="BackgroundImageFix"/>
  <feBlend mode="normal" in="SourceGraphic" in2="BackgroundImageFix" result="shape"/>
  <feGaussianBlur stdDeviation="5" result="effect1_foregroundBlur_559_25940"/>
  </filter>
  <radialGradient id="paint0_radial_559_25940" cx="0" cy="0" r="1" gradientUnits="userSpaceOnUse" gradientTransform="translate(156.623 401.542) rotate(-84.441) scale(239.93 241.682)">
  <stop/>
  <stop offset="1" stop-opacity="0"/>
  </radialGradient>
  <linearGradient id="paint1_linear_559_25940" x1="194.836" y1="271.638" x2="316.537" y2="167.936" gradientUnits="userSpaceOnUse">
  <stop/>
  <stop offset="1" stop-color="#333333" stop-opacity="0"/>
  </linearGradient>
  <radialGradient id="paint2_radial_559_25940" cx="0" cy="0" r="1" gradientUnits="userSpaceOnUse" gradientTransform="translate(174.608 164.248) rotate(92.5586) scale(167.784 136.229)">
  <stop stop-color="#737373"/>
  <stop offset="1" stop-color="#9A9A9A" stop-opacity="0"/>
  </radialGradient>
  <clipPath id="clip0_559_25940">
  <rect width="350" height="350" fill="white"/>
  </clipPath>
  </defs>

    
  <g clip-path="url(#clip0_625_52580)">
  <g clip-path="url(#clip1_625_52580)">
  <g style="mix-blend-mode:overlay">
  <path fill-rule="evenodd" clip-rule="evenodd" d="M276.2 378.343C323.569 390.154 371.54 361.329 383.349 313.965C395.157 266.599 366.335 218.619 318.969 206.811C271.613 195.002 223.642 223.83 211.839 271.199C200.025 318.56 228.85 366.534 276.2 378.343ZM317.129 257.675C329.376 261.893 338.334 268.218 336.574 279.982C335.3 288.594 330.526 292.763 324.188 294.224C332.891 298.756 337.32 305.704 333.101 317.75C327.865 332.711 315.427 333.974 298.886 330.843L294.871 346.931L285.171 344.514L289.133 328.641C286.618 328.017 284.049 327.354 281.402 326.636L277.426 342.583L267.737 340.165L271.751 324.047C270.846 323.815 269.935 323.577 269.017 323.338C267.639 322.978 266.246 322.615 264.836 322.262L252.213 319.115L257.028 308.011C257.028 308.011 264.176 309.912 264.079 309.771C266.825 310.451 268.044 308.66 268.524 307.467L274.868 282.035C275.106 282.092 275.339 282.15 275.564 282.207C275.676 282.235 275.786 282.262 275.893 282.289C275.506 282.134 275.155 282.035 274.885 281.966L279.41 263.811C279.529 261.75 278.819 259.15 274.89 258.169C275.042 258.067 267.845 256.417 267.845 256.417L270.425 246.057L283.803 249.397L283.792 249.447C285.803 249.947 287.876 250.422 289.986 250.903L293.962 234.972L303.657 237.39L299.761 253.008C302.364 253.602 304.983 254.202 307.533 254.837L311.401 239.321L321.102 241.738L317.129 257.675ZM286.446 315.453C294.361 317.544 311.66 322.113 314.41 311.061C317.228 299.761 300.451 295.997 292.265 294.16C291.35 293.954 290.542 293.773 289.881 293.608L284.555 314.962C285.097 315.097 285.734 315.265 286.446 315.453ZM293.909 284.25C300.509 286.011 314.903 289.853 317.41 279.808C319.971 269.534 305.981 266.436 299.148 264.924C298.379 264.754 297.701 264.604 297.148 264.466L292.318 283.833C292.774 283.947 293.31 284.09 293.909 284.25Z" fill="white" fill-opacity="0.3"/>
  </g>
  </g>
  <g clip-path="url(#clip2_625_52580)">
  <g style="mix-blend-mode:overlay">
  <path fill-rule="evenodd" clip-rule="evenodd" d="M34.2076 141.364C81.5768 153.175 129.548 124.35 141.357 76.9864C153.165 29.62 124.343 -18.3598 76.9766 -30.1683C29.6213 -41.9768 -18.3503 -13.1491 -30.1532 34.2201C-41.9672 81.581 -13.1423 129.555 34.2076 141.364ZM75.1365 20.6954C87.3842 24.9143 96.3414 31.2385 94.5815 43.0027C93.3078 51.6146 88.5336 55.7837 82.1956 57.2453C90.8986 61.7764 95.3274 68.7249 91.1086 80.771C85.8729 95.7319 73.4346 96.9945 56.8933 93.8642L52.8789 109.952L43.1785 107.535L47.1404 91.6622C44.6262 91.0378 42.0568 90.3747 39.41 89.6564L35.4342 105.604L25.7449 103.186L29.7593 87.0676C28.8538 86.8357 27.9426 86.598 27.0249 86.3587C25.6465 85.9993 24.2537 85.636 22.8439 85.2828L10.2204 82.1359L15.036 71.0319C15.036 71.0319 22.1835 72.9328 22.0868 72.7919C24.8331 73.4715 26.0515 71.6812 26.5323 70.4876L32.8758 45.0555C33.114 45.1128 33.3473 45.1713 33.5723 45.2277C33.684 45.2557 33.7936 45.2831 33.9008 45.3097C33.514 45.155 33.1631 45.0555 32.8924 44.9865L37.4179 26.8317C37.5367 24.7706 36.8267 22.1708 32.8979 21.19C33.0499 21.0877 25.8526 19.4383 25.8526 19.4383L28.4331 9.0776L41.8109 12.4179L41.7998 12.4676C43.8112 12.9677 45.8833 13.4429 47.9942 13.9237L51.9699 -2.00699L61.6648 0.41051L57.7691 16.0289C60.3718 16.623 62.9909 17.2225 65.5411 17.858L69.4091 2.34175L79.1095 4.75925L75.1365 20.6954ZM44.4535 78.4742C52.3686 80.5648 69.6676 85.1338 72.4178 74.0821C75.236 62.7821 58.4589 59.0175 50.2724 57.1806C49.3576 56.9753 48.5501 56.7941 47.8892 56.6291L42.5624 77.9833C43.1052 78.1181 43.7414 78.2861 44.4535 78.4742ZM51.9172 47.2708C58.5164 49.0319 72.9109 52.8733 75.4183 42.8287C77.9788 32.5545 63.9884 29.4573 57.1558 27.9448C56.3872 27.7746 55.7092 27.6245 55.1555 27.4865L50.326 46.8542C50.7822 46.9679 51.3175 47.1107 51.9172 47.2708Z" fill="white" fill-opacity="0.3"/>
  </g>
  </g>
  <g clip-path="url(#clip3_625_52580)">
  <g style="mix-blend-mode:overlay">
  <path fill-rule="evenodd" clip-rule="evenodd" d="M261.081 135.707C295.509 144.291 330.375 123.341 338.958 88.9168C347.54 54.4907 326.592 19.6187 292.166 11.0363C257.748 2.45385 222.882 23.4059 214.303 57.8341C205.717 92.2562 226.667 127.124 261.081 135.707ZM290.827 48.0044C299.729 51.0707 306.239 55.6671 304.96 64.2174C304.034 70.4766 300.565 73.5067 295.958 74.569C302.283 77.8622 305.502 82.9124 302.436 91.6676C298.631 102.541 289.591 103.459 277.568 101.184L274.651 112.877L267.6 111.12L270.48 99.5833C268.653 99.1295 266.785 98.6476 264.861 98.1255L261.972 109.716L254.929 107.959L257.847 96.2439C257.189 96.0754 256.527 95.9027 255.86 95.7287C254.858 95.4675 253.846 95.2035 252.821 94.9467L243.646 92.6596L247.146 84.5892C247.146 84.5892 252.341 85.9707 252.271 85.8683C254.267 86.3623 255.152 85.0611 255.502 84.1936L260.112 65.7094C260.285 65.751 260.455 65.7935 260.618 65.8345C260.7 65.8548 260.779 65.8748 260.857 65.8942C260.576 65.7817 260.321 65.7094 260.124 65.6592L263.414 52.4643C263.5 50.9663 262.984 49.0767 260.128 48.3638C260.239 48.2895 255.008 47.0907 255.008 47.0907L256.883 39.5605L266.606 41.9882L266.598 42.0244C268.06 42.3878 269.566 42.7332 271.1 43.0826L273.99 31.5042L281.036 33.2612L278.205 44.6128C280.096 45.0445 282 45.4803 283.854 45.9421L286.665 34.6649L293.715 36.4219L290.827 48.0044ZM268.527 89.9982C274.28 91.5177 286.853 94.8385 288.852 86.8061C290.9 78.5932 278.706 75.8571 272.756 74.522C272.091 74.3728 271.504 74.2411 271.024 74.1212L267.153 89.6414C267.547 89.7394 268.009 89.8615 268.527 89.9982ZM273.952 67.3195C278.748 68.5995 289.21 71.3914 291.032 64.0909C292.893 56.6236 282.725 54.3726 277.759 53.2732C277.2 53.1496 276.708 53.0405 276.305 52.9402L272.795 67.0167C273.127 67.0993 273.516 67.2031 273.952 67.3195Z" fill="white" fill-opacity="0.3"/>
  </g>
  </g>
  <g clip-path="url(#clip4_625_52580)">
  <g style="mix-blend-mode:overlay">
  <path fill-rule="evenodd" clip-rule="evenodd" d="M27.9129 382.244C54.4055 388.85 81.2349 372.728 87.8391 346.239C94.4433 319.748 78.3237 292.914 51.8327 286.31C25.3478 279.705 -1.48158 295.828 -8.0827 322.321C-14.69 348.809 1.43114 375.64 27.9129 382.244ZM50.8032 314.757C57.6531 317.116 62.6626 320.653 61.6783 327.233C60.966 332.049 58.2959 334.381 54.7512 335.198C59.6186 337.732 62.0955 341.618 59.736 348.356C56.8078 356.723 49.8513 357.429 40.6002 355.678L38.355 364.676L32.9298 363.324L35.1456 354.447C33.7394 354.098 32.3024 353.727 30.8221 353.325L28.5985 362.244L23.1795 360.892L25.4247 351.877C24.9183 351.747 24.4087 351.615 23.8955 351.481C23.1246 351.28 22.3456 351.076 21.557 350.879L14.497 349.119L17.1903 342.909C17.1903 342.909 21.1877 343.972 21.1336 343.893C22.6696 344.273 23.351 343.272 23.6199 342.604L27.1677 328.381C27.3008 328.413 27.4311 328.445 27.5568 328.477C27.6194 328.493 27.6809 328.508 27.741 328.523C27.5246 328.436 27.3284 328.381 27.177 328.342L29.708 318.188C29.7744 317.036 29.3773 315.582 27.18 315.033C27.265 314.976 23.2398 314.054 23.2398 314.054L24.683 308.259L32.1649 310.127L32.1587 310.155C33.2836 310.435 34.4425 310.7 35.6231 310.969L37.8466 302.06L43.2687 303.412L41.09 312.147C42.5456 312.479 44.0104 312.814 45.4367 313.17L47.5999 304.492L53.0252 305.844L50.8032 314.757ZM33.6429 347.071C38.0696 348.24 47.7445 350.796 49.2827 344.615C50.8588 338.295 41.4758 336.189 36.8972 335.162C36.3856 335.047 35.934 334.946 35.5643 334.854L32.5852 346.796C32.8887 346.872 33.2446 346.966 33.6429 347.071ZM37.8171 329.62C41.5079 330.605 49.5585 332.753 50.9608 327.135C52.3928 321.389 44.5683 319.657 40.7469 318.811C40.3171 318.716 39.9379 318.632 39.6282 318.555L36.9272 329.387C37.1823 329.45 37.4817 329.53 37.8171 329.62Z" fill="white" fill-opacity="0.3"/>
  </g>
  </g>
  <g clip-path="url(#clip5_625_52580)">
  <g style="mix-blend-mode:overlay">
  <path fill-rule="evenodd" clip-rule="evenodd" d="M84.1189 235.997C101.699 240.38 119.503 229.682 123.886 212.104C128.268 194.525 117.571 176.718 99.9919 172.335C82.4167 167.953 64.6129 178.652 60.2324 196.232C55.8479 213.809 66.5458 231.614 84.1189 235.997ZM99.3083 191.213C103.854 192.779 107.178 195.126 106.525 199.492C106.052 202.688 104.28 204.235 101.928 204.778C105.158 206.459 106.802 209.038 105.236 213.509C103.293 219.062 98.6767 219.53 92.5377 218.368L91.0478 224.339L87.4476 223.442L88.9181 217.551C87.9849 217.319 87.0313 217.073 86.049 216.807L84.5735 222.725L80.9774 221.828L82.4673 215.846C82.1312 215.76 81.793 215.672 81.4524 215.583C80.9409 215.449 80.424 215.315 79.9008 215.183L75.2158 214.016L77.003 209.895C77.003 209.895 79.6557 210.6 79.6198 210.548C80.639 210.8 81.0912 210.135 81.2697 209.693L83.624 200.254C83.7123 200.275 83.7989 200.297 83.8824 200.318C83.9239 200.328 83.9646 200.338 84.0044 200.348C83.8608 200.291 83.7306 200.254 83.6301 200.228L85.3097 193.49C85.3538 192.725 85.0903 191.76 83.6322 191.396C83.6886 191.359 81.0174 190.746 81.0174 190.746L81.9751 186.901L86.9401 188.141L86.936 188.159C87.6825 188.345 88.4515 188.521 89.2349 188.7L90.7104 182.787L94.3085 183.684L92.8627 189.481C93.8286 189.701 94.8007 189.924 95.7472 190.16L97.1827 184.401L100.783 185.298L99.3083 191.213ZM87.9208 212.657C90.8584 213.432 97.2786 215.128 98.2994 211.027C99.3453 206.833 93.1187 205.436 90.0804 204.754C89.7409 204.678 89.4412 204.61 89.1959 204.549L87.219 212.474C87.4204 212.524 87.6565 212.587 87.9208 212.657ZM90.6909 201.076C93.1401 201.73 98.4824 203.155 99.4129 199.427C100.363 195.614 95.1709 194.465 92.6351 193.903C92.3498 193.84 92.0982 193.785 91.8927 193.733L90.1003 200.921C90.2696 200.964 90.4683 201.017 90.6909 201.076Z" fill="white" fill-opacity="0.3"/>
  </g>
  </g>
  </g>
  <defs>
  <clipPath id="clip0_625_52580">
  <rect width="350" height="350" fill="white"/>
  </clipPath>
  <clipPath id="clip1_625_52580">
  <rect width="176.823" height="176.823" fill="white" transform="translate(209.18 204.167)"/>
  </clipPath>
  <clipPath id="clip2_625_52580">
  <rect width="176.823" height="176.823" fill="white" transform="translate(-32.8125 -32.8125)"/>
  </clipPath>
  <clipPath id="clip3_625_52580">
  <rect width="128.516" height="128.516" fill="white" transform="translate(212.37 9.11467)"/>
  </clipPath>
  <clipPath id="clip4_625_52580">
  <rect width="98.8932" height="98.8932" fill="white" transform="translate(-9.57031 284.831)"/>
  </clipPath>
  <clipPath id="clip5_625_52580">
  <rect width="65.625" height="65.625" fill="white" transform="translate(59.2448 171.354)"/>
  </clipPath>
  </defs>
    
    
  <g clip-path="url(#clip0_680_70124)">
  <mask id="mask0_680_70124" style="mask-type:alpha" maskUnits="userSpaceOnUse" x="217" y="77" width="102" height="210">
  <path d="M286.125 141.452L286.15 141.712L286.408 141.752L286.538 141.772L286.025 145.077C285.934 145.663 285.477 146.101 284.904 146.144C283.985 146.214 282.554 146.287 280.643 146.286L280.364 146.286L280.312 146.56L274.16 179.037C274.099 179.359 273.93 179.577 273.695 179.653C273.133 179.834 272.005 180.071 269.928 180.102L269.711 180.105L269.624 180.303C267.404 185.339 266.167 195.414 271.757 209.39C279.967 229.915 284.554 242.082 276.779 258.339C273.717 264.742 266.667 270.662 258.909 275.545C251.338 280.31 243.147 284.055 237.475 286.273L234.166 265.095C237.669 263.922 242.531 261.732 247.125 258.638C251.836 255.466 256.295 251.323 258.702 246.326C263.363 236.644 259.679 228.342 255.922 219.877L255.901 219.829C254.807 217.365 253.707 214.887 252.791 212.341C251.363 208.377 250.487 202.434 250.188 196.359L250.179 196.171L250.015 196.08C249.158 195.605 248.078 195.303 246.738 195.303H229.27V195.303L229.26 195.303C228.618 195.321 227.883 195.742 227.183 196.33C226.467 196.931 225.729 197.757 225.074 198.686C224.42 199.616 223.842 200.66 223.454 201.701C223.328 202.04 223.22 202.381 223.137 202.719L218.352 184.344C219.024 184.634 220.002 184.961 221.209 185.244C222.942 185.652 225.174 185.977 227.705 185.977H244.652H244.664L244.675 185.976C245.923 185.892 248.452 185.5 250.224 184.55L250.384 184.465L250.401 184.285C250.658 181.568 251.068 179.169 251.627 177.329L251.715 177.042L251.439 176.922C249.576 176.112 248.573 175.351 248.094 174.911C247.898 174.731 247.809 174.45 247.84 174.13L251.022 141.952L251.048 141.682L250.79 141.599C249.141 141.063 247.887 140.593 247.065 140.266C246.523 140.05 246.213 139.486 246.305 138.893L246.815 135.606L246.922 135.622L247.57 135.723L247.274 135.138C247.268 135.126 247.265 135.117 247.264 135.112C247.263 135.111 247.263 135.11 247.263 135.109C247.268 135.101 247.282 135.082 247.318 135.055C247.384 135.005 247.497 134.948 247.672 134.891C248.021 134.777 248.543 134.69 249.231 134.635C250.602 134.525 252.557 134.551 254.931 134.71L255.048 134.717L255.144 134.651C255.835 134.175 256.632 133.159 257.393 131.571C258.159 129.974 258.903 127.765 259.47 124.865C260.895 117.569 261.736 111.361 260.552 105.141C260.438 104.542 260.124 103.683 259.698 102.66C259.27 101.63 258.717 100.405 258.113 99.066L258.111 99.0622C256.628 95.7771 254.83 91.7907 253.722 88.1637C253.169 86.3503 252.793 84.6426 252.712 83.1681C252.631 81.6879 252.849 80.488 253.434 79.6474C253.617 79.3845 253.931 79.1358 254.395 78.913C254.857 78.6911 255.447 78.5043 256.154 78.3541C257.57 78.0538 259.413 77.9082 261.548 77.8972C265.814 77.8752 271.189 78.3909 276.506 79.2402C281.823 80.0895 287.066 81.27 291.068 82.5723C293.071 83.224 294.75 83.9022 295.97 84.5787C296.58 84.9171 297.065 85.2495 297.416 85.5706C297.77 85.8946 297.964 86.1864 298.035 86.4394C298.249 87.2069 298.136 88.0911 297.734 89.0882C297.333 90.085 296.654 91.1666 295.78 92.309C294.031 94.5952 291.546 97.0667 289.076 99.5229L289.054 99.5454C286.287 102.296 283.533 105.035 281.942 107.422C280.83 109.09 279.963 111.174 279.298 113.41L279.142 113.934L279.68 113.838C280.966 113.608 283.491 113.629 286.831 113.894C290.157 114.158 294.256 114.662 298.67 115.382C304.119 116.271 309.008 117.319 312.504 118.295C314.255 118.784 315.645 119.251 316.58 119.666C317.05 119.875 317.387 120.063 317.595 120.224C317.7 120.305 317.756 120.367 317.783 120.409C317.784 120.409 317.784 120.409 317.784 120.41L317.343 120.86L317.99 120.961L318.17 120.989L317.657 124.294C317.566 124.88 317.108 125.318 316.536 125.361C313.994 125.552 307.539 125.779 297.856 124.355C288.009 122.907 281.259 120.502 278.696 119.483C278.62 119.452 278.549 119.415 278.483 119.373L278.043 119.088L277.967 119.607C277.521 122.67 277.36 125.634 277.407 127.922C277.444 129.773 277.807 132.109 278.247 134.146C278.468 135.167 278.708 136.117 278.94 136.901C279.17 137.678 279.396 138.311 279.59 138.684L279.658 138.814L279.8 138.853C281.784 139.397 283.391 139.93 284.506 140.415C285.065 140.658 285.486 140.883 285.767 141.083C285.907 141.183 286.001 141.27 286.06 141.341C286.119 141.413 286.124 141.449 286.125 141.452ZM247.26 135.114C247.26 135.114 247.26 135.113 247.261 135.112L247.26 135.114Z" fill="#C4C4C4" stroke="black" stroke-width="0.673831"/>
  </mask>
  <g mask="url(#mask0_680_70124)">
  <rect x="318.098" y="289.929" width="135.807" height="226.497" rx="2" transform="rotate(-180 318.098 289.929)" fill="url(#paint0_linear_680_70124)"/>
  <g opacity="0.5">
  <g style="mix-blend-mode:overlay" opacity="0.5">
  <path d="M299.567 222.6C243.287 184.475 378.256 114.766 424.471 110.187H272.088C226.123 115.183 212.967 138.082 212.134 148.907V240.087C225.041 257.573 251.301 292.105 333.291 313.78C441.957 342.508 573.01 286.699 528.141 222.6C493.168 172.639 377.007 275.06 299.567 222.6Z" fill="white"/>
  </g>
  <g style="mix-blend-mode:overlay" opacity="0.5">
  <path fill-rule="evenodd" clip-rule="evenodd" d="M476.93 123.926C440.292 131.837 373.01 151.405 396.992 166.393C407.964 173.251 430.986 173.248 458.033 173.244C504.877 173.237 563.793 173.228 593.091 208.861C640.508 266.531 603.083 357.496 488.172 393.718C486.57 394.223 484.959 394.731 483.339 395.241C368.751 431.346 211.042 481.037 303.314 528.615C331.834 543.321 363.535 532.587 396.317 521.488C455.416 501.478 518.029 480.279 571.857 604.806H671.78C600.585 557.343 607.202 464.936 653.045 442.431C705.416 416.721 699.23 366.572 694.808 330.723C693.43 319.547 692.223 309.761 693.014 302.539V123.926H476.93ZM571.857 406.209C554.87 433.188 493.168 448.26 464.44 452.423C440.708 481.151 498.164 468.661 506.907 461.167C515.65 453.672 533.137 471.159 538.133 494.891C543.129 518.622 585.597 514.875 583.099 494.891C580.6 474.906 580.6 452.423 609.328 429.941C638.056 407.458 593.091 372.485 571.857 406.209Z" fill="white"/>
  </g>
  </g>
  <g opacity="0.6">
  <circle cx="231.232" cy="194.507" r="1.16688" fill="white"/>
  <circle cx="296.707" cy="274.818" r="1.16688" transform="rotate(75 296.707 274.818)" fill="white"/>
  <circle cx="225.164" cy="155.923" r="1.16688" fill="white"/>
  <circle cx="233.851" cy="177.882" r="1.16688" transform="rotate(75 233.851 177.882)" fill="white"/>
  <circle cx="234.762" cy="242.611" r="1.16688" transform="rotate(75 234.762 242.611)" fill="white"/>
  <circle cx="240.946" cy="226.619" r="1.16688" transform="rotate(75 240.946 226.619)" fill="white"/>
  <circle cx="219.095" cy="250.984" r="1.16688" fill="white"/>
  <circle cx="226.297" cy="268.31" r="1.16688" fill="white"/>
  <circle cx="239.013" cy="277.713" r="1.16688" transform="rotate(75 239.013 277.713)" fill="white"/>
  <circle cx="283.812" cy="219.482" r="1.16688" transform="rotate(75 283.812 219.482)" fill="white"/>
  <circle cx="236.323" cy="117.464" r="1.16688" fill="white"/>
  <circle cx="248.172" cy="87.3854" r="1.16688" fill="white"/>
  <circle cx="300.58" cy="85.1067" r="1.16688" fill="white"/>
  <circle cx="302.86" cy="117.008" r="1.16688" fill="white"/>
  <circle cx="257.287" cy="147.997" r="1.16688" fill="white"/>
  <circle cx="290.099" cy="147.997" r="1.16688" fill="white"/>
  <circle cx="274.604" cy="172.607" r="1.16688" fill="white"/>
  <circle cx="252.825" cy="188.106" r="1.16688" transform="rotate(75 252.825 188.106)" fill="white"/>
  <circle cx="311.781" cy="283.156" r="1.16688" transform="rotate(75 311.781 283.156)" fill="white"/>
  <circle cx="260.738" cy="285.89" r="1.16688" transform="rotate(75 260.738 285.89)" fill="white"/>
  <circle cx="259.827" cy="260.369" r="1.16688" transform="rotate(75 259.827 260.369)" fill="white"/>
  <circle cx="249.62" cy="206.2" r="1.16688" transform="rotate(75 249.62 206.2)" fill="white"/>
  <circle cx="268.571" cy="206.487" r="1.16688" fill="white"/>
  <circle cx="297.823" cy="263.622" r="1.16688" transform="rotate(165 297.823 263.622)" fill="white"/>
  <circle cx="246.634" cy="249.117" r="1.16688" fill="white"/>
  <circle cx="300.21" cy="248.486" r="1.16688" transform="rotate(165 300.21 248.486)" fill="white"/>
  <circle cx="272.46" cy="234.803" r="1.16688" fill="white"/>
  <circle cx="278.968" cy="268.997" r="1.16688" transform="rotate(165 278.968 268.997)" fill="white"/>
  <path d="M255.6 239.721L255.18 238.585L254.044 238.165L255.18 237.745L255.6 236.609L256.02 237.745L257.156 238.165L256.02 238.585L255.6 239.721Z" fill="#FFF7B0"/>
  <path d="M220.509 144.473L220.088 143.338L218.953 142.918L220.088 142.497L220.509 141.362L220.929 142.497L222.064 142.918L220.929 143.338L220.509 144.473Z" fill="#FFF7B0"/>
  <path d="M257.933 278.15L257.513 277.014L256.377 276.594L257.513 276.174L257.933 275.038L258.354 276.174L259.489 276.594L258.354 277.014L257.933 278.15Z" fill="#FFF7B0"/>
  <path d="M222.842 182.903L222.422 181.767L221.287 181.347L222.422 180.927L222.842 179.791L223.263 180.927L224.398 181.347L223.263 181.767L222.842 182.903Z" fill="#FFF7B0"/>
  <path d="M220.509 221.332L220.088 220.196L218.953 219.776L220.088 219.356L220.509 218.22L220.929 219.356L222.064 219.776L220.929 220.196L220.509 221.332Z" fill="#FFF7B0"/>
  <path d="M257.931 222.914L257.196 220.927L255.208 220.191L257.196 219.456L257.931 217.469L258.666 219.456L260.654 220.191L258.666 220.927L257.931 222.914Z" fill="#FFF7B0"/>
  <path d="M265.222 119.919L264.486 117.932L262.499 117.196L264.486 116.461L265.222 114.474L265.957 116.461L267.944 117.196L265.957 117.932L265.222 119.919Z" fill="#FFF7B0"/>
  <path d="M281.641 102.169L280.04 97.8447L275.716 96.2445L280.04 94.6444L281.641 90.32L283.241 94.6444L287.565 96.2445L283.241 97.8447L281.641 102.169Z" fill="#FFF7B0"/>
  </g>
  </g>
  <g filter="url(#filter0_d_680_70124)">
  <mask id="mask1_680_70124" style="mask-type:alpha" maskUnits="userSpaceOnUse" x="112" y="212" width="128" height="104">
  <path d="M205.982 315.45H176.559H145.384C122.516 315.45 108.299 292.998 113.716 269.712L115.607 261.585L125.528 212.455C136.098 221.295 153.514 225.872 176.559 225.872C199.603 225.872 211.686 220.431 224.674 212.455L235.757 261.585L237.648 269.703C243.071 292.991 228.854 315.45 205.982 315.45Z" fill="url(#paint1_radial_680_70124)" stroke="black" stroke-width="0.455729"/>
  </mask>
  <g mask="url(#mask1_680_70124)">
  <rect x="274.366" y="370.594" width="166.797" height="166.797" rx="0.911458" transform="rotate(-180 274.366 370.594)" fill="url(#paint2_linear_680_70124)"/>
  <g style="mix-blend-mode:overlay" filter="url(#filter1_f_680_70124)">
  <ellipse cx="263.736" cy="247.069" rx="273.297" ry="336.951" transform="rotate(0.126655 263.736 247.069)" fill="url(#paint3_radial_680_70124)"/>
  </g>
  <g opacity="0.5">
  <g style="mix-blend-mode:overlay" opacity="0.5">
  <path d="M141.261 210.18C115.613 192.805 177.122 161.037 198.183 158.95H128.738C107.79 161.227 101.795 171.662 101.415 176.596V218.149C107.297 226.118 119.265 241.855 156.63 251.733C206.152 264.825 265.877 239.391 245.429 210.18C229.491 187.411 176.553 234.087 141.261 210.18Z" fill="white"/>
  </g>
  <g style="mix-blend-mode:overlay" opacity="0.5">
  <path fill-rule="evenodd" clip-rule="evenodd" d="M222.091 165.211C205.394 168.816 174.731 177.734 185.66 184.565C190.661 187.69 201.153 187.689 213.479 187.687C234.827 187.684 261.677 187.68 275.029 203.918C296.638 230.2 279.582 271.656 227.214 288.164C226.484 288.394 225.75 288.625 225.011 288.858C172.791 305.311 100.918 327.957 142.969 349.64C155.966 356.342 170.413 351.45 185.353 346.392C212.286 337.273 240.821 327.612 265.352 384.362H310.89C278.444 362.732 281.46 320.619 302.351 310.363C326.219 298.647 323.399 275.792 321.384 259.455C320.756 254.362 320.206 249.902 320.567 246.61V165.211H222.091ZM265.352 293.856C257.61 306.151 229.491 313.02 216.399 314.917C205.583 328.009 231.768 322.317 235.752 318.902C239.737 315.486 247.706 323.455 249.983 334.271C252.26 345.086 271.613 343.378 270.475 334.271C269.336 325.163 269.336 314.917 282.429 304.671C295.521 294.425 275.029 278.487 265.352 293.856Z" fill="white"/>
  </g>
  <g style="mix-blend-mode:overlay" opacity="0.5">
  <path d="M147.523 273.933C171.43 273.933 170.292 293.287 147.523 297.271C125.328 301.155 103.673 307.203 103.123 319.105V320.04C103.109 319.725 103.109 319.413 103.123 319.105V260.831C112.309 266.027 130.402 273.933 147.523 273.933Z" fill="white"/>
  </g>
  </g>
  <g opacity="0.6">
  <ellipse rx="1.10576" ry="1.1626" transform="matrix(-0.961979 0.273124 -0.24516 -0.969483 232.683 277.476)" fill="white"/>
  <ellipse rx="1.10576" ry="1.1626" transform="matrix(-0.961979 0.273124 -0.24516 -0.969483 183.706 250.308)" fill="white"/>
  <ellipse rx="1.1626" ry="1.10576" transform="matrix(0.24516 0.969483 -0.961979 0.273124 153.019 227.878)" fill="white"/>
  <ellipse rx="1.10576" ry="1.1626" transform="matrix(-0.961979 0.273124 -0.24516 -0.969483 198.662 286.008)" fill="white"/>
  <ellipse rx="1.1626" ry="1.10576" transform="matrix(0.24516 0.969483 -0.961979 0.273124 186.711 212.03)" fill="white"/>
  <ellipse rx="1.1626" ry="1.10576" transform="matrix(0.24516 0.969483 -0.961979 0.273124 201.794 226.671)" fill="white"/>
  <ellipse rx="1.10576" ry="1.1626" transform="matrix(-0.961979 0.273124 -0.24516 -0.969483 235.929 237.414)" fill="white"/>
  <ellipse rx="1.10576" ry="1.1626" transform="matrix(-0.961979 0.273124 -0.24516 -0.969483 219.991 236.302)" fill="white"/>
  <ellipse rx="1.10576" ry="1.1626" transform="matrix(-0.961979 0.273124 -0.24516 -0.969483 166.618 295.75)" fill="white"/>
  <ellipse rx="1.1626" ry="1.10576" transform="matrix(0.24516 0.969483 -0.961979 0.273124 195.905 245.984)" fill="white"/>
  <ellipse rx="1.10576" ry="1.1626" transform="matrix(-0.961979 0.273124 -0.24516 -0.969483 149.543 292.545)" fill="white"/>
  <ellipse rx="1.1626" ry="1.10576" transform="matrix(0.24516 0.969483 -0.961979 0.273124 217.136 214.34)" fill="white"/>
  <ellipse rx="1.1626" ry="1.10576" transform="matrix(0.24516 0.969483 -0.961979 0.273124 167.245 236.215)" fill="white"/>
  <ellipse rx="1.1626" ry="1.10576" transform="matrix(0.24516 0.969483 -0.961979 0.273124 168.105 273.585)" fill="white"/>
  <ellipse rx="1.1626" ry="1.10576" transform="matrix(0.24516 0.969483 -0.961979 0.273124 119.075 238.95)" fill="white"/>
  <ellipse rx="1.1626" ry="1.10576" transform="matrix(0.24516 0.969483 -0.961979 0.273124 118.214 213.429)" fill="white"/>
  <ellipse rx="1.10576" ry="1.1626" transform="matrix(-0.961979 0.273124 -0.24516 -0.969483 146.741 248.401)" fill="white"/>
  <ellipse rx="1.1626" ry="1.10576" transform="matrix(0.24516 0.969483 -0.961979 0.273124 151.219 267.046)" fill="white"/>
  <ellipse rx="1.1626" ry="1.10576" transform="matrix(0.24516 0.969483 -0.961979 0.273124 239.502 213.885)" fill="white"/>
  <ellipse rx="1.10576" ry="1.1626" transform="matrix(-0.961979 0.273124 -0.24516 -0.969483 154.073 216.682)" fill="white"/>
  <ellipse rx="1.1626" ry="1.10576" transform="matrix(0.24516 0.969483 -0.961979 0.273124 121.285 259.277)" fill="white"/>
  <ellipse rx="1.1626" ry="1.10576" transform="matrix(0.24516 0.969483 -0.961979 0.273124 224.507 255.176)" fill="white"/>
  <ellipse rx="1.1626" ry="1.10576" transform="matrix(0.24516 0.969483 -0.961979 0.273124 210.223 252.788)" fill="white"/>
  <ellipse rx="1.10576" ry="1.1626" transform="matrix(-0.961979 0.273124 -0.24516 -0.969483 136.279 222.056)" fill="white"/>
  <ellipse rx="1.1626" ry="1.10576" transform="matrix(0.24516 0.969483 -0.961979 0.273124 126.356 278.132)" fill="white"/>
  <ellipse rx="1.1626" ry="1.10576" transform="matrix(0.24516 0.969483 -0.961979 0.273124 229.579 274.03)" fill="white"/>
  <path d="M116.427 231.21L116.031 230.074L114.959 229.654L116.031 229.234L116.427 228.098L116.824 229.234L117.896 229.654L116.824 230.074L116.427 231.21Z" fill="#7A6F0C"/>
  <path d="M114.225 269.639L113.828 268.503L112.757 268.083L113.828 267.663L114.225 266.527L114.621 267.663L115.693 268.083L114.621 268.503L114.225 269.639Z" fill="#7A6F0C"/>
  <path d="M134.854 276.485L134.16 274.497L132.285 273.762L134.16 273.027L134.854 271.039L135.548 273.027L137.424 273.762L135.548 274.497L134.854 276.485Z" fill="#7A6F0C"/>
  <path d="M239.283 228.643L238.589 226.656L236.713 225.92L238.589 225.185L239.283 223.198L239.977 225.185L241.852 225.92L239.977 226.656L239.283 228.643Z" fill="#7A6F0C"/>
  <path d="M129.716 254.392L129.022 252.404L127.146 251.669L129.022 250.934L129.716 248.946L130.41 250.934L132.285 251.669L130.41 252.404L129.716 254.392Z" fill="#7A6F0C"/>
  <path d="M229.224 256.648L228.828 255.513L227.756 255.093L228.828 254.672L229.224 253.537L229.621 254.672L230.693 255.093L229.621 255.513L229.224 256.648Z" fill="#7A6F0C"/>
  </g>
  </g>
  </g>
  <ellipse cx="275.03" cy="85.2993" rx="20.0253" ry="3.1901" transform="rotate(9.26455 275.03 85.2993)" fill="white" fill-opacity="0.45"/>
  <mask id="mask2_680_70124" style="mask-type:alpha" maskUnits="userSpaceOnUse" x="148" y="49" width="54" height="54">
  <path d="M148.568 49.7631H201.432V95.336C201.432 95.336 195.508 102.445 175 102.445C154.492 102.445 148.568 95.336 148.568 95.336V49.7631Z" fill="url(#paint4_radial_680_70124)"/>
  </mask>
  <g mask="url(#mask2_680_70124)">
  <rect x="242.223" y="187.004" width="133.35" height="147.652" rx="2" transform="rotate(-171.671 242.223 187.004)" fill="url(#paint5_linear_680_70124)"/>
  <g style="mix-blend-mode:overlay" filter="url(#filter2_f_680_70124)">
  <ellipse cx="251.379" cy="68.7798" rx="241.928" ry="298.276" transform="rotate(0.126655 251.379 68.7798)" fill="url(#paint6_radial_680_70124)"/>
  </g>
  <g opacity="0.5">
  <g style="mix-blend-mode:overlay" opacity="0.5">
  <path d="M118.353 92.6034C95.649 77.223 150.098 49.101 168.742 47.2534H107.268C88.7247 49.269 83.4171 58.5069 83.0811 62.874V99.6578C88.288 106.712 98.8821 120.643 131.958 129.387C175.797 140.977 228.666 118.462 210.565 92.6034C196.456 72.4478 149.594 113.767 118.353 92.6034Z" fill="white"/>
  </g>
  <g style="mix-blend-mode:overlay" opacity="0.5">
  <path fill-rule="evenodd" clip-rule="evenodd" d="M189.905 52.7961C175.125 55.9874 147.982 63.8816 157.657 69.9283C162.083 72.6949 171.371 72.6935 182.282 72.6919C201.18 72.689 224.948 72.6854 236.767 87.0605C255.896 110.326 240.798 147.023 194.44 161.636C193.794 161.84 193.144 162.044 192.491 162.25C146.264 176.816 82.6408 196.862 119.865 216.056C131.371 221.989 144.16 217.659 157.384 213.181C181.226 205.108 206.486 196.556 228.201 246.793H268.512C239.79 227.645 242.46 190.366 260.954 181.288C282.081 170.916 279.586 150.685 277.802 136.222C277.246 131.714 276.759 127.766 277.078 124.852V52.7961H189.905ZM228.201 166.675C221.348 177.559 196.456 183.639 184.867 185.319C175.293 196.908 198.472 191.869 201.999 188.846C205.526 185.823 212.58 192.877 214.596 202.451C216.612 212.025 233.744 210.513 232.736 202.451C231.728 194.389 231.728 185.319 243.318 176.249C254.907 167.179 236.767 153.07 228.201 166.675Z" fill="white"/>
  </g>
  </g>
  <g opacity="0.6">
  <circle cx="154.039" cy="55.7346" r="1.03294" fill="white"/>
  <circle cx="157.164" cy="98.3172" r="1.03294" transform="rotate(75 157.164 98.3172)" fill="white"/>
  <circle cx="162.639" cy="84.1605" r="1.03294" transform="rotate(75 162.639 84.1605)" fill="white"/>
  <circle cx="200.585" cy="77.8428" r="1.03294" transform="rotate(75 200.585 77.8428)" fill="white"/>
  <circle cx="173.154" cy="50.0683" r="1.03294" transform="rotate(75 173.154 50.0683)" fill="white"/>
  <circle cx="170.317" cy="66.085" r="1.03294" transform="rotate(75 170.317 66.085)" fill="white"/>
  <circle cx="187.093" cy="66.3396" r="1.03294" fill="white"/>
  <circle cx="190.536" cy="91.4056" r="1.03294" fill="white"/>
  <path d="M175.61 95.7587L175.238 94.7534L174.233 94.3814L175.238 94.0094L175.61 93.0041L175.982 94.0094L176.988 94.3814L175.982 94.7534L175.61 95.7587Z" fill="#FFF7B0"/>
  <path d="M177.674 80.8809L177.023 79.1216L175.264 78.4707L177.023 77.8197L177.674 76.0605L178.325 77.8197L180.084 78.4707L178.325 79.1216L177.674 80.8809Z" fill="#FFF7B0"/>
  </g>
  </g>
  <mask id="mask3_680_70124" style="mask-type:alpha" maskUnits="userSpaceOnUse" x="144" y="40" width="63" height="10">
  <rect x="144.466" y="40.6456" width="61.9792" height="9.11458" rx="2.27865" fill="#C4C4C4"/>
  </mask>
  <g mask="url(#mask3_680_70124)">
  <rect x="309.788" y="118.424" width="166.797" height="166.797" rx="0.911458" transform="rotate(-180 309.788 118.424)" fill="url(#paint7_linear_680_70124)"/>
  <g style="mix-blend-mode:overlay" filter="url(#filter3_f_680_70124)">
  <ellipse cx="299.158" cy="-5.10091" rx="273.297" ry="336.951" transform="rotate(0.126655 299.158 -5.10091)" fill="url(#paint8_radial_680_70124)"/>
  </g>
  <g opacity="0.5">
  <g style="mix-blend-mode:overlay" opacity="0.5">
  <path fill-rule="evenodd" clip-rule="evenodd" d="M257.514 -86.9591C240.817 -83.354 210.155 -74.4362 221.084 -67.6055C226.085 -64.4801 236.577 -64.4817 248.902 -64.4836C270.25 -64.4868 297.1 -64.4908 310.452 -48.2519C332.062 -21.97 315.006 19.4857 262.637 35.9932C261.908 36.2233 261.173 36.4547 260.435 36.6872C208.214 53.1411 136.342 75.7869 178.392 97.4694C191.39 104.171 205.837 99.2799 220.776 94.2216C247.71 85.1025 276.244 75.4412 300.775 132.192H346.313C313.868 110.562 316.883 68.4489 337.775 58.1929C361.642 46.4763 358.823 23.622 356.808 7.28419C356.18 2.19126 355.629 -2.26844 355.99 -5.56012V-86.9591H257.514ZM300.775 41.6855C293.034 53.9807 264.914 60.8493 251.822 62.7467C241.007 75.8389 267.191 70.1466 271.176 66.7313C275.16 63.316 283.13 71.2851 285.406 82.1003C287.683 92.9156 307.037 91.2079 305.898 82.1003C304.76 72.9928 304.76 62.7467 317.852 52.5007C330.944 42.2547 310.452 26.3164 300.775 41.6855Z" fill="white"/>
  </g>
  <g style="mix-blend-mode:overlay" opacity="0.5">
  <path d="M182.946 21.7626C206.854 21.7626 205.715 41.1162 182.946 45.1008C160.751 48.9849 139.097 55.0326 138.547 66.9346V67.8697C138.532 67.554 138.533 67.2424 138.547 66.9346V8.66058C147.733 13.857 165.826 21.7626 182.946 21.7626Z" fill="white"/>
  </g>
  </g>
  <g opacity="0.6">
  <path d="M161.209 47.7621L160.473 45.7748L158.486 45.0394L160.473 44.304L161.209 42.3167L161.944 44.304L163.931 45.0394L161.944 45.7748L161.209 47.7621Z" fill="#7A6F0C"/>
  </g>
  </g>
  <path d="M243.548 195.64C239.376 195.64 235.177 195.64 231.093 195.64M243.548 195.64H231.093M243.548 195.64C247.719 195.64 249.048 195.93 249.852 196.375C250.151 202.463 251.03 208.445 252.474 212.455C256.575 223.849 264.323 233.875 258.398 246.179C253.659 256.023 243.055 262.586 236.068 264.864M231.093 195.64C227.008 195.64 223.042 201.199 223.459 204.708L219.206 183.71C221.16 184.354 222.699 185.64 227.705 185.64M227.705 185.64C232.711 185.64 241.089 185.64 244.652 185.64M227.705 185.64H244.652M244.652 185.64C245.882 185.557 248.355 185.17 250.065 184.254C250.324 181.524 250.737 179.101 251.305 177.231M318.099 120.707L317.534 124.345C317.42 125.077 316.844 125.642 316.105 125.697C313.541 125.89 307.517 126.117 297.807 124.689C287.929 123.236 280.874 120.742 278.292 119.715M238.118 286.511C249.512 282.106 271.095 271.7 277.083 258.484C284.93 241.166 280.273 229.773 272.07 209.265C266.506 195.354 267.756 185.375 269.932 180.439M246.989 135.221L246.428 138.842C246.313 139.581 246.244 140.302 246.94 140.579C247.769 140.909 249.03 141.381 250.686 141.919M286.467 141.491L285.902 145.129C285.789 145.86 285.668 146.425 284.93 146.48C284.002 146.55 282.562 146.624 280.643 146.623M269.932 180.439C272.032 180.408 273.194 180.168 273.798 179.974C274.186 179.849 274.415 179.501 274.491 179.1L280.643 146.623M269.932 180.439C267.934 180.468 265.087 180.307 261.065 179.737C256.489 179.087 253.382 178.133 251.305 177.231M251.305 177.231C249.411 176.408 248.376 175.627 247.866 175.159C247.572 174.89 247.466 174.493 247.505 174.097L250.686 141.919M280.643 146.623C277.255 146.621 272.373 146.383 266.175 145.472C259.468 144.486 254.191 143.057 250.686 141.919M254.953 134.374C254.623 134.601 254.334 134.679 254.111 134.62C260.48 137.637 271.877 139.648 280.09 138.81C279.475 138.363 277.825 131.938 277.744 127.916C277.672 124.393 278.094 119.243 279.31 114.616C279.409 114.242 279.512 113.872 279.621 113.506M254.953 134.374C256.192 133.52 258.014 130.558 259.139 124.8C260.563 117.508 261.392 111.356 260.221 105.204C259.488 101.349 249.512 84.6959 253.157 79.455C256.803 74.2142 296.849 80.938 298.36 86.3489C299.87 91.7597 286.58 101.072 282.222 107.609C281.135 109.239 280.28 111.289 279.621 113.506M254.953 134.374C250.192 134.056 247.058 134.265 246.929 135.054C246.709 136.405 255.379 138.943 266.294 140.724C277.21 142.505 286.237 142.853 286.457 141.502C286.577 140.766 284.059 139.678 279.975 138.552M279.621 113.506C282.29 113.03 289.881 113.607 298.724 115.049C309.64 116.83 318.328 119.254 318.131 120.465C317.933 121.676 308.925 121.214 298.009 119.433C288.882 117.944 281.311 116.005 279.192 114.702M294.938 88.5957C294.654 90.3345 285.576 90.3008 274.66 88.5202C263.745 86.7397 255.126 83.8867 255.41 82.1478C255.693 80.4089 264.772 80.4427 275.687 82.2232C286.603 84.0038 295.222 86.8568 294.938 88.5957Z" stroke="black" stroke-width="0.911458"/>
  <path d="M225.13 212.455C225.13 212.455 206.617 226.127 175.228 226.127C143.839 226.127 125.326 212.455 125.326 212.455" stroke="black" stroke-width="0.911458"/>
  <path d="M201.433 95.333C201.433 95.333 192.774 102.169 175 102.169C157.227 102.169 148.568 95.333 148.568 95.333" stroke="black" stroke-width="0.911458"/>
  <g filter="url(#filter4_b_680_70124)">
  <mask id="path-107-inside-1_680_70124" fill="white">
  <path fill-rule="evenodd" clip-rule="evenodd" d="M147.107 50.1733C145.346 50.1733 143.917 48.745 143.917 46.9831V43.3799C143.917 41.618 145.346 40.1898 147.107 40.1898H203.712C205.474 40.1898 206.902 41.618 206.902 43.3799V46.9831C206.902 48.745 205.474 50.1733 203.712 50.1733H203.084C202.424 50.1733 201.888 50.7087 201.888 51.3691V96.9679C201.888 97.0468 201.896 97.1255 201.912 97.2028L213.06 152.835L225.178 211.109C225.184 211.139 225.221 211.152 225.244 211.132V211.132C225.268 211.112 225.304 211.124 225.31 211.154L236.173 260.87L237.619 268.133C243.059 291.731 229.704 315.906 206.761 315.906H176.334H144.151C121.212 315.906 108.313 291.738 113.746 268.142L115.192 260.87L125.13 211.156C125.137 211.126 125.173 211.113 125.197 211.133V211.133C125.221 211.153 125.257 211.14 125.263 211.11L148.819 93.5597C148.827 93.518 148.838 93.4773 148.85 93.4375C148.925 93.1963 149.024 92.9555 149.024 92.7027V51.3691C149.024 50.7087 148.488 50.1733 147.828 50.1733H147.107Z"/>
  </mask>
  <path d="M213.06 152.835L212.166 153.014L212.167 153.021L213.06 152.835ZM236.173 260.87L237.067 260.692L237.066 260.684L237.064 260.676L236.173 260.87ZM237.619 268.133L236.725 268.311L236.728 268.324L236.731 268.338L237.619 268.133ZM113.746 268.142L114.634 268.347L114.637 268.334L114.64 268.32L113.746 268.142ZM115.192 260.87L114.298 260.692L114.298 260.693L115.192 260.87ZM148.819 93.5597L149.713 93.7387L149.713 93.7387L148.819 93.5597ZM125.263 211.11L126.157 211.289L125.263 211.11ZM201.912 97.2028L202.805 97.0237L201.912 97.2028ZM125.13 211.156L124.237 210.977L125.13 211.156ZM148.85 93.4375L147.98 93.166L148.85 93.4375ZM225.31 211.154L224.42 211.349L225.31 211.154ZM225.178 211.109L226.071 210.923L225.178 211.109ZM143.006 46.9831C143.006 49.2484 144.842 51.0847 147.107 51.0847V49.2618C145.849 49.2618 144.829 48.2416 144.829 46.9831H143.006ZM143.006 43.3799V46.9831H144.829V43.3799H143.006ZM147.107 39.2783C144.842 39.2783 143.006 41.1146 143.006 43.3799H144.829C144.829 42.1214 145.849 41.1012 147.107 41.1012V39.2783ZM203.712 39.2783H147.107V41.1012H203.712V39.2783ZM207.814 43.3799C207.814 41.1146 205.977 39.2783 203.712 39.2783V41.1012C204.97 41.1012 205.991 42.1214 205.991 43.3799H207.814ZM207.814 46.9831V43.3799H205.991V46.9831H207.814ZM203.712 51.0847C205.977 51.0847 207.814 49.2484 207.814 46.9831H205.991C205.991 48.2416 204.97 49.2618 203.712 49.2618V51.0847ZM203.084 51.0847H203.712V49.2618H203.084V51.0847ZM202.8 96.9679V51.3691H200.977V96.9679H202.8ZM213.954 152.656L202.805 97.0237L201.018 97.3819L212.166 153.014L213.954 152.656ZM226.071 210.923L213.952 152.649L212.167 153.021L224.286 211.294L226.071 210.923ZM237.064 260.676L226.201 210.96L224.42 211.349L235.283 261.065L237.064 260.676ZM238.513 267.955L237.067 260.692L235.279 261.048L236.725 268.311L238.513 267.955ZM206.761 316.818C218.59 316.818 227.94 310.573 233.61 301.346C239.27 292.135 241.278 279.945 238.507 267.928L236.731 268.338C239.401 279.919 237.45 291.615 232.057 300.392C226.673 309.153 217.874 314.995 206.761 314.995V316.818ZM176.334 316.818H206.761V314.995H176.334V316.818ZM144.151 316.818H176.334V314.995H144.151V316.818ZM112.858 267.938C110.093 279.947 111.983 292.132 117.528 301.343C123.083 310.571 132.321 316.818 144.151 316.818V314.995C133.042 314.995 124.36 309.157 119.09 300.403C113.808 291.63 111.966 279.934 114.634 268.347L112.858 267.938ZM114.298 260.693L112.852 267.965L114.64 268.32L116.086 261.048L114.298 260.693ZM124.237 210.977L114.298 260.692L116.086 261.049L126.024 211.335L124.237 210.977ZM147.925 93.3806L124.369 210.931L126.157 211.289L149.713 93.7387L147.925 93.3806ZM147.98 93.166C147.958 93.236 147.94 93.3076 147.925 93.3806L149.713 93.7387C149.715 93.7285 149.717 93.7186 149.72 93.7091L147.98 93.166ZM148.112 51.3691V92.7027H149.935V51.3691H148.112ZM147.107 51.0847H147.828V49.2618H147.107V51.0847ZM149.935 51.3691C149.935 50.2053 148.992 49.2618 147.828 49.2618V51.0847C147.985 51.0847 148.112 51.212 148.112 51.3691H149.935ZM124.61 211.83C125.164 212.296 126.015 211.998 126.157 211.289L124.369 210.931C124.5 210.282 125.277 210.009 125.784 210.435L124.61 211.83ZM200.977 96.9679C200.977 97.1069 200.991 97.2456 201.018 97.3819L202.805 97.0237C202.802 97.0053 202.8 96.9866 202.8 96.9679H200.977ZM126.024 211.335C125.894 211.984 125.116 212.256 124.61 211.83L125.784 210.435C125.23 209.969 124.379 210.267 124.237 210.977L126.024 211.335ZM149.72 93.7091C149.761 93.5778 149.935 93.137 149.935 92.7027H148.112C148.112 92.7129 148.11 92.747 148.087 92.8294C148.076 92.87 148.062 92.9149 148.043 92.9724C148.026 93.0241 148.001 93.0973 147.98 93.166L149.72 93.7091ZM225.831 211.829C225.329 212.251 224.559 211.989 224.42 211.349L226.201 210.96C226.048 210.26 225.206 209.973 224.657 210.434L225.831 211.829ZM224.286 211.294C224.433 212 225.279 212.293 225.831 211.829L224.657 210.434C225.162 210.01 225.936 210.278 226.071 210.923L224.286 211.294ZM203.084 49.2618C201.92 49.2618 200.977 50.2053 200.977 51.3691H202.8C202.8 51.212 202.927 51.0847 203.084 51.0847V49.2618Z" fill="black" mask="url(#path-107-inside-1_680_70124)"/>
  </g>
  </g>
  <defs>
  <filter id="filter0_d_680_70124" x="110.059" y="212.035" width="132.16" height="109.112" filterUnits="userSpaceOnUse" color-interpolation-filters="sRGB">
  <feFlood flood-opacity="0" result="BackgroundImageFix"/>
  <feColorMatrix in="SourceAlpha" type="matrix" values="0 0 0 0 0 0 0 0 0 0 0 0 0 0 0 0 0 0 127 0" result="hardAlpha"/>
  <feOffset dx="0.455729" dy="2.73438"/>
  <feGaussianBlur stdDeviation="1.36719"/>
  <feComposite in2="hardAlpha" operator="out"/>
  <feColorMatrix type="matrix" values="0 0 0 0 0 0 0 0 0 0 0 0 0 0 0 0 0 0 0.25 0"/>
  <feBlend mode="normal" in2="BackgroundImageFix" result="effect1_dropShadow_680_70124"/>
  <feBlend mode="normal" in="SourceGraphic" in2="effect1_dropShadow_680_70124" result="shape"/>
  </filter>
  <filter id="filter1_f_680_70124" x="-14.1193" y="-94.4384" width="555.71" height="683.015" filterUnits="userSpaceOnUse" color-interpolation-filters="sRGB">
  <feFlood flood-opacity="0" result="BackgroundImageFix"/>
  <feBlend mode="normal" in="SourceGraphic" in2="BackgroundImageFix" result="shape"/>
  <feGaussianBlur stdDeviation="2.27865" result="effect1_foregroundBlur_680_70124"/>
  </filter>
  <filter id="filter2_f_680_70124" x="5.41584" y="-233.53" width="491.926" height="604.619" filterUnits="userSpaceOnUse" color-interpolation-filters="sRGB">
  <feFlood flood-opacity="0" result="BackgroundImageFix"/>
  <feBlend mode="normal" in="SourceGraphic" in2="BackgroundImageFix" result="shape"/>
  <feGaussianBlur stdDeviation="2.0171" result="effect1_foregroundBlur_680_70124"/>
  </filter>
  <filter id="filter3_f_680_70124" x="21.3029" y="-346.609" width="555.71" height="683.015" filterUnits="userSpaceOnUse" color-interpolation-filters="sRGB">
  <feFlood flood-opacity="0" result="BackgroundImageFix"/>
  <feBlend mode="normal" in="SourceGraphic" in2="BackgroundImageFix" result="shape"/>
  <feGaussianBlur stdDeviation="2.27865" result="effect1_foregroundBlur_680_70124"/>
  </filter>
  <filter id="filter4_b_680_70124" x="98.1596" y="25.8395" width="155.02" height="304.417" filterUnits="userSpaceOnUse" color-interpolation-filters="sRGB">
  <feFlood flood-opacity="0" result="BackgroundImageFix"/>
  <feGaussianBlur in="BackgroundImage" stdDeviation="7.17515"/>
  <feComposite in2="SourceAlpha" operator="in" result="effect1_backgroundBlur_680_70124"/>
  <feBlend mode="normal" in="SourceGraphic" in2="effect1_backgroundBlur_680_70124" result="shape"/>
  </filter>
  <linearGradient id="paint0_linear_680_70124" x1="462.101" y1="263.57" x2="518.185" y2="573.646" gradientUnits="userSpaceOnUse">
  <stop stop-color="#003802"/>
  <stop offset="0.473958" stop-color="#00B806" stop-opacity="0.98"/>
  <stop offset="1" stop-color="#B5FFB7" stop-opacity="0.98"/>
  </linearGradient>
  <radialGradient id="paint1_radial_680_70124" cx="0" cy="0" r="1" gradientUnits="userSpaceOnUse" gradientTransform="translate(231.779 201.518) rotate(136.943) scale(153.528 198.077)">
  <stop stop-color="#FF0000"/>
  <stop offset="0.530354" stop-color="#FFE925"/>
  <stop offset="1" stop-color="#289B04"/>
  </radialGradient>
  <linearGradient id="paint2_linear_680_70124" x1="460.777" y1="474.956" x2="295.018" y2="492.932" gradientUnits="userSpaceOnUse">
  <stop stop-color="#003802"/>
  <stop offset="0.473958" stop-color="#00B806" stop-opacity="0.98"/>
  <stop offset="1" stop-color="#003802"/>
  </linearGradient>
  <radialGradient id="paint3_radial_680_70124" cx="0" cy="0" r="1" gradientUnits="userSpaceOnUse" gradientTransform="translate(263.736 296.83) rotate(92.5586) scale(219.36 178.105)">
  <stop offset="0.479167" stop-color="white" stop-opacity="0.75"/>
  <stop offset="1" stop-color="white" stop-opacity="0"/>
  </radialGradient>
  <radialGradient id="paint4_radial_680_70124" cx="0" cy="0" r="1" gradientUnits="userSpaceOnUse" gradientTransform="translate(198.491 44.4395) rotate(132.639) scale(69.3519 89.3771)">
  <stop stop-color="#FF0000"/>
  <stop offset="0.530354" stop-color="#FFE925"/>
  <stop offset="1" stop-color="#6DF244"/>
  </radialGradient>
  <linearGradient id="paint5_linear_680_70124" x1="350.844" y1="279.606" x2="301.764" y2="284.413" gradientUnits="userSpaceOnUse">
  <stop stop-color="#003802"/>
  <stop offset="0.473958" stop-color="#00B806" stop-opacity="0.98"/>
  <stop offset="1" stop-color="#003802"/>
  </linearGradient>
  <radialGradient id="paint6_radial_680_70124" cx="0" cy="0" r="1" gradientUnits="userSpaceOnUse" gradientTransform="translate(251.379 112.829) rotate(92.5586) scale(194.182 157.662)">
  <stop offset="0.479167" stop-color="white" stop-opacity="0.75"/>
  <stop offset="1" stop-color="white" stop-opacity="0"/>
  </radialGradient>
  <linearGradient id="paint7_linear_680_70124" x1="482.402" y1="223.033" x2="408.531" y2="231.045" gradientUnits="userSpaceOnUse">
  <stop stop-color="#003802"/>
  <stop offset="0.473958" stop-color="#00B806" stop-opacity="0.98"/>
  <stop offset="1" stop-color="#003802"/>
  </linearGradient>
  <radialGradient id="paint8_radial_680_70124" cx="0" cy="0" r="1" gradientUnits="userSpaceOnUse" gradientTransform="translate(299.158 44.6597) rotate(92.5586) scale(219.36 178.105)">
  <stop offset="0.479167" stop-color="white" stop-opacity="0.75"/>
  <stop offset="1" stop-color="white" stop-opacity="0"/>
  </radialGradient>
  <clipPath id="clip0_680_70124">
  <rect width="350" height="350" fill="white" transform="translate(0 0.99707)"/>
  </clipPath>
  </defs>

    
    <path d="M148.647 94.3351L124.888 210.017C124.817 210.363 124.947 210.714 125.237 210.915C128.356 213.082 146.958 225.128 174.998 225.128C203.038 225.128 221.64 213.082 224.76 210.915C225.05 210.714 225.18 210.363 225.109 210.017L201.35 94.3351C201.316 94.4021 201.271 94.4644 201.216 94.5198C199.881 95.8685 193.226 101.484 174.998 101.484C156.771 101.484 150.116 95.8685 148.78 94.5198C148.725 94.4644 148.681 94.4021 148.647 94.3351Z" fill="#FFFFFF" fill-opacity="0.75"/>;
    
    <!-- Color -->
    <path d="M201.049 94.2304L205.113 114.031C203.523 113.76 201.871 113.447 200.18 113.127C186.038 110.452 169.252 107.276 165.003 123.73C163.148 130.914 165.836 135.212 168.45 139.394C170.975 143.43 173.431 147.358 171.668 153.669C169.523 161.35 157.859 166.325 148.479 162.994C138.57 159.476 139.266 144.903 144.961 137.849C150.656 130.794 151.48 120.031 150.656 112.87C150.259 109.409 148.549 106.935 146.313 105.251L148.649 93.8801C148.683 93.9471 148.727 94.0094 148.782 94.0649C150.117 95.4136 156.772 101.03 175 101.03C192.557 101.03 199.378 95.8189 201.049 94.2304Z" fill="url(#paint0_radial_702_67017)"/>

    <!-- Filter -->
    <mask id="mask0_702_67017" style="mask-type:alpha" maskUnits="userSpaceOnUse" x="140" y="93" width="66" height="72">
      <path d="M201.049 94.2304L205.113 114.031C203.523 113.76 201.871 113.447 200.18 113.127C186.038 110.452 169.252 107.276 165.003 123.73C163.148 130.914 165.836 135.212 168.45 139.394C170.975 143.43 173.431 147.358 171.668 153.669C169.523 161.35 157.859 166.325 148.479 162.994C138.57 159.476 139.266 144.903 144.961 137.849C150.656 130.794 151.48 120.031 150.656 112.87C150.259 109.409 148.549 106.935 146.313 105.251L148.649 93.8801C148.683 93.9471 148.727 94.0094 148.782 94.0649C150.117 95.4136 156.772 101.03 175 101.03C192.557 101.03 199.378 95.8189 201.049 94.2304Z" fill="url(#paint1_radial_702_67017)"/>
    </mask>
    <g mask="url(#mask0_702_67017)">
      <g filter="url(#filter0_f_702_67017)">
        <mask id="mask1_702_67017" style="mask-type:alpha" maskUnits="userSpaceOnUse" x="124" y="94" width="102" height="132">
          <path d="M148.862 95.0637C148.949 94.6399 149.322 94.3357 149.754 94.3357H200.246C200.678 94.3357 201.051 94.6399 201.138 95.0637L224.993 211.158C225.074 211.554 224.888 211.954 224.527 212.137C220.624 214.108 198.375 224.817 175 225.127C151.578 225.438 129.287 214.178 125.45 212.14C125.099 211.954 124.924 211.562 125.004 211.173L148.862 95.0637Z" fill="#577096" fill-opacity="0.75"/>
        </mask>
        <g mask="url(#mask1_702_67017)">
          <g filter="url(#filter1_f_702_67017)">
            <path d="M207.208 76.1064C210.866 110.268 145.941 132.571 113.021 139.453L113.021 76.1064L207.208 76.1064Z" fill="url(#paint2_linear_702_67017)" fill-opacity="0.5"/>
          </g>
          <g filter="url(#filter2_f_702_67017)">
            <path d="M155.407 125.301C156.469 105.018 134.471 86.1828 128.929 66.9985C133.388 65.1973 144.05 70.7896 152.675 76.1247C163.456 82.7936 162.879 109.124 164.625 125.784C166.022 139.112 148.453 223.401 144.015 241.481L131.716 240.837C140.242 214.68 154.587 140.955 155.407 125.301Z" fill="url(#paint3_linear_702_67017)" fill-opacity="0.6"/>
          </g>
        </g>
      </g>
    </g>

    <defs>
      <!-- Color -->
      <radialGradient id="paint0_radial_702_67017" cx="0" cy="0" r="1" gradientUnits="userSpaceOnUse" gradientTransform="translate(155.882 109.102) rotate(53.1177) scale(37.8177 40.2646)">
        <stop offset="0.203125" style="stop-color: #71FF30;"/>
        <stop offset="0.890625" style="stop-color: #25BC46;"/>
      </radialGradient>

      <!-- Filter -->
      <filter id="filter0_f_702_67017" x="122.591" y="92.057" width="104.818" height="135.355" filterUnits="userSpaceOnUse" color-interpolation-filters="sRGB">
        <feFlood flood-opacity="0" result="BackgroundImageFix"/>
        <feBlend mode="normal" in="SourceGraphic" in2="BackgroundImageFix" result="shape"/>
        <feGaussianBlur stdDeviation="1.13932" result="effect1_foregroundBlur_702_67017"/>
      </filter>
      <filter id="filter1_f_702_67017" x="112.109" y="75.195" width="96.1589" height="65.1694" filterUnits="userSpaceOnUse" color-interpolation-filters="sRGB">
        <feFlood flood-opacity="0" result="BackgroundImageFix"/>
        <feBlend mode="normal" in="SourceGraphic" in2="BackgroundImageFix" result="shape"/>
        <feGaussianBlur stdDeviation="0.455729" result="effect1_foregroundBlur_702_67017"/>
      </filter>
      <filter id="filter2_f_702_67017" x="128.017" y="65.7426" width="37.5979" height="176.65" filterUnits="userSpaceOnUse" color-interpolation-filters="sRGB">
        <feFlood flood-opacity="0" result="BackgroundImageFix"/>
        <feBlend mode="normal" in="SourceGraphic" in2="BackgroundImageFix" result="shape"/>
        <feGaussianBlur stdDeviation="0.455729" result="effect1_foregroundBlur_702_67017"/>
      </filter>
      <radialGradient id="paint1_radial_702_67017" cx="0" cy="0" r="1" gradientUnits="userSpaceOnUse" gradientTransform="translate(155.882 109.102) rotate(53.1177) scale(37.8177 40.2646)">
        <stop offset="0.203125" stop-color="#71FF30"/>
        <stop offset="0.890625" stop-color="#25BC46"/>
      </radialGradient>
      <linearGradient id="paint2_linear_702_67017" x1="145.215" y1="123.01" x2="155.829" y2="72.2914" gradientUnits="userSpaceOnUse">
        <stop stop-color="white" stop-opacity="0"/>
        <stop offset="0.471361" stop-color="white"/>
        <stop offset="1" stop-color="white"/>
      </linearGradient>
      <linearGradient id="paint3_linear_702_67017" x1="160.729" y1="220.938" x2="201.954" y2="178" gradientUnits="userSpaceOnUse">
        <stop stop-color="#F2F2F2"/>
        <stop offset="0.0001" stop-color="#F2F2F2"/>
        <stop offset="0.0520833" stop-color="#F2F2F2" stop-opacity="0.948011"/>
        <stop offset="1" stop-color="#F2F2F2" stop-opacity="0"/>
      </linearGradient>
    </defs>
  
    
    <!-- Color -->
    <path d="M177.734 130.914C177.734 127.951 179.774 122.048 187.933 122.136C196.091 122.224 198.203 128.025 198.239 130.914C198.312 133.035 197.089 137.629 191.621 139.033C184.786 140.789 177.734 136.839 177.734 130.914Z" fill="url(#paint0_radial_702_67018)"/>

    <defs>
      <!-- Color -->
      <radialGradient id="paint0_radial_702_67018" cx="0" cy="0" r="1" gradientUnits="userSpaceOnUse" gradientTransform="translate(182.539 125.892) rotate(45.8803) scale(10.3998 11.5271)">
        <stop offset="0.203125" style="stop-color: #FFB800;"/>
        <stop offset="0.890625" style="stop-color: #FF7800;"/>
      </radialGradient>
    </defs>
  
    
    <!-- Color -->
    <path d="M214.052 156.619L218.831 179.91C216.932 182.156 214.118 184.13 210.037 185.164C197.278 188.398 184.115 181.122 184.115 170.207C184.115 164.75 187.922 153.876 203.151 154.038C207.743 154.087 211.309 155.092 214.052 156.619Z" fill="url(#paint0_radial_702_67019)"/>

    <defs>
      <!-- Color -->
      <radialGradient id="paint0_radial_702_67019" cx="0" cy="0" r="1" gradientUnits="userSpaceOnUse" gradientTransform="translate(192.248 160.957) rotate(48.2936) scale(18.4215 20.2932)">
        <stop offset="0.203125" style="stop-color: #FFB800;"/>
        <stop offset="0.890625" style="stop-color: #FF7800;"/>
      </radialGradient>
    </defs>
  
    
    <!-- Color -->
    <path d="M223.109 211.89C217.522 215.445 199.996 225.13 174.887 225.13C146.901 225.13 128.335 213.098 125.221 210.933C125.032 210.801 124.911 210.606 124.87 210.39C128.808 199.004 144.115 175.86 164.064 181.919C173.943 184.919 180.859 192.452 187.364 199.536C197.438 210.508 206.525 220.404 224.106 210.722C223.783 211.11 223.451 211.499 223.109 211.89Z" fill="url(#paint0_radial_702_67020)"/>

    <!-- Filter -->
    <mask id="mask0_702_67020" style="mask-type:alpha" maskUnits="userSpaceOnUse" x="124" y="180" width="101" height="46">
      <path d="M223.109 211.89C217.522 215.445 199.996 225.13 174.887 225.13C146.901 225.13 128.335 213.098 125.221 210.933C125.032 210.802 124.911 210.606 124.87 210.39C128.808 199.004 144.115 175.86 164.064 181.919C173.943 184.92 180.859 192.452 187.364 199.536C197.438 210.508 206.525 220.405 224.106 210.722C223.783 211.11 223.451 211.499 223.109 211.89Z" fill="url(#paint1_radial_702_67020)"/>
    </mask>
    <g mask="url(#mask0_702_67020)">
      <g filter="url(#filter0_f_702_67020)">
        <mask id="mask1_702_67020" style="mask-type:alpha" maskUnits="userSpaceOnUse" x="124" y="94" width="102" height="132">
          <path d="M148.862 95.0639C148.949 94.6401 149.322 94.3359 149.754 94.3359H200.246C200.678 94.3359 201.051 94.6401 201.138 95.0639L224.993 211.159C225.074 211.555 224.888 211.955 224.527 212.137C220.624 214.109 198.375 224.817 175 225.128C151.578 225.438 129.287 214.178 125.45 212.141C125.099 211.954 124.924 211.562 125.004 211.173L148.862 95.0639Z" fill="#577096" fill-opacity="0.75"/>
        </mask>
        <g mask="url(#mask1_702_67020)">
          <g filter="url(#filter1_f_702_67020)">
            <path d="M155.407 125.301C156.469 105.018 134.471 86.183 128.929 66.9987C133.388 65.1975 144.05 70.7899 152.675 76.125C163.456 82.7938 162.879 109.124 164.625 125.784C166.022 139.112 148.453 223.401 144.015 241.482L131.716 240.837C140.242 214.68 154.587 140.955 155.407 125.301Z" fill="url(#paint2_linear_702_67020)" fill-opacity="0.6"/>
          </g>
        </g>
      </g>
    </g>

    <defs>
      <!-- Color -->
      <radialGradient id="paint0_radial_702_67020" cx="0" cy="0" r="1" gradientUnits="userSpaceOnUse" gradientTransform="translate(148.118 190.514) rotate(28.5454) scale(39.8814 37.1287)">
        <stop offset="0.203125" style="stop-color: #71FF30;"/>
        <stop offset="0.890625" style="stop-color: #25BC46;"/>
      </radialGradient>

      <!-- Filter -->
      <filter id="filter0_f_702_67020" x="122.591" y="92.0573" width="104.818" height="135.355" filterUnits="userSpaceOnUse" color-interpolation-filters="sRGB">
        <feFlood flood-opacity="0" result="BackgroundImageFix"/>
        <feBlend mode="normal" in="SourceGraphic" in2="BackgroundImageFix" result="shape"/>
        <feGaussianBlur stdDeviation="1.13932" result="effect1_foregroundBlur_702_67020"/>
      </filter>
      <filter id="filter1_f_702_67020" x="128.017" y="65.7428" width="37.5979" height="176.65" filterUnits="userSpaceOnUse" color-interpolation-filters="sRGB">
        <feFlood flood-opacity="0" result="BackgroundImageFix"/>
        <feBlend mode="normal" in="SourceGraphic" in2="BackgroundImageFix" result="shape"/>
        <feGaussianBlur stdDeviation="0.455729" result="effect1_foregroundBlur_702_67020"/>
      </filter>
      <radialGradient id="paint1_radial_702_67020" cx="0" cy="0" r="1" gradientUnits="userSpaceOnUse" gradientTransform="translate(146.218 191.259) rotate(27.3324) scale(58.602 42.3474)">
        <stop offset="0.302083" stop-color="#FFB800"/>
        <stop offset="1" stop-color="#FF7800"/>
      </radialGradient>
      <linearGradient id="paint2_linear_702_67020" x1="160.729" y1="220.939" x2="201.954" y2="178" gradientUnits="userSpaceOnUse">
        <stop stop-color="#F2F2F2"/>
        <stop offset="0.0001" stop-color="#F2F2F2"/>
        <stop offset="0.0520833" stop-color="#F2F2F2" stop-opacity="0.948011"/>
        <stop offset="1" stop-color="#F2F2F2" stop-opacity="0"/>
      </linearGradient>
    </defs>
  
  
    </svg>
  