
    <svg width="350" height="350" viewBox="0 0 350 350" fill="none" xmlns="http://www.w3.org/2000/svg">
    
  <g clip-path="url(#clip0_28_290)">
  <rect x="0.0789795" y="0.0444336" width="350" height="350" fill="black" fill-opacity="0.89"/>
  <rect x="0.0789795" y="0.0444336" width="350" height="350" fill="url(#paint0_radial_28_290)" fill-opacity="0.2"/>
  <path d="M125.979 290.538L299.832 190.751L430.987 233.879L230.789 294.049L125.979 290.538Z" fill="url(#paint1_linear_28_290)"/>
  <g opacity="0.45" filter="url(#filter0_f_28_290)">
  <ellipse rx="194.596" ry="66.7643" transform="matrix(0.999998 0.00221055 0.00221055 -0.999998 176.078 304.637)" fill="url(#paint2_radial_28_290)"/>
  </g>
  <g opacity="0.7" filter="url(#filter1_f_28_290)">
  <ellipse cx="174.396" cy="137.609" rx="196.647" ry="242.448" transform="rotate(0.126655 174.396 137.609)" fill="url(#paint3_radial_28_290)"/>
  </g>
  </g>
  <defs>
  <filter id="filter0_f_28_290" x="-23.0754" y="233.314" width="398.306" height="142.646" filterUnits="userSpaceOnUse" color-interpolation-filters="sRGB">
  <feFlood flood-opacity="0" result="BackgroundImageFix"/>
  <feBlend mode="normal" in="SourceGraphic" in2="BackgroundImageFix" result="shape"/>
  <feGaussianBlur stdDeviation="2.27865" result="effect1_foregroundBlur_28_290"/>
  </filter>
  <filter id="filter1_f_28_290" x="-26.8086" y="-109.396" width="402.41" height="494.01" filterUnits="userSpaceOnUse" color-interpolation-filters="sRGB">
  <feFlood flood-opacity="0" result="BackgroundImageFix"/>
  <feBlend mode="normal" in="SourceGraphic" in2="BackgroundImageFix" result="shape"/>
  <feGaussianBlur stdDeviation="2.27865" result="effect1_foregroundBlur_28_290"/>
  </filter>
  <radialGradient id="paint0_radial_28_290" cx="0" cy="0" r="1" gradientUnits="userSpaceOnUse" gradientTransform="translate(156.622 401.542) rotate(-84.441) scale(239.93 241.682)">
  <stop/>
  <stop offset="1" stop-opacity="0"/>
  </radialGradient>
  <linearGradient id="paint1_linear_28_290" x1="194.836" y1="271.638" x2="316.537" y2="167.936" gradientUnits="userSpaceOnUse">
  <stop/>
  <stop offset="1" stop-color="#333333" stop-opacity="0"/>
  </linearGradient>
  <radialGradient id="paint2_radial_28_290" cx="0" cy="0" r="1" gradientUnits="userSpaceOnUse" gradientTransform="translate(194.596 76.624) rotate(99.1226) scale(43.9775 125.337)">
  <stop stop-color="#737373"/>
  <stop offset="1" stop-color="#9A9A9A" stop-opacity="0"/>
  </radialGradient>
  <radialGradient id="paint3_radial_28_290" cx="0" cy="0" r="1" gradientUnits="userSpaceOnUse" gradientTransform="translate(174.396 173.413) rotate(92.5586) scale(157.837 128.153)">
  <stop stop-color="#737373"/>
  <stop offset="1" stop-color="#9A9A9A" stop-opacity="0"/>
  </radialGradient>
  <clipPath id="clip0_28_290">
  <rect width="350" height="350" fill="white"/>
  </clipPath>
  </defs>
  
    
  <g clip-path="url(#clip0_589_112918)">
  <g opacity="0.7" filter="url(#filter0_f_589_112918)">
  <g style="mix-blend-mode:overlay" opacity="0.5">
  <path d="M318.703 93.5382C372.228 106.145 243.865 129.196 199.912 130.711L344.837 130.711C388.551 129.058 401.064 121.486 401.856 117.907L401.856 87.7559C389.581 81.9735 364.605 70.5548 286.629 63.3873C183.282 53.8877 58.6433 72.3424 101.316 93.5382C134.577 110.059 245.053 76.1911 318.703 93.5382Z" fill="white" fill-opacity="0.5"/>
  </g>
  <g style="mix-blend-mode:overlay" opacity="0.5">
  <path fill-rule="evenodd" clip-rule="evenodd" d="M150.02 126.167C184.865 123.551 248.854 117.08 226.046 112.124C215.611 109.856 193.715 109.858 167.992 109.859C123.442 109.861 67.4092 109.864 39.5451 98.0813C-5.55154 79.0113 30.0418 48.9311 139.329 36.9534C140.852 36.7864 142.385 36.6186 143.925 36.4498C252.904 24.511 402.894 8.0793 315.139 -7.6534C288.014 -12.5163 257.865 -8.96709 226.688 -5.29685C170.481 1.31995 110.933 8.33014 59.7394 -32.848L-35.293 -32.848C32.4176 -17.153 26.1242 13.4037 -17.4744 20.8454C-67.2825 29.3469 -61.3993 45.9299 -57.1937 57.7845C-55.8826 61.4799 -54.7346 64.7159 -55.4874 67.1043L-55.4874 126.167L150.02 126.167ZM59.7394 32.8231C75.8949 23.9018 134.577 18.9179 161.899 17.5412C184.47 8.04157 129.826 12.1718 121.511 14.65C113.195 17.1281 96.5645 11.3458 91.8129 3.49828C87.0613 -4.34922 46.6725 -3.11013 49.0483 3.49828C51.4241 10.1067 51.4241 17.5412 24.1023 24.9756C-3.2195 32.4101 39.5451 43.9748 59.7394 32.8231Z" fill="white" fill-opacity="0.5"/>
  </g>
  <g style="mix-blend-mode:overlay" opacity="0.5">
  <path d="M305.636 47.2788C255.744 47.2788 258.12 33.2359 305.636 30.3448C351.954 27.5265 397.144 23.1383 398.292 14.5022L398.292 13.8237C398.322 14.0528 398.322 14.2789 398.292 14.5022L398.292 56.7856C379.122 53.0151 341.364 47.2788 305.636 47.2788Z" fill="white" fill-opacity="0.5"/>
  </g>
  </g>
  </g>
  <defs>
  <filter id="filter0_f_589_112918" x="-68.9974" y="-41.9626" width="479.968" height="181.788" filterUnits="userSpaceOnUse" color-interpolation-filters="sRGB">
  <feFlood flood-opacity="0" result="BackgroundImageFix"/>
  <feBlend mode="normal" in="SourceGraphic" in2="BackgroundImageFix" result="shape"/>
  <feGaussianBlur stdDeviation="4.55729" result="effect1_foregroundBlur_589_112918"/>
  </filter>
  <clipPath id="clip0_589_112918">
  <path d="M0 0H350V350H0V0Z" fill="white"/>
  </clipPath>
  </defs>


    
  <g filter="url(#filter0_d_559_36466)">
  <path d="M216.24 25.3087C216.24 25.3087 216.24 25.3124 216.238 25.3199C216.238 25.3125 216.239 25.3087 216.24 25.3087ZM215.963 24.9666C216.147 25.1635 216.21 25.2863 216.231 25.3395C216.21 25.3928 216.147 25.5156 215.963 25.7125C215.626 26.0741 215.016 26.5326 214.038 27.0399C212.086 28.0515 209.113 29.0303 205.248 29.8777C197.555 31.5642 186.818 32.6265 174.883 32.6265C162.947 32.6265 152.211 31.5642 144.518 29.8777C140.653 29.0303 137.679 28.0515 135.727 27.0399C134.749 26.5326 134.14 26.0741 133.802 25.7125C133.618 25.5156 133.555 25.3928 133.534 25.3395C133.555 25.2863 133.618 25.1635 133.802 24.9666C134.14 24.605 134.749 24.1465 135.727 23.6392C137.679 22.6276 140.653 21.6487 144.518 20.8014C152.211 19.1149 162.947 18.0526 174.883 18.0526C186.818 18.0526 197.555 19.1149 205.248 20.8014C209.113 21.6487 212.086 22.6276 214.038 23.6392C215.016 24.1465 215.626 24.605 215.963 24.9666ZM133.526 25.3087C133.526 25.3087 133.527 25.3125 133.528 25.3199C133.526 25.3124 133.525 25.3087 133.526 25.3087ZM133.526 25.3704C133.525 25.3704 133.526 25.3667 133.528 25.3592C133.527 25.3666 133.526 25.3704 133.526 25.3704ZM216.238 25.3591C216.24 25.3667 216.24 25.3704 216.24 25.3704C216.239 25.3703 216.238 25.3666 216.238 25.3591Z" stroke="#FDF21B" stroke-width="4.55729" shape-rendering="crispEdges"/>
  </g>
  <defs>
  <filter id="filter0_d_559_36466" x="127.926" y="12.4498" width="93.9133" height="25.7795" filterUnits="userSpaceOnUse" color-interpolation-filters="sRGB">
  <feFlood flood-opacity="0" result="BackgroundImageFix"/>
  <feColorMatrix in="SourceAlpha" type="matrix" values="0 0 0 0 0 0 0 0 0 0 0 0 0 0 0 0 0 0 127 0" result="hardAlpha"/>
  <feOffset/>
  <feGaussianBlur stdDeviation="1.66205"/>
  <feComposite in2="hardAlpha" operator="out"/>
  <feColorMatrix type="matrix" values="0 0 0 0 1 0 0 0 0 1 0 0 0 0 1 0 0 0 1 0"/>
  <feBlend mode="normal" in2="BackgroundImageFix" result="effect1_dropShadow_559_36466"/>
  <feBlend mode="normal" in="SourceGraphic" in2="effect1_dropShadow_559_36466" result="shape"/>
  </filter>
  </defs>
    
    
  <g clip-path="url(#clip0_680_67793)">
  <path d="M155.659 62.9373C159.113 49.9597 161.899 33.354 174.786 33.354C187.672 33.354 192.186 53.9145 194.342 63.2537C196.266 71.588 200.403 90.5211 201.271 94.4992C201.375 94.9779 201.26 95.4596 200.903 95.7954C199.08 97.5118 192.205 102.625 175 102.625C157.732 102.625 150.87 97.4738 149.078 95.7764C148.734 95.4508 148.616 94.9854 148.705 94.5204C149.398 90.9011 152.6 74.4298 155.659 62.9373Z" fill="black"/>
  <path d="M155.659 62.9373C159.113 49.9597 161.899 33.354 174.786 33.354C187.672 33.354 192.186 53.9145 194.342 63.2537C196.266 71.588 200.403 90.5211 201.271 94.4992C201.375 94.9779 201.26 95.4596 200.903 95.7954C199.08 97.5118 192.205 102.625 175 102.625C157.732 102.625 150.87 97.4738 149.078 95.7764C148.734 95.4508 148.616 94.9854 148.705 94.5204C149.398 90.9011 152.6 74.4298 155.659 62.9373Z" fill="url(#paint0_linear_680_67793)" fill-opacity="0.45"/>
  <path d="M228.32 315.72L202.037 285.372H172.525H143.19L117.122 315.72C117.122 315.72 134.804 335.73 172.721 335.73C210.639 335.73 228.32 315.72 228.32 315.72Z" fill="black"/>
  <path d="M124.793 211.088C124.793 211.088 148.112 225.672 175.228 225.672C202.344 225.672 225.208 211.088 225.208 211.088C228.732 226.093 236.031 264.489 223.783 283.941C208.368 308.422 182.903 316.817 175.001 316.817C167.098 316.817 141.633 308.422 126.218 283.941C113.97 264.489 121.269 226.093 124.793 211.088Z" fill="#6DF244"/>
  <path d="M124.793 211.088C124.793 211.088 148.112 225.672 175.228 225.672C202.344 225.672 225.208 211.088 225.208 211.088C228.732 226.093 236.031 264.489 223.783 283.941C208.368 308.422 182.903 316.817 175.001 316.817C167.098 316.817 141.633 308.422 126.218 283.941C113.97 264.489 121.269 226.093 124.793 211.088Z" fill="url(#paint1_linear_680_67793)" fill-opacity="0.8"/>
  <path d="M155.659 62.9373C159.113 49.9597 161.899 33.354 174.786 33.354C187.672 33.354 192.186 53.9145 194.342 63.2537C196.328 71.8582 200.674 91.76 201.345 94.8381C201.403 95.1027 201.335 95.364 201.146 95.5575C199.763 96.9692 193.095 102.625 175 102.625C156.851 102.625 150.197 96.9349 148.843 95.5448C148.66 95.3574 148.594 95.1047 148.643 94.8477C149.177 92.0409 152.494 74.8254 155.659 62.9373Z" fill="url(#paint2_linear_680_67793)"/>
  <path d="M227.798 315.118L202.31 285.687C202.137 285.487 201.885 285.372 201.621 285.372H172.525H143.608C143.343 285.372 143.09 285.488 142.917 285.69L117.64 315.118C117.343 315.463 117.341 315.963 117.661 316.287C120.884 319.543 138.618 335.73 172.721 335.73C206.817 335.73 224.551 319.55 227.779 316.289C228.1 315.965 228.097 315.463 227.798 315.118Z" fill="url(#paint3_linear_680_67793)"/>
  <path d="M124.506 212.32C124.645 211.711 125.342 211.424 125.883 211.736C130.784 214.561 151.56 225.672 175.227 225.672C198.857 225.672 219.258 214.597 224.113 211.75C224.655 211.432 225.355 211.72 225.495 212.332C229.104 228.118 235.705 265.006 223.782 283.941C208.367 308.422 182.902 316.818 174.999 316.818C167.097 316.818 141.632 308.422 126.217 283.941C114.291 265.001 120.898 228.099 124.506 212.32Z" fill="url(#paint4_linear_680_67793)"/>
  <path d="M130.95 278.636C122.171 264.008 123.204 252.573 128.368 247.786C137.583 239.244 152.64 254.169 158.579 266.668C164.517 279.168 165.292 288.742 160.386 293.263C155.48 297.784 139.729 293.263 130.95 278.636Z" stroke="url(#paint5_linear_680_67793)" stroke-width="1.82292"/>
  <path fill-rule="evenodd" clip-rule="evenodd" d="M175 304.505C172.004 304.604 166.495 303.825 162.695 299.955H174.088H175.911H187.305C183.504 303.825 177.995 304.604 175 304.505Z" fill="#8B1414"/>
  <path d="M218.291 277.697C226.253 264.68 225.316 254.503 220.632 250.243C212.275 242.642 198.619 255.923 193.232 267.047C187.846 278.17 187.143 286.69 191.593 290.714C196.042 294.737 210.328 290.714 218.291 277.697Z" fill="#070707" stroke="#070707" stroke-width="0.455729"/>
  <path d="M219.429 278.636C228.311 264.008 227.266 252.573 222.041 247.786C212.72 239.244 197.488 254.169 191.48 266.668C185.472 279.168 184.688 288.742 189.651 293.263C194.614 297.785 210.548 293.263 219.429 278.636Z" stroke="url(#paint6_linear_680_67793)" stroke-width="1.82292"/>
  <path d="M220.588 257.214C219.787 253.564 217.886 251.964 216.326 252.046C213.542 252.192 213.375 256.885 214.312 259.756C215.249 262.627 216.576 264.226 218.054 264.144C219.532 264.062 221.389 260.864 220.588 257.214Z" fill="url(#paint7_radial_680_67793)"/>
  <path fill-rule="evenodd" clip-rule="evenodd" d="M175.001 293.163C173.542 292.983 170.042 293.27 167.709 295.854H175.001H182.292C179.959 293.27 176.459 292.983 175.001 293.163Z" fill="#8B1414"/>
  <path d="M132.089 277.697C124.228 264.68 125.153 254.503 129.777 250.243C138.027 242.642 151.509 255.923 156.826 267.047C162.143 278.17 162.837 286.69 158.444 290.714C154.052 294.737 139.95 290.714 132.089 277.697Z" fill="#070707" stroke="#070707" stroke-width="0.455729"/>
  <path d="M129.563 257.214C130.364 253.564 132.266 251.964 133.825 252.046C136.609 252.192 136.776 256.885 135.839 259.756C134.902 262.627 133.575 264.226 132.097 264.144C130.619 264.062 128.762 260.864 129.563 257.214Z" fill="url(#paint8_radial_680_67793)"/>
  <path d="M130.95 278.636C122.171 264.008 123.204 252.573 128.368 247.786C137.583 239.244 152.64 254.169 158.579 266.668C164.517 279.168 165.292 288.742 160.386 293.263C155.48 297.784 139.729 293.263 130.95 278.636Z" stroke="url(#paint9_linear_680_67793)" stroke-width="1.82292"/>
  <path fill-rule="evenodd" clip-rule="evenodd" d="M177.408 225.672L177.306 225.672C177.892 225.671 178.475 225.664 179.052 225.652C178.506 225.665 177.958 225.672 177.408 225.672Z" fill="#161A70" fill-opacity="0.1"/>
  <path fill-rule="evenodd" clip-rule="evenodd" d="M228.411 315.72C228.411 315.72 211.425 335.73 175 335.73V33.3539C187.169 33.3539 192.182 53.2215 194.295 62.7679L194.403 63.2536C196.251 71.5878 200.68 90.5209 201.514 94.4991C201.567 94.7502 201.561 95.0022 201.494 95.2335L225.234 210.626C225.279 210.857 225.239 211.09 225.124 211.28C225.32 211.155 225.421 211.088 225.421 211.088C228.805 226.092 235.818 264.489 224.051 283.941C220.851 289.232 217.2 293.771 213.366 297.637L228.411 315.72ZM177.408 225.672L177.306 225.672C177.892 225.671 178.475 225.664 179.052 225.652C178.506 225.665 177.958 225.672 177.408 225.672Z" fill="#161A70" fill-opacity="0.1"/>
  </g>
  <defs>
  <linearGradient id="paint0_linear_680_67793" x1="164.974" y1="48.3931" x2="175" y2="102.625" gradientUnits="userSpaceOnUse">
  <stop stop-color="white" stop-opacity="0.17"/>
  <stop offset="1" stop-color="#C3C3C3" stop-opacity="0"/>
  </linearGradient>
  <linearGradient id="paint1_linear_680_67793" x1="175.001" y1="294.487" x2="175.001" y2="227.95" gradientUnits="userSpaceOnUse">
  <stop offset="0.527397" stop-color="#6DF244"/>
  <stop offset="1" stop-color="#388E1D"/>
  </linearGradient>
  <linearGradient id="paint2_linear_680_67793" x1="175" y1="9.76611" x2="152.222" y2="102.08" gradientUnits="userSpaceOnUse">
  <stop stop-color="#830101"/>
  <stop offset="0.979167" stop-color="#FF1818" stop-opacity="0.98"/>
  </linearGradient>
  <linearGradient id="paint3_linear_680_67793" x1="132.791" y1="293.631" x2="162.493" y2="362.54" gradientUnits="userSpaceOnUse">
  <stop stop-color="#9A0404"/>
  <stop offset="0.473958" stop-color="#D80101" stop-opacity="0.98"/>
  <stop offset="1" stop-color="#FF8080" stop-opacity="0.98"/>
  </linearGradient>
  <linearGradient id="paint4_linear_680_67793" x1="174.999" y1="175.086" x2="149.067" y2="319.922" gradientUnits="userSpaceOnUse">
  <stop stop-color="#830101"/>
  <stop offset="0.979167" stop-color="#FF1818" stop-opacity="0.98"/>
  </linearGradient>
  <linearGradient id="paint5_linear_680_67793" x1="144.01" y1="245.268" x2="144.01" y2="294.942" gradientUnits="userSpaceOnUse">
  <stop stop-color="#CF0000"/>
  <stop offset="0.40625" stop-color="#CF0000" stop-opacity="0.37"/>
  </linearGradient>
  <linearGradient id="paint6_linear_680_67793" x1="206.217" y1="245.268" x2="206.217" y2="294.943" gradientUnits="userSpaceOnUse">
  <stop offset="0.338542" stop-color="#CF0000" stop-opacity="0.37"/>
  <stop offset="1" stop-color="#FF4E4E"/>
  </linearGradient>
  <radialGradient id="paint7_radial_680_67793" cx="0" cy="0" r="1" gradientUnits="userSpaceOnUse" gradientTransform="translate(217.185 257.972) rotate(79.0248) scale(5.68455 4.63752)">
  <stop stop-color="white" stop-opacity="0.75"/>
  <stop offset="1" stop-color="white" stop-opacity="0"/>
  <stop offset="1" stop-color="white"/>
  </radialGradient>
  <radialGradient id="paint8_radial_680_67793" cx="0" cy="0" r="1" gradientUnits="userSpaceOnUse" gradientTransform="translate(132.966 257.972) rotate(100.975) scale(5.68455 4.63752)">
  <stop stop-color="white" stop-opacity="0.75"/>
  <stop offset="1" stop-color="white" stop-opacity="0"/>
  <stop offset="1" stop-color="white"/>
  </radialGradient>
  <linearGradient id="paint9_linear_680_67793" x1="144.01" y1="245.268" x2="144.01" y2="294.942" gradientUnits="userSpaceOnUse">
  <stop offset="0.338542" stop-color="#CF0000" stop-opacity="0.37"/>
  <stop offset="1" stop-color="#FF4E4E"/>
  </linearGradient>
  <clipPath id="clip0_680_67793">
  <rect width="350" height="350" fill="white" transform="translate(0 0.99707)"/>
  </clipPath>
  </defs>

    
    <path d="M148.647 94.3351L124.888 210.017C124.817 210.363 124.947 210.714 125.237 210.915C128.356 213.082 146.958 225.128 174.998 225.128C203.038 225.128 221.64 213.082 224.76 210.915C225.05 210.714 225.18 210.363 225.109 210.017L201.35 94.3351C201.316 94.4021 201.271 94.4644 201.216 94.5198C199.881 95.8685 193.226 101.484 174.998 101.484C156.771 101.484 150.116 95.8685 148.78 94.5198C148.725 94.4644 148.681 94.4021 148.647 94.3351Z" fill="#000000" fill-opacity="0.75"/>;
    
    <!-- Color -->
    <path d="M201.049 94.2304L205.113 114.031C203.523 113.76 201.871 113.447 200.18 113.127C186.038 110.452 169.252 107.276 165.003 123.73C163.148 130.914 165.836 135.212 168.45 139.394C170.975 143.43 173.431 147.358 171.668 153.669C169.523 161.35 157.859 166.325 148.479 162.994C138.57 159.476 139.266 144.903 144.961 137.849C150.656 130.794 151.48 120.031 150.656 112.87C150.259 109.409 148.549 106.935 146.313 105.251L148.649 93.8801C148.683 93.9471 148.727 94.0094 148.782 94.0649C150.117 95.4136 156.772 101.03 175 101.03C192.557 101.03 199.378 95.8189 201.049 94.2304Z" fill="url(#paint0_radial_702_67017)"/>

    <!-- Filter -->
    <mask id="mask0_702_67017" style="mask-type:alpha" maskUnits="userSpaceOnUse" x="140" y="93" width="66" height="72">
      <path d="M201.049 94.2304L205.113 114.031C203.523 113.76 201.871 113.447 200.18 113.127C186.038 110.452 169.252 107.276 165.003 123.73C163.148 130.914 165.836 135.212 168.45 139.394C170.975 143.43 173.431 147.358 171.668 153.669C169.523 161.35 157.859 166.325 148.479 162.994C138.57 159.476 139.266 144.903 144.961 137.849C150.656 130.794 151.48 120.031 150.656 112.87C150.259 109.409 148.549 106.935 146.313 105.251L148.649 93.8801C148.683 93.9471 148.727 94.0094 148.782 94.0649C150.117 95.4136 156.772 101.03 175 101.03C192.557 101.03 199.378 95.8189 201.049 94.2304Z" fill="url(#paint1_radial_702_67017)"/>
    </mask>
    <g mask="url(#mask0_702_67017)">
      <g filter="url(#filter0_f_702_67017)">
        <mask id="mask1_702_67017" style="mask-type:alpha" maskUnits="userSpaceOnUse" x="124" y="94" width="102" height="132">
          <path d="M148.862 95.0637C148.949 94.6399 149.322 94.3357 149.754 94.3357H200.246C200.678 94.3357 201.051 94.6399 201.138 95.0637L224.993 211.158C225.074 211.554 224.888 211.954 224.527 212.137C220.624 214.108 198.375 224.817 175 225.127C151.578 225.438 129.287 214.178 125.45 212.14C125.099 211.954 124.924 211.562 125.004 211.173L148.862 95.0637Z" fill="#577096" fill-opacity="0.75"/>
        </mask>
        <g mask="url(#mask1_702_67017)">
          <g filter="url(#filter1_f_702_67017)">
            <path d="M207.208 76.1064C210.866 110.268 145.941 132.571 113.021 139.453L113.021 76.1064L207.208 76.1064Z" fill="url(#paint2_linear_702_67017)" fill-opacity="0.5"/>
          </g>
          <g filter="url(#filter2_f_702_67017)">
            <path d="M155.407 125.301C156.469 105.018 134.471 86.1828 128.929 66.9985C133.388 65.1973 144.05 70.7896 152.675 76.1247C163.456 82.7936 162.879 109.124 164.625 125.784C166.022 139.112 148.453 223.401 144.015 241.481L131.716 240.837C140.242 214.68 154.587 140.955 155.407 125.301Z" fill="url(#paint3_linear_702_67017)" fill-opacity="0.6"/>
          </g>
        </g>
      </g>
    </g>

    <defs>
      <!-- Color -->
      <radialGradient id="paint0_radial_702_67017" cx="0" cy="0" r="1" gradientUnits="userSpaceOnUse" gradientTransform="translate(155.882 109.102) rotate(53.1177) scale(37.8177 40.2646)">
        <stop offset="0.203125" style="stop-color: #71FF30;"/>
        <stop offset="0.890625" style="stop-color: #25BC46;"/>
      </radialGradient>

      <!-- Filter -->
      <filter id="filter0_f_702_67017" x="122.591" y="92.057" width="104.818" height="135.355" filterUnits="userSpaceOnUse" color-interpolation-filters="sRGB">
        <feFlood flood-opacity="0" result="BackgroundImageFix"/>
        <feBlend mode="normal" in="SourceGraphic" in2="BackgroundImageFix" result="shape"/>
        <feGaussianBlur stdDeviation="1.13932" result="effect1_foregroundBlur_702_67017"/>
      </filter>
      <filter id="filter1_f_702_67017" x="112.109" y="75.195" width="96.1589" height="65.1694" filterUnits="userSpaceOnUse" color-interpolation-filters="sRGB">
        <feFlood flood-opacity="0" result="BackgroundImageFix"/>
        <feBlend mode="normal" in="SourceGraphic" in2="BackgroundImageFix" result="shape"/>
        <feGaussianBlur stdDeviation="0.455729" result="effect1_foregroundBlur_702_67017"/>
      </filter>
      <filter id="filter2_f_702_67017" x="128.017" y="65.7426" width="37.5979" height="176.65" filterUnits="userSpaceOnUse" color-interpolation-filters="sRGB">
        <feFlood flood-opacity="0" result="BackgroundImageFix"/>
        <feBlend mode="normal" in="SourceGraphic" in2="BackgroundImageFix" result="shape"/>
        <feGaussianBlur stdDeviation="0.455729" result="effect1_foregroundBlur_702_67017"/>
      </filter>
      <radialGradient id="paint1_radial_702_67017" cx="0" cy="0" r="1" gradientUnits="userSpaceOnUse" gradientTransform="translate(155.882 109.102) rotate(53.1177) scale(37.8177 40.2646)">
        <stop offset="0.203125" stop-color="#71FF30"/>
        <stop offset="0.890625" stop-color="#25BC46"/>
      </radialGradient>
      <linearGradient id="paint2_linear_702_67017" x1="145.215" y1="123.01" x2="155.829" y2="72.2914" gradientUnits="userSpaceOnUse">
        <stop stop-color="white" stop-opacity="0"/>
        <stop offset="0.471361" stop-color="white"/>
        <stop offset="1" stop-color="white"/>
      </linearGradient>
      <linearGradient id="paint3_linear_702_67017" x1="160.729" y1="220.938" x2="201.954" y2="178" gradientUnits="userSpaceOnUse">
        <stop stop-color="#F2F2F2"/>
        <stop offset="0.0001" stop-color="#F2F2F2"/>
        <stop offset="0.0520833" stop-color="#F2F2F2" stop-opacity="0.948011"/>
        <stop offset="1" stop-color="#F2F2F2" stop-opacity="0"/>
      </linearGradient>
    </defs>
  
    
    <!-- Color -->
    <path d="M177.734 130.914C177.734 127.951 179.774 122.048 187.933 122.136C196.091 122.224 198.203 128.025 198.239 130.914C198.312 133.035 197.089 137.629 191.621 139.033C184.786 140.789 177.734 136.839 177.734 130.914Z" fill="url(#paint0_radial_702_67018)"/>

    <defs>
      <!-- Color -->
      <radialGradient id="paint0_radial_702_67018" cx="0" cy="0" r="1" gradientUnits="userSpaceOnUse" gradientTransform="translate(182.539 125.892) rotate(45.8803) scale(10.3998 11.5271)">
        <stop offset="0.203125" style="stop-color: #F85449;"/>
        <stop offset="0.890625" style="stop-color: #C53434;"/>
      </radialGradient>
    </defs>
  
    
    <!-- Color -->
    <path d="M214.052 156.619L218.831 179.91C216.932 182.156 214.118 184.13 210.037 185.164C197.278 188.398 184.115 181.122 184.115 170.207C184.115 164.75 187.922 153.876 203.151 154.038C207.743 154.087 211.309 155.092 214.052 156.619Z" fill="url(#paint0_radial_702_67019)"/>

    <defs>
      <!-- Color -->
      <radialGradient id="paint0_radial_702_67019" cx="0" cy="0" r="1" gradientUnits="userSpaceOnUse" gradientTransform="translate(192.248 160.957) rotate(48.2936) scale(18.4215 20.2932)">
        <stop offset="0.203125" style="stop-color: #71FF30;"/>
        <stop offset="0.890625" style="stop-color: #25BC46;"/>
      </radialGradient>
    </defs>
  
    
    <!-- Color -->
    <path d="M223.109 211.89C217.522 215.445 199.996 225.13 174.887 225.13C146.901 225.13 128.335 213.098 125.221 210.933C125.032 210.801 124.911 210.606 124.87 210.39C128.808 199.004 144.115 175.86 164.064 181.919C173.943 184.919 180.859 192.452 187.364 199.536C197.438 210.508 206.525 220.404 224.106 210.722C223.783 211.11 223.451 211.499 223.109 211.89Z" fill="url(#paint0_radial_702_67020)"/>

    <!-- Filter -->
    <mask id="mask0_702_67020" style="mask-type:alpha" maskUnits="userSpaceOnUse" x="124" y="180" width="101" height="46">
      <path d="M223.109 211.89C217.522 215.445 199.996 225.13 174.887 225.13C146.901 225.13 128.335 213.098 125.221 210.933C125.032 210.802 124.911 210.606 124.87 210.39C128.808 199.004 144.115 175.86 164.064 181.919C173.943 184.92 180.859 192.452 187.364 199.536C197.438 210.508 206.525 220.405 224.106 210.722C223.783 211.11 223.451 211.499 223.109 211.89Z" fill="url(#paint1_radial_702_67020)"/>
    </mask>
    <g mask="url(#mask0_702_67020)">
      <g filter="url(#filter0_f_702_67020)">
        <mask id="mask1_702_67020" style="mask-type:alpha" maskUnits="userSpaceOnUse" x="124" y="94" width="102" height="132">
          <path d="M148.862 95.0639C148.949 94.6401 149.322 94.3359 149.754 94.3359H200.246C200.678 94.3359 201.051 94.6401 201.138 95.0639L224.993 211.159C225.074 211.555 224.888 211.955 224.527 212.137C220.624 214.109 198.375 224.817 175 225.128C151.578 225.438 129.287 214.178 125.45 212.141C125.099 211.954 124.924 211.562 125.004 211.173L148.862 95.0639Z" fill="#577096" fill-opacity="0.75"/>
        </mask>
        <g mask="url(#mask1_702_67020)">
          <g filter="url(#filter1_f_702_67020)">
            <path d="M155.407 125.301C156.469 105.018 134.471 86.183 128.929 66.9987C133.388 65.1975 144.05 70.7899 152.675 76.125C163.456 82.7938 162.879 109.124 164.625 125.784C166.022 139.112 148.453 223.401 144.015 241.482L131.716 240.837C140.242 214.68 154.587 140.955 155.407 125.301Z" fill="url(#paint2_linear_702_67020)" fill-opacity="0.6"/>
          </g>
        </g>
      </g>
    </g>

    <defs>
      <!-- Color -->
      <radialGradient id="paint0_radial_702_67020" cx="0" cy="0" r="1" gradientUnits="userSpaceOnUse" gradientTransform="translate(148.118 190.514) rotate(28.5454) scale(39.8814 37.1287)">
        <stop offset="0.203125" style="stop-color: #FFB800;"/>
        <stop offset="0.890625" style="stop-color: #FF7800;"/>
      </radialGradient>

      <!-- Filter -->
      <filter id="filter0_f_702_67020" x="122.591" y="92.0573" width="104.818" height="135.355" filterUnits="userSpaceOnUse" color-interpolation-filters="sRGB">
        <feFlood flood-opacity="0" result="BackgroundImageFix"/>
        <feBlend mode="normal" in="SourceGraphic" in2="BackgroundImageFix" result="shape"/>
        <feGaussianBlur stdDeviation="1.13932" result="effect1_foregroundBlur_702_67020"/>
      </filter>
      <filter id="filter1_f_702_67020" x="128.017" y="65.7428" width="37.5979" height="176.65" filterUnits="userSpaceOnUse" color-interpolation-filters="sRGB">
        <feFlood flood-opacity="0" result="BackgroundImageFix"/>
        <feBlend mode="normal" in="SourceGraphic" in2="BackgroundImageFix" result="shape"/>
        <feGaussianBlur stdDeviation="0.455729" result="effect1_foregroundBlur_702_67020"/>
      </filter>
      <radialGradient id="paint1_radial_702_67020" cx="0" cy="0" r="1" gradientUnits="userSpaceOnUse" gradientTransform="translate(146.218 191.259) rotate(27.3324) scale(58.602 42.3474)">
        <stop offset="0.302083" stop-color="#FFB800"/>
        <stop offset="1" stop-color="#FF7800"/>
      </radialGradient>
      <linearGradient id="paint2_linear_702_67020" x1="160.729" y1="220.939" x2="201.954" y2="178" gradientUnits="userSpaceOnUse">
        <stop stop-color="#F2F2F2"/>
        <stop offset="0.0001" stop-color="#F2F2F2"/>
        <stop offset="0.0520833" stop-color="#F2F2F2" stop-opacity="0.948011"/>
        <stop offset="1" stop-color="#F2F2F2" stop-opacity="0"/>
      </linearGradient>
    </defs>
  
  
    </svg>
  