
    <svg width="768" height="768" viewBox="0 0 768 768" fill="none" xmlns="http://www.w3.org/2000/svg">
    
  <g clip-path="url(#clip0_28_283)">
  <rect width="768" height="768" fill="white"/>
  <rect x="0.174805" y="0.0983887" width="768" height="768" fill="#FFA19B"/>
  <path d="M276.433 637.523L657.918 418.561L945.71 513.198L466.417 645.227L276.433 637.523Z" fill="url(#paint0_linear_28_283)" fill-opacity="0.1"/>
  <g opacity="0.45" filter="url(#filter0_f_28_283)">
  <ellipse rx="427" ry="146.5" transform="matrix(0.999998 0.00221055 0.00221055 -0.999998 386.365 668.462)" fill="url(#paint1_radial_28_283)"/>
  </g>
  <g opacity="0.7" filter="url(#filter1_f_28_283)">
  <ellipse cx="382.675" cy="301.953" rx="431.5" ry="532" transform="rotate(0.126655 382.675 301.953)" fill="url(#paint2_radial_28_283)"/>
  </g>
  </g>
  <defs>
  <filter id="filter0_f_28_283" x="-50.6343" y="511.959" width="873.998" height="313.005" filterUnits="userSpaceOnUse" color-interpolation-filters="sRGB">
  <feFlood flood-opacity="0" result="BackgroundImageFix"/>
  <feBlend mode="normal" in="SourceGraphic" in2="BackgroundImageFix" result="shape"/>
  <feGaussianBlur stdDeviation="5" result="effect1_foregroundBlur_28_283"/>
  </filter>
  <filter id="filter1_f_28_283" x="-58.8257" y="-240.047" width="883.001" height="1084" filterUnits="userSpaceOnUse" color-interpolation-filters="sRGB">
  <feFlood flood-opacity="0" result="BackgroundImageFix"/>
  <feBlend mode="normal" in="SourceGraphic" in2="BackgroundImageFix" result="shape"/>
  <feGaussianBlur stdDeviation="5" result="effect1_foregroundBlur_28_283"/>
  </filter>
  <linearGradient id="paint0_linear_28_283" x1="427.525" y1="596.052" x2="694.574" y2="368.5" gradientUnits="userSpaceOnUse">
  <stop/>
  <stop offset="1" stop-color="#333333" stop-opacity="0"/>
  </linearGradient>
  <radialGradient id="paint1_radial_28_283" cx="0" cy="0" r="1" gradientUnits="userSpaceOnUse" gradientTransform="translate(427 168.135) rotate(99.1226) scale(96.4992 275.026)">
  <stop offset="0.229167" stop-color="#CF0000"/>
  <stop offset="0.90625" stop-color="#CF0000" stop-opacity="0"/>
  </radialGradient>
  <radialGradient id="paint2_radial_28_283" cx="0" cy="0" r="1" gradientUnits="userSpaceOnUse" gradientTransform="translate(382.675 380.518) rotate(92.5586) scale(346.34 281.204)">
  <stop offset="0.229167" stop-color="#CF0000"/>
  <stop offset="0.90625" stop-color="#CF0000" stop-opacity="0"/>
  </radialGradient>
  <clipPath id="clip0_28_283">
  <rect width="768" height="768" fill="white"/>
  </clipPath>
  </defs>

    
    
<g filter="url(#filter0_d_520_56246)">
<path d="M275.41 685.749C274.574 685.299 274.214 684.326 274.512 683.424L302.864 597.607C302.976 597.268 302.996 596.905 302.92 596.556L274.82 466.787C274.476 465.2 276.06 463.831 277.585 464.39C289.067 468.602 327.513 480.937 384 480.937C440.487 480.937 478.933 468.602 490.415 464.39C491.94 463.831 493.524 465.2 493.18 466.787L465.08 596.556C465.004 596.905 465.024 597.268 465.135 597.607L493.488 683.424C493.786 684.326 493.426 685.299 492.59 685.749C484.178 690.268 439.129 713 384 713C328.871 713 283.822 690.268 275.41 685.749Z" fill="url(#paint0_linear_520_56246)" shape-rendering="crispEdges"/>
</g>
<g filter="url(#filter1_f_520_56246)">
<mask id="mask0_520_56246" style="mask-type:alpha" maskUnits="userSpaceOnUse" x="271" y="464" width="222" height="250">
<path d="M272.418 686.637C271.578 686.188 271.216 685.211 271.516 684.307L300.127 598.145C300.24 597.805 300.259 597.44 300.183 597.09L271.823 466.783C271.478 465.196 273.058 463.826 274.584 464.383C286.128 468.6 324.944 481.009 382 481.009C439.056 481.009 477.872 468.6 489.416 464.383C490.942 463.826 492.522 465.196 492.177 466.783L463.817 597.09C463.741 597.44 463.76 597.805 463.873 598.145L492.484 684.307C492.784 685.211 492.422 686.188 491.582 686.637C483.109 691.167 437.642 714 382 714C326.358 714 280.891 691.167 272.418 686.637Z" fill="#2D2E32"/>
<path d="M272.418 686.637C271.578 686.188 271.216 685.211 271.516 684.307L300.127 598.145C300.24 597.805 300.259 597.44 300.183 597.09L271.823 466.783C271.478 465.196 273.058 463.826 274.584 464.383C286.128 468.6 324.944 481.009 382 481.009C439.056 481.009 477.872 468.6 489.416 464.383C490.942 463.826 492.522 465.196 492.177 466.783L463.817 597.09C463.741 597.44 463.76 597.805 463.873 598.145L492.484 684.307C492.784 685.211 492.422 686.188 491.582 686.637C483.109 691.167 437.642 714 382 714C326.358 714 280.891 691.167 272.418 686.637Z" fill="url(#paint1_linear_520_56246)"/>
</mask>
<g mask="url(#mask0_520_56246)">
<g opacity="0.25" filter="url(#filter2_df_520_56246)">
<path d="M160 599.76C368.704 605.692 504.96 500.392 547 447H160V599.76Z" fill="url(#paint2_linear_520_56246)" fill-opacity="0.55" shape-rendering="crispEdges"/>
</g>
<g opacity="0.25" filter="url(#filter3_f_520_56246)">
<path d="M293.935 585.722C293.935 535.582 235.931 430.225 214.448 383.647C228.77 378.631 264.718 371.609 293.935 383.647C330.456 398.695 342.793 535.335 351.386 576.18C358.26 608.856 305.392 716.856 293.935 762H150C259.562 703.957 293.935 624.417 293.935 585.722Z" fill="url(#paint3_radial_520_56246)"/>
</g>
<g opacity="0.25" filter="url(#filter4_f_520_56246)">
<path d="M325.935 594.722C325.935 544.582 267.931 439.225 246.448 392.647C260.77 387.631 296.718 380.609 325.935 392.647C362.456 407.695 374.793 544.335 383.386 585.18C390.26 617.856 337.392 725.856 325.935 771H182C291.562 712.957 325.935 633.417 325.935 594.722Z" fill="url(#paint4_radial_520_56246)"/>
</g>
</g>
</g>
<g filter="url(#filter5_b_520_56246)">
<path d="M326.178 207L274.042 460.841C273.886 461.6 274.171 462.37 274.808 462.812C281.654 467.568 322.472 494 384 494C445.528 494 486.346 467.568 493.192 462.812C493.829 462.37 494.114 461.6 493.958 460.841L441.822 207C441.748 207.147 441.651 207.284 441.53 207.405C438.6 210.365 423.996 222.688 384 222.688C344.004 222.688 329.4 210.365 326.47 207.405C326.349 207.284 326.252 207.147 326.178 207Z" fill="white" fill-opacity="0.75"/>
</g>
<path d="M384.961 713C439.714 713 484.457 690.268 492.811 685.749C493.642 685.299 493.999 684.326 493.703 683.424L465.544 597.607C465.432 597.268 465.413 596.905 465.489 596.556L493.397 466.787C493.706 465.349 492.445 464.091 491.079 464.282C491.976 463.693 492.684 463.208 493.199 462.848C493.83 462.406 494.113 461.637 493.958 460.879L441.925 205.598C441.806 205.012 441.438 204.53 440.947 204.254L429.159 121.625C429.149 121.565 429.143 121.507 429.136 121.448C429.131 121.401 429.125 121.355 429.118 121.308C428.918 119.935 426.015 110 384 110L384.961 713Z" fill="#161A70" fill-opacity="0.1"/>
<path d="M338.6 121.692C338.622 121.541 338.626 121.394 338.641 121.242C338.798 119.645 341.485 110 383.528 110C426.342 110 429.167 120.002 429.353 121.321C429.367 121.418 429.373 121.513 429.388 121.61L441.873 206.245C441.954 206.792 441.808 207.342 441.419 207.735C438.494 210.691 423.919 223 384 223C344.081 223 329.506 210.691 326.581 207.735C326.192 207.342 326.046 206.792 326.127 206.245L338.6 121.692Z" fill="url(#paint5_linear_520_56246)"/>
<defs>
<filter id="filter0_d_520_56246" x="269.408" y="464.263" width="231.184" height="260.737" filterUnits="userSpaceOnUse" color-interpolation-filters="sRGB">
<feFlood flood-opacity="0" result="BackgroundImageFix"/>
<feColorMatrix in="SourceAlpha" type="matrix" values="0 0 0 0 0 0 0 0 0 0 0 0 0 0 0 0 0 0 127 0" result="hardAlpha"/>
<feOffset dx="1" dy="6"/>
<feGaussianBlur stdDeviation="3"/>
<feComposite in2="hardAlpha" operator="out"/>
<feColorMatrix type="matrix" values="0 0 0 0 0 0 0 0 0 0 0 0 0 0 0 0 0 0 0.25 0"/>
<feBlend mode="normal" in2="BackgroundImageFix" result="effect1_dropShadow_520_56246"/>
<feBlend mode="normal" in="SourceGraphic" in2="effect1_dropShadow_520_56246" result="shape"/>
</filter>
<filter id="filter1_f_520_56246" x="264" y="458" width="233.588" height="261" filterUnits="userSpaceOnUse" color-interpolation-filters="sRGB">
<feFlood flood-opacity="0" result="BackgroundImageFix"/>
<feBlend mode="normal" in="SourceGraphic" in2="BackgroundImageFix" result="shape"/>
<feGaussianBlur stdDeviation="2.5" result="effect1_foregroundBlur_520_56246"/>
</filter>
<filter id="filter2_df_520_56246" x="157" y="445" width="393" height="160" filterUnits="userSpaceOnUse" color-interpolation-filters="sRGB">
<feFlood flood-opacity="0" result="BackgroundImageFix"/>
<feColorMatrix in="SourceAlpha" type="matrix" values="0 0 0 0 0 0 0 0 0 0 0 0 0 0 0 0 0 0 127 0" result="hardAlpha"/>
<feOffset dy="2"/>
<feGaussianBlur stdDeviation="1.5"/>
<feComposite in2="hardAlpha" operator="out"/>
<feColorMatrix type="matrix" values="0 0 0 0 0 0 0 0 0 0 0 0 0 0 0 0 0 0 0.25 0"/>
<feBlend mode="normal" in2="BackgroundImageFix" result="effect1_dropShadow_520_56246"/>
<feBlend mode="normal" in="SourceGraphic" in2="effect1_dropShadow_520_56246" result="shape"/>
<feGaussianBlur stdDeviation="1" result="effect2_foregroundBlur_520_56246"/>
</filter>
<filter id="filter3_f_520_56246" x="149" y="376" width="204" height="387" filterUnits="userSpaceOnUse" color-interpolation-filters="sRGB">
<feFlood flood-opacity="0" result="BackgroundImageFix"/>
<feBlend mode="normal" in="SourceGraphic" in2="BackgroundImageFix" result="shape"/>
<feGaussianBlur stdDeviation="0.5" result="effect1_foregroundBlur_520_56246"/>
</filter>
<filter id="filter4_f_520_56246" x="181" y="385" width="204" height="387" filterUnits="userSpaceOnUse" color-interpolation-filters="sRGB">
<feFlood flood-opacity="0" result="BackgroundImageFix"/>
<feBlend mode="normal" in="SourceGraphic" in2="BackgroundImageFix" result="shape"/>
<feGaussianBlur stdDeviation="0.5" result="effect1_foregroundBlur_520_56246"/>
</filter>
<filter id="filter5_b_520_56246" x="250" y="183" width="268" height="335" filterUnits="userSpaceOnUse" color-interpolation-filters="sRGB">
<feFlood flood-opacity="0" result="BackgroundImageFix"/>
<feGaussianBlur in="BackgroundImage" stdDeviation="12"/>
<feComposite in2="SourceAlpha" operator="in" result="effect1_backgroundBlur_520_56246"/>
<feBlend mode="normal" in="SourceGraphic" in2="effect1_backgroundBlur_520_56246" result="shape"/>
</filter>
<linearGradient id="paint0_linear_520_56246" x1="218" y1="441" x2="474" y2="669" gradientUnits="userSpaceOnUse">
<stop stop-color="#C59651"/>
<stop offset="0.536458" stop-color="#E0A50D" stop-opacity="0.98"/>
<stop offset="1" stop-color="#FFF27B" stop-opacity="0.98"/>
</linearGradient>
<linearGradient id="paint1_linear_520_56246" x1="271" y1="463" x2="529.572" y2="652.318" gradientUnits="userSpaceOnUse">
<stop stop-color="#C3C3C3"/>
<stop offset="1" stop-color="#C3C3C3" stop-opacity="0.15"/>
</linearGradient>
<linearGradient id="paint2_linear_520_56246" x1="446.545" y1="499.214" x2="247.083" y2="656.458" gradientUnits="userSpaceOnUse">
<stop stop-color="white" stop-opacity="0"/>
<stop offset="0.471361" stop-color="white"/>
<stop offset="1" stop-color="white"/>
</linearGradient>
<radialGradient id="paint3_radial_520_56246" cx="0" cy="0" r="1" gradientUnits="userSpaceOnUse" gradientTransform="translate(268.89 582.252) rotate(79.4004) scale(182.868 81.2473)">
<stop stop-color="#F2F2F2"/>
<stop offset="0.0001" stop-color="#F2F2F2"/>
<stop offset="1" stop-color="#F2F2F2" stop-opacity="0"/>
</radialGradient>
<radialGradient id="paint4_radial_520_56246" cx="0" cy="0" r="1" gradientUnits="userSpaceOnUse" gradientTransform="translate(300.89 591.252) rotate(79.4004) scale(182.868 81.2473)">
<stop stop-color="#F2F2F2"/>
<stop offset="0.0001" stop-color="#F2F2F2"/>
<stop offset="1" stop-color="#F2F2F2" stop-opacity="0"/>
</radialGradient>
<linearGradient id="paint5_linear_520_56246" x1="342.345" y1="128.532" x2="433.761" y2="227.129" gradientUnits="userSpaceOnUse">
<stop stop-color="#C59651"/>
<stop offset="0.536458" stop-color="#E0AE0D" stop-opacity="0.98"/>
<stop offset="1" stop-color="#FFF27B" stop-opacity="0.98"/>
</linearGradient>
</defs>

    
<path d="M441.159 206.769L450.076 250.217C446.589 249.622 442.962 248.936 439.252 248.234C408.22 242.363 371.387 235.395 362.064 271.5C357.993 287.264 363.891 296.694 369.628 305.87C375.167 314.727 380.557 323.346 376.689 337.193C371.981 354.047 346.388 364.964 325.805 357.656C304.062 349.936 305.59 317.96 318.087 302.48C330.583 287 332.39 263.382 330.583 247.669C329.71 240.075 325.959 234.645 321.053 230.95L326.178 206C326.252 206.147 326.349 206.284 326.47 206.405C329.4 209.365 344.004 221.688 384 221.688C422.526 221.688 437.492 210.254 441.159 206.769Z" fill="url(#paint0_radial_461_73429)"/>
<mask id="mask0_461_73429" style="mask-type:alpha" maskUnits="userSpaceOnUse" x="309" y="206" width="142" height="154">
<path d="M441.159 206.769L450.076 250.217C446.589 249.622 442.962 248.936 439.252 248.234C408.22 242.363 371.387 235.395 362.064 271.5C357.993 287.264 363.891 296.694 369.628 305.87C375.167 314.727 380.557 323.346 376.689 337.193C371.981 354.047 346.388 364.964 325.805 357.656C304.062 349.936 305.59 317.96 318.087 302.48C330.583 287 332.39 263.382 330.583 247.669C329.71 240.075 325.959 234.645 321.053 230.95L326.178 206C326.252 206.147 326.349 206.284 326.47 206.405C329.4 209.365 344.004 221.688 384 221.688C422.526 221.688 437.492 210.254 441.159 206.769Z" fill="url(#paint1_radial_461_73429)"/>
</mask>
<g mask="url(#mask0_461_73429)">
<g filter="url(#filter0_f_461_73429)">
<mask id="mask1_461_73429" style="mask-type:alpha" maskUnits="userSpaceOnUse" x="274" y="207" width="220" height="288">
<path d="M326.645 208.597C326.836 207.667 327.654 207 328.604 207H439.396C440.346 207 441.164 207.667 441.355 208.597L493.699 463.342C493.877 464.211 493.468 465.089 492.676 465.489C484.111 469.816 435.292 493.314 384 493.994C332.606 494.676 283.694 469.968 275.273 465.497C274.504 465.088 274.119 464.228 274.295 463.375L326.645 208.597Z" fill="#577096" fill-opacity="0.75"/>
</mask>
<g mask="url(#mask1_461_73429)">
<g filter="url(#filter1_f_461_73429)">
<path d="M454.675 167C462.701 241.961 320.236 290.9 248 306L248 167L454.675 167Z" fill="url(#paint2_linear_461_73429)" fill-opacity="0.5"/>
</g>
<g filter="url(#filter2_f_461_73429)">
<path d="M341.008 274.947C343.339 230.439 295.068 189.11 282.906 147.014C292.691 143.062 316.087 155.333 335.012 167.04C358.668 181.673 357.402 239.449 361.234 276.006C364.299 305.252 325.749 490.207 316.009 529.88L289.022 528.466C307.731 471.07 339.209 309.296 341.008 274.947Z" fill="url(#paint3_linear_461_73429)" fill-opacity="0.6"/>
</g>
</g>
</g>
</g>
<defs>
<filter id="filter0_f_461_73429" x="269" y="202" width="230" height="297.008" filterUnits="userSpaceOnUse" color-interpolation-filters="sRGB">
<feFlood flood-opacity="0" result="BackgroundImageFix"/>
<feBlend mode="normal" in="SourceGraphic" in2="BackgroundImageFix" result="shape"/>
<feGaussianBlur stdDeviation="2.5" result="effect1_foregroundBlur_461_73429"/>
</filter>
<filter id="filter1_f_461_73429" x="246" y="165" width="211" height="143" filterUnits="userSpaceOnUse" color-interpolation-filters="sRGB">
<feFlood flood-opacity="0" result="BackgroundImageFix"/>
<feBlend mode="normal" in="SourceGraphic" in2="BackgroundImageFix" result="shape"/>
<feGaussianBlur stdDeviation="1" result="effect1_foregroundBlur_461_73429"/>
</filter>
<filter id="filter2_f_461_73429" x="280.906" y="144.259" width="82.5006" height="387.621" filterUnits="userSpaceOnUse" color-interpolation-filters="sRGB">
<feFlood flood-opacity="0" result="BackgroundImageFix"/>
<feBlend mode="normal" in="SourceGraphic" in2="BackgroundImageFix" result="shape"/>
<feGaussianBlur stdDeviation="1" result="effect1_foregroundBlur_461_73429"/>
</filter>
<radialGradient id="paint0_radial_461_73429" cx="0" cy="0" r="1" gradientUnits="userSpaceOnUse" gradientTransform="translate(342.05 239.4) rotate(53.1177) scale(82.9829 88.352)">
<stop offset="0.203125" style="stop-color: #FFFFFF;"/>
<stop offset="0.890625" style="stop-color: #D0C9C9;"/>
</radialGradient>
<radialGradient id="paint1_radial_461_73429" cx="0" cy="0" r="1" gradientUnits="userSpaceOnUse" gradientTransform="translate(342.05 239.4) rotate(53.1177) scale(82.9829 88.352)">
<stop offset="0.203125" style="stop-color=#FFFFFF;"/>
<stop offset="0.890625" style="stop-color=#D0C9C9;"/>
</radialGradient>
<linearGradient id="paint2_linear_461_73429" x1="318.643" y1="269.919" x2="341.934" y2="158.629" gradientUnits="userSpaceOnUse">
<stop stop-color="white" stop-opacity="0"/>
<stop offset="0.471361" stop-color="white"/>
<stop offset="1" stop-color="white"/>
</linearGradient>
<linearGradient id="paint3_linear_461_73429" x1="352.686" y1="484.803" x2="443.145" y2="390.584" gradientUnits="userSpaceOnUse">
<stop stop-color="#F2F2F2"/>
<stop offset="0.0001" stop-color="#F2F2F2"/>
<stop offset="0.0520833" stop-color="#F2F2F2" stop-opacity="0.948011"/>
<stop offset="1" stop-color="#F2F2F2" stop-opacity="0"/>
</linearGradient>
</defs>

    
<path d="M390 287.263C390 280.762 394.476 267.81 412.378 268.002C430.28 268.195 434.914 280.923 434.993 287.263C435.152 291.917 432.47 301.997 420.472 305.079C405.474 308.931 390 300.264 390 287.263Z" fill="url(#paint0_radial_461_73430)"/>
<defs>
<radialGradient id="paint0_radial_461_73430" cx="0" cy="0" r="1" gradientUnits="userSpaceOnUse" gradientTransform="translate(400.542 276.244) rotate(45.8803) scale(22.82 25.2937)">
<stop offset="0.203125" style="stop-color: #FFFFFF;"/>
<stop offset="0.890625" style="stop-color: #D0C9C9;"/>
</radialGradient>
</defs>

    
<path d="M469.69 343.667L480.179 394.773C476.011 399.702 469.836 404.033 460.881 406.303C432.885 413.399 404 397.433 404 373.484C404 361.509 412.354 337.649 445.772 338.004C455.848 338.111 463.672 340.317 469.69 343.667Z" fill="url(#paint0_radial_461_73431)"/>
<defs>
<radialGradient id="paint0_radial_461_73431" cx="0" cy="0" r="1" gradientUnits="userSpaceOnUse" gradientTransform="translate(421.846 353.185) rotate(48.2936) scale(40.4221 44.5291)">
<stop offset="0.203125" style="stop-color: #FABE09;"/>
<stop offset="0.890625" style="stop-color: #FDF21B;"/>
</radialGradient>
</defs>

    
<path d="M489.565 464.947C477.306 472.747 438.848 494 383.752 494C322.343 494 281.604 467.598 274.772 462.848C274.356 462.559 274.09 462.13 274 461.655C282.641 436.672 316.228 385.887 360.003 399.182C381.681 405.766 396.857 422.295 411.13 437.839C433.236 461.915 453.175 483.631 491.752 462.385C491.045 463.235 490.315 464.09 489.565 464.947Z" fill="url(#paint0_radial_461_73432)"/>
<mask id="mask0_461_73432" style="mask-type:alpha" maskUnits="userSpaceOnUse" x="274" y="397" width="218" height="97">
<path d="M489.565 464.947C477.306 472.747 438.848 494 383.752 494C322.343 494 281.604 467.598 274.772 462.848C274.356 462.559 274.09 462.13 274 461.655C282.641 436.672 316.228 385.887 360.003 399.182C381.681 405.766 396.857 422.295 411.13 437.839C433.236 461.915 453.175 483.631 491.752 462.385C491.045 463.235 490.315 464.09 489.565 464.947Z" fill="url(#paint1_radial_461_73432)"/>
</mask>
<g mask="url(#mask0_461_73432)">
<g filter="url(#filter0_f_461_73432)">
<mask id="mask1_461_73432" style="mask-type:alpha" maskUnits="userSpaceOnUse" x="274" y="207" width="220" height="288">
<path d="M326.645 208.597C326.836 207.667 327.654 207 328.604 207H439.396C440.346 207 441.164 207.667 441.355 208.597L493.699 463.342C493.877 464.211 493.468 465.089 492.676 465.489C484.111 469.816 435.292 493.314 384 493.994C332.606 494.676 283.694 469.968 275.273 465.497C274.504 465.088 274.119 464.228 274.295 463.375L326.645 208.597Z" fill="#577096" fill-opacity="0.75"/>
</mask>
<g mask="url(#mask1_461_73432)">
<g filter="url(#filter1_f_461_73432)">
<path d="M341.007 274.947C343.338 230.439 295.068 189.11 282.906 147.014C292.691 143.062 316.087 155.333 335.012 167.04C358.668 181.673 357.402 239.449 361.234 276.006C364.299 305.252 325.749 490.207 316.009 529.88L289.022 528.466C307.731 471.07 339.209 309.296 341.007 274.947Z" fill="url(#paint2_linear_461_73432)" fill-opacity="0.6"/>
</g>
</g>
</g>
</g>
<defs>
<filter id="filter0_f_461_73432" x="269" y="202" width="230" height="297.008" filterUnits="userSpaceOnUse" color-interpolation-filters="sRGB">
<feFlood flood-opacity="0" result="BackgroundImageFix"/>
<feBlend mode="normal" in="SourceGraphic" in2="BackgroundImageFix" result="shape"/>
<feGaussianBlur stdDeviation="2.5" result="effect1_foregroundBlur_461_73432"/>
</filter>
<filter id="filter1_f_461_73432" x="280.906" y="144.259" width="82.5007" height="387.621" filterUnits="userSpaceOnUse" color-interpolation-filters="sRGB">
<feFlood flood-opacity="0" result="BackgroundImageFix"/>
<feBlend mode="normal" in="SourceGraphic" in2="BackgroundImageFix" result="shape"/>
<feGaussianBlur stdDeviation="1" result="effect1_foregroundBlur_461_73432"/>
</filter>
<radialGradient id="paint0_radial_461_73432" cx="0" cy="0" r="1" gradientUnits="userSpaceOnUse" gradientTransform="translate(325.013 418.043) rotate(28.5454) scale(87.5113 81.471)">
<stop offset="0.203125" style="stop-color: #5000B6;"/>
<stop offset="0.890625" style="stop-color: #7E5EFF;"/>
</radialGradient>
<radialGradient id="paint1_radial_461_73432" cx="0" cy="0" r="1" gradientUnits="userSpaceOnUse" gradientTransform="translate(320.844 419.677) rotate(27.3324) scale(128.589 92.9224)">
<stop offset="0.302083" stop-color="#FFB800"/>
<stop offset="1" stop-color="#FF7800"/>
</radialGradient>
<linearGradient id="paint2_linear_461_73432" x1="352.686" y1="484.803" x2="443.145" y2="390.584" gradientUnits="userSpaceOnUse">
<stop stop-color="#F2F2F2"/>
<stop offset="0.0001" stop-color="#F2F2F2"/>
<stop offset="0.0520833" stop-color="#F2F2F2" stop-opacity="0.948011"/>
<stop offset="1" stop-color="#F2F2F2" stop-opacity="0"/>
</linearGradient>
</defs>

    
    <g filter="url(#filter0_d_584_56451)">
      <path d="M287.452 338.996C289.979 327.996 287.017 320.978 282.819 318.989C275.328 315.44 268.937 327.886 267.755 336.973C266.574 346.06 268.028 352.264 272.011 354.137C275.994 356.01 284.926 349.997 287.452 338.996Z" fill="#6DF244"/>
      <path d="M219.9 418.989C217.243 416.551 215.25 413.712 213.902 410.67L179.363 411.283L179.088 395.768L212.325 395.178C213.712 388.708 217.64 382.735 223.938 378.948L232.856 373.586C238.855 369.979 245.626 369.197 251.781 370.714L267.274 342.745L280.848 350.264L264.995 378.884C267.075 381.343 268.721 384.261 269.764 387.574L280 432.5L273 466L219.9 418.989Z" fill="url(#paint0_radial_584_56451)"/>
      <path d="M166.315 411.831C155.414 408.904 150.605 402.997 150.817 398.357C151.195 390.076 165.185 390.268 173.765 393.485C182.345 396.703 187.142 400.897 186.928 405.293C186.715 409.689 177.216 414.758 166.315 411.831Z" fill="#6DF244"/>
      <path d="M137.284 332.691C132.194 316.837 131.548 260.88 150.747 249.336C169.946 237.792 217.378 265.619 230.26 276.789C243.141 287.958 257.324 299.109 256.813 323.939C256.169 355.187 237.264 377.137 229.947 381.537C222.63 385.936 194.378 392.34 166.477 378.254C144.306 367.062 142.375 348.545 137.284 332.691Z" fill="#6DF244"/>
      <path d="M137.284 332.691C132.194 316.837 131.548 260.88 150.747 249.336C169.946 237.792 217.378 265.619 230.26 276.789C243.141 287.958 257.324 299.109 256.813 323.939C256.169 355.187 237.264 377.137 229.947 381.537C222.63 385.936 194.378 392.34 166.477 378.254C144.306 367.062 142.375 348.545 137.284 332.691Z" fill="url(#paint1_linear_584_56451)" fill-opacity="0.8"/>
      <path d="M167.904 370.707C151.632 362.051 146.223 350.888 148.339 343.581C152.116 330.542 174.366 335.978 186.823 344.245C199.281 352.513 205.328 360.946 203.303 367.864C201.277 374.781 184.177 379.363 167.904 370.707Z" stroke="url(#paint2_linear_584_56451)" stroke-width="1.93241"/>
      <path fill-rule="evenodd" clip-rule="evenodd" d="M227.197 376.963C224.568 378.871 218.332 380.049 209.167 372.775L219.716 366.432L221.404 365.417L231.953 359.074C234.08 370.58 230.115 375.536 227.197 376.963Z" fill="#57BF37"/>
      <path d="M248.251 321.215C248.377 304.729 241.844 295.828 235.136 294.491C223.166 292.106 217.915 312.006 219.121 325.304C220.326 338.602 224.419 346.882 230.778 348.13C237.138 349.378 248.125 337.7 248.251 321.215Z" fill="#070707" stroke="#070707" stroke-width="0.483101"/>
      <path d="M248.984 321.958C249.065 303.469 241.73 293.463 234.228 291.939C220.842 289.22 215.047 311.518 216.443 326.437C217.839 341.355 222.443 350.656 229.556 352.079C236.668 353.502 248.904 340.446 248.984 321.958Z" stroke="url(#paint3_linear_584_56451)" stroke-width="1.93241"/>
      <path d="M249.828 321.45C249.908 302.962 242.574 292.955 235.072 291.432C221.686 288.712 215.891 311.011 217.287 325.929C218.683 340.847 223.287 350.148 230.4 351.572C237.512 352.995 249.748 339.938 249.828 321.45Z" stroke="url(#paint4_linear_584_56451)" stroke-width="1.93241"/>
      <path d="M238.976 300.97C236.202 298.036 233.551 297.614 232.152 298.558C229.657 300.243 232.114 304.681 234.58 306.818C237.046 308.954 239.165 309.696 240.488 308.798C241.81 307.899 241.75 303.904 238.976 300.97Z" fill="url(#paint5_radial_584_56451)"/>
      <path fill-rule="evenodd" clip-rule="evenodd" d="M216.778 359.635C215.328 360.281 212.247 362.495 211.525 366.186L218.277 362.127L225.028 358.067C221.429 356.974 218.029 358.657 216.778 359.635Z" fill="#57BF37"/>
      <path d="M168.436 369.204C153.911 361.528 149.102 351.59 151.012 345.071C154.419 333.44 174.295 338.233 185.411 345.572C196.527 352.911 201.913 360.414 200.085 366.584C198.258 372.755 182.961 376.881 168.436 369.204Z" fill="#070707" stroke="#070707" stroke-width="0.483101"/>
      <path d="M154.695 351.646C153.404 347.82 154.274 345.281 155.764 344.488C158.423 343.074 161.19 347.325 161.921 350.505C162.652 353.685 162.313 355.905 160.899 356.652C159.485 357.399 155.985 355.471 154.695 351.646Z" fill="url(#paint6_radial_584_56451)"/>
      <path d="M167.904 370.707C151.632 362.051 146.223 350.888 148.339 343.581C152.116 330.542 174.366 335.978 186.823 344.245C199.281 352.513 205.328 360.946 203.303 367.864C201.277 374.781 184.177 379.363 167.904 370.707Z" stroke="url(#paint7_linear_584_56451)" stroke-width="1.93241"/>
      <rect width="8.88817" height="61.2226" transform="matrix(0.99987 -0.0160966 0.0193936 0.999812 191.689 234.613)" fill="#6DF244"/>
      <path d="M209.091 227.444C209.102 214.49 203.957 207.461 198.717 206.375C189.366 204.437 185.375 220.046 186.386 230.502C187.397 240.958 190.634 247.486 195.603 248.501C200.571 249.516 209.08 240.397 209.091 227.444Z" fill="#57BF37"/>
      <rect width="8.88815" height="61.2226" transform="matrix(-0.483106 0.875562 0.873962 0.485994 118.433 278.659)" fill="#6DF244"/>
      <path d="M103.94 290.667C92.4945 284.602 88.6986 276.762 90.1968 271.624C92.8702 262.456 108.528 266.251 117.289 272.048C126.05 277.844 130.298 283.765 128.864 288.628C127.43 293.492 115.386 296.732 103.94 290.667Z" fill="#57BF37"/>
      <g filter="url(#filter1_d_584_56451)">
        <circle cx="242.519" cy="398.191" r="9.51534" transform="rotate(-6.77196 242.519 398.191)" fill="url(#paint8_radial_584_56451)" stroke="#56CCF2" stroke-width="1.05166"/>
        <g filter="url(#filter2_d_584_56451)">
          <path d="M250.332 392.79C256.763 390.983 259.538 390.496 259.863 391.424C260.326 392.746 253.797 397.673 243.043 401.439C232.29 405.205 225.011 405.953 224.548 404.631C224.218 403.689 226.552 401.537 232.859 398.89" stroke="#6DF244" stroke-width="1.50237"/>
        </g>
      </g>
    </g>
    <defs>
      <filter id="filter0_d_584_56451" x="83.8848" y="205.21" width="210.5" height="271.79" filterUnits="userSpaceOnUse" color-interpolation-filters="sRGB">
        <feFlood flood-opacity="0" result="BackgroundImageFix"/>
        <feColorMatrix in="SourceAlpha" type="matrix" values="0 0 0 0 0 0 0 0 0 0 0 0 0 0 0 0 0 0 127 0" result="hardAlpha"/>
        <feOffset dy="5"/>
        <feGaussianBlur stdDeviation="3"/>
        <feComposite in2="hardAlpha" operator="out"/>
        <feColorMatrix type="matrix" values="0 0 0 0 0 0 0 0 0 0 0 0 0 0 0 0 0 0 0.15 0"/>
        <feBlend mode="normal" in2="BackgroundImageFix" result="effect1_dropShadow_584_56451"/>
        <feBlend mode="normal" in="SourceGraphic" in2="effect1_dropShadow_584_56451" result="shape"/>
      </filter>
      <filter id="filter1_d_584_56451" x="223.165" y="388.149" width="38.074" height="21.2862" filterUnits="userSpaceOnUse" color-interpolation-filters="sRGB">
        <feFlood flood-opacity="0" result="BackgroundImageFix"/>
        <feColorMatrix in="SourceAlpha" type="matrix" values="0 0 0 0 0 0 0 0 0 0 0 0 0 0 0 0 0 0 127 0" result="hardAlpha"/>
        <feOffset dy="0.600946"/>
        <feGaussianBlur stdDeviation="0.300473"/>
        <feComposite in2="hardAlpha" operator="out"/>
        <feColorMatrix type="matrix" values="0 0 0 0 0 0 0 0 0 0 0 0 0 0 0 0 0 0 0.25 0"/>
        <feBlend mode="normal" in2="BackgroundImageFix" result="effect1_dropShadow_584_56451"/>
        <feBlend mode="normal" in="SourceGraphic" in2="effect1_dropShadow_584_56451" result="shape"/>
      </filter>
      <filter id="filter2_d_584_56451" x="221.813" y="388.26" width="40.7782" height="19.6806" filterUnits="userSpaceOnUse" color-interpolation-filters="sRGB">
        <feFlood flood-opacity="0" result="BackgroundImageFix"/>
        <feColorMatrix in="SourceAlpha" type="matrix" values="0 0 0 0 0 0 0 0 0 0 0 0 0 0 0 0 0 0 127 0" result="hardAlpha"/>
        <feOffset/>
        <feGaussianBlur stdDeviation="0.976538"/>
        <feComposite in2="hardAlpha" operator="out"/>
        <feColorMatrix type="matrix" values="0 0 0 0 1 0 0 0 0 1 0 0 0 0 1 0 0 0 1 0"/>
        <feBlend mode="normal" in2="BackgroundImageFix" result="effect1_dropShadow_584_56451"/>
        <feBlend mode="normal" in="SourceGraphic" in2="effect1_dropShadow_584_56451" result="shape"/>
      </filter>
      <radialGradient id="paint0_radial_584_56451" cx="0" cy="0" r="1" gradientUnits="userSpaceOnUse" gradientTransform="translate(232.284 387.995) rotate(61.8214) scale(79.4119 67.0366)">
        <stop offset="0.552083" stop-color="white"/>
        <stop offset="1" stop-color="#CCD0C9"/>
      </radialGradient>
      <linearGradient id="paint1_linear_584_56451" x1="217.515" y1="360.861" x2="147.453" y2="248.157" gradientUnits="userSpaceOnUse">
        <stop offset="0.527397" stop-color="#6DF244"/>
        <stop offset="1" stop-color="#388E1D"/>
      </linearGradient>
      <linearGradient id="paint2_linear_584_56451" x1="161.421" y1="332.541" x2="189.075" y2="378.535" gradientUnits="userSpaceOnUse">
        <stop stop-color="#6CB835"/>
        <stop offset="0.40625" stop-color="#6CB835" stop-opacity="0"/>
      </linearGradient>
      <linearGradient id="paint3_linear_584_56451" x1="218.175" y1="298.417" x2="245.829" y2="344.411" gradientUnits="userSpaceOnUse">
        <stop stop-color="#6CB835"/>
        <stop offset="0.40625" stop-color="#6CB835" stop-opacity="0"/>
      </linearGradient>
      <linearGradient id="paint4_linear_584_56451" x1="219.019" y1="297.91" x2="246.673" y2="343.904" gradientUnits="userSpaceOnUse">
        <stop offset="0.541667" stop-color="#6CB835" stop-opacity="0"/>
        <stop offset="1" stop-color="#6CB835"/>
      </linearGradient>
      <radialGradient id="paint5_radial_584_56451" cx="0" cy="0" r="1" gradientUnits="userSpaceOnUse" gradientTransform="translate(236.248 303.567) rotate(48.0079) scale(6.14149 5.0103)">
        <stop stop-color="white" stop-opacity="0.75"/>
        <stop offset="1" stop-color="white" stop-opacity="0"/>
        <stop offset="1" stop-color="white"/>
      </radialGradient>
      <radialGradient id="paint6_radial_584_56451" cx="0" cy="0" r="1" gradientUnits="userSpaceOnUse" gradientTransform="translate(158.267 350.454) rotate(69.9583) scale(6.14149 5.0103)">
        <stop stop-color="white" stop-opacity="0.75"/>
        <stop offset="1" stop-color="white" stop-opacity="0"/>
        <stop offset="1" stop-color="white"/>
      </radialGradient>
      <linearGradient id="paint7_linear_584_56451" x1="161.421" y1="332.541" x2="189.075" y2="378.535" gradientUnits="userSpaceOnUse">
        <stop offset="0.671875" stop-color="#6CB835" stop-opacity="0"/>
        <stop offset="1" stop-color="#6CB835"/>
      </linearGradient>
      <radialGradient id="paint8_radial_584_56451" cx="0" cy="0" r="1" gradientUnits="userSpaceOnUse" gradientTransform="translate(236.798 392.845) rotate(49.243) scale(16.1373 14.1381)">
        <stop offset="0.3125" stop-color="#321A93"/>
        <stop offset="1" stop-color="#3603FF"/>
        <stop offset="1" stop-color="#3603FF"/>
      </radialGradient>
    </defs>
  
    </svg>
  