
    <svg width="768" height="768" viewBox="0 0 768 768" fill="none" xmlns="http://www.w3.org/2000/svg">
    
  <g clip-path="url(#clip0_559_25940)">
  <rect x="0.174805" y="0.0983887" width="768" height="768" fill="#27004F" fill-opacity="0.89"/>
  <rect x="0.174805" y="0.0983887" width="768" height="768" fill="url(#paint0_radial_559_25940)" fill-opacity="0.2"/>
  <path d="M276.433 637.523L657.918 418.561L945.71 513.198L466.417 645.227L276.433 637.523Z" fill="url(#paint1_linear_559_25940)"/>
  <g opacity="0.7" filter="url(#filter0_f_559_25940)">
  <ellipse cx="382.675" cy="301.953" rx="431.5" ry="532" transform="rotate(0.126655 382.675 301.953)" fill="url(#paint2_radial_559_25940)"/>
  </g>
  </g>
  <defs>
  <filter id="filter0_f_559_25940" x="-58.8257" y="-240.047" width="883.001" height="1084" filterUnits="userSpaceOnUse" color-interpolation-filters="sRGB">
  <feFlood flood-opacity="0" result="BackgroundImageFix"/>
  <feBlend mode="normal" in="SourceGraphic" in2="BackgroundImageFix" result="shape"/>
  <feGaussianBlur stdDeviation="5" result="effect1_foregroundBlur_559_25940"/>
  </filter>
  <radialGradient id="paint0_radial_559_25940" cx="0" cy="0" r="1" gradientUnits="userSpaceOnUse" gradientTransform="translate(343.675 881.098) rotate(-84.441) scale(526.476 530.319)">
  <stop/>
  <stop offset="1" stop-opacity="0"/>
  </radialGradient>
  <linearGradient id="paint1_linear_559_25940" x1="427.525" y1="596.052" x2="694.574" y2="368.5" gradientUnits="userSpaceOnUse">
  <stop/>
  <stop offset="1" stop-color="#333333" stop-opacity="0"/>
  </linearGradient>
  <radialGradient id="paint2_radial_559_25940" cx="0" cy="0" r="1" gradientUnits="userSpaceOnUse" gradientTransform="translate(382.675 380.518) rotate(92.5586) scale(346.34 281.204)">
  <stop stop-color="#737373"/>
  <stop offset="1" stop-color="#9A9A9A" stop-opacity="0"/>
  </radialGradient>
  <clipPath id="clip0_559_25940">
  <rect width="768" height="768" fill="white"/>
  </clipPath>
  </defs>

    
  <g clip-path="url(#clip0_589_71590)">
  <g style="mix-blend-mode:overlay">
  <path fill-rule="evenodd" clip-rule="evenodd" d="M22.9038 657.808C119.024 713.302 241.931 680.369 297.426 584.25C352.921 488.13 319.988 365.222 223.868 309.728C127.748 254.233 4.84058 287.166 -50.6542 383.286C-106.149 479.405 -73.2159 602.313 22.9038 657.808ZM-21.6475 400.033C21.6576 325.026 114.222 296.192 191.59 330.801L111.771 469.052L-41.983 510.25C-47.8792 473.573 -41.669 434.711 -21.6475 400.033ZM140.778 485.798L220.663 347.432C290.185 396.913 311.953 492.1 268.419 567.503C248.227 602.477 217.324 627.412 182.246 640.558L140.778 485.798ZM149.868 649.136C118.159 654.234 84.8148 650.282 53.9547 636.18L117.094 526.82L149.868 649.136ZM-33.4052 542.627L88.0869 510.073L25.0148 619.318C-2.33598 599.519 -22.1744 572.597 -33.4052 542.627Z" fill="white" fill-opacity="0.25"/>
  </g>
  <g style="mix-blend-mode:overlay">
  <path fill-rule="evenodd" clip-rule="evenodd" d="M758.27 474.64C833.456 431.231 859.217 335.09 815.808 259.904C772.399 184.717 676.258 158.957 601.072 202.366C525.886 245.775 500.125 341.915 543.534 417.101C586.943 492.288 683.083 518.049 758.27 474.64ZM566.223 404.002C532.349 345.33 549.019 271.348 602.723 232.473L665.159 340.615L632.933 460.884C605.782 450.534 581.884 431.127 566.223 404.002ZM687.848 327.515L625.361 219.283C686.07 191.54 759.065 214.022 793.118 273.004C808.913 300.361 813.718 331.048 808.904 359.952L687.848 327.515ZM802.052 385.24C793.103 408.714 777.386 429.757 755.763 445.146L706.374 359.603L802.052 385.24ZM658.221 467.736L683.685 372.703L733.021 458.156C708.912 468.94 682.916 471.85 658.221 467.736Z" fill="white" fill-opacity="0.25"/>
  </g>
  <g style="mix-blend-mode:overlay">
  <path fill-rule="evenodd" clip-rule="evenodd" d="M354.141 138.938C406.206 108.878 424.045 42.3032 393.985 -9.7616C363.926 -61.8264 297.351 -79.6651 245.286 -49.6054C193.221 -19.5458 175.382 47.029 205.442 99.0938C235.502 151.159 302.077 168.997 354.141 138.938ZM221.154 90.0225C197.697 49.394 209.241 -1.83695 246.429 -28.7566L289.665 46.1291L267.349 129.412C248.547 122.245 231.999 108.807 221.154 90.0225ZM305.376 37.0575L262.105 -37.8905C304.145 -57.1018 354.692 -41.5336 378.273 -0.690312C389.211 18.2539 392.538 39.5038 389.205 59.5192L305.376 37.0575ZM384.46 77.0304C378.263 93.286 367.379 107.857 352.406 118.514L318.205 59.2776L384.46 77.0304ZM284.86 134.157L302.494 68.3492L336.658 127.523C319.963 134.991 301.961 137.006 284.86 134.157Z" fill="white" fill-opacity="0.25"/>
  </g>
  </g>
  <defs>
  <clipPath id="clip0_589_71590">
  <rect width="768" height="768" fill="white"/>
  </clipPath>
  </defs>

    
<g filter="url(#filter0_b_520_56248)">
<path d="M326.178 207L274.042 460.841C273.886 461.6 274.171 462.37 274.808 462.812C281.654 467.568 322.472 494 384 494C445.528 494 486.346 467.568 493.192 462.812C493.829 462.37 494.114 461.6 493.958 460.841L441.822 207C441.748 207.147 441.651 207.284 441.53 207.405C438.6 210.365 423.996 222.688 384 222.688C344.004 222.688 329.4 210.365 326.47 207.405C326.349 207.284 326.252 207.147 326.178 207Z" fill="white" fill-opacity="0.75"/>
</g>
<path d="M341.559 135.914C349.139 107.438 355.252 71 383.528 71C411.805 71 421.711 116.115 426.441 136.608C430.663 154.896 439.74 196.441 441.645 205.17C441.874 206.22 441.62 207.277 440.837 208.014C436.837 211.781 421.752 223 384 223C346.108 223 331.052 211.697 327.119 207.973C326.364 207.258 326.106 206.237 326.301 205.216C327.821 197.275 334.846 161.132 341.559 135.914Z" fill="black"/>
<path d="M341.559 135.914C349.139 107.438 355.252 71 383.528 71C411.805 71 421.711 116.115 426.441 136.608C430.663 154.896 439.74 196.441 441.645 205.17C441.874 206.22 441.62 207.277 440.837 208.014C436.837 211.781 421.752 223 384 223C346.108 223 331.052 211.697 327.119 207.973C326.364 207.258 326.106 206.237 326.301 205.216C327.821 197.275 334.846 161.132 341.559 135.914Z" fill="url(#paint0_linear_520_56248)" fill-opacity="0.45"/>
<path d="M501 690.593L443.328 624H378.569H314.199L257 690.593C257 690.593 295.799 734.5 379 734.5C462.201 734.5 501 690.593 501 690.593Z" fill="black"/>
<path d="M273.83 461C273.83 461 325 493 384.5 493C444 493 494.17 461 494.17 461C501.901 493.924 517.919 578.176 491.043 620.86C457.218 674.578 401.341 693 384 693C366.659 693 310.782 674.578 276.957 620.86C250.081 578.176 266.099 493.924 273.83 461Z" fill="#6DF244"/>
<path d="M273.83 461C273.83 461 325 493 384.5 493C444 493 494.17 461 494.17 461C501.901 493.924 517.919 578.176 491.043 620.86C457.218 674.578 401.341 693 384 693C366.659 693 310.782 674.578 276.957 620.86C250.081 578.176 266.099 493.924 273.83 461Z" fill="url(#paint1_linear_520_56248)" fill-opacity="0.8"/>
<path d="M341.559 135.914C349.139 107.438 355.252 71 383.528 71C411.805 71 421.711 116.115 426.441 136.608C430.799 155.489 440.334 199.159 441.807 205.914C441.934 206.494 441.786 207.068 441.371 207.492C438.337 210.59 423.704 223 384 223C344.175 223 329.575 210.515 326.602 207.464C326.201 207.053 326.056 206.499 326.164 205.935C327.337 199.776 334.615 162 341.559 135.914Z" fill="url(#paint2_linear_520_56248)"/>
<path d="M501 690.593L443.328 624H378.569H314.199L257 690.593C257 690.593 295.799 734.5 379 734.5C462.201 734.5 501 690.593 501 690.593Z" fill="url(#paint3_linear_520_56248)"/>
<path d="M273.203 463.703C273.509 462.367 275.037 461.736 276.224 462.421C286.979 468.621 332.566 493 384.5 493C436.35 493 481.116 468.699 491.769 462.451C492.958 461.754 494.495 462.386 494.803 463.729C502.722 498.368 517.206 579.31 491.043 620.86C457.218 674.578 401.341 693 384 693C366.659 693 310.782 674.578 276.957 620.86C250.787 579.299 265.286 498.327 273.203 463.703Z" fill="url(#paint4_linear_520_56248)"/>
<path d="M287.342 609.219C268.078 577.122 270.345 552.029 281.676 541.524C301.896 522.782 334.935 555.53 347.967 582.958C360.998 610.386 362.698 631.395 351.933 641.315C341.168 651.236 306.607 641.315 287.342 609.219Z" stroke="url(#paint5_linear_520_56248)" stroke-width="4"/>
<path fill-rule="evenodd" clip-rule="evenodd" d="M384 665.982C377.427 666.2 365.34 664.491 357 656H382H386H411C402.66 664.491 390.573 666.2 384 665.982Z" fill="#E0AE0D"/>
<path d="M478.992 607.158C496.465 578.595 494.408 556.264 484.131 546.916C465.792 530.237 435.826 559.38 424.007 583.788C412.187 608.197 410.646 626.893 420.41 635.721C430.173 644.55 461.52 635.721 478.992 607.158Z" fill="#070707" stroke="#070707"/>
<path d="M479.491 609.219C498.98 577.122 496.686 552.029 485.223 541.524C464.768 522.782 431.345 555.53 418.161 582.958C404.978 610.386 403.259 631.395 414.149 641.315C425.04 651.236 460.003 641.315 479.491 609.219Z" stroke="url(#paint6_linear_520_56248)" stroke-width="4"/>
<path d="M481.491 609.219C500.98 577.122 498.686 552.029 487.223 541.524C466.768 522.782 433.345 555.53 420.161 582.958C406.978 610.386 405.259 631.395 416.149 641.315C427.04 651.236 462.003 641.315 481.491 609.219Z" stroke="url(#paint7_linear_520_56248)" stroke-width="4"/>
<path d="M484.035 562.212C482.277 554.203 478.105 550.693 474.682 550.873C468.574 551.194 468.207 561.491 470.263 567.791C472.319 574.09 475.231 577.6 478.474 577.42C481.717 577.24 485.793 570.222 484.035 562.212Z" fill="url(#paint8_radial_520_56248)"/>
<path fill-rule="evenodd" clip-rule="evenodd" d="M384 641.095C380.8 640.701 373.12 641.331 368 647H384H400C394.88 641.331 387.2 640.701 384 641.095Z" fill="#E0AE0D"/>
<path d="M289.841 607.158C272.593 578.595 274.623 556.264 284.768 546.916C302.872 530.237 332.454 559.38 344.122 583.788C355.789 608.197 357.311 626.893 347.673 635.721C338.034 644.55 307.09 635.721 289.841 607.158Z" fill="#070707" stroke="#070707"/>
<path d="M284.297 562.212C286.055 554.203 290.227 550.693 293.65 550.873C299.758 551.194 300.126 561.491 298.07 567.791C296.013 574.09 293.101 577.6 289.858 577.42C286.615 577.24 282.54 570.222 284.297 562.212Z" fill="url(#paint9_radial_520_56248)"/>
<path d="M287.342 609.219C268.078 577.122 270.345 552.029 281.676 541.524C301.896 522.782 334.935 555.53 347.967 582.958C360.998 610.386 362.698 631.395 351.933 641.315C341.168 651.236 306.607 641.315 287.342 609.219Z" stroke="url(#paint10_linear_520_56248)" stroke-width="4"/>
<path fill-rule="evenodd" clip-rule="evenodd" d="M389.283 493L389.059 493C390.346 492.998 391.623 492.984 392.891 492.958C391.693 492.986 390.49 493 389.283 493Z" fill="#161A70" fill-opacity="0.1"/>
<path fill-rule="evenodd" clip-rule="evenodd" d="M501.197 690.593C501.197 690.593 463.926 734.5 384 734.5V71C410.701 71 421.701 114.595 426.338 135.543L426.574 136.608C430.629 154.896 440.349 196.441 442.179 205.17C442.294 205.721 442.282 206.274 442.135 206.782L494.226 459.986C494.326 460.492 494.237 461.004 493.985 461.42C494.415 461.147 494.636 461 494.636 461C502.063 493.924 517.45 578.176 491.632 620.86C484.61 632.469 476.598 642.43 468.185 650.912L501.197 690.593ZM389.283 493L389.059 493C390.346 492.998 391.623 492.984 392.891 492.958C391.693 492.986 390.49 493 389.283 493Z" fill="#161A70" fill-opacity="0.1"/>
<defs>
<filter id="filter0_b_520_56248" x="250" y="183" width="268" height="335" filterUnits="userSpaceOnUse" color-interpolation-filters="sRGB">
<feFlood flood-opacity="0" result="BackgroundImageFix"/>
<feGaussianBlur in="BackgroundImage" stdDeviation="12"/>
<feComposite in2="SourceAlpha" operator="in" result="effect1_backgroundBlur_520_56248"/>
<feBlend mode="normal" in="SourceGraphic" in2="effect1_backgroundBlur_520_56248" result="shape"/>
</filter>
<linearGradient id="paint0_linear_520_56248" x1="362" y1="104" x2="384" y2="223" gradientUnits="userSpaceOnUse">
<stop stop-color="white" stop-opacity="0.17"/>
<stop offset="1" stop-color="#C3C3C3" stop-opacity="0"/>
</linearGradient>
<linearGradient id="paint1_linear_520_56248" x1="384" y1="644" x2="384" y2="498" gradientUnits="userSpaceOnUse">
<stop offset="0.527397" stop-color="#6DF244"/>
<stop offset="1" stop-color="#388E1D"/>
</linearGradient>
<linearGradient id="paint2_linear_520_56248" x1="342.345" y1="95.928" x2="462.715" y2="192.443" gradientUnits="userSpaceOnUse">
<stop stop-color="#C59651"/>
<stop offset="0.536458" stop-color="#E0AE0D" stop-opacity="0.98"/>
<stop offset="1" stop-color="#FFF27B" stop-opacity="0.98"/>
</linearGradient>
<linearGradient id="paint3_linear_520_56248" x1="291.382" y1="642.122" x2="356.556" y2="793.328" gradientUnits="userSpaceOnUse">
<stop stop-color="#C59651"/>
<stop offset="0.536458" stop-color="#E0AE0D" stop-opacity="0.98"/>
<stop offset="1" stop-color="#FFF27B" stop-opacity="0.98"/>
</linearGradient>
<linearGradient id="paint4_linear_520_56248" x1="384" y1="444" x2="339.067" y2="694.955" gradientUnits="userSpaceOnUse">
<stop stop-color="#C59651"/>
<stop offset="0.366795" stop-color="#FFC300" stop-opacity="0.98"/>
<stop offset="1" stop-color="#FFF27B" stop-opacity="0.98"/>
</linearGradient>
<linearGradient id="paint5_linear_520_56248" x1="316" y1="536" x2="316" y2="645" gradientUnits="userSpaceOnUse">
<stop stop-color="#E0AE0D"/>
<stop offset="0.40625" stop-color="#E0AE0D" stop-opacity="0"/>
</linearGradient>
<linearGradient id="paint6_linear_520_56248" x1="450.5" y1="536" x2="450.5" y2="645" gradientUnits="userSpaceOnUse">
<stop stop-color="#E0AE0D"/>
<stop offset="0.40625" stop-color="#E0AE0D" stop-opacity="0"/>
</linearGradient>
<linearGradient id="paint7_linear_520_56248" x1="452.5" y1="536" x2="452.5" y2="645" gradientUnits="userSpaceOnUse">
<stop offset="0.541667" stop-color="#E0AE0D" stop-opacity="0"/>
<stop offset="1" stop-color="#E0AE0D"/>
</linearGradient>
<radialGradient id="paint8_radial_520_56248" cx="0" cy="0" r="1" gradientUnits="userSpaceOnUse" gradientTransform="translate(476.569 563.877) rotate(79.0248) scale(12.4735 10.176)">
<stop stop-color="white" stop-opacity="0.75"/>
<stop offset="1" stop-color="white" stop-opacity="0"/>
<stop offset="1" stop-color="white"/>
</radialGradient>
<radialGradient id="paint9_radial_520_56248" cx="0" cy="0" r="1" gradientUnits="userSpaceOnUse" gradientTransform="translate(291.764 563.877) rotate(100.975) scale(12.4735 10.176)">
<stop stop-color="white" stop-opacity="0.75"/>
<stop offset="1" stop-color="white" stop-opacity="0"/>
<stop offset="1" stop-color="white"/>
</radialGradient>
<linearGradient id="paint10_linear_520_56248" x1="316" y1="536" x2="316" y2="645" gradientUnits="userSpaceOnUse">
<stop offset="0.671875" stop-color="#E0AE0D" stop-opacity="0"/>
<stop offset="1" stop-color="#E0AE0D"/>
</linearGradient>
</defs>

    
<path d="M441.159 206.769L450.076 250.217C446.589 249.622 442.962 248.936 439.252 248.234C408.22 242.363 371.387 235.395 362.064 271.5C357.993 287.264 363.891 296.694 369.628 305.87C375.167 314.727 380.557 323.346 376.689 337.193C371.981 354.047 346.388 364.964 325.805 357.656C304.062 349.936 305.59 317.96 318.087 302.48C330.583 287 332.39 263.382 330.583 247.669C329.71 240.075 325.959 234.645 321.053 230.95L326.178 206C326.252 206.147 326.349 206.284 326.47 206.405C329.4 209.365 344.004 221.688 384 221.688C422.526 221.688 437.492 210.254 441.159 206.769Z" fill="url(#paint0_radial_461_73429)"/>
<mask id="mask0_461_73429" style="mask-type:alpha" maskUnits="userSpaceOnUse" x="309" y="206" width="142" height="154">
<path d="M441.159 206.769L450.076 250.217C446.589 249.622 442.962 248.936 439.252 248.234C408.22 242.363 371.387 235.395 362.064 271.5C357.993 287.264 363.891 296.694 369.628 305.87C375.167 314.727 380.557 323.346 376.689 337.193C371.981 354.047 346.388 364.964 325.805 357.656C304.062 349.936 305.59 317.96 318.087 302.48C330.583 287 332.39 263.382 330.583 247.669C329.71 240.075 325.959 234.645 321.053 230.95L326.178 206C326.252 206.147 326.349 206.284 326.47 206.405C329.4 209.365 344.004 221.688 384 221.688C422.526 221.688 437.492 210.254 441.159 206.769Z" fill="url(#paint1_radial_461_73429)"/>
</mask>
<g mask="url(#mask0_461_73429)">
<g filter="url(#filter0_f_461_73429)">
<mask id="mask1_461_73429" style="mask-type:alpha" maskUnits="userSpaceOnUse" x="274" y="207" width="220" height="288">
<path d="M326.645 208.597C326.836 207.667 327.654 207 328.604 207H439.396C440.346 207 441.164 207.667 441.355 208.597L493.699 463.342C493.877 464.211 493.468 465.089 492.676 465.489C484.111 469.816 435.292 493.314 384 493.994C332.606 494.676 283.694 469.968 275.273 465.497C274.504 465.088 274.119 464.228 274.295 463.375L326.645 208.597Z" fill="#577096" fill-opacity="0.75"/>
</mask>
<g mask="url(#mask1_461_73429)">
<g filter="url(#filter1_f_461_73429)">
<path d="M454.675 167C462.701 241.961 320.236 290.9 248 306L248 167L454.675 167Z" fill="url(#paint2_linear_461_73429)" fill-opacity="0.5"/>
</g>
<g filter="url(#filter2_f_461_73429)">
<path d="M341.008 274.947C343.339 230.439 295.068 189.11 282.906 147.014C292.691 143.062 316.087 155.333 335.012 167.04C358.668 181.673 357.402 239.449 361.234 276.006C364.299 305.252 325.749 490.207 316.009 529.88L289.022 528.466C307.731 471.07 339.209 309.296 341.008 274.947Z" fill="url(#paint3_linear_461_73429)" fill-opacity="0.6"/>
</g>
</g>
</g>
</g>
<defs>
<filter id="filter0_f_461_73429" x="269" y="202" width="230" height="297.008" filterUnits="userSpaceOnUse" color-interpolation-filters="sRGB">
<feFlood flood-opacity="0" result="BackgroundImageFix"/>
<feBlend mode="normal" in="SourceGraphic" in2="BackgroundImageFix" result="shape"/>
<feGaussianBlur stdDeviation="2.5" result="effect1_foregroundBlur_461_73429"/>
</filter>
<filter id="filter1_f_461_73429" x="246" y="165" width="211" height="143" filterUnits="userSpaceOnUse" color-interpolation-filters="sRGB">
<feFlood flood-opacity="0" result="BackgroundImageFix"/>
<feBlend mode="normal" in="SourceGraphic" in2="BackgroundImageFix" result="shape"/>
<feGaussianBlur stdDeviation="1" result="effect1_foregroundBlur_461_73429"/>
</filter>
<filter id="filter2_f_461_73429" x="280.906" y="144.259" width="82.5006" height="387.621" filterUnits="userSpaceOnUse" color-interpolation-filters="sRGB">
<feFlood flood-opacity="0" result="BackgroundImageFix"/>
<feBlend mode="normal" in="SourceGraphic" in2="BackgroundImageFix" result="shape"/>
<feGaussianBlur stdDeviation="1" result="effect1_foregroundBlur_461_73429"/>
</filter>
<radialGradient id="paint0_radial_461_73429" cx="0" cy="0" r="1" gradientUnits="userSpaceOnUse" gradientTransform="translate(342.05 239.4) rotate(53.1177) scale(82.9829 88.352)">
<stop offset="0.203125" style="stop-color: #F85449;"/>
<stop offset="0.890625" style="stop-color: #C53434;"/>
</radialGradient>
<radialGradient id="paint1_radial_461_73429" cx="0" cy="0" r="1" gradientUnits="userSpaceOnUse" gradientTransform="translate(342.05 239.4) rotate(53.1177) scale(82.9829 88.352)">
<stop offset="0.203125" style="stop-color=#F85449;"/>
<stop offset="0.890625" style="stop-color=#C53434;"/>
</radialGradient>
<linearGradient id="paint2_linear_461_73429" x1="318.643" y1="269.919" x2="341.934" y2="158.629" gradientUnits="userSpaceOnUse">
<stop stop-color="white" stop-opacity="0"/>
<stop offset="0.471361" stop-color="white"/>
<stop offset="1" stop-color="white"/>
</linearGradient>
<linearGradient id="paint3_linear_461_73429" x1="352.686" y1="484.803" x2="443.145" y2="390.584" gradientUnits="userSpaceOnUse">
<stop stop-color="#F2F2F2"/>
<stop offset="0.0001" stop-color="#F2F2F2"/>
<stop offset="0.0520833" stop-color="#F2F2F2" stop-opacity="0.948011"/>
<stop offset="1" stop-color="#F2F2F2" stop-opacity="0"/>
</linearGradient>
</defs>

    
<path d="M390 287.263C390 280.762 394.476 267.81 412.378 268.002C430.28 268.195 434.914 280.923 434.993 287.263C435.152 291.917 432.47 301.997 420.472 305.079C405.474 308.931 390 300.264 390 287.263Z" fill="url(#paint0_radial_461_73430)"/>
<defs>
<radialGradient id="paint0_radial_461_73430" cx="0" cy="0" r="1" gradientUnits="userSpaceOnUse" gradientTransform="translate(400.542 276.244) rotate(45.8803) scale(22.82 25.2937)">
<stop offset="0.203125" style="stop-color: #F85449;"/>
<stop offset="0.890625" style="stop-color: #C53434;"/>
</radialGradient>
</defs>

    
<path d="M469.69 343.667L480.179 394.773C476.011 399.702 469.836 404.033 460.881 406.303C432.885 413.399 404 397.433 404 373.484C404 361.509 412.354 337.649 445.772 338.004C455.848 338.111 463.672 340.317 469.69 343.667Z" fill="url(#paint0_radial_461_73431)"/>
<defs>
<radialGradient id="paint0_radial_461_73431" cx="0" cy="0" r="1" gradientUnits="userSpaceOnUse" gradientTransform="translate(421.846 353.185) rotate(48.2936) scale(40.4221 44.5291)">
<stop offset="0.203125" style="stop-color: #71FF30;"/>
<stop offset="0.890625" style="stop-color: #25BC46;"/>
</radialGradient>
</defs>

    
    
    </svg>
  