
    <svg width="350" height="350" viewBox="0 0 350 350" fill="none" xmlns="http://www.w3.org/2000/svg">
    
  <g clip-path="url(#clip0_28_300)">
  <g filter="url(#filter0_f_28_300)">
  <rect x="350.08" y="350.045" width="350" height="350" transform="rotate(-180 350.08 350.045)" fill="#0E103E"/>
  </g>
  <g style="mix-blend-mode:overlay" filter="url(#filter1_f_28_300)">
  <ellipse rx="270.447" ry="92.7881" transform="matrix(0.999998 0.00221055 0.00221055 -0.999998 176.733 365.186)" fill="url(#paint0_radial_28_300)"/>
  </g>
  <g style="mix-blend-mode:overlay" filter="url(#filter2_f_28_300)">
  <ellipse cx="174.396" cy="133.051" rx="273.297" ry="336.951" transform="rotate(0.126655 174.396 133.051)" fill="url(#paint1_radial_28_300)"/>
  </g>
  <g opacity="0.6">
  <circle cx="21.3375" cy="78.6408" r="1.16688" fill="white"/>
  <circle cx="214.322" cy="248.224" r="1.16688" transform="rotate(165 214.322 248.224)" fill="white"/>
  <circle cx="325.548" cy="113.155" r="1.16688" transform="rotate(75 325.548 113.155)" fill="white"/>
  <circle cx="340.036" cy="124.932" r="1.16688" transform="rotate(75 340.036 124.932)" fill="white"/>
  <circle cx="322.718" cy="82.5488" r="1.16688" transform="rotate(75 322.718 82.5488)" fill="white"/>
  <circle cx="157.078" cy="146.729" r="1.16688" transform="rotate(75 157.078 146.729)" fill="white"/>
  <circle cx="266.453" cy="142.627" r="1.16688" transform="rotate(75 266.453 142.627)" fill="white"/>
  <circle cx="8.72079" cy="30.1401" r="1.16688" transform="rotate(75 8.72079 30.1401)" fill="white"/>
  <circle cx="64.4347" cy="118.315" r="1.16688" fill="white"/>
  <circle cx="162.425" cy="221.056" r="1.16688" transform="rotate(165 162.425 221.056)" fill="white"/>
  <circle cx="298.38" cy="165.052" r="1.16688" transform="rotate(75 298.38 165.052)" fill="white"/>
  <circle cx="129.91" cy="198.626" r="1.16688" transform="rotate(75 129.91 198.626)" fill="white"/>
  <circle cx="239.285" cy="194.524" r="1.16688" transform="rotate(75 239.285 194.524)" fill="white"/>
  <circle cx="40.5872" cy="93.8078" r="1.16688" transform="rotate(75 40.5872 93.8078)" fill="white"/>
  <circle cx="58.3666" cy="79.7299" r="1.16688" fill="white"/>
  <circle cx="178.273" cy="256.756" r="1.16688" transform="rotate(165 178.273 256.756)" fill="white"/>
  <circle cx="334.079" cy="149.204" r="1.16688" transform="rotate(75 334.079 149.204)" fill="white"/>
  <circle cx="165.609" cy="182.778" r="1.16688" transform="rotate(75 165.609 182.778)" fill="white"/>
  <circle cx="274.984" cy="178.677" r="1.16688" transform="rotate(75 274.984 178.677)" fill="white"/>
  <circle cx="294.007" cy="195.114" r="1.16688" transform="rotate(75 294.007 195.114)" fill="white"/>
  <circle cx="67.0543" cy="101.689" r="1.16688" transform="rotate(75 67.0543 101.689)" fill="white"/>
  <circle cx="17.2924" cy="169.813" r="1.16688" fill="white"/>
  <circle cx="194.632" cy="159.112" r="1.16688" transform="rotate(165 194.632 159.112)" fill="white"/>
  <circle cx="236.435" cy="132.845" r="1.16688" transform="rotate(75 236.435 132.845)" fill="white"/>
  <circle cx="67.9657" cy="166.419" r="1.16688" transform="rotate(75 67.9657 166.419)" fill="white"/>
  <circle cx="177.341" cy="162.317" r="1.16688" transform="rotate(75 177.341 162.317)" fill="white"/>
  <circle cx="3.44544" cy="159.7" r="1.16688" fill="white"/>
  <circle cx="210.625" cy="165.296" r="1.16688" transform="rotate(165 210.625 165.296)" fill="white"/>
  <circle cx="242.62" cy="116.852" r="1.16688" transform="rotate(75 242.62 116.852)" fill="white"/>
  <circle cx="74.15" cy="150.426" r="1.16688" transform="rotate(75 74.15 150.426)" fill="white"/>
  <circle cx="183.525" cy="146.325" r="1.16688" transform="rotate(75 183.525 146.325)" fill="white"/>
  <circle cx="52.2987" cy="174.792" r="1.16688" fill="white"/>
  <circle cx="59.5001" cy="192.117" r="1.16688" fill="white"/>
  <circle cx="159.53" cy="163.363" r="1.16688" transform="rotate(165 159.53 163.363)" fill="white"/>
  <circle cx="278.968" cy="303.578" r="1.16688" transform="rotate(75 278.968 303.578)" fill="white"/>
  <circle cx="72.2166" cy="201.521" r="1.16688" transform="rotate(75 72.2166 201.521)" fill="white"/>
  <circle cx="181.592" cy="197.419" r="1.16688" transform="rotate(75 181.592 197.419)" fill="white"/>
  <circle cx="9.20203" cy="90.7765" r="1.16688" fill="white"/>
  <circle cx="222.903" cy="233.361" r="1.16688" transform="rotate(165 222.903 233.361)" fill="white"/>
  <circle cx="310.685" cy="104.574" r="1.16688" transform="rotate(75 310.685 104.574)" fill="white"/>
  <circle cx="214.255" cy="306.768" r="1.16688" transform="rotate(75 214.255 306.768)" fill="white"/>
  <circle cx="251.59" cy="134.046" r="1.16688" transform="rotate(75 251.59 134.046)" fill="white"/>
  <circle cx="10.088" cy="12.3666" r="1.16688" transform="rotate(75 10.088 12.3666)" fill="white"/>
  <circle cx="320.177" cy="231.31" r="1.16688" fill="white"/>
  <circle cx="217.762" cy="208.162" r="1.16688" transform="rotate(165 217.762 208.162)" fill="white"/>
  <circle cx="216.989" cy="70.6999" r="1.16688" transform="rotate(75 216.989 70.6999)" fill="white"/>
  <circle cx="117.016" cy="143.289" r="1.16688" transform="rotate(75 117.016 143.289)" fill="white"/>
  <circle cx="226.39" cy="139.188" r="1.16688" transform="rotate(75 226.39 139.188)" fill="white"/>
  <circle cx="27.6927" cy="38.4716" r="1.16688" transform="rotate(75 27.6927 38.4716)" fill="white"/>
  <circle cx="23.6713" cy="121.893" r="1.16688" fill="white"/>
  <circle cx="200.874" cy="207.05" r="1.16688" transform="rotate(165 200.874 207.05)" fill="white"/>
  <circle cx="284.373" cy="126.604" r="1.16688" transform="rotate(75 284.373 126.604)" fill="white"/>
  <circle cx="13.734" cy="323.63" r="1.16688" transform="rotate(75 13.734 323.63)" fill="white"/>
  <circle cx="225.278" cy="156.076" r="1.16688" transform="rotate(75 225.278 156.076)" fill="white"/>
  <circle cx="26.5804" cy="55.3598" r="1.16688" transform="rotate(75 26.5804 55.3598)" fill="white"/>
  <circle cx="43.0939" cy="61.3231" r="1.16688" fill="white"/>
  <circle cx="49.4743" cy="27.1434" r="1.16688" fill="white"/>
  <circle cx="69.5263" cy="41.2709" r="1.16688" fill="white"/>
  <circle cx="81.3751" cy="11.1928" r="1.16688" fill="white"/>
  <circle cx="273.693" cy="83.6537" r="1.16688" fill="white"/>
  <circle cx="312.886" cy="35.8021" r="1.16688" fill="white"/>
  <circle cx="253.641" cy="54.9428" r="1.16688" fill="white"/>
  <circle cx="249.084" cy="29.422" r="1.16688" fill="white"/>
  <circle cx="167.052" cy="5.72401" r="1.16688" fill="white"/>
  <circle cx="133.784" cy="8.91419" r="1.16688" fill="white"/>
  <circle cx="136.063" cy="40.8153" r="1.16688" fill="white"/>
  <circle cx="90.4899" cy="71.8048" r="1.16688" fill="white"/>
  <circle cx="208.068" cy="17.5731" r="1.16688" fill="white"/>
  <circle cx="219.006" cy="47.1954" r="1.16688" fill="white"/>
  <circle cx="243.615" cy="90.0341" r="1.16688" fill="white"/>
  <circle cx="123.302" cy="71.8048" r="1.16688" fill="white"/>
  <circle cx="107.808" cy="96.4142" r="1.16688" fill="white"/>
  <circle cx="144.319" cy="266.498" r="1.16688" transform="rotate(165 144.319 266.498)" fill="white"/>
  <circle cx="343.821" cy="183.158" r="1.16688" transform="rotate(75 343.821 183.158)" fill="white"/>
  <circle cx="175.352" cy="216.731" r="1.16688" transform="rotate(75 175.352 216.731)" fill="white"/>
  <circle cx="284.727" cy="212.63" r="1.16688" transform="rotate(75 284.727 212.63)" fill="white"/>
  <circle cx="86.0289" cy="111.914" r="1.16688" transform="rotate(75 86.0289 111.914)" fill="white"/>
  <circle cx="9.37" cy="55.8544" r="1.16688" fill="white"/>
  <circle cx="126.226" cy="263.292" r="1.16688" transform="rotate(165 126.226 263.292)" fill="white"/>
  <circle cx="340.616" cy="201.251" r="1.16688" transform="rotate(75 340.616 201.251)" fill="white"/>
  <circle cx="114.45" cy="331.377" r="1.16688" transform="rotate(75 114.45 331.377)" fill="white"/>
  <circle cx="281.522" cy="230.723" r="1.16688" transform="rotate(75 281.522 230.723)" fill="white"/>
  <circle cx="308.135" cy="246.156" r="1.16688" transform="rotate(75 308.135 246.156)" fill="white"/>
  <circle cx="279.88" cy="253.903" r="1.16688" transform="rotate(75 279.88 253.903)" fill="white"/>
  <circle cx="239.775" cy="278.513" r="1.16688" transform="rotate(75 239.775 278.513)" fill="white"/>
  <circle cx="197.848" cy="185.088" r="1.16688" transform="rotate(75 197.848 185.088)" fill="white"/>
  <circle cx="144.984" cy="206.963" r="1.16688" transform="rotate(75 144.984 206.963)" fill="white"/>
  <circle cx="145.895" cy="244.333" r="1.16688" transform="rotate(75 145.895 244.333)" fill="white"/>
  <circle cx="93.9422" cy="209.697" r="1.16688" transform="rotate(75 93.9422 209.697)" fill="white"/>
  <circle cx="93.0309" cy="184.177" r="1.16688" transform="rotate(75 93.0309 184.177)" fill="white"/>
  <circle cx="82.8236" cy="130.007" r="1.16688" transform="rotate(75 82.8236 130.007)" fill="white"/>
  <circle cx="101.775" cy="130.295" r="1.16688" fill="white"/>
  <circle cx="123.257" cy="219.149" r="1.16688" transform="rotate(165 123.257 219.149)" fill="white"/>
  <circle cx="326.364" cy="266.208" r="1.16688" transform="rotate(75 326.364 266.208)" fill="white"/>
  <circle cx="313.604" cy="187.822" r="1.16688" transform="rotate(75 313.604 187.822)" fill="white"/>
  <circle cx="321.807" cy="169.593" r="1.16688" transform="rotate(75 321.807 169.593)" fill="white"/>
  <circle cx="285.348" cy="148.63" r="1.16688" transform="rotate(75 285.348 148.63)" fill="white"/>
  <circle cx="329.098" cy="322.718" r="1.16688" transform="rotate(75 329.098 322.718)" fill="white"/>
  <circle cx="255.726" cy="157.744" r="1.16688" transform="rotate(75 255.726 157.744)" fill="white"/>
  <circle cx="337.757" cy="91.2077" r="1.16688" transform="rotate(75 337.757 91.2077)" fill="white"/>
  <circle cx="341.403" cy="69.3327" r="1.16688" transform="rotate(75 341.403 69.3327)" fill="white"/>
  <circle cx="128.003" cy="237.794" r="1.16688" transform="rotate(75 128.003 237.794)" fill="white"/>
  <circle cx="237.378" cy="233.693" r="1.16688" transform="rotate(75 237.378 233.693)" fill="white"/>
  <circle cx="247.067" cy="216.533" r="1.16688" transform="rotate(75 247.067 216.533)" fill="white"/>
  <circle cx="221.546" cy="184.632" r="1.16688" transform="rotate(75 221.546 184.632)" fill="white"/>
  <circle cx="38.68" cy="132.976" r="1.16688" transform="rotate(75 38.68 132.976)" fill="white"/>
  <circle cx="46.7399" cy="342.052" r="1.16688" fill="white"/>
  <circle cx="131.026" cy="187.43" r="1.16688" transform="rotate(165 131.026 187.43)" fill="white"/>
  <circle cx="264.754" cy="196.451" r="1.16688" transform="rotate(75 264.754 196.451)" fill="white"/>
  <circle cx="96.2838" cy="230.025" r="1.16688" transform="rotate(75 96.2838 230.025)" fill="white"/>
  <circle cx="205.659" cy="225.923" r="1.16688" transform="rotate(75 205.659 225.923)" fill="white"/>
  <circle cx="269.398" cy="336.846" r="1.16688" transform="rotate(75 269.398 336.846)" fill="white"/>
  <circle cx="79.837" cy="172.925" r="1.16688" fill="white"/>
  <circle cx="133.413" cy="172.294" r="1.16688" transform="rotate(165 133.413 172.294)" fill="white"/>
  <circle cx="249.617" cy="194.064" r="1.16688" transform="rotate(75 249.617 194.064)" fill="white"/>
  <circle cx="81.1476" cy="227.638" r="1.16688" transform="rotate(75 81.1476 227.638)" fill="white"/>
  <circle cx="190.523" cy="223.536" r="1.16688" transform="rotate(75 190.523 223.536)" fill="white"/>
  <circle cx="105.664" cy="158.611" r="1.16688" fill="white"/>
  <circle cx="112.171" cy="192.804" r="1.16688" transform="rotate(165 112.171 192.804)" fill="white"/>
  <circle cx="270.128" cy="215.306" r="1.16688" transform="rotate(75 270.128 215.306)" fill="white"/>
  <circle cx="101.658" cy="248.879" r="1.16688" transform="rotate(75 101.658 248.879)" fill="white"/>
  <circle cx="211.033" cy="244.778" r="1.16688" transform="rotate(75 211.033 244.778)" fill="white"/>
  <circle cx="12.335" cy="144.062" r="1.16688" transform="rotate(75 12.335 144.062)" fill="white"/>
  <path d="M255.397 175.377L254.977 174.242L253.841 173.821L254.977 173.401L255.397 172.266L255.818 173.401L256.953 173.821L255.818 174.242L255.397 175.377Z" fill="#FFF7B0"/>
  <path d="M88.8035 163.528L88.3833 162.393L87.2477 161.972L88.3833 161.552L88.8035 160.417L89.2238 161.552L90.3594 161.972L89.2238 162.393L88.8035 163.528Z" fill="#FFF7B0"/>
  <path d="M53.7122 68.2808L53.292 67.1451L52.1564 66.7249L53.292 66.3047L53.7122 65.1691L54.1324 66.3047L55.2681 66.7249L54.1324 67.1451L53.7122 68.2808Z" fill="#FFF7B0"/>
  <path d="M339.252 47.7729L338.831 46.6373L337.696 46.2171L338.831 45.7969L339.252 44.6613L339.672 45.7969L340.807 46.2171L339.672 46.6373L339.252 47.7729Z" fill="#FFF7B0"/>
  <path d="M239.907 220.862L239.487 219.726L238.351 219.306L239.487 218.886L239.907 217.75L240.327 218.886L241.463 219.306L240.327 219.726L239.907 220.862Z" fill="#FFF7B0"/>
  <path d="M80.4019 217.672L79.9817 216.536L78.8461 216.116L79.9817 215.695L80.4019 214.56L80.8221 215.695L81.9578 216.116L80.8221 216.536L80.4019 217.672Z" fill="#FFF7B0"/>
  <path d="M45.3109 122.424L44.8906 121.289L43.755 120.868L44.8906 120.448L45.3109 119.313L45.7311 120.448L46.8667 120.868L45.7311 121.289L45.3109 122.424Z" fill="#FFF7B0"/>
  <path d="M288.214 116.5L287.794 115.364L286.659 114.944L287.794 114.524L288.214 113.388L288.635 114.524L289.77 114.944L288.635 115.364L288.214 116.5Z" fill="#FFF7B0"/>
  <path d="M250.642 205.148L250.222 204.012L249.087 203.592L250.222 203.172L250.642 202.036L251.063 203.172L252.198 203.592L251.063 204.012L250.642 205.148Z" fill="#FFF7B0"/>
  <path d="M91.137 201.958L90.7168 200.822L89.5812 200.402L90.7168 199.981L91.137 198.846L91.5573 199.981L92.6929 200.402L91.5573 200.822L91.137 201.958Z" fill="#FFF7B0"/>
  <path d="M56.046 106.71L55.6258 105.575L54.4901 105.154L55.6258 104.734L56.046 103.599L56.4662 104.734L57.6018 105.154L56.4662 105.575L56.046 106.71Z" fill="#FFF7B0"/>
  <path d="M298.95 100.786L298.529 99.65L297.394 99.2298L298.529 98.8096L298.95 97.674L299.37 98.8096L300.505 99.2298L299.37 99.65L298.95 100.786Z" fill="#FFF7B0"/>
  <path d="M248.308 243.577L247.888 242.441L246.753 242.021L247.888 241.601L248.308 240.465L248.729 241.601L249.864 242.021L248.729 242.441L248.308 243.577Z" fill="#FFF7B0"/>
  <path d="M270.892 243.737L270.472 242.601L269.336 242.181L270.472 241.761L270.892 240.625L271.312 241.761L272.448 242.181L271.312 242.601L270.892 243.737Z" fill="#FFF7B0"/>
  <path d="M254.486 258.32L254.066 257.184L252.93 256.764L254.066 256.344L254.486 255.208L254.906 256.344L256.042 256.764L254.906 257.184L254.486 258.32Z" fill="#FFF7B0"/>
  <path d="M88.8035 240.387L88.3833 239.251L87.2477 238.831L88.3833 238.411L88.8035 237.275L89.2238 238.411L90.3594 238.831L89.2238 239.251L88.8035 240.387Z" fill="#FFF7B0"/>
  <path d="M53.7122 145.139L53.292 144.004L52.1564 143.584L53.292 143.163L53.7122 142.028L54.1324 143.163L55.2681 143.584L54.1324 144.004L53.7122 145.139Z" fill="#FFF7B0"/>
  <path d="M296.616 139.215L296.195 138.079L295.06 137.659L296.195 137.239L296.616 136.103L297.036 137.239L298.171 137.659L297.036 138.079L296.616 139.215Z" fill="#FFF7B0"/>
  <path d="M161.316 310.328L160.581 308.341L158.594 307.605L160.581 306.87L161.316 304.883L162.052 306.87L164.039 307.605L162.052 308.341L161.316 310.328Z" fill="#FFF7B0"/>
  <path d="M110.663 247.232L109.927 245.245L107.94 244.51L109.927 243.774L110.663 241.787L111.398 243.774L113.385 244.51L111.398 245.245L110.663 247.232Z" fill="#FFF7B0"/>
  <path d="M91.1342 146.721L90.3988 144.734L88.4115 143.999L90.3988 143.263L91.1342 141.276L91.8696 143.263L93.8569 143.999L91.8696 144.734L91.1342 146.721Z" fill="#FFF7B0"/>
  <path d="M98.4257 43.7266L97.6903 41.7392L95.703 41.0038L97.6903 40.2685L98.4257 38.2811L99.1611 40.2685L101.148 41.0038L99.1611 41.7392L98.4257 43.7266Z" fill="#FFF7B0"/>
  <path d="M311.251 209.612L310.516 207.625L308.529 206.889L310.516 206.154L311.251 204.167L311.987 206.154L313.974 206.889L311.987 207.625L311.251 209.612Z" fill="#FFF7B0"/>
  <path d="M221.315 199.391L220.579 197.404L218.592 196.668L220.579 195.933L221.315 193.946L222.05 195.933L224.037 196.668L222.05 197.404L221.315 199.391Z" fill="#FFF7B0"/>
  <path d="M65.6132 303.492L64.8778 301.505L62.8905 300.769L64.8778 300.034L65.6132 298.047L66.3486 300.034L68.3359 300.769L66.3486 301.505L65.6132 303.492Z" fill="#FFF7B0"/>
  <path d="M26.7184 100.953L25.9831 98.966L23.9957 98.2307L25.9831 97.4953L26.7184 95.5079L27.4538 97.4953L29.4412 98.2307L27.4538 98.966L26.7184 100.953Z" fill="#FFF7B0"/>
  <path d="M301.681 86.1096L300.946 84.1223L298.958 83.3869L300.946 82.6515L301.681 80.6642L302.416 82.6515L304.404 83.3869L302.416 84.1223L301.681 86.1096Z" fill="#FFF7B0"/>
  <path d="M287.098 50.5627L286.362 48.5754L284.375 47.84L286.362 47.1046L287.098 45.1173L287.833 47.1046L289.82 47.84L287.833 48.5754L287.098 50.5627Z" fill="#FFF7B0"/>
  <path d="M335.861 5.90088L335.125 3.91354L333.138 3.17816L335.125 2.44278L335.861 0.455448L336.596 2.44278L338.583 3.17816L336.596 3.91354L335.861 5.90088Z" fill="#FFF7B0"/>
  <path d="M264.723 228.33L263.987 226.342L262 225.607L263.987 224.871L264.723 222.884L265.458 224.871L267.445 225.607L265.458 226.342L264.723 228.33Z" fill="#FFF7B0"/>
  <path d="M292.111 267.49L291.375 265.502L289.388 264.767L291.375 264.032L292.111 262.044L292.846 264.032L294.833 264.767L292.846 265.502L292.111 267.49Z" fill="#FFF7B0"/>
  <path d="M264.767 284.807L264.032 282.82L262.044 282.085L264.032 281.349L264.767 279.362L265.502 281.349L267.49 282.085L265.502 282.82L264.767 284.807Z" fill="#FFF7B0"/>
  <path d="M105.217 225.14L104.482 223.152L102.495 222.417L104.482 221.681L105.217 219.694L105.953 221.681L107.94 222.417L105.953 223.152L105.217 225.14Z" fill="#FFF7B0"/>
  <path d="M16.3945 261.109L15.6591 259.122L13.6718 258.387L15.6591 257.651L16.3945 255.664L17.1299 257.651L19.1172 258.387L17.1299 259.122L16.3945 261.109Z" fill="#FFF7B0"/>
  <path d="M313.03 123.968L312.295 121.98L310.307 121.245L312.295 120.509L313.03 118.522L313.765 120.509L315.753 121.245L313.765 121.98L313.03 123.968Z" fill="#FFF7B0"/>
  <path d="M280.125 170.608L279.39 168.621L277.402 167.885L279.39 167.15L280.125 165.163L280.861 167.15L282.848 167.885L280.861 168.621L280.125 170.608Z" fill="#FFF7B0"/>
  <path d="M232.41 175.888L231.675 173.901L229.687 173.165L231.675 172.43L232.41 170.443L233.145 172.43L235.133 173.165L233.145 173.901L232.41 175.888Z" fill="#FFF7B0"/>
  <path d="M29.155 236.044L28.4196 234.057L26.4323 233.322L28.4196 232.586L29.155 230.599L29.8904 232.586L31.8777 233.322L29.8904 234.057L29.155 236.044Z" fill="#FFF7B0"/>
  <path d="M73.8163 273.414L73.081 271.427L71.0936 270.691L73.081 269.956L73.8163 267.969L74.5517 269.956L76.5391 270.691L74.5517 271.427L73.8163 273.414Z" fill="#FFF7B0"/>
  <path d="M37.8255 287.109L36.2254 282.785L31.901 281.185L36.2254 279.585L37.8255 275.26L39.4257 279.585L43.75 281.185L39.4257 282.785L37.8255 287.109Z" fill="#FFF7B0"/>
  <path d="M114.844 25.9766L113.244 21.6522L108.919 20.0521L113.244 18.4519L114.844 14.1276L116.444 18.4519L120.768 20.0521L116.444 21.6522L114.844 25.9766Z" fill="#FFF7B0"/>
  <path d="M313.997 154.948L312.397 150.623L308.073 149.023L312.397 147.423L313.997 143.099L315.598 147.423L319.922 149.023L315.598 150.623L313.997 154.948Z" fill="#FFF7B0"/>
  <path d="M121.668 298.023L120.933 296.036L118.945 295.301L120.933 294.565L121.668 292.578L122.403 294.565L124.391 295.301L122.403 296.036L121.668 298.023Z" fill="#FFF7B0"/>
  <path d="M36.4467 185.914L35.7113 183.927L33.724 183.191L35.7113 182.456L36.4467 180.469L37.1821 182.456L39.1694 183.191L37.1821 183.927L36.4467 185.914Z" fill="#FFF7B0"/>
  <path d="M328.433 66.2458L327.697 64.2585L325.71 63.5231L327.697 62.7878L328.433 60.8004L329.168 62.7878L331.155 63.5231L329.168 64.2585L328.433 66.2458Z" fill="#FFF7B0"/>
  <path d="M280.262 19.1172L279.526 17.1299L277.539 16.3945L279.526 15.6591L280.262 13.6718L280.997 15.6591L282.984 16.3945L280.997 17.1299L280.262 19.1172Z" fill="#FFF7B0"/>
  <path d="M227.461 250.423L227.04 249.287L225.905 248.867L227.04 248.447L227.461 247.311L227.881 248.447L229.016 248.867L227.881 249.287L227.461 250.423Z" fill="#FFF7B0"/>
  <path d="M67.9554 247.232L67.5352 246.097L66.3996 245.677L67.5352 245.256L67.9554 244.121L68.3756 245.256L69.5112 245.677L68.3756 246.097L67.9554 247.232Z" fill="#FFF7B0"/>
  <path d="M32.8641 151.985L32.4439 150.849L31.3082 150.429L32.4439 150.009L32.8641 148.873L33.2843 150.009L34.4199 150.429L33.2843 150.849L32.8641 151.985Z" fill="#FFF7B0"/>
  <path d="M275.768 146.061L275.348 144.925L274.212 144.505L275.348 144.084L275.768 142.949L276.188 144.084L277.324 144.505L276.188 144.925L275.768 146.061Z" fill="#FFF7B0"/>
  <path d="M210.657 227.396L210.237 226.261L209.101 225.84L210.237 225.42L210.657 224.285L211.078 225.42L212.213 225.84L211.078 226.261L210.657 227.396Z" fill="#FFF7B0"/>
  <path d="M51.1519 224.206L50.7317 223.07L49.5961 222.65L50.7317 222.23L51.1519 221.094L51.5721 222.23L52.7078 222.65L51.5721 223.07L51.1519 224.206Z" fill="#FFF7B0"/>
  <path d="M196.152 340.807L195.732 339.671L194.597 339.251L195.732 338.831L196.152 337.695L196.573 338.831L197.708 339.251L196.573 339.671L196.152 340.807Z" fill="#FFF7B0"/>
  <path d="M258.964 123.034L258.544 121.899L257.409 121.478L258.544 121.058L258.964 119.923L259.385 121.058L260.52 121.478L259.385 121.899L258.964 123.034Z" fill="#FFF7B0"/>
  <path d="M249.473 297.057L249.053 295.921L247.917 295.501L249.053 295.081L249.473 293.945L249.893 295.081L251.029 295.501L249.893 295.921L249.473 297.057Z" fill="#FFF7B0"/>
  <path d="M48.0406 263.102L47.6204 261.966L46.4848 261.546L47.6204 261.126L48.0406 259.99L48.4608 261.126L49.5964 261.546L48.4608 261.966L48.0406 263.102Z" fill="#FFF7B0"/>
  <path d="M15.6837 205.911L15.2634 204.776L14.1278 204.355L15.2634 203.935L15.6837 202.799L16.1039 203.935L17.2395 204.355L16.1039 204.776L15.6837 205.911Z" fill="#FFF7B0"/>
  <path d="M266.791 160.338L266.37 159.203L265.235 158.782L266.37 158.362L266.791 157.226L267.211 158.362L268.346 158.782L267.211 159.203L266.791 160.338Z" fill="#FFF7B0"/>
  </g>
  </g>
  <defs>
  <filter id="filter0_f_28_300" x="-1.74333" y="-1.77824" width="353.646" height="353.646" filterUnits="userSpaceOnUse" color-interpolation-filters="sRGB">
  <feFlood flood-opacity="0" result="BackgroundImageFix"/>
  <feBlend mode="normal" in="SourceGraphic" in2="BackgroundImageFix" result="shape"/>
  <feGaussianBlur stdDeviation="0.911458" result="effect1_foregroundBlur_28_300"/>
  </filter>
  <filter id="filter1_f_28_300" x="-98.2707" y="267.838" width="550.008" height="194.694" filterUnits="userSpaceOnUse" color-interpolation-filters="sRGB">
  <feFlood flood-opacity="0" result="BackgroundImageFix"/>
  <feBlend mode="normal" in="SourceGraphic" in2="BackgroundImageFix" result="shape"/>
  <feGaussianBlur stdDeviation="2.27865" result="effect1_foregroundBlur_28_300"/>
  </filter>
  <filter id="filter2_f_28_300" x="-103.459" y="-208.456" width="555.71" height="683.015" filterUnits="userSpaceOnUse" color-interpolation-filters="sRGB">
  <feFlood flood-opacity="0" result="BackgroundImageFix"/>
  <feBlend mode="normal" in="SourceGraphic" in2="BackgroundImageFix" result="shape"/>
  <feGaussianBlur stdDeviation="2.27865" result="effect1_foregroundBlur_28_300"/>
  </filter>
  <radialGradient id="paint0_radial_28_300" cx="0" cy="0" r="1" gradientUnits="userSpaceOnUse" gradientTransform="translate(270.447 106.491) rotate(99.1226) scale(61.1193 174.192)">
  <stop stop-color="white" stop-opacity="0.75"/>
  <stop offset="1" stop-color="white" stop-opacity="0"/>
  </radialGradient>
  <radialGradient id="paint1_radial_28_300" cx="0" cy="0" r="1" gradientUnits="userSpaceOnUse" gradientTransform="translate(174.396 182.812) rotate(92.5586) scale(219.36 178.105)">
  <stop stop-color="white" stop-opacity="0.75"/>
  <stop offset="1" stop-color="white" stop-opacity="0"/>
  </radialGradient>
  <clipPath id="clip0_28_300">
  <rect width="350" height="350" fill="white"/>
  </clipPath>
  </defs>
    
  <g clip-path="url(#clip0_625_53334)">
  <g clip-path="url(#clip1_625_53334)">
  <path d="M42.1058 2.27863L41.2437 5.26917V92.0478L42.1058 92.9261L81.5757 69.1157L42.1058 2.27863Z" fill="white" fill-opacity="0.05"/>
  <path d="M41.2317 2.27872L0.911621 69.1061L41.2317 92.9133V50.7997V2.27872Z" fill="white" fill-opacity="0.15"/>
  <path d="M41.7337 100.627L41.2437 101.23V132.083L41.7337 133.529L81.5757 76.8738L41.7337 100.627Z" fill="white" fill-opacity="0.1"/>
  <path d="M41.2317 133.499V100.539L0.911621 76.7436L41.2317 133.499Z" fill="white" fill-opacity="0.15"/>
  <path d="M41.2314 92.9128L81.5509 69.1062L41.2314 50.7998V92.9128Z" fill="white" fill-opacity="0.1"/>
  <path d="M0.911865 69.1062L41.2313 92.9128V50.7998L0.911865 69.1062Z" fill="white" fill-opacity="0.1"/>
  </g>
  <g clip-path="url(#clip2_625_53334)">
  <path d="M263.298 -6.83594L262.728 -4.84224V53.0102L263.298 53.5957L289.388 37.7221L263.298 -6.83594Z" fill="white" fill-opacity="0.05"/>
  <path d="M262.72 -6.83594L236.068 37.7156L262.72 53.5871V25.5114V-6.83594Z" fill="white" fill-opacity="0.15"/>
  <path d="M263.052 58.7295L262.728 59.1316V79.7004L263.052 80.6641L289.388 42.8943L263.052 58.7295Z" fill="white" fill-opacity="0.1"/>
  <path d="M262.72 80.6441V58.6704L236.068 42.8071L262.72 80.6441Z" fill="white" fill-opacity="0.15"/>
  <path d="M262.72 53.5867L289.372 37.7156L262.72 25.5114V53.5867Z" fill="white" fill-opacity="0.1"/>
  <path d="M236.068 37.7156L262.72 53.5867V25.5114L236.068 37.7156Z" fill="white" fill-opacity="0.1"/>
  </g>
  <g clip-path="url(#clip3_625_53334)">
  <path d="M141.618 92.9688L141.048 94.9624V152.815L141.618 153.4L167.708 137.527L141.618 92.9688Z" fill="white" fill-opacity="0.05"/>
  <path d="M141.04 92.9688L114.388 137.52L141.04 153.392V125.316V92.9688Z" fill="white" fill-opacity="0.15"/>
  <path d="M141.372 158.534L141.048 158.936V179.505L141.372 180.469L167.708 142.699L141.372 158.534Z" fill="white" fill-opacity="0.1"/>
  <path d="M141.04 180.449V158.475L114.388 142.612L141.04 180.449Z" fill="white" fill-opacity="0.15"/>
  <path d="M141.04 153.391L167.692 137.52L141.04 125.316V153.391Z" fill="white" fill-opacity="0.1"/>
  <path d="M114.388 137.52L141.04 153.391V125.316L114.388 137.52Z" fill="white" fill-opacity="0.1"/>
  </g>
  <g clip-path="url(#clip4_625_53334)">
  <path d="M-5.1269 125.326L-5.69678 127.319V185.172L-5.1269 185.757L20.9634 169.884L-5.1269 125.326Z" fill="white" fill-opacity="0.05"/>
  <path d="M-5.37282 190.891L-5.69678 191.293V211.862L-5.37282 212.826L20.9634 175.056L-5.37282 190.891Z" fill="white" fill-opacity="0.1"/>
  <path d="M-5.70459 185.748L20.9472 169.877L-5.70459 157.673V185.748Z" fill="white" fill-opacity="0.1"/>
  </g>
  <g clip-path="url(#clip5_625_53334)">
  <path d="M235.954 106.185L235.384 108.179V166.031L235.954 166.617L262.044 150.743L235.954 106.185Z" fill="white" fill-opacity="0.05"/>
  <path d="M235.376 106.185L208.724 150.737L235.376 166.608V138.532V106.185Z" fill="white" fill-opacity="0.15"/>
  <path d="M235.708 171.75L235.384 172.152V192.721L235.708 193.685L262.044 155.915L235.708 171.75Z" fill="white" fill-opacity="0.1"/>
  <path d="M235.376 193.665V171.691L208.724 155.828L235.376 193.665Z" fill="white" fill-opacity="0.15"/>
  <path d="M235.376 166.608L262.028 150.736L235.376 138.532V166.608Z" fill="white" fill-opacity="0.1"/>
  <path d="M208.724 150.736L235.376 166.608V138.532L208.724 150.736Z" fill="white" fill-opacity="0.1"/>
  </g>
  <g clip-path="url(#clip6_625_53334)">
  <path d="M115.186 306.25L114.616 308.244V366.096L115.186 366.682L141.276 350.808L115.186 306.25Z" fill="white" fill-opacity="0.05"/>
  <path d="M114.608 306.25L87.9556 350.802L114.608 366.673V338.597V306.25Z" fill="white" fill-opacity="0.15"/>
  <path d="M114.608 366.673L141.26 350.802L114.608 338.597V366.673Z" fill="white" fill-opacity="0.1"/>
  <path d="M87.9558 350.802L114.608 366.673V338.597L87.9558 350.802Z" fill="white" fill-opacity="0.1"/>
  </g>
  <g clip-path="url(#clip7_625_53334)">
  <path d="M350.22 306.25L323.568 350.802L350.22 366.673V338.597V306.25Z" fill="white" fill-opacity="0.15"/>
  <path d="M323.568 350.802L350.22 366.673V338.597L323.568 350.802Z" fill="white" fill-opacity="0.1"/>
  </g>
  <g clip-path="url(#clip8_625_53334)">
  <path d="M1.70903 244.271L1.13916 246.265V304.117L1.70903 304.703L27.7993 288.829L1.70903 244.271Z" fill="white" fill-opacity="0.05"/>
  <path d="M1.13125 244.271L-25.521 288.822L1.13125 304.694V276.618V244.271Z" fill="white" fill-opacity="0.15"/>
  <path d="M1.46312 309.836L1.13916 310.238V330.807L1.46312 331.771L27.7993 294.001L1.46312 309.836Z" fill="white" fill-opacity="0.1"/>
  <path d="M1.13125 331.751V309.777L-25.521 293.914L1.13125 331.751Z" fill="white" fill-opacity="0.15"/>
  <path d="M1.13135 304.693L27.7832 288.822L1.13135 276.618V304.693Z" fill="white" fill-opacity="0.1"/>
  <path d="M-25.5208 288.822L1.13108 304.693V276.618L-25.5208 288.822Z" fill="white" fill-opacity="0.1"/>
  </g>
  <g clip-path="url(#clip9_625_53334)">
  <path d="M141.618 -36.9141L141.048 -34.9204V22.9321L141.618 23.5176L167.708 7.64399L141.618 -36.9141Z" fill="white" fill-opacity="0.05"/>
  <path d="M141.04 -36.9141L114.388 7.6375L141.04 23.509V-4.56676V-36.9141Z" fill="white" fill-opacity="0.15"/>
  <path d="M141.372 28.6513L141.048 29.0535V49.6222L141.372 50.5859L167.708 12.8162L141.372 28.6513Z" fill="white" fill-opacity="0.1"/>
  <path d="M141.04 50.5659V28.5923L114.388 12.729L141.04 50.5659Z" fill="white" fill-opacity="0.15"/>
  <path d="M141.04 23.5086L167.692 7.63748L141.04 -4.56677V23.5086Z" fill="white" fill-opacity="0.1"/>
  <path d="M114.388 7.63749L141.04 23.5086V-4.56677L114.388 7.63749Z" fill="white" fill-opacity="0.1"/>
  </g>
  <g clip-path="url(#clip10_625_53334)">
  <path d="M82.946 184.57L82.2593 186.959V256.261L82.946 256.962L114.388 237.947L82.946 184.57Z" fill="white" fill-opacity="0.05"/>
  <path d="M82.2497 184.57L50.1304 237.939L82.2497 256.952V223.32V184.57Z" fill="white" fill-opacity="0.15"/>
  <path d="M82.6497 263.112L82.2593 263.594V288.234L82.6497 289.388L114.388 244.143L82.6497 263.112Z" fill="white" fill-opacity="0.1"/>
  <path d="M82.2497 289.364V263.042L50.1304 244.039L82.2497 289.364Z" fill="white" fill-opacity="0.15"/>
  <path d="M82.2493 256.952L114.368 237.939L82.2493 223.32V256.952Z" fill="white" fill-opacity="0.1"/>
  <path d="M50.1306 237.939L82.2495 256.952V223.32L50.1306 237.939Z" fill="white" fill-opacity="0.1"/>
  </g>
  <g clip-path="url(#clip11_625_53334)">
  <path d="M349.994 80.6641L349.089 83.8207V175.42L349.994 176.348L391.471 151.214L349.994 80.6641Z" fill="white" fill-opacity="0.05"/>
  <path d="M349.076 80.6641L306.706 151.204L349.076 176.334V131.881V80.6641Z" fill="white" fill-opacity="0.15"/>
  <path d="M349.604 184.476L349.089 185.113V217.68L349.604 219.206L391.471 159.404L349.604 184.476Z" fill="white" fill-opacity="0.1"/>
  <path d="M349.076 219.174V184.383L306.706 159.266L349.076 219.174Z" fill="white" fill-opacity="0.15"/>
  <path d="M349.076 176.333L391.445 151.204L349.076 131.881V176.333Z" fill="white" fill-opacity="0.1"/>
  <path d="M306.706 151.204L349.075 176.333V131.881L306.706 151.204Z" fill="white" fill-opacity="0.1"/>
  </g>
  <g clip-path="url(#clip12_625_53334)">
  <path d="M236.935 224.219L236.068 227.23V314.611L236.935 315.496L276.628 291.52L236.935 224.219Z" fill="white" fill-opacity="0.05"/>
  <path d="M236.056 224.219L195.508 291.51L236.056 315.483V273.077V224.219Z" fill="white" fill-opacity="0.15"/>
  <path d="M236.561 323.25L236.068 323.857V354.925L236.561 356.38L276.628 299.332L236.561 323.25Z" fill="white" fill-opacity="0.1"/>
  <path d="M236.056 356.35V323.161L195.508 299.201L236.056 356.35Z" fill="white" fill-opacity="0.15"/>
  <path d="M236.056 315.482L276.603 291.51L236.056 273.077V315.482Z" fill="white" fill-opacity="0.1"/>
  <path d="M195.508 291.51L236.055 315.482V273.077L195.508 291.51Z" fill="white" fill-opacity="0.1"/>
  </g>
  </g>
  <defs>
  <clipPath id="clip0_625_53334">
  <rect width="350" height="350" fill="white"/>
  </clipPath>
  <clipPath id="clip1_625_53334">
  <rect width="80.6641" height="131.25" fill="white" transform="translate(0.911621 2.27872)"/>
  </clipPath>
  <clipPath id="clip2_625_53334">
  <rect width="53.3203" height="87.5" fill="white" transform="translate(236.068 -6.83594)"/>
  </clipPath>
  <clipPath id="clip3_625_53334">
  <rect width="53.3203" height="87.5" fill="white" transform="translate(114.388 92.9688)"/>
  </clipPath>
  <clipPath id="clip4_625_53334">
  <rect width="53.3203" height="87.5" fill="white" transform="translate(-32.3569 125.326)"/>
  </clipPath>
  <clipPath id="clip5_625_53334">
  <rect width="53.3203" height="87.5" fill="white" transform="translate(208.724 106.185)"/>
  </clipPath>
  <clipPath id="clip6_625_53334">
  <rect width="53.3203" height="87.5" fill="white" transform="translate(87.9556 306.25)"/>
  </clipPath>
  <clipPath id="clip7_625_53334">
  <rect width="53.3203" height="87.5" fill="white" transform="translate(323.568 306.25)"/>
  </clipPath>
  <clipPath id="clip8_625_53334">
  <rect width="53.3203" height="87.5" fill="white" transform="translate(-25.521 244.271)"/>
  </clipPath>
  <clipPath id="clip9_625_53334">
  <rect width="53.3203" height="87.5" fill="white" transform="translate(114.388 -36.9141)"/>
  </clipPath>
  <clipPath id="clip10_625_53334">
  <rect width="64.2578" height="104.818" fill="white" transform="translate(50.1304 184.57)"/>
  </clipPath>
  <clipPath id="clip11_625_53334">
  <rect width="84.7656" height="138.542" fill="white" transform="translate(306.706 80.6641)"/>
  </clipPath>
  <clipPath id="clip12_625_53334">
  <rect width="81.1198" height="132.161" fill="white" transform="translate(195.508 224.219)"/>
  </clipPath>
  </defs>

    
  <g filter="url(#filter0_d_559_36465)">
  <path d="M257.528 150.902C249.652 153.534 240.882 153.402 234.142 152.261C243.181 142.11 255.176 129.932 264.686 123.065C267.288 121.186 269.629 119.761 271.616 118.88C273.67 117.97 275.032 117.785 275.821 117.941C276.161 118.008 276.386 118.136 276.566 118.315C276.76 118.507 277.002 118.862 277.198 119.519C277.608 120.895 277.704 123.22 277.122 126.85C274.87 140.908 266.781 147.809 257.528 150.902Z" stroke="white" stroke-width="4.55729" shape-rendering="crispEdges"/>
  </g>
  <g filter="url(#filter1_d_559_36465)">
  <path d="M250.354 171.675C242.923 167.967 236.816 161.672 232.856 156.099C246.426 155.314 263.519 155.183 275.099 157.053C278.267 157.564 280.93 158.211 282.958 158.994C285.054 159.803 286.148 160.635 286.596 161.303C286.789 161.591 286.857 161.84 286.858 162.094C286.859 162.368 286.78 162.789 286.454 163.393C285.771 164.655 284.194 166.367 281.216 168.522C269.683 176.87 259.083 176.031 250.354 171.675Z" stroke="white" stroke-width="4.55729" shape-rendering="crispEdges"/>
  </g>
  <g filter="url(#filter2_d_559_36465)">
  <path d="M92.41 150.902C100.286 153.534 109.056 153.402 115.796 152.261C106.757 142.11 94.7621 129.932 85.2516 123.065C82.6502 121.186 80.3093 119.761 78.3217 118.88C76.2681 117.97 74.9063 117.785 74.1174 117.941C73.7768 118.008 73.5521 118.136 73.3723 118.315C73.178 118.507 72.9358 118.862 72.7399 119.519C72.33 120.895 72.2345 123.22 72.816 126.85C75.0683 140.908 83.1571 147.809 92.41 150.902Z" stroke="white" stroke-width="4.55729" shape-rendering="crispEdges"/>
  </g>
  <g filter="url(#filter3_d_559_36465)">
  <path d="M99.5842 171.675C107.015 167.967 113.122 161.672 117.082 156.099C103.512 155.314 86.4192 155.183 74.8386 157.053C71.6709 157.564 69.0076 158.211 66.9795 158.994C64.8841 159.803 63.79 160.635 63.3425 161.303C63.1493 161.591 63.0807 161.84 63.0798 162.094C63.0788 162.368 63.1579 162.789 63.4843 163.393C64.1674 164.655 65.7438 166.367 68.7217 168.522C80.2548 176.87 90.8547 176.031 99.5842 171.675Z" stroke="white" stroke-width="4.55729" shape-rendering="crispEdges"/>
  </g>
  <defs>
  <filter id="filter0_d_559_36465" x="226.526" y="112.289" width="56.6081" height="46.3486" filterUnits="userSpaceOnUse" color-interpolation-filters="sRGB">
  <feFlood flood-opacity="0" result="BackgroundImageFix"/>
  <feColorMatrix in="SourceAlpha" type="matrix" values="0 0 0 0 0 0 0 0 0 0 0 0 0 0 0 0 0 0 127 0" result="hardAlpha"/>
  <feOffset/>
  <feGaussianBlur stdDeviation="1.66205"/>
  <feComposite in2="hardAlpha" operator="out"/>
  <feColorMatrix type="matrix" values="0 0 0 0 1 0 0 0 0 1 0 0 0 0 1 0 0 0 1 0"/>
  <feBlend mode="normal" in2="BackgroundImageFix" result="effect1_dropShadow_559_36465"/>
  <feBlend mode="normal" in="SourceGraphic" in2="effect1_dropShadow_559_36465" result="shape"/>
  </filter>
  <filter id="filter1_d_559_36465" x="225.487" y="149.953" width="66.9734" height="30.552" filterUnits="userSpaceOnUse" color-interpolation-filters="sRGB">
  <feFlood flood-opacity="0" result="BackgroundImageFix"/>
  <feColorMatrix in="SourceAlpha" type="matrix" values="0 0 0 0 0 0 0 0 0 0 0 0 0 0 0 0 0 0 127 0" result="hardAlpha"/>
  <feOffset/>
  <feGaussianBlur stdDeviation="1.66205"/>
  <feComposite in2="hardAlpha" operator="out"/>
  <feColorMatrix type="matrix" values="0 0 0 0 1 0 0 0 0 1 0 0 0 0 1 0 0 0 1 0"/>
  <feBlend mode="normal" in2="BackgroundImageFix" result="effect1_dropShadow_559_36465"/>
  <feBlend mode="normal" in="SourceGraphic" in2="effect1_dropShadow_559_36465" result="shape"/>
  </filter>
  <filter id="filter2_d_559_36465" x="66.8034" y="112.289" width="56.6081" height="46.3486" filterUnits="userSpaceOnUse" color-interpolation-filters="sRGB">
  <feFlood flood-opacity="0" result="BackgroundImageFix"/>
  <feColorMatrix in="SourceAlpha" type="matrix" values="0 0 0 0 0 0 0 0 0 0 0 0 0 0 0 0 0 0 127 0" result="hardAlpha"/>
  <feOffset/>
  <feGaussianBlur stdDeviation="1.66205"/>
  <feComposite in2="hardAlpha" operator="out"/>
  <feColorMatrix type="matrix" values="0 0 0 0 1 0 0 0 0 1 0 0 0 0 1 0 0 0 1 0"/>
  <feBlend mode="normal" in2="BackgroundImageFix" result="effect1_dropShadow_559_36465"/>
  <feBlend mode="normal" in="SourceGraphic" in2="effect1_dropShadow_559_36465" result="shape"/>
  </filter>
  <filter id="filter3_d_559_36465" x="57.4772" y="149.953" width="66.9734" height="30.552" filterUnits="userSpaceOnUse" color-interpolation-filters="sRGB">
  <feFlood flood-opacity="0" result="BackgroundImageFix"/>
  <feColorMatrix in="SourceAlpha" type="matrix" values="0 0 0 0 0 0 0 0 0 0 0 0 0 0 0 0 0 0 127 0" result="hardAlpha"/>
  <feOffset/>
  <feGaussianBlur stdDeviation="1.66205"/>
  <feComposite in2="hardAlpha" operator="out"/>
  <feColorMatrix type="matrix" values="0 0 0 0 1 0 0 0 0 1 0 0 0 0 1 0 0 0 1 0"/>
  <feBlend mode="normal" in2="BackgroundImageFix" result="effect1_dropShadow_559_36465"/>
  <feBlend mode="normal" in="SourceGraphic" in2="effect1_dropShadow_559_36465" result="shape"/>
  </filter>
  </defs>
    
    
  <path d="M155.658 61.9401C159.113 48.9625 161.899 32.3568 174.785 32.3568C187.672 32.3568 192.186 52.9172 194.342 62.2565C196.266 70.5908 200.403 89.5239 201.271 93.502C201.375 93.9806 201.259 94.4624 200.902 94.7982C199.079 96.5146 192.205 101.628 175 101.628C157.732 101.628 150.87 96.4766 149.078 94.7792C148.734 94.4536 148.616 93.9882 148.705 93.5232C149.398 89.9039 152.599 73.4326 155.658 61.9401Z" fill="black"/>
  <path d="M155.658 61.9401C159.113 48.9625 161.899 32.3568 174.785 32.3568C187.672 32.3568 192.186 52.9172 194.342 62.2565C196.266 70.5908 200.403 89.5239 201.271 93.502C201.375 93.9806 201.259 94.4624 200.902 94.7982C199.079 96.5146 192.205 101.628 175 101.628C157.732 101.628 150.87 96.4766 149.078 94.7792C148.734 94.4536 148.616 93.9882 148.705 93.5232C149.398 89.9039 152.599 73.4326 155.658 61.9401Z" fill="url(#paint0_linear_680_65378)" fill-opacity="0.45"/>
  <path d="M228.32 314.723L202.037 284.375H172.525H143.19L117.122 314.723C117.122 314.723 134.804 334.733 172.721 334.733C210.638 334.733 228.32 314.723 228.32 314.723Z" fill="black"/>
  <path d="M124.792 210.091C124.792 210.091 148.112 224.675 175.228 224.675C202.344 224.675 225.208 210.091 225.208 210.091C228.731 225.095 236.031 263.492 223.782 282.944C208.368 307.425 182.903 315.82 175 315.82C167.097 315.82 141.632 307.425 126.217 282.944C113.969 263.492 121.269 225.095 124.792 210.091Z" fill="#6DF244"/>
  <path d="M124.792 210.091C124.792 210.091 148.112 224.675 175.228 224.675C202.344 224.675 225.208 210.091 225.208 210.091C228.731 225.095 236.031 263.492 223.782 282.944C208.368 307.425 182.903 315.82 175 315.82C167.097 315.82 141.632 307.425 126.217 282.944C113.969 263.492 121.269 225.095 124.792 210.091Z" fill="url(#paint1_linear_680_65378)" fill-opacity="0.8"/>
  <path d="M155.658 61.9401C159.113 48.9625 161.899 32.3568 174.785 32.3568C187.672 32.3568 192.186 52.9172 194.342 62.2565C196.266 70.5908 200.403 89.5239 201.271 93.502C201.375 93.9807 201.259 94.4624 200.902 94.7982C199.079 96.5146 192.205 101.628 175 101.628C157.732 101.628 150.87 96.4766 149.078 94.7792C148.734 94.4536 148.616 93.9882 148.705 93.5232C149.398 89.9039 152.599 73.4326 155.658 61.9401Z" fill="black"/>
  <path d="M155.658 61.9401C159.113 48.9625 161.899 32.3568 174.785 32.3568C187.672 32.3568 192.186 52.9172 194.342 62.2565C196.266 70.5908 200.403 89.5239 201.271 93.502C201.375 93.9807 201.259 94.4624 200.902 94.7982C199.079 96.5146 192.205 101.628 175 101.628C157.732 101.628 150.87 96.4766 149.078 94.7792C148.734 94.4536 148.616 93.9882 148.705 93.5232C149.398 89.9039 152.599 73.4326 155.658 61.9401Z" fill="url(#paint2_linear_680_65378)" fill-opacity="0.45"/>
  <g filter="url(#filter0_d_680_65378)">
  <path d="M228.32 314.723L202.037 284.375H172.524H143.189L117.122 314.723C117.122 314.723 134.803 334.733 172.721 334.733C210.638 334.733 228.32 314.723 228.32 314.723Z" fill="black"/>
  </g>
  <path d="M124.791 210.091C124.791 210.091 148.111 224.675 175.227 224.675C202.343 224.675 225.207 210.091 225.207 210.091C228.73 225.095 236.03 263.492 223.782 282.944C208.367 307.425 182.902 315.82 174.999 315.82C167.096 315.82 141.631 307.425 126.217 282.944C113.968 263.492 121.268 225.095 124.791 210.091Z" fill="#6DF244"/>
  <path d="M124.791 210.091C124.791 210.091 148.111 224.675 175.227 224.675C202.343 224.675 225.207 210.091 225.207 210.091C228.73 225.095 236.03 263.492 223.782 282.944C208.367 307.425 182.902 315.82 174.999 315.82C167.096 315.82 141.631 307.425 126.217 282.944C113.968 263.492 121.268 225.095 124.791 210.091Z" fill="url(#paint3_linear_680_65378)" fill-opacity="0.8"/>
  <path d="M130.95 277.639C122.17 263.011 123.204 251.576 128.368 246.789C137.582 238.247 152.639 253.171 158.578 265.671C164.517 278.171 165.292 287.745 160.386 292.266C155.48 296.787 139.729 292.266 130.95 277.639Z" stroke="url(#paint4_linear_680_65378)" stroke-width="1.82292"/>
  <path fill-rule="evenodd" clip-rule="evenodd" d="M174.999 303.508C172.004 303.607 166.495 302.828 162.695 298.958H174.088H175.911H187.304C183.503 302.828 177.995 303.607 174.999 303.508Z" fill="#57BF37"/>
  <path d="M218.29 276.7C226.253 263.683 225.316 253.506 220.632 249.246C212.275 241.644 198.618 254.926 193.232 266.049C187.845 277.173 187.143 285.693 191.592 289.717C196.042 293.74 210.327 289.717 218.29 276.7Z" fill="#070707" stroke="#070707" stroke-width="0.455729"/>
  <path d="M218.517 277.639C227.399 263.011 226.354 251.576 221.129 246.789C211.808 238.247 196.576 253.171 190.568 265.671C184.56 278.171 183.776 287.745 188.739 292.266C193.702 296.787 209.636 292.266 218.517 277.639Z" stroke="url(#paint5_linear_680_65378)" stroke-width="1.82292"/>
  <path d="M219.429 277.639C228.31 263.011 227.265 251.576 222.041 246.789C212.719 238.247 197.487 253.171 191.479 265.671C185.471 278.171 184.688 287.745 189.651 292.266C194.614 296.787 210.547 292.266 219.429 277.639Z" stroke="url(#paint6_linear_680_65378)" stroke-width="1.82292"/>
  <path d="M220.588 256.217C219.787 252.567 217.885 250.967 216.325 251.049C213.542 251.195 213.374 255.888 214.311 258.759C215.248 261.63 216.576 263.229 218.054 263.147C219.531 263.065 221.389 259.867 220.588 256.217Z" fill="url(#paint7_radial_680_65378)"/>
  <path fill-rule="evenodd" clip-rule="evenodd" d="M175 292.166C173.542 291.986 170.042 292.273 167.708 294.857H175H182.292C179.958 292.273 176.458 291.986 175 292.166Z" fill="#57BF37"/>
  <path d="M132.089 276.7C124.228 263.683 125.153 253.506 129.777 249.246C138.027 241.644 151.508 254.926 156.826 266.049C162.143 277.173 162.837 285.693 158.444 289.717C154.051 293.74 139.949 289.717 132.089 276.7Z" fill="#070707" stroke="#070707" stroke-width="0.455729"/>
  <path d="M129.562 256.217C130.363 252.567 132.265 250.967 133.825 251.049C136.608 251.195 136.775 255.888 135.838 258.759C134.901 261.63 133.574 263.229 132.096 263.147C130.619 263.065 128.761 259.867 129.562 256.217Z" fill="url(#paint8_radial_680_65378)"/>
  <path d="M130.95 277.639C122.17 263.011 123.204 251.576 128.368 246.789C137.582 238.247 152.639 253.171 158.578 265.671C164.517 278.171 165.292 287.745 160.386 292.266C155.48 296.787 139.729 292.266 130.95 277.639Z" stroke="url(#paint9_linear_680_65378)" stroke-width="1.82292"/>
  <path fill-rule="evenodd" clip-rule="evenodd" d="M177.408 224.675L177.305 224.674C177.892 224.674 178.474 224.667 179.052 224.655C178.506 224.668 177.958 224.675 177.408 224.675Z" fill="#161A70" fill-opacity="0.1"/>
  <path fill-rule="evenodd" clip-rule="evenodd" d="M228.41 314.723C228.41 314.723 211.424 334.733 175 334.733V32.3568C187.169 32.3568 192.181 52.2244 194.294 61.7708L194.402 62.2565C196.25 70.5908 200.68 89.5238 201.514 93.502C201.566 93.7531 201.561 94.0052 201.494 94.2365L225.233 209.629C225.279 209.86 225.238 210.093 225.123 210.283C225.319 210.158 225.42 210.091 225.42 210.091C228.805 225.095 235.817 263.492 224.051 282.944C220.851 288.235 217.2 292.774 213.365 296.64L228.41 314.723ZM177.408 224.675L177.305 224.674C177.892 224.674 178.474 224.667 179.052 224.655C178.506 224.668 177.958 224.675 177.408 224.675Z" fill="#161A70" fill-opacity="0.1"/>
  <defs>
  <filter id="filter0_d_680_65378" x="114.843" y="284.375" width="116.667" height="55.8268" filterUnits="userSpaceOnUse" color-interpolation-filters="sRGB">
  <feFlood flood-opacity="0" result="BackgroundImageFix"/>
  <feColorMatrix in="SourceAlpha" type="matrix" values="0 0 0 0 0 0 0 0 0 0 0 0 0 0 0 0 0 0 127 0" result="hardAlpha"/>
  <feOffset dx="0.455729" dy="2.73438"/>
  <feGaussianBlur stdDeviation="1.36719"/>
  <feComposite in2="hardAlpha" operator="out"/>
  <feColorMatrix type="matrix" values="0 0 0 0 0 0 0 0 0 0 0 0 0 0 0 0 0 0 0.25 0"/>
  <feBlend mode="normal" in2="BackgroundImageFix" result="effect1_dropShadow_680_65378"/>
  <feBlend mode="normal" in="SourceGraphic" in2="effect1_dropShadow_680_65378" result="shape"/>
  </filter>
  <linearGradient id="paint0_linear_680_65378" x1="164.974" y1="47.3959" x2="175" y2="101.628" gradientUnits="userSpaceOnUse">
  <stop stop-color="white" stop-opacity="0.17"/>
  <stop offset="1" stop-color="#C3C3C3" stop-opacity="0"/>
  </linearGradient>
  <linearGradient id="paint1_linear_680_65378" x1="175" y1="293.49" x2="175" y2="226.953" gradientUnits="userSpaceOnUse">
  <stop offset="0.527397" stop-color="#6DF244"/>
  <stop offset="1" stop-color="#388E1D"/>
  </linearGradient>
  <linearGradient id="paint2_linear_680_65378" x1="164.974" y1="47.3959" x2="175" y2="101.628" gradientUnits="userSpaceOnUse">
  <stop stop-color="white" stop-opacity="0.17"/>
  <stop offset="1" stop-color="#C3C3C3" stop-opacity="0"/>
  </linearGradient>
  <linearGradient id="paint3_linear_680_65378" x1="174.999" y1="293.49" x2="174.999" y2="226.953" gradientUnits="userSpaceOnUse">
  <stop offset="0.527397" stop-color="#6DF244"/>
  <stop offset="1" stop-color="#388E1D"/>
  </linearGradient>
  <linearGradient id="paint4_linear_680_65378" x1="144.01" y1="244.271" x2="144.01" y2="293.945" gradientUnits="userSpaceOnUse">
  <stop stop-color="#6CB835"/>
  <stop offset="0.40625" stop-color="#6CB835" stop-opacity="0"/>
  </linearGradient>
  <linearGradient id="paint5_linear_680_65378" x1="205.305" y1="244.271" x2="205.305" y2="293.945" gradientUnits="userSpaceOnUse">
  <stop stop-color="#6CB835"/>
  <stop offset="0.40625" stop-color="#6CB835" stop-opacity="0"/>
  </linearGradient>
  <linearGradient id="paint6_linear_680_65378" x1="206.217" y1="244.271" x2="206.217" y2="293.945" gradientUnits="userSpaceOnUse">
  <stop offset="0.541667" stop-color="#6CB835" stop-opacity="0"/>
  <stop offset="1" stop-color="#6CB835"/>
  </linearGradient>
  <radialGradient id="paint7_radial_680_65378" cx="0" cy="0" r="1" gradientUnits="userSpaceOnUse" gradientTransform="translate(217.185 256.975) rotate(79.0248) scale(5.68455 4.63752)">
  <stop stop-color="white" stop-opacity="0.75"/>
  <stop offset="1" stop-color="white" stop-opacity="0"/>
  <stop offset="1" stop-color="white"/>
  </radialGradient>
  <radialGradient id="paint8_radial_680_65378" cx="0" cy="0" r="1" gradientUnits="userSpaceOnUse" gradientTransform="translate(132.965 256.975) rotate(100.975) scale(5.68455 4.63752)">
  <stop stop-color="white" stop-opacity="0.75"/>
  <stop offset="1" stop-color="white" stop-opacity="0"/>
  <stop offset="1" stop-color="white"/>
  </radialGradient>
  <linearGradient id="paint9_linear_680_65378" x1="144.01" y1="244.271" x2="144.01" y2="293.945" gradientUnits="userSpaceOnUse">
  <stop offset="0.671875" stop-color="#6CB835" stop-opacity="0"/>
  <stop offset="1" stop-color="#6CB835"/>
  </linearGradient>
  </defs>

    
    <path d="M148.647 94.3351L124.888 210.017C124.817 210.363 124.947 210.714 125.237 210.915C128.356 213.082 146.958 225.128 174.998 225.128C203.038 225.128 221.64 213.082 224.76 210.915C225.05 210.714 225.18 210.363 225.109 210.017L201.35 94.3351C201.316 94.4021 201.271 94.4644 201.216 94.5198C199.881 95.8685 193.226 101.484 174.998 101.484C156.771 101.484 150.116 95.8685 148.78 94.5198C148.725 94.4644 148.681 94.4021 148.647 94.3351Z" fill="#000000" fill-opacity="0.75"/>;
    
    <!-- Color -->
    <path d="M201.049 94.2304L205.113 114.031C203.523 113.76 201.871 113.447 200.18 113.127C186.038 110.452 169.252 107.276 165.003 123.73C163.148 130.914 165.836 135.212 168.45 139.394C170.975 143.43 173.431 147.358 171.668 153.669C169.523 161.35 157.859 166.325 148.479 162.994C138.57 159.476 139.266 144.903 144.961 137.849C150.656 130.794 151.48 120.031 150.656 112.87C150.259 109.409 148.549 106.935 146.313 105.251L148.649 93.8801C148.683 93.9471 148.727 94.0094 148.782 94.0649C150.117 95.4136 156.772 101.03 175 101.03C192.557 101.03 199.378 95.8189 201.049 94.2304Z" fill="url(#paint0_radial_702_67017)"/>

    <!-- Filter -->
    <mask id="mask0_702_67017" style="mask-type:alpha" maskUnits="userSpaceOnUse" x="140" y="93" width="66" height="72">
      <path d="M201.049 94.2304L205.113 114.031C203.523 113.76 201.871 113.447 200.18 113.127C186.038 110.452 169.252 107.276 165.003 123.73C163.148 130.914 165.836 135.212 168.45 139.394C170.975 143.43 173.431 147.358 171.668 153.669C169.523 161.35 157.859 166.325 148.479 162.994C138.57 159.476 139.266 144.903 144.961 137.849C150.656 130.794 151.48 120.031 150.656 112.87C150.259 109.409 148.549 106.935 146.313 105.251L148.649 93.8801C148.683 93.9471 148.727 94.0094 148.782 94.0649C150.117 95.4136 156.772 101.03 175 101.03C192.557 101.03 199.378 95.8189 201.049 94.2304Z" fill="url(#paint1_radial_702_67017)"/>
    </mask>
    <g mask="url(#mask0_702_67017)">
      <g filter="url(#filter0_f_702_67017)">
        <mask id="mask1_702_67017" style="mask-type:alpha" maskUnits="userSpaceOnUse" x="124" y="94" width="102" height="132">
          <path d="M148.862 95.0637C148.949 94.6399 149.322 94.3357 149.754 94.3357H200.246C200.678 94.3357 201.051 94.6399 201.138 95.0637L224.993 211.158C225.074 211.554 224.888 211.954 224.527 212.137C220.624 214.108 198.375 224.817 175 225.127C151.578 225.438 129.287 214.178 125.45 212.14C125.099 211.954 124.924 211.562 125.004 211.173L148.862 95.0637Z" fill="#577096" fill-opacity="0.75"/>
        </mask>
        <g mask="url(#mask1_702_67017)">
          <g filter="url(#filter1_f_702_67017)">
            <path d="M207.208 76.1064C210.866 110.268 145.941 132.571 113.021 139.453L113.021 76.1064L207.208 76.1064Z" fill="url(#paint2_linear_702_67017)" fill-opacity="0.5"/>
          </g>
          <g filter="url(#filter2_f_702_67017)">
            <path d="M155.407 125.301C156.469 105.018 134.471 86.1828 128.929 66.9985C133.388 65.1973 144.05 70.7896 152.675 76.1247C163.456 82.7936 162.879 109.124 164.625 125.784C166.022 139.112 148.453 223.401 144.015 241.481L131.716 240.837C140.242 214.68 154.587 140.955 155.407 125.301Z" fill="url(#paint3_linear_702_67017)" fill-opacity="0.6"/>
          </g>
        </g>
      </g>
    </g>

    <defs>
      <!-- Color -->
      <radialGradient id="paint0_radial_702_67017" cx="0" cy="0" r="1" gradientUnits="userSpaceOnUse" gradientTransform="translate(155.882 109.102) rotate(53.1177) scale(37.8177 40.2646)">
        <stop offset="0.203125" style="stop-color: #5000B6;"/>
        <stop offset="0.890625" style="stop-color: #7E5EFF;"/>
      </radialGradient>

      <!-- Filter -->
      <filter id="filter0_f_702_67017" x="122.591" y="92.057" width="104.818" height="135.355" filterUnits="userSpaceOnUse" color-interpolation-filters="sRGB">
        <feFlood flood-opacity="0" result="BackgroundImageFix"/>
        <feBlend mode="normal" in="SourceGraphic" in2="BackgroundImageFix" result="shape"/>
        <feGaussianBlur stdDeviation="1.13932" result="effect1_foregroundBlur_702_67017"/>
      </filter>
      <filter id="filter1_f_702_67017" x="112.109" y="75.195" width="96.1589" height="65.1694" filterUnits="userSpaceOnUse" color-interpolation-filters="sRGB">
        <feFlood flood-opacity="0" result="BackgroundImageFix"/>
        <feBlend mode="normal" in="SourceGraphic" in2="BackgroundImageFix" result="shape"/>
        <feGaussianBlur stdDeviation="0.455729" result="effect1_foregroundBlur_702_67017"/>
      </filter>
      <filter id="filter2_f_702_67017" x="128.017" y="65.7426" width="37.5979" height="176.65" filterUnits="userSpaceOnUse" color-interpolation-filters="sRGB">
        <feFlood flood-opacity="0" result="BackgroundImageFix"/>
        <feBlend mode="normal" in="SourceGraphic" in2="BackgroundImageFix" result="shape"/>
        <feGaussianBlur stdDeviation="0.455729" result="effect1_foregroundBlur_702_67017"/>
      </filter>
      <radialGradient id="paint1_radial_702_67017" cx="0" cy="0" r="1" gradientUnits="userSpaceOnUse" gradientTransform="translate(155.882 109.102) rotate(53.1177) scale(37.8177 40.2646)">
        <stop offset="0.203125" stop-color="#71FF30"/>
        <stop offset="0.890625" stop-color="#25BC46"/>
      </radialGradient>
      <linearGradient id="paint2_linear_702_67017" x1="145.215" y1="123.01" x2="155.829" y2="72.2914" gradientUnits="userSpaceOnUse">
        <stop stop-color="white" stop-opacity="0"/>
        <stop offset="0.471361" stop-color="white"/>
        <stop offset="1" stop-color="white"/>
      </linearGradient>
      <linearGradient id="paint3_linear_702_67017" x1="160.729" y1="220.938" x2="201.954" y2="178" gradientUnits="userSpaceOnUse">
        <stop stop-color="#F2F2F2"/>
        <stop offset="0.0001" stop-color="#F2F2F2"/>
        <stop offset="0.0520833" stop-color="#F2F2F2" stop-opacity="0.948011"/>
        <stop offset="1" stop-color="#F2F2F2" stop-opacity="0"/>
      </linearGradient>
    </defs>
  
    
    <!-- Color -->
    <path d="M177.734 130.914C177.734 127.951 179.774 122.048 187.933 122.136C196.091 122.224 198.203 128.025 198.239 130.914C198.312 133.035 197.089 137.629 191.621 139.033C184.786 140.789 177.734 136.839 177.734 130.914Z" fill="url(#paint0_radial_702_67018)"/>

    <defs>
      <!-- Color -->
      <radialGradient id="paint0_radial_702_67018" cx="0" cy="0" r="1" gradientUnits="userSpaceOnUse" gradientTransform="translate(182.539 125.892) rotate(45.8803) scale(10.3998 11.5271)">
        <stop offset="0.203125" style="stop-color: #71FF30;"/>
        <stop offset="0.890625" style="stop-color: #25BC46;"/>
      </radialGradient>
    </defs>
  
    
    <!-- Color -->
    <path d="M214.052 156.619L218.831 179.91C216.932 182.156 214.118 184.13 210.037 185.164C197.278 188.398 184.115 181.122 184.115 170.207C184.115 164.75 187.922 153.876 203.151 154.038C207.743 154.087 211.309 155.092 214.052 156.619Z" fill="url(#paint0_radial_702_67019)"/>

    <defs>
      <!-- Color -->
      <radialGradient id="paint0_radial_702_67019" cx="0" cy="0" r="1" gradientUnits="userSpaceOnUse" gradientTransform="translate(192.248 160.957) rotate(48.2936) scale(18.4215 20.2932)">
        <stop offset="0.203125" style="stop-color: #FABE09;"/>
        <stop offset="0.890625" style="stop-color: #FDF21B;"/>
      </radialGradient>
    </defs>
  
    
    <!-- Color -->
    <path d="M223.109 211.89C217.522 215.445 199.996 225.13 174.887 225.13C146.901 225.13 128.335 213.098 125.221 210.933C125.032 210.801 124.911 210.606 124.87 210.39C128.808 199.004 144.115 175.86 164.064 181.919C173.943 184.919 180.859 192.452 187.364 199.536C197.438 210.508 206.525 220.404 224.106 210.722C223.783 211.11 223.451 211.499 223.109 211.89Z" fill="url(#paint0_radial_702_67020)"/>

    <!-- Filter -->
    <mask id="mask0_702_67020" style="mask-type:alpha" maskUnits="userSpaceOnUse" x="124" y="180" width="101" height="46">
      <path d="M223.109 211.89C217.522 215.445 199.996 225.13 174.887 225.13C146.901 225.13 128.335 213.098 125.221 210.933C125.032 210.802 124.911 210.606 124.87 210.39C128.808 199.004 144.115 175.86 164.064 181.919C173.943 184.92 180.859 192.452 187.364 199.536C197.438 210.508 206.525 220.405 224.106 210.722C223.783 211.11 223.451 211.499 223.109 211.89Z" fill="url(#paint1_radial_702_67020)"/>
    </mask>
    <g mask="url(#mask0_702_67020)">
      <g filter="url(#filter0_f_702_67020)">
        <mask id="mask1_702_67020" style="mask-type:alpha" maskUnits="userSpaceOnUse" x="124" y="94" width="102" height="132">
          <path d="M148.862 95.0639C148.949 94.6401 149.322 94.3359 149.754 94.3359H200.246C200.678 94.3359 201.051 94.6401 201.138 95.0639L224.993 211.159C225.074 211.555 224.888 211.955 224.527 212.137C220.624 214.109 198.375 224.817 175 225.128C151.578 225.438 129.287 214.178 125.45 212.141C125.099 211.954 124.924 211.562 125.004 211.173L148.862 95.0639Z" fill="#577096" fill-opacity="0.75"/>
        </mask>
        <g mask="url(#mask1_702_67020)">
          <g filter="url(#filter1_f_702_67020)">
            <path d="M155.407 125.301C156.469 105.018 134.471 86.183 128.929 66.9987C133.388 65.1975 144.05 70.7899 152.675 76.125C163.456 82.7938 162.879 109.124 164.625 125.784C166.022 139.112 148.453 223.401 144.015 241.482L131.716 240.837C140.242 214.68 154.587 140.955 155.407 125.301Z" fill="url(#paint2_linear_702_67020)" fill-opacity="0.6"/>
          </g>
        </g>
      </g>
    </g>

    <defs>
      <!-- Color -->
      <radialGradient id="paint0_radial_702_67020" cx="0" cy="0" r="1" gradientUnits="userSpaceOnUse" gradientTransform="translate(148.118 190.514) rotate(28.5454) scale(39.8814 37.1287)">
        <stop offset="0.203125" style="stop-color: #21F6EA;"/>
        <stop offset="0.890625" style="stop-color: #2183F6;"/>
      </radialGradient>

      <!-- Filter -->
      <filter id="filter0_f_702_67020" x="122.591" y="92.0573" width="104.818" height="135.355" filterUnits="userSpaceOnUse" color-interpolation-filters="sRGB">
        <feFlood flood-opacity="0" result="BackgroundImageFix"/>
        <feBlend mode="normal" in="SourceGraphic" in2="BackgroundImageFix" result="shape"/>
        <feGaussianBlur stdDeviation="1.13932" result="effect1_foregroundBlur_702_67020"/>
      </filter>
      <filter id="filter1_f_702_67020" x="128.017" y="65.7428" width="37.5979" height="176.65" filterUnits="userSpaceOnUse" color-interpolation-filters="sRGB">
        <feFlood flood-opacity="0" result="BackgroundImageFix"/>
        <feBlend mode="normal" in="SourceGraphic" in2="BackgroundImageFix" result="shape"/>
        <feGaussianBlur stdDeviation="0.455729" result="effect1_foregroundBlur_702_67020"/>
      </filter>
      <radialGradient id="paint1_radial_702_67020" cx="0" cy="0" r="1" gradientUnits="userSpaceOnUse" gradientTransform="translate(146.218 191.259) rotate(27.3324) scale(58.602 42.3474)">
        <stop offset="0.302083" stop-color="#FFB800"/>
        <stop offset="1" stop-color="#FF7800"/>
      </radialGradient>
      <linearGradient id="paint2_linear_702_67020" x1="160.729" y1="220.939" x2="201.954" y2="178" gradientUnits="userSpaceOnUse">
        <stop stop-color="#F2F2F2"/>
        <stop offset="0.0001" stop-color="#F2F2F2"/>
        <stop offset="0.0520833" stop-color="#F2F2F2" stop-opacity="0.948011"/>
        <stop offset="1" stop-color="#F2F2F2" stop-opacity="0"/>
      </linearGradient>
    </defs>
  
  
    </svg>
  