
    <svg width="350" height="350" viewBox="0 0 350 350" fill="none" xmlns="http://www.w3.org/2000/svg">
    
  <g clip-path="url(#clip0_28_283)">
  <rect width="350" height="350" fill="white"/>
  <rect x="0.0800781" y="0.0449219" width="350" height="350" fill="#FFA19B"/>
  <path d="M125.979 290.538L299.833 190.751L430.988 233.879L212.56 294.049L125.979 290.538Z" fill="url(#paint0_linear_28_283)" fill-opacity="0.1"/>
  <g opacity="0.45" filter="url(#filter0_f_28_283)">
  <ellipse rx="194.596" ry="66.7643" transform="matrix(0.999998 0.00221055 0.00221055 -0.999998 176.078 304.638)" fill="url(#paint1_radial_28_283)"/>
  </g>
  <g opacity="0.7" filter="url(#filter1_f_28_283)">
  <ellipse cx="174.396" cy="137.609" rx="196.647" ry="242.448" transform="rotate(0.126655 174.396 137.609)" fill="url(#paint2_radial_28_283)"/>
  </g>
  </g>
  <defs>
  <filter id="filter0_f_28_283" x="-23.0756" y="233.315" width="398.306" height="142.646" filterUnits="userSpaceOnUse" color-interpolation-filters="sRGB">
  <feFlood flood-opacity="0" result="BackgroundImageFix"/>
  <feBlend mode="normal" in="SourceGraphic" in2="BackgroundImageFix" result="shape"/>
  <feGaussianBlur stdDeviation="2.27865" result="effect1_foregroundBlur_28_283"/>
  </filter>
  <filter id="filter1_f_28_283" x="-26.8085" y="-109.396" width="402.409" height="494.01" filterUnits="userSpaceOnUse" color-interpolation-filters="sRGB">
  <feFlood flood-opacity="0" result="BackgroundImageFix"/>
  <feBlend mode="normal" in="SourceGraphic" in2="BackgroundImageFix" result="shape"/>
  <feGaussianBlur stdDeviation="2.27865" result="effect1_foregroundBlur_28_283"/>
  </filter>
  <linearGradient id="paint0_linear_28_283" x1="194.836" y1="271.638" x2="316.538" y2="167.936" gradientUnits="userSpaceOnUse">
  <stop/>
  <stop offset="1" stop-color="#333333" stop-opacity="0"/>
  </linearGradient>
  <radialGradient id="paint1_radial_28_283" cx="0" cy="0" r="1" gradientUnits="userSpaceOnUse" gradientTransform="translate(194.596 76.624) rotate(99.1226) scale(43.9775 125.337)">
  <stop offset="0.229167" stop-color="#CF0000"/>
  <stop offset="0.90625" stop-color="#CF0000" stop-opacity="0"/>
  </radialGradient>
  <radialGradient id="paint2_radial_28_283" cx="0" cy="0" r="1" gradientUnits="userSpaceOnUse" gradientTransform="translate(174.396 173.413) rotate(92.5586) scale(157.837 128.153)">
  <stop offset="0.229167" stop-color="#CF0000"/>
  <stop offset="0.90625" stop-color="#CF0000" stop-opacity="0"/>
  </radialGradient>
  <clipPath id="clip0_28_283">
  <rect width="350" height="350" fill="white"/>
  </clipPath>
  </defs>

    
  <g opacity="0.5" clip-path="url(#clip0_579_26007)">
  <g style="mix-blend-mode:overlay" opacity="0.5">
  <path d="M64.4994 79.5454C24.135 52.5678 120.937 3.24074 154.082 0H44.7912C11.8248 3.53535 2.38872 19.7391 1.7915 27.399V91.9192C11.0484 104.293 29.883 128.728 88.6868 144.066C166.624 164.394 260.616 124.902 228.436 79.5454C203.353 44.1919 120.041 116.667 64.4994 79.5454Z" fill="white"/>
  </g>
  <g style="mix-blend-mode:overlay" opacity="0.5">
  <path fill-rule="evenodd" clip-rule="evenodd" d="M191.707 0.883873C165.429 6.48152 117.174 29.1667 134.374 39.7728C142.244 44.6255 158.756 44.6231 178.154 44.6202C211.751 44.6152 254.006 44.6089 275.019 69.8233C309.027 110.631 282.186 175 199.77 200.631C198.621 200.989 197.465 201.348 196.304 201.709C114.12 227.257 1.00879 262.419 67.1871 296.086C87.6425 306.492 110.379 298.897 133.89 291.043C176.277 276.884 221.184 261.883 259.79 350H331.456C280.394 316.414 285.14 251.026 318.019 235.101C355.58 216.909 356.071 181.422 352.899 156.055C351.91 148.147 351.493 141.222 352.06 136.111L359.227 0.883873H191.707ZM259.79 209.47C247.607 228.561 203.353 239.226 182.749 242.172C165.728 262.5 206.936 253.662 213.207 248.359C219.478 243.056 232.019 255.429 235.603 272.222C239.186 289.015 269.644 286.364 267.852 272.222C266.061 258.081 266.061 242.172 286.665 226.263C307.269 210.354 275.019 185.606 259.79 209.47Z" fill="white"/>
  </g>
  <g style="mix-blend-mode:overlay" opacity="0.5">
  <path d="M74.3539 178.535C111.979 178.535 110.187 208.586 74.3539 214.773C39.3236 220.821 0.86877 231.304 0.00019598 249.937L0.000196099 251.231C-0.0198743 250.795 -0.0197098 250.364 0.00019598 249.937L0.000188112 159.091C14.4572 167.16 47.4107 178.535 74.3539 178.535Z" fill="white"/>
  </g>
  </g>
  <defs>
  <clipPath id="clip0_579_26007">
  <rect width="350" height="350" fill="white"/>
  </clipPath>
  </defs>

    
    
  <g clip-path="url(#clip0_680_71423)">
  <g filter="url(#filter0_d_680_71423)">
  <path d="M148.427 221.636C148.219 220.751 146.971 220.677 146.647 221.527C136.55 248.09 117.914 274.654 116.8 335.227C116.781 336.264 118.234 336.496 118.57 335.515C132.882 293.71 146.722 277.769 160.913 280.902C161.604 281.054 162.259 280.445 162.097 279.756L148.427 221.636Z" fill="url(#paint0_linear_680_71423)"/>
  <path d="M203.558 221.636C203.766 220.751 205.014 220.677 205.337 221.527C215.435 248.09 234.071 274.654 235.184 335.227C235.203 336.264 233.751 336.496 233.415 335.515C219.103 293.71 205.262 277.769 191.072 280.902C190.381 281.054 189.726 280.445 189.888 279.756L203.558 221.636Z" fill="url(#paint1_linear_680_71423)"/>
  <path d="M126.842 211.154C126.094 210.746 125.165 211.484 125.414 212.299L138.216 254.13C138.221 254.146 138.219 254.143 138.225 254.158C138.408 254.656 154.259 297.585 175.992 297.585C197.726 297.585 213.577 254.656 213.76 254.158C213.766 254.143 213.764 254.146 213.769 254.13L226.571 212.299C226.82 211.484 225.891 210.746 225.143 211.154C219.244 214.371 201.588 222.64 175.992 222.64C150.396 222.64 132.741 214.371 126.842 211.154Z" fill="url(#paint2_linear_680_71423)"/>
  <path d="M175.993 223.319C175.993 222.371 177.237 222.067 177.657 222.917C190.639 249.183 193.084 279.871 193.244 338.858C193.247 339.921 191.937 340.085 191.737 339.041C188.338 321.297 189.489 303.065 176.209 287.114C176.071 286.948 175.993 286.738 175.993 286.522V223.319Z" fill="url(#paint3_linear_680_71423)"/>
  </g>
  <path d="M156.651 61.9395C160.106 48.962 162.892 32.3564 175.778 32.3564C188.664 32.3564 193.179 52.9167 195.334 62.2559C197.32 70.8603 201.666 90.7619 202.337 93.84C202.395 94.1046 202.327 94.3659 202.138 94.5594C200.755 95.9711 194.087 101.627 175.993 101.627C157.844 101.627 151.19 95.9368 149.835 94.5467C149.652 94.3593 149.586 94.1066 149.635 93.8496C150.17 91.0428 153.487 73.8275 156.651 61.9395Z" fill="url(#paint4_linear_680_71423)"/>
  </g>
  <defs>
  <filter id="filter0_d_680_71423" x="114.522" y="211.038" width="123.853" height="134.175" filterUnits="userSpaceOnUse" color-interpolation-filters="sRGB">
  <feFlood flood-opacity="0" result="BackgroundImageFix"/>
  <feColorMatrix in="SourceAlpha" type="matrix" values="0 0 0 0 0 0 0 0 0 0 0 0 0 0 0 0 0 0 127 0" result="hardAlpha"/>
  <feOffset dx="0.455725" dy="2.73435"/>
  <feGaussianBlur stdDeviation="1.36718"/>
  <feComposite in2="hardAlpha" operator="out"/>
  <feColorMatrix type="matrix" values="0 0 0 0 0 0 0 0 0 0 0 0 0 0 0 0 0 0 0.25 0"/>
  <feBlend mode="normal" in2="BackgroundImageFix" result="effect1_dropShadow_680_71423"/>
  <feBlend mode="normal" in="SourceGraphic" in2="effect1_dropShadow_680_71423" result="shape"/>
  </filter>
  <linearGradient id="paint0_linear_680_71423" x1="123.19" y1="234.874" x2="191.362" y2="260.676" gradientUnits="userSpaceOnUse">
  <stop stop-color="#C59651"/>
  <stop offset="0.536458" stop-color="#E0AE0D" stop-opacity="0.98"/>
  <stop offset="1" stop-color="#FFE07B" stop-opacity="0.98"/>
  </linearGradient>
  <linearGradient id="paint1_linear_680_71423" x1="228.795" y1="234.874" x2="160.623" y2="260.676" gradientUnits="userSpaceOnUse">
  <stop stop-color="#C59651"/>
  <stop offset="0.536458" stop-color="#E0AE0D" stop-opacity="0.98"/>
  <stop offset="1" stop-color="#FFE07B" stop-opacity="0.98"/>
  </linearGradient>
  <linearGradient id="paint2_linear_680_71423" x1="175.992" y1="197.329" x2="158.124" y2="308.385" gradientUnits="userSpaceOnUse">
  <stop stop-color="#C59651"/>
  <stop offset="0.366795" stop-color="#FBC412" stop-opacity="0.98"/>
  <stop offset="1" stop-color="#FFF27B" stop-opacity="0.98"/>
  </linearGradient>
  <linearGradient id="paint3_linear_680_71423" x1="190.821" y1="240.337" x2="161.993" y2="244.488" gradientUnits="userSpaceOnUse">
  <stop stop-color="#C59651"/>
  <stop offset="0.536458" stop-color="#E0AE0D" stop-opacity="0.98"/>
  <stop offset="1" stop-color="#FFE07B" stop-opacity="0.98"/>
  </linearGradient>
  <linearGradient id="paint4_linear_680_71423" x1="157.01" y1="43.7168" x2="211.865" y2="87.7013" gradientUnits="userSpaceOnUse">
  <stop stop-color="#C59651"/>
  <stop offset="0.536458" stop-color="#E0AE0D" stop-opacity="0.98"/>
  <stop offset="1" stop-color="#FFF27B" stop-opacity="0.98"/>
  </linearGradient>
  <clipPath id="clip0_680_71423">
  <rect width="349.997" height="349.997" fill="white" transform="translate(0.994141)"/>
  </clipPath>
  </defs>

    
    <path d="M148.647 94.3351L124.888 210.017C124.817 210.363 124.947 210.714 125.237 210.915C128.356 213.082 146.958 225.128 174.998 225.128C203.038 225.128 221.64 213.082 224.76 210.915C225.05 210.714 225.18 210.363 225.109 210.017L201.35 94.3351C201.316 94.4021 201.271 94.4644 201.216 94.5198C199.881 95.8685 193.226 101.484 174.998 101.484C156.771 101.484 150.116 95.8685 148.78 94.5198C148.725 94.4644 148.681 94.4021 148.647 94.3351Z" fill="#FFFFFF" fill-opacity="0.75"/>;
    
    <!-- Color -->
    <path d="M201.049 94.2304L205.113 114.031C203.523 113.76 201.871 113.447 200.18 113.127C186.038 110.452 169.252 107.276 165.003 123.73C163.148 130.914 165.836 135.212 168.45 139.394C170.975 143.43 173.431 147.358 171.668 153.669C169.523 161.35 157.859 166.325 148.479 162.994C138.57 159.476 139.266 144.903 144.961 137.849C150.656 130.794 151.48 120.031 150.656 112.87C150.259 109.409 148.549 106.935 146.313 105.251L148.649 93.8801C148.683 93.9471 148.727 94.0094 148.782 94.0649C150.117 95.4136 156.772 101.03 175 101.03C192.557 101.03 199.378 95.8189 201.049 94.2304Z" fill="url(#paint0_radial_702_67017)"/>

    <!-- Filter -->
    <mask id="mask0_702_67017" style="mask-type:alpha" maskUnits="userSpaceOnUse" x="140" y="93" width="66" height="72">
      <path d="M201.049 94.2304L205.113 114.031C203.523 113.76 201.871 113.447 200.18 113.127C186.038 110.452 169.252 107.276 165.003 123.73C163.148 130.914 165.836 135.212 168.45 139.394C170.975 143.43 173.431 147.358 171.668 153.669C169.523 161.35 157.859 166.325 148.479 162.994C138.57 159.476 139.266 144.903 144.961 137.849C150.656 130.794 151.48 120.031 150.656 112.87C150.259 109.409 148.549 106.935 146.313 105.251L148.649 93.8801C148.683 93.9471 148.727 94.0094 148.782 94.0649C150.117 95.4136 156.772 101.03 175 101.03C192.557 101.03 199.378 95.8189 201.049 94.2304Z" fill="url(#paint1_radial_702_67017)"/>
    </mask>
    <g mask="url(#mask0_702_67017)">
      <g filter="url(#filter0_f_702_67017)">
        <mask id="mask1_702_67017" style="mask-type:alpha" maskUnits="userSpaceOnUse" x="124" y="94" width="102" height="132">
          <path d="M148.862 95.0637C148.949 94.6399 149.322 94.3357 149.754 94.3357H200.246C200.678 94.3357 201.051 94.6399 201.138 95.0637L224.993 211.158C225.074 211.554 224.888 211.954 224.527 212.137C220.624 214.108 198.375 224.817 175 225.127C151.578 225.438 129.287 214.178 125.45 212.14C125.099 211.954 124.924 211.562 125.004 211.173L148.862 95.0637Z" fill="#577096" fill-opacity="0.75"/>
        </mask>
        <g mask="url(#mask1_702_67017)">
          <g filter="url(#filter1_f_702_67017)">
            <path d="M207.208 76.1064C210.866 110.268 145.941 132.571 113.021 139.453L113.021 76.1064L207.208 76.1064Z" fill="url(#paint2_linear_702_67017)" fill-opacity="0.5"/>
          </g>
          <g filter="url(#filter2_f_702_67017)">
            <path d="M155.407 125.301C156.469 105.018 134.471 86.1828 128.929 66.9985C133.388 65.1973 144.05 70.7896 152.675 76.1247C163.456 82.7936 162.879 109.124 164.625 125.784C166.022 139.112 148.453 223.401 144.015 241.481L131.716 240.837C140.242 214.68 154.587 140.955 155.407 125.301Z" fill="url(#paint3_linear_702_67017)" fill-opacity="0.6"/>
          </g>
        </g>
      </g>
    </g>

    <defs>
      <!-- Color -->
      <radialGradient id="paint0_radial_702_67017" cx="0" cy="0" r="1" gradientUnits="userSpaceOnUse" gradientTransform="translate(155.882 109.102) rotate(53.1177) scale(37.8177 40.2646)">
        <stop offset="0.203125" style="stop-color: #71FF30;"/>
        <stop offset="0.890625" style="stop-color: #25BC46;"/>
      </radialGradient>

      <!-- Filter -->
      <filter id="filter0_f_702_67017" x="122.591" y="92.057" width="104.818" height="135.355" filterUnits="userSpaceOnUse" color-interpolation-filters="sRGB">
        <feFlood flood-opacity="0" result="BackgroundImageFix"/>
        <feBlend mode="normal" in="SourceGraphic" in2="BackgroundImageFix" result="shape"/>
        <feGaussianBlur stdDeviation="1.13932" result="effect1_foregroundBlur_702_67017"/>
      </filter>
      <filter id="filter1_f_702_67017" x="112.109" y="75.195" width="96.1589" height="65.1694" filterUnits="userSpaceOnUse" color-interpolation-filters="sRGB">
        <feFlood flood-opacity="0" result="BackgroundImageFix"/>
        <feBlend mode="normal" in="SourceGraphic" in2="BackgroundImageFix" result="shape"/>
        <feGaussianBlur stdDeviation="0.455729" result="effect1_foregroundBlur_702_67017"/>
      </filter>
      <filter id="filter2_f_702_67017" x="128.017" y="65.7426" width="37.5979" height="176.65" filterUnits="userSpaceOnUse" color-interpolation-filters="sRGB">
        <feFlood flood-opacity="0" result="BackgroundImageFix"/>
        <feBlend mode="normal" in="SourceGraphic" in2="BackgroundImageFix" result="shape"/>
        <feGaussianBlur stdDeviation="0.455729" result="effect1_foregroundBlur_702_67017"/>
      </filter>
      <radialGradient id="paint1_radial_702_67017" cx="0" cy="0" r="1" gradientUnits="userSpaceOnUse" gradientTransform="translate(155.882 109.102) rotate(53.1177) scale(37.8177 40.2646)">
        <stop offset="0.203125" stop-color="#71FF30"/>
        <stop offset="0.890625" stop-color="#25BC46"/>
      </radialGradient>
      <linearGradient id="paint2_linear_702_67017" x1="145.215" y1="123.01" x2="155.829" y2="72.2914" gradientUnits="userSpaceOnUse">
        <stop stop-color="white" stop-opacity="0"/>
        <stop offset="0.471361" stop-color="white"/>
        <stop offset="1" stop-color="white"/>
      </linearGradient>
      <linearGradient id="paint3_linear_702_67017" x1="160.729" y1="220.938" x2="201.954" y2="178" gradientUnits="userSpaceOnUse">
        <stop stop-color="#F2F2F2"/>
        <stop offset="0.0001" stop-color="#F2F2F2"/>
        <stop offset="0.0520833" stop-color="#F2F2F2" stop-opacity="0.948011"/>
        <stop offset="1" stop-color="#F2F2F2" stop-opacity="0"/>
      </linearGradient>
    </defs>
  
    
    <!-- Color -->
    <path d="M177.734 130.914C177.734 127.951 179.774 122.048 187.933 122.136C196.091 122.224 198.203 128.025 198.239 130.914C198.312 133.035 197.089 137.629 191.621 139.033C184.786 140.789 177.734 136.839 177.734 130.914Z" fill="url(#paint0_radial_702_67018)"/>

    <defs>
      <!-- Color -->
      <radialGradient id="paint0_radial_702_67018" cx="0" cy="0" r="1" gradientUnits="userSpaceOnUse" gradientTransform="translate(182.539 125.892) rotate(45.8803) scale(10.3998 11.5271)">
        <stop offset="0.203125" style="stop-color: #71FF30;"/>
        <stop offset="0.890625" style="stop-color: #25BC46;"/>
      </radialGradient>
    </defs>
  
    
    <!-- Color -->
    <path d="M214.052 156.619L218.831 179.91C216.932 182.156 214.118 184.13 210.037 185.164C197.278 188.398 184.115 181.122 184.115 170.207C184.115 164.75 187.922 153.876 203.151 154.038C207.743 154.087 211.309 155.092 214.052 156.619Z" fill="url(#paint0_radial_702_67019)"/>

    <defs>
      <!-- Color -->
      <radialGradient id="paint0_radial_702_67019" cx="0" cy="0" r="1" gradientUnits="userSpaceOnUse" gradientTransform="translate(192.248 160.957) rotate(48.2936) scale(18.4215 20.2932)">
        <stop offset="0.203125" style="stop-color: #FABE09;"/>
        <stop offset="0.890625" style="stop-color: #FDF21B;"/>
      </radialGradient>
    </defs>
  
    
    <!-- Color -->
    <path d="M223.109 211.89C217.522 215.445 199.996 225.13 174.887 225.13C146.901 225.13 128.335 213.098 125.221 210.933C125.032 210.801 124.911 210.606 124.87 210.39C128.808 199.004 144.115 175.86 164.064 181.919C173.943 184.919 180.859 192.452 187.364 199.536C197.438 210.508 206.525 220.404 224.106 210.722C223.783 211.11 223.451 211.499 223.109 211.89Z" fill="url(#paint0_radial_702_67020)"/>

    <!-- Filter -->
    <mask id="mask0_702_67020" style="mask-type:alpha" maskUnits="userSpaceOnUse" x="124" y="180" width="101" height="46">
      <path d="M223.109 211.89C217.522 215.445 199.996 225.13 174.887 225.13C146.901 225.13 128.335 213.098 125.221 210.933C125.032 210.802 124.911 210.606 124.87 210.39C128.808 199.004 144.115 175.86 164.064 181.919C173.943 184.92 180.859 192.452 187.364 199.536C197.438 210.508 206.525 220.405 224.106 210.722C223.783 211.11 223.451 211.499 223.109 211.89Z" fill="url(#paint1_radial_702_67020)"/>
    </mask>
    <g mask="url(#mask0_702_67020)">
      <g filter="url(#filter0_f_702_67020)">
        <mask id="mask1_702_67020" style="mask-type:alpha" maskUnits="userSpaceOnUse" x="124" y="94" width="102" height="132">
          <path d="M148.862 95.0639C148.949 94.6401 149.322 94.3359 149.754 94.3359H200.246C200.678 94.3359 201.051 94.6401 201.138 95.0639L224.993 211.159C225.074 211.555 224.888 211.955 224.527 212.137C220.624 214.109 198.375 224.817 175 225.128C151.578 225.438 129.287 214.178 125.45 212.141C125.099 211.954 124.924 211.562 125.004 211.173L148.862 95.0639Z" fill="#577096" fill-opacity="0.75"/>
        </mask>
        <g mask="url(#mask1_702_67020)">
          <g filter="url(#filter1_f_702_67020)">
            <path d="M155.407 125.301C156.469 105.018 134.471 86.183 128.929 66.9987C133.388 65.1975 144.05 70.7899 152.675 76.125C163.456 82.7938 162.879 109.124 164.625 125.784C166.022 139.112 148.453 223.401 144.015 241.482L131.716 240.837C140.242 214.68 154.587 140.955 155.407 125.301Z" fill="url(#paint2_linear_702_67020)" fill-opacity="0.6"/>
          </g>
        </g>
      </g>
    </g>

    <defs>
      <!-- Color -->
      <radialGradient id="paint0_radial_702_67020" cx="0" cy="0" r="1" gradientUnits="userSpaceOnUse" gradientTransform="translate(148.118 190.514) rotate(28.5454) scale(39.8814 37.1287)">
        <stop offset="0.203125" style="stop-color: #21F6EA;"/>
        <stop offset="0.890625" style="stop-color: #2183F6;"/>
      </radialGradient>

      <!-- Filter -->
      <filter id="filter0_f_702_67020" x="122.591" y="92.0573" width="104.818" height="135.355" filterUnits="userSpaceOnUse" color-interpolation-filters="sRGB">
        <feFlood flood-opacity="0" result="BackgroundImageFix"/>
        <feBlend mode="normal" in="SourceGraphic" in2="BackgroundImageFix" result="shape"/>
        <feGaussianBlur stdDeviation="1.13932" result="effect1_foregroundBlur_702_67020"/>
      </filter>
      <filter id="filter1_f_702_67020" x="128.017" y="65.7428" width="37.5979" height="176.65" filterUnits="userSpaceOnUse" color-interpolation-filters="sRGB">
        <feFlood flood-opacity="0" result="BackgroundImageFix"/>
        <feBlend mode="normal" in="SourceGraphic" in2="BackgroundImageFix" result="shape"/>
        <feGaussianBlur stdDeviation="0.455729" result="effect1_foregroundBlur_702_67020"/>
      </filter>
      <radialGradient id="paint1_radial_702_67020" cx="0" cy="0" r="1" gradientUnits="userSpaceOnUse" gradientTransform="translate(146.218 191.259) rotate(27.3324) scale(58.602 42.3474)">
        <stop offset="0.302083" stop-color="#FFB800"/>
        <stop offset="1" stop-color="#FF7800"/>
      </radialGradient>
      <linearGradient id="paint2_linear_702_67020" x1="160.729" y1="220.939" x2="201.954" y2="178" gradientUnits="userSpaceOnUse">
        <stop stop-color="#F2F2F2"/>
        <stop offset="0.0001" stop-color="#F2F2F2"/>
        <stop offset="0.0520833" stop-color="#F2F2F2" stop-opacity="0.948011"/>
        <stop offset="1" stop-color="#F2F2F2" stop-opacity="0"/>
      </linearGradient>
    </defs>
  
  
    </svg>
  