
    <svg width="350" height="350" viewBox="0 0 350 350" fill="none" xmlns="http://www.w3.org/2000/svg">
    
  <g clip-path="url(#clip0_28_283)">
  <rect width="350" height="350" fill="white"/>
  <rect x="0.0800781" y="0.0449219" width="350" height="350" fill="#FFA19B"/>
  <path d="M125.979 290.538L299.833 190.751L430.988 233.879L212.56 294.049L125.979 290.538Z" fill="url(#paint0_linear_28_283)" fill-opacity="0.1"/>
  <g opacity="0.45" filter="url(#filter0_f_28_283)">
  <ellipse rx="194.596" ry="66.7643" transform="matrix(0.999998 0.00221055 0.00221055 -0.999998 176.078 304.638)" fill="url(#paint1_radial_28_283)"/>
  </g>
  <g opacity="0.7" filter="url(#filter1_f_28_283)">
  <ellipse cx="174.396" cy="137.609" rx="196.647" ry="242.448" transform="rotate(0.126655 174.396 137.609)" fill="url(#paint2_radial_28_283)"/>
  </g>
  </g>
  <defs>
  <filter id="filter0_f_28_283" x="-23.0756" y="233.315" width="398.306" height="142.646" filterUnits="userSpaceOnUse" color-interpolation-filters="sRGB">
  <feFlood flood-opacity="0" result="BackgroundImageFix"/>
  <feBlend mode="normal" in="SourceGraphic" in2="BackgroundImageFix" result="shape"/>
  <feGaussianBlur stdDeviation="2.27865" result="effect1_foregroundBlur_28_283"/>
  </filter>
  <filter id="filter1_f_28_283" x="-26.8085" y="-109.396" width="402.409" height="494.01" filterUnits="userSpaceOnUse" color-interpolation-filters="sRGB">
  <feFlood flood-opacity="0" result="BackgroundImageFix"/>
  <feBlend mode="normal" in="SourceGraphic" in2="BackgroundImageFix" result="shape"/>
  <feGaussianBlur stdDeviation="2.27865" result="effect1_foregroundBlur_28_283"/>
  </filter>
  <linearGradient id="paint0_linear_28_283" x1="194.836" y1="271.638" x2="316.538" y2="167.936" gradientUnits="userSpaceOnUse">
  <stop/>
  <stop offset="1" stop-color="#333333" stop-opacity="0"/>
  </linearGradient>
  <radialGradient id="paint1_radial_28_283" cx="0" cy="0" r="1" gradientUnits="userSpaceOnUse" gradientTransform="translate(194.596 76.624) rotate(99.1226) scale(43.9775 125.337)">
  <stop offset="0.229167" stop-color="#CF0000"/>
  <stop offset="0.90625" stop-color="#CF0000" stop-opacity="0"/>
  </radialGradient>
  <radialGradient id="paint2_radial_28_283" cx="0" cy="0" r="1" gradientUnits="userSpaceOnUse" gradientTransform="translate(174.396 173.413) rotate(92.5586) scale(157.837 128.153)">
  <stop offset="0.229167" stop-color="#CF0000"/>
  <stop offset="0.90625" stop-color="#CF0000" stop-opacity="0"/>
  </radialGradient>
  <clipPath id="clip0_28_283">
  <rect width="350" height="350" fill="white"/>
  </clipPath>
  </defs>

    
  <g style="mix-blend-mode:overlay" clip-path="url(#clip0_559_45925)">
  <circle cx="267.057" cy="334.049" r="28.7109" fill="white" fill-opacity="0.25"/>
  <circle cx="114.388" cy="66.5365" r="22.7865" fill="white" fill-opacity="0.25"/>
  <circle cx="279.362" cy="110.287" r="16.4062" fill="white" fill-opacity="0.25"/>
  <circle cx="8.20312" cy="234.701" r="16.4062" fill="white" fill-opacity="0.25"/>
  <circle cx="335.872" cy="14.5833" r="40.1042" fill="white" fill-opacity="0.25"/>
  <path d="M65.9326 288.461C29.3383 277.341 1.34401 320.346 -5.46875 340.81C53.705 430.699 146.791 390.296 179.557 350.911C127.002 379.87 111.675 302.361 65.9326 288.461Z" fill="white" fill-opacity="0.25"/>
  <path d="M296.664 236.375C285.544 199.781 328.549 171.787 349.013 164.974C438.902 224.148 398.499 317.234 359.115 350C388.074 297.444 310.565 282.118 296.664 236.375Z" fill="white" fill-opacity="0.25"/>
  <path d="M-26.4321 3.86974C-13.3545 0.661562 15.8469 6.61965 18.8009 32.2851C21.0691 51.9925 19.2624 85.9076 3.10779 101.032C-15.8162 118.749 -14.5043 160.554 12.8006 170.237C38.648 179.403 69.97 166.112 74.1882 144.572C80.545 112.109 53.2633 106.516 57.1104 74.9081C67.4481 -10.0259 219.591 11.8327 236.979 -4.55717C236.979 -87.4437 3.10779 -222.311 -26.4321 3.86974Z" fill="white" fill-opacity="0.25"/>
  </g>
  <defs>
  <clipPath id="clip0_559_45925">
  <rect width="350" height="350" fill="white"/>
  </clipPath>
  </defs>

    
    
  <mask id="mask0_680_65597" style="mask-type:alpha" maskUnits="userSpaceOnUse" x="217" y="76" width="102" height="210">
  <path d="M286.125 140.454L286.15 140.715L286.408 140.755L286.539 140.775L286.026 144.08C285.935 144.666 285.477 145.104 284.905 145.147C283.985 145.216 282.554 145.29 280.644 145.289L280.364 145.289L280.312 145.563L274.16 178.04C274.1 178.362 273.93 178.58 273.695 178.656C273.133 178.837 272.005 179.074 269.928 179.105L269.712 179.108L269.625 179.306C267.404 184.342 266.167 194.417 271.758 208.393C279.967 228.918 284.554 241.085 276.78 257.342C273.717 263.745 266.667 269.665 258.909 274.548C251.339 279.313 243.147 283.058 237.475 285.276L234.166 264.097C237.67 262.925 242.531 260.735 247.125 257.641C251.836 254.469 256.296 250.326 258.702 245.328C263.364 235.647 259.679 227.345 255.922 218.88L255.901 218.832C254.807 216.368 253.707 213.89 252.791 211.344C251.364 207.38 250.487 201.437 250.189 195.362L250.18 195.174L250.016 195.083C249.158 194.608 248.078 194.306 246.738 194.306H229.27V194.306L229.261 194.306C228.618 194.324 227.883 194.745 227.183 195.333C226.467 195.934 225.729 196.76 225.075 197.689C224.42 198.619 223.842 199.663 223.454 200.704C223.328 201.043 223.221 201.384 223.138 201.722L218.352 183.347C219.024 183.637 220.002 183.964 221.209 184.247C222.943 184.655 225.174 184.98 227.706 184.98H244.652H244.664L244.675 184.979C245.923 184.895 248.452 184.503 250.225 183.553L250.384 183.468L250.401 183.288C250.659 180.571 251.068 178.172 251.628 176.332L251.715 176.045L251.44 175.925C249.577 175.115 248.573 174.354 248.094 173.914C247.898 173.734 247.809 173.453 247.841 173.133L251.022 140.955L251.049 140.685L250.791 140.601C249.141 140.066 247.887 139.596 247.065 139.269C246.523 139.053 246.213 138.489 246.305 137.896L246.815 134.609L246.922 134.625L247.57 134.726L247.274 134.141C247.267 134.126 247.264 134.116 247.263 134.112C247.268 134.104 247.282 134.085 247.318 134.058C247.384 134.008 247.497 133.951 247.672 133.894C248.021 133.78 248.543 133.693 249.231 133.638C250.602 133.528 252.557 133.554 254.931 133.713L255.048 133.72L255.144 133.654C255.835 133.178 256.632 132.162 257.393 130.574C258.159 128.977 258.903 126.768 259.47 123.868C260.895 116.572 261.736 110.364 260.552 104.144C260.439 103.545 260.124 102.686 259.699 101.663C259.27 100.633 258.718 99.4085 258.113 98.0691L258.111 98.0651C256.629 94.7801 254.83 90.7936 253.723 87.1666C253.169 85.3532 252.793 83.6455 252.712 82.171C252.631 80.6908 252.85 79.4909 253.434 78.6503C253.617 78.3874 253.932 78.1388 254.395 77.9159C254.857 77.694 255.447 77.5072 256.155 77.3571C257.57 77.0567 259.413 76.9111 261.548 76.9001C265.814 76.8781 271.19 77.3938 276.507 78.2431C281.823 79.0924 287.066 80.2729 291.068 81.5752C293.071 82.2269 294.75 82.9051 295.97 83.5817C296.58 83.92 297.065 84.2524 297.416 84.5736C297.77 84.8975 297.965 85.1893 298.035 85.4423C298.25 86.2099 298.136 87.094 297.734 88.0912C297.333 89.088 296.654 90.1695 295.78 91.3119C294.031 93.5982 291.547 96.0696 289.077 98.5258L289.054 98.5482C286.288 101.299 283.533 104.038 281.942 106.425C280.83 108.093 279.963 110.177 279.298 112.413L279.142 112.937L279.68 112.841C280.967 112.611 283.492 112.632 286.831 112.897C290.157 113.161 294.256 113.665 298.67 114.385C304.12 115.273 309.008 116.322 312.505 117.298C314.255 117.787 315.645 118.254 316.58 118.669C317.05 118.878 317.387 119.066 317.595 119.227C317.7 119.308 317.757 119.37 317.784 119.412C317.784 119.412 317.784 119.412 317.784 119.413L317.344 119.863L317.991 119.964L318.17 119.992L317.657 123.296C317.566 123.883 317.109 124.321 316.536 124.364C313.994 124.555 307.54 124.782 297.856 123.358C288.009 121.91 281.259 119.505 278.696 118.486C278.62 118.455 278.549 118.418 278.484 118.376L278.043 118.091L277.967 118.61C277.521 121.673 277.361 124.637 277.407 126.925C277.444 128.776 277.807 131.112 278.247 133.149C278.468 134.169 278.709 135.12 278.94 135.904C279.17 136.681 279.396 137.314 279.591 137.687L279.658 137.817L279.8 137.856C281.784 138.4 283.392 138.933 284.506 139.418C285.065 139.661 285.487 139.886 285.767 140.086C285.907 140.186 286.002 140.273 286.06 140.344C286.119 140.416 286.125 140.452 286.125 140.454ZM247.261 134.116C247.261 134.116 247.261 134.116 247.261 134.115L247.261 134.116Z" fill="#C4C4C4" stroke="black" stroke-width="0.673831"/>
  </mask>
  <g mask="url(#mask0_680_65597)">
  <g filter="url(#filter0_f_680_65597)">
  <rect x="375.432" y="356.933" width="190.661" height="292.316" transform="rotate(-180 375.432 356.933)" fill="url(#paint0_linear_680_65597)"/>
  </g>
  <g style="mix-blend-mode:overlay" filter="url(#filter1_f_680_65597)">
  <ellipse cx="393.199" cy="253.331" rx="270.942" ry="334.047" transform="rotate(0.126655 393.199 253.331)" fill="url(#paint1_radial_680_65597)"/>
  </g>
  <g opacity="0.5">
  <g style="mix-blend-mode:overlay" opacity="0.5">
  <path d="M301.81 223.383C245.531 185.258 380.5 115.549 426.714 110.969H274.331C228.367 115.965 215.21 138.864 214.377 149.689V240.869C227.284 258.356 253.545 292.887 335.534 314.563C444.201 343.29 575.253 287.481 530.384 223.383C495.411 173.421 379.251 275.842 301.81 223.383Z" fill="white"/>
  </g>
  <g style="mix-blend-mode:overlay" opacity="0.5">
  <path fill-rule="evenodd" clip-rule="evenodd" d="M479.174 124.708C442.535 132.619 375.254 152.187 399.235 167.176C410.208 174.034 433.23 174.03 460.277 174.026C507.12 174.019 566.036 174.01 595.334 209.643C642.752 267.313 605.327 358.279 490.415 394.501C488.813 395.006 487.202 395.513 485.583 396.024C370.995 432.128 213.286 481.82 305.557 529.397C334.078 544.103 365.779 533.37 398.56 522.271C457.66 502.261 520.273 481.061 574.101 605.589H674.024C602.829 558.125 609.446 465.718 655.288 443.213C707.66 417.504 701.474 367.355 697.052 331.505C695.673 320.33 694.466 310.544 695.258 303.321V124.708H479.174ZM574.101 406.991C557.114 433.971 495.411 449.042 466.683 453.206C442.952 481.934 500.407 469.443 509.151 461.949C517.894 454.455 535.381 471.941 540.377 495.673C545.373 519.405 587.84 515.658 585.342 495.673C582.844 475.688 582.844 453.206 611.572 430.723C640.3 408.24 595.334 373.267 574.101 406.991Z" fill="white"/>
  </g>
  </g>
  <g opacity="0.6">
  <circle cx="233.289" cy="194.563" r="1.15682" fill="white"/>
  <circle cx="298.201" cy="274.182" r="1.15682" transform="rotate(75 298.201 274.182)" fill="white"/>
  <circle cx="227.274" cy="156.311" r="1.15682" fill="white"/>
  <circle cx="235.886" cy="178.081" r="1.15682" transform="rotate(75 235.886 178.081)" fill="white"/>
  <circle cx="236.79" cy="242.253" r="1.15682" transform="rotate(75 236.79 242.253)" fill="white"/>
  <circle cx="242.921" cy="226.398" r="1.15682" transform="rotate(75 242.921 226.398)" fill="white"/>
  <circle cx="221.258" cy="250.553" r="1.15682" fill="white"/>
  <circle cx="228.398" cy="267.73" r="1.15682" fill="white"/>
  <circle cx="241.004" cy="277.052" r="1.15682" transform="rotate(75 241.004 277.052)" fill="white"/>
  <circle cx="285.417" cy="219.323" r="1.15682" transform="rotate(75 285.417 219.323)" fill="white"/>
  <circle cx="218.458" cy="104.177" r="1.15682" fill="white"/>
  <circle cx="238.337" cy="118.183" r="1.15682" fill="white"/>
  <circle cx="250.084" cy="88.3643" r="1.15682" fill="white"/>
  <circle cx="302.041" cy="86.1053" r="1.15682" fill="white"/>
  <circle cx="304.3" cy="117.732" r="1.15682" fill="white"/>
  <circle cx="259.12" cy="148.454" r="1.15682" fill="white"/>
  <circle cx="291.65" cy="148.454" r="1.15682" fill="white"/>
  <circle cx="276.289" cy="172.851" r="1.15682" fill="white"/>
  <circle cx="254.697" cy="188.217" r="1.15682" transform="rotate(75 254.697 188.217)" fill="white"/>
  <circle cx="313.144" cy="282.447" r="1.15682" transform="rotate(75 313.144 282.447)" fill="white"/>
  <circle cx="262.543" cy="285.158" r="1.15682" transform="rotate(75 262.543 285.158)" fill="white"/>
  <circle cx="261.639" cy="259.857" r="1.15682" transform="rotate(75 261.639 259.857)" fill="white"/>
  <circle cx="251.52" cy="206.155" r="1.15682" transform="rotate(75 251.52 206.155)" fill="white"/>
  <circle cx="270.307" cy="206.44" r="1.15682" fill="white"/>
  <circle cx="299.307" cy="263.083" r="1.15682" transform="rotate(165 299.307 263.083)" fill="white"/>
  <circle cx="248.559" cy="248.702" r="1.15682" fill="white"/>
  <circle cx="301.674" cy="248.077" r="1.15682" transform="rotate(165 301.674 248.077)" fill="white"/>
  <circle cx="274.163" cy="234.512" r="1.15682" fill="white"/>
  <circle cx="280.615" cy="268.411" r="1.15682" transform="rotate(165 280.615 268.411)" fill="white"/>
  <path d="M257.448 239.387L257.031 238.261L255.906 237.845L257.031 237.428L257.448 236.302L257.865 237.428L258.99 237.845L257.865 238.261L257.448 239.387Z" fill="#FFF7B0"/>
  <path d="M222.659 144.96L222.243 143.835L221.117 143.418L222.243 143.001L222.659 141.876L223.076 143.001L224.202 143.418L223.076 143.835L222.659 144.96Z" fill="#FFF7B0"/>
  <path d="M259.762 277.485L259.345 276.359L258.219 275.943L259.345 275.526L259.762 274.4L260.178 275.526L261.304 275.943L260.178 276.359L259.762 277.485Z" fill="#FFF7B0"/>
  <path d="M224.973 183.058L224.556 181.933L223.43 181.516L224.556 181.099L224.973 179.974L225.389 181.099L226.515 181.516L225.389 181.933L224.973 183.058Z" fill="#FFF7B0"/>
  <path d="M222.659 221.157L222.243 220.031L221.117 219.614L222.243 219.198L222.659 218.072L223.076 219.198L224.202 219.614L223.076 220.031L222.659 221.157Z" fill="#FFF7B0"/>
  <path d="M259.759 222.725L259.03 220.755L257.06 220.026L259.03 219.297L259.759 217.327L260.488 219.297L262.458 220.026L260.488 220.755L259.759 222.725Z" fill="#FFF7B0"/>
  <path d="M266.988 120.618L266.259 118.647L264.288 117.918L266.259 117.189L266.988 115.219L267.717 117.189L269.687 117.918L267.717 118.647L266.988 120.618Z" fill="#FFF7B0"/>
  <path d="M283.264 103.021L281.678 98.7334L277.391 97.1471L281.678 95.5607L283.264 91.2736L284.85 95.5607L289.138 97.1471L284.85 98.7334L283.264 103.021Z" fill="#FFF7B0"/>
  </g>
  </g>
  <g filter="url(#filter2_d_680_65597)">
  <mask id="mask1_680_65597" style="mask-type:alpha" maskUnits="userSpaceOnUse" x="112" y="211" width="128" height="104">
  <path d="M205.982 314.453H176.559H145.384C122.516 314.453 108.299 292.001 113.716 268.715L115.607 260.588L125.528 211.458C136.098 220.298 153.514 224.875 176.559 224.875C199.603 224.875 211.686 219.434 224.674 211.458L235.757 260.588L237.648 268.706C243.071 291.994 228.854 314.453 205.982 314.453Z" fill="url(#paint2_radial_680_65597)" stroke="black" stroke-width="0.455729"/>
  </mask>
  <g mask="url(#mask1_680_65597)">
  <g filter="url(#filter3_f_680_65597)">
  <rect x="274.366" y="369.596" width="166.797" height="166.797" transform="rotate(-180 274.366 369.596)" fill="url(#paint3_linear_680_65597)"/>
  </g>
  <g style="mix-blend-mode:overlay" filter="url(#filter4_f_680_65597)">
  <ellipse cx="263.736" cy="246.072" rx="273.297" ry="336.951" transform="rotate(0.126655 263.736 246.072)" fill="url(#paint4_radial_680_65597)"/>
  </g>
  <g opacity="0.5">
  <g style="mix-blend-mode:overlay" opacity="0.5">
  <path d="M141.261 209.183C115.613 191.808 177.122 160.04 198.183 157.953H128.738C107.79 160.229 101.795 170.665 101.415 175.598V217.152C107.297 225.121 119.265 240.858 156.63 250.736C206.152 263.828 265.877 238.394 245.429 209.183C229.491 186.414 176.553 233.09 141.261 209.183Z" fill="white"/>
  </g>
  <g style="mix-blend-mode:overlay" opacity="0.5">
  <path fill-rule="evenodd" clip-rule="evenodd" d="M222.091 164.214C205.394 167.819 174.731 176.737 185.66 183.568C190.661 186.693 201.153 186.691 213.479 186.69C234.827 186.686 261.677 186.682 275.029 202.921C296.638 229.203 279.582 270.659 227.214 287.166C226.484 287.396 225.75 287.628 225.011 287.86C172.791 304.314 100.918 326.96 142.969 348.642C155.966 355.344 170.413 350.453 185.353 345.395C212.286 336.276 240.821 326.614 265.352 383.365H310.89C278.444 361.735 281.46 319.622 302.351 309.366C326.219 297.649 323.399 274.795 321.384 258.457C320.756 253.364 320.206 248.905 320.567 245.613V164.214H222.091ZM265.352 292.859C257.61 305.154 229.491 312.022 216.399 313.92C205.583 327.012 231.768 321.32 235.752 317.904C239.737 314.489 247.706 322.458 249.983 333.273C252.26 344.089 271.613 342.381 270.475 333.273C269.336 324.166 269.336 313.92 282.429 303.674C295.521 293.428 275.029 277.49 265.352 292.859Z" fill="white"/>
  </g>
  <g style="mix-blend-mode:overlay" opacity="0.5">
  <path d="M147.523 272.936C171.43 272.936 170.292 292.289 147.523 296.274C125.328 300.158 103.673 306.206 103.123 318.108V319.043C103.109 318.727 103.109 318.415 103.123 318.108V259.834C112.309 265.03 130.402 272.936 147.523 272.936Z" fill="white"/>
  </g>
  </g>
  <g opacity="0.6">
  <ellipse rx="1.10576" ry="1.1626" transform="matrix(-0.961979 0.273124 -0.24516 -0.969483 232.683 276.479)" fill="white"/>
  <ellipse rx="1.10576" ry="1.1626" transform="matrix(-0.961979 0.273124 -0.24516 -0.969483 183.706 249.311)" fill="white"/>
  <ellipse rx="1.1626" ry="1.10576" transform="matrix(0.24516 0.969483 -0.961979 0.273124 153.019 226.881)" fill="white"/>
  <ellipse rx="1.10576" ry="1.1626" transform="matrix(-0.961979 0.273124 -0.24516 -0.969483 198.662 285.011)" fill="white"/>
  <ellipse rx="1.1626" ry="1.10576" transform="matrix(0.24516 0.969483 -0.961979 0.273124 186.711 211.033)" fill="white"/>
  <ellipse rx="1.1626" ry="1.10576" transform="matrix(0.24516 0.969483 -0.961979 0.273124 201.794 225.674)" fill="white"/>
  <ellipse rx="1.10576" ry="1.1626" transform="matrix(-0.961979 0.273124 -0.24516 -0.969483 235.929 236.417)" fill="white"/>
  <ellipse rx="1.10576" ry="1.1626" transform="matrix(-0.961979 0.273124 -0.24516 -0.969483 219.991 235.305)" fill="white"/>
  <ellipse rx="1.10576" ry="1.1626" transform="matrix(-0.961979 0.273124 -0.24516 -0.969483 166.619 294.753)" fill="white"/>
  <ellipse rx="1.1626" ry="1.10576" transform="matrix(0.24516 0.969483 -0.961979 0.273124 195.905 244.987)" fill="white"/>
  <ellipse rx="1.10576" ry="1.1626" transform="matrix(-0.961979 0.273124 -0.24516 -0.969483 149.543 291.548)" fill="white"/>
  <ellipse rx="1.1626" ry="1.10576" transform="matrix(0.24516 0.969483 -0.961979 0.273124 217.136 213.343)" fill="white"/>
  <ellipse rx="1.1626" ry="1.10576" transform="matrix(0.24516 0.969483 -0.961979 0.273124 167.245 235.218)" fill="white"/>
  <ellipse rx="1.1626" ry="1.10576" transform="matrix(0.24516 0.969483 -0.961979 0.273124 168.105 272.588)" fill="white"/>
  <ellipse rx="1.1626" ry="1.10576" transform="matrix(0.24516 0.969483 -0.961979 0.273124 119.075 237.953)" fill="white"/>
  <ellipse rx="1.1626" ry="1.10576" transform="matrix(0.24516 0.969483 -0.961979 0.273124 118.214 212.432)" fill="white"/>
  <ellipse rx="1.10576" ry="1.1626" transform="matrix(-0.961979 0.273124 -0.24516 -0.969483 146.741 247.404)" fill="white"/>
  <ellipse rx="1.1626" ry="1.10576" transform="matrix(0.24516 0.969483 -0.961979 0.273124 151.219 266.049)" fill="white"/>
  <ellipse rx="1.1626" ry="1.10576" transform="matrix(0.24516 0.969483 -0.961979 0.273124 239.502 212.888)" fill="white"/>
  <ellipse rx="1.10576" ry="1.1626" transform="matrix(-0.961979 0.273124 -0.24516 -0.969483 154.073 215.685)" fill="white"/>
  <ellipse rx="1.1626" ry="1.10576" transform="matrix(0.24516 0.969483 -0.961979 0.273124 121.285 258.28)" fill="white"/>
  <ellipse rx="1.1626" ry="1.10576" transform="matrix(0.24516 0.969483 -0.961979 0.273124 224.507 254.179)" fill="white"/>
  <ellipse rx="1.1626" ry="1.10576" transform="matrix(0.24516 0.969483 -0.961979 0.273124 210.223 251.791)" fill="white"/>
  <ellipse rx="1.10576" ry="1.1626" transform="matrix(-0.961979 0.273124 -0.24516 -0.969483 136.279 221.059)" fill="white"/>
  <ellipse rx="1.1626" ry="1.10576" transform="matrix(0.24516 0.969483 -0.961979 0.273124 126.356 277.135)" fill="white"/>
  <ellipse rx="1.1626" ry="1.10576" transform="matrix(0.24516 0.969483 -0.961979 0.273124 229.58 273.033)" fill="white"/>
  <path d="M116.427 230.213L116.031 229.077L114.959 228.657L116.031 228.237L116.427 227.101L116.824 228.237L117.896 228.657L116.824 229.077L116.427 230.213Z" fill="#FFF7B0"/>
  <path d="M114.225 268.642L113.828 267.507L112.757 267.086L113.828 266.666L114.225 265.531L114.621 266.666L115.693 267.086L114.621 267.507L114.225 268.642Z" fill="#FFF7B0"/>
  <path d="M134.855 275.488L134.161 273.5L132.285 272.765L134.161 272.03L134.855 270.042L135.549 272.03L137.424 272.765L135.549 273.5L134.855 275.488Z" fill="#FFF7B0"/>
  <path d="M239.283 227.646L238.589 225.659L236.713 224.923L238.589 224.188L239.283 222.201L239.977 224.188L241.852 224.923L239.977 225.659L239.283 227.646Z" fill="#FFF7B0"/>
  <path d="M129.716 253.395L129.022 251.407L127.146 250.672L129.022 249.937L129.716 247.949L130.41 249.937L132.285 250.672L130.41 251.407L129.716 253.395Z" fill="#FFF7B0"/>
  <path d="M229.224 255.651L228.828 254.516L227.756 254.096L228.828 253.675L229.224 252.54L229.621 253.675L230.693 254.096L229.621 254.516L229.224 255.651Z" fill="#FFF7B0"/>
  </g>
  </g>
  </g>
  <mask id="mask2_680_65597" style="mask-type:alpha" maskUnits="userSpaceOnUse" x="148" y="48" width="54" height="54">
  <path d="M148.568 48.7631H201.433V94.336C201.433 94.336 195.508 101.445 175 101.445C154.492 101.445 148.568 94.336 148.568 94.336V48.7631Z" fill="url(#paint5_radial_680_65597)"/>
  </mask>
  <g mask="url(#mask2_680_65597)">
  <rect x="260.789" y="177.126" width="147.652" height="147.652" transform="rotate(-180 260.789 177.126)" fill="url(#paint6_linear_680_65597)"/>
  <g style="mix-blend-mode:overlay" filter="url(#filter5_f_680_65597)">
  <ellipse cx="251.379" cy="67.7797" rx="241.928" ry="298.276" transform="rotate(0.126655 251.379 67.7797)" fill="url(#paint7_radial_680_65597)"/>
  </g>
  <g opacity="0.5">
  <g style="mix-blend-mode:overlay" opacity="0.5">
  <path d="M118.353 91.6034C95.6491 76.223 150.098 48.101 168.742 46.2534H107.268C88.7248 48.269 83.4171 57.5069 83.0812 61.874V98.6578C88.2881 105.712 98.8822 119.643 131.958 128.387C175.797 139.977 228.666 117.462 210.565 91.6034C196.456 71.4478 149.594 112.767 118.353 91.6034Z" fill="white"/>
  </g>
  <g style="mix-blend-mode:overlay" opacity="0.5">
  <path fill-rule="evenodd" clip-rule="evenodd" d="M189.906 51.7961C175.125 54.9874 147.982 62.8817 157.657 68.9283C162.083 71.695 171.371 71.6936 182.282 71.6919C201.18 71.6891 224.948 71.6855 236.767 86.0605C255.896 109.326 240.798 146.023 194.441 160.636C193.794 160.84 193.144 161.044 192.491 161.25C146.264 175.816 82.6409 195.862 119.865 215.056C131.371 220.989 144.16 216.659 157.384 212.181C181.226 204.109 206.486 195.556 228.201 245.793H268.512C239.791 226.645 242.46 189.366 260.954 180.288C282.082 169.916 279.586 149.685 277.802 135.222C277.246 130.714 276.759 126.766 277.078 123.852V51.7961H189.906ZM228.201 165.675C221.348 176.559 196.456 182.639 184.867 184.319C175.293 195.908 198.472 190.869 201.999 187.846C205.526 184.823 212.581 191.877 214.596 201.451C216.612 211.025 233.744 209.513 232.736 201.451C231.728 193.389 231.728 184.319 243.318 175.249C254.907 166.179 236.767 152.07 228.201 165.675Z" fill="white"/>
  </g>
  </g>
  <g opacity="0.6">
  <circle cx="154.039" cy="54.7346" r="1.03294" fill="white"/>
  <circle cx="157.165" cy="97.3172" r="1.03294" transform="rotate(75 157.165 97.3172)" fill="white"/>
  <circle cx="162.639" cy="83.1605" r="1.03294" transform="rotate(75 162.639 83.1605)" fill="white"/>
  <circle cx="200.585" cy="76.8428" r="1.03294" transform="rotate(75 200.585 76.8428)" fill="white"/>
  <circle cx="173.154" cy="49.0683" r="1.03294" transform="rotate(75 173.154 49.0683)" fill="white"/>
  <circle cx="170.317" cy="65.0849" r="1.03294" transform="rotate(75 170.317 65.0849)" fill="white"/>
  <circle cx="187.093" cy="65.3396" r="1.03294" fill="white"/>
  <circle cx="190.536" cy="90.4056" r="1.03294" fill="white"/>
  <path d="M175.61 94.7587L175.238 93.7534L174.233 93.3814L175.238 93.0094L175.61 92.0041L175.982 93.0094L176.988 93.3814L175.982 93.7534L175.61 94.7587Z" fill="#FFF7B0"/>
  <path d="M177.674 79.8809L177.023 78.1216L175.264 77.4707L177.023 76.8197L177.674 75.0605L178.325 76.8197L180.084 77.4707L178.325 78.1216L177.674 79.8809Z" fill="#FFF7B0"/>
  </g>
  </g>
  <ellipse cx="275.03" cy="84.3021" rx="20.0253" ry="3.1901" transform="rotate(9.26455 275.03 84.3021)" fill="white" fill-opacity="0.45"/>
  <mask id="mask3_680_65597" style="mask-type:alpha" maskUnits="userSpaceOnUse" x="143" y="39" width="64" height="10">
  <rect x="143.554" y="39.6484" width="62.8906" height="9.11458" rx="2.27865" fill="#C4C4C4"/>
  </mask>
  <g mask="url(#mask3_680_65597)">
  <g filter="url(#filter6_f_680_65597)">
  <rect x="308.587" y="117.426" width="166.797" height="166.797" transform="rotate(-180 308.587 117.426)" fill="url(#paint8_linear_680_65597)"/>
  </g>
  <g style="mix-blend-mode:overlay" filter="url(#filter7_f_680_65597)">
  <ellipse cx="297.957" cy="-6.09798" rx="273.297" ry="336.951" transform="rotate(0.126655 297.957 -6.09798)" fill="url(#paint9_radial_680_65597)"/>
  </g>
  <g opacity="0.5">
  <g style="mix-blend-mode:overlay" opacity="0.5">
  <path fill-rule="evenodd" clip-rule="evenodd" d="M256.312 -87.9562C239.615 -84.3511 208.953 -75.4333 219.882 -68.6026C224.882 -65.4772 235.374 -65.4788 247.7 -65.4806C269.048 -65.4839 295.898 -65.4879 309.25 -49.249C330.859 -22.9671 313.804 18.4887 261.435 34.9961C260.705 35.2262 259.971 35.4576 259.233 35.6902C207.012 52.1441 135.139 74.7898 177.19 96.4723C190.188 103.174 204.634 98.2828 219.574 93.2245C246.507 84.1054 275.042 74.4441 299.573 131.195H345.111C312.665 109.564 315.681 67.4518 336.573 57.1959C360.44 45.4792 357.621 22.6249 355.605 6.28712C354.977 1.19419 354.427 -3.26551 354.788 -6.55719V-87.9562H256.312ZM299.573 40.6884C291.832 52.9836 263.712 59.8522 250.62 61.7497C239.804 74.8418 265.989 69.1496 269.973 65.7342C273.958 62.3189 281.927 70.288 284.204 81.1033C286.481 91.9185 305.834 90.2108 304.696 81.1033C303.558 71.9957 303.558 61.7497 316.65 51.5036C329.742 41.2576 309.25 25.3193 299.573 40.6884Z" fill="white"/>
  </g>
  <g style="mix-blend-mode:overlay" opacity="0.5">
  <path d="M181.744 20.7656C205.651 20.7656 204.513 40.1192 181.744 44.1038C159.549 47.9879 137.895 54.0356 137.344 65.9377V66.8728C137.33 66.5571 137.33 66.2454 137.344 65.9377V7.66363C146.531 12.8601 164.624 20.7656 181.744 20.7656Z" fill="white"/>
  </g>
  </g>
  <g opacity="0.6">
  <path d="M160.008 46.7649L159.273 44.7776L157.285 44.0422L159.273 43.3068L160.008 41.3195L160.743 43.3068L162.731 44.0422L160.743 44.7776L160.008 46.7649Z" fill="#FFF7B0"/>
  </g>
  </g>
  <path d="M243.548 194.643C239.376 194.643 235.177 194.643 231.093 194.643M243.548 194.643H231.093M243.548 194.643C247.719 194.643 249.048 194.933 249.852 195.378C250.151 201.466 251.03 207.448 252.474 211.458C256.575 222.852 264.323 232.878 258.398 245.182C253.659 255.026 243.055 261.589 236.068 263.867M231.093 194.643C227.008 194.643 223.042 200.202 223.459 203.711L219.206 182.713C221.16 183.356 222.699 184.643 227.705 184.643M227.705 184.643C232.711 184.643 241.089 184.643 244.652 184.643M227.705 184.643H244.652M244.652 184.643C245.882 184.56 248.355 184.173 250.065 183.256C250.324 180.527 250.737 178.104 251.305 176.234M318.099 119.71L317.534 123.348C317.421 124.08 316.844 124.645 316.105 124.7C313.541 124.893 307.517 125.119 297.807 123.692C287.929 122.239 280.874 119.745 278.292 118.717M238.118 285.514C249.512 281.109 271.095 270.703 277.083 257.487C284.93 240.169 280.273 228.776 272.07 208.268C266.506 194.357 267.756 184.378 269.932 179.442M246.989 134.224L246.428 137.844C246.313 138.584 246.244 139.305 246.94 139.582C247.769 139.912 249.03 140.384 250.686 140.922M286.467 140.494L285.902 144.131C285.789 144.863 285.668 145.428 284.93 145.483C284.002 145.553 282.562 145.627 280.643 145.626M269.932 179.442C272.032 179.411 273.194 179.171 273.798 178.977C274.186 178.852 274.415 178.504 274.491 178.103L280.643 145.626M269.932 179.442C267.934 179.471 265.087 179.31 261.065 178.74C256.489 178.09 253.382 177.136 251.305 176.234M251.305 176.234C249.411 175.411 248.376 174.63 247.866 174.162C247.572 173.892 247.466 173.496 247.505 173.1L250.686 140.922M280.643 145.626C277.255 145.624 272.373 145.386 266.175 144.475C259.468 143.489 254.191 142.059 250.686 140.922M254.953 133.376C254.623 133.604 254.334 133.682 254.111 133.623C260.48 136.64 271.877 138.651 280.09 137.813C279.475 137.366 277.825 130.941 277.744 126.918C277.672 123.396 278.094 118.246 279.31 113.619C279.409 113.245 279.512 112.875 279.621 112.509M254.953 133.376C256.192 132.523 258.014 129.561 259.139 123.803C260.563 116.511 261.392 110.359 260.221 104.207C259.488 100.352 249.512 83.6987 253.157 78.4579C256.803 73.2171 296.849 79.9409 298.36 85.3517C299.87 90.7626 286.58 100.075 282.222 106.612C281.135 108.242 280.28 110.292 279.621 112.509M254.953 133.376C250.192 133.059 247.058 133.268 246.929 134.057C246.709 135.408 255.379 137.946 266.294 139.727C277.21 141.507 286.237 141.856 286.457 140.505C286.577 139.769 284.059 138.681 279.975 137.554M279.621 112.509C282.29 112.032 289.881 112.61 298.724 114.052C309.64 115.833 318.328 118.257 318.131 119.468C317.933 120.678 308.925 120.216 298.009 118.436C288.882 116.947 281.311 115.008 279.192 113.704M294.938 87.5985C294.654 89.3374 285.576 89.3036 274.66 87.5231C263.745 85.7426 255.126 82.8895 255.41 81.1507C255.693 79.4118 264.772 79.4456 275.687 81.2261C286.603 83.0066 295.222 85.8597 294.938 87.5985Z" stroke="black" stroke-width="0.911458"/>
  <path d="M225.13 211.458C225.13 211.458 206.617 225.13 175.228 225.13C143.839 225.13 125.326 211.458 125.326 211.458" stroke="black" stroke-width="0.911458"/>
  <path d="M201.433 94.3359C201.433 94.3359 192.774 101.172 175 101.172C157.227 101.172 148.568 94.3359 148.568 94.3359" stroke="black" stroke-width="0.911458"/>
  <g filter="url(#filter8_b_680_65597)">
  <mask id="path-109-inside-1_680_65597" fill="white">
  <path fill-rule="evenodd" clip-rule="evenodd" d="M147.107 49.1761C145.346 49.1761 143.917 47.7479 143.917 45.986V42.3827C143.917 40.6209 145.346 39.1926 147.107 39.1926H203.712C205.474 39.1926 206.902 40.6209 206.902 42.3827V45.986C206.902 47.7479 205.474 49.1761 203.712 49.1761H203.084C202.424 49.1761 201.888 49.7115 201.888 50.372V95.9707C201.888 96.0496 201.896 96.1283 201.912 96.2057L213.06 151.838L225.178 210.112C225.184 210.142 225.221 210.155 225.244 210.135V210.135C225.268 210.115 225.304 210.127 225.31 210.157L236.173 259.873L237.619 267.136C243.059 290.734 229.704 314.909 206.761 314.909H176.334H144.151C121.212 314.909 108.313 290.741 113.746 267.145L115.192 259.873L125.13 210.159C125.137 210.129 125.173 210.116 125.197 210.136V210.136C125.221 210.156 125.257 210.143 125.263 210.113L148.819 92.5625C148.827 92.5209 148.838 92.4802 148.85 92.4404C148.925 92.1992 149.024 91.9583 149.024 91.7056V50.372C149.024 49.7115 148.488 49.1761 147.828 49.1761H147.107Z"/>
  </mask>
  <path d="M213.06 151.838L212.166 152.017L212.167 152.023L213.06 151.838ZM236.173 259.873L237.067 259.695L237.066 259.687L237.064 259.679L236.173 259.873ZM237.619 267.136L236.725 267.314L236.728 267.327L236.731 267.341L237.619 267.136ZM113.746 267.145L114.634 267.35L114.637 267.337L114.64 267.323L113.746 267.145ZM115.192 259.873L114.298 259.695L114.298 259.696L115.192 259.873ZM148.819 92.5625L149.713 92.7416L149.713 92.7416L148.819 92.5625ZM125.263 210.113L124.369 209.934L125.263 210.113ZM201.912 96.2057L202.805 96.0266L201.912 96.2057ZM125.13 210.159L124.237 209.98L125.13 210.159ZM148.85 92.4404L147.98 92.1688L148.85 92.4404ZM225.31 210.157L224.42 210.352L225.31 210.157ZM225.178 210.112L224.286 210.297L225.178 210.112ZM143.006 45.986C143.006 48.2512 144.842 50.0876 147.107 50.0876V48.2647C145.849 48.2647 144.829 47.2445 144.829 45.986H143.006ZM143.006 42.3827V45.986H144.829V42.3827H143.006ZM147.107 38.2812C144.842 38.2812 143.006 40.1175 143.006 42.3827H144.829C144.829 41.1243 145.849 40.1041 147.107 40.1041V38.2812ZM203.712 38.2812H147.107V40.1041H203.712V38.2812ZM207.814 42.3827C207.814 40.1175 205.977 38.2812 203.712 38.2812V40.1041C204.97 40.1041 205.991 41.1243 205.991 42.3827H207.814ZM207.814 45.986V42.3827H205.991V45.986H207.814ZM203.712 50.0876C205.977 50.0876 207.814 48.2512 207.814 45.986H205.991C205.991 47.2445 204.97 48.2647 203.712 48.2647V50.0876ZM203.084 50.0876H203.712V48.2647H203.084V50.0876ZM202.8 95.9707V50.372H200.977V95.9707H202.8ZM213.954 151.659L202.805 96.0266L201.018 96.3848L212.166 152.017L213.954 151.659ZM226.071 209.926L213.952 151.652L212.167 152.023L224.286 210.297L226.071 209.926ZM237.064 259.679L226.201 209.963L224.42 210.352L235.283 260.068L237.064 259.679ZM238.513 266.958L237.067 259.695L235.279 260.051L236.725 267.314L238.513 266.958ZM206.761 315.821C218.59 315.821 227.94 309.576 233.61 300.349C239.27 291.138 241.278 278.948 238.507 266.931L236.731 267.341C239.401 278.922 237.45 290.618 232.057 299.395C226.673 308.156 217.874 313.998 206.761 313.998V315.821ZM176.334 315.821H206.761V313.998H176.334V315.821ZM144.151 315.821H176.334V313.998H144.151V315.821ZM112.858 266.941C110.093 278.95 111.983 291.135 117.528 300.346C123.083 309.574 132.321 315.821 144.151 315.821V313.998C133.042 313.998 124.36 308.16 119.09 299.406C113.808 290.633 111.966 278.937 114.634 267.35L112.858 266.941ZM114.298 259.696L112.852 266.968L114.64 267.323L116.086 260.051L114.298 259.696ZM124.237 209.98L114.298 259.695L116.086 260.052L126.024 210.338L124.237 209.98ZM147.925 92.3834L124.369 209.934L126.157 210.292L149.713 92.7416L147.925 92.3834ZM147.98 92.1688C147.958 92.2389 147.94 92.3105 147.925 92.3834L149.713 92.7416C149.715 92.7313 149.717 92.7215 149.72 92.712L147.98 92.1688ZM148.112 50.372V91.7056H149.935V50.372H148.112ZM147.107 50.0876H147.828V48.2647H147.107V50.0876ZM149.935 50.372C149.935 49.2081 148.992 48.2647 147.828 48.2647V50.0876C147.985 50.0876 148.112 50.2149 148.112 50.372H149.935ZM124.61 210.833C125.164 211.299 126.015 211.001 126.157 210.292L124.369 209.934C124.499 209.285 125.277 209.012 125.784 209.438L124.61 210.833ZM200.977 95.9707C200.977 96.1098 200.991 96.2485 201.018 96.3848L202.805 96.0266C202.802 96.0082 202.8 95.9895 202.8 95.9707H200.977ZM126.024 210.338C125.894 210.987 125.116 211.259 124.61 210.833L125.784 209.438C125.23 208.972 124.379 209.27 124.237 209.98L126.024 210.338ZM149.72 92.712C149.761 92.5807 149.935 92.1399 149.935 91.7056H148.112C148.112 91.7158 148.11 91.7499 148.087 91.8322C148.076 91.8729 148.062 91.9177 148.043 91.9753C148.026 92.027 148.001 92.1002 147.98 92.1688L149.72 92.712ZM225.831 210.832C225.33 211.254 224.559 210.992 224.42 210.352L226.201 209.963C226.048 209.263 225.206 208.976 224.657 209.437L225.831 210.832ZM224.286 210.297C224.433 211.003 225.279 211.296 225.831 210.832L224.657 209.437C225.162 209.013 225.936 209.281 226.071 209.926L224.286 210.297ZM203.084 48.2647C201.92 48.2647 200.977 49.2081 200.977 50.372H202.8C202.8 50.2149 202.927 50.0876 203.084 50.0876V48.2647Z" fill="black" mask="url(#path-109-inside-1_680_65597)"/>
  </g>
  <defs>
  <filter id="filter0_f_680_65597" x="182.964" y="62.8102" width="194.275" height="295.93" filterUnits="userSpaceOnUse" color-interpolation-filters="sRGB">
  <feFlood flood-opacity="0" result="BackgroundImageFix"/>
  <feBlend mode="normal" in="SourceGraphic" in2="BackgroundImageFix" result="shape"/>
  <feGaussianBlur stdDeviation="0.903605" result="effect1_foregroundBlur_680_65597"/>
  </filter>
  <filter id="filter1_f_680_65597" x="117.738" y="-85.2345" width="550.922" height="677.13" filterUnits="userSpaceOnUse" color-interpolation-filters="sRGB">
  <feFlood flood-opacity="0" result="BackgroundImageFix"/>
  <feBlend mode="normal" in="SourceGraphic" in2="BackgroundImageFix" result="shape"/>
  <feGaussianBlur stdDeviation="2.25901" result="effect1_foregroundBlur_680_65597"/>
  </filter>
  <filter id="filter2_d_680_65597" x="110.059" y="211.038" width="132.16" height="109.112" filterUnits="userSpaceOnUse" color-interpolation-filters="sRGB">
  <feFlood flood-opacity="0" result="BackgroundImageFix"/>
  <feColorMatrix in="SourceAlpha" type="matrix" values="0 0 0 0 0 0 0 0 0 0 0 0 0 0 0 0 0 0 127 0" result="hardAlpha"/>
  <feOffset dx="0.455729" dy="2.73438"/>
  <feGaussianBlur stdDeviation="1.36719"/>
  <feComposite in2="hardAlpha" operator="out"/>
  <feColorMatrix type="matrix" values="0 0 0 0 0 0 0 0 0 0 0 0 0 0 0 0 0 0 0.25 0"/>
  <feBlend mode="normal" in2="BackgroundImageFix" result="effect1_dropShadow_680_65597"/>
  <feBlend mode="normal" in="SourceGraphic" in2="effect1_dropShadow_680_65597" result="shape"/>
  </filter>
  <filter id="filter3_f_680_65597" x="105.746" y="200.977" width="170.443" height="170.443" filterUnits="userSpaceOnUse" color-interpolation-filters="sRGB">
  <feFlood flood-opacity="0" result="BackgroundImageFix"/>
  <feBlend mode="normal" in="SourceGraphic" in2="BackgroundImageFix" result="shape"/>
  <feGaussianBlur stdDeviation="0.911458" result="effect1_foregroundBlur_680_65597"/>
  </filter>
  <filter id="filter4_f_680_65597" x="-14.1193" y="-95.4355" width="555.71" height="683.015" filterUnits="userSpaceOnUse" color-interpolation-filters="sRGB">
  <feFlood flood-opacity="0" result="BackgroundImageFix"/>
  <feBlend mode="normal" in="SourceGraphic" in2="BackgroundImageFix" result="shape"/>
  <feGaussianBlur stdDeviation="2.27865" result="effect1_foregroundBlur_680_65597"/>
  </filter>
  <filter id="filter5_f_680_65597" x="5.41592" y="-234.53" width="491.926" height="604.619" filterUnits="userSpaceOnUse" color-interpolation-filters="sRGB">
  <feFlood flood-opacity="0" result="BackgroundImageFix"/>
  <feBlend mode="normal" in="SourceGraphic" in2="BackgroundImageFix" result="shape"/>
  <feGaussianBlur stdDeviation="2.0171" result="effect1_foregroundBlur_680_65597"/>
  </filter>
  <filter id="filter6_f_680_65597" x="139.968" y="-51.1935" width="170.443" height="170.443" filterUnits="userSpaceOnUse" color-interpolation-filters="sRGB">
  <feFlood flood-opacity="0" result="BackgroundImageFix"/>
  <feBlend mode="normal" in="SourceGraphic" in2="BackgroundImageFix" result="shape"/>
  <feGaussianBlur stdDeviation="0.911458" result="effect1_foregroundBlur_680_65597"/>
  </filter>
  <filter id="filter7_f_680_65597" x="20.102" y="-347.606" width="555.71" height="683.015" filterUnits="userSpaceOnUse" color-interpolation-filters="sRGB">
  <feFlood flood-opacity="0" result="BackgroundImageFix"/>
  <feBlend mode="normal" in="SourceGraphic" in2="BackgroundImageFix" result="shape"/>
  <feGaussianBlur stdDeviation="2.27865" result="effect1_foregroundBlur_680_65597"/>
  </filter>
  <filter id="filter8_b_680_65597" x="98.1596" y="24.8423" width="155.02" height="304.417" filterUnits="userSpaceOnUse" color-interpolation-filters="sRGB">
  <feFlood flood-opacity="0" result="BackgroundImageFix"/>
  <feGaussianBlur in="BackgroundImage" stdDeviation="7.17515"/>
  <feComposite in2="SourceAlpha" operator="in" result="effect1_backgroundBlur_680_65597"/>
  <feBlend mode="normal" in="SourceGraphic" in2="effect1_backgroundBlur_680_65597" result="shape"/>
  </filter>
  <linearGradient id="paint0_linear_680_65597" x1="410.855" y1="533.441" x2="558.799" y2="533.441" gradientUnits="userSpaceOnUse">
  <stop stop-color="#551D8D"/>
  <stop offset="0.464789" stop-color="#9B48EF"/>
  <stop offset="1" stop-color="#551D8D"/>
  </linearGradient>
  <radialGradient id="paint1_radial_680_65597" cx="0" cy="0" r="1" gradientUnits="userSpaceOnUse" gradientTransform="translate(393.199 302.662) rotate(92.5586) scale(217.47 176.571)">
  <stop offset="0.479167" stop-color="white" stop-opacity="0.75"/>
  <stop offset="1" stop-color="white" stop-opacity="0"/>
  </radialGradient>
  <radialGradient id="paint2_radial_680_65597" cx="0" cy="0" r="1" gradientUnits="userSpaceOnUse" gradientTransform="translate(231.779 200.521) rotate(136.943) scale(153.528 198.077)">
  <stop stop-color="#FF0000"/>
  <stop offset="0.530354" stop-color="#FFE925"/>
  <stop offset="1" stop-color="#289B04"/>
  </radialGradient>
  <linearGradient id="paint3_linear_680_65597" x1="305.356" y1="470.312" x2="434.783" y2="470.312" gradientUnits="userSpaceOnUse">
  <stop stop-color="#551D8D"/>
  <stop offset="0.464789" stop-color="#9B48EF"/>
  <stop offset="1" stop-color="#551D8D"/>
  </linearGradient>
  <radialGradient id="paint4_radial_680_65597" cx="0" cy="0" r="1" gradientUnits="userSpaceOnUse" gradientTransform="translate(263.736 295.833) rotate(92.5586) scale(219.36 178.105)">
  <stop offset="0.479167" stop-color="white" stop-opacity="0.75"/>
  <stop offset="1" stop-color="white" stop-opacity="0"/>
  </radialGradient>
  <radialGradient id="paint5_radial_680_65597" cx="0" cy="0" r="1" gradientUnits="userSpaceOnUse" gradientTransform="translate(198.491 43.4395) rotate(132.639) scale(69.3519 89.3771)">
  <stop stop-color="#FF0000"/>
  <stop offset="0.530354" stop-color="#FFE925"/>
  <stop offset="1" stop-color="#6DF244"/>
  </radialGradient>
  <linearGradient id="paint6_linear_680_65597" x1="288.221" y1="266.282" x2="402.793" y2="266.282" gradientUnits="userSpaceOnUse">
  <stop stop-color="#551D8D"/>
  <stop offset="0.464789" stop-color="#9B48EF"/>
  <stop offset="1" stop-color="#551D8D"/>
  </linearGradient>
  <radialGradient id="paint7_radial_680_65597" cx="0" cy="0" r="1" gradientUnits="userSpaceOnUse" gradientTransform="translate(251.379 111.829) rotate(92.5586) scale(194.182 157.662)">
  <stop offset="0.479167" stop-color="white" stop-opacity="0.75"/>
  <stop offset="1" stop-color="white" stop-opacity="0"/>
  </radialGradient>
  <linearGradient id="paint8_linear_680_65597" x1="339.577" y1="218.142" x2="469.004" y2="218.142" gradientUnits="userSpaceOnUse">
  <stop stop-color="#551D8D"/>
  <stop offset="0.464789" stop-color="#9B48EF"/>
  <stop offset="1" stop-color="#551D8D"/>
  </linearGradient>
  <radialGradient id="paint9_radial_680_65597" cx="0" cy="0" r="1" gradientUnits="userSpaceOnUse" gradientTransform="translate(297.957 43.6626) rotate(92.5586) scale(219.36 178.105)">
  <stop offset="0.479167" stop-color="white" stop-opacity="0.75"/>
  <stop offset="1" stop-color="white" stop-opacity="0"/>
  </radialGradient>
  </defs>

    
    <path d="M148.647 94.3351L124.888 210.017C124.817 210.363 124.947 210.714 125.237 210.915C128.356 213.082 146.958 225.128 174.998 225.128C203.038 225.128 221.64 213.082 224.76 210.915C225.05 210.714 225.18 210.363 225.109 210.017L201.35 94.3351C201.316 94.4021 201.271 94.4644 201.216 94.5198C199.881 95.8685 193.226 101.484 174.998 101.484C156.771 101.484 150.116 95.8685 148.78 94.5198C148.725 94.4644 148.681 94.4021 148.647 94.3351Z" fill="#FFFFFF" fill-opacity="0.75"/>;
    
    
    
    <!-- Color -->
    <path d="M214.052 156.619L218.831 179.91C216.932 182.156 214.118 184.13 210.037 185.164C197.278 188.398 184.115 181.122 184.115 170.207C184.115 164.75 187.922 153.876 203.151 154.038C207.743 154.087 211.309 155.092 214.052 156.619Z" fill="url(#paint0_radial_702_67019)"/>

    <defs>
      <!-- Color -->
      <radialGradient id="paint0_radial_702_67019" cx="0" cy="0" r="1" gradientUnits="userSpaceOnUse" gradientTransform="translate(192.248 160.957) rotate(48.2936) scale(18.4215 20.2932)">
        <stop offset="0.203125" style="stop-color: #F85449;"/>
        <stop offset="0.890625" style="stop-color: #C53434;"/>
      </radialGradient>
    </defs>
  
    
    <!-- Color -->
    <path d="M223.109 211.89C217.522 215.445 199.996 225.13 174.887 225.13C146.901 225.13 128.335 213.098 125.221 210.933C125.032 210.801 124.911 210.606 124.87 210.39C128.808 199.004 144.115 175.86 164.064 181.919C173.943 184.919 180.859 192.452 187.364 199.536C197.438 210.508 206.525 220.404 224.106 210.722C223.783 211.11 223.451 211.499 223.109 211.89Z" fill="url(#paint0_radial_702_67020)"/>

    <!-- Filter -->
    <mask id="mask0_702_67020" style="mask-type:alpha" maskUnits="userSpaceOnUse" x="124" y="180" width="101" height="46">
      <path d="M223.109 211.89C217.522 215.445 199.996 225.13 174.887 225.13C146.901 225.13 128.335 213.098 125.221 210.933C125.032 210.802 124.911 210.606 124.87 210.39C128.808 199.004 144.115 175.86 164.064 181.919C173.943 184.92 180.859 192.452 187.364 199.536C197.438 210.508 206.525 220.405 224.106 210.722C223.783 211.11 223.451 211.499 223.109 211.89Z" fill="url(#paint1_radial_702_67020)"/>
    </mask>
    <g mask="url(#mask0_702_67020)">
      <g filter="url(#filter0_f_702_67020)">
        <mask id="mask1_702_67020" style="mask-type:alpha" maskUnits="userSpaceOnUse" x="124" y="94" width="102" height="132">
          <path d="M148.862 95.0639C148.949 94.6401 149.322 94.3359 149.754 94.3359H200.246C200.678 94.3359 201.051 94.6401 201.138 95.0639L224.993 211.159C225.074 211.555 224.888 211.955 224.527 212.137C220.624 214.109 198.375 224.817 175 225.128C151.578 225.438 129.287 214.178 125.45 212.141C125.099 211.954 124.924 211.562 125.004 211.173L148.862 95.0639Z" fill="#577096" fill-opacity="0.75"/>
        </mask>
        <g mask="url(#mask1_702_67020)">
          <g filter="url(#filter1_f_702_67020)">
            <path d="M155.407 125.301C156.469 105.018 134.471 86.183 128.929 66.9987C133.388 65.1975 144.05 70.7899 152.675 76.125C163.456 82.7938 162.879 109.124 164.625 125.784C166.022 139.112 148.453 223.401 144.015 241.482L131.716 240.837C140.242 214.68 154.587 140.955 155.407 125.301Z" fill="url(#paint2_linear_702_67020)" fill-opacity="0.6"/>
          </g>
        </g>
      </g>
    </g>

    <defs>
      <!-- Color -->
      <radialGradient id="paint0_radial_702_67020" cx="0" cy="0" r="1" gradientUnits="userSpaceOnUse" gradientTransform="translate(148.118 190.514) rotate(28.5454) scale(39.8814 37.1287)">
        <stop offset="0.203125" style="stop-color: #F85449;"/>
        <stop offset="0.890625" style="stop-color: #C53434;"/>
      </radialGradient>

      <!-- Filter -->
      <filter id="filter0_f_702_67020" x="122.591" y="92.0573" width="104.818" height="135.355" filterUnits="userSpaceOnUse" color-interpolation-filters="sRGB">
        <feFlood flood-opacity="0" result="BackgroundImageFix"/>
        <feBlend mode="normal" in="SourceGraphic" in2="BackgroundImageFix" result="shape"/>
        <feGaussianBlur stdDeviation="1.13932" result="effect1_foregroundBlur_702_67020"/>
      </filter>
      <filter id="filter1_f_702_67020" x="128.017" y="65.7428" width="37.5979" height="176.65" filterUnits="userSpaceOnUse" color-interpolation-filters="sRGB">
        <feFlood flood-opacity="0" result="BackgroundImageFix"/>
        <feBlend mode="normal" in="SourceGraphic" in2="BackgroundImageFix" result="shape"/>
        <feGaussianBlur stdDeviation="0.455729" result="effect1_foregroundBlur_702_67020"/>
      </filter>
      <radialGradient id="paint1_radial_702_67020" cx="0" cy="0" r="1" gradientUnits="userSpaceOnUse" gradientTransform="translate(146.218 191.259) rotate(27.3324) scale(58.602 42.3474)">
        <stop offset="0.302083" stop-color="#FFB800"/>
        <stop offset="1" stop-color="#FF7800"/>
      </radialGradient>
      <linearGradient id="paint2_linear_702_67020" x1="160.729" y1="220.939" x2="201.954" y2="178" gradientUnits="userSpaceOnUse">
        <stop stop-color="#F2F2F2"/>
        <stop offset="0.0001" stop-color="#F2F2F2"/>
        <stop offset="0.0520833" stop-color="#F2F2F2" stop-opacity="0.948011"/>
        <stop offset="1" stop-color="#F2F2F2" stop-opacity="0"/>
      </linearGradient>
    </defs>
  
  
    </svg>
  