
    <svg width="768" height="768" viewBox="0 0 768 768" fill="none" xmlns="http://www.w3.org/2000/svg">
    
  <g clip-path="url(#clip0_28_300)">
  <g filter="url(#filter0_f_28_300)">
  <rect x="768.175" y="768.098" width="768" height="768" transform="rotate(-180 768.175 768.098)" fill="#0E103E"/>
  </g>
  <g style="mix-blend-mode:overlay" filter="url(#filter1_f_28_300)">
  <ellipse rx="593.439" ry="203.604" transform="matrix(0.999998 0.00221055 0.00221055 -0.999998 387.803 801.321)" fill="url(#paint0_radial_28_300)"/>
  </g>
  <g style="mix-blend-mode:overlay" filter="url(#filter2_f_28_300)">
  <ellipse cx="382.674" cy="291.953" rx="599.693" ry="739.366" transform="rotate(0.126655 382.674 291.953)" fill="url(#paint1_radial_28_300)"/>
  </g>
  <g opacity="0.6">
  <circle cx="46.8207" cy="172.561" r="2.56046" fill="white"/>
  <circle cx="470.283" cy="544.674" r="2.56046" transform="rotate(165 470.283 544.674)" fill="white"/>
  <circle cx="714.345" cy="248.295" r="2.56046" transform="rotate(75 714.345 248.295)" fill="white"/>
  <circle cx="746.136" cy="274.136" r="2.56046" transform="rotate(75 746.136 274.136)" fill="white"/>
  <circle cx="708.136" cy="181.136" r="2.56046" transform="rotate(75 708.136 181.136)" fill="white"/>
  <circle cx="344.674" cy="321.966" r="2.56046" transform="rotate(75 344.674 321.966)" fill="white"/>
  <circle cx="584.674" cy="312.966" r="2.56046" transform="rotate(75 584.674 312.966)" fill="white"/>
  <circle cx="19.1358" cy="66.1359" r="2.56046" transform="rotate(75 19.1358 66.1359)" fill="white"/>
  <circle cx="141.388" cy="259.616" r="2.56046" fill="white"/>
  <circle cx="356.408" cy="485.061" r="2.56046" transform="rotate(165 356.408 485.061)" fill="white"/>
  <circle cx="654.731" cy="362.171" r="2.56046" transform="rotate(75 654.731 362.171)" fill="white"/>
  <circle cx="285.06" cy="435.842" r="2.56046" transform="rotate(75 285.06 435.842)" fill="white"/>
  <circle cx="525.06" cy="426.842" r="2.56046" transform="rotate(75 525.06 426.842)" fill="white"/>
  <circle cx="89.0601" cy="205.842" r="2.56046" transform="rotate(75 89.0601 205.842)" fill="white"/>
  <circle cx="128.073" cy="174.95" r="2.56046" fill="white"/>
  <circle cx="391.181" cy="563.395" r="2.56046" transform="rotate(165 391.181 563.395)" fill="white"/>
  <circle cx="733.065" cy="327.397" r="2.56046" transform="rotate(75 733.065 327.397)" fill="white"/>
  <circle cx="363.395" cy="401.068" r="2.56046" transform="rotate(75 363.395 401.068)" fill="white"/>
  <circle cx="603.394" cy="392.068" r="2.56046" transform="rotate(75 603.394 392.068)" fill="white"/>
  <circle cx="645.136" cy="428.136" r="2.56046" transform="rotate(75 645.136 428.136)" fill="white"/>
  <circle cx="147.136" cy="223.136" r="2.56046" transform="rotate(75 147.136 223.136)" fill="white"/>
  <circle cx="37.9443" cy="372.618" r="2.56046" fill="white"/>
  <circle cx="427.079" cy="349.136" r="2.56046" transform="rotate(165 427.079 349.136)" fill="white"/>
  <circle cx="518.807" cy="291.5" r="2.56046" transform="rotate(75 518.807 291.5)" fill="white"/>
  <circle cx="149.136" cy="365.17" r="2.56046" transform="rotate(75 149.136 365.17)" fill="white"/>
  <circle cx="389.136" cy="356.17" r="2.56046" transform="rotate(75 389.136 356.17)" fill="white"/>
  <circle cx="7.56046" cy="350.428" r="2.56046" fill="white"/>
  <circle cx="462.171" cy="362.707" r="2.56046" transform="rotate(165 462.171 362.707)" fill="white"/>
  <circle cx="532.377" cy="256.408" r="2.56046" transform="rotate(75 532.377 256.408)" fill="white"/>
  <circle cx="162.706" cy="330.078" r="2.56046" transform="rotate(75 162.706 330.078)" fill="white"/>
  <circle cx="402.706" cy="321.078" r="2.56046" transform="rotate(75 402.706 321.078)" fill="white"/>
  <circle cx="114.758" cy="383.543" r="2.56046" fill="white"/>
  <circle cx="130.56" cy="421.561" r="2.56046" fill="white"/>
  <circle cx="350.055" cy="358.465" r="2.56046" transform="rotate(165 350.055 358.465)" fill="white"/>
  <circle cx="612.136" cy="666.136" r="2.56046" transform="rotate(75 612.136 666.136)" fill="white"/>
  <circle cx="158.464" cy="442.194" r="2.56046" transform="rotate(75 158.464 442.194)" fill="white"/>
  <circle cx="398.464" cy="433.194" r="2.56046" transform="rotate(75 398.464 433.194)" fill="white"/>
  <circle cx="20.1918" cy="199.189" r="2.56046" fill="white"/>
  <circle cx="489.113" cy="512.061" r="2.56046" transform="rotate(165 489.113 512.061)" fill="white"/>
  <circle cx="681.731" cy="229.465" r="2.56046" transform="rotate(75 681.731 229.465)" fill="white"/>
  <circle cx="470.136" cy="673.136" r="2.56046" transform="rotate(75 470.136 673.136)" fill="white"/>
  <circle cx="552.06" cy="294.136" r="2.56046" transform="rotate(75 552.06 294.136)" fill="white"/>
  <circle cx="22.1358" cy="27.1359" r="2.56046" transform="rotate(75 22.1358 27.1359)" fill="white"/>
  <circle cx="702.56" cy="507.561" r="2.56046" fill="white"/>
  <circle cx="477.831" cy="456.767" r="2.56046" transform="rotate(165 477.831 456.767)" fill="white"/>
  <circle cx="476.136" cy="155.136" r="2.56046" transform="rotate(75 476.136 155.136)" fill="white"/>
  <circle cx="256.766" cy="314.418" r="2.56046" transform="rotate(75 256.766 314.418)" fill="white"/>
  <circle cx="496.766" cy="305.418" r="2.56046" transform="rotate(75 496.766 305.418)" fill="white"/>
  <circle cx="60.7657" cy="84.4181" r="2.56046" transform="rotate(75 60.7657 84.4181)" fill="white"/>
  <circle cx="51.9413" cy="267.468" r="2.56046" fill="white"/>
  <circle cx="440.774" cy="454.326" r="2.56046" transform="rotate(165 440.774 454.326)" fill="white"/>
  <circle cx="623.996" cy="277.805" r="2.56046" transform="rotate(75 623.996 277.805)" fill="white"/>
  <circle cx="30.1358" cy="710.136" r="2.56046" transform="rotate(75 30.1358 710.136)" fill="white"/>
  <circle cx="494.325" cy="342.475" r="2.56046" transform="rotate(75 494.325 342.475)" fill="white"/>
  <circle cx="58.3252" cy="121.475" r="2.56046" transform="rotate(75 58.3252 121.475)" fill="white"/>
  <circle cx="94.5605" cy="134.561" r="2.56046" fill="white"/>
  <circle cx="108.56" cy="59.5605" r="2.56046" fill="white"/>
  <circle cx="152.56" cy="90.5605" r="2.56046" fill="white"/>
  <circle cx="178.56" cy="24.5605" r="2.56046" fill="white"/>
  <circle cx="600.56" cy="183.561" r="2.56046" fill="white"/>
  <circle cx="686.56" cy="78.5605" r="2.56046" fill="white"/>
  <circle cx="556.56" cy="120.561" r="2.56046" fill="white"/>
  <circle cx="546.56" cy="64.5605" r="2.56046" fill="white"/>
  <circle cx="366.56" cy="12.5605" r="2.56046" fill="white"/>
  <circle cx="293.56" cy="19.5605" r="2.56046" fill="white"/>
  <circle cx="298.56" cy="89.5605" r="2.56046" fill="white"/>
  <circle cx="198.56" cy="157.561" r="2.56046" fill="white"/>
  <circle cx="456.56" cy="38.5605" r="2.56046" fill="white"/>
  <circle cx="480.56" cy="103.56" r="2.56046" fill="white"/>
  <circle cx="534.56" cy="197.561" r="2.56046" fill="white"/>
  <circle cx="270.56" cy="157.561" r="2.56046" fill="white"/>
  <circle cx="236.56" cy="211.561" r="2.56046" fill="white"/>
  <circle cx="316.679" cy="584.772" r="2.56046" transform="rotate(165 316.679 584.772)" fill="white"/>
  <circle cx="754.442" cy="401.9" r="2.56046" transform="rotate(75 754.442 401.9)" fill="white"/>
  <circle cx="384.772" cy="475.571" r="2.56046" transform="rotate(75 384.772 475.571)" fill="white"/>
  <circle cx="624.771" cy="466.571" r="2.56046" transform="rotate(75 624.771 466.571)" fill="white"/>
  <circle cx="188.772" cy="245.571" r="2.56046" transform="rotate(75 188.772 245.571)" fill="white"/>
  <circle cx="20.5605" cy="122.561" r="2.56046" fill="white"/>
  <circle cx="276.976" cy="577.739" r="2.56046" transform="rotate(165 276.976 577.739)" fill="white"/>
  <circle cx="747.409" cy="441.602" r="2.56046" transform="rotate(75 747.409 441.602)" fill="white"/>
  <circle cx="251.136" cy="727.136" r="2.56046" transform="rotate(75 251.136 727.136)" fill="white"/>
  <circle cx="617.738" cy="506.273" r="2.56046" transform="rotate(75 617.738 506.273)" fill="white"/>
  <circle cx="676.136" cy="540.136" r="2.56046" transform="rotate(75 676.136 540.136)" fill="white"/>
  <circle cx="614.136" cy="557.136" r="2.56046" transform="rotate(75 614.136 557.136)" fill="white"/>
  <circle cx="526.136" cy="611.136" r="2.56046" transform="rotate(75 526.136 611.136)" fill="white"/>
  <circle cx="434.136" cy="406.136" r="2.56046" transform="rotate(75 434.136 406.136)" fill="white"/>
  <circle cx="318.136" cy="454.136" r="2.56046" transform="rotate(75 318.136 454.136)" fill="white"/>
  <circle cx="320.136" cy="536.136" r="2.56046" transform="rotate(75 320.136 536.136)" fill="white"/>
  <circle cx="206.136" cy="460.136" r="2.56046" transform="rotate(75 206.136 460.136)" fill="white"/>
  <circle cx="204.136" cy="404.136" r="2.56046" transform="rotate(75 204.136 404.136)" fill="white"/>
  <circle cx="181.738" cy="285.273" r="2.56046" transform="rotate(75 181.738 285.273)" fill="white"/>
  <circle cx="223.322" cy="285.904" r="2.56046" fill="white"/>
  <circle cx="270.461" cy="480.875" r="2.56046" transform="rotate(165 270.461 480.875)" fill="white"/>
  <circle cx="716.136" cy="584.136" r="2.56046" transform="rotate(75 716.136 584.136)" fill="white"/>
  <circle cx="688.136" cy="412.136" r="2.56046" transform="rotate(75 688.136 412.136)" fill="white"/>
  <circle cx="706.136" cy="372.136" r="2.56046" transform="rotate(75 706.136 372.136)" fill="white"/>
  <circle cx="626.136" cy="326.136" r="2.56046" transform="rotate(75 626.136 326.136)" fill="white"/>
  <circle cx="722.136" cy="708.136" r="2.56046" transform="rotate(75 722.136 708.136)" fill="white"/>
  <circle cx="561.136" cy="346.136" r="2.56046" transform="rotate(75 561.136 346.136)" fill="white"/>
  <circle cx="741.136" cy="200.136" r="2.56046" transform="rotate(75 741.136 200.136)" fill="white"/>
  <circle cx="749.136" cy="152.136" r="2.56046" transform="rotate(75 749.136 152.136)" fill="white"/>
  <circle cx="280.875" cy="521.788" r="2.56046" transform="rotate(75 280.875 521.788)" fill="white"/>
  <circle cx="520.874" cy="512.788" r="2.56046" transform="rotate(75 520.874 512.788)" fill="white"/>
  <circle cx="542.136" cy="475.136" r="2.56046" transform="rotate(75 542.136 475.136)" fill="white"/>
  <circle cx="486.136" cy="405.136" r="2.56046" transform="rotate(75 486.136 405.136)" fill="white"/>
  <circle cx="84.8745" cy="291.788" r="2.56046" transform="rotate(75 84.8745 291.788)" fill="white"/>
  <circle cx="102.56" cy="750.561" r="2.56046" fill="white"/>
  <circle cx="287.509" cy="411.275" r="2.56046" transform="rotate(165 287.509 411.275)" fill="white"/>
  <circle cx="580.945" cy="431.07" r="2.56046" transform="rotate(75 580.945 431.07)" fill="white"/>
  <circle cx="211.274" cy="504.741" r="2.56046" transform="rotate(75 211.274 504.741)" fill="white"/>
  <circle cx="451.274" cy="495.741" r="2.56046" transform="rotate(75 451.274 495.741)" fill="white"/>
  <circle cx="591.136" cy="739.136" r="2.56046" transform="rotate(75 591.136 739.136)" fill="white"/>
  <circle cx="175.185" cy="379.446" r="2.56046" fill="white"/>
  <circle cx="292.747" cy="378.061" r="2.56046" transform="rotate(165 292.747 378.061)" fill="white"/>
  <circle cx="547.731" cy="425.832" r="2.56046" transform="rotate(75 547.731 425.832)" fill="white"/>
  <circle cx="178.061" cy="499.502" r="2.56046" transform="rotate(75 178.061 499.502)" fill="white"/>
  <circle cx="418.06" cy="490.502" r="2.56046" transform="rotate(75 418.06 490.502)" fill="white"/>
  <circle cx="231.856" cy="348.038" r="2.56046" fill="white"/>
  <circle cx="246.136" cy="423.067" r="2.56046" transform="rotate(165 246.136 423.067)" fill="white"/>
  <circle cx="592.737" cy="472.442" r="2.56046" transform="rotate(75 592.737 472.442)" fill="white"/>
  <circle cx="223.066" cy="546.113" r="2.56046" transform="rotate(75 223.066 546.113)" fill="white"/>
  <circle cx="463.066" cy="537.113" r="2.56046" transform="rotate(75 463.066 537.113)" fill="white"/>
  <circle cx="27.0664" cy="316.113" r="2.56046" transform="rotate(75 27.0664 316.113)" fill="white"/>
  <path d="M560.414 384.828L559.492 382.336L557 381.414L559.492 380.492L560.414 378L561.336 380.492L563.828 381.414L561.336 382.336L560.414 384.828Z" fill="#FFF7B0"/>
  <path d="M194.859 358.828L193.937 356.336L191.446 355.414L193.937 354.492L194.859 352L195.782 354.492L198.273 355.414L195.782 356.336L194.859 358.828Z" fill="#FFF7B0"/>
  <path d="M117.859 149.828L116.937 147.336L114.446 146.414L116.937 145.492L117.859 143L118.782 145.492L121.273 146.414L118.782 147.336L117.859 149.828Z" fill="#FFF7B0"/>
  <path d="M744.414 104.828L743.492 102.336L741 101.414L743.492 100.492L744.414 98.0001L745.336 100.492L747.828 101.414L745.336 102.336L744.414 104.828Z" fill="#FFF7B0"/>
  <path d="M526.424 484.634L525.502 482.142L523.01 481.22L525.502 480.298L526.424 477.806L527.346 480.298L529.838 481.22L527.346 482.142L526.424 484.634Z" fill="#FFF7B0"/>
  <path d="M176.424 477.634L175.502 475.142L173.01 474.22L175.502 473.298L176.424 470.806L177.347 473.298L179.838 474.22L177.347 475.142L176.424 477.634Z" fill="#FFF7B0"/>
  <path d="M99.4244 268.634L98.5024 266.142L96.0105 265.22L98.5024 264.298L99.4244 261.806L100.347 264.298L102.838 265.22L100.347 266.142L99.4244 268.634Z" fill="#FFF7B0"/>
  <path d="M632.424 255.634L631.502 253.142L629.01 252.22L631.502 251.298L632.424 248.806L633.346 251.298L635.838 252.22L633.346 253.142L632.424 255.634Z" fill="#FFF7B0"/>
  <path d="M549.98 450.153L549.058 447.661L546.567 446.739L549.058 445.817L549.98 443.325L550.903 445.817L553.394 446.739L550.903 447.661L549.98 450.153Z" fill="#FFF7B0"/>
  <path d="M199.981 443.153L199.059 440.661L196.567 439.739L199.059 438.817L199.981 436.325L200.903 438.817L203.395 439.739L200.903 440.661L199.981 443.153Z" fill="#FFF7B0"/>
  <path d="M122.981 234.153L122.059 231.661L119.567 230.739L122.059 229.817L122.981 227.325L123.903 229.817L126.395 230.739L123.903 231.661L122.981 234.153Z" fill="#FFF7B0"/>
  <path d="M655.98 221.153L655.058 218.661L652.567 217.739L655.058 216.817L655.98 214.325L656.903 216.817L659.394 217.739L656.903 218.661L655.98 221.153Z" fill="#FFF7B0"/>
  <path d="M544.859 534.477L543.937 531.986L541.445 531.063L543.937 530.141L544.859 527.65L545.781 530.141L548.273 531.063L545.781 531.986L544.859 534.477Z" fill="#FFF7B0"/>
  <path d="M594.414 534.828L593.492 532.336L591 531.414L593.492 530.492L594.414 528L595.336 530.492L597.828 531.414L595.336 532.336L594.414 534.828Z" fill="#FFF7B0"/>
  <path d="M558.414 566.828L557.492 564.336L555 563.414L557.492 562.492L558.414 560L559.336 562.492L561.828 563.414L559.336 564.336L558.414 566.828Z" fill="#FFF7B0"/>
  <path d="M194.859 527.477L193.937 524.986L191.446 524.063L193.937 523.141L194.859 520.65L195.782 523.141L198.273 524.063L195.782 524.986L194.859 527.477Z" fill="#FFF7B0"/>
  <path d="M117.859 318.477L116.937 315.986L114.446 315.063L116.937 314.141L117.859 311.65L118.782 314.141L121.273 315.063L118.782 315.986L117.859 318.477Z" fill="#FFF7B0"/>
  <path d="M650.859 305.477L649.937 302.986L647.445 302.063L649.937 301.141L650.859 298.65L651.781 301.141L654.273 302.063L651.781 302.986L650.859 305.477Z" fill="#FFF7B0"/>
  <path d="M353.974 680.949L352.361 676.588L348 674.974L352.361 673.361L353.974 669L355.588 673.361L359.949 674.974L355.588 676.588L353.974 680.949Z" fill="#FFF7B0"/>
  <path d="M242.825 542.499L241.212 538.138L236.851 536.524L241.212 534.911L242.825 530.55L244.439 534.911L248.8 536.524L244.439 538.138L242.825 542.499Z" fill="#FFF7B0"/>
  <path d="M199.974 321.949L198.361 317.588L194 315.974L198.361 314.361L199.974 310L201.588 314.361L205.949 315.974L201.588 317.588L199.974 321.949Z" fill="#FFF7B0"/>
  <path d="M215.974 95.9487L214.361 91.5879L210 89.9743L214.361 88.3607L215.974 83.9999L217.588 88.3607L221.949 89.9743L217.588 91.5879L215.974 95.9487Z" fill="#FFF7B0"/>
  <path d="M682.974 459.949L681.36 455.588L677 453.974L681.36 452.361L682.974 448L684.588 452.361L688.948 453.974L684.588 455.588L682.974 459.949Z" fill="#FFF7B0"/>
  <path d="M485.628 437.521L484.014 433.16L479.653 431.546L484.014 429.933L485.628 425.572L487.241 429.933L491.602 431.546L487.241 433.16L485.628 437.521Z" fill="#FFF7B0"/>
  <path d="M143.974 665.949L142.361 661.588L138 659.974L142.361 658.361L143.974 654L145.588 658.361L149.949 659.974L145.588 661.588L143.974 665.949Z" fill="#FFF7B0"/>
  <path d="M58.6276 221.521L57.014 217.16L52.6532 215.546L57.014 213.933L58.6276 209.572L60.2413 213.933L64.6021 215.546L60.2413 217.16L58.6276 221.521Z" fill="#FFF7B0"/>
  <path d="M661.974 188.949L660.361 184.588L656 182.974L660.361 181.361L661.974 177L663.588 181.361L667.949 182.974L663.588 184.588L661.974 188.949Z" fill="#FFF7B0"/>
  <path d="M629.974 110.949L628.361 106.588L624 104.974L628.361 103.361L629.974 99L631.588 103.361L635.949 104.974L631.588 106.588L629.974 110.949Z" fill="#FFF7B0"/>
  <path d="M736.974 12.9487L735.361 8.58795L731 6.97431L735.361 5.36068L736.974 0.999899L738.588 5.36068L742.949 6.97432L738.588 8.58795L736.974 12.9487Z" fill="#FFF7B0"/>
  <path d="M580.877 501.02L579.263 496.66L574.903 495.046L579.263 493.432L580.877 489.072L582.491 493.432L586.851 495.046L582.491 496.66L580.877 501.02Z" fill="#FFF7B0"/>
  <path d="M640.974 586.949L639.361 582.588L635 580.974L639.361 579.361L640.974 575L642.588 579.361L646.949 580.974L642.588 582.588L640.974 586.949Z" fill="#FFF7B0"/>
  <path d="M580.974 624.949L579.361 620.588L575 618.974L579.361 617.361L580.974 613L582.588 617.361L586.949 618.974L582.588 620.588L580.974 624.949Z" fill="#FFF7B0"/>
  <path d="M230.877 494.02L229.264 489.66L224.903 488.046L229.264 486.432L230.877 482.072L232.491 486.432L236.852 488.046L232.491 489.66L230.877 494.02Z" fill="#FFF7B0"/>
  <path d="M35.9743 572.949L34.3607 568.588L29.9999 566.974L34.3607 565.361L35.9743 561L37.588 565.361L41.9487 566.974L37.588 568.588L35.9743 572.949Z" fill="#FFF7B0"/>
  <path d="M686.877 272.02L685.263 267.66L680.903 266.046L685.263 264.432L686.877 260.072L688.491 264.432L692.851 266.046L688.491 267.66L686.877 272.02Z" fill="#FFF7B0"/>
  <path d="M614.675 374.363L613.061 370.002L608.7 368.388L613.061 366.775L614.675 362.414L616.289 366.775L620.649 368.388L616.289 370.002L614.675 374.363Z" fill="#FFF7B0"/>
  <path d="M509.974 385.949L508.361 381.588L504 379.974L508.361 378.361L509.974 374L511.588 378.361L515.949 379.974L511.588 381.588L509.974 385.949Z" fill="#FFF7B0"/>
  <path d="M63.9743 517.949L62.3607 513.588L57.9999 511.974L62.3607 510.361L63.9743 506L65.588 510.361L69.9487 511.974L65.588 513.588L63.9743 517.949Z" fill="#FFF7B0"/>
  <path d="M161.974 599.949L160.36 595.588L156 593.974L160.36 592.361L161.974 588L163.588 592.361L167.948 593.974L163.588 595.588L161.974 599.949Z" fill="#FFF7B0"/>
  <path d="M82.9998 630L79.4886 620.511L69.9998 617L79.4886 613.489L82.9998 604L86.5109 613.489L95.9998 617L86.5109 620.511L82.9998 630Z" fill="#FFF7B0"/>
  <path d="M252 57L248.489 47.5112L239 44L248.489 40.4888L252 31L255.511 40.4888L265 44L255.511 47.5112L252 57Z" fill="#FFF7B0"/>
  <path d="M689 340L685.489 330.511L676 327L685.489 323.489L689 314L692.511 323.489L702 327L692.511 330.511L689 340Z" fill="#FFF7B0"/>
  <path d="M266.974 653.949L265.361 649.588L261 647.974L265.361 646.361L266.974 642L268.588 646.361L272.949 647.974L268.588 649.588L266.974 653.949Z" fill="#FFF7B0"/>
  <path d="M79.9743 407.949L78.3607 403.588L73.9999 401.974L78.3607 400.361L79.9743 396L81.588 400.361L85.9487 401.974L81.588 403.588L79.9743 407.949Z" fill="#FFF7B0"/>
  <path d="M720.675 145.363L719.061 141.002L714.7 139.388L719.061 137.775L720.675 133.414L722.289 137.775L726.649 139.388L722.289 141.002L720.675 145.363Z" fill="#FFF7B0"/>
  <path d="M614.974 41.9487L613.361 37.5879L609 35.9743L613.361 34.3607L614.974 29.9999L616.588 34.3607L620.949 35.9743L616.588 37.5879L614.974 41.9487Z" fill="#FFF7B0"/>
  <path d="M499.113 549.499L498.191 547.007L495.699 546.085L498.191 545.163L499.113 542.671L500.035 545.163L502.527 546.085L500.035 547.007L499.113 549.499Z" fill="#FFF7B0"/>
  <path d="M149.113 542.499L148.191 540.007L145.699 539.085L148.191 538.163L149.113 535.671L150.035 538.163L152.527 539.085L150.035 540.007L149.113 542.499Z" fill="#FFF7B0"/>
  <path d="M72.1129 333.499L71.1908 331.007L68.699 330.085L71.1908 329.163L72.1129 326.671L73.035 329.163L75.5269 330.085L73.035 331.007L72.1129 333.499Z" fill="#FFF7B0"/>
  <path d="M605.113 320.499L604.191 318.007L601.699 317.085L604.191 316.163L605.113 313.671L606.035 316.163L608.527 317.085L606.035 318.007L605.113 320.499Z" fill="#FFF7B0"/>
  <path d="M462.242 498.972L461.32 496.48L458.828 495.558L461.32 494.636L462.242 492.144L463.164 494.636L465.656 495.558L463.164 496.48L462.242 498.972Z" fill="#FFF7B0"/>
  <path d="M112.242 491.972L111.32 489.48L108.828 488.558L111.32 487.636L112.242 485.144L113.164 487.636L115.656 488.558L113.164 489.48L112.242 491.972Z" fill="#FFF7B0"/>
  <path d="M430.414 747.828L429.492 745.336L427 744.414L429.492 743.492L430.414 741L431.336 743.492L433.828 744.414L431.336 745.336L430.414 747.828Z" fill="#FFF7B0"/>
  <path d="M568.242 269.972L567.32 267.48L564.828 266.558L567.32 265.636L568.242 263.144L569.164 265.636L571.656 266.558L569.164 267.48L568.242 269.972Z" fill="#FFF7B0"/>
  <path d="M547.414 651.828L546.492 649.336L544 648.414L546.492 647.492L547.414 645L548.336 647.492L550.828 648.414L548.336 649.336L547.414 651.828Z" fill="#FFF7B0"/>
  <path d="M105.414 577.321L104.492 574.829L102 573.907L104.492 572.985L105.414 570.493L106.336 572.985L108.828 573.907L106.336 574.829L105.414 577.321Z" fill="#FFF7B0"/>
  <path d="M34.4142 451.828L33.4921 449.336L31.0002 448.414L33.4921 447.492L34.4142 445L35.3363 447.492L37.8281 448.414L35.3363 449.336L34.4142 451.828Z" fill="#FFF7B0"/>
  <path d="M585.414 351.828L584.492 349.336L582 348.414L584.492 347.492L585.414 345L586.336 347.492L588.828 348.414L586.336 349.336L585.414 351.828Z" fill="#FFF7B0"/>
  </g>
  </g>
  <defs>
  <filter id="filter0_f_28_300" x="-3.8252" y="-3.90161" width="776" height="776" filterUnits="userSpaceOnUse" color-interpolation-filters="sRGB">
  <feFlood flood-opacity="0" result="BackgroundImageFix"/>
  <feBlend mode="normal" in="SourceGraphic" in2="BackgroundImageFix" result="shape"/>
  <feGaussianBlur stdDeviation="2" result="effect1_foregroundBlur_28_300"/>
  </filter>
  <filter id="filter1_f_28_300" x="-215.634" y="587.714" width="1206.87" height="427.215" filterUnits="userSpaceOnUse" color-interpolation-filters="sRGB">
  <feFlood flood-opacity="0" result="BackgroundImageFix"/>
  <feBlend mode="normal" in="SourceGraphic" in2="BackgroundImageFix" result="shape"/>
  <feGaussianBlur stdDeviation="5" result="effect1_foregroundBlur_28_300"/>
  </filter>
  <filter id="filter2_f_28_300" x="-227.019" y="-457.413" width="1219.39" height="1498.73" filterUnits="userSpaceOnUse" color-interpolation-filters="sRGB">
  <feFlood flood-opacity="0" result="BackgroundImageFix"/>
  <feBlend mode="normal" in="SourceGraphic" in2="BackgroundImageFix" result="shape"/>
  <feGaussianBlur stdDeviation="5" result="effect1_foregroundBlur_28_300"/>
  </filter>
  <radialGradient id="paint0_radial_28_300" cx="0" cy="0" r="1" gradientUnits="userSpaceOnUse" gradientTransform="translate(593.439 233.672) rotate(99.1226) scale(134.113 382.227)">
  <stop stop-color="white" stop-opacity="0.75"/>
  <stop offset="1" stop-color="white" stop-opacity="0"/>
  </radialGradient>
  <radialGradient id="paint1_radial_28_300" cx="0" cy="0" r="1" gradientUnits="userSpaceOnUse" gradientTransform="translate(382.674 401.142) rotate(92.5586) scale(481.339 390.814)">
  <stop stop-color="white" stop-opacity="0.75"/>
  <stop offset="1" stop-color="white" stop-opacity="0"/>
  </radialGradient>
  <clipPath id="clip0_28_300">
  <rect width="768" height="768" fill="white"/>
  </clipPath>
  </defs>

    
  <g style="mix-blend-mode:overlay" clip-path="url(#clip0_559_45925)">
  <circle cx="586" cy="733" r="63" fill="white" fill-opacity="0.25"/>
  <circle cx="251" cy="146" r="50" fill="white" fill-opacity="0.25"/>
  <circle cx="613" cy="242" r="36" fill="white" fill-opacity="0.25"/>
  <circle cx="18" cy="515" r="36" fill="white" fill-opacity="0.25"/>
  <circle cx="737" cy="32" r="88" fill="white" fill-opacity="0.25"/>
  <path d="M144.675 632.966C64.3766 608.565 2.94915 702.93 -12 747.834C117.844 945.076 322.102 856.42 394 770C278.678 833.544 245.048 663.467 144.675 632.966Z" fill="white" fill-opacity="0.25"/>
  <path d="M650.966 518.675C626.565 438.377 720.93 376.949 765.834 362C963.076 491.844 874.42 696.102 788 768C851.544 652.678 681.467 619.048 650.966 518.675Z" fill="white" fill-opacity="0.25"/>
  <path d="M-57.9999 8.49109C-29.304 1.45142 34.7723 14.5252 41.2541 70.8425C46.2313 114.086 42.2669 188.506 6.81903 221.693C-34.7056 260.569 -31.8269 352.301 28.0877 373.548C84.8044 393.662 153.534 364.497 162.79 317.231C176.738 246 116.875 233.726 125.316 164.37C148 -22 481.846 25.9641 520 -9.99999C520 -191.877 6.81902 -487.815 -57.9999 8.49109Z" fill="white" fill-opacity="0.25"/>
  </g>
  <defs>
  <clipPath id="clip0_559_45925">
  <rect width="768" height="768" fill="white"/>
  </clipPath>
  </defs>

    
<g clip-path="url(#clip0_520_56245)">
<mask id="mask0_520_56245" style="mask-type:alpha" maskUnits="userSpaceOnUse" x="478" y="168" width="221" height="459">
<path d="M627.839 308.197L627.895 308.768L628.462 308.856L628.747 308.9L627.622 316.152C627.422 317.439 626.418 318.4 625.162 318.495C623.145 318.646 620.004 318.808 615.812 318.806L615.199 318.805L615.085 319.407L601.586 390.671C601.452 391.377 601.081 391.856 600.566 392.022C599.331 392.419 596.857 392.94 592.299 393.007L591.824 393.014L591.633 393.448C586.761 404.498 584.046 426.607 596.314 457.275C614.328 502.311 624.393 529.01 607.333 564.681C600.613 578.732 585.144 591.722 568.12 602.437C551.508 612.892 533.534 621.11 521.089 625.978L513.827 579.505C521.515 576.933 532.182 572.127 542.263 565.338C552.6 558.377 562.386 549.287 567.666 538.321C577.895 517.076 569.81 498.859 561.565 480.284L561.519 480.18C559.12 474.774 556.706 469.335 554.695 463.75C551.564 455.05 549.64 442.01 548.985 428.679L548.965 428.268L548.605 428.068C546.723 427.026 544.354 426.363 541.414 426.363H503.084H503.073L503.063 426.363C501.654 426.403 500.041 427.327 498.504 428.616C496.933 429.935 495.313 431.747 493.878 433.786C492.441 435.827 491.174 438.117 490.322 440.403C490.045 441.146 489.81 441.894 489.627 442.636L479.126 402.315C480.602 402.952 482.747 403.669 485.395 404.291C489.199 405.185 494.097 405.899 499.651 405.899H536.837H536.862L536.887 405.897C539.625 405.713 545.175 404.853 549.064 402.769L549.413 402.581L549.451 402.187C550.017 396.224 550.916 390.96 552.143 386.922L552.335 386.292L551.73 386.029C547.642 384.252 545.44 382.583 544.389 381.616C543.958 381.221 543.764 380.605 543.833 379.903L550.813 309.296L550.872 308.703L550.306 308.52C546.687 307.345 543.935 306.314 542.131 305.596C540.942 305.123 540.261 303.885 540.463 302.583L541.583 295.37L541.817 295.407L543.239 295.627L542.591 294.343C542.574 294.311 542.568 294.29 542.565 294.279C542.576 294.261 542.607 294.221 542.687 294.161C542.832 294.052 543.079 293.926 543.463 293.801C544.229 293.552 545.374 293.36 546.884 293.239C549.892 292.999 554.182 293.056 559.391 293.404L559.648 293.421L559.859 293.275C561.375 292.231 563.124 290.002 564.794 286.518C566.474 283.011 568.108 278.166 569.351 271.801C572.478 255.792 574.323 242.171 571.726 228.521C571.476 227.208 570.786 225.323 569.853 223.077C568.913 220.818 567.7 218.131 566.374 215.192L566.37 215.183C563.116 207.975 559.169 199.227 556.74 191.268C555.525 187.289 554.7 183.542 554.523 180.307C554.345 177.059 554.824 174.426 556.107 172.581C556.508 172.004 557.198 171.459 558.216 170.97C559.23 170.483 560.524 170.073 562.076 169.744C565.182 169.084 569.227 168.765 573.911 168.741C583.272 168.693 595.067 169.824 606.734 171.688C618.4 173.551 629.905 176.142 638.687 178.999C643.081 180.429 646.766 181.918 649.443 183.402C650.781 184.144 651.845 184.874 652.615 185.579C653.392 186.289 653.82 186.93 653.974 187.485C654.445 189.169 654.196 191.109 653.314 193.297C652.433 195.484 650.944 197.858 649.026 200.364C645.188 205.381 639.736 210.804 634.316 216.194L634.267 216.243C628.196 222.279 622.153 228.289 618.661 233.526C616.221 237.186 614.318 241.76 612.86 246.666L612.518 247.815L613.698 247.605C616.521 247.101 622.061 247.146 629.389 247.728C636.687 248.307 645.682 249.412 655.368 250.992C667.325 252.943 678.051 255.245 685.724 257.386C689.565 258.458 692.616 259.483 694.667 260.394C695.699 260.852 696.438 261.265 696.895 261.618C697.124 261.796 697.249 261.933 697.308 262.023C697.308 262.024 697.309 262.025 697.309 262.026L696.342 263.014L697.762 263.235L698.156 263.296L697.03 270.548C696.831 271.834 695.827 272.796 694.571 272.89C688.992 273.31 674.829 273.808 653.581 270.683C631.974 267.506 617.163 262.229 611.539 259.991C611.372 259.925 611.217 259.844 611.072 259.751L610.106 259.126L609.94 260.265C608.96 266.986 608.608 273.489 608.71 278.51C608.792 282.572 609.588 287.697 610.554 292.167C611.038 294.406 611.566 296.493 612.075 298.212C612.578 299.917 613.074 301.307 613.501 302.124L613.65 302.409L613.961 302.494C618.315 303.69 621.842 304.86 624.288 305.923C625.515 306.456 626.439 306.949 627.054 307.389C627.362 307.609 627.569 307.799 627.697 307.955C627.827 308.113 627.839 308.192 627.839 308.197Z" fill="#C4C4C4" stroke="black" stroke-width="1.47858"/>
</mask>
<g mask="url(#mask0_520_56245)">
<g filter="url(#filter0_f_520_56245)">
<rect x="822" y="784" width="422" height="647" transform="rotate(-180 822 784)" fill="url(#paint0_linear_520_56245)"/>
</g>
<g style="mix-blend-mode:overlay" filter="url(#filter1_f_520_56245)">
<ellipse cx="861.325" cy="554.69" rx="599.693" ry="739.366" transform="rotate(0.126655 861.325 554.69)" fill="url(#paint1_radial_520_56245)"/>
</g>
<g opacity="0.5">
<g style="mix-blend-mode:overlay" opacity="0.5">
<path d="M549.931 352.007C493.651 313.882 628.62 244.173 674.835 239.593H522.452C476.487 244.589 463.331 267.488 462.498 278.313V369.493C475.405 386.98 501.666 421.511 583.655 443.186C692.321 471.914 823.374 416.105 778.505 352.007C743.532 302.045 627.371 404.466 549.931 352.007Z" fill="white"/>
</g>
<g style="mix-blend-mode:overlay" opacity="0.5">
<path fill-rule="evenodd" clip-rule="evenodd" d="M727.294 253.332C690.656 261.243 623.374 280.811 647.356 295.8C658.329 302.658 681.351 302.654 708.397 302.65C755.241 302.643 814.157 302.634 843.455 338.267C890.873 395.937 853.447 486.903 738.536 523.125C736.934 523.63 735.323 524.137 733.703 524.648C619.116 560.752 461.406 610.444 553.678 658.021C582.199 672.727 613.899 661.994 646.681 650.895C705.78 630.885 768.393 609.685 822.221 734.213H922.145C850.949 686.749 857.567 594.342 903.409 571.837C955.78 546.128 949.595 495.979 945.172 460.129C943.794 448.954 942.587 439.168 943.378 431.945V253.332H727.294ZM822.221 535.615C805.235 562.594 743.532 577.666 714.804 581.83C691.072 610.558 748.528 598.067 757.271 590.573C766.015 583.079 783.501 600.565 788.497 624.297C793.493 648.029 835.961 644.282 833.463 624.297C830.965 604.312 830.965 581.83 859.693 559.347C888.42 536.864 843.455 501.891 822.221 535.615Z" fill="white"/>
</g>
<g style="mix-blend-mode:overlay" opacity="0.5">
<path d="M563.67 491.899C616.13 491.899 613.632 534.366 563.67 543.11C514.968 551.632 467.453 564.903 466.245 591.019V593.071C466.214 592.378 466.214 591.695 466.245 591.019V463.149C486.402 474.552 526.104 491.899 563.67 491.899Z" fill="white"/>
</g>
</g>
<g opacity="0.6">
<circle cx="507.388" cy="424.616" r="2.56046" fill="white"/>
<circle cx="651.06" cy="600.842" r="2.56046" transform="rotate(75 651.06 600.842)" fill="white"/>
<circle cx="494.073" cy="339.95" r="2.56046" fill="white"/>
<circle cx="513.136" cy="388.136" r="2.56046" transform="rotate(75 513.136 388.136)" fill="white"/>
<circle cx="515.136" cy="530.17" r="2.56046" transform="rotate(75 515.136 530.17)" fill="white"/>
<circle cx="528.706" cy="495.078" r="2.56046" transform="rotate(75 528.706 495.078)" fill="white"/>
<circle cx="480.758" cy="548.543" r="2.56046" fill="white"/>
<circle cx="496.56" cy="586.561" r="2.56046" fill="white"/>
<circle cx="524.464" cy="607.194" r="2.56046" transform="rotate(75 524.464 607.194)" fill="white"/>
<circle cx="622.766" cy="479.418" r="2.56046" transform="rotate(75 622.766 479.418)" fill="white"/>
<circle cx="518.56" cy="255.561" r="2.56046" fill="white"/>
<circle cx="544.56" cy="189.561" r="2.56046" fill="white"/>
<circle cx="659.56" cy="184.56" r="2.56046" fill="white"/>
<circle cx="664.56" cy="254.561" r="2.56046" fill="white"/>
<circle cx="564.56" cy="322.561" r="2.56046" fill="white"/>
<circle cx="636.56" cy="322.561" r="2.56046" fill="white"/>
<circle cx="602.56" cy="376.561" r="2.56046" fill="white"/>
<circle cx="554.771" cy="410.571" r="2.56046" transform="rotate(75 554.771 410.571)" fill="white"/>
<circle cx="684.136" cy="619.136" r="2.56046" transform="rotate(75 684.136 619.136)" fill="white"/>
<circle cx="572.136" cy="625.136" r="2.56046" transform="rotate(75 572.136 625.136)" fill="white"/>
<circle cx="570.136" cy="569.136" r="2.56046" transform="rotate(75 570.136 569.136)" fill="white"/>
<circle cx="547.738" cy="450.273" r="2.56046" transform="rotate(75 547.738 450.273)" fill="white"/>
<circle cx="589.322" cy="450.904" r="2.56046" fill="white"/>
<circle cx="653.509" cy="576.275" r="2.56046" transform="rotate(165 653.509 576.275)" fill="white"/>
<circle cx="541.185" cy="544.446" r="2.56046" fill="white"/>
<circle cx="658.747" cy="543.061" r="2.56046" transform="rotate(165 658.747 543.061)" fill="white"/>
<circle cx="597.856" cy="513.038" r="2.56046" fill="white"/>
<circle cx="612.136" cy="588.067" r="2.56046" transform="rotate(165 612.136 588.067)" fill="white"/>
<path d="M560.859 523.828L559.937 521.336L557.446 520.414L559.937 519.492L560.859 517L561.782 519.492L564.273 520.414L561.782 521.336L560.859 523.828Z" fill="#7A6F0C"/>
<path d="M483.859 314.828L482.937 312.336L480.446 311.414L482.937 310.492L483.859 308L484.782 310.492L487.273 311.414L484.782 312.336L483.859 314.828Z" fill="#7A6F0C"/>
<path d="M565.981 608.153L565.059 605.661L562.567 604.739L565.059 603.817L565.981 601.325L566.903 603.817L569.395 604.739L566.903 605.661L565.981 608.153Z" fill="#7A6F0C"/>
<path d="M488.981 399.153L488.059 396.661L485.567 395.739L488.059 394.817L488.981 392.325L489.903 394.817L492.395 395.739L489.903 396.661L488.981 399.153Z" fill="#7A6F0C"/>
<path d="M483.859 483.477L482.937 480.986L480.446 480.063L482.937 479.141L483.859 476.649L484.782 479.141L487.273 480.063L484.782 480.986L483.859 483.477Z" fill="#7A6F0C"/>
<path d="M565.974 486.949L564.361 482.588L560 480.974L564.361 479.361L565.974 475L567.588 479.361L571.949 480.974L567.588 482.588L565.974 486.949Z" fill="#7A6F0C"/>
<path d="M581.974 260.949L580.361 256.588L576 254.974L580.361 253.361L581.974 249L583.588 253.361L587.949 254.974L583.588 256.588L581.974 260.949Z" fill="#7A6F0C"/>
<path d="M618 222L614.489 212.511L605 209L614.489 205.489L618 196L621.511 205.489L631 209L621.511 212.511L618 222Z" fill="#7A6F0C"/>
</g>
</g>
<g opacity="0.7" filter="url(#filter2_f_520_56245)">
<g style="mix-blend-mode:overlay" opacity="0.5">
<path d="M699.325 205.249C816.774 232.912 535.109 283.493 438.665 286.816L756.67 286.816C852.593 283.191 880.049 266.575 881.787 258.721L881.787 192.561C854.852 179.873 800.049 154.817 628.947 139.089C402.172 118.245 128.68 158.74 222.317 205.249C295.302 241.501 537.716 167.185 699.325 205.249Z" fill="white" fill-opacity="0.5"/>
</g>
<g style="mix-blend-mode:overlay" opacity="0.5">
<path fill-rule="evenodd" clip-rule="evenodd" d="M329.187 276.847C405.648 271.107 546.057 256.908 496.01 246.033C473.111 241.056 425.067 241.059 368.623 241.062C270.866 241.067 147.915 241.073 86.7733 215.218C-12.1816 173.373 65.9203 107.369 305.728 81.0864C309.07 80.7201 312.433 80.3517 315.813 79.9814C554.944 53.7841 884.065 17.7284 691.505 -16.7936C631.985 -27.4642 565.83 -19.6763 497.419 -11.6227C374.085 2.89645 243.418 18.2788 131.085 -72.0778L-77.4429 -72.0779C71.1334 -37.6385 57.3241 29.4116 -38.3439 45.7408C-147.637 64.3956 -134.728 100.783 -125.499 126.796C-122.622 134.905 -120.103 142.005 -121.755 147.246L-121.755 276.847L329.187 276.847ZM131.085 72.0234C166.535 52.4474 295.301 41.5114 355.253 38.4904C404.779 17.6456 284.875 26.7086 266.629 32.1464C248.383 37.5841 211.89 24.896 201.464 7.67631C191.037 -9.54332 102.413 -6.82443 107.626 7.6763C112.839 22.1771 112.839 38.4904 52.8874 54.8038C-7.06444 71.1171 86.7733 96.4935 131.085 72.0234Z" fill="white" fill-opacity="0.5"/>
</g>
<g style="mix-blend-mode:overlay" opacity="0.5">
<path d="M670.652 103.744C561.175 103.744 566.388 72.9296 670.652 66.5855C772.288 60.4014 871.447 50.7725 873.967 31.8225L873.967 30.3337C874.033 30.8362 874.032 31.3325 873.967 31.8225L873.967 124.604C831.901 116.331 749.049 103.744 670.652 103.744Z" fill="white" fill-opacity="0.5"/>
</g>
</g>
<g filter="url(#filter3_b_520_56245)">
<path d="M326.178 207L274.042 460.841C273.886 461.6 274.171 462.37 274.808 462.812C281.654 467.568 322.472 494 384 494C445.528 494 486.346 467.568 493.192 462.812C493.829 462.37 494.114 461.6 493.958 460.841L441.822 207C441.748 207.147 441.651 207.284 441.53 207.405C438.6 210.365 423.996 222.688 384 222.688C344.004 222.688 329.4 210.365 326.47 207.405C326.349 207.284 326.252 207.147 326.178 207Z" fill="white" fill-opacity="0.75"/>
</g>
<g filter="url(#filter4_d_520_56245)">
<mask id="mask1_520_56245" style="mask-type:alpha" maskUnits="userSpaceOnUse" x="246" y="463" width="279" height="228">
<path d="M451.984 690H387.421H319.015C268.837 690 237.641 640.734 249.527 589.638L253.675 571.805L275.445 464C298.64 483.396 336.855 493.441 387.421 493.441C437.987 493.441 464.5 481.5 493 464L517.32 571.805L521.468 589.617C533.368 640.719 502.171 690 451.984 690Z" fill="url(#paint2_radial_520_56245)" stroke="black"/>
</mask>
<g mask="url(#mask1_520_56245)">
<g filter="url(#filter5_f_520_56245)">
<rect x="602.038" y="811" width="366" height="366" transform="rotate(-180 602.038 811)" fill="url(#paint3_linear_520_56245)"/>
</g>
<g style="mix-blend-mode:overlay" filter="url(#filter6_f_520_56245)">
<ellipse cx="578.712" cy="539.953" rx="599.693" ry="739.366" transform="rotate(0.126655 578.712 539.953)" fill="url(#paint4_radial_520_56245)"/>
</g>
<g opacity="0.5">
<g style="mix-blend-mode:overlay" opacity="0.5">
<path d="M309.968 459.007C253.689 420.882 388.658 351.173 434.872 346.593H282.49C236.525 351.589 223.368 374.488 222.536 385.313V476.493C235.442 493.98 261.703 528.511 343.692 550.186C452.359 578.914 583.412 523.105 538.543 459.007C503.57 409.045 387.409 511.466 309.968 459.007Z" fill="white"/>
</g>
<g style="mix-blend-mode:overlay" opacity="0.5">
<path fill-rule="evenodd" clip-rule="evenodd" d="M487.332 360.332C450.693 368.243 383.412 387.811 407.393 402.8C418.366 409.658 441.388 409.654 468.435 409.65C515.278 409.643 574.194 409.634 603.493 445.267C650.91 502.937 613.485 593.903 498.573 630.125C496.972 630.63 495.361 631.137 493.741 631.648C379.153 667.752 221.444 717.444 313.716 765.021C342.236 779.727 373.937 768.994 406.718 757.895C465.818 737.885 528.431 716.685 582.259 841.213H682.182C610.987 793.749 617.604 701.342 663.447 678.837C715.818 653.128 709.632 602.979 705.21 567.129C703.831 555.954 702.624 546.168 703.416 538.945V360.332H487.332ZM582.259 642.615C565.272 669.594 503.57 684.666 474.842 688.83C451.11 717.558 508.566 705.067 517.309 697.573C526.052 690.079 543.539 707.565 548.535 731.297C553.531 755.029 595.998 751.282 593.5 731.297C591.002 711.312 591.002 688.83 619.73 666.347C648.458 643.864 603.493 608.891 582.259 642.615Z" fill="white"/>
</g>
<g style="mix-blend-mode:overlay" opacity="0.5">
<path d="M323.708 598.899C376.168 598.899 373.669 641.366 323.708 650.11C275.006 658.632 227.49 671.903 226.283 698.019V700.071C226.251 699.378 226.252 698.695 226.283 698.019V570.149C246.44 581.552 286.141 598.899 323.708 598.899Z" fill="white"/>
</g>
</g>
<g opacity="0.6">
<ellipse rx="2.42636" ry="2.55107" transform="matrix(-0.961979 0.273124 -0.24516 -0.969483 510.574 606.674)" fill="white"/>
<ellipse rx="2.42636" ry="2.55107" transform="matrix(-0.961979 0.273124 -0.24516 -0.969483 403.103 547.061)" fill="white"/>
<ellipse rx="2.55107" ry="2.42636" transform="matrix(0.24516 0.969483 -0.961979 0.273124 335.769 497.841)" fill="white"/>
<ellipse rx="2.42636" ry="2.55107" transform="matrix(-0.961979 0.273124 -0.24516 -0.969483 435.921 625.396)" fill="white"/>
<ellipse rx="2.55107" ry="2.42636" transform="matrix(0.24516 0.969483 -0.961979 0.273124 409.698 463.068)" fill="white"/>
<ellipse rx="2.55107" ry="2.42636" transform="matrix(0.24516 0.969483 -0.961979 0.273124 442.794 495.194)" fill="white"/>
<ellipse rx="2.42636" ry="2.55107" transform="matrix(-0.961979 0.273124 -0.24516 -0.969483 517.697 518.766)" fill="white"/>
<ellipse rx="2.42636" ry="2.55107" transform="matrix(-0.961979 0.273124 -0.24516 -0.969483 482.724 516.326)" fill="white"/>
<ellipse rx="2.42636" ry="2.55107" transform="matrix(-0.961979 0.273124 -0.24516 -0.969483 365.609 646.772)" fill="white"/>
<ellipse rx="2.55107" ry="2.42636" transform="matrix(0.24516 0.969483 -0.961979 0.273124 429.872 537.57)" fill="white"/>
<ellipse rx="2.42636" ry="2.55107" transform="matrix(-0.961979 0.273124 -0.24516 -0.969483 328.14 639.739)" fill="white"/>
<ellipse rx="2.55107" ry="2.42636" transform="matrix(0.24516 0.969483 -0.961979 0.273124 476.459 468.136)" fill="white"/>
<ellipse rx="2.55107" ry="2.42636" transform="matrix(0.24516 0.969483 -0.961979 0.273124 366.984 516.136)" fill="white"/>
<ellipse rx="2.55107" ry="2.42636" transform="matrix(0.24516 0.969483 -0.961979 0.273124 368.872 598.136)" fill="white"/>
<ellipse rx="2.55107" ry="2.42636" transform="matrix(0.24516 0.969483 -0.961979 0.273124 261.284 522.136)" fill="white"/>
<ellipse rx="2.55107" ry="2.42636" transform="matrix(0.24516 0.969483 -0.961979 0.273124 259.397 466.136)" fill="white"/>
<ellipse rx="2.42636" ry="2.55107" transform="matrix(-0.961979 0.273124 -0.24516 -0.969483 321.991 542.875)" fill="white"/>
<ellipse rx="2.55107" ry="2.42636" transform="matrix(0.24516 0.969483 -0.961979 0.273124 331.819 583.788)" fill="white"/>
<ellipse rx="2.55107" ry="2.42636" transform="matrix(0.24516 0.969483 -0.961979 0.273124 525.534 467.136)" fill="white"/>
<ellipse rx="2.42636" ry="2.55107" transform="matrix(-0.961979 0.273124 -0.24516 -0.969483 338.08 473.274)" fill="white"/>
<ellipse rx="2.55107" ry="2.42636" transform="matrix(0.24516 0.969483 -0.961979 0.273124 266.134 566.74)" fill="white"/>
<ellipse rx="2.55107" ry="2.42636" transform="matrix(0.24516 0.969483 -0.961979 0.273124 492.634 557.74)" fill="white"/>
<ellipse rx="2.55107" ry="2.42636" transform="matrix(0.24516 0.969483 -0.961979 0.273124 461.288 552.502)" fill="white"/>
<ellipse rx="2.42636" ry="2.55107" transform="matrix(-0.961979 0.273124 -0.24516 -0.969483 299.035 485.067)" fill="white"/>
<ellipse rx="2.55107" ry="2.42636" transform="matrix(0.24516 0.969483 -0.961979 0.273124 277.263 608.113)" fill="white"/>
<ellipse rx="2.55107" ry="2.42636" transform="matrix(0.24516 0.969483 -0.961979 0.273124 503.763 599.113)" fill="white"/>
<path d="M255.475 505.153L254.605 502.661L252.253 501.739L254.605 500.817L255.475 498.325L256.346 500.817L258.697 501.739L256.346 502.661L255.475 505.153Z" fill="#7A6F0C"/>
<path d="M250.642 589.478L249.772 586.986L247.42 586.064L249.772 585.142L250.642 582.65L251.513 585.142L253.864 586.064L251.513 586.986L250.642 589.478Z" fill="#7A6F0C"/>
<path d="M295.91 604.499L294.387 600.138L290.272 598.524L294.387 596.91L295.91 592.55L297.433 596.91L301.548 598.524L297.433 600.138L295.91 604.499Z" fill="#7A6F0C"/>
<path d="M525.055 499.521L523.532 495.16L519.417 493.546L523.532 491.933L525.055 487.572L526.578 491.933L530.693 493.546L526.578 495.16L525.055 499.521Z" fill="#7A6F0C"/>
<path d="M284.634 556.02L283.111 551.659L278.996 550.046L283.111 548.432L284.634 544.071L286.157 548.432L290.272 550.046L286.157 551.659L284.634 556.02Z" fill="#7A6F0C"/>
<path d="M502.985 560.972L502.114 558.48L499.763 557.558L502.114 556.636L502.985 554.144L503.855 556.636L506.207 557.558L503.855 558.48L502.985 560.972Z" fill="#7A6F0C"/>
</g>
</g>
</g>
<mask id="mask2_520_56245" style="mask-type:alpha" maskUnits="userSpaceOnUse" x="326" y="107" width="116" height="116">
<path d="M326 107H442V207C442 207 429 222.6 384 222.6C339 222.6 326 207 326 207V107Z" fill="url(#paint5_radial_520_56245)"/>
</mask>
<g mask="url(#mask2_520_56245)">
<g filter="url(#filter7_f_520_56245)">
<rect x="616.127" y="425.544" width="366" height="366" transform="rotate(-180 616.127 425.544)" fill="url(#paint6_linear_520_56245)"/>
</g>
<g style="mix-blend-mode:overlay" filter="url(#filter8_f_520_56245)">
<ellipse cx="592.801" cy="154.496" rx="599.693" ry="739.366" transform="rotate(0.126655 592.801 154.496)" fill="url(#paint7_radial_520_56245)"/>
</g>
<g opacity="0.5">
<g style="mix-blend-mode:overlay" opacity="0.5">
<path d="M263.058 213.55C206.778 175.425 341.747 105.717 387.962 101.137H235.579C189.614 106.133 176.458 129.032 175.625 139.857V231.037C188.532 248.523 214.793 283.055 296.782 304.73C405.448 333.458 536.501 277.649 491.632 213.55C456.659 163.589 340.498 266.01 263.058 213.55Z" fill="white"/>
</g>
<g style="mix-blend-mode:overlay" opacity="0.5">
<path fill-rule="evenodd" clip-rule="evenodd" d="M440.421 114.876C403.783 122.787 336.501 142.355 360.483 157.343C371.456 164.201 394.478 164.198 421.524 164.194C468.368 164.187 527.284 164.178 556.582 199.811C604 257.481 566.574 348.446 451.663 384.669C450.061 385.173 448.45 385.681 446.83 386.191C332.243 422.296 174.533 471.987 266.805 519.565C295.326 534.271 327.026 523.538 359.808 512.438C418.907 492.428 481.52 471.229 535.348 595.756H635.272C564.076 548.293 570.694 455.886 616.536 433.381C668.907 407.671 662.721 357.522 658.299 321.673C656.921 310.497 655.714 300.712 656.505 293.489V114.876H440.421ZM535.348 397.159C518.362 424.138 456.659 439.21 427.931 443.373C404.199 472.101 461.655 459.611 470.398 452.117C479.142 444.622 496.628 462.109 501.624 485.841C506.62 509.572 549.088 505.825 546.59 485.841C544.092 465.856 544.092 443.373 572.82 420.891C601.547 398.408 556.582 363.435 535.348 397.159Z" fill="white"/>
</g>
</g>
<g opacity="0.6">
<circle cx="351.515" cy="122.16" r="2.56046" fill="white"/>
<circle cx="372.833" cy="192.622" r="2.56046" transform="rotate(75 372.833 192.622)" fill="white"/>
<circle cx="398.898" cy="108.114" r="2.56046" transform="rotate(75 398.898 108.114)" fill="white"/>
<circle cx="391.865" cy="147.816" r="2.56046" transform="rotate(75 391.865 147.816)" fill="white"/>
<circle cx="433.449" cy="148.447" r="2.56046" fill="white"/>
<circle cx="441.983" cy="210.581" r="2.56046" fill="white"/>
<path d="M404.986 221.372L404.064 218.88L401.572 217.958L404.064 217.036L404.986 214.544L405.909 217.036L408.4 217.958L405.909 218.88L404.986 221.372Z" fill="#7A6F0C"/>
<path d="M327.986 181.021L327.064 178.529L324.572 177.607L327.064 176.685L327.986 174.193L328.909 176.685L331.4 177.607L328.909 178.529L327.986 181.021Z" fill="#7A6F0C"/>
<path d="M410.101 184.492L408.488 180.132L404.127 178.518L408.488 176.904L410.101 172.544L411.715 176.904L416.076 178.518L411.715 180.132L410.101 184.492Z" fill="#7A6F0C"/>
</g>
</g>
<ellipse cx="603.495" cy="184.983" rx="43.9412" ry="7" transform="rotate(9.26455 603.495 184.983)" fill="white" fill-opacity="0.45"/>
<mask id="mask3_520_56245" style="mask-type:alpha" maskUnits="userSpaceOnUse" x="315" y="87" width="138" height="20">
<rect x="315" y="87" width="138" height="20" rx="5" fill="#C4C4C4"/>
</mask>
<g mask="url(#mask3_520_56245)">
<g filter="url(#filter9_f_520_56245)">
<rect x="677.128" y="257.667" width="366" height="366" transform="rotate(-180 677.128 257.667)" fill="url(#paint8_linear_520_56245)"/>
</g>
<g style="mix-blend-mode:overlay" filter="url(#filter10_f_520_56245)">
<ellipse cx="653.802" cy="-13.3806" rx="599.693" ry="739.366" transform="rotate(0.126655 653.802 -13.3806)" fill="url(#paint9_radial_520_56245)"/>
</g>
<g opacity="0.5">
<g style="mix-blend-mode:overlay" opacity="0.5">
<path fill-rule="evenodd" clip-rule="evenodd" d="M562.422 -193.001C525.784 -185.09 458.502 -165.522 482.484 -150.534C493.456 -143.676 516.479 -143.679 543.525 -143.683C590.369 -143.69 649.285 -143.699 678.583 -108.066C726 -50.3963 688.575 40.5695 573.664 76.7916C572.062 77.2965 570.451 77.8041 568.831 78.3145C454.243 114.419 296.534 164.11 388.806 211.688C417.327 226.394 449.027 215.661 481.809 204.561C540.908 184.551 603.521 163.352 657.349 287.879H757.273C686.077 240.416 692.695 148.009 738.537 125.504C790.908 99.7945 784.722 49.6455 780.3 13.7958C778.922 2.62045 777.715 -7.16541 778.506 -14.3883V-193.001H562.422ZM657.349 89.282C640.362 116.261 578.66 131.333 549.932 135.496C526.2 164.224 583.656 151.734 592.399 144.24C601.143 136.745 618.629 154.232 623.625 177.964C628.621 201.696 671.089 197.948 668.591 177.964C666.093 157.979 666.093 135.496 694.82 113.014C723.548 90.531 678.583 55.5579 657.349 89.282Z" fill="white"/>
</g>
<g style="mix-blend-mode:overlay" opacity="0.5">
<path d="M398.798 45.5657C451.258 45.5657 448.76 88.033 398.798 96.7763C350.096 105.299 302.581 118.57 301.373 144.686V146.738C301.342 146.045 301.342 145.361 301.373 144.686V16.8161C321.53 28.2186 361.232 45.5657 398.798 45.5657Z" fill="white"/>
</g>
</g>
<g opacity="0.6">
<path d="M351.102 102.615L349.489 98.2547L345.128 96.6411L349.489 95.0274L351.102 90.6666L352.716 95.0274L357.077 96.6411L352.716 98.2547L351.102 102.615Z" fill="#7A6F0C"/>
</g>
</g>
<path d="M534.414 427.102C525.26 427.102 516.046 427.102 507.084 427.102M534.414 427.102H507.084M534.414 427.102C543.567 427.102 546.483 427.738 548.247 428.715C548.903 442.075 550.832 455.199 554 464C563 489 580 511 567 538C556.6 559.6 533.333 574 518 579M507.084 427.102C498.121 427.102 489.418 439.301 490.333 447L481 400.925C485.288 402.336 488.667 405.159 499.651 405.159M499.651 405.159C510.635 405.159 529.019 405.159 536.837 405.159M499.651 405.159H536.837M536.837 405.159C539.537 404.978 544.963 404.127 548.715 402.117C549.283 396.128 550.188 390.811 551.436 386.707M698 262.679L696.761 270.661C696.512 272.266 695.246 273.506 693.626 273.628C687.998 274.051 674.78 274.548 653.473 271.415C631.799 268.228 616.318 262.755 610.652 260.5M522.5 626.5C547.5 616.833 594.86 594 608 565C625.217 527 615 502 597 457C584.79 426.475 587.534 404.577 592.309 393.746M541.966 294.526L540.733 302.47C540.481 304.093 540.331 305.675 541.857 306.283C543.676 307.006 546.442 308.043 550.078 309.223M628.591 308.283L627.352 316.266C627.103 317.871 626.837 319.11 625.217 319.232C623.182 319.385 620.023 319.548 615.812 319.545M592.309 393.746C596.915 393.678 599.467 393.151 600.792 392.726C601.644 392.452 602.146 391.688 602.312 390.809L615.812 319.545M592.309 393.746C587.924 393.81 581.676 393.458 572.853 392.206C562.811 390.78 555.992 388.688 551.436 386.707M551.436 386.707C547.281 384.901 545.007 383.189 543.889 382.161C543.245 381.57 543.011 380.7 543.097 379.831L550.078 309.223M615.812 319.545C608.378 319.54 597.666 319.019 584.064 317.019C569.347 314.855 557.768 311.719 550.078 309.223M559.44 292.666C558.716 293.165 558.082 293.336 557.592 293.207C571.568 299.827 596.577 304.24 614.598 302.401C613.249 301.42 609.627 287.322 609.449 278.495C609.293 270.767 610.219 259.465 612.887 249.312C613.103 248.492 613.33 247.679 613.568 246.877M559.44 292.666C562.16 290.793 566.157 284.294 568.625 271.659C571.751 255.659 573.568 242.159 571 228.659C569.391 220.2 547.5 183.659 555.5 172.159C563.5 160.659 651.373 175.413 654.687 187.286C658 199.159 628.839 219.593 619.276 233.936C616.891 237.514 615.015 242.012 613.568 246.877M559.44 292.666C548.994 291.969 542.116 292.428 541.834 294.16C541.35 297.124 560.375 302.694 584.326 306.601C608.278 310.508 628.086 311.272 628.57 308.308C628.833 306.694 623.306 304.305 614.347 301.834M613.568 246.877C619.425 245.831 636.083 247.098 655.487 250.263C679.438 254.17 698.503 259.49 698.07 262.147C697.637 264.803 677.869 263.789 653.918 259.882C633.889 256.615 617.278 252.36 612.626 249.5M647.178 192.216C646.556 196.032 626.635 195.958 602.683 192.051C578.732 188.144 559.82 181.883 560.442 178.068C561.065 174.252 580.986 174.326 604.937 178.233C628.889 182.14 647.801 188.401 647.178 192.216Z" stroke="black" stroke-width="2"/>
<path d="M494 464C494 464 453.377 494 384.5 494C315.623 494 275 464 275 464" stroke="black" stroke-width="2"/>
<path d="M442 207C442 207 423 222 384 222C345 222 326 207 326 207" stroke="black" stroke-width="2"/>
<g filter="url(#filter11_b_520_56245)">
<mask id="path-111-inside-1_520_56245" fill="white">
<path fill-rule="evenodd" clip-rule="evenodd" d="M322.794 107.906C318.928 107.906 315.794 104.772 315.794 100.906V92.9998C315.794 89.1338 318.928 85.9998 322.794 85.9998H447.001C450.867 85.9998 454.001 89.1338 454.001 92.9998V100.906C454.001 104.772 450.867 107.906 447.001 107.906H445.624C444.175 107.906 443 109.081 443 110.53V210.585C443 210.758 443.017 210.931 443.051 211.101L467.514 333.176L494.105 461.045C494.118 461.111 494.198 461.139 494.249 461.095C494.301 461.052 494.38 461.079 494.394 461.145L518.231 570.236L521.404 586.172C533.341 637.953 504.035 691.001 453.692 691.001H386.927H316.308C265.973 691.001 237.668 637.968 249.591 586.193L252.764 570.236L274.563 461.192C274.58 461.106 274.684 461.07 274.751 461.126C274.788 461.157 274.844 461.138 274.854 461.09L326.551 203.108C326.569 203.017 326.592 202.928 326.619 202.841C326.784 202.312 327 201.783 327 201.229V110.53C327 109.081 325.825 107.906 324.376 107.906H322.794Z"/>
</mask>
<path d="M467.514 333.176L465.553 333.569L465.554 333.576L465.556 333.583L467.514 333.176ZM518.231 570.236L520.193 569.845L520.189 569.827L520.185 569.809L518.231 570.236ZM521.404 586.172L519.442 586.563L519.448 586.592L519.455 586.622L521.404 586.172ZM249.591 586.193L251.54 586.642L251.547 586.612L251.553 586.583L249.591 586.193ZM252.764 570.236L250.802 569.844L250.802 569.846L252.764 570.236ZM326.551 203.108L324.59 202.716L326.551 203.108ZM326.619 202.841L324.71 202.245L326.619 202.841ZM443.051 211.101L441.09 211.494L443.051 211.101ZM274.563 461.192L276.524 461.585L274.563 461.192ZM494.394 461.145L492.44 461.572L494.394 461.145ZM274.854 461.09L272.893 460.698L274.854 461.09ZM494.105 461.045L496.063 460.638L494.105 461.045ZM313.794 100.906C313.794 105.877 317.823 109.906 322.794 109.906V105.906C320.032 105.906 317.794 103.668 317.794 100.906H313.794ZM313.794 92.9998V100.906H317.794V92.9998H313.794ZM322.794 83.9998C317.823 83.9998 313.794 88.0292 313.794 92.9998H317.794C317.794 90.2383 320.032 87.9998 322.794 87.9998V83.9998ZM447.001 83.9998H322.794V87.9998H447.001V83.9998ZM456.001 92.9998C456.001 88.0292 451.971 83.9998 447.001 83.9998V87.9998C449.762 87.9998 452.001 90.2383 452.001 92.9998H456.001ZM456.001 100.906V92.9998H452.001V100.906H456.001ZM447.001 109.906C451.971 109.906 456.001 105.877 456.001 100.906H452.001C452.001 103.668 449.762 105.906 447.001 105.906V109.906ZM445.624 109.906H447.001V105.906H445.624V109.906ZM445 210.585V110.53H441V210.585H445ZM469.475 332.783L445.012 210.708L441.09 211.494L465.553 333.569L469.475 332.783ZM496.063 460.638L469.472 332.768L465.556 333.583L492.147 461.452L496.063 460.638ZM520.185 569.809L496.348 460.718L492.44 461.572L516.277 570.663L520.185 569.809ZM523.365 585.782L520.193 569.845L516.27 570.626L519.442 586.563L523.365 585.782ZM453.692 693.001C479.649 693.001 500.166 679.297 512.607 659.051C525.027 638.84 529.431 612.091 523.353 585.723L519.455 586.622C525.313 612.034 521.034 637.699 509.199 656.957C497.386 676.181 478.078 689.001 453.692 689.001V693.001ZM386.927 693.001H453.692V689.001H386.927V693.001ZM316.308 693.001H386.927V689.001H316.308V693.001ZM247.642 585.744C241.574 612.095 245.723 638.834 257.889 659.044C270.08 679.294 290.349 693.001 316.308 693.001V689.001C291.931 689.001 272.881 676.191 261.316 656.981C249.728 637.731 245.685 612.066 251.54 586.642L247.642 585.744ZM250.802 569.846L247.63 585.803L251.553 586.583L254.725 570.626L250.802 569.846ZM272.602 460.8L250.802 569.844L254.725 570.628L276.524 461.585L272.602 460.8ZM324.59 202.716L272.893 460.698L276.815 461.483L328.512 203.501L324.59 202.716ZM324.71 202.245C324.662 202.399 324.622 202.556 324.59 202.716L328.512 203.501C328.516 203.479 328.522 203.457 328.528 203.437L324.71 202.245ZM325 110.53V201.229H329V110.53H325ZM322.794 109.906H324.376V105.906H322.794V109.906ZM329 110.53C329 107.977 326.93 105.906 324.376 105.906V109.906C324.721 109.906 325 110.186 325 110.53H329ZM328.528 203.437C328.618 203.148 329 202.181 329 201.229H325C325 201.251 324.995 201.326 324.945 201.507C324.92 201.596 324.889 201.694 324.848 201.821C324.811 201.934 324.757 202.094 324.71 202.245L328.528 203.437ZM441 210.585C441 210.89 441.03 211.195 441.09 211.494L445.012 210.708C445.004 210.668 445 210.627 445 210.585H441ZM276.524 461.585C276.243 462.99 274.559 463.579 273.463 462.656L276.04 459.597C274.809 458.56 272.917 459.222 272.602 460.8L276.524 461.585ZM495.537 462.626C494.438 463.55 492.748 462.978 492.44 461.572L496.348 460.718C496.012 459.18 494.163 458.554 492.962 459.565L495.537 462.626ZM273.465 462.658C274.666 463.666 276.507 463.02 276.815 461.483L272.893 460.698C273.182 459.255 274.911 458.649 276.037 459.595L273.465 462.658ZM492.147 461.452C492.468 462.999 494.325 463.645 495.537 462.626L492.962 459.565C494.07 458.633 495.769 459.224 496.063 460.638L492.147 461.452ZM445.624 105.906C443.07 105.906 441 107.977 441 110.53H445C445 110.186 445.28 109.906 445.624 109.906V105.906Z" fill="black" mask="url(#path-111-inside-1_520_56245)"/>
</g>
</g>
<defs>
<filter id="filter0_f_520_56245" x="396" y="133" width="430" height="655" filterUnits="userSpaceOnUse" color-interpolation-filters="sRGB">
<feFlood flood-opacity="0" result="BackgroundImageFix"/>
<feBlend mode="normal" in="SourceGraphic" in2="BackgroundImageFix" result="shape"/>
<feGaussianBlur stdDeviation="2" result="effect1_foregroundBlur_520_56245"/>
</filter>
<filter id="filter1_f_520_56245" x="251.632" y="-194.676" width="1219.39" height="1498.73" filterUnits="userSpaceOnUse" color-interpolation-filters="sRGB">
<feFlood flood-opacity="0" result="BackgroundImageFix"/>
<feBlend mode="normal" in="SourceGraphic" in2="BackgroundImageFix" result="shape"/>
<feGaussianBlur stdDeviation="5" result="effect1_foregroundBlur_520_56245"/>
</filter>
<filter id="filter2_f_520_56245" x="-151.4" y="-92.0779" width="1053.19" height="398.894" filterUnits="userSpaceOnUse" color-interpolation-filters="sRGB">
<feFlood flood-opacity="0" result="BackgroundImageFix"/>
<feBlend mode="normal" in="SourceGraphic" in2="BackgroundImageFix" result="shape"/>
<feGaussianBlur stdDeviation="10" result="effect1_foregroundBlur_520_56245"/>
</filter>
<filter id="filter3_b_520_56245" x="250" y="183" width="268" height="335" filterUnits="userSpaceOnUse" color-interpolation-filters="sRGB">
<feFlood flood-opacity="0" result="BackgroundImageFix"/>
<feGaussianBlur in="BackgroundImage" stdDeviation="12"/>
<feComposite in2="SourceAlpha" operator="in" result="effect1_backgroundBlur_520_56245"/>
<feBlend mode="normal" in="SourceGraphic" in2="effect1_backgroundBlur_520_56245" result="shape"/>
</filter>
<filter id="filter4_d_520_56245" x="241.502" y="463.077" width="289.996" height="239.423" filterUnits="userSpaceOnUse" color-interpolation-filters="sRGB">
<feFlood flood-opacity="0" result="BackgroundImageFix"/>
<feColorMatrix in="SourceAlpha" type="matrix" values="0 0 0 0 0 0 0 0 0 0 0 0 0 0 0 0 0 0 127 0" result="hardAlpha"/>
<feOffset dx="1" dy="6"/>
<feGaussianBlur stdDeviation="3"/>
<feComposite in2="hardAlpha" operator="out"/>
<feColorMatrix type="matrix" values="0 0 0 0 0 0 0 0 0 0 0 0 0 0 0 0 0 0 0.25 0"/>
<feBlend mode="normal" in2="BackgroundImageFix" result="effect1_dropShadow_520_56245"/>
<feBlend mode="normal" in="SourceGraphic" in2="effect1_dropShadow_520_56245" result="shape"/>
</filter>
<filter id="filter5_f_520_56245" x="232.038" y="441" width="374" height="374" filterUnits="userSpaceOnUse" color-interpolation-filters="sRGB">
<feFlood flood-opacity="0" result="BackgroundImageFix"/>
<feBlend mode="normal" in="SourceGraphic" in2="BackgroundImageFix" result="shape"/>
<feGaussianBlur stdDeviation="2" result="effect1_foregroundBlur_520_56245"/>
</filter>
<filter id="filter6_f_520_56245" x="-30.9814" y="-209.413" width="1219.39" height="1498.73" filterUnits="userSpaceOnUse" color-interpolation-filters="sRGB">
<feFlood flood-opacity="0" result="BackgroundImageFix"/>
<feBlend mode="normal" in="SourceGraphic" in2="BackgroundImageFix" result="shape"/>
<feGaussianBlur stdDeviation="5" result="effect1_foregroundBlur_520_56245"/>
</filter>
<filter id="filter7_f_520_56245" x="246.127" y="55.5437" width="374" height="374" filterUnits="userSpaceOnUse" color-interpolation-filters="sRGB">
<feFlood flood-opacity="0" result="BackgroundImageFix"/>
<feBlend mode="normal" in="SourceGraphic" in2="BackgroundImageFix" result="shape"/>
<feGaussianBlur stdDeviation="2" result="effect1_foregroundBlur_520_56245"/>
</filter>
<filter id="filter8_f_520_56245" x="-16.8921" y="-594.869" width="1219.39" height="1498.73" filterUnits="userSpaceOnUse" color-interpolation-filters="sRGB">
<feFlood flood-opacity="0" result="BackgroundImageFix"/>
<feBlend mode="normal" in="SourceGraphic" in2="BackgroundImageFix" result="shape"/>
<feGaussianBlur stdDeviation="5" result="effect1_foregroundBlur_520_56245"/>
</filter>
<filter id="filter9_f_520_56245" x="307.128" y="-112.333" width="374" height="374" filterUnits="userSpaceOnUse" color-interpolation-filters="sRGB">
<feFlood flood-opacity="0" result="BackgroundImageFix"/>
<feBlend mode="normal" in="SourceGraphic" in2="BackgroundImageFix" result="shape"/>
<feGaussianBlur stdDeviation="2" result="effect1_foregroundBlur_520_56245"/>
</filter>
<filter id="filter10_f_520_56245" x="44.1089" y="-762.746" width="1219.39" height="1498.73" filterUnits="userSpaceOnUse" color-interpolation-filters="sRGB">
<feFlood flood-opacity="0" result="BackgroundImageFix"/>
<feBlend mode="normal" in="SourceGraphic" in2="BackgroundImageFix" result="shape"/>
<feGaussianBlur stdDeviation="5" result="effect1_foregroundBlur_520_56245"/>
</filter>
<filter id="filter11_b_520_56245" x="215.39" y="54.5111" width="340.159" height="667.978" filterUnits="userSpaceOnUse" color-interpolation-filters="sRGB">
<feFlood flood-opacity="0" result="BackgroundImageFix"/>
<feGaussianBlur in="BackgroundImage" stdDeviation="15.7443"/>
<feComposite in2="SourceAlpha" operator="in" result="effect1_backgroundBlur_520_56245"/>
<feBlend mode="normal" in="SourceGraphic" in2="effect1_backgroundBlur_520_56245" result="shape"/>
</filter>
<linearGradient id="paint0_linear_520_56245" x1="900.404" y1="1174.67" x2="1227.86" y2="1174.67" gradientUnits="userSpaceOnUse">
<stop offset="0.229167" stop-color="#E68A00"/>
<stop offset="0.479167" stop-color="#F1BC10"/>
</linearGradient>
<radialGradient id="paint1_radial_520_56245" cx="0" cy="0" r="1" gradientUnits="userSpaceOnUse" gradientTransform="translate(861.325 663.879) rotate(92.5586) scale(481.339 390.814)">
<stop offset="0.479167" stop-color="white" stop-opacity="0.75"/>
<stop offset="1" stop-color="white" stop-opacity="0"/>
</radialGradient>
<radialGradient id="paint2_radial_520_56245" cx="0" cy="0" r="1" gradientUnits="userSpaceOnUse" gradientTransform="translate(508.59 440) rotate(136.943) scale(336.885 434.637)">
<stop stop-color="#FF0000"/>
<stop offset="0.530354" stop-color="#FFE925"/>
<stop offset="1" stop-color="#289B04"/>
</radialGradient>
<linearGradient id="paint3_linear_520_56245" x1="670.038" y1="1032" x2="954.038" y2="1032" gradientUnits="userSpaceOnUse">
<stop stop-color="#E68A00"/>
<stop offset="0.464789" stop-color="#BF9F35"/>
<stop offset="1" stop-color="#E68A00"/>
</linearGradient>
<radialGradient id="paint4_radial_520_56245" cx="0" cy="0" r="1" gradientUnits="userSpaceOnUse" gradientTransform="translate(578.712 649.142) rotate(92.5586) scale(481.339 390.814)">
<stop offset="0.479167" stop-color="white" stop-opacity="0.75"/>
<stop offset="1" stop-color="white" stop-opacity="0"/>
</radialGradient>
<radialGradient id="paint5_radial_520_56245" cx="0" cy="0" r="1" gradientUnits="userSpaceOnUse" gradientTransform="translate(435.547 95.3186) rotate(132.639) scale(152.178 196.119)">
<stop stop-color="#FF0000"/>
<stop offset="0.530354" stop-color="#FFE925"/>
<stop offset="1" stop-color="#6DF244"/>
</radialGradient>
<linearGradient id="paint6_linear_520_56245" x1="684.127" y1="646.544" x2="968.127" y2="646.544" gradientUnits="userSpaceOnUse">
<stop stop-color="#E68A00"/>
<stop offset="0.464789" stop-color="#BF9F35"/>
<stop offset="1" stop-color="#E68A00"/>
</linearGradient>
<radialGradient id="paint7_radial_520_56245" cx="0" cy="0" r="1" gradientUnits="userSpaceOnUse" gradientTransform="translate(592.801 263.685) rotate(92.5586) scale(481.339 390.814)">
<stop offset="0.479167" stop-color="white" stop-opacity="0.75"/>
<stop offset="1" stop-color="white" stop-opacity="0"/>
</radialGradient>
<linearGradient id="paint8_linear_520_56245" x1="745.128" y1="478.667" x2="1029.13" y2="478.667" gradientUnits="userSpaceOnUse">
<stop stop-color="#E68A00"/>
<stop offset="0.464789" stop-color="#BF9F35"/>
<stop offset="1" stop-color="#E68A00"/>
</linearGradient>
<radialGradient id="paint9_radial_520_56245" cx="0" cy="0" r="1" gradientUnits="userSpaceOnUse" gradientTransform="translate(653.802 95.8084) rotate(92.5586) scale(481.339 390.814)">
<stop offset="0.479167" stop-color="white" stop-opacity="0.75"/>
<stop offset="1" stop-color="white" stop-opacity="0"/>
</radialGradient>
<clipPath id="clip0_520_56245">
<rect width="768" height="770" fill="white"/>
</clipPath>
</defs>

    
<path d="M441.159 206.769L450.076 250.217C446.589 249.622 442.962 248.936 439.252 248.234C408.22 242.363 371.387 235.395 362.064 271.5C357.993 287.264 363.891 296.694 369.628 305.87C375.167 314.727 380.557 323.346 376.689 337.193C371.981 354.047 346.388 364.964 325.805 357.656C304.062 349.936 305.59 317.96 318.087 302.48C330.583 287 332.39 263.382 330.583 247.669C329.71 240.075 325.959 234.645 321.053 230.95L326.178 206C326.252 206.147 326.349 206.284 326.47 206.405C329.4 209.365 344.004 221.688 384 221.688C422.526 221.688 437.492 210.254 441.159 206.769Z" fill="url(#paint0_radial_461_73429)"/>
<mask id="mask0_461_73429" style="mask-type:alpha" maskUnits="userSpaceOnUse" x="309" y="206" width="142" height="154">
<path d="M441.159 206.769L450.076 250.217C446.589 249.622 442.962 248.936 439.252 248.234C408.22 242.363 371.387 235.395 362.064 271.5C357.993 287.264 363.891 296.694 369.628 305.87C375.167 314.727 380.557 323.346 376.689 337.193C371.981 354.047 346.388 364.964 325.805 357.656C304.062 349.936 305.59 317.96 318.087 302.48C330.583 287 332.39 263.382 330.583 247.669C329.71 240.075 325.959 234.645 321.053 230.95L326.178 206C326.252 206.147 326.349 206.284 326.47 206.405C329.4 209.365 344.004 221.688 384 221.688C422.526 221.688 437.492 210.254 441.159 206.769Z" fill="url(#paint1_radial_461_73429)"/>
</mask>
<g mask="url(#mask0_461_73429)">
<g filter="url(#filter0_f_461_73429)">
<mask id="mask1_461_73429" style="mask-type:alpha" maskUnits="userSpaceOnUse" x="274" y="207" width="220" height="288">
<path d="M326.645 208.597C326.836 207.667 327.654 207 328.604 207H439.396C440.346 207 441.164 207.667 441.355 208.597L493.699 463.342C493.877 464.211 493.468 465.089 492.676 465.489C484.111 469.816 435.292 493.314 384 493.994C332.606 494.676 283.694 469.968 275.273 465.497C274.504 465.088 274.119 464.228 274.295 463.375L326.645 208.597Z" fill="#577096" fill-opacity="0.75"/>
</mask>
<g mask="url(#mask1_461_73429)">
<g filter="url(#filter1_f_461_73429)">
<path d="M454.675 167C462.701 241.961 320.236 290.9 248 306L248 167L454.675 167Z" fill="url(#paint2_linear_461_73429)" fill-opacity="0.5"/>
</g>
<g filter="url(#filter2_f_461_73429)">
<path d="M341.008 274.947C343.339 230.439 295.068 189.11 282.906 147.014C292.691 143.062 316.087 155.333 335.012 167.04C358.668 181.673 357.402 239.449 361.234 276.006C364.299 305.252 325.749 490.207 316.009 529.88L289.022 528.466C307.731 471.07 339.209 309.296 341.008 274.947Z" fill="url(#paint3_linear_461_73429)" fill-opacity="0.6"/>
</g>
</g>
</g>
</g>
<defs>
<filter id="filter0_f_461_73429" x="269" y="202" width="230" height="297.008" filterUnits="userSpaceOnUse" color-interpolation-filters="sRGB">
<feFlood flood-opacity="0" result="BackgroundImageFix"/>
<feBlend mode="normal" in="SourceGraphic" in2="BackgroundImageFix" result="shape"/>
<feGaussianBlur stdDeviation="2.5" result="effect1_foregroundBlur_461_73429"/>
</filter>
<filter id="filter1_f_461_73429" x="246" y="165" width="211" height="143" filterUnits="userSpaceOnUse" color-interpolation-filters="sRGB">
<feFlood flood-opacity="0" result="BackgroundImageFix"/>
<feBlend mode="normal" in="SourceGraphic" in2="BackgroundImageFix" result="shape"/>
<feGaussianBlur stdDeviation="1" result="effect1_foregroundBlur_461_73429"/>
</filter>
<filter id="filter2_f_461_73429" x="280.906" y="144.259" width="82.5006" height="387.621" filterUnits="userSpaceOnUse" color-interpolation-filters="sRGB">
<feFlood flood-opacity="0" result="BackgroundImageFix"/>
<feBlend mode="normal" in="SourceGraphic" in2="BackgroundImageFix" result="shape"/>
<feGaussianBlur stdDeviation="1" result="effect1_foregroundBlur_461_73429"/>
</filter>
<radialGradient id="paint0_radial_461_73429" cx="0" cy="0" r="1" gradientUnits="userSpaceOnUse" gradientTransform="translate(342.05 239.4) rotate(53.1177) scale(82.9829 88.352)">
<stop offset="0.203125" style="stop-color: #21F6EA;"/>
<stop offset="0.890625" style="stop-color: #2183F6;"/>
</radialGradient>
<radialGradient id="paint1_radial_461_73429" cx="0" cy="0" r="1" gradientUnits="userSpaceOnUse" gradientTransform="translate(342.05 239.4) rotate(53.1177) scale(82.9829 88.352)">
<stop offset="0.203125" style="stop-color=#21F6EA;"/>
<stop offset="0.890625" style="stop-color=#2183F6;"/>
</radialGradient>
<linearGradient id="paint2_linear_461_73429" x1="318.643" y1="269.919" x2="341.934" y2="158.629" gradientUnits="userSpaceOnUse">
<stop stop-color="white" stop-opacity="0"/>
<stop offset="0.471361" stop-color="white"/>
<stop offset="1" stop-color="white"/>
</linearGradient>
<linearGradient id="paint3_linear_461_73429" x1="352.686" y1="484.803" x2="443.145" y2="390.584" gradientUnits="userSpaceOnUse">
<stop stop-color="#F2F2F2"/>
<stop offset="0.0001" stop-color="#F2F2F2"/>
<stop offset="0.0520833" stop-color="#F2F2F2" stop-opacity="0.948011"/>
<stop offset="1" stop-color="#F2F2F2" stop-opacity="0"/>
</linearGradient>
</defs>

    
<path d="M390 287.263C390 280.762 394.476 267.81 412.378 268.002C430.28 268.195 434.914 280.923 434.993 287.263C435.152 291.917 432.47 301.997 420.472 305.079C405.474 308.931 390 300.264 390 287.263Z" fill="url(#paint0_radial_461_73430)"/>
<defs>
<radialGradient id="paint0_radial_461_73430" cx="0" cy="0" r="1" gradientUnits="userSpaceOnUse" gradientTransform="translate(400.542 276.244) rotate(45.8803) scale(22.82 25.2937)">
<stop offset="0.203125" style="stop-color: #FF00D6;"/>
<stop offset="0.890625" style="stop-color: #D700B4;"/>
</radialGradient>
</defs>

    
<path d="M469.69 343.667L480.179 394.773C476.011 399.702 469.836 404.033 460.881 406.303C432.885 413.399 404 397.433 404 373.484C404 361.509 412.354 337.649 445.772 338.004C455.848 338.111 463.672 340.317 469.69 343.667Z" fill="url(#paint0_radial_461_73431)"/>
<defs>
<radialGradient id="paint0_radial_461_73431" cx="0" cy="0" r="1" gradientUnits="userSpaceOnUse" gradientTransform="translate(421.846 353.185) rotate(48.2936) scale(40.4221 44.5291)">
<stop offset="0.203125" style="stop-color: #FFB800;"/>
<stop offset="0.890625" style="stop-color: #FF7800;"/>
</radialGradient>
</defs>

    
    
    </svg>
  