
    <svg width="768" height="768" viewBox="0 0 768 768" fill="none" xmlns="http://www.w3.org/2000/svg">
    
  <g clip-path="url(#clip0_28_300)">
  <g filter="url(#filter0_f_28_300)">
  <rect x="768.175" y="768.098" width="768" height="768" transform="rotate(-180 768.175 768.098)" fill="#0E103E"/>
  </g>
  <g style="mix-blend-mode:overlay" filter="url(#filter1_f_28_300)">
  <ellipse rx="593.439" ry="203.604" transform="matrix(0.999998 0.00221055 0.00221055 -0.999998 387.803 801.321)" fill="url(#paint0_radial_28_300)"/>
  </g>
  <g style="mix-blend-mode:overlay" filter="url(#filter2_f_28_300)">
  <ellipse cx="382.674" cy="291.953" rx="599.693" ry="739.366" transform="rotate(0.126655 382.674 291.953)" fill="url(#paint1_radial_28_300)"/>
  </g>
  <g opacity="0.6">
  <circle cx="46.8207" cy="172.561" r="2.56046" fill="white"/>
  <circle cx="470.283" cy="544.674" r="2.56046" transform="rotate(165 470.283 544.674)" fill="white"/>
  <circle cx="714.345" cy="248.295" r="2.56046" transform="rotate(75 714.345 248.295)" fill="white"/>
  <circle cx="746.136" cy="274.136" r="2.56046" transform="rotate(75 746.136 274.136)" fill="white"/>
  <circle cx="708.136" cy="181.136" r="2.56046" transform="rotate(75 708.136 181.136)" fill="white"/>
  <circle cx="344.674" cy="321.966" r="2.56046" transform="rotate(75 344.674 321.966)" fill="white"/>
  <circle cx="584.674" cy="312.966" r="2.56046" transform="rotate(75 584.674 312.966)" fill="white"/>
  <circle cx="19.1358" cy="66.1359" r="2.56046" transform="rotate(75 19.1358 66.1359)" fill="white"/>
  <circle cx="141.388" cy="259.616" r="2.56046" fill="white"/>
  <circle cx="356.408" cy="485.061" r="2.56046" transform="rotate(165 356.408 485.061)" fill="white"/>
  <circle cx="654.731" cy="362.171" r="2.56046" transform="rotate(75 654.731 362.171)" fill="white"/>
  <circle cx="285.06" cy="435.842" r="2.56046" transform="rotate(75 285.06 435.842)" fill="white"/>
  <circle cx="525.06" cy="426.842" r="2.56046" transform="rotate(75 525.06 426.842)" fill="white"/>
  <circle cx="89.0601" cy="205.842" r="2.56046" transform="rotate(75 89.0601 205.842)" fill="white"/>
  <circle cx="128.073" cy="174.95" r="2.56046" fill="white"/>
  <circle cx="391.181" cy="563.395" r="2.56046" transform="rotate(165 391.181 563.395)" fill="white"/>
  <circle cx="733.065" cy="327.397" r="2.56046" transform="rotate(75 733.065 327.397)" fill="white"/>
  <circle cx="363.395" cy="401.068" r="2.56046" transform="rotate(75 363.395 401.068)" fill="white"/>
  <circle cx="603.394" cy="392.068" r="2.56046" transform="rotate(75 603.394 392.068)" fill="white"/>
  <circle cx="645.136" cy="428.136" r="2.56046" transform="rotate(75 645.136 428.136)" fill="white"/>
  <circle cx="147.136" cy="223.136" r="2.56046" transform="rotate(75 147.136 223.136)" fill="white"/>
  <circle cx="37.9443" cy="372.618" r="2.56046" fill="white"/>
  <circle cx="427.079" cy="349.136" r="2.56046" transform="rotate(165 427.079 349.136)" fill="white"/>
  <circle cx="518.807" cy="291.5" r="2.56046" transform="rotate(75 518.807 291.5)" fill="white"/>
  <circle cx="149.136" cy="365.17" r="2.56046" transform="rotate(75 149.136 365.17)" fill="white"/>
  <circle cx="389.136" cy="356.17" r="2.56046" transform="rotate(75 389.136 356.17)" fill="white"/>
  <circle cx="7.56046" cy="350.428" r="2.56046" fill="white"/>
  <circle cx="462.171" cy="362.707" r="2.56046" transform="rotate(165 462.171 362.707)" fill="white"/>
  <circle cx="532.377" cy="256.408" r="2.56046" transform="rotate(75 532.377 256.408)" fill="white"/>
  <circle cx="162.706" cy="330.078" r="2.56046" transform="rotate(75 162.706 330.078)" fill="white"/>
  <circle cx="402.706" cy="321.078" r="2.56046" transform="rotate(75 402.706 321.078)" fill="white"/>
  <circle cx="114.758" cy="383.543" r="2.56046" fill="white"/>
  <circle cx="130.56" cy="421.561" r="2.56046" fill="white"/>
  <circle cx="350.055" cy="358.465" r="2.56046" transform="rotate(165 350.055 358.465)" fill="white"/>
  <circle cx="612.136" cy="666.136" r="2.56046" transform="rotate(75 612.136 666.136)" fill="white"/>
  <circle cx="158.464" cy="442.194" r="2.56046" transform="rotate(75 158.464 442.194)" fill="white"/>
  <circle cx="398.464" cy="433.194" r="2.56046" transform="rotate(75 398.464 433.194)" fill="white"/>
  <circle cx="20.1918" cy="199.189" r="2.56046" fill="white"/>
  <circle cx="489.113" cy="512.061" r="2.56046" transform="rotate(165 489.113 512.061)" fill="white"/>
  <circle cx="681.731" cy="229.465" r="2.56046" transform="rotate(75 681.731 229.465)" fill="white"/>
  <circle cx="470.136" cy="673.136" r="2.56046" transform="rotate(75 470.136 673.136)" fill="white"/>
  <circle cx="552.06" cy="294.136" r="2.56046" transform="rotate(75 552.06 294.136)" fill="white"/>
  <circle cx="22.1358" cy="27.1359" r="2.56046" transform="rotate(75 22.1358 27.1359)" fill="white"/>
  <circle cx="702.56" cy="507.561" r="2.56046" fill="white"/>
  <circle cx="477.831" cy="456.767" r="2.56046" transform="rotate(165 477.831 456.767)" fill="white"/>
  <circle cx="476.136" cy="155.136" r="2.56046" transform="rotate(75 476.136 155.136)" fill="white"/>
  <circle cx="256.766" cy="314.418" r="2.56046" transform="rotate(75 256.766 314.418)" fill="white"/>
  <circle cx="496.766" cy="305.418" r="2.56046" transform="rotate(75 496.766 305.418)" fill="white"/>
  <circle cx="60.7657" cy="84.4181" r="2.56046" transform="rotate(75 60.7657 84.4181)" fill="white"/>
  <circle cx="51.9413" cy="267.468" r="2.56046" fill="white"/>
  <circle cx="440.774" cy="454.326" r="2.56046" transform="rotate(165 440.774 454.326)" fill="white"/>
  <circle cx="623.996" cy="277.805" r="2.56046" transform="rotate(75 623.996 277.805)" fill="white"/>
  <circle cx="30.1358" cy="710.136" r="2.56046" transform="rotate(75 30.1358 710.136)" fill="white"/>
  <circle cx="494.325" cy="342.475" r="2.56046" transform="rotate(75 494.325 342.475)" fill="white"/>
  <circle cx="58.3252" cy="121.475" r="2.56046" transform="rotate(75 58.3252 121.475)" fill="white"/>
  <circle cx="94.5605" cy="134.561" r="2.56046" fill="white"/>
  <circle cx="108.56" cy="59.5605" r="2.56046" fill="white"/>
  <circle cx="152.56" cy="90.5605" r="2.56046" fill="white"/>
  <circle cx="178.56" cy="24.5605" r="2.56046" fill="white"/>
  <circle cx="600.56" cy="183.561" r="2.56046" fill="white"/>
  <circle cx="686.56" cy="78.5605" r="2.56046" fill="white"/>
  <circle cx="556.56" cy="120.561" r="2.56046" fill="white"/>
  <circle cx="546.56" cy="64.5605" r="2.56046" fill="white"/>
  <circle cx="366.56" cy="12.5605" r="2.56046" fill="white"/>
  <circle cx="293.56" cy="19.5605" r="2.56046" fill="white"/>
  <circle cx="298.56" cy="89.5605" r="2.56046" fill="white"/>
  <circle cx="198.56" cy="157.561" r="2.56046" fill="white"/>
  <circle cx="456.56" cy="38.5605" r="2.56046" fill="white"/>
  <circle cx="480.56" cy="103.56" r="2.56046" fill="white"/>
  <circle cx="534.56" cy="197.561" r="2.56046" fill="white"/>
  <circle cx="270.56" cy="157.561" r="2.56046" fill="white"/>
  <circle cx="236.56" cy="211.561" r="2.56046" fill="white"/>
  <circle cx="316.679" cy="584.772" r="2.56046" transform="rotate(165 316.679 584.772)" fill="white"/>
  <circle cx="754.442" cy="401.9" r="2.56046" transform="rotate(75 754.442 401.9)" fill="white"/>
  <circle cx="384.772" cy="475.571" r="2.56046" transform="rotate(75 384.772 475.571)" fill="white"/>
  <circle cx="624.771" cy="466.571" r="2.56046" transform="rotate(75 624.771 466.571)" fill="white"/>
  <circle cx="188.772" cy="245.571" r="2.56046" transform="rotate(75 188.772 245.571)" fill="white"/>
  <circle cx="20.5605" cy="122.561" r="2.56046" fill="white"/>
  <circle cx="276.976" cy="577.739" r="2.56046" transform="rotate(165 276.976 577.739)" fill="white"/>
  <circle cx="747.409" cy="441.602" r="2.56046" transform="rotate(75 747.409 441.602)" fill="white"/>
  <circle cx="251.136" cy="727.136" r="2.56046" transform="rotate(75 251.136 727.136)" fill="white"/>
  <circle cx="617.738" cy="506.273" r="2.56046" transform="rotate(75 617.738 506.273)" fill="white"/>
  <circle cx="676.136" cy="540.136" r="2.56046" transform="rotate(75 676.136 540.136)" fill="white"/>
  <circle cx="614.136" cy="557.136" r="2.56046" transform="rotate(75 614.136 557.136)" fill="white"/>
  <circle cx="526.136" cy="611.136" r="2.56046" transform="rotate(75 526.136 611.136)" fill="white"/>
  <circle cx="434.136" cy="406.136" r="2.56046" transform="rotate(75 434.136 406.136)" fill="white"/>
  <circle cx="318.136" cy="454.136" r="2.56046" transform="rotate(75 318.136 454.136)" fill="white"/>
  <circle cx="320.136" cy="536.136" r="2.56046" transform="rotate(75 320.136 536.136)" fill="white"/>
  <circle cx="206.136" cy="460.136" r="2.56046" transform="rotate(75 206.136 460.136)" fill="white"/>
  <circle cx="204.136" cy="404.136" r="2.56046" transform="rotate(75 204.136 404.136)" fill="white"/>
  <circle cx="181.738" cy="285.273" r="2.56046" transform="rotate(75 181.738 285.273)" fill="white"/>
  <circle cx="223.322" cy="285.904" r="2.56046" fill="white"/>
  <circle cx="270.461" cy="480.875" r="2.56046" transform="rotate(165 270.461 480.875)" fill="white"/>
  <circle cx="716.136" cy="584.136" r="2.56046" transform="rotate(75 716.136 584.136)" fill="white"/>
  <circle cx="688.136" cy="412.136" r="2.56046" transform="rotate(75 688.136 412.136)" fill="white"/>
  <circle cx="706.136" cy="372.136" r="2.56046" transform="rotate(75 706.136 372.136)" fill="white"/>
  <circle cx="626.136" cy="326.136" r="2.56046" transform="rotate(75 626.136 326.136)" fill="white"/>
  <circle cx="722.136" cy="708.136" r="2.56046" transform="rotate(75 722.136 708.136)" fill="white"/>
  <circle cx="561.136" cy="346.136" r="2.56046" transform="rotate(75 561.136 346.136)" fill="white"/>
  <circle cx="741.136" cy="200.136" r="2.56046" transform="rotate(75 741.136 200.136)" fill="white"/>
  <circle cx="749.136" cy="152.136" r="2.56046" transform="rotate(75 749.136 152.136)" fill="white"/>
  <circle cx="280.875" cy="521.788" r="2.56046" transform="rotate(75 280.875 521.788)" fill="white"/>
  <circle cx="520.874" cy="512.788" r="2.56046" transform="rotate(75 520.874 512.788)" fill="white"/>
  <circle cx="542.136" cy="475.136" r="2.56046" transform="rotate(75 542.136 475.136)" fill="white"/>
  <circle cx="486.136" cy="405.136" r="2.56046" transform="rotate(75 486.136 405.136)" fill="white"/>
  <circle cx="84.8745" cy="291.788" r="2.56046" transform="rotate(75 84.8745 291.788)" fill="white"/>
  <circle cx="102.56" cy="750.561" r="2.56046" fill="white"/>
  <circle cx="287.509" cy="411.275" r="2.56046" transform="rotate(165 287.509 411.275)" fill="white"/>
  <circle cx="580.945" cy="431.07" r="2.56046" transform="rotate(75 580.945 431.07)" fill="white"/>
  <circle cx="211.274" cy="504.741" r="2.56046" transform="rotate(75 211.274 504.741)" fill="white"/>
  <circle cx="451.274" cy="495.741" r="2.56046" transform="rotate(75 451.274 495.741)" fill="white"/>
  <circle cx="591.136" cy="739.136" r="2.56046" transform="rotate(75 591.136 739.136)" fill="white"/>
  <circle cx="175.185" cy="379.446" r="2.56046" fill="white"/>
  <circle cx="292.747" cy="378.061" r="2.56046" transform="rotate(165 292.747 378.061)" fill="white"/>
  <circle cx="547.731" cy="425.832" r="2.56046" transform="rotate(75 547.731 425.832)" fill="white"/>
  <circle cx="178.061" cy="499.502" r="2.56046" transform="rotate(75 178.061 499.502)" fill="white"/>
  <circle cx="418.06" cy="490.502" r="2.56046" transform="rotate(75 418.06 490.502)" fill="white"/>
  <circle cx="231.856" cy="348.038" r="2.56046" fill="white"/>
  <circle cx="246.136" cy="423.067" r="2.56046" transform="rotate(165 246.136 423.067)" fill="white"/>
  <circle cx="592.737" cy="472.442" r="2.56046" transform="rotate(75 592.737 472.442)" fill="white"/>
  <circle cx="223.066" cy="546.113" r="2.56046" transform="rotate(75 223.066 546.113)" fill="white"/>
  <circle cx="463.066" cy="537.113" r="2.56046" transform="rotate(75 463.066 537.113)" fill="white"/>
  <circle cx="27.0664" cy="316.113" r="2.56046" transform="rotate(75 27.0664 316.113)" fill="white"/>
  <path d="M560.414 384.828L559.492 382.336L557 381.414L559.492 380.492L560.414 378L561.336 380.492L563.828 381.414L561.336 382.336L560.414 384.828Z" fill="#FFF7B0"/>
  <path d="M194.859 358.828L193.937 356.336L191.446 355.414L193.937 354.492L194.859 352L195.782 354.492L198.273 355.414L195.782 356.336L194.859 358.828Z" fill="#FFF7B0"/>
  <path d="M117.859 149.828L116.937 147.336L114.446 146.414L116.937 145.492L117.859 143L118.782 145.492L121.273 146.414L118.782 147.336L117.859 149.828Z" fill="#FFF7B0"/>
  <path d="M744.414 104.828L743.492 102.336L741 101.414L743.492 100.492L744.414 98.0001L745.336 100.492L747.828 101.414L745.336 102.336L744.414 104.828Z" fill="#FFF7B0"/>
  <path d="M526.424 484.634L525.502 482.142L523.01 481.22L525.502 480.298L526.424 477.806L527.346 480.298L529.838 481.22L527.346 482.142L526.424 484.634Z" fill="#FFF7B0"/>
  <path d="M176.424 477.634L175.502 475.142L173.01 474.22L175.502 473.298L176.424 470.806L177.347 473.298L179.838 474.22L177.347 475.142L176.424 477.634Z" fill="#FFF7B0"/>
  <path d="M99.4244 268.634L98.5024 266.142L96.0105 265.22L98.5024 264.298L99.4244 261.806L100.347 264.298L102.838 265.22L100.347 266.142L99.4244 268.634Z" fill="#FFF7B0"/>
  <path d="M632.424 255.634L631.502 253.142L629.01 252.22L631.502 251.298L632.424 248.806L633.346 251.298L635.838 252.22L633.346 253.142L632.424 255.634Z" fill="#FFF7B0"/>
  <path d="M549.98 450.153L549.058 447.661L546.567 446.739L549.058 445.817L549.98 443.325L550.903 445.817L553.394 446.739L550.903 447.661L549.98 450.153Z" fill="#FFF7B0"/>
  <path d="M199.981 443.153L199.059 440.661L196.567 439.739L199.059 438.817L199.981 436.325L200.903 438.817L203.395 439.739L200.903 440.661L199.981 443.153Z" fill="#FFF7B0"/>
  <path d="M122.981 234.153L122.059 231.661L119.567 230.739L122.059 229.817L122.981 227.325L123.903 229.817L126.395 230.739L123.903 231.661L122.981 234.153Z" fill="#FFF7B0"/>
  <path d="M655.98 221.153L655.058 218.661L652.567 217.739L655.058 216.817L655.98 214.325L656.903 216.817L659.394 217.739L656.903 218.661L655.98 221.153Z" fill="#FFF7B0"/>
  <path d="M544.859 534.477L543.937 531.986L541.445 531.063L543.937 530.141L544.859 527.65L545.781 530.141L548.273 531.063L545.781 531.986L544.859 534.477Z" fill="#FFF7B0"/>
  <path d="M594.414 534.828L593.492 532.336L591 531.414L593.492 530.492L594.414 528L595.336 530.492L597.828 531.414L595.336 532.336L594.414 534.828Z" fill="#FFF7B0"/>
  <path d="M558.414 566.828L557.492 564.336L555 563.414L557.492 562.492L558.414 560L559.336 562.492L561.828 563.414L559.336 564.336L558.414 566.828Z" fill="#FFF7B0"/>
  <path d="M194.859 527.477L193.937 524.986L191.446 524.063L193.937 523.141L194.859 520.65L195.782 523.141L198.273 524.063L195.782 524.986L194.859 527.477Z" fill="#FFF7B0"/>
  <path d="M117.859 318.477L116.937 315.986L114.446 315.063L116.937 314.141L117.859 311.65L118.782 314.141L121.273 315.063L118.782 315.986L117.859 318.477Z" fill="#FFF7B0"/>
  <path d="M650.859 305.477L649.937 302.986L647.445 302.063L649.937 301.141L650.859 298.65L651.781 301.141L654.273 302.063L651.781 302.986L650.859 305.477Z" fill="#FFF7B0"/>
  <path d="M353.974 680.949L352.361 676.588L348 674.974L352.361 673.361L353.974 669L355.588 673.361L359.949 674.974L355.588 676.588L353.974 680.949Z" fill="#FFF7B0"/>
  <path d="M242.825 542.499L241.212 538.138L236.851 536.524L241.212 534.911L242.825 530.55L244.439 534.911L248.8 536.524L244.439 538.138L242.825 542.499Z" fill="#FFF7B0"/>
  <path d="M199.974 321.949L198.361 317.588L194 315.974L198.361 314.361L199.974 310L201.588 314.361L205.949 315.974L201.588 317.588L199.974 321.949Z" fill="#FFF7B0"/>
  <path d="M215.974 95.9487L214.361 91.5879L210 89.9743L214.361 88.3607L215.974 83.9999L217.588 88.3607L221.949 89.9743L217.588 91.5879L215.974 95.9487Z" fill="#FFF7B0"/>
  <path d="M682.974 459.949L681.36 455.588L677 453.974L681.36 452.361L682.974 448L684.588 452.361L688.948 453.974L684.588 455.588L682.974 459.949Z" fill="#FFF7B0"/>
  <path d="M485.628 437.521L484.014 433.16L479.653 431.546L484.014 429.933L485.628 425.572L487.241 429.933L491.602 431.546L487.241 433.16L485.628 437.521Z" fill="#FFF7B0"/>
  <path d="M143.974 665.949L142.361 661.588L138 659.974L142.361 658.361L143.974 654L145.588 658.361L149.949 659.974L145.588 661.588L143.974 665.949Z" fill="#FFF7B0"/>
  <path d="M58.6276 221.521L57.014 217.16L52.6532 215.546L57.014 213.933L58.6276 209.572L60.2413 213.933L64.6021 215.546L60.2413 217.16L58.6276 221.521Z" fill="#FFF7B0"/>
  <path d="M661.974 188.949L660.361 184.588L656 182.974L660.361 181.361L661.974 177L663.588 181.361L667.949 182.974L663.588 184.588L661.974 188.949Z" fill="#FFF7B0"/>
  <path d="M629.974 110.949L628.361 106.588L624 104.974L628.361 103.361L629.974 99L631.588 103.361L635.949 104.974L631.588 106.588L629.974 110.949Z" fill="#FFF7B0"/>
  <path d="M736.974 12.9487L735.361 8.58795L731 6.97431L735.361 5.36068L736.974 0.999899L738.588 5.36068L742.949 6.97432L738.588 8.58795L736.974 12.9487Z" fill="#FFF7B0"/>
  <path d="M580.877 501.02L579.263 496.66L574.903 495.046L579.263 493.432L580.877 489.072L582.491 493.432L586.851 495.046L582.491 496.66L580.877 501.02Z" fill="#FFF7B0"/>
  <path d="M640.974 586.949L639.361 582.588L635 580.974L639.361 579.361L640.974 575L642.588 579.361L646.949 580.974L642.588 582.588L640.974 586.949Z" fill="#FFF7B0"/>
  <path d="M580.974 624.949L579.361 620.588L575 618.974L579.361 617.361L580.974 613L582.588 617.361L586.949 618.974L582.588 620.588L580.974 624.949Z" fill="#FFF7B0"/>
  <path d="M230.877 494.02L229.264 489.66L224.903 488.046L229.264 486.432L230.877 482.072L232.491 486.432L236.852 488.046L232.491 489.66L230.877 494.02Z" fill="#FFF7B0"/>
  <path d="M35.9743 572.949L34.3607 568.588L29.9999 566.974L34.3607 565.361L35.9743 561L37.588 565.361L41.9487 566.974L37.588 568.588L35.9743 572.949Z" fill="#FFF7B0"/>
  <path d="M686.877 272.02L685.263 267.66L680.903 266.046L685.263 264.432L686.877 260.072L688.491 264.432L692.851 266.046L688.491 267.66L686.877 272.02Z" fill="#FFF7B0"/>
  <path d="M614.675 374.363L613.061 370.002L608.7 368.388L613.061 366.775L614.675 362.414L616.289 366.775L620.649 368.388L616.289 370.002L614.675 374.363Z" fill="#FFF7B0"/>
  <path d="M509.974 385.949L508.361 381.588L504 379.974L508.361 378.361L509.974 374L511.588 378.361L515.949 379.974L511.588 381.588L509.974 385.949Z" fill="#FFF7B0"/>
  <path d="M63.9743 517.949L62.3607 513.588L57.9999 511.974L62.3607 510.361L63.9743 506L65.588 510.361L69.9487 511.974L65.588 513.588L63.9743 517.949Z" fill="#FFF7B0"/>
  <path d="M161.974 599.949L160.36 595.588L156 593.974L160.36 592.361L161.974 588L163.588 592.361L167.948 593.974L163.588 595.588L161.974 599.949Z" fill="#FFF7B0"/>
  <path d="M82.9998 630L79.4886 620.511L69.9998 617L79.4886 613.489L82.9998 604L86.5109 613.489L95.9998 617L86.5109 620.511L82.9998 630Z" fill="#FFF7B0"/>
  <path d="M252 57L248.489 47.5112L239 44L248.489 40.4888L252 31L255.511 40.4888L265 44L255.511 47.5112L252 57Z" fill="#FFF7B0"/>
  <path d="M689 340L685.489 330.511L676 327L685.489 323.489L689 314L692.511 323.489L702 327L692.511 330.511L689 340Z" fill="#FFF7B0"/>
  <path d="M266.974 653.949L265.361 649.588L261 647.974L265.361 646.361L266.974 642L268.588 646.361L272.949 647.974L268.588 649.588L266.974 653.949Z" fill="#FFF7B0"/>
  <path d="M79.9743 407.949L78.3607 403.588L73.9999 401.974L78.3607 400.361L79.9743 396L81.588 400.361L85.9487 401.974L81.588 403.588L79.9743 407.949Z" fill="#FFF7B0"/>
  <path d="M720.675 145.363L719.061 141.002L714.7 139.388L719.061 137.775L720.675 133.414L722.289 137.775L726.649 139.388L722.289 141.002L720.675 145.363Z" fill="#FFF7B0"/>
  <path d="M614.974 41.9487L613.361 37.5879L609 35.9743L613.361 34.3607L614.974 29.9999L616.588 34.3607L620.949 35.9743L616.588 37.5879L614.974 41.9487Z" fill="#FFF7B0"/>
  <path d="M499.113 549.499L498.191 547.007L495.699 546.085L498.191 545.163L499.113 542.671L500.035 545.163L502.527 546.085L500.035 547.007L499.113 549.499Z" fill="#FFF7B0"/>
  <path d="M149.113 542.499L148.191 540.007L145.699 539.085L148.191 538.163L149.113 535.671L150.035 538.163L152.527 539.085L150.035 540.007L149.113 542.499Z" fill="#FFF7B0"/>
  <path d="M72.1129 333.499L71.1908 331.007L68.699 330.085L71.1908 329.163L72.1129 326.671L73.035 329.163L75.5269 330.085L73.035 331.007L72.1129 333.499Z" fill="#FFF7B0"/>
  <path d="M605.113 320.499L604.191 318.007L601.699 317.085L604.191 316.163L605.113 313.671L606.035 316.163L608.527 317.085L606.035 318.007L605.113 320.499Z" fill="#FFF7B0"/>
  <path d="M462.242 498.972L461.32 496.48L458.828 495.558L461.32 494.636L462.242 492.144L463.164 494.636L465.656 495.558L463.164 496.48L462.242 498.972Z" fill="#FFF7B0"/>
  <path d="M112.242 491.972L111.32 489.48L108.828 488.558L111.32 487.636L112.242 485.144L113.164 487.636L115.656 488.558L113.164 489.48L112.242 491.972Z" fill="#FFF7B0"/>
  <path d="M430.414 747.828L429.492 745.336L427 744.414L429.492 743.492L430.414 741L431.336 743.492L433.828 744.414L431.336 745.336L430.414 747.828Z" fill="#FFF7B0"/>
  <path d="M568.242 269.972L567.32 267.48L564.828 266.558L567.32 265.636L568.242 263.144L569.164 265.636L571.656 266.558L569.164 267.48L568.242 269.972Z" fill="#FFF7B0"/>
  <path d="M547.414 651.828L546.492 649.336L544 648.414L546.492 647.492L547.414 645L548.336 647.492L550.828 648.414L548.336 649.336L547.414 651.828Z" fill="#FFF7B0"/>
  <path d="M105.414 577.321L104.492 574.829L102 573.907L104.492 572.985L105.414 570.493L106.336 572.985L108.828 573.907L106.336 574.829L105.414 577.321Z" fill="#FFF7B0"/>
  <path d="M34.4142 451.828L33.4921 449.336L31.0002 448.414L33.4921 447.492L34.4142 445L35.3363 447.492L37.8281 448.414L35.3363 449.336L34.4142 451.828Z" fill="#FFF7B0"/>
  <path d="M585.414 351.828L584.492 349.336L582 348.414L584.492 347.492L585.414 345L586.336 347.492L588.828 348.414L586.336 349.336L585.414 351.828Z" fill="#FFF7B0"/>
  </g>
  </g>
  <defs>
  <filter id="filter0_f_28_300" x="-3.8252" y="-3.90161" width="776" height="776" filterUnits="userSpaceOnUse" color-interpolation-filters="sRGB">
  <feFlood flood-opacity="0" result="BackgroundImageFix"/>
  <feBlend mode="normal" in="SourceGraphic" in2="BackgroundImageFix" result="shape"/>
  <feGaussianBlur stdDeviation="2" result="effect1_foregroundBlur_28_300"/>
  </filter>
  <filter id="filter1_f_28_300" x="-215.634" y="587.714" width="1206.87" height="427.215" filterUnits="userSpaceOnUse" color-interpolation-filters="sRGB">
  <feFlood flood-opacity="0" result="BackgroundImageFix"/>
  <feBlend mode="normal" in="SourceGraphic" in2="BackgroundImageFix" result="shape"/>
  <feGaussianBlur stdDeviation="5" result="effect1_foregroundBlur_28_300"/>
  </filter>
  <filter id="filter2_f_28_300" x="-227.019" y="-457.413" width="1219.39" height="1498.73" filterUnits="userSpaceOnUse" color-interpolation-filters="sRGB">
  <feFlood flood-opacity="0" result="BackgroundImageFix"/>
  <feBlend mode="normal" in="SourceGraphic" in2="BackgroundImageFix" result="shape"/>
  <feGaussianBlur stdDeviation="5" result="effect1_foregroundBlur_28_300"/>
  </filter>
  <radialGradient id="paint0_radial_28_300" cx="0" cy="0" r="1" gradientUnits="userSpaceOnUse" gradientTransform="translate(593.439 233.672) rotate(99.1226) scale(134.113 382.227)">
  <stop stop-color="white" stop-opacity="0.75"/>
  <stop offset="1" stop-color="white" stop-opacity="0"/>
  </radialGradient>
  <radialGradient id="paint1_radial_28_300" cx="0" cy="0" r="1" gradientUnits="userSpaceOnUse" gradientTransform="translate(382.674 401.142) rotate(92.5586) scale(481.339 390.814)">
  <stop stop-color="white" stop-opacity="0.75"/>
  <stop offset="1" stop-color="white" stop-opacity="0"/>
  </radialGradient>
  <clipPath id="clip0_28_300">
  <rect width="768" height="768" fill="white"/>
  </clipPath>
  </defs>

    
  <g opacity="0.5" clip-path="url(#clip0_579_26007)">
  <g style="mix-blend-mode:overlay" opacity="0.5">
  <path d="M141.53 174.545C52.9594 115.349 265.37 7.11111 338.101 0H98.2851C25.9473 7.75758 5.24186 43.3131 3.9314 60.1212V201.697C24.2436 228.848 65.5721 282.466 194.604 316.121C365.62 360.727 571.867 274.072 501.254 174.545C446.214 96.9697 263.404 256 141.53 174.545Z" fill="white"/>
  </g>
  <g style="mix-blend-mode:overlay" opacity="0.5">
  <path fill-rule="evenodd" clip-rule="evenodd" d="M420.66 1.93945C362.999 14.2223 257.114 64.0001 294.855 87.2728C312.124 97.9212 348.355 97.9158 390.92 97.9095C464.641 97.8985 557.362 97.8847 603.47 153.212C678.095 242.757 619.196 384 438.351 440.242C435.831 441.026 433.295 441.815 430.746 442.607C250.411 498.667 2.21345 575.823 147.428 649.697C192.313 672.531 242.202 655.866 293.793 638.632C386.802 607.562 485.34 574.645 570.053 768H727.31C615.265 694.303 625.679 550.822 697.824 515.879C780.245 475.959 781.321 398.093 774.361 342.428C772.192 325.076 771.275 309.882 772.521 298.667L788.246 1.93945H420.66ZM570.053 459.636C543.32 501.527 446.214 524.929 401.003 531.394C363.655 576 454.077 556.606 467.837 544.97C481.597 533.333 509.117 560.485 516.979 597.333C524.842 634.182 591.676 628.364 587.745 597.333C583.813 566.303 583.813 531.394 629.024 496.485C674.236 461.576 603.47 407.273 570.053 459.636Z" fill="white"/>
  </g>
  <g style="mix-blend-mode:overlay" opacity="0.5">
  <path d="M163.153 391.757C245.713 391.757 241.781 457.697 163.153 471.272C86.2868 484.544 1.90595 507.546 5.32866e-05 548.433L5.3525e-05 551.272C-0.0439868 550.316 -0.0436258 549.37 5.32866e-05 548.433L3.61204e-05 349.091C31.7228 366.796 104.032 391.757 163.153 391.757Z" fill="white"/>
  </g>
  </g>
  <defs>
  <clipPath id="clip0_579_26007">
  <rect width="768" height="768" fill="white"/>
  </clipPath>
  </defs>

    
<g filter="url(#filter0_b_363_5709)">
<path d="M326.178 207L274.042 460.841C273.886 461.6 274.171 462.37 274.808 462.812C281.654 467.568 322.472 494 384 494C445.528 494 486.346 467.568 493.192 462.812C493.829 462.37 494.114 461.6 493.958 460.841L441.822 207C441.748 207.147 441.651 207.284 441.53 207.405C438.6 210.365 423.996 222.688 384 222.688C344.004 222.688 329.4 210.365 326.47 207.405C326.349 207.284 326.252 207.147 326.178 207Z" fill="white" fill-opacity="0.75"/>
</g>
<path d="M341.559 135.914C349.139 107.438 355.252 71 383.528 71C411.805 71 421.711 116.115 426.441 136.608C430.663 154.896 439.74 196.441 441.645 205.17C441.874 206.22 441.62 207.277 440.837 208.014C436.837 211.781 421.752 223 384 223C346.108 223 331.052 211.697 327.119 207.973C326.364 207.258 326.106 206.237 326.301 205.216C327.821 197.275 334.846 161.132 341.559 135.914Z" fill="black"/>
<path d="M341.559 135.914C349.139 107.438 355.252 71 383.528 71C411.805 71 421.711 116.115 426.441 136.608C430.663 154.896 439.74 196.441 441.645 205.17C441.874 206.22 441.62 207.277 440.837 208.014C436.837 211.781 421.752 223 384 223C346.108 223 331.052 211.697 327.119 207.973C326.364 207.258 326.106 206.237 326.301 205.216C327.821 197.275 334.846 161.132 341.559 135.914Z" fill="url(#paint0_linear_363_5709)" fill-opacity="0.45"/>
<path d="M501 690.593L443.328 624H378.569H314.199L257 690.593C257 690.593 295.799 734.5 379 734.5C462.201 734.5 501 690.593 501 690.593Z" fill="black"/>
<path d="M273.83 461C273.83 461 325 493 384.5 493C444 493 494.17 461 494.17 461C501.901 493.924 517.919 578.176 491.043 620.86C457.218 674.578 401.341 693 384 693C366.659 693 310.782 674.578 276.957 620.86C250.081 578.176 266.099 493.924 273.83 461Z" fill="#6DF244"/>
<path d="M273.83 461C273.83 461 325 493 384.5 493C444 493 494.17 461 494.17 461C501.901 493.924 517.919 578.176 491.043 620.86C457.218 674.578 401.341 693 384 693C366.659 693 310.782 674.578 276.957 620.86C250.081 578.176 266.099 493.924 273.83 461Z" fill="url(#paint1_linear_363_5709)" fill-opacity="0.8"/>
<path d="M341.559 135.914C349.139 107.438 355.252 71 383.528 71C411.805 71 421.711 116.115 426.441 136.608C430.663 154.896 439.74 196.441 441.645 205.17C441.874 206.22 441.62 207.277 440.837 208.014C436.837 211.781 421.752 223 384 223C346.108 223 331.052 211.697 327.119 207.973C326.364 207.258 326.106 206.237 326.301 205.216C327.821 197.275 334.846 161.132 341.559 135.914Z" fill="black"/>
<path d="M341.559 135.914C349.139 107.438 355.252 71 383.528 71C411.805 71 421.711 116.115 426.441 136.608C430.663 154.896 439.74 196.441 441.645 205.17C441.874 206.22 441.62 207.277 440.837 208.014C436.837 211.781 421.752 223 384 223C346.108 223 331.052 211.697 327.119 207.973C326.364 207.258 326.106 206.237 326.301 205.216C327.821 197.275 334.846 161.132 341.559 135.914Z" fill="url(#paint2_linear_363_5709)" fill-opacity="0.45"/>
<g filter="url(#filter1_d_363_5709)">
<path d="M501 690.593L443.328 624H378.569H314.199L257 690.593C257 690.593 295.799 734.5 379 734.5C462.201 734.5 501 690.593 501 690.593Z" fill="black"/>
</g>
<path d="M273.83 461C273.83 461 325 493 384.5 493C444 493 494.17 461 494.17 461C501.901 493.924 517.919 578.176 491.043 620.86C457.218 674.578 401.341 693 384 693C366.659 693 310.782 674.578 276.957 620.86C250.081 578.176 266.099 493.924 273.83 461Z" fill="#6DF244"/>
<path d="M273.83 461C273.83 461 325 493 384.5 493C444 493 494.17 461 494.17 461C501.901 493.924 517.919 578.176 491.043 620.86C457.218 674.578 401.341 693 384 693C366.659 693 310.782 674.578 276.957 620.86C250.081 578.176 266.099 493.924 273.83 461Z" fill="url(#paint3_linear_363_5709)" fill-opacity="0.8"/>
<path d="M287.342 609.219C268.078 577.122 270.345 552.029 281.676 541.524C301.896 522.782 334.935 555.53 347.967 582.958C360.998 610.386 362.698 631.395 351.933 641.315C341.168 651.236 306.607 641.315 287.342 609.219Z" stroke="url(#paint4_linear_363_5709)" stroke-width="4"/>
<path fill-rule="evenodd" clip-rule="evenodd" d="M384 665.982C377.427 666.2 365.34 664.491 357 656H382H386H411C402.66 664.491 390.573 666.2 384 665.982Z" fill="#57BF37"/>
<path d="M478.992 607.158C496.465 578.595 494.408 556.264 484.131 546.916C465.792 530.237 435.826 559.38 424.007 583.788C412.187 608.197 410.646 626.893 420.41 635.721C430.173 644.55 461.52 635.721 478.992 607.158Z" fill="#070707" stroke="#070707"/>
<path d="M479.491 609.219C498.98 577.122 496.686 552.029 485.223 541.524C464.768 522.782 431.345 555.53 418.161 582.958C404.978 610.386 403.259 631.395 414.149 641.315C425.04 651.236 460.003 641.315 479.491 609.219Z" stroke="url(#paint5_linear_363_5709)" stroke-width="4"/>
<path d="M481.491 609.219C500.98 577.122 498.686 552.029 487.223 541.524C466.768 522.782 433.345 555.53 420.161 582.958C406.978 610.386 405.259 631.395 416.149 641.315C427.04 651.236 462.003 641.315 481.491 609.219Z" stroke="url(#paint6_linear_363_5709)" stroke-width="4"/>
<path d="M484.035 562.212C482.277 554.203 478.105 550.693 474.682 550.873C468.574 551.194 468.207 561.491 470.263 567.791C472.319 574.09 475.231 577.6 478.474 577.42C481.717 577.24 485.793 570.222 484.035 562.212Z" fill="url(#paint7_radial_363_5709)"/>
<path fill-rule="evenodd" clip-rule="evenodd" d="M384 641.095C380.8 640.701 373.12 641.331 368 647H384H400C394.88 641.331 387.2 640.701 384 641.095Z" fill="#57BF37"/>
<path d="M289.841 607.158C272.593 578.595 274.623 556.264 284.768 546.916C302.872 530.237 332.454 559.38 344.122 583.788C355.789 608.197 357.311 626.893 347.673 635.721C338.034 644.55 307.09 635.721 289.841 607.158Z" fill="#070707" stroke="#070707"/>
<path d="M284.297 562.212C286.055 554.203 290.227 550.693 293.65 550.873C299.758 551.194 300.126 561.491 298.07 567.791C296.013 574.09 293.101 577.6 289.858 577.42C286.615 577.24 282.54 570.222 284.297 562.212Z" fill="url(#paint8_radial_363_5709)"/>
<path d="M287.342 609.219C268.078 577.122 270.345 552.029 281.676 541.524C301.896 522.782 334.935 555.53 347.967 582.958C360.998 610.386 362.698 631.395 351.933 641.315C341.168 651.236 306.607 641.315 287.342 609.219Z" stroke="url(#paint9_linear_363_5709)" stroke-width="4"/>
<path fill-rule="evenodd" clip-rule="evenodd" d="M389.283 493L389.059 493C390.346 492.998 391.623 492.984 392.891 492.958C391.693 492.986 390.49 493 389.283 493Z" fill="#161A70" fill-opacity="0.1"/>
<path fill-rule="evenodd" clip-rule="evenodd" d="M501.197 690.593C501.197 690.593 463.926 734.5 384 734.5V71C410.701 71 421.701 114.595 426.338 135.543L426.574 136.608C430.629 154.896 440.349 196.441 442.179 205.17C442.294 205.721 442.282 206.274 442.135 206.782L494.226 459.986C494.326 460.492 494.237 461.004 493.985 461.42C494.415 461.147 494.636 461 494.636 461C502.063 493.924 517.45 578.176 491.632 620.86C484.61 632.469 476.598 642.43 468.185 650.912L501.197 690.593ZM389.283 493L389.059 493C390.346 492.998 391.623 492.984 392.891 492.958C391.693 492.986 390.49 493 389.283 493Z" fill="#161A70" fill-opacity="0.1"/>
<defs>
<filter id="filter0_b_363_5709" x="250" y="183" width="268" height="335" filterUnits="userSpaceOnUse" color-interpolation-filters="sRGB">
<feFlood flood-opacity="0" result="BackgroundImageFix"/>
<feGaussianBlur in="BackgroundImage" stdDeviation="12"/>
<feComposite in2="SourceAlpha" operator="in" result="effect1_backgroundBlur_363_5709"/>
<feBlend mode="normal" in="SourceGraphic" in2="effect1_backgroundBlur_363_5709" result="shape"/>
</filter>
<filter id="filter1_d_363_5709" x="252" y="624" width="256" height="122.5" filterUnits="userSpaceOnUse" color-interpolation-filters="sRGB">
<feFlood flood-opacity="0" result="BackgroundImageFix"/>
<feColorMatrix in="SourceAlpha" type="matrix" values="0 0 0 0 0 0 0 0 0 0 0 0 0 0 0 0 0 0 127 0" result="hardAlpha"/>
<feOffset dx="1" dy="6"/>
<feGaussianBlur stdDeviation="3"/>
<feComposite in2="hardAlpha" operator="out"/>
<feColorMatrix type="matrix" values="0 0 0 0 0 0 0 0 0 0 0 0 0 0 0 0 0 0 0.25 0"/>
<feBlend mode="normal" in2="BackgroundImageFix" result="effect1_dropShadow_363_5709"/>
<feBlend mode="normal" in="SourceGraphic" in2="effect1_dropShadow_363_5709" result="shape"/>
</filter>
<linearGradient id="paint0_linear_363_5709" x1="362" y1="104" x2="384" y2="223" gradientUnits="userSpaceOnUse">
<stop stop-color="white" stop-opacity="0.17"/>
<stop offset="1" stop-color="#C3C3C3" stop-opacity="0"/>
</linearGradient>
<linearGradient id="paint1_linear_363_5709" x1="384" y1="644" x2="384" y2="498" gradientUnits="userSpaceOnUse">
<stop offset="0.527397" stop-color="#6DF244"/>
<stop offset="1" stop-color="#388E1D"/>
</linearGradient>
<linearGradient id="paint2_linear_363_5709" x1="362" y1="104" x2="384" y2="223" gradientUnits="userSpaceOnUse">
<stop stop-color="white" stop-opacity="0.17"/>
<stop offset="1" stop-color="#C3C3C3" stop-opacity="0"/>
</linearGradient>
<linearGradient id="paint3_linear_363_5709" x1="384" y1="644" x2="384" y2="498" gradientUnits="userSpaceOnUse">
<stop offset="0.527397" stop-color="#6DF244"/>
<stop offset="1" stop-color="#388E1D"/>
</linearGradient>
<linearGradient id="paint4_linear_363_5709" x1="316" y1="536" x2="316" y2="645" gradientUnits="userSpaceOnUse">
<stop stop-color="#6CB835"/>
<stop offset="0.40625" stop-color="#6CB835" stop-opacity="0"/>
</linearGradient>
<linearGradient id="paint5_linear_363_5709" x1="450.5" y1="536" x2="450.5" y2="645" gradientUnits="userSpaceOnUse">
<stop stop-color="#6CB835"/>
<stop offset="0.40625" stop-color="#6CB835" stop-opacity="0"/>
</linearGradient>
<linearGradient id="paint6_linear_363_5709" x1="452.5" y1="536" x2="452.5" y2="645" gradientUnits="userSpaceOnUse">
<stop offset="0.541667" stop-color="#6CB835" stop-opacity="0"/>
<stop offset="1" stop-color="#6CB835"/>
</linearGradient>
<radialGradient id="paint7_radial_363_5709" cx="0" cy="0" r="1" gradientUnits="userSpaceOnUse" gradientTransform="translate(476.569 563.877) rotate(79.0248) scale(12.4735 10.176)">
<stop stop-color="white" stop-opacity="0.75"/>
<stop offset="1" stop-color="white" stop-opacity="0"/>
<stop offset="1" stop-color="white"/>
</radialGradient>
<radialGradient id="paint8_radial_363_5709" cx="0" cy="0" r="1" gradientUnits="userSpaceOnUse" gradientTransform="translate(291.764 563.877) rotate(100.975) scale(12.4735 10.176)">
<stop stop-color="white" stop-opacity="0.75"/>
<stop offset="1" stop-color="white" stop-opacity="0"/>
<stop offset="1" stop-color="white"/>
</radialGradient>
<linearGradient id="paint9_linear_363_5709" x1="316" y1="536" x2="316" y2="645" gradientUnits="userSpaceOnUse">
<stop offset="0.671875" stop-color="#6CB835" stop-opacity="0"/>
<stop offset="1" stop-color="#6CB835"/>
</linearGradient>
</defs>

    
<path d="M441.159 206.769L450.076 250.217C446.589 249.622 442.962 248.936 439.252 248.234C408.22 242.363 371.387 235.395 362.064 271.5C357.993 287.264 363.891 296.694 369.628 305.87C375.167 314.727 380.557 323.346 376.689 337.193C371.981 354.047 346.388 364.964 325.805 357.656C304.062 349.936 305.59 317.96 318.087 302.48C330.583 287 332.39 263.382 330.583 247.669C329.71 240.075 325.959 234.645 321.053 230.95L326.178 206C326.252 206.147 326.349 206.284 326.47 206.405C329.4 209.365 344.004 221.688 384 221.688C422.526 221.688 437.492 210.254 441.159 206.769Z" fill="url(#paint0_radial_461_73429)"/>
<mask id="mask0_461_73429" style="mask-type:alpha" maskUnits="userSpaceOnUse" x="309" y="206" width="142" height="154">
<path d="M441.159 206.769L450.076 250.217C446.589 249.622 442.962 248.936 439.252 248.234C408.22 242.363 371.387 235.395 362.064 271.5C357.993 287.264 363.891 296.694 369.628 305.87C375.167 314.727 380.557 323.346 376.689 337.193C371.981 354.047 346.388 364.964 325.805 357.656C304.062 349.936 305.59 317.96 318.087 302.48C330.583 287 332.39 263.382 330.583 247.669C329.71 240.075 325.959 234.645 321.053 230.95L326.178 206C326.252 206.147 326.349 206.284 326.47 206.405C329.4 209.365 344.004 221.688 384 221.688C422.526 221.688 437.492 210.254 441.159 206.769Z" fill="url(#paint1_radial_461_73429)"/>
</mask>
<g mask="url(#mask0_461_73429)">
<g filter="url(#filter0_f_461_73429)">
<mask id="mask1_461_73429" style="mask-type:alpha" maskUnits="userSpaceOnUse" x="274" y="207" width="220" height="288">
<path d="M326.645 208.597C326.836 207.667 327.654 207 328.604 207H439.396C440.346 207 441.164 207.667 441.355 208.597L493.699 463.342C493.877 464.211 493.468 465.089 492.676 465.489C484.111 469.816 435.292 493.314 384 493.994C332.606 494.676 283.694 469.968 275.273 465.497C274.504 465.088 274.119 464.228 274.295 463.375L326.645 208.597Z" fill="#577096" fill-opacity="0.75"/>
</mask>
<g mask="url(#mask1_461_73429)">
<g filter="url(#filter1_f_461_73429)">
<path d="M454.675 167C462.701 241.961 320.236 290.9 248 306L248 167L454.675 167Z" fill="url(#paint2_linear_461_73429)" fill-opacity="0.5"/>
</g>
<g filter="url(#filter2_f_461_73429)">
<path d="M341.008 274.947C343.339 230.439 295.068 189.11 282.906 147.014C292.691 143.062 316.087 155.333 335.012 167.04C358.668 181.673 357.402 239.449 361.234 276.006C364.299 305.252 325.749 490.207 316.009 529.88L289.022 528.466C307.731 471.07 339.209 309.296 341.008 274.947Z" fill="url(#paint3_linear_461_73429)" fill-opacity="0.6"/>
</g>
</g>
</g>
</g>
<defs>
<filter id="filter0_f_461_73429" x="269" y="202" width="230" height="297.008" filterUnits="userSpaceOnUse" color-interpolation-filters="sRGB">
<feFlood flood-opacity="0" result="BackgroundImageFix"/>
<feBlend mode="normal" in="SourceGraphic" in2="BackgroundImageFix" result="shape"/>
<feGaussianBlur stdDeviation="2.5" result="effect1_foregroundBlur_461_73429"/>
</filter>
<filter id="filter1_f_461_73429" x="246" y="165" width="211" height="143" filterUnits="userSpaceOnUse" color-interpolation-filters="sRGB">
<feFlood flood-opacity="0" result="BackgroundImageFix"/>
<feBlend mode="normal" in="SourceGraphic" in2="BackgroundImageFix" result="shape"/>
<feGaussianBlur stdDeviation="1" result="effect1_foregroundBlur_461_73429"/>
</filter>
<filter id="filter2_f_461_73429" x="280.906" y="144.259" width="82.5006" height="387.621" filterUnits="userSpaceOnUse" color-interpolation-filters="sRGB">
<feFlood flood-opacity="0" result="BackgroundImageFix"/>
<feBlend mode="normal" in="SourceGraphic" in2="BackgroundImageFix" result="shape"/>
<feGaussianBlur stdDeviation="1" result="effect1_foregroundBlur_461_73429"/>
</filter>
<radialGradient id="paint0_radial_461_73429" cx="0" cy="0" r="1" gradientUnits="userSpaceOnUse" gradientTransform="translate(342.05 239.4) rotate(53.1177) scale(82.9829 88.352)">
<stop offset="0.203125" style="stop-color: #5000B6;"/>
<stop offset="0.890625" style="stop-color: #7E5EFF;"/>
</radialGradient>
<radialGradient id="paint1_radial_461_73429" cx="0" cy="0" r="1" gradientUnits="userSpaceOnUse" gradientTransform="translate(342.05 239.4) rotate(53.1177) scale(82.9829 88.352)">
<stop offset="0.203125" style="stop-color=#5000B6;"/>
<stop offset="0.890625" style="stop-color=#7E5EFF;"/>
</radialGradient>
<linearGradient id="paint2_linear_461_73429" x1="318.643" y1="269.919" x2="341.934" y2="158.629" gradientUnits="userSpaceOnUse">
<stop stop-color="white" stop-opacity="0"/>
<stop offset="0.471361" stop-color="white"/>
<stop offset="1" stop-color="white"/>
</linearGradient>
<linearGradient id="paint3_linear_461_73429" x1="352.686" y1="484.803" x2="443.145" y2="390.584" gradientUnits="userSpaceOnUse">
<stop stop-color="#F2F2F2"/>
<stop offset="0.0001" stop-color="#F2F2F2"/>
<stop offset="0.0520833" stop-color="#F2F2F2" stop-opacity="0.948011"/>
<stop offset="1" stop-color="#F2F2F2" stop-opacity="0"/>
</linearGradient>
</defs>

    
    
<path d="M469.69 343.667L480.179 394.773C476.011 399.702 469.836 404.033 460.881 406.303C432.885 413.399 404 397.433 404 373.484C404 361.509 412.354 337.649 445.772 338.004C455.848 338.111 463.672 340.317 469.69 343.667Z" fill="url(#paint0_radial_461_73431)"/>
<defs>
<radialGradient id="paint0_radial_461_73431" cx="0" cy="0" r="1" gradientUnits="userSpaceOnUse" gradientTransform="translate(421.846 353.185) rotate(48.2936) scale(40.4221 44.5291)">
<stop offset="0.203125" style="stop-color: #71FF30;"/>
<stop offset="0.890625" style="stop-color: #25BC46;"/>
</radialGradient>
</defs>

    
<path d="M489.565 464.947C477.306 472.747 438.848 494 383.752 494C322.343 494 281.604 467.598 274.772 462.848C274.356 462.559 274.09 462.13 274 461.655C282.641 436.672 316.228 385.887 360.003 399.182C381.681 405.766 396.857 422.295 411.13 437.839C433.236 461.915 453.175 483.631 491.752 462.385C491.045 463.235 490.315 464.09 489.565 464.947Z" fill="url(#paint0_radial_461_73432)"/>
<mask id="mask0_461_73432" style="mask-type:alpha" maskUnits="userSpaceOnUse" x="274" y="397" width="218" height="97">
<path d="M489.565 464.947C477.306 472.747 438.848 494 383.752 494C322.343 494 281.604 467.598 274.772 462.848C274.356 462.559 274.09 462.13 274 461.655C282.641 436.672 316.228 385.887 360.003 399.182C381.681 405.766 396.857 422.295 411.13 437.839C433.236 461.915 453.175 483.631 491.752 462.385C491.045 463.235 490.315 464.09 489.565 464.947Z" fill="url(#paint1_radial_461_73432)"/>
</mask>
<g mask="url(#mask0_461_73432)">
<g filter="url(#filter0_f_461_73432)">
<mask id="mask1_461_73432" style="mask-type:alpha" maskUnits="userSpaceOnUse" x="274" y="207" width="220" height="288">
<path d="M326.645 208.597C326.836 207.667 327.654 207 328.604 207H439.396C440.346 207 441.164 207.667 441.355 208.597L493.699 463.342C493.877 464.211 493.468 465.089 492.676 465.489C484.111 469.816 435.292 493.314 384 493.994C332.606 494.676 283.694 469.968 275.273 465.497C274.504 465.088 274.119 464.228 274.295 463.375L326.645 208.597Z" fill="#577096" fill-opacity="0.75"/>
</mask>
<g mask="url(#mask1_461_73432)">
<g filter="url(#filter1_f_461_73432)">
<path d="M341.007 274.947C343.338 230.439 295.068 189.11 282.906 147.014C292.691 143.062 316.087 155.333 335.012 167.04C358.668 181.673 357.402 239.449 361.234 276.006C364.299 305.252 325.749 490.207 316.009 529.88L289.022 528.466C307.731 471.07 339.209 309.296 341.007 274.947Z" fill="url(#paint2_linear_461_73432)" fill-opacity="0.6"/>
</g>
</g>
</g>
</g>
<defs>
<filter id="filter0_f_461_73432" x="269" y="202" width="230" height="297.008" filterUnits="userSpaceOnUse" color-interpolation-filters="sRGB">
<feFlood flood-opacity="0" result="BackgroundImageFix"/>
<feBlend mode="normal" in="SourceGraphic" in2="BackgroundImageFix" result="shape"/>
<feGaussianBlur stdDeviation="2.5" result="effect1_foregroundBlur_461_73432"/>
</filter>
<filter id="filter1_f_461_73432" x="280.906" y="144.259" width="82.5007" height="387.621" filterUnits="userSpaceOnUse" color-interpolation-filters="sRGB">
<feFlood flood-opacity="0" result="BackgroundImageFix"/>
<feBlend mode="normal" in="SourceGraphic" in2="BackgroundImageFix" result="shape"/>
<feGaussianBlur stdDeviation="1" result="effect1_foregroundBlur_461_73432"/>
</filter>
<radialGradient id="paint0_radial_461_73432" cx="0" cy="0" r="1" gradientUnits="userSpaceOnUse" gradientTransform="translate(325.013 418.043) rotate(28.5454) scale(87.5113 81.471)">
<stop offset="0.203125" style="stop-color: #21F6EA;"/>
<stop offset="0.890625" style="stop-color: #2183F6;"/>
</radialGradient>
<radialGradient id="paint1_radial_461_73432" cx="0" cy="0" r="1" gradientUnits="userSpaceOnUse" gradientTransform="translate(320.844 419.677) rotate(27.3324) scale(128.589 92.9224)">
<stop offset="0.302083" stop-color="#FFB800"/>
<stop offset="1" stop-color="#FF7800"/>
</radialGradient>
<linearGradient id="paint2_linear_461_73432" x1="352.686" y1="484.803" x2="443.145" y2="390.584" gradientUnits="userSpaceOnUse">
<stop stop-color="#F2F2F2"/>
<stop offset="0.0001" stop-color="#F2F2F2"/>
<stop offset="0.0520833" stop-color="#F2F2F2" stop-opacity="0.948011"/>
<stop offset="1" stop-color="#F2F2F2" stop-opacity="0"/>
</linearGradient>
</defs>

    
    <g filter="url(#filter0_d_584_56451)">
      <path d="M287.452 338.996C289.979 327.996 287.017 320.978 282.819 318.989C275.328 315.44 268.937 327.886 267.755 336.973C266.574 346.06 268.028 352.264 272.011 354.137C275.994 356.01 284.926 349.997 287.452 338.996Z" fill="#6DF244"/>
      <path d="M219.9 418.989C217.243 416.551 215.25 413.712 213.902 410.67L179.363 411.283L179.088 395.768L212.325 395.178C213.712 388.708 217.64 382.735 223.938 378.948L232.856 373.586C238.855 369.979 245.626 369.197 251.781 370.714L267.274 342.745L280.848 350.264L264.995 378.884C267.075 381.343 268.721 384.261 269.764 387.574L280 432.5L273 466L219.9 418.989Z" fill="url(#paint0_radial_584_56451)"/>
      <path d="M166.315 411.831C155.414 408.904 150.605 402.997 150.817 398.357C151.195 390.076 165.185 390.268 173.765 393.485C182.345 396.703 187.142 400.897 186.928 405.293C186.715 409.689 177.216 414.758 166.315 411.831Z" fill="#6DF244"/>
      <path d="M137.284 332.691C132.194 316.837 131.548 260.88 150.747 249.336C169.946 237.792 217.378 265.619 230.26 276.789C243.141 287.958 257.324 299.109 256.813 323.939C256.169 355.187 237.264 377.137 229.947 381.537C222.63 385.936 194.378 392.34 166.477 378.254C144.306 367.062 142.375 348.545 137.284 332.691Z" fill="#6DF244"/>
      <path d="M137.284 332.691C132.194 316.837 131.548 260.88 150.747 249.336C169.946 237.792 217.378 265.619 230.26 276.789C243.141 287.958 257.324 299.109 256.813 323.939C256.169 355.187 237.264 377.137 229.947 381.537C222.63 385.936 194.378 392.34 166.477 378.254C144.306 367.062 142.375 348.545 137.284 332.691Z" fill="url(#paint1_linear_584_56451)" fill-opacity="0.8"/>
      <path d="M167.904 370.707C151.632 362.051 146.223 350.888 148.339 343.581C152.116 330.542 174.366 335.978 186.823 344.245C199.281 352.513 205.328 360.946 203.303 367.864C201.277 374.781 184.177 379.363 167.904 370.707Z" stroke="url(#paint2_linear_584_56451)" stroke-width="1.93241"/>
      <path fill-rule="evenodd" clip-rule="evenodd" d="M227.197 376.963C224.568 378.871 218.332 380.049 209.167 372.775L219.716 366.432L221.404 365.417L231.953 359.074C234.08 370.58 230.115 375.536 227.197 376.963Z" fill="#57BF37"/>
      <path d="M248.251 321.215C248.377 304.729 241.844 295.828 235.136 294.491C223.166 292.106 217.915 312.006 219.121 325.304C220.326 338.602 224.419 346.882 230.778 348.13C237.138 349.378 248.125 337.7 248.251 321.215Z" fill="#070707" stroke="#070707" stroke-width="0.483101"/>
      <path d="M248.984 321.958C249.065 303.469 241.73 293.463 234.228 291.939C220.842 289.22 215.047 311.518 216.443 326.437C217.839 341.355 222.443 350.656 229.556 352.079C236.668 353.502 248.904 340.446 248.984 321.958Z" stroke="url(#paint3_linear_584_56451)" stroke-width="1.93241"/>
      <path d="M249.828 321.45C249.908 302.962 242.574 292.955 235.072 291.432C221.686 288.712 215.891 311.011 217.287 325.929C218.683 340.847 223.287 350.148 230.4 351.572C237.512 352.995 249.748 339.938 249.828 321.45Z" stroke="url(#paint4_linear_584_56451)" stroke-width="1.93241"/>
      <path d="M238.976 300.97C236.202 298.036 233.551 297.614 232.152 298.558C229.657 300.243 232.114 304.681 234.58 306.818C237.046 308.954 239.165 309.696 240.488 308.798C241.81 307.899 241.75 303.904 238.976 300.97Z" fill="url(#paint5_radial_584_56451)"/>
      <path fill-rule="evenodd" clip-rule="evenodd" d="M216.778 359.635C215.328 360.281 212.247 362.495 211.525 366.186L218.277 362.127L225.028 358.067C221.429 356.974 218.029 358.657 216.778 359.635Z" fill="#57BF37"/>
      <path d="M168.436 369.204C153.911 361.528 149.102 351.59 151.012 345.071C154.419 333.44 174.295 338.233 185.411 345.572C196.527 352.911 201.913 360.414 200.085 366.584C198.258 372.755 182.961 376.881 168.436 369.204Z" fill="#070707" stroke="#070707" stroke-width="0.483101"/>
      <path d="M154.695 351.646C153.404 347.82 154.274 345.281 155.764 344.488C158.423 343.074 161.19 347.325 161.921 350.505C162.652 353.685 162.313 355.905 160.899 356.652C159.485 357.399 155.985 355.471 154.695 351.646Z" fill="url(#paint6_radial_584_56451)"/>
      <path d="M167.904 370.707C151.632 362.051 146.223 350.888 148.339 343.581C152.116 330.542 174.366 335.978 186.823 344.245C199.281 352.513 205.328 360.946 203.303 367.864C201.277 374.781 184.177 379.363 167.904 370.707Z" stroke="url(#paint7_linear_584_56451)" stroke-width="1.93241"/>
      <rect width="8.88817" height="61.2226" transform="matrix(0.99987 -0.0160966 0.0193936 0.999812 191.689 234.613)" fill="#6DF244"/>
      <path d="M209.091 227.444C209.102 214.49 203.957 207.461 198.717 206.375C189.366 204.437 185.375 220.046 186.386 230.502C187.397 240.958 190.634 247.486 195.603 248.501C200.571 249.516 209.08 240.397 209.091 227.444Z" fill="#57BF37"/>
      <rect width="8.88815" height="61.2226" transform="matrix(-0.483106 0.875562 0.873962 0.485994 118.433 278.659)" fill="#6DF244"/>
      <path d="M103.94 290.667C92.4945 284.602 88.6986 276.762 90.1968 271.624C92.8702 262.456 108.528 266.251 117.289 272.048C126.05 277.844 130.298 283.765 128.864 288.628C127.43 293.492 115.386 296.732 103.94 290.667Z" fill="#57BF37"/>
      <g filter="url(#filter1_d_584_56451)">
        <circle cx="242.519" cy="398.191" r="9.51534" transform="rotate(-6.77196 242.519 398.191)" fill="url(#paint8_radial_584_56451)" stroke="#56CCF2" stroke-width="1.05166"/>
        <g filter="url(#filter2_d_584_56451)">
          <path d="M250.332 392.79C256.763 390.983 259.538 390.496 259.863 391.424C260.326 392.746 253.797 397.673 243.043 401.439C232.29 405.205 225.011 405.953 224.548 404.631C224.218 403.689 226.552 401.537 232.859 398.89" stroke="#6DF244" stroke-width="1.50237"/>
        </g>
      </g>
    </g>
    <defs>
      <filter id="filter0_d_584_56451" x="83.8848" y="205.21" width="210.5" height="271.79" filterUnits="userSpaceOnUse" color-interpolation-filters="sRGB">
        <feFlood flood-opacity="0" result="BackgroundImageFix"/>
        <feColorMatrix in="SourceAlpha" type="matrix" values="0 0 0 0 0 0 0 0 0 0 0 0 0 0 0 0 0 0 127 0" result="hardAlpha"/>
        <feOffset dy="5"/>
        <feGaussianBlur stdDeviation="3"/>
        <feComposite in2="hardAlpha" operator="out"/>
        <feColorMatrix type="matrix" values="0 0 0 0 0 0 0 0 0 0 0 0 0 0 0 0 0 0 0.15 0"/>
        <feBlend mode="normal" in2="BackgroundImageFix" result="effect1_dropShadow_584_56451"/>
        <feBlend mode="normal" in="SourceGraphic" in2="effect1_dropShadow_584_56451" result="shape"/>
      </filter>
      <filter id="filter1_d_584_56451" x="223.165" y="388.149" width="38.074" height="21.2862" filterUnits="userSpaceOnUse" color-interpolation-filters="sRGB">
        <feFlood flood-opacity="0" result="BackgroundImageFix"/>
        <feColorMatrix in="SourceAlpha" type="matrix" values="0 0 0 0 0 0 0 0 0 0 0 0 0 0 0 0 0 0 127 0" result="hardAlpha"/>
        <feOffset dy="0.600946"/>
        <feGaussianBlur stdDeviation="0.300473"/>
        <feComposite in2="hardAlpha" operator="out"/>
        <feColorMatrix type="matrix" values="0 0 0 0 0 0 0 0 0 0 0 0 0 0 0 0 0 0 0.25 0"/>
        <feBlend mode="normal" in2="BackgroundImageFix" result="effect1_dropShadow_584_56451"/>
        <feBlend mode="normal" in="SourceGraphic" in2="effect1_dropShadow_584_56451" result="shape"/>
      </filter>
      <filter id="filter2_d_584_56451" x="221.813" y="388.26" width="40.7782" height="19.6806" filterUnits="userSpaceOnUse" color-interpolation-filters="sRGB">
        <feFlood flood-opacity="0" result="BackgroundImageFix"/>
        <feColorMatrix in="SourceAlpha" type="matrix" values="0 0 0 0 0 0 0 0 0 0 0 0 0 0 0 0 0 0 127 0" result="hardAlpha"/>
        <feOffset/>
        <feGaussianBlur stdDeviation="0.976538"/>
        <feComposite in2="hardAlpha" operator="out"/>
        <feColorMatrix type="matrix" values="0 0 0 0 1 0 0 0 0 1 0 0 0 0 1 0 0 0 1 0"/>
        <feBlend mode="normal" in2="BackgroundImageFix" result="effect1_dropShadow_584_56451"/>
        <feBlend mode="normal" in="SourceGraphic" in2="effect1_dropShadow_584_56451" result="shape"/>
      </filter>
      <radialGradient id="paint0_radial_584_56451" cx="0" cy="0" r="1" gradientUnits="userSpaceOnUse" gradientTransform="translate(232.284 387.995) rotate(61.8214) scale(79.4119 67.0366)">
        <stop offset="0.552083" stop-color="white"/>
        <stop offset="1" stop-color="#CCD0C9"/>
      </radialGradient>
      <linearGradient id="paint1_linear_584_56451" x1="217.515" y1="360.861" x2="147.453" y2="248.157" gradientUnits="userSpaceOnUse">
        <stop offset="0.527397" stop-color="#6DF244"/>
        <stop offset="1" stop-color="#388E1D"/>
      </linearGradient>
      <linearGradient id="paint2_linear_584_56451" x1="161.421" y1="332.541" x2="189.075" y2="378.535" gradientUnits="userSpaceOnUse">
        <stop stop-color="#6CB835"/>
        <stop offset="0.40625" stop-color="#6CB835" stop-opacity="0"/>
      </linearGradient>
      <linearGradient id="paint3_linear_584_56451" x1="218.175" y1="298.417" x2="245.829" y2="344.411" gradientUnits="userSpaceOnUse">
        <stop stop-color="#6CB835"/>
        <stop offset="0.40625" stop-color="#6CB835" stop-opacity="0"/>
      </linearGradient>
      <linearGradient id="paint4_linear_584_56451" x1="219.019" y1="297.91" x2="246.673" y2="343.904" gradientUnits="userSpaceOnUse">
        <stop offset="0.541667" stop-color="#6CB835" stop-opacity="0"/>
        <stop offset="1" stop-color="#6CB835"/>
      </linearGradient>
      <radialGradient id="paint5_radial_584_56451" cx="0" cy="0" r="1" gradientUnits="userSpaceOnUse" gradientTransform="translate(236.248 303.567) rotate(48.0079) scale(6.14149 5.0103)">
        <stop stop-color="white" stop-opacity="0.75"/>
        <stop offset="1" stop-color="white" stop-opacity="0"/>
        <stop offset="1" stop-color="white"/>
      </radialGradient>
      <radialGradient id="paint6_radial_584_56451" cx="0" cy="0" r="1" gradientUnits="userSpaceOnUse" gradientTransform="translate(158.267 350.454) rotate(69.9583) scale(6.14149 5.0103)">
        <stop stop-color="white" stop-opacity="0.75"/>
        <stop offset="1" stop-color="white" stop-opacity="0"/>
        <stop offset="1" stop-color="white"/>
      </radialGradient>
      <linearGradient id="paint7_linear_584_56451" x1="161.421" y1="332.541" x2="189.075" y2="378.535" gradientUnits="userSpaceOnUse">
        <stop offset="0.671875" stop-color="#6CB835" stop-opacity="0"/>
        <stop offset="1" stop-color="#6CB835"/>
      </linearGradient>
      <radialGradient id="paint8_radial_584_56451" cx="0" cy="0" r="1" gradientUnits="userSpaceOnUse" gradientTransform="translate(236.798 392.845) rotate(49.243) scale(16.1373 14.1381)">
        <stop offset="0.3125" stop-color="#321A93"/>
        <stop offset="1" stop-color="#3603FF"/>
        <stop offset="1" stop-color="#3603FF"/>
      </radialGradient>
    </defs>
  
    </svg>
  