
    <svg width="350" height="350" viewBox="0 0 350 350" fill="none" xmlns="http://www.w3.org/2000/svg">
    
  <g clip-path="url(#clip0_28_283)">
  <rect width="350" height="350" fill="white"/>
  <rect x="0.0800781" y="0.0449219" width="350" height="350" fill="#FFA19B"/>
  <path d="M125.979 290.538L299.833 190.751L430.988 233.879L212.56 294.049L125.979 290.538Z" fill="url(#paint0_linear_28_283)" fill-opacity="0.1"/>
  <g opacity="0.45" filter="url(#filter0_f_28_283)">
  <ellipse rx="194.596" ry="66.7643" transform="matrix(0.999998 0.00221055 0.00221055 -0.999998 176.078 304.638)" fill="url(#paint1_radial_28_283)"/>
  </g>
  <g opacity="0.7" filter="url(#filter1_f_28_283)">
  <ellipse cx="174.396" cy="137.609" rx="196.647" ry="242.448" transform="rotate(0.126655 174.396 137.609)" fill="url(#paint2_radial_28_283)"/>
  </g>
  </g>
  <defs>
  <filter id="filter0_f_28_283" x="-23.0756" y="233.315" width="398.306" height="142.646" filterUnits="userSpaceOnUse" color-interpolation-filters="sRGB">
  <feFlood flood-opacity="0" result="BackgroundImageFix"/>
  <feBlend mode="normal" in="SourceGraphic" in2="BackgroundImageFix" result="shape"/>
  <feGaussianBlur stdDeviation="2.27865" result="effect1_foregroundBlur_28_283"/>
  </filter>
  <filter id="filter1_f_28_283" x="-26.8085" y="-109.396" width="402.409" height="494.01" filterUnits="userSpaceOnUse" color-interpolation-filters="sRGB">
  <feFlood flood-opacity="0" result="BackgroundImageFix"/>
  <feBlend mode="normal" in="SourceGraphic" in2="BackgroundImageFix" result="shape"/>
  <feGaussianBlur stdDeviation="2.27865" result="effect1_foregroundBlur_28_283"/>
  </filter>
  <linearGradient id="paint0_linear_28_283" x1="194.836" y1="271.638" x2="316.538" y2="167.936" gradientUnits="userSpaceOnUse">
  <stop/>
  <stop offset="1" stop-color="#333333" stop-opacity="0"/>
  </linearGradient>
  <radialGradient id="paint1_radial_28_283" cx="0" cy="0" r="1" gradientUnits="userSpaceOnUse" gradientTransform="translate(194.596 76.624) rotate(99.1226) scale(43.9775 125.337)">
  <stop offset="0.229167" stop-color="#CF0000"/>
  <stop offset="0.90625" stop-color="#CF0000" stop-opacity="0"/>
  </radialGradient>
  <radialGradient id="paint2_radial_28_283" cx="0" cy="0" r="1" gradientUnits="userSpaceOnUse" gradientTransform="translate(174.396 173.413) rotate(92.5586) scale(157.837 128.153)">
  <stop offset="0.229167" stop-color="#CF0000"/>
  <stop offset="0.90625" stop-color="#CF0000" stop-opacity="0"/>
  </radialGradient>
  <clipPath id="clip0_28_283">
  <rect width="350" height="350" fill="white"/>
  </clipPath>
  </defs>

    
  <g clip-path="url(#clip0_589_112918)">
  <g opacity="0.7" filter="url(#filter0_f_589_112918)">
  <g style="mix-blend-mode:overlay" opacity="0.5">
  <path d="M318.703 93.5382C372.228 106.145 243.865 129.196 199.912 130.711L344.837 130.711C388.551 129.058 401.064 121.486 401.856 117.907L401.856 87.7559C389.581 81.9735 364.605 70.5548 286.629 63.3873C183.282 53.8877 58.6433 72.3424 101.316 93.5382C134.577 110.059 245.053 76.1911 318.703 93.5382Z" fill="white" fill-opacity="0.5"/>
  </g>
  <g style="mix-blend-mode:overlay" opacity="0.5">
  <path fill-rule="evenodd" clip-rule="evenodd" d="M150.02 126.167C184.865 123.551 248.854 117.08 226.046 112.124C215.611 109.856 193.715 109.858 167.992 109.859C123.442 109.861 67.4092 109.864 39.5451 98.0813C-5.55154 79.0113 30.0418 48.9311 139.329 36.9534C140.852 36.7864 142.385 36.6186 143.925 36.4498C252.904 24.511 402.894 8.0793 315.139 -7.6534C288.014 -12.5163 257.865 -8.96709 226.688 -5.29685C170.481 1.31995 110.933 8.33014 59.7394 -32.848L-35.293 -32.848C32.4176 -17.153 26.1242 13.4037 -17.4744 20.8454C-67.2825 29.3469 -61.3993 45.9299 -57.1937 57.7845C-55.8826 61.4799 -54.7346 64.7159 -55.4874 67.1043L-55.4874 126.167L150.02 126.167ZM59.7394 32.8231C75.8949 23.9018 134.577 18.9179 161.899 17.5412C184.47 8.04157 129.826 12.1718 121.511 14.65C113.195 17.1281 96.5645 11.3458 91.8129 3.49828C87.0613 -4.34922 46.6725 -3.11013 49.0483 3.49828C51.4241 10.1067 51.4241 17.5412 24.1023 24.9756C-3.2195 32.4101 39.5451 43.9748 59.7394 32.8231Z" fill="white" fill-opacity="0.5"/>
  </g>
  <g style="mix-blend-mode:overlay" opacity="0.5">
  <path d="M305.636 47.2788C255.744 47.2788 258.12 33.2359 305.636 30.3448C351.954 27.5265 397.144 23.1383 398.292 14.5022L398.292 13.8237C398.322 14.0528 398.322 14.2789 398.292 14.5022L398.292 56.7856C379.122 53.0151 341.364 47.2788 305.636 47.2788Z" fill="white" fill-opacity="0.5"/>
  </g>
  </g>
  </g>
  <defs>
  <filter id="filter0_f_589_112918" x="-68.9974" y="-41.9626" width="479.968" height="181.788" filterUnits="userSpaceOnUse" color-interpolation-filters="sRGB">
  <feFlood flood-opacity="0" result="BackgroundImageFix"/>
  <feBlend mode="normal" in="SourceGraphic" in2="BackgroundImageFix" result="shape"/>
  <feGaussianBlur stdDeviation="4.55729" result="effect1_foregroundBlur_589_112918"/>
  </filter>
  <clipPath id="clip0_589_112918">
  <path d="M0 0H350V350H0V0Z" fill="white"/>
  </clipPath>
  </defs>


    
  <g filter="url(#filter0_d_559_36465)">
  <path d="M257.528 150.902C249.652 153.534 240.882 153.402 234.142 152.261C243.181 142.11 255.176 129.932 264.686 123.065C267.288 121.186 269.629 119.761 271.616 118.88C273.67 117.97 275.032 117.785 275.821 117.941C276.161 118.008 276.386 118.136 276.566 118.315C276.76 118.507 277.002 118.862 277.198 119.519C277.608 120.895 277.704 123.22 277.122 126.85C274.87 140.908 266.781 147.809 257.528 150.902Z" stroke="white" stroke-width="4.55729" shape-rendering="crispEdges"/>
  </g>
  <g filter="url(#filter1_d_559_36465)">
  <path d="M250.354 171.675C242.923 167.967 236.816 161.672 232.856 156.099C246.426 155.314 263.519 155.183 275.099 157.053C278.267 157.564 280.93 158.211 282.958 158.994C285.054 159.803 286.148 160.635 286.596 161.303C286.789 161.591 286.857 161.84 286.858 162.094C286.859 162.368 286.78 162.789 286.454 163.393C285.771 164.655 284.194 166.367 281.216 168.522C269.683 176.87 259.083 176.031 250.354 171.675Z" stroke="white" stroke-width="4.55729" shape-rendering="crispEdges"/>
  </g>
  <g filter="url(#filter2_d_559_36465)">
  <path d="M92.41 150.902C100.286 153.534 109.056 153.402 115.796 152.261C106.757 142.11 94.7621 129.932 85.2516 123.065C82.6502 121.186 80.3093 119.761 78.3217 118.88C76.2681 117.97 74.9063 117.785 74.1174 117.941C73.7768 118.008 73.5521 118.136 73.3723 118.315C73.178 118.507 72.9358 118.862 72.7399 119.519C72.33 120.895 72.2345 123.22 72.816 126.85C75.0683 140.908 83.1571 147.809 92.41 150.902Z" stroke="white" stroke-width="4.55729" shape-rendering="crispEdges"/>
  </g>
  <g filter="url(#filter3_d_559_36465)">
  <path d="M99.5842 171.675C107.015 167.967 113.122 161.672 117.082 156.099C103.512 155.314 86.4192 155.183 74.8386 157.053C71.6709 157.564 69.0076 158.211 66.9795 158.994C64.8841 159.803 63.79 160.635 63.3425 161.303C63.1493 161.591 63.0807 161.84 63.0798 162.094C63.0788 162.368 63.1579 162.789 63.4843 163.393C64.1674 164.655 65.7438 166.367 68.7217 168.522C80.2548 176.87 90.8547 176.031 99.5842 171.675Z" stroke="white" stroke-width="4.55729" shape-rendering="crispEdges"/>
  </g>
  <defs>
  <filter id="filter0_d_559_36465" x="226.526" y="112.289" width="56.6081" height="46.3486" filterUnits="userSpaceOnUse" color-interpolation-filters="sRGB">
  <feFlood flood-opacity="0" result="BackgroundImageFix"/>
  <feColorMatrix in="SourceAlpha" type="matrix" values="0 0 0 0 0 0 0 0 0 0 0 0 0 0 0 0 0 0 127 0" result="hardAlpha"/>
  <feOffset/>
  <feGaussianBlur stdDeviation="1.66205"/>
  <feComposite in2="hardAlpha" operator="out"/>
  <feColorMatrix type="matrix" values="0 0 0 0 1 0 0 0 0 1 0 0 0 0 1 0 0 0 1 0"/>
  <feBlend mode="normal" in2="BackgroundImageFix" result="effect1_dropShadow_559_36465"/>
  <feBlend mode="normal" in="SourceGraphic" in2="effect1_dropShadow_559_36465" result="shape"/>
  </filter>
  <filter id="filter1_d_559_36465" x="225.487" y="149.953" width="66.9734" height="30.552" filterUnits="userSpaceOnUse" color-interpolation-filters="sRGB">
  <feFlood flood-opacity="0" result="BackgroundImageFix"/>
  <feColorMatrix in="SourceAlpha" type="matrix" values="0 0 0 0 0 0 0 0 0 0 0 0 0 0 0 0 0 0 127 0" result="hardAlpha"/>
  <feOffset/>
  <feGaussianBlur stdDeviation="1.66205"/>
  <feComposite in2="hardAlpha" operator="out"/>
  <feColorMatrix type="matrix" values="0 0 0 0 1 0 0 0 0 1 0 0 0 0 1 0 0 0 1 0"/>
  <feBlend mode="normal" in2="BackgroundImageFix" result="effect1_dropShadow_559_36465"/>
  <feBlend mode="normal" in="SourceGraphic" in2="effect1_dropShadow_559_36465" result="shape"/>
  </filter>
  <filter id="filter2_d_559_36465" x="66.8034" y="112.289" width="56.6081" height="46.3486" filterUnits="userSpaceOnUse" color-interpolation-filters="sRGB">
  <feFlood flood-opacity="0" result="BackgroundImageFix"/>
  <feColorMatrix in="SourceAlpha" type="matrix" values="0 0 0 0 0 0 0 0 0 0 0 0 0 0 0 0 0 0 127 0" result="hardAlpha"/>
  <feOffset/>
  <feGaussianBlur stdDeviation="1.66205"/>
  <feComposite in2="hardAlpha" operator="out"/>
  <feColorMatrix type="matrix" values="0 0 0 0 1 0 0 0 0 1 0 0 0 0 1 0 0 0 1 0"/>
  <feBlend mode="normal" in2="BackgroundImageFix" result="effect1_dropShadow_559_36465"/>
  <feBlend mode="normal" in="SourceGraphic" in2="effect1_dropShadow_559_36465" result="shape"/>
  </filter>
  <filter id="filter3_d_559_36465" x="57.4772" y="149.953" width="66.9734" height="30.552" filterUnits="userSpaceOnUse" color-interpolation-filters="sRGB">
  <feFlood flood-opacity="0" result="BackgroundImageFix"/>
  <feColorMatrix in="SourceAlpha" type="matrix" values="0 0 0 0 0 0 0 0 0 0 0 0 0 0 0 0 0 0 127 0" result="hardAlpha"/>
  <feOffset/>
  <feGaussianBlur stdDeviation="1.66205"/>
  <feComposite in2="hardAlpha" operator="out"/>
  <feColorMatrix type="matrix" values="0 0 0 0 1 0 0 0 0 1 0 0 0 0 1 0 0 0 1 0"/>
  <feBlend mode="normal" in2="BackgroundImageFix" result="effect1_dropShadow_559_36465"/>
  <feBlend mode="normal" in="SourceGraphic" in2="effect1_dropShadow_559_36465" result="shape"/>
  </filter>
  </defs>
    
    
  <g clip-path="url(#clip0_680_67900)">
  <path d="M230.077 316.485L204.589 287.054C204.416 286.854 204.164 286.739 203.9 286.739H174.804H145.887C145.622 286.739 145.369 286.855 145.196 287.057L119.919 316.485C119.622 316.83 119.62 317.331 119.941 317.654C123.163 320.91 140.897 337.097 175 337.097C209.097 337.097 226.83 320.917 230.058 317.656C230.379 317.332 230.376 316.83 230.077 316.485Z" fill="url(#paint0_linear_680_67900)"/>
  <path d="M155.658 64.3044C159.113 51.3268 161.899 34.7211 174.785 34.7211C187.671 34.7211 192.186 55.2816 194.342 64.6208C196.328 73.2253 200.673 93.1271 201.344 96.2052C201.402 96.4698 201.335 96.7312 201.145 96.9246C199.763 98.3363 193.094 103.992 175 103.992C156.851 103.992 150.197 98.302 148.842 96.9119C148.66 96.7245 148.593 96.4718 148.642 96.2148C149.177 93.408 152.494 76.1925 155.658 64.3044Z" fill="url(#paint1_linear_680_67900)"/>
  <path d="M124.485 212.334C124.643 211.724 125.349 211.438 125.891 211.76C130.804 214.68 151.572 226.127 175.229 226.127C198.847 226.127 219.24 214.717 224.108 211.774C224.65 211.446 225.361 211.733 225.519 212.346C229.592 228.14 244.818 265.011 232.898 283.941C217.483 308.422 200.522 316.818 175.001 316.818C149.48 316.818 132.518 308.422 117.104 283.941C105.181 265.006 120.417 228.121 124.485 212.334Z" fill="url(#paint2_linear_680_67900)"/>
  <mask id="mask0_680_67900" style="mask-type:alpha" maskUnits="userSpaceOnUse" x="112" y="211" width="126" height="107">
  <path d="M124.726 211.544C124.726 211.544 148.046 226.583 175.162 226.583C202.278 226.583 225.142 211.544 225.142 211.544C228.665 226.548 245.08 264.945 232.831 284.397C217.416 308.878 200.455 317.273 174.934 317.273C149.413 317.273 132.452 308.878 117.037 284.397C104.788 264.945 121.203 226.548 124.726 211.544Z" fill="url(#paint3_radial_680_67900)"/>
  </mask>
  <g mask="url(#mask0_680_67900)">
  <path d="M203.645 320.919C210.523 302.923 220.152 257.678 203.645 220.658" stroke="#773B06" stroke-opacity="0.1" stroke-width="4.55729"/>
  <path d="M181.314 320.919C186.783 303.601 192.252 258.028 181.314 220.658" stroke="#773B06" stroke-opacity="0.1" stroke-width="4.55729"/>
  <path d="M165.363 320.919C159.894 303.601 154.426 258.028 165.363 220.658" stroke="#773B06" stroke-opacity="0.1" stroke-width="4.55729"/>
  <path d="M143.033 320.919C136.155 302.923 126.526 257.678 143.033 220.658" stroke="#773B06" stroke-opacity="0.1" stroke-width="4.55729"/>
  </g>
  <path d="M154.675 247.319C155.201 246.408 156.517 246.408 157.043 247.319L166.91 264.409C167.436 265.32 166.778 266.46 165.726 266.46H145.992C144.94 266.46 144.282 265.32 144.808 264.409L154.675 247.319Z" fill="black"/>
  <path d="M194.413 247.319C193.887 246.407 192.571 246.407 192.045 247.319L182.178 264.409C181.652 265.32 182.31 266.459 183.362 266.459H203.096C204.148 266.459 204.806 265.32 204.28 264.409L194.413 247.319Z" fill="black"/>
  <path fill-rule="evenodd" clip-rule="evenodd" d="M163.58 277.717H185.251V284.06H192.651V277.717H209.041C210.854 277.717 211.841 279.653 210.622 280.995C205.795 286.309 194.304 296.217 175.737 296.217C175.203 296.217 174.674 296.209 174.151 296.193V289.874H166.751V295.414C153.295 292.962 144.315 285.466 140.041 281.056C138.751 279.725 139.726 277.717 141.579 277.717H156.18V284.06H163.58V277.717Z" fill="black"/>
  <path d="M194.445 64.1351C192.245 54.5888 187.668 34.7211 175 34.7211L175.215 337.097C213.133 337.097 230.814 317.088 230.814 317.088L218.057 302.358C223.366 297.623 228.314 291.561 233.112 283.941C242.928 268.352 234.335 240.595 228.722 222.463C227.331 217.97 226.123 214.068 225.423 211.088C225.423 211.088 225.309 211.164 225.087 211.303L201.465 96.6008C201.535 96.3695 201.541 96.1175 201.486 95.8663C200.618 91.8882 196.481 72.9551 194.557 64.6208L194.445 64.1351Z" fill="#161A70" fill-opacity="0.1"/>
  </g>
  <defs>
  <linearGradient id="paint0_linear_680_67900" x1="135.07" y1="294.998" x2="164.772" y2="363.907" gradientUnits="userSpaceOnUse">
  <stop stop-color="#003802"/>
  <stop offset="0.473958" stop-color="#07A70C" stop-opacity="0.98"/>
  <stop offset="1" stop-color="#B5FFB7" stop-opacity="0.98"/>
  </linearGradient>
  <linearGradient id="paint1_linear_680_67900" x1="204.622" y1="26.6594" x2="218.264" y2="122.656" gradientUnits="userSpaceOnUse">
  <stop stop-color="#003802"/>
  <stop offset="0.473958" stop-color="#00B806" stop-opacity="0.98"/>
  <stop offset="1" stop-color="#B5FFB7" stop-opacity="0.98"/>
  </linearGradient>
  <linearGradient id="paint2_linear_680_67900" x1="244.897" y1="198.784" x2="258.523" y2="347.01" gradientUnits="userSpaceOnUse">
  <stop stop-color="#003802"/>
  <stop offset="0.473958" stop-color="#00B806" stop-opacity="0.98"/>
  <stop offset="1" stop-color="#B5FFB7" stop-opacity="0.98"/>
  </linearGradient>
  <radialGradient id="paint3_radial_680_67900" cx="0" cy="0" r="1" gradientUnits="userSpaceOnUse" gradientTransform="translate(153.059 258.94) rotate(36.2538) scale(76.2935 67.5721)">
  <stop offset="0.0989583" stop-color="#FFB800"/>
  <stop offset="1" stop-color="#E96D00"/>
  </radialGradient>
  <clipPath id="clip0_680_67900">
  <rect width="350" height="350" fill="white" transform="translate(0 0.99707)"/>
  </clipPath>
  </defs>

    
    <path d="M148.647 94.3351L124.888 210.017C124.817 210.363 124.947 210.714 125.237 210.915C128.356 213.082 146.958 225.128 174.998 225.128C203.038 225.128 221.64 213.082 224.76 210.915C225.05 210.714 225.18 210.363 225.109 210.017L201.35 94.3351C201.316 94.4021 201.271 94.4644 201.216 94.5198C199.881 95.8685 193.226 101.484 174.998 101.484C156.771 101.484 150.116 95.8685 148.78 94.5198C148.725 94.4644 148.681 94.4021 148.647 94.3351Z" fill="#000000" fill-opacity="0.75"/>;
    
    <!-- Color -->
    <path d="M201.049 94.2304L205.113 114.031C203.523 113.76 201.871 113.447 200.18 113.127C186.038 110.452 169.252 107.276 165.003 123.73C163.148 130.914 165.836 135.212 168.45 139.394C170.975 143.43 173.431 147.358 171.668 153.669C169.523 161.35 157.859 166.325 148.479 162.994C138.57 159.476 139.266 144.903 144.961 137.849C150.656 130.794 151.48 120.031 150.656 112.87C150.259 109.409 148.549 106.935 146.313 105.251L148.649 93.8801C148.683 93.9471 148.727 94.0094 148.782 94.0649C150.117 95.4136 156.772 101.03 175 101.03C192.557 101.03 199.378 95.8189 201.049 94.2304Z" fill="url(#paint0_radial_702_67017)"/>

    <!-- Filter -->
    <mask id="mask0_702_67017" style="mask-type:alpha" maskUnits="userSpaceOnUse" x="140" y="93" width="66" height="72">
      <path d="M201.049 94.2304L205.113 114.031C203.523 113.76 201.871 113.447 200.18 113.127C186.038 110.452 169.252 107.276 165.003 123.73C163.148 130.914 165.836 135.212 168.45 139.394C170.975 143.43 173.431 147.358 171.668 153.669C169.523 161.35 157.859 166.325 148.479 162.994C138.57 159.476 139.266 144.903 144.961 137.849C150.656 130.794 151.48 120.031 150.656 112.87C150.259 109.409 148.549 106.935 146.313 105.251L148.649 93.8801C148.683 93.9471 148.727 94.0094 148.782 94.0649C150.117 95.4136 156.772 101.03 175 101.03C192.557 101.03 199.378 95.8189 201.049 94.2304Z" fill="url(#paint1_radial_702_67017)"/>
    </mask>
    <g mask="url(#mask0_702_67017)">
      <g filter="url(#filter0_f_702_67017)">
        <mask id="mask1_702_67017" style="mask-type:alpha" maskUnits="userSpaceOnUse" x="124" y="94" width="102" height="132">
          <path d="M148.862 95.0637C148.949 94.6399 149.322 94.3357 149.754 94.3357H200.246C200.678 94.3357 201.051 94.6399 201.138 95.0637L224.993 211.158C225.074 211.554 224.888 211.954 224.527 212.137C220.624 214.108 198.375 224.817 175 225.127C151.578 225.438 129.287 214.178 125.45 212.14C125.099 211.954 124.924 211.562 125.004 211.173L148.862 95.0637Z" fill="#577096" fill-opacity="0.75"/>
        </mask>
        <g mask="url(#mask1_702_67017)">
          <g filter="url(#filter1_f_702_67017)">
            <path d="M207.208 76.1064C210.866 110.268 145.941 132.571 113.021 139.453L113.021 76.1064L207.208 76.1064Z" fill="url(#paint2_linear_702_67017)" fill-opacity="0.5"/>
          </g>
          <g filter="url(#filter2_f_702_67017)">
            <path d="M155.407 125.301C156.469 105.018 134.471 86.1828 128.929 66.9985C133.388 65.1973 144.05 70.7896 152.675 76.1247C163.456 82.7936 162.879 109.124 164.625 125.784C166.022 139.112 148.453 223.401 144.015 241.481L131.716 240.837C140.242 214.68 154.587 140.955 155.407 125.301Z" fill="url(#paint3_linear_702_67017)" fill-opacity="0.6"/>
          </g>
        </g>
      </g>
    </g>

    <defs>
      <!-- Color -->
      <radialGradient id="paint0_radial_702_67017" cx="0" cy="0" r="1" gradientUnits="userSpaceOnUse" gradientTransform="translate(155.882 109.102) rotate(53.1177) scale(37.8177 40.2646)">
        <stop offset="0.203125" style="stop-color: #5000B6;"/>
        <stop offset="0.890625" style="stop-color: #7E5EFF;"/>
      </radialGradient>

      <!-- Filter -->
      <filter id="filter0_f_702_67017" x="122.591" y="92.057" width="104.818" height="135.355" filterUnits="userSpaceOnUse" color-interpolation-filters="sRGB">
        <feFlood flood-opacity="0" result="BackgroundImageFix"/>
        <feBlend mode="normal" in="SourceGraphic" in2="BackgroundImageFix" result="shape"/>
        <feGaussianBlur stdDeviation="1.13932" result="effect1_foregroundBlur_702_67017"/>
      </filter>
      <filter id="filter1_f_702_67017" x="112.109" y="75.195" width="96.1589" height="65.1694" filterUnits="userSpaceOnUse" color-interpolation-filters="sRGB">
        <feFlood flood-opacity="0" result="BackgroundImageFix"/>
        <feBlend mode="normal" in="SourceGraphic" in2="BackgroundImageFix" result="shape"/>
        <feGaussianBlur stdDeviation="0.455729" result="effect1_foregroundBlur_702_67017"/>
      </filter>
      <filter id="filter2_f_702_67017" x="128.017" y="65.7426" width="37.5979" height="176.65" filterUnits="userSpaceOnUse" color-interpolation-filters="sRGB">
        <feFlood flood-opacity="0" result="BackgroundImageFix"/>
        <feBlend mode="normal" in="SourceGraphic" in2="BackgroundImageFix" result="shape"/>
        <feGaussianBlur stdDeviation="0.455729" result="effect1_foregroundBlur_702_67017"/>
      </filter>
      <radialGradient id="paint1_radial_702_67017" cx="0" cy="0" r="1" gradientUnits="userSpaceOnUse" gradientTransform="translate(155.882 109.102) rotate(53.1177) scale(37.8177 40.2646)">
        <stop offset="0.203125" stop-color="#71FF30"/>
        <stop offset="0.890625" stop-color="#25BC46"/>
      </radialGradient>
      <linearGradient id="paint2_linear_702_67017" x1="145.215" y1="123.01" x2="155.829" y2="72.2914" gradientUnits="userSpaceOnUse">
        <stop stop-color="white" stop-opacity="0"/>
        <stop offset="0.471361" stop-color="white"/>
        <stop offset="1" stop-color="white"/>
      </linearGradient>
      <linearGradient id="paint3_linear_702_67017" x1="160.729" y1="220.938" x2="201.954" y2="178" gradientUnits="userSpaceOnUse">
        <stop stop-color="#F2F2F2"/>
        <stop offset="0.0001" stop-color="#F2F2F2"/>
        <stop offset="0.0520833" stop-color="#F2F2F2" stop-opacity="0.948011"/>
        <stop offset="1" stop-color="#F2F2F2" stop-opacity="0"/>
      </linearGradient>
    </defs>
  
    
    <!-- Color -->
    <path d="M177.734 130.914C177.734 127.951 179.774 122.048 187.933 122.136C196.091 122.224 198.203 128.025 198.239 130.914C198.312 133.035 197.089 137.629 191.621 139.033C184.786 140.789 177.734 136.839 177.734 130.914Z" fill="url(#paint0_radial_702_67018)"/>

    <defs>
      <!-- Color -->
      <radialGradient id="paint0_radial_702_67018" cx="0" cy="0" r="1" gradientUnits="userSpaceOnUse" gradientTransform="translate(182.539 125.892) rotate(45.8803) scale(10.3998 11.5271)">
        <stop offset="0.203125" style="stop-color: #FFB800;"/>
        <stop offset="0.890625" style="stop-color: #FF7800;"/>
      </radialGradient>
    </defs>
  
    
    <!-- Color -->
    <path d="M214.052 156.619L218.831 179.91C216.932 182.156 214.118 184.13 210.037 185.164C197.278 188.398 184.115 181.122 184.115 170.207C184.115 164.75 187.922 153.876 203.151 154.038C207.743 154.087 211.309 155.092 214.052 156.619Z" fill="url(#paint0_radial_702_67019)"/>

    <defs>
      <!-- Color -->
      <radialGradient id="paint0_radial_702_67019" cx="0" cy="0" r="1" gradientUnits="userSpaceOnUse" gradientTransform="translate(192.248 160.957) rotate(48.2936) scale(18.4215 20.2932)">
        <stop offset="0.203125" style="stop-color: #FFFFFF;"/>
        <stop offset="0.890625" style="stop-color: #D0C9C9;"/>
      </radialGradient>
    </defs>
  
    
    <!-- Color -->
    <path d="M223.109 211.89C217.522 215.445 199.996 225.13 174.887 225.13C146.901 225.13 128.335 213.098 125.221 210.933C125.032 210.801 124.911 210.606 124.87 210.39C128.808 199.004 144.115 175.86 164.064 181.919C173.943 184.919 180.859 192.452 187.364 199.536C197.438 210.508 206.525 220.404 224.106 210.722C223.783 211.11 223.451 211.499 223.109 211.89Z" fill="url(#paint0_radial_702_67020)"/>

    <!-- Filter -->
    <mask id="mask0_702_67020" style="mask-type:alpha" maskUnits="userSpaceOnUse" x="124" y="180" width="101" height="46">
      <path d="M223.109 211.89C217.522 215.445 199.996 225.13 174.887 225.13C146.901 225.13 128.335 213.098 125.221 210.933C125.032 210.802 124.911 210.606 124.87 210.39C128.808 199.004 144.115 175.86 164.064 181.919C173.943 184.92 180.859 192.452 187.364 199.536C197.438 210.508 206.525 220.405 224.106 210.722C223.783 211.11 223.451 211.499 223.109 211.89Z" fill="url(#paint1_radial_702_67020)"/>
    </mask>
    <g mask="url(#mask0_702_67020)">
      <g filter="url(#filter0_f_702_67020)">
        <mask id="mask1_702_67020" style="mask-type:alpha" maskUnits="userSpaceOnUse" x="124" y="94" width="102" height="132">
          <path d="M148.862 95.0639C148.949 94.6401 149.322 94.3359 149.754 94.3359H200.246C200.678 94.3359 201.051 94.6401 201.138 95.0639L224.993 211.159C225.074 211.555 224.888 211.955 224.527 212.137C220.624 214.109 198.375 224.817 175 225.128C151.578 225.438 129.287 214.178 125.45 212.141C125.099 211.954 124.924 211.562 125.004 211.173L148.862 95.0639Z" fill="#577096" fill-opacity="0.75"/>
        </mask>
        <g mask="url(#mask1_702_67020)">
          <g filter="url(#filter1_f_702_67020)">
            <path d="M155.407 125.301C156.469 105.018 134.471 86.183 128.929 66.9987C133.388 65.1975 144.05 70.7899 152.675 76.125C163.456 82.7938 162.879 109.124 164.625 125.784C166.022 139.112 148.453 223.401 144.015 241.482L131.716 240.837C140.242 214.68 154.587 140.955 155.407 125.301Z" fill="url(#paint2_linear_702_67020)" fill-opacity="0.6"/>
          </g>
        </g>
      </g>
    </g>

    <defs>
      <!-- Color -->
      <radialGradient id="paint0_radial_702_67020" cx="0" cy="0" r="1" gradientUnits="userSpaceOnUse" gradientTransform="translate(148.118 190.514) rotate(28.5454) scale(39.8814 37.1287)">
        <stop offset="0.203125" style="stop-color: #F85449;"/>
        <stop offset="0.890625" style="stop-color: #C53434;"/>
      </radialGradient>

      <!-- Filter -->
      <filter id="filter0_f_702_67020" x="122.591" y="92.0573" width="104.818" height="135.355" filterUnits="userSpaceOnUse" color-interpolation-filters="sRGB">
        <feFlood flood-opacity="0" result="BackgroundImageFix"/>
        <feBlend mode="normal" in="SourceGraphic" in2="BackgroundImageFix" result="shape"/>
        <feGaussianBlur stdDeviation="1.13932" result="effect1_foregroundBlur_702_67020"/>
      </filter>
      <filter id="filter1_f_702_67020" x="128.017" y="65.7428" width="37.5979" height="176.65" filterUnits="userSpaceOnUse" color-interpolation-filters="sRGB">
        <feFlood flood-opacity="0" result="BackgroundImageFix"/>
        <feBlend mode="normal" in="SourceGraphic" in2="BackgroundImageFix" result="shape"/>
        <feGaussianBlur stdDeviation="0.455729" result="effect1_foregroundBlur_702_67020"/>
      </filter>
      <radialGradient id="paint1_radial_702_67020" cx="0" cy="0" r="1" gradientUnits="userSpaceOnUse" gradientTransform="translate(146.218 191.259) rotate(27.3324) scale(58.602 42.3474)">
        <stop offset="0.302083" stop-color="#FFB800"/>
        <stop offset="1" stop-color="#FF7800"/>
      </radialGradient>
      <linearGradient id="paint2_linear_702_67020" x1="160.729" y1="220.939" x2="201.954" y2="178" gradientUnits="userSpaceOnUse">
        <stop stop-color="#F2F2F2"/>
        <stop offset="0.0001" stop-color="#F2F2F2"/>
        <stop offset="0.0520833" stop-color="#F2F2F2" stop-opacity="0.948011"/>
        <stop offset="1" stop-color="#F2F2F2" stop-opacity="0"/>
      </linearGradient>
    </defs>
  
  
    </svg>
  