
    <svg width="350" height="350" viewBox="0 0 350 350" fill="none" xmlns="http://www.w3.org/2000/svg">
    
  <g clip-path="url(#clip0_28_269)">
  <rect width="350" height="350" fill="white"/>
  <rect x="0.0788574" y="0.0444336" width="350" height="350" fill="#E9C4E7" fill-opacity="0.78"/>
  <path d="M125.979 290.538L299.832 190.751L430.987 233.879L212.56 294.049L125.979 290.538Z" fill="url(#paint0_linear_28_269)" fill-opacity="0.1"/>
  <g opacity="0.45" filter="url(#filter0_f_28_269)">
  <ellipse rx="194.596" ry="66.7643" transform="matrix(0.999998 0.00221055 0.00221055 -0.999998 176.078 304.638)" fill="url(#paint1_radial_28_269)"/>
  </g>
  <g opacity="0.7" filter="url(#filter1_f_28_269)">
  <ellipse cx="174.396" cy="137.609" rx="196.647" ry="242.448" transform="rotate(0.126655 174.396 137.609)" fill="url(#paint2_radial_28_269)"/>
  </g>
  </g>
  <defs>
  <filter id="filter0_f_28_269" x="-23.0756" y="233.315" width="398.306" height="142.646" filterUnits="userSpaceOnUse" color-interpolation-filters="sRGB">
  <feFlood flood-opacity="0" result="BackgroundImageFix"/>
  <feBlend mode="normal" in="SourceGraphic" in2="BackgroundImageFix" result="shape"/>
  <feGaussianBlur stdDeviation="2.27865" result="effect1_foregroundBlur_28_269"/>
  </filter>
  <filter id="filter1_f_28_269" x="-26.8085" y="-109.396" width="402.409" height="494.01" filterUnits="userSpaceOnUse" color-interpolation-filters="sRGB">
  <feFlood flood-opacity="0" result="BackgroundImageFix"/>
  <feBlend mode="normal" in="SourceGraphic" in2="BackgroundImageFix" result="shape"/>
  <feGaussianBlur stdDeviation="2.27865" result="effect1_foregroundBlur_28_269"/>
  </filter>
  <linearGradient id="paint0_linear_28_269" x1="194.836" y1="271.638" x2="316.537" y2="167.936" gradientUnits="userSpaceOnUse">
  <stop/>
  <stop offset="1" stop-color="#333333" stop-opacity="0"/>
  </linearGradient>
  <radialGradient id="paint1_radial_28_269" cx="0" cy="0" r="1" gradientUnits="userSpaceOnUse" gradientTransform="translate(194.596 76.624) rotate(99.1226) scale(43.9775 125.337)">
  <stop stop-color="#F221F7" stop-opacity="0.62"/>
  <stop offset="1" stop-color="#D32EE1" stop-opacity="0"/>
  </radialGradient>
  <radialGradient id="paint2_radial_28_269" cx="0" cy="0" r="1" gradientUnits="userSpaceOnUse" gradientTransform="translate(174.396 173.413) rotate(92.5586) scale(157.837 128.153)">
  <stop stop-color="#F221F7" stop-opacity="0.62"/>
  <stop offset="1" stop-color="#D32EE1" stop-opacity="0"/>
  </radialGradient>
  <clipPath id="clip0_28_269">
  <rect width="350" height="350" fill="white"/>
  </clipPath>
  </defs>

    
  <g clip-path="url(#clip0_589_123547)">
  <g style="mix-blend-mode:overlay">
  <path fill-rule="evenodd" clip-rule="evenodd" d="M78.8411 117.851C113.323 117.851 141.276 89.8984 141.276 55.4166C141.276 20.9347 113.323 -7.01834 78.8411 -7.01834C44.3593 -7.01834 16.4062 20.9347 16.4062 55.4166C16.4062 89.8984 44.3593 117.851 78.8411 117.851ZM78.8411 -0.0293641C79.6131 -0.0293641 80.3813 -0.0135894 81.1455 0.0176539C116.331 3.89748 114.168 54.4846 79.0743 54.4846C79.0411 54.4846 79.0081 54.4886 78.9751 54.4966C78.6985 54.4887 78.4208 54.4847 78.1423 54.4847C62.3166 54.4847 49.4874 67.3139 49.4874 83.1395C49.4874 95.1042 56.8204 105.356 67.2372 109.646C42.1859 104.312 23.3952 82.0586 23.3952 55.4166C23.3952 24.7946 48.2192 -0.0293641 78.8411 -0.0293641ZM78.1423 90.8274C82.3881 90.8274 85.8301 87.3854 85.8301 83.1395C85.8301 78.8936 82.3881 75.4516 78.1423 75.4516C73.8963 75.4516 70.4544 78.8936 70.4544 83.1395C70.4544 87.3854 73.8963 90.8274 78.1423 90.8274Z" fill="white" fill-opacity="0.25"/>
  <path d="M85.8301 27.6936C85.8301 31.9395 82.3881 35.3815 78.1423 35.3815C73.8964 35.3815 70.4544 31.9395 70.4544 27.6936C70.4544 23.4477 73.8964 20.0057 78.1423 20.0057C82.3881 20.0057 85.8301 23.4477 85.8301 27.6936Z" fill="white" fill-opacity="0.25"/>
  </g>
  <g style="mix-blend-mode:overlay">
  <path fill-rule="evenodd" clip-rule="evenodd" d="M91.8296 270.521C113.349 270.521 130.794 253.076 130.794 231.556C130.794 210.036 113.349 192.591 91.8296 192.591C70.3099 192.591 52.8647 210.036 52.8647 231.556C52.8647 253.076 70.3099 270.521 91.8296 270.521ZM91.8296 196.953C92.3113 196.953 92.7908 196.963 93.2677 196.982C115.226 199.403 113.877 230.974 91.9751 230.974C91.9544 230.974 91.9338 230.977 91.9132 230.982C91.7405 230.977 91.5673 230.974 91.3934 230.974C81.5168 230.974 73.5103 238.981 73.5103 248.857C73.5103 256.324 78.0867 262.723 84.5877 265.4C68.9535 262.071 57.2265 248.183 57.2265 231.556C57.2265 212.445 72.7188 196.953 91.8296 196.953ZM91.3934 253.655C94.0432 253.655 96.1913 251.507 96.1913 248.857C96.1913 246.208 94.0432 244.06 91.3934 244.06C88.7436 244.06 86.5955 246.208 86.5955 248.857C86.5955 251.507 88.7436 253.655 91.3934 253.655Z" fill="white" fill-opacity="0.25"/>
  <path d="M96.1913 214.254C96.1913 216.904 94.0432 219.052 91.3934 219.052C88.7436 219.052 86.5955 216.904 86.5955 214.254C86.5955 211.605 88.7436 209.456 91.3934 209.456C94.0432 209.456 96.1913 211.605 96.1913 214.254Z" fill="white" fill-opacity="0.25"/>
  </g>
  <g style="mix-blend-mode:overlay">
  <path fill-rule="evenodd" clip-rule="evenodd" d="M255.436 366.68C276.956 366.68 294.401 349.235 294.401 327.715C294.401 306.195 276.956 288.75 255.436 288.75C233.916 288.75 216.471 306.195 216.471 327.715C216.471 349.235 233.916 366.68 255.436 366.68ZM255.436 293.112C255.918 293.112 256.397 293.122 256.874 293.141C278.833 295.562 277.483 327.133 255.582 327.133C255.561 327.133 255.54 327.136 255.52 327.141C255.347 327.136 255.174 327.133 255 327.133C245.123 327.133 237.117 335.14 237.117 345.016C237.117 352.483 241.693 358.882 248.194 361.559C232.56 358.23 220.833 344.342 220.833 327.715C220.833 308.604 236.325 293.112 255.436 293.112ZM255 349.814C257.65 349.814 259.798 347.666 259.798 345.016C259.798 342.367 257.65 340.219 255 340.219C252.35 340.219 250.202 342.367 250.202 345.016C250.202 347.666 252.35 349.814 255 349.814Z" fill="white" fill-opacity="0.25"/>
  <path d="M259.798 310.413C259.798 313.063 257.65 315.211 255 315.211C252.35 315.211 250.202 313.063 250.202 310.413C250.202 307.764 252.35 305.615 255 305.615C257.65 305.615 259.798 307.764 259.798 310.413Z" fill="white" fill-opacity="0.25"/>
  </g>
  <g style="mix-blend-mode:overlay">
  <path fill-rule="evenodd" clip-rule="evenodd" d="M236.751 43.1119C258.271 43.1119 275.716 25.6668 275.716 4.1471C275.716 -17.3726 258.271 -34.8177 236.751 -34.8177C215.232 -34.8177 197.787 -17.3726 197.787 4.1471C197.787 25.6668 215.232 43.1119 236.751 43.1119ZM236.751 -30.456C237.233 -30.456 237.713 -30.4462 238.19 -30.4267C260.148 -28.0053 258.799 3.5655 236.897 3.5655C236.876 3.5655 236.856 3.568 236.835 3.57295C236.662 3.56802 236.489 3.56554 236.315 3.56554C226.439 3.56554 218.432 11.5721 218.432 21.4487C218.432 28.9156 223.009 35.3138 229.51 37.9912C213.875 34.6621 202.148 20.7741 202.148 4.1471C202.148 -14.9637 217.641 -30.456 236.751 -30.456ZM236.315 26.2466C238.965 26.2466 241.113 24.0985 241.113 21.4487C241.113 18.7988 238.965 16.6507 236.315 16.6507C233.665 16.6507 231.517 18.7988 231.517 21.4487C231.517 24.0985 233.665 26.2466 236.315 26.2466Z" fill="white" fill-opacity="0.25"/>
  <path d="M241.113 -13.1545C241.113 -10.5046 238.965 -8.35654 236.315 -8.35654C233.665 -8.35654 231.517 -10.5046 231.517 -13.1545C231.517 -15.8043 233.665 -17.9524 236.315 -17.9524C238.965 -17.9524 241.113 -15.8043 241.113 -13.1545Z" fill="white" fill-opacity="0.25"/>
  </g>
  <g style="mix-blend-mode:overlay">
  <path fill-rule="evenodd" clip-rule="evenodd" d="M289.388 211.732C315.312 211.732 336.328 190.716 336.328 164.792C336.328 138.867 315.312 117.852 289.388 117.852C263.464 117.852 242.448 138.867 242.448 164.792C242.448 190.716 263.464 211.732 289.388 211.732ZM289.388 123.106C289.968 123.106 290.546 123.118 291.12 123.141C317.574 126.058 315.947 164.091 289.563 164.091C289.538 164.091 289.513 164.094 289.489 164.1C289.281 164.094 289.072 164.091 288.862 164.091C276.964 164.091 267.319 173.736 267.319 185.635C267.319 194.63 272.832 202.338 280.664 205.563C261.83 201.552 247.702 184.822 247.702 164.792C247.702 141.769 266.366 123.106 289.388 123.106ZM288.862 191.414C292.055 191.414 294.642 188.827 294.642 185.635C294.642 182.442 292.055 179.855 288.862 179.855C285.67 179.855 283.082 182.442 283.082 185.635C283.082 188.827 285.67 191.414 288.862 191.414Z" fill="white" fill-opacity="0.25"/>
  <path d="M294.642 143.949C294.642 147.141 292.055 149.729 288.862 149.729C285.67 149.729 283.082 147.141 283.082 143.949C283.082 140.757 285.67 138.169 288.862 138.169C292.055 138.169 294.642 140.757 294.642 143.949Z" fill="white" fill-opacity="0.25"/>
  </g>
  </g>
  <defs>
  <clipPath id="clip0_589_123547">
  <rect width="350" height="350" fill="white"/>
  </clipPath>
  </defs>

    
  <g filter="url(#filter0_d_559_36465)">
  <path d="M257.528 150.902C249.652 153.534 240.882 153.402 234.142 152.261C243.181 142.11 255.176 129.932 264.686 123.065C267.288 121.186 269.629 119.761 271.616 118.88C273.67 117.97 275.032 117.785 275.821 117.941C276.161 118.008 276.386 118.136 276.566 118.315C276.76 118.507 277.002 118.862 277.198 119.519C277.608 120.895 277.704 123.22 277.122 126.85C274.87 140.908 266.781 147.809 257.528 150.902Z" stroke="white" stroke-width="4.55729" shape-rendering="crispEdges"/>
  </g>
  <g filter="url(#filter1_d_559_36465)">
  <path d="M250.354 171.675C242.923 167.967 236.816 161.672 232.856 156.099C246.426 155.314 263.519 155.183 275.099 157.053C278.267 157.564 280.93 158.211 282.958 158.994C285.054 159.803 286.148 160.635 286.596 161.303C286.789 161.591 286.857 161.84 286.858 162.094C286.859 162.368 286.78 162.789 286.454 163.393C285.771 164.655 284.194 166.367 281.216 168.522C269.683 176.87 259.083 176.031 250.354 171.675Z" stroke="white" stroke-width="4.55729" shape-rendering="crispEdges"/>
  </g>
  <g filter="url(#filter2_d_559_36465)">
  <path d="M92.41 150.902C100.286 153.534 109.056 153.402 115.796 152.261C106.757 142.11 94.7621 129.932 85.2516 123.065C82.6502 121.186 80.3093 119.761 78.3217 118.88C76.2681 117.97 74.9063 117.785 74.1174 117.941C73.7768 118.008 73.5521 118.136 73.3723 118.315C73.178 118.507 72.9358 118.862 72.7399 119.519C72.33 120.895 72.2345 123.22 72.816 126.85C75.0683 140.908 83.1571 147.809 92.41 150.902Z" stroke="white" stroke-width="4.55729" shape-rendering="crispEdges"/>
  </g>
  <g filter="url(#filter3_d_559_36465)">
  <path d="M99.5842 171.675C107.015 167.967 113.122 161.672 117.082 156.099C103.512 155.314 86.4192 155.183 74.8386 157.053C71.6709 157.564 69.0076 158.211 66.9795 158.994C64.8841 159.803 63.79 160.635 63.3425 161.303C63.1493 161.591 63.0807 161.84 63.0798 162.094C63.0788 162.368 63.1579 162.789 63.4843 163.393C64.1674 164.655 65.7438 166.367 68.7217 168.522C80.2548 176.87 90.8547 176.031 99.5842 171.675Z" stroke="white" stroke-width="4.55729" shape-rendering="crispEdges"/>
  </g>
  <defs>
  <filter id="filter0_d_559_36465" x="226.526" y="112.289" width="56.6081" height="46.3486" filterUnits="userSpaceOnUse" color-interpolation-filters="sRGB">
  <feFlood flood-opacity="0" result="BackgroundImageFix"/>
  <feColorMatrix in="SourceAlpha" type="matrix" values="0 0 0 0 0 0 0 0 0 0 0 0 0 0 0 0 0 0 127 0" result="hardAlpha"/>
  <feOffset/>
  <feGaussianBlur stdDeviation="1.66205"/>
  <feComposite in2="hardAlpha" operator="out"/>
  <feColorMatrix type="matrix" values="0 0 0 0 1 0 0 0 0 1 0 0 0 0 1 0 0 0 1 0"/>
  <feBlend mode="normal" in2="BackgroundImageFix" result="effect1_dropShadow_559_36465"/>
  <feBlend mode="normal" in="SourceGraphic" in2="effect1_dropShadow_559_36465" result="shape"/>
  </filter>
  <filter id="filter1_d_559_36465" x="225.487" y="149.953" width="66.9734" height="30.552" filterUnits="userSpaceOnUse" color-interpolation-filters="sRGB">
  <feFlood flood-opacity="0" result="BackgroundImageFix"/>
  <feColorMatrix in="SourceAlpha" type="matrix" values="0 0 0 0 0 0 0 0 0 0 0 0 0 0 0 0 0 0 127 0" result="hardAlpha"/>
  <feOffset/>
  <feGaussianBlur stdDeviation="1.66205"/>
  <feComposite in2="hardAlpha" operator="out"/>
  <feColorMatrix type="matrix" values="0 0 0 0 1 0 0 0 0 1 0 0 0 0 1 0 0 0 1 0"/>
  <feBlend mode="normal" in2="BackgroundImageFix" result="effect1_dropShadow_559_36465"/>
  <feBlend mode="normal" in="SourceGraphic" in2="effect1_dropShadow_559_36465" result="shape"/>
  </filter>
  <filter id="filter2_d_559_36465" x="66.8034" y="112.289" width="56.6081" height="46.3486" filterUnits="userSpaceOnUse" color-interpolation-filters="sRGB">
  <feFlood flood-opacity="0" result="BackgroundImageFix"/>
  <feColorMatrix in="SourceAlpha" type="matrix" values="0 0 0 0 0 0 0 0 0 0 0 0 0 0 0 0 0 0 127 0" result="hardAlpha"/>
  <feOffset/>
  <feGaussianBlur stdDeviation="1.66205"/>
  <feComposite in2="hardAlpha" operator="out"/>
  <feColorMatrix type="matrix" values="0 0 0 0 1 0 0 0 0 1 0 0 0 0 1 0 0 0 1 0"/>
  <feBlend mode="normal" in2="BackgroundImageFix" result="effect1_dropShadow_559_36465"/>
  <feBlend mode="normal" in="SourceGraphic" in2="effect1_dropShadow_559_36465" result="shape"/>
  </filter>
  <filter id="filter3_d_559_36465" x="57.4772" y="149.953" width="66.9734" height="30.552" filterUnits="userSpaceOnUse" color-interpolation-filters="sRGB">
  <feFlood flood-opacity="0" result="BackgroundImageFix"/>
  <feColorMatrix in="SourceAlpha" type="matrix" values="0 0 0 0 0 0 0 0 0 0 0 0 0 0 0 0 0 0 127 0" result="hardAlpha"/>
  <feOffset/>
  <feGaussianBlur stdDeviation="1.66205"/>
  <feComposite in2="hardAlpha" operator="out"/>
  <feColorMatrix type="matrix" values="0 0 0 0 1 0 0 0 0 1 0 0 0 0 1 0 0 0 1 0"/>
  <feBlend mode="normal" in2="BackgroundImageFix" result="effect1_dropShadow_559_36465"/>
  <feBlend mode="normal" in="SourceGraphic" in2="effect1_dropShadow_559_36465" result="shape"/>
  </filter>
  </defs>
    
    
  <g clip-path="url(#clip0_680_67874)">
  <path d="M230.076 316.485L204.588 287.054C204.415 286.854 204.164 286.74 203.899 286.74H174.803H145.887C145.621 286.74 145.368 286.855 145.195 287.057L119.918 316.485C119.621 316.831 119.62 317.331 119.94 317.654C123.162 320.91 140.896 337.098 175 337.098C209.096 337.098 226.829 320.917 230.057 317.656C230.378 317.332 230.375 316.83 230.076 316.485Z" fill="url(#paint0_linear_680_67874)"/>
  <path d="M155.657 64.3044C159.112 51.3269 161.898 34.7211 174.784 34.7211C187.67 34.7211 192.185 55.2816 194.341 64.6208C196.327 73.2253 200.672 93.1271 201.343 96.2053C201.401 96.4698 201.334 96.7312 201.144 96.9246C199.762 98.3363 193.093 103.992 174.999 103.992C156.85 103.992 150.196 98.302 148.841 96.9119C148.659 96.7245 148.592 96.4718 148.641 96.2148C149.176 93.408 152.493 76.1925 155.657 64.3044Z" fill="url(#paint1_linear_680_67874)"/>
  <path d="M124.486 212.334C124.644 211.724 125.35 211.438 125.892 211.76C130.805 214.68 151.572 226.127 175.23 226.127C198.848 226.127 219.241 214.717 224.109 211.774C224.651 211.446 225.362 211.733 225.52 212.346C229.593 228.14 244.818 265.011 232.899 283.941C217.484 308.422 200.523 316.817 175.002 316.817C149.481 316.817 132.519 308.422 117.105 283.941C105.182 265.006 120.418 228.121 124.486 212.334Z" fill="url(#paint2_linear_680_67874)"/>
  <mask id="mask0_680_67874" style="mask-type:alpha" maskUnits="userSpaceOnUse" x="112" y="211" width="126" height="107">
  <path d="M124.726 211.544C124.726 211.544 148.046 226.583 175.162 226.583C202.278 226.583 225.142 211.544 225.142 211.544C228.665 226.548 245.08 264.945 232.831 284.397C217.417 308.878 200.455 317.273 174.934 317.273C149.413 317.273 132.452 308.878 117.037 284.397C104.789 264.945 121.203 226.548 124.726 211.544Z" fill="url(#paint3_radial_680_67874)"/>
  </mask>
  <g mask="url(#mask0_680_67874)">
  <path d="M203.646 320.919C210.524 302.924 220.153 257.678 203.646 220.659" stroke="#773B06" stroke-opacity="0.1" stroke-width="4.55729"/>
  <path d="M181.315 320.919C186.784 303.601 192.253 258.029 181.315 220.659" stroke="#773B06" stroke-opacity="0.1" stroke-width="4.55729"/>
  <path d="M165.365 320.919C159.896 303.601 154.427 258.029 165.365 220.659" stroke="#773B06" stroke-opacity="0.1" stroke-width="4.55729"/>
  <path d="M143.034 320.919C136.156 302.924 126.527 257.678 143.034 220.659" stroke="#773B06" stroke-opacity="0.1" stroke-width="4.55729"/>
  </g>
  <path d="M154.676 247.319C155.202 246.408 156.517 246.408 157.044 247.319L166.91 264.409C167.437 265.32 166.779 266.46 165.726 266.46H145.993C144.94 266.46 144.283 265.32 144.809 264.409L154.676 247.319Z" fill="black"/>
  <path d="M194.413 247.319C193.887 246.407 192.571 246.407 192.045 247.319L182.178 264.409C181.652 265.32 182.31 266.46 183.362 266.46H203.096C204.148 266.46 204.806 265.32 204.28 264.409L194.413 247.319Z" fill="black"/>
  <path fill-rule="evenodd" clip-rule="evenodd" d="M163.58 277.717H185.251V284.06H192.651V277.717H209.041C210.854 277.717 211.841 279.653 210.622 280.995C205.795 286.309 194.305 296.217 175.737 296.217C175.203 296.217 174.674 296.209 174.151 296.193V289.875H166.751V295.414C153.296 292.962 144.315 285.466 140.041 281.056C138.751 279.725 139.726 277.717 141.58 277.717H156.18V284.06H163.58V277.717Z" fill="black"/>
  <path d="M194.444 64.1352C192.245 54.5888 187.667 34.7211 175 34.7211L175.214 337.097C213.132 337.097 230.813 317.088 230.813 317.088L218.057 302.358C223.366 297.623 228.313 291.561 233.111 283.941C242.928 268.352 234.334 240.595 228.721 222.463C227.33 217.97 226.122 214.068 225.422 211.088C225.422 211.088 225.308 211.164 225.086 211.303L201.464 96.6008C201.534 96.3695 201.54 96.1175 201.485 95.8663C200.617 91.8882 196.48 72.9551 194.556 64.6208L194.444 64.1352Z" fill="#161A70" fill-opacity="0.1"/>
  </g>
  <defs>
  <linearGradient id="paint0_linear_680_67874" x1="135.069" y1="294.998" x2="164.771" y2="363.907" gradientUnits="userSpaceOnUse">
  <stop stop-color="#9A0404"/>
  <stop offset="0.473958" stop-color="#D80101" stop-opacity="0.98"/>
  <stop offset="1" stop-color="#FF8080" stop-opacity="0.98"/>
  </linearGradient>
  <linearGradient id="paint1_linear_680_67874" x1="174.999" y1="11.1332" x2="152.221" y2="103.447" gradientUnits="userSpaceOnUse">
  <stop stop-color="#830101"/>
  <stop offset="0.979167" stop-color="#FF1818" stop-opacity="0.98"/>
  </linearGradient>
  <linearGradient id="paint2_linear_680_67874" x1="175.002" y1="205.164" x2="160.106" y2="298.489" gradientUnits="userSpaceOnUse">
  <stop stop-color="#830101"/>
  <stop offset="0.979167" stop-color="#FF1818" stop-opacity="0.98"/>
  </linearGradient>
  <radialGradient id="paint3_radial_680_67874" cx="0" cy="0" r="1" gradientUnits="userSpaceOnUse" gradientTransform="translate(153.059 258.94) rotate(36.2538) scale(76.2935 67.5721)">
  <stop offset="0.0989583" stop-color="#FFB800"/>
  <stop offset="1" stop-color="#E96D00"/>
  </radialGradient>
  <clipPath id="clip0_680_67874">
  <rect width="350" height="350" fill="white" transform="translate(0 0.99707)"/>
  </clipPath>
  </defs>

    
    <path d="M148.647 94.3351L124.888 210.017C124.817 210.363 124.947 210.714 125.237 210.915C128.356 213.082 146.958 225.128 174.998 225.128C203.038 225.128 221.64 213.082 224.76 210.915C225.05 210.714 225.18 210.363 225.109 210.017L201.35 94.3351C201.316 94.4021 201.271 94.4644 201.216 94.5198C199.881 95.8685 193.226 101.484 174.998 101.484C156.771 101.484 150.116 95.8685 148.78 94.5198C148.725 94.4644 148.681 94.4021 148.647 94.3351Z" fill="#000000" fill-opacity="0.75"/>;
    
    <!-- Color -->
    <path d="M201.049 94.2304L205.113 114.031C203.523 113.76 201.871 113.447 200.18 113.127C186.038 110.452 169.252 107.276 165.003 123.73C163.148 130.914 165.836 135.212 168.45 139.394C170.975 143.43 173.431 147.358 171.668 153.669C169.523 161.35 157.859 166.325 148.479 162.994C138.57 159.476 139.266 144.903 144.961 137.849C150.656 130.794 151.48 120.031 150.656 112.87C150.259 109.409 148.549 106.935 146.313 105.251L148.649 93.8801C148.683 93.9471 148.727 94.0094 148.782 94.0649C150.117 95.4136 156.772 101.03 175 101.03C192.557 101.03 199.378 95.8189 201.049 94.2304Z" fill="url(#paint0_radial_702_67017)"/>

    <!-- Filter -->
    <mask id="mask0_702_67017" style="mask-type:alpha" maskUnits="userSpaceOnUse" x="140" y="93" width="66" height="72">
      <path d="M201.049 94.2304L205.113 114.031C203.523 113.76 201.871 113.447 200.18 113.127C186.038 110.452 169.252 107.276 165.003 123.73C163.148 130.914 165.836 135.212 168.45 139.394C170.975 143.43 173.431 147.358 171.668 153.669C169.523 161.35 157.859 166.325 148.479 162.994C138.57 159.476 139.266 144.903 144.961 137.849C150.656 130.794 151.48 120.031 150.656 112.87C150.259 109.409 148.549 106.935 146.313 105.251L148.649 93.8801C148.683 93.9471 148.727 94.0094 148.782 94.0649C150.117 95.4136 156.772 101.03 175 101.03C192.557 101.03 199.378 95.8189 201.049 94.2304Z" fill="url(#paint1_radial_702_67017)"/>
    </mask>
    <g mask="url(#mask0_702_67017)">
      <g filter="url(#filter0_f_702_67017)">
        <mask id="mask1_702_67017" style="mask-type:alpha" maskUnits="userSpaceOnUse" x="124" y="94" width="102" height="132">
          <path d="M148.862 95.0637C148.949 94.6399 149.322 94.3357 149.754 94.3357H200.246C200.678 94.3357 201.051 94.6399 201.138 95.0637L224.993 211.158C225.074 211.554 224.888 211.954 224.527 212.137C220.624 214.108 198.375 224.817 175 225.127C151.578 225.438 129.287 214.178 125.45 212.14C125.099 211.954 124.924 211.562 125.004 211.173L148.862 95.0637Z" fill="#577096" fill-opacity="0.75"/>
        </mask>
        <g mask="url(#mask1_702_67017)">
          <g filter="url(#filter1_f_702_67017)">
            <path d="M207.208 76.1064C210.866 110.268 145.941 132.571 113.021 139.453L113.021 76.1064L207.208 76.1064Z" fill="url(#paint2_linear_702_67017)" fill-opacity="0.5"/>
          </g>
          <g filter="url(#filter2_f_702_67017)">
            <path d="M155.407 125.301C156.469 105.018 134.471 86.1828 128.929 66.9985C133.388 65.1973 144.05 70.7896 152.675 76.1247C163.456 82.7936 162.879 109.124 164.625 125.784C166.022 139.112 148.453 223.401 144.015 241.481L131.716 240.837C140.242 214.68 154.587 140.955 155.407 125.301Z" fill="url(#paint3_linear_702_67017)" fill-opacity="0.6"/>
          </g>
        </g>
      </g>
    </g>

    <defs>
      <!-- Color -->
      <radialGradient id="paint0_radial_702_67017" cx="0" cy="0" r="1" gradientUnits="userSpaceOnUse" gradientTransform="translate(155.882 109.102) rotate(53.1177) scale(37.8177 40.2646)">
        <stop offset="0.203125" style="stop-color: #5000B6;"/>
        <stop offset="0.890625" style="stop-color: #7E5EFF;"/>
      </radialGradient>

      <!-- Filter -->
      <filter id="filter0_f_702_67017" x="122.591" y="92.057" width="104.818" height="135.355" filterUnits="userSpaceOnUse" color-interpolation-filters="sRGB">
        <feFlood flood-opacity="0" result="BackgroundImageFix"/>
        <feBlend mode="normal" in="SourceGraphic" in2="BackgroundImageFix" result="shape"/>
        <feGaussianBlur stdDeviation="1.13932" result="effect1_foregroundBlur_702_67017"/>
      </filter>
      <filter id="filter1_f_702_67017" x="112.109" y="75.195" width="96.1589" height="65.1694" filterUnits="userSpaceOnUse" color-interpolation-filters="sRGB">
        <feFlood flood-opacity="0" result="BackgroundImageFix"/>
        <feBlend mode="normal" in="SourceGraphic" in2="BackgroundImageFix" result="shape"/>
        <feGaussianBlur stdDeviation="0.455729" result="effect1_foregroundBlur_702_67017"/>
      </filter>
      <filter id="filter2_f_702_67017" x="128.017" y="65.7426" width="37.5979" height="176.65" filterUnits="userSpaceOnUse" color-interpolation-filters="sRGB">
        <feFlood flood-opacity="0" result="BackgroundImageFix"/>
        <feBlend mode="normal" in="SourceGraphic" in2="BackgroundImageFix" result="shape"/>
        <feGaussianBlur stdDeviation="0.455729" result="effect1_foregroundBlur_702_67017"/>
      </filter>
      <radialGradient id="paint1_radial_702_67017" cx="0" cy="0" r="1" gradientUnits="userSpaceOnUse" gradientTransform="translate(155.882 109.102) rotate(53.1177) scale(37.8177 40.2646)">
        <stop offset="0.203125" stop-color="#71FF30"/>
        <stop offset="0.890625" stop-color="#25BC46"/>
      </radialGradient>
      <linearGradient id="paint2_linear_702_67017" x1="145.215" y1="123.01" x2="155.829" y2="72.2914" gradientUnits="userSpaceOnUse">
        <stop stop-color="white" stop-opacity="0"/>
        <stop offset="0.471361" stop-color="white"/>
        <stop offset="1" stop-color="white"/>
      </linearGradient>
      <linearGradient id="paint3_linear_702_67017" x1="160.729" y1="220.938" x2="201.954" y2="178" gradientUnits="userSpaceOnUse">
        <stop stop-color="#F2F2F2"/>
        <stop offset="0.0001" stop-color="#F2F2F2"/>
        <stop offset="0.0520833" stop-color="#F2F2F2" stop-opacity="0.948011"/>
        <stop offset="1" stop-color="#F2F2F2" stop-opacity="0"/>
      </linearGradient>
    </defs>
  
    
    <!-- Color -->
    <path d="M177.734 130.914C177.734 127.951 179.774 122.048 187.933 122.136C196.091 122.224 198.203 128.025 198.239 130.914C198.312 133.035 197.089 137.629 191.621 139.033C184.786 140.789 177.734 136.839 177.734 130.914Z" fill="url(#paint0_radial_702_67018)"/>

    <defs>
      <!-- Color -->
      <radialGradient id="paint0_radial_702_67018" cx="0" cy="0" r="1" gradientUnits="userSpaceOnUse" gradientTransform="translate(182.539 125.892) rotate(45.8803) scale(10.3998 11.5271)">
        <stop offset="0.203125" style="stop-color: #21F6EA;"/>
        <stop offset="0.890625" style="stop-color: #2183F6;"/>
      </radialGradient>
    </defs>
  
    
    <!-- Color -->
    <path d="M214.052 156.619L218.831 179.91C216.932 182.156 214.118 184.13 210.037 185.164C197.278 188.398 184.115 181.122 184.115 170.207C184.115 164.75 187.922 153.876 203.151 154.038C207.743 154.087 211.309 155.092 214.052 156.619Z" fill="url(#paint0_radial_702_67019)"/>

    <defs>
      <!-- Color -->
      <radialGradient id="paint0_radial_702_67019" cx="0" cy="0" r="1" gradientUnits="userSpaceOnUse" gradientTransform="translate(192.248 160.957) rotate(48.2936) scale(18.4215 20.2932)">
        <stop offset="0.203125" style="stop-color: #FABE09;"/>
        <stop offset="0.890625" style="stop-color: #FDF21B;"/>
      </radialGradient>
    </defs>
  
    
    <!-- Color -->
    <path d="M223.109 211.89C217.522 215.445 199.996 225.13 174.887 225.13C146.901 225.13 128.335 213.098 125.221 210.933C125.032 210.801 124.911 210.606 124.87 210.39C128.808 199.004 144.115 175.86 164.064 181.919C173.943 184.919 180.859 192.452 187.364 199.536C197.438 210.508 206.525 220.404 224.106 210.722C223.783 211.11 223.451 211.499 223.109 211.89Z" fill="url(#paint0_radial_702_67020)"/>

    <!-- Filter -->
    <mask id="mask0_702_67020" style="mask-type:alpha" maskUnits="userSpaceOnUse" x="124" y="180" width="101" height="46">
      <path d="M223.109 211.89C217.522 215.445 199.996 225.13 174.887 225.13C146.901 225.13 128.335 213.098 125.221 210.933C125.032 210.802 124.911 210.606 124.87 210.39C128.808 199.004 144.115 175.86 164.064 181.919C173.943 184.92 180.859 192.452 187.364 199.536C197.438 210.508 206.525 220.405 224.106 210.722C223.783 211.11 223.451 211.499 223.109 211.89Z" fill="url(#paint1_radial_702_67020)"/>
    </mask>
    <g mask="url(#mask0_702_67020)">
      <g filter="url(#filter0_f_702_67020)">
        <mask id="mask1_702_67020" style="mask-type:alpha" maskUnits="userSpaceOnUse" x="124" y="94" width="102" height="132">
          <path d="M148.862 95.0639C148.949 94.6401 149.322 94.3359 149.754 94.3359H200.246C200.678 94.3359 201.051 94.6401 201.138 95.0639L224.993 211.159C225.074 211.555 224.888 211.955 224.527 212.137C220.624 214.109 198.375 224.817 175 225.128C151.578 225.438 129.287 214.178 125.45 212.141C125.099 211.954 124.924 211.562 125.004 211.173L148.862 95.0639Z" fill="#577096" fill-opacity="0.75"/>
        </mask>
        <g mask="url(#mask1_702_67020)">
          <g filter="url(#filter1_f_702_67020)">
            <path d="M155.407 125.301C156.469 105.018 134.471 86.183 128.929 66.9987C133.388 65.1975 144.05 70.7899 152.675 76.125C163.456 82.7938 162.879 109.124 164.625 125.784C166.022 139.112 148.453 223.401 144.015 241.482L131.716 240.837C140.242 214.68 154.587 140.955 155.407 125.301Z" fill="url(#paint2_linear_702_67020)" fill-opacity="0.6"/>
          </g>
        </g>
      </g>
    </g>

    <defs>
      <!-- Color -->
      <radialGradient id="paint0_radial_702_67020" cx="0" cy="0" r="1" gradientUnits="userSpaceOnUse" gradientTransform="translate(148.118 190.514) rotate(28.5454) scale(39.8814 37.1287)">
        <stop offset="0.203125" style="stop-color: #F85449;"/>
        <stop offset="0.890625" style="stop-color: #C53434;"/>
      </radialGradient>

      <!-- Filter -->
      <filter id="filter0_f_702_67020" x="122.591" y="92.0573" width="104.818" height="135.355" filterUnits="userSpaceOnUse" color-interpolation-filters="sRGB">
        <feFlood flood-opacity="0" result="BackgroundImageFix"/>
        <feBlend mode="normal" in="SourceGraphic" in2="BackgroundImageFix" result="shape"/>
        <feGaussianBlur stdDeviation="1.13932" result="effect1_foregroundBlur_702_67020"/>
      </filter>
      <filter id="filter1_f_702_67020" x="128.017" y="65.7428" width="37.5979" height="176.65" filterUnits="userSpaceOnUse" color-interpolation-filters="sRGB">
        <feFlood flood-opacity="0" result="BackgroundImageFix"/>
        <feBlend mode="normal" in="SourceGraphic" in2="BackgroundImageFix" result="shape"/>
        <feGaussianBlur stdDeviation="0.455729" result="effect1_foregroundBlur_702_67020"/>
      </filter>
      <radialGradient id="paint1_radial_702_67020" cx="0" cy="0" r="1" gradientUnits="userSpaceOnUse" gradientTransform="translate(146.218 191.259) rotate(27.3324) scale(58.602 42.3474)">
        <stop offset="0.302083" stop-color="#FFB800"/>
        <stop offset="1" stop-color="#FF7800"/>
      </radialGradient>
      <linearGradient id="paint2_linear_702_67020" x1="160.729" y1="220.939" x2="201.954" y2="178" gradientUnits="userSpaceOnUse">
        <stop stop-color="#F2F2F2"/>
        <stop offset="0.0001" stop-color="#F2F2F2"/>
        <stop offset="0.0520833" stop-color="#F2F2F2" stop-opacity="0.948011"/>
        <stop offset="1" stop-color="#F2F2F2" stop-opacity="0"/>
      </linearGradient>
    </defs>
  
  
    </svg>
  