
    <svg width="350" height="350" viewBox="0 0 350 350" fill="none" xmlns="http://www.w3.org/2000/svg">
    
  <g clip-path="url(#clip0_28_259)">
  <rect x="0.0788574" y="0.0444336" width="350" height="350" fill="#13235A"/>
  <rect x="0.0788574" y="0.0444336" width="350" height="350" fill="url(#paint0_radial_28_259)" fill-opacity="0.2"/>
  <path d="M125.979 290.538L299.832 190.751L430.987 233.879L212.56 294.049L125.979 290.538Z" fill="url(#paint1_linear_28_259)"/>
  <g opacity="0.45" filter="url(#filter0_f_28_259)">
  <ellipse rx="194.596" ry="66.7643" transform="matrix(0.999998 0.00221055 0.00221055 -0.999998 176.078 304.637)" fill="url(#paint2_radial_28_259)"/>
  </g>
  <g opacity="0.7" filter="url(#filter1_f_28_259)">
  <ellipse cx="174.396" cy="137.609" rx="196.647" ry="242.448" transform="rotate(0.126655 174.396 137.609)" fill="url(#paint3_radial_28_259)"/>
  </g>
  </g>
  <defs>
  <filter id="filter0_f_28_259" x="-23.0756" y="233.314" width="398.306" height="142.646" filterUnits="userSpaceOnUse" color-interpolation-filters="sRGB">
  <feFlood flood-opacity="0" result="BackgroundImageFix"/>
  <feBlend mode="normal" in="SourceGraphic" in2="BackgroundImageFix" result="shape"/>
  <feGaussianBlur stdDeviation="2.27865" result="effect1_foregroundBlur_28_259"/>
  </filter>
  <filter id="filter1_f_28_259" x="-26.8085" y="-109.396" width="402.409" height="494.01" filterUnits="userSpaceOnUse" color-interpolation-filters="sRGB">
  <feFlood flood-opacity="0" result="BackgroundImageFix"/>
  <feBlend mode="normal" in="SourceGraphic" in2="BackgroundImageFix" result="shape"/>
  <feGaussianBlur stdDeviation="2.27865" result="effect1_foregroundBlur_28_259"/>
  </filter>
  <radialGradient id="paint0_radial_28_259" cx="0" cy="0" r="1" gradientUnits="userSpaceOnUse" gradientTransform="translate(156.622 401.542) rotate(-84.441) scale(239.93 241.682)">
  <stop/>
  <stop offset="1" stop-opacity="0"/>
  </radialGradient>
  <linearGradient id="paint1_linear_28_259" x1="194.836" y1="271.638" x2="316.537" y2="167.936" gradientUnits="userSpaceOnUse">
  <stop/>
  <stop offset="1" stop-color="#333333" stop-opacity="0"/>
  </linearGradient>
  <radialGradient id="paint2_radial_28_259" cx="0" cy="0" r="1" gradientUnits="userSpaceOnUse" gradientTransform="translate(194.596 76.624) rotate(99.1226) scale(43.9775 125.337)">
  <stop stop-color="#2183F7"/>
  <stop offset="1" stop-color="#2E55E1" stop-opacity="0"/>
  </radialGradient>
  <radialGradient id="paint3_radial_28_259" cx="0" cy="0" r="1" gradientUnits="userSpaceOnUse" gradientTransform="translate(174.396 173.413) rotate(92.5586) scale(157.837 128.153)">
  <stop stop-color="#2183F7"/>
  <stop offset="1" stop-color="#2E55E1" stop-opacity="0"/>
  </radialGradient>
  <clipPath id="clip0_28_259">
  <rect width="350" height="350" fill="white"/>
  </clipPath>
  </defs>

    
  <g style="mix-blend-mode:overlay" clip-path="url(#clip0_559_45925)">
  <circle cx="267.057" cy="334.049" r="28.7109" fill="white" fill-opacity="0.25"/>
  <circle cx="114.388" cy="66.5365" r="22.7865" fill="white" fill-opacity="0.25"/>
  <circle cx="279.362" cy="110.287" r="16.4062" fill="white" fill-opacity="0.25"/>
  <circle cx="8.20312" cy="234.701" r="16.4062" fill="white" fill-opacity="0.25"/>
  <circle cx="335.872" cy="14.5833" r="40.1042" fill="white" fill-opacity="0.25"/>
  <path d="M65.9326 288.461C29.3383 277.341 1.34401 320.346 -5.46875 340.81C53.705 430.699 146.791 390.296 179.557 350.911C127.002 379.87 111.675 302.361 65.9326 288.461Z" fill="white" fill-opacity="0.25"/>
  <path d="M296.664 236.375C285.544 199.781 328.549 171.787 349.013 164.974C438.902 224.148 398.499 317.234 359.115 350C388.074 297.444 310.565 282.118 296.664 236.375Z" fill="white" fill-opacity="0.25"/>
  <path d="M-26.4321 3.86974C-13.3545 0.661562 15.8469 6.61965 18.8009 32.2851C21.0691 51.9925 19.2624 85.9076 3.10779 101.032C-15.8162 118.749 -14.5043 160.554 12.8006 170.237C38.648 179.403 69.97 166.112 74.1882 144.572C80.545 112.109 53.2633 106.516 57.1104 74.9081C67.4481 -10.0259 219.591 11.8327 236.979 -4.55717C236.979 -87.4437 3.10779 -222.311 -26.4321 3.86974Z" fill="white" fill-opacity="0.25"/>
  </g>
  <defs>
  <clipPath id="clip0_559_45925">
  <rect width="350" height="350" fill="white"/>
  </clipPath>
  </defs>

    
    
  <path d="M155.658 61.9401C159.113 48.9625 161.899 32.3568 174.785 32.3568C187.672 32.3568 192.186 52.9172 194.342 62.2565C196.266 70.5908 200.403 89.5239 201.271 93.502C201.375 93.9806 201.259 94.4624 200.902 94.7982C199.079 96.5146 192.205 101.628 175 101.628C157.732 101.628 150.87 96.4766 149.078 94.7792C148.734 94.4536 148.616 93.9882 148.705 93.5232C149.398 89.9039 152.599 73.4326 155.658 61.9401Z" fill="black"/>
  <path d="M155.658 61.9401C159.113 48.9625 161.899 32.3568 174.785 32.3568C187.672 32.3568 192.186 52.9172 194.342 62.2565C196.266 70.5908 200.403 89.5239 201.271 93.502C201.375 93.9806 201.259 94.4624 200.902 94.7982C199.079 96.5146 192.205 101.628 175 101.628C157.732 101.628 150.87 96.4766 149.078 94.7792C148.734 94.4536 148.616 93.9882 148.705 93.5232C149.398 89.9039 152.599 73.4326 155.658 61.9401Z" fill="url(#paint0_linear_680_65378)" fill-opacity="0.45"/>
  <path d="M228.32 314.723L202.037 284.375H172.525H143.19L117.122 314.723C117.122 314.723 134.804 334.733 172.721 334.733C210.638 334.733 228.32 314.723 228.32 314.723Z" fill="black"/>
  <path d="M124.792 210.091C124.792 210.091 148.112 224.675 175.228 224.675C202.344 224.675 225.208 210.091 225.208 210.091C228.731 225.095 236.031 263.492 223.782 282.944C208.368 307.425 182.903 315.82 175 315.82C167.097 315.82 141.632 307.425 126.217 282.944C113.969 263.492 121.269 225.095 124.792 210.091Z" fill="#6DF244"/>
  <path d="M124.792 210.091C124.792 210.091 148.112 224.675 175.228 224.675C202.344 224.675 225.208 210.091 225.208 210.091C228.731 225.095 236.031 263.492 223.782 282.944C208.368 307.425 182.903 315.82 175 315.82C167.097 315.82 141.632 307.425 126.217 282.944C113.969 263.492 121.269 225.095 124.792 210.091Z" fill="url(#paint1_linear_680_65378)" fill-opacity="0.8"/>
  <path d="M155.658 61.9401C159.113 48.9625 161.899 32.3568 174.785 32.3568C187.672 32.3568 192.186 52.9172 194.342 62.2565C196.266 70.5908 200.403 89.5239 201.271 93.502C201.375 93.9807 201.259 94.4624 200.902 94.7982C199.079 96.5146 192.205 101.628 175 101.628C157.732 101.628 150.87 96.4766 149.078 94.7792C148.734 94.4536 148.616 93.9882 148.705 93.5232C149.398 89.9039 152.599 73.4326 155.658 61.9401Z" fill="black"/>
  <path d="M155.658 61.9401C159.113 48.9625 161.899 32.3568 174.785 32.3568C187.672 32.3568 192.186 52.9172 194.342 62.2565C196.266 70.5908 200.403 89.5239 201.271 93.502C201.375 93.9807 201.259 94.4624 200.902 94.7982C199.079 96.5146 192.205 101.628 175 101.628C157.732 101.628 150.87 96.4766 149.078 94.7792C148.734 94.4536 148.616 93.9882 148.705 93.5232C149.398 89.9039 152.599 73.4326 155.658 61.9401Z" fill="url(#paint2_linear_680_65378)" fill-opacity="0.45"/>
  <g filter="url(#filter0_d_680_65378)">
  <path d="M228.32 314.723L202.037 284.375H172.524H143.189L117.122 314.723C117.122 314.723 134.803 334.733 172.721 334.733C210.638 334.733 228.32 314.723 228.32 314.723Z" fill="black"/>
  </g>
  <path d="M124.791 210.091C124.791 210.091 148.111 224.675 175.227 224.675C202.343 224.675 225.207 210.091 225.207 210.091C228.73 225.095 236.03 263.492 223.782 282.944C208.367 307.425 182.902 315.82 174.999 315.82C167.096 315.82 141.631 307.425 126.217 282.944C113.968 263.492 121.268 225.095 124.791 210.091Z" fill="#6DF244"/>
  <path d="M124.791 210.091C124.791 210.091 148.111 224.675 175.227 224.675C202.343 224.675 225.207 210.091 225.207 210.091C228.73 225.095 236.03 263.492 223.782 282.944C208.367 307.425 182.902 315.82 174.999 315.82C167.096 315.82 141.631 307.425 126.217 282.944C113.968 263.492 121.268 225.095 124.791 210.091Z" fill="url(#paint3_linear_680_65378)" fill-opacity="0.8"/>
  <path d="M130.95 277.639C122.17 263.011 123.204 251.576 128.368 246.789C137.582 238.247 152.639 253.171 158.578 265.671C164.517 278.171 165.292 287.745 160.386 292.266C155.48 296.787 139.729 292.266 130.95 277.639Z" stroke="url(#paint4_linear_680_65378)" stroke-width="1.82292"/>
  <path fill-rule="evenodd" clip-rule="evenodd" d="M174.999 303.508C172.004 303.607 166.495 302.828 162.695 298.958H174.088H175.911H187.304C183.503 302.828 177.995 303.607 174.999 303.508Z" fill="#57BF37"/>
  <path d="M218.29 276.7C226.253 263.683 225.316 253.506 220.632 249.246C212.275 241.644 198.618 254.926 193.232 266.049C187.845 277.173 187.143 285.693 191.592 289.717C196.042 293.74 210.327 289.717 218.29 276.7Z" fill="#070707" stroke="#070707" stroke-width="0.455729"/>
  <path d="M218.517 277.639C227.399 263.011 226.354 251.576 221.129 246.789C211.808 238.247 196.576 253.171 190.568 265.671C184.56 278.171 183.776 287.745 188.739 292.266C193.702 296.787 209.636 292.266 218.517 277.639Z" stroke="url(#paint5_linear_680_65378)" stroke-width="1.82292"/>
  <path d="M219.429 277.639C228.31 263.011 227.265 251.576 222.041 246.789C212.719 238.247 197.487 253.171 191.479 265.671C185.471 278.171 184.688 287.745 189.651 292.266C194.614 296.787 210.547 292.266 219.429 277.639Z" stroke="url(#paint6_linear_680_65378)" stroke-width="1.82292"/>
  <path d="M220.588 256.217C219.787 252.567 217.885 250.967 216.325 251.049C213.542 251.195 213.374 255.888 214.311 258.759C215.248 261.63 216.576 263.229 218.054 263.147C219.531 263.065 221.389 259.867 220.588 256.217Z" fill="url(#paint7_radial_680_65378)"/>
  <path fill-rule="evenodd" clip-rule="evenodd" d="M175 292.166C173.542 291.986 170.042 292.273 167.708 294.857H175H182.292C179.958 292.273 176.458 291.986 175 292.166Z" fill="#57BF37"/>
  <path d="M132.089 276.7C124.228 263.683 125.153 253.506 129.777 249.246C138.027 241.644 151.508 254.926 156.826 266.049C162.143 277.173 162.837 285.693 158.444 289.717C154.051 293.74 139.949 289.717 132.089 276.7Z" fill="#070707" stroke="#070707" stroke-width="0.455729"/>
  <path d="M129.562 256.217C130.363 252.567 132.265 250.967 133.825 251.049C136.608 251.195 136.775 255.888 135.838 258.759C134.901 261.63 133.574 263.229 132.096 263.147C130.619 263.065 128.761 259.867 129.562 256.217Z" fill="url(#paint8_radial_680_65378)"/>
  <path d="M130.95 277.639C122.17 263.011 123.204 251.576 128.368 246.789C137.582 238.247 152.639 253.171 158.578 265.671C164.517 278.171 165.292 287.745 160.386 292.266C155.48 296.787 139.729 292.266 130.95 277.639Z" stroke="url(#paint9_linear_680_65378)" stroke-width="1.82292"/>
  <path fill-rule="evenodd" clip-rule="evenodd" d="M177.408 224.675L177.305 224.674C177.892 224.674 178.474 224.667 179.052 224.655C178.506 224.668 177.958 224.675 177.408 224.675Z" fill="#161A70" fill-opacity="0.1"/>
  <path fill-rule="evenodd" clip-rule="evenodd" d="M228.41 314.723C228.41 314.723 211.424 334.733 175 334.733V32.3568C187.169 32.3568 192.181 52.2244 194.294 61.7708L194.402 62.2565C196.25 70.5908 200.68 89.5238 201.514 93.502C201.566 93.7531 201.561 94.0052 201.494 94.2365L225.233 209.629C225.279 209.86 225.238 210.093 225.123 210.283C225.319 210.158 225.42 210.091 225.42 210.091C228.805 225.095 235.817 263.492 224.051 282.944C220.851 288.235 217.2 292.774 213.365 296.64L228.41 314.723ZM177.408 224.675L177.305 224.674C177.892 224.674 178.474 224.667 179.052 224.655C178.506 224.668 177.958 224.675 177.408 224.675Z" fill="#161A70" fill-opacity="0.1"/>
  <defs>
  <filter id="filter0_d_680_65378" x="114.843" y="284.375" width="116.667" height="55.8268" filterUnits="userSpaceOnUse" color-interpolation-filters="sRGB">
  <feFlood flood-opacity="0" result="BackgroundImageFix"/>
  <feColorMatrix in="SourceAlpha" type="matrix" values="0 0 0 0 0 0 0 0 0 0 0 0 0 0 0 0 0 0 127 0" result="hardAlpha"/>
  <feOffset dx="0.455729" dy="2.73438"/>
  <feGaussianBlur stdDeviation="1.36719"/>
  <feComposite in2="hardAlpha" operator="out"/>
  <feColorMatrix type="matrix" values="0 0 0 0 0 0 0 0 0 0 0 0 0 0 0 0 0 0 0.25 0"/>
  <feBlend mode="normal" in2="BackgroundImageFix" result="effect1_dropShadow_680_65378"/>
  <feBlend mode="normal" in="SourceGraphic" in2="effect1_dropShadow_680_65378" result="shape"/>
  </filter>
  <linearGradient id="paint0_linear_680_65378" x1="164.974" y1="47.3959" x2="175" y2="101.628" gradientUnits="userSpaceOnUse">
  <stop stop-color="white" stop-opacity="0.17"/>
  <stop offset="1" stop-color="#C3C3C3" stop-opacity="0"/>
  </linearGradient>
  <linearGradient id="paint1_linear_680_65378" x1="175" y1="293.49" x2="175" y2="226.953" gradientUnits="userSpaceOnUse">
  <stop offset="0.527397" stop-color="#6DF244"/>
  <stop offset="1" stop-color="#388E1D"/>
  </linearGradient>
  <linearGradient id="paint2_linear_680_65378" x1="164.974" y1="47.3959" x2="175" y2="101.628" gradientUnits="userSpaceOnUse">
  <stop stop-color="white" stop-opacity="0.17"/>
  <stop offset="1" stop-color="#C3C3C3" stop-opacity="0"/>
  </linearGradient>
  <linearGradient id="paint3_linear_680_65378" x1="174.999" y1="293.49" x2="174.999" y2="226.953" gradientUnits="userSpaceOnUse">
  <stop offset="0.527397" stop-color="#6DF244"/>
  <stop offset="1" stop-color="#388E1D"/>
  </linearGradient>
  <linearGradient id="paint4_linear_680_65378" x1="144.01" y1="244.271" x2="144.01" y2="293.945" gradientUnits="userSpaceOnUse">
  <stop stop-color="#6CB835"/>
  <stop offset="0.40625" stop-color="#6CB835" stop-opacity="0"/>
  </linearGradient>
  <linearGradient id="paint5_linear_680_65378" x1="205.305" y1="244.271" x2="205.305" y2="293.945" gradientUnits="userSpaceOnUse">
  <stop stop-color="#6CB835"/>
  <stop offset="0.40625" stop-color="#6CB835" stop-opacity="0"/>
  </linearGradient>
  <linearGradient id="paint6_linear_680_65378" x1="206.217" y1="244.271" x2="206.217" y2="293.945" gradientUnits="userSpaceOnUse">
  <stop offset="0.541667" stop-color="#6CB835" stop-opacity="0"/>
  <stop offset="1" stop-color="#6CB835"/>
  </linearGradient>
  <radialGradient id="paint7_radial_680_65378" cx="0" cy="0" r="1" gradientUnits="userSpaceOnUse" gradientTransform="translate(217.185 256.975) rotate(79.0248) scale(5.68455 4.63752)">
  <stop stop-color="white" stop-opacity="0.75"/>
  <stop offset="1" stop-color="white" stop-opacity="0"/>
  <stop offset="1" stop-color="white"/>
  </radialGradient>
  <radialGradient id="paint8_radial_680_65378" cx="0" cy="0" r="1" gradientUnits="userSpaceOnUse" gradientTransform="translate(132.965 256.975) rotate(100.975) scale(5.68455 4.63752)">
  <stop stop-color="white" stop-opacity="0.75"/>
  <stop offset="1" stop-color="white" stop-opacity="0"/>
  <stop offset="1" stop-color="white"/>
  </radialGradient>
  <linearGradient id="paint9_linear_680_65378" x1="144.01" y1="244.271" x2="144.01" y2="293.945" gradientUnits="userSpaceOnUse">
  <stop offset="0.671875" stop-color="#6CB835" stop-opacity="0"/>
  <stop offset="1" stop-color="#6CB835"/>
  </linearGradient>
  </defs>

    
    <path d="M148.647 94.3351L124.888 210.017C124.817 210.363 124.947 210.714 125.237 210.915C128.356 213.082 146.958 225.128 174.998 225.128C203.038 225.128 221.64 213.082 224.76 210.915C225.05 210.714 225.18 210.363 225.109 210.017L201.35 94.3351C201.316 94.4021 201.271 94.4644 201.216 94.5198C199.881 95.8685 193.226 101.484 174.998 101.484C156.771 101.484 150.116 95.8685 148.78 94.5198C148.725 94.4644 148.681 94.4021 148.647 94.3351Z" fill="#FFFFFF" fill-opacity="0.75"/>;
    
    <!-- Color -->
    <path d="M201.049 94.2304L205.113 114.031C203.523 113.76 201.871 113.447 200.18 113.127C186.038 110.452 169.252 107.276 165.003 123.73C163.148 130.914 165.836 135.212 168.45 139.394C170.975 143.43 173.431 147.358 171.668 153.669C169.523 161.35 157.859 166.325 148.479 162.994C138.57 159.476 139.266 144.903 144.961 137.849C150.656 130.794 151.48 120.031 150.656 112.87C150.259 109.409 148.549 106.935 146.313 105.251L148.649 93.8801C148.683 93.9471 148.727 94.0094 148.782 94.0649C150.117 95.4136 156.772 101.03 175 101.03C192.557 101.03 199.378 95.8189 201.049 94.2304Z" fill="url(#paint0_radial_702_67017)"/>

    <!-- Filter -->
    <mask id="mask0_702_67017" style="mask-type:alpha" maskUnits="userSpaceOnUse" x="140" y="93" width="66" height="72">
      <path d="M201.049 94.2304L205.113 114.031C203.523 113.76 201.871 113.447 200.18 113.127C186.038 110.452 169.252 107.276 165.003 123.73C163.148 130.914 165.836 135.212 168.45 139.394C170.975 143.43 173.431 147.358 171.668 153.669C169.523 161.35 157.859 166.325 148.479 162.994C138.57 159.476 139.266 144.903 144.961 137.849C150.656 130.794 151.48 120.031 150.656 112.87C150.259 109.409 148.549 106.935 146.313 105.251L148.649 93.8801C148.683 93.9471 148.727 94.0094 148.782 94.0649C150.117 95.4136 156.772 101.03 175 101.03C192.557 101.03 199.378 95.8189 201.049 94.2304Z" fill="url(#paint1_radial_702_67017)"/>
    </mask>
    <g mask="url(#mask0_702_67017)">
      <g filter="url(#filter0_f_702_67017)">
        <mask id="mask1_702_67017" style="mask-type:alpha" maskUnits="userSpaceOnUse" x="124" y="94" width="102" height="132">
          <path d="M148.862 95.0637C148.949 94.6399 149.322 94.3357 149.754 94.3357H200.246C200.678 94.3357 201.051 94.6399 201.138 95.0637L224.993 211.158C225.074 211.554 224.888 211.954 224.527 212.137C220.624 214.108 198.375 224.817 175 225.127C151.578 225.438 129.287 214.178 125.45 212.14C125.099 211.954 124.924 211.562 125.004 211.173L148.862 95.0637Z" fill="#577096" fill-opacity="0.75"/>
        </mask>
        <g mask="url(#mask1_702_67017)">
          <g filter="url(#filter1_f_702_67017)">
            <path d="M207.208 76.1064C210.866 110.268 145.941 132.571 113.021 139.453L113.021 76.1064L207.208 76.1064Z" fill="url(#paint2_linear_702_67017)" fill-opacity="0.5"/>
          </g>
          <g filter="url(#filter2_f_702_67017)">
            <path d="M155.407 125.301C156.469 105.018 134.471 86.1828 128.929 66.9985C133.388 65.1973 144.05 70.7896 152.675 76.1247C163.456 82.7936 162.879 109.124 164.625 125.784C166.022 139.112 148.453 223.401 144.015 241.481L131.716 240.837C140.242 214.68 154.587 140.955 155.407 125.301Z" fill="url(#paint3_linear_702_67017)" fill-opacity="0.6"/>
          </g>
        </g>
      </g>
    </g>

    <defs>
      <!-- Color -->
      <radialGradient id="paint0_radial_702_67017" cx="0" cy="0" r="1" gradientUnits="userSpaceOnUse" gradientTransform="translate(155.882 109.102) rotate(53.1177) scale(37.8177 40.2646)">
        <stop offset="0.203125" style="stop-color: #FFFFFF;"/>
        <stop offset="0.890625" style="stop-color: #D0C9C9;"/>
      </radialGradient>

      <!-- Filter -->
      <filter id="filter0_f_702_67017" x="122.591" y="92.057" width="104.818" height="135.355" filterUnits="userSpaceOnUse" color-interpolation-filters="sRGB">
        <feFlood flood-opacity="0" result="BackgroundImageFix"/>
        <feBlend mode="normal" in="SourceGraphic" in2="BackgroundImageFix" result="shape"/>
        <feGaussianBlur stdDeviation="1.13932" result="effect1_foregroundBlur_702_67017"/>
      </filter>
      <filter id="filter1_f_702_67017" x="112.109" y="75.195" width="96.1589" height="65.1694" filterUnits="userSpaceOnUse" color-interpolation-filters="sRGB">
        <feFlood flood-opacity="0" result="BackgroundImageFix"/>
        <feBlend mode="normal" in="SourceGraphic" in2="BackgroundImageFix" result="shape"/>
        <feGaussianBlur stdDeviation="0.455729" result="effect1_foregroundBlur_702_67017"/>
      </filter>
      <filter id="filter2_f_702_67017" x="128.017" y="65.7426" width="37.5979" height="176.65" filterUnits="userSpaceOnUse" color-interpolation-filters="sRGB">
        <feFlood flood-opacity="0" result="BackgroundImageFix"/>
        <feBlend mode="normal" in="SourceGraphic" in2="BackgroundImageFix" result="shape"/>
        <feGaussianBlur stdDeviation="0.455729" result="effect1_foregroundBlur_702_67017"/>
      </filter>
      <radialGradient id="paint1_radial_702_67017" cx="0" cy="0" r="1" gradientUnits="userSpaceOnUse" gradientTransform="translate(155.882 109.102) rotate(53.1177) scale(37.8177 40.2646)">
        <stop offset="0.203125" stop-color="#71FF30"/>
        <stop offset="0.890625" stop-color="#25BC46"/>
      </radialGradient>
      <linearGradient id="paint2_linear_702_67017" x1="145.215" y1="123.01" x2="155.829" y2="72.2914" gradientUnits="userSpaceOnUse">
        <stop stop-color="white" stop-opacity="0"/>
        <stop offset="0.471361" stop-color="white"/>
        <stop offset="1" stop-color="white"/>
      </linearGradient>
      <linearGradient id="paint3_linear_702_67017" x1="160.729" y1="220.938" x2="201.954" y2="178" gradientUnits="userSpaceOnUse">
        <stop stop-color="#F2F2F2"/>
        <stop offset="0.0001" stop-color="#F2F2F2"/>
        <stop offset="0.0520833" stop-color="#F2F2F2" stop-opacity="0.948011"/>
        <stop offset="1" stop-color="#F2F2F2" stop-opacity="0"/>
      </linearGradient>
    </defs>
  
    
    <!-- Color -->
    <path d="M177.734 130.914C177.734 127.951 179.774 122.048 187.933 122.136C196.091 122.224 198.203 128.025 198.239 130.914C198.312 133.035 197.089 137.629 191.621 139.033C184.786 140.789 177.734 136.839 177.734 130.914Z" fill="url(#paint0_radial_702_67018)"/>

    <defs>
      <!-- Color -->
      <radialGradient id="paint0_radial_702_67018" cx="0" cy="0" r="1" gradientUnits="userSpaceOnUse" gradientTransform="translate(182.539 125.892) rotate(45.8803) scale(10.3998 11.5271)">
        <stop offset="0.203125" style="stop-color: #71FF30;"/>
        <stop offset="0.890625" style="stop-color: #25BC46;"/>
      </radialGradient>
    </defs>
  
    
    <!-- Color -->
    <path d="M214.052 156.619L218.831 179.91C216.932 182.156 214.118 184.13 210.037 185.164C197.278 188.398 184.115 181.122 184.115 170.207C184.115 164.75 187.922 153.876 203.151 154.038C207.743 154.087 211.309 155.092 214.052 156.619Z" fill="url(#paint0_radial_702_67019)"/>

    <defs>
      <!-- Color -->
      <radialGradient id="paint0_radial_702_67019" cx="0" cy="0" r="1" gradientUnits="userSpaceOnUse" gradientTransform="translate(192.248 160.957) rotate(48.2936) scale(18.4215 20.2932)">
        <stop offset="0.203125" style="stop-color: #FABE09;"/>
        <stop offset="0.890625" style="stop-color: #FDF21B;"/>
      </radialGradient>
    </defs>
  
    
    <!-- Color -->
    <path d="M223.109 211.89C217.522 215.445 199.996 225.13 174.887 225.13C146.901 225.13 128.335 213.098 125.221 210.933C125.032 210.801 124.911 210.606 124.87 210.39C128.808 199.004 144.115 175.86 164.064 181.919C173.943 184.919 180.859 192.452 187.364 199.536C197.438 210.508 206.525 220.404 224.106 210.722C223.783 211.11 223.451 211.499 223.109 211.89Z" fill="url(#paint0_radial_702_67020)"/>

    <!-- Filter -->
    <mask id="mask0_702_67020" style="mask-type:alpha" maskUnits="userSpaceOnUse" x="124" y="180" width="101" height="46">
      <path d="M223.109 211.89C217.522 215.445 199.996 225.13 174.887 225.13C146.901 225.13 128.335 213.098 125.221 210.933C125.032 210.802 124.911 210.606 124.87 210.39C128.808 199.004 144.115 175.86 164.064 181.919C173.943 184.92 180.859 192.452 187.364 199.536C197.438 210.508 206.525 220.405 224.106 210.722C223.783 211.11 223.451 211.499 223.109 211.89Z" fill="url(#paint1_radial_702_67020)"/>
    </mask>
    <g mask="url(#mask0_702_67020)">
      <g filter="url(#filter0_f_702_67020)">
        <mask id="mask1_702_67020" style="mask-type:alpha" maskUnits="userSpaceOnUse" x="124" y="94" width="102" height="132">
          <path d="M148.862 95.0639C148.949 94.6401 149.322 94.3359 149.754 94.3359H200.246C200.678 94.3359 201.051 94.6401 201.138 95.0639L224.993 211.159C225.074 211.555 224.888 211.955 224.527 212.137C220.624 214.109 198.375 224.817 175 225.128C151.578 225.438 129.287 214.178 125.45 212.141C125.099 211.954 124.924 211.562 125.004 211.173L148.862 95.0639Z" fill="#577096" fill-opacity="0.75"/>
        </mask>
        <g mask="url(#mask1_702_67020)">
          <g filter="url(#filter1_f_702_67020)">
            <path d="M155.407 125.301C156.469 105.018 134.471 86.183 128.929 66.9987C133.388 65.1975 144.05 70.7899 152.675 76.125C163.456 82.7938 162.879 109.124 164.625 125.784C166.022 139.112 148.453 223.401 144.015 241.482L131.716 240.837C140.242 214.68 154.587 140.955 155.407 125.301Z" fill="url(#paint2_linear_702_67020)" fill-opacity="0.6"/>
          </g>
        </g>
      </g>
    </g>

    <defs>
      <!-- Color -->
      <radialGradient id="paint0_radial_702_67020" cx="0" cy="0" r="1" gradientUnits="userSpaceOnUse" gradientTransform="translate(148.118 190.514) rotate(28.5454) scale(39.8814 37.1287)">
        <stop offset="0.203125" style="stop-color: #F85449;"/>
        <stop offset="0.890625" style="stop-color: #C53434;"/>
      </radialGradient>

      <!-- Filter -->
      <filter id="filter0_f_702_67020" x="122.591" y="92.0573" width="104.818" height="135.355" filterUnits="userSpaceOnUse" color-interpolation-filters="sRGB">
        <feFlood flood-opacity="0" result="BackgroundImageFix"/>
        <feBlend mode="normal" in="SourceGraphic" in2="BackgroundImageFix" result="shape"/>
        <feGaussianBlur stdDeviation="1.13932" result="effect1_foregroundBlur_702_67020"/>
      </filter>
      <filter id="filter1_f_702_67020" x="128.017" y="65.7428" width="37.5979" height="176.65" filterUnits="userSpaceOnUse" color-interpolation-filters="sRGB">
        <feFlood flood-opacity="0" result="BackgroundImageFix"/>
        <feBlend mode="normal" in="SourceGraphic" in2="BackgroundImageFix" result="shape"/>
        <feGaussianBlur stdDeviation="0.455729" result="effect1_foregroundBlur_702_67020"/>
      </filter>
      <radialGradient id="paint1_radial_702_67020" cx="0" cy="0" r="1" gradientUnits="userSpaceOnUse" gradientTransform="translate(146.218 191.259) rotate(27.3324) scale(58.602 42.3474)">
        <stop offset="0.302083" stop-color="#FFB800"/>
        <stop offset="1" stop-color="#FF7800"/>
      </radialGradient>
      <linearGradient id="paint2_linear_702_67020" x1="160.729" y1="220.939" x2="201.954" y2="178" gradientUnits="userSpaceOnUse">
        <stop stop-color="#F2F2F2"/>
        <stop offset="0.0001" stop-color="#F2F2F2"/>
        <stop offset="0.0520833" stop-color="#F2F2F2" stop-opacity="0.948011"/>
        <stop offset="1" stop-color="#F2F2F2" stop-opacity="0"/>
      </linearGradient>
    </defs>
  
  
    </svg>
  