
    <svg width="350" height="350" viewBox="0 0 350 350" fill="none" xmlns="http://www.w3.org/2000/svg">
    
  <g clip-path="url(#clip0_28_264)">
  <rect x="0.0800781" y="0.0449219" width="350" height="350" fill="#5A1320"/>
  <rect x="0.0800781" y="0.0449219" width="350" height="350" fill="url(#paint0_radial_28_264)" fill-opacity="0.2"/>
  <path d="M125.979 290.538L299.833 190.751L430.988 233.879L212.56 294.049L125.979 290.538Z" fill="url(#paint1_linear_28_264)"/>
  <g opacity="0.45" filter="url(#filter0_f_28_264)">
  <ellipse rx="194.596" ry="66.7643" transform="matrix(0.999998 0.00221055 0.00221055 -0.999998 176.078 304.637)" fill="url(#paint2_radial_28_264)"/>
  </g>
  <g opacity="0.7" filter="url(#filter1_f_28_264)">
  <ellipse cx="174.396" cy="137.609" rx="196.647" ry="242.448" transform="rotate(0.126655 174.396 137.609)" fill="url(#paint3_radial_28_264)"/>
  </g>
  </g>
  <defs>
  <filter id="filter0_f_28_264" x="-23.0756" y="233.315" width="398.306" height="142.646" filterUnits="userSpaceOnUse" color-interpolation-filters="sRGB">
  <feFlood flood-opacity="0" result="BackgroundImageFix"/>
  <feBlend mode="normal" in="SourceGraphic" in2="BackgroundImageFix" result="shape"/>
  <feGaussianBlur stdDeviation="2.27865" result="effect1_foregroundBlur_28_264"/>
  </filter>
  <filter id="filter1_f_28_264" x="-26.8085" y="-109.396" width="402.409" height="494.01" filterUnits="userSpaceOnUse" color-interpolation-filters="sRGB">
  <feFlood flood-opacity="0" result="BackgroundImageFix"/>
  <feBlend mode="normal" in="SourceGraphic" in2="BackgroundImageFix" result="shape"/>
  <feGaussianBlur stdDeviation="2.27865" result="effect1_foregroundBlur_28_264"/>
  </filter>
  <radialGradient id="paint0_radial_28_264" cx="0" cy="0" r="1" gradientUnits="userSpaceOnUse" gradientTransform="translate(156.623 401.542) rotate(-84.441) scale(239.93 241.682)">
  <stop/>
  <stop offset="1" stop-opacity="0"/>
  </radialGradient>
  <linearGradient id="paint1_linear_28_264" x1="194.836" y1="271.638" x2="316.538" y2="167.936" gradientUnits="userSpaceOnUse">
  <stop/>
  <stop offset="1" stop-color="#333333" stop-opacity="0"/>
  </linearGradient>
  <radialGradient id="paint2_radial_28_264" cx="0" cy="0" r="1" gradientUnits="userSpaceOnUse" gradientTransform="translate(194.596 76.624) rotate(99.1226) scale(43.9775 125.337)">
  <stop stop-color="#CF0000"/>
  <stop offset="1" stop-color="#CF0000" stop-opacity="0"/>
  </radialGradient>
  <radialGradient id="paint3_radial_28_264" cx="0" cy="0" r="1" gradientUnits="userSpaceOnUse" gradientTransform="translate(174.396 173.413) rotate(92.5586) scale(157.837 128.153)">
  <stop stop-color="#CF0000"/>
  <stop offset="1" stop-color="#CF0000" stop-opacity="0"/>
  </radialGradient>
  <clipPath id="clip0_28_264">
  <rect width="350" height="350" fill="white"/>
  </clipPath>
  </defs>

    
  <g clip-path="url(#clip0_589_71590)">
  <g style="mix-blend-mode:overlay">
  <path fill-rule="evenodd" clip-rule="evenodd" d="M10.4379 299.782C54.2425 325.073 110.255 310.064 135.546 266.26C160.836 222.455 145.828 166.443 102.023 141.152C58.2186 115.861 2.20598 130.87 -23.0846 174.674C-48.3752 218.479 -33.3666 274.492 10.4379 299.782ZM-9.86541 182.307C9.86998 148.124 52.0544 134.983 87.3131 150.756L50.9372 213.761L-19.1329 232.536C-21.8199 215.821 -18.9898 198.11 -9.86541 182.307ZM64.1566 221.392L100.563 158.335C132.246 180.885 142.166 224.264 122.326 258.628C113.124 274.566 99.0408 285.93 83.0547 291.921L64.1566 221.392ZM68.2994 295.83C53.8483 298.153 38.6526 296.353 24.5887 289.926L53.3631 240.087L68.2994 295.83ZM-15.2237 247.291L40.1438 232.455L11.4 282.241C-1.06459 273.218 -10.1055 260.949 -15.2237 247.291Z" fill="white" fill-opacity="0.25"/>
  </g>
  <g style="mix-blend-mode:overlay">
  <path fill-rule="evenodd" clip-rule="evenodd" d="M345.565 216.307C379.83 196.524 391.57 152.71 371.787 118.446C352.005 84.1811 308.191 72.4411 273.926 92.2239C239.661 112.007 227.921 155.821 247.704 190.085C267.487 224.35 311.301 236.09 345.565 216.307ZM258.044 184.115C242.607 157.377 250.204 123.661 274.679 105.945L303.132 155.228L288.446 210.038C276.072 205.321 265.182 196.477 258.044 184.115ZM313.472 149.258L284.995 99.9336C312.662 87.2904 345.928 97.536 361.447 124.416C368.645 136.883 370.835 150.868 368.641 164.04L313.472 149.258ZM365.518 175.565C361.44 186.263 354.277 195.853 344.423 202.866L321.915 163.881L365.518 175.565ZM299.97 213.161L311.575 169.852L334.059 208.795C323.072 213.71 311.224 215.036 299.97 213.161Z" fill="white" fill-opacity="0.25"/>
  </g>
  <g style="mix-blend-mode:overlay">
  <path fill-rule="evenodd" clip-rule="evenodd" d="M161.393 63.318C185.12 49.619 193.25 19.2788 179.551 -4.4486C165.852 -28.176 135.511 -36.3056 111.784 -22.6066C88.0565 -8.90756 79.9269 21.4326 93.626 45.16C107.325 68.8874 137.665 77.017 161.393 63.318ZM100.786 41.0259C90.0963 22.5103 95.3571 -0.837106 112.305 -13.1052L132.009 21.0224L121.839 58.977C113.27 55.7107 105.729 49.5864 100.786 41.0259ZM139.169 16.8882L119.449 -17.2678C138.608 -26.0229 161.644 -18.928 172.39 -0.314547C177.375 8.31889 178.891 18.0031 177.372 27.1247L139.169 16.8882ZM175.209 35.1051C172.385 42.5132 167.425 49.1538 160.601 54.0105L145.015 27.0146L175.209 35.1051ZM129.819 61.1395L137.855 31.1488L153.425 58.116C145.816 61.5194 137.612 62.4376 129.819 61.1395Z" fill="white" fill-opacity="0.25"/>
  </g>
  </g>
  <defs>
  <clipPath id="clip0_589_71590">
  <rect width="350" height="350" fill="white"/>
  </clipPath>
  </defs>

    
  <g filter="url(#filter0_d_559_36465)">
  <path d="M257.528 150.902C249.652 153.534 240.882 153.402 234.142 152.261C243.181 142.11 255.176 129.932 264.686 123.065C267.288 121.186 269.629 119.761 271.616 118.88C273.67 117.97 275.032 117.785 275.821 117.941C276.161 118.008 276.386 118.136 276.566 118.315C276.76 118.507 277.002 118.862 277.198 119.519C277.608 120.895 277.704 123.22 277.122 126.85C274.87 140.908 266.781 147.809 257.528 150.902Z" stroke="white" stroke-width="4.55729" shape-rendering="crispEdges"/>
  </g>
  <g filter="url(#filter1_d_559_36465)">
  <path d="M250.354 171.675C242.923 167.967 236.816 161.672 232.856 156.099C246.426 155.314 263.519 155.183 275.099 157.053C278.267 157.564 280.93 158.211 282.958 158.994C285.054 159.803 286.148 160.635 286.596 161.303C286.789 161.591 286.857 161.84 286.858 162.094C286.859 162.368 286.78 162.789 286.454 163.393C285.771 164.655 284.194 166.367 281.216 168.522C269.683 176.87 259.083 176.031 250.354 171.675Z" stroke="white" stroke-width="4.55729" shape-rendering="crispEdges"/>
  </g>
  <g filter="url(#filter2_d_559_36465)">
  <path d="M92.41 150.902C100.286 153.534 109.056 153.402 115.796 152.261C106.757 142.11 94.7621 129.932 85.2516 123.065C82.6502 121.186 80.3093 119.761 78.3217 118.88C76.2681 117.97 74.9063 117.785 74.1174 117.941C73.7768 118.008 73.5521 118.136 73.3723 118.315C73.178 118.507 72.9358 118.862 72.7399 119.519C72.33 120.895 72.2345 123.22 72.816 126.85C75.0683 140.908 83.1571 147.809 92.41 150.902Z" stroke="white" stroke-width="4.55729" shape-rendering="crispEdges"/>
  </g>
  <g filter="url(#filter3_d_559_36465)">
  <path d="M99.5842 171.675C107.015 167.967 113.122 161.672 117.082 156.099C103.512 155.314 86.4192 155.183 74.8386 157.053C71.6709 157.564 69.0076 158.211 66.9795 158.994C64.8841 159.803 63.79 160.635 63.3425 161.303C63.1493 161.591 63.0807 161.84 63.0798 162.094C63.0788 162.368 63.1579 162.789 63.4843 163.393C64.1674 164.655 65.7438 166.367 68.7217 168.522C80.2548 176.87 90.8547 176.031 99.5842 171.675Z" stroke="white" stroke-width="4.55729" shape-rendering="crispEdges"/>
  </g>
  <defs>
  <filter id="filter0_d_559_36465" x="226.526" y="112.289" width="56.6081" height="46.3486" filterUnits="userSpaceOnUse" color-interpolation-filters="sRGB">
  <feFlood flood-opacity="0" result="BackgroundImageFix"/>
  <feColorMatrix in="SourceAlpha" type="matrix" values="0 0 0 0 0 0 0 0 0 0 0 0 0 0 0 0 0 0 127 0" result="hardAlpha"/>
  <feOffset/>
  <feGaussianBlur stdDeviation="1.66205"/>
  <feComposite in2="hardAlpha" operator="out"/>
  <feColorMatrix type="matrix" values="0 0 0 0 1 0 0 0 0 1 0 0 0 0 1 0 0 0 1 0"/>
  <feBlend mode="normal" in2="BackgroundImageFix" result="effect1_dropShadow_559_36465"/>
  <feBlend mode="normal" in="SourceGraphic" in2="effect1_dropShadow_559_36465" result="shape"/>
  </filter>
  <filter id="filter1_d_559_36465" x="225.487" y="149.953" width="66.9734" height="30.552" filterUnits="userSpaceOnUse" color-interpolation-filters="sRGB">
  <feFlood flood-opacity="0" result="BackgroundImageFix"/>
  <feColorMatrix in="SourceAlpha" type="matrix" values="0 0 0 0 0 0 0 0 0 0 0 0 0 0 0 0 0 0 127 0" result="hardAlpha"/>
  <feOffset/>
  <feGaussianBlur stdDeviation="1.66205"/>
  <feComposite in2="hardAlpha" operator="out"/>
  <feColorMatrix type="matrix" values="0 0 0 0 1 0 0 0 0 1 0 0 0 0 1 0 0 0 1 0"/>
  <feBlend mode="normal" in2="BackgroundImageFix" result="effect1_dropShadow_559_36465"/>
  <feBlend mode="normal" in="SourceGraphic" in2="effect1_dropShadow_559_36465" result="shape"/>
  </filter>
  <filter id="filter2_d_559_36465" x="66.8034" y="112.289" width="56.6081" height="46.3486" filterUnits="userSpaceOnUse" color-interpolation-filters="sRGB">
  <feFlood flood-opacity="0" result="BackgroundImageFix"/>
  <feColorMatrix in="SourceAlpha" type="matrix" values="0 0 0 0 0 0 0 0 0 0 0 0 0 0 0 0 0 0 127 0" result="hardAlpha"/>
  <feOffset/>
  <feGaussianBlur stdDeviation="1.66205"/>
  <feComposite in2="hardAlpha" operator="out"/>
  <feColorMatrix type="matrix" values="0 0 0 0 1 0 0 0 0 1 0 0 0 0 1 0 0 0 1 0"/>
  <feBlend mode="normal" in2="BackgroundImageFix" result="effect1_dropShadow_559_36465"/>
  <feBlend mode="normal" in="SourceGraphic" in2="effect1_dropShadow_559_36465" result="shape"/>
  </filter>
  <filter id="filter3_d_559_36465" x="57.4772" y="149.953" width="66.9734" height="30.552" filterUnits="userSpaceOnUse" color-interpolation-filters="sRGB">
  <feFlood flood-opacity="0" result="BackgroundImageFix"/>
  <feColorMatrix in="SourceAlpha" type="matrix" values="0 0 0 0 0 0 0 0 0 0 0 0 0 0 0 0 0 0 127 0" result="hardAlpha"/>
  <feOffset/>
  <feGaussianBlur stdDeviation="1.66205"/>
  <feComposite in2="hardAlpha" operator="out"/>
  <feColorMatrix type="matrix" values="0 0 0 0 1 0 0 0 0 1 0 0 0 0 1 0 0 0 1 0"/>
  <feBlend mode="normal" in2="BackgroundImageFix" result="effect1_dropShadow_559_36465"/>
  <feBlend mode="normal" in="SourceGraphic" in2="effect1_dropShadow_559_36465" result="shape"/>
  </filter>
  </defs>
    
    
  <g filter="url(#filter0_d_680_67623)">
  <path d="M147.435 221.638C147.227 220.753 145.978 220.679 145.655 221.529C135.558 248.092 116.921 274.657 115.808 335.23C115.789 336.267 117.242 336.499 117.578 335.518C131.89 293.713 145.73 277.771 159.921 280.904C160.612 281.057 161.267 280.448 161.105 279.759L147.435 221.638Z" fill="#333333"/>
  <path d="M147.435 221.638C147.227 220.753 145.978 220.679 145.655 221.529C135.558 248.092 116.921 274.657 115.808 335.23C115.789 336.267 117.242 336.499 117.578 335.518C131.89 293.713 145.73 277.771 159.921 280.904C160.612 281.057 161.267 280.448 161.105 279.759L147.435 221.638Z" fill="url(#paint0_linear_680_67623)"/>
  <path d="M202.566 221.638C202.774 220.753 204.022 220.679 204.346 221.529C214.443 248.092 233.08 274.657 234.193 335.23C234.212 336.267 232.759 336.499 232.423 335.518C218.111 293.713 204.271 277.771 190.08 280.904C189.389 281.057 188.734 280.448 188.896 279.759L202.566 221.638Z" fill="#333333"/>
  <path d="M202.566 221.638C202.774 220.753 204.022 220.679 204.346 221.529C214.443 248.092 233.08 274.657 234.193 335.23C234.212 336.267 232.759 336.499 232.423 335.518C218.111 293.713 204.271 277.771 190.08 280.904C189.389 281.057 188.734 280.448 188.896 279.759L202.566 221.638Z" fill="url(#paint1_linear_680_67623)"/>
  <path d="M125.85 211.156C125.102 210.748 124.172 211.486 124.422 212.301L137.224 254.133C137.229 254.148 137.227 254.145 137.233 254.16C137.416 254.659 153.267 297.588 175.001 297.588C196.734 297.588 212.585 254.659 212.768 254.16C212.774 254.145 212.772 254.148 212.777 254.133L225.579 212.301C225.829 211.486 224.9 210.748 224.152 211.156C218.252 214.373 200.597 222.642 175.001 222.642C149.404 222.642 131.749 214.373 125.85 211.156Z" fill="#333333"/>
  <path d="M125.85 211.156C125.102 210.748 124.172 211.486 124.422 212.301L137.224 254.133C137.229 254.148 137.227 254.145 137.233 254.16C137.416 254.659 153.267 297.588 175.001 297.588C196.734 297.588 212.585 254.659 212.768 254.16C212.774 254.145 212.772 254.148 212.777 254.133L225.579 212.301C225.829 211.486 224.9 210.748 224.152 211.156C218.252 214.373 200.597 222.642 175.001 222.642C149.404 222.642 131.749 214.373 125.85 211.156Z" fill="url(#paint2_linear_680_67623)"/>
  <path d="M175.001 223.322C175.001 222.373 176.245 222.069 176.665 222.919C189.647 249.186 192.092 279.874 192.252 338.861C192.255 339.924 190.945 340.088 190.745 339.044C187.346 321.3 188.497 303.068 175.217 287.116C175.079 286.951 175.001 286.74 175.001 286.525V223.322Z" fill="#333333"/>
  <path d="M175.001 223.322C175.001 222.373 176.245 222.069 176.665 222.919C189.647 249.186 192.092 279.874 192.252 338.861C192.255 339.924 190.945 340.088 190.745 339.044C187.346 321.3 188.497 303.068 175.217 287.116C175.079 286.951 175.001 286.74 175.001 286.525V223.322Z" fill="url(#paint3_linear_680_67623)"/>
  </g>
  <path d="M155.659 61.9401C159.113 48.9625 161.899 32.3568 174.786 32.3568C187.672 32.3568 192.186 52.9172 194.342 62.2565C196.328 70.861 200.673 90.7628 201.345 93.8409C201.403 94.1055 201.335 94.3668 201.146 94.5603C199.763 95.972 193.095 101.628 175 101.628C156.851 101.628 150.197 95.9377 148.843 94.5476C148.66 94.3602 148.594 94.1075 148.643 93.8505C149.177 91.0437 152.494 73.8282 155.659 61.9401Z" fill="#333333"/>
  <path d="M155.659 61.9401C159.113 48.9625 161.899 32.3568 174.786 32.3568C187.672 32.3568 192.186 52.9172 194.342 62.2565C196.328 70.861 200.673 90.7628 201.345 93.8409C201.403 94.1055 201.335 94.3668 201.146 94.5603C199.763 95.972 193.095 101.628 175 101.628C156.851 101.628 150.197 95.9377 148.843 94.5476C148.66 94.3602 148.594 94.1075 148.643 93.8505C149.177 91.0437 152.494 73.8282 155.659 61.9401Z" fill="url(#paint4_linear_680_67623)"/>
  <defs>
  <filter id="filter0_d_680_67623" x="113.529" y="211.04" width="123.854" height="134.176" filterUnits="userSpaceOnUse" color-interpolation-filters="sRGB">
  <feFlood flood-opacity="0" result="BackgroundImageFix"/>
  <feColorMatrix in="SourceAlpha" type="matrix" values="0 0 0 0 0 0 0 0 0 0 0 0 0 0 0 0 0 0 127 0" result="hardAlpha"/>
  <feOffset dx="0.455729" dy="2.73438"/>
  <feGaussianBlur stdDeviation="1.36719"/>
  <feComposite in2="hardAlpha" operator="out"/>
  <feColorMatrix type="matrix" values="0 0 0 0 0 0 0 0 0 0 0 0 0 0 0 0 0 0 0.25 0"/>
  <feBlend mode="normal" in2="BackgroundImageFix" result="effect1_dropShadow_680_67623"/>
  <feBlend mode="normal" in="SourceGraphic" in2="effect1_dropShadow_680_67623" result="shape"/>
  </filter>
  <linearGradient id="paint0_linear_680_67623" x1="118.472" y1="229.255" x2="194.298" y2="255.219" gradientUnits="userSpaceOnUse">
  <stop stop-color="#ECECEC" stop-opacity="0.71"/>
  <stop offset="1" stop-color="#C3C3C3" stop-opacity="0.15"/>
  </linearGradient>
  <linearGradient id="paint1_linear_680_67623" x1="231.529" y1="229.255" x2="155.703" y2="255.219" gradientUnits="userSpaceOnUse">
  <stop stop-color="#ECECEC" stop-opacity="0.71"/>
  <stop offset="1" stop-color="#C3C3C3" stop-opacity="0.15"/>
  </linearGradient>
  <linearGradient id="paint2_linear_680_67623" x1="129.783" y1="223.106" x2="227.712" y2="318.154" gradientUnits="userSpaceOnUse">
  <stop stop-color="#ECECEC" stop-opacity="0.71"/>
  <stop offset="1" stop-color="#C3C3C3" stop-opacity="0.15"/>
  </linearGradient>
  <linearGradient id="paint3_linear_680_67623" x1="194.134" y1="235.551" x2="94.7938" y2="286.802" gradientUnits="userSpaceOnUse">
  <stop stop-color="#ECECEC" stop-opacity="0.71"/>
  <stop offset="1" stop-color="#C3C3C3" stop-opacity="0.15"/>
  </linearGradient>
  <linearGradient id="paint4_linear_680_67623" x1="151.709" y1="56.5727" x2="203.083" y2="105.496" gradientUnits="userSpaceOnUse">
  <stop stop-color="#ECECEC" stop-opacity="0.71"/>
  <stop offset="1" stop-color="#C3C3C3" stop-opacity="0.15"/>
  </linearGradient>
  </defs>

    
    <path d="M148.647 94.3351L124.888 210.017C124.817 210.363 124.947 210.714 125.237 210.915C128.356 213.082 146.958 225.128 174.998 225.128C203.038 225.128 221.64 213.082 224.76 210.915C225.05 210.714 225.18 210.363 225.109 210.017L201.35 94.3351C201.316 94.4021 201.271 94.4644 201.216 94.5198C199.881 95.8685 193.226 101.484 174.998 101.484C156.771 101.484 150.116 95.8685 148.78 94.5198C148.725 94.4644 148.681 94.4021 148.647 94.3351Z" fill="#000000" fill-opacity="0.75"/>;
    
    <!-- Color -->
    <path d="M201.049 94.2304L205.113 114.031C203.523 113.76 201.871 113.447 200.18 113.127C186.038 110.452 169.252 107.276 165.003 123.73C163.148 130.914 165.836 135.212 168.45 139.394C170.975 143.43 173.431 147.358 171.668 153.669C169.523 161.35 157.859 166.325 148.479 162.994C138.57 159.476 139.266 144.903 144.961 137.849C150.656 130.794 151.48 120.031 150.656 112.87C150.259 109.409 148.549 106.935 146.313 105.251L148.649 93.8801C148.683 93.9471 148.727 94.0094 148.782 94.0649C150.117 95.4136 156.772 101.03 175 101.03C192.557 101.03 199.378 95.8189 201.049 94.2304Z" fill="url(#paint0_radial_702_67017)"/>

    <!-- Filter -->
    <mask id="mask0_702_67017" style="mask-type:alpha" maskUnits="userSpaceOnUse" x="140" y="93" width="66" height="72">
      <path d="M201.049 94.2304L205.113 114.031C203.523 113.76 201.871 113.447 200.18 113.127C186.038 110.452 169.252 107.276 165.003 123.73C163.148 130.914 165.836 135.212 168.45 139.394C170.975 143.43 173.431 147.358 171.668 153.669C169.523 161.35 157.859 166.325 148.479 162.994C138.57 159.476 139.266 144.903 144.961 137.849C150.656 130.794 151.48 120.031 150.656 112.87C150.259 109.409 148.549 106.935 146.313 105.251L148.649 93.8801C148.683 93.9471 148.727 94.0094 148.782 94.0649C150.117 95.4136 156.772 101.03 175 101.03C192.557 101.03 199.378 95.8189 201.049 94.2304Z" fill="url(#paint1_radial_702_67017)"/>
    </mask>
    <g mask="url(#mask0_702_67017)">
      <g filter="url(#filter0_f_702_67017)">
        <mask id="mask1_702_67017" style="mask-type:alpha" maskUnits="userSpaceOnUse" x="124" y="94" width="102" height="132">
          <path d="M148.862 95.0637C148.949 94.6399 149.322 94.3357 149.754 94.3357H200.246C200.678 94.3357 201.051 94.6399 201.138 95.0637L224.993 211.158C225.074 211.554 224.888 211.954 224.527 212.137C220.624 214.108 198.375 224.817 175 225.127C151.578 225.438 129.287 214.178 125.45 212.14C125.099 211.954 124.924 211.562 125.004 211.173L148.862 95.0637Z" fill="#577096" fill-opacity="0.75"/>
        </mask>
        <g mask="url(#mask1_702_67017)">
          <g filter="url(#filter1_f_702_67017)">
            <path d="M207.208 76.1064C210.866 110.268 145.941 132.571 113.021 139.453L113.021 76.1064L207.208 76.1064Z" fill="url(#paint2_linear_702_67017)" fill-opacity="0.5"/>
          </g>
          <g filter="url(#filter2_f_702_67017)">
            <path d="M155.407 125.301C156.469 105.018 134.471 86.1828 128.929 66.9985C133.388 65.1973 144.05 70.7896 152.675 76.1247C163.456 82.7936 162.879 109.124 164.625 125.784C166.022 139.112 148.453 223.401 144.015 241.481L131.716 240.837C140.242 214.68 154.587 140.955 155.407 125.301Z" fill="url(#paint3_linear_702_67017)" fill-opacity="0.6"/>
          </g>
        </g>
      </g>
    </g>

    <defs>
      <!-- Color -->
      <radialGradient id="paint0_radial_702_67017" cx="0" cy="0" r="1" gradientUnits="userSpaceOnUse" gradientTransform="translate(155.882 109.102) rotate(53.1177) scale(37.8177 40.2646)">
        <stop offset="0.203125" style="stop-color: #21F6EA;"/>
        <stop offset="0.890625" style="stop-color: #2183F6;"/>
      </radialGradient>

      <!-- Filter -->
      <filter id="filter0_f_702_67017" x="122.591" y="92.057" width="104.818" height="135.355" filterUnits="userSpaceOnUse" color-interpolation-filters="sRGB">
        <feFlood flood-opacity="0" result="BackgroundImageFix"/>
        <feBlend mode="normal" in="SourceGraphic" in2="BackgroundImageFix" result="shape"/>
        <feGaussianBlur stdDeviation="1.13932" result="effect1_foregroundBlur_702_67017"/>
      </filter>
      <filter id="filter1_f_702_67017" x="112.109" y="75.195" width="96.1589" height="65.1694" filterUnits="userSpaceOnUse" color-interpolation-filters="sRGB">
        <feFlood flood-opacity="0" result="BackgroundImageFix"/>
        <feBlend mode="normal" in="SourceGraphic" in2="BackgroundImageFix" result="shape"/>
        <feGaussianBlur stdDeviation="0.455729" result="effect1_foregroundBlur_702_67017"/>
      </filter>
      <filter id="filter2_f_702_67017" x="128.017" y="65.7426" width="37.5979" height="176.65" filterUnits="userSpaceOnUse" color-interpolation-filters="sRGB">
        <feFlood flood-opacity="0" result="BackgroundImageFix"/>
        <feBlend mode="normal" in="SourceGraphic" in2="BackgroundImageFix" result="shape"/>
        <feGaussianBlur stdDeviation="0.455729" result="effect1_foregroundBlur_702_67017"/>
      </filter>
      <radialGradient id="paint1_radial_702_67017" cx="0" cy="0" r="1" gradientUnits="userSpaceOnUse" gradientTransform="translate(155.882 109.102) rotate(53.1177) scale(37.8177 40.2646)">
        <stop offset="0.203125" stop-color="#71FF30"/>
        <stop offset="0.890625" stop-color="#25BC46"/>
      </radialGradient>
      <linearGradient id="paint2_linear_702_67017" x1="145.215" y1="123.01" x2="155.829" y2="72.2914" gradientUnits="userSpaceOnUse">
        <stop stop-color="white" stop-opacity="0"/>
        <stop offset="0.471361" stop-color="white"/>
        <stop offset="1" stop-color="white"/>
      </linearGradient>
      <linearGradient id="paint3_linear_702_67017" x1="160.729" y1="220.938" x2="201.954" y2="178" gradientUnits="userSpaceOnUse">
        <stop stop-color="#F2F2F2"/>
        <stop offset="0.0001" stop-color="#F2F2F2"/>
        <stop offset="0.0520833" stop-color="#F2F2F2" stop-opacity="0.948011"/>
        <stop offset="1" stop-color="#F2F2F2" stop-opacity="0"/>
      </linearGradient>
    </defs>
  
    
    <!-- Color -->
    <path d="M177.734 130.914C177.734 127.951 179.774 122.048 187.933 122.136C196.091 122.224 198.203 128.025 198.239 130.914C198.312 133.035 197.089 137.629 191.621 139.033C184.786 140.789 177.734 136.839 177.734 130.914Z" fill="url(#paint0_radial_702_67018)"/>

    <defs>
      <!-- Color -->
      <radialGradient id="paint0_radial_702_67018" cx="0" cy="0" r="1" gradientUnits="userSpaceOnUse" gradientTransform="translate(182.539 125.892) rotate(45.8803) scale(10.3998 11.5271)">
        <stop offset="0.203125" style="stop-color: #21F6EA;"/>
        <stop offset="0.890625" style="stop-color: #2183F6;"/>
      </radialGradient>
    </defs>
  
    
    <!-- Color -->
    <path d="M214.052 156.619L218.831 179.91C216.932 182.156 214.118 184.13 210.037 185.164C197.278 188.398 184.115 181.122 184.115 170.207C184.115 164.75 187.922 153.876 203.151 154.038C207.743 154.087 211.309 155.092 214.052 156.619Z" fill="url(#paint0_radial_702_67019)"/>

    <defs>
      <!-- Color -->
      <radialGradient id="paint0_radial_702_67019" cx="0" cy="0" r="1" gradientUnits="userSpaceOnUse" gradientTransform="translate(192.248 160.957) rotate(48.2936) scale(18.4215 20.2932)">
        <stop offset="0.203125" style="stop-color: #5000B6;"/>
        <stop offset="0.890625" style="stop-color: #7E5EFF;"/>
      </radialGradient>
    </defs>
  
    
    <!-- Color -->
    <path d="M223.109 211.89C217.522 215.445 199.996 225.13 174.887 225.13C146.901 225.13 128.335 213.098 125.221 210.933C125.032 210.801 124.911 210.606 124.87 210.39C128.808 199.004 144.115 175.86 164.064 181.919C173.943 184.919 180.859 192.452 187.364 199.536C197.438 210.508 206.525 220.404 224.106 210.722C223.783 211.11 223.451 211.499 223.109 211.89Z" fill="url(#paint0_radial_702_67020)"/>

    <!-- Filter -->
    <mask id="mask0_702_67020" style="mask-type:alpha" maskUnits="userSpaceOnUse" x="124" y="180" width="101" height="46">
      <path d="M223.109 211.89C217.522 215.445 199.996 225.13 174.887 225.13C146.901 225.13 128.335 213.098 125.221 210.933C125.032 210.802 124.911 210.606 124.87 210.39C128.808 199.004 144.115 175.86 164.064 181.919C173.943 184.92 180.859 192.452 187.364 199.536C197.438 210.508 206.525 220.405 224.106 210.722C223.783 211.11 223.451 211.499 223.109 211.89Z" fill="url(#paint1_radial_702_67020)"/>
    </mask>
    <g mask="url(#mask0_702_67020)">
      <g filter="url(#filter0_f_702_67020)">
        <mask id="mask1_702_67020" style="mask-type:alpha" maskUnits="userSpaceOnUse" x="124" y="94" width="102" height="132">
          <path d="M148.862 95.0639C148.949 94.6401 149.322 94.3359 149.754 94.3359H200.246C200.678 94.3359 201.051 94.6401 201.138 95.0639L224.993 211.159C225.074 211.555 224.888 211.955 224.527 212.137C220.624 214.109 198.375 224.817 175 225.128C151.578 225.438 129.287 214.178 125.45 212.141C125.099 211.954 124.924 211.562 125.004 211.173L148.862 95.0639Z" fill="#577096" fill-opacity="0.75"/>
        </mask>
        <g mask="url(#mask1_702_67020)">
          <g filter="url(#filter1_f_702_67020)">
            <path d="M155.407 125.301C156.469 105.018 134.471 86.183 128.929 66.9987C133.388 65.1975 144.05 70.7899 152.675 76.125C163.456 82.7938 162.879 109.124 164.625 125.784C166.022 139.112 148.453 223.401 144.015 241.482L131.716 240.837C140.242 214.68 154.587 140.955 155.407 125.301Z" fill="url(#paint2_linear_702_67020)" fill-opacity="0.6"/>
          </g>
        </g>
      </g>
    </g>

    <defs>
      <!-- Color -->
      <radialGradient id="paint0_radial_702_67020" cx="0" cy="0" r="1" gradientUnits="userSpaceOnUse" gradientTransform="translate(148.118 190.514) rotate(28.5454) scale(39.8814 37.1287)">
        <stop offset="0.203125" style="stop-color: #F85449;"/>
        <stop offset="0.890625" style="stop-color: #C53434;"/>
      </radialGradient>

      <!-- Filter -->
      <filter id="filter0_f_702_67020" x="122.591" y="92.0573" width="104.818" height="135.355" filterUnits="userSpaceOnUse" color-interpolation-filters="sRGB">
        <feFlood flood-opacity="0" result="BackgroundImageFix"/>
        <feBlend mode="normal" in="SourceGraphic" in2="BackgroundImageFix" result="shape"/>
        <feGaussianBlur stdDeviation="1.13932" result="effect1_foregroundBlur_702_67020"/>
      </filter>
      <filter id="filter1_f_702_67020" x="128.017" y="65.7428" width="37.5979" height="176.65" filterUnits="userSpaceOnUse" color-interpolation-filters="sRGB">
        <feFlood flood-opacity="0" result="BackgroundImageFix"/>
        <feBlend mode="normal" in="SourceGraphic" in2="BackgroundImageFix" result="shape"/>
        <feGaussianBlur stdDeviation="0.455729" result="effect1_foregroundBlur_702_67020"/>
      </filter>
      <radialGradient id="paint1_radial_702_67020" cx="0" cy="0" r="1" gradientUnits="userSpaceOnUse" gradientTransform="translate(146.218 191.259) rotate(27.3324) scale(58.602 42.3474)">
        <stop offset="0.302083" stop-color="#FFB800"/>
        <stop offset="1" stop-color="#FF7800"/>
      </radialGradient>
      <linearGradient id="paint2_linear_702_67020" x1="160.729" y1="220.939" x2="201.954" y2="178" gradientUnits="userSpaceOnUse">
        <stop stop-color="#F2F2F2"/>
        <stop offset="0.0001" stop-color="#F2F2F2"/>
        <stop offset="0.0520833" stop-color="#F2F2F2" stop-opacity="0.948011"/>
        <stop offset="1" stop-color="#F2F2F2" stop-opacity="0"/>
      </linearGradient>
    </defs>
  
  
    </svg>
  