
    <svg width="768" height="768" viewBox="0 0 768 768" fill="none" xmlns="http://www.w3.org/2000/svg">
    
  <g clip-path="url(#clip0_28_276)">
  <rect width="768" height="768" fill="white"/>
  <rect x="0.174805" y="0.0983887" width="768" height="768" fill="#2183F7" fill-opacity="0.25"/>
  <path d="M276.433 637.523L657.918 418.561L945.71 513.198L466.417 645.227L276.433 637.523Z" fill="url(#paint0_linear_28_276)" fill-opacity="0.1"/>
  <g opacity="0.45" filter="url(#filter0_f_28_276)">
  <ellipse rx="427" ry="146.5" transform="matrix(0.999998 0.00221055 0.00221055 -0.999998 386.365 668.462)" fill="url(#paint1_radial_28_276)"/>
  </g>
  <g opacity="0.7" filter="url(#filter1_f_28_276)">
  <ellipse cx="382.675" cy="301.953" rx="431.5" ry="532" transform="rotate(0.126655 382.675 301.953)" fill="url(#paint2_radial_28_276)"/>
  </g>
  </g>
  <defs>
  <filter id="filter0_f_28_276" x="-50.6343" y="511.959" width="873.998" height="313.005" filterUnits="userSpaceOnUse" color-interpolation-filters="sRGB">
  <feFlood flood-opacity="0" result="BackgroundImageFix"/>
  <feBlend mode="normal" in="SourceGraphic" in2="BackgroundImageFix" result="shape"/>
  <feGaussianBlur stdDeviation="5" result="effect1_foregroundBlur_28_276"/>
  </filter>
  <filter id="filter1_f_28_276" x="-58.8257" y="-240.047" width="883.001" height="1084" filterUnits="userSpaceOnUse" color-interpolation-filters="sRGB">
  <feFlood flood-opacity="0" result="BackgroundImageFix"/>
  <feBlend mode="normal" in="SourceGraphic" in2="BackgroundImageFix" result="shape"/>
  <feGaussianBlur stdDeviation="5" result="effect1_foregroundBlur_28_276"/>
  </filter>
  <linearGradient id="paint0_linear_28_276" x1="427.525" y1="596.052" x2="694.574" y2="368.5" gradientUnits="userSpaceOnUse">
  <stop/>
  <stop offset="1" stop-color="#333333" stop-opacity="0"/>
  </linearGradient>
  <radialGradient id="paint1_radial_28_276" cx="0" cy="0" r="1" gradientUnits="userSpaceOnUse" gradientTransform="translate(427 168.135) rotate(99.1226) scale(96.4992 275.026)">
  <stop stop-color="#2183F7"/>
  <stop offset="1" stop-color="#2183F7" stop-opacity="0"/>
  </radialGradient>
  <radialGradient id="paint2_radial_28_276" cx="0" cy="0" r="1" gradientUnits="userSpaceOnUse" gradientTransform="translate(382.675 380.518) rotate(92.5586) scale(346.34 281.204)">
  <stop stop-color="#2183F7"/>
  <stop offset="1" stop-color="#2183F7" stop-opacity="0"/>
  </radialGradient>
  <clipPath id="clip0_28_276">
  <rect width="768" height="768" fill="white"/>
  </clipPath>
  </defs>

    
  <g clip-path="url(#clip0_589_71590)">
  <g style="mix-blend-mode:overlay">
  <path fill-rule="evenodd" clip-rule="evenodd" d="M22.9038 657.808C119.024 713.302 241.931 680.369 297.426 584.25C352.921 488.13 319.988 365.222 223.868 309.728C127.748 254.233 4.84058 287.166 -50.6542 383.286C-106.149 479.405 -73.2159 602.313 22.9038 657.808ZM-21.6475 400.033C21.6576 325.026 114.222 296.192 191.59 330.801L111.771 469.052L-41.983 510.25C-47.8792 473.573 -41.669 434.711 -21.6475 400.033ZM140.778 485.798L220.663 347.432C290.185 396.913 311.953 492.1 268.419 567.503C248.227 602.477 217.324 627.412 182.246 640.558L140.778 485.798ZM149.868 649.136C118.159 654.234 84.8148 650.282 53.9547 636.18L117.094 526.82L149.868 649.136ZM-33.4052 542.627L88.0869 510.073L25.0148 619.318C-2.33598 599.519 -22.1744 572.597 -33.4052 542.627Z" fill="white" fill-opacity="0.25"/>
  </g>
  <g style="mix-blend-mode:overlay">
  <path fill-rule="evenodd" clip-rule="evenodd" d="M758.27 474.64C833.456 431.231 859.217 335.09 815.808 259.904C772.399 184.717 676.258 158.957 601.072 202.366C525.886 245.775 500.125 341.915 543.534 417.101C586.943 492.288 683.083 518.049 758.27 474.64ZM566.223 404.002C532.349 345.33 549.019 271.348 602.723 232.473L665.159 340.615L632.933 460.884C605.782 450.534 581.884 431.127 566.223 404.002ZM687.848 327.515L625.361 219.283C686.07 191.54 759.065 214.022 793.118 273.004C808.913 300.361 813.718 331.048 808.904 359.952L687.848 327.515ZM802.052 385.24C793.103 408.714 777.386 429.757 755.763 445.146L706.374 359.603L802.052 385.24ZM658.221 467.736L683.685 372.703L733.021 458.156C708.912 468.94 682.916 471.85 658.221 467.736Z" fill="white" fill-opacity="0.25"/>
  </g>
  <g style="mix-blend-mode:overlay">
  <path fill-rule="evenodd" clip-rule="evenodd" d="M354.141 138.938C406.206 108.878 424.045 42.3032 393.985 -9.7616C363.926 -61.8264 297.351 -79.6651 245.286 -49.6054C193.221 -19.5458 175.382 47.029 205.442 99.0938C235.502 151.159 302.077 168.997 354.141 138.938ZM221.154 90.0225C197.697 49.394 209.241 -1.83695 246.429 -28.7566L289.665 46.1291L267.349 129.412C248.547 122.245 231.999 108.807 221.154 90.0225ZM305.376 37.0575L262.105 -37.8905C304.145 -57.1018 354.692 -41.5336 378.273 -0.690312C389.211 18.2539 392.538 39.5038 389.205 59.5192L305.376 37.0575ZM384.46 77.0304C378.263 93.286 367.379 107.857 352.406 118.514L318.205 59.2776L384.46 77.0304ZM284.86 134.157L302.494 68.3492L336.658 127.523C319.963 134.991 301.961 137.006 284.86 134.157Z" fill="white" fill-opacity="0.25"/>
  </g>
  </g>
  <defs>
  <clipPath id="clip0_589_71590">
  <rect width="768" height="768" fill="white"/>
  </clipPath>
  </defs>

    
<g filter="url(#filter0_b_363_5706)">
<path d="M326.178 207L274.042 460.841C273.886 461.6 274.171 462.37 274.808 462.812C281.654 467.568 322.472 494 384 494C445.528 494 486.346 467.568 493.192 462.812C493.829 462.37 494.114 461.6 493.958 460.841L441.822 207C441.748 207.147 441.651 207.284 441.53 207.405C438.6 210.365 423.996 222.688 384 222.688C344.004 222.688 329.4 210.365 326.47 207.405C326.349 207.284 326.252 207.147 326.178 207Z" fill="white" fill-opacity="0.75"/>
</g>
<g filter="url(#filter1_d_363_5706)">
<path d="M323.454 476.552C323.024 474.587 320.261 474.401 319.552 476.283C297.381 535.155 256.55 602.244 254.115 735.592C254.073 737.868 257.261 738.375 257.998 736.222C289.424 644.431 319.812 609.464 350.971 616.398C352.473 616.732 353.903 615.423 353.574 613.919L323.454 476.552Z" fill="#333333"/>
<path d="M323.454 476.552C323.024 474.587 320.261 474.401 319.552 476.283C297.381 535.155 256.55 602.244 254.115 735.592C254.073 737.868 257.261 738.375 257.998 736.222C289.424 644.431 319.812 609.464 350.971 616.398C352.473 616.732 353.903 615.423 353.574 613.919L323.454 476.552Z" fill="url(#paint0_linear_363_5706)"/>
<path d="M444.546 476.552C444.977 474.587 447.74 474.401 448.448 476.283C470.62 535.155 511.45 602.244 513.886 735.592C513.927 737.868 510.74 738.375 510.002 736.222C478.577 644.431 448.189 609.464 417.03 616.398C415.527 616.732 414.097 615.423 414.427 613.919L444.546 476.552Z" fill="#333333"/>
<path d="M444.546 476.552C444.977 474.587 447.74 474.401 448.448 476.283C470.62 535.155 511.45 602.244 513.886 735.592C513.927 737.868 510.74 738.375 510.002 736.222C478.577 644.431 448.189 609.464 417.03 616.398C415.527 616.732 414.097 615.423 414.427 613.919L444.546 476.552Z" fill="url(#paint1_linear_363_5706)"/>
<path d="M275.366 462.073C273.77 461.504 272.154 463.033 272.65 464.653L301.107 557.639C301.118 557.674 301.114 557.667 301.127 557.701C301.529 558.794 336.31 652.992 384 652.992C431.69 652.992 466.471 558.794 466.873 557.701C466.886 557.667 466.882 557.674 466.893 557.639L495.35 464.653C495.846 463.033 494.23 461.504 492.634 462.073C480.529 466.388 441.347 478.54 384 478.54C326.653 478.54 287.472 466.388 275.366 462.073Z" fill="#333333"/>
<path d="M275.366 462.073C273.77 461.504 272.154 463.033 272.65 464.653L301.107 557.639C301.118 557.674 301.114 557.667 301.127 557.701C301.529 558.794 336.31 652.992 384 652.992C431.69 652.992 466.471 558.794 466.873 557.701C466.886 557.667 466.882 557.674 466.893 557.639L495.35 464.653C495.846 463.033 494.23 461.504 492.634 462.073C480.529 466.388 441.347 478.54 384 478.54C326.653 478.54 287.472 466.388 275.366 462.073Z" fill="url(#paint2_linear_363_5706)"/>
<path d="M384.001 490.031C384.001 487.95 386.73 487.282 387.652 489.148C416.139 546.784 421.504 614.124 421.855 743.558C421.862 745.89 418.987 746.25 418.548 743.96C411.089 705.023 413.615 665.017 384.475 630.015C384.173 629.652 384.001 629.19 384.001 628.718V490.031Z" fill="#333333"/>
<path d="M384.001 490.031C384.001 487.95 386.73 487.282 387.652 489.148C416.139 546.784 421.504 614.124 421.855 743.558C421.862 745.89 418.987 746.25 418.548 743.96C411.089 705.023 413.615 665.017 384.475 630.015C384.173 629.652 384.001 629.19 384.001 628.718V490.031Z" fill="url(#paint3_linear_363_5706)"/>
</g>
<path d="M341.559 135.914C349.139 107.438 355.252 71 383.528 71C411.805 71 421.711 116.115 426.441 136.608C430.799 155.489 440.334 199.159 441.807 205.914C441.934 206.494 441.786 207.068 441.371 207.492C438.337 210.59 423.704 223 384 223C344.175 223 329.575 210.515 326.602 207.464C326.201 207.053 326.056 206.499 326.164 205.935C327.337 199.776 334.615 162 341.559 135.914Z" fill="#333333"/>
<path d="M341.559 135.914C349.139 107.438 355.252 71 383.528 71C411.805 71 421.711 116.115 426.441 136.608C430.799 155.489 440.334 199.159 441.807 205.914C441.934 206.494 441.786 207.068 441.371 207.492C438.337 210.59 423.704 223 384 223C344.175 223 329.575 210.515 326.602 207.464C326.201 207.053 326.056 206.499 326.164 205.935C327.337 199.776 334.615 162 341.559 135.914Z" fill="url(#paint4_linear_363_5706)"/>
<defs>
<filter id="filter0_b_363_5706" x="250" y="183" width="268" height="335" filterUnits="userSpaceOnUse" color-interpolation-filters="sRGB">
<feFlood flood-opacity="0" result="BackgroundImageFix"/>
<feGaussianBlur in="BackgroundImage" stdDeviation="12"/>
<feComposite in2="SourceAlpha" operator="in" result="effect1_backgroundBlur_363_5706"/>
<feBlend mode="normal" in="SourceGraphic" in2="effect1_backgroundBlur_363_5706" result="shape"/>
</filter>
<filter id="filter1_d_363_5706" x="249.114" y="461.951" width="271.772" height="295.552" filterUnits="userSpaceOnUse" color-interpolation-filters="sRGB">
<feFlood flood-opacity="0" result="BackgroundImageFix"/>
<feColorMatrix in="SourceAlpha" type="matrix" values="0 0 0 0 0 0 0 0 0 0 0 0 0 0 0 0 0 0 127 0" result="hardAlpha"/>
<feOffset dx="1" dy="6"/>
<feGaussianBlur stdDeviation="3"/>
<feComposite in2="hardAlpha" operator="out"/>
<feColorMatrix type="matrix" values="0 0 0 0 0 0 0 0 0 0 0 0 0 0 0 0 0 0 0.25 0"/>
<feBlend mode="normal" in2="BackgroundImageFix" result="effect1_dropShadow_363_5706"/>
<feBlend mode="normal" in="SourceGraphic" in2="effect1_dropShadow_363_5706" result="shape"/>
</filter>
<linearGradient id="paint0_linear_363_5706" x1="259.96" y1="503.051" x2="426.345" y2="560.023" gradientUnits="userSpaceOnUse">
<stop stop-color="#ECECEC" stop-opacity="0.71"/>
<stop offset="1" stop-color="#C3C3C3" stop-opacity="0.15"/>
</linearGradient>
<linearGradient id="paint1_linear_363_5706" x1="508.041" y1="503.051" x2="341.656" y2="560.023" gradientUnits="userSpaceOnUse">
<stop stop-color="#ECECEC" stop-opacity="0.71"/>
<stop offset="1" stop-color="#C3C3C3" stop-opacity="0.15"/>
</linearGradient>
<linearGradient id="paint2_linear_363_5706" x1="284.78" y1="489.559" x2="499.664" y2="698.121" gradientUnits="userSpaceOnUse">
<stop stop-color="#ECECEC" stop-opacity="0.71"/>
<stop offset="1" stop-color="#C3C3C3" stop-opacity="0.15"/>
</linearGradient>
<linearGradient id="paint3_linear_363_5706" x1="425.983" y1="516.867" x2="208.004" y2="629.325" gradientUnits="userSpaceOnUse">
<stop stop-color="#ECECEC" stop-opacity="0.71"/>
<stop offset="1" stop-color="#C3C3C3" stop-opacity="0.15"/>
</linearGradient>
<linearGradient id="paint4_linear_363_5706" x1="332.891" y1="124.136" x2="445.62" y2="231.487" gradientUnits="userSpaceOnUse">
<stop stop-color="#ECECEC" stop-opacity="0.71"/>
<stop offset="1" stop-color="#C3C3C3" stop-opacity="0.15"/>
</linearGradient>
</defs>

    
    
<path d="M390 287.263C390 280.762 394.476 267.81 412.378 268.002C430.28 268.195 434.914 280.923 434.993 287.263C435.152 291.917 432.47 301.997 420.472 305.079C405.474 308.931 390 300.264 390 287.263Z" fill="url(#paint0_radial_461_73430)"/>
<defs>
<radialGradient id="paint0_radial_461_73430" cx="0" cy="0" r="1" gradientUnits="userSpaceOnUse" gradientTransform="translate(400.542 276.244) rotate(45.8803) scale(22.82 25.2937)">
<stop offset="0.203125" style="stop-color: #F85449;"/>
<stop offset="0.890625" style="stop-color: #C53434;"/>
</radialGradient>
</defs>

    
<path d="M469.69 343.667L480.179 394.773C476.011 399.702 469.836 404.033 460.881 406.303C432.885 413.399 404 397.433 404 373.484C404 361.509 412.354 337.649 445.772 338.004C455.848 338.111 463.672 340.317 469.69 343.667Z" fill="url(#paint0_radial_461_73431)"/>
<defs>
<radialGradient id="paint0_radial_461_73431" cx="0" cy="0" r="1" gradientUnits="userSpaceOnUse" gradientTransform="translate(421.846 353.185) rotate(48.2936) scale(40.4221 44.5291)">
<stop offset="0.203125" style="stop-color: #21F6EA;"/>
<stop offset="0.890625" style="stop-color: #2183F6;"/>
</radialGradient>
</defs>

    
<path d="M489.565 464.947C477.306 472.747 438.848 494 383.752 494C322.343 494 281.604 467.598 274.772 462.848C274.356 462.559 274.09 462.13 274 461.655C282.641 436.672 316.228 385.887 360.003 399.182C381.681 405.766 396.857 422.295 411.13 437.839C433.236 461.915 453.175 483.631 491.752 462.385C491.045 463.235 490.315 464.09 489.565 464.947Z" fill="url(#paint0_radial_461_73432)"/>
<mask id="mask0_461_73432" style="mask-type:alpha" maskUnits="userSpaceOnUse" x="274" y="397" width="218" height="97">
<path d="M489.565 464.947C477.306 472.747 438.848 494 383.752 494C322.343 494 281.604 467.598 274.772 462.848C274.356 462.559 274.09 462.13 274 461.655C282.641 436.672 316.228 385.887 360.003 399.182C381.681 405.766 396.857 422.295 411.13 437.839C433.236 461.915 453.175 483.631 491.752 462.385C491.045 463.235 490.315 464.09 489.565 464.947Z" fill="url(#paint1_radial_461_73432)"/>
</mask>
<g mask="url(#mask0_461_73432)">
<g filter="url(#filter0_f_461_73432)">
<mask id="mask1_461_73432" style="mask-type:alpha" maskUnits="userSpaceOnUse" x="274" y="207" width="220" height="288">
<path d="M326.645 208.597C326.836 207.667 327.654 207 328.604 207H439.396C440.346 207 441.164 207.667 441.355 208.597L493.699 463.342C493.877 464.211 493.468 465.089 492.676 465.489C484.111 469.816 435.292 493.314 384 493.994C332.606 494.676 283.694 469.968 275.273 465.497C274.504 465.088 274.119 464.228 274.295 463.375L326.645 208.597Z" fill="#577096" fill-opacity="0.75"/>
</mask>
<g mask="url(#mask1_461_73432)">
<g filter="url(#filter1_f_461_73432)">
<path d="M341.007 274.947C343.338 230.439 295.068 189.11 282.906 147.014C292.691 143.062 316.087 155.333 335.012 167.04C358.668 181.673 357.402 239.449 361.234 276.006C364.299 305.252 325.749 490.207 316.009 529.88L289.022 528.466C307.731 471.07 339.209 309.296 341.007 274.947Z" fill="url(#paint2_linear_461_73432)" fill-opacity="0.6"/>
</g>
</g>
</g>
</g>
<defs>
<filter id="filter0_f_461_73432" x="269" y="202" width="230" height="297.008" filterUnits="userSpaceOnUse" color-interpolation-filters="sRGB">
<feFlood flood-opacity="0" result="BackgroundImageFix"/>
<feBlend mode="normal" in="SourceGraphic" in2="BackgroundImageFix" result="shape"/>
<feGaussianBlur stdDeviation="2.5" result="effect1_foregroundBlur_461_73432"/>
</filter>
<filter id="filter1_f_461_73432" x="280.906" y="144.259" width="82.5007" height="387.621" filterUnits="userSpaceOnUse" color-interpolation-filters="sRGB">
<feFlood flood-opacity="0" result="BackgroundImageFix"/>
<feBlend mode="normal" in="SourceGraphic" in2="BackgroundImageFix" result="shape"/>
<feGaussianBlur stdDeviation="1" result="effect1_foregroundBlur_461_73432"/>
</filter>
<radialGradient id="paint0_radial_461_73432" cx="0" cy="0" r="1" gradientUnits="userSpaceOnUse" gradientTransform="translate(325.013 418.043) rotate(28.5454) scale(87.5113 81.471)">
<stop offset="0.203125" style="stop-color: #21F6EA;"/>
<stop offset="0.890625" style="stop-color: #2183F6;"/>
</radialGradient>
<radialGradient id="paint1_radial_461_73432" cx="0" cy="0" r="1" gradientUnits="userSpaceOnUse" gradientTransform="translate(320.844 419.677) rotate(27.3324) scale(128.589 92.9224)">
<stop offset="0.302083" stop-color="#FFB800"/>
<stop offset="1" stop-color="#FF7800"/>
</radialGradient>
<linearGradient id="paint2_linear_461_73432" x1="352.686" y1="484.803" x2="443.145" y2="390.584" gradientUnits="userSpaceOnUse">
<stop stop-color="#F2F2F2"/>
<stop offset="0.0001" stop-color="#F2F2F2"/>
<stop offset="0.0520833" stop-color="#F2F2F2" stop-opacity="0.948011"/>
<stop offset="1" stop-color="#F2F2F2" stop-opacity="0"/>
</linearGradient>
</defs>

    
    <g filter="url(#filter0_d_559_36465)">
      <path d="M565.09 331.121C547.808 336.898 528.565 336.607 513.774 334.104C533.609 311.83 559.929 285.107 580.798 270.039C586.506 265.917 591.643 262.789 596.004 260.857C600.51 258.86 603.499 258.453 605.23 258.796C605.977 258.943 606.47 259.224 606.865 259.616C607.291 260.039 607.822 260.816 608.252 262.258C609.152 265.277 609.361 270.379 608.085 278.344C603.143 309.191 585.394 324.335 565.09 331.121Z" stroke="white" stroke-width="10" shape-rendering="crispEdges"/>
    </g>
    <g filter="url(#filter1_d_559_36465)">
      <path d="M549.346 376.704C533.041 368.568 519.64 354.755 510.952 342.527C540.727 340.802 578.234 340.517 603.645 344.619C610.596 345.741 616.44 347.161 620.89 348.879C625.488 350.653 627.889 352.478 628.871 353.945C629.295 354.578 629.445 355.124 629.447 355.681C629.449 356.281 629.276 357.206 628.56 358.53C627.061 361.301 623.602 365.057 617.067 369.787C591.76 388.104 568.501 386.262 549.346 376.704Z" stroke="white" stroke-width="10" shape-rendering="crispEdges"/>
    </g>
    <g filter="url(#filter2_d_559_36465)">
      <path d="M202.773 331.121C220.056 336.898 239.298 336.607 254.089 334.104C234.254 311.83 207.934 285.107 187.065 270.039C181.357 265.917 176.22 262.789 171.859 260.857C167.353 258.86 164.365 258.453 162.634 258.796C161.886 258.943 161.393 259.224 160.999 259.616C160.572 260.039 160.041 260.816 159.611 262.258C158.712 265.277 158.502 270.379 159.778 278.344C164.72 309.191 182.47 324.335 202.773 331.121Z" stroke="white" stroke-width="10" shape-rendering="crispEdges"/>
    </g>
    <g filter="url(#filter3_d_559_36465)">
      <path d="M218.517 376.704C234.822 368.568 248.223 354.755 256.912 342.527C227.137 340.802 189.629 340.517 164.218 344.619C157.267 345.741 151.423 347.161 146.973 348.879C142.375 350.653 139.974 352.478 138.992 353.945C138.568 354.578 138.418 355.124 138.416 355.681C138.414 356.281 138.587 357.206 139.304 358.53C140.802 361.301 144.262 365.057 150.796 369.787C176.103 388.104 199.362 386.262 218.517 376.704Z" stroke="white" stroke-width="10" shape-rendering="crispEdges"/>
    </g>
    <defs>
      <filter id="filter0_d_559_36465" x="497.064" y="246.393" width="124.214" height="101.702" filterUnits="userSpaceOnUse" color-interpolation-filters="sRGB">
        <feFlood flood-opacity="0" result="BackgroundImageFix"/>
        <feColorMatrix in="SourceAlpha" type="matrix" values="0 0 0 0 0 0 0 0 0 0 0 0 0 0 0 0 0 0 127 0" result="hardAlpha"/>
        <feOffset/>
        <feGaussianBlur stdDeviation="3.647"/>
        <feComposite in2="hardAlpha" operator="out"/>
        <feColorMatrix type="matrix" values="0 0 0 0 1 0 0 0 0 1 0 0 0 0 1 0 0 0 1 0"/>
        <feBlend mode="normal" in2="BackgroundImageFix" result="effect1_dropShadow_559_36465"/>
        <feBlend mode="normal" in="SourceGraphic" in2="effect1_dropShadow_559_36465" result="shape"/>
      </filter>
      <filter id="filter1_d_559_36465" x="494.782" y="329.04" width="146.959" height="67.0398" filterUnits="userSpaceOnUse" color-interpolation-filters="sRGB">
        <feFlood flood-opacity="0" result="BackgroundImageFix"/>
        <feColorMatrix in="SourceAlpha" type="matrix" values="0 0 0 0 0 0 0 0 0 0 0 0 0 0 0 0 0 0 127 0" result="hardAlpha"/>
        <feOffset/>
        <feGaussianBlur stdDeviation="3.647"/>
        <feComposite in2="hardAlpha" operator="out"/>
        <feColorMatrix type="matrix" values="0 0 0 0 1 0 0 0 0 1 0 0 0 0 1 0 0 0 1 0"/>
        <feBlend mode="normal" in2="BackgroundImageFix" result="effect1_dropShadow_559_36465"/>
        <feBlend mode="normal" in="SourceGraphic" in2="effect1_dropShadow_559_36465" result="shape"/>
      </filter>
      <filter id="filter2_d_559_36465" x="146.585" y="246.393" width="124.214" height="101.702" filterUnits="userSpaceOnUse" color-interpolation-filters="sRGB">
        <feFlood flood-opacity="0" result="BackgroundImageFix"/>
        <feColorMatrix in="SourceAlpha" type="matrix" values="0 0 0 0 0 0 0 0 0 0 0 0 0 0 0 0 0 0 127 0" result="hardAlpha"/>
        <feOffset/>
        <feGaussianBlur stdDeviation="3.647"/>
        <feComposite in2="hardAlpha" operator="out"/>
        <feColorMatrix type="matrix" values="0 0 0 0 1 0 0 0 0 1 0 0 0 0 1 0 0 0 1 0"/>
        <feBlend mode="normal" in2="BackgroundImageFix" result="effect1_dropShadow_559_36465"/>
        <feBlend mode="normal" in="SourceGraphic" in2="effect1_dropShadow_559_36465" result="shape"/>
      </filter>
      <filter id="filter3_d_559_36465" x="126.122" y="329.04" width="146.959" height="67.0398" filterUnits="userSpaceOnUse" color-interpolation-filters="sRGB">
        <feFlood flood-opacity="0" result="BackgroundImageFix"/>
        <feColorMatrix in="SourceAlpha" type="matrix" values="0 0 0 0 0 0 0 0 0 0 0 0 0 0 0 0 0 0 127 0" result="hardAlpha"/>
        <feOffset/>
        <feGaussianBlur stdDeviation="3.647"/>
        <feComposite in2="hardAlpha" operator="out"/>
        <feColorMatrix type="matrix" values="0 0 0 0 1 0 0 0 0 1 0 0 0 0 1 0 0 0 1 0"/>
        <feBlend mode="normal" in2="BackgroundImageFix" result="effect1_dropShadow_559_36465"/>
        <feBlend mode="normal" in="SourceGraphic" in2="effect1_dropShadow_559_36465" result="shape"/>
      </filter>
    </defs>
    
    </svg>
  