
    <svg width="350" height="350" viewBox="0 0 350 350" fill="none" xmlns="http://www.w3.org/2000/svg">
    
  <g clip-path="url(#clip0_28_498)">
  <rect width="350" height="350" fill="url(#paint0_linear_28_498)"/>
  <g opacity="0.7" filter="url(#filter0_f_28_498)">
  <g style="mix-blend-mode:overlay" opacity="0.5">
  <path d="M299.522 241.661C366.933 257.538 205.269 286.569 149.914 288.477L332.436 288.477C387.491 286.396 403.25 276.859 404.248 272.351L404.248 234.378C388.788 227.096 357.333 212.715 259.128 203.688C128.969 191.724 -28.0034 214.966 25.7398 241.661C67.63 262.468 206.765 219.813 299.522 241.661Z" fill="white"/>
  </g>
  <g style="mix-blend-mode:overlay" opacity="0.5">
  <path fill-rule="evenodd" clip-rule="evenodd" d="M87.0789 282.755C130.964 279.46 211.553 271.311 182.828 265.069C169.685 262.213 142.109 262.214 109.713 262.216C53.605 262.219 -16.9636 262.222 -52.0564 247.383C-108.852 223.365 -64.0251 185.482 73.6141 170.397C75.5326 170.186 77.4624 169.975 79.4025 169.762C216.654 154.726 405.555 134.032 295.034 114.218C260.872 108.093 222.902 112.563 183.636 117.186C112.848 125.519 37.8512 134.348 -26.6232 82.4869L-146.309 82.4869C-61.033 102.254 -68.9589 140.737 -123.868 150.11C-186.598 160.817 -179.188 181.702 -173.892 196.632C-172.241 201.286 -170.795 205.361 -171.743 208.369L-171.743 282.755L87.0789 282.755ZM-26.6232 165.195C-6.27654 153.959 67.6298 147.682 102.04 145.948C130.465 133.984 61.6455 139.186 51.173 142.307C40.7004 145.428 19.7553 138.146 13.771 128.262C7.7867 118.379 -43.0799 119.94 -40.0878 128.262C-37.0956 136.585 -37.0956 145.948 -71.5054 155.312C-105.915 164.675 -52.0564 179.24 -26.6232 165.195Z" fill="white"/>
  </g>
  <g style="mix-blend-mode:overlay" opacity="0.5">
  <path d="M283.065 183.401C220.23 183.401 223.222 165.715 283.065 162.074C341.4 158.524 398.313 152.998 399.759 142.121L399.759 141.267C399.797 141.555 399.797 141.84 399.759 142.121L399.759 195.374C375.615 190.625 328.061 183.401 283.065 183.401Z" fill="white"/>
  </g>
  </g>
  </g>
  <defs>
  <filter id="filter0_f_28_498" x="-186.393" y="73.3724" width="599.755" height="224.219" filterUnits="userSpaceOnUse" color-interpolation-filters="sRGB">
  <feFlood flood-opacity="0" result="BackgroundImageFix"/>
  <feBlend mode="normal" in="SourceGraphic" in2="BackgroundImageFix" result="shape"/>
  <feGaussianBlur stdDeviation="4.55729" result="effect1_foregroundBlur_28_498"/>
  </filter>
  <linearGradient id="paint0_linear_28_498" x1="175" y1="0" x2="175" y2="350" gradientUnits="userSpaceOnUse">
  <stop offset="0.213542" stop-color="#2FA2F5"/>
  <stop offset="1" stop-color="white"/>
  </linearGradient>
  <clipPath id="clip0_28_498">
  <rect width="350" height="350" fill="white"/>
  </clipPath>
  </defs>

    
  <g clip-path="url(#clip0_589_71590)">
  <g style="mix-blend-mode:overlay">
  <path fill-rule="evenodd" clip-rule="evenodd" d="M10.4379 299.782C54.2425 325.073 110.255 310.064 135.546 266.26C160.836 222.455 145.828 166.443 102.023 141.152C58.2186 115.861 2.20598 130.87 -23.0846 174.674C-48.3752 218.479 -33.3666 274.492 10.4379 299.782ZM-9.86541 182.307C9.86998 148.124 52.0544 134.983 87.3131 150.756L50.9372 213.761L-19.1329 232.536C-21.8199 215.821 -18.9898 198.11 -9.86541 182.307ZM64.1566 221.392L100.563 158.335C132.246 180.885 142.166 224.264 122.326 258.628C113.124 274.566 99.0408 285.93 83.0547 291.921L64.1566 221.392ZM68.2994 295.83C53.8483 298.153 38.6526 296.353 24.5887 289.926L53.3631 240.087L68.2994 295.83ZM-15.2237 247.291L40.1438 232.455L11.4 282.241C-1.06459 273.218 -10.1055 260.949 -15.2237 247.291Z" fill="white" fill-opacity="0.25"/>
  </g>
  <g style="mix-blend-mode:overlay">
  <path fill-rule="evenodd" clip-rule="evenodd" d="M345.565 216.307C379.83 196.524 391.57 152.71 371.787 118.446C352.005 84.1811 308.191 72.4411 273.926 92.2239C239.661 112.007 227.921 155.821 247.704 190.085C267.487 224.35 311.301 236.09 345.565 216.307ZM258.044 184.115C242.607 157.377 250.204 123.661 274.679 105.945L303.132 155.228L288.446 210.038C276.072 205.321 265.182 196.477 258.044 184.115ZM313.472 149.258L284.995 99.9336C312.662 87.2904 345.928 97.536 361.447 124.416C368.645 136.883 370.835 150.868 368.641 164.04L313.472 149.258ZM365.518 175.565C361.44 186.263 354.277 195.853 344.423 202.866L321.915 163.881L365.518 175.565ZM299.97 213.161L311.575 169.852L334.059 208.795C323.072 213.71 311.224 215.036 299.97 213.161Z" fill="white" fill-opacity="0.25"/>
  </g>
  <g style="mix-blend-mode:overlay">
  <path fill-rule="evenodd" clip-rule="evenodd" d="M161.393 63.318C185.12 49.619 193.25 19.2788 179.551 -4.4486C165.852 -28.176 135.511 -36.3056 111.784 -22.6066C88.0565 -8.90756 79.9269 21.4326 93.626 45.16C107.325 68.8874 137.665 77.017 161.393 63.318ZM100.786 41.0259C90.0963 22.5103 95.3571 -0.837106 112.305 -13.1052L132.009 21.0224L121.839 58.977C113.27 55.7107 105.729 49.5864 100.786 41.0259ZM139.169 16.8882L119.449 -17.2678C138.608 -26.0229 161.644 -18.928 172.39 -0.314547C177.375 8.31889 178.891 18.0031 177.372 27.1247L139.169 16.8882ZM175.209 35.1051C172.385 42.5132 167.425 49.1538 160.601 54.0105L145.015 27.0146L175.209 35.1051ZM129.819 61.1395L137.855 31.1488L153.425 58.116C145.816 61.5194 137.612 62.4376 129.819 61.1395Z" fill="white" fill-opacity="0.25"/>
  </g>
  </g>
  <defs>
  <clipPath id="clip0_589_71590">
  <rect width="350" height="350" fill="white"/>
  </clipPath>
  </defs>

    
    
  <g filter="url(#filter0_d_680_67751)">
  <path d="M125.512 312.516C125.131 312.311 124.967 311.867 125.103 311.456L138.024 272.347C138.075 272.192 138.084 272.027 138.049 271.868L125.243 212.729C125.087 212.005 125.808 211.381 126.503 211.636C131.736 213.556 149.257 219.177 175 219.177C200.743 219.177 218.264 213.556 223.496 211.636C224.191 211.381 224.913 212.005 224.756 212.729L211.95 271.868C211.916 272.027 211.925 272.192 211.976 272.347L224.897 311.456C225.033 311.867 224.869 312.311 224.487 312.516C220.654 314.575 200.124 324.935 175 324.935C149.876 324.935 129.346 314.575 125.512 312.516Z" fill="#3A4B8C"/>
  <path d="M125.512 312.516C125.131 312.311 124.967 311.867 125.103 311.456L138.024 272.347C138.075 272.192 138.084 272.027 138.049 271.868L125.243 212.729C125.087 212.005 125.808 211.381 126.503 211.636C131.736 213.556 149.257 219.177 175 219.177C200.743 219.177 218.264 213.556 223.496 211.636C224.191 211.381 224.913 212.005 224.756 212.729L211.95 271.868C211.916 272.027 211.925 272.192 211.976 272.347L224.897 311.456C225.033 311.867 224.869 312.311 224.487 312.516C220.654 314.575 200.124 324.935 175 324.935C149.876 324.935 129.346 314.575 125.512 312.516Z" fill="url(#paint0_linear_680_67751)"/>
  </g>
  <g filter="url(#filter1_f_680_67751)">
  <mask id="mask0_680_67751" style="mask-type:alpha" maskUnits="userSpaceOnUse" x="123" y="211" width="102" height="115">
  <path d="M124.149 312.92C123.766 312.716 123.601 312.271 123.738 311.859L136.777 272.592C136.828 272.437 136.837 272.271 136.802 272.111L123.878 212.727C123.721 212.003 124.441 211.379 125.136 211.633C130.397 213.555 148.087 219.21 174.089 219.21C200.091 219.21 217.781 213.555 223.042 211.633C223.737 211.379 224.457 212.003 224.3 212.727L211.375 272.111C211.341 272.271 211.349 272.437 211.401 272.592L224.44 311.859C224.576 312.271 224.411 312.716 224.029 312.92C220.167 314.985 199.446 325.391 174.089 325.391C148.731 325.391 128.011 314.985 124.149 312.92Z" fill="#2D2E32"/>
  <path d="M124.149 312.92C123.766 312.716 123.601 312.271 123.738 311.859L136.777 272.592C136.828 272.437 136.837 272.271 136.802 272.111L123.878 212.727C123.721 212.003 124.441 211.379 125.136 211.633C130.397 213.555 148.087 219.21 174.089 219.21C200.091 219.21 217.781 213.555 223.042 211.633C223.737 211.379 224.457 212.003 224.3 212.727L211.375 272.111C211.341 272.271 211.349 272.437 211.401 272.592L224.44 311.859C224.576 312.271 224.411 312.716 224.029 312.92C220.167 314.985 199.446 325.391 174.089 325.391C148.731 325.391 128.011 314.985 124.149 312.92Z" fill="url(#paint1_linear_680_67751)"/>
  </mask>
  <g mask="url(#mask0_680_67751)">
  <g opacity="0.25" filter="url(#filter2_d_680_67751)">
  <path d="M72.917 273.328C168.029 276.032 230.125 228.043 249.284 203.711H72.917V273.328Z" fill="url(#paint2_linear_680_67751)" fill-opacity="0.55" shape-rendering="crispEdges"/>
  </g>
  <path opacity="0.25" d="M133.955 266.931C133.955 244.08 107.521 196.066 97.7304 174.839C104.257 172.553 120.64 169.353 133.955 174.839C150.598 181.697 156.221 243.968 160.137 262.582C163.27 277.473 139.176 326.692 133.955 347.266H68.3594C118.29 320.814 133.955 284.565 133.955 266.931Z" fill="url(#paint3_radial_680_67751)"/>
  <path opacity="0.25" d="M148.538 271.032C148.538 248.182 122.104 200.168 112.314 178.941C118.841 176.655 135.223 173.454 148.538 178.941C165.182 185.799 170.804 248.069 174.72 266.684C177.853 281.575 153.759 330.794 148.538 351.367H82.9426C132.873 324.915 148.538 288.667 148.538 271.032Z" fill="url(#paint4_radial_680_67751)"/>
  </g>
  </g>
  <path d="M175.438 324.935C200.391 324.935 220.781 314.575 224.588 312.516C224.967 312.311 225.13 311.867 224.995 311.456L212.162 272.347C212.111 272.193 212.103 272.027 212.137 271.868L224.855 212.729C224.996 212.073 224.422 211.5 223.799 211.587C224.208 211.319 224.531 211.098 224.765 210.934C225.053 210.732 225.182 210.382 225.111 210.036L201.398 93.6971C201.344 93.4301 201.176 93.2105 200.953 93.0845L195.58 55.4281C195.576 55.401 195.573 55.3743 195.57 55.3474C195.567 55.3263 195.565 55.3052 195.562 55.2837C195.47 54.6581 194.147 50.1304 175 50.1304L175.438 324.935Z" fill="#161A70" fill-opacity="0.1"/>
  <path d="M154.31 55.4586C154.32 55.3898 154.322 55.3228 154.329 55.2536C154.4 54.5259 155.624 50.1304 174.785 50.1304C194.296 50.1304 195.584 54.6884 195.669 55.2899C195.675 55.334 195.678 55.3772 195.684 55.4213L201.374 93.9919C201.411 94.2413 201.344 94.4919 201.167 94.6711C199.834 96.0182 193.192 101.628 175 101.628C156.808 101.628 150.165 96.0182 148.832 94.6711C148.655 94.4919 148.588 94.2413 148.625 93.9919L154.31 55.4586Z" fill="#3A4B8C"/>
  <path d="M154.31 55.4586C154.32 55.3898 154.322 55.3228 154.329 55.2536C154.4 54.5259 155.624 50.1304 174.785 50.1304C194.296 50.1304 195.584 54.6884 195.669 55.2899C195.675 55.334 195.678 55.3772 195.684 55.4213L201.374 93.9919C201.411 94.2413 201.344 94.4919 201.167 94.6711C199.834 96.0182 193.192 101.628 175 101.628C156.808 101.628 150.165 96.0182 148.832 94.6711C148.655 94.4919 148.588 94.2413 148.625 93.9919L154.31 55.4586Z" fill="url(#paint5_linear_680_67751)"/>
  <defs>
  <filter id="filter0_d_680_67751" x="122.777" y="211.578" width="105.357" height="118.826" filterUnits="userSpaceOnUse" color-interpolation-filters="sRGB">
  <feFlood flood-opacity="0" result="BackgroundImageFix"/>
  <feColorMatrix in="SourceAlpha" type="matrix" values="0 0 0 0 0 0 0 0 0 0 0 0 0 0 0 0 0 0 127 0" result="hardAlpha"/>
  <feOffset dx="0.455729" dy="2.73438"/>
  <feGaussianBlur stdDeviation="1.36719"/>
  <feComposite in2="hardAlpha" operator="out"/>
  <feColorMatrix type="matrix" values="0 0 0 0 0 0 0 0 0 0 0 0 0 0 0 0 0 0 0.25 0"/>
  <feBlend mode="normal" in2="BackgroundImageFix" result="effect1_dropShadow_680_67751"/>
  <feBlend mode="normal" in="SourceGraphic" in2="effect1_dropShadow_680_67751" result="shape"/>
  </filter>
  <filter id="filter1_f_680_67751" x="120.313" y="208.724" width="106.453" height="118.945" filterUnits="userSpaceOnUse" color-interpolation-filters="sRGB">
  <feFlood flood-opacity="0" result="BackgroundImageFix"/>
  <feBlend mode="normal" in="SourceGraphic" in2="BackgroundImageFix" result="shape"/>
  <feGaussianBlur stdDeviation="1.13932" result="effect1_foregroundBlur_680_67751"/>
  </filter>
  <filter id="filter2_d_680_67751" x="71.5498" y="203.255" width="179.102" height="72.4609" filterUnits="userSpaceOnUse" color-interpolation-filters="sRGB">
  <feFlood flood-opacity="0" result="BackgroundImageFix"/>
  <feColorMatrix in="SourceAlpha" type="matrix" values="0 0 0 0 0 0 0 0 0 0 0 0 0 0 0 0 0 0 127 0" result="hardAlpha"/>
  <feOffset dy="0.911458"/>
  <feGaussianBlur stdDeviation="0.683594"/>
  <feComposite in2="hardAlpha" operator="out"/>
  <feColorMatrix type="matrix" values="0 0 0 0 0 0 0 0 0 0 0 0 0 0 0 0 0 0 0.25 0"/>
  <feBlend mode="normal" in2="BackgroundImageFix" result="effect1_dropShadow_680_67751"/>
  <feBlend mode="normal" in="SourceGraphic" in2="effect1_dropShadow_680_67751" result="shape"/>
  </filter>
  <linearGradient id="paint0_linear_680_67751" x1="124.87" y1="211.003" x2="223.704" y2="280.267" gradientUnits="userSpaceOnUse">
  <stop stop-color="#EEEEEE" stop-opacity="0.79"/>
  <stop offset="1" stop-color="white" stop-opacity="0.17"/>
  </linearGradient>
  <linearGradient id="paint1_linear_680_67751" x1="123.503" y1="211.003" x2="241.342" y2="297.28" gradientUnits="userSpaceOnUse">
  <stop stop-color="#C3C3C3"/>
  <stop offset="1" stop-color="#C3C3C3" stop-opacity="0.15"/>
  </linearGradient>
  <linearGradient id="paint2_linear_680_67751" x1="203.504" y1="227.507" x2="112.603" y2="299.167" gradientUnits="userSpaceOnUse">
  <stop stop-color="white" stop-opacity="0"/>
  <stop offset="0.471361" stop-color="white"/>
  <stop offset="1" stop-color="white"/>
  </linearGradient>
  <radialGradient id="paint3_radial_680_67751" cx="0" cy="0" r="1" gradientUnits="userSpaceOnUse" gradientTransform="translate(122.541 265.349) rotate(79.4004) scale(83.3383 37.0268)">
  <stop stop-color="#F2F2F2"/>
  <stop offset="0.0001" stop-color="#F2F2F2"/>
  <stop offset="1" stop-color="#F2F2F2" stop-opacity="0"/>
  </radialGradient>
  <radialGradient id="paint4_radial_680_67751" cx="0" cy="0" r="1" gradientUnits="userSpaceOnUse" gradientTransform="translate(137.124 269.451) rotate(79.4004) scale(83.3383 37.0268)">
  <stop stop-color="#F2F2F2"/>
  <stop offset="0.0001" stop-color="#F2F2F2"/>
  <stop offset="1" stop-color="#F2F2F2" stop-opacity="0"/>
  </radialGradient>
  <linearGradient id="paint5_linear_680_67751" x1="151.708" y1="64.4697" x2="191.062" y2="112.496" gradientUnits="userSpaceOnUse">
  <stop stop-color="#ECECEC" stop-opacity="0.71"/>
  <stop offset="1" stop-color="#C3C3C3" stop-opacity="0.15"/>
  </linearGradient>
  </defs>

    
    <path d="M148.647 94.3351L124.888 210.017C124.817 210.363 124.947 210.714 125.237 210.915C128.356 213.082 146.958 225.128 174.998 225.128C203.038 225.128 221.64 213.082 224.76 210.915C225.05 210.714 225.18 210.363 225.109 210.017L201.35 94.3351C201.316 94.4021 201.271 94.4644 201.216 94.5198C199.881 95.8685 193.226 101.484 174.998 101.484C156.771 101.484 150.116 95.8685 148.78 94.5198C148.725 94.4644 148.681 94.4021 148.647 94.3351Z" fill="#FFFFFF" fill-opacity="0.75"/>;
    
    <!-- Color -->
    <path d="M201.049 94.2304L205.113 114.031C203.523 113.76 201.871 113.447 200.18 113.127C186.038 110.452 169.252 107.276 165.003 123.73C163.148 130.914 165.836 135.212 168.45 139.394C170.975 143.43 173.431 147.358 171.668 153.669C169.523 161.35 157.859 166.325 148.479 162.994C138.57 159.476 139.266 144.903 144.961 137.849C150.656 130.794 151.48 120.031 150.656 112.87C150.259 109.409 148.549 106.935 146.313 105.251L148.649 93.8801C148.683 93.9471 148.727 94.0094 148.782 94.0649C150.117 95.4136 156.772 101.03 175 101.03C192.557 101.03 199.378 95.8189 201.049 94.2304Z" fill="url(#paint0_radial_702_67017)"/>

    <!-- Filter -->
    <mask id="mask0_702_67017" style="mask-type:alpha" maskUnits="userSpaceOnUse" x="140" y="93" width="66" height="72">
      <path d="M201.049 94.2304L205.113 114.031C203.523 113.76 201.871 113.447 200.18 113.127C186.038 110.452 169.252 107.276 165.003 123.73C163.148 130.914 165.836 135.212 168.45 139.394C170.975 143.43 173.431 147.358 171.668 153.669C169.523 161.35 157.859 166.325 148.479 162.994C138.57 159.476 139.266 144.903 144.961 137.849C150.656 130.794 151.48 120.031 150.656 112.87C150.259 109.409 148.549 106.935 146.313 105.251L148.649 93.8801C148.683 93.9471 148.727 94.0094 148.782 94.0649C150.117 95.4136 156.772 101.03 175 101.03C192.557 101.03 199.378 95.8189 201.049 94.2304Z" fill="url(#paint1_radial_702_67017)"/>
    </mask>
    <g mask="url(#mask0_702_67017)">
      <g filter="url(#filter0_f_702_67017)">
        <mask id="mask1_702_67017" style="mask-type:alpha" maskUnits="userSpaceOnUse" x="124" y="94" width="102" height="132">
          <path d="M148.862 95.0637C148.949 94.6399 149.322 94.3357 149.754 94.3357H200.246C200.678 94.3357 201.051 94.6399 201.138 95.0637L224.993 211.158C225.074 211.554 224.888 211.954 224.527 212.137C220.624 214.108 198.375 224.817 175 225.127C151.578 225.438 129.287 214.178 125.45 212.14C125.099 211.954 124.924 211.562 125.004 211.173L148.862 95.0637Z" fill="#577096" fill-opacity="0.75"/>
        </mask>
        <g mask="url(#mask1_702_67017)">
          <g filter="url(#filter1_f_702_67017)">
            <path d="M207.208 76.1064C210.866 110.268 145.941 132.571 113.021 139.453L113.021 76.1064L207.208 76.1064Z" fill="url(#paint2_linear_702_67017)" fill-opacity="0.5"/>
          </g>
          <g filter="url(#filter2_f_702_67017)">
            <path d="M155.407 125.301C156.469 105.018 134.471 86.1828 128.929 66.9985C133.388 65.1973 144.05 70.7896 152.675 76.1247C163.456 82.7936 162.879 109.124 164.625 125.784C166.022 139.112 148.453 223.401 144.015 241.481L131.716 240.837C140.242 214.68 154.587 140.955 155.407 125.301Z" fill="url(#paint3_linear_702_67017)" fill-opacity="0.6"/>
          </g>
        </g>
      </g>
    </g>

    <defs>
      <!-- Color -->
      <radialGradient id="paint0_radial_702_67017" cx="0" cy="0" r="1" gradientUnits="userSpaceOnUse" gradientTransform="translate(155.882 109.102) rotate(53.1177) scale(37.8177 40.2646)">
        <stop offset="0.203125" style="stop-color: #321A93;"/>
        <stop offset="0.890625" style="stop-color: #3603FF;"/>
      </radialGradient>

      <!-- Filter -->
      <filter id="filter0_f_702_67017" x="122.591" y="92.057" width="104.818" height="135.355" filterUnits="userSpaceOnUse" color-interpolation-filters="sRGB">
        <feFlood flood-opacity="0" result="BackgroundImageFix"/>
        <feBlend mode="normal" in="SourceGraphic" in2="BackgroundImageFix" result="shape"/>
        <feGaussianBlur stdDeviation="1.13932" result="effect1_foregroundBlur_702_67017"/>
      </filter>
      <filter id="filter1_f_702_67017" x="112.109" y="75.195" width="96.1589" height="65.1694" filterUnits="userSpaceOnUse" color-interpolation-filters="sRGB">
        <feFlood flood-opacity="0" result="BackgroundImageFix"/>
        <feBlend mode="normal" in="SourceGraphic" in2="BackgroundImageFix" result="shape"/>
        <feGaussianBlur stdDeviation="0.455729" result="effect1_foregroundBlur_702_67017"/>
      </filter>
      <filter id="filter2_f_702_67017" x="128.017" y="65.7426" width="37.5979" height="176.65" filterUnits="userSpaceOnUse" color-interpolation-filters="sRGB">
        <feFlood flood-opacity="0" result="BackgroundImageFix"/>
        <feBlend mode="normal" in="SourceGraphic" in2="BackgroundImageFix" result="shape"/>
        <feGaussianBlur stdDeviation="0.455729" result="effect1_foregroundBlur_702_67017"/>
      </filter>
      <radialGradient id="paint1_radial_702_67017" cx="0" cy="0" r="1" gradientUnits="userSpaceOnUse" gradientTransform="translate(155.882 109.102) rotate(53.1177) scale(37.8177 40.2646)">
        <stop offset="0.203125" stop-color="#71FF30"/>
        <stop offset="0.890625" stop-color="#25BC46"/>
      </radialGradient>
      <linearGradient id="paint2_linear_702_67017" x1="145.215" y1="123.01" x2="155.829" y2="72.2914" gradientUnits="userSpaceOnUse">
        <stop stop-color="white" stop-opacity="0"/>
        <stop offset="0.471361" stop-color="white"/>
        <stop offset="1" stop-color="white"/>
      </linearGradient>
      <linearGradient id="paint3_linear_702_67017" x1="160.729" y1="220.938" x2="201.954" y2="178" gradientUnits="userSpaceOnUse">
        <stop stop-color="#F2F2F2"/>
        <stop offset="0.0001" stop-color="#F2F2F2"/>
        <stop offset="0.0520833" stop-color="#F2F2F2" stop-opacity="0.948011"/>
        <stop offset="1" stop-color="#F2F2F2" stop-opacity="0"/>
      </linearGradient>
    </defs>
  
    
    <!-- Color -->
    <path d="M177.734 130.914C177.734 127.951 179.774 122.048 187.933 122.136C196.091 122.224 198.203 128.025 198.239 130.914C198.312 133.035 197.089 137.629 191.621 139.033C184.786 140.789 177.734 136.839 177.734 130.914Z" fill="url(#paint0_radial_702_67018)"/>

    <defs>
      <!-- Color -->
      <radialGradient id="paint0_radial_702_67018" cx="0" cy="0" r="1" gradientUnits="userSpaceOnUse" gradientTransform="translate(182.539 125.892) rotate(45.8803) scale(10.3998 11.5271)">
        <stop offset="0.203125" style="stop-color: #FF00D6;"/>
        <stop offset="0.890625" style="stop-color: #D700B4;"/>
      </radialGradient>
    </defs>
  
    
    <!-- Color -->
    <path d="M214.052 156.619L218.831 179.91C216.932 182.156 214.118 184.13 210.037 185.164C197.278 188.398 184.115 181.122 184.115 170.207C184.115 164.75 187.922 153.876 203.151 154.038C207.743 154.087 211.309 155.092 214.052 156.619Z" fill="url(#paint0_radial_702_67019)"/>

    <defs>
      <!-- Color -->
      <radialGradient id="paint0_radial_702_67019" cx="0" cy="0" r="1" gradientUnits="userSpaceOnUse" gradientTransform="translate(192.248 160.957) rotate(48.2936) scale(18.4215 20.2932)">
        <stop offset="0.203125" style="stop-color: #F85449;"/>
        <stop offset="0.890625" style="stop-color: #C53434;"/>
      </radialGradient>
    </defs>
  
    
    <!-- Color -->
    <path d="M223.109 211.89C217.522 215.445 199.996 225.13 174.887 225.13C146.901 225.13 128.335 213.098 125.221 210.933C125.032 210.801 124.911 210.606 124.87 210.39C128.808 199.004 144.115 175.86 164.064 181.919C173.943 184.919 180.859 192.452 187.364 199.536C197.438 210.508 206.525 220.404 224.106 210.722C223.783 211.11 223.451 211.499 223.109 211.89Z" fill="url(#paint0_radial_702_67020)"/>

    <!-- Filter -->
    <mask id="mask0_702_67020" style="mask-type:alpha" maskUnits="userSpaceOnUse" x="124" y="180" width="101" height="46">
      <path d="M223.109 211.89C217.522 215.445 199.996 225.13 174.887 225.13C146.901 225.13 128.335 213.098 125.221 210.933C125.032 210.802 124.911 210.606 124.87 210.39C128.808 199.004 144.115 175.86 164.064 181.919C173.943 184.92 180.859 192.452 187.364 199.536C197.438 210.508 206.525 220.405 224.106 210.722C223.783 211.11 223.451 211.499 223.109 211.89Z" fill="url(#paint1_radial_702_67020)"/>
    </mask>
    <g mask="url(#mask0_702_67020)">
      <g filter="url(#filter0_f_702_67020)">
        <mask id="mask1_702_67020" style="mask-type:alpha" maskUnits="userSpaceOnUse" x="124" y="94" width="102" height="132">
          <path d="M148.862 95.0639C148.949 94.6401 149.322 94.3359 149.754 94.3359H200.246C200.678 94.3359 201.051 94.6401 201.138 95.0639L224.993 211.159C225.074 211.555 224.888 211.955 224.527 212.137C220.624 214.109 198.375 224.817 175 225.128C151.578 225.438 129.287 214.178 125.45 212.141C125.099 211.954 124.924 211.562 125.004 211.173L148.862 95.0639Z" fill="#577096" fill-opacity="0.75"/>
        </mask>
        <g mask="url(#mask1_702_67020)">
          <g filter="url(#filter1_f_702_67020)">
            <path d="M155.407 125.301C156.469 105.018 134.471 86.183 128.929 66.9987C133.388 65.1975 144.05 70.7899 152.675 76.125C163.456 82.7938 162.879 109.124 164.625 125.784C166.022 139.112 148.453 223.401 144.015 241.482L131.716 240.837C140.242 214.68 154.587 140.955 155.407 125.301Z" fill="url(#paint2_linear_702_67020)" fill-opacity="0.6"/>
          </g>
        </g>
      </g>
    </g>

    <defs>
      <!-- Color -->
      <radialGradient id="paint0_radial_702_67020" cx="0" cy="0" r="1" gradientUnits="userSpaceOnUse" gradientTransform="translate(148.118 190.514) rotate(28.5454) scale(39.8814 37.1287)">
        <stop offset="0.203125" style="stop-color: #21F6EA;"/>
        <stop offset="0.890625" style="stop-color: #2183F6;"/>
      </radialGradient>

      <!-- Filter -->
      <filter id="filter0_f_702_67020" x="122.591" y="92.0573" width="104.818" height="135.355" filterUnits="userSpaceOnUse" color-interpolation-filters="sRGB">
        <feFlood flood-opacity="0" result="BackgroundImageFix"/>
        <feBlend mode="normal" in="SourceGraphic" in2="BackgroundImageFix" result="shape"/>
        <feGaussianBlur stdDeviation="1.13932" result="effect1_foregroundBlur_702_67020"/>
      </filter>
      <filter id="filter1_f_702_67020" x="128.017" y="65.7428" width="37.5979" height="176.65" filterUnits="userSpaceOnUse" color-interpolation-filters="sRGB">
        <feFlood flood-opacity="0" result="BackgroundImageFix"/>
        <feBlend mode="normal" in="SourceGraphic" in2="BackgroundImageFix" result="shape"/>
        <feGaussianBlur stdDeviation="0.455729" result="effect1_foregroundBlur_702_67020"/>
      </filter>
      <radialGradient id="paint1_radial_702_67020" cx="0" cy="0" r="1" gradientUnits="userSpaceOnUse" gradientTransform="translate(146.218 191.259) rotate(27.3324) scale(58.602 42.3474)">
        <stop offset="0.302083" stop-color="#FFB800"/>
        <stop offset="1" stop-color="#FF7800"/>
      </radialGradient>
      <linearGradient id="paint2_linear_702_67020" x1="160.729" y1="220.939" x2="201.954" y2="178" gradientUnits="userSpaceOnUse">
        <stop stop-color="#F2F2F2"/>
        <stop offset="0.0001" stop-color="#F2F2F2"/>
        <stop offset="0.0520833" stop-color="#F2F2F2" stop-opacity="0.948011"/>
        <stop offset="1" stop-color="#F2F2F2" stop-opacity="0"/>
      </linearGradient>
    </defs>
  
  
    </svg>
  