
    <svg width="350" height="350" viewBox="0 0 350 350" fill="none" xmlns="http://www.w3.org/2000/svg">
    
  <g clip-path="url(#clip0_28_498)">
  <rect width="350" height="350" fill="url(#paint0_linear_28_498)"/>
  <g opacity="0.7" filter="url(#filter0_f_28_498)">
  <g style="mix-blend-mode:overlay" opacity="0.5">
  <path d="M299.522 241.661C366.933 257.538 205.269 286.569 149.914 288.477L332.436 288.477C387.491 286.396 403.25 276.859 404.248 272.351L404.248 234.378C388.788 227.096 357.333 212.715 259.128 203.688C128.969 191.724 -28.0034 214.966 25.7398 241.661C67.63 262.468 206.765 219.813 299.522 241.661Z" fill="white"/>
  </g>
  <g style="mix-blend-mode:overlay" opacity="0.5">
  <path fill-rule="evenodd" clip-rule="evenodd" d="M87.0789 282.755C130.964 279.46 211.553 271.311 182.828 265.069C169.685 262.213 142.109 262.214 109.713 262.216C53.605 262.219 -16.9636 262.222 -52.0564 247.383C-108.852 223.365 -64.0251 185.482 73.6141 170.397C75.5326 170.186 77.4624 169.975 79.4025 169.762C216.654 154.726 405.555 134.032 295.034 114.218C260.872 108.093 222.902 112.563 183.636 117.186C112.848 125.519 37.8512 134.348 -26.6232 82.4869L-146.309 82.4869C-61.033 102.254 -68.9589 140.737 -123.868 150.11C-186.598 160.817 -179.188 181.702 -173.892 196.632C-172.241 201.286 -170.795 205.361 -171.743 208.369L-171.743 282.755L87.0789 282.755ZM-26.6232 165.195C-6.27654 153.959 67.6298 147.682 102.04 145.948C130.465 133.984 61.6455 139.186 51.173 142.307C40.7004 145.428 19.7553 138.146 13.771 128.262C7.7867 118.379 -43.0799 119.94 -40.0878 128.262C-37.0956 136.585 -37.0956 145.948 -71.5054 155.312C-105.915 164.675 -52.0564 179.24 -26.6232 165.195Z" fill="white"/>
  </g>
  <g style="mix-blend-mode:overlay" opacity="0.5">
  <path d="M283.065 183.401C220.23 183.401 223.222 165.715 283.065 162.074C341.4 158.524 398.313 152.998 399.759 142.121L399.759 141.267C399.797 141.555 399.797 141.84 399.759 142.121L399.759 195.374C375.615 190.625 328.061 183.401 283.065 183.401Z" fill="white"/>
  </g>
  </g>
  </g>
  <defs>
  <filter id="filter0_f_28_498" x="-186.393" y="73.3724" width="599.755" height="224.219" filterUnits="userSpaceOnUse" color-interpolation-filters="sRGB">
  <feFlood flood-opacity="0" result="BackgroundImageFix"/>
  <feBlend mode="normal" in="SourceGraphic" in2="BackgroundImageFix" result="shape"/>
  <feGaussianBlur stdDeviation="4.55729" result="effect1_foregroundBlur_28_498"/>
  </filter>
  <linearGradient id="paint0_linear_28_498" x1="175" y1="0" x2="175" y2="350" gradientUnits="userSpaceOnUse">
  <stop offset="0.213542" stop-color="#2FA2F5"/>
  <stop offset="1" stop-color="white"/>
  </linearGradient>
  <clipPath id="clip0_28_498">
  <rect width="350" height="350" fill="white"/>
  </clipPath>
  </defs>

    
  <g clip-path="url(#clip0_625_52580)">
  <g clip-path="url(#clip1_625_52580)">
  <g style="mix-blend-mode:overlay">
  <path fill-rule="evenodd" clip-rule="evenodd" d="M276.2 378.343C323.569 390.154 371.54 361.329 383.349 313.965C395.157 266.599 366.335 218.619 318.969 206.811C271.613 195.002 223.642 223.83 211.839 271.199C200.025 318.56 228.85 366.534 276.2 378.343ZM317.129 257.675C329.376 261.893 338.334 268.218 336.574 279.982C335.3 288.594 330.526 292.763 324.188 294.224C332.891 298.756 337.32 305.704 333.101 317.75C327.865 332.711 315.427 333.974 298.886 330.843L294.871 346.931L285.171 344.514L289.133 328.641C286.618 328.017 284.049 327.354 281.402 326.636L277.426 342.583L267.737 340.165L271.751 324.047C270.846 323.815 269.935 323.577 269.017 323.338C267.639 322.978 266.246 322.615 264.836 322.262L252.213 319.115L257.028 308.011C257.028 308.011 264.176 309.912 264.079 309.771C266.825 310.451 268.044 308.66 268.524 307.467L274.868 282.035C275.106 282.092 275.339 282.15 275.564 282.207C275.676 282.235 275.786 282.262 275.893 282.289C275.506 282.134 275.155 282.035 274.885 281.966L279.41 263.811C279.529 261.75 278.819 259.15 274.89 258.169C275.042 258.067 267.845 256.417 267.845 256.417L270.425 246.057L283.803 249.397L283.792 249.447C285.803 249.947 287.876 250.422 289.986 250.903L293.962 234.972L303.657 237.39L299.761 253.008C302.364 253.602 304.983 254.202 307.533 254.837L311.401 239.321L321.102 241.738L317.129 257.675ZM286.446 315.453C294.361 317.544 311.66 322.113 314.41 311.061C317.228 299.761 300.451 295.997 292.265 294.16C291.35 293.954 290.542 293.773 289.881 293.608L284.555 314.962C285.097 315.097 285.734 315.265 286.446 315.453ZM293.909 284.25C300.509 286.011 314.903 289.853 317.41 279.808C319.971 269.534 305.981 266.436 299.148 264.924C298.379 264.754 297.701 264.604 297.148 264.466L292.318 283.833C292.774 283.947 293.31 284.09 293.909 284.25Z" fill="white" fill-opacity="0.3"/>
  </g>
  </g>
  <g clip-path="url(#clip2_625_52580)">
  <g style="mix-blend-mode:overlay">
  <path fill-rule="evenodd" clip-rule="evenodd" d="M34.2076 141.364C81.5768 153.175 129.548 124.35 141.357 76.9864C153.165 29.62 124.343 -18.3598 76.9766 -30.1683C29.6213 -41.9768 -18.3503 -13.1491 -30.1532 34.2201C-41.9672 81.581 -13.1423 129.555 34.2076 141.364ZM75.1365 20.6954C87.3842 24.9143 96.3414 31.2385 94.5815 43.0027C93.3078 51.6146 88.5336 55.7837 82.1956 57.2453C90.8986 61.7764 95.3274 68.7249 91.1086 80.771C85.8729 95.7319 73.4346 96.9945 56.8933 93.8642L52.8789 109.952L43.1785 107.535L47.1404 91.6622C44.6262 91.0378 42.0568 90.3747 39.41 89.6564L35.4342 105.604L25.7449 103.186L29.7593 87.0676C28.8538 86.8357 27.9426 86.598 27.0249 86.3587C25.6465 85.9993 24.2537 85.636 22.8439 85.2828L10.2204 82.1359L15.036 71.0319C15.036 71.0319 22.1835 72.9328 22.0868 72.7919C24.8331 73.4715 26.0515 71.6812 26.5323 70.4876L32.8758 45.0555C33.114 45.1128 33.3473 45.1713 33.5723 45.2277C33.684 45.2557 33.7936 45.2831 33.9008 45.3097C33.514 45.155 33.1631 45.0555 32.8924 44.9865L37.4179 26.8317C37.5367 24.7706 36.8267 22.1708 32.8979 21.19C33.0499 21.0877 25.8526 19.4383 25.8526 19.4383L28.4331 9.0776L41.8109 12.4179L41.7998 12.4676C43.8112 12.9677 45.8833 13.4429 47.9942 13.9237L51.9699 -2.00699L61.6648 0.41051L57.7691 16.0289C60.3718 16.623 62.9909 17.2225 65.5411 17.858L69.4091 2.34175L79.1095 4.75925L75.1365 20.6954ZM44.4535 78.4742C52.3686 80.5648 69.6676 85.1338 72.4178 74.0821C75.236 62.7821 58.4589 59.0175 50.2724 57.1806C49.3576 56.9753 48.5501 56.7941 47.8892 56.6291L42.5624 77.9833C43.1052 78.1181 43.7414 78.2861 44.4535 78.4742ZM51.9172 47.2708C58.5164 49.0319 72.9109 52.8733 75.4183 42.8287C77.9788 32.5545 63.9884 29.4573 57.1558 27.9448C56.3872 27.7746 55.7092 27.6245 55.1555 27.4865L50.326 46.8542C50.7822 46.9679 51.3175 47.1107 51.9172 47.2708Z" fill="white" fill-opacity="0.3"/>
  </g>
  </g>
  <g clip-path="url(#clip3_625_52580)">
  <g style="mix-blend-mode:overlay">
  <path fill-rule="evenodd" clip-rule="evenodd" d="M261.081 135.707C295.509 144.291 330.375 123.341 338.958 88.9168C347.54 54.4907 326.592 19.6187 292.166 11.0363C257.748 2.45385 222.882 23.4059 214.303 57.8341C205.717 92.2562 226.667 127.124 261.081 135.707ZM290.827 48.0044C299.729 51.0707 306.239 55.6671 304.96 64.2174C304.034 70.4766 300.565 73.5067 295.958 74.569C302.283 77.8622 305.502 82.9124 302.436 91.6676C298.631 102.541 289.591 103.459 277.568 101.184L274.651 112.877L267.6 111.12L270.48 99.5833C268.653 99.1295 266.785 98.6476 264.861 98.1255L261.972 109.716L254.929 107.959L257.847 96.2439C257.189 96.0754 256.527 95.9027 255.86 95.7287C254.858 95.4675 253.846 95.2035 252.821 94.9467L243.646 92.6596L247.146 84.5892C247.146 84.5892 252.341 85.9707 252.271 85.8683C254.267 86.3623 255.152 85.0611 255.502 84.1936L260.112 65.7094C260.285 65.751 260.455 65.7935 260.618 65.8345C260.7 65.8548 260.779 65.8748 260.857 65.8942C260.576 65.7817 260.321 65.7094 260.124 65.6592L263.414 52.4643C263.5 50.9663 262.984 49.0767 260.128 48.3638C260.239 48.2895 255.008 47.0907 255.008 47.0907L256.883 39.5605L266.606 41.9882L266.598 42.0244C268.06 42.3878 269.566 42.7332 271.1 43.0826L273.99 31.5042L281.036 33.2612L278.205 44.6128C280.096 45.0445 282 45.4803 283.854 45.9421L286.665 34.6649L293.715 36.4219L290.827 48.0044ZM268.527 89.9982C274.28 91.5177 286.853 94.8385 288.852 86.8061C290.9 78.5932 278.706 75.8571 272.756 74.522C272.091 74.3728 271.504 74.2411 271.024 74.1212L267.153 89.6414C267.547 89.7394 268.009 89.8615 268.527 89.9982ZM273.952 67.3195C278.748 68.5995 289.21 71.3914 291.032 64.0909C292.893 56.6236 282.725 54.3726 277.759 53.2732C277.2 53.1496 276.708 53.0405 276.305 52.9402L272.795 67.0167C273.127 67.0993 273.516 67.2031 273.952 67.3195Z" fill="white" fill-opacity="0.3"/>
  </g>
  </g>
  <g clip-path="url(#clip4_625_52580)">
  <g style="mix-blend-mode:overlay">
  <path fill-rule="evenodd" clip-rule="evenodd" d="M27.9129 382.244C54.4055 388.85 81.2349 372.728 87.8391 346.239C94.4433 319.748 78.3237 292.914 51.8327 286.31C25.3478 279.705 -1.48158 295.828 -8.0827 322.321C-14.69 348.809 1.43114 375.64 27.9129 382.244ZM50.8032 314.757C57.6531 317.116 62.6626 320.653 61.6783 327.233C60.966 332.049 58.2959 334.381 54.7512 335.198C59.6186 337.732 62.0955 341.618 59.736 348.356C56.8078 356.723 49.8513 357.429 40.6002 355.678L38.355 364.676L32.9298 363.324L35.1456 354.447C33.7394 354.098 32.3024 353.727 30.8221 353.325L28.5985 362.244L23.1795 360.892L25.4247 351.877C24.9183 351.747 24.4087 351.615 23.8955 351.481C23.1246 351.28 22.3456 351.076 21.557 350.879L14.497 349.119L17.1903 342.909C17.1903 342.909 21.1877 343.972 21.1336 343.893C22.6696 344.273 23.351 343.272 23.6199 342.604L27.1677 328.381C27.3008 328.413 27.4311 328.445 27.5568 328.477C27.6194 328.493 27.6809 328.508 27.741 328.523C27.5246 328.436 27.3284 328.381 27.177 328.342L29.708 318.188C29.7744 317.036 29.3773 315.582 27.18 315.033C27.265 314.976 23.2398 314.054 23.2398 314.054L24.683 308.259L32.1649 310.127L32.1587 310.155C33.2836 310.435 34.4425 310.7 35.6231 310.969L37.8466 302.06L43.2687 303.412L41.09 312.147C42.5456 312.479 44.0104 312.814 45.4367 313.17L47.5999 304.492L53.0252 305.844L50.8032 314.757ZM33.6429 347.071C38.0696 348.24 47.7445 350.796 49.2827 344.615C50.8588 338.295 41.4758 336.189 36.8972 335.162C36.3856 335.047 35.934 334.946 35.5643 334.854L32.5852 346.796C32.8887 346.872 33.2446 346.966 33.6429 347.071ZM37.8171 329.62C41.5079 330.605 49.5585 332.753 50.9608 327.135C52.3928 321.389 44.5683 319.657 40.7469 318.811C40.3171 318.716 39.9379 318.632 39.6282 318.555L36.9272 329.387C37.1823 329.45 37.4817 329.53 37.8171 329.62Z" fill="white" fill-opacity="0.3"/>
  </g>
  </g>
  <g clip-path="url(#clip5_625_52580)">
  <g style="mix-blend-mode:overlay">
  <path fill-rule="evenodd" clip-rule="evenodd" d="M84.1189 235.997C101.699 240.38 119.503 229.682 123.886 212.104C128.268 194.525 117.571 176.718 99.9919 172.335C82.4167 167.953 64.6129 178.652 60.2324 196.232C55.8479 213.809 66.5458 231.614 84.1189 235.997ZM99.3083 191.213C103.854 192.779 107.178 195.126 106.525 199.492C106.052 202.688 104.28 204.235 101.928 204.778C105.158 206.459 106.802 209.038 105.236 213.509C103.293 219.062 98.6767 219.53 92.5377 218.368L91.0478 224.339L87.4476 223.442L88.9181 217.551C87.9849 217.319 87.0313 217.073 86.049 216.807L84.5735 222.725L80.9774 221.828L82.4673 215.846C82.1312 215.76 81.793 215.672 81.4524 215.583C80.9409 215.449 80.424 215.315 79.9008 215.183L75.2158 214.016L77.003 209.895C77.003 209.895 79.6557 210.6 79.6198 210.548C80.639 210.8 81.0912 210.135 81.2697 209.693L83.624 200.254C83.7123 200.275 83.7989 200.297 83.8824 200.318C83.9239 200.328 83.9646 200.338 84.0044 200.348C83.8608 200.291 83.7306 200.254 83.6301 200.228L85.3097 193.49C85.3538 192.725 85.0903 191.76 83.6322 191.396C83.6886 191.359 81.0174 190.746 81.0174 190.746L81.9751 186.901L86.9401 188.141L86.936 188.159C87.6825 188.345 88.4515 188.521 89.2349 188.7L90.7104 182.787L94.3085 183.684L92.8627 189.481C93.8286 189.701 94.8007 189.924 95.7472 190.16L97.1827 184.401L100.783 185.298L99.3083 191.213ZM87.9208 212.657C90.8584 213.432 97.2786 215.128 98.2994 211.027C99.3453 206.833 93.1187 205.436 90.0804 204.754C89.7409 204.678 89.4412 204.61 89.1959 204.549L87.219 212.474C87.4204 212.524 87.6565 212.587 87.9208 212.657ZM90.6909 201.076C93.1401 201.73 98.4824 203.155 99.4129 199.427C100.363 195.614 95.1709 194.465 92.6351 193.903C92.3498 193.84 92.0982 193.785 91.8927 193.733L90.1003 200.921C90.2696 200.964 90.4683 201.017 90.6909 201.076Z" fill="white" fill-opacity="0.3"/>
  </g>
  </g>
  </g>
  <defs>
  <clipPath id="clip0_625_52580">
  <rect width="350" height="350" fill="white"/>
  </clipPath>
  <clipPath id="clip1_625_52580">
  <rect width="176.823" height="176.823" fill="white" transform="translate(209.18 204.167)"/>
  </clipPath>
  <clipPath id="clip2_625_52580">
  <rect width="176.823" height="176.823" fill="white" transform="translate(-32.8125 -32.8125)"/>
  </clipPath>
  <clipPath id="clip3_625_52580">
  <rect width="128.516" height="128.516" fill="white" transform="translate(212.37 9.11467)"/>
  </clipPath>
  <clipPath id="clip4_625_52580">
  <rect width="98.8932" height="98.8932" fill="white" transform="translate(-9.57031 284.831)"/>
  </clipPath>
  <clipPath id="clip5_625_52580">
  <rect width="65.625" height="65.625" fill="white" transform="translate(59.2448 171.354)"/>
  </clipPath>
  </defs>
    
    
  <g clip-path="url(#clip0_680_71423)">
  <g filter="url(#filter0_d_680_71423)">
  <path d="M148.427 221.636C148.219 220.751 146.971 220.677 146.647 221.527C136.55 248.09 117.914 274.654 116.8 335.227C116.781 336.264 118.234 336.496 118.57 335.515C132.882 293.71 146.722 277.769 160.913 280.902C161.604 281.054 162.259 280.445 162.097 279.756L148.427 221.636Z" fill="url(#paint0_linear_680_71423)"/>
  <path d="M203.558 221.636C203.766 220.751 205.014 220.677 205.337 221.527C215.435 248.09 234.071 274.654 235.184 335.227C235.203 336.264 233.751 336.496 233.415 335.515C219.103 293.71 205.262 277.769 191.072 280.902C190.381 281.054 189.726 280.445 189.888 279.756L203.558 221.636Z" fill="url(#paint1_linear_680_71423)"/>
  <path d="M126.842 211.154C126.094 210.746 125.165 211.484 125.414 212.299L138.216 254.13C138.221 254.146 138.219 254.143 138.225 254.158C138.408 254.656 154.259 297.585 175.992 297.585C197.726 297.585 213.577 254.656 213.76 254.158C213.766 254.143 213.764 254.146 213.769 254.13L226.571 212.299C226.82 211.484 225.891 210.746 225.143 211.154C219.244 214.371 201.588 222.64 175.992 222.64C150.396 222.64 132.741 214.371 126.842 211.154Z" fill="url(#paint2_linear_680_71423)"/>
  <path d="M175.993 223.319C175.993 222.371 177.237 222.067 177.657 222.917C190.639 249.183 193.084 279.871 193.244 338.858C193.247 339.921 191.937 340.085 191.737 339.041C188.338 321.297 189.489 303.065 176.209 287.114C176.071 286.948 175.993 286.738 175.993 286.522V223.319Z" fill="url(#paint3_linear_680_71423)"/>
  </g>
  <path d="M156.651 61.9395C160.106 48.962 162.892 32.3564 175.778 32.3564C188.664 32.3564 193.179 52.9167 195.334 62.2559C197.32 70.8603 201.666 90.7619 202.337 93.84C202.395 94.1046 202.327 94.3659 202.138 94.5594C200.755 95.9711 194.087 101.627 175.993 101.627C157.844 101.627 151.19 95.9368 149.835 94.5467C149.652 94.3593 149.586 94.1066 149.635 93.8496C150.17 91.0428 153.487 73.8275 156.651 61.9395Z" fill="url(#paint4_linear_680_71423)"/>
  </g>
  <defs>
  <filter id="filter0_d_680_71423" x="114.522" y="211.038" width="123.853" height="134.175" filterUnits="userSpaceOnUse" color-interpolation-filters="sRGB">
  <feFlood flood-opacity="0" result="BackgroundImageFix"/>
  <feColorMatrix in="SourceAlpha" type="matrix" values="0 0 0 0 0 0 0 0 0 0 0 0 0 0 0 0 0 0 127 0" result="hardAlpha"/>
  <feOffset dx="0.455725" dy="2.73435"/>
  <feGaussianBlur stdDeviation="1.36718"/>
  <feComposite in2="hardAlpha" operator="out"/>
  <feColorMatrix type="matrix" values="0 0 0 0 0 0 0 0 0 0 0 0 0 0 0 0 0 0 0.25 0"/>
  <feBlend mode="normal" in2="BackgroundImageFix" result="effect1_dropShadow_680_71423"/>
  <feBlend mode="normal" in="SourceGraphic" in2="effect1_dropShadow_680_71423" result="shape"/>
  </filter>
  <linearGradient id="paint0_linear_680_71423" x1="123.19" y1="234.874" x2="191.362" y2="260.676" gradientUnits="userSpaceOnUse">
  <stop stop-color="#C59651"/>
  <stop offset="0.536458" stop-color="#E0AE0D" stop-opacity="0.98"/>
  <stop offset="1" stop-color="#FFE07B" stop-opacity="0.98"/>
  </linearGradient>
  <linearGradient id="paint1_linear_680_71423" x1="228.795" y1="234.874" x2="160.623" y2="260.676" gradientUnits="userSpaceOnUse">
  <stop stop-color="#C59651"/>
  <stop offset="0.536458" stop-color="#E0AE0D" stop-opacity="0.98"/>
  <stop offset="1" stop-color="#FFE07B" stop-opacity="0.98"/>
  </linearGradient>
  <linearGradient id="paint2_linear_680_71423" x1="175.992" y1="197.329" x2="158.124" y2="308.385" gradientUnits="userSpaceOnUse">
  <stop stop-color="#C59651"/>
  <stop offset="0.366795" stop-color="#FBC412" stop-opacity="0.98"/>
  <stop offset="1" stop-color="#FFF27B" stop-opacity="0.98"/>
  </linearGradient>
  <linearGradient id="paint3_linear_680_71423" x1="190.821" y1="240.337" x2="161.993" y2="244.488" gradientUnits="userSpaceOnUse">
  <stop stop-color="#C59651"/>
  <stop offset="0.536458" stop-color="#E0AE0D" stop-opacity="0.98"/>
  <stop offset="1" stop-color="#FFE07B" stop-opacity="0.98"/>
  </linearGradient>
  <linearGradient id="paint4_linear_680_71423" x1="157.01" y1="43.7168" x2="211.865" y2="87.7013" gradientUnits="userSpaceOnUse">
  <stop stop-color="#C59651"/>
  <stop offset="0.536458" stop-color="#E0AE0D" stop-opacity="0.98"/>
  <stop offset="1" stop-color="#FFF27B" stop-opacity="0.98"/>
  </linearGradient>
  <clipPath id="clip0_680_71423">
  <rect width="349.997" height="349.997" fill="white" transform="translate(0.994141)"/>
  </clipPath>
  </defs>

    
    <path d="M148.647 94.3351L124.888 210.017C124.817 210.363 124.947 210.714 125.237 210.915C128.356 213.082 146.958 225.128 174.998 225.128C203.038 225.128 221.64 213.082 224.76 210.915C225.05 210.714 225.18 210.363 225.109 210.017L201.35 94.3351C201.316 94.4021 201.271 94.4644 201.216 94.5198C199.881 95.8685 193.226 101.484 174.998 101.484C156.771 101.484 150.116 95.8685 148.78 94.5198C148.725 94.4644 148.681 94.4021 148.647 94.3351Z" fill="#000000" fill-opacity="0.75"/>;
    
    <!-- Color -->
    <path d="M201.049 94.2304L205.113 114.031C203.523 113.76 201.871 113.447 200.18 113.127C186.038 110.452 169.252 107.276 165.003 123.73C163.148 130.914 165.836 135.212 168.45 139.394C170.975 143.43 173.431 147.358 171.668 153.669C169.523 161.35 157.859 166.325 148.479 162.994C138.57 159.476 139.266 144.903 144.961 137.849C150.656 130.794 151.48 120.031 150.656 112.87C150.259 109.409 148.549 106.935 146.313 105.251L148.649 93.8801C148.683 93.9471 148.727 94.0094 148.782 94.0649C150.117 95.4136 156.772 101.03 175 101.03C192.557 101.03 199.378 95.8189 201.049 94.2304Z" fill="url(#paint0_radial_702_67017)"/>

    <!-- Filter -->
    <mask id="mask0_702_67017" style="mask-type:alpha" maskUnits="userSpaceOnUse" x="140" y="93" width="66" height="72">
      <path d="M201.049 94.2304L205.113 114.031C203.523 113.76 201.871 113.447 200.18 113.127C186.038 110.452 169.252 107.276 165.003 123.73C163.148 130.914 165.836 135.212 168.45 139.394C170.975 143.43 173.431 147.358 171.668 153.669C169.523 161.35 157.859 166.325 148.479 162.994C138.57 159.476 139.266 144.903 144.961 137.849C150.656 130.794 151.48 120.031 150.656 112.87C150.259 109.409 148.549 106.935 146.313 105.251L148.649 93.8801C148.683 93.9471 148.727 94.0094 148.782 94.0649C150.117 95.4136 156.772 101.03 175 101.03C192.557 101.03 199.378 95.8189 201.049 94.2304Z" fill="url(#paint1_radial_702_67017)"/>
    </mask>
    <g mask="url(#mask0_702_67017)">
      <g filter="url(#filter0_f_702_67017)">
        <mask id="mask1_702_67017" style="mask-type:alpha" maskUnits="userSpaceOnUse" x="124" y="94" width="102" height="132">
          <path d="M148.862 95.0637C148.949 94.6399 149.322 94.3357 149.754 94.3357H200.246C200.678 94.3357 201.051 94.6399 201.138 95.0637L224.993 211.158C225.074 211.554 224.888 211.954 224.527 212.137C220.624 214.108 198.375 224.817 175 225.127C151.578 225.438 129.287 214.178 125.45 212.14C125.099 211.954 124.924 211.562 125.004 211.173L148.862 95.0637Z" fill="#577096" fill-opacity="0.75"/>
        </mask>
        <g mask="url(#mask1_702_67017)">
          <g filter="url(#filter1_f_702_67017)">
            <path d="M207.208 76.1064C210.866 110.268 145.941 132.571 113.021 139.453L113.021 76.1064L207.208 76.1064Z" fill="url(#paint2_linear_702_67017)" fill-opacity="0.5"/>
          </g>
          <g filter="url(#filter2_f_702_67017)">
            <path d="M155.407 125.301C156.469 105.018 134.471 86.1828 128.929 66.9985C133.388 65.1973 144.05 70.7896 152.675 76.1247C163.456 82.7936 162.879 109.124 164.625 125.784C166.022 139.112 148.453 223.401 144.015 241.481L131.716 240.837C140.242 214.68 154.587 140.955 155.407 125.301Z" fill="url(#paint3_linear_702_67017)" fill-opacity="0.6"/>
          </g>
        </g>
      </g>
    </g>

    <defs>
      <!-- Color -->
      <radialGradient id="paint0_radial_702_67017" cx="0" cy="0" r="1" gradientUnits="userSpaceOnUse" gradientTransform="translate(155.882 109.102) rotate(53.1177) scale(37.8177 40.2646)">
        <stop offset="0.203125" style="stop-color: #321A93;"/>
        <stop offset="0.890625" style="stop-color: #3603FF;"/>
      </radialGradient>

      <!-- Filter -->
      <filter id="filter0_f_702_67017" x="122.591" y="92.057" width="104.818" height="135.355" filterUnits="userSpaceOnUse" color-interpolation-filters="sRGB">
        <feFlood flood-opacity="0" result="BackgroundImageFix"/>
        <feBlend mode="normal" in="SourceGraphic" in2="BackgroundImageFix" result="shape"/>
        <feGaussianBlur stdDeviation="1.13932" result="effect1_foregroundBlur_702_67017"/>
      </filter>
      <filter id="filter1_f_702_67017" x="112.109" y="75.195" width="96.1589" height="65.1694" filterUnits="userSpaceOnUse" color-interpolation-filters="sRGB">
        <feFlood flood-opacity="0" result="BackgroundImageFix"/>
        <feBlend mode="normal" in="SourceGraphic" in2="BackgroundImageFix" result="shape"/>
        <feGaussianBlur stdDeviation="0.455729" result="effect1_foregroundBlur_702_67017"/>
      </filter>
      <filter id="filter2_f_702_67017" x="128.017" y="65.7426" width="37.5979" height="176.65" filterUnits="userSpaceOnUse" color-interpolation-filters="sRGB">
        <feFlood flood-opacity="0" result="BackgroundImageFix"/>
        <feBlend mode="normal" in="SourceGraphic" in2="BackgroundImageFix" result="shape"/>
        <feGaussianBlur stdDeviation="0.455729" result="effect1_foregroundBlur_702_67017"/>
      </filter>
      <radialGradient id="paint1_radial_702_67017" cx="0" cy="0" r="1" gradientUnits="userSpaceOnUse" gradientTransform="translate(155.882 109.102) rotate(53.1177) scale(37.8177 40.2646)">
        <stop offset="0.203125" stop-color="#71FF30"/>
        <stop offset="0.890625" stop-color="#25BC46"/>
      </radialGradient>
      <linearGradient id="paint2_linear_702_67017" x1="145.215" y1="123.01" x2="155.829" y2="72.2914" gradientUnits="userSpaceOnUse">
        <stop stop-color="white" stop-opacity="0"/>
        <stop offset="0.471361" stop-color="white"/>
        <stop offset="1" stop-color="white"/>
      </linearGradient>
      <linearGradient id="paint3_linear_702_67017" x1="160.729" y1="220.938" x2="201.954" y2="178" gradientUnits="userSpaceOnUse">
        <stop stop-color="#F2F2F2"/>
        <stop offset="0.0001" stop-color="#F2F2F2"/>
        <stop offset="0.0520833" stop-color="#F2F2F2" stop-opacity="0.948011"/>
        <stop offset="1" stop-color="#F2F2F2" stop-opacity="0"/>
      </linearGradient>
    </defs>
  
    
    <!-- Color -->
    <path d="M177.734 130.914C177.734 127.951 179.774 122.048 187.933 122.136C196.091 122.224 198.203 128.025 198.239 130.914C198.312 133.035 197.089 137.629 191.621 139.033C184.786 140.789 177.734 136.839 177.734 130.914Z" fill="url(#paint0_radial_702_67018)"/>

    <defs>
      <!-- Color -->
      <radialGradient id="paint0_radial_702_67018" cx="0" cy="0" r="1" gradientUnits="userSpaceOnUse" gradientTransform="translate(182.539 125.892) rotate(45.8803) scale(10.3998 11.5271)">
        <stop offset="0.203125" style="stop-color: #71FF30;"/>
        <stop offset="0.890625" style="stop-color: #25BC46;"/>
      </radialGradient>
    </defs>
  
    
    <!-- Color -->
    <path d="M214.052 156.619L218.831 179.91C216.932 182.156 214.118 184.13 210.037 185.164C197.278 188.398 184.115 181.122 184.115 170.207C184.115 164.75 187.922 153.876 203.151 154.038C207.743 154.087 211.309 155.092 214.052 156.619Z" fill="url(#paint0_radial_702_67019)"/>

    <defs>
      <!-- Color -->
      <radialGradient id="paint0_radial_702_67019" cx="0" cy="0" r="1" gradientUnits="userSpaceOnUse" gradientTransform="translate(192.248 160.957) rotate(48.2936) scale(18.4215 20.2932)">
        <stop offset="0.203125" style="stop-color: #FFB800;"/>
        <stop offset="0.890625" style="stop-color: #FF7800;"/>
      </radialGradient>
    </defs>
  
    
    <!-- Color -->
    <path d="M223.109 211.89C217.522 215.445 199.996 225.13 174.887 225.13C146.901 225.13 128.335 213.098 125.221 210.933C125.032 210.801 124.911 210.606 124.87 210.39C128.808 199.004 144.115 175.86 164.064 181.919C173.943 184.919 180.859 192.452 187.364 199.536C197.438 210.508 206.525 220.404 224.106 210.722C223.783 211.11 223.451 211.499 223.109 211.89Z" fill="url(#paint0_radial_702_67020)"/>

    <!-- Filter -->
    <mask id="mask0_702_67020" style="mask-type:alpha" maskUnits="userSpaceOnUse" x="124" y="180" width="101" height="46">
      <path d="M223.109 211.89C217.522 215.445 199.996 225.13 174.887 225.13C146.901 225.13 128.335 213.098 125.221 210.933C125.032 210.802 124.911 210.606 124.87 210.39C128.808 199.004 144.115 175.86 164.064 181.919C173.943 184.92 180.859 192.452 187.364 199.536C197.438 210.508 206.525 220.405 224.106 210.722C223.783 211.11 223.451 211.499 223.109 211.89Z" fill="url(#paint1_radial_702_67020)"/>
    </mask>
    <g mask="url(#mask0_702_67020)">
      <g filter="url(#filter0_f_702_67020)">
        <mask id="mask1_702_67020" style="mask-type:alpha" maskUnits="userSpaceOnUse" x="124" y="94" width="102" height="132">
          <path d="M148.862 95.0639C148.949 94.6401 149.322 94.3359 149.754 94.3359H200.246C200.678 94.3359 201.051 94.6401 201.138 95.0639L224.993 211.159C225.074 211.555 224.888 211.955 224.527 212.137C220.624 214.109 198.375 224.817 175 225.128C151.578 225.438 129.287 214.178 125.45 212.141C125.099 211.954 124.924 211.562 125.004 211.173L148.862 95.0639Z" fill="#577096" fill-opacity="0.75"/>
        </mask>
        <g mask="url(#mask1_702_67020)">
          <g filter="url(#filter1_f_702_67020)">
            <path d="M155.407 125.301C156.469 105.018 134.471 86.183 128.929 66.9987C133.388 65.1975 144.05 70.7899 152.675 76.125C163.456 82.7938 162.879 109.124 164.625 125.784C166.022 139.112 148.453 223.401 144.015 241.482L131.716 240.837C140.242 214.68 154.587 140.955 155.407 125.301Z" fill="url(#paint2_linear_702_67020)" fill-opacity="0.6"/>
          </g>
        </g>
      </g>
    </g>

    <defs>
      <!-- Color -->
      <radialGradient id="paint0_radial_702_67020" cx="0" cy="0" r="1" gradientUnits="userSpaceOnUse" gradientTransform="translate(148.118 190.514) rotate(28.5454) scale(39.8814 37.1287)">
        <stop offset="0.203125" style="stop-color: #5000B6;"/>
        <stop offset="0.890625" style="stop-color: #7E5EFF;"/>
      </radialGradient>

      <!-- Filter -->
      <filter id="filter0_f_702_67020" x="122.591" y="92.0573" width="104.818" height="135.355" filterUnits="userSpaceOnUse" color-interpolation-filters="sRGB">
        <feFlood flood-opacity="0" result="BackgroundImageFix"/>
        <feBlend mode="normal" in="SourceGraphic" in2="BackgroundImageFix" result="shape"/>
        <feGaussianBlur stdDeviation="1.13932" result="effect1_foregroundBlur_702_67020"/>
      </filter>
      <filter id="filter1_f_702_67020" x="128.017" y="65.7428" width="37.5979" height="176.65" filterUnits="userSpaceOnUse" color-interpolation-filters="sRGB">
        <feFlood flood-opacity="0" result="BackgroundImageFix"/>
        <feBlend mode="normal" in="SourceGraphic" in2="BackgroundImageFix" result="shape"/>
        <feGaussianBlur stdDeviation="0.455729" result="effect1_foregroundBlur_702_67020"/>
      </filter>
      <radialGradient id="paint1_radial_702_67020" cx="0" cy="0" r="1" gradientUnits="userSpaceOnUse" gradientTransform="translate(146.218 191.259) rotate(27.3324) scale(58.602 42.3474)">
        <stop offset="0.302083" stop-color="#FFB800"/>
        <stop offset="1" stop-color="#FF7800"/>
      </radialGradient>
      <linearGradient id="paint2_linear_702_67020" x1="160.729" y1="220.939" x2="201.954" y2="178" gradientUnits="userSpaceOnUse">
        <stop stop-color="#F2F2F2"/>
        <stop offset="0.0001" stop-color="#F2F2F2"/>
        <stop offset="0.0520833" stop-color="#F2F2F2" stop-opacity="0.948011"/>
        <stop offset="1" stop-color="#F2F2F2" stop-opacity="0"/>
      </linearGradient>
    </defs>
  
  
    </svg>
  