
    <svg width="768" height="768" viewBox="0 0 768 768" fill="none" xmlns="http://www.w3.org/2000/svg">
    
  <g clip-path="url(#clip0_28_269)">
  <rect width="768" height="768" fill="white"/>
  <rect x="0.174805" y="0.0983887" width="768" height="768" fill="#E9C4E7" fill-opacity="0.78"/>
  <path d="M276.433 637.523L657.918 418.561L945.71 513.198L466.417 645.227L276.433 637.523Z" fill="url(#paint0_linear_28_269)" fill-opacity="0.1"/>
  <g opacity="0.45" filter="url(#filter0_f_28_269)">
  <ellipse rx="427" ry="146.5" transform="matrix(0.999998 0.00221055 0.00221055 -0.999998 386.365 668.462)" fill="url(#paint1_radial_28_269)"/>
  </g>
  <g opacity="0.7" filter="url(#filter1_f_28_269)">
  <ellipse cx="382.675" cy="301.953" rx="431.5" ry="532" transform="rotate(0.126655 382.675 301.953)" fill="url(#paint2_radial_28_269)"/>
  </g>
  </g>
  <defs>
  <filter id="filter0_f_28_269" x="-50.6343" y="511.959" width="873.998" height="313.005" filterUnits="userSpaceOnUse" color-interpolation-filters="sRGB">
  <feFlood flood-opacity="0" result="BackgroundImageFix"/>
  <feBlend mode="normal" in="SourceGraphic" in2="BackgroundImageFix" result="shape"/>
  <feGaussianBlur stdDeviation="5" result="effect1_foregroundBlur_28_269"/>
  </filter>
  <filter id="filter1_f_28_269" x="-58.8256" y="-240.047" width="883.001" height="1084" filterUnits="userSpaceOnUse" color-interpolation-filters="sRGB">
  <feFlood flood-opacity="0" result="BackgroundImageFix"/>
  <feBlend mode="normal" in="SourceGraphic" in2="BackgroundImageFix" result="shape"/>
  <feGaussianBlur stdDeviation="5" result="effect1_foregroundBlur_28_269"/>
  </filter>
  <linearGradient id="paint0_linear_28_269" x1="427.525" y1="596.052" x2="694.574" y2="368.5" gradientUnits="userSpaceOnUse">
  <stop/>
  <stop offset="1" stop-color="#333333" stop-opacity="0"/>
  </linearGradient>
  <radialGradient id="paint1_radial_28_269" cx="0" cy="0" r="1" gradientUnits="userSpaceOnUse" gradientTransform="translate(427 168.135) rotate(99.1226) scale(96.4992 275.026)">
  <stop stop-color="#F221F7" stop-opacity="0.62"/>
  <stop offset="1" stop-color="#D32EE1" stop-opacity="0"/>
  </radialGradient>
  <radialGradient id="paint2_radial_28_269" cx="0" cy="0" r="1" gradientUnits="userSpaceOnUse" gradientTransform="translate(382.675 380.518) rotate(92.5586) scale(346.34 281.204)">
  <stop stop-color="#F221F7" stop-opacity="0.62"/>
  <stop offset="1" stop-color="#D32EE1" stop-opacity="0"/>
  </radialGradient>
  <clipPath id="clip0_28_269">
  <rect width="768" height="768" fill="white"/>
  </clipPath>
  </defs>

    
  <g opacity="0.5" clip-path="url(#clip0_579_26007)">
  <g style="mix-blend-mode:overlay" opacity="0.5">
  <path d="M141.53 174.545C52.9594 115.349 265.37 7.11111 338.101 0H98.2851C25.9473 7.75758 5.24186 43.3131 3.9314 60.1212V201.697C24.2436 228.848 65.5721 282.466 194.604 316.121C365.62 360.727 571.867 274.072 501.254 174.545C446.214 96.9697 263.404 256 141.53 174.545Z" fill="white"/>
  </g>
  <g style="mix-blend-mode:overlay" opacity="0.5">
  <path fill-rule="evenodd" clip-rule="evenodd" d="M420.66 1.93945C362.999 14.2223 257.114 64.0001 294.855 87.2728C312.124 97.9212 348.355 97.9158 390.92 97.9095C464.641 97.8985 557.362 97.8847 603.47 153.212C678.095 242.757 619.196 384 438.351 440.242C435.831 441.026 433.295 441.815 430.746 442.607C250.411 498.667 2.21345 575.823 147.428 649.697C192.313 672.531 242.202 655.866 293.793 638.632C386.802 607.562 485.34 574.645 570.053 768H727.31C615.265 694.303 625.679 550.822 697.824 515.879C780.245 475.959 781.321 398.093 774.361 342.428C772.192 325.076 771.275 309.882 772.521 298.667L788.246 1.93945H420.66ZM570.053 459.636C543.32 501.527 446.214 524.929 401.003 531.394C363.655 576 454.077 556.606 467.837 544.97C481.597 533.333 509.117 560.485 516.979 597.333C524.842 634.182 591.676 628.364 587.745 597.333C583.813 566.303 583.813 531.394 629.024 496.485C674.236 461.576 603.47 407.273 570.053 459.636Z" fill="white"/>
  </g>
  <g style="mix-blend-mode:overlay" opacity="0.5">
  <path d="M163.153 391.757C245.713 391.757 241.781 457.697 163.153 471.272C86.2868 484.544 1.90595 507.546 5.32866e-05 548.433L5.3525e-05 551.272C-0.0439868 550.316 -0.0436258 549.37 5.32866e-05 548.433L3.61204e-05 349.091C31.7228 366.796 104.032 391.757 163.153 391.757Z" fill="white"/>
  </g>
  </g>
  <defs>
  <clipPath id="clip0_579_26007">
  <rect width="768" height="768" fill="white"/>
  </clipPath>
  </defs>

    
<g filter="url(#filter0_d_311_3812)">
<path d="M275.41 685.749C274.574 685.299 274.214 684.326 274.512 683.424L302.864 597.607C302.976 597.268 302.996 596.905 302.92 596.556L274.82 466.787C274.476 465.2 276.06 463.831 277.585 464.39C289.067 468.602 327.513 480.937 384 480.937C440.487 480.937 478.933 468.602 490.415 464.39C491.94 463.831 493.524 465.2 493.18 466.787L465.08 596.556C465.004 596.905 465.024 597.268 465.135 597.607L493.488 683.424C493.786 684.326 493.426 685.299 492.59 685.749C484.178 690.268 439.129 713 384 713C328.871 713 283.822 690.268 275.41 685.749Z" fill="#3A4B8C"/>
<path d="M275.41 685.749C274.574 685.299 274.214 684.326 274.512 683.424L302.864 597.607C302.976 597.268 302.996 596.905 302.92 596.556L274.82 466.787C274.476 465.2 276.06 463.831 277.585 464.39C289.067 468.602 327.513 480.937 384 480.937C440.487 480.937 478.933 468.602 490.415 464.39C491.94 463.831 493.524 465.2 493.18 466.787L465.08 596.556C465.004 596.905 465.024 597.268 465.135 597.607L493.488 683.424C493.786 684.326 493.426 685.299 492.59 685.749C484.178 690.268 439.129 713 384 713C328.871 713 283.822 690.268 275.41 685.749Z" fill="url(#paint0_linear_311_3812)"/>
</g>
<g filter="url(#filter1_f_311_3812)">
<mask id="mask0_311_3812" style="mask-type:alpha" maskUnits="userSpaceOnUse" x="271" y="464" width="222" height="250">
<path d="M272.418 686.637C271.578 686.188 271.216 685.211 271.516 684.307L300.127 598.145C300.24 597.805 300.259 597.44 300.183 597.09L271.823 466.783C271.478 465.196 273.058 463.826 274.584 464.383C286.128 468.6 324.944 481.009 382 481.009C439.056 481.009 477.872 468.6 489.416 464.383C490.942 463.826 492.522 465.196 492.177 466.783L463.817 597.09C463.741 597.44 463.76 597.805 463.873 598.145L492.484 684.307C492.784 685.211 492.422 686.188 491.582 686.637C483.109 691.167 437.642 714 382 714C326.358 714 280.891 691.167 272.418 686.637Z" fill="#2D2E32"/>
<path d="M272.418 686.637C271.578 686.188 271.216 685.211 271.516 684.307L300.127 598.145C300.24 597.805 300.259 597.44 300.183 597.09L271.823 466.783C271.478 465.196 273.058 463.826 274.584 464.383C286.128 468.6 324.944 481.009 382 481.009C439.056 481.009 477.872 468.6 489.416 464.383C490.942 463.826 492.522 465.196 492.177 466.783L463.817 597.09C463.741 597.44 463.76 597.805 463.873 598.145L492.484 684.307C492.784 685.211 492.422 686.188 491.582 686.637C483.109 691.167 437.642 714 382 714C326.358 714 280.891 691.167 272.418 686.637Z" fill="url(#paint1_linear_311_3812)"/>
</mask>
<g mask="url(#mask0_311_3812)">
<g opacity="0.25" filter="url(#filter2_df_311_3812)">
<path d="M160 599.76C368.704 605.692 504.96 500.392 547 447H160V599.76Z" fill="url(#paint2_linear_311_3812)" fill-opacity="0.55" shape-rendering="crispEdges"/>
</g>
<g opacity="0.25" filter="url(#filter3_f_311_3812)">
<path d="M293.935 585.722C293.935 535.582 235.931 430.225 214.448 383.647C228.77 378.631 264.718 371.609 293.935 383.647C330.456 398.695 342.793 535.335 351.386 576.18C358.26 608.856 305.392 716.856 293.935 762H150C259.562 703.957 293.935 624.417 293.935 585.722Z" fill="url(#paint3_radial_311_3812)"/>
</g>
<g opacity="0.25" filter="url(#filter4_f_311_3812)">
<path d="M325.935 594.722C325.935 544.582 267.931 439.225 246.448 392.647C260.77 387.631 296.718 380.609 325.935 392.647C362.456 407.695 374.793 544.335 383.386 585.18C390.26 617.856 337.392 725.856 325.935 771H182C291.562 712.957 325.935 633.417 325.935 594.722Z" fill="url(#paint4_radial_311_3812)"/>
</g>
</g>
</g>
<g filter="url(#filter5_b_311_3812)">
<path d="M326.178 207L274.042 460.841C273.886 461.6 274.171 462.37 274.808 462.812C281.654 467.568 322.472 494 384 494C445.528 494 486.346 467.568 493.192 462.812C493.829 462.37 494.114 461.6 493.958 460.841L441.822 207C441.748 207.147 441.651 207.284 441.53 207.405C438.6 210.365 423.996 222.688 384 222.688C344.004 222.688 329.4 210.365 326.47 207.405C326.349 207.284 326.252 207.147 326.178 207Z" fill="white" fill-opacity="0.75"/>
</g>
<path d="M384.961 713C439.714 713 484.457 690.268 492.811 685.749C493.642 685.299 493.999 684.326 493.703 683.424L465.544 597.607C465.432 597.268 465.413 596.905 465.489 596.556L493.397 466.787C493.706 465.349 492.445 464.091 491.079 464.282C491.976 463.693 492.684 463.208 493.199 462.848C493.83 462.406 494.113 461.637 493.958 460.879L441.925 205.598C441.806 205.012 441.438 204.53 440.947 204.254L429.159 121.625C429.149 121.565 429.143 121.507 429.136 121.448C429.131 121.401 429.125 121.355 429.118 121.308C428.918 119.935 426.015 110 384 110L384.961 713Z" fill="#161A70" fill-opacity="0.1"/>
<path d="M338.6 121.692C338.622 121.541 338.626 121.394 338.641 121.242C338.798 119.645 341.485 110 383.528 110C426.342 110 429.167 120.002 429.353 121.321C429.367 121.418 429.373 121.513 429.388 121.61L441.873 206.245C441.954 206.792 441.808 207.342 441.419 207.735C438.494 210.691 423.919 223 384 223C344.081 223 329.506 210.691 326.581 207.735C326.192 207.342 326.046 206.792 326.127 206.245L338.6 121.692Z" fill="#3A4B8C"/>
<path d="M338.6 121.692C338.622 121.541 338.626 121.394 338.641 121.242C338.798 119.645 341.485 110 383.528 110C426.342 110 429.167 120.002 429.353 121.321C429.367 121.418 429.373 121.513 429.388 121.61L441.873 206.245C441.954 206.792 441.808 207.342 441.419 207.735C438.494 210.691 423.919 223 384 223C344.081 223 329.506 210.691 326.581 207.735C326.192 207.342 326.046 206.792 326.127 206.245L338.6 121.692Z" fill="url(#paint5_linear_311_3812)"/>
<defs>
<filter id="filter0_d_311_3812" x="269.408" y="464.263" width="231.184" height="260.737" filterUnits="userSpaceOnUse" color-interpolation-filters="sRGB">
<feFlood flood-opacity="0" result="BackgroundImageFix"/>
<feColorMatrix in="SourceAlpha" type="matrix" values="0 0 0 0 0 0 0 0 0 0 0 0 0 0 0 0 0 0 127 0" result="hardAlpha"/>
<feOffset dx="1" dy="6"/>
<feGaussianBlur stdDeviation="3"/>
<feComposite in2="hardAlpha" operator="out"/>
<feColorMatrix type="matrix" values="0 0 0 0 0 0 0 0 0 0 0 0 0 0 0 0 0 0 0.25 0"/>
<feBlend mode="normal" in2="BackgroundImageFix" result="effect1_dropShadow_311_3812"/>
<feBlend mode="normal" in="SourceGraphic" in2="effect1_dropShadow_311_3812" result="shape"/>
</filter>
<filter id="filter1_f_311_3812" x="264" y="458" width="233.588" height="261" filterUnits="userSpaceOnUse" color-interpolation-filters="sRGB">
<feFlood flood-opacity="0" result="BackgroundImageFix"/>
<feBlend mode="normal" in="SourceGraphic" in2="BackgroundImageFix" result="shape"/>
<feGaussianBlur stdDeviation="2.5" result="effect1_foregroundBlur_311_3812"/>
</filter>
<filter id="filter2_df_311_3812" x="157" y="445" width="393" height="160" filterUnits="userSpaceOnUse" color-interpolation-filters="sRGB">
<feFlood flood-opacity="0" result="BackgroundImageFix"/>
<feColorMatrix in="SourceAlpha" type="matrix" values="0 0 0 0 0 0 0 0 0 0 0 0 0 0 0 0 0 0 127 0" result="hardAlpha"/>
<feOffset dy="2"/>
<feGaussianBlur stdDeviation="1.5"/>
<feComposite in2="hardAlpha" operator="out"/>
<feColorMatrix type="matrix" values="0 0 0 0 0 0 0 0 0 0 0 0 0 0 0 0 0 0 0.25 0"/>
<feBlend mode="normal" in2="BackgroundImageFix" result="effect1_dropShadow_311_3812"/>
<feBlend mode="normal" in="SourceGraphic" in2="effect1_dropShadow_311_3812" result="shape"/>
<feGaussianBlur stdDeviation="1" result="effect2_foregroundBlur_311_3812"/>
</filter>
<filter id="filter3_f_311_3812" x="149" y="376" width="204" height="387" filterUnits="userSpaceOnUse" color-interpolation-filters="sRGB">
<feFlood flood-opacity="0" result="BackgroundImageFix"/>
<feBlend mode="normal" in="SourceGraphic" in2="BackgroundImageFix" result="shape"/>
<feGaussianBlur stdDeviation="0.5" result="effect1_foregroundBlur_311_3812"/>
</filter>
<filter id="filter4_f_311_3812" x="181" y="385" width="204" height="387" filterUnits="userSpaceOnUse" color-interpolation-filters="sRGB">
<feFlood flood-opacity="0" result="BackgroundImageFix"/>
<feBlend mode="normal" in="SourceGraphic" in2="BackgroundImageFix" result="shape"/>
<feGaussianBlur stdDeviation="0.5" result="effect1_foregroundBlur_311_3812"/>
</filter>
<filter id="filter5_b_311_3812" x="250" y="183" width="268" height="335" filterUnits="userSpaceOnUse" color-interpolation-filters="sRGB">
<feFlood flood-opacity="0" result="BackgroundImageFix"/>
<feGaussianBlur in="BackgroundImage" stdDeviation="12"/>
<feComposite in2="SourceAlpha" operator="in" result="effect1_backgroundBlur_311_3812"/>
<feBlend mode="normal" in="SourceGraphic" in2="effect1_backgroundBlur_311_3812" result="shape"/>
</filter>
<linearGradient id="paint0_linear_311_3812" x1="274" y1="463" x2="490.871" y2="614.985" gradientUnits="userSpaceOnUse">
<stop stop-color="#EEEEEE" stop-opacity="0.79"/>
<stop offset="1" stop-color="white" stop-opacity="0.17"/>
</linearGradient>
<linearGradient id="paint1_linear_311_3812" x1="271" y1="463" x2="529.572" y2="652.318" gradientUnits="userSpaceOnUse">
<stop stop-color="#C3C3C3"/>
<stop offset="1" stop-color="#C3C3C3" stop-opacity="0.15"/>
</linearGradient>
<linearGradient id="paint2_linear_311_3812" x1="446.545" y1="499.214" x2="247.083" y2="656.458" gradientUnits="userSpaceOnUse">
<stop stop-color="white" stop-opacity="0"/>
<stop offset="0.471361" stop-color="white"/>
<stop offset="1" stop-color="white"/>
</linearGradient>
<radialGradient id="paint3_radial_311_3812" cx="0" cy="0" r="1" gradientUnits="userSpaceOnUse" gradientTransform="translate(268.89 582.252) rotate(79.4004) scale(182.868 81.2473)">
<stop stop-color="#F2F2F2"/>
<stop offset="0.0001" stop-color="#F2F2F2"/>
<stop offset="1" stop-color="#F2F2F2" stop-opacity="0"/>
</radialGradient>
<radialGradient id="paint4_radial_311_3812" cx="0" cy="0" r="1" gradientUnits="userSpaceOnUse" gradientTransform="translate(300.89 591.252) rotate(79.4004) scale(182.868 81.2473)">
<stop stop-color="#F2F2F2"/>
<stop offset="0.0001" stop-color="#F2F2F2"/>
<stop offset="1" stop-color="#F2F2F2" stop-opacity="0"/>
</radialGradient>
<linearGradient id="paint5_linear_311_3812" x1="332.891" y1="141.465" x2="419.246" y2="246.847" gradientUnits="userSpaceOnUse">
<stop stop-color="#ECECEC" stop-opacity="0.71"/>
<stop offset="1" stop-color="#C3C3C3" stop-opacity="0.15"/>
</linearGradient>
</defs>

    
<path d="M441.159 206.769L450.076 250.217C446.589 249.622 442.962 248.936 439.252 248.234C408.22 242.363 371.387 235.395 362.064 271.5C357.993 287.264 363.891 296.694 369.628 305.87C375.167 314.727 380.557 323.346 376.689 337.193C371.981 354.047 346.388 364.964 325.805 357.656C304.062 349.936 305.59 317.96 318.087 302.48C330.583 287 332.39 263.382 330.583 247.669C329.71 240.075 325.959 234.645 321.053 230.95L326.178 206C326.252 206.147 326.349 206.284 326.47 206.405C329.4 209.365 344.004 221.688 384 221.688C422.526 221.688 437.492 210.254 441.159 206.769Z" fill="url(#paint0_radial_461_73429)"/>
<mask id="mask0_461_73429" style="mask-type:alpha" maskUnits="userSpaceOnUse" x="309" y="206" width="142" height="154">
<path d="M441.159 206.769L450.076 250.217C446.589 249.622 442.962 248.936 439.252 248.234C408.22 242.363 371.387 235.395 362.064 271.5C357.993 287.264 363.891 296.694 369.628 305.87C375.167 314.727 380.557 323.346 376.689 337.193C371.981 354.047 346.388 364.964 325.805 357.656C304.062 349.936 305.59 317.96 318.087 302.48C330.583 287 332.39 263.382 330.583 247.669C329.71 240.075 325.959 234.645 321.053 230.95L326.178 206C326.252 206.147 326.349 206.284 326.47 206.405C329.4 209.365 344.004 221.688 384 221.688C422.526 221.688 437.492 210.254 441.159 206.769Z" fill="url(#paint1_radial_461_73429)"/>
</mask>
<g mask="url(#mask0_461_73429)">
<g filter="url(#filter0_f_461_73429)">
<mask id="mask1_461_73429" style="mask-type:alpha" maskUnits="userSpaceOnUse" x="274" y="207" width="220" height="288">
<path d="M326.645 208.597C326.836 207.667 327.654 207 328.604 207H439.396C440.346 207 441.164 207.667 441.355 208.597L493.699 463.342C493.877 464.211 493.468 465.089 492.676 465.489C484.111 469.816 435.292 493.314 384 493.994C332.606 494.676 283.694 469.968 275.273 465.497C274.504 465.088 274.119 464.228 274.295 463.375L326.645 208.597Z" fill="#577096" fill-opacity="0.75"/>
</mask>
<g mask="url(#mask1_461_73429)">
<g filter="url(#filter1_f_461_73429)">
<path d="M454.675 167C462.701 241.961 320.236 290.9 248 306L248 167L454.675 167Z" fill="url(#paint2_linear_461_73429)" fill-opacity="0.5"/>
</g>
<g filter="url(#filter2_f_461_73429)">
<path d="M341.008 274.947C343.339 230.439 295.068 189.11 282.906 147.014C292.691 143.062 316.087 155.333 335.012 167.04C358.668 181.673 357.402 239.449 361.234 276.006C364.299 305.252 325.749 490.207 316.009 529.88L289.022 528.466C307.731 471.07 339.209 309.296 341.008 274.947Z" fill="url(#paint3_linear_461_73429)" fill-opacity="0.6"/>
</g>
</g>
</g>
</g>
<defs>
<filter id="filter0_f_461_73429" x="269" y="202" width="230" height="297.008" filterUnits="userSpaceOnUse" color-interpolation-filters="sRGB">
<feFlood flood-opacity="0" result="BackgroundImageFix"/>
<feBlend mode="normal" in="SourceGraphic" in2="BackgroundImageFix" result="shape"/>
<feGaussianBlur stdDeviation="2.5" result="effect1_foregroundBlur_461_73429"/>
</filter>
<filter id="filter1_f_461_73429" x="246" y="165" width="211" height="143" filterUnits="userSpaceOnUse" color-interpolation-filters="sRGB">
<feFlood flood-opacity="0" result="BackgroundImageFix"/>
<feBlend mode="normal" in="SourceGraphic" in2="BackgroundImageFix" result="shape"/>
<feGaussianBlur stdDeviation="1" result="effect1_foregroundBlur_461_73429"/>
</filter>
<filter id="filter2_f_461_73429" x="280.906" y="144.259" width="82.5006" height="387.621" filterUnits="userSpaceOnUse" color-interpolation-filters="sRGB">
<feFlood flood-opacity="0" result="BackgroundImageFix"/>
<feBlend mode="normal" in="SourceGraphic" in2="BackgroundImageFix" result="shape"/>
<feGaussianBlur stdDeviation="1" result="effect1_foregroundBlur_461_73429"/>
</filter>
<radialGradient id="paint0_radial_461_73429" cx="0" cy="0" r="1" gradientUnits="userSpaceOnUse" gradientTransform="translate(342.05 239.4) rotate(53.1177) scale(82.9829 88.352)">
<stop offset="0.203125" style="stop-color: #FFFFFF;"/>
<stop offset="0.890625" style="stop-color: #D0C9C9;"/>
</radialGradient>
<radialGradient id="paint1_radial_461_73429" cx="0" cy="0" r="1" gradientUnits="userSpaceOnUse" gradientTransform="translate(342.05 239.4) rotate(53.1177) scale(82.9829 88.352)">
<stop offset="0.203125" style="stop-color=#FFFFFF;"/>
<stop offset="0.890625" style="stop-color=#D0C9C9;"/>
</radialGradient>
<linearGradient id="paint2_linear_461_73429" x1="318.643" y1="269.919" x2="341.934" y2="158.629" gradientUnits="userSpaceOnUse">
<stop stop-color="white" stop-opacity="0"/>
<stop offset="0.471361" stop-color="white"/>
<stop offset="1" stop-color="white"/>
</linearGradient>
<linearGradient id="paint3_linear_461_73429" x1="352.686" y1="484.803" x2="443.145" y2="390.584" gradientUnits="userSpaceOnUse">
<stop stop-color="#F2F2F2"/>
<stop offset="0.0001" stop-color="#F2F2F2"/>
<stop offset="0.0520833" stop-color="#F2F2F2" stop-opacity="0.948011"/>
<stop offset="1" stop-color="#F2F2F2" stop-opacity="0"/>
</linearGradient>
</defs>

    
<path d="M390 287.263C390 280.762 394.476 267.81 412.378 268.002C430.28 268.195 434.914 280.923 434.993 287.263C435.152 291.917 432.47 301.997 420.472 305.079C405.474 308.931 390 300.264 390 287.263Z" fill="url(#paint0_radial_461_73430)"/>
<defs>
<radialGradient id="paint0_radial_461_73430" cx="0" cy="0" r="1" gradientUnits="userSpaceOnUse" gradientTransform="translate(400.542 276.244) rotate(45.8803) scale(22.82 25.2937)">
<stop offset="0.203125" style="stop-color: #FFB800;"/>
<stop offset="0.890625" style="stop-color: #FF7800;"/>
</radialGradient>
</defs>

    
<path d="M469.69 343.667L480.179 394.773C476.011 399.702 469.836 404.033 460.881 406.303C432.885 413.399 404 397.433 404 373.484C404 361.509 412.354 337.649 445.772 338.004C455.848 338.111 463.672 340.317 469.69 343.667Z" fill="url(#paint0_radial_461_73431)"/>
<defs>
<radialGradient id="paint0_radial_461_73431" cx="0" cy="0" r="1" gradientUnits="userSpaceOnUse" gradientTransform="translate(421.846 353.185) rotate(48.2936) scale(40.4221 44.5291)">
<stop offset="0.203125" style="stop-color: #FABE09;"/>
<stop offset="0.890625" style="stop-color: #FDF21B;"/>
</radialGradient>
</defs>

    
<path d="M489.565 464.947C477.306 472.747 438.848 494 383.752 494C322.343 494 281.604 467.598 274.772 462.848C274.356 462.559 274.09 462.13 274 461.655C282.641 436.672 316.228 385.887 360.003 399.182C381.681 405.766 396.857 422.295 411.13 437.839C433.236 461.915 453.175 483.631 491.752 462.385C491.045 463.235 490.315 464.09 489.565 464.947Z" fill="url(#paint0_radial_461_73432)"/>
<mask id="mask0_461_73432" style="mask-type:alpha" maskUnits="userSpaceOnUse" x="274" y="397" width="218" height="97">
<path d="M489.565 464.947C477.306 472.747 438.848 494 383.752 494C322.343 494 281.604 467.598 274.772 462.848C274.356 462.559 274.09 462.13 274 461.655C282.641 436.672 316.228 385.887 360.003 399.182C381.681 405.766 396.857 422.295 411.13 437.839C433.236 461.915 453.175 483.631 491.752 462.385C491.045 463.235 490.315 464.09 489.565 464.947Z" fill="url(#paint1_radial_461_73432)"/>
</mask>
<g mask="url(#mask0_461_73432)">
<g filter="url(#filter0_f_461_73432)">
<mask id="mask1_461_73432" style="mask-type:alpha" maskUnits="userSpaceOnUse" x="274" y="207" width="220" height="288">
<path d="M326.645 208.597C326.836 207.667 327.654 207 328.604 207H439.396C440.346 207 441.164 207.667 441.355 208.597L493.699 463.342C493.877 464.211 493.468 465.089 492.676 465.489C484.111 469.816 435.292 493.314 384 493.994C332.606 494.676 283.694 469.968 275.273 465.497C274.504 465.088 274.119 464.228 274.295 463.375L326.645 208.597Z" fill="#577096" fill-opacity="0.75"/>
</mask>
<g mask="url(#mask1_461_73432)">
<g filter="url(#filter1_f_461_73432)">
<path d="M341.007 274.947C343.338 230.439 295.068 189.11 282.906 147.014C292.691 143.062 316.087 155.333 335.012 167.04C358.668 181.673 357.402 239.449 361.234 276.006C364.299 305.252 325.749 490.207 316.009 529.88L289.022 528.466C307.731 471.07 339.209 309.296 341.007 274.947Z" fill="url(#paint2_linear_461_73432)" fill-opacity="0.6"/>
</g>
</g>
</g>
</g>
<defs>
<filter id="filter0_f_461_73432" x="269" y="202" width="230" height="297.008" filterUnits="userSpaceOnUse" color-interpolation-filters="sRGB">
<feFlood flood-opacity="0" result="BackgroundImageFix"/>
<feBlend mode="normal" in="SourceGraphic" in2="BackgroundImageFix" result="shape"/>
<feGaussianBlur stdDeviation="2.5" result="effect1_foregroundBlur_461_73432"/>
</filter>
<filter id="filter1_f_461_73432" x="280.906" y="144.259" width="82.5007" height="387.621" filterUnits="userSpaceOnUse" color-interpolation-filters="sRGB">
<feFlood flood-opacity="0" result="BackgroundImageFix"/>
<feBlend mode="normal" in="SourceGraphic" in2="BackgroundImageFix" result="shape"/>
<feGaussianBlur stdDeviation="1" result="effect1_foregroundBlur_461_73432"/>
</filter>
<radialGradient id="paint0_radial_461_73432" cx="0" cy="0" r="1" gradientUnits="userSpaceOnUse" gradientTransform="translate(325.013 418.043) rotate(28.5454) scale(87.5113 81.471)">
<stop offset="0.203125" style="stop-color: #71FF30;"/>
<stop offset="0.890625" style="stop-color: #25BC46;"/>
</radialGradient>
<radialGradient id="paint1_radial_461_73432" cx="0" cy="0" r="1" gradientUnits="userSpaceOnUse" gradientTransform="translate(320.844 419.677) rotate(27.3324) scale(128.589 92.9224)">
<stop offset="0.302083" stop-color="#FFB800"/>
<stop offset="1" stop-color="#FF7800"/>
</radialGradient>
<linearGradient id="paint2_linear_461_73432" x1="352.686" y1="484.803" x2="443.145" y2="390.584" gradientUnits="userSpaceOnUse">
<stop stop-color="#F2F2F2"/>
<stop offset="0.0001" stop-color="#F2F2F2"/>
<stop offset="0.0520833" stop-color="#F2F2F2" stop-opacity="0.948011"/>
<stop offset="1" stop-color="#F2F2F2" stop-opacity="0"/>
</linearGradient>
</defs>

    
    </svg>
  