
    <svg width="350" height="350" viewBox="0 0 350 350" fill="none" xmlns="http://www.w3.org/2000/svg">
    
  <g clip-path="url(#clip0_28_269)">
  <rect width="350" height="350" fill="white"/>
  <rect x="0.0788574" y="0.0444336" width="350" height="350" fill="#E9C4E7" fill-opacity="0.78"/>
  <path d="M125.979 290.538L299.832 190.751L430.987 233.879L212.56 294.049L125.979 290.538Z" fill="url(#paint0_linear_28_269)" fill-opacity="0.1"/>
  <g opacity="0.45" filter="url(#filter0_f_28_269)">
  <ellipse rx="194.596" ry="66.7643" transform="matrix(0.999998 0.00221055 0.00221055 -0.999998 176.078 304.638)" fill="url(#paint1_radial_28_269)"/>
  </g>
  <g opacity="0.7" filter="url(#filter1_f_28_269)">
  <ellipse cx="174.396" cy="137.609" rx="196.647" ry="242.448" transform="rotate(0.126655 174.396 137.609)" fill="url(#paint2_radial_28_269)"/>
  </g>
  </g>
  <defs>
  <filter id="filter0_f_28_269" x="-23.0756" y="233.315" width="398.306" height="142.646" filterUnits="userSpaceOnUse" color-interpolation-filters="sRGB">
  <feFlood flood-opacity="0" result="BackgroundImageFix"/>
  <feBlend mode="normal" in="SourceGraphic" in2="BackgroundImageFix" result="shape"/>
  <feGaussianBlur stdDeviation="2.27865" result="effect1_foregroundBlur_28_269"/>
  </filter>
  <filter id="filter1_f_28_269" x="-26.8085" y="-109.396" width="402.409" height="494.01" filterUnits="userSpaceOnUse" color-interpolation-filters="sRGB">
  <feFlood flood-opacity="0" result="BackgroundImageFix"/>
  <feBlend mode="normal" in="SourceGraphic" in2="BackgroundImageFix" result="shape"/>
  <feGaussianBlur stdDeviation="2.27865" result="effect1_foregroundBlur_28_269"/>
  </filter>
  <linearGradient id="paint0_linear_28_269" x1="194.836" y1="271.638" x2="316.537" y2="167.936" gradientUnits="userSpaceOnUse">
  <stop/>
  <stop offset="1" stop-color="#333333" stop-opacity="0"/>
  </linearGradient>
  <radialGradient id="paint1_radial_28_269" cx="0" cy="0" r="1" gradientUnits="userSpaceOnUse" gradientTransform="translate(194.596 76.624) rotate(99.1226) scale(43.9775 125.337)">
  <stop stop-color="#F221F7" stop-opacity="0.62"/>
  <stop offset="1" stop-color="#D32EE1" stop-opacity="0"/>
  </radialGradient>
  <radialGradient id="paint2_radial_28_269" cx="0" cy="0" r="1" gradientUnits="userSpaceOnUse" gradientTransform="translate(174.396 173.413) rotate(92.5586) scale(157.837 128.153)">
  <stop stop-color="#F221F7" stop-opacity="0.62"/>
  <stop offset="1" stop-color="#D32EE1" stop-opacity="0"/>
  </radialGradient>
  <clipPath id="clip0_28_269">
  <rect width="350" height="350" fill="white"/>
  </clipPath>
  </defs>

    
  <g clip-path="url(#clip0_589_123547)">
  <g style="mix-blend-mode:overlay">
  <path fill-rule="evenodd" clip-rule="evenodd" d="M78.8411 117.851C113.323 117.851 141.276 89.8984 141.276 55.4166C141.276 20.9347 113.323 -7.01834 78.8411 -7.01834C44.3593 -7.01834 16.4062 20.9347 16.4062 55.4166C16.4062 89.8984 44.3593 117.851 78.8411 117.851ZM78.8411 -0.0293641C79.6131 -0.0293641 80.3813 -0.0135894 81.1455 0.0176539C116.331 3.89748 114.168 54.4846 79.0743 54.4846C79.0411 54.4846 79.0081 54.4886 78.9751 54.4966C78.6985 54.4887 78.4208 54.4847 78.1423 54.4847C62.3166 54.4847 49.4874 67.3139 49.4874 83.1395C49.4874 95.1042 56.8204 105.356 67.2372 109.646C42.1859 104.312 23.3952 82.0586 23.3952 55.4166C23.3952 24.7946 48.2192 -0.0293641 78.8411 -0.0293641ZM78.1423 90.8274C82.3881 90.8274 85.8301 87.3854 85.8301 83.1395C85.8301 78.8936 82.3881 75.4516 78.1423 75.4516C73.8963 75.4516 70.4544 78.8936 70.4544 83.1395C70.4544 87.3854 73.8963 90.8274 78.1423 90.8274Z" fill="white" fill-opacity="0.25"/>
  <path d="M85.8301 27.6936C85.8301 31.9395 82.3881 35.3815 78.1423 35.3815C73.8964 35.3815 70.4544 31.9395 70.4544 27.6936C70.4544 23.4477 73.8964 20.0057 78.1423 20.0057C82.3881 20.0057 85.8301 23.4477 85.8301 27.6936Z" fill="white" fill-opacity="0.25"/>
  </g>
  <g style="mix-blend-mode:overlay">
  <path fill-rule="evenodd" clip-rule="evenodd" d="M91.8296 270.521C113.349 270.521 130.794 253.076 130.794 231.556C130.794 210.036 113.349 192.591 91.8296 192.591C70.3099 192.591 52.8647 210.036 52.8647 231.556C52.8647 253.076 70.3099 270.521 91.8296 270.521ZM91.8296 196.953C92.3113 196.953 92.7908 196.963 93.2677 196.982C115.226 199.403 113.877 230.974 91.9751 230.974C91.9544 230.974 91.9338 230.977 91.9132 230.982C91.7405 230.977 91.5673 230.974 91.3934 230.974C81.5168 230.974 73.5103 238.981 73.5103 248.857C73.5103 256.324 78.0867 262.723 84.5877 265.4C68.9535 262.071 57.2265 248.183 57.2265 231.556C57.2265 212.445 72.7188 196.953 91.8296 196.953ZM91.3934 253.655C94.0432 253.655 96.1913 251.507 96.1913 248.857C96.1913 246.208 94.0432 244.06 91.3934 244.06C88.7436 244.06 86.5955 246.208 86.5955 248.857C86.5955 251.507 88.7436 253.655 91.3934 253.655Z" fill="white" fill-opacity="0.25"/>
  <path d="M96.1913 214.254C96.1913 216.904 94.0432 219.052 91.3934 219.052C88.7436 219.052 86.5955 216.904 86.5955 214.254C86.5955 211.605 88.7436 209.456 91.3934 209.456C94.0432 209.456 96.1913 211.605 96.1913 214.254Z" fill="white" fill-opacity="0.25"/>
  </g>
  <g style="mix-blend-mode:overlay">
  <path fill-rule="evenodd" clip-rule="evenodd" d="M255.436 366.68C276.956 366.68 294.401 349.235 294.401 327.715C294.401 306.195 276.956 288.75 255.436 288.75C233.916 288.75 216.471 306.195 216.471 327.715C216.471 349.235 233.916 366.68 255.436 366.68ZM255.436 293.112C255.918 293.112 256.397 293.122 256.874 293.141C278.833 295.562 277.483 327.133 255.582 327.133C255.561 327.133 255.54 327.136 255.52 327.141C255.347 327.136 255.174 327.133 255 327.133C245.123 327.133 237.117 335.14 237.117 345.016C237.117 352.483 241.693 358.882 248.194 361.559C232.56 358.23 220.833 344.342 220.833 327.715C220.833 308.604 236.325 293.112 255.436 293.112ZM255 349.814C257.65 349.814 259.798 347.666 259.798 345.016C259.798 342.367 257.65 340.219 255 340.219C252.35 340.219 250.202 342.367 250.202 345.016C250.202 347.666 252.35 349.814 255 349.814Z" fill="white" fill-opacity="0.25"/>
  <path d="M259.798 310.413C259.798 313.063 257.65 315.211 255 315.211C252.35 315.211 250.202 313.063 250.202 310.413C250.202 307.764 252.35 305.615 255 305.615C257.65 305.615 259.798 307.764 259.798 310.413Z" fill="white" fill-opacity="0.25"/>
  </g>
  <g style="mix-blend-mode:overlay">
  <path fill-rule="evenodd" clip-rule="evenodd" d="M236.751 43.1119C258.271 43.1119 275.716 25.6668 275.716 4.1471C275.716 -17.3726 258.271 -34.8177 236.751 -34.8177C215.232 -34.8177 197.787 -17.3726 197.787 4.1471C197.787 25.6668 215.232 43.1119 236.751 43.1119ZM236.751 -30.456C237.233 -30.456 237.713 -30.4462 238.19 -30.4267C260.148 -28.0053 258.799 3.5655 236.897 3.5655C236.876 3.5655 236.856 3.568 236.835 3.57295C236.662 3.56802 236.489 3.56554 236.315 3.56554C226.439 3.56554 218.432 11.5721 218.432 21.4487C218.432 28.9156 223.009 35.3138 229.51 37.9912C213.875 34.6621 202.148 20.7741 202.148 4.1471C202.148 -14.9637 217.641 -30.456 236.751 -30.456ZM236.315 26.2466C238.965 26.2466 241.113 24.0985 241.113 21.4487C241.113 18.7988 238.965 16.6507 236.315 16.6507C233.665 16.6507 231.517 18.7988 231.517 21.4487C231.517 24.0985 233.665 26.2466 236.315 26.2466Z" fill="white" fill-opacity="0.25"/>
  <path d="M241.113 -13.1545C241.113 -10.5046 238.965 -8.35654 236.315 -8.35654C233.665 -8.35654 231.517 -10.5046 231.517 -13.1545C231.517 -15.8043 233.665 -17.9524 236.315 -17.9524C238.965 -17.9524 241.113 -15.8043 241.113 -13.1545Z" fill="white" fill-opacity="0.25"/>
  </g>
  <g style="mix-blend-mode:overlay">
  <path fill-rule="evenodd" clip-rule="evenodd" d="M289.388 211.732C315.312 211.732 336.328 190.716 336.328 164.792C336.328 138.867 315.312 117.852 289.388 117.852C263.464 117.852 242.448 138.867 242.448 164.792C242.448 190.716 263.464 211.732 289.388 211.732ZM289.388 123.106C289.968 123.106 290.546 123.118 291.12 123.141C317.574 126.058 315.947 164.091 289.563 164.091C289.538 164.091 289.513 164.094 289.489 164.1C289.281 164.094 289.072 164.091 288.862 164.091C276.964 164.091 267.319 173.736 267.319 185.635C267.319 194.63 272.832 202.338 280.664 205.563C261.83 201.552 247.702 184.822 247.702 164.792C247.702 141.769 266.366 123.106 289.388 123.106ZM288.862 191.414C292.055 191.414 294.642 188.827 294.642 185.635C294.642 182.442 292.055 179.855 288.862 179.855C285.67 179.855 283.082 182.442 283.082 185.635C283.082 188.827 285.67 191.414 288.862 191.414Z" fill="white" fill-opacity="0.25"/>
  <path d="M294.642 143.949C294.642 147.141 292.055 149.729 288.862 149.729C285.67 149.729 283.082 147.141 283.082 143.949C283.082 140.757 285.67 138.169 288.862 138.169C292.055 138.169 294.642 140.757 294.642 143.949Z" fill="white" fill-opacity="0.25"/>
  </g>
  </g>
  <defs>
  <clipPath id="clip0_589_123547">
  <rect width="350" height="350" fill="white"/>
  </clipPath>
  </defs>

    
  <g filter="url(#filter0_d_584_56451)">
  <path d="M130.999 154.49C132.151 149.477 130.801 146.279 128.887 145.373C125.474 143.755 122.561 149.427 122.022 153.568C121.484 157.71 122.147 160.537 123.962 161.39C125.777 162.244 129.848 159.504 130.999 154.49Z" fill="#6DF244"/>
  <path d="M100.213 190.945C99.0026 189.835 98.0945 188.541 97.4799 187.155L81.7398 187.434L81.6143 180.363L96.7613 180.094C97.3936 177.146 99.1836 174.424 102.054 172.698L106.118 170.254C108.852 168.61 111.938 168.254 114.743 168.945L121.803 156.199L127.989 159.626L120.765 172.669C121.713 173.789 122.463 175.119 122.938 176.629L127.603 197.103L124.413 212.37L100.213 190.945Z" fill="url(#paint0_radial_584_56451)"/>
  <path d="M75.7939 187.683C70.8262 186.349 68.6346 183.657 68.7311 181.543C68.9033 177.769 75.279 177.856 79.1891 179.323C83.0992 180.789 85.2854 182.7 85.1881 184.704C85.0908 186.707 80.7617 189.017 75.7939 187.683Z" fill="#6DF244"/>
  <path d="M62.564 151.617C60.244 144.392 59.9498 118.89 68.6994 113.629C77.449 108.369 99.0653 121.05 104.936 126.14C110.806 131.231 117.27 136.313 117.037 147.628C116.743 161.869 108.128 171.872 104.793 173.877C101.458 175.882 88.5832 178.8 75.8678 172.381C65.7642 167.281 64.884 158.842 62.564 151.617Z" fill="#6DF244"/>
  <path d="M62.564 151.617C60.244 144.392 59.9498 118.89 68.6994 113.629C77.449 108.369 99.0653 121.05 104.936 126.14C110.806 131.231 117.27 136.313 117.037 147.628C116.743 161.869 108.128 171.872 104.793 173.877C101.458 175.882 88.5832 178.8 75.8678 172.381C65.7642 167.281 64.884 158.842 62.564 151.617Z" fill="url(#paint1_linear_584_56451)" fill-opacity="0.8"/>
  <path d="M76.5187 168.942C69.103 164.997 66.6376 159.91 67.6021 156.579C69.3232 150.637 79.4633 153.115 85.1405 156.882C90.8178 160.65 93.5737 164.494 92.6506 167.646C91.7275 170.798 83.9343 172.887 76.5187 168.942Z" stroke="url(#paint2_linear_584_56451)" stroke-width="0.880654"/>
  <path fill-rule="evenodd" clip-rule="evenodd" d="M103.54 171.793C104.87 171.142 106.676 168.884 105.707 163.641L100.13 166.994L100.13 166.994L95.3228 169.884C99.5 173.2 102.342 172.663 103.54 171.793Z" fill="#57BF37"/>
  <path d="M113.134 146.387C113.192 138.874 110.214 134.818 107.157 134.208C101.702 133.121 99.3093 142.19 99.8586 148.251C100.408 154.311 102.273 158.084 105.171 158.653C108.07 159.222 113.077 153.9 113.134 146.387Z" fill="#070707" stroke="#070707" stroke-width="0.220163"/>
  <path d="M113.469 146.726C113.506 138.3 110.163 133.74 106.744 133.045C100.644 131.806 98.0029 141.968 98.6391 148.767C99.2753 155.565 101.374 159.804 104.615 160.453C107.856 161.101 113.433 155.151 113.469 146.726Z" stroke="url(#paint3_linear_584_56451)" stroke-width="0.880654"/>
  <path d="M113.853 146.494C113.89 138.069 110.548 133.508 107.129 132.814C101.028 131.575 98.3872 141.737 99.0234 148.535C99.6595 155.334 101.758 159.573 104.999 160.221C108.241 160.87 113.817 154.92 113.853 146.494Z" stroke="url(#paint4_linear_584_56451)" stroke-width="0.880654"/>
  <path d="M108.909 137.161C107.645 135.824 106.436 135.631 105.799 136.062C104.662 136.829 105.781 138.852 106.905 139.826C108.029 140.799 108.995 141.138 109.598 140.728C110.2 140.319 110.173 138.498 108.909 137.161Z" fill="url(#paint5_radial_584_56451)"/>
  <path fill-rule="evenodd" clip-rule="evenodd" d="M98.7913 163.896C98.1305 164.19 96.7264 165.199 96.3974 166.881L99.4742 165.031L102.551 163.181C100.911 162.683 99.3612 163.45 98.7913 163.896Z" fill="#57BF37"/>
  <path d="M76.7609 168.257C70.1415 164.759 67.9499 160.23 68.8201 157.259C70.3729 151.959 79.4311 154.142 84.497 157.487C89.5629 160.832 92.0172 164.251 91.1845 167.063C90.3517 169.875 83.3804 171.755 76.7609 168.257Z" fill="#070707" stroke="#070707" stroke-width="0.220163"/>
  <path d="M70.4977 160.255C69.9097 158.512 70.3062 157.354 70.9852 156.993C72.1968 156.349 73.4581 158.286 73.7911 159.735C74.124 161.184 73.9699 162.196 73.3254 162.537C72.681 162.877 71.0858 161.998 70.4977 160.255Z" fill="url(#paint6_radial_584_56451)"/>
  <path d="M76.5187 168.942C69.103 164.997 66.6376 159.91 67.6021 156.579C69.3232 150.637 79.4633 153.115 85.1405 156.882C90.8178 160.65 93.5737 164.494 92.6506 167.646C91.7275 170.798 83.9343 172.887 76.5187 168.942Z" stroke="url(#paint7_linear_584_56451)" stroke-width="0.880654"/>
  <rect width="4.0506" height="27.9009" transform="matrix(0.99987 -0.0160966 0.0193936 0.999812 87.3584 106.92)" fill="#6DF244"/>
  <path d="M95.2877 103.653C95.2926 97.7492 92.9482 94.5458 90.5599 94.0507C86.2983 93.1675 84.4797 100.281 84.9405 105.046C85.4013 109.811 86.8765 112.787 89.1407 113.249C91.4049 113.711 95.2829 109.556 95.2877 103.653Z" fill="#57BF37"/>
  <rect width="4.05059" height="27.9009" transform="matrix(-0.483106 0.875562 0.873962 0.485994 53.9727 126.993)" fill="#6DF244"/>
  <path d="M47.3686 132.466C42.1523 129.701 40.4224 126.129 41.1052 123.787C42.3235 119.609 49.4593 121.339 53.4519 123.98C57.4445 126.622 59.3804 129.32 58.727 131.537C58.0736 133.753 52.5848 135.23 47.3686 132.466Z" fill="#57BF37"/>
  <g filter="url(#filter1_d_584_56451)">
  <circle cx="110.523" cy="181.467" r="4.33642" transform="rotate(-6.77196 110.523 181.467)" fill="url(#paint8_radial_584_56451)" stroke="#56CCF2" stroke-width="0.47927"/>
  <g filter="url(#filter2_d_584_56451)">
  <path d="M114.083 179.006C117.014 178.182 118.279 177.96 118.427 178.383C118.638 178.986 115.662 181.231 110.761 182.947C105.861 184.664 102.543 185.004 102.333 184.402C102.182 183.973 103.246 182.992 106.12 181.786" stroke="#6DF244" stroke-width="0.684672"/>
  </g>
  </g>
  </g>
  <defs>
  <filter id="filter0_d_584_56451" x="38.229" y="93.5201" width="95.9297" height="123.863" filterUnits="userSpaceOnUse" color-interpolation-filters="sRGB">
  <feFlood flood-opacity="0" result="BackgroundImageFix"/>
  <feColorMatrix in="SourceAlpha" type="matrix" values="0 0 0 0 0 0 0 0 0 0 0 0 0 0 0 0 0 0 127 0" result="hardAlpha"/>
  <feOffset dy="2.27865"/>
  <feGaussianBlur stdDeviation="1.36719"/>
  <feComposite in2="hardAlpha" operator="out"/>
  <feColorMatrix type="matrix" values="0 0 0 0 0 0 0 0 0 0 0 0 0 0 0 0 0 0 0.15 0"/>
  <feBlend mode="normal" in2="BackgroundImageFix" result="effect1_dropShadow_584_56451"/>
  <feBlend mode="normal" in="SourceGraphic" in2="effect1_dropShadow_584_56451" result="shape"/>
  </filter>
  <filter id="filter1_d_584_56451" x="101.702" y="176.891" width="17.3514" height="9.70081" filterUnits="userSpaceOnUse" color-interpolation-filters="sRGB">
  <feFlood flood-opacity="0" result="BackgroundImageFix"/>
  <feColorMatrix in="SourceAlpha" type="matrix" values="0 0 0 0 0 0 0 0 0 0 0 0 0 0 0 0 0 0 127 0" result="hardAlpha"/>
  <feOffset dy="0.273869"/>
  <feGaussianBlur stdDeviation="0.136934"/>
  <feComposite in2="hardAlpha" operator="out"/>
  <feColorMatrix type="matrix" values="0 0 0 0 0 0 0 0 0 0 0 0 0 0 0 0 0 0 0.25 0"/>
  <feBlend mode="normal" in2="BackgroundImageFix" result="effect1_dropShadow_584_56451"/>
  <feBlend mode="normal" in="SourceGraphic" in2="effect1_dropShadow_584_56451" result="shape"/>
  </filter>
  <filter id="filter2_d_584_56451" x="101.086" y="176.941" width="18.5839" height="8.96899" filterUnits="userSpaceOnUse" color-interpolation-filters="sRGB">
  <feFlood flood-opacity="0" result="BackgroundImageFix"/>
  <feColorMatrix in="SourceAlpha" type="matrix" values="0 0 0 0 0 0 0 0 0 0 0 0 0 0 0 0 0 0 127 0" result="hardAlpha"/>
  <feOffset/>
  <feGaussianBlur stdDeviation="0.445037"/>
  <feComposite in2="hardAlpha" operator="out"/>
  <feColorMatrix type="matrix" values="0 0 0 0 1 0 0 0 0 1 0 0 0 0 1 0 0 0 1 0"/>
  <feBlend mode="normal" in2="BackgroundImageFix" result="effect1_dropShadow_584_56451"/>
  <feBlend mode="normal" in="SourceGraphic" in2="effect1_dropShadow_584_56451" result="shape"/>
  </filter>
  <radialGradient id="paint0_radial_584_56451" cx="0" cy="0" r="1" gradientUnits="userSpaceOnUse" gradientTransform="translate(105.857 176.821) rotate(61.8214) scale(36.1903 30.5505)">
  <stop offset="0.552083" stop-color="white"/>
  <stop offset="1" stop-color="#CCD0C9"/>
  </radialGradient>
  <linearGradient id="paint1_linear_584_56451" x1="99.1276" y1="164.455" x2="67.1981" y2="113.092" gradientUnits="userSpaceOnUse">
  <stop offset="0.527397" stop-color="#6DF244"/>
  <stop offset="1" stop-color="#388E1D"/>
  </linearGradient>
  <linearGradient id="paint2_linear_584_56451" x1="73.5638" y1="151.548" x2="86.1667" y2="172.509" gradientUnits="userSpaceOnUse">
  <stop stop-color="#6CB835"/>
  <stop offset="0.40625" stop-color="#6CB835" stop-opacity="0"/>
  </linearGradient>
  <linearGradient id="paint3_linear_584_56451" x1="99.4284" y1="135.998" x2="112.031" y2="156.958" gradientUnits="userSpaceOnUse">
  <stop stop-color="#6CB835"/>
  <stop offset="0.40625" stop-color="#6CB835" stop-opacity="0"/>
  </linearGradient>
  <linearGradient id="paint4_linear_584_56451" x1="99.8127" y1="135.766" x2="112.416" y2="156.727" gradientUnits="userSpaceOnUse">
  <stop offset="0.541667" stop-color="#6CB835" stop-opacity="0"/>
  <stop offset="1" stop-color="#6CB835"/>
  </linearGradient>
  <radialGradient id="paint5_radial_584_56451" cx="0" cy="0" r="1" gradientUnits="userSpaceOnUse" gradientTransform="translate(107.665 138.344) rotate(48.0079) scale(2.79886 2.28334)">
  <stop stop-color="white" stop-opacity="0.75"/>
  <stop offset="1" stop-color="white" stop-opacity="0"/>
  <stop offset="1" stop-color="white"/>
  </radialGradient>
  <radialGradient id="paint6_radial_584_56451" cx="0" cy="0" r="1" gradientUnits="userSpaceOnUse" gradientTransform="translate(72.126 159.712) rotate(69.9583) scale(2.79886 2.28334)">
  <stop stop-color="white" stop-opacity="0.75"/>
  <stop offset="1" stop-color="white" stop-opacity="0"/>
  <stop offset="1" stop-color="white"/>
  </radialGradient>
  <linearGradient id="paint7_linear_584_56451" x1="73.5638" y1="151.548" x2="86.1667" y2="172.509" gradientUnits="userSpaceOnUse">
  <stop offset="0.671875" stop-color="#6CB835" stop-opacity="0"/>
  <stop offset="1" stop-color="#6CB835"/>
  </linearGradient>
  <radialGradient id="paint8_radial_584_56451" cx="0" cy="0" r="1" gradientUnits="userSpaceOnUse" gradientTransform="translate(107.916 179.031) rotate(49.243) scale(7.35423 6.44312)">
  <stop offset="0.3125" stop-color="#321A93"/>
  <stop offset="1" stop-color="#3603FF"/>
  <stop offset="1" stop-color="#3603FF"/>
  </radialGradient>
  </defs>
  
    
  <g clip-path="url(#clip0_680_70124)">
  <mask id="mask0_680_70124" style="mask-type:alpha" maskUnits="userSpaceOnUse" x="217" y="77" width="102" height="210">
  <path d="M286.125 141.452L286.15 141.712L286.408 141.752L286.538 141.772L286.025 145.077C285.934 145.663 285.477 146.101 284.904 146.144C283.985 146.214 282.554 146.287 280.643 146.286L280.364 146.286L280.312 146.56L274.16 179.037C274.099 179.359 273.93 179.577 273.695 179.653C273.133 179.834 272.005 180.071 269.928 180.102L269.711 180.105L269.624 180.303C267.404 185.339 266.167 195.414 271.757 209.39C279.967 229.915 284.554 242.082 276.779 258.339C273.717 264.742 266.667 270.662 258.909 275.545C251.338 280.31 243.147 284.055 237.475 286.273L234.166 265.095C237.669 263.922 242.531 261.732 247.125 258.638C251.836 255.466 256.295 251.323 258.702 246.326C263.363 236.644 259.679 228.342 255.922 219.877L255.901 219.829C254.807 217.365 253.707 214.887 252.791 212.341C251.363 208.377 250.487 202.434 250.188 196.359L250.179 196.171L250.015 196.08C249.158 195.605 248.078 195.303 246.738 195.303H229.27V195.303L229.26 195.303C228.618 195.321 227.883 195.742 227.183 196.33C226.467 196.931 225.729 197.757 225.074 198.686C224.42 199.616 223.842 200.66 223.454 201.701C223.328 202.04 223.22 202.381 223.137 202.719L218.352 184.344C219.024 184.634 220.002 184.961 221.209 185.244C222.942 185.652 225.174 185.977 227.705 185.977H244.652H244.664L244.675 185.976C245.923 185.892 248.452 185.5 250.224 184.55L250.384 184.465L250.401 184.285C250.658 181.568 251.068 179.169 251.627 177.329L251.715 177.042L251.439 176.922C249.576 176.112 248.573 175.351 248.094 174.911C247.898 174.731 247.809 174.45 247.84 174.13L251.022 141.952L251.048 141.682L250.79 141.599C249.141 141.063 247.887 140.593 247.065 140.266C246.523 140.05 246.213 139.486 246.305 138.893L246.815 135.606L246.922 135.622L247.57 135.723L247.274 135.138C247.268 135.126 247.265 135.117 247.264 135.112C247.263 135.111 247.263 135.11 247.263 135.109C247.268 135.101 247.282 135.082 247.318 135.055C247.384 135.005 247.497 134.948 247.672 134.891C248.021 134.777 248.543 134.69 249.231 134.635C250.602 134.525 252.557 134.551 254.931 134.71L255.048 134.717L255.144 134.651C255.835 134.175 256.632 133.159 257.393 131.571C258.159 129.974 258.903 127.765 259.47 124.865C260.895 117.569 261.736 111.361 260.552 105.141C260.438 104.542 260.124 103.683 259.698 102.66C259.27 101.63 258.717 100.405 258.113 99.066L258.111 99.0622C256.628 95.7771 254.83 91.7907 253.722 88.1637C253.169 86.3503 252.793 84.6426 252.712 83.1681C252.631 81.6879 252.849 80.488 253.434 79.6474C253.617 79.3845 253.931 79.1358 254.395 78.913C254.857 78.6911 255.447 78.5043 256.154 78.3541C257.57 78.0538 259.413 77.9082 261.548 77.8972C265.814 77.8752 271.189 78.3909 276.506 79.2402C281.823 80.0895 287.066 81.27 291.068 82.5723C293.071 83.224 294.75 83.9022 295.97 84.5787C296.58 84.9171 297.065 85.2495 297.416 85.5706C297.77 85.8946 297.964 86.1864 298.035 86.4394C298.249 87.2069 298.136 88.0911 297.734 89.0882C297.333 90.085 296.654 91.1666 295.78 92.309C294.031 94.5952 291.546 97.0667 289.076 99.5229L289.054 99.5454C286.287 102.296 283.533 105.035 281.942 107.422C280.83 109.09 279.963 111.174 279.298 113.41L279.142 113.934L279.68 113.838C280.966 113.608 283.491 113.629 286.831 113.894C290.157 114.158 294.256 114.662 298.67 115.382C304.119 116.271 309.008 117.319 312.504 118.295C314.255 118.784 315.645 119.251 316.58 119.666C317.05 119.875 317.387 120.063 317.595 120.224C317.7 120.305 317.756 120.367 317.783 120.409C317.784 120.409 317.784 120.409 317.784 120.41L317.343 120.86L317.99 120.961L318.17 120.989L317.657 124.294C317.566 124.88 317.108 125.318 316.536 125.361C313.994 125.552 307.539 125.779 297.856 124.355C288.009 122.907 281.259 120.502 278.696 119.483C278.62 119.452 278.549 119.415 278.483 119.373L278.043 119.088L277.967 119.607C277.521 122.67 277.36 125.634 277.407 127.922C277.444 129.773 277.807 132.109 278.247 134.146C278.468 135.167 278.708 136.117 278.94 136.901C279.17 137.678 279.396 138.311 279.59 138.684L279.658 138.814L279.8 138.853C281.784 139.397 283.391 139.93 284.506 140.415C285.065 140.658 285.486 140.883 285.767 141.083C285.907 141.183 286.001 141.27 286.06 141.341C286.119 141.413 286.124 141.449 286.125 141.452ZM247.26 135.114C247.26 135.114 247.26 135.113 247.261 135.112L247.26 135.114Z" fill="#C4C4C4" stroke="black" stroke-width="0.673831"/>
  </mask>
  <g mask="url(#mask0_680_70124)">
  <rect x="318.098" y="289.929" width="135.807" height="226.497" rx="2" transform="rotate(-180 318.098 289.929)" fill="url(#paint0_linear_680_70124)"/>
  <g opacity="0.5">
  <g style="mix-blend-mode:overlay" opacity="0.5">
  <path d="M299.567 222.6C243.287 184.475 378.256 114.766 424.471 110.187H272.088C226.123 115.183 212.967 138.082 212.134 148.907V240.087C225.041 257.573 251.301 292.105 333.291 313.78C441.957 342.508 573.01 286.699 528.141 222.6C493.168 172.639 377.007 275.06 299.567 222.6Z" fill="white"/>
  </g>
  <g style="mix-blend-mode:overlay" opacity="0.5">
  <path fill-rule="evenodd" clip-rule="evenodd" d="M476.93 123.926C440.292 131.837 373.01 151.405 396.992 166.393C407.964 173.251 430.986 173.248 458.033 173.244C504.877 173.237 563.793 173.228 593.091 208.861C640.508 266.531 603.083 357.496 488.172 393.718C486.57 394.223 484.959 394.731 483.339 395.241C368.751 431.346 211.042 481.037 303.314 528.615C331.834 543.321 363.535 532.587 396.317 521.488C455.416 501.478 518.029 480.279 571.857 604.806H671.78C600.585 557.343 607.202 464.936 653.045 442.431C705.416 416.721 699.23 366.572 694.808 330.723C693.43 319.547 692.223 309.761 693.014 302.539V123.926H476.93ZM571.857 406.209C554.87 433.188 493.168 448.26 464.44 452.423C440.708 481.151 498.164 468.661 506.907 461.167C515.65 453.672 533.137 471.159 538.133 494.891C543.129 518.622 585.597 514.875 583.099 494.891C580.6 474.906 580.6 452.423 609.328 429.941C638.056 407.458 593.091 372.485 571.857 406.209Z" fill="white"/>
  </g>
  </g>
  <g opacity="0.6">
  <circle cx="231.232" cy="194.507" r="1.16688" fill="white"/>
  <circle cx="296.707" cy="274.818" r="1.16688" transform="rotate(75 296.707 274.818)" fill="white"/>
  <circle cx="225.164" cy="155.923" r="1.16688" fill="white"/>
  <circle cx="233.851" cy="177.882" r="1.16688" transform="rotate(75 233.851 177.882)" fill="white"/>
  <circle cx="234.762" cy="242.611" r="1.16688" transform="rotate(75 234.762 242.611)" fill="white"/>
  <circle cx="240.946" cy="226.619" r="1.16688" transform="rotate(75 240.946 226.619)" fill="white"/>
  <circle cx="219.095" cy="250.984" r="1.16688" fill="white"/>
  <circle cx="226.297" cy="268.31" r="1.16688" fill="white"/>
  <circle cx="239.013" cy="277.713" r="1.16688" transform="rotate(75 239.013 277.713)" fill="white"/>
  <circle cx="283.812" cy="219.482" r="1.16688" transform="rotate(75 283.812 219.482)" fill="white"/>
  <circle cx="236.323" cy="117.464" r="1.16688" fill="white"/>
  <circle cx="248.172" cy="87.3854" r="1.16688" fill="white"/>
  <circle cx="300.58" cy="85.1067" r="1.16688" fill="white"/>
  <circle cx="302.86" cy="117.008" r="1.16688" fill="white"/>
  <circle cx="257.287" cy="147.997" r="1.16688" fill="white"/>
  <circle cx="290.099" cy="147.997" r="1.16688" fill="white"/>
  <circle cx="274.604" cy="172.607" r="1.16688" fill="white"/>
  <circle cx="252.825" cy="188.106" r="1.16688" transform="rotate(75 252.825 188.106)" fill="white"/>
  <circle cx="311.781" cy="283.156" r="1.16688" transform="rotate(75 311.781 283.156)" fill="white"/>
  <circle cx="260.738" cy="285.89" r="1.16688" transform="rotate(75 260.738 285.89)" fill="white"/>
  <circle cx="259.827" cy="260.369" r="1.16688" transform="rotate(75 259.827 260.369)" fill="white"/>
  <circle cx="249.62" cy="206.2" r="1.16688" transform="rotate(75 249.62 206.2)" fill="white"/>
  <circle cx="268.571" cy="206.487" r="1.16688" fill="white"/>
  <circle cx="297.823" cy="263.622" r="1.16688" transform="rotate(165 297.823 263.622)" fill="white"/>
  <circle cx="246.634" cy="249.117" r="1.16688" fill="white"/>
  <circle cx="300.21" cy="248.486" r="1.16688" transform="rotate(165 300.21 248.486)" fill="white"/>
  <circle cx="272.46" cy="234.803" r="1.16688" fill="white"/>
  <circle cx="278.968" cy="268.997" r="1.16688" transform="rotate(165 278.968 268.997)" fill="white"/>
  <path d="M255.6 239.721L255.18 238.585L254.044 238.165L255.18 237.745L255.6 236.609L256.02 237.745L257.156 238.165L256.02 238.585L255.6 239.721Z" fill="#FFF7B0"/>
  <path d="M220.509 144.473L220.088 143.338L218.953 142.918L220.088 142.497L220.509 141.362L220.929 142.497L222.064 142.918L220.929 143.338L220.509 144.473Z" fill="#FFF7B0"/>
  <path d="M257.933 278.15L257.513 277.014L256.377 276.594L257.513 276.174L257.933 275.038L258.354 276.174L259.489 276.594L258.354 277.014L257.933 278.15Z" fill="#FFF7B0"/>
  <path d="M222.842 182.903L222.422 181.767L221.287 181.347L222.422 180.927L222.842 179.791L223.263 180.927L224.398 181.347L223.263 181.767L222.842 182.903Z" fill="#FFF7B0"/>
  <path d="M220.509 221.332L220.088 220.196L218.953 219.776L220.088 219.356L220.509 218.22L220.929 219.356L222.064 219.776L220.929 220.196L220.509 221.332Z" fill="#FFF7B0"/>
  <path d="M257.931 222.914L257.196 220.927L255.208 220.191L257.196 219.456L257.931 217.469L258.666 219.456L260.654 220.191L258.666 220.927L257.931 222.914Z" fill="#FFF7B0"/>
  <path d="M265.222 119.919L264.486 117.932L262.499 117.196L264.486 116.461L265.222 114.474L265.957 116.461L267.944 117.196L265.957 117.932L265.222 119.919Z" fill="#FFF7B0"/>
  <path d="M281.641 102.169L280.04 97.8447L275.716 96.2445L280.04 94.6444L281.641 90.32L283.241 94.6444L287.565 96.2445L283.241 97.8447L281.641 102.169Z" fill="#FFF7B0"/>
  </g>
  </g>
  <g filter="url(#filter0_d_680_70124)">
  <mask id="mask1_680_70124" style="mask-type:alpha" maskUnits="userSpaceOnUse" x="112" y="212" width="128" height="104">
  <path d="M205.982 315.45H176.559H145.384C122.516 315.45 108.299 292.998 113.716 269.712L115.607 261.585L125.528 212.455C136.098 221.295 153.514 225.872 176.559 225.872C199.603 225.872 211.686 220.431 224.674 212.455L235.757 261.585L237.648 269.703C243.071 292.991 228.854 315.45 205.982 315.45Z" fill="url(#paint1_radial_680_70124)" stroke="black" stroke-width="0.455729"/>
  </mask>
  <g mask="url(#mask1_680_70124)">
  <rect x="274.366" y="370.594" width="166.797" height="166.797" rx="0.911458" transform="rotate(-180 274.366 370.594)" fill="url(#paint2_linear_680_70124)"/>
  <g style="mix-blend-mode:overlay" filter="url(#filter1_f_680_70124)">
  <ellipse cx="263.736" cy="247.069" rx="273.297" ry="336.951" transform="rotate(0.126655 263.736 247.069)" fill="url(#paint3_radial_680_70124)"/>
  </g>
  <g opacity="0.5">
  <g style="mix-blend-mode:overlay" opacity="0.5">
  <path d="M141.261 210.18C115.613 192.805 177.122 161.037 198.183 158.95H128.738C107.79 161.227 101.795 171.662 101.415 176.596V218.149C107.297 226.118 119.265 241.855 156.63 251.733C206.152 264.825 265.877 239.391 245.429 210.18C229.491 187.411 176.553 234.087 141.261 210.18Z" fill="white"/>
  </g>
  <g style="mix-blend-mode:overlay" opacity="0.5">
  <path fill-rule="evenodd" clip-rule="evenodd" d="M222.091 165.211C205.394 168.816 174.731 177.734 185.66 184.565C190.661 187.69 201.153 187.689 213.479 187.687C234.827 187.684 261.677 187.68 275.029 203.918C296.638 230.2 279.582 271.656 227.214 288.164C226.484 288.394 225.75 288.625 225.011 288.858C172.791 305.311 100.918 327.957 142.969 349.64C155.966 356.342 170.413 351.45 185.353 346.392C212.286 337.273 240.821 327.612 265.352 384.362H310.89C278.444 362.732 281.46 320.619 302.351 310.363C326.219 298.647 323.399 275.792 321.384 259.455C320.756 254.362 320.206 249.902 320.567 246.61V165.211H222.091ZM265.352 293.856C257.61 306.151 229.491 313.02 216.399 314.917C205.583 328.009 231.768 322.317 235.752 318.902C239.737 315.486 247.706 323.455 249.983 334.271C252.26 345.086 271.613 343.378 270.475 334.271C269.336 325.163 269.336 314.917 282.429 304.671C295.521 294.425 275.029 278.487 265.352 293.856Z" fill="white"/>
  </g>
  <g style="mix-blend-mode:overlay" opacity="0.5">
  <path d="M147.523 273.933C171.43 273.933 170.292 293.287 147.523 297.271C125.328 301.155 103.673 307.203 103.123 319.105V320.04C103.109 319.725 103.109 319.413 103.123 319.105V260.831C112.309 266.027 130.402 273.933 147.523 273.933Z" fill="white"/>
  </g>
  </g>
  <g opacity="0.6">
  <ellipse rx="1.10576" ry="1.1626" transform="matrix(-0.961979 0.273124 -0.24516 -0.969483 232.683 277.476)" fill="white"/>
  <ellipse rx="1.10576" ry="1.1626" transform="matrix(-0.961979 0.273124 -0.24516 -0.969483 183.706 250.308)" fill="white"/>
  <ellipse rx="1.1626" ry="1.10576" transform="matrix(0.24516 0.969483 -0.961979 0.273124 153.019 227.878)" fill="white"/>
  <ellipse rx="1.10576" ry="1.1626" transform="matrix(-0.961979 0.273124 -0.24516 -0.969483 198.662 286.008)" fill="white"/>
  <ellipse rx="1.1626" ry="1.10576" transform="matrix(0.24516 0.969483 -0.961979 0.273124 186.711 212.03)" fill="white"/>
  <ellipse rx="1.1626" ry="1.10576" transform="matrix(0.24516 0.969483 -0.961979 0.273124 201.794 226.671)" fill="white"/>
  <ellipse rx="1.10576" ry="1.1626" transform="matrix(-0.961979 0.273124 -0.24516 -0.969483 235.929 237.414)" fill="white"/>
  <ellipse rx="1.10576" ry="1.1626" transform="matrix(-0.961979 0.273124 -0.24516 -0.969483 219.991 236.302)" fill="white"/>
  <ellipse rx="1.10576" ry="1.1626" transform="matrix(-0.961979 0.273124 -0.24516 -0.969483 166.618 295.75)" fill="white"/>
  <ellipse rx="1.1626" ry="1.10576" transform="matrix(0.24516 0.969483 -0.961979 0.273124 195.905 245.984)" fill="white"/>
  <ellipse rx="1.10576" ry="1.1626" transform="matrix(-0.961979 0.273124 -0.24516 -0.969483 149.543 292.545)" fill="white"/>
  <ellipse rx="1.1626" ry="1.10576" transform="matrix(0.24516 0.969483 -0.961979 0.273124 217.136 214.34)" fill="white"/>
  <ellipse rx="1.1626" ry="1.10576" transform="matrix(0.24516 0.969483 -0.961979 0.273124 167.245 236.215)" fill="white"/>
  <ellipse rx="1.1626" ry="1.10576" transform="matrix(0.24516 0.969483 -0.961979 0.273124 168.105 273.585)" fill="white"/>
  <ellipse rx="1.1626" ry="1.10576" transform="matrix(0.24516 0.969483 -0.961979 0.273124 119.075 238.95)" fill="white"/>
  <ellipse rx="1.1626" ry="1.10576" transform="matrix(0.24516 0.969483 -0.961979 0.273124 118.214 213.429)" fill="white"/>
  <ellipse rx="1.10576" ry="1.1626" transform="matrix(-0.961979 0.273124 -0.24516 -0.969483 146.741 248.401)" fill="white"/>
  <ellipse rx="1.1626" ry="1.10576" transform="matrix(0.24516 0.969483 -0.961979 0.273124 151.219 267.046)" fill="white"/>
  <ellipse rx="1.1626" ry="1.10576" transform="matrix(0.24516 0.969483 -0.961979 0.273124 239.502 213.885)" fill="white"/>
  <ellipse rx="1.10576" ry="1.1626" transform="matrix(-0.961979 0.273124 -0.24516 -0.969483 154.073 216.682)" fill="white"/>
  <ellipse rx="1.1626" ry="1.10576" transform="matrix(0.24516 0.969483 -0.961979 0.273124 121.285 259.277)" fill="white"/>
  <ellipse rx="1.1626" ry="1.10576" transform="matrix(0.24516 0.969483 -0.961979 0.273124 224.507 255.176)" fill="white"/>
  <ellipse rx="1.1626" ry="1.10576" transform="matrix(0.24516 0.969483 -0.961979 0.273124 210.223 252.788)" fill="white"/>
  <ellipse rx="1.10576" ry="1.1626" transform="matrix(-0.961979 0.273124 -0.24516 -0.969483 136.279 222.056)" fill="white"/>
  <ellipse rx="1.1626" ry="1.10576" transform="matrix(0.24516 0.969483 -0.961979 0.273124 126.356 278.132)" fill="white"/>
  <ellipse rx="1.1626" ry="1.10576" transform="matrix(0.24516 0.969483 -0.961979 0.273124 229.579 274.03)" fill="white"/>
  <path d="M116.427 231.21L116.031 230.074L114.959 229.654L116.031 229.234L116.427 228.098L116.824 229.234L117.896 229.654L116.824 230.074L116.427 231.21Z" fill="#7A6F0C"/>
  <path d="M114.225 269.639L113.828 268.503L112.757 268.083L113.828 267.663L114.225 266.527L114.621 267.663L115.693 268.083L114.621 268.503L114.225 269.639Z" fill="#7A6F0C"/>
  <path d="M134.854 276.485L134.16 274.497L132.285 273.762L134.16 273.027L134.854 271.039L135.548 273.027L137.424 273.762L135.548 274.497L134.854 276.485Z" fill="#7A6F0C"/>
  <path d="M239.283 228.643L238.589 226.656L236.713 225.92L238.589 225.185L239.283 223.198L239.977 225.185L241.852 225.92L239.977 226.656L239.283 228.643Z" fill="#7A6F0C"/>
  <path d="M129.716 254.392L129.022 252.404L127.146 251.669L129.022 250.934L129.716 248.946L130.41 250.934L132.285 251.669L130.41 252.404L129.716 254.392Z" fill="#7A6F0C"/>
  <path d="M229.224 256.648L228.828 255.513L227.756 255.093L228.828 254.672L229.224 253.537L229.621 254.672L230.693 255.093L229.621 255.513L229.224 256.648Z" fill="#7A6F0C"/>
  </g>
  </g>
  </g>
  <ellipse cx="275.03" cy="85.2993" rx="20.0253" ry="3.1901" transform="rotate(9.26455 275.03 85.2993)" fill="white" fill-opacity="0.45"/>
  <mask id="mask2_680_70124" style="mask-type:alpha" maskUnits="userSpaceOnUse" x="148" y="49" width="54" height="54">
  <path d="M148.568 49.7631H201.432V95.336C201.432 95.336 195.508 102.445 175 102.445C154.492 102.445 148.568 95.336 148.568 95.336V49.7631Z" fill="url(#paint4_radial_680_70124)"/>
  </mask>
  <g mask="url(#mask2_680_70124)">
  <rect x="242.223" y="187.004" width="133.35" height="147.652" rx="2" transform="rotate(-171.671 242.223 187.004)" fill="url(#paint5_linear_680_70124)"/>
  <g style="mix-blend-mode:overlay" filter="url(#filter2_f_680_70124)">
  <ellipse cx="251.379" cy="68.7798" rx="241.928" ry="298.276" transform="rotate(0.126655 251.379 68.7798)" fill="url(#paint6_radial_680_70124)"/>
  </g>
  <g opacity="0.5">
  <g style="mix-blend-mode:overlay" opacity="0.5">
  <path d="M118.353 92.6034C95.649 77.223 150.098 49.101 168.742 47.2534H107.268C88.7247 49.269 83.4171 58.5069 83.0811 62.874V99.6578C88.288 106.712 98.8821 120.643 131.958 129.387C175.797 140.977 228.666 118.462 210.565 92.6034C196.456 72.4478 149.594 113.767 118.353 92.6034Z" fill="white"/>
  </g>
  <g style="mix-blend-mode:overlay" opacity="0.5">
  <path fill-rule="evenodd" clip-rule="evenodd" d="M189.905 52.7961C175.125 55.9874 147.982 63.8816 157.657 69.9283C162.083 72.6949 171.371 72.6935 182.282 72.6919C201.18 72.689 224.948 72.6854 236.767 87.0605C255.896 110.326 240.798 147.023 194.44 161.636C193.794 161.84 193.144 162.044 192.491 162.25C146.264 176.816 82.6408 196.862 119.865 216.056C131.371 221.989 144.16 217.659 157.384 213.181C181.226 205.108 206.486 196.556 228.201 246.793H268.512C239.79 227.645 242.46 190.366 260.954 181.288C282.081 170.916 279.586 150.685 277.802 136.222C277.246 131.714 276.759 127.766 277.078 124.852V52.7961H189.905ZM228.201 166.675C221.348 177.559 196.456 183.639 184.867 185.319C175.293 196.908 198.472 191.869 201.999 188.846C205.526 185.823 212.58 192.877 214.596 202.451C216.612 212.025 233.744 210.513 232.736 202.451C231.728 194.389 231.728 185.319 243.318 176.249C254.907 167.179 236.767 153.07 228.201 166.675Z" fill="white"/>
  </g>
  </g>
  <g opacity="0.6">
  <circle cx="154.039" cy="55.7346" r="1.03294" fill="white"/>
  <circle cx="157.164" cy="98.3172" r="1.03294" transform="rotate(75 157.164 98.3172)" fill="white"/>
  <circle cx="162.639" cy="84.1605" r="1.03294" transform="rotate(75 162.639 84.1605)" fill="white"/>
  <circle cx="200.585" cy="77.8428" r="1.03294" transform="rotate(75 200.585 77.8428)" fill="white"/>
  <circle cx="173.154" cy="50.0683" r="1.03294" transform="rotate(75 173.154 50.0683)" fill="white"/>
  <circle cx="170.317" cy="66.085" r="1.03294" transform="rotate(75 170.317 66.085)" fill="white"/>
  <circle cx="187.093" cy="66.3396" r="1.03294" fill="white"/>
  <circle cx="190.536" cy="91.4056" r="1.03294" fill="white"/>
  <path d="M175.61 95.7587L175.238 94.7534L174.233 94.3814L175.238 94.0094L175.61 93.0041L175.982 94.0094L176.988 94.3814L175.982 94.7534L175.61 95.7587Z" fill="#FFF7B0"/>
  <path d="M177.674 80.8809L177.023 79.1216L175.264 78.4707L177.023 77.8197L177.674 76.0605L178.325 77.8197L180.084 78.4707L178.325 79.1216L177.674 80.8809Z" fill="#FFF7B0"/>
  </g>
  </g>
  <mask id="mask3_680_70124" style="mask-type:alpha" maskUnits="userSpaceOnUse" x="144" y="40" width="63" height="10">
  <rect x="144.466" y="40.6456" width="61.9792" height="9.11458" rx="2.27865" fill="#C4C4C4"/>
  </mask>
  <g mask="url(#mask3_680_70124)">
  <rect x="309.788" y="118.424" width="166.797" height="166.797" rx="0.911458" transform="rotate(-180 309.788 118.424)" fill="url(#paint7_linear_680_70124)"/>
  <g style="mix-blend-mode:overlay" filter="url(#filter3_f_680_70124)">
  <ellipse cx="299.158" cy="-5.10091" rx="273.297" ry="336.951" transform="rotate(0.126655 299.158 -5.10091)" fill="url(#paint8_radial_680_70124)"/>
  </g>
  <g opacity="0.5">
  <g style="mix-blend-mode:overlay" opacity="0.5">
  <path fill-rule="evenodd" clip-rule="evenodd" d="M257.514 -86.9591C240.817 -83.354 210.155 -74.4362 221.084 -67.6055C226.085 -64.4801 236.577 -64.4817 248.902 -64.4836C270.25 -64.4868 297.1 -64.4908 310.452 -48.2519C332.062 -21.97 315.006 19.4857 262.637 35.9932C261.908 36.2233 261.173 36.4547 260.435 36.6872C208.214 53.1411 136.342 75.7869 178.392 97.4694C191.39 104.171 205.837 99.2799 220.776 94.2216C247.71 85.1025 276.244 75.4412 300.775 132.192H346.313C313.868 110.562 316.883 68.4489 337.775 58.1929C361.642 46.4763 358.823 23.622 356.808 7.28419C356.18 2.19126 355.629 -2.26844 355.99 -5.56012V-86.9591H257.514ZM300.775 41.6855C293.034 53.9807 264.914 60.8493 251.822 62.7467C241.007 75.8389 267.191 70.1466 271.176 66.7313C275.16 63.316 283.13 71.2851 285.406 82.1003C287.683 92.9156 307.037 91.2079 305.898 82.1003C304.76 72.9928 304.76 62.7467 317.852 52.5007C330.944 42.2547 310.452 26.3164 300.775 41.6855Z" fill="white"/>
  </g>
  <g style="mix-blend-mode:overlay" opacity="0.5">
  <path d="M182.946 21.7626C206.854 21.7626 205.715 41.1162 182.946 45.1008C160.751 48.9849 139.097 55.0326 138.547 66.9346V67.8697C138.532 67.554 138.533 67.2424 138.547 66.9346V8.66058C147.733 13.857 165.826 21.7626 182.946 21.7626Z" fill="white"/>
  </g>
  </g>
  <g opacity="0.6">
  <path d="M161.209 47.7621L160.473 45.7748L158.486 45.0394L160.473 44.304L161.209 42.3167L161.944 44.304L163.931 45.0394L161.944 45.7748L161.209 47.7621Z" fill="#7A6F0C"/>
  </g>
  </g>
  <path d="M243.548 195.64C239.376 195.64 235.177 195.64 231.093 195.64M243.548 195.64H231.093M243.548 195.64C247.719 195.64 249.048 195.93 249.852 196.375C250.151 202.463 251.03 208.445 252.474 212.455C256.575 223.849 264.323 233.875 258.398 246.179C253.659 256.023 243.055 262.586 236.068 264.864M231.093 195.64C227.008 195.64 223.042 201.199 223.459 204.708L219.206 183.71C221.16 184.354 222.699 185.64 227.705 185.64M227.705 185.64C232.711 185.64 241.089 185.64 244.652 185.64M227.705 185.64H244.652M244.652 185.64C245.882 185.557 248.355 185.17 250.065 184.254C250.324 181.524 250.737 179.101 251.305 177.231M318.099 120.707L317.534 124.345C317.42 125.077 316.844 125.642 316.105 125.697C313.541 125.89 307.517 126.117 297.807 124.689C287.929 123.236 280.874 120.742 278.292 119.715M238.118 286.511C249.512 282.106 271.095 271.7 277.083 258.484C284.93 241.166 280.273 229.773 272.07 209.265C266.506 195.354 267.756 185.375 269.932 180.439M246.989 135.221L246.428 138.842C246.313 139.581 246.244 140.302 246.94 140.579C247.769 140.909 249.03 141.381 250.686 141.919M286.467 141.491L285.902 145.129C285.789 145.86 285.668 146.425 284.93 146.48C284.002 146.55 282.562 146.624 280.643 146.623M269.932 180.439C272.032 180.408 273.194 180.168 273.798 179.974C274.186 179.849 274.415 179.501 274.491 179.1L280.643 146.623M269.932 180.439C267.934 180.468 265.087 180.307 261.065 179.737C256.489 179.087 253.382 178.133 251.305 177.231M251.305 177.231C249.411 176.408 248.376 175.627 247.866 175.159C247.572 174.89 247.466 174.493 247.505 174.097L250.686 141.919M280.643 146.623C277.255 146.621 272.373 146.383 266.175 145.472C259.468 144.486 254.191 143.057 250.686 141.919M254.953 134.374C254.623 134.601 254.334 134.679 254.111 134.62C260.48 137.637 271.877 139.648 280.09 138.81C279.475 138.363 277.825 131.938 277.744 127.916C277.672 124.393 278.094 119.243 279.31 114.616C279.409 114.242 279.512 113.872 279.621 113.506M254.953 134.374C256.192 133.52 258.014 130.558 259.139 124.8C260.563 117.508 261.392 111.356 260.221 105.204C259.488 101.349 249.512 84.6959 253.157 79.455C256.803 74.2142 296.849 80.938 298.36 86.3489C299.87 91.7597 286.58 101.072 282.222 107.609C281.135 109.239 280.28 111.289 279.621 113.506M254.953 134.374C250.192 134.056 247.058 134.265 246.929 135.054C246.709 136.405 255.379 138.943 266.294 140.724C277.21 142.505 286.237 142.853 286.457 141.502C286.577 140.766 284.059 139.678 279.975 138.552M279.621 113.506C282.29 113.03 289.881 113.607 298.724 115.049C309.64 116.83 318.328 119.254 318.131 120.465C317.933 121.676 308.925 121.214 298.009 119.433C288.882 117.944 281.311 116.005 279.192 114.702M294.938 88.5957C294.654 90.3345 285.576 90.3008 274.66 88.5202C263.745 86.7397 255.126 83.8867 255.41 82.1478C255.693 80.4089 264.772 80.4427 275.687 82.2232C286.603 84.0038 295.222 86.8568 294.938 88.5957Z" stroke="black" stroke-width="0.911458"/>
  <path d="M225.13 212.455C225.13 212.455 206.617 226.127 175.228 226.127C143.839 226.127 125.326 212.455 125.326 212.455" stroke="black" stroke-width="0.911458"/>
  <path d="M201.433 95.333C201.433 95.333 192.774 102.169 175 102.169C157.227 102.169 148.568 95.333 148.568 95.333" stroke="black" stroke-width="0.911458"/>
  <g filter="url(#filter4_b_680_70124)">
  <mask id="path-107-inside-1_680_70124" fill="white">
  <path fill-rule="evenodd" clip-rule="evenodd" d="M147.107 50.1733C145.346 50.1733 143.917 48.745 143.917 46.9831V43.3799C143.917 41.618 145.346 40.1898 147.107 40.1898H203.712C205.474 40.1898 206.902 41.618 206.902 43.3799V46.9831C206.902 48.745 205.474 50.1733 203.712 50.1733H203.084C202.424 50.1733 201.888 50.7087 201.888 51.3691V96.9679C201.888 97.0468 201.896 97.1255 201.912 97.2028L213.06 152.835L225.178 211.109C225.184 211.139 225.221 211.152 225.244 211.132V211.132C225.268 211.112 225.304 211.124 225.31 211.154L236.173 260.87L237.619 268.133C243.059 291.731 229.704 315.906 206.761 315.906H176.334H144.151C121.212 315.906 108.313 291.738 113.746 268.142L115.192 260.87L125.13 211.156C125.137 211.126 125.173 211.113 125.197 211.133V211.133C125.221 211.153 125.257 211.14 125.263 211.11L148.819 93.5597C148.827 93.518 148.838 93.4773 148.85 93.4375C148.925 93.1963 149.024 92.9555 149.024 92.7027V51.3691C149.024 50.7087 148.488 50.1733 147.828 50.1733H147.107Z"/>
  </mask>
  <path d="M213.06 152.835L212.166 153.014L212.167 153.021L213.06 152.835ZM236.173 260.87L237.067 260.692L237.066 260.684L237.064 260.676L236.173 260.87ZM237.619 268.133L236.725 268.311L236.728 268.324L236.731 268.338L237.619 268.133ZM113.746 268.142L114.634 268.347L114.637 268.334L114.64 268.32L113.746 268.142ZM115.192 260.87L114.298 260.692L114.298 260.693L115.192 260.87ZM148.819 93.5597L149.713 93.7387L149.713 93.7387L148.819 93.5597ZM125.263 211.11L126.157 211.289L125.263 211.11ZM201.912 97.2028L202.805 97.0237L201.912 97.2028ZM125.13 211.156L124.237 210.977L125.13 211.156ZM148.85 93.4375L147.98 93.166L148.85 93.4375ZM225.31 211.154L224.42 211.349L225.31 211.154ZM225.178 211.109L226.071 210.923L225.178 211.109ZM143.006 46.9831C143.006 49.2484 144.842 51.0847 147.107 51.0847V49.2618C145.849 49.2618 144.829 48.2416 144.829 46.9831H143.006ZM143.006 43.3799V46.9831H144.829V43.3799H143.006ZM147.107 39.2783C144.842 39.2783 143.006 41.1146 143.006 43.3799H144.829C144.829 42.1214 145.849 41.1012 147.107 41.1012V39.2783ZM203.712 39.2783H147.107V41.1012H203.712V39.2783ZM207.814 43.3799C207.814 41.1146 205.977 39.2783 203.712 39.2783V41.1012C204.97 41.1012 205.991 42.1214 205.991 43.3799H207.814ZM207.814 46.9831V43.3799H205.991V46.9831H207.814ZM203.712 51.0847C205.977 51.0847 207.814 49.2484 207.814 46.9831H205.991C205.991 48.2416 204.97 49.2618 203.712 49.2618V51.0847ZM203.084 51.0847H203.712V49.2618H203.084V51.0847ZM202.8 96.9679V51.3691H200.977V96.9679H202.8ZM213.954 152.656L202.805 97.0237L201.018 97.3819L212.166 153.014L213.954 152.656ZM226.071 210.923L213.952 152.649L212.167 153.021L224.286 211.294L226.071 210.923ZM237.064 260.676L226.201 210.96L224.42 211.349L235.283 261.065L237.064 260.676ZM238.513 267.955L237.067 260.692L235.279 261.048L236.725 268.311L238.513 267.955ZM206.761 316.818C218.59 316.818 227.94 310.573 233.61 301.346C239.27 292.135 241.278 279.945 238.507 267.928L236.731 268.338C239.401 279.919 237.45 291.615 232.057 300.392C226.673 309.153 217.874 314.995 206.761 314.995V316.818ZM176.334 316.818H206.761V314.995H176.334V316.818ZM144.151 316.818H176.334V314.995H144.151V316.818ZM112.858 267.938C110.093 279.947 111.983 292.132 117.528 301.343C123.083 310.571 132.321 316.818 144.151 316.818V314.995C133.042 314.995 124.36 309.157 119.09 300.403C113.808 291.63 111.966 279.934 114.634 268.347L112.858 267.938ZM114.298 260.693L112.852 267.965L114.64 268.32L116.086 261.048L114.298 260.693ZM124.237 210.977L114.298 260.692L116.086 261.049L126.024 211.335L124.237 210.977ZM147.925 93.3806L124.369 210.931L126.157 211.289L149.713 93.7387L147.925 93.3806ZM147.98 93.166C147.958 93.236 147.94 93.3076 147.925 93.3806L149.713 93.7387C149.715 93.7285 149.717 93.7186 149.72 93.7091L147.98 93.166ZM148.112 51.3691V92.7027H149.935V51.3691H148.112ZM147.107 51.0847H147.828V49.2618H147.107V51.0847ZM149.935 51.3691C149.935 50.2053 148.992 49.2618 147.828 49.2618V51.0847C147.985 51.0847 148.112 51.212 148.112 51.3691H149.935ZM124.61 211.83C125.164 212.296 126.015 211.998 126.157 211.289L124.369 210.931C124.5 210.282 125.277 210.009 125.784 210.435L124.61 211.83ZM200.977 96.9679C200.977 97.1069 200.991 97.2456 201.018 97.3819L202.805 97.0237C202.802 97.0053 202.8 96.9866 202.8 96.9679H200.977ZM126.024 211.335C125.894 211.984 125.116 212.256 124.61 211.83L125.784 210.435C125.23 209.969 124.379 210.267 124.237 210.977L126.024 211.335ZM149.72 93.7091C149.761 93.5778 149.935 93.137 149.935 92.7027H148.112C148.112 92.7129 148.11 92.747 148.087 92.8294C148.076 92.87 148.062 92.9149 148.043 92.9724C148.026 93.0241 148.001 93.0973 147.98 93.166L149.72 93.7091ZM225.831 211.829C225.329 212.251 224.559 211.989 224.42 211.349L226.201 210.96C226.048 210.26 225.206 209.973 224.657 210.434L225.831 211.829ZM224.286 211.294C224.433 212 225.279 212.293 225.831 211.829L224.657 210.434C225.162 210.01 225.936 210.278 226.071 210.923L224.286 211.294ZM203.084 49.2618C201.92 49.2618 200.977 50.2053 200.977 51.3691H202.8C202.8 51.212 202.927 51.0847 203.084 51.0847V49.2618Z" fill="black" mask="url(#path-107-inside-1_680_70124)"/>
  </g>
  </g>
  <defs>
  <filter id="filter0_d_680_70124" x="110.059" y="212.035" width="132.16" height="109.112" filterUnits="userSpaceOnUse" color-interpolation-filters="sRGB">
  <feFlood flood-opacity="0" result="BackgroundImageFix"/>
  <feColorMatrix in="SourceAlpha" type="matrix" values="0 0 0 0 0 0 0 0 0 0 0 0 0 0 0 0 0 0 127 0" result="hardAlpha"/>
  <feOffset dx="0.455729" dy="2.73438"/>
  <feGaussianBlur stdDeviation="1.36719"/>
  <feComposite in2="hardAlpha" operator="out"/>
  <feColorMatrix type="matrix" values="0 0 0 0 0 0 0 0 0 0 0 0 0 0 0 0 0 0 0.25 0"/>
  <feBlend mode="normal" in2="BackgroundImageFix" result="effect1_dropShadow_680_70124"/>
  <feBlend mode="normal" in="SourceGraphic" in2="effect1_dropShadow_680_70124" result="shape"/>
  </filter>
  <filter id="filter1_f_680_70124" x="-14.1193" y="-94.4384" width="555.71" height="683.015" filterUnits="userSpaceOnUse" color-interpolation-filters="sRGB">
  <feFlood flood-opacity="0" result="BackgroundImageFix"/>
  <feBlend mode="normal" in="SourceGraphic" in2="BackgroundImageFix" result="shape"/>
  <feGaussianBlur stdDeviation="2.27865" result="effect1_foregroundBlur_680_70124"/>
  </filter>
  <filter id="filter2_f_680_70124" x="5.41584" y="-233.53" width="491.926" height="604.619" filterUnits="userSpaceOnUse" color-interpolation-filters="sRGB">
  <feFlood flood-opacity="0" result="BackgroundImageFix"/>
  <feBlend mode="normal" in="SourceGraphic" in2="BackgroundImageFix" result="shape"/>
  <feGaussianBlur stdDeviation="2.0171" result="effect1_foregroundBlur_680_70124"/>
  </filter>
  <filter id="filter3_f_680_70124" x="21.3029" y="-346.609" width="555.71" height="683.015" filterUnits="userSpaceOnUse" color-interpolation-filters="sRGB">
  <feFlood flood-opacity="0" result="BackgroundImageFix"/>
  <feBlend mode="normal" in="SourceGraphic" in2="BackgroundImageFix" result="shape"/>
  <feGaussianBlur stdDeviation="2.27865" result="effect1_foregroundBlur_680_70124"/>
  </filter>
  <filter id="filter4_b_680_70124" x="98.1596" y="25.8395" width="155.02" height="304.417" filterUnits="userSpaceOnUse" color-interpolation-filters="sRGB">
  <feFlood flood-opacity="0" result="BackgroundImageFix"/>
  <feGaussianBlur in="BackgroundImage" stdDeviation="7.17515"/>
  <feComposite in2="SourceAlpha" operator="in" result="effect1_backgroundBlur_680_70124"/>
  <feBlend mode="normal" in="SourceGraphic" in2="effect1_backgroundBlur_680_70124" result="shape"/>
  </filter>
  <linearGradient id="paint0_linear_680_70124" x1="462.101" y1="263.57" x2="518.185" y2="573.646" gradientUnits="userSpaceOnUse">
  <stop stop-color="#003802"/>
  <stop offset="0.473958" stop-color="#00B806" stop-opacity="0.98"/>
  <stop offset="1" stop-color="#B5FFB7" stop-opacity="0.98"/>
  </linearGradient>
  <radialGradient id="paint1_radial_680_70124" cx="0" cy="0" r="1" gradientUnits="userSpaceOnUse" gradientTransform="translate(231.779 201.518) rotate(136.943) scale(153.528 198.077)">
  <stop stop-color="#FF0000"/>
  <stop offset="0.530354" stop-color="#FFE925"/>
  <stop offset="1" stop-color="#289B04"/>
  </radialGradient>
  <linearGradient id="paint2_linear_680_70124" x1="460.777" y1="474.956" x2="295.018" y2="492.932" gradientUnits="userSpaceOnUse">
  <stop stop-color="#003802"/>
  <stop offset="0.473958" stop-color="#00B806" stop-opacity="0.98"/>
  <stop offset="1" stop-color="#003802"/>
  </linearGradient>
  <radialGradient id="paint3_radial_680_70124" cx="0" cy="0" r="1" gradientUnits="userSpaceOnUse" gradientTransform="translate(263.736 296.83) rotate(92.5586) scale(219.36 178.105)">
  <stop offset="0.479167" stop-color="white" stop-opacity="0.75"/>
  <stop offset="1" stop-color="white" stop-opacity="0"/>
  </radialGradient>
  <radialGradient id="paint4_radial_680_70124" cx="0" cy="0" r="1" gradientUnits="userSpaceOnUse" gradientTransform="translate(198.491 44.4395) rotate(132.639) scale(69.3519 89.3771)">
  <stop stop-color="#FF0000"/>
  <stop offset="0.530354" stop-color="#FFE925"/>
  <stop offset="1" stop-color="#6DF244"/>
  </radialGradient>
  <linearGradient id="paint5_linear_680_70124" x1="350.844" y1="279.606" x2="301.764" y2="284.413" gradientUnits="userSpaceOnUse">
  <stop stop-color="#003802"/>
  <stop offset="0.473958" stop-color="#00B806" stop-opacity="0.98"/>
  <stop offset="1" stop-color="#003802"/>
  </linearGradient>
  <radialGradient id="paint6_radial_680_70124" cx="0" cy="0" r="1" gradientUnits="userSpaceOnUse" gradientTransform="translate(251.379 112.829) rotate(92.5586) scale(194.182 157.662)">
  <stop offset="0.479167" stop-color="white" stop-opacity="0.75"/>
  <stop offset="1" stop-color="white" stop-opacity="0"/>
  </radialGradient>
  <linearGradient id="paint7_linear_680_70124" x1="482.402" y1="223.033" x2="408.531" y2="231.045" gradientUnits="userSpaceOnUse">
  <stop stop-color="#003802"/>
  <stop offset="0.473958" stop-color="#00B806" stop-opacity="0.98"/>
  <stop offset="1" stop-color="#003802"/>
  </linearGradient>
  <radialGradient id="paint8_radial_680_70124" cx="0" cy="0" r="1" gradientUnits="userSpaceOnUse" gradientTransform="translate(299.158 44.6597) rotate(92.5586) scale(219.36 178.105)">
  <stop offset="0.479167" stop-color="white" stop-opacity="0.75"/>
  <stop offset="1" stop-color="white" stop-opacity="0"/>
  </radialGradient>
  <clipPath id="clip0_680_70124">
  <rect width="350" height="350" fill="white" transform="translate(0 0.99707)"/>
  </clipPath>
  </defs>

    
    <path d="M148.647 94.3351L124.888 210.017C124.817 210.363 124.947 210.714 125.237 210.915C128.356 213.082 146.958 225.128 174.998 225.128C203.038 225.128 221.64 213.082 224.76 210.915C225.05 210.714 225.18 210.363 225.109 210.017L201.35 94.3351C201.316 94.4021 201.271 94.4644 201.216 94.5198C199.881 95.8685 193.226 101.484 174.998 101.484C156.771 101.484 150.116 95.8685 148.78 94.5198C148.725 94.4644 148.681 94.4021 148.647 94.3351Z" fill="#FFFFFF" fill-opacity="0.75"/>;
    
    <!-- Color -->
    <path d="M201.049 94.2304L205.113 114.031C203.523 113.76 201.871 113.447 200.18 113.127C186.038 110.452 169.252 107.276 165.003 123.73C163.148 130.914 165.836 135.212 168.45 139.394C170.975 143.43 173.431 147.358 171.668 153.669C169.523 161.35 157.859 166.325 148.479 162.994C138.57 159.476 139.266 144.903 144.961 137.849C150.656 130.794 151.48 120.031 150.656 112.87C150.259 109.409 148.549 106.935 146.313 105.251L148.649 93.8801C148.683 93.9471 148.727 94.0094 148.782 94.0649C150.117 95.4136 156.772 101.03 175 101.03C192.557 101.03 199.378 95.8189 201.049 94.2304Z" fill="url(#paint0_radial_702_67017)"/>

    <!-- Filter -->
    <mask id="mask0_702_67017" style="mask-type:alpha" maskUnits="userSpaceOnUse" x="140" y="93" width="66" height="72">
      <path d="M201.049 94.2304L205.113 114.031C203.523 113.76 201.871 113.447 200.18 113.127C186.038 110.452 169.252 107.276 165.003 123.73C163.148 130.914 165.836 135.212 168.45 139.394C170.975 143.43 173.431 147.358 171.668 153.669C169.523 161.35 157.859 166.325 148.479 162.994C138.57 159.476 139.266 144.903 144.961 137.849C150.656 130.794 151.48 120.031 150.656 112.87C150.259 109.409 148.549 106.935 146.313 105.251L148.649 93.8801C148.683 93.9471 148.727 94.0094 148.782 94.0649C150.117 95.4136 156.772 101.03 175 101.03C192.557 101.03 199.378 95.8189 201.049 94.2304Z" fill="url(#paint1_radial_702_67017)"/>
    </mask>
    <g mask="url(#mask0_702_67017)">
      <g filter="url(#filter0_f_702_67017)">
        <mask id="mask1_702_67017" style="mask-type:alpha" maskUnits="userSpaceOnUse" x="124" y="94" width="102" height="132">
          <path d="M148.862 95.0637C148.949 94.6399 149.322 94.3357 149.754 94.3357H200.246C200.678 94.3357 201.051 94.6399 201.138 95.0637L224.993 211.158C225.074 211.554 224.888 211.954 224.527 212.137C220.624 214.108 198.375 224.817 175 225.127C151.578 225.438 129.287 214.178 125.45 212.14C125.099 211.954 124.924 211.562 125.004 211.173L148.862 95.0637Z" fill="#577096" fill-opacity="0.75"/>
        </mask>
        <g mask="url(#mask1_702_67017)">
          <g filter="url(#filter1_f_702_67017)">
            <path d="M207.208 76.1064C210.866 110.268 145.941 132.571 113.021 139.453L113.021 76.1064L207.208 76.1064Z" fill="url(#paint2_linear_702_67017)" fill-opacity="0.5"/>
          </g>
          <g filter="url(#filter2_f_702_67017)">
            <path d="M155.407 125.301C156.469 105.018 134.471 86.1828 128.929 66.9985C133.388 65.1973 144.05 70.7896 152.675 76.1247C163.456 82.7936 162.879 109.124 164.625 125.784C166.022 139.112 148.453 223.401 144.015 241.481L131.716 240.837C140.242 214.68 154.587 140.955 155.407 125.301Z" fill="url(#paint3_linear_702_67017)" fill-opacity="0.6"/>
          </g>
        </g>
      </g>
    </g>

    <defs>
      <!-- Color -->
      <radialGradient id="paint0_radial_702_67017" cx="0" cy="0" r="1" gradientUnits="userSpaceOnUse" gradientTransform="translate(155.882 109.102) rotate(53.1177) scale(37.8177 40.2646)">
        <stop offset="0.203125" style="stop-color: #FFB800;"/>
        <stop offset="0.890625" style="stop-color: #FF7800;"/>
      </radialGradient>

      <!-- Filter -->
      <filter id="filter0_f_702_67017" x="122.591" y="92.057" width="104.818" height="135.355" filterUnits="userSpaceOnUse" color-interpolation-filters="sRGB">
        <feFlood flood-opacity="0" result="BackgroundImageFix"/>
        <feBlend mode="normal" in="SourceGraphic" in2="BackgroundImageFix" result="shape"/>
        <feGaussianBlur stdDeviation="1.13932" result="effect1_foregroundBlur_702_67017"/>
      </filter>
      <filter id="filter1_f_702_67017" x="112.109" y="75.195" width="96.1589" height="65.1694" filterUnits="userSpaceOnUse" color-interpolation-filters="sRGB">
        <feFlood flood-opacity="0" result="BackgroundImageFix"/>
        <feBlend mode="normal" in="SourceGraphic" in2="BackgroundImageFix" result="shape"/>
        <feGaussianBlur stdDeviation="0.455729" result="effect1_foregroundBlur_702_67017"/>
      </filter>
      <filter id="filter2_f_702_67017" x="128.017" y="65.7426" width="37.5979" height="176.65" filterUnits="userSpaceOnUse" color-interpolation-filters="sRGB">
        <feFlood flood-opacity="0" result="BackgroundImageFix"/>
        <feBlend mode="normal" in="SourceGraphic" in2="BackgroundImageFix" result="shape"/>
        <feGaussianBlur stdDeviation="0.455729" result="effect1_foregroundBlur_702_67017"/>
      </filter>
      <radialGradient id="paint1_radial_702_67017" cx="0" cy="0" r="1" gradientUnits="userSpaceOnUse" gradientTransform="translate(155.882 109.102) rotate(53.1177) scale(37.8177 40.2646)">
        <stop offset="0.203125" stop-color="#71FF30"/>
        <stop offset="0.890625" stop-color="#25BC46"/>
      </radialGradient>
      <linearGradient id="paint2_linear_702_67017" x1="145.215" y1="123.01" x2="155.829" y2="72.2914" gradientUnits="userSpaceOnUse">
        <stop stop-color="white" stop-opacity="0"/>
        <stop offset="0.471361" stop-color="white"/>
        <stop offset="1" stop-color="white"/>
      </linearGradient>
      <linearGradient id="paint3_linear_702_67017" x1="160.729" y1="220.938" x2="201.954" y2="178" gradientUnits="userSpaceOnUse">
        <stop stop-color="#F2F2F2"/>
        <stop offset="0.0001" stop-color="#F2F2F2"/>
        <stop offset="0.0520833" stop-color="#F2F2F2" stop-opacity="0.948011"/>
        <stop offset="1" stop-color="#F2F2F2" stop-opacity="0"/>
      </linearGradient>
    </defs>
  
    
    <!-- Color -->
    <path d="M177.734 130.914C177.734 127.951 179.774 122.048 187.933 122.136C196.091 122.224 198.203 128.025 198.239 130.914C198.312 133.035 197.089 137.629 191.621 139.033C184.786 140.789 177.734 136.839 177.734 130.914Z" fill="url(#paint0_radial_702_67018)"/>

    <defs>
      <!-- Color -->
      <radialGradient id="paint0_radial_702_67018" cx="0" cy="0" r="1" gradientUnits="userSpaceOnUse" gradientTransform="translate(182.539 125.892) rotate(45.8803) scale(10.3998 11.5271)">
        <stop offset="0.203125" style="stop-color: #FABE09;"/>
        <stop offset="0.890625" style="stop-color: #FDF21B;"/>
      </radialGradient>
    </defs>
  
    
    
    <!-- Color -->
    <path d="M223.109 211.89C217.522 215.445 199.996 225.13 174.887 225.13C146.901 225.13 128.335 213.098 125.221 210.933C125.032 210.801 124.911 210.606 124.87 210.39C128.808 199.004 144.115 175.86 164.064 181.919C173.943 184.919 180.859 192.452 187.364 199.536C197.438 210.508 206.525 220.404 224.106 210.722C223.783 211.11 223.451 211.499 223.109 211.89Z" fill="url(#paint0_radial_702_67020)"/>

    <!-- Filter -->
    <mask id="mask0_702_67020" style="mask-type:alpha" maskUnits="userSpaceOnUse" x="124" y="180" width="101" height="46">
      <path d="M223.109 211.89C217.522 215.445 199.996 225.13 174.887 225.13C146.901 225.13 128.335 213.098 125.221 210.933C125.032 210.802 124.911 210.606 124.87 210.39C128.808 199.004 144.115 175.86 164.064 181.919C173.943 184.92 180.859 192.452 187.364 199.536C197.438 210.508 206.525 220.405 224.106 210.722C223.783 211.11 223.451 211.499 223.109 211.89Z" fill="url(#paint1_radial_702_67020)"/>
    </mask>
    <g mask="url(#mask0_702_67020)">
      <g filter="url(#filter0_f_702_67020)">
        <mask id="mask1_702_67020" style="mask-type:alpha" maskUnits="userSpaceOnUse" x="124" y="94" width="102" height="132">
          <path d="M148.862 95.0639C148.949 94.6401 149.322 94.3359 149.754 94.3359H200.246C200.678 94.3359 201.051 94.6401 201.138 95.0639L224.993 211.159C225.074 211.555 224.888 211.955 224.527 212.137C220.624 214.109 198.375 224.817 175 225.128C151.578 225.438 129.287 214.178 125.45 212.141C125.099 211.954 124.924 211.562 125.004 211.173L148.862 95.0639Z" fill="#577096" fill-opacity="0.75"/>
        </mask>
        <g mask="url(#mask1_702_67020)">
          <g filter="url(#filter1_f_702_67020)">
            <path d="M155.407 125.301C156.469 105.018 134.471 86.183 128.929 66.9987C133.388 65.1975 144.05 70.7899 152.675 76.125C163.456 82.7938 162.879 109.124 164.625 125.784C166.022 139.112 148.453 223.401 144.015 241.482L131.716 240.837C140.242 214.68 154.587 140.955 155.407 125.301Z" fill="url(#paint2_linear_702_67020)" fill-opacity="0.6"/>
          </g>
        </g>
      </g>
    </g>

    <defs>
      <!-- Color -->
      <radialGradient id="paint0_radial_702_67020" cx="0" cy="0" r="1" gradientUnits="userSpaceOnUse" gradientTransform="translate(148.118 190.514) rotate(28.5454) scale(39.8814 37.1287)">
        <stop offset="0.203125" style="stop-color: #FFB800;"/>
        <stop offset="0.890625" style="stop-color: #FF7800;"/>
      </radialGradient>

      <!-- Filter -->
      <filter id="filter0_f_702_67020" x="122.591" y="92.0573" width="104.818" height="135.355" filterUnits="userSpaceOnUse" color-interpolation-filters="sRGB">
        <feFlood flood-opacity="0" result="BackgroundImageFix"/>
        <feBlend mode="normal" in="SourceGraphic" in2="BackgroundImageFix" result="shape"/>
        <feGaussianBlur stdDeviation="1.13932" result="effect1_foregroundBlur_702_67020"/>
      </filter>
      <filter id="filter1_f_702_67020" x="128.017" y="65.7428" width="37.5979" height="176.65" filterUnits="userSpaceOnUse" color-interpolation-filters="sRGB">
        <feFlood flood-opacity="0" result="BackgroundImageFix"/>
        <feBlend mode="normal" in="SourceGraphic" in2="BackgroundImageFix" result="shape"/>
        <feGaussianBlur stdDeviation="0.455729" result="effect1_foregroundBlur_702_67020"/>
      </filter>
      <radialGradient id="paint1_radial_702_67020" cx="0" cy="0" r="1" gradientUnits="userSpaceOnUse" gradientTransform="translate(146.218 191.259) rotate(27.3324) scale(58.602 42.3474)">
        <stop offset="0.302083" stop-color="#FFB800"/>
        <stop offset="1" stop-color="#FF7800"/>
      </radialGradient>
      <linearGradient id="paint2_linear_702_67020" x1="160.729" y1="220.939" x2="201.954" y2="178" gradientUnits="userSpaceOnUse">
        <stop stop-color="#F2F2F2"/>
        <stop offset="0.0001" stop-color="#F2F2F2"/>
        <stop offset="0.0520833" stop-color="#F2F2F2" stop-opacity="0.948011"/>
        <stop offset="1" stop-color="#F2F2F2" stop-opacity="0"/>
      </linearGradient>
    </defs>
  
  
    </svg>
  