
    <svg width="350" height="350" viewBox="0 0 350 350" fill="none" xmlns="http://www.w3.org/2000/svg">
    
    <!-- Star BG -->
    <g clip-path="url(#clip0_1285_67308)">
      <g filter="url(#filter0_f_1285_67308)">
        <rect x="350" y="350" width="350" height="350" transform="rotate(-180 350.08 350.045)" fill="#0E103E"/>
      </g>
      <g style="mix-blend-mode:overlay" filter="url(#filter1_f_1285_67308)">
        <ellipse rx="270.447" ry="92.7881" transform="matrix(0.999998 0.00221055 0.00221055 -0.999998 176.734 365.185)" fill="url(#paint0_radial_1285_67308)"/>
      </g>
      <g style="mix-blend-mode:overlay" filter="url(#filter2_f_1285_67308)">
        <ellipse cx="174.396" cy="133.052" rx="273.297" ry="336.951" transform="rotate(0.126655 174.396 133.052)" fill="url(#paint1_radial_1285_67308)"/>
      </g>

      <g opacity="0.6">
        <use href="#basicStar1" transform="translate(19.83253, 74.88159)" />
        <use href="#basicStar2" transform="translate(212.81703000000002, 244.46479)" />
        <use href="#basicStar3" transform="translate(324.04303, 109.39579)" />
        <use href="#basicStar4" transform="translate(338.53103, 121.17279)" />
        <use href="#basicStar5" transform="translate(321.21303, 78.78959)" />
        <use href="#basicStar1" transform="translate(155.57303000000002, 142.96979000000002)" />
        <use href="#basicStar2" transform="translate(264.94802999999996, 138.86779)" />
        <use href="#basicStar3" transform="translate(7.215819999999999, 26.38089)" />
        <use href="#basicStar4" transform="translate(62.929730000000006, 114.55579)" />
        <use href="#basicStar5" transform="translate(160.92003000000003, 217.29679000000002)" />
        <use href="#basicStar1" transform="translate(296.87503, 161.29279)" />
        <use href="#basicStar2" transform="translate(128.40503, 194.86679)" />
        <use href="#basicStar3" transform="translate(237.78003, 190.76479)" />
        <use href="#basicStar4" transform="translate(39.08223, 90.04859)" />
        <use href="#basicStar5" transform="translate(56.86163, 75.97069)" />
        <use href="#basicStar1" transform="translate(176.76803, 252.99678999999998)" />
        <use href="#basicStar2" transform="translate(332.57403, 145.44479)" />
        <use href="#basicStar3" transform="translate(164.10403000000002, 179.01879)" />
        <use href="#basicStar4" transform="translate(273.47902999999997, 174.91779)" />
        <use href="#basicStar5" transform="translate(292.50203, 191.35479)" />
        <use href="#basicStar1" transform="translate(65.54933, 97.92979)" />
        <use href="#basicStar2" transform="translate(15.78743, 166.05379)" />
        <use href="#basicStar3" transform="translate(193.12703000000002, 155.35279)" />
        <use href="#basicStar4" transform="translate(234.93003000000002, 129.08579)" />
        <use href="#basicStar5" transform="translate(66.46073, 162.65979000000002)" />
        <use href="#basicStar1" transform="translate(175.83603000000002, 158.55779)" />
        <use href="#basicStar2" transform="translate(1.9404700000000001, 155.94079)" />
        <use href="#basicStar3" transform="translate(209.12003, 161.53679)" />
        <use href="#basicStar4" transform="translate(241.11503000000002, 113.09279000000001)" />
        <use href="#basicStar5" transform="translate(72.64503, 146.66679)" />
        <use href="#basicStar1" transform="translate(182.02003000000002, 142.56579)" />
        <use href="#basicStar2" transform="translate(50.79373, 171.03279)" />
        <use href="#basicStar3" transform="translate(57.99513, 188.35779)" />
        <use href="#basicStar4" transform="translate(158.02503000000002, 159.60379)" />
        <use href="#basicStar5" transform="translate(277.46303, 299.81879)" />
        <use href="#basicStar1" transform="translate(70.71163, 197.76179)" />
        <use href="#basicStar2" transform="translate(180.08703000000003, 193.65979000000002)" />
        <use href="#basicStar3" transform="translate(7.6970600000000005, 87.01729)" />
        <use href="#basicStar4" transform="translate(221.39803, 229.60179)" />
        <use href="#basicStar5" transform="translate(309.18003, 100.81479)" />
        <use href="#basicStar1" transform="translate(212.75003, 303.00879)" />
        <use href="#basicStar2" transform="translate(250.08503000000002, 130.28679)" />
        <use href="#basicStar3" transform="translate(8.583029999999999, 8.60739)" />
        <use href="#basicStar4" transform="translate(318.67203, 227.55079)" />
        <use href="#basicStar5" transform="translate(216.25703000000001, 204.40279)" />
        <use href="#basicStar1" transform="translate(215.48403000000002, 66.94069)" />
        <use href="#basicStar2" transform="translate(115.51103, 139.52979)" />
        <use href="#basicStar3" transform="translate(224.88503, 135.42879)" />
        <use href="#basicStar4" transform="translate(26.18773, 34.71239)" />
        <use href="#basicStar5" transform="translate(22.16633, 118.13379)" />
        <use href="#basicStar1" transform="translate(199.36903, 203.29079000000002)" />
        <use href="#basicStar2" transform="translate(282.86803, 122.84479)" />
        <use href="#basicStar3" transform="translate(12.22903, 319.87079)" />
        <use href="#basicStar4" transform="translate(223.77303, 152.31679)" />
        <use href="#basicStar5" transform="translate(25.07543, 51.60059)" />
        <use href="#basicStar1" transform="translate(41.58893, 57.563889999999994)" />
        <use href="#basicStar2" transform="translate(47.96933, 23.38419)" />
        <use href="#basicStar3" transform="translate(68.02133, 37.511689999999994)" />
        <use href="#basicStar4" transform="translate(79.87013, 7.433590000000001)" />
        <use href="#basicStar5" transform="translate(272.18802999999997, 79.89449)" />
        <use href="#basicStar1" transform="translate(311.38103, 32.04289)" />
        <use href="#basicStar2" transform="translate(252.13603, 51.183589999999995)" />
        <use href="#basicStar3" transform="translate(247.57903000000002, 25.66279)" />
        <use href="#basicStar4" transform="translate(165.54703, 1.9647999999999999)" />
        <use href="#basicStar5" transform="translate(132.27903, 5.15498)" />
        <use href="#basicStar1" transform="translate(134.55803, 37.05609)" />
        <use href="#basicStar2" transform="translate(88.98493, 68.04559)" />
        <use href="#basicStar3" transform="translate(206.56303000000003, 13.81389)" />
        <use href="#basicStar4" transform="translate(217.50103000000001, 43.436189999999996)" />
        <use href="#basicStar5" transform="translate(242.11003000000002, 86.27489)" />
        <use href="#basicStar1" transform="translate(121.79703, 68.04559)" />
        <use href="#basicStar2" transform="translate(106.30303, 92.65499)" />
        <use href="#basicStar3" transform="translate(142.81403, 262.73879)" />
        <use href="#basicStar4" transform="translate(342.31603, 179.39879)" />
        <use href="#basicStar5" transform="translate(173.84703000000002, 212.97179)" />
        <use href="#basicStar1" transform="translate(283.22202999999996, 208.87079)" />
        <use href="#basicStar2" transform="translate(84.52393, 108.15479)" />
        <use href="#basicStar3" transform="translate(7.865029999999999, 52.095189999999995)" />
        <use href="#basicStar4" transform="translate(124.72103, 259.53279)" />
        <use href="#basicStar5" transform="translate(339.11102999999997, 197.49179)" />
        <use href="#basicStar1" transform="translate(112.94503, 327.61779)" />
        <use href="#basicStar2" transform="translate(280.01703, 226.96379000000002)" />
        <use href="#basicStar3" transform="translate(306.63003, 242.39679)" />
        <use href="#basicStar4" transform="translate(278.37503, 250.14379)" />
        <use href="#basicStar5" transform="translate(238.27003000000002, 274.75379)" />
        <use href="#basicStar1" transform="translate(196.34303000000003, 181.32879)" />
        <use href="#basicStar2" transform="translate(143.47903000000002, 203.20379)" />
        <use href="#basicStar3" transform="translate(144.39003000000002, 240.57379)" />
        <use href="#basicStar4" transform="translate(92.43723, 205.93779)" />
        <use href="#basicStar5" transform="translate(91.52593, 180.41779)" />
        <use href="#basicStar1" transform="translate(81.31863, 126.24779000000001)" />
        <use href="#basicStar2" transform="translate(100.27003, 126.53578999999999)" />
        <use href="#basicStar3" transform="translate(121.75203, 215.38979)" />
        <use href="#basicStar4" transform="translate(324.85902999999996, 262.44879000000003)" />
        <use href="#basicStar5" transform="translate(312.09902999999997, 184.06279)" />
        <use href="#basicStar1" transform="translate(320.30203, 165.83379)" />
        <use href="#basicStar2" transform="translate(283.84303, 144.87079)" />
        <use href="#basicStar3" transform="translate(327.59303, 318.95879)" />
        <use href="#basicStar4" transform="translate(254.22103, 153.98479)" />
        <use href="#basicStar5" transform="translate(336.25203, 87.44849)" />
        <use href="#basicStar1" transform="translate(339.89803, 65.57349)" />
        <use href="#basicStar2" transform="translate(126.49802999999999, 234.03479000000002)" />
        <use href="#basicStar3" transform="translate(235.87303, 229.93379000000002)" />
        <use href="#basicStar4" transform="translate(245.56203000000002, 212.77379)" />
        <use href="#basicStar5" transform="translate(220.04103, 180.87279)" />
        <use href="#basicStar1" transform="translate(37.17503, 129.21679)" />
        <use href="#basicStar2" transform="translate(45.23493, 338.29279)" />
        <use href="#basicStar3" transform="translate(129.52103000000002, 183.67079)" />
        <use href="#basicStar4" transform="translate(263.24903, 192.69179)" />
        <use href="#basicStar5" transform="translate(94.77883, 226.26579)" />
        <use href="#basicStar1" transform="translate(204.15403, 222.16379)" />
        <use href="#basicStar2" transform="translate(267.89303, 333.08679)" />
        <use href="#basicStar3" transform="translate(78.33203, 169.16579000000002)" />
        <use href="#basicStar4" transform="translate(131.90803000000002, 168.53479000000002)" />
        <use href="#basicStar5" transform="translate(248.11203, 190.30479)" />
        <use href="#basicStar1" transform="translate(79.64263, 223.87879)" />
        <use href="#basicStar2" transform="translate(189.01803, 219.77679)" />
        <use href="#basicStar3" transform="translate(104.15903, 154.85179)" />
        <use href="#basicStar4" transform="translate(110.66603, 189.04479)" />
        <use href="#basicStar5" transform="translate(268.62302999999997, 211.54679000000002)" />
        <use href="#basicStar1" transform="translate(100.15303, 245.11979)" />
        <use href="#basicStar2" transform="translate(209.52803, 241.01879)" />
        <use href="#basicStar3" transform="translate(10.83003, 140.30279000000002)" />

        <use href="#smallStar1" transform="translate(339.252, 47.7729)" />
        <use href="#smallStar2" transform="translate(239.907, 220.862)" />
        <use href="#smallStar3" transform="translate(80.4019, 217.672)" />
        <use href="#smallStar4" transform="translate(45.3109, 122.424)" />
        <use href="#smallStar5" transform="translate(288.214, 116.5)" />
        <use href="#smallStar1" transform="translate(250.642, 205.148)" />
        <use href="#smallStar2" transform="translate(250.642, 205.148)" />
        <use href="#smallStar3" transform="translate(91.137, 201.958)" />
        <use href="#smallStar4" transform="translate(56.046, 106.71)" />
        <use href="#smallStar5" transform="translate(298.95, 100.786)" />
        <use href="#smallStar1" transform="translate(248.308, 243.577)" />
        <use href="#smallStar2" transform="translate(270.892, 243.737)" />
        <use href="#smallStar3" transform="translate(254.486, 258.33)" />
        <use href="#smallStar4" transform="translate(88.8035, 240.387)" />
        <use href="#smallStar5" transform="translate(53.7122, 145.139)" />
        <use href="#smallStar1" transform="translate(296.616, 139.215)" />
        <use href="#smallStar2" transform="translate(227.461, 250.423)" />
        <use href="#smallStar3" transform="translate(67.9554, 247.232)" />
        <use href="#smallStar4" transform="translate(32.8641, 151.985)" />
        <use href="#smallStar5" transform="translate(275.768, 146.061)" />
        <use href="#smallStar1" transform="translate(210.657, 227.396)" />
        <use href="#smallStar2" transform="translate(51.1519, 224.206)" />
        <use href="#smallStar3" transform="translate(196.152, 340.807)" />
        <use href="#smallStar4" transform="translate(249.473, 297.057)" />
        <use href="#smallStar5" transform="translate(48.0406, 263.102)" />
        <use href="#smallStar1" transform="translate(15.6837, 205.911)" />
        <use href="#smallStar2" transform="translate(266.791, 160.338)" />
        <use href="#smallStar3" transform="translate(254, 172)" />
        <use href="#smallStar4" transform="translate(87.3, 160.5)" />
        <use href="#smallStar5" transform="translate(53.7122, 68.2808)" />

        <use href="#mediumStar1" transform="translate(333, .5)" />
        <use href="#mediumStar2" transform="translate(277.1, 13.5)" />
        <use href="#mediumStar3" transform="translate(96, 38)" />
        <use href="#mediumStar4" transform="translate(284.5, 45)" />
        <use href="#mediumStar5" transform="translate(325, 61)" />
        <use href="#mediumStar1" transform="translate(299, 81)" />
        <use href="#mediumStar2" transform="translate(24, 95)" />
        <use href="#mediumStar3" transform="translate(310, 118)" />
        <use href="#mediumStar4" transform="translate(88.5, 141)" />
        <use href="#mediumStar5" transform="translate(277, 165)" />
        <use href="#mediumStar1" transform="translate(229.6, 170)" />
        <use href="#mediumStar2" transform="translate(34, 180.3)" />
        <use href="#mediumStar3" transform="translate(219, 194)" />
        <use href="#mediumStar4" transform="translate(308, 204)" />
        <use href="#mediumStar5" transform="translate(102, 220)" />
        <use href="#mediumStar1" transform="translate(262, 222.5)" />
        <use href="#mediumStar2" transform="translate(26.5, 230)" />
        <use href="#mediumStar3" transform="translate(108, 242)" />
        <use href="#mediumStar4" transform="translate(13, 255.5)" />
        <use href="#mediumStar5" transform="translate(289, 262)" />
        <use href="#mediumStar1" transform="translate(71, 267.5)" />
        <use href="#mediumStar2" transform="translate(262, 280)" />
        <use href="#mediumStar3" transform="translate(119, 292)" />
        <use href="#mediumStar4" transform="translate(63, 298)" />
        <use href="#mediumStar5" transform="translate(159, 305)" />

        <use href="#largeStar1" transform="translate(109.1, 14)" />
        <use href="#largeStar2" transform="translate(32, 275)" />
        <use href="#largeStar3" transform="translate(308, 143)" />

      </g>
    </g>

    <defs>
      <circle id="basicStar1" cx="1.50497" cy="3.75921" r="1.16688" fill="white">
        <animate attributeName="opacity" values="1;0;1" dur="2.2s" repeatCount="indefinite" />
      </circle>
      <circle id="basicStar2" cx="1.50497" cy="3.75921" r="1.16688" fill="white">
        <animate attributeName="opacity" values="1;0;1" dur="2.4s" repeatCount="indefinite" />
      </circle>
      <circle id="basicStar3" cx="1.50497" cy="3.75921" r="1.16688" fill="white">
        <animate attributeName="opacity" values="1;0;1" dur="2.6s" repeatCount="indefinite" />
      </circle>
      <circle id="basicStar4" cx="1.50497" cy="3.75921" r="1.16688" fill="white">
        <animate attributeName="opacity" values="1;0;1" dur="2.8s" repeatCount="indefinite" />
      </circle>
      <circle id="basicStar5" cx="1.50497" cy="3.75921" r="1.16688" fill="white">
        <animate attributeName="opacity" values="1;0;1" dur="3s" repeatCount="indefinite" />
      </circle>

      <path id="smallStar1" d="M1.55354 3.10986L1.13332 1.97424L-0.00229941 1.55403L1.13332 1.13381L1.55354 -0.0018114L1.97376 1.13381L3.10938 1.55403L1.97376 1.97424L1.55354 3.10986Z" fill="#FFF7B0">
        <animate attributeName="opacity" values="1;0;1" dur="2.1s" repeatCount="indefinite" />
      </path>
      <path id="smallStar2" d="M1.55354 3.10986L1.13332 1.97424L-0.00229941 1.55403L1.13332 1.13381L1.55354 -0.0018114L1.97376 1.13381L3.10938 1.55403L1.97376 1.97424L1.55354 3.10986Z" fill="#FFF7B0">
        <animate attributeName="opacity" values="1;0;1" dur="2.3s" repeatCount="indefinite" />
      </path>
      <path id="smallStar3" d="M1.55354 3.10986L1.13332 1.97424L-0.00229941 1.55403L1.13332 1.13381L1.55354 -0.0018114L1.97376 1.13381L3.10938 1.55403L1.97376 1.97424L1.55354 3.10986Z" fill="#FFF7B0">
        <animate attributeName="opacity" values="1;0;1" dur="2.5s" repeatCount="indefinite" />
      </path>
      <path id="smallStar4" d="M1.55354 3.10986L1.13332 1.97424L-0.00229941 1.55403L1.13332 1.13381L1.55354 -0.0018114L1.97376 1.13381L3.10938 1.55403L1.97376 1.97424L1.55354 3.10986Z" fill="#FFF7B0">
        <animate attributeName="opacity" values="1;0;1" dur="2.7s" repeatCount="indefinite" />
      </path>
      <path id="smallStar5" d="M1.55354 3.10986L1.13332 1.97424L-0.00229941 1.55403L1.13332 1.13381L1.55354 -0.0018114L1.97376 1.13381L3.10938 1.55403L1.97376 1.97424L1.55354 3.10986Z" fill="#FFF7B0">
        <animate attributeName="opacity" values="1;0;1" dur="2.9s" repeatCount="indefinite" />
      </path>

      <path id="mediumStar1" opacity="0.5" d="M2.7265 5.4502L1.99112 3.46286L0.00378823 2.72748L1.99112 1.9921L2.7265 0.00476432L3.46188 1.9921L5.44922 2.72748L3.46188 3.46286L2.7265 5.4502Z" fill="#FFF7B0">
        <animate attributeName="opacity" values="1;0;1" dur="2.15s" repeatCount="indefinite" />
      </path>
      <path id="mediumStar2" opacity="0.5" d="M2.7265 5.4502L1.99112 3.46286L0.00378823 2.72748L1.99112 1.9921L2.7265 0.00476432L3.46188 1.9921L5.44922 2.72748L3.46188 3.46286L2.7265 5.4502Z" fill="#FFF7B0">
        <animate attributeName="opacity" values="1;0;1" dur="2.35s" repeatCount="indefinite" />
      </path>
      <path id="mediumStar3" opacity="0.5" d="M2.7265 5.4502L1.99112 3.46286L0.00378823 2.72748L1.99112 1.9921L2.7265 0.00476432L3.46188 1.9921L5.44922 2.72748L3.46188 3.46286L2.7265 5.4502Z" fill="#FFF7B0">
        <animate attributeName="opacity" values="1;0;1" dur="2.55s" repeatCount="indefinite" />
      </path>
      <path id="mediumStar4" opacity="0.5" d="M2.7265 5.4502L1.99112 3.46286L0.00378823 2.72748L1.99112 1.9921L2.7265 0.00476432L3.46188 1.9921L5.44922 2.72748L3.46188 3.46286L2.7265 5.4502Z" fill="#FFF7B0">
        <animate attributeName="opacity" values="1;0;1" dur="2.75s" repeatCount="indefinite" />
      </path>
      <path id="mediumStar5" opacity="0.5" d="M2.7265 5.4502L1.99112 3.46286L0.00378823 2.72748L1.99112 1.9921L2.7265 0.00476432L3.46188 1.9921L5.44922 2.72748L3.46188 3.46286L2.7265 5.4502Z" fill="#FFF7B0">
        <animate attributeName="opacity" values="1;0;1" dur="2.95s" repeatCount="indefinite" />
      </path>

      <path id="largeStar1" d="M5.92513 11.8501L4.32498 7.52577L0.000650924 5.92562L4.32498 4.32547L5.92513 0.00114008L7.52528 4.32547L11.8496 5.92562L7.52528 7.52577L5.92513 11.8501Z" fill="#FFF7B0">
        <animate attributeName="opacity" values="1;0;1" dur="2.05s" repeatCount="indefinite" />
      </path>
      <path id="largeStar2" d="M5.92513 11.8501L4.32498 7.52577L0.000650924 5.92562L4.32498 4.32547L5.92513 0.00114008L7.52528 4.32547L11.8496 5.92562L7.52528 7.52577L5.92513 11.8501Z" fill="#FFF7B0">
        <animate attributeName="opacity" values="1;0;1" dur="2.25s" repeatCount="indefinite" />
      </path>
      <path id="largeStar3" d="M5.92513 11.8501L4.32498 7.52577L0.000650924 5.92562L4.32498 4.32547L5.92513 0.00114008L7.52528 4.32547L11.8496 5.92562L7.52528 7.52577L5.92513 11.8501Z" fill="#FFF7B0">
        <animate attributeName="opacity" values="1;0;1" dur="2.45s" repeatCount="indefinite" />
      </path>

      <filter id="filter0_f_1285_67308" x="-1.74284" y="-1.77799" width="353.646" height="353.646" filterUnits="userSpaceOnUse" color-interpolation-filters="sRGB">
        <feFlood flood-opacity="0" result="BackgroundImageFix"/>
        <feBlend mode="normal" in="SourceGraphic" in2="BackgroundImageFix" result="shape"/>
        <feGaussianBlur stdDeviation="0.911458" result="effect1_foregroundBlur_1285_67308"/>
      </filter>
      <filter id="filter1_f_1285_67308" x="-98.2702" y="267.838" width="550.007" height="194.694" filterUnits="userSpaceOnUse" color-interpolation-filters="sRGB">
        <feFlood flood-opacity="0" result="BackgroundImageFix"/>
        <feBlend mode="normal" in="SourceGraphic" in2="BackgroundImageFix" result="shape"/>
        <feGaussianBlur stdDeviation="2.27865" result="effect1_foregroundBlur_1285_67308"/>
      </filter>
      <filter id="filter2_f_1285_67308" x="-103.46" y="-208.456" width="555.71" height="683.015" filterUnits="userSpaceOnUse" color-interpolation-filters="sRGB">
        <feFlood flood-opacity="0" result="BackgroundImageFix"/>
        <feBlend mode="normal" in="SourceGraphic" in2="BackgroundImageFix" result="shape"/>
        <feGaussianBlur stdDeviation="2.27865" result="effect1_foregroundBlur_1285_67308"/>
      </filter>
      <radialGradient id="paint0_radial_1285_67308" cx="0" cy="0" r="1" gradientUnits="userSpaceOnUse" gradientTransform="translate(270.447 106.491) rotate(99.1226) scale(61.1193 174.192)">
        <stop stop-color="white" stop-opacity="0.75"/>
        <stop offset="1" stop-color="white" stop-opacity="0"/>
      </radialGradient>
      <radialGradient id="paint1_radial_1285_67308" cx="0" cy="0" r="1" gradientUnits="userSpaceOnUse" gradientTransform="translate(174.396 182.812) rotate(92.5586) scale(219.36 178.105)">
        <stop stop-color="white" stop-opacity="0.75"/>
        <stop offset="1" stop-color="white" stop-opacity="0"/>
      </radialGradient>
      <clipPath id="clip0_1285_67308">
        <rect width="350" height="350" fill="white"/>
      </clipPath>
    </defs>
  
    
  <!-- Ethereum Overlay -->
  <g clip-path="url(#clip0_625_53334)">
  <g clip-path="url(#clip1_625_53334)">
  <path d="M42.1058 2.27863L41.2437 5.26917V92.0478L42.1058 92.9261L81.5757 69.1157L42.1058 2.27863Z" fill="white" fill-opacity="0.05"/>
  <path d="M41.2317 2.27872L0.911621 69.1061L41.2317 92.9133V50.7997V2.27872Z" fill="white" fill-opacity="0.15"/>
  <path d="M41.7337 100.627L41.2437 101.23V132.083L41.7337 133.529L81.5757 76.8738L41.7337 100.627Z" fill="white" fill-opacity="0.1"/>
  <path d="M41.2317 133.499V100.539L0.911621 76.7436L41.2317 133.499Z" fill="white" fill-opacity="0.15"/>
  <path d="M41.2314 92.9128L81.5509 69.1062L41.2314 50.7998V92.9128Z" fill="white" fill-opacity="0.1"/>
  <path d="M0.911865 69.1062L41.2313 92.9128V50.7998L0.911865 69.1062Z" fill="white" fill-opacity="0.1"/>
  </g>
  <g clip-path="url(#clip2_625_53334)">
  <path d="M263.298 -6.83594L262.728 -4.84224V53.0102L263.298 53.5957L289.388 37.7221L263.298 -6.83594Z" fill="white" fill-opacity="0.05"/>
  <path d="M262.72 -6.83594L236.068 37.7156L262.72 53.5871V25.5114V-6.83594Z" fill="white" fill-opacity="0.15"/>
  <path d="M263.052 58.7295L262.728 59.1316V79.7004L263.052 80.6641L289.388 42.8943L263.052 58.7295Z" fill="white" fill-opacity="0.1"/>
  <path d="M262.72 80.6441V58.6704L236.068 42.8071L262.72 80.6441Z" fill="white" fill-opacity="0.15"/>
  <path d="M262.72 53.5867L289.372 37.7156L262.72 25.5114V53.5867Z" fill="white" fill-opacity="0.1"/>
  <path d="M236.068 37.7156L262.72 53.5867V25.5114L236.068 37.7156Z" fill="white" fill-opacity="0.1"/>
  </g>
  <g clip-path="url(#clip3_625_53334)">
  <path d="M141.618 92.9688L141.048 94.9624V152.815L141.618 153.4L167.708 137.527L141.618 92.9688Z" fill="white" fill-opacity="0.05"/>
  <path d="M141.04 92.9688L114.388 137.52L141.04 153.392V125.316V92.9688Z" fill="white" fill-opacity="0.15"/>
  <path d="M141.372 158.534L141.048 158.936V179.505L141.372 180.469L167.708 142.699L141.372 158.534Z" fill="white" fill-opacity="0.1"/>
  <path d="M141.04 180.449V158.475L114.388 142.612L141.04 180.449Z" fill="white" fill-opacity="0.15"/>
  <path d="M141.04 153.391L167.692 137.52L141.04 125.316V153.391Z" fill="white" fill-opacity="0.1"/>
  <path d="M114.388 137.52L141.04 153.391V125.316L114.388 137.52Z" fill="white" fill-opacity="0.1"/>
  </g>
  <g clip-path="url(#clip4_625_53334)">
  <path d="M-5.1269 125.326L-5.69678 127.319V185.172L-5.1269 185.757L20.9634 169.884L-5.1269 125.326Z" fill="white" fill-opacity="0.05"/>
  <path d="M-5.37282 190.891L-5.69678 191.293V211.862L-5.37282 212.826L20.9634 175.056L-5.37282 190.891Z" fill="white" fill-opacity="0.1"/>
  <path d="M-5.70459 185.748L20.9472 169.877L-5.70459 157.673V185.748Z" fill="white" fill-opacity="0.1"/>
  </g>
  <g clip-path="url(#clip5_625_53334)">
  <path d="M235.954 106.185L235.384 108.179V166.031L235.954 166.617L262.044 150.743L235.954 106.185Z" fill="white" fill-opacity="0.05"/>
  <path d="M235.376 106.185L208.724 150.737L235.376 166.608V138.532V106.185Z" fill="white" fill-opacity="0.15"/>
  <path d="M235.708 171.75L235.384 172.152V192.721L235.708 193.685L262.044 155.915L235.708 171.75Z" fill="white" fill-opacity="0.1"/>
  <path d="M235.376 193.665V171.691L208.724 155.828L235.376 193.665Z" fill="white" fill-opacity="0.15"/>
  <path d="M235.376 166.608L262.028 150.736L235.376 138.532V166.608Z" fill="white" fill-opacity="0.1"/>
  <path d="M208.724 150.736L235.376 166.608V138.532L208.724 150.736Z" fill="white" fill-opacity="0.1"/>
  </g>
  <g clip-path="url(#clip6_625_53334)">
  <path d="M115.186 306.25L114.616 308.244V366.096L115.186 366.682L141.276 350.808L115.186 306.25Z" fill="white" fill-opacity="0.05"/>
  <path d="M114.608 306.25L87.9556 350.802L114.608 366.673V338.597V306.25Z" fill="white" fill-opacity="0.15"/>
  <path d="M114.608 366.673L141.26 350.802L114.608 338.597V366.673Z" fill="white" fill-opacity="0.1"/>
  <path d="M87.9558 350.802L114.608 366.673V338.597L87.9558 350.802Z" fill="white" fill-opacity="0.1"/>
  </g>
  <g clip-path="url(#clip7_625_53334)">
  <path d="M350.22 306.25L323.568 350.802L350.22 366.673V338.597V306.25Z" fill="white" fill-opacity="0.15"/>
  <path d="M323.568 350.802L350.22 366.673V338.597L323.568 350.802Z" fill="white" fill-opacity="0.1"/>
  </g>
  <g clip-path="url(#clip8_625_53334)">
  <path d="M1.70903 244.271L1.13916 246.265V304.117L1.70903 304.703L27.7993 288.829L1.70903 244.271Z" fill="white" fill-opacity="0.05"/>
  <path d="M1.13125 244.271L-25.521 288.822L1.13125 304.694V276.618V244.271Z" fill="white" fill-opacity="0.15"/>
  <path d="M1.46312 309.836L1.13916 310.238V330.807L1.46312 331.771L27.7993 294.001L1.46312 309.836Z" fill="white" fill-opacity="0.1"/>
  <path d="M1.13125 331.751V309.777L-25.521 293.914L1.13125 331.751Z" fill="white" fill-opacity="0.15"/>
  <path d="M1.13135 304.693L27.7832 288.822L1.13135 276.618V304.693Z" fill="white" fill-opacity="0.1"/>
  <path d="M-25.5208 288.822L1.13108 304.693V276.618L-25.5208 288.822Z" fill="white" fill-opacity="0.1"/>
  </g>
  <g clip-path="url(#clip9_625_53334)">
  <path d="M141.618 -36.9141L141.048 -34.9204V22.9321L141.618 23.5176L167.708 7.64399L141.618 -36.9141Z" fill="white" fill-opacity="0.05"/>
  <path d="M141.04 -36.9141L114.388 7.6375L141.04 23.509V-4.56676V-36.9141Z" fill="white" fill-opacity="0.15"/>
  <path d="M141.372 28.6513L141.048 29.0535V49.6222L141.372 50.5859L167.708 12.8162L141.372 28.6513Z" fill="white" fill-opacity="0.1"/>
  <path d="M141.04 50.5659V28.5923L114.388 12.729L141.04 50.5659Z" fill="white" fill-opacity="0.15"/>
  <path d="M141.04 23.5086L167.692 7.63748L141.04 -4.56677V23.5086Z" fill="white" fill-opacity="0.1"/>
  <path d="M114.388 7.63749L141.04 23.5086V-4.56677L114.388 7.63749Z" fill="white" fill-opacity="0.1"/>
  </g>
  <g clip-path="url(#clip10_625_53334)">
  <path d="M82.946 184.57L82.2593 186.959V256.261L82.946 256.962L114.388 237.947L82.946 184.57Z" fill="white" fill-opacity="0.05"/>
  <path d="M82.2497 184.57L50.1304 237.939L82.2497 256.952V223.32V184.57Z" fill="white" fill-opacity="0.15"/>
  <path d="M82.6497 263.112L82.2593 263.594V288.234L82.6497 289.388L114.388 244.143L82.6497 263.112Z" fill="white" fill-opacity="0.1"/>
  <path d="M82.2497 289.364V263.042L50.1304 244.039L82.2497 289.364Z" fill="white" fill-opacity="0.15"/>
  <path d="M82.2493 256.952L114.368 237.939L82.2493 223.32V256.952Z" fill="white" fill-opacity="0.1"/>
  <path d="M50.1306 237.939L82.2495 256.952V223.32L50.1306 237.939Z" fill="white" fill-opacity="0.1"/>
  </g>
  <g clip-path="url(#clip11_625_53334)">
  <path d="M349.994 80.6641L349.089 83.8207V175.42L349.994 176.348L391.471 151.214L349.994 80.6641Z" fill="white" fill-opacity="0.05"/>
  <path d="M349.076 80.6641L306.706 151.204L349.076 176.334V131.881V80.6641Z" fill="white" fill-opacity="0.15"/>
  <path d="M349.604 184.476L349.089 185.113V217.68L349.604 219.206L391.471 159.404L349.604 184.476Z" fill="white" fill-opacity="0.1"/>
  <path d="M349.076 219.174V184.383L306.706 159.266L349.076 219.174Z" fill="white" fill-opacity="0.15"/>
  <path d="M349.076 176.333L391.445 151.204L349.076 131.881V176.333Z" fill="white" fill-opacity="0.1"/>
  <path d="M306.706 151.204L349.075 176.333V131.881L306.706 151.204Z" fill="white" fill-opacity="0.1"/>
  </g>
  <g clip-path="url(#clip12_625_53334)">
  <path d="M236.935 224.219L236.068 227.23V314.611L236.935 315.496L276.628 291.52L236.935 224.219Z" fill="white" fill-opacity="0.05"/>
  <path d="M236.056 224.219L195.508 291.51L236.056 315.483V273.077V224.219Z" fill="white" fill-opacity="0.15"/>
  <path d="M236.561 323.25L236.068 323.857V354.925L236.561 356.38L276.628 299.332L236.561 323.25Z" fill="white" fill-opacity="0.1"/>
  <path d="M236.056 356.35V323.161L195.508 299.201L236.056 356.35Z" fill="white" fill-opacity="0.15"/>
  <path d="M236.056 315.482L276.603 291.51L236.056 273.077V315.482Z" fill="white" fill-opacity="0.1"/>
  <path d="M195.508 291.51L236.055 315.482V273.077L195.508 291.51Z" fill="white" fill-opacity="0.1"/>
  </g>
  </g>
  <defs>
  <clipPath id="clip0_625_53334">
  <rect width="350" height="350" fill="white"/>
  </clipPath>
  <clipPath id="clip1_625_53334">
  <rect width="80.6641" height="131.25" fill="white" transform="translate(0.911621 2.27872)"/>
  </clipPath>
  <clipPath id="clip2_625_53334">
  <rect width="53.3203" height="87.5" fill="white" transform="translate(236.068 -6.83594)"/>
  </clipPath>
  <clipPath id="clip3_625_53334">
  <rect width="53.3203" height="87.5" fill="white" transform="translate(114.388 92.9688)"/>
  </clipPath>
  <clipPath id="clip4_625_53334">
  <rect width="53.3203" height="87.5" fill="white" transform="translate(-32.3569 125.326)"/>
  </clipPath>
  <clipPath id="clip5_625_53334">
  <rect width="53.3203" height="87.5" fill="white" transform="translate(208.724 106.185)"/>
  </clipPath>
  <clipPath id="clip6_625_53334">
  <rect width="53.3203" height="87.5" fill="white" transform="translate(87.9556 306.25)"/>
  </clipPath>
  <clipPath id="clip7_625_53334">
  <rect width="53.3203" height="87.5" fill="white" transform="translate(323.568 306.25)"/>
  </clipPath>
  <clipPath id="clip8_625_53334">
  <rect width="53.3203" height="87.5" fill="white" transform="translate(-25.521 244.271)"/>
  </clipPath>
  <clipPath id="clip9_625_53334">
  <rect width="53.3203" height="87.5" fill="white" transform="translate(114.388 -36.9141)"/>
  </clipPath>
  <clipPath id="clip10_625_53334">
  <rect width="64.2578" height="104.818" fill="white" transform="translate(50.1304 184.57)"/>
  </clipPath>
  <clipPath id="clip11_625_53334">
  <rect width="84.7656" height="138.542" fill="white" transform="translate(306.706 80.6641)"/>
  </clipPath>
  <clipPath id="clip12_625_53334">
  <rect width="81.1198" height="132.161" fill="white" transform="translate(195.508 224.219)"/>
  </clipPath>
  </defs>

    
    
  <!-- Normal Glass -->
    <path d="M148.717 95L125.019 209.98C124.948 210.324 125.078 210.673 125.367 210.873C128.479 213.027 147.033 225 175 225C202.967 225 221.521 213.027 224.633 210.873C224.922 210.673 225.052 210.324 224.981 209.98L201.283 95C201.249 95.0666 201.205 95.1285 201.15 95.1836C199.818 96.5241 193.18 102.106 175 102.106C156.82 102.106 150.182 96.5241 148.85 95.1836C148.795 95.1285 148.751 95.0666 148.717 95Z" fill="#FFFFFF" fill-opacity="0.6"/>
  
    
    
    <!-- Lava 1 -->
    <!-- Color -->
    <!-- filter -->
    <path d="M201.33 94.2312L205.4 114.032C203.808 113.761 202.153 113.448 200.459 113.128C186.293 110.453 169.479 107.277 165.223 123.731C163.365 130.915 166.057 135.213 168.676 139.394C171.205 143.431 173.665 147.359 171.9 153.669C169.751 161.35 158.067 166.325 148.671 162.995C138.746 159.477 139.443 144.904 145.148 137.85C150.853 130.795 151.677 120.031 150.853 112.871C150.454 109.41 148.742 106.935 146.502 105.251L148.841 93.8809C148.875 93.9478 148.92 94.0101 148.975 94.0656C150.853 95.9589 156.979 101.03 175.237 101.03C192.824 101.03 199.656 95.8196 201.33 94.2312Z" fill="url(#paint0_radial_931_113783)"/>
    <mask id="mask0_931_113783" style="mask-type:alpha" maskUnits="userSpaceOnUse" x="141" y="93" width="65" height="72">
    <path d="M201.33 94.2302L205.4 114.031C203.808 113.76 202.153 113.447 200.459 113.127C186.293 110.452 169.479 107.276 165.223 123.73C163.365 130.914 166.057 135.212 168.676 139.393C171.205 143.43 173.665 147.358 171.9 153.668C169.751 161.349 158.067 166.324 148.671 162.994C138.746 159.476 139.443 144.903 145.148 137.849C150.853 130.794 151.677 120.03 150.853 112.87C150.454 109.409 148.742 106.934 146.502 105.25L148.841 93.8799C148.875 93.9469 148.92 94.0092 148.975 94.0646C150.313 95.4133 156.979 101.029 175.237 101.029C192.824 101.029 199.656 95.8187 201.33 94.2302Z" fill="url(#paint1_radial_931_113783)"/>
    </mask>
    <g mask="url(#mask0_931_113783)">
    <g filter="url(#filter0_f_931_113783)">
    <mask id="mask1_931_113783" style="mask-type:alpha" maskUnits="userSpaceOnUse" x="125" y="94" width="101" height="132">
    <path d="M149.015 95.0639C149.102 94.6401 149.475 94.3359 149.907 94.3359H200.399C200.831 94.3359 201.205 94.6401 201.292 95.0639L225.146 211.159C225.227 211.555 225.041 211.955 224.68 212.137C220.777 214.109 198.528 224.817 175.153 225.128C151.731 225.438 129.441 214.178 125.603 212.141C125.253 211.954 125.077 211.562 125.157 211.173L149.015 95.0639Z" fill="#577096" fill-opacity="0.75"/>
    </mask>
    <g mask="url(#mask1_931_113783)">
    <g filter="url(#filter1_f_931_113783)">
    <path d="M207.362 76.1064C211.019 110.268 146.094 132.571 113.174 139.453L113.174 76.1064L207.362 76.1064Z" fill="url(#paint2_linear_931_113783)" fill-opacity="0.5"/>
    </g>
    <g filter="url(#filter2_f_931_113783)">
    <path d="M155.56 125.301C156.622 105.018 134.624 86.1828 129.082 66.9985C133.541 65.1973 144.203 70.7896 152.828 76.1247C163.609 82.7936 163.032 109.124 164.778 125.784C166.175 139.112 148.606 223.401 144.168 241.481L131.869 240.837C140.395 214.68 154.74 140.955 155.56 125.301Z" fill="url(#paint3_linear_931_113783)" fill-opacity="0.6"/>
    </g>
    </g>
    </g>
    </g>
    <defs>
    <filter id="filter0_f_931_113783" x="122.744" y="92.0573" width="104.986" height="135.355" filterUnits="userSpaceOnUse" color-interpolation-filters="sRGB">
    <feFlood flood-opacity="0" result="BackgroundImageFix"/>
    <feBlend mode="normal" in="SourceGraphic" in2="BackgroundImageFix" result="shape"/>
    <feGaussianBlur stdDeviation="1.13932" result="effect1_foregroundBlur_931_113783"/>
    </filter>
    <filter id="filter1_f_931_113783" x="112.262" y="75.195" width="96.1589" height="65.1696" filterUnits="userSpaceOnUse" color-interpolation-filters="sRGB">
    <feFlood flood-opacity="0" result="BackgroundImageFix"/>
    <feBlend mode="normal" in="SourceGraphic" in2="BackgroundImageFix" result="shape"/>
    <feGaussianBlur stdDeviation="0.455729" result="effect1_foregroundBlur_931_113783"/>
    </filter>
    <filter id="filter2_f_931_113783" x="128.17" y="65.7428" width="37.5978" height="176.65" filterUnits="userSpaceOnUse" color-interpolation-filters="sRGB">
    <feFlood flood-opacity="0" result="BackgroundImageFix"/>
    <feBlend mode="normal" in="SourceGraphic" in2="BackgroundImageFix" result="shape"/>
    <feGaussianBlur stdDeviation="0.455729" result="effect1_foregroundBlur_931_113783"/>
    </filter>
    <radialGradient id="paint0_radial_931_113783" cx="0" cy="0" r="1" gradientUnits="userSpaceOnUse" gradientTransform="translate(156.087 109.102) rotate(53.0717) scale(37.8406 40.3077)">
    <stop offset="0.203125" style="stop-color: #5000B6;"/>
    <stop offset="0.890625" style="stop-color: #7E5EFF;"/>
    </radialGradient>
    <radialGradient id="paint1_radial_931_113783" cx="0" cy="0" r="1" gradientUnits="userSpaceOnUse" gradientTransform="translate(156.087 109.101) rotate(53.0717) scale(37.8406 40.3077)">
    <stop offset="0.203125" stop-color="#71FF30"/>
    <stop offset="0.890625" stop-color="#25BC46"/>
    </radialGradient>
    <linearGradient id="paint2_linear_931_113783" x1="145.368" y1="123.01" x2="155.982" y2="72.2914" gradientUnits="userSpaceOnUse">
    <stop stop-color="white" stop-opacity="0"/>
    <stop offset="0.471361" stop-color="white"/>
    <stop offset="1" stop-color="white"/>
    </linearGradient>
    <linearGradient id="paint3_linear_931_113783" x1="160.882" y1="220.938" x2="202.107" y2="178" gradientUnits="userSpaceOnUse">
    <stop stop-color="#F2F2F2"/>
    <stop offset="0.0001" stop-color="#F2F2F2"/>
    <stop offset="0.0520833" stop-color="#F2F2F2" stop-opacity="0.948011"/>
    <stop offset="1" stop-color="#F2F2F2" stop-opacity="0"/>
    </linearGradient>
    </defs>
  
    
  <!-- Lava 2 -->
    <!-- Color -->
<path d="M178.202 131.059C178.202 128.163 180.222 122.394 188.299 122.479C196.377 122.565 198.468 128.235 198.504 131.059C198.576 133.132 197.365 137.622 191.952 138.995C185.184 140.711 178.202 136.85 178.202 131.059Z" fill="url(#paint0_radial_931_113845)"/>
<defs>
<radialGradient id="paint0_radial_931_113845" cx="0" cy="0" r="1" gradientUnits="userSpaceOnUse" gradientTransform="translate(182.959 126.151) rotate(45.5119) scale(10.2292 11.3416)">
<stop offset="0.203125" style="stop-color: #21F6EA;"/>
<stop offset="0.890625" style="stop-color: #2183F6;"/>
</radialGradient>
</defs>
  
    
  <!-- Lava 3 -->
    <!-- Color -->
    <path d="M214.381 157.604L219.2 181.084C217.285 183.349 214.448 185.339 210.334 186.382C197.471 189.642 184.2 182.306 184.2 171.303C184.2 165.801 188.039 154.839 203.392 155.002C208.021 155.051 211.616 156.065 214.381 157.604Z" fill="url(#paint0_radial_931_113862)"/>
<defs>
<radialGradient id="paint0_radial_931_113862" cx="0" cy="0" r="1" gradientUnits="userSpaceOnUse" gradientTransform="translate(192.4 161.977) rotate(48.2936) scale(18.5718 20.4588)">
<stop offset="0.203125" style="stop-color: #FFFFFF;"/>
<stop offset="0.890625" style="stop-color: #D0C9C9;"/>
</radialGradient>
</defs>
  
    
  <!-- Lava 4 -->
    <!-- Color -->
    <path d="M225 210.659C220.5 214 200.704 225 175.402 225C147.201 225 128.492 213.024 125.354 210.869C125.163 210.738 125.042 210.543 125 210.328C128.968 198.996 144.393 175.959 164.496 181.99C174.451 184.976 181.421 192.474 187.975 199.525C198.127 210.446 208 213.5 225 210.659C224.675 211.045 225.345 210.27 225 210.659Z" fill="url(#paint0_radial_931_113863)"/>
<mask id="mask0_931_113863" style="mask-type:alpha" maskUnits="userSpaceOnUse" x="124" y="180" width="101" height="45">
<path d="M223.866 211.799C218.236 215.343 200.575 225 175.272 225C147.071 225 128.362 213.003 125.225 210.845C125.034 210.714 124.912 210.519 124.87 210.303C128.839 198.951 144.263 175.875 164.366 181.916C174.321 184.908 181.291 192.418 187.845 199.481C197.997 210.421 207.154 220.288 224.87 210.635C224.545 211.021 224.21 211.409 223.866 211.799Z" fill="url(#paint1_radial_931_113863)"/>
</mask>
<g mask="url(#mask0_931_113863)">
<g filter="url(#filter0_f_931_113863)">
<mask id="mask1_931_113863" style="mask-type:alpha" maskUnits="userSpaceOnUse" x="124" y="94" width="102" height="132">
<path d="M148.862 95.3198C148.949 94.896 149.322 94.5918 149.755 94.5918H200.246C200.679 94.5918 201.052 94.896 201.139 95.3198L224.993 211.414C225.075 211.811 224.888 212.211 224.527 212.393C220.624 214.365 198.376 225.073 175 225.383C151.578 225.694 129.288 214.434 125.45 212.396C125.1 212.21 124.924 211.818 125.004 211.429L148.862 95.3198Z" fill="#577096" fill-opacity="0.75"/>
</mask>
<g mask="url(#mask1_931_113863)">
<g filter="url(#filter1_f_931_113863)">
<path d="M155.407 125.557C156.47 105.273 134.471 86.4386 128.929 67.2543C133.388 65.4531 144.05 71.0455 152.675 76.3806C163.456 83.0494 162.879 109.38 164.625 126.04C166.022 139.368 148.453 223.657 144.015 241.737L131.716 241.093C140.242 214.936 154.587 141.211 155.407 125.557Z" fill="url(#paint2_linear_931_113863)" fill-opacity="0.6"/>
</g>
</g>
</g>
</g>
<defs>
<filter id="filter0_f_931_113863" x="122.591" y="92.3132" width="105.59" height="135.355" filterUnits="userSpaceOnUse" color-interpolation-filters="sRGB">
<feFlood flood-opacity="0" result="BackgroundImageFix"/>
<feBlend mode="normal" in="SourceGraphic" in2="BackgroundImageFix" result="shape"/>
<feGaussianBlur stdDeviation="1.13932" result="effect1_foregroundBlur_931_113863"/>
</filter>
<filter id="filter1_f_931_113863" x="128.017" y="65.9987" width="37.5983" height="176.65" filterUnits="userSpaceOnUse" color-interpolation-filters="sRGB">
<feFlood flood-opacity="0" result="BackgroundImageFix"/>
<feBlend mode="normal" in="SourceGraphic" in2="BackgroundImageFix" result="shape"/>
<feGaussianBlur stdDeviation="0.455729" result="effect1_foregroundBlur_931_113863"/>
</filter>
<radialGradient id="paint0_radial_931_113863" cx="0" cy="0" r="1" gradientUnits="userSpaceOnUse" gradientTransform="translate(148.451 190.545) rotate(28.2255) scale(40.1081 37.0676)">
<stop offset="0.203125" style="stop-color: #FF00D6;"/>
<stop offset="0.890625" style="stop-color: #D700B4;"/>
</radialGradient>
<radialGradient id="paint1_radial_931_113863" cx="0" cy="0" r="1" gradientUnits="userSpaceOnUse" gradientTransform="translate(146.382 191.229) rotate(27.0849) scale(58.9221 42.3164)">
<stop offset="0.302083" stop-color="#FFB800"/>
<stop offset="1" stop-color="#FF7800"/>
</radialGradient>
<linearGradient id="paint2_linear_931_113863" x1="160.729" y1="221.194" x2="201.954" y2="178.256" gradientUnits="userSpaceOnUse">
<stop stop-color="#F2F2F2"/>
<stop offset="0.0001" stop-color="#F2F2F2"/>
<stop offset="0.0520833" stop-color="#F2F2F2" stop-opacity="0.948011"/>
<stop offset="1" stop-color="#F2F2F2" stop-opacity="0"/>
</linearGradient>
</defs>
  
  
    
  <!-- Emerald Standard -->
  <path d="M125.511 312.015C125.13 311.81 124.966 311.367 125.102 310.956L138.023 271.847C138.074 271.692 138.083 271.527 138.048 271.368L125.382 212.874C125.204 212.051 126.171 211.397 126.886 211.843C132.551 215.376 149.852 224.677 174.998 224.677C200.145 224.677 217.446 215.376 223.111 211.843C223.825 211.397 224.793 212.051 224.615 212.874L211.949 271.368C211.914 271.527 211.923 271.692 211.974 271.847L224.895 310.956C225.031 311.367 224.867 311.81 224.485 312.015C220.652 314.075 200.122 324.434 174.998 324.434C149.875 324.434 129.345 314.075 125.511 312.015Z" fill="url(#paint0_linear_737_226372)"/>
  <g filter="url(#filter0_f_737_226372)">
  <mask id="mask0_737_226372" style="mask-type:alpha" maskUnits="userSpaceOnUse" x="125" y="211" width="101" height="114">
  <path d="M125.642 312.073C125.261 311.869 125.097 311.425 125.233 311.014L138.154 271.881C138.205 271.726 138.214 271.561 138.18 271.402L125.374 212.226C125.217 211.503 125.939 210.879 126.634 211.134C131.867 213.055 149.387 218.68 175.13 218.68C200.873 218.68 218.393 213.055 223.626 211.134C224.321 210.879 225.043 211.503 224.886 212.226L212.08 271.402C212.046 271.561 212.055 271.726 212.106 271.881L225.027 311.014C225.163 311.425 224.999 311.869 224.618 312.073C220.785 314.134 200.254 324.5 175.13 324.5C150.006 324.5 129.475 314.134 125.642 312.073Z" fill="#2D2E32"/>
  <path d="M125.642 312.073C125.261 311.869 125.097 311.425 125.233 311.014L138.154 271.881C138.205 271.726 138.214 271.561 138.18 271.402L125.374 212.226C125.217 211.503 125.939 210.879 126.634 211.134C131.867 213.055 149.387 218.68 175.13 218.68C200.873 218.68 218.393 213.055 223.626 211.134C224.321 210.879 225.043 211.503 224.886 212.226L212.08 271.402C212.046 271.561 212.055 271.726 212.106 271.881L225.027 311.014C225.163 311.425 224.999 311.869 224.618 312.073C220.785 314.134 200.254 324.5 175.13 324.5C150.006 324.5 129.475 314.134 125.642 312.073Z" fill="url(#paint1_linear_737_226372)"/>
  </mask>
  <g mask="url(#mask0_737_226372)">
  <g opacity="0.25" filter="url(#filter1_df_737_226372)">
  <path d="M74.3257 272.825C169.438 275.529 231.534 227.54 250.693 203.208H74.3257V272.825Z" fill="url(#paint2_linear_737_226372)" fill-opacity="0.55" shape-rendering="crispEdges"/>
  </g>
  <path opacity="0.25" d="M135.363 266.428C135.363 243.578 108.929 195.563 99.1391 174.337C105.666 172.051 122.049 168.85 135.363 174.337C152.007 181.194 157.629 243.465 161.546 262.079C164.678 276.971 140.585 326.189 135.363 346.763H69.7681C119.699 320.311 135.363 284.062 135.363 266.428Z" fill="url(#paint3_radial_737_226372)"/>
  <path opacity="0.25" d="M149.946 270.53C149.946 247.679 123.512 199.665 113.722 178.438C120.249 176.152 136.632 172.952 149.946 178.438C166.59 185.296 172.212 247.567 176.129 266.181C179.261 281.072 155.168 330.291 149.946 350.865H84.3511C134.282 324.413 149.946 288.164 149.946 270.53Z" fill="url(#paint4_radial_737_226372)"/>
  </g>
  </g>
  <path d="M175.438 324.935C200.391 324.935 220.781 314.575 224.588 312.516C224.967 312.311 225.13 311.867 224.995 311.456L212.162 272.347C212.111 272.192 212.102 272.027 212.137 271.868L224.855 212.729C224.996 212.073 224.422 211.5 223.799 211.587C224.208 211.319 224.531 211.098 224.765 210.933C225.053 210.732 225.182 210.381 225.111 210.036L201.398 93.6969C201.344 93.4299 201.176 93.2103 200.953 93.0843L195.58 55.4279C195.576 55.4008 195.573 55.3741 195.57 55.3473C195.567 55.3261 195.565 55.305 195.562 55.2835C195.47 54.6579 194.147 50.1302 175 50.1302L175.438 324.935Z" fill="#161A70" fill-opacity="0.1"/>
  <path d="M154.31 56.3282C154.32 56.2595 154.322 56.1924 154.328 56.1233C154.4 55.3956 155.624 51 174.785 51C194.296 51 195.584 55.5581 195.668 56.1595C195.675 56.2036 195.678 56.2468 195.684 56.2909L201.374 94.8616C201.411 95.1109 201.344 95.3615 201.167 95.5407C199.834 96.8878 193.192 102.497 175 102.497C156.807 102.497 150.165 96.8878 148.832 95.5407C148.655 95.3615 148.588 95.1109 148.625 94.8616L154.31 56.3282Z" fill="url(#paint5_linear_737_226372)"/>
  <defs>
  <filter id="filter0_f_737_226372" x="121.721" y="208.221" width="106.185" height="118.557" filterUnits="userSpaceOnUse" color-interpolation-filters="sRGB">
  <feFlood flood-opacity="0" result="BackgroundImageFix"/>
  <feBlend mode="normal" in="SourceGraphic" in2="BackgroundImageFix" result="shape"/>
  <feGaussianBlur stdDeviation="1.13932" result="effect1_foregroundBlur_737_226372"/>
  </filter>
  <filter id="filter1_df_737_226372" x="72.9585" y="202.297" width="179.102" height="72.9167" filterUnits="userSpaceOnUse" color-interpolation-filters="sRGB">
  <feFlood flood-opacity="0" result="BackgroundImageFix"/>
  <feColorMatrix in="SourceAlpha" type="matrix" values="0 0 0 0 0 0 0 0 0 0 0 0 0 0 0 0 0 0 127 0" result="hardAlpha"/>
  <feOffset dy="0.911458"/>
  <feGaussianBlur stdDeviation="0.683594"/>
  <feComposite in2="hardAlpha" operator="out"/>
  <feColorMatrix type="matrix" values="0 0 0 0 0 0 0 0 0 0 0 0 0 0 0 0 0 0 0.25 0"/>
  <feBlend mode="normal" in2="BackgroundImageFix" result="effect1_dropShadow_737_226372"/>
  <feBlend mode="normal" in="SourceGraphic" in2="effect1_dropShadow_737_226372" result="shape"/>
  <feGaussianBlur stdDeviation="0.455729" result="effect2_foregroundBlur_737_226372"/>
  </filter>
  <linearGradient id="paint0_linear_737_226372" x1="138.996" y1="229.188" x2="231.145" y2="314.387" gradientUnits="userSpaceOnUse">
  <stop stop-color="#003802"/>
  <stop offset="0.473958" stop-color="#07A70C" stop-opacity="0.98"/>
  <stop offset="1" stop-color="#B5FFB7" stop-opacity="0.98"/>
  </linearGradient>
  <linearGradient id="paint1_linear_737_226372" x1="125" y1="210.5" x2="242.237" y2="295.853" gradientUnits="userSpaceOnUse">
  <stop stop-color="#C3C3C3"/>
  <stop offset="1" stop-color="#C3C3C3" stop-opacity="0.15"/>
  </linearGradient>
  <linearGradient id="paint2_linear_737_226372" x1="204.912" y1="227.004" x2="114.012" y2="298.665" gradientUnits="userSpaceOnUse">
  <stop stop-color="white" stop-opacity="0"/>
  <stop offset="0.471361" stop-color="white"/>
  <stop offset="1" stop-color="white"/>
  </linearGradient>
  <radialGradient id="paint3_radial_737_226372" cx="0" cy="0" r="1" gradientUnits="userSpaceOnUse" gradientTransform="translate(123.95 264.847) rotate(79.4004) scale(83.3383 37.0268)">
  <stop stop-color="#F2F2F2"/>
  <stop offset="0.0001" stop-color="#F2F2F2"/>
  <stop offset="1" stop-color="#F2F2F2" stop-opacity="0"/>
  </radialGradient>
  <radialGradient id="paint4_radial_737_226372" cx="0" cy="0" r="1" gradientUnits="userSpaceOnUse" gradientTransform="translate(138.533 268.948) rotate(79.4004) scale(83.3383 37.0268)">
  <stop stop-color="#F2F2F2"/>
  <stop offset="0.0001" stop-color="#F2F2F2"/>
  <stop offset="1" stop-color="#F2F2F2" stop-opacity="0"/>
  </radialGradient>
  <linearGradient id="paint5_linear_737_226372" x1="156.016" y1="59.4456" x2="197.677" y2="104.379" gradientUnits="userSpaceOnUse">
  <stop stop-color="#003802"/>
  <stop offset="0.473958" stop-color="#07A70C" stop-opacity="0.98"/>
  <stop offset="1" stop-color="#B5FFB7" stop-opacity="0.98"/>
  </linearGradient>
  </defs>
  
    
    </svg>
  