
    <svg width="350" height="350" viewBox="0 0 350 350" fill="none" xmlns="http://www.w3.org/2000/svg">
    
  <!-- Magma BG -->
  <g clip-path="url(#clip0_28_264)">
  <rect x="0.0800781" y="0.0449219" width="350" height="350" fill="#5A1320"/>
  <rect x="0.0800781" y="0.0449219" width="350" height="350" fill="url(#paint0_radial_28_264)" fill-opacity="0.2"/>
  <path d="M125.979 290.538L299.833 190.751L430.988 233.879L212.56 294.049L125.979 290.538Z" fill="url(#paint1_linear_28_264)"/>
  <g opacity="0.45" filter="url(#filter0_f_28_264)">
  <ellipse rx="194.596" ry="66.7643" transform="matrix(0.999998 0.00221055 0.00221055 -0.999998 176.078 304.637)" fill="url(#paint2_radial_28_264)"/>
  </g>
  <g opacity="0.7" filter="url(#filter1_f_28_264)">
  <ellipse cx="174.396" cy="137.609" rx="196.647" ry="242.448" transform="rotate(0.126655 174.396 137.609)" fill="url(#paint3_radial_28_264)"/>
  </g>
  </g>
  <defs>
  <filter id="filter0_f_28_264" x="-23.0756" y="233.315" width="398.306" height="142.646" filterUnits="userSpaceOnUse" color-interpolation-filters="sRGB">
  <feFlood flood-opacity="0" result="BackgroundImageFix"/>
  <feBlend mode="normal" in="SourceGraphic" in2="BackgroundImageFix" result="shape"/>
  <feGaussianBlur stdDeviation="2.27865" result="effect1_foregroundBlur_28_264"/>
  </filter>
  <filter id="filter1_f_28_264" x="-26.8085" y="-109.396" width="402.409" height="494.01" filterUnits="userSpaceOnUse" color-interpolation-filters="sRGB">
  <feFlood flood-opacity="0" result="BackgroundImageFix"/>
  <feBlend mode="normal" in="SourceGraphic" in2="BackgroundImageFix" result="shape"/>
  <feGaussianBlur stdDeviation="2.27865" result="effect1_foregroundBlur_28_264"/>
  </filter>
  <radialGradient id="paint0_radial_28_264" cx="0" cy="0" r="1" gradientUnits="userSpaceOnUse" gradientTransform="translate(156.623 401.542) rotate(-84.441) scale(239.93 241.682)">
  <stop/>
  <stop offset="1" stop-opacity="0"/>
  </radialGradient>
  <linearGradient id="paint1_linear_28_264" x1="194.836" y1="271.638" x2="316.538" y2="167.936" gradientUnits="userSpaceOnUse">
  <stop/>
  <stop offset="1" stop-color="#333333" stop-opacity="0"/>
  </linearGradient>
  <radialGradient id="paint2_radial_28_264" cx="0" cy="0" r="1" gradientUnits="userSpaceOnUse" gradientTransform="translate(194.596 76.624) rotate(99.1226) scale(43.9775 125.337)">
  <stop stop-color="#CF0000"/>
  <stop offset="1" stop-color="#CF0000" stop-opacity="0"/>
  </radialGradient>
  <radialGradient id="paint3_radial_28_264" cx="0" cy="0" r="1" gradientUnits="userSpaceOnUse" gradientTransform="translate(174.396 173.413) rotate(92.5586) scale(157.837 128.153)">
  <stop stop-color="#CF0000"/>
  <stop offset="1" stop-color="#CF0000" stop-opacity="0"/>
  </radialGradient>
  <clipPath id="clip0_28_264">
  <rect width="350" height="350" fill="white"/>
  </clipPath>
  </defs>

    
  <!-- Peace Overlay -->
  <g clip-path="url(#clip0_589_71590)">
  <g style="mix-blend-mode:overlay">
  <path fill-rule="evenodd" clip-rule="evenodd" d="M10.4379 299.782C54.2425 325.073 110.255 310.064 135.546 266.26C160.836 222.455 145.828 166.443 102.023 141.152C58.2186 115.861 2.20598 130.87 -23.0846 174.674C-48.3752 218.479 -33.3666 274.492 10.4379 299.782ZM-9.86541 182.307C9.86998 148.124 52.0544 134.983 87.3131 150.756L50.9372 213.761L-19.1329 232.536C-21.8199 215.821 -18.9898 198.11 -9.86541 182.307ZM64.1566 221.392L100.563 158.335C132.246 180.885 142.166 224.264 122.326 258.628C113.124 274.566 99.0408 285.93 83.0547 291.921L64.1566 221.392ZM68.2994 295.83C53.8483 298.153 38.6526 296.353 24.5887 289.926L53.3631 240.087L68.2994 295.83ZM-15.2237 247.291L40.1438 232.455L11.4 282.241C-1.06459 273.218 -10.1055 260.949 -15.2237 247.291Z" fill="white" fill-opacity="0.25"/>
  </g>
  <g style="mix-blend-mode:overlay">
  <path fill-rule="evenodd" clip-rule="evenodd" d="M345.565 216.307C379.83 196.524 391.57 152.71 371.787 118.446C352.005 84.1811 308.191 72.4411 273.926 92.2239C239.661 112.007 227.921 155.821 247.704 190.085C267.487 224.35 311.301 236.09 345.565 216.307ZM258.044 184.115C242.607 157.377 250.204 123.661 274.679 105.945L303.132 155.228L288.446 210.038C276.072 205.321 265.182 196.477 258.044 184.115ZM313.472 149.258L284.995 99.9336C312.662 87.2904 345.928 97.536 361.447 124.416C368.645 136.883 370.835 150.868 368.641 164.04L313.472 149.258ZM365.518 175.565C361.44 186.263 354.277 195.853 344.423 202.866L321.915 163.881L365.518 175.565ZM299.97 213.161L311.575 169.852L334.059 208.795C323.072 213.71 311.224 215.036 299.97 213.161Z" fill="white" fill-opacity="0.25"/>
  </g>
  <g style="mix-blend-mode:overlay">
  <path fill-rule="evenodd" clip-rule="evenodd" d="M161.393 63.318C185.12 49.619 193.25 19.2788 179.551 -4.4486C165.852 -28.176 135.511 -36.3056 111.784 -22.6066C88.0565 -8.90756 79.9269 21.4326 93.626 45.16C107.325 68.8874 137.665 77.017 161.393 63.318ZM100.786 41.0259C90.0963 22.5103 95.3571 -0.837106 112.305 -13.1052L132.009 21.0224L121.839 58.977C113.27 55.7107 105.729 49.5864 100.786 41.0259ZM139.169 16.8882L119.449 -17.2678C138.608 -26.0229 161.644 -18.928 172.39 -0.31455C177.375 8.31889 178.891 18.0031 177.372 27.1247L139.169 16.8882ZM175.209 35.1051C172.385 42.5132 167.425 49.1538 160.601 54.0105L145.015 27.0146L175.209 35.1051ZM129.819 61.1395L137.855 31.1488L153.425 58.116C145.816 61.5194 137.612 62.4376 129.819 61.1395Z" fill="white" fill-opacity="0.25"/>
  </g>
  </g>
  <defs>
  <clipPath id="clip0_589_71590">
  <rect width="350" height="350" fill="white"/>
  </clipPath>
  </defs>

    
  <!-- Lavalien -->
  <path d="M132.217 148.893C133.369 143.879 132.019 140.681 130.106 139.775C126.692 138.157 123.779 143.829 123.241 147.97C122.702 152.112 123.365 154.939 125.18 155.792C126.995 156.646 131.066 153.906 132.217 148.893Z" fill="#6DF244"/>
  <path d="M101.432 185.348C100.221 184.237 99.3133 182.943 98.6987 181.557L82.9585 181.836L82.833 174.765L97.98 174.497C98.6124 171.548 100.402 168.826 103.273 167.1L107.337 164.656C110.071 163.013 113.156 162.656 115.962 163.347L123.022 150.601L129.208 154.028L121.984 167.071C122.931 168.191 123.681 169.521 124.157 171.031L128.822 191.505L125.68 206.772L101.432 185.348Z" fill="url(#paint0_radial_584_56451)"/>
  <path d="M77.0117 182.086C72.0439 180.752 69.8523 178.06 69.9489 175.945C70.1211 172.171 76.4968 172.258 80.4069 173.725C84.317 175.191 86.5032 177.103 86.4059 179.106C86.3086 181.109 81.9795 183.42 77.0117 182.086Z" fill="#6DF244"/>
  <path d="M63.7818 146.019C61.4618 138.794 61.1675 113.292 69.9172 108.032C78.6668 102.771 100.283 115.452 106.153 120.542C112.024 125.633 118.487 130.715 118.254 142.03C117.961 156.271 109.346 166.274 106.011 168.279C102.676 170.284 89.801 173.202 77.0856 166.783C66.982 161.683 66.1018 153.244 63.7818 146.019Z" fill="#6DF244"/>
  <path d="M63.7818 146.019C61.4618 138.794 61.1675 113.292 69.9172 108.032C78.6668 102.771 100.283 115.452 106.153 120.542C112.024 125.633 118.487 130.715 118.254 142.03C117.961 156.271 109.346 166.274 106.011 168.279C102.676 170.284 89.801 173.202 77.0856 166.783C66.982 161.683 66.1018 153.244 63.7818 146.019Z" fill="url(#paint1_linear_584_56451)" fill-opacity="0.8"/>
  <path d="M77.7364 163.344C70.3207 159.399 67.8554 154.312 68.8199 150.982C70.541 145.039 80.681 147.517 86.3583 151.285C92.0356 155.052 94.7915 158.896 93.8684 162.048C92.9453 165.201 85.1521 167.289 77.7364 163.344Z" stroke="url(#paint2_linear_584_56451)" stroke-width="0.880654"/>
  <path fill-rule="evenodd" clip-rule="evenodd" d="M104.755 166.196C103.556 167.065 100.715 167.6 96.5391 164.286L102.116 160.933L102.116 160.934L106.924 158.043C107.894 163.288 106.085 165.546 104.755 166.196Z" fill="#57BF37"/>
  <path d="M114.353 140.789C114.41 133.276 111.433 129.22 108.375 128.61C102.92 127.523 100.528 136.592 101.077 142.653C101.626 148.713 103.491 152.486 106.39 153.055C109.288 153.624 114.295 148.302 114.353 140.789Z" fill="#070707" stroke="#070707" stroke-width="0.220163"/>
  <path d="M114.687 141.128C114.724 132.702 111.382 128.142 107.963 127.447C101.862 126.208 99.2212 136.37 99.8574 143.169C100.494 149.968 102.592 154.206 105.833 154.855C109.075 155.503 114.651 149.553 114.687 141.128Z" stroke="url(#paint3_linear_584_56451)" stroke-width="0.880654"/>
  <path d="M115.071 140.896C115.108 132.471 111.765 127.91 108.346 127.216C102.246 125.977 99.605 136.139 100.241 142.937C100.877 149.736 102.976 153.975 106.217 154.623C109.458 155.272 115.035 149.322 115.071 140.896Z" stroke="url(#paint4_linear_584_56451)" stroke-width="0.880654"/>
  <path d="M110.126 131.563C108.862 130.226 107.654 130.033 107.017 130.464C105.879 131.231 106.999 133.254 108.123 134.228C109.247 135.201 110.213 135.54 110.815 135.13C111.418 134.721 111.39 132.9 110.126 131.563Z" fill="url(#paint5_radial_584_56451)"/>
  <path fill-rule="evenodd" clip-rule="evenodd" d="M100.011 158.298C99.3497 158.592 97.9457 159.601 97.6166 161.284L100.693 159.434L103.77 157.584C102.13 157.086 100.58 157.852 100.011 158.298Z" fill="#57BF37"/>
  <path d="M77.9787 162.659C71.3592 159.161 69.1677 154.632 70.0379 151.661C71.5907 146.361 80.6489 148.545 85.7148 151.889C90.7807 155.234 93.235 158.653 92.4022 161.465C91.5695 164.277 84.5981 166.158 77.9787 162.659Z" fill="#070707" stroke="#070707" stroke-width="0.220163"/>
  <path d="M71.7155 154.657C71.1275 152.914 71.524 151.756 72.203 151.395C73.4146 150.751 74.6759 152.688 75.0088 154.137C75.3418 155.587 75.1876 156.598 74.5432 156.939C73.8988 157.279 72.3035 156.401 71.7155 154.657Z" fill="url(#paint6_radial_584_56451)"/>
  <path d="M77.7364 163.344C70.3207 159.399 67.8554 154.312 68.8199 150.982C70.541 145.039 80.681 147.517 86.3583 151.285C92.0356 155.052 94.7915 158.896 93.8684 162.048C92.9453 165.201 85.1521 167.289 77.7364 163.344Z" stroke="url(#paint7_linear_584_56451)" stroke-width="0.880654"/>
  <rect width="4.0506" height="27.9009" transform="matrix(0.99987 -0.0160966 0.0193936 0.999812 88.5762 101.322)" fill="#6DF244"/>
  <path d="M96.5055 98.0546C96.5103 92.1513 94.166 88.9479 91.7776 88.4528C87.5161 87.5696 85.6975 94.6833 86.1583 99.4485C86.619 104.214 88.0942 107.189 90.3584 107.651C92.6226 108.113 96.5007 103.958 96.5055 98.0546Z" fill="#57BF37"/>
  <rect width="4.05059" height="27.9009" transform="matrix(-0.483106 0.875562 0.873962 0.485994 55.1914 121.395)" fill="#6DF244"/>
  <path d="M48.5868 126.868C43.3706 124.104 41.6407 120.531 42.3234 118.189C43.5418 114.011 50.6776 115.741 54.6702 118.382C58.6628 121.024 60.5987 123.722 59.9453 125.939C59.2919 128.155 53.8031 129.632 48.5868 126.868Z" fill="#57BF37"/>
  <circle cx="111.74" cy="175.87" r="4.33642" transform="rotate(-6.77196 111.74 175.87)" fill="url(#paint8_radial_584_56451)" stroke="#56CCF2" stroke-width="0.47927"/>
  <path d="M115.299 173.408C118.23 172.585 119.495 172.362 119.643 172.786C119.854 173.388 116.878 175.633 111.978 177.35C107.077 179.066 103.76 179.407 103.549 178.804C103.398 178.375 104.462 177.394 107.336 176.188" stroke="#6DF244" stroke-width="0.684672"/>
  <defs>
  <radialGradient id="paint0_radial_584_56451" cx="0" cy="0" r="1" gradientUnits="userSpaceOnUse" gradientTransform="translate(107.076 171.223) rotate(61.8214) scale(36.1903 30.5505)">
  <stop offset="0.552083" stop-color="white"/>
  <stop offset="1" stop-color="#CCD0C9"/>
  </radialGradient>
  <linearGradient id="paint1_linear_584_56451" x1="100.345" y1="158.857" x2="68.4159" y2="107.494" gradientUnits="userSpaceOnUse">
  <stop offset="0.527397" stop-color="#6DF244"/>
  <stop offset="1" stop-color="#388E1D"/>
  </linearGradient>
  <linearGradient id="paint2_linear_584_56451" x1="74.7816" y1="145.951" x2="87.3845" y2="166.911" gradientUnits="userSpaceOnUse">
  <stop stop-color="#6CB835"/>
  <stop offset="0.40625" stop-color="#6CB835" stop-opacity="0"/>
  </linearGradient>
  <linearGradient id="paint3_linear_584_56451" x1="100.647" y1="130.4" x2="113.25" y2="151.36" gradientUnits="userSpaceOnUse">
  <stop stop-color="#6CB835"/>
  <stop offset="0.40625" stop-color="#6CB835" stop-opacity="0"/>
  </linearGradient>
  <linearGradient id="paint4_linear_584_56451" x1="101.03" y1="130.168" x2="113.633" y2="151.129" gradientUnits="userSpaceOnUse">
  <stop offset="0.541667" stop-color="#6CB835" stop-opacity="0"/>
  <stop offset="1" stop-color="#6CB835"/>
  </linearGradient>
  <radialGradient id="paint5_radial_584_56451" cx="0" cy="0" r="1" gradientUnits="userSpaceOnUse" gradientTransform="translate(108.883 132.746) rotate(48.0079) scale(2.79886 2.28334)">
  <stop stop-color="white" stop-opacity="0.75"/>
  <stop offset="1" stop-color="white" stop-opacity="0"/>
  <stop offset="1" stop-color="white"/>
  </radialGradient>
  <radialGradient id="paint6_radial_584_56451" cx="0" cy="0" r="1" gradientUnits="userSpaceOnUse" gradientTransform="translate(73.3438 154.114) rotate(69.9583) scale(2.79886 2.28334)">
  <stop stop-color="white" stop-opacity="0.75"/>
  <stop offset="1" stop-color="white" stop-opacity="0"/>
  <stop offset="1" stop-color="white"/>
  </radialGradient>
  <linearGradient id="paint7_linear_584_56451" x1="74.7816" y1="145.951" x2="87.3845" y2="166.911" gradientUnits="userSpaceOnUse">
  <stop offset="0.671875" stop-color="#6CB835" stop-opacity="0"/>
  <stop offset="1" stop-color="#6CB835"/>
  </linearGradient>
  <radialGradient id="paint8_radial_584_56451" cx="0" cy="0" r="1" gradientUnits="userSpaceOnUse" gradientTransform="translate(109.133 173.433) rotate(49.243) scale(7.35423 6.44312)">
  <stop offset="0.3125" stop-color="#321A93"/>
  <stop offset="1" stop-color="#3603FF"/>
  <stop offset="1" stop-color="#3603FF"/>
  </radialGradient>
  </defs>
  
    
  <!-- Glowing Glass -->
    <g filter="url(#filter0_f_953_137978)">
    <path d="M148.717 95L125.019 209.98C124.948 210.324 125.078 210.673 125.367 210.873C128.479 213.027 147.033 225 175 225C202.967 225 221.521 213.027 224.633 210.873C224.922 210.673 225.052 210.324 224.981 209.98L201.283 95C201.249 95.0666 201.205 95.1285 201.15 95.1836C199.818 96.5241 193.18 102.106 175 102.106C156.82 102.106 150.182 96.5241 148.85 95.1836C148.795 95.1285 148.751 95.0666 148.717 95Z" fill="#000000" fill-opacity="0.6"/>
    </g>
    <defs>
    <filter id="filter0_f_953_137978" x="-4" y="-4" width="358" height="358" filterUnits="userSpaceOnUse" color-interpolation-filters="sRGB">
    <feFlood flood-opacity="0" result="BackgroundImageFix"/>
    <feBlend mode="normal" in="SourceGraphic" in2="BackgroundImageFix" result="shape"/>
    <feGaussianBlur stdDeviation="2" result="effect1_foregroundBlur_953_137978"/>
    </filter>
    </defs>
  
    
    
    <!-- Lava 1 -->
    <!-- Color -->
    <!-- filter -->
    <path d="M201.33 94.2312L205.4 114.032C203.808 113.761 202.153 113.448 200.459 113.128C186.293 110.453 169.479 107.277 165.223 123.731C163.365 130.915 166.057 135.213 168.676 139.394C171.205 143.431 173.665 147.359 171.9 153.669C169.751 161.35 158.067 166.325 148.671 162.995C138.746 159.477 139.443 144.904 145.148 137.85C150.853 130.795 151.677 120.031 150.853 112.871C150.454 109.41 148.742 106.935 146.502 105.251L148.841 93.8809C148.875 93.9478 148.92 94.0101 148.975 94.0656C150.853 95.9589 156.979 101.03 175.237 101.03C192.824 101.03 199.656 95.8196 201.33 94.2312Z" fill="url(#paint0_radial_931_113783)"/>
    <mask id="mask0_931_113783" style="mask-type:alpha" maskUnits="userSpaceOnUse" x="141" y="93" width="65" height="72">
    <path d="M201.33 94.2302L205.4 114.031C203.808 113.76 202.153 113.447 200.459 113.127C186.293 110.452 169.479 107.276 165.223 123.73C163.365 130.914 166.057 135.212 168.676 139.393C171.205 143.43 173.665 147.358 171.9 153.668C169.751 161.349 158.067 166.324 148.671 162.994C138.746 159.476 139.443 144.903 145.148 137.849C150.853 130.794 151.677 120.03 150.853 112.87C150.454 109.409 148.742 106.934 146.502 105.25L148.841 93.8799C148.875 93.9469 148.92 94.0092 148.975 94.0646C150.313 95.4133 156.979 101.029 175.237 101.029C192.824 101.029 199.656 95.8187 201.33 94.2302Z" fill="url(#paint1_radial_931_113783)"/>
    </mask>
    <g mask="url(#mask0_931_113783)">
    <g filter="url(#filter0_f_931_113783)">
    <mask id="mask1_931_113783" style="mask-type:alpha" maskUnits="userSpaceOnUse" x="125" y="94" width="101" height="132">
    <path d="M149.015 95.0639C149.102 94.6401 149.475 94.3359 149.907 94.3359H200.399C200.831 94.3359 201.205 94.6401 201.292 95.0639L225.146 211.159C225.227 211.555 225.041 211.955 224.68 212.137C220.777 214.109 198.528 224.817 175.153 225.128C151.731 225.438 129.441 214.178 125.603 212.141C125.253 211.954 125.077 211.562 125.157 211.173L149.015 95.0639Z" fill="#577096" fill-opacity="0.75"/>
    </mask>
    <g mask="url(#mask1_931_113783)">
    <g filter="url(#filter1_f_931_113783)">
    <path d="M207.362 76.1064C211.019 110.268 146.094 132.571 113.174 139.453L113.174 76.1064L207.362 76.1064Z" fill="url(#paint2_linear_931_113783)" fill-opacity="0.5"/>
    </g>
    <g filter="url(#filter2_f_931_113783)">
    <path d="M155.56 125.301C156.622 105.018 134.624 86.1828 129.082 66.9985C133.541 65.1973 144.203 70.7896 152.828 76.1247C163.609 82.7936 163.032 109.124 164.778 125.784C166.175 139.112 148.606 223.401 144.168 241.481L131.869 240.837C140.395 214.68 154.74 140.955 155.56 125.301Z" fill="url(#paint3_linear_931_113783)" fill-opacity="0.6"/>
    </g>
    </g>
    </g>
    </g>
    <defs>
    <filter id="filter0_f_931_113783" x="122.744" y="92.0573" width="104.986" height="135.355" filterUnits="userSpaceOnUse" color-interpolation-filters="sRGB">
    <feFlood flood-opacity="0" result="BackgroundImageFix"/>
    <feBlend mode="normal" in="SourceGraphic" in2="BackgroundImageFix" result="shape"/>
    <feGaussianBlur stdDeviation="1.13932" result="effect1_foregroundBlur_931_113783"/>
    </filter>
    <filter id="filter1_f_931_113783" x="112.262" y="75.195" width="96.1589" height="65.1696" filterUnits="userSpaceOnUse" color-interpolation-filters="sRGB">
    <feFlood flood-opacity="0" result="BackgroundImageFix"/>
    <feBlend mode="normal" in="SourceGraphic" in2="BackgroundImageFix" result="shape"/>
    <feGaussianBlur stdDeviation="0.455729" result="effect1_foregroundBlur_931_113783"/>
    </filter>
    <filter id="filter2_f_931_113783" x="128.17" y="65.7428" width="37.5978" height="176.65" filterUnits="userSpaceOnUse" color-interpolation-filters="sRGB">
    <feFlood flood-opacity="0" result="BackgroundImageFix"/>
    <feBlend mode="normal" in="SourceGraphic" in2="BackgroundImageFix" result="shape"/>
    <feGaussianBlur stdDeviation="0.455729" result="effect1_foregroundBlur_931_113783"/>
    </filter>
    <radialGradient id="paint0_radial_931_113783" cx="0" cy="0" r="1" gradientUnits="userSpaceOnUse" gradientTransform="translate(156.087 109.102) rotate(53.0717) scale(37.8406 40.3077)">
    <stop offset="0.203125" style="stop-color: #FF00D6;"/>
    <stop offset="0.890625" style="stop-color: #D700B4;"/>
    </radialGradient>
    <radialGradient id="paint1_radial_931_113783" cx="0" cy="0" r="1" gradientUnits="userSpaceOnUse" gradientTransform="translate(156.087 109.101) rotate(53.0717) scale(37.8406 40.3077)">
    <stop offset="0.203125" stop-color="#71FF30"/>
    <stop offset="0.890625" stop-color="#25BC46"/>
    </radialGradient>
    <linearGradient id="paint2_linear_931_113783" x1="145.368" y1="123.01" x2="155.982" y2="72.2914" gradientUnits="userSpaceOnUse">
    <stop stop-color="white" stop-opacity="0"/>
    <stop offset="0.471361" stop-color="white"/>
    <stop offset="1" stop-color="white"/>
    </linearGradient>
    <linearGradient id="paint3_linear_931_113783" x1="160.882" y1="220.938" x2="202.107" y2="178" gradientUnits="userSpaceOnUse">
    <stop stop-color="#F2F2F2"/>
    <stop offset="0.0001" stop-color="#F2F2F2"/>
    <stop offset="0.0520833" stop-color="#F2F2F2" stop-opacity="0.948011"/>
    <stop offset="1" stop-color="#F2F2F2" stop-opacity="0"/>
    </linearGradient>
    </defs>
  
    
  <!-- Lava 2 -->
    <!-- Color -->
<path d="M178.202 131.059C178.202 128.163 180.222 122.394 188.299 122.479C196.377 122.565 198.468 128.235 198.504 131.059C198.576 133.132 197.365 137.622 191.952 138.995C185.184 140.711 178.202 136.85 178.202 131.059Z" fill="url(#paint0_radial_931_113845)"/>
<defs>
<radialGradient id="paint0_radial_931_113845" cx="0" cy="0" r="1" gradientUnits="userSpaceOnUse" gradientTransform="translate(182.959 126.151) rotate(45.5119) scale(10.2292 11.3416)">
<stop offset="0.203125" style="stop-color: #71FF30;"/>
<stop offset="0.890625" style="stop-color: #25BC46;"/>
</radialGradient>
</defs>
  
    
    
  
    
  <!-- Ruby Pumpkin -->
  <path d="M230.076 315.488L204.588 286.057C204.415 285.857 204.163 285.742 203.899 285.742H174.803H145.886C145.621 285.742 145.368 285.858 145.195 286.06L119.918 315.488C119.621 315.834 119.619 316.334 119.94 316.657C123.162 319.913 140.896 336.101 174.999 336.101C209.096 336.101 226.829 319.92 230.057 316.659C230.378 316.335 230.375 315.833 230.076 315.488Z" fill="url(#paint0_linear_737_226361)" shape-rendering="geometricPrecision"/>
  <path d="M155.657 63.3074C159.112 50.3298 161.898 33.7241 174.784 33.7241C187.671 33.7241 192.185 54.2845 194.341 63.6238C196.327 72.2283 200.672 92.1301 201.344 95.2082C201.401 95.4727 201.334 95.7341 201.145 95.9275C199.762 97.3393 193.094 102.995 174.999 102.995C156.85 102.995 150.196 97.305 148.841 95.9148C148.659 95.7274 148.593 95.4748 148.642 95.2178C149.176 92.411 152.493 75.1955 155.657 63.3074Z" fill="url(#paint1_linear_737_226361)"/>
  <path d="M124.486 211.337C124.644 210.727 125.35 210.441 125.892 210.763C130.805 213.683 151.573 225.13 175.23 225.13C198.848 225.13 219.241 213.72 224.109 210.777C224.651 210.449 225.362 210.736 225.52 211.349C229.593 227.143 244.819 264.014 232.899 282.944C217.484 307.425 200.523 315.82 175.002 315.82C149.481 315.82 132.519 307.425 117.105 282.944C105.182 264.009 120.418 227.124 124.486 211.337Z" fill="url(#paint2_linear_737_226361)"/>
  <mask id="mask0_737_226361" style="mask-type:alpha" maskUnits="userSpaceOnUse" x="112" y="210" width="126" height="107">
  <path d="M124.727 210.547C124.727 210.547 148.046 225.586 175.162 225.586C202.278 225.586 225.142 210.547 225.142 210.547C228.665 225.551 245.08 263.948 232.831 283.4C217.417 307.881 200.455 316.276 174.934 316.276C149.413 316.276 132.452 307.881 117.037 283.4C104.789 263.948 121.203 225.551 124.727 210.547Z" fill="url(#paint3_radial_737_226361)"/>
  </mask>
  <g mask="url(#mask0_737_226361)">
  <path d="M203.646 319.922C210.524 301.927 220.153 256.681 203.646 219.662" stroke="#773B06" stroke-opacity="0.1" stroke-width="4.55729"/>
  <path d="M181.316 319.922C186.785 302.604 192.253 257.031 181.316 219.662" stroke="#773B06" stroke-opacity="0.1" stroke-width="4.55729"/>
  <path d="M165.365 319.922C159.896 302.604 154.427 257.031 165.365 219.662" stroke="#773B06" stroke-opacity="0.1" stroke-width="4.55729"/>
  <path d="M143.035 319.922C136.157 301.927 126.527 256.681 143.035 219.662" stroke="#773B06" stroke-opacity="0.1" stroke-width="4.55729"/>
  </g>
  <path d="M154.676 246.322C155.202 245.41 156.517 245.41 157.044 246.322L166.91 263.412C167.437 264.323 166.779 265.463 165.726 265.463H145.993C144.94 265.463 144.282 264.323 144.809 263.412L154.676 246.322Z" fill="black"/>
  <path d="M194.413 246.322C193.887 245.41 192.572 245.41 192.045 246.322L182.178 263.412C181.652 264.323 182.31 265.462 183.363 265.462H203.096C204.149 265.462 204.806 264.323 204.28 263.412L194.413 246.322Z" fill="black"/>
  <path fill-rule="evenodd" clip-rule="evenodd" d="M163.58 276.72H185.251V283.063H192.651V276.72H209.041C210.855 276.72 211.842 278.656 210.622 279.998C205.795 285.312 194.305 295.22 175.737 295.22C175.203 295.22 174.674 295.212 174.151 295.196V288.877H166.751V294.417C153.296 291.964 144.315 284.469 140.041 280.059C138.751 278.728 139.726 276.72 141.58 276.72H156.18V283.063H163.58V276.72Z" fill="black"/>
  <path d="M194.444 63.1381C192.245 53.5917 187.667 33.7241 175 33.7241L175.214 336.1C213.132 336.1 230.813 316.091 230.813 316.091L218.057 301.36C223.366 296.626 228.313 290.564 233.111 282.944C242.928 267.355 234.334 239.598 228.721 221.466C227.33 216.973 226.122 213.071 225.422 210.091C225.422 210.091 225.308 210.166 225.086 210.306L201.464 95.6038C201.534 95.3724 201.54 95.1204 201.485 94.8693C200.617 90.8911 196.48 71.958 194.556 63.6238L194.444 63.1381Z" fill="#161A70" fill-opacity="0.1"/>
  <defs>
  <linearGradient id="paint0_linear_737_226361" x1="135.069" y1="294.001" x2="164.771" y2="362.91" gradientUnits="userSpaceOnUse">
  <stop stop-color="#9A0404"/>
  <stop offset="0.473958" stop-color="#D80101" stop-opacity="0.98"/>
  <stop offset="1" stop-color="#FF8080" stop-opacity="0.98"/>
  </linearGradient>
  <linearGradient id="paint1_linear_737_226361" x1="174.999" y1="10.1362" x2="152.221" y2="102.45" gradientUnits="userSpaceOnUse">
  <stop stop-color="#830101"/>
  <stop offset="0.979167" stop-color="#FF1818" stop-opacity="0.98"/>
  </linearGradient>
  <linearGradient id="paint2_linear_737_226361" x1="175.002" y1="204.167" x2="160.106" y2="297.492" gradientUnits="userSpaceOnUse">
  <stop stop-color="#830101"/>
  <stop offset="0.979167" stop-color="#FF1818" stop-opacity="0.98"/>
  </linearGradient>
  <radialGradient id="paint3_radial_737_226361" cx="0" cy="0" r="1" gradientUnits="userSpaceOnUse" gradientTransform="translate(153.059 257.943) rotate(36.2538) scale(76.2935 67.5721)">
  <stop offset="0.0989583" stop-color="#FFB800"/>
  <stop offset="1" stop-color="#E96D00"/>
  </radialGradient>
  </defs>
  
    
  <!-- Grillz -->
  <path d="M140.042 279.759C138.752 278.428 139.727 276.42 141.58 276.42H209.042C210.855 276.42 211.842 278.356 210.623 279.698C205.796 285.012 194.305 294.92 175.738 294.92C157.241 294.92 145.206 285.087 140.042 279.759Z" fill="black"/>
  <mask id="mask0_1491_80640" style="mask-type:alpha" maskUnits="userSpaceOnUse" x="139" y="276" width="73" height="19">
  <path d="M140.04 279.759C138.75 278.428 139.725 276.42 141.578 276.42H209.04C210.853 276.42 211.84 278.356 210.621 279.698C205.794 285.012 194.303 294.92 175.736 294.92C157.239 294.92 145.204 285.087 140.04 279.759Z" fill="black"/>
  </mask>
  <g mask="url(#mask0_1491_80640)">
  <path d="M208.18 280.36C210.177 271.437 208.061 269.558 206.754 268.7C205.613 269.387 202.476 270.416 201.049 270.845C199.338 273.934 200.099 277.922 200.693 280.496C203.545 281.869 206.873 280.932 208.18 280.36Z" fill="url(#paint0_linear_1491_80640)"/>
  <path d="M152.089 281.36C154.308 272.437 151.957 269.558 150.504 268.7C149.237 269.387 145.751 270.416 144.166 270.845C142.264 273.934 143.109 277.922 143.77 280.496C146.939 281.869 150.637 281.932 152.089 281.36Z" fill="url(#paint1_linear_1491_80640)"/>
  <path d="M161.907 285.514C164.569 274.585 161.749 269.751 160.005 268.7C158.484 269.541 154.301 270.802 152.399 271.327C150.117 275.111 151.131 279.996 151.924 283.148C155.727 284.83 160.164 286.215 161.907 285.514Z" fill="url(#paint2_linear_1491_80640)"/>
  <path d="M175.543 287.654C179.092 275.334 175.331 269.885 173.007 268.7C170.979 269.648 165.401 271.069 162.865 271.662C159.823 275.926 161.175 284.1 162.232 287.654C167.302 289.549 173.218 288.443 175.543 287.654Z" fill="url(#paint3_linear_1491_80640)"/>
  <path d="M199.907 281.885C202.569 271.155 199.749 268.732 198.005 267.7C196.484 268.526 192.301 269.764 190.399 270.279C188.117 273.993 189.131 281.112 189.924 284.207C191.587 284.929 192.827 285.735 194.455 285.699C196.636 285.699 198.926 282.271 199.907 281.885Z" fill="url(#paint4_linear_1491_80640)"/>
  <path d="M189.543 287.654C193.092 275.334 189.331 269.885 187.007 268.7C184.979 269.648 179.401 271.069 176.865 271.662C173.823 275.926 175.175 284.1 176.232 287.654C181.302 289.549 187.218 288.443 189.543 287.654Z" fill="url(#paint5_linear_1491_80640)"/>
  </g>
  <path d="M160.5 280.7L159.285 277.416L156 276.2L159.285 274.985L160.5 271.7L161.715 274.985L165 276.2L161.715 277.416L160.5 280.7Z" fill="white" fill-opacity="0.75"><animate attributeName="opacity" values="0.75;0;0.75" dur="2.1s" repeatCount="indefinite" /></path>
  <path d="M179.5 291.7L178.285 288.416L175 287.2L178.285 285.985L179.5 282.7L180.715 285.985L184 287.2L180.715 288.416L179.5 291.7Z" fill="white" fill-opacity="0.75"><animate attributeName="opacity" values="0.75;0;0.75" dur="2.5s" repeatCount="indefinite" /></path>
  <path d="M202.5 280.7L201.285 277.416L198 276.2L201.285 274.985L202.5 271.7L203.715 274.985L207 276.2L203.715 277.416L202.5 280.7Z" fill="white" fill-opacity="0.75"><animate attributeName="opacity" values="0.75;0;0.75" dur="2.3s" repeatCount="indefinite" /></path>
  <defs>
  <linearGradient id="paint0_linear_1491_80640" x1="200.009" y1="271.46" x2="209.772" y2="281.006" gradientUnits="userSpaceOnUse">
  <stop stop-color="#E68A00"/>
  <stop offset="0.479167" stop-color="#F1BC10"/>
  <stop offset="1" stop-color="#FFF175"/>
  </linearGradient>
  <linearGradient id="paint1_linear_1491_80640" x1="143.01" y1="271.46" x2="152.742" y2="282.033" gradientUnits="userSpaceOnUse">
  <stop offset="0.312896" stop-color="#FFF175"/>
  <stop offset="0.547277" stop-color="#F1BC10"/>
  <stop offset="0.734782" stop-color="#E6C100"/>
  <stop offset="1" stop-color="#FFF175"/>
  </linearGradient>
  <linearGradient id="paint2_linear_1491_80640" x1="151.012" y1="272.31" x2="163.782" y2="285.041" gradientUnits="userSpaceOnUse">
  <stop offset="0.312896" stop-color="#FFF175"/>
  <stop offset="0.547277" stop-color="#F1BC10"/>
  <stop offset="0.734782" stop-color="#E6C100"/>
  <stop offset="1" stop-color="#FFF175"/>
  </linearGradient>
  <linearGradient id="paint3_linear_1491_80640" x1="161.016" y1="272.947" x2="175.928" y2="289.796" gradientUnits="userSpaceOnUse">
  <stop offset="0.312896" stop-color="#FFF175"/>
  <stop offset="0.547277" stop-color="#F1BC10"/>
  <stop offset="0.734782" stop-color="#E6C100"/>
  <stop offset="1" stop-color="#FFF175"/>
  </linearGradient>
  <linearGradient id="paint4_linear_1491_80640" x1="189.012" y1="271.522" x2="202.509" y2="284.23" gradientUnits="userSpaceOnUse">
  <stop offset="0.312896" stop-color="#FFF175"/>
  <stop offset="0.547277" stop-color="#F1BC10"/>
  <stop offset="0.734782" stop-color="#E6C100"/>
  <stop offset="1" stop-color="#FFF175"/>
  </linearGradient>
  <linearGradient id="paint5_linear_1491_80640" x1="175.016" y1="272.947" x2="189.928" y2="289.796" gradientUnits="userSpaceOnUse">
  <stop offset="0.312896" stop-color="#FFF175"/>
  <stop offset="0.547277" stop-color="#F1BC10"/>
  <stop offset="0.734782" stop-color="#E6C100"/>
  <stop offset="1" stop-color="#FFF175"/>
  </linearGradient>
  </defs>
    
    </svg>
  