
    <svg width="350" height="350" viewBox="0 0 350 350" fill="none" xmlns="http://www.w3.org/2000/svg">
    
  <!-- Sapphire BG -->
  <g clip-path="url(#clip0_28_259)">
  <rect x="0.0788574" y="0.0444336" width="350" height="350" fill="#13235A"/>
  <rect x="0.0788574" y="0.0444336" width="350" height="350" fill="url(#paint0_radial_28_259)" fill-opacity="0.2"/>
  <path d="M125.979 290.538L299.832 190.751L430.987 233.879L212.56 294.049L125.979 290.538Z" fill="url(#paint1_linear_28_259)"/>
  <g opacity="0.45" filter="url(#filter0_f_28_259)">
  <ellipse rx="194.596" ry="66.7643" transform="matrix(0.999998 0.00221055 0.00221055 -0.999998 176.078 304.637)" fill="url(#paint2_radial_28_259)"/>
  </g>
  <g opacity="0.7" filter="url(#filter1_f_28_259)">
  <ellipse cx="174.396" cy="137.609" rx="196.647" ry="242.448" transform="rotate(0.126655 174.396 137.609)" fill="url(#paint3_radial_28_259)"/>
  </g>
  </g>
  <defs>
  <filter id="filter0_f_28_259" x="-23.0756" y="233.314" width="398.306" height="142.646" filterUnits="userSpaceOnUse" color-interpolation-filters="sRGB">
  <feFlood flood-opacity="0" result="BackgroundImageFix"/>
  <feBlend mode="normal" in="SourceGraphic" in2="BackgroundImageFix" result="shape"/>
  <feGaussianBlur stdDeviation="2.27865" result="effect1_foregroundBlur_28_259"/>
  </filter>
  <filter id="filter1_f_28_259" x="-26.8085" y="-109.396" width="402.409" height="494.01" filterUnits="userSpaceOnUse" color-interpolation-filters="sRGB">
  <feFlood flood-opacity="0" result="BackgroundImageFix"/>
  <feBlend mode="normal" in="SourceGraphic" in2="BackgroundImageFix" result="shape"/>
  <feGaussianBlur stdDeviation="2.27865" result="effect1_foregroundBlur_28_259"/>
  </filter>
  <radialGradient id="paint0_radial_28_259" cx="0" cy="0" r="1" gradientUnits="userSpaceOnUse" gradientTransform="translate(156.622 401.542) rotate(-84.441) scale(239.93 241.682)">
  <stop/>
  <stop offset="1" stop-opacity="0"/>
  </radialGradient>
  <linearGradient id="paint1_linear_28_259" x1="194.836" y1="271.638" x2="316.537" y2="167.936" gradientUnits="userSpaceOnUse">
  <stop/>
  <stop offset="1" stop-color="#333333" stop-opacity="0"/>
  </linearGradient>
  <radialGradient id="paint2_radial_28_259" cx="0" cy="0" r="1" gradientUnits="userSpaceOnUse" gradientTransform="translate(194.596 76.624) rotate(99.1226) scale(43.9775 125.337)">
  <stop stop-color="#2183F7"/>
  <stop offset="1" stop-color="#2E55E1" stop-opacity="0"/>
  </radialGradient>
  <radialGradient id="paint3_radial_28_259" cx="0" cy="0" r="1" gradientUnits="userSpaceOnUse" gradientTransform="translate(174.396 173.413) rotate(92.5586) scale(157.837 128.153)">
  <stop stop-color="#2183F7"/>
  <stop offset="1" stop-color="#2E55E1" stop-opacity="0"/>
  </radialGradient>
  <clipPath id="clip0_28_259">
  <rect width="350" height="350" fill="white"/>
  </clipPath>
  </defs>

    
  <!-- YinYang Overlay -->
  <g clip-path="url(#clip0_589_123547)">
  <g style="mix-blend-mode:overlay">
  <path fill-rule="evenodd" clip-rule="evenodd" d="M78.8411 117.851C113.323 117.851 141.276 89.8984 141.276 55.4166C141.276 20.9347 113.323 -7.01834 78.8411 -7.01834C44.3593 -7.01834 16.4062 20.9347 16.4062 55.4166C16.4062 89.8984 44.3593 117.851 78.8411 117.851ZM78.8411 -0.0293641C79.6131 -0.0293641 80.3813 -0.0135894 81.1455 0.0176539C116.331 3.89748 114.168 54.4846 79.0743 54.4846C79.0411 54.4846 79.0081 54.4886 78.9751 54.4966C78.6985 54.4887 78.4208 54.4847 78.1423 54.4847C62.3166 54.4847 49.4874 67.3139 49.4874 83.1395C49.4874 95.1042 56.8204 105.356 67.2372 109.646C42.1859 104.312 23.3952 82.0586 23.3952 55.4166C23.3952 24.7946 48.2192 -0.0293641 78.8411 -0.0293641ZM78.1423 90.8274C82.3881 90.8274 85.8301 87.3854 85.8301 83.1395C85.8301 78.8936 82.3881 75.4516 78.1423 75.4516C73.8963 75.4516 70.4544 78.8936 70.4544 83.1395C70.4544 87.3854 73.8963 90.8274 78.1423 90.8274Z" fill="white" fill-opacity="0.25"/>
  <path d="M85.8301 27.6936C85.8301 31.9395 82.3881 35.3815 78.1423 35.3815C73.8964 35.3815 70.4544 31.9395 70.4544 27.6936C70.4544 23.4477 73.8964 20.0057 78.1423 20.0057C82.3881 20.0057 85.8301 23.4477 85.8301 27.6936Z" fill="white" fill-opacity="0.25"/>
  </g>
  <g style="mix-blend-mode:overlay">
  <path fill-rule="evenodd" clip-rule="evenodd" d="M91.8296 270.521C113.349 270.521 130.794 253.076 130.794 231.556C130.794 210.036 113.349 192.591 91.8296 192.591C70.3099 192.591 52.8647 210.036 52.8647 231.556C52.8647 253.076 70.3099 270.521 91.8296 270.521ZM91.8296 196.953C92.3113 196.953 92.7908 196.963 93.2677 196.982C115.226 199.403 113.877 230.974 91.9751 230.974C91.9544 230.974 91.9338 230.977 91.9132 230.982C91.7405 230.977 91.5673 230.974 91.3934 230.974C81.5168 230.974 73.5103 238.981 73.5103 248.857C73.5103 256.324 78.0867 262.723 84.5877 265.4C68.9535 262.071 57.2265 248.183 57.2265 231.556C57.2265 212.445 72.7188 196.953 91.8296 196.953ZM91.3934 253.655C94.0432 253.655 96.1913 251.507 96.1913 248.857C96.1913 246.208 94.0432 244.06 91.3934 244.06C88.7436 244.06 86.5955 246.208 86.5955 248.857C86.5955 251.507 88.7436 253.655 91.3934 253.655Z" fill="white" fill-opacity="0.25"/>
  <path d="M96.1913 214.254C96.1913 216.904 94.0432 219.052 91.3934 219.052C88.7436 219.052 86.5955 216.904 86.5955 214.254C86.5955 211.605 88.7436 209.456 91.3934 209.456C94.0432 209.456 96.1913 211.605 96.1913 214.254Z" fill="white" fill-opacity="0.25"/>
  </g>
  <g style="mix-blend-mode:overlay">
  <path fill-rule="evenodd" clip-rule="evenodd" d="M255.436 366.68C276.956 366.68 294.401 349.235 294.401 327.715C294.401 306.195 276.956 288.75 255.436 288.75C233.916 288.75 216.471 306.195 216.471 327.715C216.471 349.235 233.916 366.68 255.436 366.68ZM255.436 293.112C255.918 293.112 256.397 293.122 256.874 293.141C278.833 295.562 277.483 327.133 255.582 327.133C255.561 327.133 255.54 327.136 255.52 327.141C255.347 327.136 255.174 327.133 255 327.133C245.123 327.133 237.117 335.14 237.117 345.016C237.117 352.483 241.693 358.882 248.194 361.559C232.56 358.23 220.833 344.342 220.833 327.715C220.833 308.604 236.325 293.112 255.436 293.112ZM255 349.814C257.65 349.814 259.798 347.666 259.798 345.016C259.798 342.367 257.65 340.219 255 340.219C252.35 340.219 250.202 342.367 250.202 345.016C250.202 347.666 252.35 349.814 255 349.814Z" fill="white" fill-opacity="0.25"/>
  <path d="M259.798 310.413C259.798 313.063 257.65 315.211 255 315.211C252.35 315.211 250.202 313.063 250.202 310.413C250.202 307.764 252.35 305.615 255 305.615C257.65 305.615 259.798 307.764 259.798 310.413Z" fill="white" fill-opacity="0.25"/>
  </g>
  <g style="mix-blend-mode:overlay">
  <path fill-rule="evenodd" clip-rule="evenodd" d="M236.751 43.1119C258.271 43.1119 275.716 25.6668 275.716 4.1471C275.716 -17.3726 258.271 -34.8177 236.751 -34.8177C215.232 -34.8177 197.787 -17.3726 197.787 4.1471C197.787 25.6668 215.232 43.1119 236.751 43.1119ZM236.751 -30.456C237.233 -30.456 237.713 -30.4462 238.19 -30.4267C260.148 -28.0053 258.799 3.5655 236.897 3.5655C236.876 3.5655 236.856 3.568 236.835 3.57295C236.662 3.56802 236.489 3.56554 236.315 3.56554C226.439 3.56554 218.432 11.5721 218.432 21.4487C218.432 28.9156 223.009 35.3138 229.51 37.9912C213.875 34.6621 202.148 20.7741 202.148 4.1471C202.148 -14.9637 217.641 -30.456 236.751 -30.456ZM236.315 26.2466C238.965 26.2466 241.113 24.0985 241.113 21.4487C241.113 18.7988 238.965 16.6507 236.315 16.6507C233.665 16.6507 231.517 18.7988 231.517 21.4487C231.517 24.0985 233.665 26.2466 236.315 26.2466Z" fill="white" fill-opacity="0.25"/>
  <path d="M241.113 -13.1545C241.113 -10.5046 238.965 -8.35654 236.315 -8.35654C233.665 -8.35654 231.517 -10.5046 231.517 -13.1545C231.517 -15.8043 233.665 -17.9524 236.315 -17.9524C238.965 -17.9524 241.113 -15.8043 241.113 -13.1545Z" fill="white" fill-opacity="0.25"/>
  </g>
  <g style="mix-blend-mode:overlay">
  <path fill-rule="evenodd" clip-rule="evenodd" d="M289.388 211.732C315.312 211.732 336.328 190.716 336.328 164.792C336.328 138.867 315.312 117.852 289.388 117.852C263.464 117.852 242.448 138.867 242.448 164.792C242.448 190.716 263.464 211.732 289.388 211.732ZM289.388 123.106C289.968 123.106 290.546 123.118 291.12 123.141C317.574 126.058 315.947 164.091 289.563 164.091C289.538 164.091 289.513 164.094 289.489 164.1C289.281 164.094 289.072 164.091 288.862 164.091C276.964 164.091 267.319 173.736 267.319 185.635C267.319 194.63 272.832 202.338 280.664 205.563C261.83 201.552 247.702 184.822 247.702 164.792C247.702 141.769 266.366 123.106 289.388 123.106ZM288.862 191.414C292.055 191.414 294.642 188.827 294.642 185.635C294.642 182.442 292.055 179.855 288.862 179.855C285.67 179.855 283.082 182.442 283.082 185.635C283.082 188.827 285.67 191.414 288.862 191.414Z" fill="white" fill-opacity="0.25"/>
  <path d="M294.642 143.949C294.642 147.141 292.055 149.729 288.862 149.729C285.67 149.729 283.082 147.141 283.082 143.949C283.082 140.757 285.67 138.169 288.862 138.169C292.055 138.169 294.642 140.757 294.642 143.949Z" fill="white" fill-opacity="0.25"/>
  </g>
  </g>
  <defs>
  <clipPath id="clip0_589_123547">
  <rect width="350" height="350" fill="white"/>
  </clipPath>
  </defs>

    
    
  <!-- Glowing Glass -->
    <g filter="url(#filter0_f_953_137978)">
    <path d="M148.717 95L125.019 209.98C124.948 210.324 125.078 210.673 125.367 210.873C128.479 213.027 147.033 225 175 225C202.967 225 221.521 213.027 224.633 210.873C224.922 210.673 225.052 210.324 224.981 209.98L201.283 95C201.249 95.0666 201.205 95.1285 201.15 95.1836C199.818 96.5241 193.18 102.106 175 102.106C156.82 102.106 150.182 96.5241 148.85 95.1836C148.795 95.1285 148.751 95.0666 148.717 95Z" fill="#FF67EC" fill-opacity="0.6"/>
    </g>
    <defs>
    <filter id="filter0_f_953_137978" x="-4" y="-4" width="358" height="358" filterUnits="userSpaceOnUse" color-interpolation-filters="sRGB">
    <feFlood flood-opacity="0" result="BackgroundImageFix"/>
    <feBlend mode="normal" in="SourceGraphic" in2="BackgroundImageFix" result="shape"/>
    <feGaussianBlur stdDeviation="2" result="effect1_foregroundBlur_953_137978"/>
    </filter>
    </defs>
  
    
    
    <!-- Lava 1 -->
    <!-- Color -->
    <!-- filter -->
    <path d="M201.33 94.2312L205.4 114.032C203.808 113.761 202.153 113.448 200.459 113.128C186.293 110.453 169.479 107.277 165.223 123.731C163.365 130.915 166.057 135.213 168.676 139.394C171.205 143.431 173.665 147.359 171.9 153.669C169.751 161.35 158.067 166.325 148.671 162.995C138.746 159.477 139.443 144.904 145.148 137.85C150.853 130.795 151.677 120.031 150.853 112.871C150.454 109.41 148.742 106.935 146.502 105.251L148.841 93.8809C148.875 93.9478 148.92 94.0101 148.975 94.0656C150.853 95.9589 156.979 101.03 175.237 101.03C192.824 101.03 199.656 95.8196 201.33 94.2312Z" fill="url(#paint0_radial_931_113783)"/>
    <mask id="mask0_931_113783" style="mask-type:alpha" maskUnits="userSpaceOnUse" x="141" y="93" width="65" height="72">
    <path d="M201.33 94.2302L205.4 114.031C203.808 113.76 202.153 113.447 200.459 113.127C186.293 110.452 169.479 107.276 165.223 123.73C163.365 130.914 166.057 135.212 168.676 139.393C171.205 143.43 173.665 147.358 171.9 153.668C169.751 161.349 158.067 166.324 148.671 162.994C138.746 159.476 139.443 144.903 145.148 137.849C150.853 130.794 151.677 120.03 150.853 112.87C150.454 109.409 148.742 106.934 146.502 105.25L148.841 93.8799C148.875 93.9469 148.92 94.0092 148.975 94.0646C150.313 95.4133 156.979 101.029 175.237 101.029C192.824 101.029 199.656 95.8187 201.33 94.2302Z" fill="url(#paint1_radial_931_113783)"/>
    </mask>
    <g mask="url(#mask0_931_113783)">
    <g filter="url(#filter0_f_931_113783)">
    <mask id="mask1_931_113783" style="mask-type:alpha" maskUnits="userSpaceOnUse" x="125" y="94" width="101" height="132">
    <path d="M149.015 95.0639C149.102 94.6401 149.475 94.3359 149.907 94.3359H200.399C200.831 94.3359 201.205 94.6401 201.292 95.0639L225.146 211.159C225.227 211.555 225.041 211.955 224.68 212.137C220.777 214.109 198.528 224.817 175.153 225.128C151.731 225.438 129.441 214.178 125.603 212.141C125.253 211.954 125.077 211.562 125.157 211.173L149.015 95.0639Z" fill="#577096" fill-opacity="0.75"/>
    </mask>
    <g mask="url(#mask1_931_113783)">
    <g filter="url(#filter1_f_931_113783)">
    <path d="M207.362 76.1064C211.019 110.268 146.094 132.571 113.174 139.453L113.174 76.1064L207.362 76.1064Z" fill="url(#paint2_linear_931_113783)" fill-opacity="0.5"/>
    </g>
    <g filter="url(#filter2_f_931_113783)">
    <path d="M155.56 125.301C156.622 105.018 134.624 86.1828 129.082 66.9985C133.541 65.1973 144.203 70.7896 152.828 76.1247C163.609 82.7936 163.032 109.124 164.778 125.784C166.175 139.112 148.606 223.401 144.168 241.481L131.869 240.837C140.395 214.68 154.74 140.955 155.56 125.301Z" fill="url(#paint3_linear_931_113783)" fill-opacity="0.6"/>
    </g>
    </g>
    </g>
    </g>
    <defs>
    <filter id="filter0_f_931_113783" x="122.744" y="92.0573" width="104.986" height="135.355" filterUnits="userSpaceOnUse" color-interpolation-filters="sRGB">
    <feFlood flood-opacity="0" result="BackgroundImageFix"/>
    <feBlend mode="normal" in="SourceGraphic" in2="BackgroundImageFix" result="shape"/>
    <feGaussianBlur stdDeviation="1.13932" result="effect1_foregroundBlur_931_113783"/>
    </filter>
    <filter id="filter1_f_931_113783" x="112.262" y="75.195" width="96.1589" height="65.1696" filterUnits="userSpaceOnUse" color-interpolation-filters="sRGB">
    <feFlood flood-opacity="0" result="BackgroundImageFix"/>
    <feBlend mode="normal" in="SourceGraphic" in2="BackgroundImageFix" result="shape"/>
    <feGaussianBlur stdDeviation="0.455729" result="effect1_foregroundBlur_931_113783"/>
    </filter>
    <filter id="filter2_f_931_113783" x="128.17" y="65.7428" width="37.5978" height="176.65" filterUnits="userSpaceOnUse" color-interpolation-filters="sRGB">
    <feFlood flood-opacity="0" result="BackgroundImageFix"/>
    <feBlend mode="normal" in="SourceGraphic" in2="BackgroundImageFix" result="shape"/>
    <feGaussianBlur stdDeviation="0.455729" result="effect1_foregroundBlur_931_113783"/>
    </filter>
    <radialGradient id="paint0_radial_931_113783" cx="0" cy="0" r="1" gradientUnits="userSpaceOnUse" gradientTransform="translate(156.087 109.102) rotate(53.0717) scale(37.8406 40.3077)">
    <stop offset="0.203125" style="stop-color: #F85449;"/>
    <stop offset="0.890625" style="stop-color: #C53434;"/>
    </radialGradient>
    <radialGradient id="paint1_radial_931_113783" cx="0" cy="0" r="1" gradientUnits="userSpaceOnUse" gradientTransform="translate(156.087 109.101) rotate(53.0717) scale(37.8406 40.3077)">
    <stop offset="0.203125" stop-color="#71FF30"/>
    <stop offset="0.890625" stop-color="#25BC46"/>
    </radialGradient>
    <linearGradient id="paint2_linear_931_113783" x1="145.368" y1="123.01" x2="155.982" y2="72.2914" gradientUnits="userSpaceOnUse">
    <stop stop-color="white" stop-opacity="0"/>
    <stop offset="0.471361" stop-color="white"/>
    <stop offset="1" stop-color="white"/>
    </linearGradient>
    <linearGradient id="paint3_linear_931_113783" x1="160.882" y1="220.938" x2="202.107" y2="178" gradientUnits="userSpaceOnUse">
    <stop stop-color="#F2F2F2"/>
    <stop offset="0.0001" stop-color="#F2F2F2"/>
    <stop offset="0.0520833" stop-color="#F2F2F2" stop-opacity="0.948011"/>
    <stop offset="1" stop-color="#F2F2F2" stop-opacity="0"/>
    </linearGradient>
    </defs>
  
    
  <!-- Lava 2 -->
    <!-- Color -->
<path d="M178.202 131.059C178.202 128.163 180.222 122.394 188.299 122.479C196.377 122.565 198.468 128.235 198.504 131.059C198.576 133.132 197.365 137.622 191.952 138.995C185.184 140.711 178.202 136.85 178.202 131.059Z" fill="url(#paint0_radial_931_113845)"/>
<defs>
<radialGradient id="paint0_radial_931_113845" cx="0" cy="0" r="1" gradientUnits="userSpaceOnUse" gradientTransform="translate(182.959 126.151) rotate(45.5119) scale(10.2292 11.3416)">
<stop offset="0.203125" style="stop-color: #21F6EA;"/>
<stop offset="0.890625" style="stop-color: #2183F6;"/>
</radialGradient>
</defs>
  
    
  <!-- Lava 3 -->
    <!-- Color -->
    <path d="M214.381 157.604L219.2 181.084C217.285 183.349 214.448 185.339 210.334 186.382C197.471 189.642 184.2 182.306 184.2 171.303C184.2 165.801 188.039 154.839 203.392 155.002C208.021 155.051 211.616 156.065 214.381 157.604Z" fill="url(#paint0_radial_931_113862)"/>
<defs>
<radialGradient id="paint0_radial_931_113862" cx="0" cy="0" r="1" gradientUnits="userSpaceOnUse" gradientTransform="translate(192.4 161.977) rotate(48.2936) scale(18.5718 20.4588)">
<stop offset="0.203125" style="stop-color: #FABE09;"/>
<stop offset="0.890625" style="stop-color: #FDF21B;"/>
</radialGradient>
</defs>
  
    
  <!-- Lava 4 -->
    <!-- Color -->
    <path d="M225 210.659C220.5 214 200.704 225 175.402 225C147.201 225 128.492 213.024 125.354 210.869C125.163 210.738 125.042 210.543 125 210.328C128.968 198.996 144.393 175.959 164.496 181.99C174.451 184.976 181.421 192.474 187.975 199.525C198.127 210.446 208 213.5 225 210.659C224.675 211.045 225.345 210.27 225 210.659Z" fill="url(#paint0_radial_931_113863)"/>
<mask id="mask0_931_113863" style="mask-type:alpha" maskUnits="userSpaceOnUse" x="124" y="180" width="101" height="45">
<path d="M223.866 211.799C218.236 215.343 200.575 225 175.272 225C147.071 225 128.362 213.003 125.225 210.845C125.034 210.714 124.912 210.519 124.87 210.303C128.839 198.951 144.263 175.875 164.366 181.916C174.321 184.908 181.291 192.418 187.845 199.481C197.997 210.421 207.154 220.288 224.87 210.635C224.545 211.021 224.21 211.409 223.866 211.799Z" fill="url(#paint1_radial_931_113863)"/>
</mask>
<g mask="url(#mask0_931_113863)">
<g filter="url(#filter0_f_931_113863)">
<mask id="mask1_931_113863" style="mask-type:alpha" maskUnits="userSpaceOnUse" x="124" y="94" width="102" height="132">
<path d="M148.862 95.3198C148.949 94.896 149.322 94.5918 149.755 94.5918H200.246C200.679 94.5918 201.052 94.896 201.139 95.3198L224.993 211.414C225.075 211.811 224.888 212.211 224.527 212.393C220.624 214.365 198.376 225.073 175 225.383C151.578 225.694 129.288 214.434 125.45 212.396C125.1 212.21 124.924 211.818 125.004 211.429L148.862 95.3198Z" fill="#577096" fill-opacity="0.75"/>
</mask>
<g mask="url(#mask1_931_113863)">
<g filter="url(#filter1_f_931_113863)">
<path d="M155.407 125.557C156.47 105.273 134.471 86.4386 128.929 67.2543C133.388 65.4531 144.05 71.0455 152.675 76.3806C163.456 83.0494 162.879 109.38 164.625 126.04C166.022 139.368 148.453 223.657 144.015 241.737L131.716 241.093C140.242 214.936 154.587 141.211 155.407 125.557Z" fill="url(#paint2_linear_931_113863)" fill-opacity="0.6"/>
</g>
</g>
</g>
</g>
<defs>
<filter id="filter0_f_931_113863" x="122.591" y="92.3132" width="105.59" height="135.355" filterUnits="userSpaceOnUse" color-interpolation-filters="sRGB">
<feFlood flood-opacity="0" result="BackgroundImageFix"/>
<feBlend mode="normal" in="SourceGraphic" in2="BackgroundImageFix" result="shape"/>
<feGaussianBlur stdDeviation="1.13932" result="effect1_foregroundBlur_931_113863"/>
</filter>
<filter id="filter1_f_931_113863" x="128.017" y="65.9987" width="37.5983" height="176.65" filterUnits="userSpaceOnUse" color-interpolation-filters="sRGB">
<feFlood flood-opacity="0" result="BackgroundImageFix"/>
<feBlend mode="normal" in="SourceGraphic" in2="BackgroundImageFix" result="shape"/>
<feGaussianBlur stdDeviation="0.455729" result="effect1_foregroundBlur_931_113863"/>
</filter>
<radialGradient id="paint0_radial_931_113863" cx="0" cy="0" r="1" gradientUnits="userSpaceOnUse" gradientTransform="translate(148.451 190.545) rotate(28.2255) scale(40.1081 37.0676)">
<stop offset="0.203125" style="stop-color: #FFB800;"/>
<stop offset="0.890625" style="stop-color: #FF7800;"/>
</radialGradient>
<radialGradient id="paint1_radial_931_113863" cx="0" cy="0" r="1" gradientUnits="userSpaceOnUse" gradientTransform="translate(146.382 191.229) rotate(27.0849) scale(58.9221 42.3164)">
<stop offset="0.302083" stop-color="#FFB800"/>
<stop offset="1" stop-color="#FF7800"/>
</radialGradient>
<linearGradient id="paint2_linear_931_113863" x1="160.729" y1="221.194" x2="201.954" y2="178.256" gradientUnits="userSpaceOnUse">
<stop stop-color="#F2F2F2"/>
<stop offset="0.0001" stop-color="#F2F2F2"/>
<stop offset="0.0520833" stop-color="#F2F2F2" stop-opacity="0.948011"/>
<stop offset="1" stop-color="#F2F2F2" stop-opacity="0"/>
</linearGradient>
</defs>
  
  
    
  <!-- Rainbow Pumpkin -->
  <mask id="mask0_878_100587" style="mask-type:alpha" maskUnits="userSpaceOnUse" x="149" y="34" width="53" height="70">
  <path d="M156.091 63.5833C159.545 50.6057 162.331 34 175.217 34C188.104 34 192.618 54.5604 194.774 63.8997C196.698 72.234 200.835 91.1671 201.703 95.1452C201.807 95.6238 201.691 96.1055 201.335 96.4414C199.512 98.1578 192.637 103.271 175.432 103.271C158.164 103.271 151.302 98.1198 149.51 96.4224C149.166 96.0968 149.048 95.6314 149.137 95.1664C149.83 91.5471 153.031 75.0758 156.091 63.5833Z" fill="black"/>
  <path d="M156.091 63.5833C159.545 50.6057 162.331 34 175.217 34C188.104 34 192.618 54.5604 194.774 63.8997C196.698 72.234 200.835 91.1671 201.703 95.1452C201.807 95.6238 201.691 96.1055 201.335 96.4414C199.512 98.1578 192.637 103.271 175.432 103.271C158.164 103.271 151.302 98.1198 149.51 96.4224C149.166 96.0968 149.048 95.6314 149.137 95.1664C149.83 91.5471 153.031 75.0758 156.091 63.5833Z" fill="url(#paint0_linear_878_100587)" fill-opacity="0.45"/>
  </mask>
  <g mask="url(#mask0_878_100587)">
  <path d="M317.024 154.758C317.024 154.758 290.926 126.861 257.678 130.127C228.177 133.024 207.074 181.224 165.21 181.224C123.346 181.224 87.0021 154.758 87.0021 154.758L87.0021 129.132C87.0021 129.132 120.259 155.155 165.21 155.155C185.69 155.155 229.535 107.214 257.678 104.518C291.303 101.297 317.024 129.131 317.024 129.131L317.024 154.758Z" fill="url(#paint1_radial_878_100587)"/>
  <path d="M317.023 129.131C317.023 129.131 290.925 101.234 257.677 104.5C228.176 107.398 207.073 155.597 165.209 155.597C123.345 155.597 87.0012 129.131 87.0012 129.131L87.0012 103.505C87.0012 103.505 120.258 129.529 165.209 129.529C185.689 129.529 229.534 81.5877 257.677 78.8914C291.302 75.6699 317.023 103.505 317.023 103.505L317.023 129.131Z" fill="url(#paint2_radial_878_100587)"/>
  <path d="M317.023 103.504C317.023 103.504 290.925 75.6073 257.677 78.8731C228.176 81.7709 207.073 129.97 165.209 129.97C123.345 129.97 87.0012 103.504 87.0012 103.504L87.0012 77.878C87.0012 77.878 120.258 103.902 165.209 103.902C185.689 103.902 229.534 55.9608 257.677 53.2644C291.302 50.043 317.023 77.8779 317.023 77.8779L317.023 103.504Z" fill="url(#paint3_radial_878_100587)"/>
  <path d="M317.023 77.8785C317.023 77.8785 290.925 49.9816 257.678 53.2474C228.177 56.1452 207.073 104.344 165.209 104.344C123.345 104.344 87.0017 77.8786 87.0017 77.8786L87.0017 52.2522C87.0017 52.2522 120.259 78.2762 165.209 78.2762C185.69 78.2762 229.535 30.335 257.678 27.6387C291.302 24.4172 317.023 52.2522 317.023 52.2522L317.023 77.8785Z" fill="url(#paint4_radial_878_100587)"/>
  <path d="M317.024 52.252C317.024 52.252 290.926 24.355 257.679 27.6208C228.178 30.5186 207.074 78.7178 165.21 78.7178C123.346 78.7178 87.0026 52.252 87.0026 52.252L87.0026 26.6257C87.0026 26.6257 120.26 52.6496 165.21 52.6496C185.691 52.6496 229.536 4.70844 257.679 2.01212C291.303 -1.20934 317.024 26.6256 317.024 26.6256L317.024 52.252Z" fill="url(#paint5_radial_878_100587)"/>
  <path d="M317.023 26.6265C317.023 26.6265 290.925 -1.27049 257.678 1.99533C228.177 4.89313 207.073 53.0923 165.209 53.0923C123.345 53.0923 87.0017 26.6265 87.0017 26.6265L87.0017 1.00016C87.0017 1.00016 120.259 27.0241 165.209 27.0241C185.69 27.0241 229.535 -20.9171 257.678 -23.6134C291.302 -26.8348 317.023 1.00014 317.023 1.00014L317.023 26.6265Z" fill="url(#paint6_radial_878_100587)"/>
  </g>
  <g filter="url(#filter0_d_878_100587)">
  <path d="M230.599 316.09L204.316 285.742H174.804H145.469L119.401 316.09C119.401 316.09 137.083 336.1 175 336.1C212.918 336.1 230.599 316.09 230.599 316.09Z" fill="black"/>
  </g>
  <mask id="mask1_878_100587" style="mask-type:alpha" maskUnits="userSpaceOnUse" x="113" y="210" width="125" height="106">
  <path d="M125.162 210C125.162 210 148.481 225.039 175.597 225.039C202.713 225.039 225.577 210 225.577 210C229.101 225.004 245.515 263.401 233.266 282.853C217.852 307.334 200.89 315.729 175.369 315.729C149.848 315.729 132.887 307.334 117.472 282.853C105.224 263.401 121.638 225.004 125.162 210Z" fill="url(#paint7_radial_878_100587)"/>
  </mask>
  <g mask="url(#mask1_878_100587)">
  <path d="M274.503 340.849C274.503 340.849 248.405 312.952 215.158 316.218C185.657 319.116 164.553 367.315 122.689 367.315C80.8251 367.315 44.4816 340.849 44.4816 340.849L44.4816 315.223C44.4816 315.223 77.7386 341.247 122.689 341.247C143.17 341.247 187.015 293.306 215.158 290.609C248.782 287.388 274.503 315.223 274.503 315.223L274.503 340.849Z" fill="url(#paint8_radial_878_100587)"/>
  <path d="M275.374 314.466C275.374 314.466 249.276 287.963 216.028 291.066C186.527 293.819 165.423 339.608 123.559 339.608C81.6952 339.608 45.3518 314.466 45.3518 314.466L45.3518 290.121C45.3518 290.121 78.6087 314.843 123.559 314.843C144.04 314.843 187.885 269.299 216.028 266.738C249.652 263.677 275.374 290.121 275.374 290.121L275.374 314.466Z" fill="url(#paint9_radial_878_100587)"/>
  <path d="M274.505 291.879C274.505 291.879 248.407 263.982 215.16 267.248C185.659 270.145 164.555 318.345 122.691 318.345C80.827 318.345 44.4836 291.879 44.4836 291.879L44.4836 266.252C44.4836 266.252 77.7405 292.276 122.691 292.276C143.172 292.276 187.017 244.335 215.16 241.639C248.784 238.417 274.505 266.252 274.505 266.252L274.505 291.879Z" fill="url(#paint10_radial_878_100587)"/>
  <path d="M274.505 266.252C274.505 266.252 248.407 238.355 215.159 241.621C185.658 244.519 164.554 292.718 122.691 292.718C80.8265 292.718 44.4831 266.252 44.4831 266.252L44.4831 240.626C44.4831 240.626 77.74 266.65 122.691 266.65C143.171 266.65 187.016 218.709 215.159 216.012C248.784 212.791 274.505 240.626 274.505 240.626L274.505 266.252Z" fill="url(#paint11_radial_878_100587)"/>
  <path d="M274.505 240.625C274.505 240.625 248.407 212.728 215.159 215.994C185.658 218.892 164.554 267.091 122.691 267.091C80.8265 267.091 44.4831 240.625 44.4831 240.625L44.4831 214.999C44.4831 214.999 77.74 241.023 122.691 241.023C143.171 241.023 187.016 193.082 215.159 190.385C248.784 187.164 274.505 214.999 274.505 214.999L274.505 240.625Z" fill="url(#paint12_radial_878_100587)"/>
  <path d="M274.505 215C274.505 215 248.407 187.103 215.16 190.368C185.659 193.266 164.555 241.465 122.691 241.465C80.827 241.465 44.4836 215 44.4836 215L44.4836 189.373C44.4836 189.373 77.7405 215.397 122.691 215.397C143.172 215.397 187.017 167.456 215.16 164.76C248.784 161.538 274.505 189.373 274.505 189.373L274.505 215Z" fill="url(#paint13_radial_878_100587)"/>
  <path d="M274.506 189.373C274.506 189.373 248.408 161.476 215.161 164.742C185.66 167.64 164.556 215.839 122.692 215.839C80.828 215.839 44.4846 189.373 44.4846 189.373L44.4846 163.747C44.4846 163.747 77.7415 189.771 122.692 189.771C143.173 189.771 187.018 141.829 215.161 139.133C248.785 135.912 274.506 163.747 274.506 163.747L274.506 189.373Z" fill="url(#paint14_radial_878_100587)"/>
  </g>
  <mask id="mask2_878_100587" style="mask-type:alpha" maskUnits="userSpaceOnUse" x="112" y="210" width="126" height="107">
  <path d="M124.726 210.547C124.726 210.547 148.046 225.586 175.162 225.586C202.278 225.586 225.142 210.547 225.142 210.547C228.665 225.551 245.079 263.948 232.831 283.4C217.416 307.881 200.455 316.276 174.934 316.276C149.413 316.276 132.452 307.881 117.037 283.4C104.788 263.948 121.203 225.551 124.726 210.547Z" fill="url(#paint15_radial_878_100587)"/>
  </mask>
  <g mask="url(#mask2_878_100587)">
  <path d="M203.645 319.922C210.523 301.926 220.152 256.681 203.645 219.661" stroke="#773B06" stroke-opacity="0.1" stroke-width="4.55729"/>
  <path d="M181.314 319.922C186.783 302.604 192.251 257.031 181.314 219.661" stroke="#773B06" stroke-opacity="0.1" stroke-width="4.55729"/>
  <path d="M165.363 319.922C159.895 302.604 154.426 257.031 165.363 219.661" stroke="#773B06" stroke-opacity="0.1" stroke-width="4.55729"/>
  <path d="M143.033 319.922C136.155 301.926 126.526 256.681 143.033 219.661" stroke="#773B06" stroke-opacity="0.1" stroke-width="4.55729"/>
  </g>
  <path d="M154.675 246.322C155.201 245.41 156.517 245.41 157.043 246.322L166.91 263.412C167.436 264.323 166.778 265.462 165.726 265.462H145.992C144.94 265.462 144.282 264.323 144.808 263.412L154.675 246.322Z" fill="black"/>
  <path d="M194.413 246.322C193.887 245.41 192.571 245.41 192.045 246.322L182.178 263.412C181.652 264.323 182.31 265.462 183.362 265.462H203.096C204.148 265.462 204.806 264.323 204.28 263.412L194.413 246.322Z" fill="black"/>
  <path fill-rule="evenodd" clip-rule="evenodd" d="M163.579 276.72H185.251V283.063H192.651V276.72H209.041C210.854 276.72 211.841 278.656 210.621 279.998C205.794 285.312 194.304 295.22 175.736 295.22C175.202 295.22 174.674 295.212 174.151 295.196V288.877H166.751V294.417C153.295 291.965 144.314 284.469 140.04 280.059C138.75 278.728 139.725 276.72 141.579 276.72H156.18V283.063H163.579V276.72Z" fill="black"/>
  <path d="M194.445 63.138C192.246 53.5916 187.668 33.724 175 33.724L175.215 336.1C213.133 336.1 230.814 316.09 230.814 316.09L218.057 301.36C223.367 296.625 228.314 290.564 233.112 282.944C242.929 267.355 234.335 239.598 228.722 221.466C227.331 216.973 226.123 213.071 225.423 210.091C225.423 210.091 225.309 210.166 225.087 210.306L201.465 95.6037C201.535 95.3724 201.541 95.1203 201.486 94.8692C200.618 90.891 196.481 71.958 194.557 63.6237L194.445 63.138Z" fill="#161A70" fill-opacity="0.1"/>
  <defs>
  <filter id="filter0_d_878_100587" x="117.123" y="285.742" width="116.667" height="55.8268" filterUnits="userSpaceOnUse" color-interpolation-filters="sRGB">
  <feFlood flood-opacity="0" result="BackgroundImageFix"/>
  <feColorMatrix in="SourceAlpha" type="matrix" values="0 0 0 0 0 0 0 0 0 0 0 0 0 0 0 0 0 0 127 0" result="hardAlpha"/>
  <feOffset dx="0.455729" dy="2.73438"/>
  <feGaussianBlur stdDeviation="1.36719"/>
  <feComposite in2="hardAlpha" operator="out"/>
  <feColorMatrix type="matrix" values="0 0 0 0 0 0 0 0 0 0 0 0 0 0 0 0 0 0 0.25 0"/>
  <feBlend mode="normal" in2="BackgroundImageFix" result="effect1_dropShadow_878_100587"/>
  <feBlend mode="normal" in="SourceGraphic" in2="effect1_dropShadow_878_100587" result="shape"/>
  </filter>
  <linearGradient id="paint0_linear_878_100587" x1="165.406" y1="49.0391" x2="175.432" y2="103.271" gradientUnits="userSpaceOnUse">
  <stop stop-color="white" stop-opacity="0.17"/>
  <stop offset="1" stop-color="#C3C3C3" stop-opacity="0"/>
  </linearGradient>
  <radialGradient id="paint1_radial_878_100587" cx="0" cy="0" r="1" gradientUnits="userSpaceOnUse" gradientTransform="translate(267.541 163.23) rotate(-158.782) scale(129.445 77.3696)">
  <stop offset="0.3125" stop-color="#FABE09"/>
  <stop offset="1" stop-color="#FDF21B"/>
  </radialGradient>
  <radialGradient id="paint2_radial_878_100587" cx="0" cy="0" r="1" gradientUnits="userSpaceOnUse" gradientTransform="translate(263.136 138.901) rotate(-157.775) scale(87.7221 68.1219)">
  <stop offset="0.203125" stop-color="#71FF30"/>
  <stop offset="0.890625" stop-color="#25BC46"/>
  </radialGradient>
  <radialGradient id="paint3_radial_878_100587" cx="0" cy="0" r="1" gradientUnits="userSpaceOnUse" gradientTransform="translate(267.54 111.977) rotate(-158.782) scale(129.445 77.3696)">
  <stop offset="0.239583" stop-color="#21F6EA"/>
  <stop offset="1" stop-color="#2183F6"/>
  </radialGradient>
  <radialGradient id="paint4_radial_878_100587" cx="0" cy="0" r="1" gradientUnits="userSpaceOnUse" gradientTransform="translate(267.54 86.3511) rotate(-158.782) scale(129.445 77.3696)">
  <stop offset="0.3125" stop-color="#321A93"/>
  <stop offset="1" stop-color="#3603FF"/>
  <stop offset="1" stop-color="#3603FF"/>
  </radialGradient>
  <radialGradient id="paint5_radial_878_100587" cx="0" cy="0" r="1" gradientUnits="userSpaceOnUse" gradientTransform="translate(267.541 60.7245) rotate(-158.782) scale(129.445 77.3696)">
  <stop offset="0.239583" stop-color="#5000B6"/>
  <stop offset="1" stop-color="#7E5EFF"/>
  </radialGradient>
  <radialGradient id="paint6_radial_878_100587" cx="0" cy="0" r="1" gradientUnits="userSpaceOnUse" gradientTransform="translate(267.54 35.099) rotate(-158.782) scale(129.445 77.3696)">
  <stop offset="0.328125" stop-color="#FF00D6"/>
  <stop offset="0.619792" stop-color="#D700B4"/>
  </radialGradient>
  <radialGradient id="paint7_radial_878_100587" cx="0" cy="0" r="1" gradientUnits="userSpaceOnUse" gradientTransform="translate(153.494 257.396) rotate(36.2538) scale(76.2935 67.5721)">
  <stop offset="0.0989583" stop-color="#FFB800"/>
  <stop offset="1" stop-color="#E96D00"/>
  </radialGradient>
  <radialGradient id="paint8_radial_878_100587" cx="0" cy="0" r="1" gradientUnits="userSpaceOnUse" gradientTransform="translate(220.616 350.619) rotate(-140.625) scale(47.5523 59.2949)">
  <stop offset="0.3125" stop-color="#F85449"/>
  <stop offset="1" stop-color="#CF0000"/>
  <stop offset="1" stop-color="#C53434"/>
  </radialGradient>
  <radialGradient id="paint9_radial_878_100587" cx="0" cy="0" r="1" gradientUnits="userSpaceOnUse" gradientTransform="translate(225.89 322.514) rotate(-159.755) scale(128.615 73.9749)">
  <stop offset="0.302083" stop-color="#FFB800"/>
  <stop offset="1" stop-color="#FF7800"/>
  </radialGradient>
  <radialGradient id="paint10_radial_878_100587" cx="0" cy="0" r="1" gradientUnits="userSpaceOnUse" gradientTransform="translate(225.022 300.351) rotate(-158.782) scale(129.445 77.3696)">
  <stop offset="0.3125" stop-color="#FABE09"/>
  <stop offset="1" stop-color="#FDF21B"/>
  </radialGradient>
  <radialGradient id="paint11_radial_878_100587" cx="0" cy="0" r="1" gradientUnits="userSpaceOnUse" gradientTransform="translate(220.618 276.022) rotate(-157.775) scale(87.7221 68.1219)">
  <stop offset="0.203125" stop-color="#71FF30"/>
  <stop offset="0.890625" stop-color="#25BC46"/>
  </radialGradient>
  <radialGradient id="paint12_radial_878_100587" cx="0" cy="0" r="1" gradientUnits="userSpaceOnUse" gradientTransform="translate(225.022 249.098) rotate(-158.782) scale(129.445 77.3696)">
  <stop offset="0.239583" stop-color="#21F6EA"/>
  <stop offset="1" stop-color="#2183F6"/>
  </radialGradient>
  <radialGradient id="paint13_radial_878_100587" cx="0" cy="0" r="1" gradientUnits="userSpaceOnUse" gradientTransform="translate(225.022 223.472) rotate(-158.782) scale(129.445 77.3696)">
  <stop offset="0.3125" stop-color="#321A93"/>
  <stop offset="1" stop-color="#3603FF"/>
  <stop offset="1" stop-color="#3603FF"/>
  </radialGradient>
  <radialGradient id="paint14_radial_878_100587" cx="0" cy="0" r="1" gradientUnits="userSpaceOnUse" gradientTransform="translate(225.023 197.846) rotate(-158.782) scale(129.445 77.3696)">
  <stop offset="0.239583" stop-color="#5000B6"/>
  <stop offset="1" stop-color="#7E5EFF"/>
  </radialGradient>
  <radialGradient id="paint15_radial_878_100587" cx="0" cy="0" r="1" gradientUnits="userSpaceOnUse" gradientTransform="translate(153.059 257.943) rotate(36.2538) scale(76.2935 67.5721)">
  <stop offset="0.0989583" stop-color="#FFB800"/>
  <stop offset="1" stop-color="#E96D00"/>
  </radialGradient>
  </defs>
  
    
    </svg>
  