
    <svg width="350" height="350" viewBox="0 0 350 350" fill="none" xmlns="http://www.w3.org/2000/svg">
    
  <!-- Magma BG -->
  <g clip-path="url(#clip0_28_264)">
  <rect x="0.0800781" y="0.0449219" width="350" height="350" fill="#5A1320"/>
  <rect x="0.0800781" y="0.0449219" width="350" height="350" fill="url(#paint0_radial_28_264)" fill-opacity="0.2"/>
  <path d="M125.979 290.538L299.833 190.751L430.988 233.879L212.56 294.049L125.979 290.538Z" fill="url(#paint1_linear_28_264)"/>
  <g opacity="0.45" filter="url(#filter0_f_28_264)">
  <ellipse rx="194.596" ry="66.7643" transform="matrix(0.999998 0.00221055 0.00221055 -0.999998 176.078 304.637)" fill="url(#paint2_radial_28_264)"/>
  </g>
  <g opacity="0.7" filter="url(#filter1_f_28_264)">
  <ellipse cx="174.396" cy="137.609" rx="196.647" ry="242.448" transform="rotate(0.126655 174.396 137.609)" fill="url(#paint3_radial_28_264)"/>
  </g>
  </g>
  <defs>
  <filter id="filter0_f_28_264" x="-23.0756" y="233.315" width="398.306" height="142.646" filterUnits="userSpaceOnUse" color-interpolation-filters="sRGB">
  <feFlood flood-opacity="0" result="BackgroundImageFix"/>
  <feBlend mode="normal" in="SourceGraphic" in2="BackgroundImageFix" result="shape"/>
  <feGaussianBlur stdDeviation="2.27865" result="effect1_foregroundBlur_28_264"/>
  </filter>
  <filter id="filter1_f_28_264" x="-26.8085" y="-109.396" width="402.409" height="494.01" filterUnits="userSpaceOnUse" color-interpolation-filters="sRGB">
  <feFlood flood-opacity="0" result="BackgroundImageFix"/>
  <feBlend mode="normal" in="SourceGraphic" in2="BackgroundImageFix" result="shape"/>
  <feGaussianBlur stdDeviation="2.27865" result="effect1_foregroundBlur_28_264"/>
  </filter>
  <radialGradient id="paint0_radial_28_264" cx="0" cy="0" r="1" gradientUnits="userSpaceOnUse" gradientTransform="translate(156.623 401.542) rotate(-84.441) scale(239.93 241.682)">
  <stop/>
  <stop offset="1" stop-opacity="0"/>
  </radialGradient>
  <linearGradient id="paint1_linear_28_264" x1="194.836" y1="271.638" x2="316.538" y2="167.936" gradientUnits="userSpaceOnUse">
  <stop/>
  <stop offset="1" stop-color="#333333" stop-opacity="0"/>
  </linearGradient>
  <radialGradient id="paint2_radial_28_264" cx="0" cy="0" r="1" gradientUnits="userSpaceOnUse" gradientTransform="translate(194.596 76.624) rotate(99.1226) scale(43.9775 125.337)">
  <stop stop-color="#CF0000"/>
  <stop offset="1" stop-color="#CF0000" stop-opacity="0"/>
  </radialGradient>
  <radialGradient id="paint3_radial_28_264" cx="0" cy="0" r="1" gradientUnits="userSpaceOnUse" gradientTransform="translate(174.396 173.413) rotate(92.5586) scale(157.837 128.153)">
  <stop stop-color="#CF0000"/>
  <stop offset="1" stop-color="#CF0000" stop-opacity="0"/>
  </radialGradient>
  <clipPath id="clip0_28_264">
  <rect width="350" height="350" fill="white"/>
  </clipPath>
  </defs>

    
  <!-- YinYang Overlay -->
  <g clip-path="url(#clip0_589_123547)">
  <g style="mix-blend-mode:overlay">
  <path fill-rule="evenodd" clip-rule="evenodd" d="M78.8411 117.851C113.323 117.851 141.276 89.8984 141.276 55.4166C141.276 20.9347 113.323 -7.01834 78.8411 -7.01834C44.3593 -7.01834 16.4062 20.9347 16.4062 55.4166C16.4062 89.8984 44.3593 117.851 78.8411 117.851ZM78.8411 -0.0293641C79.6131 -0.0293641 80.3813 -0.0135894 81.1455 0.0176539C116.331 3.89748 114.168 54.4846 79.0743 54.4846C79.0411 54.4846 79.0081 54.4886 78.9751 54.4966C78.6985 54.4887 78.4208 54.4847 78.1423 54.4847C62.3166 54.4847 49.4874 67.3139 49.4874 83.1395C49.4874 95.1042 56.8204 105.356 67.2372 109.646C42.1859 104.312 23.3952 82.0586 23.3952 55.4166C23.3952 24.7946 48.2192 -0.0293641 78.8411 -0.0293641ZM78.1423 90.8274C82.3881 90.8274 85.8301 87.3854 85.8301 83.1395C85.8301 78.8936 82.3881 75.4516 78.1423 75.4516C73.8963 75.4516 70.4544 78.8936 70.4544 83.1395C70.4544 87.3854 73.8963 90.8274 78.1423 90.8274Z" fill="white" fill-opacity="0.25"/>
  <path d="M85.8301 27.6936C85.8301 31.9395 82.3881 35.3815 78.1423 35.3815C73.8964 35.3815 70.4544 31.9395 70.4544 27.6936C70.4544 23.4477 73.8964 20.0057 78.1423 20.0057C82.3881 20.0057 85.8301 23.4477 85.8301 27.6936Z" fill="white" fill-opacity="0.25"/>
  </g>
  <g style="mix-blend-mode:overlay">
  <path fill-rule="evenodd" clip-rule="evenodd" d="M91.8296 270.521C113.349 270.521 130.794 253.076 130.794 231.556C130.794 210.036 113.349 192.591 91.8296 192.591C70.3099 192.591 52.8647 210.036 52.8647 231.556C52.8647 253.076 70.3099 270.521 91.8296 270.521ZM91.8296 196.953C92.3113 196.953 92.7908 196.963 93.2677 196.982C115.226 199.403 113.877 230.974 91.9751 230.974C91.9544 230.974 91.9338 230.977 91.9132 230.982C91.7405 230.977 91.5673 230.974 91.3934 230.974C81.5168 230.974 73.5103 238.981 73.5103 248.857C73.5103 256.324 78.0867 262.723 84.5877 265.4C68.9535 262.071 57.2265 248.183 57.2265 231.556C57.2265 212.445 72.7188 196.953 91.8296 196.953ZM91.3934 253.655C94.0432 253.655 96.1913 251.507 96.1913 248.857C96.1913 246.208 94.0432 244.06 91.3934 244.06C88.7436 244.06 86.5955 246.208 86.5955 248.857C86.5955 251.507 88.7436 253.655 91.3934 253.655Z" fill="white" fill-opacity="0.25"/>
  <path d="M96.1913 214.254C96.1913 216.904 94.0432 219.052 91.3934 219.052C88.7436 219.052 86.5955 216.904 86.5955 214.254C86.5955 211.605 88.7436 209.456 91.3934 209.456C94.0432 209.456 96.1913 211.605 96.1913 214.254Z" fill="white" fill-opacity="0.25"/>
  </g>
  <g style="mix-blend-mode:overlay">
  <path fill-rule="evenodd" clip-rule="evenodd" d="M255.436 366.68C276.956 366.68 294.401 349.235 294.401 327.715C294.401 306.195 276.956 288.75 255.436 288.75C233.916 288.75 216.471 306.195 216.471 327.715C216.471 349.235 233.916 366.68 255.436 366.68ZM255.436 293.112C255.918 293.112 256.397 293.122 256.874 293.141C278.833 295.562 277.483 327.133 255.582 327.133C255.561 327.133 255.54 327.136 255.52 327.141C255.347 327.136 255.174 327.133 255 327.133C245.123 327.133 237.117 335.14 237.117 345.016C237.117 352.483 241.693 358.882 248.194 361.559C232.56 358.23 220.833 344.342 220.833 327.715C220.833 308.604 236.325 293.112 255.436 293.112ZM255 349.814C257.65 349.814 259.798 347.666 259.798 345.016C259.798 342.367 257.65 340.219 255 340.219C252.35 340.219 250.202 342.367 250.202 345.016C250.202 347.666 252.35 349.814 255 349.814Z" fill="white" fill-opacity="0.25"/>
  <path d="M259.798 310.413C259.798 313.063 257.65 315.211 255 315.211C252.35 315.211 250.202 313.063 250.202 310.413C250.202 307.764 252.35 305.615 255 305.615C257.65 305.615 259.798 307.764 259.798 310.413Z" fill="white" fill-opacity="0.25"/>
  </g>
  <g style="mix-blend-mode:overlay">
  <path fill-rule="evenodd" clip-rule="evenodd" d="M236.751 43.1119C258.271 43.1119 275.716 25.6668 275.716 4.1471C275.716 -17.3726 258.271 -34.8177 236.751 -34.8177C215.232 -34.8177 197.787 -17.3726 197.787 4.1471C197.787 25.6668 215.232 43.1119 236.751 43.1119ZM236.751 -30.456C237.233 -30.456 237.713 -30.4462 238.19 -30.4267C260.148 -28.0053 258.799 3.5655 236.897 3.5655C236.876 3.5655 236.856 3.568 236.835 3.57295C236.662 3.56802 236.489 3.56554 236.315 3.56554C226.439 3.56554 218.432 11.5721 218.432 21.4487C218.432 28.9156 223.009 35.3138 229.51 37.9912C213.875 34.6621 202.148 20.7741 202.148 4.1471C202.148 -14.9637 217.641 -30.456 236.751 -30.456ZM236.315 26.2466C238.965 26.2466 241.113 24.0985 241.113 21.4487C241.113 18.7988 238.965 16.6507 236.315 16.6507C233.665 16.6507 231.517 18.7988 231.517 21.4487C231.517 24.0985 233.665 26.2466 236.315 26.2466Z" fill="white" fill-opacity="0.25"/>
  <path d="M241.113 -13.1545C241.113 -10.5046 238.965 -8.35654 236.315 -8.35654C233.665 -8.35654 231.517 -10.5046 231.517 -13.1545C231.517 -15.8043 233.665 -17.9524 236.315 -17.9524C238.965 -17.9524 241.113 -15.8043 241.113 -13.1545Z" fill="white" fill-opacity="0.25"/>
  </g>
  <g style="mix-blend-mode:overlay">
  <path fill-rule="evenodd" clip-rule="evenodd" d="M289.388 211.732C315.312 211.732 336.328 190.716 336.328 164.792C336.328 138.867 315.312 117.852 289.388 117.852C263.464 117.852 242.448 138.867 242.448 164.792C242.448 190.716 263.464 211.732 289.388 211.732ZM289.388 123.106C289.968 123.106 290.546 123.118 291.12 123.141C317.574 126.058 315.947 164.091 289.563 164.091C289.538 164.091 289.513 164.094 289.489 164.1C289.281 164.094 289.072 164.091 288.862 164.091C276.964 164.091 267.319 173.736 267.319 185.635C267.319 194.63 272.832 202.338 280.664 205.563C261.83 201.552 247.702 184.822 247.702 164.792C247.702 141.769 266.366 123.106 289.388 123.106ZM288.862 191.414C292.055 191.414 294.642 188.827 294.642 185.635C294.642 182.442 292.055 179.855 288.862 179.855C285.67 179.855 283.082 182.442 283.082 185.635C283.082 188.827 285.67 191.414 288.862 191.414Z" fill="white" fill-opacity="0.25"/>
  <path d="M294.642 143.949C294.642 147.141 292.055 149.729 288.862 149.729C285.67 149.729 283.082 147.141 283.082 143.949C283.082 140.757 285.67 138.169 288.862 138.169C292.055 138.169 294.642 140.757 294.642 143.949Z" fill="white" fill-opacity="0.25"/>
  </g>
  </g>
  <defs>
  <clipPath id="clip0_589_123547">
  <rect width="350" height="350" fill="white"/>
  </clipPath>
  </defs>

    
    
  <!-- Normal Glass -->
    <path d="M148.717 95L125.019 209.98C124.948 210.324 125.078 210.673 125.367 210.873C128.479 213.027 147.033 225 175 225C202.967 225 221.521 213.027 224.633 210.873C224.922 210.673 225.052 210.324 224.981 209.98L201.283 95C201.249 95.0666 201.205 95.1285 201.15 95.1836C199.818 96.5241 193.18 102.106 175 102.106C156.82 102.106 150.182 96.5241 148.85 95.1836C148.795 95.1285 148.751 95.0666 148.717 95Z" fill="#F41B1B" fill-opacity="0.6"/>
  
    
    
    <!-- Lava 1 -->
    <!-- Color -->
    <!-- filter -->
    <path d="M201.33 94.2312L205.4 114.032C203.808 113.761 202.153 113.448 200.459 113.128C186.293 110.453 169.479 107.277 165.223 123.731C163.365 130.915 166.057 135.213 168.676 139.394C171.205 143.431 173.665 147.359 171.9 153.669C169.751 161.35 158.067 166.325 148.671 162.995C138.746 159.477 139.443 144.904 145.148 137.85C150.853 130.795 151.677 120.031 150.853 112.871C150.454 109.41 148.742 106.935 146.502 105.251L148.841 93.8809C148.875 93.9478 148.92 94.0101 148.975 94.0656C150.853 95.9589 156.979 101.03 175.237 101.03C192.824 101.03 199.656 95.8196 201.33 94.2312Z" fill="url(#paint0_radial_931_113783)"/>
    <mask id="mask0_931_113783" style="mask-type:alpha" maskUnits="userSpaceOnUse" x="141" y="93" width="65" height="72">
    <path d="M201.33 94.2302L205.4 114.031C203.808 113.76 202.153 113.447 200.459 113.127C186.293 110.452 169.479 107.276 165.223 123.73C163.365 130.914 166.057 135.212 168.676 139.393C171.205 143.43 173.665 147.358 171.9 153.668C169.751 161.349 158.067 166.324 148.671 162.994C138.746 159.476 139.443 144.903 145.148 137.849C150.853 130.794 151.677 120.03 150.853 112.87C150.454 109.409 148.742 106.934 146.502 105.25L148.841 93.8799C148.875 93.9469 148.92 94.0092 148.975 94.0646C150.313 95.4133 156.979 101.029 175.237 101.029C192.824 101.029 199.656 95.8187 201.33 94.2302Z" fill="url(#paint1_radial_931_113783)"/>
    </mask>
    <g mask="url(#mask0_931_113783)">
    <g filter="url(#filter0_f_931_113783)">
    <mask id="mask1_931_113783" style="mask-type:alpha" maskUnits="userSpaceOnUse" x="125" y="94" width="101" height="132">
    <path d="M149.015 95.0639C149.102 94.6401 149.475 94.3359 149.907 94.3359H200.399C200.831 94.3359 201.205 94.6401 201.292 95.0639L225.146 211.159C225.227 211.555 225.041 211.955 224.68 212.137C220.777 214.109 198.528 224.817 175.153 225.128C151.731 225.438 129.441 214.178 125.603 212.141C125.253 211.954 125.077 211.562 125.157 211.173L149.015 95.0639Z" fill="#577096" fill-opacity="0.75"/>
    </mask>
    <g mask="url(#mask1_931_113783)">
    <g filter="url(#filter1_f_931_113783)">
    <path d="M207.362 76.1064C211.019 110.268 146.094 132.571 113.174 139.453L113.174 76.1064L207.362 76.1064Z" fill="url(#paint2_linear_931_113783)" fill-opacity="0.5"/>
    </g>
    <g filter="url(#filter2_f_931_113783)">
    <path d="M155.56 125.301C156.622 105.018 134.624 86.1828 129.082 66.9985C133.541 65.1973 144.203 70.7896 152.828 76.1247C163.609 82.7936 163.032 109.124 164.778 125.784C166.175 139.112 148.606 223.401 144.168 241.481L131.869 240.837C140.395 214.68 154.74 140.955 155.56 125.301Z" fill="url(#paint3_linear_931_113783)" fill-opacity="0.6"/>
    </g>
    </g>
    </g>
    </g>
    <defs>
    <filter id="filter0_f_931_113783" x="122.744" y="92.0573" width="104.986" height="135.355" filterUnits="userSpaceOnUse" color-interpolation-filters="sRGB">
    <feFlood flood-opacity="0" result="BackgroundImageFix"/>
    <feBlend mode="normal" in="SourceGraphic" in2="BackgroundImageFix" result="shape"/>
    <feGaussianBlur stdDeviation="1.13932" result="effect1_foregroundBlur_931_113783"/>
    </filter>
    <filter id="filter1_f_931_113783" x="112.262" y="75.195" width="96.1589" height="65.1696" filterUnits="userSpaceOnUse" color-interpolation-filters="sRGB">
    <feFlood flood-opacity="0" result="BackgroundImageFix"/>
    <feBlend mode="normal" in="SourceGraphic" in2="BackgroundImageFix" result="shape"/>
    <feGaussianBlur stdDeviation="0.455729" result="effect1_foregroundBlur_931_113783"/>
    </filter>
    <filter id="filter2_f_931_113783" x="128.17" y="65.7428" width="37.5978" height="176.65" filterUnits="userSpaceOnUse" color-interpolation-filters="sRGB">
    <feFlood flood-opacity="0" result="BackgroundImageFix"/>
    <feBlend mode="normal" in="SourceGraphic" in2="BackgroundImageFix" result="shape"/>
    <feGaussianBlur stdDeviation="0.455729" result="effect1_foregroundBlur_931_113783"/>
    </filter>
    <radialGradient id="paint0_radial_931_113783" cx="0" cy="0" r="1" gradientUnits="userSpaceOnUse" gradientTransform="translate(156.087 109.102) rotate(53.0717) scale(37.8406 40.3077)">
    <stop offset="0.203125" style="stop-color: #71FF30;"/>
    <stop offset="0.890625" style="stop-color: #25BC46;"/>
    </radialGradient>
    <radialGradient id="paint1_radial_931_113783" cx="0" cy="0" r="1" gradientUnits="userSpaceOnUse" gradientTransform="translate(156.087 109.101) rotate(53.0717) scale(37.8406 40.3077)">
    <stop offset="0.203125" stop-color="#71FF30"/>
    <stop offset="0.890625" stop-color="#25BC46"/>
    </radialGradient>
    <linearGradient id="paint2_linear_931_113783" x1="145.368" y1="123.01" x2="155.982" y2="72.2914" gradientUnits="userSpaceOnUse">
    <stop stop-color="white" stop-opacity="0"/>
    <stop offset="0.471361" stop-color="white"/>
    <stop offset="1" stop-color="white"/>
    </linearGradient>
    <linearGradient id="paint3_linear_931_113783" x1="160.882" y1="220.938" x2="202.107" y2="178" gradientUnits="userSpaceOnUse">
    <stop stop-color="#F2F2F2"/>
    <stop offset="0.0001" stop-color="#F2F2F2"/>
    <stop offset="0.0520833" stop-color="#F2F2F2" stop-opacity="0.948011"/>
    <stop offset="1" stop-color="#F2F2F2" stop-opacity="0"/>
    </linearGradient>
    </defs>
  
    
  <!-- Lava 2 -->
    <!-- Color -->
<path d="M178.202 131.059C178.202 128.163 180.222 122.394 188.299 122.479C196.377 122.565 198.468 128.235 198.504 131.059C198.576 133.132 197.365 137.622 191.952 138.995C185.184 140.711 178.202 136.85 178.202 131.059Z" fill="url(#paint0_radial_931_113845)"/>
<defs>
<radialGradient id="paint0_radial_931_113845" cx="0" cy="0" r="1" gradientUnits="userSpaceOnUse" gradientTransform="translate(182.959 126.151) rotate(45.5119) scale(10.2292 11.3416)">
<stop offset="0.203125" style="stop-color: #F85449;"/>
<stop offset="0.890625" style="stop-color: #C53434;"/>
</radialGradient>
</defs>
  
    
  <!-- Lava 3 -->
    <!-- Color -->
    <path d="M214.381 157.604L219.2 181.084C217.285 183.349 214.448 185.339 210.334 186.382C197.471 189.642 184.2 182.306 184.2 171.303C184.2 165.801 188.039 154.839 203.392 155.002C208.021 155.051 211.616 156.065 214.381 157.604Z" fill="url(#paint0_radial_931_113862)"/>
<defs>
<radialGradient id="paint0_radial_931_113862" cx="0" cy="0" r="1" gradientUnits="userSpaceOnUse" gradientTransform="translate(192.4 161.977) rotate(48.2936) scale(18.5718 20.4588)">
<stop offset="0.203125" style="stop-color: #5000B6;"/>
<stop offset="0.890625" style="stop-color: #7E5EFF;"/>
</radialGradient>
</defs>
  
    
  <!-- Lava 4 -->
    <!-- Color -->
    <path d="M225 210.659C220.5 214 200.704 225 175.402 225C147.201 225 128.492 213.024 125.354 210.869C125.163 210.738 125.042 210.543 125 210.328C128.968 198.996 144.393 175.959 164.496 181.99C174.451 184.976 181.421 192.474 187.975 199.525C198.127 210.446 208 213.5 225 210.659C224.675 211.045 225.345 210.27 225 210.659Z" fill="url(#paint0_radial_931_113863)"/>
<mask id="mask0_931_113863" style="mask-type:alpha" maskUnits="userSpaceOnUse" x="124" y="180" width="101" height="45">
<path d="M223.866 211.799C218.236 215.343 200.575 225 175.272 225C147.071 225 128.362 213.003 125.225 210.845C125.034 210.714 124.912 210.519 124.87 210.303C128.839 198.951 144.263 175.875 164.366 181.916C174.321 184.908 181.291 192.418 187.845 199.481C197.997 210.421 207.154 220.288 224.87 210.635C224.545 211.021 224.21 211.409 223.866 211.799Z" fill="url(#paint1_radial_931_113863)"/>
</mask>
<g mask="url(#mask0_931_113863)">
<g filter="url(#filter0_f_931_113863)">
<mask id="mask1_931_113863" style="mask-type:alpha" maskUnits="userSpaceOnUse" x="124" y="94" width="102" height="132">
<path d="M148.862 95.3198C148.949 94.896 149.322 94.5918 149.755 94.5918H200.246C200.679 94.5918 201.052 94.896 201.139 95.3198L224.993 211.414C225.075 211.811 224.888 212.211 224.527 212.393C220.624 214.365 198.376 225.073 175 225.383C151.578 225.694 129.288 214.434 125.45 212.396C125.1 212.21 124.924 211.818 125.004 211.429L148.862 95.3198Z" fill="#577096" fill-opacity="0.75"/>
</mask>
<g mask="url(#mask1_931_113863)">
<g filter="url(#filter1_f_931_113863)">
<path d="M155.407 125.557C156.47 105.273 134.471 86.4386 128.929 67.2543C133.388 65.4531 144.05 71.0455 152.675 76.3806C163.456 83.0494 162.879 109.38 164.625 126.04C166.022 139.368 148.453 223.657 144.015 241.737L131.716 241.093C140.242 214.936 154.587 141.211 155.407 125.557Z" fill="url(#paint2_linear_931_113863)" fill-opacity="0.6"/>
</g>
</g>
</g>
</g>
<defs>
<filter id="filter0_f_931_113863" x="122.591" y="92.3132" width="105.59" height="135.355" filterUnits="userSpaceOnUse" color-interpolation-filters="sRGB">
<feFlood flood-opacity="0" result="BackgroundImageFix"/>
<feBlend mode="normal" in="SourceGraphic" in2="BackgroundImageFix" result="shape"/>
<feGaussianBlur stdDeviation="1.13932" result="effect1_foregroundBlur_931_113863"/>
</filter>
<filter id="filter1_f_931_113863" x="128.017" y="65.9987" width="37.5983" height="176.65" filterUnits="userSpaceOnUse" color-interpolation-filters="sRGB">
<feFlood flood-opacity="0" result="BackgroundImageFix"/>
<feBlend mode="normal" in="SourceGraphic" in2="BackgroundImageFix" result="shape"/>
<feGaussianBlur stdDeviation="0.455729" result="effect1_foregroundBlur_931_113863"/>
</filter>
<radialGradient id="paint0_radial_931_113863" cx="0" cy="0" r="1" gradientUnits="userSpaceOnUse" gradientTransform="translate(148.451 190.545) rotate(28.2255) scale(40.1081 37.0676)">
<stop offset="0.203125" style="stop-color: #FFFFFF;"/>
<stop offset="0.890625" style="stop-color: #D0C9C9;"/>
</radialGradient>
<radialGradient id="paint1_radial_931_113863" cx="0" cy="0" r="1" gradientUnits="userSpaceOnUse" gradientTransform="translate(146.382 191.229) rotate(27.0849) scale(58.9221 42.3164)">
<stop offset="0.302083" stop-color="#FFB800"/>
<stop offset="1" stop-color="#FF7800"/>
</radialGradient>
<linearGradient id="paint2_linear_931_113863" x1="160.729" y1="221.194" x2="201.954" y2="178.256" gradientUnits="userSpaceOnUse">
<stop stop-color="#F2F2F2"/>
<stop offset="0.0001" stop-color="#F2F2F2"/>
<stop offset="0.0520833" stop-color="#F2F2F2" stop-opacity="0.948011"/>
<stop offset="1" stop-color="#F2F2F2" stop-opacity="0"/>
</linearGradient>
</defs>
  
  
    
  <!-- Ruby Alien -->
  <path d="M228.32 314.723L202.038 284.375H172.525H143.19L117.123 314.723C117.123 314.723 134.804 334.733 172.722 334.733C210.639 334.733 228.32 314.723 228.32 314.723Z" fill="black"/>
  <path d="M124.793 210.091C124.793 210.091 148.112 224.675 175.228 224.675C202.344 224.675 225.208 210.091 225.208 210.091C228.731 225.095 236.031 263.492 223.783 282.944C208.368 307.425 182.903 315.82 175 315.82C167.098 315.82 141.633 307.425 126.218 282.944C113.969 263.492 121.269 225.095 124.793 210.091Z" fill="#6DF244"/>
  <path d="M124.793 210.091C124.793 210.091 148.112 224.675 175.228 224.675C202.344 224.675 225.208 210.091 225.208 210.091C228.731 225.095 236.031 263.492 223.783 282.944C208.368 307.425 182.903 315.82 175 315.82C167.098 315.82 141.633 307.425 126.218 282.944C113.969 263.492 121.269 225.095 124.793 210.091Z" fill="url(#paint0_linear_737_226358)" fill-opacity="0.8"/>
  <path d="M155.659 62.5833C159.113 49.6057 161.899 33 174.786 33C187.672 33 192.187 53.5604 194.342 62.8997C196.329 71.5042 200.674 91.406 201.345 94.4841C201.403 94.7486 201.336 95.01 201.146 95.2035C199.763 96.6152 193.095 102.271 175.001 102.271C156.851 102.271 150.198 96.5809 148.843 95.1908C148.66 95.0034 148.594 94.7507 148.643 94.4937C149.178 91.6869 152.494 74.4714 155.659 62.5833Z" fill="url(#paint1_linear_737_226358)"/>
  <path d="M227.798 314.121L202.31 284.69C202.137 284.49 201.885 284.375 201.621 284.375H172.525H143.608C143.342 284.375 143.09 284.491 142.917 284.693L117.639 314.121C117.343 314.466 117.341 314.966 117.661 315.29C120.884 318.546 138.617 334.733 172.721 334.733C206.817 334.733 224.551 318.553 227.779 315.292C228.1 314.968 228.097 314.466 227.798 314.121Z" fill="url(#paint2_linear_737_226358)"/>
  <path d="M124.506 211.323C124.645 210.714 125.342 210.427 125.883 210.739C130.784 213.564 151.56 224.675 175.227 224.675C198.857 224.675 219.258 213.6 224.113 210.752C224.655 210.435 225.355 210.723 225.495 211.335C229.104 227.121 235.705 264.008 223.782 282.944C208.367 307.425 182.902 315.82 174.999 315.82C167.097 315.82 141.632 307.425 126.217 282.944C114.291 264.004 120.898 227.102 124.506 211.323Z" fill="url(#paint3_linear_737_226358)"/>
  <path d="M130.95 277.639C122.17 263.011 123.203 251.576 128.368 246.789C137.582 238.247 152.639 253.171 158.578 265.671C164.517 278.171 165.292 287.745 160.386 292.266C155.48 296.787 139.729 292.266 130.95 277.639Z" stroke="url(#paint4_linear_737_226358)" stroke-width="1.82292"/>
  <path fill-rule="evenodd" clip-rule="evenodd" d="M174.999 303.508C172.004 303.607 166.495 302.828 162.694 298.958H174.088H175.91H187.304C183.503 302.828 177.995 303.607 174.999 303.508Z" fill="#8B1414"/>
  <path d="M218.29 276.7C226.253 263.683 225.316 253.506 220.632 249.246C212.275 241.645 198.618 254.926 193.232 266.05C187.845 277.173 187.143 285.693 191.592 289.717C196.042 293.74 210.327 289.717 218.29 276.7Z" fill="#070707" stroke="#070707" stroke-width="0.455729"/>
  <path d="M219.429 277.639C228.311 263.011 227.266 251.576 222.041 246.789C212.72 238.247 197.488 253.171 191.48 265.671C185.472 278.171 184.688 287.745 189.651 292.266C194.614 296.787 210.548 292.266 219.429 277.639Z" stroke="url(#paint5_linear_737_226358)" stroke-width="1.82292"/>
  <path d="M220.588 256.217C219.787 252.567 217.885 250.967 216.325 251.049C213.542 251.195 213.375 255.888 214.312 258.759C215.249 261.63 216.576 263.229 218.054 263.147C219.531 263.065 221.389 259.867 220.588 256.217Z" fill="url(#paint6_radial_737_226358)"/>
  <path fill-rule="evenodd" clip-rule="evenodd" d="M175.001 292.166C173.542 291.986 170.042 292.273 167.709 294.857H175.001H182.292C179.959 292.273 176.459 291.986 175.001 292.166Z" fill="#8B1414"/>
  <path d="M132.089 276.7C124.228 263.683 125.153 253.506 129.777 249.246C138.027 241.645 151.509 254.926 156.826 266.05C162.143 277.173 162.837 285.693 158.444 289.717C154.052 293.74 139.95 289.717 132.089 276.7Z" fill="#070707" stroke="#070707" stroke-width="0.455729"/>
  <path d="M129.563 256.217C130.364 252.567 132.265 250.967 133.825 251.049C136.609 251.195 136.776 255.888 135.839 258.759C134.902 261.63 133.575 263.229 132.097 263.147C130.619 263.065 128.762 259.867 129.563 256.217Z" fill="url(#paint7_radial_737_226358)"/>
  <path d="M130.95 277.639C122.17 263.011 123.203 251.576 128.368 246.789C137.582 238.247 152.639 253.171 158.578 265.671C164.517 278.171 165.292 287.745 160.386 292.266C155.48 296.787 139.729 292.266 130.95 277.639Z" stroke="url(#paint8_linear_737_226358)" stroke-width="1.82292"/>
  <path fill-rule="evenodd" clip-rule="evenodd" d="M177.408 224.674L177.306 224.674C177.892 224.674 178.475 224.667 179.052 224.655C178.506 224.668 177.958 224.674 177.408 224.674Z" fill="#161A70" fill-opacity="0.1"/>
  <path fill-rule="evenodd" clip-rule="evenodd" d="M228.411 314.723C228.411 314.723 211.425 334.733 175 334.733V32.3568C187.169 32.3568 192.182 52.2244 194.295 61.7708L194.403 62.2565C196.251 70.5908 200.68 89.5238 201.514 93.502C201.567 93.7531 201.561 94.0051 201.494 94.2365L225.234 209.629C225.279 209.86 225.239 210.093 225.124 210.283C225.32 210.158 225.421 210.091 225.421 210.091C228.805 225.095 235.818 263.492 224.051 282.944C220.851 288.235 217.2 292.774 213.366 296.64L228.411 314.723ZM177.408 224.674L177.306 224.674C177.892 224.674 178.475 224.667 179.052 224.655C178.506 224.668 177.958 224.674 177.408 224.674Z" fill="#161A70" fill-opacity="0.1"/>
  <defs>
  <linearGradient id="paint0_linear_737_226358" x1="175" y1="293.49" x2="175" y2="226.953" gradientUnits="userSpaceOnUse">
  <stop offset="0.527397" stop-color="#6DF244"/>
  <stop offset="1" stop-color="#388E1D"/>
  </linearGradient>
  <linearGradient id="paint1_linear_737_226358" x1="175.001" y1="9.41209" x2="152.222" y2="101.726" gradientUnits="userSpaceOnUse">
  <stop stop-color="#830101"/>
  <stop offset="0.979167" stop-color="#FF1818" stop-opacity="0.98"/>
  </linearGradient>
  <linearGradient id="paint2_linear_737_226358" x1="132.791" y1="292.634" x2="162.493" y2="361.543" gradientUnits="userSpaceOnUse">
  <stop stop-color="#9A0404"/>
  <stop offset="0.473958" stop-color="#D80101" stop-opacity="0.98"/>
  <stop offset="1" stop-color="#FF8080" stop-opacity="0.98"/>
  </linearGradient>
  <linearGradient id="paint3_linear_737_226358" x1="174.999" y1="174.089" x2="149.067" y2="318.925" gradientUnits="userSpaceOnUse">
  <stop stop-color="#830101"/>
  <stop offset="0.979167" stop-color="#FF1818" stop-opacity="0.98"/>
  </linearGradient>
  <linearGradient id="paint4_linear_737_226358" x1="144.01" y1="244.271" x2="144.01" y2="293.945" gradientUnits="userSpaceOnUse">
  <stop stop-color="#CF0000"/>
  <stop offset="0.40625" stop-color="#CF0000" stop-opacity="0.37"/>
  </linearGradient>
  <linearGradient id="paint5_linear_737_226358" x1="206.217" y1="244.271" x2="206.217" y2="293.945" gradientUnits="userSpaceOnUse">
  <stop offset="0.338542" stop-color="#CF0000" stop-opacity="0.37"/>
  <stop offset="1" stop-color="#FF4E4E"/>
  </linearGradient>
  <radialGradient id="paint6_radial_737_226358" cx="0" cy="0" r="1" gradientUnits="userSpaceOnUse" gradientTransform="translate(217.185 256.975) rotate(79.0248) scale(5.68455 4.63752)">
  <stop stop-color="white" stop-opacity="0.75"/>
  <stop offset="1" stop-color="white" stop-opacity="0"/>
  <stop offset="1" stop-color="white"/>
  </radialGradient>
  <radialGradient id="paint7_radial_737_226358" cx="0" cy="0" r="1" gradientUnits="userSpaceOnUse" gradientTransform="translate(132.966 256.975) rotate(100.975) scale(5.68455 4.63752)">
  <stop stop-color="white" stop-opacity="0.75"/>
  <stop offset="1" stop-color="white" stop-opacity="0"/>
  <stop offset="1" stop-color="white"/>
  </radialGradient>
  <linearGradient id="paint8_linear_737_226358" x1="144.01" y1="244.271" x2="144.01" y2="293.945" gradientUnits="userSpaceOnUse">
  <stop offset="0.338542" stop-color="#CF0000" stop-opacity="0.37"/>
  <stop offset="1" stop-color="#FF4E4E"/>
  </linearGradient>
  </defs>
  
    
    </svg>
  