
    <svg width="350" height="350" viewBox="0 0 350 350" fill="none" xmlns="http://www.w3.org/2000/svg">
    
  <!-- Ash BG -->
  <g clip-path="url(#clip0_28_290)">
  <rect x="0.0789795" y="0.0444336" width="350" height="350" fill="black" fill-opacity="0.89"/>
  <rect x="0.0789795" y="0.0444336" width="350" height="350" fill="url(#paint0_radial_28_290)" fill-opacity="0.2"/>
  <path d="M125.979 290.538L299.832 190.751L430.987 233.879L230.789 294.049L125.979 290.538Z" fill="url(#paint1_linear_28_290)"/>
  <g opacity="0.45" filter="url(#filter0_f_28_290)">
  <ellipse rx="194.596" ry="66.7643" transform="matrix(0.999998 0.00221055 0.00221055 -0.999998 176.078 304.637)" fill="url(#paint2_radial_28_290)"/>
  </g>
  <g opacity="0.7" filter="url(#filter1_f_28_290)">
  <ellipse cx="174.396" cy="137.609" rx="196.647" ry="242.448" transform="rotate(0.126655 174.396 137.609)" fill="url(#paint3_radial_28_290)"/>
  </g>
  </g>
  <defs>
  <filter id="filter0_f_28_290" x="-23.0754" y="233.314" width="398.306" height="142.646" filterUnits="userSpaceOnUse" color-interpolation-filters="sRGB">
  <feFlood flood-opacity="0" result="BackgroundImageFix"/>
  <feBlend mode="normal" in="SourceGraphic" in2="BackgroundImageFix" result="shape"/>
  <feGaussianBlur stdDeviation="2.27865" result="effect1_foregroundBlur_28_290"/>
  </filter>
  <filter id="filter1_f_28_290" x="-26.8086" y="-109.396" width="402.41" height="494.01" filterUnits="userSpaceOnUse" color-interpolation-filters="sRGB">
  <feFlood flood-opacity="0" result="BackgroundImageFix"/>
  <feBlend mode="normal" in="SourceGraphic" in2="BackgroundImageFix" result="shape"/>
  <feGaussianBlur stdDeviation="2.27865" result="effect1_foregroundBlur_28_290"/>
  </filter>
  <radialGradient id="paint0_radial_28_290" cx="0" cy="0" r="1" gradientUnits="userSpaceOnUse" gradientTransform="translate(156.622 401.542) rotate(-84.441) scale(239.93 241.682)">
  <stop/>
  <stop offset="1" stop-opacity="0"/>
  </radialGradient>
  <linearGradient id="paint1_linear_28_290" x1="194.836" y1="271.638" x2="316.537" y2="167.936" gradientUnits="userSpaceOnUse">
  <stop/>
  <stop offset="1" stop-color="#333333" stop-opacity="0"/>
  </linearGradient>
  <radialGradient id="paint2_radial_28_290" cx="0" cy="0" r="1" gradientUnits="userSpaceOnUse" gradientTransform="translate(194.596 76.624) rotate(99.1226) scale(43.9775 125.337)">
  <stop stop-color="#737373"/>
  <stop offset="1" stop-color="#9A9A9A" stop-opacity="0"/>
  </radialGradient>
  <radialGradient id="paint3_radial_28_290" cx="0" cy="0" r="1" gradientUnits="userSpaceOnUse" gradientTransform="translate(174.396 173.413) rotate(92.5586) scale(157.837 128.153)">
  <stop stop-color="#737373"/>
  <stop offset="1" stop-color="#9A9A9A" stop-opacity="0"/>
  </radialGradient>
  <clipPath id="clip0_28_290">
  <rect width="350" height="350" fill="white"/>
  </clipPath>
  </defs>
  
    
  <!-- Ethereum Overlay -->
  <g clip-path="url(#clip0_625_53334)">
  <g clip-path="url(#clip1_625_53334)">
  <path d="M42.1058 2.27863L41.2437 5.26917V92.0478L42.1058 92.9261L81.5757 69.1157L42.1058 2.27863Z" fill="white" fill-opacity="0.05"/>
  <path d="M41.2317 2.27872L0.911621 69.1061L41.2317 92.9133V50.7997V2.27872Z" fill="white" fill-opacity="0.15"/>
  <path d="M41.7337 100.627L41.2437 101.23V132.083L41.7337 133.529L81.5757 76.8738L41.7337 100.627Z" fill="white" fill-opacity="0.1"/>
  <path d="M41.2317 133.499V100.539L0.911621 76.7436L41.2317 133.499Z" fill="white" fill-opacity="0.15"/>
  <path d="M41.2314 92.9128L81.5509 69.1062L41.2314 50.7998V92.9128Z" fill="white" fill-opacity="0.1"/>
  <path d="M0.911865 69.1062L41.2313 92.9128V50.7998L0.911865 69.1062Z" fill="white" fill-opacity="0.1"/>
  </g>
  <g clip-path="url(#clip2_625_53334)">
  <path d="M263.298 -6.83594L262.728 -4.84224V53.0102L263.298 53.5957L289.388 37.7221L263.298 -6.83594Z" fill="white" fill-opacity="0.05"/>
  <path d="M262.72 -6.83594L236.068 37.7156L262.72 53.5871V25.5114V-6.83594Z" fill="white" fill-opacity="0.15"/>
  <path d="M263.052 58.7295L262.728 59.1316V79.7004L263.052 80.6641L289.388 42.8943L263.052 58.7295Z" fill="white" fill-opacity="0.1"/>
  <path d="M262.72 80.6441V58.6704L236.068 42.8071L262.72 80.6441Z" fill="white" fill-opacity="0.15"/>
  <path d="M262.72 53.5867L289.372 37.7156L262.72 25.5114V53.5867Z" fill="white" fill-opacity="0.1"/>
  <path d="M236.068 37.7156L262.72 53.5867V25.5114L236.068 37.7156Z" fill="white" fill-opacity="0.1"/>
  </g>
  <g clip-path="url(#clip3_625_53334)">
  <path d="M141.618 92.9688L141.048 94.9624V152.815L141.618 153.4L167.708 137.527L141.618 92.9688Z" fill="white" fill-opacity="0.05"/>
  <path d="M141.04 92.9688L114.388 137.52L141.04 153.392V125.316V92.9688Z" fill="white" fill-opacity="0.15"/>
  <path d="M141.372 158.534L141.048 158.936V179.505L141.372 180.469L167.708 142.699L141.372 158.534Z" fill="white" fill-opacity="0.1"/>
  <path d="M141.04 180.449V158.475L114.388 142.612L141.04 180.449Z" fill="white" fill-opacity="0.15"/>
  <path d="M141.04 153.391L167.692 137.52L141.04 125.316V153.391Z" fill="white" fill-opacity="0.1"/>
  <path d="M114.388 137.52L141.04 153.391V125.316L114.388 137.52Z" fill="white" fill-opacity="0.1"/>
  </g>
  <g clip-path="url(#clip4_625_53334)">
  <path d="M-5.1269 125.326L-5.69678 127.319V185.172L-5.1269 185.757L20.9634 169.884L-5.1269 125.326Z" fill="white" fill-opacity="0.05"/>
  <path d="M-5.37282 190.891L-5.69678 191.293V211.862L-5.37282 212.826L20.9634 175.056L-5.37282 190.891Z" fill="white" fill-opacity="0.1"/>
  <path d="M-5.70459 185.748L20.9472 169.877L-5.70459 157.673V185.748Z" fill="white" fill-opacity="0.1"/>
  </g>
  <g clip-path="url(#clip5_625_53334)">
  <path d="M235.954 106.185L235.384 108.179V166.031L235.954 166.617L262.044 150.743L235.954 106.185Z" fill="white" fill-opacity="0.05"/>
  <path d="M235.376 106.185L208.724 150.737L235.376 166.608V138.532V106.185Z" fill="white" fill-opacity="0.15"/>
  <path d="M235.708 171.75L235.384 172.152V192.721L235.708 193.685L262.044 155.915L235.708 171.75Z" fill="white" fill-opacity="0.1"/>
  <path d="M235.376 193.665V171.691L208.724 155.828L235.376 193.665Z" fill="white" fill-opacity="0.15"/>
  <path d="M235.376 166.608L262.028 150.736L235.376 138.532V166.608Z" fill="white" fill-opacity="0.1"/>
  <path d="M208.724 150.736L235.376 166.608V138.532L208.724 150.736Z" fill="white" fill-opacity="0.1"/>
  </g>
  <g clip-path="url(#clip6_625_53334)">
  <path d="M115.186 306.25L114.616 308.244V366.096L115.186 366.682L141.276 350.808L115.186 306.25Z" fill="white" fill-opacity="0.05"/>
  <path d="M114.608 306.25L87.9556 350.802L114.608 366.673V338.597V306.25Z" fill="white" fill-opacity="0.15"/>
  <path d="M114.608 366.673L141.26 350.802L114.608 338.597V366.673Z" fill="white" fill-opacity="0.1"/>
  <path d="M87.9558 350.802L114.608 366.673V338.597L87.9558 350.802Z" fill="white" fill-opacity="0.1"/>
  </g>
  <g clip-path="url(#clip7_625_53334)">
  <path d="M350.22 306.25L323.568 350.802L350.22 366.673V338.597V306.25Z" fill="white" fill-opacity="0.15"/>
  <path d="M323.568 350.802L350.22 366.673V338.597L323.568 350.802Z" fill="white" fill-opacity="0.1"/>
  </g>
  <g clip-path="url(#clip8_625_53334)">
  <path d="M1.70903 244.271L1.13916 246.265V304.117L1.70903 304.703L27.7993 288.829L1.70903 244.271Z" fill="white" fill-opacity="0.05"/>
  <path d="M1.13125 244.271L-25.521 288.822L1.13125 304.694V276.618V244.271Z" fill="white" fill-opacity="0.15"/>
  <path d="M1.46312 309.836L1.13916 310.238V330.807L1.46312 331.771L27.7993 294.001L1.46312 309.836Z" fill="white" fill-opacity="0.1"/>
  <path d="M1.13125 331.751V309.777L-25.521 293.914L1.13125 331.751Z" fill="white" fill-opacity="0.15"/>
  <path d="M1.13135 304.693L27.7832 288.822L1.13135 276.618V304.693Z" fill="white" fill-opacity="0.1"/>
  <path d="M-25.5208 288.822L1.13108 304.693V276.618L-25.5208 288.822Z" fill="white" fill-opacity="0.1"/>
  </g>
  <g clip-path="url(#clip9_625_53334)">
  <path d="M141.618 -36.9141L141.048 -34.9204V22.9321L141.618 23.5176L167.708 7.64399L141.618 -36.9141Z" fill="white" fill-opacity="0.05"/>
  <path d="M141.04 -36.9141L114.388 7.6375L141.04 23.509V-4.56676V-36.9141Z" fill="white" fill-opacity="0.15"/>
  <path d="M141.372 28.6513L141.048 29.0535V49.6222L141.372 50.5859L167.708 12.8162L141.372 28.6513Z" fill="white" fill-opacity="0.1"/>
  <path d="M141.04 50.5659V28.5923L114.388 12.729L141.04 50.5659Z" fill="white" fill-opacity="0.15"/>
  <path d="M141.04 23.5086L167.692 7.63748L141.04 -4.56677V23.5086Z" fill="white" fill-opacity="0.1"/>
  <path d="M114.388 7.63749L141.04 23.5086V-4.56677L114.388 7.63749Z" fill="white" fill-opacity="0.1"/>
  </g>
  <g clip-path="url(#clip10_625_53334)">
  <path d="M82.946 184.57L82.2593 186.959V256.261L82.946 256.962L114.388 237.947L82.946 184.57Z" fill="white" fill-opacity="0.05"/>
  <path d="M82.2497 184.57L50.1304 237.939L82.2497 256.952V223.32V184.57Z" fill="white" fill-opacity="0.15"/>
  <path d="M82.6497 263.112L82.2593 263.594V288.234L82.6497 289.388L114.388 244.143L82.6497 263.112Z" fill="white" fill-opacity="0.1"/>
  <path d="M82.2497 289.364V263.042L50.1304 244.039L82.2497 289.364Z" fill="white" fill-opacity="0.15"/>
  <path d="M82.2493 256.952L114.368 237.939L82.2493 223.32V256.952Z" fill="white" fill-opacity="0.1"/>
  <path d="M50.1306 237.939L82.2495 256.952V223.32L50.1306 237.939Z" fill="white" fill-opacity="0.1"/>
  </g>
  <g clip-path="url(#clip11_625_53334)">
  <path d="M349.994 80.6641L349.089 83.8207V175.42L349.994 176.348L391.471 151.214L349.994 80.6641Z" fill="white" fill-opacity="0.05"/>
  <path d="M349.076 80.6641L306.706 151.204L349.076 176.334V131.881V80.6641Z" fill="white" fill-opacity="0.15"/>
  <path d="M349.604 184.476L349.089 185.113V217.68L349.604 219.206L391.471 159.404L349.604 184.476Z" fill="white" fill-opacity="0.1"/>
  <path d="M349.076 219.174V184.383L306.706 159.266L349.076 219.174Z" fill="white" fill-opacity="0.15"/>
  <path d="M349.076 176.333L391.445 151.204L349.076 131.881V176.333Z" fill="white" fill-opacity="0.1"/>
  <path d="M306.706 151.204L349.075 176.333V131.881L306.706 151.204Z" fill="white" fill-opacity="0.1"/>
  </g>
  <g clip-path="url(#clip12_625_53334)">
  <path d="M236.935 224.219L236.068 227.23V314.611L236.935 315.496L276.628 291.52L236.935 224.219Z" fill="white" fill-opacity="0.05"/>
  <path d="M236.056 224.219L195.508 291.51L236.056 315.483V273.077V224.219Z" fill="white" fill-opacity="0.15"/>
  <path d="M236.561 323.25L236.068 323.857V354.925L236.561 356.38L276.628 299.332L236.561 323.25Z" fill="white" fill-opacity="0.1"/>
  <path d="M236.056 356.35V323.161L195.508 299.201L236.056 356.35Z" fill="white" fill-opacity="0.15"/>
  <path d="M236.056 315.482L276.603 291.51L236.056 273.077V315.482Z" fill="white" fill-opacity="0.1"/>
  <path d="M195.508 291.51L236.055 315.482V273.077L195.508 291.51Z" fill="white" fill-opacity="0.1"/>
  </g>
  </g>
  <defs>
  <clipPath id="clip0_625_53334">
  <rect width="350" height="350" fill="white"/>
  </clipPath>
  <clipPath id="clip1_625_53334">
  <rect width="80.6641" height="131.25" fill="white" transform="translate(0.911621 2.27872)"/>
  </clipPath>
  <clipPath id="clip2_625_53334">
  <rect width="53.3203" height="87.5" fill="white" transform="translate(236.068 -6.83594)"/>
  </clipPath>
  <clipPath id="clip3_625_53334">
  <rect width="53.3203" height="87.5" fill="white" transform="translate(114.388 92.9688)"/>
  </clipPath>
  <clipPath id="clip4_625_53334">
  <rect width="53.3203" height="87.5" fill="white" transform="translate(-32.3569 125.326)"/>
  </clipPath>
  <clipPath id="clip5_625_53334">
  <rect width="53.3203" height="87.5" fill="white" transform="translate(208.724 106.185)"/>
  </clipPath>
  <clipPath id="clip6_625_53334">
  <rect width="53.3203" height="87.5" fill="white" transform="translate(87.9556 306.25)"/>
  </clipPath>
  <clipPath id="clip7_625_53334">
  <rect width="53.3203" height="87.5" fill="white" transform="translate(323.568 306.25)"/>
  </clipPath>
  <clipPath id="clip8_625_53334">
  <rect width="53.3203" height="87.5" fill="white" transform="translate(-25.521 244.271)"/>
  </clipPath>
  <clipPath id="clip9_625_53334">
  <rect width="53.3203" height="87.5" fill="white" transform="translate(114.388 -36.9141)"/>
  </clipPath>
  <clipPath id="clip10_625_53334">
  <rect width="64.2578" height="104.818" fill="white" transform="translate(50.1304 184.57)"/>
  </clipPath>
  <clipPath id="clip11_625_53334">
  <rect width="84.7656" height="138.542" fill="white" transform="translate(306.706 80.6641)"/>
  </clipPath>
  <clipPath id="clip12_625_53334">
  <rect width="81.1198" height="132.161" fill="white" transform="translate(195.508 224.219)"/>
  </clipPath>
  </defs>

    
  <!-- Halo -->
  <g filter="url(#filter0_d_559_36466)">
  <path d="M216.24 25.3087C216.24 25.3087 216.24 25.3124 216.238 25.3199C216.238 25.3125 216.239 25.3087 216.24 25.3087ZM215.963 24.9666C216.147 25.1635 216.21 25.2863 216.231 25.3395C216.21 25.3928 216.147 25.5156 215.963 25.7125C215.626 26.0741 215.016 26.5326 214.038 27.0399C212.086 28.0515 209.113 29.0303 205.248 29.8777C197.555 31.5642 186.818 32.6265 174.883 32.6265C162.947 32.6265 152.211 31.5642 144.518 29.8777C140.653 29.0303 137.679 28.0515 135.727 27.0399C134.749 26.5326 134.14 26.0741 133.802 25.7125C133.618 25.5156 133.555 25.3928 133.534 25.3395C133.555 25.2863 133.618 25.1635 133.802 24.9666C134.14 24.605 134.749 24.1465 135.727 23.6392C137.679 22.6276 140.653 21.6487 144.518 20.8014C152.211 19.1149 162.947 18.0526 174.883 18.0526C186.818 18.0526 197.555 19.1149 205.248 20.8014C209.113 21.6487 212.086 22.6276 214.038 23.6392C215.016 24.1465 215.626 24.605 215.963 24.9666ZM133.526 25.3087C133.526 25.3087 133.527 25.3125 133.528 25.3199C133.526 25.3124 133.525 25.3087 133.526 25.3087ZM133.526 25.3704C133.525 25.3704 133.526 25.3667 133.528 25.3592C133.527 25.3666 133.526 25.3704 133.526 25.3704ZM216.238 25.3592C216.24 25.3667 216.24 25.3704 216.24 25.3704C216.239 25.3704 216.238 25.3666 216.238 25.3592Z" stroke="#FDF21B" stroke-width="4.55729" shape-rendering="crispEdges"/>
  </g>
  <defs>
  <filter id="filter0_d_559_36466" x="127.926" y="12.4498" width="93.9138" height="25.7795" filterUnits="userSpaceOnUse" color-interpolation-filters="sRGB">
  <feFlood flood-opacity="0" result="BackgroundImageFix"/>
  <feColorMatrix in="SourceAlpha" type="matrix" values="0 0 0 0 0 0 0 0 0 0 0 0 0 0 0 0 0 0 127 0" result="hardAlpha"/>
  <feOffset/>
  <feGaussianBlur stdDeviation="1.66205"/>
  <feComposite in2="hardAlpha" operator="out"/>
  <feColorMatrix type="matrix" values="0 0 0 0 1 0 0 0 0 1 0 0 0 0 1 0 0 0 1 0"/>
  <feBlend mode="normal" in2="BackgroundImageFix" result="effect1_dropShadow_559_36466"/>
  <feBlend mode="normal" in="SourceGraphic" in2="effect1_dropShadow_559_36466" result="shape"/>
  </filter>
  </defs>
    
    
  <!-- Normal Glass -->
    <path d="M148.717 95L125.019 209.98C124.948 210.324 125.078 210.673 125.367 210.873C128.479 213.027 147.033 225 175 225C202.967 225 221.521 213.027 224.633 210.873C224.922 210.673 225.052 210.324 224.981 209.98L201.283 95C201.249 95.0666 201.205 95.1285 201.15 95.1836C199.818 96.5241 193.18 102.106 175 102.106C156.82 102.106 150.182 96.5241 148.85 95.1836C148.795 95.1285 148.751 95.0666 148.717 95Z" fill="#FFFA8D" fill-opacity="0.6"/>
  
    
    
    <!-- Lava 1 -->
    <!-- Color -->
    <!-- filter -->
    <path d="M201.33 94.2312L205.4 114.032C203.808 113.761 202.153 113.448 200.459 113.128C186.293 110.453 169.479 107.277 165.223 123.731C163.365 130.915 166.057 135.213 168.676 139.394C171.205 143.431 173.665 147.359 171.9 153.669C169.751 161.35 158.067 166.325 148.671 162.995C138.746 159.477 139.443 144.904 145.148 137.85C150.853 130.795 151.677 120.031 150.853 112.871C150.454 109.41 148.742 106.935 146.502 105.251L148.841 93.8809C148.875 93.9478 148.92 94.0101 148.975 94.0656C150.853 95.9589 156.979 101.03 175.237 101.03C192.824 101.03 199.656 95.8196 201.33 94.2312Z" fill="url(#paint0_radial_931_113783)"/>
    <mask id="mask0_931_113783" style="mask-type:alpha" maskUnits="userSpaceOnUse" x="141" y="93" width="65" height="72">
    <path d="M201.33 94.2302L205.4 114.031C203.808 113.76 202.153 113.447 200.459 113.127C186.293 110.452 169.479 107.276 165.223 123.73C163.365 130.914 166.057 135.212 168.676 139.393C171.205 143.43 173.665 147.358 171.9 153.668C169.751 161.349 158.067 166.324 148.671 162.994C138.746 159.476 139.443 144.903 145.148 137.849C150.853 130.794 151.677 120.03 150.853 112.87C150.454 109.409 148.742 106.934 146.502 105.25L148.841 93.8799C148.875 93.9469 148.92 94.0092 148.975 94.0646C150.313 95.4133 156.979 101.029 175.237 101.029C192.824 101.029 199.656 95.8187 201.33 94.2302Z" fill="url(#paint1_radial_931_113783)"/>
    </mask>
    <g mask="url(#mask0_931_113783)">
    <g filter="url(#filter0_f_931_113783)">
    <mask id="mask1_931_113783" style="mask-type:alpha" maskUnits="userSpaceOnUse" x="125" y="94" width="101" height="132">
    <path d="M149.015 95.0639C149.102 94.6401 149.475 94.3359 149.907 94.3359H200.399C200.831 94.3359 201.205 94.6401 201.292 95.0639L225.146 211.159C225.227 211.555 225.041 211.955 224.68 212.137C220.777 214.109 198.528 224.817 175.153 225.128C151.731 225.438 129.441 214.178 125.603 212.141C125.253 211.954 125.077 211.562 125.157 211.173L149.015 95.0639Z" fill="#577096" fill-opacity="0.75"/>
    </mask>
    <g mask="url(#mask1_931_113783)">
    <g filter="url(#filter1_f_931_113783)">
    <path d="M207.362 76.1064C211.019 110.268 146.094 132.571 113.174 139.453L113.174 76.1064L207.362 76.1064Z" fill="url(#paint2_linear_931_113783)" fill-opacity="0.5"/>
    </g>
    <g filter="url(#filter2_f_931_113783)">
    <path d="M155.56 125.301C156.622 105.018 134.624 86.1828 129.082 66.9985C133.541 65.1973 144.203 70.7896 152.828 76.1247C163.609 82.7936 163.032 109.124 164.778 125.784C166.175 139.112 148.606 223.401 144.168 241.481L131.869 240.837C140.395 214.68 154.74 140.955 155.56 125.301Z" fill="url(#paint3_linear_931_113783)" fill-opacity="0.6"/>
    </g>
    </g>
    </g>
    </g>
    <defs>
    <filter id="filter0_f_931_113783" x="122.744" y="92.0573" width="104.986" height="135.355" filterUnits="userSpaceOnUse" color-interpolation-filters="sRGB">
    <feFlood flood-opacity="0" result="BackgroundImageFix"/>
    <feBlend mode="normal" in="SourceGraphic" in2="BackgroundImageFix" result="shape"/>
    <feGaussianBlur stdDeviation="1.13932" result="effect1_foregroundBlur_931_113783"/>
    </filter>
    <filter id="filter1_f_931_113783" x="112.262" y="75.195" width="96.1589" height="65.1696" filterUnits="userSpaceOnUse" color-interpolation-filters="sRGB">
    <feFlood flood-opacity="0" result="BackgroundImageFix"/>
    <feBlend mode="normal" in="SourceGraphic" in2="BackgroundImageFix" result="shape"/>
    <feGaussianBlur stdDeviation="0.455729" result="effect1_foregroundBlur_931_113783"/>
    </filter>
    <filter id="filter2_f_931_113783" x="128.17" y="65.7428" width="37.5978" height="176.65" filterUnits="userSpaceOnUse" color-interpolation-filters="sRGB">
    <feFlood flood-opacity="0" result="BackgroundImageFix"/>
    <feBlend mode="normal" in="SourceGraphic" in2="BackgroundImageFix" result="shape"/>
    <feGaussianBlur stdDeviation="0.455729" result="effect1_foregroundBlur_931_113783"/>
    </filter>
    <radialGradient id="paint0_radial_931_113783" cx="0" cy="0" r="1" gradientUnits="userSpaceOnUse" gradientTransform="translate(156.087 109.102) rotate(53.0717) scale(37.8406 40.3077)">
    <stop offset="0.203125" style="stop-color: #FFB800;"/>
    <stop offset="0.890625" style="stop-color: #FF7800;"/>
    </radialGradient>
    <radialGradient id="paint1_radial_931_113783" cx="0" cy="0" r="1" gradientUnits="userSpaceOnUse" gradientTransform="translate(156.087 109.101) rotate(53.0717) scale(37.8406 40.3077)">
    <stop offset="0.203125" stop-color="#71FF30"/>
    <stop offset="0.890625" stop-color="#25BC46"/>
    </radialGradient>
    <linearGradient id="paint2_linear_931_113783" x1="145.368" y1="123.01" x2="155.982" y2="72.2914" gradientUnits="userSpaceOnUse">
    <stop stop-color="white" stop-opacity="0"/>
    <stop offset="0.471361" stop-color="white"/>
    <stop offset="1" stop-color="white"/>
    </linearGradient>
    <linearGradient id="paint3_linear_931_113783" x1="160.882" y1="220.938" x2="202.107" y2="178" gradientUnits="userSpaceOnUse">
    <stop stop-color="#F2F2F2"/>
    <stop offset="0.0001" stop-color="#F2F2F2"/>
    <stop offset="0.0520833" stop-color="#F2F2F2" stop-opacity="0.948011"/>
    <stop offset="1" stop-color="#F2F2F2" stop-opacity="0"/>
    </linearGradient>
    </defs>
  
    
  <!-- Lava 2 -->
    <!-- Color -->
<path d="M178.202 131.059C178.202 128.163 180.222 122.394 188.299 122.479C196.377 122.565 198.468 128.235 198.504 131.059C198.576 133.132 197.365 137.622 191.952 138.995C185.184 140.711 178.202 136.85 178.202 131.059Z" fill="url(#paint0_radial_931_113845)"/>
<defs>
<radialGradient id="paint0_radial_931_113845" cx="0" cy="0" r="1" gradientUnits="userSpaceOnUse" gradientTransform="translate(182.959 126.151) rotate(45.5119) scale(10.2292 11.3416)">
<stop offset="0.203125" style="stop-color: #FF00D6;"/>
<stop offset="0.890625" style="stop-color: #D700B4;"/>
</radialGradient>
</defs>
  
    
  <!-- Lava 3 -->
    <!-- Color -->
    <path d="M214.381 157.604L219.2 181.084C217.285 183.349 214.448 185.339 210.334 186.382C197.471 189.642 184.2 182.306 184.2 171.303C184.2 165.801 188.039 154.839 203.392 155.002C208.021 155.051 211.616 156.065 214.381 157.604Z" fill="url(#paint0_radial_931_113862)"/>
<defs>
<radialGradient id="paint0_radial_931_113862" cx="0" cy="0" r="1" gradientUnits="userSpaceOnUse" gradientTransform="translate(192.4 161.977) rotate(48.2936) scale(18.5718 20.4588)">
<stop offset="0.203125" style="stop-color: #FFFFFF;"/>
<stop offset="0.890625" style="stop-color: #D0C9C9;"/>
</radialGradient>
</defs>
  
    
  <!-- Lava 4 -->
    <!-- Color -->
    <path d="M225 210.659C220.5 214 200.704 225 175.402 225C147.201 225 128.492 213.024 125.354 210.869C125.163 210.738 125.042 210.543 125 210.328C128.968 198.996 144.393 175.959 164.496 181.99C174.451 184.976 181.421 192.474 187.975 199.525C198.127 210.446 208 213.5 225 210.659C224.675 211.045 225.345 210.27 225 210.659Z" fill="url(#paint0_radial_931_113863)"/>
<mask id="mask0_931_113863" style="mask-type:alpha" maskUnits="userSpaceOnUse" x="124" y="180" width="101" height="45">
<path d="M223.866 211.799C218.236 215.343 200.575 225 175.272 225C147.071 225 128.362 213.003 125.225 210.845C125.034 210.714 124.912 210.519 124.87 210.303C128.839 198.951 144.263 175.875 164.366 181.916C174.321 184.908 181.291 192.418 187.845 199.481C197.997 210.421 207.154 220.288 224.87 210.635C224.545 211.021 224.21 211.409 223.866 211.799Z" fill="url(#paint1_radial_931_113863)"/>
</mask>
<g mask="url(#mask0_931_113863)">
<g filter="url(#filter0_f_931_113863)">
<mask id="mask1_931_113863" style="mask-type:alpha" maskUnits="userSpaceOnUse" x="124" y="94" width="102" height="132">
<path d="M148.862 95.3198C148.949 94.896 149.322 94.5918 149.755 94.5918H200.246C200.679 94.5918 201.052 94.896 201.139 95.3198L224.993 211.414C225.075 211.811 224.888 212.211 224.527 212.393C220.624 214.365 198.376 225.073 175 225.383C151.578 225.694 129.288 214.434 125.45 212.396C125.1 212.21 124.924 211.818 125.004 211.429L148.862 95.3198Z" fill="#577096" fill-opacity="0.75"/>
</mask>
<g mask="url(#mask1_931_113863)">
<g filter="url(#filter1_f_931_113863)">
<path d="M155.407 125.557C156.47 105.273 134.471 86.4386 128.929 67.2543C133.388 65.4531 144.05 71.0455 152.675 76.3806C163.456 83.0494 162.879 109.38 164.625 126.04C166.022 139.368 148.453 223.657 144.015 241.737L131.716 241.093C140.242 214.936 154.587 141.211 155.407 125.557Z" fill="url(#paint2_linear_931_113863)" fill-opacity="0.6"/>
</g>
</g>
</g>
</g>
<defs>
<filter id="filter0_f_931_113863" x="122.591" y="92.3132" width="105.59" height="135.355" filterUnits="userSpaceOnUse" color-interpolation-filters="sRGB">
<feFlood flood-opacity="0" result="BackgroundImageFix"/>
<feBlend mode="normal" in="SourceGraphic" in2="BackgroundImageFix" result="shape"/>
<feGaussianBlur stdDeviation="1.13932" result="effect1_foregroundBlur_931_113863"/>
</filter>
<filter id="filter1_f_931_113863" x="128.017" y="65.9987" width="37.5983" height="176.65" filterUnits="userSpaceOnUse" color-interpolation-filters="sRGB">
<feFlood flood-opacity="0" result="BackgroundImageFix"/>
<feBlend mode="normal" in="SourceGraphic" in2="BackgroundImageFix" result="shape"/>
<feGaussianBlur stdDeviation="0.455729" result="effect1_foregroundBlur_931_113863"/>
</filter>
<radialGradient id="paint0_radial_931_113863" cx="0" cy="0" r="1" gradientUnits="userSpaceOnUse" gradientTransform="translate(148.451 190.545) rotate(28.2255) scale(40.1081 37.0676)">
<stop offset="0.203125" style="stop-color: #21F6EA;"/>
<stop offset="0.890625" style="stop-color: #2183F6;"/>
</radialGradient>
<radialGradient id="paint1_radial_931_113863" cx="0" cy="0" r="1" gradientUnits="userSpaceOnUse" gradientTransform="translate(146.382 191.229) rotate(27.0849) scale(58.9221 42.3164)">
<stop offset="0.302083" stop-color="#FFB800"/>
<stop offset="1" stop-color="#FF7800"/>
</radialGradient>
<linearGradient id="paint2_linear_931_113863" x1="160.729" y1="221.194" x2="201.954" y2="178.256" gradientUnits="userSpaceOnUse">
<stop stop-color="#F2F2F2"/>
<stop offset="0.0001" stop-color="#F2F2F2"/>
<stop offset="0.0520833" stop-color="#F2F2F2" stop-opacity="0.948011"/>
<stop offset="1" stop-color="#F2F2F2" stop-opacity="0"/>
</linearGradient>
</defs>
  
  
    
  <!-- Gold Standard -->
  <g filter="url(#filter0_d_1393_70786)">
  <path d="M125.512 312.012C125.131 311.807 124.967 311.364 125.102 310.953L138.023 271.844C138.074 271.689 138.083 271.524 138.049 271.365L125.383 212.871C125.204 212.048 126.172 211.394 126.886 211.84C132.551 215.373 149.852 224.674 174.999 224.674C200.145 224.674 217.447 215.373 223.112 211.84C223.826 211.394 224.793 212.048 224.615 212.871L211.949 271.365C211.915 271.524 211.923 271.689 211.974 271.844L224.895 310.953C225.031 311.364 224.867 311.807 224.486 312.012C220.653 314.072 200.123 324.431 174.999 324.431C149.875 324.431 129.345 314.072 125.512 312.012Z" fill="url(#paint0_linear_1393_70786)" shape-rendering="crispEdges"/>
  </g>
  <g filter="url(#filter1_f_1393_70786)">
  <mask id="mask0_1393_70786" style="mask-type:alpha" maskUnits="userSpaceOnUse" x="125" y="211" width="101" height="114">
  <path d="M125.642 312.071C125.261 311.866 125.097 311.422 125.233 311.011L138.154 271.878C138.205 271.723 138.214 271.558 138.18 271.399L125.374 212.224C125.217 211.5 125.939 210.876 126.634 211.131C131.867 213.052 149.387 218.677 175.13 218.677C200.873 218.677 218.393 213.052 223.626 211.131C224.321 210.876 225.043 211.5 224.886 212.224L212.08 271.399C212.046 271.558 212.055 271.723 212.106 271.878L225.027 311.011C225.163 311.422 224.999 311.866 224.618 312.071C220.785 314.131 200.254 324.497 175.13 324.497C150.006 324.497 129.475 314.131 125.642 312.071Z" fill="#2D2E32"/>
  <path d="M125.642 312.071C125.261 311.866 125.097 311.422 125.233 311.011L138.154 271.878C138.205 271.723 138.214 271.558 138.18 271.399L125.374 212.224C125.217 211.5 125.939 210.876 126.634 211.131C131.867 213.052 149.387 218.677 175.13 218.677C200.873 218.677 218.393 213.052 223.626 211.131C224.321 210.876 225.043 211.5 224.886 212.224L212.08 271.399C212.046 271.558 212.055 271.723 212.106 271.878L225.027 311.011C225.163 311.422 224.999 311.866 224.618 312.071C220.785 314.131 200.254 324.497 175.13 324.497C150.006 324.497 129.475 314.131 125.642 312.071Z" fill="url(#paint1_linear_1393_70786)"/>
  </mask>
  <g mask="url(#mask0_1393_70786)">
  <g opacity="0.25" filter="url(#filter2_df_1393_70786)">
  <path d="M74.3262 272.822C169.438 275.526 231.534 227.537 250.693 203.205H74.3262V272.822Z" fill="url(#paint2_linear_1393_70786)" fill-opacity="0.55" shape-rendering="crispEdges"/>
  </g>
  <path opacity="0.25" d="M135.363 266.425C135.363 243.575 108.929 195.56 99.1386 174.333C105.666 172.048 122.048 168.847 135.363 174.333C152.007 181.191 157.629 243.462 161.545 262.076C164.678 276.968 140.584 326.186 135.363 346.76H69.7676C119.698 320.308 135.363 284.059 135.363 266.425Z" fill="url(#paint3_radial_1393_70786)"/>
  <path opacity="0.25" d="M149.947 270.527C149.947 247.676 123.513 199.662 113.723 178.435C120.25 176.149 136.632 172.949 149.947 178.435C166.59 185.293 172.213 247.564 176.129 266.178C179.262 281.069 155.168 330.288 149.947 350.862H84.3516C134.282 324.41 149.947 288.161 149.947 270.527Z" fill="url(#paint4_radial_1393_70786)"/>
  </g>
  </g>
  <path d="M154.309 56.3282C154.319 56.2594 154.321 56.1924 154.327 56.1232C154.399 55.3955 155.623 51 174.784 51C194.295 51 195.582 55.558 195.667 56.1595C195.673 56.2036 195.676 56.2468 195.683 56.2908L201.373 94.8612C201.41 95.1105 201.343 95.3611 201.166 95.5403C199.833 96.8874 193.191 102.497 174.998 102.497C156.806 102.497 150.164 96.8874 148.831 95.5403C148.654 95.3611 148.587 95.1105 148.624 94.8612L154.309 56.3282Z" fill="url(#paint5_linear_1393_70786)"/>
  <path d="M175.436 324.932C200.388 324.932 220.779 314.573 224.586 312.513C224.965 312.308 225.127 311.865 224.993 311.454L212.16 272.345C212.109 272.19 212.1 272.025 212.134 271.866L224.853 212.727C224.994 212.071 224.419 211.498 223.797 211.585C224.205 211.317 224.528 211.096 224.763 210.932C225.051 210.73 225.179 210.38 225.109 210.034L201.396 93.6963C201.342 93.4292 201.174 93.2096 200.95 93.0837L195.578 55.4276C195.574 55.4004 195.571 55.3737 195.568 55.3469C195.565 55.3258 195.563 55.3046 195.56 55.2832C195.468 54.6575 194.145 50.1299 174.998 50.1299L175.436 324.932Z" fill="#161A70" fill-opacity="0.1"/>
  <mask id="mask1_1393_70786" style="mask-type:alpha" maskUnits="userSpaceOnUse" x="125" y="212" width="100" height="113">
  <path d="M125.512 312.513C125.131 312.308 124.967 311.864 125.102 311.453L138.024 272.344C138.075 272.189 138.083 272.024 138.049 271.865L125.383 213.371C125.204 212.548 126.172 211.894 126.886 212.34C132.551 215.873 149.853 225.174 174.999 225.174C200.146 225.174 217.447 215.873 223.113 212.34C223.827 211.894 224.794 212.548 224.616 213.371L211.95 271.865C211.915 272.024 211.924 272.189 211.975 272.344L224.896 311.453C225.032 311.864 224.868 312.308 224.487 312.513C220.654 314.572 200.123 324.932 174.999 324.932C149.876 324.932 129.345 314.572 125.512 312.513Z" fill="url(#paint6_linear_1393_70786)"/>
  </mask>
  <g mask="url(#mask1_1393_70786)">
    <g style="mix-blend-mode:overlay">
      <circle cx="146.594" cy="302.831" r="1.22977" fill="white">
        <animate attributeName="opacity" values="1;0;1" dur="2.1s" repeatCount="indefinite" />
      </circle>
      <circle cx="137.222" cy="247.41" r="1.22977" fill="white">
        <animate attributeName="opacity" values="1;0;1" dur="2.3s" repeatCount="indefinite" />
      </circle>
      <circle cx="158.355" cy="262.299" r="1.22977" fill="white">
        <animate attributeName="opacity" values="1;0;1" dur="2.6s" repeatCount="indefinite" />
      </circle>
      <circle cx="160.734" cy="240.943" r="1.22977" fill="white">
        <animate attributeName="opacity" values="1;0;1" dur="2.5s" repeatCount="indefinite" />
      </circle>
      <circle cx="180.449" cy="294.479" r="1.22977" fill="white">
        <animate attributeName="opacity" values="1;0;1" dur="2.9s" repeatCount="indefinite" />
      </circle>
      <circle cx="215.03" cy="294.479" r="1.22977" fill="white">
        <animate attributeName="opacity" values="1;0;1" dur="2.7s" repeatCount="indefinite" />
      </circle>
      <circle cx="198.699" cy="320.414" r="1.22977" fill="white">
        <animate attributeName="opacity" values="1;0;1" dur="2.2s" repeatCount="indefinite" />
      </circle>
      <path d="M141.688 290.765L141.246 289.568L140.049 289.125L141.246 288.682L141.688 287.485L142.131 288.682L143.328 289.125L142.131 289.568L141.688 290.765Z" fill="#FFF7B0">
        <animate attributeName="opacity" values="1;0;1" dur="2.8s" repeatCount="indefinite" />
      </path>
      <path d="M188.813 264.887L188.038 262.793L185.943 262.018L188.038 261.243L188.813 259.148L189.588 261.243L191.682 262.018L189.588 262.793L188.813 264.887Z" fill="#FFF7B0">
        <animate attributeName="opacity" values="1;0;1" dur="2.4s" repeatCount="indefinite" />
      </path>
      <path d="M175.134 239.528L174.359 237.434L172.265 236.658L174.359 235.883L175.134 233.789L175.909 235.883L178.004 236.658L175.909 237.434L175.134 239.528Z" fill="#FFF7B0">
        <animate attributeName="opacity" values="1;0;1" dur="2.1s" repeatCount="indefinite" />
      </path>
      <path d="M161.463 315.635L160.688 313.54L158.593 312.765L160.688 311.99L161.463 309.896L162.238 311.99L164.332 312.765L162.238 313.54L161.463 315.635Z" fill="#FFF7B0">
        <animate attributeName="opacity" values="1;0;1" dur="2.3s" repeatCount="indefinite" />
      </path>
      <path d="M197.009 295.583L196.234 293.488L194.14 292.713L196.234 291.938L197.009 289.844L197.784 291.938L199.879 292.713L197.784 293.488L197.009 295.583Z" fill="#FFF7B0">
        <animate attributeName="opacity" values="1;0;1" dur="2.6s" repeatCount="indefinite" />
      </path>
      <path d="M206.115 246.18L204.428 241.623L199.871 239.937L204.428 238.25L206.115 233.693L207.801 238.25L212.358 239.937L207.801 241.623L206.115 246.18Z" fill="#FFF7B0">
        <animate attributeName="opacity" values="1;0;1" dur="2.5s" repeatCount="indefinite" />
      </path>
      <path opacity="0.25" d="M147.199 237.435L143.63 227.788L133.983 224.219L143.63 220.649L147.199 211.003L150.769 220.649L160.416 224.219L150.769 227.788L147.199 237.435Z" fill="#FFF7B0">
        <animate attributeName="opacity" values="0.25;0;0.25" dur="2.9s" repeatCount="indefinite" />
      </path>
      <path opacity="0.25" d="M161.783 298.958L158.214 289.145L148.567 285.514L158.214 281.883L161.783 272.07L165.353 281.883L175 285.514L165.353 289.145L161.783 298.958Z" fill="#FFF7B0">
        <animate attributeName="opacity" values="0.25;0;0.25" dur="2.7s" repeatCount="indefinite" />
      </path>
      <path opacity="0.25" d="M211.686 280.273L208.547 271.791L200.064 268.652L208.547 265.514L211.686 257.031L214.824 265.514L223.307 268.652L214.824 271.791L211.686 280.273Z" fill="#FFF7B0">
        <animate attributeName="opacity" values="0.25;0;0.25" dur="2.2s" repeatCount="indefinite" />
      </path>
    </g>
  </g>
  <mask id="mask2_1393_70786" style="mask-type:alpha" maskUnits="userSpaceOnUse" x="148" y="50" width="54" height="53">
  <path d="M154.311 56.3253C154.321 56.2565 154.323 56.1895 154.329 56.1203C154.401 55.3926 155.625 50.9971 174.786 50.9971C194.297 50.9971 195.584 55.5551 195.669 56.1566C195.676 56.2007 195.679 56.2439 195.685 56.288L201.375 94.8586C201.412 95.108 201.345 95.3586 201.168 95.5377C199.835 96.8849 193.193 102.494 175.001 102.494C156.808 102.494 150.166 96.8849 148.833 95.5377C148.656 95.3586 148.589 95.108 148.626 94.8586L154.311 56.3253Z" fill="url(#paint7_linear_1393_70786)"/>
  </mask>
  <g mask="url(#mask2_1393_70786)">
    <g style="mix-blend-mode:overlay">
      <circle cx="156.736" cy="70.7101" r="1.21779" fill="white">
        <animate attributeName="opacity" values="1;0;1" dur="2.1s" repeatCount="indefinite" />
      </circle>
      <circle cx="159.47" cy="53.3596" r="1.21779" transform="rotate(75 159.47 53.3596)" fill="white">
        <animate attributeName="opacity" values="1;0;1" dur="2.3s" repeatCount="indefinite" />
      </circle>
      <circle cx="175.928" cy="82.9127" r="1.21779" transform="rotate(75 175.928 82.9127)" fill="white">
        <animate attributeName="opacity" values="1;0;1" dur="2.6s" repeatCount="indefinite" />
      </circle>
      <circle cx="195.706" cy="83.2129" r="1.21779" fill="white">
        <animate attributeName="opacity" values="1;0;1" dur="2.5s" repeatCount="indefinite" />
      </circle>
      <path d="M184.601 100.356L183.833 98.2823L181.759 97.5148L183.833 96.7474L184.601 94.6733L185.368 96.7474L187.442 97.5148L185.368 98.2823L184.601 100.356Z" fill="#FFF7B0">
        <animate attributeName="opacity" values="1;0;1" dur="2.9s" repeatCount="indefinite" />
      </path>
      <path d="M167.847 65.3643L167.08 63.2903L165.005 62.5228L167.08 61.7553L167.847 59.6813L168.614 61.7553L170.688 62.5228L168.614 63.2903L167.847 65.3643Z" fill="#FFF7B0">
        <animate attributeName="opacity" values="1;0;1" dur="2.7s" repeatCount="indefinite" />
      </path>
      <path d="M183.766 77.6465L182.998 75.5725L180.924 74.805L182.998 74.0376L183.766 71.9635L184.533 74.0376L186.607 74.805L184.533 75.5725L183.766 77.6465Z" fill="#FFF7B0">
        <animate attributeName="opacity" values="1;0;1" dur="2.2s" repeatCount="indefinite" />
      </path>
      <path opacity="0.25" d="M162.696 95.6614L160.357 89.3413L154.037 87.0026L160.357 84.6639L162.696 78.3437L165.034 84.6639L171.354 87.0026L165.034 89.3413L162.696 95.6614Z" fill="#FFF7B0">
        <animate attributeName="opacity" values="0.25;0;0.25" dur="2.8s" repeatCount="indefinite" />
      </path>
      <path opacity="0.25" d="M192.773 65.1276L190.434 58.8074L184.114 56.4687L190.434 54.13L192.773 47.8099L195.111 54.13L201.432 56.4687L195.111 58.8074L192.773 65.1276Z" fill="#FFF7B0">
        <animate attributeName="opacity" values="0.25;0;0.25" dur="2.4s" repeatCount="indefinite" />
      </path>
    </g>
  </g>
  <defs>
  <filter id="filter0_d_1393_70786" x="122.776" y="211.696" width="105.357" height="118.205" filterUnits="userSpaceOnUse" color-interpolation-filters="sRGB">
  <feFlood flood-opacity="0" result="BackgroundImageFix"/>
  <feColorMatrix in="SourceAlpha" type="matrix" values="0 0 0 0 0 0 0 0 0 0 0 0 0 0 0 0 0 0 127 0" result="hardAlpha"/>
  <feOffset dx="0.455725" dy="2.73435"/>
  <feGaussianBlur stdDeviation="1.36718"/>
  <feComposite in2="hardAlpha" operator="out"/>
  <feColorMatrix type="matrix" values="0 0 0 0 0 0 0 0 0 0 0 0 0 0 0 0 0 0 0.25 0"/>
  <feBlend mode="normal" in2="BackgroundImageFix" result="effect1_dropShadow_1393_70786"/>
  <feBlend mode="normal" in="SourceGraphic" in2="effect1_dropShadow_1393_70786" result="shape"/>
  </filter>
  <filter id="filter1_f_1393_70786" x="121.721" y="208.218" width="106.184" height="118.558" filterUnits="userSpaceOnUse" color-interpolation-filters="sRGB">
  <feFlood flood-opacity="0" result="BackgroundImageFix"/>
  <feBlend mode="normal" in="SourceGraphic" in2="BackgroundImageFix" result="shape"/>
  <feGaussianBlur stdDeviation="1.13932" result="effect1_foregroundBlur_1393_70786"/>
  </filter>
  <filter id="filter2_df_1393_70786" x="72.959" y="202.294" width="179.102" height="72.9167" filterUnits="userSpaceOnUse" color-interpolation-filters="sRGB">
  <feFlood flood-opacity="0" result="BackgroundImageFix"/>
  <feColorMatrix in="SourceAlpha" type="matrix" values="0 0 0 0 0 0 0 0 0 0 0 0 0 0 0 0 0 0 127 0" result="hardAlpha"/>
  <feOffset dy="0.911458"/>
  <feGaussianBlur stdDeviation="0.683594"/>
  <feComposite in2="hardAlpha" operator="out"/>
  <feColorMatrix type="matrix" values="0 0 0 0 0 0 0 0 0 0 0 0 0 0 0 0 0 0 0.25 0"/>
  <feBlend mode="normal" in2="BackgroundImageFix" result="effect1_dropShadow_1393_70786"/>
  <feBlend mode="normal" in="SourceGraphic" in2="effect1_dropShadow_1393_70786" result="shape"/>
  <feGaussianBlur stdDeviation="0.455729" result="effect2_foregroundBlur_1393_70786"/>
  </filter>
  <linearGradient id="paint0_linear_1393_70786" x1="99.3485" y1="200.474" x2="216.014" y2="304.379" gradientUnits="userSpaceOnUse">
  <stop stop-color="#C59651"/>
  <stop offset="0.536458" stop-color="#E0A50D" stop-opacity="0.98"/>
  <stop offset="1" stop-color="#FFF27B" stop-opacity="0.98"/>
  </linearGradient>
  <linearGradient id="paint1_linear_1393_70786" x1="125" y1="210.497" x2="242.237" y2="295.85" gradientUnits="userSpaceOnUse">
  <stop stop-color="#C3C3C3"/>
  <stop offset="1" stop-color="#C3C3C3" stop-opacity="0.15"/>
  </linearGradient>
  <linearGradient id="paint2_linear_1393_70786" x1="204.913" y1="227.001" x2="114.013" y2="298.662" gradientUnits="userSpaceOnUse">
  <stop stop-color="white" stop-opacity="0"/>
  <stop offset="0.471361" stop-color="white"/>
  <stop offset="1" stop-color="white"/>
  </linearGradient>
  <radialGradient id="paint3_radial_1393_70786" cx="0" cy="0" r="1" gradientUnits="userSpaceOnUse" gradientTransform="translate(123.949 264.844) rotate(79.4004) scale(83.3383 37.0268)">
  <stop stop-color="#F2F2F2"/>
  <stop offset="0.0001" stop-color="#F2F2F2"/>
  <stop offset="1" stop-color="#F2F2F2" stop-opacity="0"/>
  </radialGradient>
  <radialGradient id="paint4_radial_1393_70786" cx="0" cy="0" r="1" gradientUnits="userSpaceOnUse" gradientTransform="translate(138.533 268.945) rotate(79.4004) scale(83.3383 37.0268)">
  <stop stop-color="#F2F2F2"/>
  <stop offset="0.0001" stop-color="#F2F2F2"/>
  <stop offset="1" stop-color="#F2F2F2" stop-opacity="0"/>
  </radialGradient>
  <linearGradient id="paint5_linear_1393_70786" x1="156.015" y1="59.4455" x2="197.676" y2="104.379" gradientUnits="userSpaceOnUse">
  <stop stop-color="#C59651"/>
  <stop offset="0.536458" stop-color="#E0AE0D" stop-opacity="0.98"/>
  <stop offset="1" stop-color="#FFF27B" stop-opacity="0.98"/>
  </linearGradient>
  <linearGradient id="paint6_linear_1393_70786" x1="124.869" y1="225.127" x2="241.041" y2="324.977" gradientUnits="userSpaceOnUse">
  <stop offset="0.109375" stop-color="#6A9EE2"/>
  <stop offset="0.401042" stop-color="#4883C2" stop-opacity="0.98"/>
  <stop offset="0.677083" stop-color="#9CCBF4" stop-opacity="0.98"/>
  <stop offset="0.958333" stop-color="#E8F3FC" stop-opacity="0.98"/>
  </linearGradient>
  <linearGradient id="paint7_linear_1393_70786" x1="141.732" y1="29.1221" x2="227.55" y2="135.244" gradientUnits="userSpaceOnUse">
  <stop offset="0.109375" stop-color="#6A9EE2"/>
  <stop offset="0.401042" stop-color="#4883C2" stop-opacity="0.98"/>
  <stop offset="0.677083" stop-color="#9CCBF4" stop-opacity="0.98"/>
  <stop offset="0.958333" stop-color="#E8F3FC" stop-opacity="0.98"/>
  </linearGradient>
  <clipPath id="clip0_1393_70786">
  <rect width="350" height="350" fill="white"/>
  </clipPath>
  </defs>
  
    
    </svg>
  