
    <svg width="350" height="350" viewBox="0 0 350 350" fill="none" xmlns="http://www.w3.org/2000/svg">
    
  <!-- Sky BG -->
  <g clip-path="url(#clip0_28_498)">
  <rect width="350" height="350" fill="url(#paint0_linear_28_498)"/>
  <g opacity="0.7" filter="url(#filter0_f_28_498)">
  <g style="mix-blend-mode:overlay" opacity="0.5">
  <path d="M299.522 241.661C366.933 257.538 205.269 286.569 149.914 288.477L332.436 288.477C387.491 286.396 403.25 276.859 404.248 272.351L404.248 234.378C388.788 227.096 357.333 212.715 259.128 203.688C128.969 191.724 -28.0034 214.966 25.7398 241.661C67.63 262.468 206.765 219.813 299.522 241.661Z" fill="white"/>
  </g>
  <g style="mix-blend-mode:overlay" opacity="0.5">
  <path fill-rule="evenodd" clip-rule="evenodd" d="M87.0789 282.755C130.964 279.46 211.553 271.311 182.828 265.069C169.685 262.213 142.109 262.214 109.713 262.216C53.605 262.219 -16.9636 262.222 -52.0564 247.383C-108.852 223.365 -64.0251 185.482 73.6141 170.397C75.5326 170.186 77.4624 169.975 79.4025 169.762C216.654 154.726 405.555 134.032 295.034 114.218C260.872 108.093 222.902 112.563 183.636 117.186C112.848 125.519 37.8512 134.348 -26.6232 82.4869L-146.309 82.4869C-61.033 102.254 -68.9589 140.737 -123.868 150.11C-186.598 160.817 -179.188 181.702 -173.892 196.632C-172.241 201.286 -170.795 205.361 -171.743 208.369L-171.743 282.755L87.0789 282.755ZM-26.6232 165.195C-6.27654 153.959 67.6298 147.682 102.04 145.948C130.465 133.984 61.6455 139.186 51.173 142.307C40.7004 145.428 19.7553 138.146 13.771 128.262C7.7867 118.379 -43.0799 119.94 -40.0878 128.262C-37.0956 136.585 -37.0956 145.948 -71.5054 155.312C-105.915 164.675 -52.0564 179.24 -26.6232 165.195Z" fill="white"/>
  </g>
  <g style="mix-blend-mode:overlay" opacity="0.5">
  <path d="M283.065 183.401C220.23 183.401 223.222 165.715 283.065 162.074C341.4 158.524 398.313 152.998 399.759 142.121L399.759 141.267C399.797 141.555 399.797 141.84 399.759 142.121L399.759 195.374C375.615 190.625 328.061 183.401 283.065 183.401Z" fill="white"/>
  </g>
  </g>
  </g>
  <defs>
  <filter id="filter0_f_28_498" x="-186.393" y="73.3724" width="599.755" height="224.219" filterUnits="userSpaceOnUse" color-interpolation-filters="sRGB">
  <feFlood flood-opacity="0" result="BackgroundImageFix"/>
  <feBlend mode="normal" in="SourceGraphic" in2="BackgroundImageFix" result="shape"/>
  <feGaussianBlur stdDeviation="4.55729" result="effect1_foregroundBlur_28_498"/>
  </filter>
  <linearGradient id="paint0_linear_28_498" x1="175" y1="0" x2="175" y2="350" gradientUnits="userSpaceOnUse">
  <stop offset="0.213542" stop-color="#2FA2F5"/>
  <stop offset="1" stop-color="white"/>
  </linearGradient>
  <clipPath id="clip0_28_498">
  <rect width="350" height="350" fill="white"/>
  </clipPath>
  </defs>

    
    
  <!-- Halo -->
  <g filter="url(#filter0_d_559_36466)">
  <path d="M216.24 25.3087C216.24 25.3087 216.24 25.3124 216.238 25.3199C216.238 25.3125 216.239 25.3087 216.24 25.3087ZM215.963 24.9666C216.147 25.1635 216.21 25.2863 216.231 25.3395C216.21 25.3928 216.147 25.5156 215.963 25.7125C215.626 26.0741 215.016 26.5326 214.038 27.0399C212.086 28.0515 209.113 29.0303 205.248 29.8777C197.555 31.5642 186.818 32.6265 174.883 32.6265C162.947 32.6265 152.211 31.5642 144.518 29.8777C140.653 29.0303 137.679 28.0515 135.727 27.0399C134.749 26.5326 134.14 26.0741 133.802 25.7125C133.618 25.5156 133.555 25.3928 133.534 25.3395C133.555 25.2863 133.618 25.1635 133.802 24.9666C134.14 24.605 134.749 24.1465 135.727 23.6392C137.679 22.6276 140.653 21.6487 144.518 20.8014C152.211 19.1149 162.947 18.0526 174.883 18.0526C186.818 18.0526 197.555 19.1149 205.248 20.8014C209.113 21.6487 212.086 22.6276 214.038 23.6392C215.016 24.1465 215.626 24.605 215.963 24.9666ZM133.526 25.3087C133.526 25.3087 133.527 25.3125 133.528 25.3199C133.526 25.3124 133.525 25.3087 133.526 25.3087ZM133.526 25.3704C133.525 25.3704 133.526 25.3667 133.528 25.3592C133.527 25.3666 133.526 25.3704 133.526 25.3704ZM216.238 25.3592C216.24 25.3667 216.24 25.3704 216.24 25.3704C216.239 25.3704 216.238 25.3666 216.238 25.3592Z" stroke="#FDF21B" stroke-width="4.55729" shape-rendering="geometricPrecision"/>
  </g>
  <defs>
  <filter id="filter0_d_559_36466" x="127.926" y="12.4498" width="93.9138" height="25.7795" filterUnits="userSpaceOnUse" color-interpolation-filters="sRGB">
  <feFlood flood-opacity="0" result="BackgroundImageFix"/>
  <feColorMatrix in="SourceAlpha" type="matrix" values="0 0 0 0 0 0 0 0 0 0 0 0 0 0 0 0 0 0 127 0" result="hardAlpha"/>
  <feOffset/>
  <feGaussianBlur stdDeviation="1.66205"/>
  <feComposite in2="hardAlpha" operator="out"/>
  <feColorMatrix type="matrix" values="0 0 0 0 1 0 0 0 0 1 0 0 0 0 1 0 0 0 1 0"/>
  <feBlend mode="normal" in2="BackgroundImageFix" result="effect1_dropShadow_559_36466"/>
  <feBlend mode="normal" in="SourceGraphic" in2="effect1_dropShadow_559_36466" result="shape"/>
  </filter>
  </defs>
    
    
  <!-- Normal Glass -->
    <path d="M148.717 95L125.019 209.98C124.948 210.324 125.078 210.673 125.367 210.873C128.479 213.027 147.033 225 175 225C202.967 225 221.521 213.027 224.633 210.873C224.922 210.673 225.052 210.324 224.981 209.98L201.283 95C201.249 95.0666 201.205 95.1285 201.15 95.1836C199.818 96.5241 193.18 102.106 175 102.106C156.82 102.106 150.182 96.5241 148.85 95.1836C148.795 95.1285 148.751 95.0666 148.717 95Z" fill="#FFFFFF" fill-opacity="0.6"/>
  
    
    
    <!-- Lava 1 -->
    <!-- Color -->
    <!-- filter -->
    <path d="M201.33 94.2312L205.4 114.032C203.808 113.761 202.153 113.448 200.459 113.128C186.293 110.453 169.479 107.277 165.223 123.731C163.365 130.915 166.057 135.213 168.676 139.394C171.205 143.431 173.665 147.359 171.9 153.669C169.751 161.35 158.067 166.325 148.671 162.995C138.746 159.477 139.443 144.904 145.148 137.85C150.853 130.795 151.677 120.031 150.853 112.871C150.454 109.41 148.742 106.935 146.502 105.251L148.841 93.8809C148.875 93.9478 148.92 94.0101 148.975 94.0656C150.853 95.9589 156.979 101.03 175.237 101.03C192.824 101.03 199.656 95.8196 201.33 94.2312Z" fill="url(#paint0_radial_931_113783)"/>
    <mask id="mask0_931_113783" style="mask-type:alpha" maskUnits="userSpaceOnUse" x="141" y="93" width="65" height="72">
    <path d="M201.33 94.2302L205.4 114.031C203.808 113.76 202.153 113.447 200.459 113.127C186.293 110.452 169.479 107.276 165.223 123.73C163.365 130.914 166.057 135.212 168.676 139.393C171.205 143.43 173.665 147.358 171.9 153.668C169.751 161.349 158.067 166.324 148.671 162.994C138.746 159.476 139.443 144.903 145.148 137.849C150.853 130.794 151.677 120.03 150.853 112.87C150.454 109.409 148.742 106.934 146.502 105.25L148.841 93.8799C148.875 93.9469 148.92 94.0092 148.975 94.0646C150.313 95.4133 156.979 101.029 175.237 101.029C192.824 101.029 199.656 95.8187 201.33 94.2302Z" fill="url(#paint1_radial_931_113783)"/>
    </mask>
    <g mask="url(#mask0_931_113783)">
    <g filter="url(#filter0_f_931_113783)">
    <mask id="mask1_931_113783" style="mask-type:alpha" maskUnits="userSpaceOnUse" x="125" y="94" width="101" height="132">
    <path d="M149.015 95.0639C149.102 94.6401 149.475 94.3359 149.907 94.3359H200.399C200.831 94.3359 201.205 94.6401 201.292 95.0639L225.146 211.159C225.227 211.555 225.041 211.955 224.68 212.137C220.777 214.109 198.528 224.817 175.153 225.128C151.731 225.438 129.441 214.178 125.603 212.141C125.253 211.954 125.077 211.562 125.157 211.173L149.015 95.0639Z" fill="#577096" fill-opacity="0.75"/>
    </mask>
    <g mask="url(#mask1_931_113783)">
    <g filter="url(#filter1_f_931_113783)">
    <path d="M207.362 76.1064C211.019 110.268 146.094 132.571 113.174 139.453L113.174 76.1064L207.362 76.1064Z" fill="url(#paint2_linear_931_113783)" fill-opacity="0.5"/>
    </g>
    <g filter="url(#filter2_f_931_113783)">
    <path d="M155.56 125.301C156.622 105.018 134.624 86.1828 129.082 66.9985C133.541 65.1973 144.203 70.7896 152.828 76.1247C163.609 82.7936 163.032 109.124 164.778 125.784C166.175 139.112 148.606 223.401 144.168 241.481L131.869 240.837C140.395 214.68 154.74 140.955 155.56 125.301Z" fill="url(#paint3_linear_931_113783)" fill-opacity="0.6"/>
    </g>
    </g>
    </g>
    </g>
    <defs>
    <filter id="filter0_f_931_113783" x="122.744" y="92.0573" width="104.986" height="135.355" filterUnits="userSpaceOnUse" color-interpolation-filters="sRGB">
    <feFlood flood-opacity="0" result="BackgroundImageFix"/>
    <feBlend mode="normal" in="SourceGraphic" in2="BackgroundImageFix" result="shape"/>
    <feGaussianBlur stdDeviation="1.13932" result="effect1_foregroundBlur_931_113783"/>
    </filter>
    <filter id="filter1_f_931_113783" x="112.262" y="75.195" width="96.1589" height="65.1696" filterUnits="userSpaceOnUse" color-interpolation-filters="sRGB">
    <feFlood flood-opacity="0" result="BackgroundImageFix"/>
    <feBlend mode="normal" in="SourceGraphic" in2="BackgroundImageFix" result="shape"/>
    <feGaussianBlur stdDeviation="0.455729" result="effect1_foregroundBlur_931_113783"/>
    </filter>
    <filter id="filter2_f_931_113783" x="128.17" y="65.7428" width="37.5978" height="176.65" filterUnits="userSpaceOnUse" color-interpolation-filters="sRGB">
    <feFlood flood-opacity="0" result="BackgroundImageFix"/>
    <feBlend mode="normal" in="SourceGraphic" in2="BackgroundImageFix" result="shape"/>
    <feGaussianBlur stdDeviation="0.455729" result="effect1_foregroundBlur_931_113783"/>
    </filter>
    <radialGradient id="paint0_radial_931_113783" cx="0" cy="0" r="1" gradientUnits="userSpaceOnUse" gradientTransform="translate(156.087 109.102) rotate(53.0717) scale(37.8406 40.3077)">
    <stop offset="0.203125" style="stop-color: #321A93;"/>
    <stop offset="0.890625" style="stop-color: #3603FF;"/>
    </radialGradient>
    <radialGradient id="paint1_radial_931_113783" cx="0" cy="0" r="1" gradientUnits="userSpaceOnUse" gradientTransform="translate(156.087 109.101) rotate(53.0717) scale(37.8406 40.3077)">
    <stop offset="0.203125" stop-color="#71FF30"/>
    <stop offset="0.890625" stop-color="#25BC46"/>
    </radialGradient>
    <linearGradient id="paint2_linear_931_113783" x1="145.368" y1="123.01" x2="155.982" y2="72.2914" gradientUnits="userSpaceOnUse">
    <stop stop-color="white" stop-opacity="0"/>
    <stop offset="0.471361" stop-color="white"/>
    <stop offset="1" stop-color="white"/>
    </linearGradient>
    <linearGradient id="paint3_linear_931_113783" x1="160.882" y1="220.938" x2="202.107" y2="178" gradientUnits="userSpaceOnUse">
    <stop stop-color="#F2F2F2"/>
    <stop offset="0.0001" stop-color="#F2F2F2"/>
    <stop offset="0.0520833" stop-color="#F2F2F2" stop-opacity="0.948011"/>
    <stop offset="1" stop-color="#F2F2F2" stop-opacity="0"/>
    </linearGradient>
    </defs>
  
    
  <!-- Lava 2 -->
    <!-- Color -->
<path d="M178.202 131.059C178.202 128.163 180.222 122.394 188.299 122.479C196.377 122.565 198.468 128.235 198.504 131.059C198.576 133.132 197.365 137.622 191.952 138.995C185.184 140.711 178.202 136.85 178.202 131.059Z" fill="url(#paint0_radial_931_113845)"/>
<defs>
<radialGradient id="paint0_radial_931_113845" cx="0" cy="0" r="1" gradientUnits="userSpaceOnUse" gradientTransform="translate(182.959 126.151) rotate(45.5119) scale(10.2292 11.3416)">
<stop offset="0.203125" style="stop-color: #71FF30;"/>
<stop offset="0.890625" style="stop-color: #25BC46;"/>
</radialGradient>
</defs>
  
    
  <!-- Lava 3 -->
    <!-- Color -->
    <path d="M214.381 157.604L219.2 181.084C217.285 183.349 214.448 185.339 210.334 186.382C197.471 189.642 184.2 182.306 184.2 171.303C184.2 165.801 188.039 154.839 203.392 155.002C208.021 155.051 211.616 156.065 214.381 157.604Z" fill="url(#paint0_radial_931_113862)"/>
<defs>
<radialGradient id="paint0_radial_931_113862" cx="0" cy="0" r="1" gradientUnits="userSpaceOnUse" gradientTransform="translate(192.4 161.977) rotate(48.2936) scale(18.5718 20.4588)">
<stop offset="0.203125" style="stop-color: #21F6EA;"/>
<stop offset="0.890625" style="stop-color: #2183F6;"/>
</radialGradient>
</defs>
  
    
  <!-- Lava 4 -->
    <!-- Color -->
    <path d="M225 210.659C220.5 214 200.704 225 175.402 225C147.201 225 128.492 213.024 125.354 210.869C125.163 210.738 125.042 210.543 125 210.328C128.968 198.996 144.393 175.959 164.496 181.99C174.451 184.976 181.421 192.474 187.975 199.525C198.127 210.446 208 213.5 225 210.659C224.675 211.045 225.345 210.27 225 210.659Z" fill="url(#paint0_radial_931_113863)"/>
<mask id="mask0_931_113863" style="mask-type:alpha" maskUnits="userSpaceOnUse" x="124" y="180" width="101" height="45">
<path d="M223.866 211.799C218.236 215.343 200.575 225 175.272 225C147.071 225 128.362 213.003 125.225 210.845C125.034 210.714 124.912 210.519 124.87 210.303C128.839 198.951 144.263 175.875 164.366 181.916C174.321 184.908 181.291 192.418 187.845 199.481C197.997 210.421 207.154 220.288 224.87 210.635C224.545 211.021 224.21 211.409 223.866 211.799Z" fill="url(#paint1_radial_931_113863)"/>
</mask>
<g mask="url(#mask0_931_113863)">
<g filter="url(#filter0_f_931_113863)">
<mask id="mask1_931_113863" style="mask-type:alpha" maskUnits="userSpaceOnUse" x="124" y="94" width="102" height="132">
<path d="M148.862 95.3198C148.949 94.896 149.322 94.5918 149.755 94.5918H200.246C200.679 94.5918 201.052 94.896 201.139 95.3198L224.993 211.414C225.075 211.811 224.888 212.211 224.527 212.393C220.624 214.365 198.376 225.073 175 225.383C151.578 225.694 129.288 214.434 125.45 212.396C125.1 212.21 124.924 211.818 125.004 211.429L148.862 95.3198Z" fill="#577096" fill-opacity="0.75"/>
</mask>
<g mask="url(#mask1_931_113863)">
<g filter="url(#filter1_f_931_113863)">
<path d="M155.407 125.557C156.47 105.273 134.471 86.4386 128.929 67.2543C133.388 65.4531 144.05 71.0455 152.675 76.3806C163.456 83.0494 162.879 109.38 164.625 126.04C166.022 139.368 148.453 223.657 144.015 241.737L131.716 241.093C140.242 214.936 154.587 141.211 155.407 125.557Z" fill="url(#paint2_linear_931_113863)" fill-opacity="0.6"/>
</g>
</g>
</g>
</g>
<defs>
<filter id="filter0_f_931_113863" x="122.591" y="92.3132" width="105.59" height="135.355" filterUnits="userSpaceOnUse" color-interpolation-filters="sRGB">
<feFlood flood-opacity="0" result="BackgroundImageFix"/>
<feBlend mode="normal" in="SourceGraphic" in2="BackgroundImageFix" result="shape"/>
<feGaussianBlur stdDeviation="1.13932" result="effect1_foregroundBlur_931_113863"/>
</filter>
<filter id="filter1_f_931_113863" x="128.017" y="65.9987" width="37.5983" height="176.65" filterUnits="userSpaceOnUse" color-interpolation-filters="sRGB">
<feFlood flood-opacity="0" result="BackgroundImageFix"/>
<feBlend mode="normal" in="SourceGraphic" in2="BackgroundImageFix" result="shape"/>
<feGaussianBlur stdDeviation="0.455729" result="effect1_foregroundBlur_931_113863"/>
</filter>
<radialGradient id="paint0_radial_931_113863" cx="0" cy="0" r="1" gradientUnits="userSpaceOnUse" gradientTransform="translate(148.451 190.545) rotate(28.2255) scale(40.1081 37.0676)">
<stop offset="0.203125" style="stop-color: #FABE09;"/>
<stop offset="0.890625" style="stop-color: #FDF21B;"/>
</radialGradient>
<radialGradient id="paint1_radial_931_113863" cx="0" cy="0" r="1" gradientUnits="userSpaceOnUse" gradientTransform="translate(146.382 191.229) rotate(27.0849) scale(58.9221 42.3164)">
<stop offset="0.302083" stop-color="#FFB800"/>
<stop offset="1" stop-color="#FF7800"/>
</radialGradient>
<linearGradient id="paint2_linear_931_113863" x1="160.729" y1="221.194" x2="201.954" y2="178.256" gradientUnits="userSpaceOnUse">
<stop stop-color="#F2F2F2"/>
<stop offset="0.0001" stop-color="#F2F2F2"/>
<stop offset="0.0520833" stop-color="#F2F2F2" stop-opacity="0.948011"/>
<stop offset="1" stop-color="#F2F2F2" stop-opacity="0"/>
</linearGradient>
</defs>
  
  
    
  <!-- Ruby Rocket -->
  <g filter="url(#filter0_d_737_226367)">
  <path d="M147.434 221.638C147.226 220.753 145.978 220.679 145.655 221.529C135.557 248.092 116.921 274.657 115.808 335.23C115.789 336.267 117.241 336.499 117.577 335.518C131.889 293.713 145.73 277.771 159.92 280.904C160.611 281.057 161.266 280.448 161.104 279.759L147.434 221.638Z" fill="url(#paint0_linear_737_226367)"/>
  <path d="M202.566 221.638C202.774 220.753 204.022 220.679 204.345 221.529C214.443 248.092 233.079 274.657 234.192 335.23C234.211 336.267 232.759 336.499 232.423 335.518C218.111 293.713 204.27 277.771 190.08 280.904C189.389 281.057 188.734 280.448 188.896 279.759L202.566 221.638Z" fill="url(#paint1_linear_737_226367)"/>
  <path d="M125.849 211.156C125.101 210.748 124.172 211.486 124.422 212.301L137.224 254.133C137.229 254.148 137.227 254.145 137.233 254.161C137.416 254.659 153.267 297.588 175 297.588C196.734 297.588 212.585 254.659 212.768 254.161C212.774 254.145 212.772 254.148 212.777 254.133L225.579 212.301C225.828 211.486 224.899 210.748 224.151 211.156C218.252 214.373 200.597 222.642 175 222.642C149.404 222.642 131.749 214.373 125.849 211.156Z" fill="url(#paint2_linear_737_226367)"/>
  <path d="M175 223.322C175 222.373 176.244 222.069 176.664 222.919C189.646 249.186 192.091 279.874 192.251 338.861C192.254 339.924 190.944 340.088 190.744 339.044C187.345 321.3 188.496 303.068 175.216 287.116C175.079 286.951 175 286.74 175 286.525V223.322Z" fill="url(#paint3_linear_737_226367)"/>
  </g>
  <path d="M155.658 62.5833C159.112 49.6057 161.898 33 174.785 33C187.671 33 192.186 53.5604 194.341 62.8997C196.328 71.5042 200.673 91.406 201.344 94.4841C201.402 94.7486 201.335 95.01 201.145 95.2035C199.762 96.6152 193.094 102.271 175 102.271C156.85 102.271 150.197 96.5809 148.842 95.1908C148.659 95.0034 148.593 94.7507 148.642 94.4937C149.177 91.6869 152.493 74.4714 155.658 62.5833Z" fill="url(#paint4_linear_737_226367)"/>
  <defs>
  <filter id="filter0_d_737_226367" x="113.529" y="211.04" width="123.854" height="134.176" filterUnits="userSpaceOnUse" color-interpolation-filters="sRGB">
  <feFlood flood-opacity="0" result="BackgroundImageFix"/>
  <feColorMatrix in="SourceAlpha" type="matrix" values="0 0 0 0 0 0 0 0 0 0 0 0 0 0 0 0 0 0 127 0" result="hardAlpha"/>
  <feOffset dx="0.455729" dy="2.73438"/>
  <feGaussianBlur stdDeviation="1.36719"/>
  <feComposite in2="hardAlpha" operator="out"/>
  <feColorMatrix type="matrix" values="0 0 0 0 0 0 0 0 0 0 0 0 0 0 0 0 0 0 0.25 0"/>
  <feBlend mode="normal" in2="BackgroundImageFix" result="effect1_dropShadow_737_226367"/>
  <feBlend mode="normal" in="SourceGraphic" in2="effect1_dropShadow_737_226367" result="shape"/>
  </filter>
  <linearGradient id="paint0_linear_737_226367" x1="161.472" y1="234.537" x2="93.9905" y2="329.919" gradientUnits="userSpaceOnUse">
  <stop stop-color="#830101"/>
  <stop offset="0.979167" stop-color="#FF1818" stop-opacity="0.98"/>
  </linearGradient>
  <linearGradient id="paint1_linear_737_226367" x1="188.528" y1="234.537" x2="256.01" y2="329.919" gradientUnits="userSpaceOnUse">
  <stop stop-color="#830101"/>
  <stop offset="0.979167" stop-color="#FF1818" stop-opacity="0.98"/>
  </linearGradient>
  <linearGradient id="paint2_linear_737_226367" x1="175" y1="180.038" x2="155.556" y2="300.885" gradientUnits="userSpaceOnUse">
  <stop stop-color="#830101"/>
  <stop offset="0.979167" stop-color="#FF1818" stop-opacity="0.98"/>
  </linearGradient>
  <linearGradient id="paint3_linear_737_226367" x1="175" y1="236.068" x2="235.201" y2="267.275" gradientUnits="userSpaceOnUse">
  <stop stop-color="#830101"/>
  <stop offset="0.979167" stop-color="#FF1818" stop-opacity="0.98"/>
  </linearGradient>
  <linearGradient id="paint4_linear_737_226367" x1="175" y1="9.41209" x2="152.221" y2="101.726" gradientUnits="userSpaceOnUse">
  <stop stop-color="#830101"/>
  <stop offset="0.979167" stop-color="#FF1818" stop-opacity="0.98"/>
  </linearGradient>
  </defs>
  
    
    </svg>
  