
    <svg width="350" height="350" viewBox="0 0 350 350" fill="none" xmlns="http://www.w3.org/2000/svg">
    
  <!-- Plum BG -->
  <g clip-path="url(#clip0_28_295)">
  <rect x="0.0788574" y="0.0444336" width="350" height="350" fill="#5A1353"/>
  <rect x="0.0788574" y="0.0444336" width="350" height="350" fill="url(#paint0_radial_28_295)" fill-opacity="0.2"/>
  <path d="M125.979 290.538L299.832 190.751L430.987 233.879L212.56 294.049L125.979 290.538Z" fill="url(#paint1_linear_28_295)"/>
  <g opacity="0.7" filter="url(#filter0_f_28_295)">
  <ellipse rx="194.596" ry="66.7643" transform="matrix(0.999998 0.00221055 0.00221055 -0.999998 176.078 304.637)" fill="url(#paint2_radial_28_295)"/>
  </g>
  <g opacity="0.7" filter="url(#filter1_f_28_295)">
  <ellipse cx="174.396" cy="137.609" rx="196.647" ry="242.448" transform="rotate(0.126655 174.396 137.609)" fill="url(#paint3_radial_28_295)"/>
  </g>
  </g>
  <defs>
  <filter id="filter0_f_28_295" x="-23.0756" y="233.314" width="398.306" height="142.646" filterUnits="userSpaceOnUse" color-interpolation-filters="sRGB">
  <feFlood flood-opacity="0" result="BackgroundImageFix"/>
  <feBlend mode="normal" in="SourceGraphic" in2="BackgroundImageFix" result="shape"/>
  <feGaussianBlur stdDeviation="2.27865" result="effect1_foregroundBlur_28_295"/>
  </filter>
  <filter id="filter1_f_28_295" x="-26.8085" y="-109.396" width="402.409" height="494.01" filterUnits="userSpaceOnUse" color-interpolation-filters="sRGB">
  <feFlood flood-opacity="0" result="BackgroundImageFix"/>
  <feBlend mode="normal" in="SourceGraphic" in2="BackgroundImageFix" result="shape"/>
  <feGaussianBlur stdDeviation="2.27865" result="effect1_foregroundBlur_28_295"/>
  </filter>
  <radialGradient id="paint0_radial_28_295" cx="0" cy="0" r="1" gradientUnits="userSpaceOnUse" gradientTransform="translate(156.622 401.542) rotate(-84.441) scale(239.93 241.682)">
  <stop/>
  <stop offset="1" stop-opacity="0"/>
  </radialGradient>
  <linearGradient id="paint1_linear_28_295" x1="194.836" y1="271.638" x2="316.537" y2="167.936" gradientUnits="userSpaceOnUse">
  <stop/>
  <stop offset="1" stop-color="#333333" stop-opacity="0"/>
  </linearGradient>
  <radialGradient id="paint2_radial_28_295" cx="0" cy="0" r="1" gradientUnits="userSpaceOnUse" gradientTransform="translate(194.596 76.624) rotate(99.1226) scale(43.9775 125.337)">
  <stop stop-color="#F721E1"/>
  <stop offset="1" stop-color="#DE2EE1" stop-opacity="0"/>
  </radialGradient>
  <radialGradient id="paint3_radial_28_295" cx="0" cy="0" r="1" gradientUnits="userSpaceOnUse" gradientTransform="translate(174.396 173.413) rotate(92.5586) scale(157.837 128.153)">
  <stop stop-color="#F721E1"/>
  <stop offset="1" stop-color="#DE2EE1" stop-opacity="0"/>
  </radialGradient>
  <clipPath id="clip0_28_295">
  <rect width="350" height="350" fill="white"/>
  </clipPath>
  </defs>

    
  <!-- Bitcoin Overlay -->
  <g clip-path="url(#clip0_625_52580)">
  <g clip-path="url(#clip1_625_52580)">
  <g style="mix-blend-mode:overlay">
  <path fill-rule="evenodd" clip-rule="evenodd" d="M276.2 378.343C323.569 390.154 371.54 361.329 383.349 313.965C395.157 266.599 366.335 218.619 318.969 206.811C271.613 195.002 223.642 223.83 211.839 271.199C200.025 318.56 228.85 366.534 276.2 378.343ZM317.129 257.675C329.376 261.893 338.334 268.218 336.574 279.982C335.3 288.594 330.526 292.763 324.188 294.224C332.891 298.756 337.32 305.704 333.101 317.75C327.865 332.711 315.427 333.974 298.886 330.843L294.871 346.931L285.171 344.514L289.133 328.641C286.618 328.017 284.049 327.354 281.402 326.636L277.426 342.583L267.737 340.165L271.751 324.047C270.846 323.815 269.935 323.577 269.017 323.338C267.639 322.978 266.246 322.615 264.836 322.262L252.213 319.115L257.028 308.011C257.028 308.011 264.176 309.912 264.079 309.771C266.825 310.451 268.044 308.66 268.524 307.467L274.868 282.035C275.106 282.092 275.339 282.15 275.564 282.207C275.676 282.235 275.786 282.262 275.893 282.289C275.506 282.134 275.155 282.035 274.885 281.966L279.41 263.811C279.529 261.75 278.819 259.15 274.89 258.169C275.042 258.067 267.845 256.417 267.845 256.417L270.425 246.057L283.803 249.397L283.792 249.447C285.803 249.947 287.876 250.422 289.986 250.903L293.962 234.972L303.657 237.39L299.761 253.008C302.364 253.602 304.983 254.202 307.533 254.837L311.401 239.321L321.102 241.738L317.129 257.675ZM286.446 315.453C294.361 317.544 311.66 322.113 314.41 311.061C317.228 299.761 300.451 295.997 292.265 294.16C291.35 293.954 290.542 293.773 289.881 293.608L284.555 314.962C285.097 315.097 285.734 315.265 286.446 315.453ZM293.909 284.25C300.509 286.011 314.903 289.853 317.41 279.808C319.971 269.534 305.981 266.436 299.148 264.924C298.379 264.754 297.701 264.604 297.148 264.466L292.318 283.833C292.774 283.947 293.31 284.09 293.909 284.25Z" fill="white" fill-opacity="0.3"/>
  </g>
  </g>
  <g clip-path="url(#clip2_625_52580)">
  <g style="mix-blend-mode:overlay">
  <path fill-rule="evenodd" clip-rule="evenodd" d="M34.2076 141.364C81.5768 153.175 129.548 124.35 141.357 76.9864C153.165 29.62 124.343 -18.3598 76.9766 -30.1683C29.6213 -41.9768 -18.3503 -13.1491 -30.1532 34.2201C-41.9672 81.581 -13.1423 129.555 34.2076 141.364ZM75.1365 20.6954C87.3842 24.9143 96.3414 31.2385 94.5815 43.0027C93.3078 51.6146 88.5336 55.7837 82.1956 57.2453C90.8986 61.7764 95.3274 68.7249 91.1086 80.771C85.8729 95.7319 73.4346 96.9945 56.8933 93.8642L52.8789 109.952L43.1785 107.535L47.1404 91.6622C44.6262 91.0378 42.0568 90.3747 39.41 89.6564L35.4342 105.604L25.7449 103.186L29.7593 87.0676C28.8538 86.8357 27.9426 86.598 27.0249 86.3587C25.6465 85.9993 24.2537 85.636 22.8439 85.2828L10.2204 82.1359L15.036 71.0319C15.036 71.0319 22.1835 72.9328 22.0868 72.7919C24.8331 73.4715 26.0515 71.6812 26.5323 70.4876L32.8758 45.0555C33.114 45.1128 33.3473 45.1713 33.5723 45.2277C33.684 45.2557 33.7936 45.2831 33.9008 45.3097C33.514 45.155 33.1631 45.0555 32.8924 44.9865L37.4179 26.8317C37.5367 24.7706 36.8267 22.1708 32.8979 21.19C33.0499 21.0877 25.8526 19.4383 25.8526 19.4383L28.4331 9.0776L41.8109 12.4179L41.7998 12.4676C43.8112 12.9677 45.8833 13.4429 47.9942 13.9237L51.9699 -2.00699L61.6648 0.41051L57.7691 16.0289C60.3718 16.623 62.9909 17.2225 65.5411 17.858L69.4091 2.34175L79.1095 4.75925L75.1365 20.6954ZM44.4535 78.4742C52.3686 80.5648 69.6676 85.1338 72.4178 74.0821C75.236 62.7821 58.4589 59.0175 50.2724 57.1806C49.3576 56.9753 48.5501 56.7941 47.8892 56.6291L42.5624 77.9833C43.1052 78.1181 43.7414 78.2861 44.4535 78.4742ZM51.9172 47.2708C58.5164 49.0319 72.9109 52.8733 75.4183 42.8287C77.9788 32.5545 63.9884 29.4573 57.1558 27.9448C56.3872 27.7746 55.7092 27.6245 55.1555 27.4865L50.326 46.8542C50.7822 46.9679 51.3175 47.1107 51.9172 47.2708Z" fill="white" fill-opacity="0.3"/>
  </g>
  </g>
  <g clip-path="url(#clip3_625_52580)">
  <g style="mix-blend-mode:overlay">
  <path fill-rule="evenodd" clip-rule="evenodd" d="M261.081 135.707C295.509 144.291 330.375 123.341 338.958 88.9168C347.54 54.4907 326.592 19.6187 292.166 11.0363C257.748 2.45385 222.882 23.4059 214.303 57.8341C205.717 92.2562 226.667 127.124 261.081 135.707ZM290.827 48.0044C299.729 51.0707 306.239 55.6671 304.96 64.2174C304.034 70.4766 300.565 73.5067 295.958 74.569C302.283 77.8622 305.502 82.9124 302.436 91.6676C298.631 102.541 289.591 103.459 277.568 101.184L274.651 112.877L267.6 111.12L270.48 99.5833C268.653 99.1295 266.785 98.6476 264.861 98.1255L261.972 109.716L254.929 107.959L257.847 96.2439C257.189 96.0754 256.527 95.9027 255.86 95.7287C254.858 95.4675 253.846 95.2035 252.821 94.9467L243.646 92.6596L247.146 84.5892C247.146 84.5892 252.341 85.9707 252.271 85.8683C254.267 86.3623 255.152 85.0611 255.502 84.1936L260.112 65.7094C260.285 65.751 260.455 65.7935 260.618 65.8345C260.7 65.8548 260.779 65.8748 260.857 65.8942C260.576 65.7817 260.321 65.7094 260.124 65.6592L263.414 52.4643C263.5 50.9663 262.984 49.0767 260.128 48.3638C260.239 48.2895 255.008 47.0907 255.008 47.0907L256.883 39.5605L266.606 41.9882L266.598 42.0244C268.06 42.3878 269.566 42.7332 271.1 43.0826L273.99 31.5042L281.036 33.2612L278.205 44.6128C280.096 45.0445 282 45.4803 283.854 45.9421L286.665 34.6649L293.715 36.4219L290.827 48.0044ZM268.527 89.9982C274.28 91.5177 286.853 94.8385 288.852 86.8061C290.9 78.5932 278.706 75.8571 272.756 74.522C272.091 74.3728 271.504 74.2411 271.024 74.1212L267.153 89.6414C267.547 89.7394 268.009 89.8615 268.527 89.9982ZM273.952 67.3195C278.748 68.5995 289.21 71.3914 291.032 64.0909C292.893 56.6236 282.725 54.3726 277.759 53.2732C277.2 53.1496 276.708 53.0405 276.305 52.9402L272.795 67.0167C273.127 67.0993 273.516 67.2031 273.952 67.3195Z" fill="white" fill-opacity="0.3"/>
  </g>
  </g>
  <g clip-path="url(#clip4_625_52580)">
  <g style="mix-blend-mode:overlay">
  <path fill-rule="evenodd" clip-rule="evenodd" d="M27.9129 382.244C54.4055 388.85 81.2349 372.728 87.8391 346.239C94.4433 319.748 78.3237 292.914 51.8327 286.31C25.3478 279.705 -1.48158 295.828 -8.0827 322.321C-14.69 348.809 1.43114 375.64 27.9129 382.244ZM50.8032 314.757C57.6531 317.116 62.6626 320.653 61.6783 327.233C60.966 332.049 58.2959 334.381 54.7512 335.198C59.6186 337.732 62.0955 341.618 59.736 348.356C56.8078 356.723 49.8513 357.429 40.6002 355.678L38.355 364.676L32.9298 363.324L35.1456 354.447C33.7394 354.098 32.3024 353.727 30.8221 353.325L28.5985 362.244L23.1795 360.892L25.4247 351.877C24.9183 351.747 24.4087 351.615 23.8955 351.481C23.1246 351.28 22.3456 351.076 21.557 350.879L14.497 349.119L17.1903 342.909C17.1903 342.909 21.1877 343.972 21.1336 343.893C22.6696 344.273 23.351 343.272 23.6199 342.604L27.1677 328.381C27.3008 328.413 27.4311 328.445 27.5568 328.477C27.6194 328.493 27.6809 328.508 27.741 328.523C27.5246 328.436 27.3284 328.381 27.177 328.342L29.708 318.188C29.7744 317.036 29.3773 315.582 27.18 315.033C27.265 314.976 23.2398 314.054 23.2398 314.054L24.683 308.259L32.1649 310.127L32.1587 310.155C33.2836 310.435 34.4425 310.7 35.6231 310.969L37.8466 302.06L43.2687 303.412L41.09 312.147C42.5456 312.479 44.0104 312.814 45.4367 313.17L47.5999 304.492L53.0252 305.844L50.8032 314.757ZM33.6429 347.071C38.0696 348.24 47.7445 350.796 49.2827 344.615C50.8588 338.295 41.4758 336.189 36.8972 335.162C36.3856 335.047 35.934 334.946 35.5643 334.854L32.5852 346.796C32.8887 346.872 33.2446 346.966 33.6429 347.071ZM37.8171 329.62C41.5079 330.605 49.5585 332.753 50.9608 327.135C52.3928 321.389 44.5683 319.657 40.7469 318.811C40.3171 318.716 39.9379 318.632 39.6282 318.555L36.9272 329.387C37.1823 329.45 37.4817 329.53 37.8171 329.62Z" fill="white" fill-opacity="0.3"/>
  </g>
  </g>
  <g clip-path="url(#clip5_625_52580)">
  <g style="mix-blend-mode:overlay">
  <path fill-rule="evenodd" clip-rule="evenodd" d="M84.1189 235.997C101.699 240.38 119.503 229.682 123.886 212.104C128.268 194.525 117.571 176.718 99.9919 172.335C82.4167 167.953 64.6129 178.652 60.2324 196.232C55.8479 213.809 66.5458 231.614 84.1189 235.997ZM99.3083 191.213C103.854 192.779 107.178 195.126 106.525 199.492C106.052 202.688 104.28 204.235 101.928 204.778C105.158 206.459 106.802 209.038 105.236 213.509C103.293 219.062 98.6767 219.53 92.5377 218.368L91.0478 224.339L87.4476 223.442L88.9181 217.551C87.9849 217.319 87.0313 217.073 86.049 216.807L84.5735 222.725L80.9774 221.828L82.4673 215.846C82.1312 215.76 81.793 215.672 81.4524 215.583C80.9409 215.449 80.424 215.315 79.9008 215.183L75.2158 214.016L77.003 209.895C77.003 209.895 79.6557 210.6 79.6198 210.548C80.639 210.8 81.0912 210.135 81.2697 209.693L83.624 200.254C83.7123 200.275 83.7989 200.297 83.8824 200.318C83.9239 200.328 83.9646 200.338 84.0044 200.348C83.8608 200.291 83.7306 200.254 83.6301 200.228L85.3097 193.49C85.3538 192.725 85.0903 191.76 83.6322 191.396C83.6886 191.359 81.0174 190.746 81.0174 190.746L81.9751 186.901L86.9401 188.141L86.936 188.159C87.6825 188.345 88.4515 188.521 89.2349 188.7L90.7104 182.787L94.3085 183.684L92.8627 189.481C93.8286 189.701 94.8007 189.924 95.7472 190.16L97.1827 184.401L100.783 185.298L99.3083 191.213ZM87.9208 212.657C90.8584 213.432 97.2786 215.128 98.2994 211.027C99.3453 206.833 93.1187 205.436 90.0804 204.754C89.7409 204.678 89.4412 204.61 89.1959 204.549L87.219 212.474C87.4204 212.524 87.6565 212.587 87.9208 212.657ZM90.6909 201.076C93.1401 201.73 98.4824 203.155 99.4129 199.427C100.363 195.614 95.1709 194.465 92.6351 193.903C92.3498 193.84 92.0982 193.785 91.8927 193.733L90.1003 200.921C90.2696 200.964 90.4683 201.017 90.6909 201.076Z" fill="white" fill-opacity="0.3"/>
  </g>
  </g>
  </g>
  <defs>
  <clipPath id="clip0_625_52580">
  <rect width="350" height="350" fill="white"/>
  </clipPath>
  <clipPath id="clip1_625_52580">
  <rect width="176.823" height="176.823" fill="white" transform="translate(209.18 204.167)"/>
  </clipPath>
  <clipPath id="clip2_625_52580">
  <rect width="176.823" height="176.823" fill="white" transform="translate(-32.8125 -32.8125)"/>
  </clipPath>
  <clipPath id="clip3_625_52580">
  <rect width="128.516" height="128.516" fill="white" transform="translate(212.37 9.11467)"/>
  </clipPath>
  <clipPath id="clip4_625_52580">
  <rect width="98.8932" height="98.8932" fill="white" transform="translate(-9.57031 284.831)"/>
  </clipPath>
  <clipPath id="clip5_625_52580">
  <rect width="65.625" height="65.625" fill="white" transform="translate(59.2448 171.354)"/>
  </clipPath>
  </defs>
    
    
  <!-- Normal Glass -->
    <path d="M148.717 95L125.019 209.98C124.948 210.324 125.078 210.673 125.367 210.873C128.479 213.027 147.033 225 175 225C202.967 225 221.521 213.027 224.633 210.873C224.922 210.673 225.052 210.324 224.981 209.98L201.283 95C201.249 95.0666 201.205 95.1285 201.15 95.1836C199.818 96.5241 193.18 102.106 175 102.106C156.82 102.106 150.182 96.5241 148.85 95.1836C148.795 95.1285 148.751 95.0666 148.717 95Z" fill="#FFFA8D" fill-opacity="0.6"/>
  
    
    
    <!-- Lava 1 -->
    <!-- Color -->
    <!-- filter -->
    <path d="M201.33 94.2312L205.4 114.032C203.808 113.761 202.153 113.448 200.459 113.128C186.293 110.453 169.479 107.277 165.223 123.731C163.365 130.915 166.057 135.213 168.676 139.394C171.205 143.431 173.665 147.359 171.9 153.669C169.751 161.35 158.067 166.325 148.671 162.995C138.746 159.477 139.443 144.904 145.148 137.85C150.853 130.795 151.677 120.031 150.853 112.871C150.454 109.41 148.742 106.935 146.502 105.251L148.841 93.8809C148.875 93.9478 148.92 94.0101 148.975 94.0656C150.853 95.9589 156.979 101.03 175.237 101.03C192.824 101.03 199.656 95.8196 201.33 94.2312Z" fill="url(#paint0_radial_931_113783)"/>
    <mask id="mask0_931_113783" style="mask-type:alpha" maskUnits="userSpaceOnUse" x="141" y="93" width="65" height="72">
    <path d="M201.33 94.2302L205.4 114.031C203.808 113.76 202.153 113.447 200.459 113.127C186.293 110.452 169.479 107.276 165.223 123.73C163.365 130.914 166.057 135.212 168.676 139.393C171.205 143.43 173.665 147.358 171.9 153.668C169.751 161.349 158.067 166.324 148.671 162.994C138.746 159.476 139.443 144.903 145.148 137.849C150.853 130.794 151.677 120.03 150.853 112.87C150.454 109.409 148.742 106.934 146.502 105.25L148.841 93.8799C148.875 93.9469 148.92 94.0092 148.975 94.0646C150.313 95.4133 156.979 101.029 175.237 101.029C192.824 101.029 199.656 95.8187 201.33 94.2302Z" fill="url(#paint1_radial_931_113783)"/>
    </mask>
    <g mask="url(#mask0_931_113783)">
    <g filter="url(#filter0_f_931_113783)">
    <mask id="mask1_931_113783" style="mask-type:alpha" maskUnits="userSpaceOnUse" x="125" y="94" width="101" height="132">
    <path d="M149.015 95.0639C149.102 94.6401 149.475 94.3359 149.907 94.3359H200.399C200.831 94.3359 201.205 94.6401 201.292 95.0639L225.146 211.159C225.227 211.555 225.041 211.955 224.68 212.137C220.777 214.109 198.528 224.817 175.153 225.128C151.731 225.438 129.441 214.178 125.603 212.141C125.253 211.954 125.077 211.562 125.157 211.173L149.015 95.0639Z" fill="#577096" fill-opacity="0.75"/>
    </mask>
    <g mask="url(#mask1_931_113783)">
    <g filter="url(#filter1_f_931_113783)">
    <path d="M207.362 76.1064C211.019 110.268 146.094 132.571 113.174 139.453L113.174 76.1064L207.362 76.1064Z" fill="url(#paint2_linear_931_113783)" fill-opacity="0.5"/>
    </g>
    <g filter="url(#filter2_f_931_113783)">
    <path d="M155.56 125.301C156.622 105.018 134.624 86.1828 129.082 66.9985C133.541 65.1973 144.203 70.7896 152.828 76.1247C163.609 82.7936 163.032 109.124 164.778 125.784C166.175 139.112 148.606 223.401 144.168 241.481L131.869 240.837C140.395 214.68 154.74 140.955 155.56 125.301Z" fill="url(#paint3_linear_931_113783)" fill-opacity="0.6"/>
    </g>
    </g>
    </g>
    </g>
    <defs>
    <filter id="filter0_f_931_113783" x="122.744" y="92.0573" width="104.986" height="135.355" filterUnits="userSpaceOnUse" color-interpolation-filters="sRGB">
    <feFlood flood-opacity="0" result="BackgroundImageFix"/>
    <feBlend mode="normal" in="SourceGraphic" in2="BackgroundImageFix" result="shape"/>
    <feGaussianBlur stdDeviation="1.13932" result="effect1_foregroundBlur_931_113783"/>
    </filter>
    <filter id="filter1_f_931_113783" x="112.262" y="75.195" width="96.1589" height="65.1696" filterUnits="userSpaceOnUse" color-interpolation-filters="sRGB">
    <feFlood flood-opacity="0" result="BackgroundImageFix"/>
    <feBlend mode="normal" in="SourceGraphic" in2="BackgroundImageFix" result="shape"/>
    <feGaussianBlur stdDeviation="0.455729" result="effect1_foregroundBlur_931_113783"/>
    </filter>
    <filter id="filter2_f_931_113783" x="128.17" y="65.7428" width="37.5978" height="176.65" filterUnits="userSpaceOnUse" color-interpolation-filters="sRGB">
    <feFlood flood-opacity="0" result="BackgroundImageFix"/>
    <feBlend mode="normal" in="SourceGraphic" in2="BackgroundImageFix" result="shape"/>
    <feGaussianBlur stdDeviation="0.455729" result="effect1_foregroundBlur_931_113783"/>
    </filter>
    <radialGradient id="paint0_radial_931_113783" cx="0" cy="0" r="1" gradientUnits="userSpaceOnUse" gradientTransform="translate(156.087 109.102) rotate(53.0717) scale(37.8406 40.3077)">
    <stop offset="0.203125" style="stop-color: #21F6EA;"/>
    <stop offset="0.890625" style="stop-color: #2183F6;"/>
    </radialGradient>
    <radialGradient id="paint1_radial_931_113783" cx="0" cy="0" r="1" gradientUnits="userSpaceOnUse" gradientTransform="translate(156.087 109.101) rotate(53.0717) scale(37.8406 40.3077)">
    <stop offset="0.203125" stop-color="#71FF30"/>
    <stop offset="0.890625" stop-color="#25BC46"/>
    </radialGradient>
    <linearGradient id="paint2_linear_931_113783" x1="145.368" y1="123.01" x2="155.982" y2="72.2914" gradientUnits="userSpaceOnUse">
    <stop stop-color="white" stop-opacity="0"/>
    <stop offset="0.471361" stop-color="white"/>
    <stop offset="1" stop-color="white"/>
    </linearGradient>
    <linearGradient id="paint3_linear_931_113783" x1="160.882" y1="220.938" x2="202.107" y2="178" gradientUnits="userSpaceOnUse">
    <stop stop-color="#F2F2F2"/>
    <stop offset="0.0001" stop-color="#F2F2F2"/>
    <stop offset="0.0520833" stop-color="#F2F2F2" stop-opacity="0.948011"/>
    <stop offset="1" stop-color="#F2F2F2" stop-opacity="0"/>
    </linearGradient>
    </defs>
  
    
  <!-- Lava 2 -->
    <!-- Color -->
<path d="M178.202 131.059C178.202 128.163 180.222 122.394 188.299 122.479C196.377 122.565 198.468 128.235 198.504 131.059C198.576 133.132 197.365 137.622 191.952 138.995C185.184 140.711 178.202 136.85 178.202 131.059Z" fill="url(#paint0_radial_931_113845)"/>
<defs>
<radialGradient id="paint0_radial_931_113845" cx="0" cy="0" r="1" gradientUnits="userSpaceOnUse" gradientTransform="translate(182.959 126.151) rotate(45.5119) scale(10.2292 11.3416)">
<stop offset="0.203125" style="stop-color: #F85449;"/>
<stop offset="0.890625" style="stop-color: #C53434;"/>
</radialGradient>
</defs>
  
    
  <!-- Lava 3 -->
    <!-- Color -->
    <path d="M214.381 157.604L219.2 181.084C217.285 183.349 214.448 185.339 210.334 186.382C197.471 189.642 184.2 182.306 184.2 171.303C184.2 165.801 188.039 154.839 203.392 155.002C208.021 155.051 211.616 156.065 214.381 157.604Z" fill="url(#paint0_radial_931_113862)"/>
<defs>
<radialGradient id="paint0_radial_931_113862" cx="0" cy="0" r="1" gradientUnits="userSpaceOnUse" gradientTransform="translate(192.4 161.977) rotate(48.2936) scale(18.5718 20.4588)">
<stop offset="0.203125" style="stop-color: #FFFFFF;"/>
<stop offset="0.890625" style="stop-color: #D0C9C9;"/>
</radialGradient>
</defs>
  
    
  <!-- Lava 4 -->
    <!-- Color -->
    <path d="M225 210.659C220.5 214 200.704 225 175.402 225C147.201 225 128.492 213.024 125.354 210.869C125.163 210.738 125.042 210.543 125 210.328C128.968 198.996 144.393 175.959 164.496 181.99C174.451 184.976 181.421 192.474 187.975 199.525C198.127 210.446 208 213.5 225 210.659C224.675 211.045 225.345 210.27 225 210.659Z" fill="url(#paint0_radial_931_113863)"/>
<mask id="mask0_931_113863" style="mask-type:alpha" maskUnits="userSpaceOnUse" x="124" y="180" width="101" height="45">
<path d="M223.866 211.799C218.236 215.343 200.575 225 175.272 225C147.071 225 128.362 213.003 125.225 210.845C125.034 210.714 124.912 210.519 124.87 210.303C128.839 198.951 144.263 175.875 164.366 181.916C174.321 184.908 181.291 192.418 187.845 199.481C197.997 210.421 207.154 220.288 224.87 210.635C224.545 211.021 224.21 211.409 223.866 211.799Z" fill="url(#paint1_radial_931_113863)"/>
</mask>
<g mask="url(#mask0_931_113863)">
<g filter="url(#filter0_f_931_113863)">
<mask id="mask1_931_113863" style="mask-type:alpha" maskUnits="userSpaceOnUse" x="124" y="94" width="102" height="132">
<path d="M148.862 95.3198C148.949 94.896 149.322 94.5918 149.755 94.5918H200.246C200.679 94.5918 201.052 94.896 201.139 95.3198L224.993 211.414C225.075 211.811 224.888 212.211 224.527 212.393C220.624 214.365 198.376 225.073 175 225.383C151.578 225.694 129.288 214.434 125.45 212.396C125.1 212.21 124.924 211.818 125.004 211.429L148.862 95.3198Z" fill="#577096" fill-opacity="0.75"/>
</mask>
<g mask="url(#mask1_931_113863)">
<g filter="url(#filter1_f_931_113863)">
<path d="M155.407 125.557C156.47 105.273 134.471 86.4386 128.929 67.2543C133.388 65.4531 144.05 71.0455 152.675 76.3806C163.456 83.0494 162.879 109.38 164.625 126.04C166.022 139.368 148.453 223.657 144.015 241.737L131.716 241.093C140.242 214.936 154.587 141.211 155.407 125.557Z" fill="url(#paint2_linear_931_113863)" fill-opacity="0.6"/>
</g>
</g>
</g>
</g>
<defs>
<filter id="filter0_f_931_113863" x="122.591" y="92.3132" width="105.59" height="135.355" filterUnits="userSpaceOnUse" color-interpolation-filters="sRGB">
<feFlood flood-opacity="0" result="BackgroundImageFix"/>
<feBlend mode="normal" in="SourceGraphic" in2="BackgroundImageFix" result="shape"/>
<feGaussianBlur stdDeviation="1.13932" result="effect1_foregroundBlur_931_113863"/>
</filter>
<filter id="filter1_f_931_113863" x="128.017" y="65.9987" width="37.5983" height="176.65" filterUnits="userSpaceOnUse" color-interpolation-filters="sRGB">
<feFlood flood-opacity="0" result="BackgroundImageFix"/>
<feBlend mode="normal" in="SourceGraphic" in2="BackgroundImageFix" result="shape"/>
<feGaussianBlur stdDeviation="0.455729" result="effect1_foregroundBlur_931_113863"/>
</filter>
<radialGradient id="paint0_radial_931_113863" cx="0" cy="0" r="1" gradientUnits="userSpaceOnUse" gradientTransform="translate(148.451 190.545) rotate(28.2255) scale(40.1081 37.0676)">
<stop offset="0.203125" style="stop-color: #FF00D6;"/>
<stop offset="0.890625" style="stop-color: #D700B4;"/>
</radialGradient>
<radialGradient id="paint1_radial_931_113863" cx="0" cy="0" r="1" gradientUnits="userSpaceOnUse" gradientTransform="translate(146.382 191.229) rotate(27.0849) scale(58.9221 42.3164)">
<stop offset="0.302083" stop-color="#FFB800"/>
<stop offset="1" stop-color="#FF7800"/>
</radialGradient>
<linearGradient id="paint2_linear_931_113863" x1="160.729" y1="221.194" x2="201.954" y2="178.256" gradientUnits="userSpaceOnUse">
<stop stop-color="#F2F2F2"/>
<stop offset="0.0001" stop-color="#F2F2F2"/>
<stop offset="0.0520833" stop-color="#F2F2F2" stop-opacity="0.948011"/>
<stop offset="1" stop-color="#F2F2F2" stop-opacity="0"/>
</linearGradient>
</defs>
  
  
    
  <!-- Gold Wizard -->
  <g clip-path="url(#clip0_1393_70787)">
  <path d="M213.19 76.7275C217.942 89.7838 215.892 107.136 212.704 115.88C212.455 116.562 211.545 116.642 211.124 116.05C202.016 103.246 185.881 97.0907 169.228 97.0907C156.623 97.0907 146.154 105.66 142.314 111.059C141.891 111.653 140.964 111.625 140.707 110.942C136.577 99.9827 144.432 81.6187 149.695 73.5957C150.187 72.8468 149.431 71.6663 148.541 71.7709C134.384 73.4357 103.681 64.9706 98.209 56.7044C98.0645 56.486 98.046 56.2219 98.1296 55.9737L99.2641 52.6078C99.4626 52.0187 100.181 51.7939 100.721 52.1024C113.571 59.448 151.571 46.3509 174.236 43.7059C198.721 40.8485 208.181 62.9688 213.19 76.7275Z" fill="url(#paint0_linear_1393_70787)"/>
  <path d="M103.819 49.622C101.941 57.338 94.6866 59.9213 86.9707 58.0434C79.2547 56.1655 73.9989 50.5375 75.8768 42.8216C77.7547 35.1056 85.0089 32.5223 92.7249 34.4002C100.441 36.2781 105.697 41.9061 103.819 49.622Z" fill="url(#paint1_linear_1393_70787)" stroke="#D1CDC5" stroke-width="1.09091"/>
  <path d="M167.849 79.4541C153.475 79.4541 141.761 90.355 138.825 95.8408C138.812 95.8654 138.8 95.8848 138.785 95.9077C138.396 96.466 132.998 104.362 132.998 111.712C132.998 118.527 141.632 118.313 143.467 118.191C143.683 118.177 143.865 118.053 143.968 117.861C146.957 112.297 153.704 101.741 167.849 101.741C185.74 101.741 200.095 108.689 209.395 123.161C209.508 123.336 209.693 123.45 209.902 123.453C211.504 123.476 218.45 123.214 218.964 116.991C219.526 110.177 213.012 101.715 212.595 101.181C212.581 101.163 212.568 101.145 212.556 101.126C203.256 86.483 184.682 79.4541 167.849 79.4541Z" fill="url(#paint2_linear_1393_70787)" stroke="#D1CDC5" stroke-width="1.09091"/>
  <mask id="mask0_1393_70787" style="mask-type:alpha" maskUnits="userSpaceOnUse" x="99" y="44" width="118" height="74">
  <path d="M214.19 77.7275C219.026 91.013 216.818 108.746 213.535 117.332C213.348 117.819 212.696 117.87 212.398 117.441C203.343 104.371 187.05 98.0907 170.228 98.0907C157.312 98.0907 146.638 107.089 143.042 112.453C142.75 112.888 142.084 112.872 141.883 112.388C137.228 101.167 145.843 81.6162 151.16 73.9049C151.525 73.3754 151.003 72.5615 150.368 72.6593C136.565 74.7811 104.549 66.0696 99.1467 57.6084C99.0454 57.4499 99.0325 57.262 99.0925 57.0838L100.378 53.2704C100.52 52.8474 101.031 52.6835 101.411 52.9181C113.949 60.6629 152.385 47.3725 175.236 44.7059C199.721 41.8485 209.181 63.9688 214.19 77.7275Z" fill="url(#paint3_radial_1393_70787)"/>
  </mask>
  <g mask="url(#mask0_1393_70787)">
  <mask id="mask1_1393_70787" style="mask-type:alpha" maskUnits="userSpaceOnUse" x="99" y="23" width="125" height="98">
  <path d="M214.744 86.8235C218.643 76.7514 209.776 41.0151 204.265 23.7088C204.144 23.3282 203.729 23.1517 203.37 23.3261C198.815 25.5364 172.224 38.2353 162.45 38.2353C152.512 38.2353 125.898 25.1071 122.131 23.2239C121.86 23.0884 121.548 23.1612 121.355 23.3947C117.442 28.1255 110.614 38.4197 112.215 44.8235C114.274 53.0588 107.686 60.0588 105.215 69.9412C102.744 79.8235 110.156 84.3529 110.156 90.9412C110.156 97.5294 103.156 93.4118 100.273 99.5882C98.2116 104.006 99.0684 108.753 99.9597 111.18C100.105 111.576 100.588 111.693 100.944 111.468C110.843 105.184 139.675 115.041 153.269 120.947C153.352 120.983 153.437 121 153.527 121H172.915C173.07 121 173.223 120.942 173.342 120.842C195.538 102.121 221.747 113.165 222.979 109.059C223.952 105.815 218.085 101.507 214.891 99.6722C214.793 99.6159 214.684 99.5911 214.572 99.579C212.946 99.4039 210.927 96.6846 214.744 86.8235Z" fill="url(#paint4_radial_1393_70787)"/>
  <path d="M203.745 23.8743C206.495 32.5101 210.084 45.7504 212.498 58.0837C213.705 64.2509 214.616 70.1794 214.982 75.1862C215.351 80.2203 215.162 84.2328 214.235 86.6266C212.315 91.5862 211.828 94.8315 212.075 96.8982C212.324 98.9863 213.361 99.9972 214.514 100.121C214.588 100.129 214.613 100.141 214.619 100.145C216.191 101.048 218.415 102.557 220.116 104.227C220.967 105.062 221.665 105.916 222.091 106.734C222.518 107.553 222.644 108.278 222.457 108.902C222.405 109.074 222.188 109.311 221.325 109.436C220.507 109.555 219.347 109.538 217.855 109.455C217.121 109.414 216.313 109.358 215.441 109.297C212.812 109.114 209.594 108.889 206.017 108.924C196.466 109.017 184.221 110.952 172.991 120.425C172.967 120.445 172.937 120.455 172.915 120.455H153.527C153.509 120.455 153.498 120.452 153.487 120.447C146.669 117.485 136.032 113.532 125.848 111.106C120.756 109.893 115.76 109.056 111.401 108.922C107.061 108.788 103.267 109.347 100.652 111.007C100.604 111.038 100.553 111.041 100.518 111.031C100.501 111.027 100.492 111.02 100.486 111.016C100.482 111.012 100.477 111.006 100.472 110.992C99.6081 108.64 98.7902 104.056 100.767 99.8189C102.028 97.1171 104.101 96.5667 106.143 96.0242C106.241 95.9981 106.339 95.9722 106.437 95.9459C107.478 95.6666 108.571 95.345 109.384 94.6069C110.233 93.8363 110.702 92.6904 110.702 90.9412C110.702 89.1894 110.208 87.5927 109.537 86.0523C109.135 85.1313 108.65 84.1904 108.163 83.2465C107.852 82.6438 107.541 82.0398 107.25 81.4389C105.733 78.304 104.553 74.8394 105.744 70.0735C106.647 66.4618 108.099 63.26 109.491 60.1904C109.982 59.1069 110.466 58.04 110.916 56.9772C112.624 52.9406 113.819 48.9902 112.744 44.6912C112.373 43.2077 112.483 41.4603 112.947 39.569C113.411 37.6818 114.218 35.6867 115.205 33.727C117.178 29.8067 119.838 26.0846 121.775 23.7423C121.797 23.7163 121.818 23.7065 121.833 23.7032C121.847 23.7001 121.865 23.7003 121.887 23.7118C123.775 24.6554 131.382 28.4144 139.765 31.9386C143.956 33.7005 148.349 35.4072 152.322 36.6743C156.279 37.9363 159.875 38.7807 162.45 38.7807C164.982 38.7807 168.545 37.9641 172.489 36.7374C176.448 35.5058 180.847 33.843 185.074 32.1144C193.528 28.657 201.327 24.9239 203.608 23.8168C203.644 23.7992 203.673 23.8025 203.693 23.8109C203.712 23.8193 203.733 23.837 203.745 23.8743Z" stroke="white" stroke-opacity="0.5" stroke-width="1.09091"/>
  </mask>
  <g mask="url(#mask1_1393_70787)">
    <g style="mix-blend-mode:overlay">
      <circle cx="104.441" cy="115.641" r="1.01275" fill="white">
        <animate attributeName="opacity" values="1;0;1" dur="2.1s" repeatCount="indefinite" />
      </circle>
      <circle cx="114.127" cy="82.2615" r="1.01275" fill="white">
        <animate attributeName="opacity" values="1;0;1" dur="2.3s" repeatCount="indefinite" />
      </circle>
      <circle cx="116.086" cy="64.6744" r="1.01275" fill="white">
        <animate attributeName="opacity" values="1;0;1" dur="2.6s" repeatCount="indefinite" />
      </circle>
      <circle cx="132.321" cy="108.762" r="1.01275" fill="white">
        <animate attributeName="opacity" values="1;0;1" dur="2.5s" repeatCount="indefinite" />
      </circle>
      <circle cx="160.799" cy="108.762" r="1.01275" fill="white">
        <animate attributeName="opacity" values="1;0;1" dur="2.5s" repeatCount="indefinite" />
      </circle>
      <path d="M100.401 105.704L100.036 104.718L99.0508 104.353L100.036 103.989L100.401 103.003L100.766 103.989L101.751 104.353L100.766 104.718L100.401 105.704Z" fill="#FFF7B0">
        <animate attributeName="opacity" values="1;0;1" dur="2.9s" repeatCount="indefinite" />
      </path>
      <path d="M139.209 84.3929L138.571 82.668L136.846 82.0298L138.571 81.3916L139.209 79.6667L139.847 81.3916L141.572 82.0298L139.847 82.668L139.209 84.3929Z" fill="#FFF7B0">
        <animate attributeName="opacity" values="1;0;1" dur="2.7s" repeatCount="indefinite" />
      </path>
      <path d="M127.945 63.5088L127.307 61.784L125.582 61.1457L127.307 60.5075L127.945 58.7826L128.583 60.5075L130.308 61.1457L128.583 61.784L127.945 63.5088Z" fill="#FFF7B0">
        <animate attributeName="opacity" values="1;0;1" dur="2.2s" repeatCount="indefinite" />
      </path>
      <path d="M153.458 68.9872L152.069 65.2341L148.316 63.8453L152.069 62.4565L153.458 58.7034L154.847 62.4565L158.6 63.8453L154.847 65.2341L153.458 68.9872Z" fill="#FFF7B0">
        <animate attributeName="opacity" values="1;0;1" dur="2.4s" repeatCount="indefinite" />
      </path>
      <path opacity="0.25" d="M104.939 61.7851L102 53.8408L94.0555 50.9012L102 47.9616L104.939 40.0173L107.879 47.9616L115.823 50.9012L107.879 53.8408L104.939 61.7851Z" fill="#FFF7B0">
        <animate attributeName="opacity" values="0.25;0;0.25" dur="2.1s" repeatCount="indefinite" />
      </path>
      <path opacity="0.25" d="M116.95 112.451L114.01 104.37L106.066 101.38L114.01 98.3896L116.95 90.3084L119.889 98.3896L127.833 101.38L119.889 104.37L116.95 112.451Z" fill="#FFF7B0">
        <animate attributeName="opacity" values="0.25;0;0.25" dur="2.3s" repeatCount="indefinite" />
      </path>
    </g>
    <g style="mix-blend-mode:overlay">
      <circle cx="176.088" cy="113.994" r="1.01275" fill="white">
        <animate attributeName="opacity" values="1;0;1" dur="2.5s" repeatCount="indefinite" />
      </circle>
      <circle cx="168.37" cy="68.3531" r="1.01275" fill="white">
        <animate attributeName="opacity" values="1;0;1" dur="2.9s" repeatCount="indefinite" />
      </circle>
      <circle cx="185.773" cy="80.6145" r="1.01275" fill="white">
        <animate attributeName="opacity" values="1;0;1" dur="2.7s" repeatCount="indefinite" />
      </circle>
      <circle cx="187.732" cy="63.0274" r="1.01275" fill="white">
        <animate attributeName="opacity" values="1;0;1" dur="2.2s" repeatCount="indefinite" />
      </circle>
      <path d="M172.048 104.057L171.683 103.071L170.698 102.706L171.683 102.342L172.048 101.356L172.413 102.342L173.398 102.706L172.413 103.071L172.048 104.057Z" fill="#FFF7B0">
        <animate attributeName="opacity" values="1;0;1" dur="2.4s" repeatCount="indefinite" />
      </path>
      <path d="M210.856 82.7458L210.218 81.021L208.493 80.3828L210.218 79.7445L210.856 78.0197L211.494 79.7445L213.219 80.3828L211.494 81.021L210.856 82.7458Z" fill="#FFF7B0">
        <animate attributeName="opacity" values="1;0;1" dur="2.1s" repeatCount="indefinite" />
      </path>
      <path d="M199.592 61.8618L198.954 60.137L197.229 59.4987L198.954 58.8605L199.592 57.1357L200.23 58.8605L201.955 59.4987L200.23 60.137L199.592 61.8618Z" fill="#FFF7B0">
        <animate attributeName="opacity" values="1;0;1" dur="2.3s" repeatCount="indefinite" />
      </path>
      <path d="M217.606 108.024L216.968 106.3L215.243 105.661L216.968 105.023L217.606 103.298L218.244 105.023L219.969 105.661L218.244 106.3L217.606 108.024Z" fill="#FFF7B0">
        <animate attributeName="opacity" values="1;0;1" dur="2.6s" repeatCount="indefinite" />
      </path>
      <path opacity="0.25" d="M176.586 60.1381L173.647 52.1938L165.702 49.2542L173.647 46.3145L176.586 38.3703L179.526 46.3145L187.47 49.2542L179.526 52.1938L176.586 60.1381Z" fill="#FFF7B0">
        <animate attributeName="opacity" values="0.25;0;0.25" dur="2.5s" repeatCount="indefinite" />
      </path>
    </g>
  </g>
  </g>
  <path d="M98.3154 318.461C103.193 304.238 148.815 306.961 148.815 306.961L159.84 281.336C159.84 281.336 172.815 317.961 160.036 331.694C147.257 345.427 93.4375 332.684 98.3154 318.461Z" fill="url(#paint5_radial_1393_70787)"/>
  <path d="M251.353 318.461C246.475 304.238 200.853 306.961 200.853 306.961L189.828 281.336C189.828 281.336 176.853 317.961 189.632 331.694C202.41 345.427 256.23 332.684 251.353 318.461Z" fill="url(#paint6_radial_1393_70787)"/>
  <path d="M124.795 208.427C124.795 208.427 148.115 223.011 175.231 223.011C202.347 223.011 225.211 208.427 225.211 208.427C228.734 223.431 236.034 261.828 223.786 281.28C208.371 305.761 182.906 314.156 175.003 314.156C167.1 314.156 141.635 305.761 126.221 281.28C113.972 261.828 121.272 223.431 124.795 208.427Z" fill="#FFE3B9"/>
  <path d="M238.55 285.836C243.275 273.63 232.562 230.388 225.867 209.325C225.698 208.795 225.103 208.555 224.603 208.798C218.699 211.659 186.825 226.836 175.05 226.836C163.05 226.836 131.024 211.071 126.171 208.647C125.793 208.459 125.358 208.562 125.09 208.887C120.329 214.664 112.115 227.092 114.051 234.836C116.551 244.836 108.551 253.336 105.551 265.336C102.551 277.336 111.551 282.836 111.551 290.836C111.551 298.836 103.05 293.836 99.5499 301.336C97.0854 306.617 98.0555 312.286 99.119 315.273C99.3159 315.826 99.9905 315.99 100.491 315.682C112.623 308.217 147.422 320.114 163.881 327.262C163.996 327.312 164.115 327.336 164.24 327.336H187.714C187.931 327.336 188.144 327.255 188.31 327.116C215.255 304.422 247.055 317.82 248.55 312.836C249.729 308.906 242.64 303.69 238.755 301.453C238.619 301.375 238.467 301.34 238.311 301.321C236.342 301.078 233.938 297.749 238.55 285.836Z" fill="url(#paint7_linear_1393_70787)"/>
  <path d="M166.663 280.313C170.58 252.676 166.469 236.599 160.872 226.402C160.748 226.177 160.505 226.05 160.249 226.072L147.164 227.166C146.941 227.185 146.743 227.314 146.642 227.514C140.673 239.373 141.888 260.029 154.959 292.078C158.914 301.777 168.785 317.629 182.49 325.499C183.023 325.804 183.522 325.314 183.164 324.815C178.669 318.561 163.031 305.944 166.663 280.313Z" fill="url(#paint8_linear_1393_70787)" stroke="#D1CDC5" stroke-width="1.09091"/>
  <path d="M155.89 289.197C142.232 255.706 156.083 228.423 165.446 218.448C165.825 218.044 165.585 217.366 165.034 217.306L147.76 215.431C147.566 215.41 147.375 215.474 147.237 215.611C135.59 227.183 129.938 254.786 145.858 293.864C145.874 293.903 145.894 293.942 145.917 293.977C157.844 312.115 177.858 327.128 172.003 320.836C169.753 318.418 158.374 296.187 155.89 289.197Z" fill="url(#paint9_linear_1393_70787)" stroke="#D1CDC5" stroke-width="1.09091"/>
  <path d="M144.763 287.135C131.105 253.645 144.752 226.081 154.1 216.087C154.479 215.682 154.239 215.004 153.688 214.945L136.414 213.07C136.22 213.049 136.029 213.113 135.89 213.25C124.222 224.786 117.279 248.991 133.229 288.1C138.153 300.172 151.694 311.048 160.004 314.052C160.552 314.251 160.994 313.679 160.673 313.192C156.876 307.419 147.619 296.09 144.763 287.135Z" fill="url(#paint10_linear_1393_70787)" stroke="#D1CDC5" stroke-width="1.09091"/>
  <path d="M121.981 259.487C120.007 236.711 127.623 218.771 138.725 213.162C145.907 209.533 152.315 208.152 155.943 207.629C156.646 207.528 156.767 206.537 156.083 206.348C150.856 204.91 139.683 202.937 129.874 208.565C116.536 216.219 109.847 228.358 112.087 254.208C112.751 261.871 118.857 272.846 123.212 276.8C123.644 277.192 124.238 276.793 124.118 276.222C123.255 272.123 122.024 264.936 121.981 259.487Z" fill="url(#paint11_linear_1393_70787)" stroke="#D1CDC5" stroke-width="1.09091"/>
  <path d="M134.676 281.11C127.363 252.788 133.174 228.538 145.994 219.109C154.835 212.608 163.105 209.515 167.387 208.222C168.066 208.016 168.035 207.018 167.33 206.934C160.855 206.158 145.537 205.596 133.853 215.184C118.643 227.666 112.774 244.399 121.074 276.543C123.585 286.264 133.97 299.134 140.274 302.929C140.774 303.23 141.295 302.728 141.08 302.186C139.135 297.281 135.918 288.17 134.676 281.11Z" fill="url(#paint12_linear_1393_70787)" stroke="#D1CDC5" stroke-width="1.09091"/>
  <mask id="mask2_1393_70787" style="mask-type:alpha" maskUnits="userSpaceOnUse" x="99" y="210" width="151" height="120">
  <path d="M239.55 287.836C244.296 275.576 233.465 231.999 226.777 211.043C226.655 210.662 226.252 210.482 225.893 210.657C220.839 213.114 188.034 228.836 176.05 228.836C163.903 228.836 131.234 212.681 127.004 210.564C126.733 210.428 126.415 210.495 126.222 210.728C121.483 216.433 113.097 229.02 115.051 236.836C117.551 246.836 109.551 255.336 106.551 267.336C103.551 279.336 112.551 284.836 112.551 292.836C112.551 300.836 104.05 295.836 100.55 303.336C97.9991 308.802 99.1277 314.683 100.231 317.577C100.381 317.971 100.863 318.089 101.215 317.857C113.099 310.027 148.363 322.083 164.929 329.283C165.011 329.319 165.096 329.336 165.186 329.336H188.809C188.965 329.336 189.118 329.278 189.237 329.178C216.197 306.398 248.053 319.824 249.55 314.836C250.735 310.886 243.568 305.637 239.697 303.42C239.599 303.363 239.491 303.338 239.378 303.328C237.397 303.153 234.886 299.884 239.55 287.836Z" fill="url(#paint13_radial_1393_70787)"/>
  <path d="M226.257 211.209C229.596 221.669 233.97 237.782 236.916 252.805C238.389 260.317 239.503 267.545 239.953 273.652C240.405 279.786 240.18 284.698 239.041 287.639C236.698 293.692 236.122 297.623 236.431 300.102C236.743 302.605 237.997 303.753 239.33 303.872C239.395 303.877 239.419 303.889 239.426 303.893C241.336 304.987 244.054 306.827 246.138 308.868C247.181 309.889 248.042 310.939 248.571 311.95C249.101 312.963 249.268 313.879 249.027 314.679C248.943 314.962 248.609 315.258 247.556 315.41C246.55 315.556 245.128 315.534 243.316 315.433C242.423 315.384 241.443 315.315 240.385 315.242C237.188 315.019 233.282 314.747 228.937 314.79C217.345 314.905 202.498 317.259 188.885 328.761C188.861 328.781 188.831 328.79 188.809 328.79H165.186C165.174 328.79 165.165 328.789 165.157 328.787C165.153 328.786 165.15 328.784 165.146 328.783C156.843 325.174 143.854 320.347 131.442 317.403C125.237 315.931 119.157 314.924 113.869 314.781C108.599 314.639 104.028 315.351 100.915 317.402C100.871 317.431 100.824 317.435 100.791 317.426C100.775 317.421 100.764 317.415 100.758 317.409C100.752 317.404 100.746 317.397 100.741 317.382C99.6665 314.565 98.579 308.849 101.044 303.567C102.599 300.236 105.164 299.555 107.643 298.896C107.764 298.864 107.884 298.832 108.004 298.8C109.271 298.46 110.571 298.075 111.535 297.201C112.533 296.294 113.096 294.938 113.096 292.836C113.096 290.731 112.504 288.809 111.691 286.946C111.205 285.83 110.619 284.695 110.03 283.552C109.652 282.82 109.273 282.084 108.917 281.348C107.069 277.53 105.624 273.293 107.08 267.468C108.179 263.071 109.949 259.169 111.64 255.439C112.236 254.126 112.822 252.834 113.366 251.548C115.437 246.652 116.875 241.885 115.58 236.704C115.121 234.868 115.261 232.713 115.835 230.392C116.408 228.077 117.402 225.632 118.613 223.236C121.035 218.444 124.291 213.906 126.641 211.077C126.659 211.055 126.679 211.045 126.696 211.042C126.713 211.038 126.735 211.039 126.76 211.052C128.879 212.112 138.116 216.686 148.346 220.997C153.461 223.151 158.832 225.244 163.691 226.798C168.533 228.348 172.922 229.381 176.05 229.381C179.136 229.381 183.501 228.376 188.346 226.862C193.207 225.343 198.605 223.294 203.777 221.172C214.124 216.929 223.601 212.378 226.131 211.148C226.167 211.13 226.19 211.135 226.205 211.141C226.22 211.148 226.243 211.165 226.257 211.209Z" stroke="white" stroke-opacity="0.5" stroke-width="1.09091"/>
  </mask>
  <g mask="url(#mask2_1393_70787)">
    <g style="mix-blend-mode:overlay">
      <circle cx="104.611" cy="320.828" r="1.22977" fill="white">
        <animate attributeName="opacity" values="1;0;1" dur="2.1s" repeatCount="indefinite" />
      </circle>
      <circle cx="116.372" cy="280.297" r="1.22977" fill="white">
        <animate attributeName="opacity" values="1;0;1" dur="2.3s" repeatCount="indefinite" />
      </circle>
      <circle cx="138.465" cy="312.476" r="1.22977" fill="white">
        <animate attributeName="opacity" values="1;0;1" dur="2.5s" repeatCount="indefinite" />
      </circle>
      <circle cx="173.046" cy="312.476" r="1.22977" fill="white">
        <animate attributeName="opacity" values="1;0;1" dur="2.9s" repeatCount="indefinite" />
      </circle>
      <path d="M99.705 308.762L99.2622 307.565L98.0654 307.122L99.2622 306.68L99.705 305.483L100.148 306.68L101.345 307.122L100.148 307.565L99.705 308.762Z" fill="#FFF7B0">
        <animate attributeName="opacity" values="1;0;1" dur="2.7s" repeatCount="indefinite" />
      </path>

      <path d="M133.151 257.525L132.376 255.431L130.282 254.656L132.376 253.881L133.151 251.786L133.926 253.881L136.021 254.656L133.926 255.431L133.151 257.525Z" fill="#FFF7B0">
        <animate attributeName="opacity" values="1;0;1" dur="2.8s" repeatCount="indefinite" />
      </path>
      <path d="M164.131 264.178L162.445 259.62L157.887 257.934L162.445 256.248L164.131 251.69L165.818 256.248L170.375 257.934L165.818 259.62L164.131 264.178Z" fill="#FFF7B0">
        <animate attributeName="opacity" values="1;0;1" dur="2.1s" repeatCount="indefinite" />
      </path>
      <path opacity="0.25" d="M105.216 255.432L101.646 245.786L91.9998 242.216L101.646 238.647L105.216 229L108.786 238.647L118.432 242.216L108.786 245.786L105.216 255.432Z" fill="#FFF7B0">
        <animate attributeName="opacity" values="0.25;0;0.25" dur="2.3s" repeatCount="indefinite" />
      </path>
      <path opacity="0.25" d="M119.8 316.956L116.23 307.143L106.584 303.512L116.23 299.881L119.8 290.068L123.37 299.881L133.016 303.512L123.37 307.143L119.8 316.956Z" fill="#FFF7B0">
        <animate attributeName="opacity" values="0.25;0;0.25" dur="2.6s" repeatCount="indefinite" />
      </path>
      <path opacity="0.25" d="M169.702 298.271L166.563 289.789L158.081 286.65L166.563 283.511L169.702 275.029L172.841 283.511L181.323 286.65L172.841 289.789L169.702 298.271Z" fill="#FFF7B0">
        <animate attributeName="opacity" values="0.25;0;0.25" dur="2.5s" repeatCount="indefinite" />
      </path>
    </g>
    <g style="mix-blend-mode:overlay">
      <circle cx="191.611" cy="318.828" r="1.22977" fill="white">
        <animate attributeName="opacity" values="1;0;1" dur="2.1s" repeatCount="indefinite" />
      </circle>
      <circle cx="182.239" cy="263.408" r="1.22977" fill="white">
        <animate attributeName="opacity" values="1;0;1" dur="2.3s" repeatCount="indefinite" />
      </circle>
      <circle cx="203.372" cy="278.297" r="1.22977" fill="white">
        <animate attributeName="opacity" values="1;0;1" dur="2.6s" repeatCount="indefinite" />
      </circle>
      <circle cx="205.751" cy="256.941" r="1.22977" fill="white">
        <animate attributeName="opacity" values="1;0;1" dur="2.5s" repeatCount="indefinite" />
      </circle>
      <circle cx="225.465" cy="310.476" r="1.22977" fill="white">
        <animate attributeName="opacity" values="1;0;1" dur="2.9s" repeatCount="indefinite" />
      </circle>
      <path d="M186.705 306.762L186.262 305.565L185.065 305.122L186.262 304.68L186.705 303.483L187.148 304.68L188.345 305.122L187.148 305.565L186.705 306.762Z" fill="#FFF7B0">
        <animate attributeName="opacity" values="1;0;1" dur="2.7s" repeatCount="indefinite" />
      </path>
      <path d="M233.829 280.885L233.054 278.79L230.96 278.015L233.054 277.24L233.829 275.146L234.604 277.24L236.699 278.015L234.604 278.79L233.829 280.885Z" fill="#FFF7B0">
        <animate attributeName="opacity" values="1;0;1" dur="2.2s" repeatCount="indefinite" />
      </path>
      <path d="M220.151 255.525L219.376 253.431L217.282 252.656L219.376 251.881L220.151 249.786L220.926 251.881L223.021 252.656L220.926 253.431L220.151 255.525Z" fill="#FFF7B0">
        <animate attributeName="opacity" values="1;0;1" dur="2.8s" repeatCount="indefinite" />
      </path>
      <path d="M206.479 331.632L205.704 329.538L203.61 328.763L205.704 327.988L206.479 325.893L207.254 327.988L209.349 328.763L207.254 329.538L206.479 331.632Z" fill="#FFF7B0">
        <animate attributeName="opacity" values="1;0;1" dur="2.4s" repeatCount="indefinite" />
      </path>
      <path d="M242.026 311.58L241.251 309.486L239.157 308.711L241.251 307.936L242.026 305.841L242.801 307.936L244.896 308.711L242.801 309.486L242.026 311.58Z" fill="#FFF7B0">
        <animate attributeName="opacity" values="1;0;1" dur="2.1s" repeatCount="indefinite" />
      </path>
      <path d="M251.131 262.178L249.445 257.62L244.887 255.934L249.445 254.248L251.131 249.69L252.818 254.248L257.375 255.934L252.818 257.62L251.131 262.178Z" fill="#FFF7B0">
        <animate attributeName="opacity" values="1;0;1" dur="2.3s" repeatCount="indefinite" />
      </path>
      <path opacity="0.25" d="M192.216 253.432L188.646 243.786L179 240.216L188.646 236.647L192.216 227L195.786 236.647L205.432 240.216L195.786 243.786L192.216 253.432Z" fill="#FFF7B0">
        <animate attributeName="opacity" values="0.25;0;0.25" dur="2.6s" repeatCount="indefinite" />
      </path>
      <path opacity="0.25" d="M206.8 314.956L203.23 305.143L193.584 301.512L203.23 297.881L206.8 288.068L210.37 297.881L220.016 301.512L210.37 305.143L206.8 314.956Z" fill="#FFF7B0">
        <animate attributeName="opacity" values="0.25;0;0.25" dur="2.5s" repeatCount="indefinite" />
      </path>
      <path opacity="0.25" d="M256.702 296.271L253.563 287.789L245.081 284.65L253.563 281.511L256.702 273.029L259.841 281.511L268.323 284.65L259.841 287.789L256.702 296.271Z" fill="#FFF7B0">
        <animate attributeName="opacity" values="0.25;0;0.25" dur="2.1s" repeatCount="indefinite" />
      </path>
    </g>
  </g>
  <path d="M183.503 294.336C191.618 266.598 184.7 244.804 180.36 233.424C180.269 233.185 180.048 233.028 179.792 233.012L166.202 232.191C165.978 232.177 165.764 232.277 165.635 232.461C157.757 243.717 155.934 265.054 164.569 299.825C167.181 310.345 169.548 313.736 182.017 322.767C182.515 323.127 183.119 322.681 182.809 322.15C180.599 318.357 176.2 319.299 183.503 294.336Z" fill="url(#paint14_linear_1393_70787)" stroke="#D1CDC5" stroke-width="1.09091"/>
  <path d="M175.521 280.313C171.604 252.677 176.69 238.553 182.311 228.403C182.435 228.178 182.679 228.05 182.934 228.072L196.019 229.166C196.243 229.185 196.441 229.314 196.541 229.515C202.511 241.373 201.295 262.029 188.225 294.078C184.269 303.777 174.398 319.629 160.693 327.499C160.161 327.805 159.647 327.307 159.987 326.796C164.324 320.271 179.157 305.97 175.521 280.313Z" fill="url(#paint15_linear_1393_70787)" stroke="#D1CDC5" stroke-width="1.09091"/>
  <path d="M187.293 291.196C200.951 257.706 187.1 230.423 177.737 220.447C177.358 220.043 177.598 219.366 178.149 219.306L195.423 217.431C195.617 217.41 195.808 217.474 195.946 217.611C207.591 229.182 213.243 256.779 197.331 295.849C197.311 295.898 197.284 295.946 197.253 295.989C183.345 315.106 168.814 323.988 174.668 317.698C176.918 315.28 184.809 298.187 187.293 291.196Z" fill="url(#paint16_linear_1393_70787)" stroke="#D1CDC5" stroke-width="1.09091"/>
  <path d="M198.421 289.135C212.08 255.645 198.433 228.081 189.084 218.087C188.705 217.682 188.946 217.004 189.497 216.945L206.771 215.07C206.965 215.049 207.156 215.113 207.295 215.25C218.962 226.786 225.905 250.991 209.955 290.1C205.034 302.167 192.385 313.04 184.18 316.049C183.633 316.25 183.187 315.676 183.499 315.184C187.168 309.409 195.567 298.086 198.421 289.135Z" fill="url(#paint17_linear_1393_70787)" stroke="#D1CDC5" stroke-width="1.09091"/>
  <path d="M227.201 259.487C229.175 236.711 221.558 218.771 210.457 213.162C203.274 209.533 196.867 208.152 193.239 207.629C192.536 207.528 192.414 206.537 193.099 206.348C198.326 204.91 209.499 202.937 219.308 208.565C232.646 216.219 239.335 228.358 237.095 254.208C236.431 261.871 230.325 272.846 225.97 276.8C225.538 277.192 224.943 276.793 225.064 276.222C225.926 272.123 227.158 264.936 227.201 259.487Z" fill="url(#paint18_linear_1393_70787)" stroke="#D1CDC5" stroke-width="1.09091"/>
  <path d="M214.505 281.11C221.819 252.788 216.008 228.538 203.187 219.109C194.347 212.608 186.077 209.515 181.795 208.222C181.115 208.016 181.146 207.018 181.851 206.934C188.327 206.158 203.645 205.596 215.329 215.184C230.539 227.666 236.408 244.399 228.107 276.543C225.597 286.264 215.211 299.134 208.908 302.929C208.408 303.23 207.887 302.728 208.102 302.186C210.046 297.281 213.263 288.17 214.505 281.11Z" fill="url(#paint19_linear_1393_70787)" stroke="#D1CDC5" stroke-width="1.09091"/>
  <path d="M170.672 212.457C185.792 211.858 208.391 212.77 216.055 232.008C222.693 248.668 231.641 253.352 237.212 252.119C237.825 251.904 238.423 251.685 239.004 251.462C238.458 251.754 237.857 251.977 237.212 252.119C215.294 259.816 173.972 262.015 170.057 213.175C170.027 212.807 170.303 212.472 170.672 212.457Z" fill="url(#paint20_linear_1393_70787)"/>
  <path d="M216.055 232.008C208.391 212.77 185.792 211.858 170.672 212.457C170.303 212.472 170.027 212.807 170.057 213.175C174.082 263.381 217.635 259.653 239.004 251.462C233.747 254.277 223.462 250.6 216.055 232.008Z" stroke="#D1CDC5" stroke-width="1.09091"/>
  <path d="M179.336 212.457C164.216 211.858 141.617 212.77 133.953 232.008C127.315 248.668 118.367 253.352 112.796 252.119C112.183 251.904 111.585 251.685 111.004 251.462C111.55 251.754 112.15 251.977 112.796 252.119C134.714 259.816 176.036 262.015 179.951 213.175C179.981 212.807 179.705 212.472 179.336 212.457Z" fill="url(#paint21_linear_1393_70787)"/>
  <path d="M133.953 232.008C141.617 212.77 164.216 211.858 179.336 212.457C179.705 212.472 179.981 212.807 179.951 213.175C175.926 263.381 132.373 259.653 111.004 251.462C116.261 254.277 126.546 250.6 133.953 232.008Z" stroke="#D1CDC5" stroke-width="1.09091"/>
  <g filter="url(#filter0_d_1393_70787)">
  <path d="M174.217 235.138C191.973 235.589 201.686 228.722 203.254 221.521C206.052 208.673 184.717 202.636 170.369 203.68C156.021 204.724 147.024 208.975 145.558 215.802C144.092 222.629 156.461 234.687 174.217 235.138Z" fill="#9A765C"/>
  </g>
  </g>
  <defs>
  <filter id="filter0_d_1393_70787" x="143.439" y="203.565" width="62.0645" height="35.5942" filterUnits="userSpaceOnUse" color-interpolation-filters="sRGB">
  <feFlood flood-opacity="0" result="BackgroundImageFix"/>
  <feColorMatrix in="SourceAlpha" type="matrix" values="0 0 0 0 0 0 0 0 0 0 0 0 0 0 0 0 0 0 127 0" result="hardAlpha"/>
  <feOffset dy="2"/>
  <feGaussianBlur stdDeviation="1"/>
  <feComposite in2="hardAlpha" operator="out"/>
  <feColorMatrix type="matrix" values="0 0 0 0 0 0 0 0 0 0 0 0 0 0 0 0 0 0 0.25 0"/>
  <feBlend mode="normal" in2="BackgroundImageFix" result="effect1_dropShadow_1393_70787"/>
  <feBlend mode="normal" in="SourceGraphic" in2="effect1_dropShadow_1393_70787" result="shape"/>
  </filter>
  <linearGradient id="paint0_linear_1393_70787" x1="114.625" y1="55.5901" x2="167.468" y2="144.122" gradientUnits="userSpaceOnUse">
  <stop stop-color="#C59651"/>
  <stop offset="0.536458" stop-color="#E0AE0D" stop-opacity="0.98"/>
  <stop offset="1" stop-color="#FFF27B" stop-opacity="0.98"/>
  </linearGradient>
  <linearGradient id="paint1_linear_1393_70787" x1="85.5682" y1="29.7186" x2="99.1447" y2="43.5331" gradientUnits="userSpaceOnUse">
  <stop stop-color="#F9F0E3"/>
  <stop offset="0.713155" stop-color="white"/>
  <stop offset="1" stop-color="#F1EBE2"/>
  </linearGradient>
  <linearGradient id="paint2_linear_1393_70787" x1="151.892" y1="74.289" x2="185.095" y2="108.362" gradientUnits="userSpaceOnUse">
  <stop stop-color="#F9F0E3"/>
  <stop offset="0.713155" stop-color="white"/>
  <stop offset="1" stop-color="#F1EBE2"/>
  </linearGradient>
  <radialGradient id="paint3_radial_1393_70787" cx="0" cy="0" r="1" gradientUnits="userSpaceOnUse" gradientTransform="translate(124.383 61.7541) rotate(36.0407) scale(76.556 64.5247)">
  <stop offset="0.239583" stop-color="#8846DD"/>
  <stop offset="1" stop-color="#A894F7"/>
  </radialGradient>
  <radialGradient id="paint4_radial_1393_70787" cx="0" cy="0" r="1" gradientUnits="userSpaceOnUse" gradientTransform="translate(125.694 45.9109) rotate(42.5006) scale(88.2934 77.9137)">
  <stop offset="0.239583" stop-color="#8846DD"/>
  <stop offset="1" stop-color="#A894F7"/>
  </radialGradient>
  <radialGradient id="paint5_radial_1393_70787" cx="0" cy="0" r="1" gradientUnits="userSpaceOnUse" gradientTransform="translate(131.835 309.458) rotate(90) scale(28.1223 33.8308)">
  <stop offset="0.453125" stop-color="#564D61"/>
  <stop offset="1" stop-color="#1D1A21"/>
  </radialGradient>
  <radialGradient id="paint6_radial_1393_70787" cx="0" cy="0" r="1" gradientUnits="userSpaceOnUse" gradientTransform="translate(217.833 309.458) rotate(90) scale(28.1223 33.8308)">
  <stop offset="0.453125" stop-color="#564D61"/>
  <stop offset="1" stop-color="#1D1A21"/>
  </radialGradient>
  <linearGradient id="paint7_linear_1393_70787" x1="119.236" y1="227.852" x2="211.977" y2="351.229" gradientUnits="userSpaceOnUse">
  <stop stop-color="#C59651"/>
  <stop offset="0.536458" stop-color="#E0AE0D" stop-opacity="0.98"/>
  <stop offset="1" stop-color="#FFF27B" stop-opacity="0.98"/>
  </linearGradient>
  <linearGradient id="paint8_linear_1393_70787" x1="168.193" y1="227.378" x2="140.864" y2="229.71" gradientUnits="userSpaceOnUse">
  <stop stop-color="#F9F0E3"/>
  <stop offset="0.713155" stop-color="white"/>
  <stop offset="1" stop-color="#F1EBE2"/>
  </linearGradient>
  <linearGradient id="paint9_linear_1393_70787" x1="166.293" y1="214.764" x2="135.33" y2="216.53" gradientUnits="userSpaceOnUse">
  <stop stop-color="#F9F0E3"/>
  <stop offset="0.713155" stop-color="white"/>
  <stop offset="1" stop-color="#F1EBE2"/>
  </linearGradient>
  <linearGradient id="paint10_linear_1393_70787" x1="161.336" y1="213.823" x2="123.123" y2="220.166" gradientUnits="userSpaceOnUse">
  <stop stop-color="#F9F0E3"/>
  <stop offset="0.713155" stop-color="white"/>
  <stop offset="1" stop-color="#F1EBE2"/>
  </linearGradient>
  <linearGradient id="paint11_linear_1393_70787" x1="153.501" y1="202.66" x2="129.369" y2="197.697" gradientUnits="userSpaceOnUse">
  <stop stop-color="#F9F0E3"/>
  <stop offset="0.713155" stop-color="white"/>
  <stop offset="1" stop-color="#F1EBE2"/>
  </linearGradient>
  <linearGradient id="paint12_linear_1393_70787" x1="162.416" y1="202.729" x2="130.914" y2="201.577" gradientUnits="userSpaceOnUse">
  <stop stop-color="#F9F0E3"/>
  <stop offset="0.713155" stop-color="white"/>
  <stop offset="1" stop-color="#F1EBE2"/>
  </linearGradient>
  <radialGradient id="paint13_radial_1393_70787" cx="0" cy="0" r="1" gradientUnits="userSpaceOnUse" gradientTransform="translate(131.418 238.156) rotate(42.5006) scale(107.213 94.6095)">
  <stop offset="0.239583" stop-color="#8846DD"/>
  <stop offset="1" stop-color="#A894F7"/>
  </radialGradient>
  <linearGradient id="paint14_linear_1393_70787" x1="187.718" y1="235.527" x2="159.384" y2="233.862" gradientUnits="userSpaceOnUse">
  <stop stop-color="#F9F0E3"/>
  <stop offset="0.713155" stop-color="white"/>
  <stop offset="1" stop-color="#F1EBE2"/>
  </linearGradient>
  <linearGradient id="paint15_linear_1393_70787" x1="174.991" y1="229.378" x2="202.32" y2="231.71" gradientUnits="userSpaceOnUse">
  <stop stop-color="#F9F0E3"/>
  <stop offset="0.713155" stop-color="white"/>
  <stop offset="1" stop-color="#F1EBE2"/>
  </linearGradient>
  <linearGradient id="paint16_linear_1393_70787" x1="176.891" y1="216.763" x2="207.853" y2="218.53" gradientUnits="userSpaceOnUse">
  <stop stop-color="#F9F0E3"/>
  <stop offset="0.713155" stop-color="white"/>
  <stop offset="1" stop-color="#F1EBE2"/>
  </linearGradient>
  <linearGradient id="paint17_linear_1393_70787" x1="181.849" y1="215.823" x2="220.062" y2="222.166" gradientUnits="userSpaceOnUse">
  <stop stop-color="#F9F0E3"/>
  <stop offset="0.713155" stop-color="white"/>
  <stop offset="1" stop-color="#F1EBE2"/>
  </linearGradient>
  <linearGradient id="paint18_linear_1393_70787" x1="195.681" y1="202.66" x2="219.813" y2="197.697" gradientUnits="userSpaceOnUse">
  <stop stop-color="#F9F0E3"/>
  <stop offset="0.713155" stop-color="white"/>
  <stop offset="1" stop-color="#F1EBE2"/>
  </linearGradient>
  <linearGradient id="paint19_linear_1393_70787" x1="186.766" y1="202.729" x2="218.267" y2="201.577" gradientUnits="userSpaceOnUse">
  <stop stop-color="#F9F0E3"/>
  <stop offset="0.713155" stop-color="white"/>
  <stop offset="1" stop-color="#F1EBE2"/>
  </linearGradient>
  <linearGradient id="paint20_linear_1393_70787" x1="187.661" y1="211.431" x2="215.49" y2="243.029" gradientUnits="userSpaceOnUse">
  <stop stop-color="#F9F0E3"/>
  <stop offset="0.713155" stop-color="white"/>
  <stop offset="1" stop-color="#F1EBE2"/>
  </linearGradient>
  <linearGradient id="paint21_linear_1393_70787" x1="162.347" y1="211.431" x2="134.518" y2="243.029" gradientUnits="userSpaceOnUse">
  <stop stop-color="#F9F0E3"/>
  <stop offset="0.713155" stop-color="white"/>
  <stop offset="1" stop-color="#F1EBE2"/>
  </linearGradient>
  <clipPath id="clip0_1393_70787">
  <rect width="350" height="350" fill="white"/>
  </clipPath>
  <clipPath id="clip1_1393_70787">
  <rect width="350" height="350" fill="white"/>
  </clipPath>
  </defs>
  
    
    </svg>
  