
    <svg width="350" height="350" viewBox="0 0 350 350" fill="none" xmlns="http://www.w3.org/2000/svg">
    
  <!-- Ash BG -->
  <g clip-path="url(#clip0_28_290)">
  <rect x="0.0789795" y="0.0444336" width="350" height="350" fill="black" fill-opacity="0.89"/>
  <rect x="0.0789795" y="0.0444336" width="350" height="350" fill="url(#paint0_radial_28_290)" fill-opacity="0.2"/>
  <path d="M125.979 290.538L299.832 190.751L430.987 233.879L230.789 294.049L125.979 290.538Z" fill="url(#paint1_linear_28_290)"/>
  <g opacity="0.45" filter="url(#filter0_f_28_290)">
  <ellipse rx="194.596" ry="66.7643" transform="matrix(0.999998 0.00221055 0.00221055 -0.999998 176.078 304.637)" fill="url(#paint2_radial_28_290)"/>
  </g>
  <g opacity="0.7" filter="url(#filter1_f_28_290)">
  <ellipse cx="174.396" cy="137.609" rx="196.647" ry="242.448" transform="rotate(0.126655 174.396 137.609)" fill="url(#paint3_radial_28_290)"/>
  </g>
  </g>
  <defs>
  <filter id="filter0_f_28_290" x="-23.0754" y="233.314" width="398.306" height="142.646" filterUnits="userSpaceOnUse" color-interpolation-filters="sRGB">
  <feFlood flood-opacity="0" result="BackgroundImageFix"/>
  <feBlend mode="normal" in="SourceGraphic" in2="BackgroundImageFix" result="shape"/>
  <feGaussianBlur stdDeviation="2.27865" result="effect1_foregroundBlur_28_290"/>
  </filter>
  <filter id="filter1_f_28_290" x="-26.8086" y="-109.396" width="402.41" height="494.01" filterUnits="userSpaceOnUse" color-interpolation-filters="sRGB">
  <feFlood flood-opacity="0" result="BackgroundImageFix"/>
  <feBlend mode="normal" in="SourceGraphic" in2="BackgroundImageFix" result="shape"/>
  <feGaussianBlur stdDeviation="2.27865" result="effect1_foregroundBlur_28_290"/>
  </filter>
  <radialGradient id="paint0_radial_28_290" cx="0" cy="0" r="1" gradientUnits="userSpaceOnUse" gradientTransform="translate(156.622 401.542) rotate(-84.441) scale(239.93 241.682)">
  <stop/>
  <stop offset="1" stop-opacity="0"/>
  </radialGradient>
  <linearGradient id="paint1_linear_28_290" x1="194.836" y1="271.638" x2="316.537" y2="167.936" gradientUnits="userSpaceOnUse">
  <stop/>
  <stop offset="1" stop-color="#333333" stop-opacity="0"/>
  </linearGradient>
  <radialGradient id="paint2_radial_28_290" cx="0" cy="0" r="1" gradientUnits="userSpaceOnUse" gradientTransform="translate(194.596 76.624) rotate(99.1226) scale(43.9775 125.337)">
  <stop stop-color="#737373"/>
  <stop offset="1" stop-color="#9A9A9A" stop-opacity="0"/>
  </radialGradient>
  <radialGradient id="paint3_radial_28_290" cx="0" cy="0" r="1" gradientUnits="userSpaceOnUse" gradientTransform="translate(174.396 173.413) rotate(92.5586) scale(157.837 128.153)">
  <stop stop-color="#737373"/>
  <stop offset="1" stop-color="#9A9A9A" stop-opacity="0"/>
  </radialGradient>
  <clipPath id="clip0_28_290">
  <rect width="350" height="350" fill="white"/>
  </clipPath>
  </defs>
  
    
  <!-- Smoke Overlay -->
  <g clip-path="url(#clip0_589_112918)">
  <g opacity="0.7" filter="url(#filter0_f_589_112918)">
  <g style="mix-blend-mode:overlay" opacity="0.5">
  <path d="M318.703 93.5382C372.228 106.145 243.865 129.196 199.912 130.711L344.837 130.711C388.551 129.058 401.064 121.486 401.856 117.907L401.856 87.7559C389.581 81.9735 364.605 70.5548 286.629 63.3873C183.282 53.8877 58.6433 72.3424 101.316 93.5382C134.577 110.059 245.053 76.1911 318.703 93.5382Z" fill="white" fill-opacity="0.5"/>
  </g>
  <g style="mix-blend-mode:overlay" opacity="0.5">
  <path fill-rule="evenodd" clip-rule="evenodd" d="M150.02 126.167C184.865 123.551 248.854 117.08 226.046 112.124C215.611 109.856 193.715 109.858 167.992 109.859C123.442 109.861 67.4092 109.864 39.5451 98.0813C-5.55154 79.0113 30.0418 48.9311 139.329 36.9534C140.852 36.7864 142.385 36.6186 143.925 36.4498C252.904 24.511 402.894 8.0793 315.139 -7.6534C288.014 -12.5163 257.865 -8.96709 226.688 -5.29685C170.481 1.31996 110.933 8.33014 59.7394 -32.848L-35.293 -32.848C32.4175 -17.153 26.1243 13.4037 -17.4745 20.8454C-67.2825 29.3469 -61.3993 45.9299 -57.1936 57.7845C-55.8826 61.4799 -54.7346 64.7159 -55.4874 67.1043L-55.4874 126.167L150.02 126.167ZM59.7394 32.8231C75.8949 23.9018 134.577 18.9179 161.899 17.5412C184.47 8.04158 129.826 12.1718 121.511 14.65C113.195 17.1281 96.5645 11.3458 91.8129 3.49828C87.0613 -4.34921 46.6725 -3.11014 49.0483 3.49828C51.4241 10.1067 51.4241 17.5412 24.1023 24.9756C-3.21949 32.4101 39.5451 43.9748 59.7394 32.8231Z" fill="white" fill-opacity="0.5"/>
  </g>
  <g style="mix-blend-mode:overlay" opacity="0.5">
  <path d="M305.636 47.2788C255.744 47.2788 258.12 33.2359 305.636 30.3448C351.954 27.5265 397.144 23.1383 398.292 14.5022L398.292 13.8237C398.322 14.0528 398.322 14.2789 398.292 14.5022L398.292 56.7856C379.122 53.0151 341.364 47.2788 305.636 47.2788Z" fill="white" fill-opacity="0.5"/>
  </g>
  </g>
  </g>
  <defs>
  <filter id="filter0_f_589_112918" x="-68.9974" y="-41.9626" width="479.968" height="181.788" filterUnits="userSpaceOnUse" color-interpolation-filters="sRGB">
  <feFlood flood-opacity="0" result="BackgroundImageFix"/>
  <feBlend mode="normal" in="SourceGraphic" in2="BackgroundImageFix" result="shape"/>
  <feGaussianBlur stdDeviation="4.55729" result="effect1_foregroundBlur_589_112918"/>
  </filter>
  <clipPath id="clip0_589_112918">
  <path d="M0 0H350V350H0V0Z" fill="white"/>
  </clipPath>
  </defs>

    
    
  <!-- Glowing Glass -->
    <g filter="url(#filter0_f_953_137978)">
    <path d="M148.717 95L125.019 209.98C124.948 210.324 125.078 210.673 125.367 210.873C128.479 213.027 147.033 225 175 225C202.967 225 221.521 213.027 224.633 210.873C224.922 210.673 225.052 210.324 224.981 209.98L201.283 95C201.249 95.0666 201.205 95.1285 201.15 95.1836C199.818 96.5241 193.18 102.106 175 102.106C156.82 102.106 150.182 96.5241 148.85 95.1836C148.795 95.1285 148.751 95.0666 148.717 95Z" fill="#F41B1B" fill-opacity="0.6"/>
    </g>
    <defs>
    <filter id="filter0_f_953_137978" x="-4" y="-4" width="358" height="358" filterUnits="userSpaceOnUse" color-interpolation-filters="sRGB">
    <feFlood flood-opacity="0" result="BackgroundImageFix"/>
    <feBlend mode="normal" in="SourceGraphic" in2="BackgroundImageFix" result="shape"/>
    <feGaussianBlur stdDeviation="2" result="effect1_foregroundBlur_953_137978"/>
    </filter>
    </defs>
  
    
    
    <!-- Lava 1 -->
    <!-- Color -->
    <!-- filter -->
    <path d="M201.33 94.2312L205.4 114.032C203.808 113.761 202.153 113.448 200.459 113.128C186.293 110.453 169.479 107.277 165.223 123.731C163.365 130.915 166.057 135.213 168.676 139.394C171.205 143.431 173.665 147.359 171.9 153.669C169.751 161.35 158.067 166.325 148.671 162.995C138.746 159.477 139.443 144.904 145.148 137.85C150.853 130.795 151.677 120.031 150.853 112.871C150.454 109.41 148.742 106.935 146.502 105.251L148.841 93.8809C148.875 93.9478 148.92 94.0101 148.975 94.0656C150.853 95.9589 156.979 101.03 175.237 101.03C192.824 101.03 199.656 95.8196 201.33 94.2312Z" fill="url(#paint0_radial_931_113783)"/>
    <mask id="mask0_931_113783" style="mask-type:alpha" maskUnits="userSpaceOnUse" x="141" y="93" width="65" height="72">
    <path d="M201.33 94.2302L205.4 114.031C203.808 113.76 202.153 113.447 200.459 113.127C186.293 110.452 169.479 107.276 165.223 123.73C163.365 130.914 166.057 135.212 168.676 139.393C171.205 143.43 173.665 147.358 171.9 153.668C169.751 161.349 158.067 166.324 148.671 162.994C138.746 159.476 139.443 144.903 145.148 137.849C150.853 130.794 151.677 120.03 150.853 112.87C150.454 109.409 148.742 106.934 146.502 105.25L148.841 93.8799C148.875 93.9469 148.92 94.0092 148.975 94.0646C150.313 95.4133 156.979 101.029 175.237 101.029C192.824 101.029 199.656 95.8187 201.33 94.2302Z" fill="url(#paint1_radial_931_113783)"/>
    </mask>
    <g mask="url(#mask0_931_113783)">
    <g filter="url(#filter0_f_931_113783)">
    <mask id="mask1_931_113783" style="mask-type:alpha" maskUnits="userSpaceOnUse" x="125" y="94" width="101" height="132">
    <path d="M149.015 95.0639C149.102 94.6401 149.475 94.3359 149.907 94.3359H200.399C200.831 94.3359 201.205 94.6401 201.292 95.0639L225.146 211.159C225.227 211.555 225.041 211.955 224.68 212.137C220.777 214.109 198.528 224.817 175.153 225.128C151.731 225.438 129.441 214.178 125.603 212.141C125.253 211.954 125.077 211.562 125.157 211.173L149.015 95.0639Z" fill="#577096" fill-opacity="0.75"/>
    </mask>
    <g mask="url(#mask1_931_113783)">
    <g filter="url(#filter1_f_931_113783)">
    <path d="M207.362 76.1064C211.019 110.268 146.094 132.571 113.174 139.453L113.174 76.1064L207.362 76.1064Z" fill="url(#paint2_linear_931_113783)" fill-opacity="0.5"/>
    </g>
    <g filter="url(#filter2_f_931_113783)">
    <path d="M155.56 125.301C156.622 105.018 134.624 86.1828 129.082 66.9985C133.541 65.1973 144.203 70.7896 152.828 76.1247C163.609 82.7936 163.032 109.124 164.778 125.784C166.175 139.112 148.606 223.401 144.168 241.481L131.869 240.837C140.395 214.68 154.74 140.955 155.56 125.301Z" fill="url(#paint3_linear_931_113783)" fill-opacity="0.6"/>
    </g>
    </g>
    </g>
    </g>
    <defs>
    <filter id="filter0_f_931_113783" x="122.744" y="92.0573" width="104.986" height="135.355" filterUnits="userSpaceOnUse" color-interpolation-filters="sRGB">
    <feFlood flood-opacity="0" result="BackgroundImageFix"/>
    <feBlend mode="normal" in="SourceGraphic" in2="BackgroundImageFix" result="shape"/>
    <feGaussianBlur stdDeviation="1.13932" result="effect1_foregroundBlur_931_113783"/>
    </filter>
    <filter id="filter1_f_931_113783" x="112.262" y="75.195" width="96.1589" height="65.1696" filterUnits="userSpaceOnUse" color-interpolation-filters="sRGB">
    <feFlood flood-opacity="0" result="BackgroundImageFix"/>
    <feBlend mode="normal" in="SourceGraphic" in2="BackgroundImageFix" result="shape"/>
    <feGaussianBlur stdDeviation="0.455729" result="effect1_foregroundBlur_931_113783"/>
    </filter>
    <filter id="filter2_f_931_113783" x="128.17" y="65.7428" width="37.5978" height="176.65" filterUnits="userSpaceOnUse" color-interpolation-filters="sRGB">
    <feFlood flood-opacity="0" result="BackgroundImageFix"/>
    <feBlend mode="normal" in="SourceGraphic" in2="BackgroundImageFix" result="shape"/>
    <feGaussianBlur stdDeviation="0.455729" result="effect1_foregroundBlur_931_113783"/>
    </filter>
    <radialGradient id="paint0_radial_931_113783" cx="0" cy="0" r="1" gradientUnits="userSpaceOnUse" gradientTransform="translate(156.087 109.102) rotate(53.0717) scale(37.8406 40.3077)">
    <stop offset="0.203125" style="stop-color: #5000B6;"/>
    <stop offset="0.890625" style="stop-color: #7E5EFF;"/>
    </radialGradient>
    <radialGradient id="paint1_radial_931_113783" cx="0" cy="0" r="1" gradientUnits="userSpaceOnUse" gradientTransform="translate(156.087 109.101) rotate(53.0717) scale(37.8406 40.3077)">
    <stop offset="0.203125" stop-color="#71FF30"/>
    <stop offset="0.890625" stop-color="#25BC46"/>
    </radialGradient>
    <linearGradient id="paint2_linear_931_113783" x1="145.368" y1="123.01" x2="155.982" y2="72.2914" gradientUnits="userSpaceOnUse">
    <stop stop-color="white" stop-opacity="0"/>
    <stop offset="0.471361" stop-color="white"/>
    <stop offset="1" stop-color="white"/>
    </linearGradient>
    <linearGradient id="paint3_linear_931_113783" x1="160.882" y1="220.938" x2="202.107" y2="178" gradientUnits="userSpaceOnUse">
    <stop stop-color="#F2F2F2"/>
    <stop offset="0.0001" stop-color="#F2F2F2"/>
    <stop offset="0.0520833" stop-color="#F2F2F2" stop-opacity="0.948011"/>
    <stop offset="1" stop-color="#F2F2F2" stop-opacity="0"/>
    </linearGradient>
    </defs>
  
    
  <!-- Lava 2 -->
    <!-- Color -->
<path d="M178.202 131.059C178.202 128.163 180.222 122.394 188.299 122.479C196.377 122.565 198.468 128.235 198.504 131.059C198.576 133.132 197.365 137.622 191.952 138.995C185.184 140.711 178.202 136.85 178.202 131.059Z" fill="url(#paint0_radial_931_113845)"/>
<defs>
<radialGradient id="paint0_radial_931_113845" cx="0" cy="0" r="1" gradientUnits="userSpaceOnUse" gradientTransform="translate(182.959 126.151) rotate(45.5119) scale(10.2292 11.3416)">
<stop offset="0.203125" style="stop-color: #F85449;"/>
<stop offset="0.890625" style="stop-color: #C53434;"/>
</radialGradient>
</defs>
  
    
    
  
    
  <!-- Gold Alien -->
  <path d="M155.246 65.4676C158.774 52.5408 161.62 36 174.783 36C187.947 36 192.558 56.48 194.76 65.7828C196.962 75.0855 202.003 97.6452 202.003 97.6452C202.003 97.6452 196.122 105 175.003 105C153.884 105 148.003 97.6452 148.003 97.6452C148.003 97.6452 151.717 78.3945 155.246 65.4676Z" fill="url(#paint0_linear_1553_82277)"/>
  <mask id="mask0_1553_82277" style="mask-type:alpha" maskUnits="userSpaceOnUse" x="148" y="35" width="54" height="71">
  <path d="M155.662 65.5804C159.116 52.6028 161.902 35.9971 174.789 35.9971C187.675 35.9971 192.19 56.5575 194.345 65.8967C196.331 74.5013 200.677 94.4031 201.348 97.4812C201.406 97.7457 201.338 98.0071 201.149 98.2005C199.766 99.6122 193.098 105.268 175.004 105.268C156.854 105.268 150.201 99.578 148.846 98.1878C148.663 98.0004 148.597 97.7478 148.646 97.4907C149.181 94.684 152.497 77.4684 155.662 65.5804Z" fill="url(#paint1_linear_1553_82277)"/>
  </mask>
  <g mask="url(#mask0_1553_82277)">
  <g style="mix-blend-mode:overlay">
  <circle cx="151.27" cy="57.8972" r="1.21779" fill="white"><animate attributeName="opacity" values="1;0;1" dur="2.1s" repeatCount="indefinite" /></circle>
  <circle cx="154.004" cy="40.5467" r="1.21779" transform="rotate(75 154.004 40.5467)" fill="white"><animate attributeName="opacity" values="1;0;1" dur="2.4s" repeatCount="indefinite" /></circle>
  <circle cx="170.462" cy="70.0999" r="1.21779" transform="rotate(75 170.462 70.0999)" fill="white"><animate attributeName="opacity" values="1;0;1" dur="2.6s" repeatCount="indefinite" /></circle>
  <circle cx="190.239" cy="70.4002" r="1.21779" fill="white"><animate attributeName="opacity" values="1;0;1" dur="2.3s" repeatCount="indefinite" /></circle>
  <path d="M179.135 87.5435L178.367 85.4694L176.293 84.7019L178.367 83.9345L179.135 81.8604L179.902 83.9345L181.976 84.7019L179.902 85.4694L179.135 87.5435Z" fill="#FFF7B0"><animate attributeName="opacity" values="1;0;1" dur="2.1s" repeatCount="indefinite" /></path>
  <path d="M162.381 52.5515L161.614 50.4775L159.54 49.71L161.614 48.9425L162.381 46.8685L163.149 48.9425L165.223 49.71L163.149 50.4775L162.381 52.5515Z" fill="#FFF7B0"><animate attributeName="opacity" values="1;0;1" dur="2.3s" repeatCount="indefinite" /></path>
  <path d="M162.805 97.1904L162.038 95.1164L159.964 94.3489L162.038 93.5815L162.805 91.5074L163.573 93.5815L165.647 94.3489L163.573 95.1164L162.805 97.1904Z" fill="#FFF7B0"><animate attributeName="opacity" values="1;0;1" dur="2.5s" repeatCount="indefinite" /></path>
  <path d="M191.516 94.0005L190.749 91.9264L188.675 91.159L190.749 90.3915L191.516 88.3175L192.284 90.3915L194.358 91.159L192.284 91.9264L191.516 94.0005Z" fill="#FFF7B0"><animate attributeName="opacity" values="1;0;1" dur="2.9s" repeatCount="indefinite" /></path>
  <path d="M178.3 64.8337L177.533 62.7597L175.459 61.9922L177.533 61.2248L178.3 59.1507L179.068 61.2248L181.142 61.9922L179.068 62.7597L178.3 64.8337Z" fill="#FFF7B0"><animate attributeName="opacity" values="1;0;1" dur="2.7s" repeatCount="indefinite" /></path>
  <path opacity="0.25" d="M157.229 82.8486L154.891 76.5285L148.57 74.1898L154.891 71.8511L157.229 65.5309L159.568 71.8511L165.888 74.1898L159.568 76.5285L157.229 82.8486Z" fill="#FFF7B0"><animate attributeName="opacity" values="0.25;0;0.25" dur="2.6s" repeatCount="indefinite" /></path>
  <path opacity="0.25" d="M175.003 114.294L172.665 107.974L166.344 105.635L172.665 103.296L175.003 96.9762L177.342 103.296L183.662 105.635L177.342 107.974L175.003 114.294Z" fill="#FFF7B0"><animate attributeName="opacity" values="0.25;0;0.25" dur="2.3s" repeatCount="indefinite" /></path>
  <path opacity="0.25" d="M144.013 101.533L141.674 95.2133L135.354 92.8746L141.674 90.5359L144.013 84.2157L146.352 90.5359L152.672 92.8746L146.352 95.2133L144.013 101.533Z" fill="#FFF7B0"><animate attributeName="opacity" values="0.25;0;0.25" dur="2.8s" repeatCount="indefinite" /></path>
  <path opacity="0.25" d="M187.308 52.3147L184.969 45.9945L178.649 43.6558L184.969 41.3172L187.308 34.997L189.647 41.3172L195.967 43.6558L189.647 45.9945L187.308 52.3147Z" fill="#FFF7B0"><animate attributeName="opacity" values="0.25;0;0.25" dur="2.1s" repeatCount="indefinite" /></path>
  </g>
  </g>
  <path d="M231.003 314.132L204.53 284H174.805H145.258L119.003 314.132C119.003 314.132 136.812 334 175.003 334C213.194 334 231.003 314.132 231.003 314.132Z" fill="url(#paint2_linear_1553_82277)" shape-rendering="geometricPrecision"/>
  <path d="M124.147 211.218C124.287 210.613 124.979 210.328 125.518 210.635C130.43 213.429 151.372 224.483 175.232 224.483C199.055 224.483 219.619 213.464 224.485 210.649C225.025 210.336 225.721 210.622 225.862 211.23C229.497 226.905 236.148 263.543 224.137 282.351C208.611 306.662 182.963 315 175.003 315C167.043 315 141.394 306.662 125.869 282.351C113.855 263.539 120.512 226.886 124.147 211.218Z" fill="url(#paint3_linear_1553_82277)"/>
  <mask id="mask1_1553_82277" style="mask-type:alpha" maskUnits="userSpaceOnUse" x="119" y="283" width="112" height="51">
  <path d="M229.801 313.118L204.313 283.687C204.139 283.487 203.888 283.372 203.624 283.372H174.527H145.611C145.345 283.372 145.093 283.488 144.92 283.69L119.642 313.118C119.346 313.463 119.344 313.963 119.664 314.287C122.886 317.543 140.62 333.73 174.724 333.73C208.82 333.73 226.554 317.55 229.782 314.289C230.103 313.964 230.1 313.463 229.801 313.118Z" fill="url(#paint4_linear_1553_82277)"/>
  </mask>
  <g mask="url(#mask1_1553_82277)">
  <g style="mix-blend-mode:overlay">
  <circle cx="170.016" cy="323.247" r="1.22977" fill="white"><animate attributeName="opacity" values="1;0;1" dur="2.1s" repeatCount="indefinite" /></circle>
  <circle cx="137.859" cy="304.285" r="1.22977" fill="white"><animate attributeName="opacity" values="1;0;1" dur="2.3s" repeatCount="indefinite" /></circle>
  <circle cx="154.434" cy="314.616" r="1.22977" fill="white"><animate attributeName="opacity" values="1;0;1" dur="2.8s" repeatCount="indefinite" /></circle>
  <circle cx="188.714" cy="320.605" r="1.22977" fill="white"><animate attributeName="opacity" values="1;0;1" dur="2.5s" repeatCount="indefinite" /></circle>
  <path d="M125.646 312.647L124.871 310.553L122.777 309.778L124.871 309.003L125.646 306.908L126.421 309.003L128.516 309.778L126.421 310.553L125.646 312.647Z" fill="#FFF7B0"><animate attributeName="opacity" values="1;0;1" dur="2.9s" repeatCount="indefinite" /></path>
  <path d="M139.312 319.189L138.537 317.095L136.442 316.32L138.537 315.545L139.312 313.45L140.087 315.545L142.181 316.32L140.087 317.095L139.312 319.189Z" fill="#FFF7B0"><animate attributeName="opacity" values="1;0;1" dur="2.4s" repeatCount="indefinite" /></path>
  <path d="M184.885 335.595L184.11 333.501L182.016 332.726L184.11 331.951L184.885 329.857L185.66 331.951L187.755 332.726L185.66 333.501L184.885 335.595Z" fill="#FFF7B0"><animate attributeName="opacity" values="1;0;1" dur="2.3s" repeatCount="indefinite" /></path>
  <path d="M222.245 312.17L220.559 307.612L216.002 305.926L220.559 304.24L222.245 299.682L223.932 304.24L228.489 305.926L223.932 307.612L222.245 312.17Z" fill="#FFF7B0"><animate attributeName="opacity" values="1;0;1" dur="2.2s" repeatCount="indefinite" /></path>
  <path opacity="0.25" d="M143.278 289.752L139.709 280.106L130.062 276.536L139.709 272.967L143.278 263.32L146.848 272.967L156.495 276.536L146.848 280.106L143.278 289.752Z" fill="#FFF7B0"><animate attributeName="opacity" values="0.25;0;0.25" dur="2.7s" repeatCount="indefinite" /></path>
  <path opacity="0.25" d="M157.862 351.276L154.292 341.463L144.646 337.832L154.292 334.201L157.862 324.388L161.432 334.201L171.078 337.832L161.432 341.463L157.862 351.276Z" fill="#FFF7B0"><animate attributeName="opacity" values="0.25;0;0.25" dur="2.1s" repeatCount="indefinite" /></path>
  <path opacity="0.25" d="M207.764 332.591L204.625 324.108L196.143 320.97L204.625 317.831L207.764 309.349L210.902 317.831L219.385 320.97L210.902 324.108L207.764 332.591Z" fill="#FFF7B0"><animate attributeName="opacity" values="0.25;0;0.25" dur="2.8s" repeatCount="indefinite" /></path>
  </g>
  </g>
  <mask id="mask2_1553_82277" style="mask-type:alpha" maskUnits="userSpaceOnUse" x="119" y="210" width="112" height="106">
  <path d="M124.795 210.088C124.795 210.088 148.115 224.672 175.231 224.672C202.347 224.672 225.211 210.088 225.211 210.088C228.734 225.093 236.034 263.489 223.786 282.941C208.371 307.422 182.906 315.818 175.003 315.818C167.1 315.818 141.635 307.422 126.221 282.941C113.972 263.489 121.272 225.093 124.795 210.088Z" fill="#6DF244"/>
  <path d="M124.795 210.088C124.795 210.088 148.115 224.672 175.231 224.672C202.347 224.672 225.211 210.088 225.211 210.088C228.734 225.093 236.034 263.489 223.786 282.941C208.371 307.422 182.906 315.818 175.003 315.818C167.1 315.818 141.635 307.422 126.221 282.941C113.972 263.489 121.272 225.093 124.795 210.088Z" fill="url(#paint5_linear_1553_82277)" fill-opacity="0.8"/>
  </mask>
  <g mask="url(#mask2_1553_82277)">
  <g style="mix-blend-mode:overlay">
  <circle cx="141.129" cy="301.917" r="1.22977" fill="white"><animate attributeName="opacity" values="1;0;1" dur="2.4s" repeatCount="indefinite" /></circle>
  <circle cx="131.757" cy="246.496" r="1.22977" fill="white"><animate attributeName="opacity" values="1;0;1" dur="2.6s" repeatCount="indefinite" /></circle>
  <circle cx="152.89" cy="261.385" r="1.22977" fill="white"><animate attributeName="opacity" values="1;0;1" dur="2.8s" repeatCount="indefinite" /></circle>
  <circle cx="155.27" cy="240.029" r="1.22977" fill="white"><animate attributeName="opacity" values="1;0;1" dur="2.1s" repeatCount="indefinite" /></circle>
  <circle cx="163.928" cy="308.388" r="1.22977" fill="white"><animate attributeName="opacity" values="1;0;1" dur="2.3s" repeatCount="indefinite" /></circle>
  <circle cx="209.565" cy="293.564" r="1.22977" fill="white"><animate attributeName="opacity" values="1;0;1" dur="2.8s" repeatCount="indefinite" /></circle>
  <path d="M134.715 289.93L134.272 288.733L133.076 288.29L134.272 287.848L134.715 286.651L135.158 287.848L136.355 288.29L135.158 288.733L134.715 289.93Z" fill="#FFF7B0"><animate attributeName="opacity" values="1;0;1" dur="2.3s" repeatCount="indefinite" /></path>
  <path d="M121.043 260.308L120.601 259.111L119.404 258.668L120.601 258.225L121.043 257.028L121.486 258.225L122.683 258.668L121.486 259.111L121.043 260.308Z" fill="#FFF7B0"><animate attributeName="opacity" values="1;0;1" dur="2.5s" repeatCount="indefinite" /></path>
  <path d="M220.849 228.407L220.406 227.21L219.209 226.767L220.406 226.324L220.849 225.127L221.291 226.324L222.488 226.767L221.291 227.21L220.849 228.407Z" fill="#FFF7B0"><animate attributeName="opacity" values="1;0;1" dur="2.1s" repeatCount="indefinite" /></path>
  <path d="M229.052 253.472L228.609 252.275L227.412 251.832L228.609 251.389L229.052 250.193L229.495 251.389L230.691 251.832L229.495 252.275L229.052 253.472Z" fill="#FFF7B0"><animate attributeName="opacity" values="1;0;1" dur="2.6s" repeatCount="indefinite" /></path>
  <path d="M183.347 263.973L182.572 261.878L180.477 261.103L182.572 260.328L183.347 258.234L184.122 260.328L186.216 261.103L184.122 261.878L183.347 263.973Z" fill="#FFF7B0"><animate attributeName="opacity" values="1;0;1" dur="2.4s" repeatCount="indefinite" /></path>
  <path d="M169.67 238.614L168.895 236.519L166.801 235.744L168.895 234.969L169.67 232.875L170.445 234.969L172.54 235.744L170.445 236.519L169.67 238.614Z" fill="#FFF7B0"><animate attributeName="opacity" values="1;0;1" dur="2.8s" repeatCount="indefinite" /></path>
  <path d="M155.998 314.72L155.223 312.626L153.128 311.851L155.223 311.076L155.998 308.982L156.773 311.076L158.867 311.851L156.773 312.626L155.998 314.72Z" fill="#FFF7B0"><animate attributeName="opacity" values="1;0;1" dur="2.9s" repeatCount="indefinite" /></path>
  <path d="M192.912 306.517L192.137 304.423L190.043 303.648L192.137 302.873L192.912 300.778L193.687 302.873L195.782 303.648L193.687 304.423L192.912 306.517Z" fill="#FFF7B0"><animate attributeName="opacity" values="1;0;1" dur="2s" repeatCount="indefinite" /></path>
  <path d="M200.65 245.266L198.963 240.709L194.406 239.022L198.963 237.336L200.65 232.779L202.336 237.336L206.894 239.022L202.336 240.709L200.65 245.266Z" fill="#FFF7B0"><animate attributeName="opacity" values="1;0;1" dur="2.8s" repeatCount="indefinite" /></path>
  <path opacity="0.25" d="M141.735 236.521L138.165 226.874L128.518 223.305L138.165 219.735L141.735 210.088L145.304 219.735L154.951 223.305L145.304 226.874L141.735 236.521Z" fill="#FFF7B0"><animate attributeName="opacity" values="0.25;0;0.25" dur="2s" repeatCount="indefinite" /></path>
  <path opacity="0.25" d="M159.508 277.536L155.938 267.723L146.292 264.092L155.938 260.461L159.508 250.648L163.078 260.461L172.724 264.092L163.078 267.723L159.508 277.536Z" fill="#FFF7B0"><animate attributeName="opacity" values="0.25;0;0.25" dur="2.4s" repeatCount="indefinite" /></path>
  <path opacity="0.25" d="M206.22 279.359L203.081 270.877L194.599 267.738L203.081 264.6L206.22 256.117L209.359 264.6L217.841 267.738L209.359 270.877L206.22 279.359Z" fill="#FFF7B0"><animate attributeName="opacity" values="0.25;0;0.25" dur="2.9s" repeatCount="indefinite" /></path>
  </g>
  </g>
  <path d="M131.895 277.2C123.075 262.648 124.113 251.271 129.301 246.508C138.558 238.011 153.685 252.858 159.651 265.294C165.617 277.729 166.395 287.254 161.467 291.752C156.538 296.25 140.715 291.752 131.895 277.2Z" stroke="url(#paint6_linear_1553_82277)" stroke-width="1.8229"/>
  <path fill-rule="evenodd" clip-rule="evenodd" d="M176.147 302.935C173.138 303.034 167.604 302.259 163.786 298.409H175.232H177.063H188.509C184.691 302.259 179.157 303.034 176.147 302.935Z" fill="#E0AE0D"/>
  <path d="M219.638 276.266C227.638 263.316 226.696 253.191 221.991 248.953C213.595 241.391 199.875 254.604 194.464 265.67C189.053 276.737 188.347 285.213 192.817 289.216C197.287 293.218 211.639 289.216 219.638 276.266Z" fill="#070707" stroke="#070707" stroke-width="0.455725"/>
  <path d="M219.867 277.2C228.789 262.648 227.739 251.271 222.491 246.508C213.126 238.011 197.824 252.858 191.788 265.294C185.752 277.729 184.965 287.254 189.951 291.752C194.937 296.25 210.944 291.752 219.867 277.2Z" stroke="url(#paint7_linear_1553_82277)" stroke-width="1.8229"/>
  <path d="M220.782 277.2C229.705 262.648 228.655 251.271 223.406 246.508C214.042 238.011 198.739 252.858 192.703 265.294C186.668 277.729 185.88 287.254 190.866 291.752C195.852 296.25 211.86 291.752 220.782 277.2Z" stroke="url(#paint8_linear_1553_82277)" stroke-width="1.8229"/>
  <path d="M221.947 255.888C221.142 252.257 219.232 250.665 217.665 250.747C214.868 250.892 214.7 255.561 215.641 258.417C216.583 261.273 217.916 262.864 219.401 262.783C220.885 262.701 222.751 259.519 221.947 255.888Z" fill="url(#paint9_radial_1553_82277)"/>
  <path fill-rule="evenodd" clip-rule="evenodd" d="M176.148 291.651C174.683 291.473 171.167 291.759 168.823 294.329H176.148H183.473C181.129 291.759 177.613 291.473 176.148 291.651Z" fill="#E0AE0D"/>
  <path d="M133.039 276.266C125.142 263.316 126.071 253.191 130.716 248.953C139.005 241.391 152.548 254.604 157.89 265.67C163.232 276.737 163.929 285.213 159.516 289.216C155.103 293.218 140.936 289.216 133.039 276.266Z" fill="#070707" stroke="#070707" stroke-width="0.455725"/>
  <path d="M130.501 255.888C131.305 252.257 133.216 250.665 134.783 250.747C137.579 250.892 137.747 255.561 136.806 258.417C135.865 261.273 134.531 262.864 133.047 262.783C131.562 262.701 129.696 259.519 130.501 255.888Z" fill="url(#paint10_radial_1553_82277)"/>
  <path d="M131.895 277.2C123.075 262.648 124.113 251.271 129.301 246.508C138.558 238.011 153.685 252.858 159.651 265.294C165.617 277.729 166.395 287.254 161.467 291.752C156.538 296.25 140.715 291.752 131.895 277.2Z" stroke="url(#paint11_linear_1553_82277)" stroke-width="1.8229"/>
  <path fill-rule="evenodd" clip-rule="evenodd" d="M177.406 225.999L177.304 225.999C177.89 225.998 178.473 225.991 179.05 225.98C178.504 225.992 177.956 225.999 177.406 225.999Z" fill="#161A70" fill-opacity="0.1"/>
  <path fill-rule="evenodd" clip-rule="evenodd" d="M231.003 314C231.003 314 213.503 334 174.999 334V36C187.167 36 192.18 55.6281 194.293 65.0593L194.4 65.5391C196.248 73.7729 200.678 92.4777 201.512 96.4079C201.565 96.656 201.559 96.905 201.492 97.1335L225.003 210C225.049 210.228 225.118 210.313 225.003 210.5C225.199 210.377 225.581 210.234 226.003 211.5C226.425 212.766 237.503 256.5 225.122 281C221.921 286.227 217.837 291.181 214.003 295L231.003 314ZM177.406 225.999L177.304 225.999C177.89 225.998 178.473 225.991 179.05 225.98C178.504 225.992 177.956 225.999 177.406 225.999Z" fill="#161A70" fill-opacity="0.1"/>
  <defs>
  <linearGradient id="paint0_linear_1553_82277" x1="155.612" y1="47.316" x2="210.537" y2="92.4783" gradientUnits="userSpaceOnUse">
  <stop stop-color="#C59651"/>
  <stop offset="0.536458" stop-color="#E0AE0D"/>
  <stop offset="1" stop-color="#FFF27B"/>
  </linearGradient>
  <linearGradient id="paint1_linear_1553_82277" x1="156.371" y1="43.4616" x2="185.49" y2="103.437" gradientUnits="userSpaceOnUse">
  <stop offset="0.00712166" stop-color="#6A9EE2"/>
  <stop offset="0.282888" stop-color="#4883C2" stop-opacity="0.98"/>
  <stop offset="0.635608" stop-color="#9CCBF4" stop-opacity="0.98"/>
  <stop offset="1" stop-color="#E8F3FC" stop-opacity="0.98"/>
  </linearGradient>
  <linearGradient id="paint2_linear_1553_82277" x1="134.785" y1="292.2" x2="163.985" y2="360.923" gradientUnits="userSpaceOnUse">
  <stop stop-color="#C59651"/>
  <stop offset="0.536458" stop-color="#E0AE0D" stop-opacity="0.98"/>
  <stop offset="1" stop-color="#FFF27B" stop-opacity="0.98"/>
  </linearGradient>
  <linearGradient id="paint3_linear_1553_82277" x1="175.003" y1="202.306" x2="154.934" y2="315.983" gradientUnits="userSpaceOnUse">
  <stop stop-color="#C59651"/>
  <stop offset="0.366795" stop-color="#FFC300" stop-opacity="0.98"/>
  <stop offset="1" stop-color="#FFF27B" stop-opacity="0.98"/>
  </linearGradient>
  <linearGradient id="paint4_linear_1553_82277" x1="135.531" y1="288.799" x2="144.324" y2="341.202" gradientUnits="userSpaceOnUse">
  <stop offset="0.00712166" stop-color="#6A9EE2"/>
  <stop offset="0.282888" stop-color="#4883C2" stop-opacity="0.98"/>
  <stop offset="0.635608" stop-color="#9CCBF4" stop-opacity="0.98"/>
  <stop offset="1" stop-color="#E8F3FC" stop-opacity="0.98"/>
  </linearGradient>
  <linearGradient id="paint5_linear_1553_82277" x1="175.003" y1="293.487" x2="175.003" y2="226.95" gradientUnits="userSpaceOnUse">
  <stop offset="0.527397" stop-color="#6DF244"/>
  <stop offset="1" stop-color="#388E1D"/>
  </linearGradient>
  <linearGradient id="paint6_linear_1553_82277" x1="145.015" y1="244.004" x2="145.015" y2="293.422" gradientUnits="userSpaceOnUse">
  <stop stop-color="#E0AE0D"/>
  <stop offset="0.40625" stop-color="#E0AE0D" stop-opacity="0"/>
  </linearGradient>
  <linearGradient id="paint7_linear_1553_82277" x1="206.594" y1="244.004" x2="206.594" y2="293.422" gradientUnits="userSpaceOnUse">
  <stop stop-color="#E0AE0D"/>
  <stop offset="0.40625" stop-color="#E0AE0D" stop-opacity="0"/>
  </linearGradient>
  <linearGradient id="paint8_linear_1553_82277" x1="207.509" y1="244.004" x2="207.509" y2="293.422" gradientUnits="userSpaceOnUse">
  <stop offset="0.541667" stop-color="#E0AE0D" stop-opacity="0"/>
  <stop offset="1" stop-color="#E0AE0D"/>
  </linearGradient>
  <radialGradient id="paint9_radial_1553_82277" cx="0" cy="0" r="1" gradientUnits="userSpaceOnUse" gradientTransform="translate(218.528 256.642) rotate(78.9197) scale(5.65729 4.65726)">
  <stop stop-color="white" stop-opacity="0.75"/>
  <stop offset="1" stop-color="white" stop-opacity="0"/>
  <stop offset="1" stop-color="white"/>
  </radialGradient>
  <radialGradient id="paint10_radial_1553_82277" cx="0" cy="0" r="1" gradientUnits="userSpaceOnUse" gradientTransform="translate(133.919 256.642) rotate(101.08) scale(5.65729 4.65726)">
  <stop stop-color="white" stop-opacity="0.75"/>
  <stop offset="1" stop-color="white" stop-opacity="0"/>
  <stop offset="1" stop-color="white"/>
  </radialGradient>
  <linearGradient id="paint11_linear_1553_82277" x1="145.015" y1="244.004" x2="145.015" y2="293.422" gradientUnits="userSpaceOnUse">
  <stop offset="0.671875" stop-color="#E0AE0D" stop-opacity="0"/>
  <stop offset="1" stop-color="#E0AE0D"/>
  </linearGradient>
  </defs>
  
    
  <!-- Glasses -->
  <path fill-rule="evenodd" clip-rule="evenodd" d="M160.473 239.201C165.107 232.038 169.809 224.771 175 224.616C180.191 224.771 184.893 232.038 189.527 239.201C190.257 240.33 190.986 241.456 191.714 242.551C196.216 249.319 203.87 253.606 210.623 254.734C217.377 255.862 226.156 253.381 230.883 247.627C235.61 241.874 237.299 233.075 237.636 231.044C237.874 229.616 238.999 229.478 239.726 229.389C239.826 229.377 239.918 229.365 240 229.352V222.583C236.652 221.912 236.609 221.832 235.56 219.901C235.022 218.91 234.22 217.432 232.571 215.138C227.709 208.369 220.416 206 216.364 206H133.636C129.584 206 122.291 208.369 117.429 215.138C115.78 217.432 114.978 218.91 114.44 219.901C113.391 221.832 113.348 221.912 110 222.583V229.352C110.082 229.365 110.174 229.377 110.274 229.389C111.001 229.478 112.126 229.616 112.364 231.044C112.701 233.075 114.39 241.874 119.117 247.627C123.844 253.381 132.623 255.862 139.377 254.734C146.13 253.606 153.784 249.319 158.286 242.551C159.014 241.456 159.743 240.33 160.473 239.201ZM165.714 212.769H127.447C126.807 213.27 126.1 213.959 125.371 214.799H165.714V212.769ZM165.714 217.507V220.214H121.704C122.217 219.252 122.763 218.344 123.322 217.507H165.714ZM164.571 223.598C164.2 224.43 163.763 225.34 163.263 226.306H119.252C119.504 225.384 119.807 224.479 120.149 223.598H164.571ZM161.772 229.013C161.258 229.896 160.7 230.803 160.103 231.721H118.444C118.458 230.817 118.538 229.912 118.674 229.013H161.772ZM157.735 235.105C157.047 236.019 156.322 236.926 155.563 237.813H119.506C119.154 236.927 118.897 236.022 118.724 235.105H157.735ZM153.056 240.52C152.095 241.477 151.09 242.387 150.044 243.228H123.256C122.336 242.369 121.567 241.463 120.933 240.52H153.056ZM144.795 246.612C139.829 249.035 134.224 249.589 128.233 246.612H144.795ZM184.286 212.769H222.553C223.193 213.27 223.9 213.959 224.629 214.799H184.286V212.769ZM184.286 217.507V220.214H228.296C227.783 219.252 227.237 218.344 226.678 217.507H184.286ZM185.429 223.598C185.8 224.43 186.237 225.34 186.737 226.306H230.748C230.496 225.384 230.193 224.479 229.851 223.598H185.429ZM188.228 229.013C188.742 229.896 189.3 230.803 189.897 231.721H231.556C231.542 230.817 231.462 229.912 231.326 229.013H188.228ZM192.265 235.105C192.953 236.019 193.678 236.926 194.437 237.813H230.494C230.846 236.927 231.103 236.022 231.276 235.105H192.265ZM196.944 240.52C197.905 241.477 198.91 242.387 199.956 243.228H226.744C227.664 242.369 228.433 241.463 229.067 240.52H196.944ZM205.205 246.612C210.171 249.035 215.776 249.589 221.767 246.612H205.205Z" fill="url(#paint0_linear_1369_76011)"/>
  <path d="M113.5 230L110.394 221.606L102 218.5L110.394 215.394L113.5 207L116.606 215.394L125 218.5L116.606 221.606L113.5 230Z" fill="white" fill-opacity="0.75"><animate attributeName="opacity" values="0.75;0;0.75" dur="2s" repeatCount="indefinite" /></path>
  <path d="M236.5 246L233.394 237.606L225 234.5L233.394 231.394L236.5 223L239.606 231.394L248 234.5L239.606 237.606L236.5 246Z" fill="white" fill-opacity="0.75"><animate attributeName="opacity" values="0.75;0;0.75" dur="2.1s" repeatCount="indefinite" /></path>
  <path d="M188.5 235L186.474 229.526L181 227.5L186.474 225.474L188.5 220L190.526 225.474L196 227.5L190.526 229.526L188.5 235Z" fill="white" fill-opacity="0.75"><animate attributeName="opacity" values="0.75;0;0.75" dur="2.4s" repeatCount="indefinite" /></path>
  <path d="M167.5 214L165.474 208.526L160 206.5L165.474 204.474L167.5 199L169.526 204.474L175 206.5L169.526 208.526L167.5 214Z" fill="white" fill-opacity="0.75"><animate attributeName="opacity" values="0.75;0;0.75" dur="2.3s" repeatCount="indefinite" /></path>
  <defs>
  <linearGradient id="paint0_linear_1369_76011" x1="122" y1="213.5" x2="240" y2="251.5" gradientUnits="userSpaceOnUse">
  <stop stop-color="#FFF275"/>
  <stop offset="0.317555" stop-color="#F6CD2F"/>
  <stop offset="0.735122" stop-color="#F1BC00"/>
  <stop offset="1" stop-color="#FFF275"/>
  </linearGradient>
  </defs>
    
    </svg>
  