
    <svg width="350" height="350" viewBox="0 0 350 350" fill="none" xmlns="http://www.w3.org/2000/svg">
    
  <!-- CottonCandy BG -->
  <g clip-path="url(#clip0_28_276)">
  <rect width="350" height="350" fill="white"/>
  <rect x="0.0788574" y="0.0444336" width="350" height="350" fill="#2183F7" fill-opacity="0.25"/>
  <path d="M125.979 290.538L299.832 190.751L430.987 233.879L212.56 294.049L125.979 290.538Z" fill="url(#paint0_linear_28_276)" fill-opacity="0.1"/>
  <g opacity="0.45" filter="url(#filter0_f_28_276)">
  <ellipse rx="194.596" ry="66.7643" transform="matrix(0.999998 0.00221055 0.00221055 -0.999998 176.078 304.638)" fill="url(#paint1_radial_28_276)"/>
  </g>
  <g opacity="0.7" filter="url(#filter1_f_28_276)">
  <ellipse cx="174.396" cy="137.609" rx="196.647" ry="242.448" transform="rotate(0.126655 174.396 137.609)" fill="url(#paint2_radial_28_276)"/>
  </g>
  </g>
  <defs>
  <filter id="filter0_f_28_276" x="-23.0756" y="233.315" width="398.306" height="142.646" filterUnits="userSpaceOnUse" color-interpolation-filters="sRGB">
  <feFlood flood-opacity="0" result="BackgroundImageFix"/>
  <feBlend mode="normal" in="SourceGraphic" in2="BackgroundImageFix" result="shape"/>
  <feGaussianBlur stdDeviation="2.27865" result="effect1_foregroundBlur_28_276"/>
  </filter>
  <filter id="filter1_f_28_276" x="-26.8085" y="-109.396" width="402.409" height="494.01" filterUnits="userSpaceOnUse" color-interpolation-filters="sRGB">
  <feFlood flood-opacity="0" result="BackgroundImageFix"/>
  <feBlend mode="normal" in="SourceGraphic" in2="BackgroundImageFix" result="shape"/>
  <feGaussianBlur stdDeviation="2.27865" result="effect1_foregroundBlur_28_276"/>
  </filter>
  <linearGradient id="paint0_linear_28_276" x1="194.836" y1="271.638" x2="316.537" y2="167.936" gradientUnits="userSpaceOnUse">
  <stop/>
  <stop offset="1" stop-color="#333333" stop-opacity="0"/>
  </linearGradient>
  <radialGradient id="paint1_radial_28_276" cx="0" cy="0" r="1" gradientUnits="userSpaceOnUse" gradientTransform="translate(194.596 76.624) rotate(99.1226) scale(43.9775 125.337)">
  <stop stop-color="#2183F7"/>
  <stop offset="1" stop-color="#2183F7" stop-opacity="0"/>
  </radialGradient>
  <radialGradient id="paint2_radial_28_276" cx="0" cy="0" r="1" gradientUnits="userSpaceOnUse" gradientTransform="translate(174.396 173.413) rotate(92.5586) scale(157.837 128.153)">
  <stop stop-color="#2183F7"/>
  <stop offset="1" stop-color="#2183F7" stop-opacity="0"/>
  </radialGradient>
  <clipPath id="clip0_28_276">
  <rect width="350" height="350" fill="white"/>
  </clipPath>
  </defs>

    
  <!-- YinYang Overlay -->
  <g clip-path="url(#clip0_589_123547)">
  <g style="mix-blend-mode:overlay">
  <path fill-rule="evenodd" clip-rule="evenodd" d="M78.8411 117.851C113.323 117.851 141.276 89.8984 141.276 55.4166C141.276 20.9347 113.323 -7.01834 78.8411 -7.01834C44.3593 -7.01834 16.4062 20.9347 16.4062 55.4166C16.4062 89.8984 44.3593 117.851 78.8411 117.851ZM78.8411 -0.0293641C79.6131 -0.0293641 80.3813 -0.0135894 81.1455 0.0176539C116.331 3.89748 114.168 54.4846 79.0743 54.4846C79.0411 54.4846 79.0081 54.4886 78.9751 54.4966C78.6985 54.4887 78.4208 54.4847 78.1423 54.4847C62.3166 54.4847 49.4874 67.3139 49.4874 83.1395C49.4874 95.1042 56.8204 105.356 67.2372 109.646C42.1859 104.312 23.3952 82.0586 23.3952 55.4166C23.3952 24.7946 48.2192 -0.0293641 78.8411 -0.0293641ZM78.1423 90.8274C82.3881 90.8274 85.8301 87.3854 85.8301 83.1395C85.8301 78.8936 82.3881 75.4516 78.1423 75.4516C73.8963 75.4516 70.4544 78.8936 70.4544 83.1395C70.4544 87.3854 73.8963 90.8274 78.1423 90.8274Z" fill="white" fill-opacity="0.25"/>
  <path d="M85.8301 27.6936C85.8301 31.9395 82.3881 35.3815 78.1423 35.3815C73.8964 35.3815 70.4544 31.9395 70.4544 27.6936C70.4544 23.4477 73.8964 20.0057 78.1423 20.0057C82.3881 20.0057 85.8301 23.4477 85.8301 27.6936Z" fill="white" fill-opacity="0.25"/>
  </g>
  <g style="mix-blend-mode:overlay">
  <path fill-rule="evenodd" clip-rule="evenodd" d="M91.8296 270.521C113.349 270.521 130.794 253.076 130.794 231.556C130.794 210.036 113.349 192.591 91.8296 192.591C70.3099 192.591 52.8647 210.036 52.8647 231.556C52.8647 253.076 70.3099 270.521 91.8296 270.521ZM91.8296 196.953C92.3113 196.953 92.7908 196.963 93.2677 196.982C115.226 199.403 113.877 230.974 91.9751 230.974C91.9544 230.974 91.9338 230.977 91.9132 230.982C91.7405 230.977 91.5673 230.974 91.3934 230.974C81.5168 230.974 73.5103 238.981 73.5103 248.857C73.5103 256.324 78.0867 262.723 84.5877 265.4C68.9535 262.071 57.2265 248.183 57.2265 231.556C57.2265 212.445 72.7188 196.953 91.8296 196.953ZM91.3934 253.655C94.0432 253.655 96.1913 251.507 96.1913 248.857C96.1913 246.208 94.0432 244.06 91.3934 244.06C88.7436 244.06 86.5955 246.208 86.5955 248.857C86.5955 251.507 88.7436 253.655 91.3934 253.655Z" fill="white" fill-opacity="0.25"/>
  <path d="M96.1913 214.254C96.1913 216.904 94.0432 219.052 91.3934 219.052C88.7436 219.052 86.5955 216.904 86.5955 214.254C86.5955 211.605 88.7436 209.456 91.3934 209.456C94.0432 209.456 96.1913 211.605 96.1913 214.254Z" fill="white" fill-opacity="0.25"/>
  </g>
  <g style="mix-blend-mode:overlay">
  <path fill-rule="evenodd" clip-rule="evenodd" d="M255.436 366.68C276.956 366.68 294.401 349.235 294.401 327.715C294.401 306.195 276.956 288.75 255.436 288.75C233.916 288.75 216.471 306.195 216.471 327.715C216.471 349.235 233.916 366.68 255.436 366.68ZM255.436 293.112C255.918 293.112 256.397 293.122 256.874 293.141C278.833 295.562 277.483 327.133 255.582 327.133C255.561 327.133 255.54 327.136 255.52 327.141C255.347 327.136 255.174 327.133 255 327.133C245.123 327.133 237.117 335.14 237.117 345.016C237.117 352.483 241.693 358.882 248.194 361.559C232.56 358.23 220.833 344.342 220.833 327.715C220.833 308.604 236.325 293.112 255.436 293.112ZM255 349.814C257.65 349.814 259.798 347.666 259.798 345.016C259.798 342.367 257.65 340.219 255 340.219C252.35 340.219 250.202 342.367 250.202 345.016C250.202 347.666 252.35 349.814 255 349.814Z" fill="white" fill-opacity="0.25"/>
  <path d="M259.798 310.413C259.798 313.063 257.65 315.211 255 315.211C252.35 315.211 250.202 313.063 250.202 310.413C250.202 307.764 252.35 305.615 255 305.615C257.65 305.615 259.798 307.764 259.798 310.413Z" fill="white" fill-opacity="0.25"/>
  </g>
  <g style="mix-blend-mode:overlay">
  <path fill-rule="evenodd" clip-rule="evenodd" d="M236.751 43.1119C258.271 43.1119 275.716 25.6668 275.716 4.1471C275.716 -17.3726 258.271 -34.8177 236.751 -34.8177C215.232 -34.8177 197.787 -17.3726 197.787 4.1471C197.787 25.6668 215.232 43.1119 236.751 43.1119ZM236.751 -30.456C237.233 -30.456 237.713 -30.4462 238.19 -30.4267C260.148 -28.0053 258.799 3.5655 236.897 3.5655C236.876 3.5655 236.856 3.568 236.835 3.57295C236.662 3.56802 236.489 3.56554 236.315 3.56554C226.439 3.56554 218.432 11.5721 218.432 21.4487C218.432 28.9156 223.009 35.3138 229.51 37.9912C213.875 34.6621 202.148 20.7741 202.148 4.1471C202.148 -14.9637 217.641 -30.456 236.751 -30.456ZM236.315 26.2466C238.965 26.2466 241.113 24.0985 241.113 21.4487C241.113 18.7988 238.965 16.6507 236.315 16.6507C233.665 16.6507 231.517 18.7988 231.517 21.4487C231.517 24.0985 233.665 26.2466 236.315 26.2466Z" fill="white" fill-opacity="0.25"/>
  <path d="M241.113 -13.1545C241.113 -10.5046 238.965 -8.35654 236.315 -8.35654C233.665 -8.35654 231.517 -10.5046 231.517 -13.1545C231.517 -15.8043 233.665 -17.9524 236.315 -17.9524C238.965 -17.9524 241.113 -15.8043 241.113 -13.1545Z" fill="white" fill-opacity="0.25"/>
  </g>
  <g style="mix-blend-mode:overlay">
  <path fill-rule="evenodd" clip-rule="evenodd" d="M289.388 211.732C315.312 211.732 336.328 190.716 336.328 164.792C336.328 138.867 315.312 117.852 289.388 117.852C263.464 117.852 242.448 138.867 242.448 164.792C242.448 190.716 263.464 211.732 289.388 211.732ZM289.388 123.106C289.968 123.106 290.546 123.118 291.12 123.141C317.574 126.058 315.947 164.091 289.563 164.091C289.538 164.091 289.513 164.094 289.489 164.1C289.281 164.094 289.072 164.091 288.862 164.091C276.964 164.091 267.319 173.736 267.319 185.635C267.319 194.63 272.832 202.338 280.664 205.563C261.83 201.552 247.702 184.822 247.702 164.792C247.702 141.769 266.366 123.106 289.388 123.106ZM288.862 191.414C292.055 191.414 294.642 188.827 294.642 185.635C294.642 182.442 292.055 179.855 288.862 179.855C285.67 179.855 283.082 182.442 283.082 185.635C283.082 188.827 285.67 191.414 288.862 191.414Z" fill="white" fill-opacity="0.25"/>
  <path d="M294.642 143.949C294.642 147.141 292.055 149.729 288.862 149.729C285.67 149.729 283.082 147.141 283.082 143.949C283.082 140.757 285.67 138.169 288.862 138.169C292.055 138.169 294.642 140.757 294.642 143.949Z" fill="white" fill-opacity="0.25"/>
  </g>
  </g>
  <defs>
  <clipPath id="clip0_589_123547">
  <rect width="350" height="350" fill="white"/>
  </clipPath>
  </defs>

    
  <!-- LavaKitty -->
  <path d="M98.4521 197.334C97.2413 196.223 96.3332 194.929 95.7186 193.543L95 186.483C95.6323 183.534 97.4223 180.812 100.292 179.087L104.357 176.643C107.09 174.999 110.176 174.643 112.982 175.334L119.003 179.057C119.951 180.178 120.701 181.508 121.177 183.018L127 200.5L123 223L98.4521 197.334Z" fill="url(#paint0_linear_902_111870)"/>
  <path d="M122.552 156.001C128.112 165.631 123.807 179.31 106.396 189.363C88.9849 199.415 74.9852 196.303 69.4256 186.674C64.4138 177.993 62.7287 158.917 82.2958 147.62C101.863 136.323 117.541 147.32 122.552 156.001Z" fill="#0C011C"/>
  <path fill-rule="evenodd" clip-rule="evenodd" d="M88.8612 169.966C90.5617 173.254 89.3911 177.331 86.1521 179.201C82.8179 181.126 78.5545 179.984 76.6295 176.649C74.7615 173.414 75.7818 169.303 78.8905 167.304C78.7857 167.358 78.6816 167.415 78.5783 167.475C74.9107 169.592 73.6541 174.282 75.7716 177.95C77.8891 181.617 82.5789 182.874 86.2465 180.756C89.9142 178.639 91.1708 173.949 89.0533 170.281C88.9914 170.174 88.9273 170.069 88.8612 169.966Z" fill="#6DF244"/>
  <circle cx="81.2727" cy="170.749" r="1.39422" transform="rotate(-30 81.2727 170.749)" fill="white"/>
  <circle cx="85.337" cy="170.816" r="0.697108" transform="rotate(-30 85.337 170.816)" fill="white"/>
  <path fill-rule="evenodd" clip-rule="evenodd" d="M109.017 167.611C105.349 169.729 100.659 168.472 98.5417 164.804C98.4794 164.697 98.4201 164.588 98.3637 164.479C100.36 167.597 104.477 168.622 107.717 166.752C111.051 164.827 112.194 160.563 110.269 157.229C108.4 153.993 104.329 152.822 101.042 154.516C101.142 154.452 101.244 154.389 101.348 154.329C105.016 152.212 109.706 153.469 111.823 157.136C113.941 160.804 112.684 165.494 109.017 167.611Z" fill="#6DF244"/>
  <circle r="1.39422" transform="matrix(-0.866025 0.5 0.5 0.866025 102.836 158.301)" fill="white"/>
  <circle r="0.697108" transform="matrix(-0.866025 0.5 0.5 0.866025 100.862 161.855)" fill="white"/>
  <path d="M101.975 172.942C102.278 173.466 101.646 176.295 99.5497 177.505C97.4539 178.715 94.6881 177.848 94.3856 177.324C94.0831 176.8 95.5369 175.394 97.6327 174.184C99.7285 172.974 101.673 172.418 101.975 172.942Z" fill="#B97C99"/>
  <path d="M103.875 126.939C96.3872 129.744 92.3582 139.49 89.4828 144.734C104.079 139.343 112.84 146.849 115.67 151.751C115.874 141.514 111.363 124.134 103.875 126.939Z" fill="#0C011C"/>
  <path d="M103.697 131.614C98.244 133.677 96.209 140.16 94.09 143.947C101.29 141.081 110.485 144.378 112.51 147.885C112.72 140.524 109.149 129.552 103.697 131.614Z" fill="url(#paint1_linear_902_111870)"/>
  <path d="M53.8848 155.801C60.0581 150.719 70.5125 152.102 76.4916 152.234C64.5244 162.179 66.6449 173.52 69.4749 178.422C60.5076 173.48 47.7115 160.883 53.8848 155.801Z" fill="#0C011C"/>
  <path d="M58.0253 157.982C62.5374 154.291 69.1694 155.771 73.509 155.829C67.4272 160.632 65.6846 170.244 67.7094 173.75C61.2297 170.251 53.5132 161.673 58.0253 157.982Z" fill="url(#paint2_linear_902_111870)"/>
  <path d="M109.478 174.779C111.255 177.857 108.127 181.406 104.911 181.52" stroke="white" stroke-opacity="0.45" stroke-width="1.09546" stroke-linecap="round"/>
  <path d="M86.084 212.841L84.8646 214.426L86.084 212.841ZM74.3944 222.289C73.4065 222.783 72.2051 222.382 71.7111 221.394C71.2172 220.406 71.6176 219.205 72.6056 218.711L74.3944 222.289ZM121.5 220C123.358 220.741 123.357 220.743 123.356 220.745C123.356 220.746 123.355 220.748 123.354 220.749C123.353 220.752 123.352 220.755 123.351 220.758C123.348 220.764 123.346 220.77 123.343 220.776C123.338 220.789 123.332 220.803 123.325 220.818C123.312 220.849 123.296 220.884 123.277 220.923C123.239 221.001 123.189 221.097 123.126 221.207C122.999 221.427 122.817 221.703 122.563 222.014C122.052 222.64 121.264 223.391 120.079 224.109C117.708 225.547 113.844 226.798 107.584 226.798V222.798C113.325 222.798 116.419 221.651 118.006 220.689C118.799 220.208 119.24 219.759 119.464 219.485C119.577 219.347 119.638 219.248 119.663 219.206C119.675 219.184 119.678 219.177 119.674 219.185C119.672 219.189 119.669 219.197 119.663 219.209C119.66 219.215 119.657 219.222 119.654 219.231C119.652 219.235 119.65 219.239 119.648 219.244C119.648 219.246 119.647 219.249 119.646 219.251C119.645 219.252 119.644 219.254 119.644 219.255C119.643 219.257 119.642 219.259 121.5 220ZM107.584 226.798C101.061 226.798 96.5169 224.57 92.987 221.845C91.2533 220.507 89.7688 219.053 88.4571 217.752C87.1098 216.416 85.9921 215.294 84.8646 214.426L87.3034 211.256C88.6759 212.312 89.9957 213.645 91.2734 214.912C92.5867 216.214 93.9147 217.508 95.4311 218.679C98.4013 220.971 102.108 222.798 107.584 222.798V226.798ZM84.8646 214.426C79.0437 209.949 71.9102 210.447 68.0555 212.589L66.1126 209.093C71.2561 206.235 80.1243 205.733 87.3034 211.256L84.8646 214.426ZM68.0555 212.589C65.9625 213.752 64.3645 215.051 63.3426 216.662C62.3458 218.234 61.7883 220.274 62.075 223.142L58.0948 223.54C57.7319 219.908 58.4244 216.948 59.9648 214.52C61.4801 212.131 63.7065 210.43 66.1126 209.093L68.0555 212.589ZM62.075 223.142C62.3411 225.805 63.5348 227.527 65.0497 228.695C66.622 229.907 68.6121 230.568 70.4137 230.868L69.7561 234.814C67.5581 234.448 64.873 233.609 62.6076 231.863C60.2848 230.072 58.4783 227.377 58.0948 223.54L62.075 223.142ZM70.4137 230.868C73.9655 231.46 77.7847 230.34 79.2565 227.029L82.9117 228.653C80.3835 234.342 74.2035 235.555 69.7561 234.814L70.4137 230.868ZM79.2565 227.029C79.8871 225.61 79.5028 224.003 78.4739 222.93C77.5001 221.915 76.0368 221.468 74.3944 222.289L72.6056 218.711C75.9632 217.032 79.2919 218.005 81.3602 220.161C83.3733 222.259 84.2811 225.572 82.9117 228.653L79.2565 227.029Z" fill="url(#paint3_linear_902_111870)"/>
  <defs>
  <linearGradient id="paint0_linear_902_111870" x1="127" y1="206.5" x2="104.5" y2="181" gradientUnits="userSpaceOnUse">
  <stop stop-color="#0C011C"/>
  <stop offset="1" stop-color="#423752"/>
  </linearGradient>
  <linearGradient id="paint1_linear_902_111870" x1="98.8482" y1="134.269" x2="112.259" y2="148.03" gradientUnits="userSpaceOnUse">
  <stop stop-color="#9C789B"/>
  <stop offset="1" stop-color="#5B5252" stop-opacity="0"/>
  </linearGradient>
  <linearGradient id="paint2_linear_902_111870" x1="62.7485" y1="155.111" x2="67.9605" y2="173.605" gradientUnits="userSpaceOnUse">
  <stop stop-color="#9C789B"/>
  <stop offset="1" stop-color="#5B5252" stop-opacity="0"/>
  </linearGradient>
  <linearGradient id="paint3_linear_902_111870" x1="63.083" y1="223.298" x2="122.083" y2="215.298" gradientUnits="userSpaceOnUse">
  <stop stop-color="#2F1F47"/>
  <stop offset="0.855778"/>
  </linearGradient>
  </defs>
    
    
  <!-- Glowing Glass -->
    <g filter="url(#filter0_f_953_137978)">
    <path d="M148.717 95L125.019 209.98C124.948 210.324 125.078 210.673 125.367 210.873C128.479 213.027 147.033 225 175 225C202.967 225 221.521 213.027 224.633 210.873C224.922 210.673 225.052 210.324 224.981 209.98L201.283 95C201.249 95.0666 201.205 95.1285 201.15 95.1836C199.818 96.5241 193.18 102.106 175 102.106C156.82 102.106 150.182 96.5241 148.85 95.1836C148.795 95.1285 148.751 95.0666 148.717 95Z" fill="#2D34E6" fill-opacity="0.6"/>
    </g>
    <defs>
    <filter id="filter0_f_953_137978" x="-4" y="-4" width="358" height="358" filterUnits="userSpaceOnUse" color-interpolation-filters="sRGB">
    <feFlood flood-opacity="0" result="BackgroundImageFix"/>
    <feBlend mode="normal" in="SourceGraphic" in2="BackgroundImageFix" result="shape"/>
    <feGaussianBlur stdDeviation="2" result="effect1_foregroundBlur_953_137978"/>
    </filter>
    </defs>
  
    
    
    <!-- Lava 1 -->
    <!-- Color -->
    <!-- filter -->
    <path d="M201.33 94.2312L205.4 114.032C203.808 113.761 202.153 113.448 200.459 113.128C186.293 110.453 169.479 107.277 165.223 123.731C163.365 130.915 166.057 135.213 168.676 139.394C171.205 143.431 173.665 147.359 171.9 153.669C169.751 161.35 158.067 166.325 148.671 162.995C138.746 159.477 139.443 144.904 145.148 137.85C150.853 130.795 151.677 120.031 150.853 112.871C150.454 109.41 148.742 106.935 146.502 105.251L148.841 93.8809C148.875 93.9478 148.92 94.0101 148.975 94.0656C150.853 95.9589 156.979 101.03 175.237 101.03C192.824 101.03 199.656 95.8196 201.33 94.2312Z" fill="url(#paint0_radial_931_113783)"/>
    <mask id="mask0_931_113783" style="mask-type:alpha" maskUnits="userSpaceOnUse" x="141" y="93" width="65" height="72">
    <path d="M201.33 94.2302L205.4 114.031C203.808 113.76 202.153 113.447 200.459 113.127C186.293 110.452 169.479 107.276 165.223 123.73C163.365 130.914 166.057 135.212 168.676 139.393C171.205 143.43 173.665 147.358 171.9 153.668C169.751 161.349 158.067 166.324 148.671 162.994C138.746 159.476 139.443 144.903 145.148 137.849C150.853 130.794 151.677 120.03 150.853 112.87C150.454 109.409 148.742 106.934 146.502 105.25L148.841 93.8799C148.875 93.9469 148.92 94.0092 148.975 94.0646C150.313 95.4133 156.979 101.029 175.237 101.029C192.824 101.029 199.656 95.8187 201.33 94.2302Z" fill="url(#paint1_radial_931_113783)"/>
    </mask>
    <g mask="url(#mask0_931_113783)">
    <g filter="url(#filter0_f_931_113783)">
    <mask id="mask1_931_113783" style="mask-type:alpha" maskUnits="userSpaceOnUse" x="125" y="94" width="101" height="132">
    <path d="M149.015 95.0639C149.102 94.6401 149.475 94.3359 149.907 94.3359H200.399C200.831 94.3359 201.205 94.6401 201.292 95.0639L225.146 211.159C225.227 211.555 225.041 211.955 224.68 212.137C220.777 214.109 198.528 224.817 175.153 225.128C151.731 225.438 129.441 214.178 125.603 212.141C125.253 211.954 125.077 211.562 125.157 211.173L149.015 95.0639Z" fill="#577096" fill-opacity="0.75"/>
    </mask>
    <g mask="url(#mask1_931_113783)">
    <g filter="url(#filter1_f_931_113783)">
    <path d="M207.362 76.1064C211.019 110.268 146.094 132.571 113.174 139.453L113.174 76.1064L207.362 76.1064Z" fill="url(#paint2_linear_931_113783)" fill-opacity="0.5"/>
    </g>
    <g filter="url(#filter2_f_931_113783)">
    <path d="M155.56 125.301C156.622 105.018 134.624 86.1828 129.082 66.9985C133.541 65.1973 144.203 70.7896 152.828 76.1247C163.609 82.7936 163.032 109.124 164.778 125.784C166.175 139.112 148.606 223.401 144.168 241.481L131.869 240.837C140.395 214.68 154.74 140.955 155.56 125.301Z" fill="url(#paint3_linear_931_113783)" fill-opacity="0.6"/>
    </g>
    </g>
    </g>
    </g>
    <defs>
    <filter id="filter0_f_931_113783" x="122.744" y="92.0573" width="104.986" height="135.355" filterUnits="userSpaceOnUse" color-interpolation-filters="sRGB">
    <feFlood flood-opacity="0" result="BackgroundImageFix"/>
    <feBlend mode="normal" in="SourceGraphic" in2="BackgroundImageFix" result="shape"/>
    <feGaussianBlur stdDeviation="1.13932" result="effect1_foregroundBlur_931_113783"/>
    </filter>
    <filter id="filter1_f_931_113783" x="112.262" y="75.195" width="96.1589" height="65.1696" filterUnits="userSpaceOnUse" color-interpolation-filters="sRGB">
    <feFlood flood-opacity="0" result="BackgroundImageFix"/>
    <feBlend mode="normal" in="SourceGraphic" in2="BackgroundImageFix" result="shape"/>
    <feGaussianBlur stdDeviation="0.455729" result="effect1_foregroundBlur_931_113783"/>
    </filter>
    <filter id="filter2_f_931_113783" x="128.17" y="65.7428" width="37.5978" height="176.65" filterUnits="userSpaceOnUse" color-interpolation-filters="sRGB">
    <feFlood flood-opacity="0" result="BackgroundImageFix"/>
    <feBlend mode="normal" in="SourceGraphic" in2="BackgroundImageFix" result="shape"/>
    <feGaussianBlur stdDeviation="0.455729" result="effect1_foregroundBlur_931_113783"/>
    </filter>
    <radialGradient id="paint0_radial_931_113783" cx="0" cy="0" r="1" gradientUnits="userSpaceOnUse" gradientTransform="translate(156.087 109.102) rotate(53.0717) scale(37.8406 40.3077)">
    <stop offset="0.203125" style="stop-color: #21F6EA;"/>
    <stop offset="0.890625" style="stop-color: #2183F6;"/>
    </radialGradient>
    <radialGradient id="paint1_radial_931_113783" cx="0" cy="0" r="1" gradientUnits="userSpaceOnUse" gradientTransform="translate(156.087 109.101) rotate(53.0717) scale(37.8406 40.3077)">
    <stop offset="0.203125" stop-color="#71FF30"/>
    <stop offset="0.890625" stop-color="#25BC46"/>
    </radialGradient>
    <linearGradient id="paint2_linear_931_113783" x1="145.368" y1="123.01" x2="155.982" y2="72.2914" gradientUnits="userSpaceOnUse">
    <stop stop-color="white" stop-opacity="0"/>
    <stop offset="0.471361" stop-color="white"/>
    <stop offset="1" stop-color="white"/>
    </linearGradient>
    <linearGradient id="paint3_linear_931_113783" x1="160.882" y1="220.938" x2="202.107" y2="178" gradientUnits="userSpaceOnUse">
    <stop stop-color="#F2F2F2"/>
    <stop offset="0.0001" stop-color="#F2F2F2"/>
    <stop offset="0.0520833" stop-color="#F2F2F2" stop-opacity="0.948011"/>
    <stop offset="1" stop-color="#F2F2F2" stop-opacity="0"/>
    </linearGradient>
    </defs>
  
    
  <!-- Lava 2 -->
    <!-- Color -->
<path d="M178.202 131.059C178.202 128.163 180.222 122.394 188.299 122.479C196.377 122.565 198.468 128.235 198.504 131.059C198.576 133.132 197.365 137.622 191.952 138.995C185.184 140.711 178.202 136.85 178.202 131.059Z" fill="url(#paint0_radial_931_113845)"/>
<defs>
<radialGradient id="paint0_radial_931_113845" cx="0" cy="0" r="1" gradientUnits="userSpaceOnUse" gradientTransform="translate(182.959 126.151) rotate(45.5119) scale(10.2292 11.3416)">
<stop offset="0.203125" style="stop-color: #FFB800;"/>
<stop offset="0.890625" style="stop-color: #FF7800;"/>
</radialGradient>
</defs>
  
    
  <!-- Lava 3 -->
    <!-- Color -->
    <path d="M214.381 157.604L219.2 181.084C217.285 183.349 214.448 185.339 210.334 186.382C197.471 189.642 184.2 182.306 184.2 171.303C184.2 165.801 188.039 154.839 203.392 155.002C208.021 155.051 211.616 156.065 214.381 157.604Z" fill="url(#paint0_radial_931_113862)"/>
<defs>
<radialGradient id="paint0_radial_931_113862" cx="0" cy="0" r="1" gradientUnits="userSpaceOnUse" gradientTransform="translate(192.4 161.977) rotate(48.2936) scale(18.5718 20.4588)">
<stop offset="0.203125" style="stop-color: #71FF30;"/>
<stop offset="0.890625" style="stop-color: #25BC46;"/>
</radialGradient>
</defs>
  
    
  <!-- Lava 4 -->
    <!-- Color -->
    <path d="M225 210.659C220.5 214 200.704 225 175.402 225C147.201 225 128.492 213.024 125.354 210.869C125.163 210.738 125.042 210.543 125 210.328C128.968 198.996 144.393 175.959 164.496 181.99C174.451 184.976 181.421 192.474 187.975 199.525C198.127 210.446 208 213.5 225 210.659C224.675 211.045 225.345 210.27 225 210.659Z" fill="url(#paint0_radial_931_113863)"/>
<mask id="mask0_931_113863" style="mask-type:alpha" maskUnits="userSpaceOnUse" x="124" y="180" width="101" height="45">
<path d="M223.866 211.799C218.236 215.343 200.575 225 175.272 225C147.071 225 128.362 213.003 125.225 210.845C125.034 210.714 124.912 210.519 124.87 210.303C128.839 198.951 144.263 175.875 164.366 181.916C174.321 184.908 181.291 192.418 187.845 199.481C197.997 210.421 207.154 220.288 224.87 210.635C224.545 211.021 224.21 211.409 223.866 211.799Z" fill="url(#paint1_radial_931_113863)"/>
</mask>
<g mask="url(#mask0_931_113863)">
<g filter="url(#filter0_f_931_113863)">
<mask id="mask1_931_113863" style="mask-type:alpha" maskUnits="userSpaceOnUse" x="124" y="94" width="102" height="132">
<path d="M148.862 95.3198C148.949 94.896 149.322 94.5918 149.755 94.5918H200.246C200.679 94.5918 201.052 94.896 201.139 95.3198L224.993 211.414C225.075 211.811 224.888 212.211 224.527 212.393C220.624 214.365 198.376 225.073 175 225.383C151.578 225.694 129.288 214.434 125.45 212.396C125.1 212.21 124.924 211.818 125.004 211.429L148.862 95.3198Z" fill="#577096" fill-opacity="0.75"/>
</mask>
<g mask="url(#mask1_931_113863)">
<g filter="url(#filter1_f_931_113863)">
<path d="M155.407 125.557C156.47 105.273 134.471 86.4386 128.929 67.2543C133.388 65.4531 144.05 71.0455 152.675 76.3806C163.456 83.0494 162.879 109.38 164.625 126.04C166.022 139.368 148.453 223.657 144.015 241.737L131.716 241.093C140.242 214.936 154.587 141.211 155.407 125.557Z" fill="url(#paint2_linear_931_113863)" fill-opacity="0.6"/>
</g>
</g>
</g>
</g>
<defs>
<filter id="filter0_f_931_113863" x="122.591" y="92.3132" width="105.59" height="135.355" filterUnits="userSpaceOnUse" color-interpolation-filters="sRGB">
<feFlood flood-opacity="0" result="BackgroundImageFix"/>
<feBlend mode="normal" in="SourceGraphic" in2="BackgroundImageFix" result="shape"/>
<feGaussianBlur stdDeviation="1.13932" result="effect1_foregroundBlur_931_113863"/>
</filter>
<filter id="filter1_f_931_113863" x="128.017" y="65.9987" width="37.5983" height="176.65" filterUnits="userSpaceOnUse" color-interpolation-filters="sRGB">
<feFlood flood-opacity="0" result="BackgroundImageFix"/>
<feBlend mode="normal" in="SourceGraphic" in2="BackgroundImageFix" result="shape"/>
<feGaussianBlur stdDeviation="0.455729" result="effect1_foregroundBlur_931_113863"/>
</filter>
<radialGradient id="paint0_radial_931_113863" cx="0" cy="0" r="1" gradientUnits="userSpaceOnUse" gradientTransform="translate(148.451 190.545) rotate(28.2255) scale(40.1081 37.0676)">
<stop offset="0.203125" style="stop-color: #FABE09;"/>
<stop offset="0.890625" style="stop-color: #FDF21B;"/>
</radialGradient>
<radialGradient id="paint1_radial_931_113863" cx="0" cy="0" r="1" gradientUnits="userSpaceOnUse" gradientTransform="translate(146.382 191.229) rotate(27.0849) scale(58.9221 42.3164)">
<stop offset="0.302083" stop-color="#FFB800"/>
<stop offset="1" stop-color="#FF7800"/>
</radialGradient>
<linearGradient id="paint2_linear_931_113863" x1="160.729" y1="221.194" x2="201.954" y2="178.256" gradientUnits="userSpaceOnUse">
<stop stop-color="#F2F2F2"/>
<stop offset="0.0001" stop-color="#F2F2F2"/>
<stop offset="0.0520833" stop-color="#F2F2F2" stop-opacity="0.948011"/>
<stop offset="1" stop-color="#F2F2F2" stop-opacity="0"/>
</linearGradient>
</defs>
  
  
    
  <!-- Emerald Witch -->
  <path d="M105 286.95C141.989 290.761 221.974 296.097 246 286.95C220.04 271.895 155.495 250.819 105 286.95Z" fill="#013802"/>
  <path d="M170.567 339.095C173.799 338.74 171.914 329.499 170.567 324.923H145.43C140.792 328.318 130.259 335.906 138.159 339.095C146.06 342.283 158.747 336.29 162.488 332.895C163.834 335.109 167.336 339.449 170.567 339.095Z" fill="url(#paint0_radial_902_116288)"/>
  <path d="M170.846 273.018V324.923H145.49L131 270L170.846 273.018Z" fill="#04B20A"/>
  <mask id="mask0_902_116288" style="mask-type:alpha" maskUnits="userSpaceOnUse" x="131" y="270" width="40" height="56">
  <path d="M170.846 273.047V325.462H145.49L131 270L170.846 273.047Z" fill="white"/>
  </mask>
  <g mask="url(#mask0_902_116288)">
  <rect width="57.9592" height="12.1891" transform="matrix(0.998967 0.0454358 -0.044586 0.999006 129.225 312.552)" fill="#037D06"/>
  <rect width="57.9592" height="12.1891" transform="matrix(0.998967 0.0454358 -0.044586 0.999006 130.091 293.068)" fill="#037D06"/>
  <rect x="130.962" y="273.585" width="57.9592" height="12.1891" transform="rotate(2.57969 130.962 273.585)" fill="#037D06"/>
  </g>
  <path d="M178.201 339.095C174.969 338.74 176.854 329.499 178.201 324.923H203.338C207.977 328.318 218.51 335.906 210.609 339.095C202.709 342.283 190.022 336.29 186.281 332.895C184.934 335.109 181.433 339.449 178.201 339.095Z" fill="url(#paint1_radial_902_116288)"/>
  <path d="M178.299 273.018V324.923H203.656L218.146 270L178.299 273.018Z" fill="#04B20A"/>
  <mask id="mask1_902_116288" style="mask-type:alpha" maskUnits="userSpaceOnUse" x="178" y="270" width="41" height="56">
  <path d="M178.301 273.047V325.462H203.658L218.147 270L178.301 273.047Z" fill="white"/>
  </mask>
  <g mask="url(#mask1_902_116288)">
  <rect width="57.9592" height="12.1891" transform="matrix(-0.998967 0.0454358 0.044586 0.999006 219.923 312.552)" fill="#037D06"/>
  <rect width="57.9592" height="12.1891" transform="matrix(-0.998967 0.0454358 0.044586 0.999006 219.057 293.068)" fill="#037D06"/>
  <rect width="57.9592" height="12.1891" transform="matrix(-0.998987 0.0450089 0.0450089 0.998987 218.186 273.585)" fill="#037D06"/>
  </g>
  <path d="M245.641 285.697L224.777 210.006C224.631 209.474 224.043 209.195 223.534 209.408C183.446 226.102 142.208 216.668 125.484 209.436C124.962 209.21 124.373 209.509 124.235 210.061L105.44 285.239C105.258 285.966 105.997 286.643 106.717 286.431C111.115 285.139 124.609 282.054 154.5 281.5C188.954 280.862 236.15 285.902 244.659 286.849C245.301 286.92 245.812 286.32 245.641 285.697Z" fill="url(#paint2_linear_902_116288)"/>
  <path d="M124.5 208C124.5 208 144 218 175.5 218C207 218 225.5 208 225.5 208L228.5 222C228.5 222 209 232 175.5 232C142 232 121 222 121 222L124.5 208Z" fill="#0C011C"/>
  <g filter="url(#filter0_d_902_116288)">
  <rect x="165.5" y="216" width="20" height="18" stroke="#FDF21B" stroke-width="4" shape-rendering="crispEdges"/>
  </g>
  <path d="M236.072 98.79C234.385 107.874 201.732 109.429 174.03 104.285C146.329 99.1415 116.41 85.9681 118.097 76.8839C119.784 67.7998 152.437 66.2448 180.139 71.3887C207.841 76.5325 237.759 89.7059 236.072 98.79Z" fill="url(#paint3_linear_902_116288)"/>
  <path d="M176.133 90.9404C160.87 87.4856 155.063 83.9517 151.036 80.0679C150.823 79.862 150.726 79.5759 150.776 79.2835C153.764 61.8975 162.048 23.9396 232.022 27.9093C233.018 27.9657 233.5 29.9306 232.713 30.5427C228.88 33.5224 224.321 38.484 219.72 41.953C215.065 45.4618 210.544 42.9417 207.45 46.2823C204.919 49.016 205.36 54.3766 203.821 56.8379C201.904 59.9024 200.396 59.9529 199.176 63.375C199.156 63.4316 199.129 63.4898 199.098 63.5417C193.919 72.4319 202.017 78.8892 206.299 90.045C206.492 90.5478 206.195 91.1019 205.671 91.2241C197.885 93.0378 188.578 93.7572 176.133 90.9404Z" fill="url(#paint4_linear_902_116288)"/>
  <path d="M150.204 79.7737C154.238 83.6288 160.17 86.6521 175.3 90.6469C187.445 93.8536 199.865 93.4021 206.174 91.2985C206.641 91.143 206.871 90.6316 206.684 90.1767C205.585 87.5004 203.802 84.7652 202.753 82.5561C202.594 82.222 202.255 82.0049 201.885 82.011C184.368 82.3025 171.422 80.7214 154.691 69.3405C154.237 69.0317 153.608 69.1813 153.362 69.6724C151.603 73.1935 150.456 76.3905 149.95 78.9788C149.893 79.27 149.989 79.5688 150.204 79.7737Z" fill="url(#paint5_linear_902_116288)"/>
  <defs>
  <filter id="filter0_d_902_116288" x="160.059" y="210.559" width="30.8811" height="28.8811" filterUnits="userSpaceOnUse" color-interpolation-filters="sRGB">
  <feFlood flood-opacity="0" result="BackgroundImageFix"/>
  <feColorMatrix in="SourceAlpha" type="matrix" values="0 0 0 0 0 0 0 0 0 0 0 0 0 0 0 0 0 0 127 0" result="hardAlpha"/>
  <feOffset/>
  <feGaussianBlur stdDeviation="1.72028"/>
  <feComposite in2="hardAlpha" operator="out"/>
  <feColorMatrix type="matrix" values="0 0 0 0 1 0 0 0 0 1 0 0 0 0 1 0 0 0 1 0"/>
  <feBlend mode="normal" in2="BackgroundImageFix" result="effect1_dropShadow_902_116288"/>
  <feBlend mode="normal" in="SourceGraphic" in2="effect1_dropShadow_902_116288" result="shape"/>
  </filter>
  <radialGradient id="paint0_radial_902_116288" cx="0" cy="0" r="1" gradientUnits="userSpaceOnUse" gradientTransform="translate(145 324.923) rotate(41.1859) scale(11.4478 28.1277)">
  <stop offset="0.453125" stop-color="#564D61"/>
  <stop offset="1" stop-color="#1D1A21"/>
  </radialGradient>
  <radialGradient id="paint1_radial_902_116288" cx="0" cy="0" r="1" gradientUnits="userSpaceOnUse" gradientTransform="translate(203.769 324.923) rotate(138.814) scale(11.4478 28.1277)">
  <stop offset="0.453125" stop-color="#564D61"/>
  <stop offset="1" stop-color="#1D1A21"/>
  </radialGradient>
  <linearGradient id="paint2_linear_902_116288" x1="194.621" y1="185.332" x2="251.367" y2="265.256" gradientUnits="userSpaceOnUse">
  <stop stop-color="#003802"/>
  <stop offset="0.473958" stop-color="#00B806" stop-opacity="0.98"/>
  <stop offset="1" stop-color="#B5FFB7" stop-opacity="0.98"/>
  </linearGradient>
  <linearGradient id="paint3_linear_902_116288" x1="197.991" y1="64.3773" x2="205.73" y2="112.308" gradientUnits="userSpaceOnUse">
  <stop stop-color="#003802"/>
  <stop offset="0.473958" stop-color="#00B806" stop-opacity="0.98"/>
  <stop offset="1" stop-color="#B5FFB7" stop-opacity="0.98"/>
  </linearGradient>
  <linearGradient id="paint4_linear_902_116288" x1="212.499" y1="2.31582" x2="258.965" y2="55.6457" gradientUnits="userSpaceOnUse">
  <stop stop-color="#003802"/>
  <stop offset="0.473958" stop-color="#00B806" stop-opacity="0.98"/>
  <stop offset="1" stop-color="#B5FFB7" stop-opacity="0.98"/>
  </linearGradient>
  <linearGradient id="paint5_linear_902_116288" x1="154" y1="68.0001" x2="183.911" y2="108.52" gradientUnits="userSpaceOnUse">
  <stop stop-color="#B5FFB7" stop-opacity="0.98"/>
  <stop offset="0.473958" stop-color="#00B806" stop-opacity="0.98"/>
  <stop offset="1" stop-color="#003802"/>
  </linearGradient>
  </defs>
  
    
    </svg>
  