
    <svg width="350" height="350" viewBox="0 0 350 350" fill="none" xmlns="http://www.w3.org/2000/svg">
    
  <!-- Sky BG -->
  <g clip-path="url(#clip0_28_498)">
  <rect width="350" height="350" fill="url(#paint0_linear_28_498)"/>
  <g opacity="0.7" filter="url(#filter0_f_28_498)">
  <g style="mix-blend-mode:overlay" opacity="0.5">
  <path d="M299.522 241.661C366.933 257.538 205.269 286.569 149.914 288.477L332.436 288.477C387.491 286.396 403.25 276.859 404.248 272.351L404.248 234.378C388.788 227.096 357.333 212.715 259.128 203.688C128.969 191.724 -28.0034 214.966 25.7398 241.661C67.63 262.468 206.765 219.813 299.522 241.661Z" fill="white"/>
  </g>
  <g style="mix-blend-mode:overlay" opacity="0.5">
  <path fill-rule="evenodd" clip-rule="evenodd" d="M87.0789 282.755C130.964 279.46 211.553 271.311 182.828 265.069C169.685 262.213 142.109 262.214 109.713 262.216C53.605 262.219 -16.9636 262.222 -52.0564 247.383C-108.852 223.365 -64.0251 185.482 73.6141 170.397C75.5326 170.186 77.4624 169.975 79.4025 169.762C216.654 154.726 405.555 134.032 295.034 114.218C260.872 108.093 222.902 112.563 183.636 117.186C112.848 125.519 37.8512 134.348 -26.6232 82.4869L-146.309 82.4869C-61.033 102.254 -68.9589 140.737 -123.868 150.11C-186.598 160.817 -179.188 181.702 -173.892 196.632C-172.241 201.286 -170.795 205.361 -171.743 208.369L-171.743 282.755L87.0789 282.755ZM-26.6232 165.195C-6.27654 153.959 67.6298 147.682 102.04 145.948C130.465 133.984 61.6455 139.186 51.173 142.307C40.7004 145.428 19.7553 138.146 13.771 128.262C7.7867 118.379 -43.0799 119.94 -40.0878 128.262C-37.0956 136.585 -37.0956 145.948 -71.5054 155.312C-105.915 164.675 -52.0564 179.24 -26.6232 165.195Z" fill="white"/>
  </g>
  <g style="mix-blend-mode:overlay" opacity="0.5">
  <path d="M283.065 183.401C220.23 183.401 223.222 165.715 283.065 162.074C341.4 158.524 398.313 152.998 399.759 142.121L399.759 141.267C399.797 141.555 399.797 141.84 399.759 142.121L399.759 195.374C375.615 190.625 328.061 183.401 283.065 183.401Z" fill="white"/>
  </g>
  </g>
  </g>
  <defs>
  <filter id="filter0_f_28_498" x="-186.393" y="73.3724" width="599.755" height="224.219" filterUnits="userSpaceOnUse" color-interpolation-filters="sRGB">
  <feFlood flood-opacity="0" result="BackgroundImageFix"/>
  <feBlend mode="normal" in="SourceGraphic" in2="BackgroundImageFix" result="shape"/>
  <feGaussianBlur stdDeviation="4.55729" result="effect1_foregroundBlur_28_498"/>
  </filter>
  <linearGradient id="paint0_linear_28_498" x1="175" y1="0" x2="175" y2="350" gradientUnits="userSpaceOnUse">
  <stop offset="0.213542" stop-color="#2FA2F5"/>
  <stop offset="1" stop-color="white"/>
  </linearGradient>
  <clipPath id="clip0_28_498">
  <rect width="350" height="350" fill="white"/>
  </clipPath>
  </defs>

    
    
    
  <!-- Normal Glass -->
    <path d="M148.717 95L125.019 209.98C124.948 210.324 125.078 210.673 125.367 210.873C128.479 213.027 147.033 225 175 225C202.967 225 221.521 213.027 224.633 210.873C224.922 210.673 225.052 210.324 224.981 209.98L201.283 95C201.249 95.0666 201.205 95.1285 201.15 95.1836C199.818 96.5241 193.18 102.106 175 102.106C156.82 102.106 150.182 96.5241 148.85 95.1836C148.795 95.1285 148.751 95.0666 148.717 95Z" fill="#2D34E6" fill-opacity="0.6"/>
  
    
    
    <!-- Lava 1 -->
    <!-- Color -->
    <!-- filter -->
    <path d="M201.33 94.2312L205.4 114.032C203.808 113.761 202.153 113.448 200.459 113.128C186.293 110.453 169.479 107.277 165.223 123.731C163.365 130.915 166.057 135.213 168.676 139.394C171.205 143.431 173.665 147.359 171.9 153.669C169.751 161.35 158.067 166.325 148.671 162.995C138.746 159.477 139.443 144.904 145.148 137.85C150.853 130.795 151.677 120.031 150.853 112.871C150.454 109.41 148.742 106.935 146.502 105.251L148.841 93.8809C148.875 93.9478 148.92 94.0101 148.975 94.0656C150.853 95.9589 156.979 101.03 175.237 101.03C192.824 101.03 199.656 95.8196 201.33 94.2312Z" fill="url(#paint0_radial_931_113783)"/>
    <mask id="mask0_931_113783" style="mask-type:alpha" maskUnits="userSpaceOnUse" x="141" y="93" width="65" height="72">
    <path d="M201.33 94.2302L205.4 114.031C203.808 113.76 202.153 113.447 200.459 113.127C186.293 110.452 169.479 107.276 165.223 123.73C163.365 130.914 166.057 135.212 168.676 139.393C171.205 143.43 173.665 147.358 171.9 153.668C169.751 161.349 158.067 166.324 148.671 162.994C138.746 159.476 139.443 144.903 145.148 137.849C150.853 130.794 151.677 120.03 150.853 112.87C150.454 109.409 148.742 106.934 146.502 105.25L148.841 93.8799C148.875 93.9469 148.92 94.0092 148.975 94.0646C150.313 95.4133 156.979 101.029 175.237 101.029C192.824 101.029 199.656 95.8187 201.33 94.2302Z" fill="url(#paint1_radial_931_113783)"/>
    </mask>
    <g mask="url(#mask0_931_113783)">
    <g filter="url(#filter0_f_931_113783)">
    <mask id="mask1_931_113783" style="mask-type:alpha" maskUnits="userSpaceOnUse" x="125" y="94" width="101" height="132">
    <path d="M149.015 95.0639C149.102 94.6401 149.475 94.3359 149.907 94.3359H200.399C200.831 94.3359 201.205 94.6401 201.292 95.0639L225.146 211.159C225.227 211.555 225.041 211.955 224.68 212.137C220.777 214.109 198.528 224.817 175.153 225.128C151.731 225.438 129.441 214.178 125.603 212.141C125.253 211.954 125.077 211.562 125.157 211.173L149.015 95.0639Z" fill="#577096" fill-opacity="0.75"/>
    </mask>
    <g mask="url(#mask1_931_113783)">
    <g filter="url(#filter1_f_931_113783)">
    <path d="M207.362 76.1064C211.019 110.268 146.094 132.571 113.174 139.453L113.174 76.1064L207.362 76.1064Z" fill="url(#paint2_linear_931_113783)" fill-opacity="0.5"/>
    </g>
    <g filter="url(#filter2_f_931_113783)">
    <path d="M155.56 125.301C156.622 105.018 134.624 86.1828 129.082 66.9985C133.541 65.1973 144.203 70.7896 152.828 76.1247C163.609 82.7936 163.032 109.124 164.778 125.784C166.175 139.112 148.606 223.401 144.168 241.481L131.869 240.837C140.395 214.68 154.74 140.955 155.56 125.301Z" fill="url(#paint3_linear_931_113783)" fill-opacity="0.6"/>
    </g>
    </g>
    </g>
    </g>
    <defs>
    <filter id="filter0_f_931_113783" x="122.744" y="92.0573" width="104.986" height="135.355" filterUnits="userSpaceOnUse" color-interpolation-filters="sRGB">
    <feFlood flood-opacity="0" result="BackgroundImageFix"/>
    <feBlend mode="normal" in="SourceGraphic" in2="BackgroundImageFix" result="shape"/>
    <feGaussianBlur stdDeviation="1.13932" result="effect1_foregroundBlur_931_113783"/>
    </filter>
    <filter id="filter1_f_931_113783" x="112.262" y="75.195" width="96.1589" height="65.1696" filterUnits="userSpaceOnUse" color-interpolation-filters="sRGB">
    <feFlood flood-opacity="0" result="BackgroundImageFix"/>
    <feBlend mode="normal" in="SourceGraphic" in2="BackgroundImageFix" result="shape"/>
    <feGaussianBlur stdDeviation="0.455729" result="effect1_foregroundBlur_931_113783"/>
    </filter>
    <filter id="filter2_f_931_113783" x="128.17" y="65.7428" width="37.5978" height="176.65" filterUnits="userSpaceOnUse" color-interpolation-filters="sRGB">
    <feFlood flood-opacity="0" result="BackgroundImageFix"/>
    <feBlend mode="normal" in="SourceGraphic" in2="BackgroundImageFix" result="shape"/>
    <feGaussianBlur stdDeviation="0.455729" result="effect1_foregroundBlur_931_113783"/>
    </filter>
    <radialGradient id="paint0_radial_931_113783" cx="0" cy="0" r="1" gradientUnits="userSpaceOnUse" gradientTransform="translate(156.087 109.102) rotate(53.0717) scale(37.8406 40.3077)">
    <stop offset="0.203125" style="stop-color: #21F6EA;"/>
    <stop offset="0.890625" style="stop-color: #2183F6;"/>
    </radialGradient>
    <radialGradient id="paint1_radial_931_113783" cx="0" cy="0" r="1" gradientUnits="userSpaceOnUse" gradientTransform="translate(156.087 109.101) rotate(53.0717) scale(37.8406 40.3077)">
    <stop offset="0.203125" stop-color="#71FF30"/>
    <stop offset="0.890625" stop-color="#25BC46"/>
    </radialGradient>
    <linearGradient id="paint2_linear_931_113783" x1="145.368" y1="123.01" x2="155.982" y2="72.2914" gradientUnits="userSpaceOnUse">
    <stop stop-color="white" stop-opacity="0"/>
    <stop offset="0.471361" stop-color="white"/>
    <stop offset="1" stop-color="white"/>
    </linearGradient>
    <linearGradient id="paint3_linear_931_113783" x1="160.882" y1="220.938" x2="202.107" y2="178" gradientUnits="userSpaceOnUse">
    <stop stop-color="#F2F2F2"/>
    <stop offset="0.0001" stop-color="#F2F2F2"/>
    <stop offset="0.0520833" stop-color="#F2F2F2" stop-opacity="0.948011"/>
    <stop offset="1" stop-color="#F2F2F2" stop-opacity="0"/>
    </linearGradient>
    </defs>
  
    
  <!-- Lava 2 -->
    <!-- Color -->
<path d="M178.202 131.059C178.202 128.163 180.222 122.394 188.299 122.479C196.377 122.565 198.468 128.235 198.504 131.059C198.576 133.132 197.365 137.622 191.952 138.995C185.184 140.711 178.202 136.85 178.202 131.059Z" fill="url(#paint0_radial_931_113845)"/>
<defs>
<radialGradient id="paint0_radial_931_113845" cx="0" cy="0" r="1" gradientUnits="userSpaceOnUse" gradientTransform="translate(182.959 126.151) rotate(45.5119) scale(10.2292 11.3416)">
<stop offset="0.203125" style="stop-color: #321A93;"/>
<stop offset="0.890625" style="stop-color: #3603FF;"/>
</radialGradient>
</defs>
  
    
  <!-- Lava 3 -->
    <!-- Color -->
    <path d="M214.381 157.604L219.2 181.084C217.285 183.349 214.448 185.339 210.334 186.382C197.471 189.642 184.2 182.306 184.2 171.303C184.2 165.801 188.039 154.839 203.392 155.002C208.021 155.051 211.616 156.065 214.381 157.604Z" fill="url(#paint0_radial_931_113862)"/>
<defs>
<radialGradient id="paint0_radial_931_113862" cx="0" cy="0" r="1" gradientUnits="userSpaceOnUse" gradientTransform="translate(192.4 161.977) rotate(48.2936) scale(18.5718 20.4588)">
<stop offset="0.203125" style="stop-color: #FFFFFF;"/>
<stop offset="0.890625" style="stop-color: #D0C9C9;"/>
</radialGradient>
</defs>
  
    
  <!-- Lava 4 -->
    <!-- Color -->
    <path d="M225 210.659C220.5 214 200.704 225 175.402 225C147.201 225 128.492 213.024 125.354 210.869C125.163 210.738 125.042 210.543 125 210.328C128.968 198.996 144.393 175.959 164.496 181.99C174.451 184.976 181.421 192.474 187.975 199.525C198.127 210.446 208 213.5 225 210.659C224.675 211.045 225.345 210.27 225 210.659Z" fill="url(#paint0_radial_931_113863)"/>
<mask id="mask0_931_113863" style="mask-type:alpha" maskUnits="userSpaceOnUse" x="124" y="180" width="101" height="45">
<path d="M223.866 211.799C218.236 215.343 200.575 225 175.272 225C147.071 225 128.362 213.003 125.225 210.845C125.034 210.714 124.912 210.519 124.87 210.303C128.839 198.951 144.263 175.875 164.366 181.916C174.321 184.908 181.291 192.418 187.845 199.481C197.997 210.421 207.154 220.288 224.87 210.635C224.545 211.021 224.21 211.409 223.866 211.799Z" fill="url(#paint1_radial_931_113863)"/>
</mask>
<g mask="url(#mask0_931_113863)">
<g filter="url(#filter0_f_931_113863)">
<mask id="mask1_931_113863" style="mask-type:alpha" maskUnits="userSpaceOnUse" x="124" y="94" width="102" height="132">
<path d="M148.862 95.3198C148.949 94.896 149.322 94.5918 149.755 94.5918H200.246C200.679 94.5918 201.052 94.896 201.139 95.3198L224.993 211.414C225.075 211.811 224.888 212.211 224.527 212.393C220.624 214.365 198.376 225.073 175 225.383C151.578 225.694 129.288 214.434 125.45 212.396C125.1 212.21 124.924 211.818 125.004 211.429L148.862 95.3198Z" fill="#577096" fill-opacity="0.75"/>
</mask>
<g mask="url(#mask1_931_113863)">
<g filter="url(#filter1_f_931_113863)">
<path d="M155.407 125.557C156.47 105.273 134.471 86.4386 128.929 67.2543C133.388 65.4531 144.05 71.0455 152.675 76.3806C163.456 83.0494 162.879 109.38 164.625 126.04C166.022 139.368 148.453 223.657 144.015 241.737L131.716 241.093C140.242 214.936 154.587 141.211 155.407 125.557Z" fill="url(#paint2_linear_931_113863)" fill-opacity="0.6"/>
</g>
</g>
</g>
</g>
<defs>
<filter id="filter0_f_931_113863" x="122.591" y="92.3132" width="105.59" height="135.355" filterUnits="userSpaceOnUse" color-interpolation-filters="sRGB">
<feFlood flood-opacity="0" result="BackgroundImageFix"/>
<feBlend mode="normal" in="SourceGraphic" in2="BackgroundImageFix" result="shape"/>
<feGaussianBlur stdDeviation="1.13932" result="effect1_foregroundBlur_931_113863"/>
</filter>
<filter id="filter1_f_931_113863" x="128.017" y="65.9987" width="37.5983" height="176.65" filterUnits="userSpaceOnUse" color-interpolation-filters="sRGB">
<feFlood flood-opacity="0" result="BackgroundImageFix"/>
<feBlend mode="normal" in="SourceGraphic" in2="BackgroundImageFix" result="shape"/>
<feGaussianBlur stdDeviation="0.455729" result="effect1_foregroundBlur_931_113863"/>
</filter>
<radialGradient id="paint0_radial_931_113863" cx="0" cy="0" r="1" gradientUnits="userSpaceOnUse" gradientTransform="translate(148.451 190.545) rotate(28.2255) scale(40.1081 37.0676)">
<stop offset="0.203125" style="stop-color: #321A93;"/>
<stop offset="0.890625" style="stop-color: #3603FF;"/>
</radialGradient>
<radialGradient id="paint1_radial_931_113863" cx="0" cy="0" r="1" gradientUnits="userSpaceOnUse" gradientTransform="translate(146.382 191.229) rotate(27.0849) scale(58.9221 42.3164)">
<stop offset="0.302083" stop-color="#FFB800"/>
<stop offset="1" stop-color="#FF7800"/>
</radialGradient>
<linearGradient id="paint2_linear_931_113863" x1="160.729" y1="221.194" x2="201.954" y2="178.256" gradientUnits="userSpaceOnUse">
<stop stop-color="#F2F2F2"/>
<stop offset="0.0001" stop-color="#F2F2F2"/>
<stop offset="0.0520833" stop-color="#F2F2F2" stop-opacity="0.948011"/>
<stop offset="1" stop-color="#F2F2F2" stop-opacity="0"/>
</linearGradient>
</defs>
  
  
    
  <!-- Diamond Standard -->
  <path d="M125.511 312.015C125.13 311.81 124.966 311.367 125.102 310.956L138.023 271.847C138.074 271.692 138.083 271.527 138.048 271.368L125.382 212.874C125.204 212.051 126.171 211.397 126.886 211.843C132.551 215.376 149.852 224.677 174.998 224.677C200.145 224.677 217.446 215.376 223.111 211.843C223.825 211.397 224.793 212.051 224.615 212.874L211.949 271.368C211.914 271.527 211.923 271.692 211.974 271.847L224.895 310.956C225.031 311.367 224.867 311.81 224.485 312.015C220.652 314.075 200.122 324.434 174.998 324.434C149.875 324.434 129.345 314.075 125.511 312.015Z" fill="url(#paint0_linear_737_226371)"/>
  <g filter="url(#filter0_f_737_226371)">
    <mask id="mask0_737_226371" style="mask-type:alpha" maskUnits="userSpaceOnUse" x="125" y="211" width="101" height="114">
      <path d="M125.642 312.073C125.261 311.869 125.097 311.425 125.233 311.014L138.154 271.881C138.205 271.726 138.214 271.561 138.18 271.402L125.374 212.226C125.217 211.503 125.939 210.879 126.634 211.134C131.867 213.055 149.387 218.68 175.13 218.68C200.873 218.68 218.393 213.055 223.626 211.134C224.321 210.879 225.043 211.503 224.886 212.226L212.08 271.402C212.046 271.561 212.055 271.726 212.106 271.881L225.027 311.014C225.163 311.425 224.999 311.869 224.618 312.073C220.785 314.134 200.254 324.5 175.13 324.5C150.006 324.5 129.475 314.134 125.642 312.073Z" fill="#2D2E32"/>
      <path d="M125.642 312.073C125.261 311.869 125.097 311.425 125.233 311.014L138.154 271.881C138.205 271.726 138.214 271.561 138.18 271.402L125.374 212.226C125.217 211.503 125.939 210.879 126.634 211.134C131.867 213.055 149.387 218.68 175.13 218.68C200.873 218.68 218.393 213.055 223.626 211.134C224.321 210.879 225.043 211.503 224.886 212.226L212.08 271.402C212.046 271.561 212.055 271.726 212.106 271.881L225.027 311.014C225.163 311.425 224.999 311.869 224.618 312.073C220.785 314.134 200.254 324.5 175.13 324.5C150.006 324.5 129.475 314.134 125.642 312.073Z" fill="url(#paint1_linear_737_226371)"/>
    </mask>
    <g mask="url(#mask0_737_226371)">
      <g opacity="0.25" filter="url(#filter1_df_737_226371)">
        <path d="M74.3257 272.825C169.438 275.529 231.534 227.54 250.693 203.208H74.3257V272.825Z" fill="url(#paint2_linear_737_226371)" fill-opacity="0.55" shape-rendering="crispEdges"/>
      </g>
      <path opacity="0.25" d="M135.363 266.428C135.363 243.578 108.929 195.563 99.1391 174.336C105.666 172.051 122.049 168.85 135.363 174.336C152.007 181.194 157.629 243.465 161.546 262.079C164.678 276.971 140.585 326.189 135.363 346.763H69.7681C119.699 320.311 135.363 284.062 135.363 266.428Z" fill="url(#paint3_radial_737_226371)"/>
      <path opacity="0.25" d="M149.946 270.53C149.946 247.679 123.512 199.665 113.722 178.438C120.249 176.152 136.632 172.952 149.946 178.438C166.59 185.296 172.212 247.567 176.129 266.181C179.261 281.072 155.168 330.291 149.946 350.865H84.3511C134.282 324.413 149.946 288.164 149.946 270.53Z" fill="url(#paint4_radial_737_226371)"/>
    </g>
  </g>
  <mask id="mask1_737_226371" style="mask-type:alpha" maskUnits="userSpaceOnUse" x="125" y="212" width="100" height="113">
    <path d="M125.513 312.516C125.132 312.311 124.968 311.867 125.103 311.456L138.025 272.347C138.076 272.192 138.084 272.027 138.05 271.868L125.384 213.374C125.205 212.551 126.173 211.897 126.887 212.342C132.552 215.876 149.854 225.177 175 225.177C200.147 225.177 217.448 215.876 223.114 212.342C223.828 211.897 224.795 212.551 224.617 213.374L211.951 271.868C211.916 272.027 211.925 272.192 211.976 272.347L224.897 311.456C225.033 311.867 224.869 312.311 224.488 312.516C220.655 314.575 200.124 324.935 175 324.935C149.877 324.935 129.346 314.575 125.513 312.516Z" fill="url(#paint5_linear_737_226371)"/>
  </mask>
  <g mask="url(#mask1_737_226371)">
    <g style="mix-blend-mode:overlay">
      <circle cx="146.594" cy="302.831" r="1.22977" fill="white">
        <animate attributeName="opacity" values="1;0;1" dur="2.1s" repeatCount="indefinite" />
      </circle>
      <circle cx="137.222" cy="247.41" r="1.22977" fill="white">
        <animate attributeName="opacity" values="1;0;1" dur="2.3s" repeatCount="indefinite" />
      </circle>
      <circle cx="158.355" cy="262.299" r="1.22977" fill="white">
        <animate attributeName="opacity" values="1;0;1" dur="2.6s" repeatCount="indefinite" />
      </circle>
      <circle cx="160.734" cy="240.943" r="1.22977" fill="white">
        <animate attributeName="opacity" values="1;0;1" dur="2.5s" repeatCount="indefinite" />
      </circle>
      <circle cx="180.449" cy="294.479" r="1.22977" fill="white">
        <animate attributeName="opacity" values="1;0;1" dur="2.9s" repeatCount="indefinite" />
      </circle>
      <circle cx="215.03" cy="294.479" r="1.22977" fill="white">
        <animate attributeName="opacity" values="1;0;1" dur="2.7s" repeatCount="indefinite" />
      </circle>
      <circle cx="198.699" cy="320.414" r="1.22977" fill="white">
        <animate attributeName="opacity" values="1;0;1" dur="2.2s" repeatCount="indefinite" />
      </circle>
      <path d="M141.688 290.765L141.246 289.568L140.049 289.125L141.246 288.682L141.688 287.485L142.131 288.682L143.328 289.125L142.131 289.568L141.688 290.765Z" fill="#FFF7B0">
        <animate attributeName="opacity" values="1;0;1" dur="2.8s" repeatCount="indefinite" />
      </path>
      <path d="M188.813 264.887L188.038 262.793L185.943 262.018L188.038 261.243L188.813 259.148L189.588 261.243L191.682 262.018L189.588 262.793L188.813 264.887Z" fill="#FFF7B0">
        <animate attributeName="opacity" values="1;0;1" dur="2.4s" repeatCount="indefinite" />
      </path>
      <path d="M175.134 239.528L174.359 237.434L172.265 236.658L174.359 235.883L175.134 233.789L175.909 235.883L178.004 236.658L175.909 237.434L175.134 239.528Z" fill="#FFF7B0">
        <animate attributeName="opacity" values="1;0;1" dur="2.1s" repeatCount="indefinite" />
      </path>
      <path d="M161.463 315.635L160.688 313.54L158.593 312.765L160.688 311.99L161.463 309.896L162.238 311.99L164.332 312.765L162.238 313.54L161.463 315.635Z" fill="#FFF7B0">
        <animate attributeName="opacity" values="1;0;1" dur="2.3s" repeatCount="indefinite" />
      </path>
      <path d="M197.009 295.583L196.234 293.488L194.14 292.713L196.234 291.938L197.009 289.844L197.784 291.938L199.879 292.713L197.784 293.488L197.009 295.583Z" fill="#FFF7B0">
        <animate attributeName="opacity" values="1;0;1" dur="2.6s" repeatCount="indefinite" />
      </path>
      <path d="M206.115 246.18L204.428 241.623L199.871 239.937L204.428 238.25L206.115 233.693L207.801 238.25L212.358 239.937L207.801 241.623L206.115 246.18Z" fill="#FFF7B0">
        <animate attributeName="opacity" values="1;0;1" dur="2.5s" repeatCount="indefinite" />
      </path>
      <path opacity="0.25" d="M147.199 237.435L143.63 227.788L133.983 224.219L143.63 220.649L147.199 211.003L150.769 220.649L160.416 224.219L150.769 227.788L147.199 237.435Z" fill="#FFF7B0">
        <animate attributeName="opacity" values="0.25;0;0.25" dur="2.9s" repeatCount="indefinite" />
      </path>
      <path opacity="0.25" d="M161.783 298.958L158.214 289.145L148.567 285.514L158.214 281.883L161.783 272.07L165.353 281.883L175 285.514L165.353 289.145L161.783 298.958Z" fill="#FFF7B0">
        <animate attributeName="opacity" values="0.25;0;0.25" dur="2.7s" repeatCount="indefinite" />
      </path>
      <path opacity="0.25" d="M211.686 280.273L208.547 271.791L200.064 268.652L208.547 265.514L211.686 257.031L214.824 265.514L223.307 268.652L214.824 271.791L211.686 280.273Z" fill="#FFF7B0">
        <animate attributeName="opacity" values="0.25;0;0.25" dur="2.2s" repeatCount="indefinite" />
      </path>
    </g>
  </g>
  <path d="M154.31 56.3282C154.32 56.2595 154.322 56.1924 154.328 56.1233C154.4 55.3956 155.624 51 174.785 51C194.296 51 195.584 55.5581 195.668 56.1595C195.675 56.2036 195.678 56.2468 195.684 56.2909L201.374 94.8616C201.411 95.1109 201.344 95.3615 201.167 95.5407C199.834 96.8878 193.192 102.497 175 102.497C156.807 102.497 150.165 96.8878 148.832 95.5407C148.655 95.3615 148.588 95.1109 148.625 94.8616L154.31 56.3282Z" fill="url(#paint6_linear_737_226371)"/>
  <mask id="mask2_737_226371" style="mask-type:alpha" maskUnits="userSpaceOnUse" x="148" y="51" width="54" height="52">
    <path d="M154.31 56.3282C154.32 56.2595 154.322 56.1924 154.328 56.1233C154.4 55.3956 155.624 51 174.785 51C194.296 51 195.584 55.5581 195.668 56.1595C195.675 56.2036 195.678 56.2468 195.684 56.2909L201.374 94.8616C201.411 95.1109 201.344 95.3615 201.167 95.5407C199.834 96.8878 193.192 102.497 175 102.497C156.807 102.497 150.165 96.8878 148.832 95.5407C148.655 95.3615 148.588 95.1109 148.625 94.8616L154.31 56.3282Z" fill="url(#paint7_linear_737_226371)"/>
  </mask>
  <g mask="url(#mask2_737_226371)">
    <g style="mix-blend-mode:overlay">
      <circle cx="156.736" cy="70.7101" r="1.21779" fill="white">
        <animate attributeName="opacity" values="1;0;1" dur="2.1s" repeatCount="indefinite" />
      </circle>
      <circle cx="159.47" cy="53.3596" r="1.21779" transform="rotate(75 159.47 53.3596)" fill="white">
        <animate attributeName="opacity" values="1;0;1" dur="2.3s" repeatCount="indefinite" />
      </circle>
      <circle cx="175.928" cy="82.9127" r="1.21779" transform="rotate(75 175.928 82.9127)" fill="white">
        <animate attributeName="opacity" values="1;0;1" dur="2.6s" repeatCount="indefinite" />
      </circle>
      <circle cx="195.706" cy="83.2129" r="1.21779" fill="white">
        <animate attributeName="opacity" values="1;0;1" dur="2.5s" repeatCount="indefinite" />
      </circle>
      <path d="M184.601 100.356L183.833 98.2823L181.759 97.5148L183.833 96.7474L184.601 94.6733L185.368 96.7474L187.442 97.5148L185.368 98.2823L184.601 100.356Z" fill="#FFF7B0">
        <animate attributeName="opacity" values="1;0;1" dur="2.9s" repeatCount="indefinite" />
      </path>
      <path d="M167.847 65.3643L167.08 63.2903L165.005 62.5228L167.08 61.7553L167.847 59.6813L168.614 61.7553L170.688 62.5228L168.614 63.2903L167.847 65.3643Z" fill="#FFF7B0">
        <animate attributeName="opacity" values="1;0;1" dur="2.7s" repeatCount="indefinite" />
      </path>
      <path d="M183.766 77.6465L182.998 75.5725L180.924 74.805L182.998 74.0376L183.766 71.9635L184.533 74.0376L186.607 74.805L184.533 75.5725L183.766 77.6465Z" fill="#FFF7B0">
        <animate attributeName="opacity" values="1;0;1" dur="2.2s" repeatCount="indefinite" />
      </path>
      <path opacity="0.25" d="M162.696 95.6614L160.357 89.3413L154.037 87.0026L160.357 84.6639L162.696 78.3437L165.034 84.6639L171.354 87.0026L165.034 89.3413L162.696 95.6614Z" fill="#FFF7B0">
        <animate attributeName="opacity" values="0.25;0;0.25" dur="2.8s" repeatCount="indefinite" />
      </path>
      <path opacity="0.25" d="M192.773 65.1276L190.434 58.8074L184.114 56.4687L190.434 54.13L192.773 47.8099L195.111 54.13L201.432 56.4687L195.111 58.8074L192.773 65.1276Z" fill="#FFF7B0">
        <animate attributeName="opacity" values="0.25;0;0.25" dur="2.4s" repeatCount="indefinite" />
      </path>
    </g>
  </g>
  <path d="M175.436 324.935C200.389 324.935 220.779 314.575 224.586 312.516C224.965 312.311 225.128 311.867 224.993 311.457L212.16 272.347C212.109 272.193 212.101 272.028 212.135 271.869L224.853 212.73C224.994 212.074 224.42 211.501 223.797 211.588C224.206 211.32 224.529 211.099 224.763 210.935C225.051 210.733 225.18 210.383 225.109 210.037L201.396 93.6991C201.342 93.432 201.175 93.2124 200.951 93.0865L195.579 55.4304C195.574 55.4032 195.571 55.3765 195.568 55.3497C195.566 55.3286 195.563 55.3074 195.56 55.286C195.469 54.6603 194.146 50.1327 174.999 50.1327L175.436 324.935Z" fill="#161A70" fill-opacity="0.1"/>

  <defs>
    <filter id="filter0_f_737_226371" x="121.721" y="208.221" width="106.185" height="118.557" filterUnits="userSpaceOnUse" color-interpolation-filters="sRGB">
      <feFlood flood-opacity="0" result="BackgroundImageFix"/>
      <feBlend mode="normal" in="SourceGraphic" in2="BackgroundImageFix" result="shape"/>
      <feGaussianBlur stdDeviation="1.13932" result="effect1_foregroundBlur_737_226371"/>
    </filter>
    <filter id="filter1_df_737_226371" x="72.9585" y="202.297" width="179.102" height="72.9167" filterUnits="userSpaceOnUse" color-interpolation-filters="sRGB">
      <feFlood flood-opacity="0" result="BackgroundImageFix"/>
      <feColorMatrix in="SourceAlpha" type="matrix" values="0 0 0 0 0 0 0 0 0 0 0 0 0 0 0 0 0 0 127 0" result="hardAlpha"/>
      <feOffset dy="0.911458"/>
      <feGaussianBlur stdDeviation="0.683594"/>
      <feComposite in2="hardAlpha" operator="out"/>
      <feColorMatrix type="matrix" values="0 0 0 0 0 0 0 0 0 0 0 0 0 0 0 0 0 0 0.25 0"/>
      <feBlend mode="normal" in2="BackgroundImageFix" result="effect1_dropShadow_737_226371"/>
      <feBlend mode="normal" in="SourceGraphic" in2="effect1_dropShadow_737_226371" result="shape"/>
      <feGaussianBlur stdDeviation="0.455729" result="effect2_foregroundBlur_737_226371"/>
    </filter>
    <linearGradient id="paint0_linear_737_226371" x1="124.869" y1="224.63" x2="241.04" y2="324.479" gradientUnits="userSpaceOnUse">
      <stop offset="0.109375" stop-color="#6A9EE2"/>
      <stop offset="0.401042" stop-color="#4883C2" stop-opacity="0.98"/>
      <stop offset="0.677083" stop-color="#9CCBF4" stop-opacity="0.98"/>
      <stop offset="0.958333" stop-color="#E8F3FC" stop-opacity="0.98"/>
    </linearGradient>
    <linearGradient id="paint1_linear_737_226371" x1="125" y1="210.5" x2="242.237" y2="295.853" gradientUnits="userSpaceOnUse">
      <stop stop-color="#C3C3C3"/>
      <stop offset="1" stop-color="#C3C3C3" stop-opacity="0.15"/>
    </linearGradient>
    <linearGradient id="paint2_linear_737_226371" x1="204.912" y1="227.004" x2="114.012" y2="298.665" gradientUnits="userSpaceOnUse">
      <stop stop-color="white" stop-opacity="0"/>
      <stop offset="0.471361" stop-color="white"/>
      <stop offset="1" stop-color="white"/>
    </linearGradient>
    <radialGradient id="paint3_radial_737_226371" cx="0" cy="0" r="1" gradientUnits="userSpaceOnUse" gradientTransform="translate(123.95 264.847) rotate(79.4004) scale(83.3383 37.0268)">
      <stop stop-color="#F2F2F2"/>
      <stop offset="0.0001" stop-color="#F2F2F2"/>
      <stop offset="1" stop-color="#F2F2F2" stop-opacity="0"/>
    </radialGradient>
    <radialGradient id="paint4_radial_737_226371" cx="0" cy="0" r="1" gradientUnits="userSpaceOnUse" gradientTransform="translate(138.533 268.948) rotate(79.4004) scale(83.3383 37.0268)">
      <stop stop-color="#F2F2F2"/>
      <stop offset="0.0001" stop-color="#F2F2F2"/>
      <stop offset="1" stop-color="#F2F2F2" stop-opacity="0"/>
    </radialGradient>
    <linearGradient id="paint5_linear_737_226371" x1="124.87" y1="225.13" x2="241.042" y2="324.98" gradientUnits="userSpaceOnUse">
      <stop offset="0.109375" stop-color="#6A9EE2"/>
      <stop offset="0.401042" stop-color="#4883C2" stop-opacity="0.98"/>
      <stop offset="0.677083" stop-color="#9CCBF4" stop-opacity="0.98"/>
      <stop offset="0.958333" stop-color="#E8F3FC" stop-opacity="0.98"/>
    </linearGradient>
    <linearGradient id="paint6_linear_737_226371" x1="141.731" y1="29.125" x2="227.549" y2="135.247" gradientUnits="userSpaceOnUse">
      <stop offset="0.109375" stop-color="#6A9EE2"/>
      <stop offset="0.401042" stop-color="#4883C2" stop-opacity="0.98"/>
      <stop offset="0.677083" stop-color="#9CCBF4" stop-opacity="0.98"/>
      <stop offset="0.958333" stop-color="#E8F3FC" stop-opacity="0.98"/>
    </linearGradient>
    <linearGradient id="paint7_linear_737_226371" x1="141.731" y1="29.125" x2="227.549" y2="135.247" gradientUnits="userSpaceOnUse">
      <stop offset="0.109375" stop-color="#6A9EE2"/>
      <stop offset="0.401042" stop-color="#4883C2" stop-opacity="0.98"/>
      <stop offset="0.677083" stop-color="#9CCBF4" stop-opacity="0.98"/>
      <stop offset="0.958333" stop-color="#E8F3FC" stop-opacity="0.98"/>
    </linearGradient>
  </defs>
  
    
    </svg>
  