
    <svg width="350" height="350" viewBox="0 0 350 350" fill="none" xmlns="http://www.w3.org/2000/svg">
    
  <!-- CottonCandy BG -->
  <g clip-path="url(#clip0_28_276)">
  <rect width="350" height="350" fill="white"/>
  <rect x="0.0788574" y="0.0444336" width="350" height="350" fill="#2183F7" fill-opacity="0.25"/>
  <path d="M125.979 290.538L299.832 190.751L430.987 233.879L212.56 294.049L125.979 290.538Z" fill="url(#paint0_linear_28_276)" fill-opacity="0.1"/>
  <g opacity="0.45" filter="url(#filter0_f_28_276)">
  <ellipse rx="194.596" ry="66.7643" transform="matrix(0.999998 0.00221055 0.00221055 -0.999998 176.078 304.638)" fill="url(#paint1_radial_28_276)"/>
  </g>
  <g opacity="0.7" filter="url(#filter1_f_28_276)">
  <ellipse cx="174.396" cy="137.609" rx="196.647" ry="242.448" transform="rotate(0.126655 174.396 137.609)" fill="url(#paint2_radial_28_276)"/>
  </g>
  </g>
  <defs>
  <filter id="filter0_f_28_276" x="-23.0756" y="233.315" width="398.306" height="142.646" filterUnits="userSpaceOnUse" color-interpolation-filters="sRGB">
  <feFlood flood-opacity="0" result="BackgroundImageFix"/>
  <feBlend mode="normal" in="SourceGraphic" in2="BackgroundImageFix" result="shape"/>
  <feGaussianBlur stdDeviation="2.27865" result="effect1_foregroundBlur_28_276"/>
  </filter>
  <filter id="filter1_f_28_276" x="-26.8085" y="-109.396" width="402.409" height="494.01" filterUnits="userSpaceOnUse" color-interpolation-filters="sRGB">
  <feFlood flood-opacity="0" result="BackgroundImageFix"/>
  <feBlend mode="normal" in="SourceGraphic" in2="BackgroundImageFix" result="shape"/>
  <feGaussianBlur stdDeviation="2.27865" result="effect1_foregroundBlur_28_276"/>
  </filter>
  <linearGradient id="paint0_linear_28_276" x1="194.836" y1="271.638" x2="316.537" y2="167.936" gradientUnits="userSpaceOnUse">
  <stop/>
  <stop offset="1" stop-color="#333333" stop-opacity="0"/>
  </linearGradient>
  <radialGradient id="paint1_radial_28_276" cx="0" cy="0" r="1" gradientUnits="userSpaceOnUse" gradientTransform="translate(194.596 76.624) rotate(99.1226) scale(43.9775 125.337)">
  <stop stop-color="#2183F7"/>
  <stop offset="1" stop-color="#2183F7" stop-opacity="0"/>
  </radialGradient>
  <radialGradient id="paint2_radial_28_276" cx="0" cy="0" r="1" gradientUnits="userSpaceOnUse" gradientTransform="translate(174.396 173.413) rotate(92.5586) scale(157.837 128.153)">
  <stop stop-color="#2183F7"/>
  <stop offset="1" stop-color="#2183F7" stop-opacity="0"/>
  </radialGradient>
  <clipPath id="clip0_28_276">
  <rect width="350" height="350" fill="white"/>
  </clipPath>
  </defs>

    
  <!-- LavaCeption Overlay -->
  <g style="mix-blend-mode:overlay" clip-path="url(#clip0_559_45925)">
  <circle cx="267.057" cy="334.049" r="28.7109" fill="white" fill-opacity="0.25"/>
  <circle cx="114.388" cy="66.5365" r="22.7865" fill="white" fill-opacity="0.25"/>
  <circle cx="279.362" cy="110.287" r="16.4062" fill="white" fill-opacity="0.25"/>
  <circle cx="8.20312" cy="234.701" r="16.4062" fill="white" fill-opacity="0.25"/>
  <circle cx="335.872" cy="14.5833" r="40.1042" fill="white" fill-opacity="0.25"/>
  <path d="M65.9326 288.461C29.3383 277.341 1.34401 320.346 -5.46875 340.81C53.705 430.699 146.791 390.296 179.557 350.911C127.002 379.87 111.675 302.361 65.9326 288.461Z" fill="white" fill-opacity="0.25"/>
  <path d="M296.664 236.375C285.544 199.781 328.549 171.787 349.013 164.974C438.902 224.148 398.499 317.234 359.115 350C388.074 297.444 310.565 282.118 296.664 236.375Z" fill="white" fill-opacity="0.25"/>
  <path d="M-26.4321 3.86974C-13.3545 0.661562 15.8469 6.61965 18.8009 32.2851C21.0691 51.9925 19.2624 85.9076 3.10779 101.032C-15.8162 118.749 -14.5043 160.554 12.8006 170.237C38.648 179.403 69.97 166.112 74.1882 144.572C80.545 112.109 53.2633 106.516 57.1104 74.9081C67.4481 -10.0259 219.591 11.8327 236.979 -4.55717C236.979 -87.4437 3.10779 -222.311 -26.4321 3.86974Z" fill="white" fill-opacity="0.25"/>
  </g>
  <defs>
  <clipPath id="clip0_559_45925">
  <rect width="350" height="350" fill="white"/>
  </clipPath>
  </defs>

    
  <!-- LavaKitty -->
  <path d="M98.4521 197.334C97.2413 196.223 96.3332 194.929 95.7186 193.543L95 186.483C95.6323 183.534 97.4223 180.812 100.292 179.087L104.357 176.643C107.09 174.999 110.176 174.643 112.982 175.334L119.003 179.057C119.951 180.178 120.701 181.508 121.177 183.018L127 200.5L123 223L98.4521 197.334Z" fill="url(#paint0_linear_902_111870)"/>
  <path d="M122.552 156.001C128.112 165.631 123.807 179.31 106.396 189.363C88.9849 199.415 74.9852 196.303 69.4256 186.674C64.4138 177.993 62.7287 158.917 82.2958 147.62C101.863 136.323 117.541 147.32 122.552 156.001Z" fill="#0C011C"/>
  <path fill-rule="evenodd" clip-rule="evenodd" d="M88.8612 169.966C90.5617 173.254 89.3911 177.331 86.1521 179.201C82.8179 181.126 78.5545 179.984 76.6295 176.649C74.7615 173.414 75.7818 169.303 78.8905 167.304C78.7857 167.358 78.6816 167.415 78.5783 167.475C74.9107 169.592 73.6541 174.282 75.7716 177.95C77.8891 181.617 82.5789 182.874 86.2465 180.756C89.9142 178.639 91.1708 173.949 89.0533 170.281C88.9914 170.174 88.9273 170.069 88.8612 169.966Z" fill="#6DF244"/>
  <circle cx="81.2727" cy="170.749" r="1.39422" transform="rotate(-30 81.2727 170.749)" fill="white"/>
  <circle cx="85.337" cy="170.816" r="0.697108" transform="rotate(-30 85.337 170.816)" fill="white"/>
  <path fill-rule="evenodd" clip-rule="evenodd" d="M109.017 167.611C105.349 169.729 100.659 168.472 98.5417 164.804C98.4794 164.697 98.4201 164.588 98.3637 164.479C100.36 167.597 104.477 168.622 107.717 166.752C111.051 164.827 112.194 160.563 110.269 157.229C108.4 153.993 104.329 152.822 101.042 154.516C101.142 154.452 101.244 154.389 101.348 154.329C105.016 152.212 109.706 153.469 111.823 157.136C113.941 160.804 112.684 165.494 109.017 167.611Z" fill="#6DF244"/>
  <circle r="1.39422" transform="matrix(-0.866025 0.5 0.5 0.866025 102.836 158.301)" fill="white"/>
  <circle r="0.697108" transform="matrix(-0.866025 0.5 0.5 0.866025 100.862 161.855)" fill="white"/>
  <path d="M101.975 172.942C102.278 173.466 101.646 176.295 99.5497 177.505C97.4539 178.715 94.6881 177.848 94.3856 177.324C94.0831 176.8 95.5369 175.394 97.6327 174.184C99.7285 172.974 101.673 172.418 101.975 172.942Z" fill="#B97C99"/>
  <path d="M103.875 126.939C96.3872 129.744 92.3582 139.49 89.4828 144.734C104.079 139.343 112.84 146.849 115.67 151.751C115.874 141.514 111.363 124.134 103.875 126.939Z" fill="#0C011C"/>
  <path d="M103.697 131.614C98.244 133.677 96.209 140.16 94.09 143.947C101.29 141.081 110.485 144.378 112.51 147.885C112.72 140.524 109.149 129.552 103.697 131.614Z" fill="url(#paint1_linear_902_111870)"/>
  <path d="M53.8848 155.801C60.0581 150.719 70.5125 152.102 76.4916 152.234C64.5244 162.179 66.6449 173.52 69.4749 178.422C60.5076 173.48 47.7115 160.883 53.8848 155.801Z" fill="#0C011C"/>
  <path d="M58.0253 157.982C62.5374 154.291 69.1694 155.771 73.509 155.829C67.4272 160.632 65.6846 170.244 67.7094 173.75C61.2297 170.251 53.5132 161.673 58.0253 157.982Z" fill="url(#paint2_linear_902_111870)"/>
  <path d="M109.478 174.779C111.255 177.857 108.127 181.406 104.911 181.52" stroke="white" stroke-opacity="0.45" stroke-width="1.09546" stroke-linecap="round"/>
  <path d="M86.084 212.841L84.8646 214.426L86.084 212.841ZM74.3944 222.289C73.4065 222.783 72.2051 222.382 71.7111 221.394C71.2172 220.406 71.6176 219.205 72.6056 218.711L74.3944 222.289ZM121.5 220C123.358 220.741 123.357 220.743 123.356 220.745C123.356 220.746 123.355 220.748 123.354 220.749C123.353 220.752 123.352 220.755 123.351 220.758C123.348 220.764 123.346 220.77 123.343 220.776C123.338 220.789 123.332 220.803 123.325 220.818C123.312 220.849 123.296 220.884 123.277 220.923C123.239 221.001 123.189 221.097 123.126 221.207C122.999 221.427 122.817 221.703 122.563 222.014C122.052 222.64 121.264 223.391 120.079 224.109C117.708 225.547 113.844 226.798 107.584 226.798V222.798C113.325 222.798 116.419 221.651 118.006 220.689C118.799 220.208 119.24 219.759 119.464 219.485C119.577 219.347 119.638 219.248 119.663 219.206C119.675 219.184 119.678 219.177 119.674 219.185C119.672 219.189 119.669 219.197 119.663 219.209C119.66 219.215 119.657 219.222 119.654 219.231C119.652 219.235 119.65 219.239 119.648 219.244C119.648 219.246 119.647 219.249 119.646 219.251C119.645 219.252 119.644 219.254 119.644 219.255C119.643 219.257 119.642 219.259 121.5 220ZM107.584 226.798C101.061 226.798 96.5169 224.57 92.987 221.845C91.2533 220.507 89.7688 219.053 88.4571 217.752C87.1098 216.416 85.9921 215.294 84.8646 214.426L87.3034 211.256C88.6759 212.312 89.9957 213.645 91.2734 214.912C92.5867 216.214 93.9147 217.508 95.4311 218.679C98.4013 220.971 102.108 222.798 107.584 222.798V226.798ZM84.8646 214.426C79.0437 209.949 71.9102 210.447 68.0555 212.589L66.1126 209.093C71.2561 206.235 80.1243 205.733 87.3034 211.256L84.8646 214.426ZM68.0555 212.589C65.9625 213.752 64.3645 215.051 63.3426 216.662C62.3458 218.234 61.7883 220.274 62.075 223.142L58.0948 223.54C57.7319 219.908 58.4244 216.948 59.9648 214.52C61.4801 212.131 63.7065 210.43 66.1126 209.093L68.0555 212.589ZM62.075 223.142C62.3411 225.805 63.5348 227.527 65.0497 228.695C66.622 229.907 68.6121 230.568 70.4137 230.868L69.7561 234.814C67.5581 234.448 64.873 233.609 62.6076 231.863C60.2848 230.072 58.4783 227.377 58.0948 223.54L62.075 223.142ZM70.4137 230.868C73.9655 231.46 77.7847 230.34 79.2565 227.029L82.9117 228.653C80.3835 234.342 74.2035 235.555 69.7561 234.814L70.4137 230.868ZM79.2565 227.029C79.8871 225.61 79.5028 224.003 78.4739 222.93C77.5001 221.915 76.0368 221.468 74.3944 222.289L72.6056 218.711C75.9632 217.032 79.2919 218.005 81.3602 220.161C83.3733 222.259 84.2811 225.572 82.9117 228.653L79.2565 227.029Z" fill="url(#paint3_linear_902_111870)"/>
  <defs>
  <linearGradient id="paint0_linear_902_111870" x1="127" y1="206.5" x2="104.5" y2="181" gradientUnits="userSpaceOnUse">
  <stop stop-color="#0C011C"/>
  <stop offset="1" stop-color="#423752"/>
  </linearGradient>
  <linearGradient id="paint1_linear_902_111870" x1="98.8482" y1="134.269" x2="112.259" y2="148.03" gradientUnits="userSpaceOnUse">
  <stop stop-color="#9C789B"/>
  <stop offset="1" stop-color="#5B5252" stop-opacity="0"/>
  </linearGradient>
  <linearGradient id="paint2_linear_902_111870" x1="62.7485" y1="155.111" x2="67.9605" y2="173.605" gradientUnits="userSpaceOnUse">
  <stop stop-color="#9C789B"/>
  <stop offset="1" stop-color="#5B5252" stop-opacity="0"/>
  </linearGradient>
  <linearGradient id="paint3_linear_902_111870" x1="63.083" y1="223.298" x2="122.083" y2="215.298" gradientUnits="userSpaceOnUse">
  <stop stop-color="#2F1F47"/>
  <stop offset="0.855778"/>
  </linearGradient>
  </defs>
    
    
  <!-- Normal Glass -->
    <path d="M148.717 95L125.019 209.98C124.948 210.324 125.078 210.673 125.367 210.873C128.479 213.027 147.033 225 175 225C202.967 225 221.521 213.027 224.633 210.873C224.922 210.673 225.052 210.324 224.981 209.98L201.283 95C201.249 95.0666 201.205 95.1285 201.15 95.1836C199.818 96.5241 193.18 102.106 175 102.106C156.82 102.106 150.182 96.5241 148.85 95.1836C148.795 95.1285 148.751 95.0666 148.717 95Z" fill="#FFFA8D" fill-opacity="0.6"/>
  
    
    
    <!-- Lava 1 -->
    <!-- Color -->
    <!-- filter -->
    <path d="M201.33 94.2312L205.4 114.032C203.808 113.761 202.153 113.448 200.459 113.128C186.293 110.453 169.479 107.277 165.223 123.731C163.365 130.915 166.057 135.213 168.676 139.394C171.205 143.431 173.665 147.359 171.9 153.669C169.751 161.35 158.067 166.325 148.671 162.995C138.746 159.477 139.443 144.904 145.148 137.85C150.853 130.795 151.677 120.031 150.853 112.871C150.454 109.41 148.742 106.935 146.502 105.251L148.841 93.8809C148.875 93.9478 148.92 94.0101 148.975 94.0656C150.853 95.9589 156.979 101.03 175.237 101.03C192.824 101.03 199.656 95.8196 201.33 94.2312Z" fill="url(#paint0_radial_931_113783)"/>
    <mask id="mask0_931_113783" style="mask-type:alpha" maskUnits="userSpaceOnUse" x="141" y="93" width="65" height="72">
    <path d="M201.33 94.2302L205.4 114.031C203.808 113.76 202.153 113.447 200.459 113.127C186.293 110.452 169.479 107.276 165.223 123.73C163.365 130.914 166.057 135.212 168.676 139.393C171.205 143.43 173.665 147.358 171.9 153.668C169.751 161.349 158.067 166.324 148.671 162.994C138.746 159.476 139.443 144.903 145.148 137.849C150.853 130.794 151.677 120.03 150.853 112.87C150.454 109.409 148.742 106.934 146.502 105.25L148.841 93.8799C148.875 93.9469 148.92 94.0092 148.975 94.0646C150.313 95.4133 156.979 101.029 175.237 101.029C192.824 101.029 199.656 95.8187 201.33 94.2302Z" fill="url(#paint1_radial_931_113783)"/>
    </mask>
    <g mask="url(#mask0_931_113783)">
    <g filter="url(#filter0_f_931_113783)">
    <mask id="mask1_931_113783" style="mask-type:alpha" maskUnits="userSpaceOnUse" x="125" y="94" width="101" height="132">
    <path d="M149.015 95.0639C149.102 94.6401 149.475 94.3359 149.907 94.3359H200.399C200.831 94.3359 201.205 94.6401 201.292 95.0639L225.146 211.159C225.227 211.555 225.041 211.955 224.68 212.137C220.777 214.109 198.528 224.817 175.153 225.128C151.731 225.438 129.441 214.178 125.603 212.141C125.253 211.954 125.077 211.562 125.157 211.173L149.015 95.0639Z" fill="#577096" fill-opacity="0.75"/>
    </mask>
    <g mask="url(#mask1_931_113783)">
    <g filter="url(#filter1_f_931_113783)">
    <path d="M207.362 76.1064C211.019 110.268 146.094 132.571 113.174 139.453L113.174 76.1064L207.362 76.1064Z" fill="url(#paint2_linear_931_113783)" fill-opacity="0.5"/>
    </g>
    <g filter="url(#filter2_f_931_113783)">
    <path d="M155.56 125.301C156.622 105.018 134.624 86.1828 129.082 66.9985C133.541 65.1973 144.203 70.7896 152.828 76.1247C163.609 82.7936 163.032 109.124 164.778 125.784C166.175 139.112 148.606 223.401 144.168 241.481L131.869 240.837C140.395 214.68 154.74 140.955 155.56 125.301Z" fill="url(#paint3_linear_931_113783)" fill-opacity="0.6"/>
    </g>
    </g>
    </g>
    </g>
    <defs>
    <filter id="filter0_f_931_113783" x="122.744" y="92.0573" width="104.986" height="135.355" filterUnits="userSpaceOnUse" color-interpolation-filters="sRGB">
    <feFlood flood-opacity="0" result="BackgroundImageFix"/>
    <feBlend mode="normal" in="SourceGraphic" in2="BackgroundImageFix" result="shape"/>
    <feGaussianBlur stdDeviation="1.13932" result="effect1_foregroundBlur_931_113783"/>
    </filter>
    <filter id="filter1_f_931_113783" x="112.262" y="75.195" width="96.1589" height="65.1696" filterUnits="userSpaceOnUse" color-interpolation-filters="sRGB">
    <feFlood flood-opacity="0" result="BackgroundImageFix"/>
    <feBlend mode="normal" in="SourceGraphic" in2="BackgroundImageFix" result="shape"/>
    <feGaussianBlur stdDeviation="0.455729" result="effect1_foregroundBlur_931_113783"/>
    </filter>
    <filter id="filter2_f_931_113783" x="128.17" y="65.7428" width="37.5978" height="176.65" filterUnits="userSpaceOnUse" color-interpolation-filters="sRGB">
    <feFlood flood-opacity="0" result="BackgroundImageFix"/>
    <feBlend mode="normal" in="SourceGraphic" in2="BackgroundImageFix" result="shape"/>
    <feGaussianBlur stdDeviation="0.455729" result="effect1_foregroundBlur_931_113783"/>
    </filter>
    <radialGradient id="paint0_radial_931_113783" cx="0" cy="0" r="1" gradientUnits="userSpaceOnUse" gradientTransform="translate(156.087 109.102) rotate(53.0717) scale(37.8406 40.3077)">
    <stop offset="0.203125" style="stop-color: #F85449;"/>
    <stop offset="0.890625" style="stop-color: #C53434;"/>
    </radialGradient>
    <radialGradient id="paint1_radial_931_113783" cx="0" cy="0" r="1" gradientUnits="userSpaceOnUse" gradientTransform="translate(156.087 109.101) rotate(53.0717) scale(37.8406 40.3077)">
    <stop offset="0.203125" stop-color="#71FF30"/>
    <stop offset="0.890625" stop-color="#25BC46"/>
    </radialGradient>
    <linearGradient id="paint2_linear_931_113783" x1="145.368" y1="123.01" x2="155.982" y2="72.2914" gradientUnits="userSpaceOnUse">
    <stop stop-color="white" stop-opacity="0"/>
    <stop offset="0.471361" stop-color="white"/>
    <stop offset="1" stop-color="white"/>
    </linearGradient>
    <linearGradient id="paint3_linear_931_113783" x1="160.882" y1="220.938" x2="202.107" y2="178" gradientUnits="userSpaceOnUse">
    <stop stop-color="#F2F2F2"/>
    <stop offset="0.0001" stop-color="#F2F2F2"/>
    <stop offset="0.0520833" stop-color="#F2F2F2" stop-opacity="0.948011"/>
    <stop offset="1" stop-color="#F2F2F2" stop-opacity="0"/>
    </linearGradient>
    </defs>
  
    
  <!-- Lava 2 -->
    <!-- Color -->
<path d="M178.202 131.059C178.202 128.163 180.222 122.394 188.299 122.479C196.377 122.565 198.468 128.235 198.504 131.059C198.576 133.132 197.365 137.622 191.952 138.995C185.184 140.711 178.202 136.85 178.202 131.059Z" fill="url(#paint0_radial_931_113845)"/>
<defs>
<radialGradient id="paint0_radial_931_113845" cx="0" cy="0" r="1" gradientUnits="userSpaceOnUse" gradientTransform="translate(182.959 126.151) rotate(45.5119) scale(10.2292 11.3416)">
<stop offset="0.203125" style="stop-color: #5000B6;"/>
<stop offset="0.890625" style="stop-color: #7E5EFF;"/>
</radialGradient>
</defs>
  
    
  <!-- Lava 3 -->
    <!-- Color -->
    <path d="M214.381 157.604L219.2 181.084C217.285 183.349 214.448 185.339 210.334 186.382C197.471 189.642 184.2 182.306 184.2 171.303C184.2 165.801 188.039 154.839 203.392 155.002C208.021 155.051 211.616 156.065 214.381 157.604Z" fill="url(#paint0_radial_931_113862)"/>
<defs>
<radialGradient id="paint0_radial_931_113862" cx="0" cy="0" r="1" gradientUnits="userSpaceOnUse" gradientTransform="translate(192.4 161.977) rotate(48.2936) scale(18.5718 20.4588)">
<stop offset="0.203125" style="stop-color: #FF00D6;"/>
<stop offset="0.890625" style="stop-color: #D700B4;"/>
</radialGradient>
</defs>
  
    
  <!-- Lava 4 -->
    <!-- Color -->
    <path d="M225 210.659C220.5 214 200.704 225 175.402 225C147.201 225 128.492 213.024 125.354 210.869C125.163 210.738 125.042 210.543 125 210.328C128.968 198.996 144.393 175.959 164.496 181.99C174.451 184.976 181.421 192.474 187.975 199.525C198.127 210.446 208 213.5 225 210.659C224.675 211.045 225.345 210.27 225 210.659Z" fill="url(#paint0_radial_931_113863)"/>
<mask id="mask0_931_113863" style="mask-type:alpha" maskUnits="userSpaceOnUse" x="124" y="180" width="101" height="45">
<path d="M223.866 211.799C218.236 215.343 200.575 225 175.272 225C147.071 225 128.362 213.003 125.225 210.845C125.034 210.714 124.912 210.519 124.87 210.303C128.839 198.951 144.263 175.875 164.366 181.916C174.321 184.908 181.291 192.418 187.845 199.481C197.997 210.421 207.154 220.288 224.87 210.635C224.545 211.021 224.21 211.409 223.866 211.799Z" fill="url(#paint1_radial_931_113863)"/>
</mask>
<g mask="url(#mask0_931_113863)">
<g filter="url(#filter0_f_931_113863)">
<mask id="mask1_931_113863" style="mask-type:alpha" maskUnits="userSpaceOnUse" x="124" y="94" width="102" height="132">
<path d="M148.862 95.3198C148.949 94.896 149.322 94.5918 149.755 94.5918H200.246C200.679 94.5918 201.052 94.896 201.139 95.3198L224.993 211.414C225.075 211.811 224.888 212.211 224.527 212.393C220.624 214.365 198.376 225.073 175 225.383C151.578 225.694 129.288 214.434 125.45 212.396C125.1 212.21 124.924 211.818 125.004 211.429L148.862 95.3198Z" fill="#577096" fill-opacity="0.75"/>
</mask>
<g mask="url(#mask1_931_113863)">
<g filter="url(#filter1_f_931_113863)">
<path d="M155.407 125.557C156.47 105.273 134.471 86.4386 128.929 67.2543C133.388 65.4531 144.05 71.0455 152.675 76.3806C163.456 83.0494 162.879 109.38 164.625 126.04C166.022 139.368 148.453 223.657 144.015 241.737L131.716 241.093C140.242 214.936 154.587 141.211 155.407 125.557Z" fill="url(#paint2_linear_931_113863)" fill-opacity="0.6"/>
</g>
</g>
</g>
</g>
<defs>
<filter id="filter0_f_931_113863" x="122.591" y="92.3132" width="105.59" height="135.355" filterUnits="userSpaceOnUse" color-interpolation-filters="sRGB">
<feFlood flood-opacity="0" result="BackgroundImageFix"/>
<feBlend mode="normal" in="SourceGraphic" in2="BackgroundImageFix" result="shape"/>
<feGaussianBlur stdDeviation="1.13932" result="effect1_foregroundBlur_931_113863"/>
</filter>
<filter id="filter1_f_931_113863" x="128.017" y="65.9987" width="37.5983" height="176.65" filterUnits="userSpaceOnUse" color-interpolation-filters="sRGB">
<feFlood flood-opacity="0" result="BackgroundImageFix"/>
<feBlend mode="normal" in="SourceGraphic" in2="BackgroundImageFix" result="shape"/>
<feGaussianBlur stdDeviation="0.455729" result="effect1_foregroundBlur_931_113863"/>
</filter>
<radialGradient id="paint0_radial_931_113863" cx="0" cy="0" r="1" gradientUnits="userSpaceOnUse" gradientTransform="translate(148.451 190.545) rotate(28.2255) scale(40.1081 37.0676)">
<stop offset="0.203125" style="stop-color: #FFFFFF;"/>
<stop offset="0.890625" style="stop-color: #D0C9C9;"/>
</radialGradient>
<radialGradient id="paint1_radial_931_113863" cx="0" cy="0" r="1" gradientUnits="userSpaceOnUse" gradientTransform="translate(146.382 191.229) rotate(27.0849) scale(58.9221 42.3164)">
<stop offset="0.302083" stop-color="#FFB800"/>
<stop offset="1" stop-color="#FF7800"/>
</radialGradient>
<linearGradient id="paint2_linear_931_113863" x1="160.729" y1="221.194" x2="201.954" y2="178.256" gradientUnits="userSpaceOnUse">
<stop stop-color="#F2F2F2"/>
<stop offset="0.0001" stop-color="#F2F2F2"/>
<stop offset="0.0520833" stop-color="#F2F2F2" stop-opacity="0.948011"/>
<stop offset="1" stop-color="#F2F2F2" stop-opacity="0"/>
</linearGradient>
</defs>
  
  
    
  <!-- Emerald Cat -->
  <g filter="url(#filter0_d_954_417015)">
  <path d="M231 315.132L204.528 285H174.802H145.255L119 315.132C119 315.132 136.809 335 175 335C213.191 335 231 315.132 231 315.132Z" fill="black"/>
  </g>
  <path d="M221.418 304.643L202.51 283.352C202.314 283.131 202.023 283.019 201.729 283.051L174.952 285.989C174.885 285.996 174.819 285.996 174.752 285.989L148.111 283.052C147.816 283.019 147.524 283.133 147.328 283.355L128.577 304.643C128.254 305.009 128.268 305.551 128.635 305.873C132.101 308.916 149.518 323 175 323C200.476 323 217.89 308.924 221.362 305.876C221.73 305.553 221.743 305.009 221.418 304.643Z" fill="url(#paint0_linear_954_417015)"/>
  <g filter="url(#filter1_d_954_417015)">
  <path fill-rule="evenodd" clip-rule="evenodd" d="M172.443 335.748C176.998 336.883 181.61 334.112 182.746 329.558C183.881 325.003 181.11 320.39 176.555 319.254C172.002 318.119 167.389 320.891 166.255 325.446C165.119 329.999 167.89 334.612 172.443 335.748ZM176.379 324.145C177.556 324.551 178.417 325.159 178.248 326.29C178.126 327.118 177.667 327.519 177.057 327.659C177.894 328.095 178.32 328.763 177.914 329.921C177.411 331.36 176.215 331.481 174.624 331.18L174.238 332.727L173.306 332.495L173.687 330.969C173.445 330.909 173.198 330.845 172.943 330.776L172.561 332.309L171.629 332.077L172.015 330.527C171.928 330.505 171.841 330.482 171.753 330.459C171.62 330.424 171.486 330.389 171.351 330.355L170.137 330.053L170.6 328.985C170.6 328.985 171.287 329.168 171.278 329.154C171.542 329.22 171.659 329.047 171.705 328.933L172.315 326.487C172.338 326.493 172.36 326.498 172.382 326.504C172.393 326.507 172.403 326.509 172.414 326.512C172.376 326.497 172.343 326.487 172.317 326.481L172.752 324.735C172.763 324.537 172.695 324.287 172.317 324.193C172.332 324.183 171.64 324.024 171.64 324.024L171.888 323.028L173.174 323.349L173.173 323.354C173.367 323.402 173.566 323.448 173.769 323.494L174.151 321.962L175.083 322.195L174.709 323.696C174.959 323.754 175.211 323.811 175.456 323.872L175.828 322.38L176.761 322.613L176.379 324.145ZM173.428 329.701C174.189 329.902 175.853 330.341 176.117 329.278C176.388 328.192 174.775 327.83 173.988 327.653C173.9 327.633 173.822 327.616 173.759 327.6L173.246 329.653C173.299 329.666 173.36 329.683 173.428 329.701ZM174.146 326.7C174.78 326.87 176.165 327.239 176.406 326.273C176.652 325.285 175.307 324.988 174.65 324.842C174.576 324.826 174.511 324.811 174.457 324.798L173.993 326.66C174.037 326.671 174.088 326.685 174.146 326.7Z" fill="#FDF21B"/>
  </g>
  <g filter="url(#filter2_d_954_417015)">
  <ellipse cx="175.5" cy="317" rx="0.5" ry="3" fill="#FDF21B"/>
  </g>
  <path fill-rule="evenodd" clip-rule="evenodd" d="M273.846 190.72C281.824 189.988 286.872 182.854 288.113 174.946C288.746 170.915 288.734 166.253 287.267 162.096C285.859 158.11 283.055 154.377 277.552 151.912C271.585 149.238 266.835 148.971 262.802 149.948C258.662 150.95 254.76 153.388 250.767 157.006C243.492 163.597 237.357 178.331 242.83 193.883C243.838 196.745 245.347 199.759 247.154 203.368C247.253 203.564 247.352 203.763 247.452 203.963C249.335 207.725 251.44 211.994 253.112 216.721C256.524 226.363 258.12 237.868 253.387 252.024C248.866 265.543 243.324 273.029 238.407 277.155C235.95 279.216 233.706 280.39 231.933 281.049C231.052 281.377 230.3 281.574 229.711 281.691C229.417 281.749 229.164 281.788 228.957 281.813C228.854 281.826 228.762 281.836 228.682 281.843C228.655 281.845 228.63 281.847 228.607 281.849C228.594 281.85 228.582 281.85 228.571 281.851L228.522 281.855L228.5 281.856L228.489 281.856C228.483 281.857 228.478 281.857 228.223 276.848C227.967 271.839 227.962 271.84 227.957 271.84L227.947 271.84L227.928 271.842L227.892 271.844C227.869 271.845 227.849 271.847 227.832 271.849C227.797 271.852 227.772 271.854 227.757 271.856C227.742 271.858 227.737 271.859 227.743 271.858C227.748 271.857 227.761 271.855 227.782 271.851C227.872 271.833 228.109 271.779 228.469 271.645C229.178 271.381 230.423 270.786 231.994 269.467C235.132 266.834 239.8 261.115 243.901 248.852C247.788 237.226 246.501 228.06 243.682 220.092C242.24 216.015 240.393 212.244 238.508 208.476C238.379 208.218 238.249 207.959 238.119 207.7C236.405 204.281 234.621 200.723 233.394 197.238C226.482 177.595 234.014 158.678 244.067 149.569C248.736 145.338 254.099 141.739 260.472 140.196C266.952 138.627 273.962 139.307 281.649 142.751C289.801 146.403 294.437 152.325 296.699 158.732C298.901 164.969 298.789 171.441 297.997 176.487C296.388 186.733 289.184 199.386 274.737 200.71C266.903 201.428 260.222 196.988 257.038 191.002C253.754 184.83 254.031 176.704 260.281 170.521C262.25 168.574 265.418 168.592 267.356 170.562C269.295 172.532 269.27 175.708 267.301 177.656C264.529 180.398 264.449 183.599 265.868 186.267C267.385 189.119 270.467 191.029 273.846 190.72Z" fill="url(#paint1_linear_954_417015)"/>
  <g filter="url(#filter3_d_954_417015)">
  <path d="M125.09 210C125.09 210 148.271 225.078 175.227 225.078C202.182 225.078 224.91 210 224.91 210C228.413 225.043 244.73 263.538 232.554 283.04C217.231 307.583 200.37 316 175 316C149.63 316 132.769 307.583 117.446 283.04C105.27 263.538 121.587 225.043 125.09 210Z" fill="#0C011C"/>
  </g>
  <path d="M240.364 205.406C222.137 202.354 202.814 217.274 191 224.482C226.441 230.587 235.301 255.856 235.301 269C247.537 248.649 258.591 208.459 240.364 205.406Z" fill="#0C011C"/>
  <path d="M234.599 214.6C221.305 212.416 209.741 223.092 201.124 228.248C218.844 230.845 233.438 248.152 233.438 257.555C242.363 242.995 247.894 216.784 234.599 214.6Z" fill="url(#paint2_linear_954_417015)"/>
  <path d="M110.636 205.406C128.863 202.354 148.186 217.274 160 224.482C124.559 230.587 115.699 255.856 115.699 269C103.463 248.649 92.4092 208.459 110.636 205.406Z" fill="#0C011C"/>
  <path d="M116.401 214.6C129.695 212.416 141.259 223.092 149.876 228.248C132.156 230.845 117.562 248.152 117.562 257.555C108.637 242.995 103.106 216.784 116.401 214.6Z" fill="url(#paint3_linear_954_417015)"/>
  <path fill-rule="evenodd" clip-rule="evenodd" d="M149 276C157.284 276 164 269.284 164 261C164 260.756 163.994 260.514 163.983 260.273C163.65 267.509 157.679 273.273 150.361 273.273C142.83 273.273 136.725 267.168 136.725 259.636C136.725 252.328 142.474 246.362 149.697 246.016C149.466 246.005 149.234 246 149 246C140.716 246 134 252.716 134 261C134 269.284 140.716 276 149 276Z" fill="url(#paint4_linear_954_417015)"/>
  <circle cx="150.363" cy="254.183" r="2.72727" fill="white"/>
  <circle cx="157.186" cy="258.273" r="1.36364" fill="white"/>
  <path fill-rule="evenodd" clip-rule="evenodd" d="M201 276C192.716 276 186 269.284 186 261C186 260.758 186.006 260.517 186.017 260.277C186.352 267.511 192.322 273.273 199.639 273.273C207.17 273.273 213.275 267.168 213.275 259.636C213.275 252.328 207.526 246.362 200.303 246.016C200.534 246.005 200.766 246 201 246C209.284 246 216 252.716 216 261C216 269.284 209.284 276 201 276Z" fill="url(#paint5_linear_954_417015)"/>
  <circle r="2.72727" transform="matrix(-1 0 0 1 199.637 254.183)" fill="white"/>
  <circle r="1.36364" transform="matrix(-1 0 0 1 192.814 258.273)" fill="white"/>
  <path d="M184 278.286C184 279.548 179.971 284 175 284C170.029 284 166 279.548 166 278.286C166 277.023 170.029 276 175 276C179.971 276 184 277.023 184 278.286Z" fill="#B97C99"/>
  <path d="M165 295.6C165 295.6 165 298 170 298C175 298 175 294 175 294C175 294 175 298 180 298C185 298 185 295.6 185 295.6" stroke="#795D79" stroke-width="2" stroke-linecap="round"/>
  <path d="M155.975 62.4677C159.373 49.5408 162.113 33.0001 174.789 33.0001C187.464 33.0001 191.905 53.4801 194.025 62.7828C196.059 71.7026 200.605 92.8103 200.976 94.533C200.994 94.6163 200.998 94.6839 200.98 94.7672C200.778 95.725 198.554 102 175 102C151.343 102 149.203 95.6701 149.017 94.755C149.002 94.68 149.005 94.6192 149.019 94.544C149.302 93.0295 152.72 74.8483 155.975 62.4677Z" fill="url(#paint6_linear_954_417015)"/>
  <defs>
  <filter id="filter0_d_954_417015" x="116.721" y="285" width="117.469" height="55.4688" filterUnits="userSpaceOnUse" color-interpolation-filters="sRGB">
  <feFlood flood-opacity="0" result="BackgroundImageFix"/>
  <feColorMatrix in="SourceAlpha" type="matrix" values="0 0 0 0 0 0 0 0 0 0 0 0 0 0 0 0 0 0 127 0" result="hardAlpha"/>
  <feOffset dx="0.455729" dy="2.73438"/>
  <feGaussianBlur stdDeviation="1.36719"/>
  <feComposite in2="hardAlpha" operator="out"/>
  <feColorMatrix type="matrix" values="0 0 0 0 0 0 0 0 0 0 0 0 0 0 0 0 0 0 0.25 0"/>
  <feBlend mode="normal" in2="BackgroundImageFix" result="effect1_dropShadow_954_417015"/>
  <feBlend mode="normal" in="SourceGraphic" in2="effect1_dropShadow_954_417015" result="shape"/>
  </filter>
  <filter id="filter1_d_954_417015" x="164" y="317" width="21" height="21.002" filterUnits="userSpaceOnUse" color-interpolation-filters="sRGB">
  <feFlood flood-opacity="0" result="BackgroundImageFix"/>
  <feColorMatrix in="SourceAlpha" type="matrix" values="0 0 0 0 0 0 0 0 0 0 0 0 0 0 0 0 0 0 127 0" result="hardAlpha"/>
  <feOffset/>
  <feGaussianBlur stdDeviation="1"/>
  <feComposite in2="hardAlpha" operator="out"/>
  <feColorMatrix type="matrix" values="0 0 0 0 0.992157 0 0 0 0 0.94902 0 0 0 0 0.105882 0 0 0 0.75 0"/>
  <feBlend mode="normal" in2="BackgroundImageFix" result="effect1_dropShadow_954_417015"/>
  <feBlend mode="normal" in="SourceGraphic" in2="effect1_dropShadow_954_417015" result="shape"/>
  </filter>
  <filter id="filter2_d_954_417015" x="173" y="312" width="5" height="10" filterUnits="userSpaceOnUse" color-interpolation-filters="sRGB">
  <feFlood flood-opacity="0" result="BackgroundImageFix"/>
  <feColorMatrix in="SourceAlpha" type="matrix" values="0 0 0 0 0 0 0 0 0 0 0 0 0 0 0 0 0 0 127 0" result="hardAlpha"/>
  <feOffset/>
  <feGaussianBlur stdDeviation="1"/>
  <feComposite in2="hardAlpha" operator="out"/>
  <feColorMatrix type="matrix" values="0 0 0 0 0.992157 0 0 0 0 0.94902 0 0 0 0 0.105882 0 0 0 0.75 0"/>
  <feBlend mode="normal" in2="BackgroundImageFix" result="effect1_dropShadow_954_417015"/>
  <feBlend mode="normal" in="SourceGraphic" in2="effect1_dropShadow_954_417015" result="shape"/>
  </filter>
  <filter id="filter3_d_954_417015" x="109" y="210" width="132" height="114" filterUnits="userSpaceOnUse" color-interpolation-filters="sRGB">
  <feFlood flood-opacity="0" result="BackgroundImageFix"/>
  <feColorMatrix in="SourceAlpha" type="matrix" values="0 0 0 0 0 0 0 0 0 0 0 0 0 0 0 0 0 0 127 0" result="hardAlpha"/>
  <feOffset dy="4"/>
  <feGaussianBlur stdDeviation="2"/>
  <feComposite in2="hardAlpha" operator="out"/>
  <feColorMatrix type="matrix" values="0 0 0 0 0 0 0 0 0 0 0 0 0 0 0 0 0 0 0.25 0"/>
  <feBlend mode="normal" in2="BackgroundImageFix" result="effect1_dropShadow_954_417015"/>
  <feBlend mode="normal" in="SourceGraphic" in2="effect1_dropShadow_954_417015" result="shape"/>
  </filter>
  <linearGradient id="paint0_linear_954_417015" x1="227.672" y1="278.345" x2="230.277" y2="334.776" gradientUnits="userSpaceOnUse">
  <stop stop-color="#003802"/>
  <stop offset="0.473958" stop-color="#00B806" stop-opacity="0.98"/>
  <stop offset="1" stop-color="#B5FFB7" stop-opacity="0.98"/>
  </linearGradient>
  <linearGradient id="paint1_linear_954_417015" x1="230.843" y1="281.181" x2="288.059" y2="147.74" gradientUnits="userSpaceOnUse">
  <stop stop-color="#005C03"/>
  <stop offset="0.855778"/>
  </linearGradient>
  <linearGradient id="paint2_linear_954_417015" x1="221.829" y1="214.31" x2="232.868" y2="257.53" gradientUnits="userSpaceOnUse">
  <stop stop-color="#00B806"/>
  <stop offset="1" stop-color="#00B806" stop-opacity="0"/>
  </linearGradient>
  <linearGradient id="paint3_linear_954_417015" x1="129.171" y1="214.31" x2="118.132" y2="257.53" gradientUnits="userSpaceOnUse">
  <stop stop-color="#00B806"/>
  <stop offset="1" stop-color="#00B806" stop-opacity="0"/>
  </linearGradient>
  <linearGradient id="paint4_linear_954_417015" x1="165.81" y1="242.509" x2="170.357" y2="284.429" gradientUnits="userSpaceOnUse">
  <stop stop-color="#003802"/>
  <stop offset="0.473958" stop-color="#00B806" stop-opacity="0.98"/>
  <stop offset="1" stop-color="#B5FFB7" stop-opacity="0.98"/>
  </linearGradient>
  <linearGradient id="paint5_linear_954_417015" x1="184.19" y1="242.509" x2="179.643" y2="284.429" gradientUnits="userSpaceOnUse">
  <stop stop-color="#003802"/>
  <stop offset="0.473958" stop-color="#00B806" stop-opacity="0.98"/>
  <stop offset="1" stop-color="#B5FFB7" stop-opacity="0.98"/>
  </linearGradient>
  <linearGradient id="paint6_linear_954_417015" x1="204.138" y1="24.9699" x2="217.891" y2="120.542" gradientUnits="userSpaceOnUse">
  <stop stop-color="#003802"/>
  <stop offset="0.473958" stop-color="#00B806" stop-opacity="0.98"/>
  <stop offset="1" stop-color="#B5FFB7" stop-opacity="0.98"/>
  </linearGradient>
  </defs>
  
    
    </svg>
  