
    <svg width="350" height="350" viewBox="0 0 350 350" fill="none" xmlns="http://www.w3.org/2000/svg">
    
  <!-- Royal BG -->
  <g clip-path="url(#clip0_559_25940)">
  <rect x="0.0799561" y="0.0449219" width="350" height="350" fill="#27004F" fill-opacity="0.89"/>
  <rect x="0.0799561" y="0.0449219" width="350" height="350" fill="url(#paint0_radial_559_25940)" fill-opacity="0.2"/>
  <path d="M125.979 290.538L299.832 190.751L430.987 233.879L212.56 294.049L125.979 290.538Z" fill="url(#paint1_linear_559_25940)"/>
  <g opacity="0.7" filter="url(#filter0_f_559_25940)">
  <ellipse cx="174.608" cy="126.187" rx="209.039" ry="257.726" transform="rotate(0.126655 174.608 126.187)" fill="url(#paint2_radial_559_25940)"/>
  </g>
  </g>
  <defs>
  <filter id="filter0_f_559_25940" x="-44.4312" y="-141.538" width="438.079" height="535.452" filterUnits="userSpaceOnUse" color-interpolation-filters="sRGB">
  <feFlood flood-opacity="0" result="BackgroundImageFix"/>
  <feBlend mode="normal" in="SourceGraphic" in2="BackgroundImageFix" result="shape"/>
  <feGaussianBlur stdDeviation="5" result="effect1_foregroundBlur_559_25940"/>
  </filter>
  <radialGradient id="paint0_radial_559_25940" cx="0" cy="0" r="1" gradientUnits="userSpaceOnUse" gradientTransform="translate(156.623 401.542) rotate(-84.441) scale(239.93 241.682)">
  <stop/>
  <stop offset="1" stop-opacity="0"/>
  </radialGradient>
  <linearGradient id="paint1_linear_559_25940" x1="194.836" y1="271.638" x2="316.537" y2="167.936" gradientUnits="userSpaceOnUse">
  <stop/>
  <stop offset="1" stop-color="#333333" stop-opacity="0"/>
  </linearGradient>
  <radialGradient id="paint2_radial_559_25940" cx="0" cy="0" r="1" gradientUnits="userSpaceOnUse" gradientTransform="translate(174.608 164.248) rotate(92.5586) scale(167.784 136.229)">
  <stop stop-color="#737373"/>
  <stop offset="1" stop-color="#9A9A9A" stop-opacity="0"/>
  </radialGradient>
  <clipPath id="clip0_559_25940">
  <rect width="350" height="350" fill="white"/>
  </clipPath>
  </defs>

    
  <!-- LavaCeption Overlay -->
  <g style="mix-blend-mode:overlay" clip-path="url(#clip0_559_45925)">
  <circle cx="267.057" cy="334.049" r="28.7109" fill="white" fill-opacity="0.25"/>
  <circle cx="114.388" cy="66.5365" r="22.7865" fill="white" fill-opacity="0.25"/>
  <circle cx="279.362" cy="110.287" r="16.4062" fill="white" fill-opacity="0.25"/>
  <circle cx="8.20312" cy="234.701" r="16.4062" fill="white" fill-opacity="0.25"/>
  <circle cx="335.872" cy="14.5833" r="40.1042" fill="white" fill-opacity="0.25"/>
  <path d="M65.9326 288.461C29.3383 277.341 1.34401 320.346 -5.46875 340.81C53.705 430.699 146.791 390.296 179.557 350.911C127.002 379.87 111.675 302.361 65.9326 288.461Z" fill="white" fill-opacity="0.25"/>
  <path d="M296.664 236.375C285.544 199.781 328.549 171.787 349.013 164.974C438.902 224.148 398.499 317.234 359.115 350C388.074 297.444 310.565 282.118 296.664 236.375Z" fill="white" fill-opacity="0.25"/>
  <path d="M-26.4321 3.86974C-13.3545 0.661561 15.8469 6.61965 18.8009 32.2851C21.0691 51.9925 19.2624 85.9076 3.10779 101.032C-15.8162 118.749 -14.5043 160.554 12.8006 170.237C38.648 179.403 69.97 166.112 74.1882 144.572C80.545 112.109 53.2633 106.516 57.1104 74.9081C67.4481 -10.0259 219.591 11.8327 236.979 -4.55718C236.979 -87.4437 3.10779 -222.311 -26.4321 3.86974Z" fill="white" fill-opacity="0.25"/>
  </g>
  <defs>
  <clipPath id="clip0_559_45925">
  <rect width="350" height="350" fill="white"/>
  </clipPath>
  </defs>

    
  <!-- Halo -->
  <g filter="url(#filter0_d_559_36466)">
  <path fill-rule="evenodd" clip-rule="evenodd" d="M212.323 25.3395C210.609 24.5592 208.081 23.7554 204.76 23.0272C197.27 21.3852 186.704 20.3312 174.883 20.3312C163.061 20.3312 152.495 21.3852 145.006 23.0272C141.684 23.7554 139.157 24.5592 137.442 25.3395C139.157 26.1199 141.684 26.9237 145.006 27.6519C152.495 29.2939 163.061 30.3479 174.883 30.3479C186.704 30.3479 197.27 29.2939 204.76 27.6519C208.081 26.9237 210.609 26.1199 212.323 25.3395ZM174.883 34.9052C198.98 34.9052 218.515 30.6225 218.515 25.3395C218.515 20.0566 198.98 15.7739 174.883 15.7739C150.785 15.7739 131.25 20.0566 131.25 25.3395C131.25 30.6225 150.785 34.9052 174.883 34.9052Z" fill="#FDF21B"/>
  </g>
  <defs>
  <filter id="filter0_d_559_36466" x="127.926" y="12.4498" width="93.9138" height="25.7795" filterUnits="userSpaceOnUse" color-interpolation-filters="sRGB">
  <feFlood flood-opacity="0" result="BackgroundImageFix"/>
  <feColorMatrix in="SourceAlpha" type="matrix" values="0 0 0 0 0 0 0 0 0 0 0 0 0 0 0 0 0 0 127 0" result="hardAlpha"/>
  <feOffset/>
  <feGaussianBlur stdDeviation="1.66205"/>
  <feColorMatrix type="matrix" values="0 0 0 0 1 0 0 0 0 1 0 0 0 0 1 0 0 0 1 0"/>
  <feBlend mode="normal" in2="BackgroundImageFix" result="effect1_dropShadow_559_36466"/>
  <feBlend mode="normal" in="SourceGraphic" in2="effect1_dropShadow_559_36466" result="shape"/>
  </filter>
  </defs>
    
    
  <!-- Normal Glass -->
    <path d="M148.717 95L125.019 209.98C124.948 210.324 125.078 210.673 125.367 210.873C128.479 213.027 147.033 225 175 225C202.967 225 221.521 213.027 224.633 210.873C224.922 210.673 225.052 210.324 224.981 209.98L201.283 95C201.249 95.0666 201.205 95.1285 201.15 95.1836C199.818 96.5241 193.18 102.106 175 102.106C156.82 102.106 150.182 96.5241 148.85 95.1836C148.795 95.1285 148.751 95.0666 148.717 95Z" fill="#FFFA8D" fill-opacity="0.6"/>
  
    
    
    <!-- Lava 1 -->
    <!-- Color -->
    <!-- filter -->
    <path d="M201.33 94.2312L205.4 114.032C203.808 113.761 202.153 113.448 200.459 113.128C186.293 110.453 169.479 107.277 165.223 123.731C163.365 130.915 166.057 135.213 168.676 139.394C171.205 143.431 173.665 147.359 171.9 153.669C169.751 161.35 158.067 166.325 148.671 162.995C138.746 159.477 139.443 144.904 145.148 137.85C150.853 130.795 151.677 120.031 150.853 112.871C150.454 109.41 148.742 106.935 146.502 105.251L148.841 93.8809C148.875 93.9478 148.92 94.0101 148.975 94.0656C150.853 95.9589 156.979 101.03 175.237 101.03C192.824 101.03 199.656 95.8196 201.33 94.2312Z" fill="url(#paint0_radial_931_113783)"/>
    <mask id="mask0_931_113783" style="mask-type:alpha" maskUnits="userSpaceOnUse" x="141" y="93" width="65" height="72">
    <path d="M201.33 94.2302L205.4 114.031C203.808 113.76 202.153 113.447 200.459 113.127C186.293 110.452 169.479 107.276 165.223 123.73C163.365 130.914 166.057 135.212 168.676 139.393C171.205 143.43 173.665 147.358 171.9 153.668C169.751 161.349 158.067 166.324 148.671 162.994C138.746 159.476 139.443 144.903 145.148 137.849C150.853 130.794 151.677 120.03 150.853 112.87C150.454 109.409 148.742 106.934 146.502 105.25L148.841 93.8799C148.875 93.9469 148.92 94.0092 148.975 94.0646C150.313 95.4133 156.979 101.029 175.237 101.029C192.824 101.029 199.656 95.8187 201.33 94.2302Z" fill="url(#paint1_radial_931_113783)"/>
    </mask>
    <g mask="url(#mask0_931_113783)">
    <g filter="url(#filter0_f_931_113783)">
    <mask id="mask1_931_113783" style="mask-type:alpha" maskUnits="userSpaceOnUse" x="125" y="94" width="101" height="132">
    <path d="M149.015 95.0639C149.102 94.6401 149.475 94.3359 149.907 94.3359H200.399C200.831 94.3359 201.205 94.6401 201.292 95.0639L225.146 211.159C225.227 211.555 225.041 211.955 224.68 212.137C220.777 214.109 198.528 224.817 175.153 225.128C151.731 225.438 129.441 214.178 125.603 212.141C125.253 211.954 125.077 211.562 125.157 211.173L149.015 95.0639Z" fill="#577096" fill-opacity="0.75"/>
    </mask>
    <g mask="url(#mask1_931_113783)">
    <g filter="url(#filter1_f_931_113783)">
    <path d="M207.362 76.1064C211.019 110.268 146.094 132.571 113.174 139.453L113.174 76.1064L207.362 76.1064Z" fill="url(#paint2_linear_931_113783)" fill-opacity="0.5"/>
    </g>
    <g filter="url(#filter2_f_931_113783)">
    <path d="M155.56 125.301C156.622 105.018 134.624 86.1828 129.082 66.9985C133.541 65.1973 144.203 70.7896 152.828 76.1247C163.609 82.7936 163.032 109.124 164.778 125.784C166.175 139.112 148.606 223.401 144.168 241.481L131.869 240.837C140.395 214.68 154.74 140.955 155.56 125.301Z" fill="url(#paint3_linear_931_113783)" fill-opacity="0.6"/>
    </g>
    </g>
    </g>
    </g>
    <defs>
    <filter id="filter0_f_931_113783" x="122.744" y="92.0573" width="104.986" height="135.355" filterUnits="userSpaceOnUse" color-interpolation-filters="sRGB">
    <feFlood flood-opacity="0" result="BackgroundImageFix"/>
    <feBlend mode="normal" in="SourceGraphic" in2="BackgroundImageFix" result="shape"/>
    <feGaussianBlur stdDeviation="1.13932" result="effect1_foregroundBlur_931_113783"/>
    </filter>
    <filter id="filter1_f_931_113783" x="112.262" y="75.195" width="96.1589" height="65.1696" filterUnits="userSpaceOnUse" color-interpolation-filters="sRGB">
    <feFlood flood-opacity="0" result="BackgroundImageFix"/>
    <feBlend mode="normal" in="SourceGraphic" in2="BackgroundImageFix" result="shape"/>
    <feGaussianBlur stdDeviation="0.455729" result="effect1_foregroundBlur_931_113783"/>
    </filter>
    <filter id="filter2_f_931_113783" x="128.17" y="65.7428" width="37.5978" height="176.65" filterUnits="userSpaceOnUse" color-interpolation-filters="sRGB">
    <feFlood flood-opacity="0" result="BackgroundImageFix"/>
    <feBlend mode="normal" in="SourceGraphic" in2="BackgroundImageFix" result="shape"/>
    <feGaussianBlur stdDeviation="0.455729" result="effect1_foregroundBlur_931_113783"/>
    </filter>
    <radialGradient id="paint0_radial_931_113783" cx="0" cy="0" r="1" gradientUnits="userSpaceOnUse" gradientTransform="translate(156.087 109.102) rotate(53.0717) scale(37.8406 40.3077)">
    <stop offset="0.203125" style="stop-color: #FABE09;"/>
    <stop offset="0.890625" style="stop-color: #FDF21B;"/>
    </radialGradient>
    <radialGradient id="paint1_radial_931_113783" cx="0" cy="0" r="1" gradientUnits="userSpaceOnUse" gradientTransform="translate(156.087 109.101) rotate(53.0717) scale(37.8406 40.3077)">
    <stop offset="0.203125" stop-color="#71FF30"/>
    <stop offset="0.890625" stop-color="#25BC46"/>
    </radialGradient>
    <linearGradient id="paint2_linear_931_113783" x1="145.368" y1="123.01" x2="155.982" y2="72.2914" gradientUnits="userSpaceOnUse">
    <stop stop-color="white" stop-opacity="0"/>
    <stop offset="0.471361" stop-color="white"/>
    <stop offset="1" stop-color="white"/>
    </linearGradient>
    <linearGradient id="paint3_linear_931_113783" x1="160.882" y1="220.938" x2="202.107" y2="178" gradientUnits="userSpaceOnUse">
    <stop stop-color="#F2F2F2"/>
    <stop offset="0.0001" stop-color="#F2F2F2"/>
    <stop offset="0.0520833" stop-color="#F2F2F2" stop-opacity="0.948011"/>
    <stop offset="1" stop-color="#F2F2F2" stop-opacity="0"/>
    </linearGradient>
    </defs>
  
    
  <!-- Lava 2 -->
    <!-- Color -->
<path d="M178.202 131.059C178.202 128.163 180.222 122.394 188.299 122.479C196.377 122.565 198.468 128.235 198.504 131.059C198.576 133.132 197.365 137.622 191.952 138.995C185.184 140.711 178.202 136.85 178.202 131.059Z" fill="url(#paint0_radial_931_113845)"/>
<defs>
<radialGradient id="paint0_radial_931_113845" cx="0" cy="0" r="1" gradientUnits="userSpaceOnUse" gradientTransform="translate(182.959 126.151) rotate(45.5119) scale(10.2292 11.3416)">
<stop offset="0.203125" style="stop-color: #FFFFFF;"/>
<stop offset="0.890625" style="stop-color: #D0C9C9;"/>
</radialGradient>
</defs>
  
    
  <!-- Lava 3 -->
    <!-- Color -->
    <path d="M214.381 157.604L219.2 181.084C217.285 183.349 214.448 185.339 210.334 186.382C197.471 189.642 184.2 182.306 184.2 171.303C184.2 165.801 188.039 154.839 203.392 155.002C208.021 155.051 211.616 156.065 214.381 157.604Z" fill="url(#paint0_radial_931_113862)"/>
<defs>
<radialGradient id="paint0_radial_931_113862" cx="0" cy="0" r="1" gradientUnits="userSpaceOnUse" gradientTransform="translate(192.4 161.977) rotate(48.2936) scale(18.5718 20.4588)">
<stop offset="0.203125" style="stop-color: #FFB800;"/>
<stop offset="0.890625" style="stop-color: #FF7800;"/>
</radialGradient>
</defs>
  
    
  <!-- Lava 4 -->
    <!-- Color -->
    <path d="M225 210.659C220.5 214 200.704 225 175.402 225C147.201 225 128.492 213.024 125.354 210.869C125.163 210.738 125.042 210.543 125 210.328C128.968 198.996 144.393 175.959 164.496 181.99C174.451 184.976 181.421 192.474 187.975 199.525C198.127 210.446 208 213.5 225 210.659C224.675 211.045 225.345 210.27 225 210.659Z" fill="url(#paint0_radial_931_113863)"/>
<mask id="mask0_931_113863" style="mask-type:alpha" maskUnits="userSpaceOnUse" x="124" y="180" width="101" height="45">
<path d="M223.866 211.799C218.236 215.343 200.575 225 175.272 225C147.071 225 128.362 213.003 125.225 210.845C125.034 210.714 124.912 210.519 124.87 210.303C128.839 198.951 144.263 175.875 164.366 181.916C174.321 184.908 181.291 192.418 187.845 199.481C197.997 210.421 207.154 220.288 224.87 210.635C224.545 211.021 224.21 211.409 223.866 211.799Z" fill="url(#paint1_radial_931_113863)"/>
</mask>
<g mask="url(#mask0_931_113863)">
<g filter="url(#filter0_f_931_113863)">
<mask id="mask1_931_113863" style="mask-type:alpha" maskUnits="userSpaceOnUse" x="124" y="94" width="102" height="132">
<path d="M148.862 95.3198C148.949 94.896 149.322 94.5918 149.755 94.5918H200.246C200.679 94.5918 201.052 94.896 201.139 95.3198L224.993 211.414C225.075 211.811 224.888 212.211 224.527 212.393C220.624 214.365 198.376 225.073 175 225.383C151.578 225.694 129.288 214.434 125.45 212.396C125.1 212.21 124.924 211.818 125.004 211.429L148.862 95.3198Z" fill="#577096" fill-opacity="0.75"/>
</mask>
<g mask="url(#mask1_931_113863)">
<g filter="url(#filter1_f_931_113863)">
<path d="M155.407 125.557C156.47 105.273 134.471 86.4386 128.929 67.2543C133.388 65.4531 144.05 71.0455 152.675 76.3806C163.456 83.0494 162.879 109.38 164.625 126.04C166.022 139.368 148.453 223.657 144.015 241.737L131.716 241.093C140.242 214.936 154.587 141.211 155.407 125.557Z" fill="url(#paint2_linear_931_113863)" fill-opacity="0.6"/>
</g>
</g>
</g>
</g>
<defs>
<filter id="filter0_f_931_113863" x="122.591" y="92.3132" width="105.59" height="135.355" filterUnits="userSpaceOnUse" color-interpolation-filters="sRGB">
<feFlood flood-opacity="0" result="BackgroundImageFix"/>
<feBlend mode="normal" in="SourceGraphic" in2="BackgroundImageFix" result="shape"/>
<feGaussianBlur stdDeviation="1.13932" result="effect1_foregroundBlur_931_113863"/>
</filter>
<filter id="filter1_f_931_113863" x="128.017" y="65.9987" width="37.5983" height="176.65" filterUnits="userSpaceOnUse" color-interpolation-filters="sRGB">
<feFlood flood-opacity="0" result="BackgroundImageFix"/>
<feBlend mode="normal" in="SourceGraphic" in2="BackgroundImageFix" result="shape"/>
<feGaussianBlur stdDeviation="0.455729" result="effect1_foregroundBlur_931_113863"/>
</filter>
<radialGradient id="paint0_radial_931_113863" cx="0" cy="0" r="1" gradientUnits="userSpaceOnUse" gradientTransform="translate(148.451 190.545) rotate(28.2255) scale(40.1081 37.0676)">
<stop offset="0.203125" style="stop-color: #FFB800;"/>
<stop offset="0.890625" style="stop-color: #FF7800;"/>
</radialGradient>
<radialGradient id="paint1_radial_931_113863" cx="0" cy="0" r="1" gradientUnits="userSpaceOnUse" gradientTransform="translate(146.382 191.229) rotate(27.0849) scale(58.9221 42.3164)">
<stop offset="0.302083" stop-color="#FFB800"/>
<stop offset="1" stop-color="#FF7800"/>
</radialGradient>
<linearGradient id="paint2_linear_931_113863" x1="160.729" y1="221.194" x2="201.954" y2="178.256" gradientUnits="userSpaceOnUse">
<stop stop-color="#F2F2F2"/>
<stop offset="0.0001" stop-color="#F2F2F2"/>
<stop offset="0.0520833" stop-color="#F2F2F2" stop-opacity="0.948011"/>
<stop offset="1" stop-color="#F2F2F2" stop-opacity="0"/>
</linearGradient>
</defs>
  
  
    
  <!-- Rainbow Witch -->
  <path d="M105 286.95C141.989 290.761 221.974 296.097 246 286.95C220.04 271.895 155.495 250.819 105 286.95Z" fill="#0C011C"/>
  <path d="M167.741 341.159C170.742 340.83 168.992 332.249 167.741 328H144.399C140.092 331.153 130.312 338.198 137.648 341.159C144.984 344.12 156.765 338.555 160.239 335.402C161.489 337.458 164.74 341.488 167.741 341.159Z" fill="url(#paint0_radial_902_116284)"/>
  <path d="M168 279.802V328H144.455L131 277L168 279.802Z" fill="black"/>
  <mask id="mask0_902_116284" style="mask-type:alpha" maskUnits="userSpaceOnUse" x="131" y="277" width="37" height="52">
  <path d="M168 279.83V328.5H144.455L131 277L168 279.83Z" fill="white"/>
  </mask>
  <g mask="url(#mask0_902_116284)">
  </g>
  <path d="M182.259 341.159C179.258 340.83 181.008 332.249 182.259 328H205.601C209.908 331.153 219.688 338.198 212.352 341.159C205.016 344.12 193.235 338.555 189.761 335.402C188.511 337.458 185.26 341.488 182.259 341.159Z" fill="url(#paint1_radial_902_116284)"/>
  <path d="M182.35 279.802V328H205.895L219.35 277L182.35 279.802Z" fill="black"/>
  <mask id="mask1_902_116284" style="mask-type:alpha" maskUnits="userSpaceOnUse" x="182" y="277" width="38" height="52">
  <path d="M182.352 279.83V328.5H205.897L219.352 277L182.352 279.83Z" fill="white"/>
  </mask>
  <g mask="url(#mask1_902_116284)">
  </g>
  <mask id="mask2_902_116284" style="mask-type:alpha" maskUnits="userSpaceOnUse" x="105" y="209" width="141" height="79">
  <path d="M246 287L224.5 209C183.3 226.6 141.167 216.333 125 209L105 287C105 287 116.5 282.204 154.5 281.5C192.5 280.796 246 287 246 287Z" fill="url(#paint2_radial_902_116284)"/>
  </mask>
  <g mask="url(#mask2_902_116284)">
  <path d="M68.9567 309.377C68.9567 309.377 96.8743 294.476 101.389 267.172C105.396 242.945 71.3535 215.725 80.3292 182.227C89.305 148.729 118.274 125.322 118.274 125.322L138.779 130.817C138.779 130.817 110.825 151.848 101.188 187.816C96.7968 204.204 125.757 249.565 121.881 272.663C117.249 300.258 89.4619 314.871 89.4619 314.871L68.9567 309.377Z" fill="url(#paint3_radial_902_116284)"/>
  <path d="M89.6825 316.945C89.6825 316.945 116.484 301.744 121.13 274.475C125.252 250.28 93.1381 223.576 102.114 190.078C111.09 156.58 139 132.89 139 132.89L158.48 138.11C158.48 138.11 131.567 159.42 121.93 195.387C117.539 211.775 144.581 256.623 140.596 279.691C135.836 307.253 109.162 322.164 109.162 322.164L89.6825 316.945Z" fill="url(#paint4_radial_902_116284)"/>
  <path d="M107.941 320.093C107.941 320.093 135.858 305.191 140.373 277.887C144.38 253.661 110.337 226.44 119.313 192.942C128.289 159.444 157.258 136.038 157.258 136.038L177.763 141.532C177.763 141.532 149.809 162.564 140.172 198.531C135.781 214.919 164.741 260.281 160.864 283.378C156.233 310.974 128.446 325.587 128.446 325.587L107.941 320.093Z" fill="url(#paint5_radial_902_116284)"/>
  <path d="M128.446 325.586C128.446 325.586 156.364 310.685 160.879 283.381C164.886 259.154 130.843 231.934 139.819 198.436C148.795 164.938 177.764 141.532 177.764 141.532L198.269 147.026C198.269 147.026 170.315 168.057 160.678 204.025C156.287 220.413 185.247 265.775 181.37 288.872C176.739 316.468 148.952 331.081 148.952 331.081L128.446 325.586Z" fill="url(#paint6_radial_902_116284)"/>
  <path d="M148.952 331.081C148.952 331.081 176.87 316.18 181.385 288.876C185.391 264.649 151.349 237.428 160.325 203.931C169.301 170.433 198.27 147.026 198.27 147.026L218.775 152.521C218.775 152.521 190.821 173.552 181.184 209.52C176.792 225.908 205.753 271.269 201.876 294.366C197.245 321.962 169.458 336.575 169.458 336.575L148.952 331.081Z" fill="url(#paint7_radial_902_116284)"/>
  <path d="M169.457 336.576C169.457 336.576 197.374 321.674 201.889 294.37C205.896 270.144 171.853 242.923 180.829 209.425C189.805 175.927 218.774 152.521 218.774 152.521L239.279 158.015C239.279 158.015 211.325 179.047 201.688 215.014C197.297 231.402 226.257 276.764 222.381 299.861C217.749 327.457 189.962 342.07 189.962 342.07L169.457 336.576Z" fill="url(#paint8_radial_902_116284)"/>
  <path d="M189.963 342.071C189.963 342.071 217.88 327.169 222.395 299.866C226.402 275.639 192.359 248.418 201.335 214.92C210.311 181.422 239.28 158.016 239.28 158.016L259.785 163.51C259.785 163.51 231.831 184.542 222.194 220.509C217.803 236.897 246.763 282.259 242.886 305.356C238.255 332.952 210.468 347.565 210.468 347.565L189.963 342.071Z" fill="url(#paint9_radial_902_116284)"/>
  <path d="M210.468 347.564C210.468 347.564 238.386 332.663 242.901 305.359C246.907 281.132 212.865 253.912 221.84 220.414C230.816 186.916 259.785 163.51 259.785 163.51L280.29 169.004C280.29 169.004 252.337 190.035 242.699 226.003C238.308 242.391 267.268 287.753 263.392 310.85C258.76 338.445 230.973 353.059 230.973 353.059L210.468 347.564Z" fill="url(#paint10_radial_902_116284)"/>
  </g>
  <path d="M236.072 98.7901C234.385 107.874 201.732 109.429 174.03 104.285C146.329 99.1415 116.41 85.9681 118.097 76.884C119.784 67.7998 152.437 66.2449 180.139 71.3887C207.841 76.5325 237.759 89.7059 236.072 98.7901Z" fill="#0C011C"/>
  <mask id="mask3_902_116284" style="mask-type:alpha" maskUnits="userSpaceOnUse" x="118" y="68" width="119" height="40">
  <path d="M236.072 98.7902C234.385 107.874 201.732 109.429 174.03 104.285C146.329 99.1417 116.41 85.9683 118.097 76.8841C119.784 67.8 152.437 66.245 180.139 71.3888C207.841 76.5327 237.759 89.7061 236.072 98.7902Z" fill="#0C011C"/>
  </mask>
  <g mask="url(#mask3_902_116284)">
  <path d="M116.003 141.733C116.003 141.733 133.549 127.632 133.1 107.952C132.701 90.4899 105.314 75.9589 107.164 51.3606C109.015 26.7623 126.173 6.5778 126.173 6.5778L141.23 7.71075C141.23 7.71075 124.469 26.1012 122.481 52.5131C121.576 64.5471 147.807 92.4289 148.147 109.084C148.553 128.984 131.061 142.866 131.061 142.866L116.003 141.733Z" fill="url(#paint11_radial_902_116284)"/>
  <path d="M132.056 143.455C132.056 143.455 148.782 129.292 148.429 109.619C148.115 92.1635 122.144 77.7391 123.994 53.1408C125.845 28.5425 142.225 8.29945 142.225 8.29945L156.53 9.37575C156.53 9.37575 140.533 27.8238 138.546 54.2356C137.64 66.2696 162.463 94.0454 162.723 110.695C163.035 130.587 146.36 144.531 146.36 144.531L132.056 143.455Z" fill="url(#paint12_radial_902_116284)"/>
  <path d="M145.365 143.944C145.365 143.944 162.91 129.843 162.461 110.163C162.063 92.7004 134.675 78.1694 136.526 53.5711C138.377 28.9728 155.534 8.78825 155.534 8.78825L170.591 9.9212C170.591 9.9212 153.83 28.3117 151.843 54.7235C150.937 66.7575 177.168 94.6393 177.508 111.295C177.914 131.194 160.422 145.077 160.422 145.077L145.365 143.944Z" fill="url(#paint13_radial_902_116284)"/>
  <path d="M160.422 145.076C160.422 145.076 177.968 130.975 177.519 111.295C177.12 93.8329 149.733 79.3019 151.583 54.7036C153.434 30.1053 170.592 9.92082 170.592 9.92082L185.649 11.0538C185.649 11.0538 168.888 29.4443 166.9 55.8561C165.995 67.8901 192.226 95.7719 192.566 112.427C192.972 132.327 175.48 146.209 175.48 146.209L160.422 145.076Z" fill="url(#paint14_radial_902_116284)"/>
  <path d="M175.48 146.209C175.48 146.209 193.026 132.108 192.577 112.428C192.178 94.9659 164.791 80.4349 166.641 55.8366C168.492 31.2383 185.65 11.0538 185.65 11.0538L200.707 12.1867C200.707 12.1867 183.946 30.5772 181.959 56.989C181.053 69.0231 207.284 96.9048 207.624 113.56C208.03 133.46 190.538 147.342 190.538 147.342L175.48 146.209Z" fill="url(#paint15_radial_902_116284)"/>
  <path d="M190.538 147.342C190.538 147.342 208.083 133.241 207.634 113.561C207.236 96.099 179.848 81.568 181.699 56.9697C183.55 32.3714 200.707 12.1869 200.707 12.1869L215.765 13.3199C215.765 13.3199 199.003 31.7104 197.016 58.1222C196.111 70.1562 222.341 98.038 222.681 114.693C223.088 134.593 205.595 148.475 205.595 148.475L190.538 147.342Z" fill="url(#paint16_radial_902_116284)"/>
  <path d="M205.595 148.476C205.595 148.476 223.14 134.375 222.691 114.695C222.293 97.2326 194.905 82.7016 196.756 58.1033C198.607 33.505 215.764 13.3205 215.764 13.3205L230.821 14.4534C230.821 14.4534 214.06 32.8439 212.073 59.2558C211.167 71.2898 237.398 99.1715 237.738 115.827C238.144 135.726 220.652 149.609 220.652 149.609L205.595 148.476Z" fill="url(#paint17_radial_902_116284)"/>
  <path d="M220.651 149.608C220.651 149.608 238.197 135.507 237.748 115.827C237.349 98.3649 209.962 83.8339 211.812 59.2356C213.663 34.6373 230.821 14.4528 230.821 14.4528L245.878 15.5858C245.878 15.5858 229.117 33.9762 227.129 60.3881C226.224 72.4221 252.455 100.304 252.795 116.959C253.201 136.859 235.709 150.741 235.709 150.741L220.651 149.608Z" fill="url(#paint18_radial_902_116284)"/>
  </g>
  <path d="M176.133 90.9405C160.438 87.3878 154.742 83.7516 150.698 79.7372C153.541 63.052 160.997 26.0667 226.203 27.671C228.468 27.7267 229.985 32.8279 228.325 34.3678C225.593 36.9003 222.665 39.7325 219.72 41.9531C215.065 45.4619 210.544 42.9418 207.45 46.2823C204.919 49.016 205.36 54.3767 203.821 56.838C201.888 59.9282 200.37 59.9535 199.145 63.4619C193.724 72.6416 202.467 79.2132 206.648 90.9891C198.664 92.9709 189.102 93.8759 176.133 90.9405Z" fill="#1C013F"/>
  <mask id="mask4_902_116284" style="mask-type:alpha" maskUnits="userSpaceOnUse" x="150" y="27" width="80" height="66">
  <path d="M176.133 90.9405C160.438 87.3878 154.742 83.7516 150.698 79.7372C153.541 63.052 160.997 26.0667 226.203 27.671C228.468 27.7267 229.985 32.8279 228.325 34.3678C225.593 36.9003 222.665 39.7325 219.72 41.9531C215.065 45.4619 210.544 42.9418 207.45 46.2823C204.919 49.016 205.36 54.3767 203.821 56.838C201.888 59.9282 200.37 59.9535 199.145 63.4619C193.724 72.6416 202.467 79.2132 206.648 90.9891C198.664 92.9709 189.102 93.8759 176.133 90.9405Z" fill="#1C013F"/>
  </mask>
  <g mask="url(#mask4_902_116284)">
  <path d="M123.461 70.2352C123.461 70.2352 142.683 58.5207 144.782 38.9479C146.644 21.5807 121.365 3.6308 126.381 -20.5218C131.396 -44.6743 151.019 -62.4712 151.019 -62.4712L165.804 -59.401C165.804 -59.401 146.805 -43.3319 141.42 -17.3987C138.966 -5.58271 161.372 25.4563 159.556 42.016C157.386 61.8009 138.246 73.3054 138.246 73.3054L123.461 70.2352Z" fill="url(#paint19_radial_902_116284)"/>
  <path d="M139.157 74.0178C139.157 74.0178 157.573 62.1362 159.767 42.583C161.713 25.2332 137.824 7.57196 142.84 -16.5806C147.855 -40.7332 166.715 -58.6886 166.715 -58.6886L180.76 -55.7719C180.76 -55.7719 162.512 -39.5469 157.127 -13.6136C154.673 -1.7977 175.696 28.9542 173.802 45.4976C171.54 65.2633 153.202 76.9345 153.202 76.9345L139.157 74.0178Z" fill="url(#paint20_radial_902_116284)"/>
  <path d="M152.291 76.2231C152.291 76.2231 171.512 64.5087 173.611 44.9358C175.474 27.5686 150.195 9.61871 155.21 -14.5339C160.226 -38.6864 179.849 -56.4833 179.849 -56.4833L194.633 -53.4131C194.633 -53.4131 175.635 -37.344 170.25 -11.4107C167.796 0.405205 190.202 31.4443 188.386 48.0039C186.216 67.7888 167.075 79.2933 167.075 79.2933L152.291 76.2231Z" fill="url(#paint21_radial_902_116284)"/>
  <path d="M167.076 79.2929C167.076 79.2929 186.297 67.5785 188.396 48.0056C190.258 30.6385 164.979 12.6885 169.995 -11.464C175.01 -35.6166 194.633 -53.4134 194.633 -53.4134L209.418 -50.3433C209.418 -50.3433 190.42 -34.2742 185.034 -8.34091C182.581 3.47503 204.986 34.5141 203.17 51.0737C201.001 70.8586 181.86 82.3631 181.86 82.3631L167.076 79.2929Z" fill="url(#paint22_radial_902_116284)"/>
  <path d="M181.861 82.3633C181.861 82.3633 201.082 70.6488 203.182 51.076C205.044 33.7088 179.765 15.7589 184.78 -8.39371C189.796 -32.5463 209.419 -50.3431 209.419 -50.3431L224.204 -47.273C224.204 -47.273 205.205 -31.2039 199.82 -5.2706C197.366 6.54534 219.772 37.5844 217.956 54.144C215.786 73.9289 196.646 85.4334 196.646 85.4334L181.861 82.3633Z" fill="url(#paint23_radial_902_116284)"/>
  <path d="M196.646 85.4337C196.646 85.4337 215.867 73.7192 217.966 54.1464C219.829 36.7792 194.55 18.8293 199.565 -5.32328C204.581 -29.4758 224.204 -47.2727 224.204 -47.2727L238.988 -44.2025C238.988 -44.2025 219.99 -28.1334 214.605 -2.20017C212.151 9.61578 234.557 40.6548 232.741 57.2145C230.571 76.9994 211.43 88.5039 211.43 88.5039L196.646 85.4337Z" fill="url(#paint24_radial_902_116284)"/>
  <path d="M211.43 88.5042C211.43 88.5042 230.651 76.7898 232.75 57.2169C234.613 39.8498 209.334 21.8998 214.349 -2.25272C219.365 -26.4053 238.988 -44.2021 238.988 -44.2021L253.773 -41.132C253.773 -41.132 234.774 -25.0629 229.389 0.870389C226.935 12.6863 249.341 43.7254 247.525 60.285C245.355 80.0699 226.215 91.5744 226.215 91.5744L211.43 88.5042Z" fill="url(#paint25_radial_902_116284)"/>
  <path d="M226.214 91.5738C226.214 91.5738 245.435 79.8594 247.535 60.2865C249.397 42.9193 224.118 24.9694 229.134 0.816858C234.149 -23.3357 253.772 -41.1326 253.772 -41.1326L268.557 -38.0624C268.557 -38.0624 249.558 -21.9933 244.173 3.93997C241.719 15.7559 264.125 46.795 262.309 63.3546C260.139 83.1395 240.999 94.644 240.999 94.644L226.214 91.5738Z" fill="url(#paint26_radial_902_116284)"/>
  </g>
  <path d="M149.865 79.4438C153.908 83.4581 159.604 87.0943 175.3 90.647C188.269 93.5825 198.516 92.9819 206.5 91.0001C205.378 87.8409 204 84.0001 202 81.5001C183.87 81.8438 170.179 80.8037 152.833 68.7505C150.693 72.8524 150.356 76.56 149.865 79.4438Z" fill="url(#paint27_radial_902_116284)"/>
  <path d="M125 208C125 208 143.5 218 175 218C206.5 218 225 208 225 208L228 221.5C228 221.5 208.5 232 175 232C141.5 232 121.5 221 121.5 221L125 208Z" fill="#0C011C"/>
  <g filter="url(#filter0_d_902_116284)">
  <rect x="165" y="216" width="20" height="18" stroke="#FDF21B" stroke-width="4" shape-rendering="geometricPrecision"/>
  </g>
  <defs>
  <filter id="filter0_d_902_116284" x="159.559" y="210.56" width="30.8811" height="28.8811" filterUnits="userSpaceOnUse" color-interpolation-filters="sRGB">
  <feFlood flood-opacity="0" result="BackgroundImageFix"/>
  <feColorMatrix in="SourceAlpha" type="matrix" values="0 0 0 0 0 0 0 0 0 0 0 0 0 0 0 0 0 0 127 0" result="hardAlpha"/>
  <feOffset/>
  <feGaussianBlur stdDeviation="1.72028"/>
  
  <feColorMatrix type="matrix" values="0 0 0 0 1 0 0 0 0 1 0 0 0 0 1 0 0 0 1 0"/>
  <feBlend mode="normal" in2="BackgroundImageFix" result="effect1_dropShadow_902_116284"/>
  <feBlend mode="normal" in="SourceGraphic" in2="effect1_dropShadow_902_116284" result="shape"/>
  </filter>
  <radialGradient id="paint0_radial_902_116284" cx="0" cy="0" r="1" gradientUnits="userSpaceOnUse" gradientTransform="translate(144 328) rotate(41.1859) scale(10.6301 26.1186)">
  <stop offset="0.453125" stop-color="#564D61"/>
  <stop offset="1" stop-color="#1D1A21"/>
  </radialGradient>
  <radialGradient id="paint1_radial_902_116284" cx="0" cy="0" r="1" gradientUnits="userSpaceOnUse" gradientTransform="translate(206 328) rotate(138.814) scale(10.6301 26.1186)">
  <stop offset="0.453125" stop-color="#564D61"/>
  <stop offset="1" stop-color="#1D1A21"/>
  </radialGradient>
  <radialGradient id="paint2_radial_902_116284" cx="0" cy="0" r="1" gradientUnits="userSpaceOnUse" gradientTransform="translate(147.01 229.071) rotate(33.7753) scale(73.7771 116.415)">
  <stop stop-color="#3A0580"/>
  <stop offset="1" stop-color="#05010B"/>
  </radialGradient>
  <radialGradient id="paint3_radial_902_116284" cx="0" cy="0" r="1" gradientUnits="userSpaceOnUse" gradientTransform="translate(72.6932 264.164) rotate(-35.6247) scale(39.3918 49.1192)">
  <stop offset="0.3125" stop-color="#F85449"/>
  <stop offset="1" stop-color="#CF0000"/>
  <stop offset="1" stop-color="#C53434"/>
  </radialGradient>
  <radialGradient id="paint4_radial_902_116284" cx="0" cy="0" r="1" gradientUnits="userSpaceOnUse" gradientTransform="translate(93.8514 275.624) rotate(-54.7553) scale(106.544 61.28)">
  <stop offset="0.302083" stop-color="#FFB800"/>
  <stop offset="1" stop-color="#FF7800"/>
  </radialGradient>
  <radialGradient id="paint5_radial_902_116284" cx="0" cy="0" r="1" gradientUnits="userSpaceOnUse" gradientTransform="translate(111.77 278.682) rotate(-53.7825) scale(107.231 64.0921)">
  <stop offset="0.3125" stop-color="#FABE09"/>
  <stop offset="1" stop-color="#FDF21B"/>
  </radialGradient>
  <radialGradient id="paint6_radial_902_116284" cx="0" cy="0" r="1" gradientUnits="userSpaceOnUse" gradientTransform="translate(132.183 280.373) rotate(-52.775) scale(72.668 56.4314)">
  <stop offset="0.203125" stop-color="#71FF30"/>
  <stop offset="0.890625" stop-color="#25BC46"/>
  </radialGradient>
  <radialGradient id="paint7_radial_902_116284" cx="0" cy="0" r="1" gradientUnits="userSpaceOnUse" gradientTransform="translate(152.782 289.67) rotate(-53.7825) scale(107.231 64.0921)">
  <stop offset="0.239583" stop-color="#21F6EA"/>
  <stop offset="1" stop-color="#2183F6"/>
  </radialGradient>
  <radialGradient id="paint8_radial_902_116284" cx="0" cy="0" r="1" gradientUnits="userSpaceOnUse" gradientTransform="translate(173.287 295.165) rotate(-53.7825) scale(107.231 64.0921)">
  <stop offset="0.3125" stop-color="#321A93"/>
  <stop offset="1" stop-color="#3603FF"/>
  <stop offset="1" stop-color="#3603FF"/>
  </radialGradient>
  <radialGradient id="paint9_radial_902_116284" cx="0" cy="0" r="1" gradientUnits="userSpaceOnUse" gradientTransform="translate(193.792 300.66) rotate(-53.7825) scale(107.231 64.0921)">
  <stop offset="0.239583" stop-color="#5000B6"/>
  <stop offset="1" stop-color="#7E5EFF"/>
  </radialGradient>
  <radialGradient id="paint10_radial_902_116284" cx="0" cy="0" r="1" gradientUnits="userSpaceOnUse" gradientTransform="translate(214.298 306.153) rotate(-53.7825) scale(107.231 64.0921)">
  <stop offset="0.328125" stop-color="#FF00D6"/>
  <stop offset="0.619792" stop-color="#D700B4"/>
  </radialGradient>
  <radialGradient id="paint11_radial_902_116284" cx="0" cy="0" r="1" gradientUnits="userSpaceOnUse" gradientTransform="translate(112.645 109.638) rotate(-46.3217) scale(28.0196 34.9388)">
  <stop offset="0.3125" stop-color="#F85449"/>
  <stop offset="1" stop-color="#CF0000"/>
  <stop offset="1" stop-color="#C53434"/>
  </radialGradient>
  <radialGradient id="paint12_radial_902_116284" cx="0" cy="0" r="1" gradientUnits="userSpaceOnUse" gradientTransform="translate(129.514 114.024) rotate(-65.4523) scale(75.7851 43.5888)">
  <stop offset="0.302083" stop-color="#FFB800"/>
  <stop offset="1" stop-color="#FF7800"/>
  </radialGradient>
  <radialGradient id="paint13_radial_902_116284" cx="0" cy="0" r="1" gradientUnits="userSpaceOnUse" gradientTransform="translate(142.574 114.494) rotate(-64.4795) scale(76.2737 45.5891)">
  <stop offset="0.3125" stop-color="#FABE09"/>
  <stop offset="1" stop-color="#FDF21B"/>
  </radialGradient>
  <radialGradient id="paint14_radial_902_116284" cx="0" cy="0" r="1" gradientUnits="userSpaceOnUse" gradientTransform="translate(157.064 112.981) rotate(-63.472) scale(51.6892 40.14)">
  <stop offset="0.203125" stop-color="#71FF30"/>
  <stop offset="0.890625" stop-color="#25BC46"/>
  </radialGradient>
  <radialGradient id="paint15_radial_902_116284" cx="0" cy="0" r="1" gradientUnits="userSpaceOnUse" gradientTransform="translate(172.69 116.76) rotate(-64.4795) scale(76.2737 45.5891)">
  <stop offset="0.239583" stop-color="#21F6EA"/>
  <stop offset="1" stop-color="#2183F6"/>
  </radialGradient>
  <radialGradient id="paint16_radial_902_116284" cx="0" cy="0" r="1" gradientUnits="userSpaceOnUse" gradientTransform="translate(187.747 117.893) rotate(-64.4795) scale(76.2737 45.5891)">
  <stop offset="0.3125" stop-color="#321A93"/>
  <stop offset="1" stop-color="#3603FF"/>
  <stop offset="1" stop-color="#3603FF"/>
  </radialGradient>
  <radialGradient id="paint17_radial_902_116284" cx="0" cy="0" r="1" gradientUnits="userSpaceOnUse" gradientTransform="translate(202.804 119.026) rotate(-64.4795) scale(76.2737 45.5891)">
  <stop offset="0.239583" stop-color="#5000B6"/>
  <stop offset="1" stop-color="#7E5EFF"/>
  </radialGradient>
  <radialGradient id="paint18_radial_902_116284" cx="0" cy="0" r="1" gradientUnits="userSpaceOnUse" gradientTransform="translate(217.861 120.159) rotate(-64.4795) scale(76.2737 45.5891)">
  <stop offset="0.328125" stop-color="#FF00D6"/>
  <stop offset="0.619792" stop-color="#D700B4"/>
  </radialGradient>
  <radialGradient id="paint19_radial_902_116284" cx="0" cy="0" r="1" gradientUnits="userSpaceOnUse" gradientTransform="translate(124.281 37.9756) rotate(-38.8933) scale(28.0196 34.9388)">
  <stop offset="0.3125" stop-color="#F85449"/>
  <stop offset="1" stop-color="#CF0000"/>
  <stop offset="1" stop-color="#C53434"/>
  </radialGradient>
  <radialGradient id="paint20_radial_902_116284" cx="0" cy="0" r="1" gradientUnits="userSpaceOnUse" gradientTransform="translate(140.442 44.5053) rotate(-58.0239) scale(75.7851 43.5888)">
  <stop offset="0.302083" stop-color="#FFB800"/>
  <stop offset="1" stop-color="#FF7800"/>
  </radialGradient>
  <radialGradient id="paint21_radial_902_116284" cx="0" cy="0" r="1" gradientUnits="userSpaceOnUse" gradientTransform="translate(153.331 46.6598) rotate(-57.0511) scale(76.2737 45.5891)">
  <stop offset="0.3125" stop-color="#FABE09"/>
  <stop offset="1" stop-color="#FDF21B"/>
  </radialGradient>
  <radialGradient id="paint22_radial_902_116284" cx="0" cy="0" r="1" gradientUnits="userSpaceOnUse" gradientTransform="translate(167.895 47.0333) rotate(-56.0436) scale(51.6892 40.14)">
  <stop offset="0.203125" stop-color="#71FF30"/>
  <stop offset="0.890625" stop-color="#25BC46"/>
  </radialGradient>
  <radialGradient id="paint23_radial_902_116284" cx="0" cy="0" r="1" gradientUnits="userSpaceOnUse" gradientTransform="translate(182.901 52.7999) rotate(-57.0511) scale(76.2737 45.5891)">
  <stop offset="0.239583" stop-color="#21F6EA"/>
  <stop offset="1" stop-color="#2183F6"/>
  </radialGradient>
  <radialGradient id="paint24_radial_902_116284" cx="0" cy="0" r="1" gradientUnits="userSpaceOnUse" gradientTransform="translate(197.686 55.8704) rotate(-57.0511) scale(76.2737 45.5891)">
  <stop offset="0.3125" stop-color="#321A93"/>
  <stop offset="1" stop-color="#3603FF"/>
  <stop offset="1" stop-color="#3603FF"/>
  </radialGradient>
  <radialGradient id="paint25_radial_902_116284" cx="0" cy="0" r="1" gradientUnits="userSpaceOnUse" gradientTransform="translate(212.47 58.9409) rotate(-57.0511) scale(76.2737 45.5891)">
  <stop offset="0.239583" stop-color="#5000B6"/>
  <stop offset="1" stop-color="#7E5EFF"/>
  </radialGradient>
  <radialGradient id="paint26_radial_902_116284" cx="0" cy="0" r="1" gradientUnits="userSpaceOnUse" gradientTransform="translate(227.254 62.0105) rotate(-57.0511) scale(76.2737 45.5891)">
  <stop offset="0.328125" stop-color="#FF00D6"/>
  <stop offset="0.619792" stop-color="#D700B4"/>
  </radialGradient>
  <radialGradient id="paint27_radial_902_116284" cx="0" cy="0" r="1" gradientUnits="userSpaceOnUse" gradientTransform="translate(166.532 70.9515) rotate(43.2958) scale(16.2336 37.4001)">
  <stop offset="0.453125" stop-color="#564D61"/>
  <stop offset="1" stop-color="#1D1A21"/>
  </radialGradient>
  </defs>
  
    
    </svg>
  