
    <svg width="350" height="350" viewBox="0 0 350 350" fill="none" xmlns="http://www.w3.org/2000/svg">
    
  <!-- BubbleGum BG -->
  <g clip-path="url(#clip0_28_269)">
  <rect width="350" height="350" fill="white"/>
  <rect x="0.0788574" y="0.0444336" width="350" height="350" fill="#E9C4E7" fill-opacity="0.78"/>
  <path d="M125.979 290.538L299.832 190.751L430.987 233.879L212.56 294.049L125.979 290.538Z" fill="url(#paint0_linear_28_269)" fill-opacity="0.1"/>
  <g opacity="0.45" filter="url(#filter0_f_28_269)">
  <ellipse rx="194.596" ry="66.7643" transform="matrix(0.999998 0.00221055 0.00221055 -0.999998 176.078 304.638)" fill="url(#paint1_radial_28_269)"/>
  </g>
  <g opacity="0.7" filter="url(#filter1_f_28_269)">
  <ellipse cx="174.396" cy="137.609" rx="196.647" ry="242.448" transform="rotate(0.126655 174.396 137.609)" fill="url(#paint2_radial_28_269)"/>
  </g>
  </g>
  <defs>
  <filter id="filter0_f_28_269" x="-23.0756" y="233.315" width="398.306" height="142.646" filterUnits="userSpaceOnUse" color-interpolation-filters="sRGB">
  <feFlood flood-opacity="0" result="BackgroundImageFix"/>
  <feBlend mode="normal" in="SourceGraphic" in2="BackgroundImageFix" result="shape"/>
  <feGaussianBlur stdDeviation="2.27865" result="effect1_foregroundBlur_28_269"/>
  </filter>
  <filter id="filter1_f_28_269" x="-26.8085" y="-109.396" width="402.409" height="494.01" filterUnits="userSpaceOnUse" color-interpolation-filters="sRGB">
  <feFlood flood-opacity="0" result="BackgroundImageFix"/>
  <feBlend mode="normal" in="SourceGraphic" in2="BackgroundImageFix" result="shape"/>
  <feGaussianBlur stdDeviation="2.27865" result="effect1_foregroundBlur_28_269"/>
  </filter>
  <linearGradient id="paint0_linear_28_269" x1="194.836" y1="271.638" x2="316.537" y2="167.936" gradientUnits="userSpaceOnUse">
  <stop/>
  <stop offset="1" stop-color="#333333" stop-opacity="0"/>
  </linearGradient>
  <radialGradient id="paint1_radial_28_269" cx="0" cy="0" r="1" gradientUnits="userSpaceOnUse" gradientTransform="translate(194.596 76.624) rotate(99.1226) scale(43.9775 125.337)">
  <stop stop-color="#F221F7" stop-opacity="0.62"/>
  <stop offset="1" stop-color="#D32EE1" stop-opacity="0"/>
  </radialGradient>
  <radialGradient id="paint2_radial_28_269" cx="0" cy="0" r="1" gradientUnits="userSpaceOnUse" gradientTransform="translate(174.396 173.413) rotate(92.5586) scale(157.837 128.153)">
  <stop stop-color="#F221F7" stop-opacity="0.62"/>
  <stop offset="1" stop-color="#D32EE1" stop-opacity="0"/>
  </radialGradient>
  <clipPath id="clip0_28_269">
  <rect width="350" height="350" fill="white"/>
  </clipPath>
  </defs>

    
    
  <!-- Halo -->
  <g filter="url(#filter0_f_1646_92193)">
  <path fill-rule="evenodd" clip-rule="evenodd" d="M212.323 25.3395C210.609 24.5592 208.081 23.7554 204.76 23.0272C197.27 21.3852 186.704 20.3312 174.883 20.3312C163.061 20.3312 152.495 21.3852 145.006 23.0272C141.684 23.7554 139.157 24.5592 137.442 25.3395C139.157 26.1199 141.684 26.9237 145.006 27.6519C152.495 29.2939 163.061 30.3479 174.883 30.3479C186.704 30.3479 197.27 29.2939 204.76 27.6519C208.081 26.9237 210.609 26.1199 212.323 25.3395ZM174.883 34.9052C198.98 34.9052 218.515 30.6225 218.515 25.3395C218.515 20.0566 198.98 15.7739 174.883 15.7739C150.785 15.7739 131.25 20.0566 131.25 25.3395C131.25 30.6225 150.785 34.9052 174.883 34.9052Z" fill="#FDF21B"/>
  </g>
  <path fill-rule="evenodd" clip-rule="evenodd" d="M212.323 25.3395C210.609 24.5592 208.081 23.7554 204.76 23.0272C197.27 21.3852 186.704 20.3312 174.883 20.3312C163.061 20.3312 152.495 21.3852 145.006 23.0272C141.684 23.7554 139.157 24.5592 137.442 25.3395C139.157 26.1199 141.684 26.9237 145.006 27.6519C152.495 29.2939 163.061 30.3479 174.883 30.3479C186.704 30.3479 197.27 29.2939 204.76 27.6519C208.081 26.9237 210.609 26.1199 212.323 25.3395ZM174.883 34.9052C198.98 34.9052 218.515 30.6225 218.515 25.3395C218.515 20.0566 198.98 15.7739 174.883 15.7739C150.785 15.7739 131.25 20.0566 131.25 25.3395C131.25 30.6225 150.785 34.9052 174.883 34.9052Z" fill="#FDF21B"/>
  <defs>
  <filter id="filter0_f_1646_92193" x="127.25" y="11.7739" width="95.2656" height="27.1313" filterUnits="userSpaceOnUse" color-interpolation-filters="sRGB">
  <feFlood flood-opacity="0" result="BackgroundImageFix"/>
  <feBlend mode="normal" in="SourceGraphic" in2="BackgroundImageFix" result="shape"/>
  <feGaussianBlur stdDeviation="2" result="effect1_foregroundBlur_1646_92193"/>
  </filter>
  </defs>
    
    
  <!-- Normal Glass -->
    <path d="M148.717 95L125.019 209.98C124.948 210.324 125.078 210.673 125.367 210.873C128.479 213.027 147.033 225 175 225C202.967 225 221.521 213.027 224.633 210.873C224.922 210.673 225.052 210.324 224.981 209.98L201.283 95C201.249 95.0666 201.205 95.1285 201.15 95.1836C199.818 96.5241 193.18 102.106 175 102.106C156.82 102.106 150.182 96.5241 148.85 95.1836C148.795 95.1285 148.751 95.0666 148.717 95Z" fill="#A15BFA" fill-opacity="0.6"/>
  
    
    
    <!-- Lava 1 -->
    <!-- Color -->
    <!-- filter -->
    <path d="M201.33 94.2312L205.4 114.032C203.808 113.761 202.153 113.448 200.459 113.128C186.293 110.453 169.479 107.277 165.223 123.731C163.365 130.915 166.057 135.213 168.676 139.394C171.205 143.431 173.665 147.359 171.9 153.669C169.751 161.35 158.067 166.325 148.671 162.995C138.746 159.477 139.443 144.904 145.148 137.85C150.853 130.795 151.677 120.031 150.853 112.871C150.454 109.41 148.742 106.935 146.502 105.251L148.841 93.8809C148.875 93.9478 148.92 94.0101 148.975 94.0656C150.853 95.9589 156.979 101.03 175.237 101.03C192.824 101.03 199.656 95.8196 201.33 94.2312Z" fill="url(#paint0_radial_931_113783)"/>
    <mask id="mask0_931_113783" style="mask-type:alpha" maskUnits="userSpaceOnUse" x="141" y="93" width="65" height="72">
    <path d="M201.33 94.2302L205.4 114.031C203.808 113.76 202.153 113.447 200.459 113.127C186.293 110.452 169.479 107.276 165.223 123.73C163.365 130.914 166.057 135.212 168.676 139.393C171.205 143.43 173.665 147.358 171.9 153.668C169.751 161.349 158.067 166.324 148.671 162.994C138.746 159.476 139.443 144.903 145.148 137.849C150.853 130.794 151.677 120.03 150.853 112.87C150.454 109.409 148.742 106.934 146.502 105.25L148.841 93.8799C148.875 93.9469 148.92 94.0092 148.975 94.0646C150.313 95.4133 156.979 101.029 175.237 101.029C192.824 101.029 199.656 95.8187 201.33 94.2302Z" fill="url(#paint1_radial_931_113783)"/>
    </mask>
    <g mask="url(#mask0_931_113783)">
    <g filter="url(#filter0_f_931_113783)">
    <mask id="mask1_931_113783" style="mask-type:alpha" maskUnits="userSpaceOnUse" x="125" y="94" width="101" height="132">
    <path d="M149.015 95.0639C149.102 94.6401 149.475 94.3359 149.907 94.3359H200.399C200.831 94.3359 201.205 94.6401 201.292 95.0639L225.146 211.159C225.227 211.555 225.041 211.955 224.68 212.137C220.777 214.109 198.528 224.817 175.153 225.128C151.731 225.438 129.441 214.178 125.603 212.141C125.253 211.954 125.077 211.562 125.157 211.173L149.015 95.0639Z" fill="#577096" fill-opacity="0.75"/>
    </mask>
    <g mask="url(#mask1_931_113783)">
    <g filter="url(#filter1_f_931_113783)">
    <path d="M207.362 76.1064C211.019 110.268 146.094 132.571 113.174 139.453L113.174 76.1064L207.362 76.1064Z" fill="url(#paint2_linear_931_113783)" fill-opacity="0.5"/>
    </g>
    <g filter="url(#filter2_f_931_113783)">
    <path d="M155.56 125.301C156.622 105.018 134.624 86.1828 129.082 66.9985C133.541 65.1973 144.203 70.7896 152.828 76.1247C163.609 82.7936 163.032 109.124 164.778 125.784C166.175 139.112 148.606 223.401 144.168 241.481L131.869 240.837C140.395 214.68 154.74 140.955 155.56 125.301Z" fill="url(#paint3_linear_931_113783)" fill-opacity="0.6"/>
    </g>
    </g>
    </g>
    </g>
    <defs>
    <filter id="filter0_f_931_113783" x="122.744" y="92.0573" width="104.986" height="135.355" filterUnits="userSpaceOnUse" color-interpolation-filters="sRGB">
    <feFlood flood-opacity="0" result="BackgroundImageFix"/>
    <feBlend mode="normal" in="SourceGraphic" in2="BackgroundImageFix" result="shape"/>
    <feGaussianBlur stdDeviation="1.13932" result="effect1_foregroundBlur_931_113783"/>
    </filter>
    <filter id="filter1_f_931_113783" x="112.262" y="75.195" width="96.1589" height="65.1696" filterUnits="userSpaceOnUse" color-interpolation-filters="sRGB">
    <feFlood flood-opacity="0" result="BackgroundImageFix"/>
    <feBlend mode="normal" in="SourceGraphic" in2="BackgroundImageFix" result="shape"/>
    <feGaussianBlur stdDeviation="0.455729" result="effect1_foregroundBlur_931_113783"/>
    </filter>
    <filter id="filter2_f_931_113783" x="128.17" y="65.7428" width="37.5978" height="176.65" filterUnits="userSpaceOnUse" color-interpolation-filters="sRGB">
    <feFlood flood-opacity="0" result="BackgroundImageFix"/>
    <feBlend mode="normal" in="SourceGraphic" in2="BackgroundImageFix" result="shape"/>
    <feGaussianBlur stdDeviation="0.455729" result="effect1_foregroundBlur_931_113783"/>
    </filter>
    <radialGradient id="paint0_radial_931_113783" cx="0" cy="0" r="1" gradientUnits="userSpaceOnUse" gradientTransform="translate(156.087 109.102) rotate(53.0717) scale(37.8406 40.3077)">
    <stop offset="0.203125" style="stop-color: #FABE09;"/>
    <stop offset="0.890625" style="stop-color: #FDF21B;"/>
    </radialGradient>
    <radialGradient id="paint1_radial_931_113783" cx="0" cy="0" r="1" gradientUnits="userSpaceOnUse" gradientTransform="translate(156.087 109.101) rotate(53.0717) scale(37.8406 40.3077)">
    <stop offset="0.203125" stop-color="#71FF30"/>
    <stop offset="0.890625" stop-color="#25BC46"/>
    </radialGradient>
    <linearGradient id="paint2_linear_931_113783" x1="145.368" y1="123.01" x2="155.982" y2="72.2914" gradientUnits="userSpaceOnUse">
    <stop stop-color="white" stop-opacity="0"/>
    <stop offset="0.471361" stop-color="white"/>
    <stop offset="1" stop-color="white"/>
    </linearGradient>
    <linearGradient id="paint3_linear_931_113783" x1="160.882" y1="220.938" x2="202.107" y2="178" gradientUnits="userSpaceOnUse">
    <stop stop-color="#F2F2F2"/>
    <stop offset="0.0001" stop-color="#F2F2F2"/>
    <stop offset="0.0520833" stop-color="#F2F2F2" stop-opacity="0.948011"/>
    <stop offset="1" stop-color="#F2F2F2" stop-opacity="0"/>
    </linearGradient>
    </defs>
  
    
  <!-- Lava 2 -->
    <!-- Color -->
<path d="M178.202 131.059C178.202 128.163 180.222 122.394 188.299 122.479C196.377 122.565 198.468 128.235 198.504 131.059C198.576 133.132 197.365 137.622 191.952 138.995C185.184 140.711 178.202 136.85 178.202 131.059Z" fill="url(#paint0_radial_931_113845)"/>
<defs>
<radialGradient id="paint0_radial_931_113845" cx="0" cy="0" r="1" gradientUnits="userSpaceOnUse" gradientTransform="translate(182.959 126.151) rotate(45.5119) scale(10.2292 11.3416)">
<stop offset="0.203125" style="stop-color: #F85449;"/>
<stop offset="0.890625" style="stop-color: #C53434;"/>
</radialGradient>
</defs>
  
    
    
  
    
  <!-- OG Wizard -->
  <path d="M213.19 76.7275C218.026 90.013 215.819 107.746 212.535 116.332C212.349 116.819 211.696 116.87 211.399 116.441C202.343 103.371 186.05 97.0907 169.228 97.0907C156.313 97.0907 145.639 106.089 142.042 111.453C141.751 111.888 141.085 111.872 140.884 111.388C136.228 100.167 144.843 80.6162 150.16 72.9049C150.525 72.3754 150.004 71.5615 149.368 71.6593C135.565 73.7811 103.549 65.0696 98.1471 56.6084C98.0459 56.4499 98.033 56.262 98.093 56.0838L99.3783 52.2704C99.5209 51.8474 100.032 51.6835 100.412 51.9181C112.949 59.6629 151.386 46.3725 174.237 43.7059C198.722 40.8485 208.182 62.9688 213.19 76.7275Z" fill="url(#paint0_radial_878_99912)"/>
  <path d="M103.819 49.622C101.941 57.338 94.6871 59.9213 86.9711 58.0434C79.2552 56.1655 73.9994 50.5375 75.8773 42.8216C77.7552 35.1056 85.0094 32.5223 92.7254 34.4002C100.441 36.2781 105.697 41.9061 103.819 49.622Z" fill="url(#paint1_linear_878_99912)" stroke="#D1CDC5" stroke-width="1.09091"/>
  <mask id="mask0_878_99912" style="mask-type:alpha" maskUnits="userSpaceOnUse" x="99" y="44" width="118" height="74">
  <path d="M214.19 77.7275C219.026 91.013 216.819 108.746 213.535 117.332C213.349 117.819 212.696 117.87 212.399 117.441C203.343 104.371 187.05 98.0907 170.228 98.0907C157.313 98.0907 146.639 107.089 143.042 112.453C142.751 112.888 142.085 112.872 141.884 112.388C137.228 101.167 145.843 81.6162 151.16 73.9049C151.525 73.3754 151.004 72.5615 150.368 72.6593C136.565 74.7811 104.549 66.0696 99.1471 57.6084C99.0459 57.4499 99.033 57.262 99.093 57.0838L100.378 53.2704C100.521 52.8474 101.032 52.6835 101.412 52.9181C113.949 60.6629 152.386 47.3725 175.237 44.7059C199.722 41.8485 209.182 63.9688 214.19 77.7275Z" fill="url(#paint2_radial_878_99912)"/>
  </mask>
  <g mask="url(#mask0_878_99912)">
  <path d="M120.772 32.7828L124.201 39.8675L125.007 39.4773L124.201 39.8676C124.539 40.5659 125.289 40.9672 126.058 40.8614L133.855 39.7887L128.177 45.2401C127.618 45.7774 127.468 46.6141 127.806 47.3124L131.235 54.3972L124.296 50.6815C123.612 50.3153 122.77 50.4311 122.211 50.9685L116.532 56.4198L117.922 48.6721C118.059 47.9083 117.688 47.1433 117.004 46.777L110.065 43.0613L117.863 41.9886C118.632 41.8829 119.245 41.2942 119.382 40.5305L120.772 32.7828Z" stroke="white" stroke-opacity="0.5" stroke-width="1.79101"/>
  <path d="M121.205 79.4405L124.635 86.5253L125.441 86.1351L124.635 86.5253C124.973 87.2236 125.722 87.6249 126.491 87.5191L134.289 86.4464L128.611 91.8978C128.051 92.4351 127.901 93.2718 128.239 93.9702L131.669 101.055L124.73 97.3393C124.046 96.973 123.204 97.0888 122.644 97.6262L116.966 103.078L118.355 95.3298C118.492 94.5661 118.122 93.801 117.438 93.4347L110.499 89.7191L118.297 88.6464C119.065 88.5406 119.679 87.9519 119.816 87.1882L121.205 79.4405Z" stroke="white" stroke-opacity="0.5" stroke-width="1.79101"/>
  <path d="M154.942 40.3516C155.132 40.1659 155.449 40.3326 155.404 40.5949L154.028 48.6058C153.912 49.2781 154.243 49.9484 154.847 50.266L162.04 54.0503C162.276 54.1743 162.215 54.5272 161.952 54.5654L153.908 55.7321C153.233 55.83 152.697 56.3515 152.582 57.0239L151.206 65.0348C151.161 65.2971 150.806 65.3485 150.689 65.1098L147.093 57.8199C146.791 57.2081 146.13 56.8601 145.455 56.9581L137.411 58.1247C137.147 58.1629 136.989 57.8418 137.18 57.6561L143.002 51.984C143.49 51.508 143.617 50.7714 143.315 50.1595L139.72 42.8697C139.602 42.631 139.858 42.3811 140.094 42.505L147.288 46.2893C147.891 46.607 148.631 46.4997 149.12 46.0236L154.942 40.3516Z" stroke="white" stroke-opacity="0.5" stroke-width="1.3"/>
  <path d="M123.741 58.4438L124.043 64.1975C124.072 64.7647 124.464 65.2482 125.013 65.3952L130.578 66.8864L125.199 68.9512C124.669 69.1547 124.33 69.6765 124.36 70.2437L124.661 75.9974L121.035 71.5198C120.678 71.0784 120.077 70.9174 119.547 71.1209L114.168 73.1857L117.306 68.3536C117.615 67.8773 117.582 67.2559 117.225 66.8146L113.599 62.337L119.164 63.8282C119.713 63.9752 120.294 63.7522 120.603 63.2759L123.741 58.4438Z" stroke="white" stroke-opacity="0.5" stroke-width="1.31097"/>
  <path d="M147.306 91.4438L147.607 97.1975C147.637 97.7647 148.028 98.2482 148.577 98.3952L154.142 99.8864L148.763 101.951C148.233 102.155 147.894 102.677 147.924 103.244L148.225 108.997L144.6 104.52C144.242 104.078 143.641 103.917 143.111 104.121L137.732 106.186L140.87 101.354C141.179 100.877 141.147 100.256 140.789 99.8146L137.164 95.337L142.729 96.8282C143.277 96.9752 143.858 96.7522 144.168 96.2759L147.306 91.4438Z" stroke="white" stroke-opacity="0.5" stroke-width="1.31097"/>
  <path d="M105.306 49.4438L105.607 55.1975C105.637 55.7647 106.028 56.2482 106.577 56.3952L112.142 57.8864L106.763 59.9512C106.233 60.1547 105.894 60.6765 105.924 61.2437L106.225 66.9974L102.6 62.5198C102.242 62.0784 101.641 61.9174 101.111 62.1209L95.7321 64.1857L98.8701 59.3536C99.1794 58.8773 99.1468 58.2559 98.7894 57.8146L95.1635 53.337L100.729 54.8282C101.277 54.9752 101.858 54.7522 102.168 54.2759L105.306 49.4438Z" stroke="white" stroke-opacity="0.5" stroke-width="1.31097"/>
  <path d="M137.807 63.8942L140.572 68.9489C140.845 69.4471 141.407 69.7132 141.966 69.6079L147.627 68.5399L143.675 72.7318C143.285 73.145 143.206 73.7621 143.478 74.2604L146.244 79.315L141.035 76.8512C140.522 76.6083 139.911 76.7236 139.521 77.1368L135.568 81.3288L136.302 75.6141C136.374 75.0508 136.076 74.5049 135.562 74.2621L130.354 71.7982L136.016 70.7302C136.574 70.6249 137.001 70.1722 137.073 69.6089L137.807 63.8942Z" stroke="white" stroke-opacity="0.5" stroke-width="1.31097"/>
  <path d="M203.645 37.7828L200.216 44.8675L199.41 44.4773L200.216 44.8676C199.877 45.5659 199.128 45.9672 198.359 45.8614L190.562 44.7887L196.24 50.2401C196.799 50.7774 196.949 51.6141 196.611 52.3124L193.181 59.3972L200.121 55.6815C200.805 55.3153 201.647 55.4311 202.206 55.9685L207.885 61.4198L206.495 53.6721C206.358 52.9083 206.729 52.1433 207.413 51.777L214.352 48.0613L206.554 46.9886C205.785 46.8829 205.172 46.2942 205.035 45.5305L203.645 37.7828Z" stroke="white" stroke-opacity="0.5" stroke-width="1.79101"/>
  <path d="M161.212 23.4405L157.782 30.5253L156.976 30.1351L157.782 30.5253C157.444 31.2236 156.695 31.6249 155.926 31.5191L148.128 30.4464L153.806 35.8978C154.366 36.4351 154.516 37.2718 154.178 37.9702L150.748 45.0549L157.687 41.3393C158.371 40.973 159.213 41.0888 159.773 41.6262L165.451 47.0775L164.061 39.3298C163.925 38.5661 164.295 37.801 164.979 37.4347L171.918 33.7191L164.12 32.6464C163.352 32.5406 162.738 31.9519 162.601 31.1882L161.212 23.4405Z" stroke="white" stroke-opacity="0.5" stroke-width="1.79101"/>
  <path d="M158.761 68.285L156.125 73.7284C155.866 74.265 155.29 74.5733 154.699 74.492L148.708 73.6679L153.071 77.8562C153.501 78.2691 153.616 78.9119 153.356 79.4485L150.721 84.8919L156.052 82.0371C156.578 81.7557 157.225 81.8447 157.655 82.2575L162.018 86.4459L160.95 80.4931C160.845 79.9064 161.129 79.3185 161.655 79.0371L166.986 76.1823L160.995 75.3581C160.405 75.2769 159.933 74.8246 159.828 74.2378L158.761 68.285Z" stroke="white" stroke-opacity="0.5" stroke-width="1.37607"/>
  <path d="M169.645 84.4405L166.216 91.5253L165.41 91.1351L166.216 91.5253C165.877 92.2236 165.128 92.6249 164.359 92.5191L156.562 91.4464L162.24 96.8978C162.799 97.4351 162.949 98.2718 162.611 98.9702L159.181 106.055L166.121 102.339C166.805 101.973 167.647 102.089 168.206 102.626L173.885 108.078L172.495 100.33C172.358 99.5661 172.729 98.801 173.413 98.4347L180.352 94.7191L172.554 93.6464C171.785 93.5406 171.172 92.9519 171.035 92.1882L169.645 84.4405Z" stroke="white" stroke-opacity="0.5" stroke-width="1.79101"/>
  <path d="M203.212 84.4405L199.782 91.5253L198.976 91.1351L199.782 91.5253C199.444 92.2236 198.695 92.6249 197.926 92.5191L190.128 91.4464L195.806 96.8978C196.366 97.4351 196.516 98.2718 196.178 98.9702L192.748 106.055L199.687 102.339C200.371 101.973 201.213 102.089 201.773 102.626L207.451 108.078L206.061 100.33C205.925 99.5661 206.295 98.801 206.979 98.4347L213.918 94.7191L206.12 93.6464C205.352 93.5406 204.738 92.9519 204.601 92.1882L203.212 84.4405Z" stroke="white" stroke-opacity="0.5" stroke-width="1.79101"/>
  <path d="M173.21 47.3437C173.065 47.1205 172.719 47.2132 172.705 47.479L172.279 55.5961C172.244 56.2774 171.773 56.8582 171.114 57.0348L163.263 59.1385C163.006 59.2074 162.987 59.565 163.236 59.6604L170.824 62.5733C171.461 62.8177 171.868 63.4445 171.832 64.1258L171.407 72.2429C171.393 72.5087 171.727 72.637 171.895 72.4302L177.01 66.1134C177.439 65.5832 178.161 65.3897 178.798 65.6342L186.387 68.5471C186.635 68.6425 186.86 68.3642 186.715 68.141L182.289 61.3241C181.917 60.7519 181.956 60.0056 182.385 59.4754L187.501 53.1586C187.668 52.9518 187.473 52.6514 187.216 52.7203L179.365 54.8241C178.706 55.0006 178.008 54.7328 177.637 54.1607L173.21 47.3437Z" stroke="white" stroke-opacity="0.5" stroke-width="1.3"/>
  <path d="M200.676 63.4438L200.374 69.1975C200.345 69.7647 199.953 70.2482 199.404 70.3952L193.839 71.8864L199.218 73.9512C199.748 74.1547 200.087 74.6765 200.057 75.2437L199.756 80.9974L203.382 76.5198C203.739 76.0784 204.34 75.9174 204.87 76.1209L210.249 78.1857L207.111 73.3536C206.802 72.8773 206.835 72.2559 207.192 71.8146L210.818 67.337L205.253 68.8282C204.704 68.9752 204.123 68.7522 203.814 68.2759L200.676 63.4438Z" stroke="white" stroke-opacity="0.5" stroke-width="1.31097"/>
  <path d="M224.676 102.444L224.374 108.198C224.345 108.765 223.953 109.248 223.404 109.395L217.839 110.886L223.218 112.951C223.748 113.155 224.087 113.677 224.057 114.244L223.756 119.997L227.382 115.52C227.739 115.078 228.34 114.917 228.87 115.121L234.249 117.186L231.111 112.354C230.802 111.877 230.835 111.256 231.192 110.815L234.818 106.337L229.253 107.828C228.704 107.975 228.123 107.752 227.814 107.276L224.676 102.444Z" stroke="white" stroke-opacity="0.5" stroke-width="1.31097"/>
  <path d="M181.957 112.444L181.656 118.198C181.626 118.765 181.234 119.248 180.686 119.395L175.12 120.886L180.499 122.951C181.03 123.155 181.368 123.677 181.339 124.244L181.037 129.997L184.663 125.52C185.021 125.078 185.621 124.917 186.152 125.121L191.531 127.186L188.393 122.354C188.083 121.877 188.116 121.256 188.473 120.815L192.099 116.337L186.534 117.828C185.985 117.975 185.404 117.752 185.095 117.276L181.957 112.444Z" stroke="white" stroke-opacity="0.5" stroke-width="1.31097"/>
  <path d="M188.69 75.3668L184.408 79.222C183.986 79.6021 183.367 79.6671 182.875 79.3831L177.886 76.5023L180.229 81.7658C180.46 82.2847 180.331 82.8932 179.909 83.2733L175.627 87.1285L181.357 86.5263C181.922 86.4669 182.461 86.778 182.692 87.2969L185.035 92.5603L186.233 86.9246C186.351 86.3691 186.813 85.9528 187.378 85.8934L193.108 85.2912L188.119 82.4104C187.627 82.1264 187.374 81.558 187.492 81.0025L188.69 75.3668Z" stroke="white" stroke-opacity="0.5" stroke-width="1.31097"/>
  </g>
  <path d="M167.849 79.4541C153.475 79.4541 141.762 90.355 138.826 95.8408C138.813 95.8654 138.801 95.8848 138.785 95.9077C138.397 96.466 132.999 104.362 132.999 111.712C132.999 118.527 141.633 118.313 143.467 118.191C143.684 118.177 143.866 118.053 143.968 117.861C146.957 112.297 153.705 101.741 167.849 101.741C185.74 101.741 200.096 108.689 209.395 123.161C209.508 123.336 209.694 123.45 209.903 123.453C211.504 123.476 218.451 123.214 218.964 116.991C219.526 110.177 213.012 101.715 212.596 101.181C212.582 101.163 212.569 101.145 212.556 101.126C203.257 86.483 184.683 79.4541 167.849 79.4541Z" fill="url(#paint3_linear_878_99912)" stroke="#D1CDC5" stroke-width="1.09091"/>
  <path d="M98.3154 318.461C103.193 304.238 148.815 306.961 148.815 306.961L159.84 281.336C159.84 281.336 172.815 317.961 160.036 331.694C147.257 345.427 93.4375 332.684 98.3154 318.461Z" fill="url(#paint4_radial_878_99912)"/>
  <path d="M251.353 318.461C246.475 304.238 200.853 306.961 200.853 306.961L189.828 281.336C189.828 281.336 176.853 317.961 189.632 331.694C202.41 345.427 256.23 332.684 251.353 318.461Z" fill="url(#paint5_radial_878_99912)"/>
  <path d="M238.55 285.836C243.296 273.576 232.465 229.999 225.777 209.043C225.655 208.662 225.252 208.483 224.893 208.657C219.839 211.114 187.034 226.836 175.05 226.836C162.903 226.836 130.234 210.681 126.004 208.564C125.733 208.428 125.415 208.495 125.222 208.728C120.483 214.433 112.097 227.02 114.051 234.836C116.551 244.836 108.551 253.336 105.551 265.336C102.551 277.336 111.551 282.836 111.551 290.836C111.551 298.836 103.05 293.836 99.5499 301.336C96.9991 306.802 98.1277 312.683 99.2309 315.577C99.3811 315.971 99.8629 316.09 100.215 315.858C112.099 308.027 147.363 320.083 163.929 327.283C164.011 327.319 164.096 327.336 164.186 327.336H187.809C187.965 327.336 188.118 327.278 188.237 327.178C215.197 304.398 247.053 317.825 248.55 312.836C249.735 308.887 242.568 303.637 238.697 301.42C238.599 301.364 238.491 301.338 238.378 301.328C236.397 301.153 233.886 297.885 238.55 285.836Z" fill="url(#paint6_radial_878_99912)"/>
  <mask id="mask1_878_99912" style="mask-type:alpha" maskUnits="userSpaceOnUse" x="98" y="208" width="151" height="120">
  <path d="M238.55 285.836C243.296 273.576 232.465 229.999 225.777 209.043C225.655 208.662 225.252 208.483 224.893 208.657C219.839 211.114 187.034 226.836 175.05 226.836C162.903 226.836 130.234 210.681 126.004 208.564C125.733 208.428 125.415 208.495 125.222 208.728C120.483 214.433 112.097 227.02 114.051 234.836C116.551 244.836 108.551 253.336 105.551 265.336C102.551 277.336 111.551 282.836 111.551 290.836C111.551 298.836 103.05 293.836 99.5499 301.336C96.9991 306.802 98.1277 312.683 99.2309 315.577C99.3811 315.971 99.8629 316.09 100.215 315.858C112.099 308.027 147.363 320.083 163.929 327.283C164.011 327.319 164.096 327.336 164.186 327.336H187.809C187.965 327.336 188.118 327.278 188.237 327.178C215.197 304.398 247.053 317.825 248.55 312.836C249.735 308.887 242.568 303.637 238.697 301.42C238.599 301.364 238.491 301.338 238.378 301.328C236.397 301.153 233.886 297.885 238.55 285.836Z" fill="url(#paint7_radial_878_99912)"/>
  <path d="M225.257 209.209C228.596 219.669 232.97 235.782 235.916 250.805C237.389 258.317 238.503 265.545 238.953 271.652C239.405 277.786 239.18 282.698 238.041 285.639C235.698 291.692 235.122 295.623 235.431 298.102C235.743 300.605 236.997 301.754 238.33 301.872C238.395 301.878 238.419 301.889 238.426 301.893C240.336 302.987 243.054 304.828 245.138 306.868C246.181 307.889 247.042 308.939 247.571 309.951C248.101 310.963 248.268 311.879 248.027 312.679C247.943 312.962 247.609 313.258 246.556 313.41C245.55 313.556 244.128 313.534 242.316 313.433C241.423 313.384 240.443 313.315 239.385 313.242C236.188 313.019 232.282 312.747 227.937 312.79C216.345 312.905 201.498 315.259 187.885 326.761C187.861 326.781 187.831 326.791 187.809 326.791H164.186C164.174 326.791 164.165 326.789 164.157 326.787C164.153 326.786 164.15 326.785 164.146 326.783C155.843 323.174 142.854 318.348 130.442 315.403C124.237 313.931 118.157 312.924 112.869 312.781C107.599 312.639 103.028 313.351 99.9148 315.402C99.8706 315.431 99.8239 315.435 99.7906 315.426C99.7748 315.421 99.7643 315.415 99.758 315.409C99.7525 315.404 99.7461 315.397 99.7405 315.383C98.6665 312.565 97.579 306.849 100.044 301.567C101.599 298.236 104.164 297.555 106.643 296.897C106.764 296.865 106.884 296.833 107.004 296.8C108.271 296.46 109.571 296.075 110.535 295.201C111.533 294.294 112.096 292.938 112.096 290.836C112.096 288.731 111.504 286.809 110.691 284.946C110.205 283.83 109.619 282.695 109.03 281.553C108.652 280.82 108.273 280.084 107.917 279.348C106.069 275.53 104.624 271.293 106.08 265.468C107.179 261.072 108.949 257.17 110.64 253.44C111.236 252.126 111.822 250.834 112.366 249.549C114.437 244.652 115.875 239.885 114.58 234.704C114.121 232.868 114.261 230.713 114.835 228.393C115.408 226.077 116.402 223.632 117.613 221.237C120.035 216.445 123.291 211.906 125.641 209.077C125.659 209.055 125.679 209.045 125.696 209.042C125.713 209.038 125.735 209.039 125.76 209.052C127.879 210.112 137.116 214.687 147.346 218.997C152.461 221.152 157.832 223.244 162.691 224.798C167.533 226.348 171.922 227.382 175.05 227.382C178.136 227.382 182.501 226.376 187.346 224.862C192.207 223.343 197.605 221.294 202.777 219.173C213.124 214.929 222.601 210.378 225.131 209.148C225.167 209.13 225.19 209.135 225.205 209.141C225.22 209.148 225.243 209.165 225.257 209.209Z" stroke="white" stroke-opacity="0.5" stroke-width="1.09091"/>
  </mask>
  <g mask="url(#mask1_878_99912)">
  <path d="M108.343 244.665L111.773 251.75L112.579 251.359L111.773 251.75C112.111 252.448 112.861 252.849 113.629 252.743L121.427 251.671L115.749 257.122C115.189 257.659 115.039 258.496 115.377 259.194L118.807 266.279L111.868 262.564C111.184 262.197 110.342 262.313 109.782 262.85L104.104 268.302L105.494 260.554C105.631 259.79 105.26 259.025 104.576 258.659L97.6371 254.943L105.435 253.871C106.204 253.765 106.817 253.176 106.954 252.412L108.343 244.665Z" stroke="white" stroke-opacity="0.5" stroke-width="1.79101"/>
  <path d="M149.895 230.164C150.049 229.311 151.205 229.151 151.583 229.932L155.013 237.017C155.182 237.366 155.557 237.567 155.941 237.514L163.739 236.441C164.598 236.323 165.107 237.374 164.481 237.974L158.803 243.426C158.523 243.694 158.448 244.113 158.617 244.462L162.047 251.547C162.425 252.327 161.583 253.136 160.818 252.726L153.879 249.011C153.537 248.828 153.116 248.885 152.836 249.154L147.158 254.605C146.532 255.206 145.503 254.655 145.656 253.801L147.046 246.054C147.114 245.672 146.929 245.289 146.587 245.106L139.648 241.39C138.883 240.981 139.089 239.832 139.949 239.714L147.747 238.641C148.131 238.588 148.437 238.294 148.506 237.912L149.895 230.164Z" fill="white" fill-opacity="0.5"/>
  <path d="M150.777 230.322L154.207 237.407L155.013 237.017L154.207 237.407C154.545 238.106 155.294 238.507 156.063 238.401L163.861 237.328L158.183 242.78C157.623 243.317 157.473 244.154 157.811 244.852L161.241 251.937L154.302 248.221C153.618 247.855 152.776 247.971 152.216 248.508L146.538 253.959L147.927 246.212C148.064 245.448 147.694 244.683 147.01 244.317L140.071 240.601L147.869 239.528C148.637 239.423 149.25 238.834 149.387 238.07L150.777 230.322Z" stroke="white" stroke-opacity="0.5" stroke-width="1.79101"/>
  <path d="M149.895 277.164C150.049 276.311 151.205 276.151 151.583 276.932L155.013 284.017C155.182 284.366 155.557 284.567 155.941 284.514L163.739 283.441C164.598 283.323 165.107 284.374 164.481 284.974L158.803 290.426C158.523 290.694 158.448 291.113 158.617 291.462L162.047 298.547C162.425 299.327 161.583 300.136 160.818 299.726L153.879 296.011C153.537 295.828 153.116 295.885 152.836 296.154L147.158 301.605C146.532 302.206 145.503 301.655 145.656 300.801L147.046 293.054C147.114 292.672 146.929 292.289 146.587 292.106L139.648 288.39C138.883 287.981 139.089 286.832 139.949 286.714L147.747 285.641C148.131 285.588 148.437 285.294 148.506 284.912L149.895 277.164Z" fill="white" fill-opacity="0.5"/>
  <path d="M150.777 277.322L154.207 284.407L155.013 284.017L154.207 284.407C154.545 285.106 155.294 285.507 156.063 285.401L163.861 284.328L158.183 289.78C157.623 290.317 157.473 291.154 157.811 291.852L161.241 298.937L154.302 295.221C153.618 294.855 152.776 294.971 152.216 295.508L146.538 300.959L147.927 293.212C148.064 292.448 147.694 291.683 147.01 291.317L140.071 287.601L147.869 286.528C148.637 286.423 149.25 285.834 149.387 285.07L150.777 277.322Z" stroke="white" stroke-opacity="0.5" stroke-width="1.79101"/>
  <path d="M108.777 291.322L112.207 298.407L113.013 298.017L112.207 298.407C112.545 299.106 113.294 299.507 114.063 299.401L121.861 298.328L116.183 303.78C115.623 304.317 115.473 305.154 115.811 305.852L119.241 312.937L112.302 309.221C111.618 308.855 110.776 308.971 110.216 309.508L104.538 314.959L105.927 307.212C106.064 306.448 105.694 305.683 105.01 305.317L98.0707 301.601L105.869 300.528C106.637 300.423 107.25 299.834 107.387 299.07L108.777 291.322Z" stroke="white" stroke-opacity="0.5" stroke-width="1.79101"/>
  <path d="M123.36 199.288C123.549 198.235 124.975 198.039 125.44 199.002L129.668 207.735C129.877 208.165 130.339 208.413 130.812 208.347L140.425 207.025C141.484 206.879 142.111 208.174 141.34 208.915L134.34 215.635C133.995 215.966 133.903 216.482 134.111 216.912L138.339 225.645C138.805 226.608 137.767 227.604 136.825 227.099L128.271 222.519C127.849 222.293 127.33 222.365 126.985 222.696L119.986 229.416C119.215 230.156 117.946 229.477 118.135 228.425L119.848 218.874C119.932 218.403 119.704 217.932 119.282 217.706L110.729 213.126C109.786 212.621 110.04 211.205 111.099 211.059L120.711 209.737C121.185 209.672 121.563 209.309 121.648 208.838L123.36 199.288Z" fill="white" fill-opacity="0.5"/>
  <path d="M128.792 221.546L128.271 222.519L128.792 221.546C127.949 221.095 126.911 221.237 126.221 221.9L119.221 228.619L120.934 219.069C121.103 218.128 120.647 217.184 119.803 216.733L111.25 212.153L120.862 210.83C121.809 210.7 122.565 209.974 122.734 209.033L124.447 199.483L128.675 208.216C129.092 209.077 130.015 209.571 130.963 209.441L140.575 208.119L133.576 214.838C132.886 215.501 132.701 216.532 133.118 217.393L137.346 226.126L128.792 221.546Z" stroke="white" stroke-opacity="0.5" stroke-width="2.20773"/>
  <path d="M127.312 230.326L127.613 236.079C127.643 236.647 128.035 237.13 128.583 237.277L134.149 238.768L128.77 240.833C128.239 241.037 127.901 241.558 127.93 242.126L128.232 247.879L124.606 243.402C124.249 242.96 123.648 242.799 123.117 243.003L117.738 245.068L120.876 240.236C121.186 239.759 121.153 239.138 120.796 238.697L117.17 234.219L122.735 235.71C123.284 235.857 123.865 235.634 124.174 235.158L127.312 230.326Z" stroke="white" stroke-opacity="0.5" stroke-width="1.31097"/>
  <path d="M138.78 254.226C138.925 254.002 139.271 254.095 139.285 254.361L139.71 262.478C139.746 263.159 140.216 263.74 140.875 263.917L148.727 266.02C148.984 266.089 149.002 266.447 148.754 266.542L141.166 269.455C140.529 269.7 140.122 270.326 140.157 271.008L140.583 279.125C140.597 279.391 140.262 279.519 140.095 279.312L134.98 272.995C134.55 272.465 133.828 272.272 133.191 272.516L125.603 275.429C125.355 275.524 125.129 275.246 125.274 275.023L129.701 268.206C130.073 267.634 130.034 266.888 129.604 266.357L124.489 260.041C124.322 259.834 124.517 259.533 124.774 259.602L132.625 261.706C133.284 261.883 133.982 261.615 134.353 261.043L138.78 254.226Z" stroke="white" stroke-opacity="0.5" stroke-width="1.3"/>
  <path d="M111.312 270.326L111.613 276.079C111.643 276.647 112.035 277.13 112.583 277.277L118.149 278.768L112.77 280.833C112.239 281.037 111.901 281.558 111.93 282.126L112.232 287.879L108.606 283.402C108.249 282.96 107.648 282.799 107.117 283.003L101.738 285.068L104.876 280.236C105.186 279.759 105.153 279.138 104.796 278.697L101.17 274.219L106.735 275.71C107.284 275.857 107.865 275.634 108.174 275.158L111.312 270.326Z" stroke="white" stroke-opacity="0.5" stroke-width="1.31097"/>
  <path d="M136.313 301.326L136.614 307.079C136.644 307.647 137.036 308.13 137.584 308.277L143.15 309.768L137.771 311.833C137.24 312.037 136.902 312.558 136.931 313.126L137.233 318.879L133.607 314.402C133.25 313.96 132.649 313.799 132.118 314.003L126.739 316.068L129.877 311.236C130.187 310.759 130.154 310.138 129.797 309.697L126.171 305.219L131.736 306.71C132.285 306.857 132.866 306.634 133.175 306.158L136.313 301.326Z" stroke="white" stroke-opacity="0.5" stroke-width="1.31097"/>
  <path d="M194.311 314.326L194.612 320.079C194.642 320.647 195.034 321.13 195.582 321.277L201.148 322.768L195.769 324.833C195.238 325.037 194.9 325.558 194.929 326.126L195.231 331.879L191.605 327.402C191.248 326.96 190.647 326.799 190.116 327.003L184.737 329.068L187.875 324.236C188.185 323.759 188.152 323.138 187.795 322.697L184.169 318.219L189.734 319.71C190.283 319.857 190.864 319.634 191.173 319.158L194.311 314.326Z" stroke="white" stroke-opacity="0.5" stroke-width="1.31097"/>
  <path d="M123.299 282.249L127.581 286.104C128.003 286.484 128.622 286.549 129.113 286.265L134.103 283.384L131.76 288.648C131.529 289.167 131.658 289.775 132.08 290.155L136.362 294.01L130.632 293.408C130.067 293.349 129.528 293.66 129.297 294.179L126.954 299.442L125.756 293.807C125.638 293.251 125.175 292.835 124.611 292.775L118.88 292.173L123.87 289.292C124.362 289.008 124.615 288.44 124.497 287.884L123.299 282.249Z" stroke="white" stroke-opacity="0.5" stroke-width="1.31097"/>
  <path d="M240.217 257.665L236.787 264.75L235.981 264.359L236.787 264.75C236.449 265.448 235.7 265.849 234.931 265.743L227.133 264.671L232.811 270.122C233.371 270.659 233.521 271.496 233.183 272.194L229.753 279.279L236.692 275.564C237.376 275.197 238.219 275.313 238.778 275.85L244.456 281.302L243.067 273.554C242.93 272.79 243.3 272.025 243.984 271.659L250.923 267.943L243.126 266.871C242.357 266.765 241.744 266.176 241.607 265.412L240.217 257.665Z" stroke="white" stroke-opacity="0.5" stroke-width="1.79101"/>
  <path d="M198.665 243.164C198.512 242.311 197.356 242.151 196.978 242.932L193.548 250.017C193.379 250.366 193.004 250.567 192.62 250.514L184.822 249.441C183.962 249.323 183.454 250.374 184.08 250.974L189.758 256.426C190.038 256.694 190.113 257.113 189.944 257.462L186.514 264.547C186.136 265.327 186.978 266.136 187.742 265.726L194.682 262.011C195.024 261.828 195.445 261.885 195.724 262.154L201.403 267.605C202.028 268.206 203.057 267.655 202.904 266.801L201.515 259.054C201.446 258.672 201.631 258.289 201.973 258.106L208.913 254.39C209.677 253.981 209.471 252.832 208.612 252.714L200.814 251.641C200.43 251.588 200.123 251.294 200.055 250.912L198.665 243.164Z" fill="white" fill-opacity="0.5"/>
  <path d="M197.784 243.322L194.354 250.407L193.548 250.017L194.354 250.407C194.016 251.106 193.266 251.507 192.498 251.401L184.7 250.328L190.378 255.78C190.938 256.317 191.088 257.154 190.75 257.852L187.32 264.937L194.259 261.221C194.943 260.855 195.785 260.971 196.345 261.508L202.023 266.959L200.633 259.212C200.496 258.448 200.867 257.683 201.551 257.317L208.49 253.601L200.692 252.528C199.923 252.423 199.31 251.834 199.173 251.07L197.784 243.322Z" stroke="white" stroke-opacity="0.5" stroke-width="1.79101"/>
  <path d="M197.784 290.322L194.354 297.407L193.548 297.017L194.354 297.407C194.016 298.106 193.266 298.507 192.498 298.401L184.7 297.328L190.378 302.78C190.938 303.317 191.088 304.154 190.75 304.852L187.32 311.937L194.259 308.221C194.943 307.855 195.785 307.971 196.345 308.508L202.023 313.959L200.633 306.212C200.496 305.448 200.867 304.683 201.551 304.317L208.49 300.601L200.692 299.528C199.923 299.423 199.31 298.834 199.173 298.07L197.784 290.322Z" stroke="white" stroke-opacity="0.5" stroke-width="1.79101"/>
  <path d="M157.217 296.322L153.787 303.407L152.981 303.017L153.787 303.407C153.449 304.106 152.7 304.507 151.931 304.401L144.133 303.328L149.811 308.78C150.371 309.317 150.521 310.154 150.183 310.852L146.753 317.937L153.692 314.221C154.376 313.855 155.219 313.971 155.778 314.508L161.456 319.959L160.067 312.212C159.93 311.448 160.3 310.683 160.984 310.317L167.923 306.601L160.126 305.528C159.357 305.423 158.744 304.834 158.607 304.07L157.217 296.322Z" stroke="white" stroke-opacity="0.5" stroke-width="1.79101"/>
  <path d="M239.784 304.322L236.354 311.407L235.548 311.017L236.354 311.407C236.016 312.106 235.266 312.507 234.498 312.401L226.7 311.328L232.378 316.78C232.938 317.317 233.088 318.154 232.75 318.852L229.32 325.937L236.259 322.221C236.943 321.855 237.785 321.971 238.345 322.508L244.023 327.959L242.633 320.212C242.496 319.448 242.867 318.683 243.551 318.317L250.49 314.601L242.692 313.528C241.923 313.423 241.31 312.834 241.173 312.07L239.784 304.322Z" stroke="white" stroke-opacity="0.5" stroke-width="1.79101"/>
  <path d="M225.2 212.288C225.011 211.235 223.586 211.039 223.12 212.002L218.892 220.735C218.684 221.165 218.222 221.413 217.748 221.347L208.136 220.025C207.077 219.879 206.45 221.174 207.221 221.915L214.22 228.635C214.565 228.966 214.658 229.482 214.449 229.912L210.221 238.645C209.755 239.608 210.793 240.604 211.736 240.099L220.29 235.519C220.711 235.293 221.23 235.365 221.575 235.696L228.575 242.416C229.346 243.156 230.614 242.477 230.426 241.425L228.713 231.874C228.628 231.403 228.857 230.932 229.278 230.706L237.832 226.126C238.775 225.621 238.521 224.205 237.461 224.059L227.849 222.737C227.375 222.672 226.997 222.309 226.913 221.838L225.2 212.288Z" fill="white" fill-opacity="0.5"/>
  <path d="M219.769 234.546L220.29 235.519L219.769 234.546C220.612 234.095 221.65 234.237 222.34 234.9L229.339 241.619L227.626 232.069C227.457 231.128 227.914 230.184 228.757 229.733L237.311 225.153L227.699 223.83C226.751 223.7 225.995 222.974 225.826 222.033L224.114 212.483L219.886 221.216C219.469 222.077 218.545 222.571 217.598 222.441L207.985 221.119L214.985 227.838C215.675 228.501 215.86 229.532 215.443 230.393L211.215 239.126L219.769 234.546Z" stroke="white" stroke-opacity="0.5" stroke-width="2.20773"/>
  <path d="M221.248 243.326L220.946 249.079C220.916 249.647 220.525 250.13 219.976 250.277L214.411 251.768L219.79 253.833C220.32 254.037 220.659 254.558 220.629 255.126L220.328 260.879L223.954 256.402C224.311 255.96 224.912 255.799 225.442 256.003L230.821 258.068L227.683 253.236C227.374 252.759 227.406 252.138 227.764 251.697L231.39 247.219L225.824 248.71C225.276 248.857 224.695 248.634 224.386 248.158L221.248 243.326Z" stroke="white" stroke-opacity="0.5" stroke-width="1.31097"/>
  <path d="M209.781 267.226C209.636 267.002 209.291 267.095 209.277 267.361L208.851 275.478C208.815 276.159 208.345 276.74 207.686 276.917L199.835 279.02C199.578 279.089 199.559 279.447 199.808 279.542L207.396 282.455C208.033 282.7 208.44 283.326 208.404 284.008L207.979 292.125C207.965 292.391 208.299 292.519 208.467 292.312L213.582 285.995C214.011 285.465 214.733 285.272 215.37 285.516L222.958 288.429C223.207 288.524 223.432 288.246 223.287 288.023L218.86 281.206C218.489 280.634 218.528 279.888 218.957 279.357L224.072 273.041C224.24 272.834 224.045 272.533 223.788 272.602L215.937 274.706C215.278 274.883 214.58 274.615 214.208 274.043L209.781 267.226Z" stroke="white" stroke-opacity="0.5" stroke-width="1.3"/>
  <path d="M237.248 283.326L236.946 289.079C236.916 289.647 236.525 290.13 235.976 290.277L230.411 291.768L235.79 293.833C236.32 294.037 236.659 294.558 236.629 295.126L236.328 300.879L239.954 296.402C240.311 295.96 240.912 295.799 241.442 296.003L246.821 298.068L243.683 293.236C243.374 292.759 243.406 292.138 243.764 291.697L247.39 287.219L241.824 288.71C241.276 288.857 240.695 288.634 240.386 288.158L237.248 283.326Z" stroke="white" stroke-opacity="0.5" stroke-width="1.31097"/>
  <path d="M212.248 314.326L211.946 320.079C211.916 320.647 211.525 321.13 210.976 321.277L205.411 322.768L210.79 324.833C211.32 325.037 211.659 325.558 211.629 326.126L211.328 331.879L214.954 327.402C215.311 326.96 215.912 326.799 216.442 327.003L221.821 329.068L218.683 324.236C218.374 323.759 218.406 323.138 218.764 322.697L222.39 318.219L216.824 319.71C216.276 319.857 215.695 319.634 215.386 319.158L212.248 314.326Z" stroke="white" stroke-opacity="0.5" stroke-width="1.31097"/>
  <path d="M169.529 324.326L169.227 330.079C169.198 330.647 168.806 331.13 168.258 331.277L162.692 332.768L168.071 334.833C168.601 335.037 168.94 335.558 168.911 336.126L168.609 341.879L172.235 337.402C172.592 336.96 173.193 336.799 173.723 337.003L179.102 339.068L175.964 334.236C175.655 333.759 175.688 333.138 176.045 332.697L179.671 328.219L174.106 329.71C173.557 329.857 172.976 329.634 172.667 329.158L169.529 324.326Z" stroke="white" stroke-opacity="0.5" stroke-width="1.31097"/>
  <path d="M225.261 295.249L220.98 299.104C220.558 299.484 219.939 299.549 219.447 299.265L214.457 296.384L216.801 301.648C217.032 302.167 216.902 302.775 216.48 303.155L212.199 307.01L217.929 306.408C218.494 306.349 219.032 306.66 219.263 307.179L221.607 312.442L222.805 306.807C222.923 306.251 223.385 305.835 223.95 305.775L229.68 305.173L224.69 302.292C224.199 302.008 223.945 301.44 224.064 300.884L225.261 295.249Z" stroke="white" stroke-opacity="0.5" stroke-width="1.31097"/>
  </g>
  <path d="M166.662 280.313C170.579 252.676 166.468 236.599 160.871 226.402C160.747 226.178 160.504 226.05 160.248 226.072L147.164 227.166C146.94 227.185 146.742 227.314 146.641 227.515C140.672 239.373 141.887 260.029 154.958 292.079C158.913 301.777 168.784 317.629 182.489 325.499C183.022 325.805 183.521 325.314 183.163 324.815C178.668 318.562 163.03 305.944 166.662 280.313Z" fill="url(#paint8_linear_878_99912)" stroke="#D1CDC5" stroke-width="1.09091"/>
  <path d="M155.891 289.197C142.232 255.706 156.083 228.423 165.446 218.448C165.825 218.044 165.585 217.366 165.034 217.306L147.76 215.432C147.566 215.411 147.375 215.474 147.237 215.612C135.591 227.184 129.939 254.786 145.859 293.864C145.875 293.903 145.895 293.942 145.918 293.977C157.845 312.115 177.858 327.128 172.004 320.836C169.754 318.418 158.374 296.187 155.891 289.197Z" fill="url(#paint9_linear_878_99912)" stroke="#D1CDC5" stroke-width="1.09091"/>
  <path d="M144.762 287.136C131.104 253.645 144.751 226.081 154.099 216.087C154.478 215.682 154.238 215.005 153.687 214.945L136.413 213.07C136.219 213.049 136.028 213.113 135.889 213.25C124.221 224.786 117.278 248.991 133.228 288.1C138.152 300.172 151.693 311.048 160.003 314.053C160.551 314.251 160.993 313.679 160.672 313.192C156.875 307.419 147.618 296.09 144.762 287.136Z" fill="url(#paint10_linear_878_99912)" stroke="#D1CDC5" stroke-width="1.09091"/>
  <path d="M121.983 259.487C120.009 236.711 127.625 218.771 138.727 213.162C145.909 209.533 152.316 208.152 155.945 207.629C156.648 207.528 156.769 206.537 156.085 206.348C150.858 204.91 139.685 202.937 129.876 208.566C116.537 216.219 109.849 228.358 112.089 254.208C112.753 261.871 118.859 272.846 123.214 276.8C123.646 277.192 124.24 276.793 124.12 276.223C123.257 272.123 122.026 264.936 121.983 259.487Z" fill="url(#paint11_linear_878_99912)" stroke="#D1CDC5" stroke-width="1.09091"/>
  <path d="M134.677 281.11C127.364 252.788 133.175 228.538 145.995 219.11C154.836 212.608 163.106 209.515 167.388 208.222C168.067 208.016 168.036 207.018 167.331 206.934C160.856 206.158 145.538 205.596 133.854 215.184C118.644 227.666 112.775 244.399 121.075 276.543C123.586 286.264 133.971 299.134 140.275 302.929C140.775 303.23 141.296 302.728 141.081 302.186C139.136 297.281 135.919 288.17 134.677 281.11Z" fill="url(#paint12_linear_878_99912)" stroke="#D1CDC5" stroke-width="1.09091"/>
  <path d="M183.503 294.336C191.618 266.598 184.7 244.804 180.36 233.424C180.269 233.185 180.048 233.028 179.792 233.012L166.202 232.191C165.978 232.177 165.764 232.277 165.635 232.461C157.757 243.717 155.934 265.054 164.569 299.825C167.181 310.345 169.548 313.736 182.017 322.767C182.515 323.127 183.119 322.681 182.809 322.15C180.599 318.357 176.2 319.3 183.503 294.336Z" fill="url(#paint13_linear_878_99912)" stroke="#D1CDC5" stroke-width="1.09091"/>
  <path d="M175.521 280.313C171.605 252.677 176.691 238.553 182.311 228.403C182.435 228.178 182.679 228.05 182.935 228.072L196.02 229.166C196.243 229.185 196.441 229.314 196.542 229.515C202.511 241.373 201.296 262.029 188.225 294.079C184.27 303.777 174.399 319.629 160.694 327.499C160.161 327.805 159.647 327.307 159.987 326.796C164.324 320.271 179.157 305.97 175.521 280.313Z" fill="url(#paint14_linear_878_99912)" stroke="#D1CDC5" stroke-width="1.09091"/>
  <path d="M187.293 291.197C200.951 257.706 187.1 230.423 177.737 220.448C177.358 220.043 177.598 219.366 178.149 219.306L195.423 217.431C195.617 217.41 195.808 217.474 195.946 217.611C207.591 229.182 213.243 256.779 197.331 295.849C197.311 295.898 197.284 295.946 197.253 295.989C183.345 315.106 168.814 323.988 174.668 317.698C176.918 315.28 184.809 298.187 187.293 291.197Z" fill="url(#paint15_linear_878_99912)" stroke="#D1CDC5" stroke-width="1.09091"/>
  <path d="M198.421 289.135C212.079 255.645 198.432 228.081 189.084 218.087C188.705 217.682 188.945 217.005 189.496 216.945L206.77 215.07C206.964 215.049 207.155 215.113 207.294 215.25C218.962 226.786 225.905 250.991 209.955 290.1C205.033 302.167 192.385 313.04 184.18 316.049C183.632 316.25 183.186 315.676 183.499 315.184C187.167 309.409 195.567 298.086 198.421 289.135Z" fill="url(#paint16_linear_878_99912)" stroke="#D1CDC5" stroke-width="1.09091"/>
  <path d="M227.199 259.487C229.173 236.711 221.557 218.771 210.455 213.162C203.272 209.533 196.865 208.152 193.237 207.629C192.534 207.528 192.412 206.537 193.097 206.348C198.324 204.91 209.497 202.937 219.306 208.566C232.644 216.219 239.333 228.358 237.093 254.208C236.429 261.871 230.323 272.846 225.968 276.8C225.536 277.192 224.942 276.793 225.062 276.223C225.924 272.123 227.156 264.936 227.199 259.487Z" fill="url(#paint17_linear_878_99912)" stroke="#D1CDC5" stroke-width="1.09091"/>
  <path d="M214.504 281.11C221.818 252.788 216.007 228.538 203.186 219.11C194.346 212.608 186.076 209.515 181.794 208.222C181.114 208.016 181.145 207.018 181.85 206.934C188.326 206.158 203.644 205.596 215.328 215.184C230.538 227.666 236.407 244.399 228.106 276.543C225.596 286.264 215.21 299.134 208.907 302.929C208.407 303.23 207.886 302.728 208.101 302.186C210.045 297.281 213.262 288.17 214.504 281.11Z" fill="url(#paint18_linear_878_99912)" stroke="#D1CDC5" stroke-width="1.09091"/>
  <path d="M170.672 212.457C185.792 211.858 208.391 212.77 216.055 232.008C222.693 248.669 231.641 253.352 237.212 252.12C237.825 251.904 238.423 251.685 239.004 251.462C238.458 251.754 237.857 251.977 237.212 252.12C215.294 259.816 173.972 262.015 170.057 213.175C170.027 212.807 170.303 212.472 170.672 212.457Z" fill="url(#paint19_linear_878_99912)" stroke="#D1CDC5" stroke-width="1.09091"/>
  <path d="M179.336 212.457C164.216 211.858 141.617 212.77 133.953 232.008C127.315 248.669 118.367 253.352 112.796 252.12C112.183 251.904 111.585 251.685 111.004 251.462C111.55 251.754 112.15 251.977 112.796 252.12C134.714 259.816 176.036 262.015 179.951 213.175C179.981 212.807 179.705 212.472 179.336 212.457Z" fill="url(#paint20_linear_878_99912)" stroke="#D1CDC5" stroke-width="1.09091"/>
  <path d="M174.217 235.138C191.973 235.589 201.686 228.722 203.254 221.521C206.052 208.673 184.717 202.636 170.369 203.68C156.021 204.725 147.024 208.975 145.558 215.802C144.092 222.629 156.461 234.687 174.217 235.138Z" fill="#FFE3B9"/>
  <defs>
  <radialGradient id="paint0_radial_878_99912" cx="0" cy="0" r="1" gradientUnits="userSpaceOnUse" gradientTransform="translate(123.383 60.7541) rotate(36.0407) scale(76.556 64.5247)">
  <stop offset="0.239583" stop-color="#8846DD"/>
  <stop offset="1" stop-color="#A894F7"/>
  </radialGradient>
  <linearGradient id="paint1_linear_878_99912" x1="85.5687" y1="29.7186" x2="99.1452" y2="43.5331" gradientUnits="userSpaceOnUse">
  <stop stop-color="#F9F0E3"/>
  <stop offset="0.713155" stop-color="white"/>
  <stop offset="1" stop-color="#F1EBE2"/>
  </linearGradient>
  <radialGradient id="paint2_radial_878_99912" cx="0" cy="0" r="1" gradientUnits="userSpaceOnUse" gradientTransform="translate(124.383 61.7541) rotate(36.0407) scale(76.556 64.5247)">
  <stop offset="0.239583" stop-color="#8846DD"/>
  <stop offset="1" stop-color="#A894F7"/>
  </radialGradient>
  <linearGradient id="paint3_linear_878_99912" x1="151.893" y1="74.289" x2="185.096" y2="108.362" gradientUnits="userSpaceOnUse">
  <stop stop-color="#F9F0E3"/>
  <stop offset="0.713155" stop-color="white"/>
  <stop offset="1" stop-color="#F1EBE2"/>
  </linearGradient>
  <radialGradient id="paint4_radial_878_99912" cx="0" cy="0" r="1" gradientUnits="userSpaceOnUse" gradientTransform="translate(131.835 309.458) rotate(90) scale(28.1223 33.8308)">
  <stop offset="0.453125" stop-color="#564D61"/>
  <stop offset="1" stop-color="#1D1A21"/>
  </radialGradient>
  <radialGradient id="paint5_radial_878_99912" cx="0" cy="0" r="1" gradientUnits="userSpaceOnUse" gradientTransform="translate(217.833 309.458) rotate(90) scale(28.1223 33.8308)">
  <stop offset="0.453125" stop-color="#564D61"/>
  <stop offset="1" stop-color="#1D1A21"/>
  </radialGradient>
  <radialGradient id="paint6_radial_878_99912" cx="0" cy="0" r="1" gradientUnits="userSpaceOnUse" gradientTransform="translate(130.418 236.156) rotate(42.5006) scale(107.213 94.6095)">
  <stop offset="0.239583" stop-color="#8846DD"/>
  <stop offset="1" stop-color="#A894F7"/>
  </radialGradient>
  <radialGradient id="paint7_radial_878_99912" cx="0" cy="0" r="1" gradientUnits="userSpaceOnUse" gradientTransform="translate(130.418 236.156) rotate(42.5006) scale(107.213 94.6095)">
  <stop offset="0.239583" stop-color="#8846DD"/>
  <stop offset="1" stop-color="#A894F7"/>
  </radialGradient>
  <linearGradient id="paint8_linear_878_99912" x1="168.192" y1="227.378" x2="140.863" y2="229.71" gradientUnits="userSpaceOnUse">
  <stop stop-color="#F9F0E3"/>
  <stop offset="0.713155" stop-color="white"/>
  <stop offset="1" stop-color="#F1EBE2"/>
  </linearGradient>
  <linearGradient id="paint9_linear_878_99912" x1="166.294" y1="214.764" x2="135.331" y2="216.531" gradientUnits="userSpaceOnUse">
  <stop stop-color="#F9F0E3"/>
  <stop offset="0.713155" stop-color="white"/>
  <stop offset="1" stop-color="#F1EBE2"/>
  </linearGradient>
  <linearGradient id="paint10_linear_878_99912" x1="161.335" y1="213.824" x2="123.122" y2="220.167" gradientUnits="userSpaceOnUse">
  <stop stop-color="#F9F0E3"/>
  <stop offset="0.713155" stop-color="white"/>
  <stop offset="1" stop-color="#F1EBE2"/>
  </linearGradient>
  <linearGradient id="paint11_linear_878_99912" x1="153.503" y1="202.66" x2="129.371" y2="197.697" gradientUnits="userSpaceOnUse">
  <stop stop-color="#F9F0E3"/>
  <stop offset="0.713155" stop-color="white"/>
  <stop offset="1" stop-color="#F1EBE2"/>
  </linearGradient>
  <linearGradient id="paint12_linear_878_99912" x1="162.417" y1="202.73" x2="130.915" y2="201.577" gradientUnits="userSpaceOnUse">
  <stop stop-color="#F9F0E3"/>
  <stop offset="0.713155" stop-color="white"/>
  <stop offset="1" stop-color="#F1EBE2"/>
  </linearGradient>
  <linearGradient id="paint13_linear_878_99912" x1="187.718" y1="235.528" x2="159.384" y2="233.862" gradientUnits="userSpaceOnUse">
  <stop stop-color="#F9F0E3"/>
  <stop offset="0.713155" stop-color="white"/>
  <stop offset="1" stop-color="#F1EBE2"/>
  </linearGradient>
  <linearGradient id="paint14_linear_878_99912" x1="174.991" y1="229.378" x2="202.32" y2="231.71" gradientUnits="userSpaceOnUse">
  <stop stop-color="#F9F0E3"/>
  <stop offset="0.713155" stop-color="white"/>
  <stop offset="1" stop-color="#F1EBE2"/>
  </linearGradient>
  <linearGradient id="paint15_linear_878_99912" x1="176.891" y1="216.763" x2="207.853" y2="218.53" gradientUnits="userSpaceOnUse">
  <stop stop-color="#F9F0E3"/>
  <stop offset="0.713155" stop-color="white"/>
  <stop offset="1" stop-color="#F1EBE2"/>
  </linearGradient>
  <linearGradient id="paint16_linear_878_99912" x1="181.849" y1="215.824" x2="220.062" y2="222.166" gradientUnits="userSpaceOnUse">
  <stop stop-color="#F9F0E3"/>
  <stop offset="0.713155" stop-color="white"/>
  <stop offset="1" stop-color="#F1EBE2"/>
  </linearGradient>
  <linearGradient id="paint17_linear_878_99912" x1="195.679" y1="202.66" x2="219.811" y2="197.697" gradientUnits="userSpaceOnUse">
  <stop stop-color="#F9F0E3"/>
  <stop offset="0.713155" stop-color="white"/>
  <stop offset="1" stop-color="#F1EBE2"/>
  </linearGradient>
  <linearGradient id="paint18_linear_878_99912" x1="186.765" y1="202.73" x2="218.267" y2="201.577" gradientUnits="userSpaceOnUse">
  <stop stop-color="#F9F0E3"/>
  <stop offset="0.713155" stop-color="white"/>
  <stop offset="1" stop-color="#F1EBE2"/>
  </linearGradient>
  <linearGradient id="paint19_linear_878_99912" x1="187.661" y1="211.431" x2="215.49" y2="243.029" gradientUnits="userSpaceOnUse">
  <stop stop-color="#F9F0E3"/>
  <stop offset="0.713155" stop-color="white"/>
  <stop offset="1" stop-color="#F1EBE2"/>
  </linearGradient>
  <linearGradient id="paint20_linear_878_99912" x1="162.347" y1="211.431" x2="134.518" y2="243.029" gradientUnits="userSpaceOnUse">
  <stop stop-color="#F9F0E3"/>
  <stop offset="0.713155" stop-color="white"/>
  <stop offset="1" stop-color="#F1EBE2"/>
  </linearGradient>
  </defs>
  
    
  <!-- GoldChain -->
  <g filter="url(#filter0_f_1652_91926)">
  <rect x="199.961" y="270.497" width="10.7315" height="6.4389" rx="3.21945" transform="rotate(-44.5532 199.961 270.497)" stroke="url(#paint0_radial_1652_91926)" stroke-width="3.21945"/>
  <rect x="191.109" y="276.311" width="10.7315" height="6.4389" rx="3.21945" transform="rotate(-32.8415 191.109 276.311)" stroke="url(#paint1_radial_1652_91926)" stroke-width="3.21945"/>
  <rect x="181.524" y="280.955" width="10.7315" height="6.4389" rx="3.21945" transform="rotate(-21.9928 181.524 280.955)" stroke="url(#paint2_radial_1652_91926)" stroke-width="3.21945"/>
  <path fill-rule="evenodd" clip-rule="evenodd" d="M207.777 259.09L209.875 256C212.774 256.282 215.69 256.346 218.572 256.235C219.253 257.72 219.163 259.514 218.179 260.964L215.767 264.516C214.269 266.722 211.266 267.296 209.059 265.798C206.853 264.3 206.279 261.296 207.777 259.09ZM210.44 260.898C209.941 261.634 210.132 262.635 210.868 263.134C211.603 263.634 212.604 263.443 213.104 262.707L215.515 259.156C216.015 258.42 215.823 257.419 215.088 256.92C214.352 256.42 213.351 256.612 212.852 257.347L210.44 260.898Z" fill="url(#paint3_radial_1652_91926)"/>
  <path fill-rule="evenodd" clip-rule="evenodd" d="M131.104 256.22C133.989 256.346 136.91 256.297 139.816 256.032L141.893 259.09C143.391 261.296 142.817 264.3 140.61 265.798C138.404 267.296 135.401 266.722 133.902 264.516L131.491 260.964C130.503 259.509 130.416 257.708 131.104 256.22ZM139.229 260.898C139.729 261.634 139.537 262.635 138.802 263.134C138.066 263.634 137.065 263.442 136.566 262.707L134.154 259.156C133.655 258.42 133.846 257.419 134.582 256.92C135.317 256.42 136.318 256.612 136.818 257.347L139.229 260.898Z" fill="url(#paint4_radial_1652_91926)"/>
  <rect width="10.7315" height="6.4389" rx="3.21945" transform="matrix(-0.7126 -0.701571 -0.701571 0.7126 149.707 270.497)" stroke="url(#paint5_radial_1652_91926)" stroke-width="3.21945"/>
  <rect width="10.7315" height="6.4389" rx="3.21945" transform="matrix(-0.840174 -0.542317 -0.542317 0.840174 158.559 276.311)" stroke="url(#paint6_radial_1652_91926)" stroke-width="3.21945"/>
  <rect width="10.7315" height="6.4389" rx="3.21945" transform="matrix(-0.927231 -0.374491 -0.374491 0.927231 168.144 280.955)" stroke="url(#paint7_radial_1652_91926)" stroke-width="3.21945"/>
  <path d="M185.405 288.457C183.9 294.494 177.786 298.168 171.748 296.663C165.713 295.158 162.039 289.043 163.545 283.006C165.049 276.968 171.163 273.294 177.199 274.799C183.237 276.304 186.911 282.42 185.405 288.457Z" fill="url(#paint8_radial_1652_91926)"/>
  <path d="M185.405 288.457L185.666 288.522L185.666 288.522L185.405 288.457ZM171.748 296.663L171.683 296.923L171.683 296.923L171.748 296.663ZM163.545 283.006L163.805 283.071L163.805 283.071L163.545 283.006ZM177.199 274.799L177.135 275.059L177.135 275.059L177.199 274.799ZM185.145 288.392C183.676 294.286 177.707 297.872 171.813 296.402L171.683 296.923C177.865 298.464 184.125 294.703 185.666 288.522L185.145 288.392ZM171.813 296.402C165.921 294.933 162.335 288.964 163.805 283.071L163.284 282.941C161.743 289.122 165.504 295.382 171.683 296.923L171.813 296.402ZM163.805 283.071C165.273 277.177 171.242 273.59 177.135 275.059L177.264 274.539C171.085 272.998 164.824 276.76 163.284 282.941L163.805 283.071ZM177.135 275.059C183.028 276.529 186.614 282.499 185.145 288.392L185.666 288.522C187.207 282.341 183.446 276.08 177.264 274.539L177.135 275.059Z" fill="#FCE516"/>
  <path fill-rule="evenodd" clip-rule="evenodd" d="M174.5 296.5C180.299 296.5 185 291.799 185 286C185 280.201 180.299 275.5 174.5 275.5C168.701 275.5 164 280.201 164 286C164 291.799 168.701 296.5 174.5 296.5ZM174.5 276.675C174.63 276.675 174.759 276.678 174.888 276.683C180.805 277.336 180.441 285.843 174.539 285.843C174.534 285.843 174.528 285.844 174.523 285.845C174.476 285.844 174.429 285.843 174.382 285.843C171.721 285.843 169.563 288.001 169.563 290.662C169.563 292.674 170.797 294.399 172.549 295.12C168.336 294.223 165.175 290.481 165.175 286C165.175 280.85 169.35 276.675 174.5 276.675ZM174.382 291.955C175.097 291.955 175.675 291.376 175.675 290.662C175.675 289.948 175.097 289.369 174.382 289.369C173.668 289.369 173.09 289.948 173.09 290.662C173.09 291.376 173.668 291.955 174.382 291.955Z" fill="#D7A56A" fill-opacity="0.8"/>
  <path d="M175.675 281.338C175.675 282.052 175.097 282.631 174.382 282.631C173.668 282.631 173.09 282.052 173.09 281.338C173.09 280.624 173.668 280.045 174.382 280.045C175.097 280.045 175.675 280.624 175.675 281.338Z" fill="#D7A56A" fill-opacity="0.8"/>
  </g>
  <rect x="199.961" y="270.497" width="10.7315" height="6.4389" rx="3.21945" transform="rotate(-44.5532 199.961 270.497)" stroke="url(#paint9_radial_1652_91926)" stroke-width="3.21945"/>
  <rect x="191.109" y="276.311" width="10.7315" height="6.4389" rx="3.21945" transform="rotate(-32.8415 191.109 276.311)" stroke="url(#paint10_radial_1652_91926)" stroke-width="3.21945"/>
  <rect x="181.524" y="280.955" width="10.7315" height="6.4389" rx="3.21945" transform="rotate(-21.9928 181.524 280.955)" stroke="url(#paint11_radial_1652_91926)" stroke-width="3.21945"/>
  <path fill-rule="evenodd" clip-rule="evenodd" d="M207.777 259.09L209.875 256C212.774 256.282 215.69 256.346 218.572 256.235C219.253 257.72 219.163 259.514 218.179 260.964L215.767 264.516C214.269 266.722 211.266 267.296 209.059 265.798C206.853 264.3 206.279 261.296 207.777 259.09ZM210.44 260.898C209.941 261.634 210.132 262.635 210.868 263.134C211.603 263.634 212.604 263.443 213.104 262.707L215.515 259.156C216.015 258.42 215.823 257.419 215.088 256.92C214.352 256.42 213.351 256.612 212.852 257.347L210.44 260.898Z" fill="url(#paint12_radial_1652_91926)"/>
  <path fill-rule="evenodd" clip-rule="evenodd" d="M131.104 256.22C133.989 256.346 136.91 256.297 139.816 256.032L141.893 259.09C143.391 261.296 142.817 264.3 140.61 265.798C138.404 267.296 135.401 266.722 133.902 264.516L131.491 260.964C130.503 259.509 130.416 257.708 131.104 256.22ZM139.229 260.898C139.729 261.634 139.537 262.635 138.802 263.134C138.066 263.634 137.065 263.442 136.566 262.707L134.154 259.156C133.655 258.42 133.846 257.419 134.582 256.92C135.317 256.42 136.318 256.612 136.818 257.347L139.229 260.898Z" fill="url(#paint13_radial_1652_91926)"/>
  <rect width="10.7315" height="6.4389" rx="3.21945" transform="matrix(-0.7126 -0.701571 -0.701571 0.7126 149.707 270.497)" stroke="url(#paint14_radial_1652_91926)" stroke-width="3.21945"/>
  <rect width="10.7315" height="6.4389" rx="3.21945" transform="matrix(-0.840174 -0.542317 -0.542317 0.840174 158.559 276.311)" stroke="url(#paint15_radial_1652_91926)" stroke-width="3.21945"/>
  <rect width="10.7315" height="6.4389" rx="3.21945" transform="matrix(-0.927231 -0.374491 -0.374491 0.927231 168.144 280.955)" stroke="url(#paint16_radial_1652_91926)" stroke-width="3.21945"/>
  <path d="M185.405 288.457C183.9 294.494 177.786 298.168 171.748 296.663C165.713 295.158 162.039 289.043 163.545 283.006C165.049 276.968 171.163 273.294 177.199 274.799C183.237 276.304 186.911 282.42 185.405 288.457Z" fill="url(#paint17_radial_1652_91926)"/>
  <path d="M185.405 288.457L185.666 288.522L185.666 288.522L185.405 288.457ZM171.748 296.663L171.683 296.923L171.683 296.923L171.748 296.663ZM163.545 283.006L163.805 283.071L163.805 283.071L163.545 283.006ZM177.199 274.799L177.135 275.059L177.135 275.059L177.199 274.799ZM185.145 288.392C183.676 294.286 177.707 297.872 171.813 296.402L171.683 296.923C177.865 298.464 184.125 294.703 185.666 288.522L185.145 288.392ZM171.813 296.402C165.921 294.933 162.335 288.964 163.805 283.071L163.284 282.941C161.743 289.122 165.504 295.382 171.683 296.923L171.813 296.402ZM163.805 283.071C165.273 277.177 171.242 273.59 177.135 275.059L177.264 274.539C171.085 272.998 164.824 276.76 163.284 282.941L163.805 283.071ZM177.135 275.059C183.028 276.529 186.614 282.499 185.145 288.392L185.666 288.522C187.207 282.341 183.446 276.08 177.264 274.539L177.135 275.059Z" fill="#FCE516"/>
  <path fill-rule="evenodd" clip-rule="evenodd" d="M174.5 296.5C180.299 296.5 185 291.799 185 286C185 280.201 180.299 275.5 174.5 275.5C168.701 275.5 164 280.201 164 286C164 291.799 168.701 296.5 174.5 296.5ZM174.5 276.675C174.63 276.675 174.759 276.678 174.888 276.683C180.805 277.336 180.441 285.843 174.539 285.843C174.534 285.843 174.528 285.844 174.523 285.845C174.476 285.844 174.429 285.843 174.382 285.843C171.721 285.843 169.563 288.001 169.563 290.662C169.563 292.674 170.797 294.399 172.549 295.12C168.336 294.223 165.175 290.481 165.175 286C165.175 280.85 169.35 276.675 174.5 276.675ZM174.382 291.955C175.097 291.955 175.675 291.376 175.675 290.662C175.675 289.948 175.097 289.369 174.382 289.369C173.668 289.369 173.09 289.948 173.09 290.662C173.09 291.376 173.668 291.955 174.382 291.955Z" fill="#D7A56A" fill-opacity="0.8"/>
  <path d="M175.675 281.338C175.675 282.052 175.097 282.631 174.382 282.631C173.668 282.631 173.09 282.052 173.09 281.338C173.09 280.624 173.668 280.045 174.382 280.045C175.097 280.045 175.675 280.624 175.675 281.338Z" fill="#D7A56A" fill-opacity="0.8"/>
  <defs>
  <filter id="filter0_f_1652_91926" x="126.656" y="252" width="96.3564" height="49.2686" filterUnits="userSpaceOnUse" color-interpolation-filters="sRGB">
  <feFlood flood-opacity="0" result="BackgroundImageFix"/>
  <feBlend mode="normal" in="SourceGraphic" in2="BackgroundImageFix" result="shape"/>
  <feGaussianBlur stdDeviation="2" result="effect1_foregroundBlur_1652_91926"/>
  </filter>
  <radialGradient id="paint0_radial_1652_91926" cx="0" cy="0" r="1" gradientUnits="userSpaceOnUse" gradientTransform="translate(202.27 272.002) rotate(34.8442) scale(6.85965 5.69851)">
  <stop offset="0.3125" stop-color="#FABE09"/>
  <stop offset="1" stop-color="#FDF21B"/>
  </radialGradient>
  <radialGradient id="paint1_radial_1652_91926" cx="0" cy="0" r="1" gradientUnits="userSpaceOnUse" gradientTransform="translate(193.418 277.816) rotate(34.8442) scale(6.85965 5.69851)">
  <stop offset="0.3125" stop-color="#FABE09"/>
  <stop offset="1" stop-color="#FDF21B"/>
  </radialGradient>
  <radialGradient id="paint2_radial_1652_91926" cx="0" cy="0" r="1" gradientUnits="userSpaceOnUse" gradientTransform="translate(183.833 282.46) rotate(34.8442) scale(6.85965 5.69851)">
  <stop offset="0.3125" stop-color="#FABE09"/>
  <stop offset="1" stop-color="#FDF21B"/>
  </radialGradient>
  <radialGradient id="paint3_radial_1652_91926" cx="0" cy="0" r="1" gradientUnits="userSpaceOnUse" gradientTransform="translate(209.539 258.486) rotate(45.6237) scale(9.0544 8.01858)">
  <stop offset="0.3125" stop-color="#FABE09"/>
  <stop offset="1" stop-color="#FDF21B"/>
  </radialGradient>
  <radialGradient id="paint4_radial_1652_91926" cx="0" cy="0" r="1" gradientUnits="userSpaceOnUse" gradientTransform="translate(133.253 258.51) rotate(45.5366) scale(9.04037 8.00664)">
  <stop offset="0.3125" stop-color="#FABE09"/>
  <stop offset="1" stop-color="#FDF21B"/>
  </radialGradient>
  <radialGradient id="paint5_radial_1652_91926" cx="0" cy="0" r="1" gradientUnits="userSpaceOnUse" gradientTransform="translate(2.3086 1.50531) rotate(34.8442) scale(6.85965 5.69851)">
  <stop offset="0.3125" stop-color="#FABE09"/>
  <stop offset="1" stop-color="#FDF21B"/>
  </radialGradient>
  <radialGradient id="paint6_radial_1652_91926" cx="0" cy="0" r="1" gradientUnits="userSpaceOnUse" gradientTransform="translate(2.3086 1.50531) rotate(34.8442) scale(6.85965 5.69851)">
  <stop offset="0.3125" stop-color="#FABE09"/>
  <stop offset="1" stop-color="#FDF21B"/>
  </radialGradient>
  <radialGradient id="paint7_radial_1652_91926" cx="0" cy="0" r="1" gradientUnits="userSpaceOnUse" gradientTransform="translate(2.3086 1.50531) rotate(34.8442) scale(6.85965 5.69851)">
  <stop offset="0.3125" stop-color="#FABE09"/>
  <stop offset="1" stop-color="#FDF21B"/>
  </radialGradient>
  <radialGradient id="paint8_radial_1652_91926" cx="0" cy="0" r="1" gradientUnits="userSpaceOnUse" gradientTransform="translate(163.207 274.462) rotate(48.7186) scale(25.2672 22.1365)">
  <stop stop-color="#FABE09"/>
  <stop offset="0.708739" stop-color="#FDF21B"/>
  </radialGradient>
  <radialGradient id="paint9_radial_1652_91926" cx="0" cy="0" r="1" gradientUnits="userSpaceOnUse" gradientTransform="translate(202.27 272.002) rotate(34.8442) scale(6.85965 5.69851)">
  <stop offset="0.3125" stop-color="#FABE09"/>
  <stop offset="1" stop-color="#FDF21B"/>
  </radialGradient>
  <radialGradient id="paint10_radial_1652_91926" cx="0" cy="0" r="1" gradientUnits="userSpaceOnUse" gradientTransform="translate(193.418 277.816) rotate(34.8442) scale(6.85965 5.69851)">
  <stop offset="0.3125" stop-color="#FABE09"/>
  <stop offset="1" stop-color="#FDF21B"/>
  </radialGradient>
  <radialGradient id="paint11_radial_1652_91926" cx="0" cy="0" r="1" gradientUnits="userSpaceOnUse" gradientTransform="translate(183.833 282.46) rotate(34.8442) scale(6.85965 5.69851)">
  <stop offset="0.3125" stop-color="#FABE09"/>
  <stop offset="1" stop-color="#FDF21B"/>
  </radialGradient>
  <radialGradient id="paint12_radial_1652_91926" cx="0" cy="0" r="1" gradientUnits="userSpaceOnUse" gradientTransform="translate(209.539 258.486) rotate(45.6237) scale(9.0544 8.01858)">
  <stop offset="0.3125" stop-color="#FABE09"/>
  <stop offset="1" stop-color="#FDF21B"/>
  </radialGradient>
  <radialGradient id="paint13_radial_1652_91926" cx="0" cy="0" r="1" gradientUnits="userSpaceOnUse" gradientTransform="translate(133.253 258.51) rotate(45.5366) scale(9.04037 8.00664)">
  <stop offset="0.3125" stop-color="#FABE09"/>
  <stop offset="1" stop-color="#FDF21B"/>
  </radialGradient>
  <radialGradient id="paint14_radial_1652_91926" cx="0" cy="0" r="1" gradientUnits="userSpaceOnUse" gradientTransform="translate(2.3086 1.50531) rotate(34.8442) scale(6.85965 5.69851)">
  <stop offset="0.3125" stop-color="#FABE09"/>
  <stop offset="1" stop-color="#FDF21B"/>
  </radialGradient>
  <radialGradient id="paint15_radial_1652_91926" cx="0" cy="0" r="1" gradientUnits="userSpaceOnUse" gradientTransform="translate(2.3086 1.50531) rotate(34.8442) scale(6.85965 5.69851)">
  <stop offset="0.3125" stop-color="#FABE09"/>
  <stop offset="1" stop-color="#FDF21B"/>
  </radialGradient>
  <radialGradient id="paint16_radial_1652_91926" cx="0" cy="0" r="1" gradientUnits="userSpaceOnUse" gradientTransform="translate(2.3086 1.50531) rotate(34.8442) scale(6.85965 5.69851)">
  <stop offset="0.3125" stop-color="#FABE09"/>
  <stop offset="1" stop-color="#FDF21B"/>
  </radialGradient>
  <radialGradient id="paint17_radial_1652_91926" cx="0" cy="0" r="1" gradientUnits="userSpaceOnUse" gradientTransform="translate(163.207 274.462) rotate(48.7186) scale(25.2672 22.1365)">
  <stop stop-color="#FABE09"/>
  <stop offset="0.708739" stop-color="#FDF21B"/>
  </radialGradient>
  </defs>
    
    </svg>
  