
    <svg width="350" height="350" viewBox="0 0 350 350" fill="none" xmlns="http://www.w3.org/2000/svg">
    
  <!-- Plum BG -->
  <g clip-path="url(#clip0_28_295)">
  <rect x="0.0788574" y="0.0444336" width="350" height="350" fill="#5A1353"/>
  <rect x="0.0788574" y="0.0444336" width="350" height="350" fill="url(#paint0_radial_28_295)" fill-opacity="0.2"/>
  <path d="M125.979 290.538L299.832 190.751L430.987 233.879L212.56 294.049L125.979 290.538Z" fill="url(#paint1_linear_28_295)"/>
  <g opacity="0.7" filter="url(#filter0_f_28_295)">
  <ellipse rx="194.596" ry="66.7643" transform="matrix(0.999998 0.00221055 0.00221055 -0.999998 176.078 304.637)" fill="url(#paint2_radial_28_295)"/>
  </g>
  <g opacity="0.7" filter="url(#filter1_f_28_295)">
  <ellipse cx="174.396" cy="137.609" rx="196.647" ry="242.448" transform="rotate(0.126655 174.396 137.609)" fill="url(#paint3_radial_28_295)"/>
  </g>
  </g>
  <defs>
  <filter id="filter0_f_28_295" x="-23.0756" y="233.314" width="398.306" height="142.646" filterUnits="userSpaceOnUse" color-interpolation-filters="sRGB">
  <feFlood flood-opacity="0" result="BackgroundImageFix"/>
  <feBlend mode="normal" in="SourceGraphic" in2="BackgroundImageFix" result="shape"/>
  <feGaussianBlur stdDeviation="2.27865" result="effect1_foregroundBlur_28_295"/>
  </filter>
  <filter id="filter1_f_28_295" x="-26.8085" y="-109.396" width="402.409" height="494.01" filterUnits="userSpaceOnUse" color-interpolation-filters="sRGB">
  <feFlood flood-opacity="0" result="BackgroundImageFix"/>
  <feBlend mode="normal" in="SourceGraphic" in2="BackgroundImageFix" result="shape"/>
  <feGaussianBlur stdDeviation="2.27865" result="effect1_foregroundBlur_28_295"/>
  </filter>
  <radialGradient id="paint0_radial_28_295" cx="0" cy="0" r="1" gradientUnits="userSpaceOnUse" gradientTransform="translate(156.622 401.542) rotate(-84.441) scale(239.93 241.682)">
  <stop/>
  <stop offset="1" stop-opacity="0"/>
  </radialGradient>
  <linearGradient id="paint1_linear_28_295" x1="194.836" y1="271.638" x2="316.537" y2="167.936" gradientUnits="userSpaceOnUse">
  <stop/>
  <stop offset="1" stop-color="#333333" stop-opacity="0"/>
  </linearGradient>
  <radialGradient id="paint2_radial_28_295" cx="0" cy="0" r="1" gradientUnits="userSpaceOnUse" gradientTransform="translate(194.596 76.624) rotate(99.1226) scale(43.9775 125.337)">
  <stop stop-color="#F721E1"/>
  <stop offset="1" stop-color="#DE2EE1" stop-opacity="0"/>
  </radialGradient>
  <radialGradient id="paint3_radial_28_295" cx="0" cy="0" r="1" gradientUnits="userSpaceOnUse" gradientTransform="translate(174.396 173.413) rotate(92.5586) scale(157.837 128.153)">
  <stop stop-color="#F721E1"/>
  <stop offset="1" stop-color="#DE2EE1" stop-opacity="0"/>
  </radialGradient>
  <clipPath id="clip0_28_295">
  <rect width="350" height="350" fill="white"/>
  </clipPath>
  </defs>

    
  <!-- Bitcoin Overlay -->
  <g clip-path="url(#clip0_625_52580)">
  <g clip-path="url(#clip1_625_52580)">
  <g style="mix-blend-mode:overlay">
  <path fill-rule="evenodd" clip-rule="evenodd" d="M276.2 378.343C323.569 390.154 371.54 361.329 383.349 313.965C395.157 266.599 366.335 218.619 318.969 206.811C271.613 195.002 223.642 223.83 211.839 271.199C200.025 318.56 228.85 366.534 276.2 378.343ZM317.129 257.675C329.376 261.893 338.334 268.218 336.574 279.982C335.3 288.594 330.526 292.763 324.188 294.224C332.891 298.756 337.32 305.704 333.101 317.75C327.865 332.711 315.427 333.974 298.886 330.843L294.871 346.931L285.171 344.514L289.133 328.641C286.618 328.017 284.049 327.354 281.402 326.636L277.426 342.583L267.737 340.165L271.751 324.047C270.846 323.815 269.935 323.577 269.017 323.338C267.639 322.978 266.246 322.615 264.836 322.262L252.213 319.115L257.028 308.011C257.028 308.011 264.176 309.912 264.079 309.771C266.825 310.451 268.044 308.66 268.524 307.467L274.868 282.035C275.106 282.092 275.339 282.15 275.564 282.207C275.676 282.235 275.786 282.262 275.893 282.289C275.506 282.134 275.155 282.035 274.885 281.966L279.41 263.811C279.529 261.75 278.819 259.15 274.89 258.169C275.042 258.067 267.845 256.417 267.845 256.417L270.425 246.057L283.803 249.397L283.792 249.447C285.803 249.947 287.876 250.422 289.986 250.903L293.962 234.972L303.657 237.39L299.761 253.008C302.364 253.602 304.983 254.202 307.533 254.837L311.401 239.321L321.102 241.738L317.129 257.675ZM286.446 315.453C294.361 317.544 311.66 322.113 314.41 311.061C317.228 299.761 300.451 295.997 292.265 294.16C291.35 293.954 290.542 293.773 289.881 293.608L284.555 314.962C285.097 315.097 285.734 315.265 286.446 315.453ZM293.909 284.25C300.509 286.011 314.903 289.853 317.41 279.808C319.971 269.534 305.981 266.436 299.148 264.924C298.379 264.754 297.701 264.604 297.148 264.466L292.318 283.833C292.774 283.947 293.31 284.09 293.909 284.25Z" fill="white" fill-opacity="0.3"/>
  </g>
  </g>
  <g clip-path="url(#clip2_625_52580)">
  <g style="mix-blend-mode:overlay">
  <path fill-rule="evenodd" clip-rule="evenodd" d="M34.2076 141.364C81.5768 153.175 129.548 124.35 141.357 76.9864C153.165 29.62 124.343 -18.3598 76.9766 -30.1683C29.6213 -41.9768 -18.3503 -13.1491 -30.1532 34.2201C-41.9672 81.581 -13.1423 129.555 34.2076 141.364ZM75.1365 20.6954C87.3842 24.9143 96.3414 31.2385 94.5815 43.0027C93.3078 51.6146 88.5336 55.7837 82.1956 57.2453C90.8986 61.7763 95.3274 68.7249 91.1086 80.771C85.8729 95.7319 73.4346 96.9945 56.8933 93.8642L52.8789 109.952L43.1785 107.535L47.1404 91.6622C44.6262 91.0378 42.0568 90.3747 39.41 89.6564L35.4342 105.604L25.7449 103.186L29.7593 87.0676C28.8538 86.8357 27.9425 86.598 27.0249 86.3587C25.6465 85.9993 24.2537 85.636 22.8439 85.2828L10.2204 82.1359L15.036 71.0319C15.036 71.0319 22.1835 72.9328 22.0868 72.7919C24.8331 73.4715 26.0515 71.6812 26.5323 70.4876L32.8758 45.0555C33.114 45.1128 33.3473 45.1713 33.5723 45.2277C33.684 45.2557 33.7936 45.2831 33.9008 45.3097C33.514 45.155 33.1631 45.0555 32.8924 44.9865L37.4179 26.8317C37.5367 24.7706 36.8267 22.1708 32.8979 21.19C33.0499 21.0877 25.8526 19.4383 25.8526 19.4383L28.4331 9.0776L41.8109 12.4179L41.7998 12.4676C43.8112 12.9677 45.8833 13.4429 47.9942 13.9237L51.9699 -2.00699L61.6648 0.41051L57.7691 16.0289C60.3718 16.623 62.991 17.2225 65.5411 17.858L69.4091 2.34175L79.1095 4.75925L75.1365 20.6954ZM44.4535 78.4742C52.3686 80.5648 69.6676 85.1338 72.4178 74.0821C75.236 62.7821 58.4589 59.0175 50.2724 57.1806C49.3576 56.9753 48.5501 56.7941 47.8892 56.6291L42.5624 77.9833C43.1052 78.1181 43.7413 78.2861 44.4535 78.4742ZM51.9172 47.2708C58.5164 49.0319 72.9109 52.8733 75.4183 42.8287C77.9788 32.5544 63.9884 29.4573 57.1558 27.9448C56.3872 27.7746 55.7092 27.6245 55.1555 27.4865L50.326 46.8542C50.7822 46.9679 51.3175 47.1107 51.9172 47.2708Z" fill="white" fill-opacity="0.3"/>
  </g>
  </g>
  <g clip-path="url(#clip3_625_52580)">
  <g style="mix-blend-mode:overlay">
  <path fill-rule="evenodd" clip-rule="evenodd" d="M261.081 135.707C295.509 144.291 330.375 123.341 338.958 88.9168C347.54 54.4907 326.592 19.6187 292.166 11.0363C257.748 2.45385 222.882 23.4059 214.303 57.8341C205.717 92.2562 226.667 127.124 261.081 135.707ZM290.827 48.0044C299.729 51.0707 306.239 55.6671 304.96 64.2174C304.034 70.4766 300.565 73.5067 295.958 74.569C302.283 77.8622 305.502 82.9124 302.436 91.6676C298.631 102.541 289.591 103.459 277.568 101.184L274.651 112.877L267.6 111.12L270.48 99.5833C268.653 99.1295 266.785 98.6476 264.861 98.1255L261.972 109.716L254.929 107.959L257.847 96.2439C257.189 96.0754 256.527 95.9027 255.86 95.7287C254.858 95.4675 253.846 95.2035 252.821 94.9467L243.646 92.6596L247.146 84.5892C247.146 84.5892 252.341 85.9707 252.271 85.8683C254.267 86.3623 255.152 85.0611 255.502 84.1936L260.112 65.7094C260.285 65.751 260.455 65.7935 260.618 65.8345C260.7 65.8548 260.779 65.8748 260.857 65.8942C260.576 65.7817 260.321 65.7094 260.124 65.6592L263.414 52.4643C263.5 50.9663 262.984 49.0767 260.128 48.3638C260.239 48.2895 255.008 47.0907 255.008 47.0907L256.883 39.5605L266.606 41.9882L266.598 42.0244C268.06 42.3878 269.566 42.7332 271.1 43.0826L273.99 31.5042L281.036 33.2612L278.205 44.6128C280.096 45.0445 282 45.4803 283.854 45.9421L286.665 34.6649L293.715 36.4219L290.827 48.0044ZM268.527 89.9982C274.28 91.5177 286.853 94.8385 288.852 86.8061C290.9 78.5932 278.706 75.8571 272.756 74.522C272.091 74.3728 271.504 74.2411 271.024 74.1212L267.153 89.6414C267.547 89.7394 268.009 89.8615 268.527 89.9982ZM273.952 67.3195C278.748 68.5995 289.21 71.3914 291.032 64.0909C292.893 56.6236 282.725 54.3726 277.759 53.2732C277.2 53.1496 276.708 53.0405 276.305 52.9402L272.795 67.0167C273.127 67.0993 273.516 67.2031 273.952 67.3195Z" fill="white" fill-opacity="0.3"/>
  </g>
  </g>
  <g clip-path="url(#clip4_625_52580)">
  <g style="mix-blend-mode:overlay">
  <path fill-rule="evenodd" clip-rule="evenodd" d="M27.9129 382.244C54.4055 388.85 81.2349 372.728 87.8391 346.239C94.4433 319.748 78.3237 292.914 51.8327 286.31C25.3478 279.705 -1.48158 295.828 -8.0827 322.321C-14.69 348.809 1.43114 375.64 27.9129 382.244ZM50.8032 314.757C57.6531 317.116 62.6626 320.653 61.6783 327.233C60.966 332.049 58.2959 334.381 54.7512 335.198C59.6186 337.732 62.0955 341.618 59.736 348.356C56.8078 356.723 49.8513 357.429 40.6002 355.678L38.355 364.676L32.9298 363.324L35.1456 354.447C33.7394 354.098 32.3024 353.727 30.8221 353.325L28.5985 362.244L23.1795 360.892L25.4247 351.877C24.9183 351.747 24.4087 351.615 23.8955 351.481C23.1246 351.28 22.3456 351.076 21.557 350.879L14.497 349.119L17.1903 342.909C17.1903 342.909 21.1877 343.972 21.1336 343.893C22.6696 344.273 23.351 343.272 23.6199 342.604L27.1677 328.381C27.3007 328.413 27.431 328.445 27.5567 328.477C27.6193 328.493 27.6808 328.508 27.741 328.523C27.5246 328.436 27.3284 328.381 27.177 328.342L29.708 318.188C29.7744 317.036 29.3773 315.582 27.18 315.033C27.265 314.976 23.2398 314.054 23.2398 314.054L24.683 308.259L32.1649 310.127L32.1587 310.155C33.2836 310.435 34.4425 310.7 35.6231 310.969L37.8466 302.06L43.2687 303.412L41.09 312.147C42.5456 312.479 44.0104 312.814 45.4367 313.17L47.5999 304.492L53.0252 305.844L50.8032 314.757ZM33.6428 347.071C38.0696 348.24 47.7445 350.796 49.2827 344.615C50.8588 338.295 41.4758 336.189 36.8972 335.162C36.3856 335.047 35.934 334.946 35.5643 334.854L32.5852 346.796C32.8887 346.872 33.2446 346.966 33.6428 347.071ZM37.8171 329.62C41.5079 330.605 49.5585 332.753 50.9608 327.135C52.3928 321.389 44.5683 319.657 40.747 318.811C40.3171 318.716 39.9379 318.632 39.6282 318.555L36.9272 329.387C37.1823 329.45 37.4817 329.53 37.8171 329.62Z" fill="white" fill-opacity="0.3"/>
  </g>
  </g>
  <g clip-path="url(#clip5_625_52580)">
  <g style="mix-blend-mode:overlay">
  <path fill-rule="evenodd" clip-rule="evenodd" d="M84.1189 235.997C101.699 240.38 119.503 229.682 123.886 212.104C128.268 194.525 117.571 176.718 99.9919 172.335C82.4167 167.953 64.6129 178.652 60.2324 196.232C55.8479 213.809 66.5458 231.614 84.1189 235.997ZM99.3083 191.213C103.854 192.779 107.178 195.126 106.525 199.492C106.052 202.688 104.28 204.235 101.928 204.778C105.158 206.459 106.802 209.038 105.236 213.509C103.293 219.062 98.6767 219.53 92.5377 218.368L91.0478 224.339L87.4476 223.442L88.9181 217.551C87.9849 217.319 87.0313 217.073 86.049 216.807L84.5735 222.725L80.9774 221.828L82.4673 215.846C82.1313 215.76 81.7931 215.672 81.4526 215.583C80.941 215.449 80.424 215.315 79.9008 215.183L75.2158 214.016L77.003 209.895C77.003 209.895 79.6557 210.6 79.6198 210.548C80.639 210.8 81.0912 210.135 81.2697 209.693L83.624 200.254C83.7123 200.275 83.7989 200.297 83.8824 200.318C83.9239 200.328 83.9646 200.338 84.0044 200.348C83.8608 200.291 83.7306 200.254 83.6301 200.228L85.3097 193.49C85.3538 192.725 85.0903 191.76 83.6322 191.396C83.6886 191.359 81.0174 190.746 81.0174 190.746L81.9751 186.901L86.9401 188.141L86.936 188.159C87.6825 188.345 88.4515 188.521 89.2349 188.7L90.7104 182.787L94.3085 183.684L92.8627 189.481C93.8286 189.701 94.8007 189.924 95.7472 190.16L97.1827 184.401L100.783 185.298L99.3083 191.213ZM87.9209 212.657C90.8584 213.432 97.2786 215.128 98.2994 211.027C99.3453 206.833 93.1187 205.436 90.0805 204.754C89.7409 204.678 89.4412 204.61 89.1959 204.549L87.219 212.474C87.4204 212.524 87.6565 212.587 87.9209 212.657ZM90.6909 201.076C93.1401 201.73 98.4824 203.155 99.4129 199.427C100.363 195.614 95.1709 194.465 92.6351 193.903C92.3498 193.84 92.0982 193.785 91.8927 193.733L90.1003 200.921C90.2696 200.964 90.4683 201.017 90.6909 201.076Z" fill="white" fill-opacity="0.3"/>
  </g>
  </g>
  </g>
  <defs>
  <clipPath id="clip0_625_52580">
  <rect width="350" height="350" fill="white"/>
  </clipPath>
  <clipPath id="clip1_625_52580">
  <rect width="176.823" height="176.823" fill="white" transform="translate(209.18 204.167)"/>
  </clipPath>
  <clipPath id="clip2_625_52580">
  <rect width="176.823" height="176.823" fill="white" transform="translate(-32.8125 -32.8125)"/>
  </clipPath>
  <clipPath id="clip3_625_52580">
  <rect width="128.516" height="128.516" fill="white" transform="translate(212.37 9.11467)"/>
  </clipPath>
  <clipPath id="clip4_625_52580">
  <rect width="98.8932" height="98.8932" fill="white" transform="translate(-9.57031 284.831)"/>
  </clipPath>
  <clipPath id="clip5_625_52580">
  <rect width="65.625" height="65.625" fill="white" transform="translate(59.2448 171.354)"/>
  </clipPath>
  </defs>
  
    
  <!-- LavaKitty -->
  <path d="M73.4135 214.868C76.9653 215.46 80.7845 214.34 82.2563 211.029C82.8869 209.61 82.5027 208.002 81.4738 206.93C80.5 205.915 79.0367 205.467 77.3943 206.289C76.4063 206.783 75.205 206.382 74.711 205.394C74.217 204.406 74.6175 203.205 75.6054 202.711C78.9631 201.032 82.2918 202.005 84.3601 204.161C86.3732 206.259 87.281 209.572 85.9116 212.653C83.3834 218.342 77.2034 219.555 72.756 218.814C70.558 218.447 67.8728 217.609 65.6075 215.862C63.2847 214.072 61.4781 211.377 61.0947 207.54C60.7318 203.908 61.4243 200.948 62.9647 198.52C64.48 196.131 66.7064 194.43 69.1125 193.093C74.256 190.234 83.1241 189.733 90.3033 195.256C91.5798 196.238 92.8106 197.46 94.0045 198.645L94.2732 198.912C95.5865 200.214 96.9146 201.508 98.4309 202.679C101.401 204.971 105.108 206.798 110.584 206.798C116.325 206.798 119.419 205.65 121.005 204.689C121.799 204.208 122.24 203.759 122.464 203.485C122.576 203.347 122.638 203.248 122.662 203.205C122.675 203.184 122.678 203.176 122.674 203.185C122.672 203.189 122.668 203.197 122.663 203.209L122.654 203.23L122.648 203.244L122.645 203.251L122.644 203.255C122.643 203.257 122.642 203.258 124.5 204C125.183 204.272 125.615 204.445 125.888 204.554V205.582C125.795 205.716 125.688 205.861 125.563 206.014C125.052 206.64 124.264 207.391 123.079 208.109C120.708 209.547 116.844 210.798 110.584 210.798C104.061 210.798 99.5167 208.57 95.9869 205.845C94.2532 204.507 92.7687 203.053 91.457 201.752L91.2452 201.542C89.9915 200.298 88.9323 199.248 87.8644 198.426C82.0436 193.949 74.9101 194.447 71.0554 196.589C68.9623 197.752 67.3644 199.051 66.3425 200.662C65.3456 202.234 64.7882 204.273 65.0749 207.142C65.341 209.805 66.5346 211.527 68.0496 212.694C69.6219 213.906 71.612 214.568 73.4135 214.868Z" fill="#0C011C"/>
  <path d="M101.452 181.334C100.241 180.223 99.3332 178.929 98.7186 177.543L98 170.483C98.6323 167.534 100.422 164.812 103.292 163.086L107.357 160.642C110.09 158.999 113.176 158.642 115.982 159.334L122.003 163.057C122.951 164.178 123.701 165.507 124.177 167.017L130.27 184.5L125.63 207L101.452 181.334Z" fill="url(#paint0_linear_902_111870)"/>
  <path d="M125.552 140.001C131.112 149.63 126.807 163.31 109.396 173.362C91.9849 183.415 77.9852 180.303 72.4256 170.674C67.4138 161.993 65.7287 142.917 85.2958 131.62C104.863 120.323 120.541 131.32 125.552 140.001Z" fill="#0C011C"/>
  <path fill-rule="evenodd" clip-rule="evenodd" d="M91.8612 153.966C93.5617 157.254 92.3911 161.331 89.1521 163.201C85.8179 165.126 81.5545 163.983 79.6295 160.649C77.7615 157.414 78.7818 153.303 81.8905 151.304C81.7857 151.358 81.6816 151.415 81.5783 151.474C77.9107 153.592 76.6541 158.282 78.7716 161.949C80.8891 165.617 85.5789 166.874 89.2465 164.756C92.9142 162.639 94.1708 157.949 92.0533 154.281C91.9914 154.174 91.9273 154.069 91.8612 153.966Z" fill="#6DF244"/>
  <circle cx="84.2727" cy="154.749" r="1.39422" transform="rotate(-30 84.2727 154.749)" fill="white"/>
  <circle cx="88.337" cy="154.816" r="0.697108" transform="rotate(-30 88.337 154.816)" fill="white"/>
  <path fill-rule="evenodd" clip-rule="evenodd" d="M112.017 151.611C108.349 153.728 103.659 152.472 101.542 148.804C101.479 148.696 101.42 148.588 101.364 148.478C103.36 151.596 107.477 152.622 110.717 150.752C114.051 148.827 115.194 144.563 113.269 141.229C111.4 137.993 107.329 136.821 104.042 138.515C104.142 138.451 104.244 138.389 104.348 138.329C108.016 136.212 112.706 137.468 114.823 141.136C116.941 144.804 115.684 149.493 112.017 151.611Z" fill="#6DF244"/>
  <circle r="1.39422" transform="matrix(-0.866025 0.5 0.5 0.866025 105.836 142.3)" fill="white"/>
  <circle r="0.697108" transform="matrix(-0.866025 0.5 0.5 0.866025 103.862 145.854)" fill="white"/>
  <path d="M104.975 156.942C105.278 157.466 104.646 160.294 102.55 161.504C100.454 162.714 97.6881 161.847 97.3856 161.323C97.0831 160.8 98.5369 159.394 100.633 158.184C102.728 156.974 104.673 156.418 104.975 156.942Z" fill="#B97C99"/>
  <path d="M106.875 110.939C99.3872 113.744 95.3582 123.49 92.4828 128.734C107.079 123.342 115.84 130.849 118.67 135.751C118.874 125.514 114.363 108.134 106.875 110.939Z" fill="#0C011C"/>
  <path d="M106.697 115.614C101.244 117.676 99.209 124.159 97.09 127.947C104.29 125.081 113.485 128.378 115.51 131.885C115.72 124.524 112.149 113.552 106.697 115.614Z" fill="url(#paint1_linear_902_111870)"/>
  <path d="M56.8848 139.801C63.0581 134.719 73.5125 136.102 79.4916 136.234C67.5244 146.179 69.6449 157.52 72.4749 162.422C63.5076 157.479 50.7115 144.883 56.8848 139.801Z" fill="#0C011C"/>
  <path d="M61.0253 141.982C65.5374 138.291 72.1694 139.77 76.509 139.829C70.4272 144.631 68.6846 154.243 70.7094 157.75C64.2297 154.251 56.5132 145.673 61.0253 141.982Z" fill="url(#paint2_linear_902_111870)"/>
  <path d="M112.478 158.779C114.255 161.857 111.127 165.406 107.911 165.52" stroke="white" stroke-opacity="0.45" stroke-width="1.09546" stroke-linecap="round"/>
  <defs>
  <linearGradient id="paint0_linear_902_111870" x1="130" y1="190.5" x2="107.5" y2="165" gradientUnits="userSpaceOnUse">
  <stop stop-color="#0C011C"/>
  <stop offset="1" stop-color="#423752"/>
  </linearGradient>
  <linearGradient id="paint1_linear_902_111870" x1="101.848" y1="118.269" x2="115.259" y2="132.03" gradientUnits="userSpaceOnUse">
  <stop stop-color="#9C789B"/>
  <stop offset="1" stop-color="#5B5252" stop-opacity="0"/>
  </linearGradient>
  <linearGradient id="paint2_linear_902_111870" x1="65.7485" y1="139.111" x2="70.9605" y2="157.605" gradientUnits="userSpaceOnUse">
  <stop stop-color="#9C789B"/>
  <stop offset="1" stop-color="#5B5252" stop-opacity="0"/>
  </linearGradient>
  </defs>
    
    
  <!-- Glowing Glass -->
    <g filter="url(#filter0_f_953_137978)">
    <path d="M148.717 95L125.019 209.98C124.948 210.324 125.078 210.673 125.367 210.873C128.479 213.027 147.033 225 175 225C202.967 225 221.521 213.027 224.633 210.873C224.922 210.673 225.052 210.324 224.981 209.98L201.283 95C201.249 95.0666 201.205 95.1285 201.15 95.1836C199.818 96.5241 193.18 102.106 175 102.106C156.82 102.106 150.182 96.5241 148.85 95.1836C148.795 95.1285 148.751 95.0666 148.717 95Z" fill="#A15BFA" fill-opacity="0.6"/>
    </g>
    <defs>
    <filter id="filter0_f_953_137978" x="-4" y="-4" width="358" height="358" filterUnits="userSpaceOnUse" color-interpolation-filters="sRGB">
    <feFlood flood-opacity="0" result="BackgroundImageFix"/>
    <feBlend mode="normal" in="SourceGraphic" in2="BackgroundImageFix" result="shape"/>
    <feGaussianBlur stdDeviation="2" result="effect1_foregroundBlur_953_137978"/>
    </filter>
    </defs>
  
    
    
    <!-- Lava 1 -->
    <!-- Color -->
    <!-- filter -->
    <path d="M201.33 94.2312L205.4 114.032C203.808 113.761 202.153 113.448 200.459 113.128C186.293 110.453 169.479 107.277 165.223 123.731C163.365 130.915 166.057 135.213 168.676 139.394C171.205 143.431 173.665 147.359 171.9 153.669C169.751 161.35 158.067 166.325 148.671 162.995C138.746 159.477 139.443 144.904 145.148 137.85C150.853 130.795 151.677 120.031 150.853 112.871C150.454 109.41 148.742 106.935 146.502 105.251L148.841 93.8809C148.875 93.9478 148.92 94.0101 148.975 94.0656C150.853 95.9589 156.979 101.03 175.237 101.03C192.824 101.03 199.656 95.8196 201.33 94.2312Z" fill="url(#paint0_radial_931_113783)"/>
    <mask id="mask0_931_113783" style="mask-type:alpha" maskUnits="userSpaceOnUse" x="141" y="93" width="65" height="72">
    <path d="M201.33 94.2302L205.4 114.031C203.808 113.76 202.153 113.447 200.459 113.127C186.293 110.452 169.479 107.276 165.223 123.73C163.365 130.914 166.057 135.212 168.676 139.393C171.205 143.43 173.665 147.358 171.9 153.668C169.751 161.349 158.067 166.324 148.671 162.994C138.746 159.476 139.443 144.903 145.148 137.849C150.853 130.794 151.677 120.03 150.853 112.87C150.454 109.409 148.742 106.934 146.502 105.25L148.841 93.8799C148.875 93.9469 148.92 94.0092 148.975 94.0646C150.313 95.4133 156.979 101.029 175.237 101.029C192.824 101.029 199.656 95.8187 201.33 94.2302Z" fill="url(#paint1_radial_931_113783)"/>
    </mask>
    <g mask="url(#mask0_931_113783)">
    <g filter="url(#filter0_f_931_113783)">
    <mask id="mask1_931_113783" style="mask-type:alpha" maskUnits="userSpaceOnUse" x="125" y="94" width="101" height="132">
    <path d="M149.015 95.0639C149.102 94.6401 149.475 94.3359 149.907 94.3359H200.399C200.831 94.3359 201.205 94.6401 201.292 95.0639L225.146 211.159C225.227 211.555 225.041 211.955 224.68 212.137C220.777 214.109 198.528 224.817 175.153 225.128C151.731 225.438 129.441 214.178 125.603 212.141C125.253 211.954 125.077 211.562 125.157 211.173L149.015 95.0639Z" fill="#577096" fill-opacity="0.75"/>
    </mask>
    <g mask="url(#mask1_931_113783)">
    <g filter="url(#filter1_f_931_113783)">
    <path d="M207.362 76.1064C211.019 110.268 146.094 132.571 113.174 139.453L113.174 76.1064L207.362 76.1064Z" fill="url(#paint2_linear_931_113783)" fill-opacity="0.5"/>
    </g>
    <g filter="url(#filter2_f_931_113783)">
    <path d="M155.56 125.301C156.622 105.018 134.624 86.1828 129.082 66.9985C133.541 65.1973 144.203 70.7896 152.828 76.1247C163.609 82.7936 163.032 109.124 164.778 125.784C166.175 139.112 148.606 223.401 144.168 241.481L131.869 240.837C140.395 214.68 154.74 140.955 155.56 125.301Z" fill="url(#paint3_linear_931_113783)" fill-opacity="0.6"/>
    </g>
    </g>
    </g>
    </g>
    <defs>
    <filter id="filter0_f_931_113783" x="122.744" y="92.0573" width="104.986" height="135.355" filterUnits="userSpaceOnUse" color-interpolation-filters="sRGB">
    <feFlood flood-opacity="0" result="BackgroundImageFix"/>
    <feBlend mode="normal" in="SourceGraphic" in2="BackgroundImageFix" result="shape"/>
    <feGaussianBlur stdDeviation="1.13932" result="effect1_foregroundBlur_931_113783"/>
    </filter>
    <filter id="filter1_f_931_113783" x="112.262" y="75.195" width="96.1589" height="65.1696" filterUnits="userSpaceOnUse" color-interpolation-filters="sRGB">
    <feFlood flood-opacity="0" result="BackgroundImageFix"/>
    <feBlend mode="normal" in="SourceGraphic" in2="BackgroundImageFix" result="shape"/>
    <feGaussianBlur stdDeviation="0.455729" result="effect1_foregroundBlur_931_113783"/>
    </filter>
    <filter id="filter2_f_931_113783" x="128.17" y="65.7428" width="37.5978" height="176.65" filterUnits="userSpaceOnUse" color-interpolation-filters="sRGB">
    <feFlood flood-opacity="0" result="BackgroundImageFix"/>
    <feBlend mode="normal" in="SourceGraphic" in2="BackgroundImageFix" result="shape"/>
    <feGaussianBlur stdDeviation="0.455729" result="effect1_foregroundBlur_931_113783"/>
    </filter>
    <radialGradient id="paint0_radial_931_113783" cx="0" cy="0" r="1" gradientUnits="userSpaceOnUse" gradientTransform="translate(156.087 109.102) rotate(53.0717) scale(37.8406 40.3077)">
    <stop offset="0.203125" style="stop-color: #71FF30;"/>
    <stop offset="0.890625" style="stop-color: #25BC46;"/>
    </radialGradient>
    <radialGradient id="paint1_radial_931_113783" cx="0" cy="0" r="1" gradientUnits="userSpaceOnUse" gradientTransform="translate(156.087 109.101) rotate(53.0717) scale(37.8406 40.3077)">
    <stop offset="0.203125" stop-color="#71FF30"/>
    <stop offset="0.890625" stop-color="#25BC46"/>
    </radialGradient>
    <linearGradient id="paint2_linear_931_113783" x1="145.368" y1="123.01" x2="155.982" y2="72.2914" gradientUnits="userSpaceOnUse">
    <stop stop-color="white" stop-opacity="0"/>
    <stop offset="0.471361" stop-color="white"/>
    <stop offset="1" stop-color="white"/>
    </linearGradient>
    <linearGradient id="paint3_linear_931_113783" x1="160.882" y1="220.938" x2="202.107" y2="178" gradientUnits="userSpaceOnUse">
    <stop stop-color="#F2F2F2"/>
    <stop offset="0.0001" stop-color="#F2F2F2"/>
    <stop offset="0.0520833" stop-color="#F2F2F2" stop-opacity="0.948011"/>
    <stop offset="1" stop-color="#F2F2F2" stop-opacity="0"/>
    </linearGradient>
    </defs>
  
    
    
    
  
    
  <!-- Ruby Rocket -->
  <path d="M147.434 221.638C147.226 220.753 145.978 220.679 145.655 221.529C135.557 248.092 116.921 274.657 115.808 335.23C115.789 336.267 117.241 336.499 117.577 335.518C131.889 293.713 145.73 277.771 159.92 280.904C160.611 281.057 161.266 280.448 161.104 279.759L147.434 221.638Z" fill="url(#paint0_linear_737_226367)"/>
  <path d="M202.566 221.638C202.774 220.753 204.022 220.679 204.345 221.529C214.443 248.092 233.079 274.657 234.192 335.23C234.211 336.267 232.759 336.499 232.423 335.518C218.111 293.713 204.27 277.771 190.08 280.904C189.389 281.057 188.734 280.448 188.896 279.759L202.566 221.638Z" fill="url(#paint1_linear_737_226367)"/>
  <path d="M125.849 211.156C125.101 210.748 124.172 211.486 124.422 212.301L137.224 254.133C137.229 254.148 137.227 254.145 137.233 254.161C137.416 254.659 153.267 297.588 175 297.588C196.734 297.588 212.585 254.659 212.768 254.161C212.774 254.145 212.772 254.148 212.777 254.133L225.579 212.301C225.828 211.486 224.899 210.748 224.151 211.156C218.252 214.373 200.597 222.642 175 222.642C149.404 222.642 131.749 214.373 125.849 211.156Z" fill="url(#paint2_linear_737_226367)"/>
  <path d="M175 223.322C175 222.373 176.244 222.069 176.664 222.919C189.646 249.186 192.091 279.874 192.251 338.861C192.254 339.924 190.944 340.088 190.744 339.044C187.345 321.3 188.496 303.068 175.216 287.116C175.079 286.951 175 286.74 175 286.525V223.322Z" fill="url(#paint3_linear_737_226367)"/>
  <path d="M155.658 62.5833C159.112 49.6057 161.898 33 174.785 33C187.671 33 192.186 53.5604 194.341 62.8997C196.328 71.5042 200.673 91.406 201.344 94.4841C201.402 94.7486 201.335 95.01 201.145 95.2035C199.762 96.6152 193.094 102.271 175 102.271C156.85 102.271 150.197 96.5809 148.842 95.1908C148.659 95.0034 148.593 94.7507 148.642 94.4937C149.177 91.6869 152.493 74.4714 155.658 62.5833Z" fill="url(#paint4_linear_737_226367)"/>
  <defs>
  <linearGradient id="paint0_linear_737_226367" x1="161.472" y1="234.537" x2="93.9905" y2="329.919" gradientUnits="userSpaceOnUse">
  <stop stop-color="#830101"/>
  <stop offset="0.979167" stop-color="#FF1818" stop-opacity="0.98"/>
  </linearGradient>
  <linearGradient id="paint1_linear_737_226367" x1="188.528" y1="234.537" x2="256.01" y2="329.919" gradientUnits="userSpaceOnUse">
  <stop stop-color="#830101"/>
  <stop offset="0.979167" stop-color="#FF1818" stop-opacity="0.98"/>
  </linearGradient>
  <linearGradient id="paint2_linear_737_226367" x1="175" y1="180.038" x2="155.556" y2="300.885" gradientUnits="userSpaceOnUse">
  <stop stop-color="#830101"/>
  <stop offset="0.979167" stop-color="#FF1818" stop-opacity="0.98"/>
  </linearGradient>
  <linearGradient id="paint3_linear_737_226367" x1="175" y1="236.068" x2="235.201" y2="267.275" gradientUnits="userSpaceOnUse">
  <stop stop-color="#830101"/>
  <stop offset="0.979167" stop-color="#FF1818" stop-opacity="0.98"/>
  </linearGradient>
  <linearGradient id="paint4_linear_737_226367" x1="175" y1="9.41209" x2="152.221" y2="101.726" gradientUnits="userSpaceOnUse">
  <stop stop-color="#830101"/>
  <stop offset="0.979167" stop-color="#FF1818" stop-opacity="0.98"/>
  </linearGradient>
  </defs>
  
    
  <!-- Ruby Flames -->
  <mask id="mask0_1588_89995" style="mask-type:alpha" maskUnits="userSpaceOnUse" x="124" y="211" width="102" height="87">
  <path d="M125.855 211.262C125.107 210.854 124.178 211.591 124.427 212.406L137.229 254.238C137.234 254.254 137.232 254.251 137.238 254.266C137.421 254.764 153.272 297.693 175.006 297.693C196.739 297.693 212.59 254.764 212.774 254.266C212.779 254.251 212.778 254.254 212.782 254.238L225.585 212.406C225.834 211.591 224.905 210.854 224.157 211.262C218.257 214.478 200.602 222.748 175.006 222.748C149.409 222.748 131.754 214.478 125.855 211.262Z" fill="#C4C4C4"/>
  </mask>
  <g mask="url(#mask0_1588_89995)">
  <path fill-rule="evenodd" clip-rule="evenodd" d="M217.643 209.271C217.661 207.02 217.679 204.9 217.314 203.003C217.123 203.59 216.739 204.4 216.267 205.396C214.161 209.832 210.312 217.944 214.068 226.332C216.459 231.672 216.256 236.077 215.414 244.325C214.753 250.801 211.995 254.978 208.665 256.788C205.334 258.599 201.379 241.997 206.87 229.27C203.128 231.602 196.128 239.197 198.063 250.916C200.48 265.564 200.108 268.451 196.242 271.746C192.375 275.041 185.574 228.911 189.24 217.819C187.526 221.337 183.774 231.681 182.485 244.913L180.35 238.763C180.186 240.614 179.572 244.064 178.845 248.15C177.314 256.755 175.282 268.179 175.892 273.41C176.056 274.816 176.253 276.101 176.432 277.265C177.233 282.488 177.663 285.29 173.09 285.824C165.963 286.655 171.743 268.207 172.36 267.424C172.977 266.641 176.559 254.847 170.848 248.404C171.681 253.52 171.793 263.793 165.577 263.949C157.807 264.145 157.322 247.849 162.876 240.802C156.79 245.305 146.498 257.075 154.023 268.141C161.549 279.207 158.687 285.845 156.315 287.781C155.162 286.212 153.502 283.603 152.333 280.953C151.98 279.76 151.526 277.58 151.035 274.7C151.073 274.513 151.122 274.333 151.184 274.161C151.124 274.264 151.062 274.373 151 274.488C148.444 259.375 144.94 225.627 149.492 213.463C146.899 218.302 141.073 232.609 138.517 251.117L134.821 232.443L134.137 258.414L149.561 277.905C149.066 279.609 148.964 281.307 149.989 282.121C150.313 282.378 150.968 283.032 151.899 283.962C157.696 289.751 174.182 306.216 187.963 303.995C203.956 301.418 214.817 285.22 219.88 273.965C221.809 269.676 223.201 266.026 224.641 262.247C225.973 258.754 227.346 255.152 229.224 250.834C233.081 241.969 230.266 235.332 222.134 225.728C217.551 220.316 217.6 214.449 217.643 209.271Z" fill="url(#paint0_linear_1588_89995)"/>
  </g>
  <path d="M175 223.322C175 222.373 176.245 222.069 176.665 222.919C189.647 249.186 192.092 279.874 192.252 338.861C192.255 339.924 190.945 340.088 190.745 339.044C187.346 321.3 188.497 303.068 175.217 287.116C175.079 286.951 175 286.74 175 286.525V223.322Z" fill="url(#paint1_linear_1588_89995)"/>
  <mask id="mask1_1588_89995" style="mask-type:alpha" maskUnits="userSpaceOnUse" x="148" y="33" width="54" height="70">
  <path d="M155.591 62.5862C159.045 49.6086 161.831 33.0029 174.717 33.0029C187.604 33.0029 192.118 53.5634 194.274 62.9026C196.26 71.5071 200.605 91.4089 201.277 94.4871C201.334 94.7516 201.267 95.013 201.078 95.2064C199.695 96.6181 193.027 102.274 174.932 102.274C156.783 102.274 150.129 96.5838 148.774 95.1937C148.592 95.0063 148.526 94.7536 148.575 94.4966C149.109 91.6898 152.426 74.4743 155.591 62.5862Z" fill="#C4C4C4"/>
  </mask>
  <g mask="url(#mask1_1588_89995)">
  <path d="M163.232 37.2801C162.763 42.6205 159.446 53.2688 154.589 60.3314C148.583 69.0669 136.615 91.0752 140.625 98.1621C144.69 105.347 149.916 114.924 153.751 121.512C158.982 130.495 172.741 124.742 186.411 125.523C200.082 126.305 214.639 105.711 216.447 103.953C217.893 102.547 215.92 98.9954 214.753 97.3951C216.142 100.266 219.281 114.253 211.617 109.234C209.456 107.818 204.275 89.4096 209.645 79.5024C215.016 69.5951 205.344 60.6305 199.837 57.3866C205.117 62.8057 206.118 76.4836 199.568 76.988C194.328 77.3915 193.534 68.786 193.792 64.4329C189.548 70.3157 193.58 79.8764 194.166 80.4785C194.753 81.0807 201.082 94.6616 197.146 97.154C193.211 99.6463 191.827 94.7047 191.916 88.1709C192.006 81.6371 188.094 75.0485 187.168 70.2831L185.905 75.6126C183.676 64.6508 179.627 56.3176 177.881 53.5213C181.924 62.488 180.142 99.0699 176.66 99.2497C173.179 99.4296 172.561 94.4409 173.327 81.9754C173.939 72.003 167.397 66.2497 164.049 64.6196C169.767 74.7975 167.878 89.0299 164.921 87.8012C161.964 86.5725 160.228 82.9842 159.112 77.622C157.996 72.2599 159.249 67.5243 162.972 56.2875C165.95 47.2981 164.387 39.8703 163.232 37.2801Z" fill="url(#paint2_linear_1588_89995)"/>
  </g>
  <defs>
  <linearGradient id="paint0_linear_1588_89995" x1="134.611" y1="302.969" x2="115.02" y2="255.842" gradientUnits="userSpaceOnUse">
  <stop stop-color="#C59651"/>
  <stop offset="0.536458" stop-color="#E0AE0D" stop-opacity="0.98"/>
  <stop offset="1" stop-color="#FFF27B" stop-opacity="0.98"/>
  </linearGradient>
  <linearGradient id="paint1_linear_1588_89995" x1="175" y1="236.068" x2="235.201" y2="267.275" gradientUnits="userSpaceOnUse">
  <stop stop-color="#830101"/>
  <stop offset="0.979167" stop-color="#FF1818" stop-opacity="0.98"/>
  </linearGradient>
  <linearGradient id="paint2_linear_1588_89995" x1="191" y1="31.0029" x2="182.116" y2="106.309" gradientUnits="userSpaceOnUse">
  <stop offset="0.385714" stop-color="#ECE7CC"/>
  <stop offset="1" stop-color="#F0D909" stop-opacity="0.98"/>
  </linearGradient>
  </defs>
    
    </svg>
  