
    <svg width="350" height="350" viewBox="0 0 350 350" fill="none" xmlns="http://www.w3.org/2000/svg">

  <!-- Ash BG -->
  <g clip-path="url(#clip0_28_290)">
  <rect x="0.0789795" y="0.0444336" width="350" height="350" fill="black" fill-opacity="0.89"/>
  <rect x="0.0789795" y="0.0444336" width="350" height="350" fill="url(#paint0_radial_28_290)" fill-opacity="0.2"/>
  <path d="M125.979 290.538L299.832 190.751L430.987 233.879L230.789 294.049L125.979 290.538Z" fill="url(#paint1_linear_28_290)"/>
  <g opacity="0.45" filter="url(#filter0_f_28_290)">
  <ellipse rx="194.596" ry="66.7643" transform="matrix(0.999998 0.00221055 0.00221055 -0.999998 176.078 304.637)" fill="url(#paint2_radial_28_290)"/>
  </g>
  <g opacity="0.7" filter="url(#filter1_f_28_290)">
  <ellipse cx="174.396" cy="137.609" rx="196.647" ry="242.448" transform="rotate(0.126655 174.396 137.609)" fill="url(#paint3_radial_28_290)"/>
  </g>
  </g>
  <defs>
  <filter id="filter0_f_28_290" x="-23.0754" y="233.314" width="398.306" height="142.646" filterUnits="userSpaceOnUse" color-interpolation-filters="sRGB">
  <feFlood flood-opacity="0" result="BackgroundImageFix"/>
  <feBlend mode="normal" in="SourceGraphic" in2="BackgroundImageFix" result="shape"/>
  <feGaussianBlur stdDeviation="2.27865" result="effect1_foregroundBlur_28_290"/>
  </filter>
  <filter id="filter1_f_28_290" x="-26.8086" y="-109.396" width="402.41" height="494.01" filterUnits="userSpaceOnUse" color-interpolation-filters="sRGB">
  <feFlood flood-opacity="0" result="BackgroundImageFix"/>
  <feBlend mode="normal" in="SourceGraphic" in2="BackgroundImageFix" result="shape"/>
  <feGaussianBlur stdDeviation="2.27865" result="effect1_foregroundBlur_28_290"/>
  </filter>
  <radialGradient id="paint0_radial_28_290" cx="0" cy="0" r="1" gradientUnits="userSpaceOnUse" gradientTransform="translate(156.622 401.542) rotate(-84.441) scale(239.93 241.682)">
  <stop/>
  <stop offset="1" stop-opacity="0"/>
  </radialGradient>
  <linearGradient id="paint1_linear_28_290" x1="194.836" y1="271.638" x2="316.537" y2="167.936" gradientUnits="userSpaceOnUse">
  <stop/>
  <stop offset="1" stop-color="#333333" stop-opacity="0"/>
  </linearGradient>
  <radialGradient id="paint2_radial_28_290" cx="0" cy="0" r="1" gradientUnits="userSpaceOnUse" gradientTransform="translate(194.596 76.624) rotate(99.1226) scale(43.9775 125.337)">
  <stop stop-color="#737373"/>
  <stop offset="1" stop-color="#9A9A9A" stop-opacity="0"/>
  </radialGradient>
  <radialGradient id="paint3_radial_28_290" cx="0" cy="0" r="1" gradientUnits="userSpaceOnUse" gradientTransform="translate(174.396 173.413) rotate(92.5586) scale(157.837 128.153)">
  <stop stop-color="#737373"/>
  <stop offset="1" stop-color="#9A9A9A" stop-opacity="0"/>
  </radialGradient>
  <clipPath id="clip0_28_290">
  <rect width="350" height="350" fill="white"/>
  </clipPath>
  </defs>


  <!-- LavaCeption Overlay -->
  <g style="mix-blend-mode:overlay" clip-path="url(#clip0_559_45925)">
  <circle cx="267.057" cy="334.049" r="28.7109" fill="white" fill-opacity="0.25"/>
  <circle cx="114.388" cy="66.5365" r="22.7865" fill="white" fill-opacity="0.25"/>
  <circle cx="279.362" cy="110.287" r="16.4062" fill="white" fill-opacity="0.25"/>
  <circle cx="8.20312" cy="234.701" r="16.4062" fill="white" fill-opacity="0.25"/>
  <circle cx="335.872" cy="14.5833" r="40.1042" fill="white" fill-opacity="0.25"/>
  <path d="M65.9326 288.461C29.3383 277.341 1.34401 320.346 -5.46875 340.81C53.705 430.699 146.791 390.296 179.557 350.911C127.002 379.87 111.675 302.361 65.9326 288.461Z" fill="white" fill-opacity="0.25"/>
  <path d="M296.664 236.375C285.544 199.781 328.549 171.787 349.013 164.974C438.902 224.148 398.499 317.234 359.115 350C388.074 297.444 310.565 282.118 296.664 236.375Z" fill="white" fill-opacity="0.25"/>
  <path d="M-26.4321 3.86974C-13.3545 0.661561 15.8469 6.61965 18.8009 32.2851C21.0691 51.9925 19.2624 85.9076 3.10779 101.032C-15.8162 118.749 -14.5043 160.554 12.8006 170.237C38.648 179.403 69.97 166.112 74.1882 144.572C80.545 112.109 53.2633 106.516 57.1104 74.9081C67.4481 -10.0259 219.591 11.8327 236.979 -4.55718C236.979 -87.4437 3.10779 -222.311 -26.4321 3.86974Z" fill="white" fill-opacity="0.25"/>
  </g>
  <defs>
  <clipPath id="clip0_559_45925">
  <rect width="350" height="350" fill="white"/>
  </clipPath>
  </defs>


  <!-- Halo -->
  <path fill-rule="evenodd" clip-rule="evenodd" d="M212.323 25.3395C210.609 24.5592 208.081 23.7554 204.76 23.0272C197.27 21.3852 186.704 20.3312 174.883 20.3312C163.061 20.3312 152.495 21.3852 145.006 23.0272C141.684 23.7554 139.157 24.5592 137.442 25.3395C139.157 26.1199 141.684 26.9237 145.006 27.6519C152.495 29.2939 163.061 30.3479 174.883 30.3479C186.704 30.3479 197.27 29.2939 204.76 27.6519C208.081 26.9237 210.609 26.1199 212.323 25.3395ZM174.883 34.9052C198.98 34.9052 218.515 30.6225 218.515 25.3395C218.515 20.0566 198.98 15.7739 174.883 15.7739C150.785 15.7739 131.25 20.0566 131.25 25.3395C131.25 30.6225 150.785 34.9052 174.883 34.9052Z" fill="#FDF21B"/>



  <!-- Normal Glass -->
    <path d="M148.717 95L125.019 209.98C124.948 210.324 125.078 210.673 125.367 210.873C128.479 213.027 147.033 225 175 225C202.967 225 221.521 213.027 224.633 210.873C224.922 210.673 225.052 210.324 224.981 209.98L201.283 95C201.249 95.0666 201.205 95.1285 201.15 95.1836C199.818 96.5241 193.18 102.106 175 102.106C156.82 102.106 150.182 96.5241 148.85 95.1836C148.795 95.1285 148.751 95.0666 148.717 95Z" fill="#2D34E6" fill-opacity="0.6"/>




  <!-- Lava 2 -->
    <!-- Color -->
<path d="M178.202 131.059C178.202 128.163 180.222 122.394 188.299 122.479C196.377 122.565 198.468 128.235 198.504 131.059C198.576 133.132 197.365 137.622 191.952 138.995C185.184 140.711 178.202 136.85 178.202 131.059Z" fill="url(#paint0_radial_931_113845)"/>
<defs>
<radialGradient id="paint0_radial_931_113845" cx="0" cy="0" r="1" gradientUnits="userSpaceOnUse" gradientTransform="translate(182.959 126.151) rotate(45.5119) scale(10.2292 11.3416)">
<stop offset="0.203125" style="stop-color: #FFFFFF;"/>
<stop offset="0.890625" style="stop-color: #D0C9C9;"/>
</radialGradient>
</defs>


  <!-- Lava 3 -->
    <!-- Color -->
    <path d="M214.381 157.604L219.2 181.084C217.285 183.349 214.448 185.339 210.334 186.382C197.471 189.642 184.2 182.306 184.2 171.303C184.2 165.801 188.039 154.839 203.392 155.002C208.021 155.051 211.616 156.065 214.381 157.604Z" fill="url(#paint0_radial_931_113862)"/>
<defs>
<radialGradient id="paint0_radial_931_113862" cx="0" cy="0" r="1" gradientUnits="userSpaceOnUse" gradientTransform="translate(192.4 161.977) rotate(48.2936) scale(18.5718 20.4588)">
<stop offset="0.203125" style="stop-color: #FFB800;"/>
<stop offset="0.890625" style="stop-color: #FF7800;"/>
</radialGradient>
</defs>


  <!-- Lava 4 -->
    <!-- Color -->
    <path d="M225 210.659C220.5 214 200.704 225 175.402 225C147.201 225 128.492 213.024 125.354 210.869C125.163 210.738 125.042 210.543 125 210.328C128.968 198.996 144.393 175.959 164.496 181.99C174.451 184.976 181.421 192.474 187.975 199.525C198.127 210.446 208 213.5 225 210.659C224.675 211.045 225.345 210.27 225 210.659Z" fill="url(#paint0_radial_931_113863)"/>
<mask id="mask0_931_113863" style="mask-type:alpha" maskUnits="userSpaceOnUse" x="124" y="180" width="101" height="45">
<path d="M223.866 211.799C218.236 215.343 200.575 225 175.272 225C147.071 225 128.362 213.003 125.225 210.845C125.034 210.714 124.912 210.519 124.87 210.303C128.839 198.951 144.263 175.875 164.366 181.916C174.321 184.908 181.291 192.418 187.845 199.481C197.997 210.421 207.154 220.288 224.87 210.635C224.545 211.021 224.21 211.409 223.866 211.799Z" fill="url(#paint1_radial_931_113863)"/>
</mask>
<g mask="url(#mask0_931_113863)">
<g filter="url(#filter0_f_931_113863)">
<mask id="mask1_931_113863" style="mask-type:alpha" maskUnits="userSpaceOnUse" x="124" y="94" width="102" height="132">
<path d="M148.862 95.3198C148.949 94.896 149.322 94.5918 149.755 94.5918H200.246C200.679 94.5918 201.052 94.896 201.139 95.3198L224.993 211.414C225.075 211.811 224.888 212.211 224.527 212.393C220.624 214.365 198.376 225.073 175 225.383C151.578 225.694 129.288 214.434 125.45 212.396C125.1 212.21 124.924 211.818 125.004 211.429L148.862 95.3198Z" fill="#577096" fill-opacity="0.75"/>
</mask>
<g mask="url(#mask1_931_113863)">
<g filter="url(#filter1_f_931_113863)">
<path d="M155.407 125.557C156.47 105.273 134.471 86.4386 128.929 67.2543C133.388 65.4531 144.05 71.0455 152.675 76.3806C163.456 83.0494 162.879 109.38 164.625 126.04C166.022 139.368 148.453 223.657 144.015 241.737L131.716 241.093C140.242 214.936 154.587 141.211 155.407 125.557Z" fill="url(#paint2_linear_931_113863)" fill-opacity="0.6"/>
</g>
</g>
</g>
</g>
<defs>
<filter id="filter0_f_931_113863" x="122.591" y="92.3132" width="105.59" height="135.355" filterUnits="userSpaceOnUse" color-interpolation-filters="sRGB">
<feFlood flood-opacity="0" result="BackgroundImageFix"/>
<feBlend mode="normal" in="SourceGraphic" in2="BackgroundImageFix" result="shape"/>
<feGaussianBlur stdDeviation="1.13932" result="effect1_foregroundBlur_931_113863"/>
</filter>
<filter id="filter1_f_931_113863" x="128.017" y="65.9987" width="37.5983" height="176.65" filterUnits="userSpaceOnUse" color-interpolation-filters="sRGB">
<feFlood flood-opacity="0" result="BackgroundImageFix"/>
<feBlend mode="normal" in="SourceGraphic" in2="BackgroundImageFix" result="shape"/>
<feGaussianBlur stdDeviation="0.455729" result="effect1_foregroundBlur_931_113863"/>
</filter>
<radialGradient id="paint0_radial_931_113863" cx="0" cy="0" r="1" gradientUnits="userSpaceOnUse" gradientTransform="translate(148.451 190.545) rotate(28.2255) scale(40.1081 37.0676)">
<stop offset="0.203125" style="stop-color: #FFB800;"/>
<stop offset="0.890625" style="stop-color: #FF7800;"/>
</radialGradient>
<radialGradient id="paint1_radial_931_113863" cx="0" cy="0" r="1" gradientUnits="userSpaceOnUse" gradientTransform="translate(146.382 191.229) rotate(27.0849) scale(58.9221 42.3164)">
<stop offset="0.302083" stop-color="#FFB800"/>
<stop offset="1" stop-color="#FF7800"/>
</radialGradient>
<linearGradient id="paint2_linear_931_113863" x1="160.729" y1="221.194" x2="201.954" y2="178.256" gradientUnits="userSpaceOnUse">
<stop stop-color="#F2F2F2"/>
<stop offset="0.0001" stop-color="#F2F2F2"/>
<stop offset="0.0520833" stop-color="#F2F2F2" stop-opacity="0.948011"/>
<stop offset="1" stop-color="#F2F2F2" stop-opacity="0"/>
</linearGradient>
</defs>



  <!-- Ruby Witch -->
  <path d="M105 286.95C141.989 290.761 221.974 296.096 246 286.95C220.04 271.895 155.495 250.819 105 286.95Z" fill="#830101"/>
  <path d="M170.567 339.094C173.799 338.74 171.914 329.499 170.567 324.923H145.43C140.792 328.318 130.259 335.906 138.159 339.094C146.06 342.283 158.747 336.29 162.488 332.895C163.834 335.109 167.336 339.449 170.567 339.094Z" fill="url(#paint0_radial_902_116287)"/>
  <path d="M170.846 273.018V324.923H145.49L131 270L170.846 273.018Z" fill="#FE1D1D"/>
  <mask id="mask0_902_116287" style="mask-type:alpha" maskUnits="userSpaceOnUse" x="131" y="270" width="40" height="56">
  <path d="M170.846 273.047V325.462H145.49L131 270L170.846 273.047Z" fill="white"/>
  </mask>
  <g mask="url(#mask0_902_116287)">
  <rect width="57.9592" height="12.1891" transform="matrix(0.998967 0.0454358 -0.044586 0.999006 129.225 312.552)" fill="#980505"/>
  <rect width="57.9592" height="12.1891" transform="matrix(0.998967 0.0454358 -0.044586 0.999006 130.091 293.068)" fill="#980505"/>
  <rect x="130.962" y="273.585" width="57.9592" height="12.1891" transform="rotate(2.57969 130.962 273.585)" fill="#980505"/>
  </g>
  <path d="M178.201 339.094C174.969 338.74 176.854 329.499 178.201 324.923H203.338C207.977 328.318 218.51 335.906 210.609 339.094C202.709 342.283 190.022 336.29 186.281 332.895C184.934 335.109 181.433 339.449 178.201 339.094Z" fill="url(#paint1_radial_902_116287)"/>
  <path d="M178.299 273.018V324.923H203.656L218.146 270L178.299 273.018Z" fill="#FE1D1D"/>
  <mask id="mask1_902_116287" style="mask-type:alpha" maskUnits="userSpaceOnUse" x="178" y="270" width="41" height="56">
  <path d="M178.301 273.047V325.462H203.658L218.147 270L178.301 273.047Z" fill="white"/>
  </mask>
  <g mask="url(#mask1_902_116287)">
  <rect width="57.9592" height="12.1891" transform="matrix(-0.998967 0.0454358 0.044586 0.999006 219.923 312.552)" fill="#980505"/>
  <rect width="57.9592" height="12.1891" transform="matrix(-0.998967 0.0454358 0.044586 0.999006 219.057 293.068)" fill="#980505"/>
  <rect width="57.9592" height="12.1891" transform="matrix(-0.998987 0.0450089 0.0450089 0.998987 218.186 273.585)" fill="#980505"/>
  </g>
  <path d="M245.641 285.697L224.777 210.006C224.631 209.474 224.043 209.195 223.534 209.408C183.446 226.102 142.208 216.668 125.484 209.436C124.962 209.21 124.373 209.509 124.235 210.061L105.44 285.239C105.258 285.966 105.997 286.642 106.717 286.431C111.115 285.139 124.609 282.054 154.5 281.5C188.954 280.862 236.15 285.902 244.659 286.849C245.301 286.92 245.812 286.32 245.641 285.697Z" fill="url(#paint2_linear_902_116287)"/>
  <path d="M124.5 208C124.5 208 144 218 175.5 218C207 218 225.5 208 225.5 208L228.5 222C228.5 222 209 232 175.5 232C142 232 121 222 121 222L124.5 208Z" fill="#0C011C"/>
  <g filter="url(#filter0_d_902_116287)">
  <rect x="165.5" y="216" width="20" height="18" stroke="#FDF21B" stroke-width="4" shape-rendering="geometricPrecision"/>
  </g>
  <path d="M236.072 98.79C234.385 107.874 201.732 109.429 174.03 104.285C146.329 99.1415 116.41 85.968 118.097 76.8839C119.784 67.7997 152.437 66.2448 180.139 71.3886C207.841 76.5324 237.759 89.7058 236.072 98.79Z" fill="url(#paint3_linear_902_116287)"/>
  <path d="M176.133 90.9404C160.87 87.4856 155.063 83.9517 151.036 80.0679C150.823 79.862 150.726 79.5758 150.776 79.2834C153.764 61.8975 162.048 23.9396 232.022 27.9092C233.018 27.9657 233.5 29.9306 232.713 30.5426C228.88 33.5223 224.321 38.484 219.72 41.953C215.065 45.4618 210.544 42.9417 207.45 46.2822C204.919 49.0159 205.36 54.3766 203.821 56.8379C201.904 59.9024 200.396 59.9528 199.176 63.375C199.156 63.4315 199.129 63.4897 199.098 63.5416C193.919 72.4319 202.017 78.8891 206.299 90.045C206.492 90.5478 206.195 91.1019 205.671 91.224C197.885 93.0378 188.578 93.7571 176.133 90.9404Z" fill="url(#paint4_linear_902_116287)"/>
  <path d="M150.204 79.7737C154.238 83.6287 160.17 86.6521 175.3 90.6469C187.445 93.8535 199.865 93.402 206.174 91.2985C206.641 91.1429 206.871 90.6316 206.684 90.1767C205.585 87.5004 203.802 84.7652 202.753 82.5561C202.594 82.222 202.255 82.0048 201.885 82.011C184.368 82.3025 171.422 80.7213 154.691 69.3404C154.237 69.0316 153.608 69.1812 153.362 69.6724C151.603 73.1935 150.456 76.3904 149.95 78.9788C149.893 79.2699 149.989 79.5687 150.204 79.7737Z" fill="url(#paint5_linear_902_116287)"/>
  <defs>
  <filter id="filter0_d_902_116287" x="160.059" y="210.559" width="30.8811" height="28.8811" filterUnits="userSpaceOnUse" color-interpolation-filters="sRGB">
  <feFlood flood-opacity="0" result="BackgroundImageFix"/>
  <feColorMatrix in="SourceAlpha" type="matrix" values="0 0 0 0 0 0 0 0 0 0 0 0 0 0 0 0 0 0 127 0" result="hardAlpha"/>
  <feOffset/>
  <feGaussianBlur stdDeviation="1.72028"/>

  <feColorMatrix type="matrix" values="0 0 0 0 1 0 0 0 0 1 0 0 0 0 1 0 0 0 1 0"/>
  <feBlend mode="normal" in2="BackgroundImageFix" result="effect1_dropShadow_902_116287"/>
  <feBlend mode="normal" in="SourceGraphic" in2="effect1_dropShadow_902_116287" result="shape"/>
  </filter>
  <radialGradient id="paint0_radial_902_116287" cx="0" cy="0" r="1" gradientUnits="userSpaceOnUse" gradientTransform="translate(145 324.923) rotate(41.1859) scale(11.4478 28.1277)">
  <stop offset="0.453125" stop-color="#564D61"/>
  <stop offset="1" stop-color="#1D1A21"/>
  </radialGradient>
  <radialGradient id="paint1_radial_902_116287" cx="0" cy="0" r="1" gradientUnits="userSpaceOnUse" gradientTransform="translate(203.769 324.923) rotate(138.814) scale(11.4478 28.1277)">
  <stop offset="0.453125" stop-color="#564D61"/>
  <stop offset="1" stop-color="#1D1A21"/>
  </radialGradient>
  <linearGradient id="paint2_linear_902_116287" x1="148.019" y1="225.386" x2="236.61" y2="257.122" gradientUnits="userSpaceOnUse">
  <stop stop-color="#FF1818" stop-opacity="0.98"/>
  <stop offset="1" stop-color="#830101"/>
  </linearGradient>
  <linearGradient id="paint3_linear_902_116287" x1="155.862" y1="74.03" x2="191.508" y2="122.892" gradientUnits="userSpaceOnUse">
  <stop stop-color="#830101"/>
  <stop offset="0.979167" stop-color="#FF1818" stop-opacity="0.98"/>
  </linearGradient>
  <linearGradient id="paint4_linear_902_116287" x1="181.638" y1="34.6421" x2="228.07" y2="56.1584" gradientUnits="userSpaceOnUse">
  <stop stop-color="#830101"/>
  <stop offset="0.979167" stop-color="#FF1818" stop-opacity="0.98"/>
  </linearGradient>
  <linearGradient id="paint5_linear_902_116287" x1="168.567" y1="75.0636" x2="195.014" y2="98.0743" gradientUnits="userSpaceOnUse">
  <stop stop-color="#FF1818" stop-opacity="0.98"/>
  <stop offset="1" stop-color="#830101"/>
  </linearGradient>
  </defs>


  <!-- JpegBelt -->
  <rect x="151.568" y="211.5" width="47.8636" height="28" stroke="#FCE516" stroke-width="5"/>
  <path fill-rule="evenodd" clip-rule="evenodd" d="M196.864 214H154V237H196.864V214Z" fill="url(#paint0_radial_1369_76004)" stroke="#FCE516" stroke-width="0.536575"/>
  <mask id="mask0_1369_76004" style="mask-type:alpha" maskUnits="userSpaceOnUse" x="153" y="213" width="45" height="25">
  <path d="M170.335 222.925C170.49 222.094 170.645 221.213 170.8 220.284C171.081 220.284 171.335 220.418 171.56 220.685C171.799 220.953 171.919 221.347 171.919 221.868C171.919 222.347 171.856 222.805 171.729 223.241C171.602 223.678 171.433 224.065 171.222 224.403C171.011 224.727 170.778 224.995 170.525 225.206C170.285 225.403 170.053 225.53 169.828 225.586C170.011 224.643 170.18 223.755 170.335 222.925Z" fill="url(#paint1_radial_1369_76004)"/>
  <path fill-rule="evenodd" clip-rule="evenodd" d="M196.864 214H154V237H196.864V214ZM164.329 229.642C164.512 228.966 164.667 228.318 164.794 227.699C164.935 226.966 165.097 226.143 165.28 225.227C165.477 224.298 165.681 223.354 165.892 222.396C166.104 221.439 166.322 220.502 166.547 219.587C166.773 218.671 166.991 217.855 167.202 217.136C166.582 217.305 165.963 217.453 165.343 217.58C164.737 217.693 164.118 217.777 163.484 217.833C163.16 219.185 162.879 220.544 162.639 221.911C162.4 223.263 162.146 224.622 161.879 225.988C161.85 226.227 161.808 226.544 161.752 226.938C161.696 227.333 161.618 227.72 161.52 228.1C161.421 228.466 161.301 228.79 161.16 229.072C161.034 229.353 160.886 229.494 160.717 229.494C160.477 229.494 160.252 229.445 160.041 229.346C159.844 229.234 159.298 228.777 159.227 228.636L157.659 231.773C158.208 232.181 159.231 232.916 159.682 233.085C160.146 233.254 160.576 233.339 160.97 233.339C161.562 233.339 162.069 233.163 162.491 232.811C162.928 232.445 163.294 231.994 163.59 231.459C163.9 230.91 164.146 230.304 164.329 229.642ZM166.11 227.762C165.73 229.579 165.328 231.438 164.906 233.339L168.56 232.621C168.645 232.057 168.736 231.494 168.835 230.931C168.905 230.452 168.99 229.931 169.088 229.368C169.187 228.804 169.293 228.283 169.405 227.804H169.638C170.314 227.804 170.961 227.635 171.581 227.297C172.215 226.959 172.771 226.509 173.25 225.945C173.743 225.368 174.13 224.713 174.412 223.981C174.708 223.248 174.855 222.488 174.855 221.699C174.855 221.15 174.799 220.636 174.686 220.157C174.574 219.678 174.384 219.263 174.116 218.911C173.848 218.545 173.496 218.256 173.06 218.045C172.637 217.833 172.109 217.728 171.475 217.728C171.109 217.728 170.715 217.763 170.293 217.833C169.884 217.904 169.483 217.988 169.088 218.087C168.694 218.171 168.293 218.277 167.884 218.404C167.786 219.038 167.666 219.735 167.525 220.495C167.384 221.256 167.236 222.044 167.082 222.861C166.927 223.678 166.765 224.509 166.596 225.354C166.427 226.199 166.265 227.002 166.11 227.762ZM173.459 233.339L176.227 218.319L182.902 217.749C182.803 218.059 182.719 218.376 182.648 218.7C182.578 218.967 182.508 219.249 182.437 219.545C182.381 219.826 182.332 220.08 182.289 220.305C182.148 220.319 181.944 220.333 181.677 220.347C181.423 220.347 181.149 220.354 180.853 220.368H179.163L178.424 224.15C178.86 224.122 179.269 224.1 179.649 224.086C179.959 224.072 180.275 224.065 180.599 224.065C180.923 224.065 181.163 224.058 181.318 224.044C181.261 224.438 181.205 224.826 181.149 225.206C181.106 225.586 181.05 225.974 180.98 226.368C180.839 226.382 180.606 226.396 180.282 226.41C179.973 226.41 179.656 226.417 179.332 226.431C178.966 226.445 178.564 226.459 178.128 226.473L177.41 230.36L180.494 229.875L180.282 232.283L173.459 233.339ZM191.33 229.03C191.795 227.959 192.076 226.706 192.175 225.269C191.724 225.354 191.196 225.445 190.59 225.544C189.999 225.643 189.436 225.727 188.901 225.797C188.267 225.882 187.619 225.966 186.957 226.051L186.556 228.142L188.816 227.804C188.802 228.213 188.71 228.593 188.541 228.945C188.386 229.283 188.189 229.586 187.95 229.853C187.71 230.107 187.436 230.304 187.126 230.445C186.83 230.586 186.542 230.656 186.26 230.656C185.852 230.656 185.514 230.473 185.246 230.107C184.992 229.727 184.866 229.1 184.866 228.227C184.894 227.311 185.035 226.382 185.288 225.438C185.542 224.495 185.852 223.629 186.218 222.84C186.584 222.051 186.978 221.411 187.401 220.918C187.823 220.411 188.21 220.157 188.563 220.157C188.83 220.157 189.07 220.277 189.281 220.516C189.492 220.756 189.661 221.157 189.788 221.72L192.682 221.171C192.682 220.678 192.618 220.214 192.492 219.777C192.379 219.326 192.189 218.939 191.921 218.615C191.654 218.277 191.309 218.01 190.886 217.812C190.478 217.615 189.992 217.517 189.429 217.517C188.64 217.517 187.788 217.735 186.873 218.171C185.971 218.608 185.119 219.277 184.316 220.178C183.528 221.08 182.873 222.206 182.352 223.558C181.831 224.91 181.57 226.495 181.57 228.311C181.57 229.241 181.669 230.051 181.866 230.741C182.063 231.431 182.331 232.008 182.669 232.473C183.021 232.924 183.429 233.262 183.894 233.487C184.373 233.712 184.873 233.825 185.394 233.825C186.07 233.825 186.781 233.649 187.527 233.297C188.288 232.945 188.992 232.409 189.64 231.691C190.302 230.973 190.865 230.086 191.33 229.03Z" fill="url(#paint2_radial_1369_76004)"/>
  <path d="M170.335 222.925C170.49 222.094 170.645 221.213 170.8 220.284C171.081 220.284 171.335 220.418 171.56 220.685C171.799 220.953 171.919 221.347 171.919 221.868C171.919 222.347 171.856 222.805 171.729 223.241C171.602 223.678 171.433 224.065 171.222 224.403C171.011 224.727 170.778 224.995 170.525 225.206C170.285 225.403 170.053 225.53 169.828 225.586C170.011 224.643 170.18 223.755 170.335 222.925Z" stroke="#FCE516" stroke-width="0.536575"/>
  <path fill-rule="evenodd" clip-rule="evenodd" d="M196.864 214H154V237H196.864V214ZM164.329 229.642C164.512 228.966 164.667 228.318 164.794 227.699C164.935 226.966 165.097 226.143 165.28 225.227C165.477 224.298 165.681 223.354 165.892 222.396C166.104 221.439 166.322 220.502 166.547 219.587C166.773 218.671 166.991 217.855 167.202 217.136C166.582 217.305 165.963 217.453 165.343 217.58C164.737 217.693 164.118 217.777 163.484 217.833C163.16 219.185 162.879 220.544 162.639 221.911C162.4 223.263 162.146 224.622 161.879 225.988C161.85 226.227 161.808 226.544 161.752 226.938C161.696 227.333 161.618 227.72 161.52 228.1C161.421 228.466 161.301 228.79 161.16 229.072C161.034 229.353 160.886 229.494 160.717 229.494C160.477 229.494 160.252 229.445 160.041 229.346C159.844 229.234 159.298 228.777 159.227 228.636L157.659 231.773C158.208 232.181 159.231 232.916 159.682 233.085C160.146 233.254 160.576 233.339 160.97 233.339C161.562 233.339 162.069 233.163 162.491 232.811C162.928 232.445 163.294 231.994 163.59 231.459C163.9 230.91 164.146 230.304 164.329 229.642ZM166.11 227.762C165.73 229.579 165.328 231.438 164.906 233.339L168.56 232.621C168.645 232.057 168.736 231.494 168.835 230.931C168.905 230.452 168.99 229.931 169.088 229.368C169.187 228.804 169.293 228.283 169.405 227.804H169.638C170.314 227.804 170.961 227.635 171.581 227.297C172.215 226.959 172.771 226.509 173.25 225.945C173.743 225.368 174.13 224.713 174.412 223.981C174.708 223.248 174.855 222.488 174.855 221.699C174.855 221.15 174.799 220.636 174.686 220.157C174.574 219.678 174.384 219.263 174.116 218.911C173.848 218.545 173.496 218.256 173.06 218.045C172.637 217.833 172.109 217.728 171.475 217.728C171.109 217.728 170.715 217.763 170.293 217.833C169.884 217.904 169.483 217.988 169.088 218.087C168.694 218.171 168.293 218.277 167.884 218.404C167.786 219.038 167.666 219.735 167.525 220.495C167.384 221.256 167.236 222.044 167.082 222.861C166.927 223.678 166.765 224.509 166.596 225.354C166.427 226.199 166.265 227.002 166.11 227.762ZM173.459 233.339L176.227 218.319L182.902 217.749C182.803 218.059 182.719 218.376 182.648 218.7C182.578 218.967 182.508 219.249 182.437 219.545C182.381 219.826 182.332 220.08 182.289 220.305C182.148 220.319 181.944 220.333 181.677 220.347C181.423 220.347 181.149 220.354 180.853 220.368H179.163L178.424 224.15C178.86 224.122 179.269 224.1 179.649 224.086C179.959 224.072 180.275 224.065 180.599 224.065C180.923 224.065 181.163 224.058 181.318 224.044C181.261 224.438 181.205 224.826 181.149 225.206C181.106 225.586 181.05 225.974 180.98 226.368C180.839 226.382 180.606 226.396 180.282 226.41C179.973 226.41 179.656 226.417 179.332 226.431C178.966 226.445 178.564 226.459 178.128 226.473L177.41 230.36L180.494 229.875L180.282 232.283L173.459 233.339ZM191.33 229.03C191.795 227.959 192.076 226.706 192.175 225.269C191.724 225.354 191.196 225.445 190.59 225.544C189.999 225.643 189.436 225.727 188.901 225.797C188.267 225.882 187.619 225.966 186.957 226.051L186.556 228.142L188.816 227.804C188.802 228.213 188.71 228.593 188.541 228.945C188.386 229.283 188.189 229.586 187.95 229.853C187.71 230.107 187.436 230.304 187.126 230.445C186.83 230.586 186.542 230.656 186.26 230.656C185.852 230.656 185.514 230.473 185.246 230.107C184.992 229.727 184.866 229.1 184.866 228.227C184.894 227.311 185.035 226.382 185.288 225.438C185.542 224.495 185.852 223.629 186.218 222.84C186.584 222.051 186.978 221.411 187.401 220.918C187.823 220.411 188.21 220.157 188.563 220.157C188.83 220.157 189.07 220.277 189.281 220.516C189.492 220.756 189.661 221.157 189.788 221.72L192.682 221.171C192.682 220.678 192.618 220.214 192.492 219.777C192.379 219.326 192.189 218.939 191.921 218.615C191.654 218.277 191.309 218.01 190.886 217.812C190.478 217.615 189.992 217.517 189.429 217.517C188.64 217.517 187.788 217.735 186.873 218.171C185.971 218.608 185.119 219.277 184.316 220.178C183.528 221.08 182.873 222.206 182.352 223.558C181.831 224.91 181.57 226.495 181.57 228.311C181.57 229.241 181.669 230.051 181.866 230.741C182.063 231.431 182.331 232.008 182.669 232.473C183.021 232.924 183.429 233.262 183.894 233.487C184.373 233.712 184.873 233.825 185.394 233.825C186.07 233.825 186.781 233.649 187.527 233.297C188.288 232.945 188.992 232.409 189.64 231.691C190.302 230.973 190.865 230.086 191.33 229.03Z" stroke="#FCE516" stroke-width="0.536575"/>
  </mask>
  <g mask="url(#mask0_1369_76004)">
  <circle cx="183.113" cy="215.519" r="0.844626" transform="rotate(90 183.113 215.519)" fill="white"/>
  <circle cx="195.147" cy="217.417" r="0.844626" transform="rotate(165 195.147 217.417)" fill="white"/>
  <circle cx="174.653" cy="228.83" r="0.844626" transform="rotate(165 174.653 228.83)" fill="white"/>
  <path d="M162.554 234.845L163.992 234.313L164.525 232.875L165.057 234.313L166.495 234.845L165.057 235.378L164.525 236.816L163.992 235.378L162.554 234.845Z" fill="#FFF7B0"/>
  <path d="M186.823 223.225L188.262 222.693L188.794 221.254L189.326 222.693L190.765 223.225L189.326 223.758L188.794 225.196L188.262 223.758L186.823 223.225Z" fill="#FFF7B0"/>
  <path d="M155.862 223.522L157.301 222.989L157.833 221.551L158.365 222.989L159.804 223.522L158.365 224.054L157.833 225.492L157.301 224.054L155.862 223.522Z" fill="#FFF7B0"/>
  <path d="M178.305 234.267L179.743 233.734L180.275 232.296L180.808 233.734L182.246 234.267L180.808 234.799L180.275 236.237L179.743 234.799L178.305 234.267Z" fill="#FFF7B0"/>
  <path opacity="0.25" d="M165.811 219.652L170.194 218.03L171.816 213.647L173.438 218.03L177.822 219.652L173.438 221.274L171.816 225.658L170.194 221.274L165.811 219.652Z" fill="#FFF7B0"/>
  <path opacity="0.25" d="M144.001 231.98L148.384 230.358L150.007 225.974L151.629 230.358L156.012 231.98L151.629 233.602L150.007 237.985L148.384 233.602L144.001 231.98Z" fill="#FFF7B0"/>
  <path opacity="0.25" d="M152.849 210.487L157.232 208.864L158.854 204.481L160.476 208.864L164.86 210.487L160.476 212.109L158.854 216.492L157.232 212.109L152.849 210.487Z" fill="#FFF7B0"/>
  <path opacity="0.25" d="M186.989 240.514L191.373 238.892L192.995 234.508L194.617 238.892L199 240.514L194.617 242.136L192.995 246.52L191.373 242.136L186.989 240.514Z" fill="#FFF7B0"/>
  </g>
  <circle cx="151.5" cy="211.5" r="1.5" fill="url(#paint3_radial_1369_76004)"/>
  <circle cx="155.5" cy="211.5" r="1.5" fill="url(#paint4_radial_1369_76004)"/>
  <circle cx="159.5" cy="211.5" r="1.5" fill="url(#paint5_radial_1369_76004)"/>
  <circle cx="163.5" cy="211.5" r="1.5" fill="url(#paint6_radial_1369_76004)"/>
  <circle cx="167.5" cy="211.5" r="1.5" fill="url(#paint7_radial_1369_76004)"/>
  <circle cx="171.5" cy="211.5" r="1.5" fill="url(#paint8_radial_1369_76004)"/>
  <circle cx="175.5" cy="211.5" r="1.5" fill="url(#paint9_radial_1369_76004)"/>
  <circle cx="179.5" cy="211.5" r="1.5" fill="url(#paint10_radial_1369_76004)"/>
  <circle cx="183.5" cy="211.5" r="1.5" fill="url(#paint11_radial_1369_76004)"/>
  <circle cx="187.5" cy="211.5" r="1.5" fill="url(#paint12_radial_1369_76004)"/>
  <circle cx="191.5" cy="211.5" r="1.5" fill="url(#paint13_radial_1369_76004)"/>
  <circle cx="195.5" cy="211.5" r="1.5" fill="url(#paint14_radial_1369_76004)"/>
  <circle cx="199.5" cy="211.5" r="1.5" fill="url(#paint15_radial_1369_76004)"/>
  <circle cx="151.5" cy="239.5" r="1.5" fill="url(#paint16_radial_1369_76004)"/>
  <circle cx="155.5" cy="239.5" r="1.5" fill="url(#paint17_radial_1369_76004)"/>
  <circle cx="159.5" cy="239.5" r="1.5" fill="url(#paint18_radial_1369_76004)"/>
  <circle cx="163.5" cy="239.5" r="1.5" fill="url(#paint19_radial_1369_76004)"/>
  <circle cx="167.5" cy="239.5" r="1.5" fill="url(#paint20_radial_1369_76004)"/>
  <circle cx="171.5" cy="239.5" r="1.5" fill="url(#paint21_radial_1369_76004)"/>
  <circle cx="175.5" cy="239.5" r="1.5" fill="url(#paint22_radial_1369_76004)"/>
  <circle cx="179.5" cy="239.5" r="1.5" fill="url(#paint23_radial_1369_76004)"/>
  <circle cx="183.5" cy="239.5" r="1.5" fill="url(#paint24_radial_1369_76004)"/>
  <circle cx="187.5" cy="239.5" r="1.5" fill="url(#paint25_radial_1369_76004)"/>
  <circle cx="191.5" cy="239.5" r="1.5" fill="url(#paint26_radial_1369_76004)"/>
  <circle cx="195.5" cy="239.5" r="1.5" fill="url(#paint27_radial_1369_76004)"/>
  <circle cx="199.5" cy="239.5" r="1.5" fill="url(#paint28_radial_1369_76004)"/>
  <circle cx="151.5" cy="215.5" r="1.5" transform="rotate(90 151.5 215.5)" fill="url(#paint29_radial_1369_76004)"/>
  <circle cx="151.5" cy="219.5" r="1.5" transform="rotate(90 151.5 219.5)" fill="url(#paint30_radial_1369_76004)"/>
  <circle cx="151.5" cy="223.5" r="1.5" transform="rotate(90 151.5 223.5)" fill="url(#paint31_radial_1369_76004)"/>
  <circle cx="151.5" cy="227.5" r="1.5" transform="rotate(90 151.5 227.5)" fill="url(#paint32_radial_1369_76004)"/>
  <circle cx="151.5" cy="231.5" r="1.5" transform="rotate(90 151.5 231.5)" fill="url(#paint33_radial_1369_76004)"/>
  <circle cx="151.5" cy="235.5" r="1.5" transform="rotate(90 151.5 235.5)" fill="url(#paint34_radial_1369_76004)"/>
  <circle cx="199.5" cy="215.5" r="1.5" transform="rotate(90 199.5 215.5)" fill="url(#paint35_radial_1369_76004)"/>
  <circle cx="199.5" cy="219.5" r="1.5" transform="rotate(90 199.5 219.5)" fill="url(#paint36_radial_1369_76004)"/>
  <circle cx="199.5" cy="223.5" r="1.5" transform="rotate(90 199.5 223.5)" fill="url(#paint37_radial_1369_76004)"/>
  <circle cx="199.5" cy="227.5" r="1.5" transform="rotate(90 199.5 227.5)" fill="url(#paint38_radial_1369_76004)"/>
  <circle cx="199.5" cy="231.5" r="1.5" transform="rotate(90 199.5 231.5)" fill="url(#paint39_radial_1369_76004)"/>
  <circle cx="199.5" cy="235.5" r="1.5" transform="rotate(90 199.5 235.5)" fill="url(#paint40_radial_1369_76004)"/>
  <path d="M164.676 227.759C164.548 228.391 164.392 229.051 164.207 229.739C164.022 230.414 163.773 231.03 163.46 231.59C163.162 232.135 162.792 232.594 162.351 232.967C161.925 233.326 161.413 233.505 160.816 233.505C160.417 233.505 159.984 233.419 159.514 233.247C159.059 233.075 158.555 232.781 158 232.365L159.472 229.051C159.543 229.194 159.678 229.323 159.877 229.438C160.09 229.538 160.318 229.589 160.56 229.589C160.73 229.589 160.88 229.445 161.007 229.158C161.15 228.871 161.271 228.541 161.37 228.168C161.47 227.781 161.548 227.386 161.605 226.985C161.662 226.583 161.704 226.26 161.733 226.016C162.003 224.625 162.259 223.241 162.501 221.863C162.742 220.472 163.027 219.087 163.354 217.71C163.994 217.653 164.619 217.567 165.231 217.452C165.856 217.323 166.482 217.172 167.108 217C166.894 217.732 166.674 218.564 166.447 219.496C166.219 220.429 165.999 221.383 165.785 222.358C165.572 223.334 165.366 224.295 165.167 225.242C164.982 226.174 164.818 227.014 164.676 227.759Z" fill="black"/>
  <path d="M164.469 233.505C164.896 231.568 165.301 229.675 165.685 227.824C165.841 227.049 166.005 226.232 166.176 225.371C166.346 224.51 166.51 223.664 166.666 222.832C166.823 222 166.972 221.196 167.114 220.422C167.256 219.647 167.377 218.937 167.477 218.291C167.889 218.162 168.294 218.054 168.692 217.968C169.091 217.868 169.496 217.782 169.908 217.71C170.335 217.638 170.733 217.603 171.103 217.603C171.743 217.603 172.276 217.71 172.702 217.925C173.143 218.141 173.499 218.435 173.769 218.808C174.039 219.166 174.231 219.589 174.345 220.077C174.459 220.565 174.515 221.089 174.515 221.648C174.515 222.451 174.366 223.226 174.068 223.972C173.783 224.718 173.392 225.385 172.894 225.973C172.411 226.547 171.849 227.006 171.209 227.351C170.584 227.695 169.93 227.867 169.247 227.867H169.012C168.899 228.355 168.792 228.886 168.692 229.459C168.593 230.033 168.508 230.564 168.437 231.052C168.337 231.626 168.245 232.2 168.159 232.773L164.469 233.505ZM170.42 220.206C170.264 221.153 170.107 222.05 169.951 222.896C169.795 223.743 169.624 224.646 169.439 225.608C169.667 225.55 169.901 225.421 170.143 225.22C170.399 225.005 170.633 224.732 170.847 224.403C171.06 224.058 171.231 223.664 171.359 223.219C171.487 222.774 171.551 222.308 171.551 221.82C171.551 221.289 171.43 220.888 171.188 220.615C170.961 220.343 170.705 220.206 170.42 220.206Z" fill="black"/>
  <path d="M172.786 233.505L175.58 218.205L182.32 217.624C182.221 217.94 182.135 218.262 182.064 218.592C181.993 218.865 181.922 219.152 181.851 219.453C181.794 219.74 181.744 219.998 181.702 220.228C181.559 220.242 181.353 220.257 181.083 220.271C180.827 220.271 180.55 220.278 180.251 220.292C179.953 220.292 179.647 220.292 179.334 220.292C179.035 220.292 178.772 220.292 178.545 220.292L177.798 224.144C178.239 224.116 178.651 224.094 179.035 224.08C179.348 224.065 179.668 224.058 179.995 224.058C180.322 224.058 180.564 224.051 180.72 224.037C180.664 224.438 180.607 224.833 180.55 225.22C180.507 225.608 180.45 226.002 180.379 226.404C180.237 226.418 180.002 226.432 179.675 226.447C179.362 226.447 179.042 226.454 178.715 226.468C178.346 226.483 177.94 226.497 177.5 226.511L176.774 230.471L179.889 229.976L179.675 232.429L172.786 233.505Z" fill="black"/>
  <path d="M191.488 225.285C191.389 226.748 191.104 228.025 190.635 229.115C190.166 230.191 189.597 231.095 188.929 231.827C188.274 232.558 187.563 233.103 186.796 233.462C186.042 233.821 185.324 234 184.641 234C184.115 234 183.61 233.885 183.127 233.656C182.658 233.426 182.245 233.082 181.89 232.623C181.548 232.149 181.278 231.561 181.079 230.858C180.88 230.155 180.781 229.33 180.781 228.384C180.781 226.533 181.044 224.919 181.57 223.542C182.096 222.165 182.757 221.017 183.553 220.099C184.364 219.181 185.224 218.499 186.134 218.054C187.059 217.61 187.919 217.387 188.715 217.387C189.284 217.387 189.775 217.488 190.187 217.689C190.614 217.889 190.962 218.162 191.232 218.506C191.502 218.836 191.694 219.231 191.808 219.69C191.936 220.135 192 220.608 192 221.11L189.078 221.67C188.95 221.096 188.779 220.687 188.566 220.443C188.353 220.199 188.111 220.077 187.841 220.077C187.485 220.077 187.094 220.335 186.668 220.852C186.241 221.354 185.843 222.007 185.473 222.81C185.103 223.614 184.791 224.496 184.535 225.457C184.279 226.418 184.136 227.365 184.108 228.297C184.108 229.187 184.236 229.825 184.492 230.213C184.762 230.586 185.103 230.772 185.516 230.772C185.8 230.772 186.092 230.7 186.39 230.557C186.703 230.414 186.98 230.213 187.222 229.954C187.464 229.682 187.663 229.373 187.819 229.029C187.99 228.67 188.082 228.283 188.097 227.867L185.814 228.211L186.22 226.081C186.888 225.995 187.542 225.909 188.182 225.823C188.722 225.751 189.291 225.665 189.888 225.565C190.5 225.464 191.033 225.371 191.488 225.285Z" fill="black"/>
  <defs>
  <radialGradient id="paint0_radial_1369_76004" cx="0" cy="0" r="1" gradientUnits="userSpaceOnUse" gradientTransform="translate(154 214) rotate(31.4296) scale(37.1593 29.2162)">
  <stop stop-color="#FABE09"/>
  <stop offset="0.708739" stop-color="#FDF21B"/>
  </radialGradient>
  <radialGradient id="paint1_radial_1369_76004" cx="0" cy="0" r="1" gradientUnits="userSpaceOnUse" gradientTransform="translate(154 214) rotate(31.4296) scale(37.1593 29.2162)">
  <stop stop-color="#FABE09"/>
  <stop offset="0.708739" stop-color="#FDF21B"/>
  </radialGradient>
  <radialGradient id="paint2_radial_1369_76004" cx="0" cy="0" r="1" gradientUnits="userSpaceOnUse" gradientTransform="translate(154 214) rotate(31.4296) scale(37.1593 29.2162)">
  <stop stop-color="#FABE09"/>
  <stop offset="0.708739" stop-color="#FDF21B"/>
  </radialGradient>
  <radialGradient id="paint3_radial_1369_76004" cx="0" cy="0" r="1" gradientUnits="userSpaceOnUse" gradientTransform="translate(150.645 210.701) rotate(49.243) scale(2.41067 2.11201)">
  <stop offset="0.239583" stop-color="#EBF3F7"/>
  <stop offset="0.891374" stop-color="#71A8E9"/>
  </radialGradient>
  <radialGradient id="paint4_radial_1369_76004" cx="0" cy="0" r="1" gradientUnits="userSpaceOnUse" gradientTransform="translate(154.645 210.701) rotate(49.243) scale(2.41067 2.11201)">
  <stop offset="0.239583" stop-color="#EBF3F7"/>
  <stop offset="0.891374" stop-color="#71A8E9"/>
  </radialGradient>
  <radialGradient id="paint5_radial_1369_76004" cx="0" cy="0" r="1" gradientUnits="userSpaceOnUse" gradientTransform="translate(158.645 210.701) rotate(49.243) scale(2.41067 2.11201)">
  <stop offset="0.239583" stop-color="#EBF3F7"/>
  <stop offset="0.891374" stop-color="#71A8E9"/>
  </radialGradient>
  <radialGradient id="paint6_radial_1369_76004" cx="0" cy="0" r="1" gradientUnits="userSpaceOnUse" gradientTransform="translate(162.645 210.701) rotate(49.243) scale(2.41067 2.11201)">
  <stop offset="0.239583" stop-color="#EBF3F7"/>
  <stop offset="0.891374" stop-color="#71A8E9"/>
  </radialGradient>
  <radialGradient id="paint7_radial_1369_76004" cx="0" cy="0" r="1" gradientUnits="userSpaceOnUse" gradientTransform="translate(166.645 210.701) rotate(49.243) scale(2.41067 2.11201)">
  <stop offset="0.239583" stop-color="#EBF3F7"/>
  <stop offset="0.891374" stop-color="#71A8E9"/>
  </radialGradient>
  <radialGradient id="paint8_radial_1369_76004" cx="0" cy="0" r="1" gradientUnits="userSpaceOnUse" gradientTransform="translate(170.645 210.701) rotate(49.243) scale(2.41067 2.11201)">
  <stop offset="0.239583" stop-color="#EBF3F7"/>
  <stop offset="0.891374" stop-color="#71A8E9"/>
  </radialGradient>
  <radialGradient id="paint9_radial_1369_76004" cx="0" cy="0" r="1" gradientUnits="userSpaceOnUse" gradientTransform="translate(174.645 210.701) rotate(49.243) scale(2.41067 2.11201)">
  <stop offset="0.239583" stop-color="#EBF3F7"/>
  <stop offset="0.891374" stop-color="#71A8E9"/>
  </radialGradient>
  <radialGradient id="paint10_radial_1369_76004" cx="0" cy="0" r="1" gradientUnits="userSpaceOnUse" gradientTransform="translate(178.645 210.701) rotate(49.243) scale(2.41067 2.11201)">
  <stop offset="0.239583" stop-color="#EBF3F7"/>
  <stop offset="0.891374" stop-color="#71A8E9"/>
  </radialGradient>
  <radialGradient id="paint11_radial_1369_76004" cx="0" cy="0" r="1" gradientUnits="userSpaceOnUse" gradientTransform="translate(182.645 210.701) rotate(49.243) scale(2.41067 2.11201)">
  <stop offset="0.239583" stop-color="#EBF3F7"/>
  <stop offset="0.891374" stop-color="#71A8E9"/>
  </radialGradient>
  <radialGradient id="paint12_radial_1369_76004" cx="0" cy="0" r="1" gradientUnits="userSpaceOnUse" gradientTransform="translate(186.645 210.701) rotate(49.243) scale(2.41067 2.11201)">
  <stop offset="0.239583" stop-color="#EBF3F7"/>
  <stop offset="0.891374" stop-color="#71A8E9"/>
  </radialGradient>
  <radialGradient id="paint13_radial_1369_76004" cx="0" cy="0" r="1" gradientUnits="userSpaceOnUse" gradientTransform="translate(190.645 210.701) rotate(49.243) scale(2.41067 2.11201)">
  <stop offset="0.239583" stop-color="#EBF3F7"/>
  <stop offset="0.891374" stop-color="#71A8E9"/>
  </radialGradient>
  <radialGradient id="paint14_radial_1369_76004" cx="0" cy="0" r="1" gradientUnits="userSpaceOnUse" gradientTransform="translate(194.645 210.701) rotate(49.243) scale(2.41067 2.11201)">
  <stop offset="0.239583" stop-color="#EBF3F7"/>
  <stop offset="0.891374" stop-color="#71A8E9"/>
  </radialGradient>
  <radialGradient id="paint15_radial_1369_76004" cx="0" cy="0" r="1" gradientUnits="userSpaceOnUse" gradientTransform="translate(198.645 210.701) rotate(49.243) scale(2.41067 2.11201)">
  <stop offset="0.239583" stop-color="#EBF3F7"/>
  <stop offset="0.891374" stop-color="#71A8E9"/>
  </radialGradient>
  <radialGradient id="paint16_radial_1369_76004" cx="0" cy="0" r="1" gradientUnits="userSpaceOnUse" gradientTransform="translate(150.645 238.701) rotate(49.243) scale(2.41067 2.11201)">
  <stop offset="0.239583" stop-color="#EBF3F7"/>
  <stop offset="0.891374" stop-color="#71A8E9"/>
  </radialGradient>
  <radialGradient id="paint17_radial_1369_76004" cx="0" cy="0" r="1" gradientUnits="userSpaceOnUse" gradientTransform="translate(154.645 238.701) rotate(49.243) scale(2.41067 2.11201)">
  <stop offset="0.239583" stop-color="#EBF3F7"/>
  <stop offset="0.891374" stop-color="#71A8E9"/>
  </radialGradient>
  <radialGradient id="paint18_radial_1369_76004" cx="0" cy="0" r="1" gradientUnits="userSpaceOnUse" gradientTransform="translate(158.645 238.701) rotate(49.243) scale(2.41067 2.11201)">
  <stop offset="0.239583" stop-color="#EBF3F7"/>
  <stop offset="0.891374" stop-color="#71A8E9"/>
  </radialGradient>
  <radialGradient id="paint19_radial_1369_76004" cx="0" cy="0" r="1" gradientUnits="userSpaceOnUse" gradientTransform="translate(162.645 238.701) rotate(49.243) scale(2.41067 2.11201)">
  <stop offset="0.239583" stop-color="#EBF3F7"/>
  <stop offset="0.891374" stop-color="#71A8E9"/>
  </radialGradient>
  <radialGradient id="paint20_radial_1369_76004" cx="0" cy="0" r="1" gradientUnits="userSpaceOnUse" gradientTransform="translate(166.645 238.701) rotate(49.243) scale(2.41067 2.11201)">
  <stop offset="0.239583" stop-color="#EBF3F7"/>
  <stop offset="0.891374" stop-color="#71A8E9"/>
  </radialGradient>
  <radialGradient id="paint21_radial_1369_76004" cx="0" cy="0" r="1" gradientUnits="userSpaceOnUse" gradientTransform="translate(170.645 238.701) rotate(49.243) scale(2.41067 2.11201)">
  <stop offset="0.239583" stop-color="#EBF3F7"/>
  <stop offset="0.891374" stop-color="#71A8E9"/>
  </radialGradient>
  <radialGradient id="paint22_radial_1369_76004" cx="0" cy="0" r="1" gradientUnits="userSpaceOnUse" gradientTransform="translate(174.645 238.701) rotate(49.243) scale(2.41067 2.11201)">
  <stop offset="0.239583" stop-color="#EBF3F7"/>
  <stop offset="0.891374" stop-color="#71A8E9"/>
  </radialGradient>
  <radialGradient id="paint23_radial_1369_76004" cx="0" cy="0" r="1" gradientUnits="userSpaceOnUse" gradientTransform="translate(178.645 238.701) rotate(49.243) scale(2.41067 2.11201)">
  <stop offset="0.239583" stop-color="#EBF3F7"/>
  <stop offset="0.891374" stop-color="#71A8E9"/>
  </radialGradient>
  <radialGradient id="paint24_radial_1369_76004" cx="0" cy="0" r="1" gradientUnits="userSpaceOnUse" gradientTransform="translate(182.645 238.701) rotate(49.243) scale(2.41067 2.11201)">
  <stop offset="0.239583" stop-color="#EBF3F7"/>
  <stop offset="0.891374" stop-color="#71A8E9"/>
  </radialGradient>
  <radialGradient id="paint25_radial_1369_76004" cx="0" cy="0" r="1" gradientUnits="userSpaceOnUse" gradientTransform="translate(186.645 238.701) rotate(49.243) scale(2.41067 2.11201)">
  <stop offset="0.239583" stop-color="#EBF3F7"/>
  <stop offset="0.891374" stop-color="#71A8E9"/>
  </radialGradient>
  <radialGradient id="paint26_radial_1369_76004" cx="0" cy="0" r="1" gradientUnits="userSpaceOnUse" gradientTransform="translate(190.645 238.701) rotate(49.243) scale(2.41067 2.11201)">
  <stop offset="0.239583" stop-color="#EBF3F7"/>
  <stop offset="0.891374" stop-color="#71A8E9"/>
  </radialGradient>
  <radialGradient id="paint27_radial_1369_76004" cx="0" cy="0" r="1" gradientUnits="userSpaceOnUse" gradientTransform="translate(194.645 238.701) rotate(49.243) scale(2.41067 2.11201)">
  <stop offset="0.239583" stop-color="#EBF3F7"/>
  <stop offset="0.891374" stop-color="#71A8E9"/>
  </radialGradient>
  <radialGradient id="paint28_radial_1369_76004" cx="0" cy="0" r="1" gradientUnits="userSpaceOnUse" gradientTransform="translate(198.645 238.701) rotate(49.243) scale(2.41067 2.11201)">
  <stop offset="0.239583" stop-color="#EBF3F7"/>
  <stop offset="0.891374" stop-color="#71A8E9"/>
  </radialGradient>
  <radialGradient id="paint29_radial_1369_76004" cx="0" cy="0" r="1" gradientUnits="userSpaceOnUse" gradientTransform="translate(150.645 214.701) rotate(49.243) scale(2.41067 2.11201)">
  <stop offset="0.239583" stop-color="#EBF3F7"/>
  <stop offset="0.891374" stop-color="#71A8E9"/>
  </radialGradient>
  <radialGradient id="paint30_radial_1369_76004" cx="0" cy="0" r="1" gradientUnits="userSpaceOnUse" gradientTransform="translate(150.645 218.701) rotate(49.243) scale(2.41067 2.11201)">
  <stop offset="0.239583" stop-color="#EBF3F7"/>
  <stop offset="0.891374" stop-color="#71A8E9"/>
  </radialGradient>
  <radialGradient id="paint31_radial_1369_76004" cx="0" cy="0" r="1" gradientUnits="userSpaceOnUse" gradientTransform="translate(150.645 222.701) rotate(49.243) scale(2.41067 2.11201)">
  <stop offset="0.239583" stop-color="#EBF3F7"/>
  <stop offset="0.891374" stop-color="#71A8E9"/>
  </radialGradient>
  <radialGradient id="paint32_radial_1369_76004" cx="0" cy="0" r="1" gradientUnits="userSpaceOnUse" gradientTransform="translate(150.645 226.701) rotate(49.243) scale(2.41067 2.11201)">
  <stop offset="0.239583" stop-color="#EBF3F7"/>
  <stop offset="0.891374" stop-color="#71A8E9"/>
  </radialGradient>
  <radialGradient id="paint33_radial_1369_76004" cx="0" cy="0" r="1" gradientUnits="userSpaceOnUse" gradientTransform="translate(150.645 230.701) rotate(49.243) scale(2.41067 2.11201)">
  <stop offset="0.239583" stop-color="#EBF3F7"/>
  <stop offset="0.891374" stop-color="#71A8E9"/>
  </radialGradient>
  <radialGradient id="paint34_radial_1369_76004" cx="0" cy="0" r="1" gradientUnits="userSpaceOnUse" gradientTransform="translate(150.645 234.701) rotate(49.243) scale(2.41067 2.11201)">
  <stop offset="0.239583" stop-color="#EBF3F7"/>
  <stop offset="0.891374" stop-color="#71A8E9"/>
  </radialGradient>
  <radialGradient id="paint35_radial_1369_76004" cx="0" cy="0" r="1" gradientUnits="userSpaceOnUse" gradientTransform="translate(198.645 214.701) rotate(49.243) scale(2.41067 2.11201)">
  <stop offset="0.239583" stop-color="#EBF3F7"/>
  <stop offset="0.891374" stop-color="#71A8E9"/>
  </radialGradient>
  <radialGradient id="paint36_radial_1369_76004" cx="0" cy="0" r="1" gradientUnits="userSpaceOnUse" gradientTransform="translate(198.645 218.701) rotate(49.243) scale(2.41067 2.11201)">
  <stop offset="0.239583" stop-color="#EBF3F7"/>
  <stop offset="0.891374" stop-color="#71A8E9"/>
  </radialGradient>
  <radialGradient id="paint37_radial_1369_76004" cx="0" cy="0" r="1" gradientUnits="userSpaceOnUse" gradientTransform="translate(198.645 222.701) rotate(49.243) scale(2.41067 2.11201)">
  <stop offset="0.239583" stop-color="#EBF3F7"/>
  <stop offset="0.891374" stop-color="#71A8E9"/>
  </radialGradient>
  <radialGradient id="paint38_radial_1369_76004" cx="0" cy="0" r="1" gradientUnits="userSpaceOnUse" gradientTransform="translate(198.645 226.701) rotate(49.243) scale(2.41067 2.11201)">
  <stop offset="0.239583" stop-color="#EBF3F7"/>
  <stop offset="0.891374" stop-color="#71A8E9"/>
  </radialGradient>
  <radialGradient id="paint39_radial_1369_76004" cx="0" cy="0" r="1" gradientUnits="userSpaceOnUse" gradientTransform="translate(198.645 230.701) rotate(49.243) scale(2.41067 2.11201)">
  <stop offset="0.239583" stop-color="#EBF3F7"/>
  <stop offset="0.891374" stop-color="#71A8E9"/>
  </radialGradient>
  <radialGradient id="paint40_radial_1369_76004" cx="0" cy="0" r="1" gradientUnits="userSpaceOnUse" gradientTransform="translate(198.645 234.701) rotate(49.243) scale(2.41067 2.11201)">
  <stop offset="0.239583" stop-color="#EBF3F7"/>
  <stop offset="0.891374" stop-color="#71A8E9"/>
  </radialGradient>
  </defs>

    </svg>
