
    <svg width="350" height="350" viewBox="0 0 350 350" fill="none" xmlns="http://www.w3.org/2000/svg">
    
  <!-- CottonCandy BG -->
  <g clip-path="url(#clip0_28_276)">
  <rect width="350" height="350" fill="white"/>
  <rect x="0.0788574" y="0.0444336" width="350" height="350" fill="#2183F7" fill-opacity="0.25"/>
  <path d="M125.979 290.538L299.832 190.751L430.987 233.879L212.56 294.049L125.979 290.538Z" fill="url(#paint0_linear_28_276)" fill-opacity="0.1"/>
  <g opacity="0.45" filter="url(#filter0_f_28_276)">
  <ellipse rx="194.596" ry="66.7643" transform="matrix(0.999998 0.00221055 0.00221055 -0.999998 176.078 304.638)" fill="url(#paint1_radial_28_276)"/>
  </g>
  <g opacity="0.7" filter="url(#filter1_f_28_276)">
  <ellipse cx="174.396" cy="137.609" rx="196.647" ry="242.448" transform="rotate(0.126655 174.396 137.609)" fill="url(#paint2_radial_28_276)"/>
  </g>
  </g>
  <defs>
  <filter id="filter0_f_28_276" x="-23.0756" y="233.315" width="398.306" height="142.646" filterUnits="userSpaceOnUse" color-interpolation-filters="sRGB">
  <feFlood flood-opacity="0" result="BackgroundImageFix"/>
  <feBlend mode="normal" in="SourceGraphic" in2="BackgroundImageFix" result="shape"/>
  <feGaussianBlur stdDeviation="2.27865" result="effect1_foregroundBlur_28_276"/>
  </filter>
  <filter id="filter1_f_28_276" x="-26.8085" y="-109.396" width="402.409" height="494.01" filterUnits="userSpaceOnUse" color-interpolation-filters="sRGB">
  <feFlood flood-opacity="0" result="BackgroundImageFix"/>
  <feBlend mode="normal" in="SourceGraphic" in2="BackgroundImageFix" result="shape"/>
  <feGaussianBlur stdDeviation="2.27865" result="effect1_foregroundBlur_28_276"/>
  </filter>
  <linearGradient id="paint0_linear_28_276" x1="194.836" y1="271.638" x2="316.537" y2="167.936" gradientUnits="userSpaceOnUse">
  <stop/>
  <stop offset="1" stop-color="#333333" stop-opacity="0"/>
  </linearGradient>
  <radialGradient id="paint1_radial_28_276" cx="0" cy="0" r="1" gradientUnits="userSpaceOnUse" gradientTransform="translate(194.596 76.624) rotate(99.1226) scale(43.9775 125.337)">
  <stop stop-color="#2183F7"/>
  <stop offset="1" stop-color="#2183F7" stop-opacity="0"/>
  </radialGradient>
  <radialGradient id="paint2_radial_28_276" cx="0" cy="0" r="1" gradientUnits="userSpaceOnUse" gradientTransform="translate(174.396 173.413) rotate(92.5586) scale(157.837 128.153)">
  <stop stop-color="#2183F7"/>
  <stop offset="1" stop-color="#2183F7" stop-opacity="0"/>
  </radialGradient>
  <clipPath id="clip0_28_276">
  <rect width="350" height="350" fill="white"/>
  </clipPath>
  </defs>

    
  <!-- Peace Overlay -->
  <g clip-path="url(#clip0_589_71590)">
  <g style="mix-blend-mode:overlay">
  <path fill-rule="evenodd" clip-rule="evenodd" d="M10.4379 299.782C54.2425 325.073 110.255 310.064 135.546 266.26C160.836 222.455 145.828 166.443 102.023 141.152C58.2186 115.861 2.20598 130.87 -23.0846 174.674C-48.3752 218.479 -33.3666 274.492 10.4379 299.782ZM-9.86541 182.307C9.86998 148.124 52.0544 134.983 87.3131 150.756L50.9372 213.761L-19.1329 232.536C-21.8199 215.821 -18.9898 198.11 -9.86541 182.307ZM64.1566 221.392L100.563 158.335C132.246 180.885 142.166 224.264 122.326 258.628C113.124 274.566 99.0408 285.93 83.0547 291.921L64.1566 221.392ZM68.2994 295.83C53.8483 298.153 38.6526 296.353 24.5887 289.926L53.3631 240.087L68.2994 295.83ZM-15.2237 247.291L40.1438 232.455L11.4 282.241C-1.06459 273.218 -10.1055 260.949 -15.2237 247.291Z" fill="white" fill-opacity="0.25"/>
  </g>
  <g style="mix-blend-mode:overlay">
  <path fill-rule="evenodd" clip-rule="evenodd" d="M345.565 216.307C379.83 196.524 391.57 152.71 371.787 118.446C352.005 84.1811 308.191 72.4411 273.926 92.2239C239.661 112.007 227.921 155.821 247.704 190.085C267.487 224.35 311.301 236.09 345.565 216.307ZM258.044 184.115C242.607 157.377 250.204 123.661 274.679 105.945L303.132 155.228L288.446 210.038C276.072 205.321 265.182 196.477 258.044 184.115ZM313.472 149.258L284.995 99.9336C312.662 87.2904 345.928 97.536 361.447 124.416C368.645 136.883 370.835 150.868 368.641 164.04L313.472 149.258ZM365.518 175.565C361.44 186.263 354.277 195.853 344.423 202.866L321.915 163.881L365.518 175.565ZM299.97 213.161L311.575 169.852L334.059 208.795C323.072 213.71 311.224 215.036 299.97 213.161Z" fill="white" fill-opacity="0.25"/>
  </g>
  <g style="mix-blend-mode:overlay">
  <path fill-rule="evenodd" clip-rule="evenodd" d="M161.393 63.318C185.12 49.619 193.25 19.2788 179.551 -4.4486C165.852 -28.176 135.511 -36.3056 111.784 -22.6066C88.0565 -8.90756 79.9269 21.4326 93.626 45.16C107.325 68.8874 137.665 77.017 161.393 63.318ZM100.786 41.0259C90.0963 22.5103 95.3571 -0.837106 112.305 -13.1052L132.009 21.0224L121.839 58.977C113.27 55.7107 105.729 49.5864 100.786 41.0259ZM139.169 16.8882L119.449 -17.2678C138.608 -26.0229 161.644 -18.928 172.39 -0.314547C177.375 8.31889 178.891 18.0031 177.372 27.1247L139.169 16.8882ZM175.209 35.1051C172.385 42.5132 167.425 49.1538 160.601 54.0105L145.015 27.0146L175.209 35.1051ZM129.819 61.1395L137.855 31.1488L153.425 58.116C145.816 61.5194 137.612 62.4376 129.819 61.1395Z" fill="white" fill-opacity="0.25"/>
  </g>
  </g>
  <defs>
  <clipPath id="clip0_589_71590">
  <rect width="350" height="350" fill="white"/>
  </clipPath>
  </defs>

    
  <!-- LavaKitty -->
  <path d="M98.4521 197.334C97.2413 196.223 96.3332 194.929 95.7186 193.543L95 186.483C95.6323 183.534 97.4223 180.812 100.292 179.087L104.357 176.643C107.09 174.999 110.176 174.643 112.982 175.334L119.003 179.057C119.951 180.178 120.701 181.508 121.177 183.018L127 200.5L123 223L98.4521 197.334Z" fill="url(#paint0_linear_902_111870)"/>
  <path d="M122.552 156.001C128.112 165.631 123.807 179.31 106.396 189.363C88.9849 199.415 74.9852 196.303 69.4256 186.674C64.4138 177.993 62.7287 158.917 82.2958 147.62C101.863 136.323 117.541 147.32 122.552 156.001Z" fill="#0C011C"/>
  <path fill-rule="evenodd" clip-rule="evenodd" d="M88.8612 169.966C90.5617 173.254 89.3911 177.331 86.1521 179.201C82.8179 181.126 78.5545 179.984 76.6295 176.649C74.7615 173.414 75.7818 169.303 78.8905 167.304C78.7857 167.358 78.6816 167.415 78.5783 167.475C74.9107 169.592 73.6541 174.282 75.7716 177.95C77.8891 181.617 82.5789 182.874 86.2465 180.756C89.9142 178.639 91.1708 173.949 89.0533 170.281C88.9914 170.174 88.9273 170.069 88.8612 169.966Z" fill="#6DF244"/>
  <circle cx="81.2727" cy="170.749" r="1.39422" transform="rotate(-30 81.2727 170.749)" fill="white"/>
  <circle cx="85.337" cy="170.816" r="0.697108" transform="rotate(-30 85.337 170.816)" fill="white"/>
  <path fill-rule="evenodd" clip-rule="evenodd" d="M109.017 167.611C105.349 169.729 100.659 168.472 98.5417 164.804C98.4794 164.697 98.4201 164.588 98.3637 164.479C100.36 167.597 104.477 168.622 107.717 166.752C111.051 164.827 112.194 160.563 110.269 157.229C108.4 153.993 104.329 152.822 101.042 154.516C101.142 154.452 101.244 154.389 101.348 154.329C105.016 152.212 109.706 153.469 111.823 157.136C113.941 160.804 112.684 165.494 109.017 167.611Z" fill="#6DF244"/>
  <circle r="1.39422" transform="matrix(-0.866025 0.5 0.5 0.866025 102.836 158.301)" fill="white"/>
  <circle r="0.697108" transform="matrix(-0.866025 0.5 0.5 0.866025 100.862 161.855)" fill="white"/>
  <path d="M101.975 172.942C102.278 173.466 101.646 176.295 99.5497 177.505C97.4539 178.715 94.6881 177.848 94.3856 177.324C94.0831 176.8 95.5369 175.394 97.6327 174.184C99.7285 172.974 101.673 172.418 101.975 172.942Z" fill="#B97C99"/>
  <path d="M103.875 126.939C96.3872 129.744 92.3582 139.49 89.4828 144.734C104.079 139.343 112.84 146.849 115.67 151.751C115.874 141.514 111.363 124.134 103.875 126.939Z" fill="#0C011C"/>
  <path d="M103.697 131.614C98.244 133.677 96.209 140.16 94.09 143.947C101.29 141.081 110.485 144.378 112.51 147.885C112.72 140.524 109.149 129.552 103.697 131.614Z" fill="url(#paint1_linear_902_111870)"/>
  <path d="M53.8848 155.801C60.0581 150.719 70.5125 152.102 76.4916 152.234C64.5244 162.179 66.6449 173.52 69.4749 178.422C60.5076 173.48 47.7115 160.883 53.8848 155.801Z" fill="#0C011C"/>
  <path d="M58.0253 157.982C62.5374 154.291 69.1694 155.771 73.509 155.829C67.4272 160.632 65.6846 170.244 67.7094 173.75C61.2297 170.251 53.5132 161.673 58.0253 157.982Z" fill="url(#paint2_linear_902_111870)"/>
  <path d="M109.478 174.779C111.255 177.857 108.127 181.406 104.911 181.52" stroke="white" stroke-opacity="0.45" stroke-width="1.09546" stroke-linecap="round"/>
  <path d="M86.084 212.841L84.8646 214.426L86.084 212.841ZM74.3944 222.289C73.4065 222.783 72.2051 222.382 71.7111 221.394C71.2172 220.406 71.6176 219.205 72.6056 218.711L74.3944 222.289ZM121.5 220C123.358 220.741 123.357 220.743 123.356 220.745C123.356 220.746 123.355 220.748 123.354 220.749C123.353 220.752 123.352 220.755 123.351 220.758C123.348 220.764 123.346 220.77 123.343 220.776C123.338 220.789 123.332 220.803 123.325 220.818C123.312 220.849 123.296 220.884 123.277 220.923C123.239 221.001 123.189 221.097 123.126 221.207C122.999 221.427 122.817 221.703 122.563 222.014C122.052 222.64 121.264 223.391 120.079 224.109C117.708 225.547 113.844 226.798 107.584 226.798V222.798C113.325 222.798 116.419 221.651 118.006 220.689C118.799 220.208 119.24 219.759 119.464 219.485C119.577 219.347 119.638 219.248 119.663 219.206C119.675 219.184 119.678 219.177 119.674 219.185C119.672 219.189 119.669 219.197 119.663 219.209C119.66 219.215 119.657 219.222 119.654 219.231C119.652 219.235 119.65 219.239 119.648 219.244C119.648 219.246 119.647 219.249 119.646 219.251C119.645 219.252 119.644 219.254 119.644 219.255C119.643 219.257 119.642 219.259 121.5 220ZM107.584 226.798C101.061 226.798 96.5169 224.57 92.987 221.845C91.2533 220.507 89.7688 219.053 88.4571 217.752C87.1098 216.416 85.9921 215.294 84.8646 214.426L87.3034 211.256C88.6759 212.312 89.9957 213.645 91.2734 214.912C92.5867 216.214 93.9147 217.508 95.4311 218.679C98.4013 220.971 102.108 222.798 107.584 222.798V226.798ZM84.8646 214.426C79.0437 209.949 71.9102 210.447 68.0555 212.589L66.1126 209.093C71.2561 206.235 80.1243 205.733 87.3034 211.256L84.8646 214.426ZM68.0555 212.589C65.9625 213.752 64.3645 215.051 63.3426 216.662C62.3458 218.234 61.7883 220.274 62.075 223.142L58.0948 223.54C57.7319 219.908 58.4244 216.948 59.9648 214.52C61.4801 212.131 63.7065 210.43 66.1126 209.093L68.0555 212.589ZM62.075 223.142C62.3411 225.805 63.5348 227.527 65.0497 228.695C66.622 229.907 68.6121 230.568 70.4137 230.868L69.7561 234.814C67.5581 234.448 64.873 233.609 62.6076 231.863C60.2848 230.072 58.4783 227.377 58.0948 223.54L62.075 223.142ZM70.4137 230.868C73.9655 231.46 77.7847 230.34 79.2565 227.029L82.9117 228.653C80.3835 234.342 74.2035 235.555 69.7561 234.814L70.4137 230.868ZM79.2565 227.029C79.8871 225.61 79.5028 224.003 78.4739 222.93C77.5001 221.915 76.0368 221.468 74.3944 222.289L72.6056 218.711C75.9632 217.032 79.2919 218.005 81.3602 220.161C83.3733 222.259 84.2811 225.572 82.9117 228.653L79.2565 227.029Z" fill="url(#paint3_linear_902_111870)"/>
  <defs>
  <linearGradient id="paint0_linear_902_111870" x1="127" y1="206.5" x2="104.5" y2="181" gradientUnits="userSpaceOnUse">
  <stop stop-color="#0C011C"/>
  <stop offset="1" stop-color="#423752"/>
  </linearGradient>
  <linearGradient id="paint1_linear_902_111870" x1="98.8482" y1="134.269" x2="112.259" y2="148.03" gradientUnits="userSpaceOnUse">
  <stop stop-color="#9C789B"/>
  <stop offset="1" stop-color="#5B5252" stop-opacity="0"/>
  </linearGradient>
  <linearGradient id="paint2_linear_902_111870" x1="62.7485" y1="155.111" x2="67.9605" y2="173.605" gradientUnits="userSpaceOnUse">
  <stop stop-color="#9C789B"/>
  <stop offset="1" stop-color="#5B5252" stop-opacity="0"/>
  </linearGradient>
  <linearGradient id="paint3_linear_902_111870" x1="63.083" y1="223.298" x2="122.083" y2="215.298" gradientUnits="userSpaceOnUse">
  <stop stop-color="#2F1F47"/>
  <stop offset="0.855778"/>
  </linearGradient>
  </defs>
    
    
  <!-- Glowing Glass -->
    <g filter="url(#filter0_f_953_137978)">
    <path d="M148.717 95L125.019 209.98C124.948 210.324 125.078 210.673 125.367 210.873C128.479 213.027 147.033 225 175 225C202.967 225 221.521 213.027 224.633 210.873C224.922 210.673 225.052 210.324 224.981 209.98L201.283 95C201.249 95.0666 201.205 95.1285 201.15 95.1836C199.818 96.5241 193.18 102.106 175 102.106C156.82 102.106 150.182 96.5241 148.85 95.1836C148.795 95.1285 148.751 95.0666 148.717 95Z" fill="#2D34E6" fill-opacity="0.6"/>
    </g>
    <defs>
    <filter id="filter0_f_953_137978" x="-4" y="-4" width="358" height="358" filterUnits="userSpaceOnUse" color-interpolation-filters="sRGB">
    <feFlood flood-opacity="0" result="BackgroundImageFix"/>
    <feBlend mode="normal" in="SourceGraphic" in2="BackgroundImageFix" result="shape"/>
    <feGaussianBlur stdDeviation="2" result="effect1_foregroundBlur_953_137978"/>
    </filter>
    </defs>
  
    
    
    <!-- Lava 1 -->
    <!-- Color -->
    <!-- filter -->
    <path d="M201.33 94.2312L205.4 114.032C203.808 113.761 202.153 113.448 200.459 113.128C186.293 110.453 169.479 107.277 165.223 123.731C163.365 130.915 166.057 135.213 168.676 139.394C171.205 143.431 173.665 147.359 171.9 153.669C169.751 161.35 158.067 166.325 148.671 162.995C138.746 159.477 139.443 144.904 145.148 137.85C150.853 130.795 151.677 120.031 150.853 112.871C150.454 109.41 148.742 106.935 146.502 105.251L148.841 93.8809C148.875 93.9478 148.92 94.0101 148.975 94.0656C150.853 95.9589 156.979 101.03 175.237 101.03C192.824 101.03 199.656 95.8196 201.33 94.2312Z" fill="url(#paint0_radial_931_113783)"/>
    <mask id="mask0_931_113783" style="mask-type:alpha" maskUnits="userSpaceOnUse" x="141" y="93" width="65" height="72">
    <path d="M201.33 94.2302L205.4 114.031C203.808 113.76 202.153 113.447 200.459 113.127C186.293 110.452 169.479 107.276 165.223 123.73C163.365 130.914 166.057 135.212 168.676 139.393C171.205 143.43 173.665 147.358 171.9 153.668C169.751 161.349 158.067 166.324 148.671 162.994C138.746 159.476 139.443 144.903 145.148 137.849C150.853 130.794 151.677 120.03 150.853 112.87C150.454 109.409 148.742 106.934 146.502 105.25L148.841 93.8799C148.875 93.9469 148.92 94.0092 148.975 94.0646C150.313 95.4133 156.979 101.029 175.237 101.029C192.824 101.029 199.656 95.8187 201.33 94.2302Z" fill="url(#paint1_radial_931_113783)"/>
    </mask>
    <g mask="url(#mask0_931_113783)">
    <g filter="url(#filter0_f_931_113783)">
    <mask id="mask1_931_113783" style="mask-type:alpha" maskUnits="userSpaceOnUse" x="125" y="94" width="101" height="132">
    <path d="M149.015 95.0639C149.102 94.6401 149.475 94.3359 149.907 94.3359H200.399C200.831 94.3359 201.205 94.6401 201.292 95.0639L225.146 211.159C225.227 211.555 225.041 211.955 224.68 212.137C220.777 214.109 198.528 224.817 175.153 225.128C151.731 225.438 129.441 214.178 125.603 212.141C125.253 211.954 125.077 211.562 125.157 211.173L149.015 95.0639Z" fill="#577096" fill-opacity="0.75"/>
    </mask>
    <g mask="url(#mask1_931_113783)">
    <g filter="url(#filter1_f_931_113783)">
    <path d="M207.362 76.1064C211.019 110.268 146.094 132.571 113.174 139.453L113.174 76.1064L207.362 76.1064Z" fill="url(#paint2_linear_931_113783)" fill-opacity="0.5"/>
    </g>
    <g filter="url(#filter2_f_931_113783)">
    <path d="M155.56 125.301C156.622 105.018 134.624 86.1828 129.082 66.9985C133.541 65.1973 144.203 70.7896 152.828 76.1247C163.609 82.7936 163.032 109.124 164.778 125.784C166.175 139.112 148.606 223.401 144.168 241.481L131.869 240.837C140.395 214.68 154.74 140.955 155.56 125.301Z" fill="url(#paint3_linear_931_113783)" fill-opacity="0.6"/>
    </g>
    </g>
    </g>
    </g>
    <defs>
    <filter id="filter0_f_931_113783" x="122.744" y="92.0573" width="104.986" height="135.355" filterUnits="userSpaceOnUse" color-interpolation-filters="sRGB">
    <feFlood flood-opacity="0" result="BackgroundImageFix"/>
    <feBlend mode="normal" in="SourceGraphic" in2="BackgroundImageFix" result="shape"/>
    <feGaussianBlur stdDeviation="1.13932" result="effect1_foregroundBlur_931_113783"/>
    </filter>
    <filter id="filter1_f_931_113783" x="112.262" y="75.195" width="96.1589" height="65.1696" filterUnits="userSpaceOnUse" color-interpolation-filters="sRGB">
    <feFlood flood-opacity="0" result="BackgroundImageFix"/>
    <feBlend mode="normal" in="SourceGraphic" in2="BackgroundImageFix" result="shape"/>
    <feGaussianBlur stdDeviation="0.455729" result="effect1_foregroundBlur_931_113783"/>
    </filter>
    <filter id="filter2_f_931_113783" x="128.17" y="65.7428" width="37.5978" height="176.65" filterUnits="userSpaceOnUse" color-interpolation-filters="sRGB">
    <feFlood flood-opacity="0" result="BackgroundImageFix"/>
    <feBlend mode="normal" in="SourceGraphic" in2="BackgroundImageFix" result="shape"/>
    <feGaussianBlur stdDeviation="0.455729" result="effect1_foregroundBlur_931_113783"/>
    </filter>
    <radialGradient id="paint0_radial_931_113783" cx="0" cy="0" r="1" gradientUnits="userSpaceOnUse" gradientTransform="translate(156.087 109.102) rotate(53.0717) scale(37.8406 40.3077)">
    <stop offset="0.203125" style="stop-color: #21F6EA;"/>
    <stop offset="0.890625" style="stop-color: #2183F6;"/>
    </radialGradient>
    <radialGradient id="paint1_radial_931_113783" cx="0" cy="0" r="1" gradientUnits="userSpaceOnUse" gradientTransform="translate(156.087 109.101) rotate(53.0717) scale(37.8406 40.3077)">
    <stop offset="0.203125" stop-color="#71FF30"/>
    <stop offset="0.890625" stop-color="#25BC46"/>
    </radialGradient>
    <linearGradient id="paint2_linear_931_113783" x1="145.368" y1="123.01" x2="155.982" y2="72.2914" gradientUnits="userSpaceOnUse">
    <stop stop-color="white" stop-opacity="0"/>
    <stop offset="0.471361" stop-color="white"/>
    <stop offset="1" stop-color="white"/>
    </linearGradient>
    <linearGradient id="paint3_linear_931_113783" x1="160.882" y1="220.938" x2="202.107" y2="178" gradientUnits="userSpaceOnUse">
    <stop stop-color="#F2F2F2"/>
    <stop offset="0.0001" stop-color="#F2F2F2"/>
    <stop offset="0.0520833" stop-color="#F2F2F2" stop-opacity="0.948011"/>
    <stop offset="1" stop-color="#F2F2F2" stop-opacity="0"/>
    </linearGradient>
    </defs>
  
    
  <!-- Lava 2 -->
    <!-- Color -->
<path d="M178.202 131.059C178.202 128.163 180.222 122.394 188.299 122.479C196.377 122.565 198.468 128.235 198.504 131.059C198.576 133.132 197.365 137.622 191.952 138.995C185.184 140.711 178.202 136.85 178.202 131.059Z" fill="url(#paint0_radial_931_113845)"/>
<defs>
<radialGradient id="paint0_radial_931_113845" cx="0" cy="0" r="1" gradientUnits="userSpaceOnUse" gradientTransform="translate(182.959 126.151) rotate(45.5119) scale(10.2292 11.3416)">
<stop offset="0.203125" style="stop-color: #FFB800;"/>
<stop offset="0.890625" style="stop-color: #FF7800;"/>
</radialGradient>
</defs>
  
    
  <!-- Lava 3 -->
    <!-- Color -->
    <path d="M214.381 157.604L219.2 181.084C217.285 183.349 214.448 185.339 210.334 186.382C197.471 189.642 184.2 182.306 184.2 171.303C184.2 165.801 188.039 154.839 203.392 155.002C208.021 155.051 211.616 156.065 214.381 157.604Z" fill="url(#paint0_radial_931_113862)"/>
<defs>
<radialGradient id="paint0_radial_931_113862" cx="0" cy="0" r="1" gradientUnits="userSpaceOnUse" gradientTransform="translate(192.4 161.977) rotate(48.2936) scale(18.5718 20.4588)">
<stop offset="0.203125" style="stop-color: #71FF30;"/>
<stop offset="0.890625" style="stop-color: #25BC46;"/>
</radialGradient>
</defs>
  
    
  <!-- Lava 4 -->
    <!-- Color -->
    <path d="M225 210.659C220.5 214 200.704 225 175.402 225C147.201 225 128.492 213.024 125.354 210.869C125.163 210.738 125.042 210.543 125 210.328C128.968 198.996 144.393 175.959 164.496 181.99C174.451 184.976 181.421 192.474 187.975 199.525C198.127 210.446 208 213.5 225 210.659C224.675 211.045 225.345 210.27 225 210.659Z" fill="url(#paint0_radial_931_113863)"/>
<mask id="mask0_931_113863" style="mask-type:alpha" maskUnits="userSpaceOnUse" x="124" y="180" width="101" height="45">
<path d="M223.866 211.799C218.236 215.343 200.575 225 175.272 225C147.071 225 128.362 213.003 125.225 210.845C125.034 210.714 124.912 210.519 124.87 210.303C128.839 198.951 144.263 175.875 164.366 181.916C174.321 184.908 181.291 192.418 187.845 199.481C197.997 210.421 207.154 220.288 224.87 210.635C224.545 211.021 224.21 211.409 223.866 211.799Z" fill="url(#paint1_radial_931_113863)"/>
</mask>
<g mask="url(#mask0_931_113863)">
<g filter="url(#filter0_f_931_113863)">
<mask id="mask1_931_113863" style="mask-type:alpha" maskUnits="userSpaceOnUse" x="124" y="94" width="102" height="132">
<path d="M148.862 95.3198C148.949 94.896 149.322 94.5918 149.755 94.5918H200.246C200.679 94.5918 201.052 94.896 201.139 95.3198L224.993 211.414C225.075 211.811 224.888 212.211 224.527 212.393C220.624 214.365 198.376 225.073 175 225.383C151.578 225.694 129.288 214.434 125.45 212.396C125.1 212.21 124.924 211.818 125.004 211.429L148.862 95.3198Z" fill="#577096" fill-opacity="0.75"/>
</mask>
<g mask="url(#mask1_931_113863)">
<g filter="url(#filter1_f_931_113863)">
<path d="M155.407 125.557C156.47 105.273 134.471 86.4386 128.929 67.2543C133.388 65.4531 144.05 71.0455 152.675 76.3806C163.456 83.0494 162.879 109.38 164.625 126.04C166.022 139.368 148.453 223.657 144.015 241.737L131.716 241.093C140.242 214.936 154.587 141.211 155.407 125.557Z" fill="url(#paint2_linear_931_113863)" fill-opacity="0.6"/>
</g>
</g>
</g>
</g>
<defs>
<filter id="filter0_f_931_113863" x="122.591" y="92.3132" width="105.59" height="135.355" filterUnits="userSpaceOnUse" color-interpolation-filters="sRGB">
<feFlood flood-opacity="0" result="BackgroundImageFix"/>
<feBlend mode="normal" in="SourceGraphic" in2="BackgroundImageFix" result="shape"/>
<feGaussianBlur stdDeviation="1.13932" result="effect1_foregroundBlur_931_113863"/>
</filter>
<filter id="filter1_f_931_113863" x="128.017" y="65.9987" width="37.5983" height="176.65" filterUnits="userSpaceOnUse" color-interpolation-filters="sRGB">
<feFlood flood-opacity="0" result="BackgroundImageFix"/>
<feBlend mode="normal" in="SourceGraphic" in2="BackgroundImageFix" result="shape"/>
<feGaussianBlur stdDeviation="0.455729" result="effect1_foregroundBlur_931_113863"/>
</filter>
<radialGradient id="paint0_radial_931_113863" cx="0" cy="0" r="1" gradientUnits="userSpaceOnUse" gradientTransform="translate(148.451 190.545) rotate(28.2255) scale(40.1081 37.0676)">
<stop offset="0.203125" style="stop-color: #FABE09;"/>
<stop offset="0.890625" style="stop-color: #FDF21B;"/>
</radialGradient>
<radialGradient id="paint1_radial_931_113863" cx="0" cy="0" r="1" gradientUnits="userSpaceOnUse" gradientTransform="translate(146.382 191.229) rotate(27.0849) scale(58.9221 42.3164)">
<stop offset="0.302083" stop-color="#FFB800"/>
<stop offset="1" stop-color="#FF7800"/>
</radialGradient>
<linearGradient id="paint2_linear_931_113863" x1="160.729" y1="221.194" x2="201.954" y2="178.256" gradientUnits="userSpaceOnUse">
<stop stop-color="#F2F2F2"/>
<stop offset="0.0001" stop-color="#F2F2F2"/>
<stop offset="0.0520833" stop-color="#F2F2F2" stop-opacity="0.948011"/>
<stop offset="1" stop-color="#F2F2F2" stop-opacity="0"/>
</linearGradient>
</defs>
  
  
    
  <!-- OG Pumpkin -->
  <g filter="url(#filter0_d_737_226350)">
  <path d="M230.599 316.09L204.316 285.742H174.804H145.469L119.401 316.09C119.401 316.09 137.083 336.1 175 336.1C212.918 336.1 230.599 316.09 230.599 316.09Z" fill="black"/>
  </g>
  <path d="M155.658 63.3073C159.113 50.3297 161.899 33.724 174.785 33.724C187.672 33.724 192.186 54.2844 194.342 63.6237C196.266 71.958 200.403 90.8911 201.271 94.8692C201.375 95.3478 201.259 95.8295 200.903 96.1654C199.079 97.8818 192.205 102.995 175 102.995C157.732 102.995 150.87 97.8437 149.078 96.1464C148.734 95.8208 148.616 95.3554 148.705 94.8904C149.398 91.2711 152.599 74.7998 155.658 63.3073Z" fill="black"/>
  <path d="M155.658 63.3073C159.113 50.3297 161.899 33.724 174.785 33.724C187.672 33.724 192.186 54.2844 194.342 63.6237C196.266 71.958 200.403 90.8911 201.271 94.8692C201.375 95.3478 201.259 95.8295 200.903 96.1654C199.079 97.8818 192.205 102.995 175 102.995C157.732 102.995 150.87 97.8437 149.078 96.1464C148.734 95.8208 148.616 95.3554 148.705 94.8904C149.398 91.2711 152.599 74.7998 155.658 63.3073Z" fill="url(#paint0_linear_737_226350)" fill-opacity="0.45"/>
  <path d="M124.793 210.091C124.793 210.091 148.113 225.13 175.229 225.13C202.345 225.13 225.209 210.091 225.209 210.091C228.732 225.095 245.146 263.492 232.898 282.944C217.483 307.425 200.522 315.82 175.001 315.82C149.48 315.82 132.518 307.425 117.104 282.944C104.855 263.492 121.27 225.095 124.793 210.091Z" fill="url(#paint1_radial_737_226350)"/>
  <mask id="mask0_737_226350" style="mask-type:alpha" maskUnits="userSpaceOnUse" x="112" y="210" width="126" height="107">
  <path d="M124.726 210.547C124.726 210.547 148.046 225.586 175.162 225.586C202.278 225.586 225.142 210.547 225.142 210.547C228.665 225.551 245.079 263.948 232.831 283.4C217.416 307.881 200.455 316.276 174.934 316.276C149.413 316.276 132.452 307.881 117.037 283.4C104.788 263.948 121.203 225.551 124.726 210.547Z" fill="url(#paint2_radial_737_226350)"/>
  </mask>
  <g mask="url(#mask0_737_226350)">
  <path d="M203.645 319.922C210.523 301.926 220.152 256.681 203.645 219.661" stroke="#773B06" stroke-opacity="0.1" stroke-width="4.55729"/>
  <path d="M181.314 319.922C186.783 302.604 192.251 257.031 181.314 219.661" stroke="#773B06" stroke-opacity="0.1" stroke-width="4.55729"/>
  <path d="M165.363 319.922C159.895 302.604 154.426 257.031 165.363 219.661" stroke="#773B06" stroke-opacity="0.1" stroke-width="4.55729"/>
  <path d="M143.033 319.922C136.155 301.926 126.526 256.681 143.033 219.661" stroke="#773B06" stroke-opacity="0.1" stroke-width="4.55729"/>
  </g>
  <path d="M154.675 246.322C155.201 245.41 156.517 245.41 157.043 246.322L166.91 263.412C167.436 264.323 166.778 265.462 165.726 265.462H145.992C144.94 265.462 144.282 264.323 144.808 263.412L154.675 246.322Z" fill="black"/>
  <path d="M194.413 246.322C193.887 245.41 192.571 245.41 192.045 246.322L182.178 263.412C181.652 264.323 182.31 265.462 183.362 265.462H203.096C204.148 265.462 204.806 264.323 204.28 263.412L194.413 246.322Z" fill="black"/>
  <path fill-rule="evenodd" clip-rule="evenodd" d="M163.58 276.72H185.251V283.063H192.651V276.72H209.041C210.854 276.72 211.841 278.656 210.622 279.998C205.795 285.312 194.304 295.22 175.737 295.22C175.203 295.22 174.674 295.212 174.151 295.196V288.877H166.751V294.417C153.296 291.965 144.315 284.469 140.041 280.059C138.751 278.728 139.726 276.72 141.579 276.72H156.18V283.063H163.58V276.72Z" fill="black"/>
  <path d="M194.445 63.138C192.246 53.5916 187.668 33.724 175 33.724L175.215 336.1C213.133 336.1 230.814 316.09 230.814 316.09L218.057 301.36C223.367 296.625 228.314 290.564 233.112 282.944C242.929 267.355 234.335 239.598 228.722 221.466C227.331 216.973 226.123 213.071 225.423 210.091C225.423 210.091 225.309 210.166 225.087 210.306L201.465 95.6037C201.535 95.3724 201.541 95.1203 201.486 94.8692C200.618 90.891 196.481 71.958 194.557 63.6237L194.445 63.138Z" fill="#161A70" fill-opacity="0.1"/>
  <defs>
  <filter id="filter0_d_737_226350" x="117.123" y="285.742" width="116.667" height="55.8268" filterUnits="userSpaceOnUse" color-interpolation-filters="sRGB">
  <feFlood flood-opacity="0" result="BackgroundImageFix"/>
  <feColorMatrix in="SourceAlpha" type="matrix" values="0 0 0 0 0 0 0 0 0 0 0 0 0 0 0 0 0 0 127 0" result="hardAlpha"/>
  <feOffset dx="0.455729" dy="2.73438"/>
  <feGaussianBlur stdDeviation="1.36719"/>
  <feComposite in2="hardAlpha" operator="out"/>
  <feColorMatrix type="matrix" values="0 0 0 0 0 0 0 0 0 0 0 0 0 0 0 0 0 0 0.25 0"/>
  <feBlend mode="normal" in2="BackgroundImageFix" result="effect1_dropShadow_737_226350"/>
  <feBlend mode="normal" in="SourceGraphic" in2="effect1_dropShadow_737_226350" result="shape"/>
  </filter>
  <linearGradient id="paint0_linear_737_226350" x1="164.974" y1="48.7631" x2="175" y2="102.995" gradientUnits="userSpaceOnUse">
  <stop stop-color="white" stop-opacity="0.17"/>
  <stop offset="1" stop-color="#C3C3C3" stop-opacity="0"/>
  </linearGradient>
  <radialGradient id="paint1_radial_737_226350" cx="0" cy="0" r="1" gradientUnits="userSpaceOnUse" gradientTransform="translate(153.126 257.487) rotate(36.2538) scale(76.2935 67.5721)">
  <stop offset="0.0989583" stop-color="#FFB800"/>
  <stop offset="1" stop-color="#E96D00"/>
  </radialGradient>
  <radialGradient id="paint2_radial_737_226350" cx="0" cy="0" r="1" gradientUnits="userSpaceOnUse" gradientTransform="translate(153.059 257.943) rotate(36.2538) scale(76.2935 67.5721)">
  <stop offset="0.0989583" stop-color="#FFB800"/>
  <stop offset="1" stop-color="#E96D00"/>
  </radialGradient>
  </defs>
  
    
    </svg>
  