
    <svg width="350" height="350" viewBox="0 0 350 350" fill="none" xmlns="http://www.w3.org/2000/svg">
    
  <!-- Ash BG -->
  <g clip-path="url(#clip0_28_290)">
  <rect x="0.0789795" y="0.0444336" width="350" height="350" fill="black" fill-opacity="0.89"/>
  <rect x="0.0789795" y="0.0444336" width="350" height="350" fill="url(#paint0_radial_28_290)" fill-opacity="0.2"/>
  <path d="M125.979 290.538L299.832 190.751L430.987 233.879L230.789 294.049L125.979 290.538Z" fill="url(#paint1_linear_28_290)"/>
  <g opacity="0.45" filter="url(#filter0_f_28_290)">
  <ellipse rx="194.596" ry="66.7643" transform="matrix(0.999998 0.00221055 0.00221055 -0.999998 176.078 304.637)" fill="url(#paint2_radial_28_290)"/>
  </g>
  <g opacity="0.7" filter="url(#filter1_f_28_290)">
  <ellipse cx="174.396" cy="137.609" rx="196.647" ry="242.448" transform="rotate(0.126655 174.396 137.609)" fill="url(#paint3_radial_28_290)"/>
  </g>
  </g>
  <defs>
  <filter id="filter0_f_28_290" x="-23.0754" y="233.314" width="398.306" height="142.646" filterUnits="userSpaceOnUse" color-interpolation-filters="sRGB">
  <feFlood flood-opacity="0" result="BackgroundImageFix"/>
  <feBlend mode="normal" in="SourceGraphic" in2="BackgroundImageFix" result="shape"/>
  <feGaussianBlur stdDeviation="2.27865" result="effect1_foregroundBlur_28_290"/>
  </filter>
  <filter id="filter1_f_28_290" x="-26.8086" y="-109.396" width="402.41" height="494.01" filterUnits="userSpaceOnUse" color-interpolation-filters="sRGB">
  <feFlood flood-opacity="0" result="BackgroundImageFix"/>
  <feBlend mode="normal" in="SourceGraphic" in2="BackgroundImageFix" result="shape"/>
  <feGaussianBlur stdDeviation="2.27865" result="effect1_foregroundBlur_28_290"/>
  </filter>
  <radialGradient id="paint0_radial_28_290" cx="0" cy="0" r="1" gradientUnits="userSpaceOnUse" gradientTransform="translate(156.622 401.542) rotate(-84.441) scale(239.93 241.682)">
  <stop/>
  <stop offset="1" stop-opacity="0"/>
  </radialGradient>
  <linearGradient id="paint1_linear_28_290" x1="194.836" y1="271.638" x2="316.537" y2="167.936" gradientUnits="userSpaceOnUse">
  <stop/>
  <stop offset="1" stop-color="#333333" stop-opacity="0"/>
  </linearGradient>
  <radialGradient id="paint2_radial_28_290" cx="0" cy="0" r="1" gradientUnits="userSpaceOnUse" gradientTransform="translate(194.596 76.624) rotate(99.1226) scale(43.9775 125.337)">
  <stop stop-color="#737373"/>
  <stop offset="1" stop-color="#9A9A9A" stop-opacity="0"/>
  </radialGradient>
  <radialGradient id="paint3_radial_28_290" cx="0" cy="0" r="1" gradientUnits="userSpaceOnUse" gradientTransform="translate(174.396 173.413) rotate(92.5586) scale(157.837 128.153)">
  <stop stop-color="#737373"/>
  <stop offset="1" stop-color="#9A9A9A" stop-opacity="0"/>
  </radialGradient>
  <clipPath id="clip0_28_290">
  <rect width="350" height="350" fill="white"/>
  </clipPath>
  </defs>
  
    
  <!-- Smoke Overlay -->
  <g clip-path="url(#clip0_589_112918)">
  <g opacity="0.7" filter="url(#filter0_f_589_112918)">
  <g style="mix-blend-mode:overlay" opacity="0.5">
  <path d="M318.703 93.5382C372.228 106.145 243.865 129.196 199.912 130.711L344.837 130.711C388.551 129.058 401.064 121.486 401.856 117.907L401.856 87.7559C389.581 81.9735 364.605 70.5548 286.629 63.3873C183.282 53.8877 58.6433 72.3424 101.316 93.5382C134.577 110.059 245.053 76.1911 318.703 93.5382Z" fill="white" fill-opacity="0.5"/>
  </g>
  <g style="mix-blend-mode:overlay" opacity="0.5">
  <path fill-rule="evenodd" clip-rule="evenodd" d="M150.02 126.167C184.865 123.551 248.854 117.08 226.046 112.124C215.611 109.856 193.715 109.858 167.992 109.859C123.442 109.861 67.4092 109.864 39.5451 98.0813C-5.55154 79.0113 30.0418 48.9311 139.329 36.9534C140.852 36.7864 142.385 36.6186 143.925 36.4498C252.904 24.511 402.894 8.0793 315.139 -7.6534C288.014 -12.5163 257.865 -8.96709 226.688 -5.29685C170.481 1.31995 110.933 8.33014 59.7394 -32.848L-35.293 -32.848C32.4176 -17.153 26.1242 13.4037 -17.4744 20.8454C-67.2825 29.3469 -61.3993 45.9299 -57.1937 57.7845C-55.8826 61.4799 -54.7346 64.7159 -55.4874 67.1043L-55.4874 126.167L150.02 126.167ZM59.7394 32.8231C75.8949 23.9018 134.577 18.9179 161.899 17.5412C184.47 8.04157 129.826 12.1718 121.511 14.65C113.195 17.1281 96.5645 11.3458 91.8129 3.49828C87.0613 -4.34922 46.6725 -3.11013 49.0483 3.49828C51.4241 10.1067 51.4241 17.5412 24.1023 24.9756C-3.2195 32.4101 39.5451 43.9748 59.7394 32.8231Z" fill="white" fill-opacity="0.5"/>
  </g>
  <g style="mix-blend-mode:overlay" opacity="0.5">
  <path d="M305.636 47.2788C255.744 47.2788 258.12 33.2359 305.636 30.3448C351.954 27.5265 397.144 23.1383 398.292 14.5022L398.292 13.8237C398.322 14.0528 398.322 14.2789 398.292 14.5022L398.292 56.7856C379.122 53.0151 341.364 47.2788 305.636 47.2788Z" fill="white" fill-opacity="0.5"/>
  </g>
  </g>
  </g>
  <defs>
  <filter id="filter0_f_589_112918" x="-68.9974" y="-41.9626" width="479.968" height="181.788" filterUnits="userSpaceOnUse" color-interpolation-filters="sRGB">
  <feFlood flood-opacity="0" result="BackgroundImageFix"/>
  <feBlend mode="normal" in="SourceGraphic" in2="BackgroundImageFix" result="shape"/>
  <feGaussianBlur stdDeviation="4.55729" result="effect1_foregroundBlur_589_112918"/>
  </filter>
  <clipPath id="clip0_589_112918">
  <path d="M0 0H350V350H0V0Z" fill="white"/>
  </clipPath>
  </defs>


    
  <!-- Lavalien -->
  <g filter="url(#filter0_d_584_56451)">
  <path d="M131 154.49C132.151 149.477 130.801 146.279 128.888 145.373C125.474 143.755 122.561 149.427 122.023 153.568C121.484 157.71 122.147 160.537 123.962 161.39C125.778 162.244 129.848 159.504 131 154.49Z" fill="#6DF244"/>
  <path d="M100.214 190.945C99.0036 189.835 98.0955 188.541 97.4809 187.155L81.7407 187.434L81.6152 180.363L96.7623 180.094C97.3946 177.146 99.1846 174.424 102.055 172.698L106.119 170.254C108.853 168.61 111.939 168.254 114.744 168.945L121.804 156.199L127.99 159.626L120.766 172.669C121.714 173.789 122.464 175.119 122.939 176.629L127.604 197.103L124.414 212.37L100.214 190.945Z" fill="url(#paint0_radial_584_56451)"/>
  <path d="M75.7939 187.683C70.8262 186.35 68.6346 183.658 68.7311 181.543C68.9033 177.769 75.279 177.856 79.1891 179.323C83.0992 180.789 85.2854 182.7 85.1881 184.704C85.0908 186.707 80.7617 189.017 75.7939 187.683Z" fill="#6DF244"/>
  <path d="M62.564 151.617C60.244 144.392 59.9498 118.89 68.6994 113.629C77.449 108.369 99.0653 121.05 104.936 126.14C110.806 131.231 117.27 136.313 117.037 147.628C116.743 161.869 108.128 171.872 104.793 173.877C101.458 175.882 88.5832 178.8 75.8678 172.381C65.7642 167.281 64.884 158.842 62.564 151.617Z" fill="#6DF244"/>
  <path d="M62.564 151.617C60.244 144.392 59.9498 118.89 68.6994 113.629C77.449 108.369 99.0653 121.05 104.936 126.14C110.806 131.231 117.27 136.313 117.037 147.628C116.743 161.869 108.128 171.872 104.793 173.877C101.458 175.882 88.5832 178.8 75.8678 172.381C65.7642 167.281 64.884 158.842 62.564 151.617Z" fill="url(#paint1_linear_584_56451)" fill-opacity="0.8"/>
  <path d="M76.5187 168.942C69.103 164.997 66.6376 159.91 67.6021 156.579C69.3232 150.637 79.4633 153.115 85.1405 156.882C90.8178 160.65 93.5737 164.494 92.6506 167.646C91.7275 170.798 83.9343 172.887 76.5187 168.942Z" stroke="url(#paint2_linear_584_56451)" stroke-width="0.880654"/>
  <path fill-rule="evenodd" clip-rule="evenodd" d="M103.541 171.793C104.87 171.142 106.677 168.883 105.707 163.641L100.131 166.994L100.131 166.994L95.3233 169.884C99.5005 173.2 102.343 172.663 103.541 171.793Z" fill="#57BF37"/>
  <path d="M113.135 146.387C113.192 138.874 110.215 134.818 107.158 134.208C101.703 133.121 99.3098 142.19 99.8591 148.251C100.408 154.311 102.274 158.084 105.172 158.653C108.07 159.222 113.077 153.9 113.135 146.387Z" fill="#070707" stroke="#070707" stroke-width="0.220163"/>
  <path d="M113.47 146.726C113.506 138.3 110.164 133.74 106.745 133.045C100.644 131.806 98.0034 141.968 98.6396 148.767C99.2758 155.565 101.374 159.804 104.615 160.453C107.857 161.101 113.433 155.151 113.47 146.726Z" stroke="url(#paint3_linear_584_56451)" stroke-width="0.880654"/>
  <path d="M113.853 146.494C113.89 138.069 110.548 133.508 107.129 132.814C101.028 131.575 98.3872 141.737 99.0234 148.535C99.6595 155.334 101.758 159.573 104.999 160.221C108.241 160.87 113.817 154.92 113.853 146.494Z" stroke="url(#paint4_linear_584_56451)" stroke-width="0.880654"/>
  <path d="M108.909 137.161C107.645 135.824 106.436 135.631 105.799 136.062C104.662 136.829 105.781 138.852 106.905 139.826C108.029 140.799 108.995 141.138 109.598 140.728C110.2 140.319 110.173 138.498 108.909 137.161Z" fill="url(#paint5_radial_584_56451)"/>
  <path fill-rule="evenodd" clip-rule="evenodd" d="M98.7909 163.896C98.13 164.19 96.7259 165.199 96.3969 166.881L99.4737 165.031L102.55 163.181C100.91 162.683 99.3607 163.45 98.7909 163.896Z" fill="#57BF37"/>
  <path d="M76.7609 168.257C70.1415 164.759 67.9499 160.23 68.8201 157.259C70.3729 151.959 79.4311 154.142 84.497 157.487C89.5629 160.832 92.0172 164.251 91.1845 167.063C90.3517 169.875 83.3804 171.755 76.7609 168.257Z" fill="#070707" stroke="#070707" stroke-width="0.220163"/>
  <path d="M70.4977 160.255C69.9097 158.512 70.3062 157.354 70.9852 156.993C72.1968 156.349 73.4581 158.286 73.7911 159.735C74.124 161.184 73.9699 162.196 73.3254 162.537C72.681 162.877 71.0858 161.998 70.4977 160.255Z" fill="url(#paint6_radial_584_56451)"/>
  <path d="M76.5187 168.942C69.103 164.997 66.6376 159.91 67.6021 156.579C69.3232 150.637 79.4633 153.115 85.1405 156.882C90.8178 160.65 93.5737 164.494 92.6506 167.646C91.7275 170.798 83.9343 172.887 76.5187 168.942Z" stroke="url(#paint7_linear_584_56451)" stroke-width="0.880654"/>
  <rect width="4.0506" height="27.9009" transform="matrix(0.99987 -0.0160966 0.0193936 0.999812 87.3584 106.92)" fill="#6DF244"/>
  <path d="M95.2877 103.653C95.2926 97.7492 92.9482 94.5458 90.5599 94.0507C86.2983 93.1675 84.4797 100.281 84.9405 105.046C85.4013 109.811 86.8765 112.787 89.1407 113.249C91.4049 113.711 95.2829 109.556 95.2877 103.653Z" fill="#57BF37"/>
  <rect width="4.05059" height="27.9009" transform="matrix(-0.483106 0.875562 0.873962 0.485994 53.9736 126.993)" fill="#6DF244"/>
  <path d="M47.3691 132.466C42.1528 129.701 40.4229 126.129 41.1057 123.787C42.324 119.609 49.4598 121.339 53.4524 123.98C57.445 126.622 59.3809 129.32 58.7275 131.537C58.0741 133.753 52.5853 135.23 47.3691 132.466Z" fill="#57BF37"/>
  <g filter="url(#filter1_d_584_56451)">
  <circle cx="110.523" cy="181.467" r="4.33642" transform="rotate(-6.77196 110.523 181.467)" fill="url(#paint8_radial_584_56451)" stroke="#56CCF2" stroke-width="0.47927"/>
  <g filter="url(#filter2_d_584_56451)">
  <path d="M114.083 179.006C117.013 178.182 118.278 177.96 118.426 178.383C118.637 178.985 115.662 181.231 110.761 182.947C105.86 184.664 102.543 185.004 102.332 184.402C102.182 183.973 103.246 182.992 106.119 181.786" stroke="#6DF244" stroke-width="0.684672"/>
  </g>
  </g>
  </g>
  <defs>
  <filter id="filter0_d_584_56451" x="38.2295" y="93.5201" width="95.9297" height="123.863" filterUnits="userSpaceOnUse" color-interpolation-filters="sRGB">
  <feFlood flood-opacity="0" result="BackgroundImageFix"/>
  <feColorMatrix in="SourceAlpha" type="matrix" values="0 0 0 0 0 0 0 0 0 0 0 0 0 0 0 0 0 0 127 0" result="hardAlpha"/>
  <feOffset dy="2.27865"/>
  <feGaussianBlur stdDeviation="1.36719"/>
  <feComposite in2="hardAlpha" operator="out"/>
  <feColorMatrix type="matrix" values="0 0 0 0 0 0 0 0 0 0 0 0 0 0 0 0 0 0 0.15 0"/>
  <feBlend mode="normal" in2="BackgroundImageFix" result="effect1_dropShadow_584_56451"/>
  <feBlend mode="normal" in="SourceGraphic" in2="effect1_dropShadow_584_56451" result="shape"/>
  </filter>
  <filter id="filter1_d_584_56451" x="101.702" y="176.891" width="17.3514" height="9.70081" filterUnits="userSpaceOnUse" color-interpolation-filters="sRGB">
  <feFlood flood-opacity="0" result="BackgroundImageFix"/>
  <feColorMatrix in="SourceAlpha" type="matrix" values="0 0 0 0 0 0 0 0 0 0 0 0 0 0 0 0 0 0 127 0" result="hardAlpha"/>
  <feOffset dy="0.273869"/>
  <feGaussianBlur stdDeviation="0.136934"/>
  <feComposite in2="hardAlpha" operator="out"/>
  <feColorMatrix type="matrix" values="0 0 0 0 0 0 0 0 0 0 0 0 0 0 0 0 0 0 0.25 0"/>
  <feBlend mode="normal" in2="BackgroundImageFix" result="effect1_dropShadow_584_56451"/>
  <feBlend mode="normal" in="SourceGraphic" in2="effect1_dropShadow_584_56451" result="shape"/>
  </filter>
  <filter id="filter2_d_584_56451" x="101.086" y="176.941" width="18.5839" height="8.96911" filterUnits="userSpaceOnUse" color-interpolation-filters="sRGB">
  <feFlood flood-opacity="0" result="BackgroundImageFix"/>
  <feColorMatrix in="SourceAlpha" type="matrix" values="0 0 0 0 0 0 0 0 0 0 0 0 0 0 0 0 0 0 127 0" result="hardAlpha"/>
  <feOffset/>
  <feGaussianBlur stdDeviation="0.445037"/>
  <feComposite in2="hardAlpha" operator="out"/>
  <feColorMatrix type="matrix" values="0 0 0 0 1 0 0 0 0 1 0 0 0 0 1 0 0 0 1 0"/>
  <feBlend mode="normal" in2="BackgroundImageFix" result="effect1_dropShadow_584_56451"/>
  <feBlend mode="normal" in="SourceGraphic" in2="effect1_dropShadow_584_56451" result="shape"/>
  </filter>
  <radialGradient id="paint0_radial_584_56451" cx="0" cy="0" r="1" gradientUnits="userSpaceOnUse" gradientTransform="translate(105.858 176.821) rotate(61.8214) scale(36.1903 30.5505)">
  <stop offset="0.552083" stop-color="white"/>
  <stop offset="1" stop-color="#CCD0C9"/>
  </radialGradient>
  <linearGradient id="paint1_linear_584_56451" x1="99.1276" y1="164.455" x2="67.1981" y2="113.092" gradientUnits="userSpaceOnUse">
  <stop offset="0.527397" stop-color="#6DF244"/>
  <stop offset="1" stop-color="#388E1D"/>
  </linearGradient>
  <linearGradient id="paint2_linear_584_56451" x1="73.5638" y1="151.548" x2="86.1667" y2="172.509" gradientUnits="userSpaceOnUse">
  <stop stop-color="#6CB835"/>
  <stop offset="0.40625" stop-color="#6CB835" stop-opacity="0"/>
  </linearGradient>
  <linearGradient id="paint3_linear_584_56451" x1="99.4289" y1="135.998" x2="112.032" y2="156.958" gradientUnits="userSpaceOnUse">
  <stop stop-color="#6CB835"/>
  <stop offset="0.40625" stop-color="#6CB835" stop-opacity="0"/>
  </linearGradient>
  <linearGradient id="paint4_linear_584_56451" x1="99.8127" y1="135.766" x2="112.416" y2="156.727" gradientUnits="userSpaceOnUse">
  <stop offset="0.541667" stop-color="#6CB835" stop-opacity="0"/>
  <stop offset="1" stop-color="#6CB835"/>
  </linearGradient>
  <radialGradient id="paint5_radial_584_56451" cx="0" cy="0" r="1" gradientUnits="userSpaceOnUse" gradientTransform="translate(107.665 138.344) rotate(48.0079) scale(2.79886 2.28334)">
  <stop stop-color="white" stop-opacity="0.75"/>
  <stop offset="1" stop-color="white" stop-opacity="0"/>
  <stop offset="1" stop-color="white"/>
  </radialGradient>
  <radialGradient id="paint6_radial_584_56451" cx="0" cy="0" r="1" gradientUnits="userSpaceOnUse" gradientTransform="translate(72.126 159.712) rotate(69.9583) scale(2.79886 2.28334)">
  <stop stop-color="white" stop-opacity="0.75"/>
  <stop offset="1" stop-color="white" stop-opacity="0"/>
  <stop offset="1" stop-color="white"/>
  </radialGradient>
  <linearGradient id="paint7_linear_584_56451" x1="73.5638" y1="151.548" x2="86.1667" y2="172.509" gradientUnits="userSpaceOnUse">
  <stop offset="0.671875" stop-color="#6CB835" stop-opacity="0"/>
  <stop offset="1" stop-color="#6CB835"/>
  </linearGradient>
  <radialGradient id="paint8_radial_584_56451" cx="0" cy="0" r="1" gradientUnits="userSpaceOnUse" gradientTransform="translate(107.916 179.031) rotate(49.243) scale(7.35423 6.44312)">
  <stop offset="0.3125" stop-color="#321A93"/>
  <stop offset="1" stop-color="#3603FF"/>
  <stop offset="1" stop-color="#3603FF"/>
  </radialGradient>
  </defs>
  
    
  <!-- Normal Glass -->
    <path d="M148.717 95L125.019 209.98C124.948 210.324 125.078 210.673 125.367 210.873C128.479 213.027 147.033 225 175 225C202.967 225 221.521 213.027 224.633 210.873C224.922 210.673 225.052 210.324 224.981 209.98L201.283 95C201.249 95.0666 201.205 95.1285 201.15 95.1836C199.818 96.5241 193.18 102.106 175 102.106C156.82 102.106 150.182 96.5241 148.85 95.1836C148.795 95.1285 148.751 95.0666 148.717 95Z" fill="#000000" fill-opacity="0.6"/>
  
    
    
    <!-- Lava 1 -->
    <!-- Color -->
    <!-- filter -->
    <path d="M201.33 94.2312L205.4 114.032C203.808 113.761 202.153 113.448 200.459 113.128C186.293 110.453 169.479 107.277 165.223 123.731C163.365 130.915 166.057 135.213 168.676 139.394C171.205 143.431 173.665 147.359 171.9 153.669C169.751 161.35 158.067 166.325 148.671 162.995C138.746 159.477 139.443 144.904 145.148 137.85C150.853 130.795 151.677 120.031 150.853 112.871C150.454 109.41 148.742 106.935 146.502 105.251L148.841 93.8809C148.875 93.9478 148.92 94.0101 148.975 94.0656C150.853 95.9589 156.979 101.03 175.237 101.03C192.824 101.03 199.656 95.8196 201.33 94.2312Z" fill="url(#paint0_radial_931_113783)"/>
    <mask id="mask0_931_113783" style="mask-type:alpha" maskUnits="userSpaceOnUse" x="141" y="93" width="65" height="72">
    <path d="M201.33 94.2302L205.4 114.031C203.808 113.76 202.153 113.447 200.459 113.127C186.293 110.452 169.479 107.276 165.223 123.73C163.365 130.914 166.057 135.212 168.676 139.393C171.205 143.43 173.665 147.358 171.9 153.668C169.751 161.349 158.067 166.324 148.671 162.994C138.746 159.476 139.443 144.903 145.148 137.849C150.853 130.794 151.677 120.03 150.853 112.87C150.454 109.409 148.742 106.934 146.502 105.25L148.841 93.8799C148.875 93.9469 148.92 94.0092 148.975 94.0646C150.313 95.4133 156.979 101.029 175.237 101.029C192.824 101.029 199.656 95.8187 201.33 94.2302Z" fill="url(#paint1_radial_931_113783)"/>
    </mask>
    <g mask="url(#mask0_931_113783)">
    <g filter="url(#filter0_f_931_113783)">
    <mask id="mask1_931_113783" style="mask-type:alpha" maskUnits="userSpaceOnUse" x="125" y="94" width="101" height="132">
    <path d="M149.015 95.0639C149.102 94.6401 149.475 94.3359 149.907 94.3359H200.399C200.831 94.3359 201.205 94.6401 201.292 95.0639L225.146 211.159C225.227 211.555 225.041 211.955 224.68 212.137C220.777 214.109 198.528 224.817 175.153 225.128C151.731 225.438 129.441 214.178 125.603 212.141C125.253 211.954 125.077 211.562 125.157 211.173L149.015 95.0639Z" fill="#577096" fill-opacity="0.75"/>
    </mask>
    <g mask="url(#mask1_931_113783)">
    <g filter="url(#filter1_f_931_113783)">
    <path d="M207.362 76.1064C211.019 110.268 146.094 132.571 113.174 139.453L113.174 76.1064L207.362 76.1064Z" fill="url(#paint2_linear_931_113783)" fill-opacity="0.5"/>
    </g>
    <g filter="url(#filter2_f_931_113783)">
    <path d="M155.56 125.301C156.622 105.018 134.624 86.1828 129.082 66.9985C133.541 65.1973 144.203 70.7896 152.828 76.1247C163.609 82.7936 163.032 109.124 164.778 125.784C166.175 139.112 148.606 223.401 144.168 241.481L131.869 240.837C140.395 214.68 154.74 140.955 155.56 125.301Z" fill="url(#paint3_linear_931_113783)" fill-opacity="0.6"/>
    </g>
    </g>
    </g>
    </g>
    <defs>
    <filter id="filter0_f_931_113783" x="122.744" y="92.0573" width="104.986" height="135.355" filterUnits="userSpaceOnUse" color-interpolation-filters="sRGB">
    <feFlood flood-opacity="0" result="BackgroundImageFix"/>
    <feBlend mode="normal" in="SourceGraphic" in2="BackgroundImageFix" result="shape"/>
    <feGaussianBlur stdDeviation="1.13932" result="effect1_foregroundBlur_931_113783"/>
    </filter>
    <filter id="filter1_f_931_113783" x="112.262" y="75.195" width="96.1589" height="65.1696" filterUnits="userSpaceOnUse" color-interpolation-filters="sRGB">
    <feFlood flood-opacity="0" result="BackgroundImageFix"/>
    <feBlend mode="normal" in="SourceGraphic" in2="BackgroundImageFix" result="shape"/>
    <feGaussianBlur stdDeviation="0.455729" result="effect1_foregroundBlur_931_113783"/>
    </filter>
    <filter id="filter2_f_931_113783" x="128.17" y="65.7428" width="37.5978" height="176.65" filterUnits="userSpaceOnUse" color-interpolation-filters="sRGB">
    <feFlood flood-opacity="0" result="BackgroundImageFix"/>
    <feBlend mode="normal" in="SourceGraphic" in2="BackgroundImageFix" result="shape"/>
    <feGaussianBlur stdDeviation="0.455729" result="effect1_foregroundBlur_931_113783"/>
    </filter>
    <radialGradient id="paint0_radial_931_113783" cx="0" cy="0" r="1" gradientUnits="userSpaceOnUse" gradientTransform="translate(156.087 109.102) rotate(53.0717) scale(37.8406 40.3077)">
    <stop offset="0.203125" style="stop-color: #21F6EA;"/>
    <stop offset="0.890625" style="stop-color: #2183F6;"/>
    </radialGradient>
    <radialGradient id="paint1_radial_931_113783" cx="0" cy="0" r="1" gradientUnits="userSpaceOnUse" gradientTransform="translate(156.087 109.101) rotate(53.0717) scale(37.8406 40.3077)">
    <stop offset="0.203125" stop-color="#71FF30"/>
    <stop offset="0.890625" stop-color="#25BC46"/>
    </radialGradient>
    <linearGradient id="paint2_linear_931_113783" x1="145.368" y1="123.01" x2="155.982" y2="72.2914" gradientUnits="userSpaceOnUse">
    <stop stop-color="white" stop-opacity="0"/>
    <stop offset="0.471361" stop-color="white"/>
    <stop offset="1" stop-color="white"/>
    </linearGradient>
    <linearGradient id="paint3_linear_931_113783" x1="160.882" y1="220.938" x2="202.107" y2="178" gradientUnits="userSpaceOnUse">
    <stop stop-color="#F2F2F2"/>
    <stop offset="0.0001" stop-color="#F2F2F2"/>
    <stop offset="0.0520833" stop-color="#F2F2F2" stop-opacity="0.948011"/>
    <stop offset="1" stop-color="#F2F2F2" stop-opacity="0"/>
    </linearGradient>
    </defs>
  
    
  <!-- Lava 2 -->
    <!-- Color -->
<path d="M178.202 131.059C178.202 128.163 180.222 122.394 188.299 122.479C196.377 122.565 198.468 128.235 198.504 131.059C198.576 133.132 197.365 137.622 191.952 138.995C185.184 140.711 178.202 136.85 178.202 131.059Z" fill="url(#paint0_radial_931_113845)"/>
<defs>
<radialGradient id="paint0_radial_931_113845" cx="0" cy="0" r="1" gradientUnits="userSpaceOnUse" gradientTransform="translate(182.959 126.151) rotate(45.5119) scale(10.2292 11.3416)">
<stop offset="0.203125" style="stop-color: #FFB800;"/>
<stop offset="0.890625" style="stop-color: #FF7800;"/>
</radialGradient>
</defs>
  
    
  <!-- Lava 3 -->
    <!-- Color -->
    <path d="M214.381 157.604L219.2 181.084C217.285 183.349 214.448 185.339 210.334 186.382C197.471 189.642 184.2 182.306 184.2 171.303C184.2 165.801 188.039 154.839 203.392 155.002C208.021 155.051 211.616 156.065 214.381 157.604Z" fill="url(#paint0_radial_931_113862)"/>
<defs>
<radialGradient id="paint0_radial_931_113862" cx="0" cy="0" r="1" gradientUnits="userSpaceOnUse" gradientTransform="translate(192.4 161.977) rotate(48.2936) scale(18.5718 20.4588)">
<stop offset="0.203125" style="stop-color: #FFFFFF;"/>
<stop offset="0.890625" style="stop-color: #D0C9C9;"/>
</radialGradient>
</defs>
  
    
  <!-- Lava 4 -->
    <!-- Color -->
    <path d="M225 210.659C220.5 214 200.704 225 175.402 225C147.201 225 128.492 213.024 125.354 210.869C125.163 210.738 125.042 210.543 125 210.328C128.968 198.996 144.393 175.959 164.496 181.99C174.451 184.976 181.421 192.474 187.975 199.525C198.127 210.446 208 213.5 225 210.659C224.675 211.045 225.345 210.27 225 210.659Z" fill="url(#paint0_radial_931_113863)"/>
<mask id="mask0_931_113863" style="mask-type:alpha" maskUnits="userSpaceOnUse" x="124" y="180" width="101" height="45">
<path d="M223.866 211.799C218.236 215.343 200.575 225 175.272 225C147.071 225 128.362 213.003 125.225 210.845C125.034 210.714 124.912 210.519 124.87 210.303C128.839 198.951 144.263 175.875 164.366 181.916C174.321 184.908 181.291 192.418 187.845 199.481C197.997 210.421 207.154 220.288 224.87 210.635C224.545 211.021 224.21 211.409 223.866 211.799Z" fill="url(#paint1_radial_931_113863)"/>
</mask>
<g mask="url(#mask0_931_113863)">
<g filter="url(#filter0_f_931_113863)">
<mask id="mask1_931_113863" style="mask-type:alpha" maskUnits="userSpaceOnUse" x="124" y="94" width="102" height="132">
<path d="M148.862 95.3198C148.949 94.896 149.322 94.5918 149.755 94.5918H200.246C200.679 94.5918 201.052 94.896 201.139 95.3198L224.993 211.414C225.075 211.811 224.888 212.211 224.527 212.393C220.624 214.365 198.376 225.073 175 225.383C151.578 225.694 129.288 214.434 125.45 212.396C125.1 212.21 124.924 211.818 125.004 211.429L148.862 95.3198Z" fill="#577096" fill-opacity="0.75"/>
</mask>
<g mask="url(#mask1_931_113863)">
<g filter="url(#filter1_f_931_113863)">
<path d="M155.407 125.557C156.47 105.273 134.471 86.4386 128.929 67.2543C133.388 65.4531 144.05 71.0455 152.675 76.3806C163.456 83.0494 162.879 109.38 164.625 126.04C166.022 139.368 148.453 223.657 144.015 241.737L131.716 241.093C140.242 214.936 154.587 141.211 155.407 125.557Z" fill="url(#paint2_linear_931_113863)" fill-opacity="0.6"/>
</g>
</g>
</g>
</g>
<defs>
<filter id="filter0_f_931_113863" x="122.591" y="92.3132" width="105.59" height="135.355" filterUnits="userSpaceOnUse" color-interpolation-filters="sRGB">
<feFlood flood-opacity="0" result="BackgroundImageFix"/>
<feBlend mode="normal" in="SourceGraphic" in2="BackgroundImageFix" result="shape"/>
<feGaussianBlur stdDeviation="1.13932" result="effect1_foregroundBlur_931_113863"/>
</filter>
<filter id="filter1_f_931_113863" x="128.017" y="65.9987" width="37.5983" height="176.65" filterUnits="userSpaceOnUse" color-interpolation-filters="sRGB">
<feFlood flood-opacity="0" result="BackgroundImageFix"/>
<feBlend mode="normal" in="SourceGraphic" in2="BackgroundImageFix" result="shape"/>
<feGaussianBlur stdDeviation="0.455729" result="effect1_foregroundBlur_931_113863"/>
</filter>
<radialGradient id="paint0_radial_931_113863" cx="0" cy="0" r="1" gradientUnits="userSpaceOnUse" gradientTransform="translate(148.451 190.545) rotate(28.2255) scale(40.1081 37.0676)">
<stop offset="0.203125" style="stop-color: #5000B6;"/>
<stop offset="0.890625" style="stop-color: #7E5EFF;"/>
</radialGradient>
<radialGradient id="paint1_radial_931_113863" cx="0" cy="0" r="1" gradientUnits="userSpaceOnUse" gradientTransform="translate(146.382 191.229) rotate(27.0849) scale(58.9221 42.3164)">
<stop offset="0.302083" stop-color="#FFB800"/>
<stop offset="1" stop-color="#FF7800"/>
</radialGradient>
<linearGradient id="paint2_linear_931_113863" x1="160.729" y1="221.194" x2="201.954" y2="178.256" gradientUnits="userSpaceOnUse">
<stop stop-color="#F2F2F2"/>
<stop offset="0.0001" stop-color="#F2F2F2"/>
<stop offset="0.0520833" stop-color="#F2F2F2" stop-opacity="0.948011"/>
<stop offset="1" stop-color="#F2F2F2" stop-opacity="0"/>
</linearGradient>
</defs>
  
  
    
  <!-- Emerald Bong -->
  <mask id="mask0_737_226365" style="mask-type:alpha" maskUnits="userSpaceOnUse" x="218" y="76" width="101" height="210">
  <path d="M286.125 140.454L286.15 140.715L286.408 140.755L286.538 140.775L286.025 144.08C285.934 144.666 285.477 145.104 284.904 145.147C283.985 145.216 282.554 145.29 280.643 145.289L280.364 145.289L280.312 145.563L274.16 178.04C274.099 178.362 273.93 178.58 273.695 178.656C273.133 178.837 272.005 179.074 269.928 179.105L269.711 179.108L269.624 179.306C267.404 184.342 266.167 194.417 271.757 208.393C279.967 228.918 284.554 241.085 276.779 257.342C273.717 263.745 266.667 269.665 258.909 274.548C251.338 279.313 243.147 283.058 237.475 285.276L234.166 264.097C237.669 262.925 242.531 260.735 247.125 257.641C251.836 254.469 256.295 250.326 258.702 245.328C263.363 235.647 259.679 227.345 255.922 218.879L255.901 218.832C254.807 216.368 253.707 213.89 252.791 211.344C251.363 207.38 250.487 201.437 250.188 195.361L250.179 195.174L250.015 195.083C249.158 194.608 248.078 194.306 246.738 194.306H229.27V194.306L229.26 194.306C228.618 194.324 227.883 194.745 227.183 195.333C226.467 195.934 225.729 196.76 225.074 197.689C224.42 198.619 223.842 199.663 223.454 200.704C223.352 200.979 223.262 201.254 223.187 201.529L219.321 183.362C220.73 184.058 223.444 184.98 227.705 184.98H244.652H244.664L244.675 184.979C245.923 184.895 248.452 184.503 250.224 183.553L250.384 183.468L250.401 183.288C250.658 180.571 251.068 178.172 251.627 176.332L251.715 176.044L251.439 175.925C249.576 175.115 248.573 174.354 248.094 173.914C247.898 173.734 247.809 173.453 247.84 173.133L251.022 140.955L251.048 140.685L250.79 140.601C249.141 140.066 247.887 139.596 247.065 139.269C246.523 139.053 246.213 138.489 246.305 137.896L246.815 134.609L246.922 134.625L247.57 134.726L247.274 134.141C247.267 134.126 247.264 134.116 247.263 134.112C247.268 134.104 247.282 134.085 247.318 134.058C247.384 134.008 247.497 133.951 247.672 133.894C248.021 133.78 248.543 133.693 249.231 133.638C250.602 133.528 252.557 133.554 254.931 133.713L255.048 133.72L255.144 133.654C255.835 133.178 256.632 132.162 257.393 130.574C258.159 128.977 258.903 126.768 259.47 123.868C260.895 116.572 261.736 110.364 260.552 104.144C260.438 103.545 260.124 102.686 259.698 101.663C259.27 100.633 258.718 99.4089 258.113 98.0697L258.111 98.0651C256.628 94.7801 254.83 90.7936 253.722 87.1666C253.169 85.3532 252.793 83.6455 252.712 82.171C252.631 80.6908 252.849 79.4909 253.434 78.6503C253.617 78.3874 253.931 78.1388 254.395 77.9159C254.857 77.694 255.447 77.5072 256.154 77.3571C257.57 77.0567 259.413 76.9111 261.548 76.9001C265.814 76.8781 271.189 77.3938 276.506 78.2431C281.823 79.0924 287.066 80.2729 291.068 81.5752C293.071 82.2269 294.75 82.9051 295.97 83.5817C296.58 83.92 297.065 84.2524 297.416 84.5736C297.77 84.8975 297.964 85.1893 298.035 85.4423C298.249 86.2099 298.136 87.094 297.734 88.0912C297.333 89.088 296.654 90.1695 295.78 91.3119C294.031 93.5982 291.546 96.0696 289.076 98.5258L289.054 98.5482C286.287 101.299 283.533 104.038 281.942 106.425C280.83 108.093 279.963 110.177 279.298 112.413L279.142 112.937L279.68 112.841C280.966 112.611 283.491 112.631 286.831 112.897C290.157 113.161 294.256 113.665 298.67 114.385C304.119 115.273 309.008 116.322 312.504 117.298C314.255 117.787 315.645 118.254 316.58 118.669C317.05 118.878 317.387 119.066 317.595 119.227C317.7 119.308 317.756 119.37 317.783 119.412C317.784 119.412 317.784 119.412 317.784 119.413L317.343 119.863L317.99 119.964L318.17 119.992L317.657 123.296C317.566 123.883 317.108 124.321 316.536 124.364C313.994 124.555 307.539 124.782 297.856 123.358C288.009 121.91 281.259 119.505 278.696 118.485C278.62 118.455 278.549 118.418 278.483 118.376L278.043 118.091L277.967 118.61C277.521 121.673 277.36 124.637 277.407 126.925C277.444 128.776 277.807 131.112 278.247 133.149C278.468 134.169 278.708 135.12 278.94 135.904C279.17 136.681 279.396 137.314 279.59 137.687L279.658 137.817L279.8 137.856C281.784 138.4 283.391 138.933 284.506 139.418C285.065 139.661 285.486 139.886 285.767 140.086C285.907 140.186 286.001 140.273 286.06 140.344C286.119 140.416 286.124 140.452 286.125 140.454Z" fill="#C4C4C4" stroke="black" stroke-width="0.673831"/>
  </mask>
  <g mask="url(#mask0_737_226365)">
  <rect x="318.099" y="288.932" width="135.807" height="226.497" rx="2" transform="rotate(-180 318.099 288.932)" fill="url(#paint0_linear_737_226365)"/>
  <g opacity="0.5">
  <g style="mix-blend-mode:overlay" opacity="0.5">
  <path d="M240.663 127.973C221.246 114.82 267.811 90.7696 283.756 89.1896H231.182C215.324 90.9133 210.785 98.8137 210.498 102.548V134.006C214.95 140.039 224.011 151.953 252.298 159.431C289.789 169.342 335.003 150.088 319.523 127.973C307.457 110.736 267.38 146.072 240.663 127.973Z" fill="white"/>
  </g>
  <g style="mix-blend-mode:overlay" opacity="0.5">
  <path fill-rule="evenodd" clip-rule="evenodd" d="M301.855 93.9297C289.214 96.659 266.001 103.41 274.275 108.581C278.061 110.947 286.004 110.946 295.335 110.945C311.496 110.942 331.823 110.939 341.931 123.233C358.291 143.13 345.379 174.514 305.733 187.011C305.18 187.185 304.625 187.36 304.066 187.536C264.532 199.992 210.121 217.136 241.956 233.551C251.795 238.625 262.732 234.922 274.042 231.092C294.432 224.189 316.034 216.875 334.605 259.838H369.08C344.517 243.462 346.8 211.581 362.616 203.817C380.684 194.947 378.55 177.645 377.025 165.276C376.549 161.421 376.132 158.045 376.406 155.553V93.9297H301.855ZM334.605 191.32C328.745 200.628 307.457 205.828 297.545 207.264C289.358 217.176 309.181 212.866 312.197 210.281C315.214 207.695 321.247 213.728 322.97 221.916C324.694 230.103 339.346 228.811 338.484 221.916C337.622 215.021 337.622 207.264 347.533 199.507C357.445 191.751 341.931 179.685 334.605 191.32Z" fill="white"/>
  </g>
  <g style="mix-blend-mode:overlay" opacity="0.5">
  <path d="M245.403 176.237C263.502 176.237 262.64 190.889 245.403 193.905C228.6 196.846 212.207 201.424 211.79 210.435V211.143C211.78 210.904 211.78 210.668 211.79 210.435V166.318C218.745 170.252 232.442 176.237 245.403 176.237Z" fill="white"/>
  </g>
  </g>
  <g opacity="0.6">
  <circle cx="231.232" cy="193.51" r="1.16688" fill="white"/>
  <circle cx="296.707" cy="273.821" r="1.16688" transform="rotate(75 296.707 273.821)" fill="white"/>
  <circle cx="225.164" cy="154.925" r="1.16688" fill="white"/>
  <circle cx="233.851" cy="176.885" r="1.16688" transform="rotate(75 233.851 176.885)" fill="white"/>
  <circle cx="234.762" cy="241.614" r="1.16688" transform="rotate(75 234.762 241.614)" fill="white"/>
  <circle cx="240.947" cy="225.622" r="1.16688" transform="rotate(75 240.947 225.622)" fill="white"/>
  <circle cx="219.096" cy="249.987" r="1.16688" fill="white"/>
  <circle cx="226.297" cy="267.313" r="1.16688" fill="white"/>
  <circle cx="239.013" cy="276.716" r="1.16688" transform="rotate(75 239.013 276.716)" fill="white"/>
  <circle cx="283.812" cy="218.485" r="1.16688" transform="rotate(75 283.812 218.485)" fill="white"/>
  <circle cx="236.324" cy="116.466" r="1.16688" fill="white"/>
  <circle cx="248.172" cy="86.3884" r="1.16688" fill="white"/>
  <circle cx="300.58" cy="84.1096" r="1.16688" fill="white"/>
  <circle cx="302.86" cy="116.011" r="1.16688" fill="white"/>
  <circle cx="257.286" cy="147" r="1.16688" fill="white"/>
  <circle cx="290.099" cy="147" r="1.16688" fill="white"/>
  <circle cx="274.604" cy="171.61" r="1.16688" fill="white"/>
  <circle cx="252.825" cy="187.109" r="1.16688" transform="rotate(75 252.825 187.109)" fill="white"/>
  <circle cx="311.781" cy="282.158" r="1.16688" transform="rotate(75 311.781 282.158)" fill="white"/>
  <circle cx="260.738" cy="284.893" r="1.16688" transform="rotate(75 260.738 284.893)" fill="white"/>
  <circle cx="259.827" cy="259.372" r="1.16688" transform="rotate(75 259.827 259.372)" fill="white"/>
  <circle cx="249.62" cy="205.202" r="1.16688" transform="rotate(75 249.62 205.202)" fill="white"/>
  <circle cx="268.572" cy="205.49" r="1.16688" fill="white"/>
  <circle cx="297.823" cy="262.625" r="1.16688" transform="rotate(165 297.823 262.625)" fill="white"/>
  <circle cx="246.634" cy="248.12" r="1.16688" fill="white"/>
  <circle cx="300.21" cy="247.489" r="1.16688" transform="rotate(165 300.21 247.489)" fill="white"/>
  <circle cx="272.46" cy="233.806" r="1.16688" fill="white"/>
  <circle cx="278.968" cy="267.999" r="1.16688" transform="rotate(165 278.968 267.999)" fill="white"/>
  <path d="M255.6 238.724L255.18 237.588L254.045 237.168L255.18 236.748L255.6 235.612L256.021 236.748L257.156 237.168L256.021 237.588L255.6 238.724Z" fill="#FFF7B0"/>
  <path d="M220.509 143.476L220.088 142.341L218.953 141.921L220.088 141.5L220.509 140.365L220.929 141.5L222.064 141.921L220.929 142.341L220.509 143.476Z" fill="#FFF7B0"/>
  <path d="M257.933 277.153L257.513 276.017L256.378 275.597L257.513 275.177L257.933 274.041L258.354 275.177L259.489 275.597L258.354 276.017L257.933 277.153Z" fill="#FFF7B0"/>
  <path d="M222.843 181.906L222.422 180.77L221.287 180.35L222.422 179.93L222.843 178.794L223.263 179.93L224.398 180.35L223.263 180.77L222.843 181.906Z" fill="#FFF7B0"/>
  <path d="M220.509 220.335L220.088 219.199L218.953 218.779L220.088 218.359L220.509 217.223L220.929 218.359L222.064 218.779L220.929 219.199L220.509 220.335Z" fill="#FFF7B0"/>
  <path d="M257.931 221.917L257.196 219.93L255.208 219.194L257.196 218.459L257.931 216.471L258.666 218.459L260.654 219.194L258.666 219.93L257.931 221.917Z" fill="#FFF7B0"/>
  <path d="M265.222 118.922L264.487 116.935L262.499 116.199L264.487 115.464L265.222 113.477L265.957 115.464L267.945 116.199L265.957 116.935L265.222 118.922Z" fill="#FFF7B0"/>
  <path d="M281.64 101.172L280.04 96.8476L275.716 95.2475L280.04 93.6473L281.64 89.323L283.241 93.6473L287.565 95.2475L283.241 96.8476L281.64 101.172Z" fill="#FFF7B0"/>
  </g>
  </g>
  <g filter="url(#filter0_d_737_226365)">
  <mask id="mask1_737_226365" style="mask-type:alpha" maskUnits="userSpaceOnUse" x="112" y="211" width="128" height="104">
  <path d="M205.982 314.453H176.559H145.384C122.517 314.453 108.3 292.001 113.716 268.715L115.607 260.588L125.528 211.458C136.099 220.298 153.514 224.875 176.559 224.875C199.603 224.875 211.686 219.434 224.674 211.458L235.758 260.588L237.648 268.706C243.071 291.994 228.854 314.453 205.982 314.453Z" fill="url(#paint1_radial_737_226365)" stroke="black" stroke-width="0.455729"/>
  </mask>
  <g mask="url(#mask1_737_226365)">
  <rect x="274.366" y="369.597" width="166.797" height="166.797" rx="0.911458" transform="rotate(-180 274.366 369.597)" fill="url(#paint2_linear_737_226365)"/>
  <g style="mix-blend-mode:overlay" filter="url(#filter1_f_737_226365)">
  <ellipse cx="263.736" cy="246.072" rx="273.297" ry="336.951" transform="rotate(0.126655 263.736 246.072)" fill="url(#paint3_radial_737_226365)"/>
  </g>
  <g opacity="0.5">
  <g style="mix-blend-mode:overlay" opacity="0.5">
  <path d="M141.261 209.183C115.613 191.808 177.122 160.04 198.184 157.953H128.738C107.791 160.23 101.795 170.665 101.416 175.599V217.152C107.298 225.121 119.265 240.858 156.63 250.736C206.153 263.828 265.877 238.394 245.429 209.183C229.491 186.414 176.553 233.09 141.261 209.183Z" fill="white"/>
  </g>
  <g style="mix-blend-mode:overlay" opacity="0.5">
  <path fill-rule="evenodd" clip-rule="evenodd" d="M222.091 164.214C205.394 167.819 174.732 176.737 185.661 183.568C190.661 186.693 201.153 186.692 213.479 186.69C234.827 186.686 261.677 186.682 275.029 202.921C296.638 229.203 279.583 270.659 227.214 287.166C226.484 287.397 225.75 287.628 225.012 287.861C172.791 304.314 100.918 326.96 142.969 348.643C155.967 355.345 170.414 350.453 185.353 345.395C212.287 336.276 240.821 326.614 265.352 383.365H310.89C278.444 361.735 281.46 319.622 302.352 309.366C326.219 297.65 323.4 274.795 321.385 258.457C320.756 253.365 320.206 248.905 320.567 245.613V164.214H222.091ZM265.352 292.859C257.611 305.154 229.491 312.023 216.399 313.92C205.584 327.012 231.768 321.32 235.753 317.905C239.737 314.489 247.706 322.458 249.983 333.274C252.26 344.089 271.614 342.381 270.475 333.274C269.337 324.166 269.337 313.92 282.429 303.674C295.521 293.428 275.029 277.49 265.352 292.859Z" fill="white"/>
  </g>
  <g style="mix-blend-mode:overlay" opacity="0.5">
  <path d="M147.523 272.936C171.43 272.936 170.292 292.29 147.523 296.274C125.328 300.158 103.674 306.206 103.123 318.108V319.043C103.109 318.727 103.109 318.416 103.123 318.108V259.834C112.31 265.03 130.403 272.936 147.523 272.936Z" fill="white"/>
  </g>
  </g>
  <g opacity="0.6">
  <ellipse rx="1.10576" ry="1.1626" transform="matrix(-0.961979 0.273124 -0.24516 -0.969483 232.683 276.479)" fill="white"/>
  <ellipse rx="1.10576" ry="1.1626" transform="matrix(-0.961979 0.273124 -0.24516 -0.969483 183.706 249.311)" fill="white"/>
  <ellipse rx="1.1626" ry="1.10576" transform="matrix(0.24516 0.969483 -0.961979 0.273124 153.02 226.881)" fill="white"/>
  <ellipse rx="1.10576" ry="1.1626" transform="matrix(-0.961979 0.273124 -0.24516 -0.969483 198.662 285.011)" fill="white"/>
  <ellipse rx="1.1626" ry="1.10576" transform="matrix(0.24516 0.969483 -0.961979 0.273124 186.711 211.033)" fill="white"/>
  <ellipse rx="1.1626" ry="1.10576" transform="matrix(0.24516 0.969483 -0.961979 0.273124 201.795 225.674)" fill="white"/>
  <ellipse rx="1.10576" ry="1.1626" transform="matrix(-0.961979 0.273124 -0.24516 -0.969483 235.929 236.417)" fill="white"/>
  <ellipse rx="1.10576" ry="1.1626" transform="matrix(-0.961979 0.273124 -0.24516 -0.969483 219.992 235.305)" fill="white"/>
  <ellipse rx="1.10576" ry="1.1626" transform="matrix(-0.961979 0.273124 -0.24516 -0.969483 166.618 294.753)" fill="white"/>
  <ellipse rx="1.1626" ry="1.10576" transform="matrix(0.24516 0.969483 -0.961979 0.273124 195.905 244.987)" fill="white"/>
  <ellipse rx="1.10576" ry="1.1626" transform="matrix(-0.961979 0.273124 -0.24516 -0.969483 149.543 291.548)" fill="white"/>
  <ellipse rx="1.1626" ry="1.10576" transform="matrix(0.24516 0.969483 -0.961979 0.273124 217.137 213.343)" fill="white"/>
  <ellipse rx="1.1626" ry="1.10576" transform="matrix(0.24516 0.969483 -0.961979 0.273124 167.245 235.218)" fill="white"/>
  <ellipse rx="1.1626" ry="1.10576" transform="matrix(0.24516 0.969483 -0.961979 0.273124 168.106 272.588)" fill="white"/>
  <ellipse rx="1.1626" ry="1.10576" transform="matrix(0.24516 0.969483 -0.961979 0.273124 119.075 237.953)" fill="white"/>
  <ellipse rx="1.1626" ry="1.10576" transform="matrix(0.24516 0.969483 -0.961979 0.273124 118.214 212.431)" fill="white"/>
  <ellipse rx="1.10576" ry="1.1626" transform="matrix(-0.961979 0.273124 -0.24516 -0.969483 146.741 247.404)" fill="white"/>
  <ellipse rx="1.1626" ry="1.10576" transform="matrix(0.24516 0.969483 -0.961979 0.273124 151.22 266.049)" fill="white"/>
  <ellipse rx="1.1626" ry="1.10576" transform="matrix(0.24516 0.969483 -0.961979 0.273124 239.502 212.887)" fill="white"/>
  <ellipse rx="1.10576" ry="1.1626" transform="matrix(-0.961979 0.273124 -0.24516 -0.969483 154.073 215.685)" fill="white"/>
  <ellipse rx="1.1626" ry="1.10576" transform="matrix(0.24516 0.969483 -0.961979 0.273124 121.285 258.28)" fill="white"/>
  <ellipse rx="1.1626" ry="1.10576" transform="matrix(0.24516 0.969483 -0.961979 0.273124 224.507 254.179)" fill="white"/>
  <ellipse rx="1.1626" ry="1.10576" transform="matrix(0.24516 0.969483 -0.961979 0.273124 210.223 251.791)" fill="white"/>
  <ellipse rx="1.10576" ry="1.1626" transform="matrix(-0.961979 0.273124 -0.24516 -0.969483 136.279 221.059)" fill="white"/>
  <ellipse rx="1.1626" ry="1.10576" transform="matrix(0.24516 0.969483 -0.961979 0.273124 126.357 277.135)" fill="white"/>
  <ellipse rx="1.1626" ry="1.10576" transform="matrix(0.24516 0.969483 -0.961979 0.273124 229.58 273.033)" fill="white"/>
  <path d="M116.428 230.213L116.031 229.077L114.959 228.657L116.031 228.236L116.428 227.101L116.824 228.236L117.896 228.657L116.824 229.077L116.428 230.213Z" fill="#7A6F0C"/>
  <path d="M114.225 268.642L113.828 267.506L112.757 267.086L113.828 266.666L114.225 265.53L114.622 266.666L115.693 267.086L114.622 267.506L114.225 268.642Z" fill="#7A6F0C"/>
  <path d="M134.854 275.488L134.16 273.5L132.285 272.765L134.16 272.03L134.854 270.042L135.548 272.03L137.424 272.765L135.548 273.5L134.854 275.488Z" fill="#7A6F0C"/>
  <path d="M239.283 227.646L238.589 225.659L236.713 224.923L238.589 224.188L239.283 222.2L239.977 224.188L241.853 224.923L239.977 225.659L239.283 227.646Z" fill="#7A6F0C"/>
  <path d="M129.716 253.395L129.022 251.407L127.147 250.672L129.022 249.937L129.716 247.949L130.41 249.937L132.286 250.672L130.41 251.407L129.716 253.395Z" fill="#7A6F0C"/>
  <path d="M229.225 255.651L228.828 254.516L227.756 254.095L228.828 253.675L229.225 252.54L229.621 253.675L230.693 254.095L229.621 254.516L229.225 255.651Z" fill="#7A6F0C"/>
  </g>
  </g>
  </g>
  <ellipse cx="275.03" cy="84.3022" rx="20.0253" ry="3.1901" transform="rotate(9.26455 275.03 84.3022)" fill="white" fill-opacity="0.45"/>
  <mask id="mask2_737_226365" style="mask-type:alpha" maskUnits="userSpaceOnUse" x="148" y="48" width="54" height="54">
  <path d="M148.568 48.766H201.432V94.3389C201.432 94.3389 195.508 101.448 175 101.448C154.492 101.448 148.568 94.3389 148.568 94.3389V48.766Z" fill="url(#paint4_radial_737_226365)"/>
  </mask>
  <g mask="url(#mask2_737_226365)">
  <rect x="242.223" y="186.006" width="133.35" height="147.652" rx="2" transform="rotate(-171.671 242.223 186.006)" fill="url(#paint5_linear_737_226365)"/>
  <g style="mix-blend-mode:overlay" filter="url(#filter2_f_737_226365)">
  <ellipse cx="251.379" cy="67.7827" rx="241.928" ry="298.276" transform="rotate(0.126655 251.379 67.7827)" fill="url(#paint6_radial_737_226365)"/>
  </g>
  <g opacity="0.5">
  <g style="mix-blend-mode:overlay" opacity="0.5">
  <path d="M118.353 91.6063C95.6489 76.2259 150.098 48.1039 168.742 46.2563H107.268C88.7246 48.2719 83.417 57.5099 83.0811 61.8769V98.6607C88.2879 105.715 98.8821 119.646 131.958 128.39C175.797 139.98 228.666 117.465 210.565 91.6063C196.456 71.4508 149.594 112.77 118.353 91.6063Z" fill="white"/>
  </g>
  <g style="mix-blend-mode:overlay" opacity="0.5">
  <path fill-rule="evenodd" clip-rule="evenodd" d="M189.905 51.799C175.125 54.9903 147.982 62.8846 157.657 68.9312C162.083 71.6979 171.371 71.6965 182.282 71.6948C201.18 71.692 224.948 71.6884 236.767 86.0634C255.896 109.329 240.798 146.026 194.44 160.639C193.794 160.843 193.144 161.047 192.491 161.253C146.264 175.819 82.6407 195.865 119.865 215.059C131.371 220.992 144.159 216.662 157.384 212.184C181.226 204.111 206.486 195.559 228.201 245.796H268.512C239.79 226.648 242.46 189.369 260.954 180.291C282.081 169.919 279.586 149.688 277.802 135.225C277.246 130.717 276.759 126.769 277.078 123.855V51.799H189.905ZM228.201 165.678C221.348 176.562 196.456 182.642 184.866 184.322C175.293 195.911 198.471 190.872 201.999 187.849C205.526 184.826 212.58 191.88 214.596 201.454C216.611 211.028 233.744 209.516 232.736 201.454C231.728 193.392 231.728 184.322 243.318 175.252C254.907 166.182 236.767 152.073 228.201 165.678Z" fill="white"/>
  </g>
  </g>
  <g opacity="0.6">
  <circle cx="154.039" cy="54.7375" r="1.03294" fill="white"/>
  <circle cx="157.165" cy="97.3201" r="1.03294" transform="rotate(75 157.165 97.3201)" fill="white"/>
  <circle cx="162.639" cy="83.1634" r="1.03294" transform="rotate(75 162.639 83.1634)" fill="white"/>
  <circle cx="200.585" cy="76.8458" r="1.03294" transform="rotate(75 200.585 76.8458)" fill="white"/>
  <circle cx="173.154" cy="49.0712" r="1.03294" transform="rotate(75 173.154 49.0712)" fill="white"/>
  <circle cx="170.317" cy="65.0879" r="1.03294" transform="rotate(75 170.317 65.0879)" fill="white"/>
  <circle cx="187.093" cy="65.3425" r="1.03294" fill="white"/>
  <circle cx="190.536" cy="90.4086" r="1.03294" fill="white"/>
  <path d="M175.611 94.7616L175.239 93.7563L174.233 93.3843L175.239 93.0124L175.611 92.0071L175.983 93.0124L176.988 93.3843L175.983 93.7563L175.611 94.7616Z" fill="#FFF7B0"/>
  <path d="M177.674 79.8838L177.023 78.1246L175.264 77.4736L177.023 76.8226L177.674 75.0634L178.325 76.8226L180.084 77.4736L178.325 78.1246L177.674 79.8838Z" fill="#FFF7B0"/>
  </g>
  </g>
  <mask id="mask3_737_226365" style="mask-type:alpha" maskUnits="userSpaceOnUse" x="144" y="39" width="63" height="10">
  <rect x="144.466" y="39.6485" width="61.9792" height="9.11458" rx="2.27865" fill="#C4C4C4"/>
  </mask>
  <g mask="url(#mask3_737_226365)">
  <rect x="309.788" y="117.426" width="166.797" height="166.797" rx="0.911458" transform="rotate(-180 309.788 117.426)" fill="url(#paint7_linear_737_226365)"/>
  <g style="mix-blend-mode:overlay" filter="url(#filter3_f_737_226365)">
  <ellipse cx="299.158" cy="-6.09797" rx="273.297" ry="336.951" transform="rotate(0.126655 299.158 -6.09797)" fill="url(#paint8_radial_737_226365)"/>
  </g>
  <g opacity="0.5">
  <g style="mix-blend-mode:overlay" opacity="0.5">
  <path fill-rule="evenodd" clip-rule="evenodd" d="M257.514 -87.9562C240.817 -84.3511 210.155 -75.4333 221.084 -68.6026C226.085 -65.4772 236.577 -65.4788 248.903 -65.4807C270.251 -65.4839 297.1 -65.4879 310.452 -49.249C332.062 -22.9671 315.006 18.4886 262.638 34.9961C261.908 35.2262 261.173 35.4576 260.435 35.6901C208.214 52.144 136.342 74.7898 178.392 96.4723C191.39 103.174 205.837 98.2828 220.777 93.2245C247.71 84.1054 276.244 74.4441 300.776 131.195H346.313C313.868 109.564 316.883 67.4518 337.775 57.1958C361.642 45.4792 358.823 22.6249 356.808 6.28709C356.18 1.19416 355.63 -3.26554 355.99 -6.55722V-87.9562H257.514ZM300.776 40.6883C293.034 52.9836 264.914 59.8522 251.822 61.7496C241.007 74.8418 267.191 69.1495 271.176 65.7342C275.16 62.3189 283.13 70.288 285.406 81.1032C287.683 91.9185 307.037 90.2108 305.899 81.1032C304.76 71.9957 304.76 61.7496 317.852 51.5036C330.944 41.2576 310.452 25.3193 300.776 40.6883Z" fill="white"/>
  </g>
  <g style="mix-blend-mode:overlay" opacity="0.5">
  <path d="M182.946 20.7655C206.854 20.7655 205.715 40.1191 182.946 44.1036C160.751 47.9878 139.097 54.0354 138.547 65.9375V66.8726C138.532 66.5569 138.533 66.2452 138.547 65.9375V7.66345C147.733 12.8599 165.826 20.7655 182.946 20.7655Z" fill="white"/>
  </g>
  </g>
  <g opacity="0.6">
  <path d="M161.208 46.7651L160.473 44.7777L158.486 44.0424L160.473 43.307L161.208 41.3196L161.944 43.307L163.931 44.0424L161.944 44.7777L161.208 46.7651Z" fill="#7A6F0C"/>
  </g>
  </g>
  <path d="M243.548 194.643C239.376 194.643 235.177 194.643 231.093 194.643M243.548 194.643H231.093M243.548 194.643C247.719 194.643 249.048 194.933 249.852 195.378C250.151 201.466 251.03 207.448 252.474 211.458C256.575 222.852 264.323 232.878 258.398 245.182C253.659 255.026 243.055 261.589 236.068 263.867M231.093 194.643C227.008 194.643 223.083 199.491 223.5 203L219.206 182.713C221.16 183.356 222.7 184.643 227.705 184.643M227.705 184.643C232.711 184.643 241.089 184.643 244.652 184.643M227.705 184.643H244.652M244.652 184.643C245.883 184.56 248.355 184.173 250.065 183.256C250.324 180.527 250.737 178.104 251.305 176.234M318.099 119.71L317.534 123.348C317.421 124.08 316.844 124.645 316.105 124.7C313.541 124.893 307.517 125.12 297.807 123.692C287.929 122.239 280.874 119.745 278.292 118.718M238.118 285.514C249.512 281.109 271.095 270.703 277.083 257.487C284.93 240.169 280.273 228.776 272.07 208.268C266.506 194.357 267.756 184.378 269.933 179.442M246.989 134.224L246.428 137.844C246.313 138.584 246.244 139.305 246.94 139.582C247.769 139.912 249.03 140.384 250.686 140.922M286.467 140.494L285.902 144.132C285.789 144.863 285.668 145.428 284.93 145.483C284.002 145.553 282.562 145.627 280.643 145.626M269.933 179.442C272.032 179.411 273.195 179.171 273.798 178.977C274.186 178.852 274.415 178.504 274.491 178.103L280.643 145.626M269.933 179.442C267.934 179.471 265.087 179.31 261.066 178.74C256.489 178.09 253.382 177.136 251.305 176.234M251.305 176.234C249.412 175.411 248.376 174.63 247.866 174.162C247.573 173.893 247.466 173.496 247.505 173.1L250.686 140.922M280.643 145.626C277.255 145.624 272.373 145.386 266.175 144.475C259.468 143.489 254.191 142.06 250.686 140.922M254.953 133.376C254.623 133.604 254.334 133.682 254.111 133.623C260.48 136.64 271.877 138.651 280.09 137.813C279.475 137.366 277.825 130.941 277.744 126.919C277.672 123.396 278.094 118.246 279.31 113.619C279.409 113.245 279.512 112.875 279.621 112.509M254.953 133.376C256.192 132.523 258.014 129.561 259.139 123.803C260.563 116.511 261.392 110.359 260.221 104.207C259.488 100.352 249.512 83.6988 253.157 78.458C256.803 73.2171 296.849 79.9409 298.36 85.3518C299.87 90.7627 286.58 100.075 282.222 106.612C281.135 108.242 280.28 110.292 279.621 112.509M254.953 133.376C250.192 133.059 247.058 133.268 246.929 134.057C246.709 135.408 255.379 137.946 266.294 139.727C277.21 141.507 286.237 141.856 286.457 140.505C286.577 139.769 284.059 138.681 279.975 137.555M279.621 112.509C282.29 112.032 289.881 112.61 298.724 114.052C309.64 115.833 318.328 118.257 318.131 119.468C317.933 120.678 308.925 120.216 298.009 118.436C288.882 116.947 281.311 115.008 279.192 113.704M294.938 87.5986C294.654 89.3375 285.576 89.3037 274.66 87.5232C263.745 85.7426 255.126 82.8896 255.41 81.1507C255.693 79.4119 264.772 79.4456 275.687 81.2262C286.603 83.0067 295.222 85.8597 294.938 87.5986Z" stroke="black" stroke-width="0.911458"/>
  <path fill-rule="evenodd" clip-rule="evenodd" d="M138.378 217.581C146.902 221.063 159.343 224.547 175 224.547C190.657 224.547 203.098 221.063 211.622 217.581C215.883 215.84 219.165 214.1 221.379 212.798C222.486 212.146 223.326 211.604 223.887 211.226C224.168 211.037 224.379 210.889 224.519 210.789C224.589 210.739 224.642 210.701 224.676 210.676L224.714 210.648L224.723 210.641L224.725 210.639L225 211.003C225.275 211.367 225.274 211.367 225.274 211.367L225.273 211.368L225.27 211.37L225.259 211.379L225.216 211.41C225.178 211.438 225.122 211.479 225.049 211.531C224.902 211.636 224.684 211.789 224.396 211.983C223.82 212.37 222.965 212.922 221.841 213.583C219.594 214.906 216.273 216.666 211.966 218.425C203.352 221.943 190.794 225.459 175 225.459C159.206 225.459 146.648 221.943 138.034 218.425C133.727 216.666 130.406 214.906 128.159 213.583C127.035 212.922 126.18 212.37 125.604 211.983C125.316 211.789 125.098 211.636 124.951 211.531C124.878 211.479 124.822 211.438 124.784 211.41L124.741 211.379L124.73 211.37L124.727 211.368L124.726 211.367C124.726 211.367 124.725 211.367 125 211.003L125.274 210.639L125.277 210.641L125.286 210.648L125.324 210.676C125.358 210.701 125.411 210.739 125.481 210.789C125.621 210.889 125.832 211.037 126.113 211.226C126.674 211.604 127.514 212.146 128.621 212.798C130.835 214.1 134.116 215.84 138.378 217.581Z" fill="black"/>
  <path fill-rule="evenodd" clip-rule="evenodd" d="M212.421 152.22L201.079 96.5182C201.05 96.3765 201.055 96.234 201.089 96.1003V50.1988C201.089 49.0349 202.032 48.0915 203.196 48.0915H203.81C205.068 48.0915 206.089 47.0713 206.089 45.8129V42.193C206.089 40.9346 205.068 39.9144 203.81 39.9144H146.19C144.932 39.9144 143.912 40.9346 143.912 42.193V45.8129C143.912 47.0713 144.932 48.0915 146.19 48.0915H146.804C147.968 48.0915 148.912 49.0349 148.912 50.1988V94.0878C148.912 94.229 148.897 94.3699 148.869 94.5083L125.044 211.517C125.031 211.578 125.038 211.629 125.052 211.666C125.066 211.702 125.088 211.731 125.122 211.755C125.55 212.052 125.767 212.576 125.664 213.094L116.075 261.057L113.89 271.698C111.696 281.696 113.941 292.545 119.538 300.886C125.125 309.212 134.02 314.998 145.141 314.998H205.75C227.941 314.998 242.069 292.541 236.72 269.341L236.715 269.318L235.268 261.05L224.806 213.17C224.725 212.797 224.769 212.457 224.817 212.211C224.841 212.092 224.869 211.976 224.892 211.884L224.895 211.873C224.92 211.771 224.938 211.695 224.952 211.624C224.958 211.592 224.959 211.553 224.949 211.509L212.421 152.22ZM236.162 260.874L237.608 269.136C243.048 292.734 228.693 315.909 205.75 315.909H145.141C122.202 315.909 108.5 292.003 113 271.503L115.182 260.874L124.77 212.915C124.801 212.757 124.735 212.596 124.603 212.504C124.225 212.242 124.059 211.786 124.15 211.335L147.976 94.3264C147.992 94.2479 148 94.1679 148 94.0878V50.1988C148 49.5383 147.465 49.0029 146.804 49.0029H146.19C144.428 49.0029 143 47.5747 143 45.8129V42.193C143 40.4312 144.428 39.0029 146.19 39.0029H203.81C205.572 39.0029 207 40.4312 207 42.193V45.8129C207 47.5747 205.572 49.0029 203.81 49.0029H203.196C202.536 49.0029 202 49.5383 202 50.1988V96.2837C202 96.2937 201.995 96.3028 201.986 96.3074C201.975 96.3128 201.97 96.3247 201.972 96.3363L213.314 152.038L225.841 211.321C225.875 211.482 225.876 211.643 225.847 211.796C225.828 211.895 225.803 211.995 225.778 212.095C225.706 212.389 225.633 212.686 225.696 212.975L236.162 260.874Z" fill="black"/>
  <path fill-rule="evenodd" clip-rule="evenodd" d="M200.919 93.9374C200.919 93.9374 200.918 93.9382 201.432 94.3359C201.947 94.7337 201.946 94.7346 201.946 94.7346L201.945 94.7357L201.943 94.7384L201.937 94.7459L201.918 94.7691C201.903 94.788 201.881 94.814 201.853 94.8465C201.797 94.9116 201.715 95.0029 201.606 95.1166C201.387 95.3441 201.056 95.6614 200.598 96.0384C199.682 96.7928 198.255 97.7849 196.185 98.7768C192.041 100.761 185.337 102.737 175.006 102.822C164.669 102.907 157.959 100.931 153.811 98.9011C151.738 97.8865 150.31 96.8609 149.393 96.0785C148.935 95.6875 148.605 95.3577 148.386 95.1211C148.276 95.0027 148.195 94.9077 148.139 94.8401C148.111 94.8062 148.089 94.7792 148.074 94.7595L148.055 94.7356L148.049 94.7278L148.047 94.725L148.046 94.7239C148.046 94.7239 148.046 94.723 148.568 94.3359C149.09 93.9489 149.09 93.9482 149.09 93.9482L149.097 93.9583C149.106 93.9689 149.12 93.9868 149.14 94.0115C149.181 94.061 149.247 94.1378 149.34 94.2381C149.525 94.4385 149.819 94.7328 150.237 95.0896C151.073 95.8029 152.41 96.7679 154.382 97.7334C158.326 99.6634 164.832 101.606 174.995 101.522C185.163 101.438 191.675 99.4955 195.623 97.6043C197.598 96.6584 198.936 95.7232 199.772 95.0347C200.191 94.6903 200.484 94.4072 200.669 94.2148C200.762 94.1185 200.828 94.0449 200.869 93.9976C200.889 93.974 200.903 93.9569 200.911 93.9468L200.919 93.9374Z" fill="black"/>
  <defs>
  <filter id="filter0_d_737_226365" x="110.059" y="211.038" width="132.16" height="109.112" filterUnits="userSpaceOnUse" color-interpolation-filters="sRGB">
  <feFlood flood-opacity="0" result="BackgroundImageFix"/>
  <feColorMatrix in="SourceAlpha" type="matrix" values="0 0 0 0 0 0 0 0 0 0 0 0 0 0 0 0 0 0 127 0" result="hardAlpha"/>
  <feOffset dx="0.455729" dy="2.73438"/>
  <feGaussianBlur stdDeviation="1.36719"/>
  <feComposite in2="hardAlpha" operator="out"/>
  <feColorMatrix type="matrix" values="0 0 0 0 0 0 0 0 0 0 0 0 0 0 0 0 0 0 0.25 0"/>
  <feBlend mode="normal" in2="BackgroundImageFix" result="effect1_dropShadow_737_226365"/>
  <feBlend mode="normal" in="SourceGraphic" in2="effect1_dropShadow_737_226365" result="shape"/>
  </filter>
  <filter id="filter1_f_737_226365" x="-14.1193" y="-95.4355" width="555.71" height="683.015" filterUnits="userSpaceOnUse" color-interpolation-filters="sRGB">
  <feFlood flood-opacity="0" result="BackgroundImageFix"/>
  <feBlend mode="normal" in="SourceGraphic" in2="BackgroundImageFix" result="shape"/>
  <feGaussianBlur stdDeviation="2.27865" result="effect1_foregroundBlur_737_226365"/>
  </filter>
  <filter id="filter2_f_737_226365" x="5.41599" y="-234.527" width="491.926" height="604.619" filterUnits="userSpaceOnUse" color-interpolation-filters="sRGB">
  <feFlood flood-opacity="0" result="BackgroundImageFix"/>
  <feBlend mode="normal" in="SourceGraphic" in2="BackgroundImageFix" result="shape"/>
  <feGaussianBlur stdDeviation="2.0171" result="effect1_foregroundBlur_737_226365"/>
  </filter>
  <filter id="filter3_f_737_226365" x="21.3026" y="-347.606" width="555.71" height="683.015" filterUnits="userSpaceOnUse" color-interpolation-filters="sRGB">
  <feFlood flood-opacity="0" result="BackgroundImageFix"/>
  <feBlend mode="normal" in="SourceGraphic" in2="BackgroundImageFix" result="shape"/>
  <feGaussianBlur stdDeviation="2.27865" result="effect1_foregroundBlur_737_226365"/>
  </filter>
  <linearGradient id="paint0_linear_737_226365" x1="462.101" y1="262.573" x2="518.185" y2="572.649" gradientUnits="userSpaceOnUse">
  <stop stop-color="#003802"/>
  <stop offset="0.473958" stop-color="#00B806" stop-opacity="0.98"/>
  <stop offset="1" stop-color="#B5FFB7" stop-opacity="0.98"/>
  </linearGradient>
  <radialGradient id="paint1_radial_737_226365" cx="0" cy="0" r="1" gradientUnits="userSpaceOnUse" gradientTransform="translate(231.779 200.521) rotate(136.943) scale(153.528 198.077)">
  <stop stop-color="#FF0000"/>
  <stop offset="0.530354" stop-color="#FFE925"/>
  <stop offset="1" stop-color="#289B04"/>
  </radialGradient>
  <linearGradient id="paint2_linear_737_226365" x1="460.777" y1="473.959" x2="295.018" y2="491.935" gradientUnits="userSpaceOnUse">
  <stop stop-color="#003802"/>
  <stop offset="0.473958" stop-color="#00B806" stop-opacity="0.98"/>
  <stop offset="1" stop-color="#003802"/>
  </linearGradient>
  <radialGradient id="paint3_radial_737_226365" cx="0" cy="0" r="1" gradientUnits="userSpaceOnUse" gradientTransform="translate(263.736 295.833) rotate(92.5586) scale(219.36 178.105)">
  <stop offset="0.479167" stop-color="white" stop-opacity="0.75"/>
  <stop offset="1" stop-color="white" stop-opacity="0"/>
  </radialGradient>
  <radialGradient id="paint4_radial_737_226365" cx="0" cy="0" r="1" gradientUnits="userSpaceOnUse" gradientTransform="translate(198.491 43.4424) rotate(132.639) scale(69.3519 89.3771)">
  <stop stop-color="#FF0000"/>
  <stop offset="0.530354" stop-color="#FFE925"/>
  <stop offset="1" stop-color="#6DF244"/>
  </radialGradient>
  <linearGradient id="paint5_linear_737_226365" x1="350.843" y1="278.609" x2="301.763" y2="283.416" gradientUnits="userSpaceOnUse">
  <stop stop-color="#003802"/>
  <stop offset="0.473958" stop-color="#00B806" stop-opacity="0.98"/>
  <stop offset="1" stop-color="#003802"/>
  </linearGradient>
  <radialGradient id="paint6_radial_737_226365" cx="0" cy="0" r="1" gradientUnits="userSpaceOnUse" gradientTransform="translate(251.379 111.832) rotate(92.5586) scale(194.182 157.662)">
  <stop offset="0.479167" stop-color="white" stop-opacity="0.75"/>
  <stop offset="1" stop-color="white" stop-opacity="0"/>
  </radialGradient>
  <linearGradient id="paint7_linear_737_226365" x1="482.402" y1="222.036" x2="408.531" y2="230.048" gradientUnits="userSpaceOnUse">
  <stop stop-color="#003802"/>
  <stop offset="0.473958" stop-color="#00B806" stop-opacity="0.98"/>
  <stop offset="1" stop-color="#003802"/>
  </linearGradient>
  <radialGradient id="paint8_radial_737_226365" cx="0" cy="0" r="1" gradientUnits="userSpaceOnUse" gradientTransform="translate(299.158 43.6627) rotate(92.5586) scale(219.36 178.105)">
  <stop offset="0.479167" stop-color="white" stop-opacity="0.75"/>
  <stop offset="1" stop-color="white" stop-opacity="0"/>
  </radialGradient>
  </defs>
  
    
    </svg>
  