
    <svg width="350" height="350" viewBox="0 0 350 350" fill="none" xmlns="http://www.w3.org/2000/svg">
    
  <!-- Peach BG -->
  <g clip-path="url(#clip0_28_283)">
  <rect width="350" height="350" fill="white"/>
  <rect x="0.0800781" y="0.0449219" width="350" height="350" fill="#FFA19B"/>
  <path d="M125.979 290.538L299.833 190.751L430.988 233.879L212.56 294.049L125.979 290.538Z" fill="url(#paint0_linear_28_283)" fill-opacity="0.1"/>
  <g opacity="0.45" filter="url(#filter0_f_28_283)">
  <ellipse rx="194.596" ry="66.7643" transform="matrix(0.999998 0.00221055 0.00221055 -0.999998 176.078 304.638)" fill="url(#paint1_radial_28_283)"/>
  </g>
  <g opacity="0.7" filter="url(#filter1_f_28_283)">
  <ellipse cx="174.396" cy="137.609" rx="196.647" ry="242.448" transform="rotate(0.126655 174.396 137.609)" fill="url(#paint2_radial_28_283)"/>
  </g>
  </g>
  <defs>
  <filter id="filter0_f_28_283" x="-23.0756" y="233.315" width="398.306" height="142.646" filterUnits="userSpaceOnUse" color-interpolation-filters="sRGB">
  <feFlood flood-opacity="0" result="BackgroundImageFix"/>
  <feBlend mode="normal" in="SourceGraphic" in2="BackgroundImageFix" result="shape"/>
  <feGaussianBlur stdDeviation="2.27865" result="effect1_foregroundBlur_28_283"/>
  </filter>
  <filter id="filter1_f_28_283" x="-26.8085" y="-109.396" width="402.409" height="494.01" filterUnits="userSpaceOnUse" color-interpolation-filters="sRGB">
  <feFlood flood-opacity="0" result="BackgroundImageFix"/>
  <feBlend mode="normal" in="SourceGraphic" in2="BackgroundImageFix" result="shape"/>
  <feGaussianBlur stdDeviation="2.27865" result="effect1_foregroundBlur_28_283"/>
  </filter>
  <linearGradient id="paint0_linear_28_283" x1="194.836" y1="271.638" x2="316.538" y2="167.936" gradientUnits="userSpaceOnUse">
  <stop/>
  <stop offset="1" stop-color="#333333" stop-opacity="0"/>
  </linearGradient>
  <radialGradient id="paint1_radial_28_283" cx="0" cy="0" r="1" gradientUnits="userSpaceOnUse" gradientTransform="translate(194.596 76.624) rotate(99.1226) scale(43.9775 125.337)">
  <stop offset="0.229167" stop-color="#CF0000"/>
  <stop offset="0.90625" stop-color="#CF0000" stop-opacity="0"/>
  </radialGradient>
  <radialGradient id="paint2_radial_28_283" cx="0" cy="0" r="1" gradientUnits="userSpaceOnUse" gradientTransform="translate(174.396 173.413) rotate(92.5586) scale(157.837 128.153)">
  <stop offset="0.229167" stop-color="#CF0000"/>
  <stop offset="0.90625" stop-color="#CF0000" stop-opacity="0"/>
  </radialGradient>
  <clipPath id="clip0_28_283">
  <rect width="350" height="350" fill="white"/>
  </clipPath>
  </defs>

    
    
    
  <!-- Normal Glass -->
    <path d="M148.717 95L125.019 209.98C124.948 210.324 125.078 210.673 125.367 210.873C128.479 213.027 147.033 225 175 225C202.967 225 221.521 213.027 224.633 210.873C224.922 210.673 225.052 210.324 224.981 209.98L201.283 95C201.249 95.0666 201.205 95.1285 201.15 95.1836C199.818 96.5241 193.18 102.106 175 102.106C156.82 102.106 150.182 96.5241 148.85 95.1836C148.795 95.1285 148.751 95.0666 148.717 95Z" fill="#FFFFFF" fill-opacity="0.6"/>
  
    
    
    <!-- Lava 1 -->
    <!-- Color -->
    <!-- filter -->
    <path d="M201.33 94.2312L205.4 114.032C203.808 113.761 202.153 113.448 200.459 113.128C186.293 110.453 169.479 107.277 165.223 123.731C163.365 130.915 166.057 135.213 168.676 139.394C171.205 143.431 173.665 147.359 171.9 153.669C169.751 161.35 158.067 166.325 148.671 162.995C138.746 159.477 139.443 144.904 145.148 137.85C150.853 130.795 151.677 120.031 150.853 112.871C150.454 109.41 148.742 106.935 146.502 105.251L148.841 93.8809C148.875 93.9478 148.92 94.0101 148.975 94.0656C150.853 95.9589 156.979 101.03 175.237 101.03C192.824 101.03 199.656 95.8196 201.33 94.2312Z" fill="url(#paint0_radial_931_113783)"/>
    <mask id="mask0_931_113783" style="mask-type:alpha" maskUnits="userSpaceOnUse" x="141" y="93" width="65" height="72">
    <path d="M201.33 94.2302L205.4 114.031C203.808 113.76 202.153 113.447 200.459 113.127C186.293 110.452 169.479 107.276 165.223 123.73C163.365 130.914 166.057 135.212 168.676 139.393C171.205 143.43 173.665 147.358 171.9 153.668C169.751 161.349 158.067 166.324 148.671 162.994C138.746 159.476 139.443 144.903 145.148 137.849C150.853 130.794 151.677 120.03 150.853 112.87C150.454 109.409 148.742 106.934 146.502 105.25L148.841 93.8799C148.875 93.9469 148.92 94.0092 148.975 94.0646C150.313 95.4133 156.979 101.029 175.237 101.029C192.824 101.029 199.656 95.8187 201.33 94.2302Z" fill="url(#paint1_radial_931_113783)"/>
    </mask>
    <g mask="url(#mask0_931_113783)">
    <g filter="url(#filter0_f_931_113783)">
    <mask id="mask1_931_113783" style="mask-type:alpha" maskUnits="userSpaceOnUse" x="125" y="94" width="101" height="132">
    <path d="M149.015 95.0639C149.102 94.6401 149.475 94.3359 149.907 94.3359H200.399C200.831 94.3359 201.205 94.6401 201.292 95.0639L225.146 211.159C225.227 211.555 225.041 211.955 224.68 212.137C220.777 214.109 198.528 224.817 175.153 225.128C151.731 225.438 129.441 214.178 125.603 212.141C125.253 211.954 125.077 211.562 125.157 211.173L149.015 95.0639Z" fill="#577096" fill-opacity="0.75"/>
    </mask>
    <g mask="url(#mask1_931_113783)">
    <g filter="url(#filter1_f_931_113783)">
    <path d="M207.362 76.1064C211.019 110.268 146.094 132.571 113.174 139.453L113.174 76.1064L207.362 76.1064Z" fill="url(#paint2_linear_931_113783)" fill-opacity="0.5"/>
    </g>
    <g filter="url(#filter2_f_931_113783)">
    <path d="M155.56 125.301C156.622 105.018 134.624 86.1828 129.082 66.9985C133.541 65.1973 144.203 70.7896 152.828 76.1247C163.609 82.7936 163.032 109.124 164.778 125.784C166.175 139.112 148.606 223.401 144.168 241.481L131.869 240.837C140.395 214.68 154.74 140.955 155.56 125.301Z" fill="url(#paint3_linear_931_113783)" fill-opacity="0.6"/>
    </g>
    </g>
    </g>
    </g>
    <defs>
    <filter id="filter0_f_931_113783" x="122.744" y="92.0573" width="104.986" height="135.355" filterUnits="userSpaceOnUse" color-interpolation-filters="sRGB">
    <feFlood flood-opacity="0" result="BackgroundImageFix"/>
    <feBlend mode="normal" in="SourceGraphic" in2="BackgroundImageFix" result="shape"/>
    <feGaussianBlur stdDeviation="1.13932" result="effect1_foregroundBlur_931_113783"/>
    </filter>
    <filter id="filter1_f_931_113783" x="112.262" y="75.195" width="96.1589" height="65.1696" filterUnits="userSpaceOnUse" color-interpolation-filters="sRGB">
    <feFlood flood-opacity="0" result="BackgroundImageFix"/>
    <feBlend mode="normal" in="SourceGraphic" in2="BackgroundImageFix" result="shape"/>
    <feGaussianBlur stdDeviation="0.455729" result="effect1_foregroundBlur_931_113783"/>
    </filter>
    <filter id="filter2_f_931_113783" x="128.17" y="65.7428" width="37.5978" height="176.65" filterUnits="userSpaceOnUse" color-interpolation-filters="sRGB">
    <feFlood flood-opacity="0" result="BackgroundImageFix"/>
    <feBlend mode="normal" in="SourceGraphic" in2="BackgroundImageFix" result="shape"/>
    <feGaussianBlur stdDeviation="0.455729" result="effect1_foregroundBlur_931_113783"/>
    </filter>
    <radialGradient id="paint0_radial_931_113783" cx="0" cy="0" r="1" gradientUnits="userSpaceOnUse" gradientTransform="translate(156.087 109.102) rotate(53.0717) scale(37.8406 40.3077)">
    <stop offset="0.203125" style="stop-color: #F85449;"/>
    <stop offset="0.890625" style="stop-color: #C53434;"/>
    </radialGradient>
    <radialGradient id="paint1_radial_931_113783" cx="0" cy="0" r="1" gradientUnits="userSpaceOnUse" gradientTransform="translate(156.087 109.101) rotate(53.0717) scale(37.8406 40.3077)">
    <stop offset="0.203125" stop-color="#71FF30"/>
    <stop offset="0.890625" stop-color="#25BC46"/>
    </radialGradient>
    <linearGradient id="paint2_linear_931_113783" x1="145.368" y1="123.01" x2="155.982" y2="72.2914" gradientUnits="userSpaceOnUse">
    <stop stop-color="white" stop-opacity="0"/>
    <stop offset="0.471361" stop-color="white"/>
    <stop offset="1" stop-color="white"/>
    </linearGradient>
    <linearGradient id="paint3_linear_931_113783" x1="160.882" y1="220.938" x2="202.107" y2="178" gradientUnits="userSpaceOnUse">
    <stop stop-color="#F2F2F2"/>
    <stop offset="0.0001" stop-color="#F2F2F2"/>
    <stop offset="0.0520833" stop-color="#F2F2F2" stop-opacity="0.948011"/>
    <stop offset="1" stop-color="#F2F2F2" stop-opacity="0"/>
    </linearGradient>
    </defs>
  
    
  <!-- Lava 2 -->
    <!-- Color -->
<path d="M178.202 131.059C178.202 128.163 180.222 122.394 188.299 122.479C196.377 122.565 198.468 128.235 198.504 131.059C198.576 133.132 197.365 137.622 191.952 138.995C185.184 140.711 178.202 136.85 178.202 131.059Z" fill="url(#paint0_radial_931_113845)"/>
<defs>
<radialGradient id="paint0_radial_931_113845" cx="0" cy="0" r="1" gradientUnits="userSpaceOnUse" gradientTransform="translate(182.959 126.151) rotate(45.5119) scale(10.2292 11.3416)">
<stop offset="0.203125" style="stop-color: #71FF30;"/>
<stop offset="0.890625" style="stop-color: #25BC46;"/>
</radialGradient>
</defs>
  
    
  <!-- Lava 3 -->
    <!-- Color -->
    <path d="M214.381 157.604L219.2 181.084C217.285 183.349 214.448 185.339 210.334 186.382C197.471 189.642 184.2 182.306 184.2 171.303C184.2 165.801 188.039 154.839 203.392 155.002C208.021 155.051 211.616 156.065 214.381 157.604Z" fill="url(#paint0_radial_931_113862)"/>
<defs>
<radialGradient id="paint0_radial_931_113862" cx="0" cy="0" r="1" gradientUnits="userSpaceOnUse" gradientTransform="translate(192.4 161.977) rotate(48.2936) scale(18.5718 20.4588)">
<stop offset="0.203125" style="stop-color: #FFB800;"/>
<stop offset="0.890625" style="stop-color: #FF7800;"/>
</radialGradient>
</defs>
  
    
  <!-- Lava 4 -->
    <!-- Color -->
    <path d="M225 210.659C220.5 214 200.704 225 175.402 225C147.201 225 128.492 213.024 125.354 210.869C125.163 210.738 125.042 210.543 125 210.328C128.968 198.996 144.393 175.959 164.496 181.99C174.451 184.976 181.421 192.474 187.975 199.525C198.127 210.446 208 213.5 225 210.659C224.675 211.045 225.345 210.27 225 210.659Z" fill="url(#paint0_radial_931_113863)"/>
<mask id="mask0_931_113863" style="mask-type:alpha" maskUnits="userSpaceOnUse" x="124" y="180" width="101" height="45">
<path d="M223.866 211.799C218.236 215.343 200.575 225 175.272 225C147.071 225 128.362 213.003 125.225 210.845C125.034 210.714 124.912 210.519 124.87 210.303C128.839 198.951 144.263 175.875 164.366 181.916C174.321 184.908 181.291 192.418 187.845 199.481C197.997 210.421 207.154 220.288 224.87 210.635C224.545 211.021 224.21 211.409 223.866 211.799Z" fill="url(#paint1_radial_931_113863)"/>
</mask>
<g mask="url(#mask0_931_113863)">
<g filter="url(#filter0_f_931_113863)">
<mask id="mask1_931_113863" style="mask-type:alpha" maskUnits="userSpaceOnUse" x="124" y="94" width="102" height="132">
<path d="M148.862 95.3198C148.949 94.896 149.322 94.5918 149.755 94.5918H200.246C200.679 94.5918 201.052 94.896 201.139 95.3198L224.993 211.414C225.075 211.811 224.888 212.211 224.527 212.393C220.624 214.365 198.376 225.073 175 225.383C151.578 225.694 129.288 214.434 125.45 212.396C125.1 212.21 124.924 211.818 125.004 211.429L148.862 95.3198Z" fill="#577096" fill-opacity="0.75"/>
</mask>
<g mask="url(#mask1_931_113863)">
<g filter="url(#filter1_f_931_113863)">
<path d="M155.407 125.557C156.47 105.273 134.471 86.4386 128.929 67.2543C133.388 65.4531 144.05 71.0455 152.675 76.3806C163.456 83.0494 162.879 109.38 164.625 126.04C166.022 139.368 148.453 223.657 144.015 241.737L131.716 241.093C140.242 214.936 154.587 141.211 155.407 125.557Z" fill="url(#paint2_linear_931_113863)" fill-opacity="0.6"/>
</g>
</g>
</g>
</g>
<defs>
<filter id="filter0_f_931_113863" x="122.591" y="92.3132" width="105.59" height="135.355" filterUnits="userSpaceOnUse" color-interpolation-filters="sRGB">
<feFlood flood-opacity="0" result="BackgroundImageFix"/>
<feBlend mode="normal" in="SourceGraphic" in2="BackgroundImageFix" result="shape"/>
<feGaussianBlur stdDeviation="1.13932" result="effect1_foregroundBlur_931_113863"/>
</filter>
<filter id="filter1_f_931_113863" x="128.017" y="65.9987" width="37.5983" height="176.65" filterUnits="userSpaceOnUse" color-interpolation-filters="sRGB">
<feFlood flood-opacity="0" result="BackgroundImageFix"/>
<feBlend mode="normal" in="SourceGraphic" in2="BackgroundImageFix" result="shape"/>
<feGaussianBlur stdDeviation="0.455729" result="effect1_foregroundBlur_931_113863"/>
</filter>
<radialGradient id="paint0_radial_931_113863" cx="0" cy="0" r="1" gradientUnits="userSpaceOnUse" gradientTransform="translate(148.451 190.545) rotate(28.2255) scale(40.1081 37.0676)">
<stop offset="0.203125" style="stop-color: #321A93;"/>
<stop offset="0.890625" style="stop-color: #3603FF;"/>
</radialGradient>
<radialGradient id="paint1_radial_931_113863" cx="0" cy="0" r="1" gradientUnits="userSpaceOnUse" gradientTransform="translate(146.382 191.229) rotate(27.0849) scale(58.9221 42.3164)">
<stop offset="0.302083" stop-color="#FFB800"/>
<stop offset="1" stop-color="#FF7800"/>
</radialGradient>
<linearGradient id="paint2_linear_931_113863" x1="160.729" y1="221.194" x2="201.954" y2="178.256" gradientUnits="userSpaceOnUse">
<stop stop-color="#F2F2F2"/>
<stop offset="0.0001" stop-color="#F2F2F2"/>
<stop offset="0.0520833" stop-color="#F2F2F2" stop-opacity="0.948011"/>
<stop offset="1" stop-color="#F2F2F2" stop-opacity="0"/>
</linearGradient>
</defs>
  
  
    
  <!-- Rainbow Cat -->
  <g filter="url(#filter0_d_954_417013)">
  <path d="M231 315.133L204.528 285H174.802H145.255L119 315.133C119 315.133 136.809 335 175 335C213.191 335 231 315.133 231 315.133Z" fill="black"/>
  </g>
  <path d="M221.418 304.643L202.51 283.352C202.314 283.131 202.023 283.019 201.729 283.051L174.952 285.989C174.885 285.996 174.819 285.996 174.752 285.989L148.111 283.052C147.816 283.019 147.524 283.133 147.328 283.356L128.577 304.643C128.254 305.009 128.268 305.551 128.635 305.873C132.101 308.916 149.518 323 175 323C200.476 323 217.89 308.924 221.362 305.876C221.73 305.553 221.743 305.009 221.418 304.643Z" fill="url(#paint0_linear_954_417013)"/>
  <mask id="mask0_954_417013" style="mask-type:alpha" maskUnits="userSpaceOnUse" x="128" y="283" width="94" height="41">
  <path d="M221.418 304.643L202.51 283.352C202.314 283.131 202.023 283.019 201.729 283.051L174.952 285.989C174.885 285.996 174.819 285.996 174.752 285.989L148.111 283.052C147.816 283.019 147.524 283.133 147.328 283.356L128.577 304.643C128.254 305.009 128.268 305.551 128.635 305.873C132.101 308.916 149.518 323 175 323C200.476 323 217.89 308.924 221.362 305.876C221.73 305.553 221.743 305.009 221.418 304.643Z" fill="url(#paint1_linear_954_417013)"/>
  </mask>
  <g mask="url(#mask0_954_417013)">
  <path d="M113.323 356.225C113.323 356.225 129.225 334.579 122.665 312.024C116.845 292.012 80.8042 283.664 75.3869 254.732C69.9695 225.8 83.5568 197.259 83.5568 197.259L101.267 193.943C101.267 193.943 87.5856 220.294 93.4024 251.359C96.0526 265.513 134.858 289.61 140.363 308.711C146.941 331.531 131.033 352.909 131.033 352.909L113.323 356.225Z" fill="url(#paint2_radial_954_417013)"/>
  <path d="M132.359 353.283C132.359 353.283 147.297 331.817 140.851 309.242C135.131 289.21 100.755 280.551 95.338 251.619C89.9207 222.687 102.593 194.317 102.593 194.317L119.418 191.166C119.418 191.166 106.636 217.349 112.453 248.414C115.103 262.568 152.252 286.976 157.664 306.094C164.13 328.935 149.184 350.133 149.184 350.133L132.359 353.283Z" fill="url(#paint3_radial_954_417013)"/>
  <path d="M147.857 349.76C147.857 349.76 163.759 328.114 157.2 305.56C151.379 285.547 115.338 277.199 109.921 248.267C104.504 219.335 118.091 190.794 118.091 190.794L135.801 187.478C135.801 187.478 122.12 213.829 127.937 244.894C130.587 259.048 169.392 283.145 174.898 302.246C181.475 325.066 165.567 346.444 165.567 346.444L147.857 349.76Z" fill="url(#paint4_radial_954_417013)"/>
  <path d="M165.567 346.444C165.567 346.444 181.469 324.798 174.91 302.243C169.089 282.23 133.048 273.883 127.631 244.951C122.214 216.019 135.801 187.477 135.801 187.477L153.511 184.161C153.511 184.161 139.83 210.513 145.646 241.577C148.297 255.731 187.102 279.829 192.607 298.929C199.185 321.75 183.277 343.127 183.277 343.127L165.567 346.444Z" fill="url(#paint5_radial_954_417013)"/>
  <path d="M183.278 343.127C183.278 343.127 199.18 321.481 192.62 298.927C186.8 278.914 150.759 270.566 145.342 241.635C139.925 212.703 153.512 184.161 153.512 184.161L171.222 180.845C171.222 180.845 157.541 207.196 163.357 238.261C166.008 252.415 204.813 276.512 210.318 295.613C216.896 318.434 200.988 339.811 200.988 339.811L183.278 343.127Z" fill="url(#paint6_radial_954_417013)"/>
  <path d="M200.988 339.812C200.988 339.812 216.89 318.166 210.33 295.611C204.51 275.598 168.469 267.251 163.052 238.319C157.635 209.387 171.222 180.846 171.222 180.846L188.932 177.529C188.932 177.529 175.251 203.881 181.067 234.945C183.718 249.1 222.523 273.197 228.028 292.297C234.606 315.118 218.698 336.496 218.698 336.496L200.988 339.812Z" fill="url(#paint7_radial_954_417013)"/>
  <path d="M218.698 336.496C218.698 336.496 234.6 314.85 228.04 292.295C222.22 272.283 186.179 263.935 180.762 235.003C175.345 206.071 188.932 177.53 188.932 177.53L206.642 174.214C206.642 174.214 192.961 200.565 198.777 231.63C201.428 245.784 240.233 269.881 245.738 288.982C252.316 311.802 236.408 333.18 236.408 333.18L218.698 336.496Z" fill="url(#paint8_radial_954_417013)"/>
  <path d="M236.407 333.179C236.407 333.179 252.31 311.533 245.75 288.979C239.93 268.966 203.889 260.618 198.472 231.687C193.054 202.755 206.642 174.213 206.642 174.213L224.352 170.897C224.352 170.897 210.671 197.248 216.487 228.313C219.138 242.467 257.943 266.564 263.448 285.665C270.026 308.486 254.118 329.863 254.118 329.863L236.407 333.179Z" fill="url(#paint9_radial_954_417013)"/>
  </g>
  <g filter="url(#filter1_d_954_417013)">
  <path fill-rule="evenodd" clip-rule="evenodd" d="M172.443 335.748C176.998 336.883 181.61 334.112 182.746 329.558C183.881 325.003 181.11 320.39 176.555 319.255C172.002 318.119 167.389 320.891 166.255 325.446C165.119 329.999 167.89 334.612 172.443 335.748ZM176.379 324.145C177.556 324.551 178.417 325.159 178.248 326.29C178.126 327.118 177.667 327.519 177.057 327.659C177.894 328.095 178.32 328.763 177.914 329.922C177.411 331.36 176.215 331.481 174.624 331.18L174.238 332.727L173.306 332.495L173.687 330.969C173.445 330.909 173.198 330.845 172.943 330.776L172.561 332.309L171.629 332.077L172.015 330.527C171.928 330.505 171.841 330.482 171.753 330.459C171.62 330.424 171.486 330.389 171.351 330.355L170.137 330.053L170.6 328.985C170.6 328.985 171.287 329.168 171.278 329.154C171.542 329.22 171.659 329.048 171.705 328.933L172.315 326.487C172.338 326.493 172.36 326.499 172.382 326.504C172.393 326.507 172.403 326.509 172.414 326.512C172.376 326.497 172.343 326.487 172.317 326.481L172.752 324.735C172.763 324.537 172.695 324.287 172.317 324.193C172.332 324.183 171.64 324.024 171.64 324.024L171.888 323.028L173.174 323.349L173.173 323.354C173.367 323.402 173.566 323.448 173.769 323.494L174.151 321.962L175.083 322.195L174.709 323.696C174.959 323.754 175.211 323.811 175.456 323.872L175.828 322.38L176.761 322.613L176.379 324.145ZM173.428 329.701C174.189 329.902 175.853 330.341 176.117 329.278C176.388 328.192 174.775 327.83 173.988 327.653C173.9 327.634 173.822 327.616 173.759 327.6L173.246 329.653C173.299 329.666 173.36 329.683 173.428 329.701ZM174.146 326.7C174.78 326.87 176.165 327.239 176.406 326.273C176.652 325.285 175.307 324.988 174.65 324.842C174.576 324.826 174.511 324.811 174.457 324.798L173.993 326.66C174.037 326.671 174.088 326.685 174.146 326.7Z" fill="#FDF21B"/>
  </g>
  <g filter="url(#filter2_d_954_417013)">
  <ellipse cx="175.5" cy="317" rx="0.5" ry="3" fill="#FDF21B"/>
  </g>
  <path fill-rule="evenodd" clip-rule="evenodd" d="M273.846 190.72C281.824 189.988 286.872 182.854 288.113 174.946C288.746 170.915 288.734 166.253 287.267 162.097C285.859 158.11 283.055 154.377 277.552 151.912C271.585 149.238 266.835 148.971 262.802 149.948C258.662 150.95 254.76 153.388 250.767 157.006C243.492 163.597 237.357 178.332 242.83 193.883C243.838 196.745 245.347 199.759 247.154 203.368C247.253 203.564 247.352 203.763 247.452 203.963C249.335 207.725 251.44 211.994 253.112 216.722C256.524 226.363 258.12 237.868 253.387 252.024C248.866 265.543 243.324 273.029 238.407 277.155C235.95 279.217 233.706 280.39 231.933 281.049C231.052 281.377 230.3 281.574 229.711 281.691C229.417 281.749 229.164 281.788 228.957 281.813C228.854 281.826 228.762 281.836 228.682 281.843C228.655 281.845 228.63 281.847 228.607 281.849C228.594 281.85 228.582 281.851 228.571 281.851L228.522 281.855L228.5 281.856L228.489 281.857C228.483 281.857 228.478 281.857 228.223 276.848C227.967 271.839 227.962 271.84 227.957 271.84L227.947 271.84L227.928 271.842L227.892 271.844C227.869 271.846 227.849 271.847 227.832 271.849C227.797 271.852 227.772 271.854 227.757 271.856C227.742 271.858 227.737 271.859 227.743 271.858C227.748 271.857 227.761 271.855 227.782 271.851C227.872 271.833 228.109 271.779 228.469 271.645C229.178 271.381 230.423 270.786 231.994 269.467C235.132 266.834 239.8 261.115 243.901 248.852C247.788 237.226 246.501 228.06 243.682 220.092C242.24 216.015 240.393 212.244 238.508 208.476C238.379 208.218 238.249 207.959 238.119 207.7C236.405 204.281 234.621 200.723 233.394 197.238C226.482 177.595 234.014 158.678 244.067 149.569C248.736 145.338 254.099 141.739 260.472 140.196C266.952 138.628 273.962 139.307 281.649 142.751C289.801 146.403 294.437 152.325 296.699 158.732C298.901 164.969 298.789 171.441 297.997 176.487C296.388 186.733 289.184 199.386 274.737 200.71C266.903 201.428 260.222 196.988 257.038 191.002C253.754 184.831 254.031 176.704 260.281 170.521C262.25 168.574 265.418 168.592 267.356 170.562C269.295 172.532 269.27 175.708 267.301 177.656C264.529 180.398 264.449 183.599 265.868 186.267C267.385 189.12 270.467 191.029 273.846 190.72Z" fill="url(#paint10_linear_954_417013)"/>
  <g filter="url(#filter3_d_954_417013)">
  <path d="M125.09 210C125.09 210 148.271 225.078 175.227 225.078C202.182 225.078 224.91 210 224.91 210C228.413 225.043 244.73 263.538 232.554 283.04C217.231 307.583 200.37 316 175 316C149.63 316 132.769 307.583 117.446 283.04C105.27 263.538 121.587 225.043 125.09 210Z" fill="#0C011C"/>
  </g>
  <path d="M240.364 205.406C222.137 202.354 202.814 217.275 191 224.482C226.441 230.587 235.301 255.857 235.301 269C247.537 248.649 258.591 208.459 240.364 205.406Z" fill="#0C011C"/>
  <path d="M234.599 214.6C221.305 212.416 209.741 223.092 201.124 228.248C218.844 230.845 233.438 248.152 233.438 257.555C242.363 242.995 247.894 216.784 234.599 214.6Z" fill="url(#paint11_linear_954_417013)"/>
  <path d="M110.636 205.406C128.863 202.354 148.186 217.275 160 224.482C124.559 230.587 115.699 255.857 115.699 269C103.463 248.649 92.4092 208.459 110.636 205.406Z" fill="#0C011C"/>
  <path d="M116.401 214.6C129.695 212.416 141.259 223.092 149.876 228.248C132.156 230.845 117.562 248.152 117.562 257.555C108.637 242.995 103.106 216.784 116.401 214.6Z" fill="url(#paint12_linear_954_417013)"/>
  <path fill-rule="evenodd" clip-rule="evenodd" d="M149 276C157.284 276 164 269.284 164 261C164 260.756 163.994 260.514 163.983 260.273C163.65 267.509 157.679 273.273 150.361 273.273C142.83 273.273 136.725 267.168 136.725 259.636C136.725 252.328 142.474 246.362 149.697 246.016C149.466 246.005 149.234 246 149 246C140.716 246 134 252.716 134 261C134 269.284 140.716 276 149 276Z" fill="url(#paint13_angular_954_417013)"/>
  <circle cx="150.363" cy="254.183" r="2.72727" fill="white"/>
  <circle cx="157.186" cy="258.273" r="1.36364" fill="white"/>
  <path fill-rule="evenodd" clip-rule="evenodd" d="M201 276C192.716 276 186 269.284 186 261C186 260.758 186.006 260.517 186.017 260.277C186.352 267.511 192.322 273.273 199.639 273.273C207.17 273.273 213.275 267.168 213.275 259.636C213.275 252.328 207.526 246.363 200.303 246.016C200.534 246.005 200.766 246 201 246C209.284 246 216 252.716 216 261C216 269.284 209.284 276 201 276Z" fill="url(#paint14_angular_954_417013)"/>
  <circle r="2.72727" transform="matrix(-1 0 0 1 199.637 254.183)" fill="white"/>
  <circle r="1.36364" transform="matrix(-1 0 0 1 192.814 258.273)" fill="white"/>
  <path d="M184 278.286C184 279.548 179.971 284 175 284C170.029 284 166 279.548 166 278.286C166 277.023 170.029 276 175 276C179.971 276 184 277.023 184 278.286Z" fill="#B97C99"/>
  <path d="M165 295.6C165 295.6 165 298 170 298C175 298 175 294 175 294C175 294 175 298 180 298C185 298 185 295.6 185 295.6" stroke="#795D79" stroke-width="2" stroke-linecap="round"/>
  <path d="M155.975 62.4678C159.373 49.5409 162.113 33.0001 174.789 33.0001C187.464 33.0001 191.905 53.4802 194.025 62.7829C196.059 71.7027 200.605 92.8104 200.976 94.5331C200.994 94.6163 200.998 94.6839 200.98 94.7673C200.778 95.7251 198.554 102 175 102C151.343 102 149.203 95.6702 149.017 94.755C149.002 94.68 149.005 94.6193 149.019 94.5441C149.302 93.0295 152.72 74.8483 155.975 62.4678Z" fill="url(#paint15_linear_954_417013)"/>
  <mask id="mask1_954_417013" style="mask-type:alpha" maskUnits="userSpaceOnUse" x="149" y="33" width="52" height="70">
  <path d="M155.975 62.4678C159.373 49.5409 162.113 33.0001 174.789 33.0001C187.464 33.0001 191.905 53.4802 194.025 62.7829C196.059 71.7027 200.605 92.8104 200.976 94.5331C200.994 94.6163 200.998 94.6839 200.98 94.7673C200.778 95.7251 198.554 102 175 102C151.343 102 149.203 95.6702 149.017 94.755C149.002 94.68 149.005 94.6193 149.019 94.5441C149.302 93.0295 152.72 74.8483 155.975 62.4678Z" fill="url(#paint16_linear_954_417013)"/>
  </mask>
  <g mask="url(#mask1_954_417013)">
  <path d="M118.818 43.3173C118.818 43.3173 135.161 53.4929 150.919 47.5666C164.901 42.3082 168.887 16.0935 189.266 10.6332C209.644 5.17283 230.787 13.3154 230.787 13.3154L234.129 25.7896C234.129 25.7896 214.546 17.4596 192.666 23.3225C182.696 25.9938 167.607 55.0491 154.259 60.0323C138.312 65.9861 122.161 55.7916 122.161 55.7916L118.818 43.3173Z" fill="url(#paint17_radial_954_417013)"/>
  <path d="M121.966 56.76C121.966 56.76 138.126 66.2566 153.906 60.4098C167.907 55.2219 172.208 30.1803 192.586 24.72C212.964 19.2596 233.935 26.7581 233.935 26.7581L237.11 38.6086C237.11 38.6086 217.697 30.9119 195.816 36.7748C185.846 39.4461 170.444 67.3346 157.079 72.2522C141.111 78.1276 125.141 68.6105 125.141 68.6105L121.966 56.76Z" fill="url(#paint18_radial_954_417013)"/>
  <path d="M125.335 67.6419C125.335 67.6419 141.677 77.8175 157.435 71.8912C171.418 66.6328 175.404 40.4181 195.782 34.9578C216.16 29.4974 237.303 37.64 237.303 37.64L240.646 50.1142C240.646 50.1142 221.063 41.7842 199.182 47.6471C189.213 50.3184 174.123 79.3737 160.776 84.3569C144.828 90.3107 128.677 80.1162 128.677 80.1162L125.335 67.6419Z" fill="url(#paint19_radial_954_417013)"/>
  <path d="M128.678 80.116C128.678 80.116 145.02 90.2916 160.778 84.3653C174.761 79.1069 178.747 52.8922 199.125 47.4319C219.503 41.9715 240.646 50.1141 240.646 50.1141L243.989 62.5884C243.989 62.5884 224.406 54.2583 202.525 60.1212C192.556 62.7925 177.466 91.8478 164.118 96.831C148.171 102.785 132.02 92.5903 132.02 92.5903L128.678 80.116Z" fill="url(#paint20_radial_954_417013)"/>
  <path d="M132.019 92.5906C132.019 92.5906 148.362 102.766 164.12 96.84C178.102 91.5815 182.088 65.3668 202.467 59.9065C222.845 54.4461 243.988 62.5887 243.988 62.5887L247.331 75.063C247.331 75.063 227.748 66.7329 205.867 72.5958C195.897 75.2671 180.808 104.322 167.46 109.306C151.513 115.259 135.362 105.065 135.362 105.065L132.019 92.5906Z" fill="url(#paint21_radial_954_417013)"/>
  <path d="M135.362 105.065C135.362 105.065 151.705 115.24 167.463 109.314C181.445 104.055 185.431 77.8407 205.81 72.3804C226.188 66.92 247.331 75.0626 247.331 75.0626L250.673 87.5368C250.673 87.5368 231.09 79.2068 209.21 85.0697C199.24 87.741 184.151 116.796 170.803 121.779C154.856 127.733 138.705 117.539 138.705 117.539L135.362 105.065Z" fill="url(#paint22_radial_954_417013)"/>
  <path d="M138.704 117.539C138.704 117.539 155.046 127.715 170.804 121.788C184.787 116.53 188.773 90.3153 209.151 84.855C229.53 79.3946 250.673 87.5372 250.673 87.5372L254.015 100.011C254.015 100.011 234.432 91.6814 212.551 97.5443C202.582 100.216 187.492 129.271 174.145 134.254C158.197 140.208 142.046 130.013 142.046 130.013L138.704 117.539Z" fill="url(#paint23_radial_954_417013)"/>
  <path d="M142.047 130.013C142.047 130.013 158.389 140.188 174.147 134.262C188.13 129.004 192.116 102.789 212.494 97.3287C232.872 91.8684 254.015 100.011 254.015 100.011L257.358 112.485C257.358 112.485 237.775 104.155 215.894 110.018C205.925 112.689 190.835 141.745 177.487 146.728C161.54 152.682 145.389 142.487 145.389 142.487L142.047 130.013Z" fill="url(#paint24_radial_954_417013)"/>
  </g>
  <defs>
  <filter id="filter0_d_954_417013" x="116.721" y="285" width="117.469" height="55.4688" filterUnits="userSpaceOnUse" color-interpolation-filters="sRGB">
  <feFlood flood-opacity="0" result="BackgroundImageFix"/>
  <feColorMatrix in="SourceAlpha" type="matrix" values="0 0 0 0 0 0 0 0 0 0 0 0 0 0 0 0 0 0 127 0" result="hardAlpha"/>
  <feOffset dx="0.455729" dy="2.73438"/>
  <feGaussianBlur stdDeviation="1.36719"/>
  <feComposite in2="hardAlpha" operator="out"/>
  <feColorMatrix type="matrix" values="0 0 0 0 0 0 0 0 0 0 0 0 0 0 0 0 0 0 0.25 0"/>
  <feBlend mode="normal" in2="BackgroundImageFix" result="effect1_dropShadow_954_417013"/>
  <feBlend mode="normal" in="SourceGraphic" in2="effect1_dropShadow_954_417013" result="shape"/>
  </filter>
  <filter id="filter1_d_954_417013" x="164" y="317" width="21" height="21.002" filterUnits="userSpaceOnUse" color-interpolation-filters="sRGB">
  <feFlood flood-opacity="0" result="BackgroundImageFix"/>
  <feColorMatrix in="SourceAlpha" type="matrix" values="0 0 0 0 0 0 0 0 0 0 0 0 0 0 0 0 0 0 127 0" result="hardAlpha"/>
  <feOffset/>
  <feGaussianBlur stdDeviation="1"/>
  <feComposite in2="hardAlpha" operator="out"/>
  <feColorMatrix type="matrix" values="0 0 0 0 0.992157 0 0 0 0 0.94902 0 0 0 0 0.105882 0 0 0 0.75 0"/>
  <feBlend mode="normal" in2="BackgroundImageFix" result="effect1_dropShadow_954_417013"/>
  <feBlend mode="normal" in="SourceGraphic" in2="effect1_dropShadow_954_417013" result="shape"/>
  </filter>
  <filter id="filter2_d_954_417013" x="173" y="312" width="5" height="10" filterUnits="userSpaceOnUse" color-interpolation-filters="sRGB">
  <feFlood flood-opacity="0" result="BackgroundImageFix"/>
  <feColorMatrix in="SourceAlpha" type="matrix" values="0 0 0 0 0 0 0 0 0 0 0 0 0 0 0 0 0 0 127 0" result="hardAlpha"/>
  <feOffset/>
  <feGaussianBlur stdDeviation="1"/>
  <feComposite in2="hardAlpha" operator="out"/>
  <feColorMatrix type="matrix" values="0 0 0 0 0.992157 0 0 0 0 0.94902 0 0 0 0 0.105882 0 0 0 0.75 0"/>
  <feBlend mode="normal" in2="BackgroundImageFix" result="effect1_dropShadow_954_417013"/>
  <feBlend mode="normal" in="SourceGraphic" in2="effect1_dropShadow_954_417013" result="shape"/>
  </filter>
  <filter id="filter3_d_954_417013" x="109" y="210" width="132" height="114" filterUnits="userSpaceOnUse" color-interpolation-filters="sRGB">
  <feFlood flood-opacity="0" result="BackgroundImageFix"/>
  <feColorMatrix in="SourceAlpha" type="matrix" values="0 0 0 0 0 0 0 0 0 0 0 0 0 0 0 0 0 0 127 0" result="hardAlpha"/>
  <feOffset dy="4"/>
  <feGaussianBlur stdDeviation="2"/>
  <feComposite in2="hardAlpha" operator="out"/>
  <feColorMatrix type="matrix" values="0 0 0 0 0 0 0 0 0 0 0 0 0 0 0 0 0 0 0.25 0"/>
  <feBlend mode="normal" in2="BackgroundImageFix" result="effect1_dropShadow_954_417013"/>
  <feBlend mode="normal" in="SourceGraphic" in2="effect1_dropShadow_954_417013" result="shape"/>
  </filter>
  <linearGradient id="paint0_linear_954_417013" x1="141.869" y1="287.31" x2="148.453" y2="329.069" gradientUnits="userSpaceOnUse">
  <stop offset="0.00712166" stop-color="#6A9EE2"/>
  <stop offset="0.282888" stop-color="#4883C2" stop-opacity="0.98"/>
  <stop offset="0.635608" stop-color="#9CCBF4" stop-opacity="0.98"/>
  <stop offset="1" stop-color="#E8F3FC" stop-opacity="0.98"/>
  </linearGradient>
  <linearGradient id="paint1_linear_954_417013" x1="141.869" y1="287.31" x2="148.453" y2="329.069" gradientUnits="userSpaceOnUse">
  <stop offset="0.00712166" stop-color="#6A9EE2"/>
  <stop offset="0.282888" stop-color="#4883C2" stop-opacity="0.98"/>
  <stop offset="0.635608" stop-color="#9CCBF4" stop-opacity="0.98"/>
  <stop offset="1" stop-color="#E8F3FC" stop-opacity="0.98"/>
  </linearGradient>
  <radialGradient id="paint2_radial_954_417013" cx="0" cy="0" r="1" gradientUnits="userSpaceOnUse" gradientTransform="translate(99.5977 320.248) rotate(-61.2302) scale(33.4342 41.6904)">
  <stop offset="0.3125" stop-color="#F85449"/>
  <stop offset="1" stop-color="#CF0000"/>
  <stop offset="1" stop-color="#C53434"/>
  </radialGradient>
  <radialGradient id="paint3_radial_954_417013" cx="0" cy="0" r="1" gradientUnits="userSpaceOnUse" gradientTransform="translate(120.393 320.127) rotate(-80.3608) scale(90.4299 52.012)">
  <stop offset="0.302083" stop-color="#FFB800"/>
  <stop offset="1" stop-color="#FF7800"/>
  </radialGradient>
  <radialGradient id="paint4_radial_954_417013" cx="0" cy="0" r="1" gradientUnits="userSpaceOnUse" gradientTransform="translate(135.598 316.659) rotate(-79.388) scale(91.0129 54.3987)">
  <stop offset="0.3125" stop-color="#FABE09"/>
  <stop offset="1" stop-color="#FDF21B"/>
  </radialGradient>
  <radialGradient id="paint5_radial_954_417013" cx="0" cy="0" r="1" gradientUnits="userSpaceOnUse" gradientTransform="translate(151.842 310.467) rotate(-78.3805) scale(61.6776 47.8967)">
  <stop offset="0.203125" stop-color="#71FF30"/>
  <stop offset="0.890625" stop-color="#25BC46"/>
  </radialGradient>
  <radialGradient id="paint6_radial_954_417013" cx="0" cy="0" r="1" gradientUnits="userSpaceOnUse" gradientTransform="translate(171.019 310.027) rotate(-79.388) scale(91.0129 54.3987)">
  <stop offset="0.239583" stop-color="#21F6EA"/>
  <stop offset="1" stop-color="#2183F6"/>
  </radialGradient>
  <radialGradient id="paint7_radial_954_417013" cx="0" cy="0" r="1" gradientUnits="userSpaceOnUse" gradientTransform="translate(188.729 306.711) rotate(-79.388) scale(91.0129 54.3987)">
  <stop offset="0.3125" stop-color="#321A93"/>
  <stop offset="1" stop-color="#3603FF"/>
  <stop offset="1" stop-color="#3603FF"/>
  </radialGradient>
  <radialGradient id="paint8_radial_954_417013" cx="0" cy="0" r="1" gradientUnits="userSpaceOnUse" gradientTransform="translate(206.439 303.395) rotate(-79.388) scale(91.0129 54.3987)">
  <stop offset="0.239583" stop-color="#5000B6"/>
  <stop offset="1" stop-color="#7E5EFF"/>
  </radialGradient>
  <radialGradient id="paint9_radial_954_417013" cx="0" cy="0" r="1" gradientUnits="userSpaceOnUse" gradientTransform="translate(224.149 300.079) rotate(-79.388) scale(91.0129 54.3987)">
  <stop offset="0.328125" stop-color="#FF00D6"/>
  <stop offset="0.619792" stop-color="#D700B4"/>
  </radialGradient>
  <linearGradient id="paint10_linear_954_417013" x1="230.843" y1="281.181" x2="288.059" y2="147.74" gradientUnits="userSpaceOnUse">
  <stop stop-color="#4E335B"/>
  <stop offset="0.855778"/>
  </linearGradient>
  <linearGradient id="paint11_linear_954_417013" x1="221.829" y1="214.31" x2="232.868" y2="257.53" gradientUnits="userSpaceOnUse">
  <stop stop-color="#9C789B"/>
  <stop offset="1" stop-color="#5B5252" stop-opacity="0"/>
  </linearGradient>
  <linearGradient id="paint12_linear_954_417013" x1="129.171" y1="214.31" x2="118.132" y2="257.53" gradientUnits="userSpaceOnUse">
  <stop stop-color="#9C789B"/>
  <stop offset="1" stop-color="#5B5252" stop-opacity="0"/>
  </linearGradient>
  <radialGradient id="paint13_angular_954_417013" cx="0" cy="0" r="1" gradientUnits="userSpaceOnUse" gradientTransform="translate(145.028 256.993) rotate(41.5844) scale(22.3815 23.0552)">
  <stop stop-color="#EE2619"/>
  <stop offset="0.145833" stop-color="#FFB401"/>
  <stop offset="0.286458" stop-color="#FDEC19"/>
  <stop offset="0.421875" stop-color="#5DEE36"/>
  <stop offset="0.5625" stop-color="#21EAEB"/>
  <stop offset="0.703125" stop-color="#33189C"/>
  <stop offset="0.838542" stop-color="#7E5EFF"/>
  <stop offset="0.973958" stop-color="#FF01D6"/>
  </radialGradient>
  <radialGradient id="paint14_angular_954_417013" cx="0" cy="0" r="1" gradientUnits="userSpaceOnUse" gradientTransform="translate(204.972 256.993) rotate(138.416) scale(22.3815 23.0552)">
  <stop stop-color="#EE2619"/>
  <stop offset="0.145833" stop-color="#FFB401"/>
  <stop offset="0.286458" stop-color="#FDEC19"/>
  <stop offset="0.421875" stop-color="#5DEE36"/>
  <stop offset="0.5625" stop-color="#21EAEB"/>
  <stop offset="0.703125" stop-color="#33189C"/>
  <stop offset="0.838542" stop-color="#7E5EFF"/>
  <stop offset="0.973958" stop-color="#FF01D6"/>
  </radialGradient>
  <linearGradient id="paint15_linear_954_417013" x1="156.672" y1="40.4355" x2="185.902" y2="99.888" gradientUnits="userSpaceOnUse">
  <stop offset="0.00712166" stop-color="#6A9EE2"/>
  <stop offset="0.282888" stop-color="#4883C2" stop-opacity="0.98"/>
  <stop offset="0.635608" stop-color="#9CCBF4" stop-opacity="0.98"/>
  <stop offset="1" stop-color="#E8F3FC" stop-opacity="0.98"/>
  </linearGradient>
  <linearGradient id="paint16_linear_954_417013" x1="156.672" y1="40.4355" x2="185.902" y2="99.888" gradientUnits="userSpaceOnUse">
  <stop offset="0.00712166" stop-color="#6A9EE2"/>
  <stop offset="0.282888" stop-color="#4883C2" stop-opacity="0.98"/>
  <stop offset="0.635608" stop-color="#9CCBF4" stop-opacity="0.98"/>
  <stop offset="1" stop-color="#E8F3FC" stop-opacity="0.98"/>
  </linearGradient>
  <radialGradient id="paint17_radial_954_417013" cx="0" cy="0" r="1" gradientUnits="userSpaceOnUse" gradientTransform="translate(143.775 31.5333) rotate(24.3753) scale(23.9638 29.8814)">
  <stop offset="0.3125" stop-color="#F85449"/>
  <stop offset="1" stop-color="#CF0000"/>
  <stop offset="1" stop-color="#C53434"/>
  </radialGradient>
  <radialGradient id="paint18_radial_954_417013" cx="0" cy="0" r="1" gradientUnits="userSpaceOnUse" gradientTransform="translate(145.003 46.3878) rotate(5.24473) scale(64.8153 37.2794)">
  <stop offset="0.302083" stop-color="#FFB800"/>
  <stop offset="1" stop-color="#FF7800"/>
  </radialGradient>
  <radialGradient id="paint19_radial_954_417013" cx="0" cy="0" r="1" gradientUnits="userSpaceOnUse" gradientTransform="translate(148.317 57.0636) rotate(6.21752) scale(65.2331 38.9901)">
  <stop offset="0.3125" stop-color="#FABE09"/>
  <stop offset="1" stop-color="#FDF21B"/>
  </radialGradient>
  <radialGradient id="paint20_radial_954_417013" cx="0" cy="0" r="1" gradientUnits="userSpaceOnUse" gradientTransform="translate(153.634 68.332) rotate(7.22504) scale(44.2072 34.3298)">
  <stop offset="0.203125" stop-color="#71FF30"/>
  <stop offset="0.890625" stop-color="#25BC46"/>
  </radialGradient>
  <radialGradient id="paint21_radial_954_417013" cx="0" cy="0" r="1" gradientUnits="userSpaceOnUse" gradientTransform="translate(155.001 82.0123) rotate(6.21752) scale(65.2331 38.9901)">
  <stop offset="0.239583" stop-color="#21F6EA"/>
  <stop offset="1" stop-color="#2183F6"/>
  </radialGradient>
  <radialGradient id="paint22_radial_954_417013" cx="0" cy="0" r="1" gradientUnits="userSpaceOnUse" gradientTransform="translate(158.344 94.4862) rotate(6.21752) scale(65.2331 38.9901)">
  <stop offset="0.3125" stop-color="#321A93"/>
  <stop offset="1" stop-color="#3603FF"/>
  <stop offset="1" stop-color="#3603FF"/>
  </radialGradient>
  <radialGradient id="paint23_radial_954_417013" cx="0" cy="0" r="1" gradientUnits="userSpaceOnUse" gradientTransform="translate(161.686 106.961) rotate(6.21752) scale(65.2331 38.9901)">
  <stop offset="0.239583" stop-color="#5000B6"/>
  <stop offset="1" stop-color="#7E5EFF"/>
  </radialGradient>
  <radialGradient id="paint24_radial_954_417013" cx="0" cy="0" r="1" gradientUnits="userSpaceOnUse" gradientTransform="translate(165.029 119.435) rotate(6.21752) scale(65.2331 38.9901)">
  <stop offset="0.328125" stop-color="#FF00D6"/>
  <stop offset="0.619792" stop-color="#D700B4"/>
  </radialGradient>
  </defs>
  
    
    </svg>
  