
    <svg width="350" height="350" viewBox="0 0 350 350" fill="none" xmlns="http://www.w3.org/2000/svg">
    
  <!-- Sapphire BG -->
  <g clip-path="url(#clip0_28_259)">
  <rect x="0.0788574" y="0.0444336" width="350" height="350" fill="#13235A"/>
  <rect x="0.0788574" y="0.0444336" width="350" height="350" fill="url(#paint0_radial_28_259)" fill-opacity="0.2"/>
  <path d="M125.979 290.538L299.832 190.751L430.987 233.879L212.56 294.049L125.979 290.538Z" fill="url(#paint1_linear_28_259)"/>
  <g opacity="0.45" filter="url(#filter0_f_28_259)">
  <ellipse rx="194.596" ry="66.7643" transform="matrix(0.999998 0.00221055 0.00221055 -0.999998 176.078 304.637)" fill="url(#paint2_radial_28_259)"/>
  </g>
  <g opacity="0.7" filter="url(#filter1_f_28_259)">
  <ellipse cx="174.396" cy="137.609" rx="196.647" ry="242.448" transform="rotate(0.126655 174.396 137.609)" fill="url(#paint3_radial_28_259)"/>
  </g>
  </g>
  <defs>
  <filter id="filter0_f_28_259" x="-23.0756" y="233.314" width="398.306" height="142.646" filterUnits="userSpaceOnUse" color-interpolation-filters="sRGB">
  <feFlood flood-opacity="0" result="BackgroundImageFix"/>
  <feBlend mode="normal" in="SourceGraphic" in2="BackgroundImageFix" result="shape"/>
  <feGaussianBlur stdDeviation="2.27865" result="effect1_foregroundBlur_28_259"/>
  </filter>
  <filter id="filter1_f_28_259" x="-26.8085" y="-109.396" width="402.409" height="494.01" filterUnits="userSpaceOnUse" color-interpolation-filters="sRGB">
  <feFlood flood-opacity="0" result="BackgroundImageFix"/>
  <feBlend mode="normal" in="SourceGraphic" in2="BackgroundImageFix" result="shape"/>
  <feGaussianBlur stdDeviation="2.27865" result="effect1_foregroundBlur_28_259"/>
  </filter>
  <radialGradient id="paint0_radial_28_259" cx="0" cy="0" r="1" gradientUnits="userSpaceOnUse" gradientTransform="translate(156.622 401.542) rotate(-84.441) scale(239.93 241.682)">
  <stop/>
  <stop offset="1" stop-opacity="0"/>
  </radialGradient>
  <linearGradient id="paint1_linear_28_259" x1="194.836" y1="271.638" x2="316.537" y2="167.936" gradientUnits="userSpaceOnUse">
  <stop/>
  <stop offset="1" stop-color="#333333" stop-opacity="0"/>
  </linearGradient>
  <radialGradient id="paint2_radial_28_259" cx="0" cy="0" r="1" gradientUnits="userSpaceOnUse" gradientTransform="translate(194.596 76.624) rotate(99.1226) scale(43.9775 125.337)">
  <stop stop-color="#2183F7"/>
  <stop offset="1" stop-color="#2E55E1" stop-opacity="0"/>
  </radialGradient>
  <radialGradient id="paint3_radial_28_259" cx="0" cy="0" r="1" gradientUnits="userSpaceOnUse" gradientTransform="translate(174.396 173.413) rotate(92.5586) scale(157.837 128.153)">
  <stop stop-color="#2183F7"/>
  <stop offset="1" stop-color="#2E55E1" stop-opacity="0"/>
  </radialGradient>
  <clipPath id="clip0_28_259">
  <rect width="350" height="350" fill="white"/>
  </clipPath>
  </defs>

    
  <!-- Peace Overlay -->
  <g clip-path="url(#clip0_589_71590)">
  <g style="mix-blend-mode:overlay">
  <path fill-rule="evenodd" clip-rule="evenodd" d="M10.4379 299.782C54.2425 325.073 110.255 310.064 135.546 266.26C160.836 222.455 145.828 166.443 102.023 141.152C58.2186 115.861 2.20598 130.87 -23.0846 174.674C-48.3752 218.479 -33.3666 274.492 10.4379 299.782ZM-9.86541 182.307C9.86998 148.124 52.0544 134.983 87.3131 150.756L50.9372 213.761L-19.1329 232.536C-21.8199 215.821 -18.9898 198.11 -9.86541 182.307ZM64.1566 221.392L100.563 158.335C132.246 180.885 142.166 224.264 122.326 258.628C113.124 274.566 99.0408 285.93 83.0547 291.921L64.1566 221.392ZM68.2994 295.83C53.8483 298.153 38.6526 296.353 24.5887 289.926L53.3631 240.087L68.2994 295.83ZM-15.2237 247.291L40.1438 232.455L11.4 282.241C-1.06459 273.218 -10.1055 260.949 -15.2237 247.291Z" fill="white" fill-opacity="0.25"/>
  </g>
  <g style="mix-blend-mode:overlay">
  <path fill-rule="evenodd" clip-rule="evenodd" d="M345.565 216.307C379.83 196.524 391.57 152.71 371.787 118.446C352.005 84.1811 308.191 72.4411 273.926 92.2239C239.661 112.007 227.921 155.821 247.704 190.085C267.487 224.35 311.301 236.09 345.565 216.307ZM258.044 184.115C242.607 157.377 250.204 123.661 274.679 105.945L303.132 155.228L288.446 210.038C276.072 205.321 265.182 196.477 258.044 184.115ZM313.472 149.258L284.995 99.9336C312.662 87.2904 345.928 97.536 361.447 124.416C368.645 136.883 370.835 150.868 368.641 164.04L313.472 149.258ZM365.518 175.565C361.44 186.263 354.277 195.853 344.423 202.866L321.915 163.881L365.518 175.565ZM299.97 213.161L311.575 169.852L334.059 208.795C323.072 213.71 311.224 215.036 299.97 213.161Z" fill="white" fill-opacity="0.25"/>
  </g>
  <g style="mix-blend-mode:overlay">
  <path fill-rule="evenodd" clip-rule="evenodd" d="M161.393 63.318C185.12 49.619 193.25 19.2788 179.551 -4.4486C165.852 -28.176 135.511 -36.3056 111.784 -22.6066C88.0565 -8.90756 79.9269 21.4326 93.626 45.16C107.325 68.8874 137.665 77.017 161.393 63.318ZM100.786 41.0259C90.0963 22.5103 95.3571 -0.837106 112.305 -13.1052L132.009 21.0224L121.839 58.977C113.27 55.7107 105.729 49.5864 100.786 41.0259ZM139.169 16.8882L119.449 -17.2678C138.608 -26.0229 161.644 -18.928 172.39 -0.314547C177.375 8.31889 178.891 18.0031 177.372 27.1247L139.169 16.8882ZM175.209 35.1051C172.385 42.5132 167.425 49.1538 160.601 54.0105L145.015 27.0146L175.209 35.1051ZM129.819 61.1395L137.855 31.1488L153.425 58.116C145.816 61.5194 137.612 62.4376 129.819 61.1395Z" fill="white" fill-opacity="0.25"/>
  </g>
  </g>
  <defs>
  <clipPath id="clip0_589_71590">
  <rect width="350" height="350" fill="white"/>
  </clipPath>
  </defs>

    
  <!-- Halo -->
  <g filter="url(#filter0_d_559_36466)">
  <path d="M216.24 25.3087C216.24 25.3087 216.24 25.3124 216.238 25.3199C216.238 25.3125 216.239 25.3087 216.24 25.3087ZM215.963 24.9666C216.147 25.1635 216.21 25.2863 216.231 25.3395C216.21 25.3928 216.147 25.5156 215.963 25.7125C215.626 26.0741 215.016 26.5326 214.038 27.0399C212.086 28.0515 209.113 29.0303 205.248 29.8777C197.555 31.5642 186.818 32.6265 174.883 32.6265C162.947 32.6265 152.211 31.5642 144.518 29.8777C140.653 29.0303 137.679 28.0515 135.727 27.0399C134.749 26.5326 134.14 26.0741 133.802 25.7125C133.618 25.5156 133.555 25.3928 133.534 25.3395C133.555 25.2863 133.618 25.1635 133.802 24.9666C134.14 24.605 134.749 24.1465 135.727 23.6392C137.679 22.6276 140.653 21.6487 144.518 20.8014C152.211 19.1149 162.947 18.0526 174.883 18.0526C186.818 18.0526 197.555 19.1149 205.248 20.8014C209.113 21.6487 212.086 22.6276 214.038 23.6392C215.016 24.1465 215.626 24.605 215.963 24.9666ZM133.526 25.3087C133.526 25.3087 133.527 25.3125 133.528 25.3199C133.526 25.3124 133.525 25.3087 133.526 25.3087ZM133.526 25.3704C133.525 25.3704 133.526 25.3667 133.528 25.3592C133.527 25.3666 133.526 25.3704 133.526 25.3704ZM216.238 25.3592C216.24 25.3667 216.24 25.3704 216.24 25.3704C216.239 25.3704 216.238 25.3666 216.238 25.3592Z" stroke="#FDF21B" stroke-width="4.55729" shape-rendering="crispEdges"/>
  </g>
  <defs>
  <filter id="filter0_d_559_36466" x="127.926" y="12.4498" width="93.9138" height="25.7795" filterUnits="userSpaceOnUse" color-interpolation-filters="sRGB">
  <feFlood flood-opacity="0" result="BackgroundImageFix"/>
  <feColorMatrix in="SourceAlpha" type="matrix" values="0 0 0 0 0 0 0 0 0 0 0 0 0 0 0 0 0 0 127 0" result="hardAlpha"/>
  <feOffset/>
  <feGaussianBlur stdDeviation="1.66205"/>
  <feComposite in2="hardAlpha" operator="out"/>
  <feColorMatrix type="matrix" values="0 0 0 0 1 0 0 0 0 1 0 0 0 0 1 0 0 0 1 0"/>
  <feBlend mode="normal" in2="BackgroundImageFix" result="effect1_dropShadow_559_36466"/>
  <feBlend mode="normal" in="SourceGraphic" in2="effect1_dropShadow_559_36466" result="shape"/>
  </filter>
  </defs>
    
    
  <!-- Normal Glass -->
    <path d="M148.717 95L125.019 209.98C124.948 210.324 125.078 210.673 125.367 210.873C128.479 213.027 147.033 225 175 225C202.967 225 221.521 213.027 224.633 210.873C224.922 210.673 225.052 210.324 224.981 209.98L201.283 95C201.249 95.0666 201.205 95.1285 201.15 95.1836C199.818 96.5241 193.18 102.106 175 102.106C156.82 102.106 150.182 96.5241 148.85 95.1836C148.795 95.1285 148.751 95.0666 148.717 95Z" fill="#000000" fill-opacity="0.6"/>
  
    
    
    <!-- Lava 1 -->
    <!-- Color -->
    <!-- filter -->
    <path d="M201.33 94.2312L205.4 114.032C203.808 113.761 202.153 113.448 200.459 113.128C186.293 110.453 169.479 107.277 165.223 123.731C163.365 130.915 166.057 135.213 168.676 139.394C171.205 143.431 173.665 147.359 171.9 153.669C169.751 161.35 158.067 166.325 148.671 162.995C138.746 159.477 139.443 144.904 145.148 137.85C150.853 130.795 151.677 120.031 150.853 112.871C150.454 109.41 148.742 106.935 146.502 105.251L148.841 93.8809C148.875 93.9478 148.92 94.0101 148.975 94.0656C150.853 95.9589 156.979 101.03 175.237 101.03C192.824 101.03 199.656 95.8196 201.33 94.2312Z" fill="url(#paint0_radial_931_113783)"/>
    <mask id="mask0_931_113783" style="mask-type:alpha" maskUnits="userSpaceOnUse" x="141" y="93" width="65" height="72">
    <path d="M201.33 94.2302L205.4 114.031C203.808 113.76 202.153 113.447 200.459 113.127C186.293 110.452 169.479 107.276 165.223 123.73C163.365 130.914 166.057 135.212 168.676 139.393C171.205 143.43 173.665 147.358 171.9 153.668C169.751 161.349 158.067 166.324 148.671 162.994C138.746 159.476 139.443 144.903 145.148 137.849C150.853 130.794 151.677 120.03 150.853 112.87C150.454 109.409 148.742 106.934 146.502 105.25L148.841 93.8799C148.875 93.9469 148.92 94.0092 148.975 94.0646C150.313 95.4133 156.979 101.029 175.237 101.029C192.824 101.029 199.656 95.8187 201.33 94.2302Z" fill="url(#paint1_radial_931_113783)"/>
    </mask>
    <g mask="url(#mask0_931_113783)">
    <g filter="url(#filter0_f_931_113783)">
    <mask id="mask1_931_113783" style="mask-type:alpha" maskUnits="userSpaceOnUse" x="125" y="94" width="101" height="132">
    <path d="M149.015 95.0639C149.102 94.6401 149.475 94.3359 149.907 94.3359H200.399C200.831 94.3359 201.205 94.6401 201.292 95.0639L225.146 211.159C225.227 211.555 225.041 211.955 224.68 212.137C220.777 214.109 198.528 224.817 175.153 225.128C151.731 225.438 129.441 214.178 125.603 212.141C125.253 211.954 125.077 211.562 125.157 211.173L149.015 95.0639Z" fill="#577096" fill-opacity="0.75"/>
    </mask>
    <g mask="url(#mask1_931_113783)">
    <g filter="url(#filter1_f_931_113783)">
    <path d="M207.362 76.1064C211.019 110.268 146.094 132.571 113.174 139.453L113.174 76.1064L207.362 76.1064Z" fill="url(#paint2_linear_931_113783)" fill-opacity="0.5"/>
    </g>
    <g filter="url(#filter2_f_931_113783)">
    <path d="M155.56 125.301C156.622 105.018 134.624 86.1828 129.082 66.9985C133.541 65.1973 144.203 70.7896 152.828 76.1247C163.609 82.7936 163.032 109.124 164.778 125.784C166.175 139.112 148.606 223.401 144.168 241.481L131.869 240.837C140.395 214.68 154.74 140.955 155.56 125.301Z" fill="url(#paint3_linear_931_113783)" fill-opacity="0.6"/>
    </g>
    </g>
    </g>
    </g>
    <defs>
    <filter id="filter0_f_931_113783" x="122.744" y="92.0573" width="104.986" height="135.355" filterUnits="userSpaceOnUse" color-interpolation-filters="sRGB">
    <feFlood flood-opacity="0" result="BackgroundImageFix"/>
    <feBlend mode="normal" in="SourceGraphic" in2="BackgroundImageFix" result="shape"/>
    <feGaussianBlur stdDeviation="1.13932" result="effect1_foregroundBlur_931_113783"/>
    </filter>
    <filter id="filter1_f_931_113783" x="112.262" y="75.195" width="96.1589" height="65.1696" filterUnits="userSpaceOnUse" color-interpolation-filters="sRGB">
    <feFlood flood-opacity="0" result="BackgroundImageFix"/>
    <feBlend mode="normal" in="SourceGraphic" in2="BackgroundImageFix" result="shape"/>
    <feGaussianBlur stdDeviation="0.455729" result="effect1_foregroundBlur_931_113783"/>
    </filter>
    <filter id="filter2_f_931_113783" x="128.17" y="65.7428" width="37.5978" height="176.65" filterUnits="userSpaceOnUse" color-interpolation-filters="sRGB">
    <feFlood flood-opacity="0" result="BackgroundImageFix"/>
    <feBlend mode="normal" in="SourceGraphic" in2="BackgroundImageFix" result="shape"/>
    <feGaussianBlur stdDeviation="0.455729" result="effect1_foregroundBlur_931_113783"/>
    </filter>
    <radialGradient id="paint0_radial_931_113783" cx="0" cy="0" r="1" gradientUnits="userSpaceOnUse" gradientTransform="translate(156.087 109.102) rotate(53.0717) scale(37.8406 40.3077)">
    <stop offset="0.203125" style="stop-color: #F85449;"/>
    <stop offset="0.890625" style="stop-color: #C53434;"/>
    </radialGradient>
    <radialGradient id="paint1_radial_931_113783" cx="0" cy="0" r="1" gradientUnits="userSpaceOnUse" gradientTransform="translate(156.087 109.101) rotate(53.0717) scale(37.8406 40.3077)">
    <stop offset="0.203125" stop-color="#71FF30"/>
    <stop offset="0.890625" stop-color="#25BC46"/>
    </radialGradient>
    <linearGradient id="paint2_linear_931_113783" x1="145.368" y1="123.01" x2="155.982" y2="72.2914" gradientUnits="userSpaceOnUse">
    <stop stop-color="white" stop-opacity="0"/>
    <stop offset="0.471361" stop-color="white"/>
    <stop offset="1" stop-color="white"/>
    </linearGradient>
    <linearGradient id="paint3_linear_931_113783" x1="160.882" y1="220.938" x2="202.107" y2="178" gradientUnits="userSpaceOnUse">
    <stop stop-color="#F2F2F2"/>
    <stop offset="0.0001" stop-color="#F2F2F2"/>
    <stop offset="0.0520833" stop-color="#F2F2F2" stop-opacity="0.948011"/>
    <stop offset="1" stop-color="#F2F2F2" stop-opacity="0"/>
    </linearGradient>
    </defs>
  
    
  <!-- Lava 2 -->
    <!-- Color -->
<path d="M178.202 131.059C178.202 128.163 180.222 122.394 188.299 122.479C196.377 122.565 198.468 128.235 198.504 131.059C198.576 133.132 197.365 137.622 191.952 138.995C185.184 140.711 178.202 136.85 178.202 131.059Z" fill="url(#paint0_radial_931_113845)"/>
<defs>
<radialGradient id="paint0_radial_931_113845" cx="0" cy="0" r="1" gradientUnits="userSpaceOnUse" gradientTransform="translate(182.959 126.151) rotate(45.5119) scale(10.2292 11.3416)">
<stop offset="0.203125" style="stop-color: #FABE09;"/>
<stop offset="0.890625" style="stop-color: #FDF21B;"/>
</radialGradient>
</defs>
  
    
  <!-- Lava 3 -->
    <!-- Color -->
    <path d="M214.381 157.604L219.2 181.084C217.285 183.349 214.448 185.339 210.334 186.382C197.471 189.642 184.2 182.306 184.2 171.303C184.2 165.801 188.039 154.839 203.392 155.002C208.021 155.051 211.616 156.065 214.381 157.604Z" fill="url(#paint0_radial_931_113862)"/>
<defs>
<radialGradient id="paint0_radial_931_113862" cx="0" cy="0" r="1" gradientUnits="userSpaceOnUse" gradientTransform="translate(192.4 161.977) rotate(48.2936) scale(18.5718 20.4588)">
<stop offset="0.203125" style="stop-color: #21F6EA;"/>
<stop offset="0.890625" style="stop-color: #2183F6;"/>
</radialGradient>
</defs>
  
    
  <!-- Lava 4 -->
    <!-- Color -->
    <path d="M225 210.659C220.5 214 200.704 225 175.402 225C147.201 225 128.492 213.024 125.354 210.869C125.163 210.738 125.042 210.543 125 210.328C128.968 198.996 144.393 175.959 164.496 181.99C174.451 184.976 181.421 192.474 187.975 199.525C198.127 210.446 208 213.5 225 210.659C224.675 211.045 225.345 210.27 225 210.659Z" fill="url(#paint0_radial_931_113863)"/>
<mask id="mask0_931_113863" style="mask-type:alpha" maskUnits="userSpaceOnUse" x="124" y="180" width="101" height="45">
<path d="M223.866 211.799C218.236 215.343 200.575 225 175.272 225C147.071 225 128.362 213.003 125.225 210.845C125.034 210.714 124.912 210.519 124.87 210.303C128.839 198.951 144.263 175.875 164.366 181.916C174.321 184.908 181.291 192.418 187.845 199.481C197.997 210.421 207.154 220.288 224.87 210.635C224.545 211.021 224.21 211.409 223.866 211.799Z" fill="url(#paint1_radial_931_113863)"/>
</mask>
<g mask="url(#mask0_931_113863)">
<g filter="url(#filter0_f_931_113863)">
<mask id="mask1_931_113863" style="mask-type:alpha" maskUnits="userSpaceOnUse" x="124" y="94" width="102" height="132">
<path d="M148.862 95.3198C148.949 94.896 149.322 94.5918 149.755 94.5918H200.246C200.679 94.5918 201.052 94.896 201.139 95.3198L224.993 211.414C225.075 211.811 224.888 212.211 224.527 212.393C220.624 214.365 198.376 225.073 175 225.383C151.578 225.694 129.288 214.434 125.45 212.396C125.1 212.21 124.924 211.818 125.004 211.429L148.862 95.3198Z" fill="#577096" fill-opacity="0.75"/>
</mask>
<g mask="url(#mask1_931_113863)">
<g filter="url(#filter1_f_931_113863)">
<path d="M155.407 125.557C156.47 105.273 134.471 86.4386 128.929 67.2543C133.388 65.4531 144.05 71.0455 152.675 76.3806C163.456 83.0494 162.879 109.38 164.625 126.04C166.022 139.368 148.453 223.657 144.015 241.737L131.716 241.093C140.242 214.936 154.587 141.211 155.407 125.557Z" fill="url(#paint2_linear_931_113863)" fill-opacity="0.6"/>
</g>
</g>
</g>
</g>
<defs>
<filter id="filter0_f_931_113863" x="122.591" y="92.3132" width="105.59" height="135.355" filterUnits="userSpaceOnUse" color-interpolation-filters="sRGB">
<feFlood flood-opacity="0" result="BackgroundImageFix"/>
<feBlend mode="normal" in="SourceGraphic" in2="BackgroundImageFix" result="shape"/>
<feGaussianBlur stdDeviation="1.13932" result="effect1_foregroundBlur_931_113863"/>
</filter>
<filter id="filter1_f_931_113863" x="128.017" y="65.9987" width="37.5983" height="176.65" filterUnits="userSpaceOnUse" color-interpolation-filters="sRGB">
<feFlood flood-opacity="0" result="BackgroundImageFix"/>
<feBlend mode="normal" in="SourceGraphic" in2="BackgroundImageFix" result="shape"/>
<feGaussianBlur stdDeviation="0.455729" result="effect1_foregroundBlur_931_113863"/>
</filter>
<radialGradient id="paint0_radial_931_113863" cx="0" cy="0" r="1" gradientUnits="userSpaceOnUse" gradientTransform="translate(148.451 190.545) rotate(28.2255) scale(40.1081 37.0676)">
<stop offset="0.203125" style="stop-color: #71FF30;"/>
<stop offset="0.890625" style="stop-color: #25BC46;"/>
</radialGradient>
<radialGradient id="paint1_radial_931_113863" cx="0" cy="0" r="1" gradientUnits="userSpaceOnUse" gradientTransform="translate(146.382 191.229) rotate(27.0849) scale(58.9221 42.3164)">
<stop offset="0.302083" stop-color="#FFB800"/>
<stop offset="1" stop-color="#FF7800"/>
</radialGradient>
<linearGradient id="paint2_linear_931_113863" x1="160.729" y1="221.194" x2="201.954" y2="178.256" gradientUnits="userSpaceOnUse">
<stop stop-color="#F2F2F2"/>
<stop offset="0.0001" stop-color="#F2F2F2"/>
<stop offset="0.0520833" stop-color="#F2F2F2" stop-opacity="0.948011"/>
<stop offset="1" stop-color="#F2F2F2" stop-opacity="0"/>
</linearGradient>
</defs>
  
  
    
  <!-- Rainbow Standard -->
  <mask id="mask0_878_100590" style="mask-type:alpha" maskUnits="userSpaceOnUse" x="125" y="211" width="101" height="114">
  <path d="M125.643 312.013C125.262 311.808 125.097 311.365 125.233 310.954L138.154 271.844C138.205 271.69 138.214 271.524 138.18 271.365L125.513 212.871C125.335 212.048 126.303 211.394 127.017 211.84C132.682 215.373 149.983 224.675 175.13 224.675C200.277 224.675 217.578 215.373 223.243 211.84C223.957 211.394 224.925 212.048 224.747 212.871L212.08 271.365C212.046 271.524 212.055 271.69 212.106 271.844L225.027 310.954C225.163 311.365 224.998 311.808 224.617 312.013C220.784 314.073 200.254 324.432 175.13 324.432C150.006 324.432 129.476 314.073 125.643 312.013Z" fill="#3A4B8C"/>
  <path d="M125.643 312.013C125.262 311.808 125.097 311.365 125.233 310.954L138.154 271.844C138.205 271.69 138.214 271.524 138.18 271.365L125.513 212.871C125.335 212.048 126.303 211.394 127.017 211.84C132.682 215.373 149.983 224.675 175.13 224.675C200.277 224.675 217.578 215.373 223.243 211.84C223.957 211.394 224.925 212.048 224.747 212.871L212.08 271.365C212.046 271.524 212.055 271.69 212.106 271.844L225.027 310.954C225.163 311.365 224.998 311.808 224.617 312.013C220.784 314.073 200.254 324.432 175.13 324.432C150.006 324.432 129.476 314.073 125.643 312.013Z" fill="url(#paint0_linear_878_100590)"/>
  </mask>
  <g mask="url(#mask0_878_100590)">
  <path d="M287.603 227.983C287.603 227.983 258.782 239.303 235.482 225.595C214.808 213.432 215.966 171.296 185.206 157.016C154.446 142.737 118.591 149.525 118.591 149.525L109.731 168.1C109.731 168.1 143.165 160.58 176.193 175.912C191.241 182.898 206.881 232.604 226.628 244.158C250.22 257.962 278.743 246.559 278.743 246.559L287.603 227.983Z" fill="url(#paint1_radial_878_100590)"/>
  <path d="M278.776 248.129C278.776 248.129 250.437 258.438 227.08 244.848C206.356 232.79 206.681 192.401 175.921 178.122C145.161 163.842 109.764 169.671 109.764 169.671L101.347 187.317C101.347 187.317 134.33 180.741 167.358 196.073C182.407 203.059 198.876 251.027 218.669 262.483C242.317 276.17 270.358 265.776 270.358 265.776L278.776 248.129Z" fill="url(#paint2_radial_878_100590)"/>
  <path d="M270.328 264.206C270.328 264.206 241.507 275.525 218.207 261.817C197.532 249.654 198.691 207.518 167.931 193.239C137.171 178.959 101.316 185.747 101.316 185.747L92.4557 204.323C92.4557 204.323 125.89 196.803 158.918 212.135C173.966 219.121 189.606 268.826 209.352 280.38C232.945 294.184 261.468 282.781 261.468 282.781L270.328 264.206Z" fill="url(#paint3_radial_878_100590)"/>
  <path d="M261.467 282.781C261.467 282.781 232.646 294.101 209.346 280.393C188.671 268.23 189.83 226.094 159.07 211.814C128.31 197.535 92.4552 204.323 92.4552 204.323L83.5949 222.898C83.5949 222.898 117.029 215.378 150.057 230.71C165.105 237.696 180.745 287.402 200.492 298.956C224.084 312.76 252.607 301.357 252.607 301.357L261.467 282.781Z" fill="url(#paint4_radial_878_100590)"/>
  <path d="M252.606 301.357C252.606 301.357 223.785 312.677 200.485 298.969C179.811 286.806 180.969 244.67 150.209 230.39C119.449 216.111 83.5944 222.899 83.5944 222.899L74.7341 241.474C74.7341 241.474 108.168 233.954 141.196 249.286C156.244 256.272 171.884 305.978 191.631 317.532C215.223 331.336 243.746 319.933 243.746 319.933L252.606 301.357Z" fill="url(#paint5_radial_878_100590)"/>
  <path d="M243.747 319.933C243.747 319.933 214.926 331.252 191.626 317.544C170.951 305.381 172.11 263.245 141.35 248.966C110.589 234.686 74.735 241.474 74.735 241.474L65.8747 260.05C65.8747 260.05 99.3085 252.529 132.337 267.862C147.385 274.847 163.025 324.553 182.771 336.107C206.364 349.911 234.887 338.508 234.887 338.508L243.747 319.933Z" fill="url(#paint6_radial_878_100590)"/>
  <path d="M234.887 338.508C234.887 338.508 206.066 349.828 182.766 336.12C162.091 323.957 163.25 281.821 132.49 267.542C101.73 253.262 65.8751 260.05 65.8751 260.05L57.0148 278.626C57.0148 278.626 90.4487 271.105 123.477 286.438C138.525 293.423 154.165 343.129 173.911 354.683C197.504 368.487 226.027 357.084 226.027 357.084L234.887 338.508Z" fill="url(#paint7_radial_878_100590)"/>
  <path d="M226.026 357.083C226.026 357.083 197.205 368.403 173.905 354.695C153.23 342.532 154.389 300.396 123.629 286.117C92.8688 271.837 57.0143 278.625 57.0143 278.625L48.154 297.2C48.154 297.2 81.5878 289.68 114.616 305.012C129.664 311.998 145.304 361.704 165.051 373.258C188.643 387.062 217.166 375.659 217.166 375.659L226.026 357.083Z" fill="url(#paint8_radial_878_100590)"/>
  </g>
  <g filter="url(#filter0_f_878_100590)">
  <mask id="mask1_878_100590" style="mask-type:alpha" maskUnits="userSpaceOnUse" x="125" y="212" width="101" height="114">
  <path d="M125.642 313.071C125.261 312.866 125.097 312.422 125.233 312.011L138.154 272.878C138.205 272.723 138.214 272.558 138.18 272.399L125.374 213.224C125.217 212.5 125.939 211.876 126.634 212.131C131.867 214.052 149.387 219.677 175.13 219.677C200.873 219.677 218.393 214.052 223.626 212.131C224.321 211.876 225.043 212.5 224.886 213.224L212.08 272.399C212.046 272.558 212.055 272.723 212.106 272.878L225.027 312.011C225.163 312.422 224.999 312.866 224.618 313.071C220.785 315.131 200.254 325.497 175.13 325.497C150.006 325.497 129.475 315.131 125.642 313.071Z" fill="#2D2E32"/>
  <path d="M125.642 313.071C125.261 312.866 125.097 312.422 125.233 312.011L138.154 272.878C138.205 272.723 138.214 272.558 138.18 272.399L125.374 213.224C125.217 212.5 125.939 211.876 126.634 212.131C131.867 214.052 149.387 219.677 175.13 219.677C200.873 219.677 218.393 214.052 223.626 212.131C224.321 211.876 225.043 212.5 224.886 213.224L212.08 272.399C212.046 272.558 212.055 272.723 212.106 272.878L225.027 312.011C225.163 312.422 224.999 312.866 224.618 313.071C220.785 315.131 200.254 325.497 175.13 325.497C150.006 325.497 129.475 315.131 125.642 313.071Z" fill="url(#paint9_linear_878_100590)"/>
  </mask>
  <g mask="url(#mask1_878_100590)">
  <g opacity="0.25" filter="url(#filter1_df_878_100590)">
  <path d="M74.3257 273.822C169.438 276.526 231.534 228.538 250.693 204.205H74.3257V273.822Z" fill="url(#paint10_linear_878_100590)" fill-opacity="0.55" shape-rendering="crispEdges"/>
  </g>
  <path opacity="0.25" d="M135.363 267.425C135.363 244.575 108.929 196.56 99.1391 175.334C105.666 173.048 122.049 169.847 135.363 175.334C152.007 182.191 157.629 244.462 161.546 263.076C164.678 277.968 140.585 327.186 135.363 347.76H69.7681C119.699 321.308 135.363 285.06 135.363 267.425Z" fill="url(#paint11_radial_878_100590)"/>
  <path opacity="0.25" d="M149.946 271.527C149.946 248.676 123.512 200.662 113.722 179.435C120.249 177.149 136.632 173.949 149.946 179.435C166.59 186.293 172.212 248.564 176.129 267.178C179.261 282.069 155.168 331.288 149.946 351.862H84.3511C134.282 325.41 149.946 289.161 149.946 271.527Z" fill="url(#paint12_radial_878_100590)"/>
  </g>
  </g>
  <mask id="mask2_878_100590" style="mask-type:alpha" maskUnits="userSpaceOnUse" x="148" y="51" width="54" height="52">
  <path d="M154.313 56.3282C154.323 56.2595 154.325 56.1924 154.331 56.1233C154.403 55.3956 155.627 51 174.788 51C194.299 51 195.586 55.5581 195.671 56.1595C195.678 56.2036 195.681 56.2468 195.687 56.2909L201.377 94.8616C201.414 95.1109 201.347 95.3615 201.17 95.5407C199.837 96.8878 193.195 102.497 175.003 102.497C156.81 102.497 150.168 96.8878 148.835 95.5407C148.658 95.3615 148.591 95.1109 148.628 94.8616L154.313 56.3282Z" fill="#3A4B8C"/>
  <path d="M154.313 56.3282C154.323 56.2595 154.325 56.1924 154.331 56.1233C154.403 55.3956 155.627 51 174.788 51C194.299 51 195.586 55.5581 195.671 56.1595C195.678 56.2036 195.681 56.2468 195.687 56.2909L201.377 94.8616C201.414 95.1109 201.347 95.3615 201.17 95.5407C199.837 96.8878 193.195 102.497 175.003 102.497C156.81 102.497 150.168 96.8878 148.835 95.5407C148.658 95.3615 148.591 95.1109 148.628 94.8616L154.313 56.3282Z" fill="url(#paint13_linear_878_100590)"/>
  </mask>
  <g mask="url(#mask2_878_100590)">
  <path d="M262.108 76.8093C262.108 76.8093 235.976 87.213 214.85 74.6145C196.105 63.4358 197.156 24.7096 169.266 11.5857C141.376 -1.53817 108.867 4.70018 108.867 4.70018L100.833 21.7725C100.833 21.7725 131.147 14.8609 161.094 28.9524C174.738 35.3728 188.919 81.0563 206.822 91.6751C228.213 104.362 254.075 93.8817 254.075 93.8817L262.108 76.8093Z" fill="url(#paint14_radial_878_100590)"/>
  <path d="M254.103 95.3251C254.103 95.3251 228.408 104.799 207.231 92.3098C188.441 81.2276 188.736 44.1069 160.846 30.983C132.956 17.8592 100.862 23.2159 100.862 23.2159L93.23 39.4346C93.23 39.4346 123.136 33.3899 153.082 47.4814C166.727 53.9018 181.659 97.9883 199.605 108.517C221.046 121.097 246.471 111.544 246.471 111.544L254.103 95.3251Z" fill="url(#paint15_radial_878_100590)"/>
  <path d="M246.444 110.1C246.444 110.1 220.313 120.504 199.187 107.906C180.441 96.7269 181.492 58.0007 153.602 44.8768C125.712 31.753 93.2034 37.9913 93.2034 37.9913L85.1698 55.0636C85.1698 55.0636 115.484 48.1521 145.43 62.2435C159.074 68.664 173.255 114.347 191.159 124.966C212.549 137.653 238.411 127.173 238.411 127.173L246.444 110.1Z" fill="url(#paint16_radial_878_100590)"/>
  <path d="M238.41 127.173C238.41 127.173 212.278 137.576 191.153 124.978C172.407 113.799 173.458 75.073 145.568 61.9491C117.678 48.8252 85.1692 55.0636 85.1692 55.0636L77.1356 72.1359C77.1356 72.1359 107.45 65.2243 137.396 79.3158C151.04 85.7362 165.221 131.42 183.124 142.038C204.515 154.726 230.377 144.245 230.377 144.245L238.41 127.173Z" fill="url(#paint17_radial_878_100590)"/>
  <path d="M230.376 144.245C230.376 144.245 204.244 154.649 183.118 142.051C164.373 130.872 165.424 92.1457 137.534 79.0219C109.644 65.898 77.135 72.1363 77.135 72.1363L69.1015 89.2087C69.1015 89.2087 99.4155 82.2971 129.362 96.3885C143.006 102.809 157.187 148.492 175.09 159.111C196.481 171.798 222.343 161.318 222.343 161.318L230.376 144.245Z" fill="url(#paint18_radial_878_100590)"/>
  <path d="M222.343 161.318C222.343 161.318 196.212 171.721 175.086 159.123C156.34 147.944 157.391 109.218 129.501 96.094C101.611 82.9701 69.1023 89.2085 69.1023 89.2085L61.0688 106.281C61.0688 106.281 91.3828 99.3692 121.329 113.461C134.973 119.881 149.154 165.565 167.058 176.183C188.448 188.87 214.31 178.39 214.31 178.39L222.343 161.318Z" fill="url(#paint19_radial_878_100590)"/>
  <path d="M214.311 178.39C214.311 178.39 188.179 188.794 167.053 176.195C148.308 165.017 149.358 126.29 121.468 113.167C93.5784 100.043 61.0696 106.281 61.0696 106.281L53.036 123.353C53.036 123.353 83.3501 116.442 113.296 130.533C126.941 136.954 141.121 182.637 159.025 193.256C180.416 205.943 206.277 195.463 206.277 195.463L214.311 178.39Z" fill="url(#paint20_radial_878_100590)"/>
  </g>
  <path d="M175.438 324.935C200.391 324.935 220.781 314.575 224.588 312.516C224.967 312.311 225.13 311.867 224.995 311.456L212.162 272.347C212.111 272.193 212.102 272.027 212.137 271.868L224.855 212.729C224.996 212.073 224.422 211.5 223.799 211.587C224.208 211.319 224.531 211.098 224.765 210.934C225.053 210.732 225.182 210.382 225.111 210.036L201.398 93.6971C201.344 93.4301 201.176 93.2105 200.953 93.0845L195.58 55.4281C195.576 55.401 195.573 55.3743 195.57 55.3474C195.567 55.3263 195.565 55.3052 195.562 55.2837C195.47 54.6581 194.147 50.1304 175 50.1304L175.438 324.935Z" fill="#161A70" fill-opacity="0.1"/>
  <defs>
  <filter id="filter0_f_878_100590" x="121.721" y="209.218" width="106.185" height="118.558" filterUnits="userSpaceOnUse" color-interpolation-filters="sRGB">
  <feFlood flood-opacity="0" result="BackgroundImageFix"/>
  <feBlend mode="normal" in="SourceGraphic" in2="BackgroundImageFix" result="shape"/>
  <feGaussianBlur stdDeviation="1.13932" result="effect1_foregroundBlur_878_100590"/>
  </filter>
  <filter id="filter1_df_878_100590" x="72.9585" y="203.294" width="179.102" height="72.9167" filterUnits="userSpaceOnUse" color-interpolation-filters="sRGB">
  <feFlood flood-opacity="0" result="BackgroundImageFix"/>
  <feColorMatrix in="SourceAlpha" type="matrix" values="0 0 0 0 0 0 0 0 0 0 0 0 0 0 0 0 0 0 127 0" result="hardAlpha"/>
  <feOffset dy="0.911458"/>
  <feGaussianBlur stdDeviation="0.683594"/>
  <feComposite in2="hardAlpha" operator="out"/>
  <feColorMatrix type="matrix" values="0 0 0 0 0 0 0 0 0 0 0 0 0 0 0 0 0 0 0.25 0"/>
  <feBlend mode="normal" in2="BackgroundImageFix" result="effect1_dropShadow_878_100590"/>
  <feBlend mode="normal" in="SourceGraphic" in2="effect1_dropShadow_878_100590" result="shape"/>
  <feGaussianBlur stdDeviation="0.455729" result="effect2_foregroundBlur_878_100590"/>
  </filter>
  <linearGradient id="paint0_linear_878_100590" x1="125" y1="210.5" x2="223.834" y2="279.764" gradientUnits="userSpaceOnUse">
  <stop stop-color="#EEEEEE" stop-opacity="0.79"/>
  <stop offset="1" stop-color="white" stop-opacity="0.17"/>
  </linearGradient>
  <radialGradient id="paint1_radial_878_100590" cx="0" cy="0" r="1" gradientUnits="userSpaceOnUse" gradientTransform="translate(251.387 202.521) rotate(166.008) scale(38.5838 47.5396)">
  <stop offset="0.3125" stop-color="#F85449"/>
  <stop offset="1" stop-color="#CF0000"/>
  <stop offset="1" stop-color="#C53434"/>
  </radialGradient>
  <radialGradient id="paint2_radial_878_100590" cx="0" cy="0" r="1" gradientUnits="userSpaceOnUse" gradientTransform="translate(245.2 225.417) rotate(-175.111) scale(104.432 59.2676)">
  <stop offset="0.302083" stop-color="#FFB800"/>
  <stop offset="1" stop-color="#FF7800"/>
  </radialGradient>
  <radialGradient id="paint3_radial_878_100590" cx="0" cy="0" r="1" gradientUnits="userSpaceOnUse" gradientTransform="translate(236.899 241.186) rotate(-176.071) scale(105.109 61.9852)">
  <stop offset="0.3125" stop-color="#FABE09"/>
  <stop offset="1" stop-color="#FDF21B"/>
  </radialGradient>
  <radialGradient id="paint4_radial_878_100590" cx="0" cy="0" r="1" gradientUnits="userSpaceOnUse" gradientTransform="translate(225.25 257.319) rotate(-177.065) scale(71.232 54.5748)">
  <stop offset="0.203125" stop-color="#71FF30"/>
  <stop offset="0.890625" stop-color="#25BC46"/>
  </radialGradient>
  <radialGradient id="paint5_radial_878_100590" cx="0" cy="0" r="1" gradientUnits="userSpaceOnUse" gradientTransform="translate(219.177 278.337) rotate(-176.071) scale(105.109 61.9852)">
  <stop offset="0.239583" stop-color="#21F6EA"/>
  <stop offset="1" stop-color="#2183F6"/>
  </radialGradient>
  <radialGradient id="paint6_radial_878_100590" cx="0" cy="0" r="1" gradientUnits="userSpaceOnUse" gradientTransform="translate(210.318 296.913) rotate(-176.071) scale(105.109 61.9852)">
  <stop offset="0.3125" stop-color="#321A93"/>
  <stop offset="1" stop-color="#3603FF"/>
  <stop offset="1" stop-color="#3603FF"/>
  </radialGradient>
  <radialGradient id="paint7_radial_878_100590" cx="0" cy="0" r="1" gradientUnits="userSpaceOnUse" gradientTransform="translate(201.458 315.489) rotate(-176.071) scale(105.109 61.9852)">
  <stop offset="0.239583" stop-color="#5000B6"/>
  <stop offset="1" stop-color="#7E5EFF"/>
  </radialGradient>
  <radialGradient id="paint8_radial_878_100590" cx="0" cy="0" r="1" gradientUnits="userSpaceOnUse" gradientTransform="translate(192.597 334.064) rotate(-176.071) scale(105.109 61.9852)">
  <stop offset="0.328125" stop-color="#FF00D6"/>
  <stop offset="0.619792" stop-color="#D700B4"/>
  </radialGradient>
  <linearGradient id="paint9_linear_878_100590" x1="125" y1="211.497" x2="242.237" y2="296.85" gradientUnits="userSpaceOnUse">
  <stop stop-color="#C3C3C3"/>
  <stop offset="1" stop-color="#C3C3C3" stop-opacity="0.15"/>
  </linearGradient>
  <linearGradient id="paint10_linear_878_100590" x1="204.912" y1="228.001" x2="114.012" y2="299.662" gradientUnits="userSpaceOnUse">
  <stop stop-color="white" stop-opacity="0"/>
  <stop offset="0.471361" stop-color="white"/>
  <stop offset="1" stop-color="white"/>
  </linearGradient>
  <radialGradient id="paint11_radial_878_100590" cx="0" cy="0" r="1" gradientUnits="userSpaceOnUse" gradientTransform="translate(123.95 265.844) rotate(79.4004) scale(83.3383 37.0268)">
  <stop stop-color="#F2F2F2"/>
  <stop offset="0.0001" stop-color="#F2F2F2"/>
  <stop offset="1" stop-color="#F2F2F2" stop-opacity="0"/>
  </radialGradient>
  <radialGradient id="paint12_radial_878_100590" cx="0" cy="0" r="1" gradientUnits="userSpaceOnUse" gradientTransform="translate(138.533 269.945) rotate(79.4004) scale(83.3383 37.0268)">
  <stop stop-color="#F2F2F2"/>
  <stop offset="0.0001" stop-color="#F2F2F2"/>
  <stop offset="1" stop-color="#F2F2F2" stop-opacity="0"/>
  </radialGradient>
  <linearGradient id="paint13_linear_878_100590" x1="151.711" y1="65.3393" x2="191.065" y2="113.365" gradientUnits="userSpaceOnUse">
  <stop stop-color="#ECECEC" stop-opacity="0.71"/>
  <stop offset="1" stop-color="#C3C3C3" stop-opacity="0.15"/>
  </linearGradient>
  <radialGradient id="paint14_radial_878_100590" cx="0" cy="0" r="1" gradientUnits="userSpaceOnUse" gradientTransform="translate(229.271 53.4079) rotate(165.824) scale(35.0116 43.6574)">
  <stop offset="0.3125" stop-color="#F85449"/>
  <stop offset="1" stop-color="#CF0000"/>
  <stop offset="1" stop-color="#C53434"/>
  </radialGradient>
  <radialGradient id="paint15_radial_878_100590" cx="0" cy="0" r="1" gradientUnits="userSpaceOnUse" gradientTransform="translate(223.66 74.4505) rotate(-175.045) scale(94.6964 54.4659)">
  <stop offset="0.302083" stop-color="#FFB800"/>
  <stop offset="1" stop-color="#FF7800"/>
  </radialGradient>
  <radialGradient id="paint16_radial_878_100590" cx="0" cy="0" r="1" gradientUnits="userSpaceOnUse" gradientTransform="translate(216.135 88.9436) rotate(-176.018) scale(95.3069 56.9653)">
  <stop offset="0.3125" stop-color="#FABE09"/>
  <stop offset="1" stop-color="#FDF21B"/>
  </radialGradient>
  <radialGradient id="paint17_radial_878_100590" cx="0" cy="0" r="1" gradientUnits="userSpaceOnUse" gradientTransform="translate(205.573 103.771) rotate(-177.025) scale(64.5876 50.1565)">
  <stop offset="0.203125" stop-color="#71FF30"/>
  <stop offset="0.890625" stop-color="#25BC46"/>
  </radialGradient>
  <radialGradient id="paint18_radial_878_100590" cx="0" cy="0" r="1" gradientUnits="userSpaceOnUse" gradientTransform="translate(200.066 123.089) rotate(-176.018) scale(95.3069 56.9653)">
  <stop offset="0.239583" stop-color="#21F6EA"/>
  <stop offset="1" stop-color="#2183F6"/>
  </radialGradient>
  <radialGradient id="paint19_radial_878_100590" cx="0" cy="0" r="1" gradientUnits="userSpaceOnUse" gradientTransform="translate(192.034 140.161) rotate(-176.018) scale(95.3069 56.9653)">
  <stop offset="0.3125" stop-color="#321A93"/>
  <stop offset="1" stop-color="#3603FF"/>
  <stop offset="1" stop-color="#3603FF"/>
  </radialGradient>
  <radialGradient id="paint20_radial_878_100590" cx="0" cy="0" r="1" gradientUnits="userSpaceOnUse" gradientTransform="translate(184.001 157.233) rotate(-176.018) scale(95.3069 56.9653)">
  <stop offset="0.239583" stop-color="#5000B6"/>
  <stop offset="1" stop-color="#7E5EFF"/>
  </radialGradient>
  </defs>

  
    
    </svg>
  