
    <svg width="350" height="350" viewBox="0 0 350 350" fill="none" xmlns="http://www.w3.org/2000/svg">
    
    <!-- Star BG -->
    <g clip-path="url(#clip0_1285_67308)">
      <g filter="url(#filter0_f_1285_67308)">
        <rect x="350" y="350" width="350" height="350" transform="rotate(-180 350.08 350.045)" fill="#0E103E"/>
      </g>
      <g style="mix-blend-mode:overlay" filter="url(#filter1_f_1285_67308)">
        <ellipse rx="270.447" ry="92.7881" transform="matrix(0.999998 0.00221055 0.00221055 -0.999998 176.734 365.185)" fill="url(#paint0_radial_1285_67308)"/>
      </g>
      <g style="mix-blend-mode:overlay" filter="url(#filter2_f_1285_67308)">
        <ellipse cx="174.396" cy="133.052" rx="273.297" ry="336.951" transform="rotate(0.126655 174.396 133.052)" fill="url(#paint1_radial_1285_67308)"/>
      </g>

      <g opacity="0.6">
        <use href="#basicStar1" transform="translate(19.83253, 74.88159)" />
        <use href="#basicStar2" transform="translate(212.81703000000002, 244.46479)" />
        <use href="#basicStar3" transform="translate(324.04303, 109.39579)" />
        <use href="#basicStar4" transform="translate(338.53103, 121.17279)" />
        <use href="#basicStar5" transform="translate(321.21303, 78.78959)" />
        <use href="#basicStar1" transform="translate(155.57303000000002, 142.96979000000002)" />
        <use href="#basicStar2" transform="translate(264.94802999999996, 138.86779)" />
        <use href="#basicStar3" transform="translate(7.215819999999999, 26.38089)" />
        <use href="#basicStar4" transform="translate(62.929730000000006, 114.55579)" />
        <use href="#basicStar5" transform="translate(160.92003000000003, 217.29679000000002)" />
        <use href="#basicStar1" transform="translate(296.87503, 161.29279)" />
        <use href="#basicStar2" transform="translate(128.40503, 194.86679)" />
        <use href="#basicStar3" transform="translate(237.78003, 190.76479)" />
        <use href="#basicStar4" transform="translate(39.08223, 90.04859)" />
        <use href="#basicStar5" transform="translate(56.86163, 75.97069)" />
        <use href="#basicStar1" transform="translate(176.76803, 252.99678999999998)" />
        <use href="#basicStar2" transform="translate(332.57403, 145.44479)" />
        <use href="#basicStar3" transform="translate(164.10403000000002, 179.01879)" />
        <use href="#basicStar4" transform="translate(273.47902999999997, 174.91779)" />
        <use href="#basicStar5" transform="translate(292.50203, 191.35479)" />
        <use href="#basicStar1" transform="translate(65.54933, 97.92979)" />
        <use href="#basicStar2" transform="translate(15.78743, 166.05379)" />
        <use href="#basicStar3" transform="translate(193.12703000000002, 155.35279)" />
        <use href="#basicStar4" transform="translate(234.93003000000002, 129.08579)" />
        <use href="#basicStar5" transform="translate(66.46073, 162.65979000000002)" />
        <use href="#basicStar1" transform="translate(175.83603000000002, 158.55779)" />
        <use href="#basicStar2" transform="translate(1.9404700000000001, 155.94079)" />
        <use href="#basicStar3" transform="translate(209.12003, 161.53679)" />
        <use href="#basicStar4" transform="translate(241.11503000000002, 113.09279000000001)" />
        <use href="#basicStar5" transform="translate(72.64503, 146.66679)" />
        <use href="#basicStar1" transform="translate(182.02003000000002, 142.56579)" />
        <use href="#basicStar2" transform="translate(50.79373, 171.03279)" />
        <use href="#basicStar3" transform="translate(57.99513, 188.35779)" />
        <use href="#basicStar4" transform="translate(158.02503000000002, 159.60379)" />
        <use href="#basicStar5" transform="translate(277.46303, 299.81879)" />
        <use href="#basicStar1" transform="translate(70.71163, 197.76179)" />
        <use href="#basicStar2" transform="translate(180.08703000000003, 193.65979000000002)" />
        <use href="#basicStar3" transform="translate(7.6970600000000005, 87.01729)" />
        <use href="#basicStar4" transform="translate(221.39803, 229.60179)" />
        <use href="#basicStar5" transform="translate(309.18003, 100.81479)" />
        <use href="#basicStar1" transform="translate(212.75003, 303.00879)" />
        <use href="#basicStar2" transform="translate(250.08503000000002, 130.28679)" />
        <use href="#basicStar3" transform="translate(8.583029999999999, 8.60739)" />
        <use href="#basicStar4" transform="translate(318.67203, 227.55079)" />
        <use href="#basicStar5" transform="translate(216.25703000000001, 204.40279)" />
        <use href="#basicStar1" transform="translate(215.48403000000002, 66.94069)" />
        <use href="#basicStar2" transform="translate(115.51103, 139.52979)" />
        <use href="#basicStar3" transform="translate(224.88503, 135.42879)" />
        <use href="#basicStar4" transform="translate(26.18773, 34.71239)" />
        <use href="#basicStar5" transform="translate(22.16633, 118.13379)" />
        <use href="#basicStar1" transform="translate(199.36903, 203.29079000000002)" />
        <use href="#basicStar2" transform="translate(282.86803, 122.84479)" />
        <use href="#basicStar3" transform="translate(12.22903, 319.87079)" />
        <use href="#basicStar4" transform="translate(223.77303, 152.31679)" />
        <use href="#basicStar5" transform="translate(25.07543, 51.60059)" />
        <use href="#basicStar1" transform="translate(41.58893, 57.563889999999994)" />
        <use href="#basicStar2" transform="translate(47.96933, 23.38419)" />
        <use href="#basicStar3" transform="translate(68.02133, 37.511689999999994)" />
        <use href="#basicStar4" transform="translate(79.87013, 7.433590000000001)" />
        <use href="#basicStar5" transform="translate(272.18802999999997, 79.89449)" />
        <use href="#basicStar1" transform="translate(311.38103, 32.04289)" />
        <use href="#basicStar2" transform="translate(252.13603, 51.183589999999995)" />
        <use href="#basicStar3" transform="translate(247.57903000000002, 25.66279)" />
        <use href="#basicStar4" transform="translate(165.54703, 1.9647999999999999)" />
        <use href="#basicStar5" transform="translate(132.27903, 5.15498)" />
        <use href="#basicStar1" transform="translate(134.55803, 37.05609)" />
        <use href="#basicStar2" transform="translate(88.98493, 68.04559)" />
        <use href="#basicStar3" transform="translate(206.56303000000003, 13.81389)" />
        <use href="#basicStar4" transform="translate(217.50103000000001, 43.436189999999996)" />
        <use href="#basicStar5" transform="translate(242.11003000000002, 86.27489)" />
        <use href="#basicStar1" transform="translate(121.79703, 68.04559)" />
        <use href="#basicStar2" transform="translate(106.30303, 92.65499)" />
        <use href="#basicStar3" transform="translate(142.81403, 262.73879)" />
        <use href="#basicStar4" transform="translate(342.31603, 179.39879)" />
        <use href="#basicStar5" transform="translate(173.84703000000002, 212.97179)" />
        <use href="#basicStar1" transform="translate(283.22202999999996, 208.87079)" />
        <use href="#basicStar2" transform="translate(84.52393, 108.15479)" />
        <use href="#basicStar3" transform="translate(7.865029999999999, 52.095189999999995)" />
        <use href="#basicStar4" transform="translate(124.72103, 259.53279)" />
        <use href="#basicStar5" transform="translate(339.11102999999997, 197.49179)" />
        <use href="#basicStar1" transform="translate(112.94503, 327.61779)" />
        <use href="#basicStar2" transform="translate(280.01703, 226.96379000000002)" />
        <use href="#basicStar3" transform="translate(306.63003, 242.39679)" />
        <use href="#basicStar4" transform="translate(278.37503, 250.14379)" />
        <use href="#basicStar5" transform="translate(238.27003000000002, 274.75379)" />
        <use href="#basicStar1" transform="translate(196.34303000000003, 181.32879)" />
        <use href="#basicStar2" transform="translate(143.47903000000002, 203.20379)" />
        <use href="#basicStar3" transform="translate(144.39003000000002, 240.57379)" />
        <use href="#basicStar4" transform="translate(92.43723, 205.93779)" />
        <use href="#basicStar5" transform="translate(91.52593, 180.41779)" />
        <use href="#basicStar1" transform="translate(81.31863, 126.24779000000001)" />
        <use href="#basicStar2" transform="translate(100.27003, 126.53578999999999)" />
        <use href="#basicStar3" transform="translate(121.75203, 215.38979)" />
        <use href="#basicStar4" transform="translate(324.85902999999996, 262.44879000000003)" />
        <use href="#basicStar5" transform="translate(312.09902999999997, 184.06279)" />
        <use href="#basicStar1" transform="translate(320.30203, 165.83379)" />
        <use href="#basicStar2" transform="translate(283.84303, 144.87079)" />
        <use href="#basicStar3" transform="translate(327.59303, 318.95879)" />
        <use href="#basicStar4" transform="translate(254.22103, 153.98479)" />
        <use href="#basicStar5" transform="translate(336.25203, 87.44849)" />
        <use href="#basicStar1" transform="translate(339.89803, 65.57349)" />
        <use href="#basicStar2" transform="translate(126.49802999999999, 234.03479000000002)" />
        <use href="#basicStar3" transform="translate(235.87303, 229.93379000000002)" />
        <use href="#basicStar4" transform="translate(245.56203000000002, 212.77379)" />
        <use href="#basicStar5" transform="translate(220.04103, 180.87279)" />
        <use href="#basicStar1" transform="translate(37.17503, 129.21679)" />
        <use href="#basicStar2" transform="translate(45.23493, 338.29279)" />
        <use href="#basicStar3" transform="translate(129.52103000000002, 183.67079)" />
        <use href="#basicStar4" transform="translate(263.24903, 192.69179)" />
        <use href="#basicStar5" transform="translate(94.77883, 226.26579)" />
        <use href="#basicStar1" transform="translate(204.15403, 222.16379)" />
        <use href="#basicStar2" transform="translate(267.89303, 333.08679)" />
        <use href="#basicStar3" transform="translate(78.33203, 169.16579000000002)" />
        <use href="#basicStar4" transform="translate(131.90803000000002, 168.53479000000002)" />
        <use href="#basicStar5" transform="translate(248.11203, 190.30479)" />
        <use href="#basicStar1" transform="translate(79.64263, 223.87879)" />
        <use href="#basicStar2" transform="translate(189.01803, 219.77679)" />
        <use href="#basicStar3" transform="translate(104.15903, 154.85179)" />
        <use href="#basicStar4" transform="translate(110.66603, 189.04479)" />
        <use href="#basicStar5" transform="translate(268.62302999999997, 211.54679000000002)" />
        <use href="#basicStar1" transform="translate(100.15303, 245.11979)" />
        <use href="#basicStar2" transform="translate(209.52803, 241.01879)" />
        <use href="#basicStar3" transform="translate(10.83003, 140.30279000000002)" />

        <use href="#smallStar1" transform="translate(339.252, 47.7729)" />
        <use href="#smallStar2" transform="translate(239.907, 220.862)" />
        <use href="#smallStar3" transform="translate(80.4019, 217.672)" />
        <use href="#smallStar4" transform="translate(45.3109, 122.424)" />
        <use href="#smallStar5" transform="translate(288.214, 116.5)" />
        <use href="#smallStar1" transform="translate(250.642, 205.148)" />
        <use href="#smallStar2" transform="translate(250.642, 205.148)" />
        <use href="#smallStar3" transform="translate(91.137, 201.958)" />
        <use href="#smallStar4" transform="translate(56.046, 106.71)" />
        <use href="#smallStar5" transform="translate(298.95, 100.786)" />
        <use href="#smallStar1" transform="translate(248.308, 243.577)" />
        <use href="#smallStar2" transform="translate(270.892, 243.737)" />
        <use href="#smallStar3" transform="translate(254.486, 258.33)" />
        <use href="#smallStar4" transform="translate(88.8035, 240.387)" />
        <use href="#smallStar5" transform="translate(53.7122, 145.139)" />
        <use href="#smallStar1" transform="translate(296.616, 139.215)" />
        <use href="#smallStar2" transform="translate(227.461, 250.423)" />
        <use href="#smallStar3" transform="translate(67.9554, 247.232)" />
        <use href="#smallStar4" transform="translate(32.8641, 151.985)" />
        <use href="#smallStar5" transform="translate(275.768, 146.061)" />
        <use href="#smallStar1" transform="translate(210.657, 227.396)" />
        <use href="#smallStar2" transform="translate(51.1519, 224.206)" />
        <use href="#smallStar3" transform="translate(196.152, 340.807)" />
        <use href="#smallStar4" transform="translate(249.473, 297.057)" />
        <use href="#smallStar5" transform="translate(48.0406, 263.102)" />
        <use href="#smallStar1" transform="translate(15.6837, 205.911)" />
        <use href="#smallStar2" transform="translate(266.791, 160.338)" />
        <use href="#smallStar3" transform="translate(254, 172)" />
        <use href="#smallStar4" transform="translate(87.3, 160.5)" />
        <use href="#smallStar5" transform="translate(53.7122, 68.2808)" />

        <use href="#mediumStar1" transform="translate(333, .5)" />
        <use href="#mediumStar2" transform="translate(277.1, 13.5)" />
        <use href="#mediumStar3" transform="translate(96, 38)" />
        <use href="#mediumStar4" transform="translate(284.5, 45)" />
        <use href="#mediumStar5" transform="translate(325, 61)" />
        <use href="#mediumStar1" transform="translate(299, 81)" />
        <use href="#mediumStar2" transform="translate(24, 95)" />
        <use href="#mediumStar3" transform="translate(310, 118)" />
        <use href="#mediumStar4" transform="translate(88.5, 141)" />
        <use href="#mediumStar5" transform="translate(277, 165)" />
        <use href="#mediumStar1" transform="translate(229.6, 170)" />
        <use href="#mediumStar2" transform="translate(34, 180.3)" />
        <use href="#mediumStar3" transform="translate(219, 194)" />
        <use href="#mediumStar4" transform="translate(308, 204)" />
        <use href="#mediumStar5" transform="translate(102, 220)" />
        <use href="#mediumStar1" transform="translate(262, 222.5)" />
        <use href="#mediumStar2" transform="translate(26.5, 230)" />
        <use href="#mediumStar3" transform="translate(108, 242)" />
        <use href="#mediumStar4" transform="translate(13, 255.5)" />
        <use href="#mediumStar5" transform="translate(289, 262)" />
        <use href="#mediumStar1" transform="translate(71, 267.5)" />
        <use href="#mediumStar2" transform="translate(262, 280)" />
        <use href="#mediumStar3" transform="translate(119, 292)" />
        <use href="#mediumStar4" transform="translate(63, 298)" />
        <use href="#mediumStar5" transform="translate(159, 305)" />

        <use href="#largeStar1" transform="translate(109.1, 14)" />
        <use href="#largeStar2" transform="translate(32, 275)" />
        <use href="#largeStar3" transform="translate(308, 143)" />

      </g>
    </g>

    <defs>
      <circle id="basicStar1" cx="1.50497" cy="3.75921" r="1.16688" fill="white">
        <animate attributeName="opacity" values="1;0;1" dur="2.2s" repeatCount="indefinite" />
      </circle>
      <circle id="basicStar2" cx="1.50497" cy="3.75921" r="1.16688" fill="white">
        <animate attributeName="opacity" values="1;0;1" dur="2.4s" repeatCount="indefinite" />
      </circle>
      <circle id="basicStar3" cx="1.50497" cy="3.75921" r="1.16688" fill="white">
        <animate attributeName="opacity" values="1;0;1" dur="2.6s" repeatCount="indefinite" />
      </circle>
      <circle id="basicStar4" cx="1.50497" cy="3.75921" r="1.16688" fill="white">
        <animate attributeName="opacity" values="1;0;1" dur="2.8s" repeatCount="indefinite" />
      </circle>
      <circle id="basicStar5" cx="1.50497" cy="3.75921" r="1.16688" fill="white">
        <animate attributeName="opacity" values="1;0;1" dur="3s" repeatCount="indefinite" />
      </circle>

      <path id="smallStar1" d="M1.55354 3.10986L1.13332 1.97424L-0.00229941 1.55403L1.13332 1.13381L1.55354 -0.0018114L1.97376 1.13381L3.10938 1.55403L1.97376 1.97424L1.55354 3.10986Z" fill="#FFF7B0">
        <animate attributeName="opacity" values="1;0;1" dur="2.1s" repeatCount="indefinite" />
      </path>
      <path id="smallStar2" d="M1.55354 3.10986L1.13332 1.97424L-0.00229941 1.55403L1.13332 1.13381L1.55354 -0.0018114L1.97376 1.13381L3.10938 1.55403L1.97376 1.97424L1.55354 3.10986Z" fill="#FFF7B0">
        <animate attributeName="opacity" values="1;0;1" dur="2.3s" repeatCount="indefinite" />
      </path>
      <path id="smallStar3" d="M1.55354 3.10986L1.13332 1.97424L-0.00229941 1.55403L1.13332 1.13381L1.55354 -0.0018114L1.97376 1.13381L3.10938 1.55403L1.97376 1.97424L1.55354 3.10986Z" fill="#FFF7B0">
        <animate attributeName="opacity" values="1;0;1" dur="2.5s" repeatCount="indefinite" />
      </path>
      <path id="smallStar4" d="M1.55354 3.10986L1.13332 1.97424L-0.00229941 1.55403L1.13332 1.13381L1.55354 -0.0018114L1.97376 1.13381L3.10938 1.55403L1.97376 1.97424L1.55354 3.10986Z" fill="#FFF7B0">
        <animate attributeName="opacity" values="1;0;1" dur="2.7s" repeatCount="indefinite" />
      </path>
      <path id="smallStar5" d="M1.55354 3.10986L1.13332 1.97424L-0.00229941 1.55403L1.13332 1.13381L1.55354 -0.0018114L1.97376 1.13381L3.10938 1.55403L1.97376 1.97424L1.55354 3.10986Z" fill="#FFF7B0">
        <animate attributeName="opacity" values="1;0;1" dur="2.9s" repeatCount="indefinite" />
      </path>

      <path id="mediumStar1" opacity="0.5" d="M2.7265 5.4502L1.99112 3.46286L0.00378823 2.72748L1.99112 1.9921L2.7265 0.00476432L3.46188 1.9921L5.44922 2.72748L3.46188 3.46286L2.7265 5.4502Z" fill="#FFF7B0">
        <animate attributeName="opacity" values="1;0;1" dur="2.15s" repeatCount="indefinite" />
      </path>
      <path id="mediumStar2" opacity="0.5" d="M2.7265 5.4502L1.99112 3.46286L0.00378823 2.72748L1.99112 1.9921L2.7265 0.00476432L3.46188 1.9921L5.44922 2.72748L3.46188 3.46286L2.7265 5.4502Z" fill="#FFF7B0">
        <animate attributeName="opacity" values="1;0;1" dur="2.35s" repeatCount="indefinite" />
      </path>
      <path id="mediumStar3" opacity="0.5" d="M2.7265 5.4502L1.99112 3.46286L0.00378823 2.72748L1.99112 1.9921L2.7265 0.00476432L3.46188 1.9921L5.44922 2.72748L3.46188 3.46286L2.7265 5.4502Z" fill="#FFF7B0">
        <animate attributeName="opacity" values="1;0;1" dur="2.55s" repeatCount="indefinite" />
      </path>
      <path id="mediumStar4" opacity="0.5" d="M2.7265 5.4502L1.99112 3.46286L0.00378823 2.72748L1.99112 1.9921L2.7265 0.00476432L3.46188 1.9921L5.44922 2.72748L3.46188 3.46286L2.7265 5.4502Z" fill="#FFF7B0">
        <animate attributeName="opacity" values="1;0;1" dur="2.75s" repeatCount="indefinite" />
      </path>
      <path id="mediumStar5" opacity="0.5" d="M2.7265 5.4502L1.99112 3.46286L0.00378823 2.72748L1.99112 1.9921L2.7265 0.00476432L3.46188 1.9921L5.44922 2.72748L3.46188 3.46286L2.7265 5.4502Z" fill="#FFF7B0">
        <animate attributeName="opacity" values="1;0;1" dur="2.95s" repeatCount="indefinite" />
      </path>

      <path id="largeStar1" d="M5.92513 11.8501L4.32498 7.52577L0.000650924 5.92562L4.32498 4.32547L5.92513 0.00114008L7.52528 4.32547L11.8496 5.92562L7.52528 7.52577L5.92513 11.8501Z" fill="#FFF7B0">
        <animate attributeName="opacity" values="1;0;1" dur="2.05s" repeatCount="indefinite" />
      </path>
      <path id="largeStar2" d="M5.92513 11.8501L4.32498 7.52577L0.000650924 5.92562L4.32498 4.32547L5.92513 0.00114008L7.52528 4.32547L11.8496 5.92562L7.52528 7.52577L5.92513 11.8501Z" fill="#FFF7B0">
        <animate attributeName="opacity" values="1;0;1" dur="2.25s" repeatCount="indefinite" />
      </path>
      <path id="largeStar3" d="M5.92513 11.8501L4.32498 7.52577L0.000650924 5.92562L4.32498 4.32547L5.92513 0.00114008L7.52528 4.32547L11.8496 5.92562L7.52528 7.52577L5.92513 11.8501Z" fill="#FFF7B0">
        <animate attributeName="opacity" values="1;0;1" dur="2.45s" repeatCount="indefinite" />
      </path>

      <filter id="filter0_f_1285_67308" x="-1.74284" y="-1.77799" width="353.646" height="353.646" filterUnits="userSpaceOnUse" color-interpolation-filters="sRGB">
        <feFlood flood-opacity="0" result="BackgroundImageFix"/>
        <feBlend mode="normal" in="SourceGraphic" in2="BackgroundImageFix" result="shape"/>
        <feGaussianBlur stdDeviation="0.911458" result="effect1_foregroundBlur_1285_67308"/>
      </filter>
      <filter id="filter1_f_1285_67308" x="-98.2702" y="267.838" width="550.007" height="194.694" filterUnits="userSpaceOnUse" color-interpolation-filters="sRGB">
        <feFlood flood-opacity="0" result="BackgroundImageFix"/>
        <feBlend mode="normal" in="SourceGraphic" in2="BackgroundImageFix" result="shape"/>
        <feGaussianBlur stdDeviation="2.27865" result="effect1_foregroundBlur_1285_67308"/>
      </filter>
      <filter id="filter2_f_1285_67308" x="-103.46" y="-208.456" width="555.71" height="683.015" filterUnits="userSpaceOnUse" color-interpolation-filters="sRGB">
        <feFlood flood-opacity="0" result="BackgroundImageFix"/>
        <feBlend mode="normal" in="SourceGraphic" in2="BackgroundImageFix" result="shape"/>
        <feGaussianBlur stdDeviation="2.27865" result="effect1_foregroundBlur_1285_67308"/>
      </filter>
      <radialGradient id="paint0_radial_1285_67308" cx="0" cy="0" r="1" gradientUnits="userSpaceOnUse" gradientTransform="translate(270.447 106.491) rotate(99.1226) scale(61.1193 174.192)">
        <stop stop-color="white" stop-opacity="0.75"/>
        <stop offset="1" stop-color="white" stop-opacity="0"/>
      </radialGradient>
      <radialGradient id="paint1_radial_1285_67308" cx="0" cy="0" r="1" gradientUnits="userSpaceOnUse" gradientTransform="translate(174.396 182.812) rotate(92.5586) scale(219.36 178.105)">
        <stop stop-color="white" stop-opacity="0.75"/>
        <stop offset="1" stop-color="white" stop-opacity="0"/>
      </radialGradient>
      <clipPath id="clip0_1285_67308">
        <rect width="350" height="350" fill="white"/>
      </clipPath>
    </defs>
  
    
    
    
  <!-- Normal Glass -->
    <path d="M148.717 95L125.019 209.98C124.948 210.324 125.078 210.673 125.367 210.873C128.479 213.027 147.033 225 175 225C202.967 225 221.521 213.027 224.633 210.873C224.922 210.673 225.052 210.324 224.981 209.98L201.283 95C201.249 95.0666 201.205 95.1285 201.15 95.1836C199.818 96.5241 193.18 102.106 175 102.106C156.82 102.106 150.182 96.5241 148.85 95.1836C148.795 95.1285 148.751 95.0666 148.717 95Z" fill="#F59B13" fill-opacity="0.6"/>
  
    
    
    <!-- Lava 1 -->
    <!-- Color -->
    <!-- filter -->
    <path d="M201.33 94.2312L205.4 114.032C203.808 113.761 202.153 113.448 200.459 113.128C186.293 110.453 169.479 107.277 165.223 123.731C163.365 130.915 166.057 135.213 168.676 139.394C171.205 143.431 173.665 147.359 171.9 153.669C169.751 161.35 158.067 166.325 148.671 162.995C138.746 159.477 139.443 144.904 145.148 137.85C150.853 130.795 151.677 120.031 150.853 112.871C150.454 109.41 148.742 106.935 146.502 105.251L148.841 93.8809C148.875 93.9478 148.92 94.0101 148.975 94.0656C150.853 95.9589 156.979 101.03 175.237 101.03C192.824 101.03 199.656 95.8196 201.33 94.2312Z" fill="url(#paint0_radial_931_113783)"/>
    <mask id="mask0_931_113783" style="mask-type:alpha" maskUnits="userSpaceOnUse" x="141" y="93" width="65" height="72">
    <path d="M201.33 94.2302L205.4 114.031C203.808 113.76 202.153 113.447 200.459 113.127C186.293 110.452 169.479 107.276 165.223 123.73C163.365 130.914 166.057 135.212 168.676 139.393C171.205 143.43 173.665 147.358 171.9 153.668C169.751 161.349 158.067 166.324 148.671 162.994C138.746 159.476 139.443 144.903 145.148 137.849C150.853 130.794 151.677 120.03 150.853 112.87C150.454 109.409 148.742 106.934 146.502 105.25L148.841 93.8799C148.875 93.9469 148.92 94.0092 148.975 94.0646C150.313 95.4133 156.979 101.029 175.237 101.029C192.824 101.029 199.656 95.8187 201.33 94.2302Z" fill="url(#paint1_radial_931_113783)"/>
    </mask>
    <g mask="url(#mask0_931_113783)">
    <g filter="url(#filter0_f_931_113783)">
    <mask id="mask1_931_113783" style="mask-type:alpha" maskUnits="userSpaceOnUse" x="125" y="94" width="101" height="132">
    <path d="M149.015 95.0639C149.102 94.6401 149.475 94.3359 149.907 94.3359H200.399C200.831 94.3359 201.205 94.6401 201.292 95.0639L225.146 211.159C225.227 211.555 225.041 211.955 224.68 212.137C220.777 214.109 198.528 224.817 175.153 225.128C151.731 225.438 129.441 214.178 125.603 212.141C125.253 211.954 125.077 211.562 125.157 211.173L149.015 95.0639Z" fill="#577096" fill-opacity="0.75"/>
    </mask>
    <g mask="url(#mask1_931_113783)">
    <g filter="url(#filter1_f_931_113783)">
    <path d="M207.362 76.1064C211.019 110.268 146.094 132.571 113.174 139.453L113.174 76.1064L207.362 76.1064Z" fill="url(#paint2_linear_931_113783)" fill-opacity="0.5"/>
    </g>
    <g filter="url(#filter2_f_931_113783)">
    <path d="M155.56 125.301C156.622 105.018 134.624 86.1828 129.082 66.9985C133.541 65.1973 144.203 70.7896 152.828 76.1247C163.609 82.7936 163.032 109.124 164.778 125.784C166.175 139.112 148.606 223.401 144.168 241.481L131.869 240.837C140.395 214.68 154.74 140.955 155.56 125.301Z" fill="url(#paint3_linear_931_113783)" fill-opacity="0.6"/>
    </g>
    </g>
    </g>
    </g>
    <defs>
    <filter id="filter0_f_931_113783" x="122.744" y="92.0573" width="104.986" height="135.355" filterUnits="userSpaceOnUse" color-interpolation-filters="sRGB">
    <feFlood flood-opacity="0" result="BackgroundImageFix"/>
    <feBlend mode="normal" in="SourceGraphic" in2="BackgroundImageFix" result="shape"/>
    <feGaussianBlur stdDeviation="1.13932" result="effect1_foregroundBlur_931_113783"/>
    </filter>
    <filter id="filter1_f_931_113783" x="112.262" y="75.195" width="96.1589" height="65.1696" filterUnits="userSpaceOnUse" color-interpolation-filters="sRGB">
    <feFlood flood-opacity="0" result="BackgroundImageFix"/>
    <feBlend mode="normal" in="SourceGraphic" in2="BackgroundImageFix" result="shape"/>
    <feGaussianBlur stdDeviation="0.455729" result="effect1_foregroundBlur_931_113783"/>
    </filter>
    <filter id="filter2_f_931_113783" x="128.17" y="65.7428" width="37.5978" height="176.65" filterUnits="userSpaceOnUse" color-interpolation-filters="sRGB">
    <feFlood flood-opacity="0" result="BackgroundImageFix"/>
    <feBlend mode="normal" in="SourceGraphic" in2="BackgroundImageFix" result="shape"/>
    <feGaussianBlur stdDeviation="0.455729" result="effect1_foregroundBlur_931_113783"/>
    </filter>
    <radialGradient id="paint0_radial_931_113783" cx="0" cy="0" r="1" gradientUnits="userSpaceOnUse" gradientTransform="translate(156.087 109.102) rotate(53.0717) scale(37.8406 40.3077)">
    <stop offset="0.203125" style="stop-color: #321A93;"/>
    <stop offset="0.890625" style="stop-color: #3603FF;"/>
    </radialGradient>
    <radialGradient id="paint1_radial_931_113783" cx="0" cy="0" r="1" gradientUnits="userSpaceOnUse" gradientTransform="translate(156.087 109.101) rotate(53.0717) scale(37.8406 40.3077)">
    <stop offset="0.203125" stop-color="#71FF30"/>
    <stop offset="0.890625" stop-color="#25BC46"/>
    </radialGradient>
    <linearGradient id="paint2_linear_931_113783" x1="145.368" y1="123.01" x2="155.982" y2="72.2914" gradientUnits="userSpaceOnUse">
    <stop stop-color="white" stop-opacity="0"/>
    <stop offset="0.471361" stop-color="white"/>
    <stop offset="1" stop-color="white"/>
    </linearGradient>
    <linearGradient id="paint3_linear_931_113783" x1="160.882" y1="220.938" x2="202.107" y2="178" gradientUnits="userSpaceOnUse">
    <stop stop-color="#F2F2F2"/>
    <stop offset="0.0001" stop-color="#F2F2F2"/>
    <stop offset="0.0520833" stop-color="#F2F2F2" stop-opacity="0.948011"/>
    <stop offset="1" stop-color="#F2F2F2" stop-opacity="0"/>
    </linearGradient>
    </defs>
  
    
  <!-- Lava 2 -->
    <!-- Color -->
<path d="M178.202 131.059C178.202 128.163 180.222 122.394 188.299 122.479C196.377 122.565 198.468 128.235 198.504 131.059C198.576 133.132 197.365 137.622 191.952 138.995C185.184 140.711 178.202 136.85 178.202 131.059Z" fill="url(#paint0_radial_931_113845)"/>
<defs>
<radialGradient id="paint0_radial_931_113845" cx="0" cy="0" r="1" gradientUnits="userSpaceOnUse" gradientTransform="translate(182.959 126.151) rotate(45.5119) scale(10.2292 11.3416)">
<stop offset="0.203125" style="stop-color: #FABE09;"/>
<stop offset="0.890625" style="stop-color: #FDF21B;"/>
</radialGradient>
</defs>
  
    
    
  <!-- Lava 4 -->
    <!-- Color -->
    <path d="M225 210.659C220.5 214 200.704 225 175.402 225C147.201 225 128.492 213.024 125.354 210.869C125.163 210.738 125.042 210.543 125 210.328C128.968 198.996 144.393 175.959 164.496 181.99C174.451 184.976 181.421 192.474 187.975 199.525C198.127 210.446 208 213.5 225 210.659C224.675 211.045 225.345 210.27 225 210.659Z" fill="url(#paint0_radial_931_113863)"/>
<mask id="mask0_931_113863" style="mask-type:alpha" maskUnits="userSpaceOnUse" x="124" y="180" width="101" height="45">
<path d="M223.866 211.799C218.236 215.343 200.575 225 175.272 225C147.071 225 128.362 213.003 125.225 210.845C125.034 210.714 124.912 210.519 124.87 210.303C128.839 198.951 144.263 175.875 164.366 181.916C174.321 184.908 181.291 192.418 187.845 199.481C197.997 210.421 207.154 220.288 224.87 210.635C224.545 211.021 224.21 211.409 223.866 211.799Z" fill="url(#paint1_radial_931_113863)"/>
</mask>
<g mask="url(#mask0_931_113863)">
<g filter="url(#filter0_f_931_113863)">
<mask id="mask1_931_113863" style="mask-type:alpha" maskUnits="userSpaceOnUse" x="124" y="94" width="102" height="132">
<path d="M148.862 95.3198C148.949 94.896 149.322 94.5918 149.755 94.5918H200.246C200.679 94.5918 201.052 94.896 201.139 95.3198L224.993 211.414C225.075 211.811 224.888 212.211 224.527 212.393C220.624 214.365 198.376 225.073 175 225.383C151.578 225.694 129.288 214.434 125.45 212.396C125.1 212.21 124.924 211.818 125.004 211.429L148.862 95.3198Z" fill="#577096" fill-opacity="0.75"/>
</mask>
<g mask="url(#mask1_931_113863)">
<g filter="url(#filter1_f_931_113863)">
<path d="M155.407 125.557C156.47 105.273 134.471 86.4386 128.929 67.2543C133.388 65.4531 144.05 71.0455 152.675 76.3806C163.456 83.0494 162.879 109.38 164.625 126.04C166.022 139.368 148.453 223.657 144.015 241.737L131.716 241.093C140.242 214.936 154.587 141.211 155.407 125.557Z" fill="url(#paint2_linear_931_113863)" fill-opacity="0.6"/>
</g>
</g>
</g>
</g>
<defs>
<filter id="filter0_f_931_113863" x="122.591" y="92.3132" width="105.59" height="135.355" filterUnits="userSpaceOnUse" color-interpolation-filters="sRGB">
<feFlood flood-opacity="0" result="BackgroundImageFix"/>
<feBlend mode="normal" in="SourceGraphic" in2="BackgroundImageFix" result="shape"/>
<feGaussianBlur stdDeviation="1.13932" result="effect1_foregroundBlur_931_113863"/>
</filter>
<filter id="filter1_f_931_113863" x="128.017" y="65.9987" width="37.5983" height="176.65" filterUnits="userSpaceOnUse" color-interpolation-filters="sRGB">
<feFlood flood-opacity="0" result="BackgroundImageFix"/>
<feBlend mode="normal" in="SourceGraphic" in2="BackgroundImageFix" result="shape"/>
<feGaussianBlur stdDeviation="0.455729" result="effect1_foregroundBlur_931_113863"/>
</filter>
<radialGradient id="paint0_radial_931_113863" cx="0" cy="0" r="1" gradientUnits="userSpaceOnUse" gradientTransform="translate(148.451 190.545) rotate(28.2255) scale(40.1081 37.0676)">
<stop offset="0.203125" style="stop-color: #F85449;"/>
<stop offset="0.890625" style="stop-color: #C53434;"/>
</radialGradient>
<radialGradient id="paint1_radial_931_113863" cx="0" cy="0" r="1" gradientUnits="userSpaceOnUse" gradientTransform="translate(146.382 191.229) rotate(27.0849) scale(58.9221 42.3164)">
<stop offset="0.302083" stop-color="#FFB800"/>
<stop offset="1" stop-color="#FF7800"/>
</radialGradient>
<linearGradient id="paint2_linear_931_113863" x1="160.729" y1="221.194" x2="201.954" y2="178.256" gradientUnits="userSpaceOnUse">
<stop stop-color="#F2F2F2"/>
<stop offset="0.0001" stop-color="#F2F2F2"/>
<stop offset="0.0520833" stop-color="#F2F2F2" stop-opacity="0.948011"/>
<stop offset="1" stop-color="#F2F2F2" stop-opacity="0"/>
</linearGradient>
</defs>
  
  
    
  <!-- Gold Alien -->
  <path d="M232 314.132L205.528 284H175.802H146.255L120 314.132C120 314.132 137.809 334 176 334C214.191 334 232 314.132 232 314.132Z" fill="url(#paint0_linear_1393_70782)"/>
  <path d="M125.144 211.218C125.284 210.613 125.976 210.328 126.515 210.635C131.427 213.429 152.369 224.483 176.23 224.483C200.052 224.483 220.616 213.464 225.482 210.649C226.022 210.336 226.718 210.622 226.859 211.23C230.494 226.905 237.145 263.543 225.134 282.351C209.608 306.662 183.96 315 176 315C168.04 315 142.392 306.662 126.866 282.351C114.852 263.539 121.509 226.886 125.144 211.218Z" fill="url(#paint1_linear_1393_70782)"/>
  <path d="M132.892 277.2C124.073 262.648 125.11 251.271 130.299 246.508C139.556 238.011 154.682 252.858 160.649 265.294C166.615 277.729 167.393 287.254 162.464 291.752C157.536 296.25 141.712 291.752 132.892 277.2Z" stroke="url(#paint2_linear_1393_70782)" stroke-width="1.8229"/>
  <path fill-rule="evenodd" clip-rule="evenodd" d="M177.145 302.935C174.135 303.034 168.601 302.259 164.783 298.409H176.229H178.06H189.506C185.688 302.259 180.154 303.034 177.145 302.935Z" fill="#E0AE0D"/>
  <path d="M220.634 276.266C228.634 263.316 227.692 253.191 222.987 248.953C214.591 241.391 200.872 254.604 195.46 265.67C190.049 276.737 189.343 285.213 193.813 289.216C198.284 293.218 212.635 289.216 220.634 276.266Z" fill="#070707" stroke="#070707" stroke-width="0.455725"/>
  <path d="M220.863 277.2C229.786 262.648 228.736 251.271 223.487 246.508C214.123 238.011 198.82 252.858 192.784 265.294C186.749 277.729 185.961 287.254 190.947 291.752C195.933 296.25 211.941 291.752 220.863 277.2Z" stroke="url(#paint3_linear_1393_70782)" stroke-width="1.8229"/>
  <path d="M221.779 277.2C230.702 262.648 229.652 251.271 224.403 246.508C215.039 238.011 199.736 252.858 193.7 265.294C187.665 277.729 186.878 287.254 191.863 291.752C196.849 296.25 212.857 291.752 221.779 277.2Z" stroke="url(#paint4_linear_1393_70782)" stroke-width="1.8229"/>
  <path d="M222.944 255.888C222.139 252.257 220.229 250.665 218.662 250.747C215.866 250.892 215.698 255.561 216.639 258.417C217.58 261.273 218.914 262.864 220.398 262.783C221.883 262.701 223.749 259.519 222.944 255.888Z" fill="url(#paint5_radial_1393_70782)"/>
  <path fill-rule="evenodd" clip-rule="evenodd" d="M177.146 291.651C175.681 291.473 172.164 291.759 169.82 294.329H177.146H184.471C182.127 291.759 178.611 291.473 177.146 291.651Z" fill="#E0AE0D"/>
  <path d="M134.035 276.266C126.138 263.316 127.068 253.191 131.713 248.953C140.001 241.391 153.545 254.604 158.887 265.67C164.229 276.737 164.925 285.213 160.513 289.216C156.1 293.218 141.932 289.216 134.035 276.266Z" fill="#070707" stroke="#070707" stroke-width="0.455725"/>
  <path d="M131.497 255.888C132.302 252.257 134.212 250.665 135.779 250.747C138.576 250.892 138.744 255.561 137.802 258.417C136.861 261.273 135.528 262.864 134.043 262.783C132.558 262.701 130.692 259.519 131.497 255.888Z" fill="url(#paint6_radial_1393_70782)"/>


  <path d="M132.892 277.2C124.073 262.648 125.11 251.271 130.299 246.508C139.556 238.011 154.682 252.858 160.649 265.294C166.615 277.729 167.393 287.254 162.464 291.752C157.536 296.25 141.712 291.752 132.892 277.2Z" stroke="url(#paint7_linear_1393_70782)" stroke-width="1.8229"/>
  <path d="M156.243 65.4676C159.772 52.5408 162.617 36 175.78 36C188.944 36 193.555 56.48 195.757 65.7828C197.959 75.0855 203 97.6452 203 97.6452C203 97.6452 197.119 105 176 105C154.881 105 149 97.6452 149 97.6452C149 97.6452 152.714 78.3945 156.243 65.4676Z" fill="url(#paint8_linear_1393_70782)"/>
  <path fill-rule="evenodd" clip-rule="evenodd" d="M178.402 225.999L178.3 225.999C178.886 225.998 179.468 225.991 180.046 225.98C179.5 225.992 178.952 225.999 178.402 225.999Z" fill="#161A70" fill-opacity="0.1"/>
  <path fill-rule="evenodd" clip-rule="evenodd" d="M231.999 314C231.999 314 214.499 334 175.994 334V36C188.163 36 193.175 55.6281 195.288 65.0593L195.396 65.5391C197.244 73.7729 201.674 92.4777 202.508 96.4079C202.56 96.656 202.555 96.905 202.488 97.1335L225.999 210C226.044 210.228 226.113 210.313 225.999 210.5C226.194 210.377 226.577 210.234 226.999 211.5C227.42 212.766 238.499 256.5 226.117 281C222.917 286.227 218.833 291.181 214.999 295L231.999 314ZM178.402 225.999L178.3 225.999C178.886 225.998 179.468 225.991 180.046 225.98C179.5 225.992 178.952 225.999 178.402 225.999Z" fill="#161A70" fill-opacity="0.1"/>

  <g mask="url(#mask0_1393_70782)">
    <g style="mix-blend-mode:overlay">
      <circle cx="168.013" cy="324.25" r="1.22977" fill="white">
        <animate attributeName="opacity" values="1;0;1" dur="2.28s" repeatCount="indefinite" />
      </circle>
      <circle cx="135.856" cy="305.288" r="1.22977" fill="white">
        <animate attributeName="opacity" values="1;0;1" dur="2.64s" repeatCount="indefinite" />
      </circle>
      <circle cx="152.431" cy="315.619" r="1.22977" fill="white">
        <animate attributeName="opacity" values="1;0;1" dur="2.76s" repeatCount="indefinite" />
      </circle>
      <circle cx="186.711" cy="321.607" r="1.22977" fill="white">
        <animate attributeName="opacity" values="1;0;1" dur="2.16s" repeatCount="indefinite" />
      </circle>
      <path d="M123.643 313.65L122.868 311.556L120.774 310.781L122.868 310.006L123.643 307.911L124.418 310.006L126.513 310.781L124.418 311.556L123.643 313.65Z" fill="#FFF7B0">
        <animate attributeName="opacity" values="1;0;1" dur="2.28s" repeatCount="indefinite" />
      </path>
      <path d="M137.309 320.192L136.534 318.098L134.439 317.323L136.534 316.548L137.309 314.453L138.084 316.548L140.178 317.323L138.084 318.098L137.309 320.192Z" fill="#FFF7B0">
        <animate attributeName="opacity" values="1;0;1" dur="2.82s" repeatCount="indefinite" />
      </path>
      <path d="M182.882 336.598L182.107 334.504L180.013 333.729L182.107 332.954L182.882 330.859L183.658 332.954L185.752 333.729L183.658 334.504L182.882 336.598Z" fill="#FFF7B0">
        <animate attributeName="opacity" values="1;0;1" dur="2.63s" repeatCount="indefinite" />
      </path>
      <path d="M220.243 313.173L218.556 308.615L213.999 306.929L218.556 305.242L220.243 300.685L221.929 305.242L226.486 306.929L221.929 308.615L220.243 313.173Z" fill="#FFF7B0">
        <animate attributeName="opacity" values="1;0;1" dur="2.75s" repeatCount="indefinite" />
      </path>
      <path opacity="0.25" d="M141.276 290.755L137.706 281.109L128.059 277.539L137.706 273.969L141.276 264.323L144.845 273.969L154.492 277.539L144.845 281.109L141.276 290.755Z" fill="#FFF7B0">
        <animate attributeName="opacity" values="0.25; 0;0.25" dur="2.14s" repeatCount="indefinite" />
      </path>
      <path opacity="0.25" d="M155.859 352.279L152.289 342.466L142.643 338.835L152.289 335.203L155.859 325.391L159.429 335.203L169.075 338.835L159.429 342.466L155.859 352.279Z" fill="#FFF7B0">
        <animate attributeName="opacity" values="0.25; 0;0.25" dur="2.8s" repeatCount="indefinite" />
      </path>
      <path opacity="0.25" d="M205.761 333.594L202.622 325.111L194.14 321.973L202.622 318.834L205.761 310.352L208.899 318.834L217.382 321.973L208.899 325.111L205.761 333.594Z" fill="#FFF7B0">
        <animate attributeName="opacity" values="0.25; 0;0.25" dur="2.2s" repeatCount="indefinite" />
      </path>
    </g>
  </g>
  <mask id="mask0_1393_70782" style="mask-type:alpha" maskUnits="userSpaceOnUse" x="118" y="284" width="112" height="51">
  <path d="M228.797 314.118L203.309 284.687C203.136 284.487 202.884 284.372 202.62 284.372H173.524H144.607C144.341 284.372 144.089 284.488 143.916 284.69L118.638 314.118C118.342 314.463 118.34 314.963 118.66 315.287C121.883 318.543 139.616 334.73 173.72 334.73C207.816 334.73 225.55 318.55 228.778 315.289C229.099 314.964 229.096 314.463 228.797 314.118Z" fill="url(#paint9_linear_1393_70782)"/>
  </mask>
  <mask id="mask1_1393_70782" style="mask-type:alpha" maskUnits="userSpaceOnUse" x="120" y="210" width="112" height="106">
  <path d="M125.792 210.088C125.792 210.088 149.111 224.672 176.227 224.672C203.343 224.672 226.207 210.088 226.207 210.088C229.73 225.093 237.03 263.489 224.782 282.941C209.367 307.422 183.902 315.818 175.999 315.818C168.097 315.818 142.632 307.422 127.217 282.941C114.968 263.489 122.268 225.093 125.792 210.088Z" fill="#6DF244"/>
  <path d="M125.792 210.088C125.792 210.088 149.111 224.672 176.227 224.672C203.343 224.672 226.207 210.088 226.207 210.088C229.73 225.093 237.03 263.489 224.782 282.941C209.367 307.422 183.902 315.818 175.999 315.818C168.097 315.818 142.632 307.422 127.217 282.941C114.968 263.489 122.268 225.093 125.792 210.088Z" fill="url(#paint10_linear_1393_70782)" fill-opacity="0.8"/>
  </mask>
  <g mask="url(#mask1_1393_70782)">
    <g style="mix-blend-mode:overlay">
      <circle cx="131.754" cy="246.499" r="1.22977" fill="white">
        <animate attributeName="opacity" values="1;0;1" dur="2.69s" repeatCount="indefinite" />
      </circle>
      <circle cx="155.267" cy="240.032" r="1.22977" fill="white">
        <animate attributeName="opacity" values="1;0;1" dur="2.46s" repeatCount="indefinite" />
      </circle>
      <circle cx="163.926" cy="308.391" r="1.22977" fill="white">
        <animate attributeName="opacity" values="1;0;1" dur="2.25s" repeatCount="indefinite" />
      </circle>
      <circle cx="209.562" cy="293.567" r="1.22977" fill="white">
        <animate attributeName="opacity" values="1;0;1" dur="2.32s" repeatCount="indefinite" />
      </circle>

      <path d="M134.712 289.933L134.269 288.736L133.073 288.293L134.269 287.851L134.712 286.654L135.155 287.851L136.352 288.293L135.155 288.736L134.712 289.933Z" fill="#FFF7B0">
        <animate attributeName="opacity" values="1;0;1" dur="2.66s" repeatCount="indefinite" />
      </path>
      <path d="M121.04 260.311L120.598 259.114L119.401 258.671L120.598 258.228L121.04 257.031L121.483 258.228L122.68 258.671L121.483 259.114L121.04 260.311Z" fill="#FFF7B0">
        <animate attributeName="opacity" values="1;0;1" dur="2.12s" repeatCount="indefinite" />
      </path>
      <path d="M220.846 228.41L220.403 227.213L219.206 226.77L220.403 226.327L220.846 225.13L221.289 226.327L222.485 226.77L221.289 227.213L220.846 228.41Z" fill="#FFF7B0">
        <animate attributeName="opacity" values="1;0;1" dur="2.38s" repeatCount="indefinite" />
      </path>
      <path d="M229.049 253.475L228.606 252.278L227.409 251.835L228.606 251.392L229.049 250.195L229.492 251.392L230.688 251.835L229.492 252.278L229.049 253.475Z" fill="#FFF7B0">
        <animate attributeName="opacity" values="1;0;1" dur="2.9s" repeatCount="indefinite" />
      </path>
      <path d="M183.344 263.976L182.569 261.881L180.474 261.106L182.569 260.331L183.344 258.237L184.119 260.331L186.213 261.106L184.119 261.881L183.344 263.976Z" fill="#FFF7B0">
        <animate attributeName="opacity" values="1;0;1" dur="2.54s" repeatCount="indefinite" />
      </path>
      <path d="M169.667 238.617L168.892 236.522L166.798 235.747L168.892 234.972L169.667 232.878L170.442 234.972L172.537 235.747L170.442 236.522L169.667 238.617Z" fill="#FFF7B0">
        <animate attributeName="opacity" values="1;0;1" dur="2.73s" repeatCount="indefinite" />
      </path>
      <path d="M155.995 314.723L155.22 312.629L153.125 311.854L155.22 311.079L155.995 308.984L156.77 311.079L158.864 311.854L156.77 312.629L155.995 314.723Z" fill="#FFF7B0">
        <animate attributeName="opacity" values="1;0;1" dur="2.21s" repeatCount="indefinite" />
      </path>
      <path d="M192.909 306.52L192.134 304.426L190.04 303.651L192.134 302.876L192.909 300.781L193.684 302.876L195.779 303.651L193.684 304.426L192.909 306.52Z" fill="#FFF7B0">
        <animate attributeName="opacity" values="1;0;1" dur="2.3s" repeatCount="indefinite" />
      </path>
      <path d="M200.647 245.269L198.96 240.712L194.403 239.025L198.96 237.339L200.647 232.781L202.333 237.339L206.891 239.025L202.333 240.712L200.647 245.269Z" fill="#FFF7B0">
        <animate attributeName="opacity" values="1;0;1" dur="2.3s" repeatCount="indefinite" />
      </path>
      <path opacity="0.25" d="M141.732 236.523L138.162 226.877L128.515 223.307L138.162 219.738L141.732 210.091L145.301 219.738L154.948 223.307L145.301 226.877L141.732 236.523Z" fill="#FFF7B0">
        <animate attributeName="opacity" values=".25;0;.25" dur="2.6s" repeatCount="indefinite" />
      </path>
      <path opacity="0.25" d="M159.505 277.539L155.935 267.726L146.289 264.095L155.935 260.464L159.505 250.651L163.075 260.464L172.721 264.095L163.075 267.726L159.505 277.539Z" fill="#FFF7B0">
        <animate attributeName="opacity" values=".25;0;.25" dur="2.8s" repeatCount="indefinite" />
      </path>
    </g>
  </g>
  <mask id="mask2_1393_70782" style="mask-type:alpha" maskUnits="userSpaceOnUse" x="149" y="32" width="54" height="71">
  <path d="M156.657 62.5804C160.111 49.6028 162.897 32.9971 175.784 32.9971C188.67 32.9971 193.185 53.5575 195.34 62.8967C197.327 71.5013 201.672 91.4031 202.343 94.4812C202.401 94.7457 202.334 95.0071 202.144 95.2005C200.761 96.6122 194.093 102.268 175.999 102.268C157.85 102.268 151.196 96.578 149.841 95.1878C149.658 95.0004 149.592 94.7478 149.641 94.4907C150.176 91.684 153.492 74.4684 156.657 62.5804Z" fill="url(#paint11_linear_1393_70782)"/>
  </mask>
  <g mask="url(#mask2_1393_70782)">
    <g style="mix-blend-mode:overlay">
      <circle cx="170.459" cy="68.1028" r="1.21779" fill="white">
        <animate attributeName="opacity" values="1;0;1" dur="2.38s" repeatCount="indefinite" />
      </circle>
      <circle cx="190.236" cy="68.403" r="1.21779" fill="white">
        <animate attributeName="opacity" values="1;0;1" dur="2.69s" repeatCount="indefinite" />
      </circle>
      <path d="M179.132 85.5465L178.364 83.4725L176.29 82.705L178.364 81.9375L179.132 79.8635L179.899 81.9375L181.973 82.705L179.899 83.4725L179.132 85.5465Z" fill="#FFF7B0">
        <animate attributeName="opacity" values="1;0;1" dur="2.21s" repeatCount="indefinite" />
      </path>
      <path d="M162.378 50.5544L161.611 48.4804L159.537 47.7129L161.611 46.9455L162.378 44.8714L163.146 46.9455L165.22 47.7129L163.146 48.4804L162.378 50.5544Z" fill="#FFF7B0">
        <animate attributeName="opacity" values="1;0;1" dur="2.47s" repeatCount="indefinite" />
      </path>
      <path d="M162.803 95.1934L162.035 93.1194L159.961 92.3519L162.035 91.5844L162.803 89.5104L163.57 91.5844L165.644 92.3519L163.57 93.1194L162.803 95.1934Z" fill="#FFF7B0">
        <animate attributeName="opacity" values="1;0;1" dur="2.88s" repeatCount="indefinite" />
      </path>
      <path d="M191.513 92.0034L190.746 89.9293L188.672 89.1618L190.746 88.3944L191.513 86.3203L192.281 88.3944L194.355 89.1618L192.281 89.9293L191.513 92.0034Z" fill="#FFF7B0">
        <animate attributeName="opacity" values="1;0;1" dur="2.15s" repeatCount="indefinite" />
      </path>
      <path d="M178.297 62.8367L177.53 60.7626L175.456 59.9952L177.53 59.2277L178.297 57.1537L179.065 59.2277L181.139 59.9952L179.065 60.7626L178.297 62.8367Z" fill="#FFF7B0">
        <animate attributeName="opacity" values="1;0;1" dur="2.36s" repeatCount="indefinite" />
      </path>
      <path opacity="0.25" d="M157.226 80.8516L154.888 74.5314L148.568 72.1927L154.888 69.854L157.226 63.5339L159.565 69.854L165.885 72.1927L159.565 74.5314L157.226 80.8516Z" fill="#FFF7B0">
        <animate attributeName="opacity" values=".25;0;.25" dur="2.55s" repeatCount="indefinite" />
      </path>
      <path opacity="0.25" d="M175 112.297L172.662 105.977L166.341 103.638L172.662 101.299L175 94.9791L177.339 101.299L183.659 103.638L177.339 105.977L175 112.297Z" fill="#FFF7B0">
        <animate attributeName="opacity" values=".25;0;.25" dur="2.64s" repeatCount="indefinite" />
      </path>
      <path opacity="0.25" d="M144.01 99.5364L141.671 93.2163L135.351 90.8776L141.671 88.5389L144.01 82.2187L146.349 88.5389L152.669 90.8776L146.349 93.2163L144.01 99.5364Z" fill="#FFF7B0">
        <animate attributeName="opacity" values=".25;0;.25" dur="2.9s" repeatCount="indefinite" />
      </path>
      <path opacity="0.25" d="M187.305 50.3177L184.966 43.9975L178.646 41.6588L184.966 39.3202L187.305 33L189.644 39.3202L195.964 41.6588L189.644 43.9975L187.305 50.3177Z" fill="#FFF7B0">
        <animate attributeName="opacity" values=".25;0;.25" dur="2.2s" repeatCount="indefinite" />
      </path>
    </g>
  </g>
  <defs>
  <linearGradient id="paint0_linear_1393_70782" x1="135.782" y1="292.2" x2="164.982" y2="360.923" gradientUnits="userSpaceOnUse">
  <stop stop-color="#C59651"/>
  <stop offset="0.536458" stop-color="#E0AE0D" stop-opacity="0.98"/>
  <stop offset="1" stop-color="#FFF27B" stop-opacity="0.98"/>
  </linearGradient>
  <linearGradient id="paint1_linear_1393_70782" x1="176" y1="202.306" x2="155.932" y2="315.983" gradientUnits="userSpaceOnUse">
  <stop stop-color="#C59651"/>
  <stop offset="0.366795" stop-color="#FFC300" stop-opacity="0.98"/>
  <stop offset="1" stop-color="#FFF27B" stop-opacity="0.98"/>
  </linearGradient>
  <linearGradient id="paint2_linear_1393_70782" x1="146.013" y1="244.004" x2="146.013" y2="293.422" gradientUnits="userSpaceOnUse">
  <stop stop-color="#E0AE0D"/>
  <stop offset="0.40625" stop-color="#E0AE0D" stop-opacity="0"/>
  </linearGradient>
  <linearGradient id="paint3_linear_1393_70782" x1="207.59" y1="244.004" x2="207.59" y2="293.422" gradientUnits="userSpaceOnUse">
  <stop stop-color="#E0AE0D"/>
  <stop offset="0.40625" stop-color="#E0AE0D" stop-opacity="0"/>
  </linearGradient>
  <linearGradient id="paint4_linear_1393_70782" x1="208.506" y1="244.004" x2="208.506" y2="293.422" gradientUnits="userSpaceOnUse">
  <stop offset="0.541667" stop-color="#E0AE0D" stop-opacity="0"/>
  <stop offset="1" stop-color="#E0AE0D"/>
  </linearGradient>
  <radialGradient id="paint5_radial_1393_70782" cx="0" cy="0" r="1" gradientUnits="userSpaceOnUse" gradientTransform="translate(219.526 256.642) rotate(78.9197) scale(5.65729 4.65726)">
  <stop stop-color="white" stop-opacity="0.75"/>
  <stop offset="1" stop-color="white" stop-opacity="0"/>
  <stop offset="1" stop-color="white"/>
  </radialGradient>
  <radialGradient id="paint6_radial_1393_70782" cx="0" cy="0" r="1" gradientUnits="userSpaceOnUse" gradientTransform="translate(134.916 256.642) rotate(101.08) scale(5.65729 4.65726)">
  <stop stop-color="white" stop-opacity="0.75"/>
  <stop offset="1" stop-color="white" stop-opacity="0"/>
  <stop offset="1" stop-color="white"/>
  </radialGradient>
  <linearGradient id="paint7_linear_1393_70782" x1="146.013" y1="244.004" x2="146.013" y2="293.422" gradientUnits="userSpaceOnUse">
  <stop offset="0.671875" stop-color="#E0AE0D" stop-opacity="0"/>
  <stop offset="1" stop-color="#E0AE0D"/>
  </linearGradient>
  <linearGradient id="paint8_linear_1393_70782" x1="156.609" y1="47.316" x2="211.534" y2="92.4783" gradientUnits="userSpaceOnUse">
  <stop stop-color="#C59651"/>
  <stop offset="0.536458" stop-color="#E0AE0D"/>
  <stop offset="1" stop-color="#FFF27B"/>
  </linearGradient>
  <linearGradient id="paint9_linear_1393_70782" x1="134.527" y1="289.799" x2="143.321" y2="342.202" gradientUnits="userSpaceOnUse">
  <stop offset="0.00712166" stop-color="#6A9EE2"/>
  <stop offset="0.282888" stop-color="#4883C2" stop-opacity="0.98"/>
  <stop offset="0.635608" stop-color="#9CCBF4" stop-opacity="0.98"/>
  <stop offset="1" stop-color="#E8F3FC" stop-opacity="0.98"/>
  </linearGradient>
  <linearGradient id="paint10_linear_1393_70782" x1="175.999" y1="293.487" x2="175.999" y2="226.95" gradientUnits="userSpaceOnUse">
  <stop offset="0.527397" stop-color="#6DF244"/>
  <stop offset="1" stop-color="#388E1D"/>
  </linearGradient>
  <linearGradient id="paint11_linear_1393_70782" x1="157.366" y1="40.4616" x2="186.485" y2="100.437" gradientUnits="userSpaceOnUse">
  <stop offset="0.00712166" stop-color="#6A9EE2"/>
  <stop offset="0.282888" stop-color="#4883C2" stop-opacity="0.98"/>
  <stop offset="0.635608" stop-color="#9CCBF4" stop-opacity="0.98"/>
  <stop offset="1" stop-color="#E8F3FC" stop-opacity="0.98"/>
  </linearGradient>
  <clipPath id="clip0_1393_70782">
  <rect width="350" height="350" fill="white" transform="translate(1)"/>
  </clipPath>
  </defs>
  
    
    </svg>
  