
    <svg width="350" height="350" viewBox="0 0 350 350" fill="none" xmlns="http://www.w3.org/2000/svg">

  <!-- Magma BG -->
  <g clip-path="url(#clip0_28_264)">
  <rect x="0.0800781" y="0.0449219" width="350" height="350" fill="#5A1320"/>
  <rect x="0.0800781" y="0.0449219" width="350" height="350" fill="url(#paint0_radial_28_264)" fill-opacity="0.2"/>
  <path d="M125.979 290.538L299.833 190.751L430.988 233.879L212.56 294.049L125.979 290.538Z" fill="url(#paint1_linear_28_264)"/>
  <g opacity="0.45" filter="url(#filter0_f_28_264)">
  <ellipse rx="194.596" ry="66.7643" transform="matrix(0.999998 0.00221055 0.00221055 -0.999998 176.078 304.637)" fill="url(#paint2_radial_28_264)"/>
  </g>
  <g opacity="0.7" filter="url(#filter1_f_28_264)">
  <ellipse cx="174.396" cy="137.609" rx="196.647" ry="242.448" transform="rotate(0.126655 174.396 137.609)" fill="url(#paint3_radial_28_264)"/>
  </g>
  </g>
  <defs>
  <filter id="filter0_f_28_264" x="-23.0756" y="233.315" width="398.306" height="142.646" filterUnits="userSpaceOnUse" color-interpolation-filters="sRGB">
  <feFlood flood-opacity="0" result="BackgroundImageFix"/>
  <feBlend mode="normal" in="SourceGraphic" in2="BackgroundImageFix" result="shape"/>
  <feGaussianBlur stdDeviation="2.27865" result="effect1_foregroundBlur_28_264"/>
  </filter>
  <filter id="filter1_f_28_264" x="-26.8085" y="-109.396" width="402.409" height="494.01" filterUnits="userSpaceOnUse" color-interpolation-filters="sRGB">
  <feFlood flood-opacity="0" result="BackgroundImageFix"/>
  <feBlend mode="normal" in="SourceGraphic" in2="BackgroundImageFix" result="shape"/>
  <feGaussianBlur stdDeviation="2.27865" result="effect1_foregroundBlur_28_264"/>
  </filter>
  <radialGradient id="paint0_radial_28_264" cx="0" cy="0" r="1" gradientUnits="userSpaceOnUse" gradientTransform="translate(156.623 401.542) rotate(-84.441) scale(239.93 241.682)">
  <stop/>
  <stop offset="1" stop-opacity="0"/>
  </radialGradient>
  <linearGradient id="paint1_linear_28_264" x1="194.836" y1="271.638" x2="316.538" y2="167.936" gradientUnits="userSpaceOnUse">
  <stop/>
  <stop offset="1" stop-color="#333333" stop-opacity="0"/>
  </linearGradient>
  <radialGradient id="paint2_radial_28_264" cx="0" cy="0" r="1" gradientUnits="userSpaceOnUse" gradientTransform="translate(194.596 76.624) rotate(99.1226) scale(43.9775 125.337)">
  <stop stop-color="#CF0000"/>
  <stop offset="1" stop-color="#CF0000" stop-opacity="0"/>
  </radialGradient>
  <radialGradient id="paint3_radial_28_264" cx="0" cy="0" r="1" gradientUnits="userSpaceOnUse" gradientTransform="translate(174.396 173.413) rotate(92.5586) scale(157.837 128.153)">
  <stop stop-color="#CF0000"/>
  <stop offset="1" stop-color="#CF0000" stop-opacity="0"/>
  </radialGradient>
  <clipPath id="clip0_28_264">
  <rect width="350" height="350" fill="white"/>
  </clipPath>
  </defs>


  <!-- LavaCeption Overlay -->
  <g style="mix-blend-mode:overlay" clip-path="url(#clip0_559_45925)">
  <circle cx="267.057" cy="334.049" r="28.7109" fill="white" fill-opacity="0.25"/>
  <circle cx="114.388" cy="66.5365" r="22.7865" fill="white" fill-opacity="0.25"/>
  <circle cx="279.362" cy="110.287" r="16.4062" fill="white" fill-opacity="0.25"/>
  <circle cx="8.20312" cy="234.701" r="16.4062" fill="white" fill-opacity="0.25"/>
  <circle cx="335.872" cy="14.5833" r="40.1042" fill="white" fill-opacity="0.25"/>
  <path d="M65.9326 288.461C29.3383 277.341 1.34401 320.346 -5.46875 340.81C53.705 430.699 146.791 390.296 179.557 350.911C127.002 379.87 111.675 302.361 65.9326 288.461Z" fill="white" fill-opacity="0.25"/>
  <path d="M296.664 236.375C285.544 199.781 328.549 171.787 349.013 164.974C438.902 224.148 398.499 317.234 359.115 350C388.074 297.444 310.565 282.118 296.664 236.375Z" fill="white" fill-opacity="0.25"/>
  <path d="M-26.4321 3.86974C-13.3545 0.661561 15.8469 6.61965 18.8009 32.2851C21.0691 51.9925 19.2624 85.9076 3.10779 101.032C-15.8162 118.749 -14.5043 160.554 12.8006 170.237C38.648 179.403 69.97 166.112 74.1882 144.572C80.545 112.109 53.2633 106.516 57.1104 74.9081C67.4481 -10.0259 219.591 11.8327 236.979 -4.55718C236.979 -87.4437 3.10779 -222.311 -26.4321 3.86974Z" fill="white" fill-opacity="0.25"/>
  </g>
  <defs>
  <clipPath id="clip0_559_45925">
  <rect width="350" height="350" fill="white"/>
  </clipPath>
  </defs>


  <!-- Halo -->
  <path fill-rule="evenodd" clip-rule="evenodd" d="M212.323 25.3395C210.609 24.5592 208.081 23.7554 204.76 23.0272C197.27 21.3852 186.704 20.3312 174.883 20.3312C163.061 20.3312 152.495 21.3852 145.006 23.0272C141.684 23.7554 139.157 24.5592 137.442 25.3395C139.157 26.1199 141.684 26.9237 145.006 27.6519C152.495 29.2939 163.061 30.3479 174.883 30.3479C186.704 30.3479 197.27 29.2939 204.76 27.6519C208.081 26.9237 210.609 26.1199 212.323 25.3395ZM174.883 34.9052C198.98 34.9052 218.515 30.6225 218.515 25.3395C218.515 20.0566 198.98 15.7739 174.883 15.7739C150.785 15.7739 131.25 20.0566 131.25 25.3395C131.25 30.6225 150.785 34.9052 174.883 34.9052Z" fill="#FDF21B"/>
  


  <!-- Glowing Glass -->
    <g filter="url(#filter0_f_953_137978)">
    <path d="M148.717 95L125.019 209.98C124.948 210.324 125.078 210.673 125.367 210.873C128.479 213.027 147.033 225 175 225C202.967 225 221.521 213.027 224.633 210.873C224.922 210.673 225.052 210.324 224.981 209.98L201.283 95C201.249 95.0666 201.205 95.1285 201.15 95.1836C199.818 96.5241 193.18 102.106 175 102.106C156.82 102.106 150.182 96.5241 148.85 95.1836C148.795 95.1285 148.751 95.0666 148.717 95Z" fill="#A15BFA" fill-opacity="0.6"/>
    </g>
    <defs>
    <filter id="filter0_f_953_137978" x="-4" y="-4" width="358" height="358" filterUnits="userSpaceOnUse" color-interpolation-filters="sRGB">
    <feFlood flood-opacity="0" result="BackgroundImageFix"/>
    <feBlend mode="normal" in="SourceGraphic" in2="BackgroundImageFix" result="shape"/>
    <feGaussianBlur stdDeviation="2" result="effect1_foregroundBlur_953_137978"/>
    </filter>
    </defs>



    <!-- Lava 1 -->
    <!-- Color -->
    <!-- filter -->
    <path d="M201.33 94.2312L205.4 114.032C203.808 113.761 202.153 113.448 200.459 113.128C186.293 110.453 169.479 107.277 165.223 123.731C163.365 130.915 166.057 135.213 168.676 139.394C171.205 143.431 173.665 147.359 171.9 153.669C169.751 161.35 158.067 166.325 148.671 162.995C138.746 159.477 139.443 144.904 145.148 137.85C150.853 130.795 151.677 120.031 150.853 112.871C150.454 109.41 148.742 106.935 146.502 105.251L148.841 93.8809C148.875 93.9478 148.92 94.0101 148.975 94.0656C150.853 95.9589 156.979 101.03 175.237 101.03C192.824 101.03 199.656 95.8196 201.33 94.2312Z" fill="url(#paint0_radial_931_113783)"/>
    <mask id="mask0_931_113783" style="mask-type:alpha" maskUnits="userSpaceOnUse" x="141" y="93" width="65" height="72">
    <path d="M201.33 94.2302L205.4 114.031C203.808 113.76 202.153 113.447 200.459 113.127C186.293 110.452 169.479 107.276 165.223 123.73C163.365 130.914 166.057 135.212 168.676 139.393C171.205 143.43 173.665 147.358 171.9 153.668C169.751 161.349 158.067 166.324 148.671 162.994C138.746 159.476 139.443 144.903 145.148 137.849C150.853 130.794 151.677 120.03 150.853 112.87C150.454 109.409 148.742 106.934 146.502 105.25L148.841 93.8799C148.875 93.9469 148.92 94.0092 148.975 94.0646C150.313 95.4133 156.979 101.029 175.237 101.029C192.824 101.029 199.656 95.8187 201.33 94.2302Z" fill="url(#paint1_radial_931_113783)"/>
    </mask>
    <g mask="url(#mask0_931_113783)">
    <g filter="url(#filter0_f_931_113783)">
    <mask id="mask1_931_113783" style="mask-type:alpha" maskUnits="userSpaceOnUse" x="125" y="94" width="101" height="132">
    <path d="M149.015 95.0639C149.102 94.6401 149.475 94.3359 149.907 94.3359H200.399C200.831 94.3359 201.205 94.6401 201.292 95.0639L225.146 211.159C225.227 211.555 225.041 211.955 224.68 212.137C220.777 214.109 198.528 224.817 175.153 225.128C151.731 225.438 129.441 214.178 125.603 212.141C125.253 211.954 125.077 211.562 125.157 211.173L149.015 95.0639Z" fill="#577096" fill-opacity="0.75"/>
    </mask>
    <g mask="url(#mask1_931_113783)">
    <g filter="url(#filter1_f_931_113783)">
    <path d="M207.362 76.1064C211.019 110.268 146.094 132.571 113.174 139.453L113.174 76.1064L207.362 76.1064Z" fill="url(#paint2_linear_931_113783)" fill-opacity="0.5"/>
    </g>
    <g filter="url(#filter2_f_931_113783)">
    <path d="M155.56 125.301C156.622 105.018 134.624 86.1828 129.082 66.9985C133.541 65.1973 144.203 70.7896 152.828 76.1247C163.609 82.7936 163.032 109.124 164.778 125.784C166.175 139.112 148.606 223.401 144.168 241.481L131.869 240.837C140.395 214.68 154.74 140.955 155.56 125.301Z" fill="url(#paint3_linear_931_113783)" fill-opacity="0.6"/>
    </g>
    </g>
    </g>
    </g>
    <defs>
    <filter id="filter0_f_931_113783" x="122.744" y="92.0573" width="104.986" height="135.355" filterUnits="userSpaceOnUse" color-interpolation-filters="sRGB">
    <feFlood flood-opacity="0" result="BackgroundImageFix"/>
    <feBlend mode="normal" in="SourceGraphic" in2="BackgroundImageFix" result="shape"/>
    <feGaussianBlur stdDeviation="1.13932" result="effect1_foregroundBlur_931_113783"/>
    </filter>
    <filter id="filter1_f_931_113783" x="112.262" y="75.195" width="96.1589" height="65.1696" filterUnits="userSpaceOnUse" color-interpolation-filters="sRGB">
    <feFlood flood-opacity="0" result="BackgroundImageFix"/>
    <feBlend mode="normal" in="SourceGraphic" in2="BackgroundImageFix" result="shape"/>
    <feGaussianBlur stdDeviation="0.455729" result="effect1_foregroundBlur_931_113783"/>
    </filter>
    <filter id="filter2_f_931_113783" x="128.17" y="65.7428" width="37.5978" height="176.65" filterUnits="userSpaceOnUse" color-interpolation-filters="sRGB">
    <feFlood flood-opacity="0" result="BackgroundImageFix"/>
    <feBlend mode="normal" in="SourceGraphic" in2="BackgroundImageFix" result="shape"/>
    <feGaussianBlur stdDeviation="0.455729" result="effect1_foregroundBlur_931_113783"/>
    </filter>
    <radialGradient id="paint0_radial_931_113783" cx="0" cy="0" r="1" gradientUnits="userSpaceOnUse" gradientTransform="translate(156.087 109.102) rotate(53.0717) scale(37.8406 40.3077)">
    <stop offset="0.203125" style="stop-color: #F85449;"/>
    <stop offset="0.890625" style="stop-color: #C53434;"/>
    </radialGradient>
    <radialGradient id="paint1_radial_931_113783" cx="0" cy="0" r="1" gradientUnits="userSpaceOnUse" gradientTransform="translate(156.087 109.101) rotate(53.0717) scale(37.8406 40.3077)">
    <stop offset="0.203125" stop-color="#71FF30"/>
    <stop offset="0.890625" stop-color="#25BC46"/>
    </radialGradient>
    <linearGradient id="paint2_linear_931_113783" x1="145.368" y1="123.01" x2="155.982" y2="72.2914" gradientUnits="userSpaceOnUse">
    <stop stop-color="white" stop-opacity="0"/>
    <stop offset="0.471361" stop-color="white"/>
    <stop offset="1" stop-color="white"/>
    </linearGradient>
    <linearGradient id="paint3_linear_931_113783" x1="160.882" y1="220.938" x2="202.107" y2="178" gradientUnits="userSpaceOnUse">
    <stop stop-color="#F2F2F2"/>
    <stop offset="0.0001" stop-color="#F2F2F2"/>
    <stop offset="0.0520833" stop-color="#F2F2F2" stop-opacity="0.948011"/>
    <stop offset="1" stop-color="#F2F2F2" stop-opacity="0"/>
    </linearGradient>
    </defs>


  <!-- Lava 2 -->
    <!-- Color -->
<path d="M178.202 131.059C178.202 128.163 180.222 122.394 188.299 122.479C196.377 122.565 198.468 128.235 198.504 131.059C198.576 133.132 197.365 137.622 191.952 138.995C185.184 140.711 178.202 136.85 178.202 131.059Z" fill="url(#paint0_radial_931_113845)"/>
<defs>
<radialGradient id="paint0_radial_931_113845" cx="0" cy="0" r="1" gradientUnits="userSpaceOnUse" gradientTransform="translate(182.959 126.151) rotate(45.5119) scale(10.2292 11.3416)">
<stop offset="0.203125" style="stop-color: #FFFFFF;"/>
<stop offset="0.890625" style="stop-color: #D0C9C9;"/>
</radialGradient>
</defs>


  <!-- Lava 3 -->
    <!-- Color -->
    <path d="M214.381 157.604L219.2 181.084C217.285 183.349 214.448 185.339 210.334 186.382C197.471 189.642 184.2 182.306 184.2 171.303C184.2 165.801 188.039 154.839 203.392 155.002C208.021 155.051 211.616 156.065 214.381 157.604Z" fill="url(#paint0_radial_931_113862)"/>
<defs>
<radialGradient id="paint0_radial_931_113862" cx="0" cy="0" r="1" gradientUnits="userSpaceOnUse" gradientTransform="translate(192.4 161.977) rotate(48.2936) scale(18.5718 20.4588)">
<stop offset="0.203125" style="stop-color: #FFB800;"/>
<stop offset="0.890625" style="stop-color: #FF7800;"/>
</radialGradient>
</defs>


  <!-- Lava 4 -->
    <!-- Color -->
    <path d="M225 210.659C220.5 214 200.704 225 175.402 225C147.201 225 128.492 213.024 125.354 210.869C125.163 210.738 125.042 210.543 125 210.328C128.968 198.996 144.393 175.959 164.496 181.99C174.451 184.976 181.421 192.474 187.975 199.525C198.127 210.446 208 213.5 225 210.659C224.675 211.045 225.345 210.27 225 210.659Z" fill="url(#paint0_radial_931_113863)"/>
<mask id="mask0_931_113863" style="mask-type:alpha" maskUnits="userSpaceOnUse" x="124" y="180" width="101" height="45">
<path d="M223.866 211.799C218.236 215.343 200.575 225 175.272 225C147.071 225 128.362 213.003 125.225 210.845C125.034 210.714 124.912 210.519 124.87 210.303C128.839 198.951 144.263 175.875 164.366 181.916C174.321 184.908 181.291 192.418 187.845 199.481C197.997 210.421 207.154 220.288 224.87 210.635C224.545 211.021 224.21 211.409 223.866 211.799Z" fill="url(#paint1_radial_931_113863)"/>
</mask>
<g mask="url(#mask0_931_113863)">
<g filter="url(#filter0_f_931_113863)">
<mask id="mask1_931_113863" style="mask-type:alpha" maskUnits="userSpaceOnUse" x="124" y="94" width="102" height="132">
<path d="M148.862 95.3198C148.949 94.896 149.322 94.5918 149.755 94.5918H200.246C200.679 94.5918 201.052 94.896 201.139 95.3198L224.993 211.414C225.075 211.811 224.888 212.211 224.527 212.393C220.624 214.365 198.376 225.073 175 225.383C151.578 225.694 129.288 214.434 125.45 212.396C125.1 212.21 124.924 211.818 125.004 211.429L148.862 95.3198Z" fill="#577096" fill-opacity="0.75"/>
</mask>
<g mask="url(#mask1_931_113863)">
<g filter="url(#filter1_f_931_113863)">
<path d="M155.407 125.557C156.47 105.273 134.471 86.4386 128.929 67.2543C133.388 65.4531 144.05 71.0455 152.675 76.3806C163.456 83.0494 162.879 109.38 164.625 126.04C166.022 139.368 148.453 223.657 144.015 241.737L131.716 241.093C140.242 214.936 154.587 141.211 155.407 125.557Z" fill="url(#paint2_linear_931_113863)" fill-opacity="0.6"/>
</g>
</g>
</g>
</g>
<defs>
<filter id="filter0_f_931_113863" x="122.591" y="92.3132" width="105.59" height="135.355" filterUnits="userSpaceOnUse" color-interpolation-filters="sRGB">
<feFlood flood-opacity="0" result="BackgroundImageFix"/>
<feBlend mode="normal" in="SourceGraphic" in2="BackgroundImageFix" result="shape"/>
<feGaussianBlur stdDeviation="1.13932" result="effect1_foregroundBlur_931_113863"/>
</filter>
<filter id="filter1_f_931_113863" x="128.017" y="65.9987" width="37.5983" height="176.65" filterUnits="userSpaceOnUse" color-interpolation-filters="sRGB">
<feFlood flood-opacity="0" result="BackgroundImageFix"/>
<feBlend mode="normal" in="SourceGraphic" in2="BackgroundImageFix" result="shape"/>
<feGaussianBlur stdDeviation="0.455729" result="effect1_foregroundBlur_931_113863"/>
</filter>
<radialGradient id="paint0_radial_931_113863" cx="0" cy="0" r="1" gradientUnits="userSpaceOnUse" gradientTransform="translate(148.451 190.545) rotate(28.2255) scale(40.1081 37.0676)">
<stop offset="0.203125" style="stop-color: #FFB800;"/>
<stop offset="0.890625" style="stop-color: #FF7800;"/>
</radialGradient>
<radialGradient id="paint1_radial_931_113863" cx="0" cy="0" r="1" gradientUnits="userSpaceOnUse" gradientTransform="translate(146.382 191.229) rotate(27.0849) scale(58.9221 42.3164)">
<stop offset="0.302083" stop-color="#FFB800"/>
<stop offset="1" stop-color="#FF7800"/>
</radialGradient>
<linearGradient id="paint2_linear_931_113863" x1="160.729" y1="221.194" x2="201.954" y2="178.256" gradientUnits="userSpaceOnUse">
<stop stop-color="#F2F2F2"/>
<stop offset="0.0001" stop-color="#F2F2F2"/>
<stop offset="0.0520833" stop-color="#F2F2F2" stop-opacity="0.948011"/>
<stop offset="1" stop-color="#F2F2F2" stop-opacity="0"/>
</linearGradient>
</defs>



  <!-- Emerald Alien -->
  <path fill-rule="evenodd" clip-rule="evenodd" d="M177.408 224.675L177.306 224.674C177.892 224.674 178.475 224.667 179.052 224.655C178.506 224.668 177.958 224.675 177.408 224.675Z" fill="#161A70" fill-opacity="0.1"/>
  <path fill-rule="evenodd" clip-rule="evenodd" d="M228.411 314.723C228.411 314.723 211.425 334.733 175 334.733V32.3568C187.169 32.3568 192.182 52.2244 194.295 61.7708L194.403 62.2565C196.251 70.5908 200.68 89.5238 201.514 93.502C201.567 93.7531 201.561 94.0051 201.494 94.2365L225.234 209.629C225.279 209.86 225.239 210.093 225.124 210.283C225.32 210.158 225.421 210.091 225.421 210.091C228.805 225.095 235.818 263.492 224.051 282.944C220.851 288.235 217.2 292.774 213.366 296.64L228.411 314.723ZM177.408 224.675L177.306 224.674C177.892 224.674 178.475 224.667 179.052 224.655C178.506 224.668 177.958 224.675 177.408 224.675Z" fill="#161A70" fill-opacity="0.1"/>
  <path d="M124.792 210.091C124.792 210.091 148.112 224.675 175.228 224.675C202.344 224.675 225.208 210.091 225.208 210.091C228.731 225.096 236.031 263.492 223.782 282.944C208.368 307.425 182.903 315.82 175 315.82C167.097 315.82 141.632 307.425 126.217 282.944C113.969 263.492 121.269 225.096 124.792 210.091Z" fill="#6DF244"/>
  <path d="M124.792 210.091C124.792 210.091 148.112 224.675 175.228 224.675C202.344 224.675 225.208 210.091 225.208 210.091C228.731 225.096 236.031 263.492 223.782 282.944C208.368 307.425 182.903 315.82 175 315.82C167.097 315.82 141.632 307.425 126.217 282.944C113.969 263.492 121.269 225.096 124.792 210.091Z" fill="url(#paint0_linear_737_226359)" fill-opacity="0.8"/>
  <path d="M155.658 62.5833C159.113 49.6057 161.899 33 174.785 33C187.672 33 192.186 53.5604 194.342 62.8997C196.328 71.5042 200.673 91.406 201.345 94.4841C201.402 94.7486 201.335 95.01 201.146 95.2035C199.763 96.6152 193.095 102.271 175 102.271C156.851 102.271 150.197 96.5809 148.842 95.1908C148.66 95.0034 148.594 94.7507 148.642 94.4937C149.177 91.6869 152.494 74.4714 155.658 62.5833Z" fill="url(#paint1_linear_737_226359)"/>
  <g filter="url(#filter0_d_737_226359)">
  <path d="M227.798 314.121L202.31 284.69C202.137 284.49 201.885 284.375 201.621 284.375H172.525H143.608C143.342 284.375 143.09 284.491 142.917 284.693L117.639 314.121C117.343 314.466 117.341 314.966 117.661 315.29C120.884 318.546 138.617 334.733 172.721 334.733C206.817 334.733 224.551 318.553 227.779 315.292C228.1 314.967 228.097 314.466 227.798 314.121Z" fill="url(#paint2_linear_737_226359)" shape-rendering="geometricPrecision"/>
  </g>
  <path d="M124.506 211.323C124.645 210.714 125.342 210.427 125.883 210.739C130.784 213.564 151.56 224.675 175.227 224.675C198.857 224.675 219.258 213.6 224.113 210.752C224.655 210.435 225.355 210.723 225.495 211.335C229.104 227.121 235.705 264.008 223.782 282.944C208.367 307.425 182.902 315.82 174.999 315.82C167.097 315.82 141.632 307.425 126.217 282.944C114.291 264.004 120.898 227.102 124.506 211.323Z" fill="url(#paint3_linear_737_226359)"/>
  <path d="M130.95 277.639C122.171 263.011 123.204 251.576 128.368 246.788C137.583 238.247 152.64 253.171 158.579 265.671C164.518 278.171 165.292 287.745 160.386 292.266C155.48 296.787 139.73 292.266 130.95 277.639Z" stroke="url(#paint4_linear_737_226359)" stroke-width="1.82292"/>
  <path fill-rule="evenodd" clip-rule="evenodd" d="M175 303.508C172.414 303.593 167.955 303.025 164.338 300.377C163.686 299.9 164.06 298.958 164.868 298.958H174.089H175.912H185.132C185.94 298.958 186.314 299.9 185.662 300.377C182.046 303.025 177.586 303.593 175 303.508Z" fill="#003802" fill-opacity="0.5"/>
  <path d="M218.29 276.7C226.253 263.683 225.316 253.506 220.632 249.246C212.275 241.645 198.618 254.926 193.232 266.05C187.845 277.173 187.143 285.693 191.592 289.717C196.042 293.74 210.327 289.717 218.29 276.7Z" fill="#070707" stroke="#070707" stroke-width="0.455729"/>
  <path d="M219.429 277.639C228.31 263.011 227.265 251.576 222.041 246.788C212.719 238.247 197.487 253.171 191.479 265.671C185.471 278.171 184.688 287.745 189.651 292.266C194.614 296.787 210.547 292.266 219.429 277.639Z" stroke="url(#paint5_linear_737_226359)" stroke-width="1.82292"/>
  <path d="M220.588 256.217C219.787 252.567 217.885 250.967 216.325 251.049C213.542 251.195 213.375 255.888 214.312 258.759C215.249 261.63 216.576 263.229 218.054 263.147C219.531 263.065 221.389 259.867 220.588 256.217Z" fill="url(#paint6_radial_737_226359)"/>
  <path fill-rule="evenodd" clip-rule="evenodd" d="M175.11 292.153C175.036 292.16 174.963 292.16 174.889 292.153C173.691 292.033 171.331 292.216 169.27 293.536C168.605 293.962 168.969 294.857 169.759 294.857H174.999H180.24C181.03 294.857 181.393 293.962 180.728 293.536C178.668 292.216 176.307 292.033 175.11 292.153Z" fill="#003802" fill-opacity="0.5"/>
  <path d="M132.089 276.7C124.228 263.683 125.153 253.506 129.777 249.246C138.027 241.645 151.509 254.926 156.826 266.05C162.143 277.173 162.837 285.693 158.444 289.717C154.052 293.74 139.95 289.717 132.089 276.7Z" fill="#070707" stroke="#070707" stroke-width="0.455729"/>
  <path d="M129.563 256.217C130.364 252.567 132.265 250.967 133.825 251.049C136.608 251.195 136.776 255.888 135.839 258.759C134.902 261.63 133.575 263.229 132.097 263.147C130.619 263.065 128.761 259.867 129.563 256.217Z" fill="url(#paint7_radial_737_226359)"/>
  <defs>
  <filter id="filter0_d_737_226359" x="113.419" y="284.375" width="118.602" height="58.3581" filterUnits="userSpaceOnUse" color-interpolation-filters="sRGB">
  <feFlood flood-opacity="0" result="BackgroundImageFix"/>
  <feColorMatrix in="SourceAlpha" type="matrix" values="0 0 0 0 0 0 0 0 0 0 0 0 0 0 0 0 0 0 127 0" result="hardAlpha"/>
  <feOffset dy="4"/>
  <feGaussianBlur stdDeviation="2"/>
  <feColorMatrix type="matrix" values="0 0 0 0 0 0 0 0 0 0 0 0 0 0 0 0 0 0 0.25 0"/>
  <feBlend mode="normal" in2="BackgroundImageFix" result="effect1_dropShadow_737_226359"/>
  <feBlend mode="normal" in="SourceGraphic" in2="effect1_dropShadow_737_226359" result="shape"/>
  </filter>
  <linearGradient id="paint0_linear_737_226359" x1="175" y1="293.49" x2="175" y2="226.953" gradientUnits="userSpaceOnUse">
  <stop offset="0.527397" stop-color="#6DF244"/>
  <stop offset="1" stop-color="#388E1D"/>
  </linearGradient>
  <linearGradient id="paint1_linear_737_226359" x1="204.623" y1="33" x2="214.271" y2="100.9" gradientUnits="userSpaceOnUse">
  <stop stop-color="#003802"/>
  <stop offset="0.473958" stop-color="#07A70C" stop-opacity="0.98"/>
  <stop offset="1" stop-color="#B5FFB7" stop-opacity="0.98"/>
  </linearGradient>
  <linearGradient id="paint2_linear_737_226359" x1="132.791" y1="292.634" x2="162.493" y2="361.543" gradientUnits="userSpaceOnUse">
  <stop stop-color="#003802"/>
  <stop offset="0.473958" stop-color="#07A70C" stop-opacity="0.98"/>
  <stop offset="1" stop-color="#B5FFB7" stop-opacity="0.98"/>
  </linearGradient>
  <linearGradient id="paint3_linear_737_226359" x1="237.309" y1="197.786" x2="252.56" y2="345.693" gradientUnits="userSpaceOnUse">
  <stop stop-color="#003802"/>
  <stop offset="0.473958" stop-color="#00B806" stop-opacity="0.98"/>
  <stop offset="1" stop-color="#B5FFB7" stop-opacity="0.98"/>
  </linearGradient>
  <linearGradient id="paint4_linear_737_226359" x1="144.01" y1="244.271" x2="144.01" y2="293.945" gradientUnits="userSpaceOnUse">
  <stop stop-color="#003802"/>
  <stop offset="0.40625" stop-color="#003802" stop-opacity="0.37"/>
  </linearGradient>
  <linearGradient id="paint5_linear_737_226359" x1="206.217" y1="244.271" x2="206.217" y2="293.945" gradientUnits="userSpaceOnUse">
  <stop offset="0.338542" stop-color="#003802" stop-opacity="0.37"/>
  <stop offset="1" stop-color="#003802"/>
  </linearGradient>
  <radialGradient id="paint6_radial_737_226359" cx="0" cy="0" r="1" gradientUnits="userSpaceOnUse" gradientTransform="translate(217.185 256.975) rotate(79.0248) scale(5.68455 4.63752)">
  <stop stop-color="white" stop-opacity="0.75"/>
  <stop offset="1" stop-color="white" stop-opacity="0"/>
  <stop offset="1" stop-color="white"/>
  </radialGradient>
  <radialGradient id="paint7_radial_737_226359" cx="0" cy="0" r="1" gradientUnits="userSpaceOnUse" gradientTransform="translate(132.965 256.975) rotate(100.975) scale(5.68455 4.63752)">
  <stop stop-color="white" stop-opacity="0.75"/>
  <stop offset="1" stop-color="white" stop-opacity="0"/>
  <stop offset="1" stop-color="white"/>
  </radialGradient>
  </defs>


    </svg>
