<svg width="768" height="768" viewBox="0 0 768 768" fill="none" xmlns="http://www.w3.org/2000/svg">
<g clip-path="url(#clip0_666_47229)">
<g clip-path="url(#clip1_666_47229)">
<g filter="url(#filter0_f_666_47229)">
<rect x="768.176" y="768.099" width="768" height="768" transform="rotate(-180 768.176 768.099)" fill="#0E103E"/>
</g>
<g style="mix-blend-mode:overlay" filter="url(#filter1_f_666_47229)">
<ellipse rx="593.439" ry="203.604" transform="matrix(0.999998 0.00221055 0.00221055 -0.999998 387.803 801.321)" fill="url(#paint0_radial_666_47229)"/>
</g>
<g style="mix-blend-mode:overlay" filter="url(#filter2_f_666_47229)">
<ellipse cx="382.674" cy="291.953" rx="599.693" ry="739.366" transform="rotate(0.126655 382.674 291.953)" fill="url(#paint1_radial_666_47229)"/>
</g>
<g opacity="0.6">
<circle cx="46.8202" cy="172.56" r="2.56046" fill="white"/>
<circle cx="470.284" cy="544.674" r="2.56046" transform="rotate(165 470.284 544.674)" fill="white"/>
<circle cx="714.346" cy="248.295" r="2.56046" transform="rotate(75 714.346 248.295)" fill="white"/>
<circle cx="746.137" cy="274.136" r="2.56046" transform="rotate(75 746.137 274.136)" fill="white"/>
<circle cx="708.137" cy="181.136" r="2.56046" transform="rotate(75 708.137 181.136)" fill="white"/>
<circle cx="344.674" cy="321.966" r="2.56046" transform="rotate(75 344.674 321.966)" fill="white"/>
<circle cx="584.674" cy="312.966" r="2.56046" transform="rotate(75 584.674 312.966)" fill="white"/>
<circle cx="19.1367" cy="66.1359" r="2.56046" transform="rotate(75 19.1367 66.1359)" fill="white"/>
<circle cx="141.389" cy="259.616" r="2.56046" fill="white"/>
<circle cx="356.407" cy="485.061" r="2.56046" transform="rotate(165 356.407 485.061)" fill="white"/>
<circle cx="654.73" cy="362.171" r="2.56046" transform="rotate(75 654.73 362.171)" fill="white"/>
<circle cx="285.061" cy="435.841" r="2.56046" transform="rotate(75 285.061 435.841)" fill="white"/>
<circle cx="525.061" cy="426.841" r="2.56046" transform="rotate(75 525.061 426.841)" fill="white"/>
<circle cx="89.0606" cy="205.841" r="2.56046" transform="rotate(75 89.0606 205.841)" fill="white"/>
<circle cx="128.072" cy="174.951" r="2.56046" fill="white"/>
<circle cx="391.182" cy="563.396" r="2.56046" transform="rotate(165 391.182 563.396)" fill="white"/>
<circle cx="733.066" cy="327.397" r="2.56046" transform="rotate(75 733.066 327.397)" fill="white"/>
<circle cx="363.395" cy="401.068" r="2.56046" transform="rotate(75 363.395 401.068)" fill="white"/>
<circle cx="603.395" cy="392.068" r="2.56046" transform="rotate(75 603.395 392.068)" fill="white"/>
<circle cx="645.137" cy="428.136" r="2.56046" transform="rotate(75 645.137 428.136)" fill="white"/>
<circle cx="147.137" cy="223.136" r="2.56046" transform="rotate(75 147.137 223.136)" fill="white"/>
<circle cx="37.9452" cy="372.618" r="2.56046" fill="white"/>
<circle cx="427.079" cy="349.136" r="2.56046" transform="rotate(165 427.079 349.136)" fill="white"/>
<circle cx="518.807" cy="291.5" r="2.56046" transform="rotate(75 518.807 291.5)" fill="white"/>
<circle cx="149.137" cy="365.17" r="2.56046" transform="rotate(75 149.137 365.17)" fill="white"/>
<circle cx="389.137" cy="356.17" r="2.56046" transform="rotate(75 389.137 356.17)" fill="white"/>
<circle cx="7.56046" cy="350.428" r="2.56046" fill="white"/>
<circle cx="462.171" cy="362.707" r="2.56046" transform="rotate(165 462.171 362.707)" fill="white"/>
<circle cx="532.377" cy="256.408" r="2.56046" transform="rotate(75 532.377 256.408)" fill="white"/>
<circle cx="162.707" cy="330.078" r="2.56046" transform="rotate(75 162.707 330.078)" fill="white"/>
<circle cx="402.707" cy="321.078" r="2.56046" transform="rotate(75 402.707 321.078)" fill="white"/>
<circle cx="114.758" cy="383.543" r="2.56046" fill="white"/>
<circle cx="130.56" cy="421.56" r="2.56046" fill="white"/>
<circle cx="350.055" cy="358.465" r="2.56046" transform="rotate(165 350.055 358.465)" fill="white"/>
<circle cx="612.137" cy="666.136" r="2.56046" transform="rotate(75 612.137 666.136)" fill="white"/>
<circle cx="158.465" cy="442.194" r="2.56046" transform="rotate(75 158.465 442.194)" fill="white"/>
<circle cx="398.465" cy="433.194" r="2.56046" transform="rotate(75 398.465 433.194)" fill="white"/>
<circle cx="20.1913" cy="199.189" r="2.56046" fill="white"/>
<circle cx="489.114" cy="512.061" r="2.56046" transform="rotate(165 489.114 512.061)" fill="white"/>
<circle cx="681.73" cy="229.465" r="2.56046" transform="rotate(75 681.73 229.465)" fill="white"/>
<circle cx="470.137" cy="673.136" r="2.56046" transform="rotate(75 470.137 673.136)" fill="white"/>
<circle cx="552.061" cy="294.136" r="2.56046" transform="rotate(75 552.061 294.136)" fill="white"/>
<circle cx="22.1367" cy="27.1359" r="2.56046" transform="rotate(75 22.1367 27.1359)" fill="white"/>
<circle cx="702.56" cy="507.56" r="2.56046" fill="white"/>
<circle cx="477.831" cy="456.767" r="2.56046" transform="rotate(165 477.831 456.767)" fill="white"/>
<circle cx="476.137" cy="155.136" r="2.56046" transform="rotate(75 476.137 155.136)" fill="white"/>
<circle cx="256.766" cy="314.418" r="2.56046" transform="rotate(75 256.766 314.418)" fill="white"/>
<circle cx="496.766" cy="305.418" r="2.56046" transform="rotate(75 496.766 305.418)" fill="white"/>
<circle cx="60.7657" cy="84.4181" r="2.56046" transform="rotate(75 60.7657 84.4181)" fill="white"/>
<circle cx="51.9413" cy="267.468" r="2.56046" fill="white"/>
<circle cx="440.774" cy="454.326" r="2.56046" transform="rotate(165 440.774 454.326)" fill="white"/>
<circle cx="623.996" cy="277.805" r="2.56046" transform="rotate(75 623.996 277.805)" fill="white"/>
<circle cx="30.1367" cy="710.136" r="2.56046" transform="rotate(75 30.1367 710.136)" fill="white"/>
<circle cx="494.326" cy="342.475" r="2.56046" transform="rotate(75 494.326 342.475)" fill="white"/>
<circle cx="58.3262" cy="121.475" r="2.56046" transform="rotate(75 58.3262 121.475)" fill="white"/>
<circle cx="94.5605" cy="134.56" r="2.56046" fill="white"/>
<circle cx="108.56" cy="59.5605" r="2.56046" fill="white"/>
<circle cx="152.56" cy="90.5605" r="2.56046" fill="white"/>
<circle cx="178.56" cy="24.5605" r="2.56046" fill="white"/>
<circle cx="600.56" cy="183.56" r="2.56046" fill="white"/>
<circle cx="686.56" cy="78.5605" r="2.56046" fill="white"/>
<circle cx="556.56" cy="120.56" r="2.56046" fill="white"/>
<circle cx="546.56" cy="64.5605" r="2.56046" fill="white"/>
<circle cx="366.56" cy="12.5605" r="2.56046" fill="white"/>
<circle cx="293.56" cy="19.5605" r="2.56046" fill="white"/>
<circle cx="298.56" cy="89.5605" r="2.56046" fill="white"/>
<circle cx="198.56" cy="157.56" r="2.56046" fill="white"/>
<circle cx="456.56" cy="38.5605" r="2.56046" fill="white"/>
<circle cx="480.56" cy="103.56" r="2.56046" fill="white"/>
<circle cx="534.56" cy="197.56" r="2.56046" fill="white"/>
<circle cx="270.56" cy="157.56" r="2.56046" fill="white"/>
<circle cx="236.56" cy="211.56" r="2.56046" fill="white"/>
<circle cx="316.679" cy="584.772" r="2.56046" transform="rotate(165 316.679 584.772)" fill="white"/>
<circle cx="754.443" cy="401.9" r="2.56046" transform="rotate(75 754.443 401.9)" fill="white"/>
<circle cx="384.772" cy="475.57" r="2.56046" transform="rotate(75 384.772 475.57)" fill="white"/>
<circle cx="624.771" cy="466.57" r="2.56046" transform="rotate(75 624.771 466.57)" fill="white"/>
<circle cx="188.772" cy="245.57" r="2.56046" transform="rotate(75 188.772 245.57)" fill="white"/>
<circle cx="20.5605" cy="122.56" r="2.56046" fill="white"/>
<circle cx="276.977" cy="577.739" r="2.56046" transform="rotate(165 276.977 577.739)" fill="white"/>
<circle cx="747.41" cy="441.602" r="2.56046" transform="rotate(75 747.41 441.602)" fill="white"/>
<circle cx="251.137" cy="727.136" r="2.56046" transform="rotate(75 251.137 727.136)" fill="white"/>
<circle cx="617.738" cy="506.273" r="2.56046" transform="rotate(75 617.738 506.273)" fill="white"/>
<circle cx="676.137" cy="540.136" r="2.56046" transform="rotate(75 676.137 540.136)" fill="white"/>
<circle cx="614.137" cy="557.136" r="2.56046" transform="rotate(75 614.137 557.136)" fill="white"/>
<circle cx="526.137" cy="611.136" r="2.56046" transform="rotate(75 526.137 611.136)" fill="white"/>
<circle cx="434.137" cy="406.136" r="2.56046" transform="rotate(75 434.137 406.136)" fill="white"/>
<circle cx="318.137" cy="454.136" r="2.56046" transform="rotate(75 318.137 454.136)" fill="white"/>
<circle cx="320.137" cy="536.136" r="2.56046" transform="rotate(75 320.137 536.136)" fill="white"/>
<circle cx="206.137" cy="460.136" r="2.56046" transform="rotate(75 206.137 460.136)" fill="white"/>
<circle cx="204.137" cy="404.136" r="2.56046" transform="rotate(75 204.137 404.136)" fill="white"/>
<circle cx="181.738" cy="285.273" r="2.56046" transform="rotate(75 181.738 285.273)" fill="white"/>
<circle cx="223.322" cy="285.904" r="2.56046" fill="white"/>
<circle cx="270.462" cy="480.875" r="2.56046" transform="rotate(165 270.462 480.875)" fill="white"/>
<circle cx="716.137" cy="584.136" r="2.56046" transform="rotate(75 716.137 584.136)" fill="white"/>
<circle cx="688.137" cy="412.136" r="2.56046" transform="rotate(75 688.137 412.136)" fill="white"/>
<circle cx="706.137" cy="372.136" r="2.56046" transform="rotate(75 706.137 372.136)" fill="white"/>
<circle cx="626.137" cy="326.136" r="2.56046" transform="rotate(75 626.137 326.136)" fill="white"/>
<circle cx="722.137" cy="708.136" r="2.56046" transform="rotate(75 722.137 708.136)" fill="white"/>
<circle cx="561.137" cy="346.136" r="2.56046" transform="rotate(75 561.137 346.136)" fill="white"/>
<circle cx="741.137" cy="200.136" r="2.56046" transform="rotate(75 741.137 200.136)" fill="white"/>
<circle cx="749.137" cy="152.136" r="2.56046" transform="rotate(75 749.137 152.136)" fill="white"/>
<circle cx="280.875" cy="521.788" r="2.56046" transform="rotate(75 280.875 521.788)" fill="white"/>
<circle cx="520.875" cy="512.788" r="2.56046" transform="rotate(75 520.875 512.788)" fill="white"/>
<circle cx="542.137" cy="475.136" r="2.56046" transform="rotate(75 542.137 475.136)" fill="white"/>
<circle cx="486.137" cy="405.136" r="2.56046" transform="rotate(75 486.137 405.136)" fill="white"/>
<circle cx="84.875" cy="291.788" r="2.56046" transform="rotate(75 84.875 291.788)" fill="white"/>
<circle cx="102.56" cy="750.56" r="2.56046" fill="white"/>
<circle cx="287.509" cy="411.274" r="2.56046" transform="rotate(165 287.509 411.274)" fill="white"/>
<circle cx="580.945" cy="431.07" r="2.56046" transform="rotate(75 580.945 431.07)" fill="white"/>
<circle cx="211.273" cy="504.74" r="2.56046" transform="rotate(75 211.273 504.74)" fill="white"/>
<circle cx="451.273" cy="495.74" r="2.56046" transform="rotate(75 451.273 495.74)" fill="white"/>
<circle cx="591.137" cy="739.136" r="2.56046" transform="rotate(75 591.137 739.136)" fill="white"/>
<circle cx="175.185" cy="379.446" r="2.56046" fill="white"/>
<circle cx="292.747" cy="378.062" r="2.56046" transform="rotate(165 292.747 378.062)" fill="white"/>
<circle cx="547.732" cy="425.832" r="2.56046" transform="rotate(75 547.732 425.832)" fill="white"/>
<circle cx="178.061" cy="499.502" r="2.56046" transform="rotate(75 178.061 499.502)" fill="white"/>
<circle cx="418.061" cy="490.502" r="2.56046" transform="rotate(75 418.061 490.502)" fill="white"/>
<circle cx="231.857" cy="348.038" r="2.56046" fill="white"/>
<circle cx="246.136" cy="423.067" r="2.56046" transform="rotate(165 246.136 423.067)" fill="white"/>
<circle cx="592.738" cy="472.443" r="2.56046" transform="rotate(75 592.738 472.443)" fill="white"/>
<circle cx="223.066" cy="546.113" r="2.56046" transform="rotate(75 223.066 546.113)" fill="white"/>
<circle cx="463.066" cy="537.113" r="2.56046" transform="rotate(75 463.066 537.113)" fill="white"/>
<circle cx="27.0664" cy="316.113" r="2.56046" transform="rotate(75 27.0664 316.113)" fill="white"/>
<path d="M560.414 384.828L559.492 382.336L557 381.414L559.492 380.492L560.414 378L561.336 380.492L563.828 381.414L561.336 382.336L560.414 384.828Z" fill="#FFF7B0"/>
<path d="M194.859 358.828L193.937 356.336L191.446 355.414L193.937 354.492L194.859 352L195.782 354.492L198.273 355.414L195.782 356.336L194.859 358.828Z" fill="#FFF7B0"/>
<path d="M117.859 149.828L116.937 147.336L114.446 146.414L116.937 145.492L117.859 143L118.782 145.492L121.273 146.414L118.782 147.336L117.859 149.828Z" fill="#FFF7B0"/>
<path d="M744.414 104.828L743.492 102.336L741 101.414L743.492 100.492L744.414 98.0002L745.336 100.492L747.828 101.414L745.336 102.336L744.414 104.828Z" fill="#FFF7B0"/>
<path d="M526.424 484.634L525.502 482.142L523.01 481.22L525.502 480.298L526.424 477.806L527.346 480.298L529.838 481.22L527.346 482.142L526.424 484.634Z" fill="#FFF7B0"/>
<path d="M176.424 477.634L175.502 475.142L173.01 474.22L175.502 473.298L176.424 470.806L177.346 473.298L179.838 474.22L177.346 475.142L176.424 477.634Z" fill="#FFF7B0"/>
<path d="M99.4239 268.634L98.5019 266.142L96.01 265.22L98.5019 264.298L99.4239 261.806L100.346 264.298L102.838 265.22L100.346 266.142L99.4239 268.634Z" fill="#FFF7B0"/>
<path d="M632.424 255.634L631.502 253.142L629.01 252.22L631.502 251.298L632.424 248.806L633.346 251.298L635.838 252.22L633.346 253.142L632.424 255.634Z" fill="#FFF7B0"/>
<path d="M549.981 450.153L549.059 447.661L546.567 446.739L549.059 445.817L549.981 443.325L550.903 445.817L553.395 446.739L550.903 447.661L549.981 450.153Z" fill="#FFF7B0"/>
<path d="M199.981 443.153L199.059 440.661L196.567 439.739L199.059 438.817L199.981 436.325L200.903 438.817L203.395 439.739L200.903 440.661L199.981 443.153Z" fill="#FFF7B0"/>
<path d="M122.981 234.153L122.059 231.661L119.567 230.739L122.059 229.817L122.981 227.325L123.903 229.817L126.395 230.739L123.903 231.661L122.981 234.153Z" fill="#FFF7B0"/>
<path d="M655.981 221.153L655.059 218.661L652.567 217.739L655.059 216.817L655.981 214.325L656.903 216.817L659.395 217.739L656.903 218.661L655.981 221.153Z" fill="#FFF7B0"/>
<path d="M544.859 534.478L543.937 531.986L541.446 531.064L543.937 530.142L544.859 527.65L545.782 530.142L548.273 531.064L545.782 531.986L544.859 534.478Z" fill="#FFF7B0"/>
<path d="M594.414 534.828L593.492 532.336L591 531.414L593.492 530.492L594.414 528L595.336 530.492L597.828 531.414L595.336 532.336L594.414 534.828Z" fill="#FFF7B0"/>
<path d="M558.414 566.828L557.492 564.336L555 563.414L557.492 562.492L558.414 560L559.336 562.492L561.828 563.414L559.336 564.336L558.414 566.828Z" fill="#FFF7B0"/>
<path d="M194.859 527.478L193.937 524.986L191.446 524.064L193.937 523.142L194.859 520.65L195.782 523.142L198.273 524.064L195.782 524.986L194.859 527.478Z" fill="#FFF7B0"/>
<path d="M117.859 318.478L116.937 315.986L114.446 315.064L116.937 314.142L117.859 311.65L118.782 314.142L121.273 315.064L118.782 315.986L117.859 318.478Z" fill="#FFF7B0"/>
<path d="M650.859 305.478L649.937 302.986L647.446 302.064L649.937 301.142L650.859 298.65L651.782 301.142L654.273 302.064L651.782 302.986L650.859 305.478Z" fill="#FFF7B0"/>
<path d="M353.975 680.949L352.361 676.588L348 674.974L352.361 673.361L353.975 669L355.588 673.361L359.949 674.974L355.588 676.588L353.975 680.949Z" fill="#FFF7B0"/>
<path d="M242.826 542.499L241.213 538.138L236.852 536.524L241.213 534.91L242.826 530.55L244.44 534.91L248.801 536.524L244.44 538.138L242.826 542.499Z" fill="#FFF7B0"/>
<path d="M199.975 321.949L198.361 317.588L194 315.974L198.361 314.361L199.975 310L201.588 314.361L205.949 315.974L201.588 317.588L199.975 321.949Z" fill="#FFF7B0"/>
<path d="M215.975 95.9487L214.361 91.5879L210 89.9743L214.361 88.3607L215.975 83.9999L217.588 88.3607L221.949 89.9743L217.588 91.5879L215.975 95.9487Z" fill="#FFF7B0"/>
<path d="M682.975 459.949L681.361 455.588L677 453.974L681.361 452.361L682.975 448L684.588 452.361L688.949 453.974L684.588 455.588L682.975 459.949Z" fill="#FFF7B0"/>
<path d="M485.627 437.521L484.014 433.16L479.653 431.547L484.014 429.933L485.627 425.572L487.241 429.933L491.602 431.547L487.241 433.16L485.627 437.521Z" fill="#FFF7B0"/>
<path d="M143.975 665.949L142.361 661.588L138 659.974L142.361 658.361L143.975 654L145.588 658.361L149.949 659.974L145.588 661.588L143.975 665.949Z" fill="#FFF7B0"/>
<path d="M58.6271 221.521L57.0135 217.16L52.6527 215.547L57.0135 213.933L58.6271 209.572L60.2408 213.933L64.6016 215.547L60.2408 217.16L58.6271 221.521Z" fill="#FFF7B0"/>
<path d="M661.975 188.949L660.361 184.588L656 182.974L660.361 181.361L661.975 177L663.588 181.361L667.949 182.974L663.588 184.588L661.975 188.949Z" fill="#FFF7B0"/>
<path d="M629.975 110.949L628.361 106.588L624 104.974L628.361 103.361L629.975 98.9999L631.588 103.361L635.949 104.974L631.588 106.588L629.975 110.949Z" fill="#FFF7B0"/>
<path d="M736.975 12.9487L735.361 8.58795L731 6.97431L735.361 5.36068L736.975 0.999899L738.588 5.36068L742.949 6.97432L738.588 8.58795L736.975 12.9487Z" fill="#FFF7B0"/>
<path d="M580.877 501.021L579.264 496.66L574.903 495.046L579.264 493.432L580.877 489.072L582.491 493.432L586.852 495.046L582.491 496.66L580.877 501.021Z" fill="#FFF7B0"/>
<path d="M640.975 586.949L639.361 582.588L635 580.974L639.361 579.361L640.975 575L642.588 579.361L646.949 580.974L642.588 582.588L640.975 586.949Z" fill="#FFF7B0"/>
<path d="M580.975 624.949L579.361 620.588L575 618.974L579.361 617.361L580.975 613L582.588 617.361L586.949 618.974L582.588 620.588L580.975 624.949Z" fill="#FFF7B0"/>
<path d="M230.877 494.021L229.264 489.66L224.903 488.046L229.264 486.432L230.877 482.072L232.491 486.432L236.852 488.046L232.491 489.66L230.877 494.021Z" fill="#FFF7B0"/>
<path d="M35.9748 572.949L34.3612 568.588L30.0004 566.974L34.3612 565.361L35.9748 561L37.5884 565.361L41.9492 566.974L37.5884 568.588L35.9748 572.949Z" fill="#FFF7B0"/>
<path d="M686.877 272.021L685.264 267.66L680.903 266.046L685.264 264.432L686.877 260.072L688.491 264.432L692.852 266.046L688.491 267.66L686.877 272.021Z" fill="#FFF7B0"/>
<path d="M614.676 374.363L613.062 370.002L608.702 368.388L613.062 366.775L614.676 362.414L616.29 366.775L620.65 368.388L616.29 370.002L614.676 374.363Z" fill="#FFF7B0"/>
<path d="M509.975 385.949L508.361 381.588L504 379.974L508.361 378.361L509.975 374L511.588 378.361L515.949 379.974L511.588 381.588L509.975 385.949Z" fill="#FFF7B0"/>
<path d="M63.9748 517.949L62.3612 513.588L58.0004 511.974L62.3612 510.361L63.9748 506L65.5884 510.361L69.9492 511.974L65.5884 513.588L63.9748 517.949Z" fill="#FFF7B0"/>
<path d="M161.975 599.949L160.361 595.588L156 593.974L160.361 592.361L161.975 588L163.588 592.361L167.949 593.974L163.588 595.588L161.975 599.949Z" fill="#FFF7B0"/>
<path d="M83 630L79.4888 620.511L70 617L79.4888 613.489L83 604L86.5112 613.489L96 617L86.5112 620.511L83 630Z" fill="#FFF7B0"/>
<path d="M252 57L248.489 47.5112L239 44L248.489 40.4888L252 31L255.511 40.4888L265 44L255.511 47.5112L252 57Z" fill="#FFF7B0"/>
<path d="M689 340L685.489 330.511L676 327L685.489 323.489L689 314L692.511 323.489L702 327L692.511 330.511L689 340Z" fill="#FFF7B0"/>
<path d="M266.975 653.949L265.361 649.588L261 647.974L265.361 646.361L266.975 642L268.588 646.361L272.949 647.974L268.588 649.588L266.975 653.949Z" fill="#FFF7B0"/>
<path d="M79.9748 407.949L78.3612 403.588L74.0004 401.974L78.3612 400.361L79.9748 396L81.5884 400.361L85.9492 401.974L81.5884 403.588L79.9748 407.949Z" fill="#FFF7B0"/>
<path d="M720.676 145.363L719.062 141.002L714.702 139.388L719.062 137.775L720.676 133.414L722.29 137.775L726.65 139.388L722.29 141.002L720.676 145.363Z" fill="#FFF7B0"/>
<path d="M614.975 41.9487L613.361 37.5879L609 35.9743L613.361 34.3607L614.975 29.9999L616.588 34.3607L620.949 35.9743L616.588 37.5879L614.975 41.9487Z" fill="#FFF7B0"/>
<path d="M499.113 549.499L498.191 547.007L495.699 546.085L498.191 545.163L499.113 542.671L500.035 545.163L502.527 546.085L500.035 547.007L499.113 549.499Z" fill="#FFF7B0"/>
<path d="M149.113 542.499L148.191 540.007L145.699 539.085L148.191 538.163L149.113 535.671L150.035 538.163L152.527 539.085L150.035 540.007L149.113 542.499Z" fill="#FFF7B0"/>
<path d="M72.1134 333.499L71.1913 331.007L68.6994 330.085L71.1913 329.163L72.1134 326.671L73.0355 329.163L75.5273 330.085L73.0355 331.007L72.1134 333.499Z" fill="#FFF7B0"/>
<path d="M605.113 320.499L604.191 318.007L601.699 317.085L604.191 316.163L605.113 313.671L606.035 316.163L608.527 317.085L606.035 318.007L605.113 320.499Z" fill="#FFF7B0"/>
<path d="M462.242 498.972L461.32 496.48L458.828 495.558L461.32 494.636L462.242 492.144L463.164 494.636L465.656 495.558L463.164 496.48L462.242 498.972Z" fill="#FFF7B0"/>
<path d="M112.242 491.972L111.32 489.48L108.828 488.558L111.32 487.636L112.242 485.144L113.164 487.636L115.656 488.558L113.164 489.48L112.242 491.972Z" fill="#FFF7B0"/>
<path d="M430.414 747.828L429.492 745.336L427 744.414L429.492 743.492L430.414 741L431.336 743.492L433.828 744.414L431.336 745.336L430.414 747.828Z" fill="#FFF7B0"/>
<path d="M568.242 269.972L567.32 267.48L564.828 266.558L567.32 265.636L568.242 263.144L569.164 265.636L571.656 266.558L569.164 267.48L568.242 269.972Z" fill="#FFF7B0"/>
<path d="M547.414 651.828L546.492 649.336L544 648.414L546.492 647.492L547.414 645L548.336 647.492L550.828 648.414L548.336 649.336L547.414 651.828Z" fill="#FFF7B0"/>
<path d="M105.414 577.321L104.492 574.829L102 573.907L104.492 572.985L105.414 570.493L106.336 572.985L108.828 573.907L106.336 574.829L105.414 577.321Z" fill="#FFF7B0"/>
<path d="M34.4142 451.828L33.4921 449.336L31.0002 448.414L33.4921 447.492L34.4142 445L35.3363 447.492L37.8281 448.414L35.3363 449.336L34.4142 451.828Z" fill="#FFF7B0"/>
<path d="M585.414 351.828L584.492 349.336L582 348.414L584.492 347.492L585.414 345L586.336 347.492L588.828 348.414L586.336 349.336L585.414 351.828Z" fill="#FFF7B0"/>
</g>
<g style="mix-blend-mode:overlay" clip-path="url(#clip2_666_47229)">
<circle cx="586" cy="733" r="63" fill="white" fill-opacity="0.25"/>
<circle cx="251" cy="146" r="50" fill="white" fill-opacity="0.25"/>
<circle cx="613" cy="242" r="36" fill="white" fill-opacity="0.25"/>
<circle cx="18" cy="515" r="36" fill="white" fill-opacity="0.25"/>
<circle cx="737" cy="32" r="88" fill="white" fill-opacity="0.25"/>
<path d="M144.675 632.966C64.3766 608.565 2.94915 702.93 -12 747.834C117.844 945.076 322.102 856.42 394 770C278.678 833.544 245.048 663.467 144.675 632.966Z" fill="white" fill-opacity="0.25"/>
<path d="M650.966 518.675C626.565 438.377 720.93 376.949 765.834 362C963.076 491.844 874.42 696.102 788 768C851.544 652.678 681.467 619.048 650.966 518.675Z" fill="white" fill-opacity="0.25"/>
<path d="M-57.9999 8.49109C-29.304 1.45142 34.7723 14.5252 41.2541 70.8425C46.2313 114.086 42.2669 188.506 6.81903 221.693C-34.7056 260.569 -31.8269 352.301 28.0877 373.548C84.8044 393.662 153.534 364.497 162.79 317.231C176.738 246 116.875 233.726 125.316 164.37C148 -22 481.846 25.9641 520 -9.99999C520 -191.877 6.81902 -487.815 -57.9999 8.49109Z" fill="white" fill-opacity="0.25"/>
</g>
</g>
<path d="M506 693.593L448.328 627H383.569H319.199L262 693.593C262 693.593 300.799 737.5 384 737.5C467.201 737.5 506 693.593 506 693.593Z" fill="url(#paint2_linear_666_47229)"/>
<g filter="url(#filter3_f_666_47229)">
<path d="M326.644 208.597C326.836 207.667 327.654 207 328.603 207H439.397C440.346 207 441.164 207.667 441.356 208.597L493.744 462.986C493.9 463.745 493.614 464.517 492.976 464.959C486.13 469.701 445.396 496 384 496C322.604 496 281.87 469.701 275.024 464.959C274.386 464.517 274.1 463.745 274.256 462.986L326.644 208.597Z" fill="white" fill-opacity="0.75"/>
</g>
<path d="M489.565 464.947C477.306 472.747 438.848 494 383.752 494C322.343 494 281.604 467.598 274.772 462.848C274.356 462.559 274.09 462.13 274 461.655C282.641 436.672 316.228 385.887 360.003 399.182C381.681 405.766 396.857 422.295 411.13 437.839C433.236 461.915 453.175 483.631 491.752 462.385C491.045 463.235 490.315 464.09 489.565 464.947Z" fill="url(#paint3_radial_666_47229)"/>
<path d="M469.69 343.667L480.179 394.773C476.011 399.702 469.836 404.033 460.881 406.303C432.885 413.399 404 397.433 404 373.484C404 361.509 412.354 337.649 445.772 338.004C455.848 338.111 463.672 340.317 469.69 343.667Z" fill="url(#paint4_radial_666_47229)"/>
<path d="M390 287.263C390 280.762 394.476 267.81 412.378 268.002C430.28 268.195 434.914 280.923 434.993 287.263C435.152 291.917 432.47 301.997 420.472 305.079C405.474 308.931 390 300.264 390 287.263Z" fill="url(#paint5_radial_666_47229)"/>
<path d="M441.159 206.769L450.076 250.217C446.589 249.622 442.962 248.936 439.252 248.234C408.22 242.363 371.387 235.395 362.064 271.5C357.993 287.264 363.891 296.694 369.628 305.87C375.167 314.727 380.557 323.346 376.689 337.193C371.981 354.047 346.388 364.964 325.805 357.656C304.062 349.936 305.59 317.96 318.087 302.48C330.583 287 332.39 263.382 330.583 247.669C329.71 240.075 325.959 234.645 321.053 230.95L326.178 206C326.252 206.147 326.349 206.284 326.47 206.405C329.4 209.365 344.004 221.688 384 221.688C422.526 221.688 437.492 210.254 441.159 206.769Z" fill="url(#paint6_radial_666_47229)"/>
<mask id="mask0_666_47229" style="mask-type:alpha" maskUnits="userSpaceOnUse" x="309" y="206" width="142" height="154">
<path d="M441.159 206.769L450.076 250.217C446.589 249.622 442.962 248.936 439.252 248.234C408.22 242.363 371.387 235.395 362.064 271.5C357.993 287.264 363.891 296.694 369.628 305.87C375.167 314.727 380.557 323.346 376.689 337.193C371.981 354.047 346.388 364.964 325.805 357.656C304.062 349.936 305.59 317.96 318.087 302.48C330.583 287 332.39 263.382 330.583 247.669C329.71 240.075 325.959 234.645 321.053 230.95L326.178 206C326.252 206.147 326.349 206.284 326.47 206.405C329.4 209.365 344.004 221.688 384 221.688C422.526 221.688 437.492 210.254 441.159 206.769Z" fill="url(#paint7_radial_666_47229)"/>
</mask>
<g mask="url(#mask0_666_47229)">
<g filter="url(#filter4_f_666_47229)">
<mask id="mask1_666_47229" style="mask-type:alpha" maskUnits="userSpaceOnUse" x="274" y="207" width="220" height="288">
<path d="M326.645 208.597C326.836 207.667 327.654 207 328.604 207H439.396C440.346 207 441.164 207.667 441.355 208.597L493.699 463.342C493.877 464.211 493.468 465.089 492.676 465.489C484.111 469.816 435.292 493.314 384 493.994C332.606 494.676 283.694 469.968 275.273 465.497C274.504 465.088 274.119 464.228 274.295 463.375L326.645 208.597Z" fill="#577096" fill-opacity="0.75"/>
</mask>
<g mask="url(#mask1_666_47229)">
<g filter="url(#filter5_f_666_47229)">
<path d="M454.675 167C462.701 241.961 320.236 290.9 248 306L248 167L454.675 167Z" fill="url(#paint8_linear_666_47229)" fill-opacity="0.5"/>
</g>
<g filter="url(#filter6_f_666_47229)">
<path d="M341.007 274.947C343.338 230.439 295.067 189.11 282.906 147.014C292.69 143.062 316.087 155.333 335.012 167.04C358.668 181.673 357.402 239.449 361.233 276.006C364.299 305.252 325.748 490.207 316.009 529.88L289.022 528.466C307.731 471.07 339.208 309.296 341.007 274.947Z" fill="url(#paint9_linear_666_47229)" fill-opacity="0.6"/>
</g>
</g>
</g>
</g>
<mask id="mask2_666_47229" style="mask-type:alpha" maskUnits="userSpaceOnUse" x="274" y="397" width="218" height="97">
<path d="M489.565 464.947C477.306 472.747 438.848 494 383.752 494C322.343 494 281.604 467.598 274.772 462.848C274.356 462.559 274.09 462.13 274 461.655C282.641 436.672 316.228 385.887 360.003 399.182C381.681 405.766 396.857 422.295 411.13 437.839C433.236 461.915 453.175 483.631 491.752 462.385C491.045 463.235 490.315 464.09 489.565 464.947Z" fill="url(#paint10_radial_666_47229)"/>
</mask>
<g mask="url(#mask2_666_47229)">
<g filter="url(#filter7_f_666_47229)">
<mask id="mask3_666_47229" style="mask-type:alpha" maskUnits="userSpaceOnUse" x="274" y="207" width="220" height="288">
<path d="M326.645 208.597C326.836 207.667 327.654 207 328.604 207H439.396C440.346 207 441.164 207.667 441.355 208.597L493.699 463.342C493.877 464.211 493.468 465.089 492.676 465.489C484.111 469.816 435.292 493.314 384 493.994C332.606 494.676 283.694 469.968 275.273 465.497C274.504 465.088 274.119 464.228 274.295 463.375L326.645 208.597Z" fill="#577096" fill-opacity="0.75"/>
</mask>
<g mask="url(#mask3_666_47229)">
<g filter="url(#filter8_f_666_47229)">
<path d="M341.007 274.947C343.338 230.439 295.067 189.11 282.906 147.014C292.69 143.062 316.087 155.333 335.012 167.04C358.668 181.673 357.402 239.449 361.233 276.006C364.299 305.252 325.748 490.207 316.009 529.88L289.022 528.466C307.731 471.07 339.208 309.296 341.007 274.947Z" fill="url(#paint11_linear_666_47229)" fill-opacity="0.6"/>
</g>
</g>
</g>
</g>
<path d="M341.559 138.914C349.139 110.438 355.252 74 383.528 74C411.805 74 421.711 119.115 426.441 139.608C430.799 158.489 440.334 202.159 441.807 208.914C441.934 209.494 441.786 210.068 441.371 210.492C438.337 213.59 423.704 226 384 226C344.175 226 329.575 213.515 326.602 210.464C326.201 210.053 326.056 209.499 326.164 208.935C327.337 202.776 334.615 165 341.559 138.914Z" fill="url(#paint12_linear_666_47229)"/>
<path d="M273.831 461C273.831 461 325.001 494 384.501 494C444.001 494 494.171 461 494.171 461C501.902 493.924 537.92 578.176 511.043 620.86C477.219 674.578 440.001 693 384.001 693C328.001 693 290.782 674.578 256.958 620.86C230.081 578.176 266.099 493.924 273.831 461Z" fill="url(#paint13_radial_666_47229)"/>
<mask id="mask4_666_47229" style="mask-type:alpha" maskUnits="userSpaceOnUse" x="247" y="462" width="274" height="232">
<path d="M273.686 462C273.686 462 324.856 495 384.356 495C443.856 495 494.027 462 494.027 462C501.758 494.924 537.776 579.176 510.899 621.86C477.075 675.578 439.856 694 383.856 694C327.856 694 290.638 675.578 256.814 621.86C229.937 579.176 265.955 494.924 273.686 462Z" fill="url(#paint14_radial_666_47229)"/>
</mask>
<g mask="url(#mask4_666_47229)">
<path d="M446.855 702C461.948 662.513 483.077 563.231 446.855 482" stroke="#773B06" stroke-opacity="0.1" stroke-width="10"/>
<path d="M397.855 702C409.855 664 421.855 564 397.855 482" stroke="#773B06" stroke-opacity="0.1" stroke-width="10"/>
<path d="M362.855 702C350.855 664 338.855 564 362.855 482" stroke="#773B06" stroke-opacity="0.1" stroke-width="10"/>
<path d="M313.855 702C298.763 662.513 277.634 563.231 313.855 482" stroke="#773B06" stroke-opacity="0.1" stroke-width="10"/>
</g>
<path d="M339.402 540.5C340.557 538.5 343.443 538.5 344.598 540.5L366.249 578C367.403 580 365.96 582.5 363.651 582.5H320.349C318.04 582.5 316.597 580 317.751 578L339.402 540.5Z" fill="black"/>
<path d="M426.598 540.5C425.443 538.5 422.557 538.5 421.402 540.5L399.751 578C398.597 580 400.04 582.5 402.349 582.5H445.651C447.96 582.5 449.403 580 448.249 578L426.598 540.5Z" fill="black"/>
<path fill-rule="evenodd" clip-rule="evenodd" d="M358.942 607.203H406.495V621.121H422.732V607.203H458.697C462.675 607.203 464.841 611.45 462.166 614.395C451.573 626.055 426.36 647.797 385.618 647.797C384.446 647.797 383.286 647.779 382.138 647.744V633.879H365.901V646.035C336.375 640.654 316.669 624.206 307.29 614.529C304.46 611.608 306.6 607.203 310.666 607.203H342.704V621.121H358.942V607.203Z" fill="black"/>
<path d="M426.667 138.543C421.841 117.595 411.796 74 384 74L384.472 737.5C467.673 737.5 506.472 693.593 506.472 693.593L478.479 661.271C490.129 650.881 500.986 637.58 511.514 620.86C533.054 586.653 514.198 525.747 501.88 485.959C498.828 476.1 496.177 467.538 494.642 461C494.642 461 494.391 461.165 493.903 461.472L442.071 209.782C442.224 209.274 442.237 208.721 442.116 208.17C440.212 199.441 431.134 157.896 426.913 139.608L426.667 138.543Z" fill="#161A70" fill-opacity="0.1"/>
<g filter="url(#filter9_d_666_47229)">
<path d="M474.492 55.5343C474.492 55.5343 474.492 55.5425 474.487 55.5589C474.489 55.5426 474.491 55.5343 474.492 55.5343ZM473.885 54.7836C474.288 55.2156 474.427 55.4851 474.472 55.602C474.427 55.7189 474.288 55.9884 473.885 56.4204C473.144 57.2139 471.808 58.2199 469.66 59.333C465.377 61.5528 458.853 63.7007 450.372 65.56C433.492 69.2606 409.932 71.5917 383.742 71.5917C357.553 71.5917 333.993 69.2606 317.113 65.56C308.632 63.7007 302.107 61.5528 297.825 59.333C295.677 58.2199 294.341 57.2139 293.6 56.4204C293.197 55.9884 293.057 55.7189 293.013 55.602C293.057 55.4851 293.197 55.2156 293.6 54.7836C294.341 53.9901 295.677 52.9841 297.825 51.871C302.107 49.6512 308.632 47.5033 317.113 45.6441C333.993 41.9434 357.553 39.6123 383.742 39.6123C409.932 39.6123 433.492 41.9434 450.372 45.6441C458.853 47.5033 465.377 49.6512 469.66 51.871C471.808 52.9841 473.144 53.9901 473.885 54.7836ZM292.993 55.5343C292.994 55.5344 292.996 55.5426 292.998 55.559C292.993 55.5425 292.992 55.5343 292.993 55.5343ZM292.993 55.6697C292.992 55.6697 292.993 55.6615 292.998 55.645C292.996 55.6614 292.994 55.6696 292.993 55.6697ZM474.487 55.6451C474.492 55.6616 474.493 55.6697 474.492 55.6697C474.491 55.6696 474.489 55.6614 474.487 55.6451Z" stroke="#FDF21B" stroke-width="10" shape-rendering="crispEdges"/>
</g>
</g>
<defs>
<filter id="filter0_f_666_47229" x="-3.82422" y="-3.90137" width="776" height="776" filterUnits="userSpaceOnUse" color-interpolation-filters="sRGB">
<feFlood flood-opacity="0" result="BackgroundImageFix"/>
<feBlend mode="normal" in="SourceGraphic" in2="BackgroundImageFix" result="shape"/>
<feGaussianBlur stdDeviation="2" result="effect1_foregroundBlur_666_47229"/>
</filter>
<filter id="filter1_f_666_47229" x="-215.635" y="587.714" width="1206.88" height="427.215" filterUnits="userSpaceOnUse" color-interpolation-filters="sRGB">
<feFlood flood-opacity="0" result="BackgroundImageFix"/>
<feBlend mode="normal" in="SourceGraphic" in2="BackgroundImageFix" result="shape"/>
<feGaussianBlur stdDeviation="5" result="effect1_foregroundBlur_666_47229"/>
</filter>
<filter id="filter2_f_666_47229" x="-227.02" y="-457.413" width="1219.39" height="1498.73" filterUnits="userSpaceOnUse" color-interpolation-filters="sRGB">
<feFlood flood-opacity="0" result="BackgroundImageFix"/>
<feBlend mode="normal" in="SourceGraphic" in2="BackgroundImageFix" result="shape"/>
<feGaussianBlur stdDeviation="5" result="effect1_foregroundBlur_666_47229"/>
</filter>
<filter id="filter3_f_666_47229" x="250.215" y="183" width="267.57" height="337" filterUnits="userSpaceOnUse" color-interpolation-filters="sRGB">
<feFlood flood-opacity="0" result="BackgroundImageFix"/>
<feBlend mode="normal" in="SourceGraphic" in2="BackgroundImageFix" result="shape"/>
<feGaussianBlur stdDeviation="12" result="effect1_foregroundBlur_666_47229"/>
</filter>
<filter id="filter4_f_666_47229" x="269" y="202" width="230" height="297.008" filterUnits="userSpaceOnUse" color-interpolation-filters="sRGB">
<feFlood flood-opacity="0" result="BackgroundImageFix"/>
<feBlend mode="normal" in="SourceGraphic" in2="BackgroundImageFix" result="shape"/>
<feGaussianBlur stdDeviation="2.5" result="effect1_foregroundBlur_666_47229"/>
</filter>
<filter id="filter5_f_666_47229" x="246" y="165" width="211" height="143" filterUnits="userSpaceOnUse" color-interpolation-filters="sRGB">
<feFlood flood-opacity="0" result="BackgroundImageFix"/>
<feBlend mode="normal" in="SourceGraphic" in2="BackgroundImageFix" result="shape"/>
<feGaussianBlur stdDeviation="1" result="effect1_foregroundBlur_666_47229"/>
</filter>
<filter id="filter6_f_666_47229" x="280.906" y="144.259" width="82.5" height="387.621" filterUnits="userSpaceOnUse" color-interpolation-filters="sRGB">
<feFlood flood-opacity="0" result="BackgroundImageFix"/>
<feBlend mode="normal" in="SourceGraphic" in2="BackgroundImageFix" result="shape"/>
<feGaussianBlur stdDeviation="1" result="effect1_foregroundBlur_666_47229"/>
</filter>
<filter id="filter7_f_666_47229" x="269" y="202" width="230" height="297.008" filterUnits="userSpaceOnUse" color-interpolation-filters="sRGB">
<feFlood flood-opacity="0" result="BackgroundImageFix"/>
<feBlend mode="normal" in="SourceGraphic" in2="BackgroundImageFix" result="shape"/>
<feGaussianBlur stdDeviation="2.5" result="effect1_foregroundBlur_666_47229"/>
</filter>
<filter id="filter8_f_666_47229" x="280.906" y="144.259" width="82.5" height="387.621" filterUnits="userSpaceOnUse" color-interpolation-filters="sRGB">
<feFlood flood-opacity="0" result="BackgroundImageFix"/>
<feBlend mode="normal" in="SourceGraphic" in2="BackgroundImageFix" result="shape"/>
<feGaussianBlur stdDeviation="1" result="effect1_foregroundBlur_666_47229"/>
</filter>
<filter id="filter9_d_666_47229" x="280.706" y="27.3183" width="206.072" height="56.5675" filterUnits="userSpaceOnUse" color-interpolation-filters="sRGB">
<feFlood flood-opacity="0" result="BackgroundImageFix"/>
<feColorMatrix in="SourceAlpha" type="matrix" values="0 0 0 0 0 0 0 0 0 0 0 0 0 0 0 0 0 0 127 0" result="hardAlpha"/>
<feOffset/>
<feGaussianBlur stdDeviation="3.647"/>
<feComposite in2="hardAlpha" operator="out"/>
<feColorMatrix type="matrix" values="0 0 0 0 1 0 0 0 0 1 0 0 0 0 1 0 0 0 1 0"/>
<feBlend mode="normal" in2="BackgroundImageFix" result="effect1_dropShadow_666_47229"/>
<feBlend mode="normal" in="SourceGraphic" in2="effect1_dropShadow_666_47229" result="shape"/>
</filter>
<radialGradient id="paint0_radial_666_47229" cx="0" cy="0" r="1" gradientUnits="userSpaceOnUse" gradientTransform="translate(593.439 233.672) rotate(99.1226) scale(134.113 382.227)">
<stop stop-color="white" stop-opacity="0.75"/>
<stop offset="1" stop-color="white" stop-opacity="0"/>
</radialGradient>
<radialGradient id="paint1_radial_666_47229" cx="0" cy="0" r="1" gradientUnits="userSpaceOnUse" gradientTransform="translate(382.674 401.142) rotate(92.5586) scale(481.339 390.814)">
<stop stop-color="white" stop-opacity="0.75"/>
<stop offset="1" stop-color="white" stop-opacity="0"/>
</radialGradient>
<linearGradient id="paint2_linear_666_47229" x1="296.382" y1="645.122" x2="361.556" y2="796.328" gradientUnits="userSpaceOnUse">
<stop stop-color="#C59651"/>
<stop offset="0.536458" stop-color="#E0AE0D" stop-opacity="0.98"/>
<stop offset="1" stop-color="#FFF27B" stop-opacity="0.98"/>
</linearGradient>
<radialGradient id="paint3_radial_666_47229" cx="0" cy="0" r="1" gradientUnits="userSpaceOnUse" gradientTransform="translate(320.844 419.677) rotate(27.3324) scale(128.589 92.9224)">
<stop offset="0.328125" stop-color="#FF00D6"/>
<stop offset="0.619792" stop-color="#D700B4"/>
</radialGradient>
<radialGradient id="paint4_radial_666_47229" cx="0" cy="0" r="1" gradientUnits="userSpaceOnUse" gradientTransform="translate(420.388 354.365) rotate(46.8342) scale(58.4166 51.64)">
<stop offset="0.3125" stop-color="#FABE09"/>
<stop offset="1" stop-color="#FDF21B"/>
</radialGradient>
<radialGradient id="paint5_radial_666_47229" cx="0" cy="0" r="1" gradientUnits="userSpaceOnUse" gradientTransform="translate(399.681 276.884) rotate(44.415) scale(33.0498 29.2697)">
<stop offset="0.552083" stop-color="white"/>
<stop offset="1" stop-color="#D0C9C9"/>
</radialGradient>
<radialGradient id="paint6_radial_666_47229" cx="0" cy="0" r="1" gradientUnits="userSpaceOnUse" gradientTransform="translate(342.05 239.4) rotate(69.5155) scale(64.4211 53.6995)">
<stop offset="0.3125" stop-color="#F85449"/>
<stop offset="1" stop-color="#CF0000"/>
<stop offset="1" stop-color="#C53434"/>
</radialGradient>
<radialGradient id="paint7_radial_666_47229" cx="0" cy="0" r="1" gradientUnits="userSpaceOnUse" gradientTransform="translate(342.05 239.4) rotate(53.1177) scale(82.9829 88.352)">
<stop offset="0.203125" stop-color="#71FF30"/>
<stop offset="0.890625" stop-color="#25BC46"/>
</radialGradient>
<linearGradient id="paint8_linear_666_47229" x1="318.643" y1="269.919" x2="341.934" y2="158.629" gradientUnits="userSpaceOnUse">
<stop stop-color="white" stop-opacity="0"/>
<stop offset="0.471361" stop-color="white"/>
<stop offset="1" stop-color="white"/>
</linearGradient>
<linearGradient id="paint9_linear_666_47229" x1="352.685" y1="484.803" x2="443.144" y2="390.584" gradientUnits="userSpaceOnUse">
<stop stop-color="#F2F2F2"/>
<stop offset="0.0001" stop-color="#F2F2F2"/>
<stop offset="0.0520833" stop-color="#F2F2F2" stop-opacity="0.948011"/>
<stop offset="1" stop-color="#F2F2F2" stop-opacity="0"/>
</linearGradient>
<radialGradient id="paint10_radial_666_47229" cx="0" cy="0" r="1" gradientUnits="userSpaceOnUse" gradientTransform="translate(320.844 419.677) rotate(27.3324) scale(128.589 92.9224)">
<stop offset="0.302083" stop-color="#FFB800"/>
<stop offset="1" stop-color="#FF7800"/>
</radialGradient>
<linearGradient id="paint11_linear_666_47229" x1="352.685" y1="484.803" x2="443.144" y2="390.584" gradientUnits="userSpaceOnUse">
<stop stop-color="#F2F2F2"/>
<stop offset="0.0001" stop-color="#F2F2F2"/>
<stop offset="0.0520833" stop-color="#F2F2F2" stop-opacity="0.948011"/>
<stop offset="1" stop-color="#F2F2F2" stop-opacity="0"/>
</linearGradient>
<linearGradient id="paint12_linear_666_47229" x1="342.345" y1="98.928" x2="462.715" y2="195.443" gradientUnits="userSpaceOnUse">
<stop stop-color="#C59651"/>
<stop offset="0.536458" stop-color="#E0AE0D" stop-opacity="0.98"/>
<stop offset="1" stop-color="#FFF27B" stop-opacity="0.98"/>
</linearGradient>
<radialGradient id="paint13_radial_666_47229" cx="0" cy="0" r="1" gradientUnits="userSpaceOnUse" gradientTransform="translate(336.001 565) rotate(36.2538) scale(167.41 148.272)">
<stop offset="0.0989583" stop-color="#FFF27B"/>
<stop offset="0.703125" stop-color="#FBC412"/>
</radialGradient>
<radialGradient id="paint14_radial_666_47229" cx="0" cy="0" r="1" gradientUnits="userSpaceOnUse" gradientTransform="translate(335.856 566) rotate(36.2538) scale(167.41 148.272)">
<stop offset="0.0989583" stop-color="#FFB800"/>
<stop offset="1" stop-color="#E96D00"/>
</radialGradient>
<clipPath id="clip0_666_47229">
<rect width="768" height="768" fill="white"/>
</clipPath>
<clipPath id="clip1_666_47229">
<rect width="768" height="768" fill="white"/>
</clipPath>
<clipPath id="clip2_666_47229">
<rect width="768" height="768" fill="white"/>
</clipPath>
</defs>
</svg>
