<svg width="300" height="300" viewBox="0 0 300 300" fill="none" xmlns="http://www.w3.org/2000/svg">
<g clip-path="url(#clip0)">
<rect width="300" height="300" fill="url(#paint0_linear)"/>
<g opacity="0.7" filter="url(#filter0_f)">
<g style="mix-blend-mode:overlay" opacity="0.5">
<path d="M256.733 207.138C314.514 220.747 175.945 245.631 128.498 247.266L284.945 247.266C332.135 245.482 345.643 237.308 346.498 233.444L346.498 200.896C333.247 194.654 306.286 182.327 222.11 174.59C110.545 164.335 -24.003 184.257 22.0626 207.138C57.9685 224.972 177.227 188.411 256.733 207.138Z" fill="white"/>
</g>
<g style="mix-blend-mode:overlay" opacity="0.5">
<path fill-rule="evenodd" clip-rule="evenodd" d="M74.6391 242.361C112.255 239.537 181.331 232.552 156.71 227.202C145.444 224.754 121.808 224.755 94.0401 224.756C45.9472 224.759 -14.5402 224.762 -44.6198 212.042C-93.3019 191.456 -54.8786 158.984 63.0978 146.054C64.7422 145.874 66.3964 145.693 68.0593 145.511C185.703 132.623 347.618 114.885 252.886 97.901C223.605 92.6514 191.059 96.4828 157.403 100.445C96.7269 107.588 32.4439 115.155 -22.8198 70.7032L-125.408 70.7032C-52.314 87.646 -59.1077 120.632 -106.173 128.666C-159.941 137.843 -153.59 155.745 -149.05 168.542C-147.635 172.531 -146.395 176.024 -147.208 178.602L-147.208 242.361L74.6391 242.361ZM-22.8198 141.596C-5.37987 131.965 57.9684 126.585 87.4626 125.099C111.827 114.844 52.839 119.302 43.8626 121.978C34.8861 124.653 16.9332 118.411 11.8038 109.939C6.67436 101.468 -36.9256 102.805 -34.3609 109.939C-31.7962 117.073 -31.7962 125.099 -61.2903 133.124C-90.7844 141.15 -44.6198 153.634 -22.8198 141.596Z" fill="white"/>
</g>
<g style="mix-blend-mode:overlay" opacity="0.5">
<path d="M242.627 157.201C188.768 157.201 191.333 142.041 242.627 138.92C292.628 135.878 341.411 131.141 342.651 121.818L342.651 121.086C342.683 121.333 342.683 121.577 342.651 121.818L342.651 167.463C321.956 163.393 281.196 157.201 242.627 157.201Z" fill="white"/>
</g>
</g>
<g filter="url(#filter1_d)">
<path d="M185.348 21.6931C185.349 21.693 185.348 21.6962 185.346 21.7026C185.347 21.6963 185.348 21.6931 185.348 21.6931ZM185.111 21.3998C185.269 21.5686 185.323 21.6738 185.341 21.7195C185.323 21.7651 185.269 21.8704 185.111 22.0392C184.822 22.3491 184.3 22.7421 183.461 23.1769C181.788 24.044 179.239 24.883 175.927 25.6093C169.333 27.0549 160.13 27.9655 149.899 27.9655C139.669 27.9655 130.466 27.0549 123.872 25.6093C120.559 24.883 118.011 24.044 116.338 23.1769C115.499 22.7421 114.977 22.3491 114.688 22.0392C114.53 21.8704 114.476 21.7651 114.458 21.7195C114.476 21.6738 114.53 21.5686 114.688 21.3998C114.977 21.0898 115.499 20.6969 116.338 20.2621C118.011 19.395 120.559 18.5559 123.872 17.8297C130.466 16.3841 139.669 15.4735 149.899 15.4735C160.13 15.4735 169.333 16.3841 175.927 17.8297C179.239 18.5559 181.788 19.395 183.461 20.2621C184.3 20.6969 184.822 21.0898 185.111 21.3998ZM114.45 21.6931C114.451 21.6931 114.452 21.6963 114.452 21.7027C114.451 21.6962 114.45 21.693 114.45 21.6931ZM114.45 21.7459C114.45 21.7459 114.451 21.7427 114.452 21.7363C114.452 21.7427 114.451 21.7459 114.45 21.7459ZM185.346 21.7364C185.348 21.7428 185.349 21.746 185.348 21.7459C185.348 21.7459 185.347 21.7427 185.346 21.7364Z" stroke="#FDF21B" stroke-width="3.90625" shape-rendering="crispEdges"/>
</g>
<g filter="url(#filter2_d)">
<path d="M220.738 129.344C213.987 131.601 206.471 131.487 200.693 130.509C208.441 121.809 218.722 111.37 226.874 105.484C229.104 103.874 231.11 102.652 232.814 101.897C234.574 101.117 235.742 100.958 236.418 101.092C236.71 101.15 236.902 101.259 237.056 101.412C237.223 101.578 237.431 101.881 237.598 102.445C237.95 103.624 238.032 105.617 237.533 108.728C235.603 120.778 228.669 126.694 220.738 129.344Z" stroke="white" stroke-width="3.90625" shape-rendering="crispEdges"/>
</g>
<g filter="url(#filter3_d)">
<path d="M214.588 147.15C208.219 143.972 202.984 138.576 199.59 133.8C211.221 133.126 225.873 133.014 235.799 134.617C238.514 135.055 240.797 135.61 242.535 136.281C244.331 136.974 245.269 137.687 245.653 138.26C245.818 138.507 245.877 138.72 245.878 138.938C245.879 139.172 245.811 139.534 245.531 140.051C244.946 141.133 243.594 142.6 241.042 144.448C231.156 151.603 222.071 150.884 214.588 147.15Z" stroke="white" stroke-width="3.90625" shape-rendering="crispEdges"/>
</g>
<g filter="url(#filter4_d)">
<path d="M79.2081 129.344C85.9591 131.601 93.4759 131.487 99.2534 130.509C91.5054 121.809 81.2242 111.37 73.0724 105.484C70.8426 103.874 68.8361 102.652 67.1324 101.897C65.3722 101.117 64.2049 100.958 63.5287 101.092C63.2368 101.15 63.0442 101.259 62.8901 101.412C62.7235 101.578 62.5159 101.881 62.3481 102.445C61.9967 103.624 61.9148 105.617 62.4133 108.728C64.3438 120.778 71.2771 126.694 79.2081 129.344Z" stroke="white" stroke-width="3.90625" shape-rendering="crispEdges"/>
</g>
<g filter="url(#filter5_d)">
<path d="M85.3582 147.15C91.7274 143.972 96.9622 138.576 100.356 133.8C88.7252 133.126 74.0739 133.014 64.1477 134.617C61.4325 135.055 59.1497 135.61 57.4113 136.281C55.6153 136.974 54.6774 137.687 54.2938 138.26C54.1282 138.507 54.0695 138.72 54.0687 138.938C54.0678 139.172 54.1357 139.534 54.4154 140.051C55.0009 141.133 56.3522 142.6 58.9046 144.448C68.7901 151.603 77.8758 150.884 85.3582 147.15Z" stroke="white" stroke-width="3.90625" shape-rendering="crispEdges"/>
</g>
<g filter="url(#filter6_d)">
<path d="M108.803 249.95C108.452 249.778 108.303 249.376 108.436 249.008L119.62 218.149C119.672 218.005 119.681 217.85 119.646 217.702L108.548 170.982C108.402 170.369 109 169.825 109.598 170.025C114.113 171.537 129.351 176.005 151.758 176.005C174.165 176.005 189.403 171.537 193.918 170.025C194.516 169.825 195.114 170.369 194.968 170.982L183.87 217.702C183.835 217.85 183.844 218.005 183.896 218.149L195.08 249.008C195.213 249.376 195.064 249.778 194.713 249.95C191.279 251.627 173.498 259.766 151.758 259.766C130.018 259.766 112.237 251.627 108.803 249.95Z" fill="#3A4B8C"/>
<path d="M108.803 249.95C108.452 249.778 108.303 249.376 108.436 249.008L119.62 218.149C119.672 218.005 119.681 217.85 119.646 217.702L108.548 170.982C108.402 170.369 109 169.825 109.598 170.025C114.113 171.537 129.351 176.005 151.758 176.005C174.165 176.005 189.403 171.537 193.918 170.025C194.516 169.825 195.114 170.369 194.968 170.982L183.87 217.702C183.835 217.85 183.844 218.005 183.896 218.149L195.08 249.008C195.213 249.376 195.064 249.778 194.713 249.95C191.279 251.627 173.498 259.766 151.758 259.766C130.018 259.766 112.237 251.627 108.803 249.95Z" fill="url(#paint1_linear)"/>
</g>
<g filter="url(#filter7_f)">
<mask id="mask0" style="mask-type:alpha" maskUnits="userSpaceOnUse" x="108" y="173" width="94" height="88">
<path d="M109.253 251.078C108.875 250.912 108.714 250.481 108.869 250.097L120.819 220.399C120.881 220.243 120.892 220.071 120.849 219.909L108.97 174.863C108.81 174.257 109.389 173.702 109.989 173.884C114.701 175.314 131.092 179.688 155.273 179.688C179.455 179.688 195.846 175.314 200.558 173.884C201.158 173.702 201.737 174.257 201.577 174.863L189.698 219.909C189.655 220.071 189.665 220.243 189.728 220.399L201.678 250.097C201.832 250.481 201.672 250.912 201.293 251.078C197.572 252.714 178.537 260.547 155.273 260.547C132.009 260.547 112.975 252.714 109.253 251.078Z" fill="#2D2E32"/>
<path d="M109.253 251.078C108.875 250.912 108.714 250.481 108.869 250.097L120.819 220.399C120.881 220.243 120.892 220.071 120.849 219.909L108.97 174.863C108.81 174.257 109.389 173.702 109.989 173.884C114.701 175.314 131.092 179.688 155.273 179.688C179.455 179.688 195.846 175.314 200.558 173.884C201.158 173.702 201.737 174.257 201.577 174.863L189.698 219.909C189.655 220.071 189.665 220.243 189.728 220.399L201.678 250.097C201.832 250.481 201.672 250.912 201.293 251.078C197.572 252.714 178.537 260.547 155.273 260.547C132.009 260.547 112.975 252.714 109.253 251.078Z" fill="url(#paint2_linear)"/>
</mask>
<g mask="url(#mask0)">
<g opacity="0.25" filter="url(#filter8_df)">
<path d="M65.6251 222.953C147.15 225.27 200.375 184.137 216.797 163.281H65.6251V222.953Z" fill="url(#paint3_linear)" fill-opacity="0.55" shape-rendering="crispEdges"/>
</g>
<g opacity="0.25" filter="url(#filter9_f)">
<path d="M117.943 217.469C117.943 197.884 95.2858 156.728 86.8941 138.534C92.4885 136.575 106.531 133.831 117.943 138.534C132.209 144.412 137.029 197.787 140.385 213.742C143.071 226.506 122.419 268.694 117.943 286.328H61.7189C104.517 263.655 117.943 232.585 117.943 217.469Z" fill="url(#paint4_radial)"/>
</g>
<g opacity="0.25" filter="url(#filter10_f)">
<path d="M130.443 220.985C130.443 201.399 107.786 160.244 99.3941 142.05C104.989 140.09 119.031 137.347 130.443 142.05C144.709 147.928 149.529 201.303 152.885 217.258C155.571 230.022 134.919 272.209 130.443 289.844H74.2189C117.017 267.171 130.443 236.1 130.443 220.985Z" fill="url(#paint5_radial)"/>
</g>
</g>
</g>
<g filter="url(#filter11_b)">
<path d="M129.158 69.7643C129.233 69.4012 129.552 69.1406 129.923 69.1406H173.202C173.573 69.1406 173.892 69.4012 173.967 69.7643L194.431 169.135C194.492 169.432 194.38 169.733 194.131 169.906C191.457 171.758 175.545 182.031 151.562 182.031C127.58 182.031 111.668 171.758 108.994 169.906C108.745 169.733 108.633 169.432 108.694 169.135L129.158 69.7643Z" fill="white" fill-opacity="0.75"/>
</g>
<mask id="mask1" style="mask-type:alpha" maskUnits="userSpaceOnUse" x="108" y="67" width="87" height="116">
<path d="M129.346 68.593C129.421 68.2296 129.741 67.9688 130.112 67.9688H173.013C173.384 67.9688 173.704 68.2296 173.779 68.593L194.424 169.204C194.489 169.519 194.362 169.836 194.087 170.004C191.032 171.879 172.632 182.617 151.953 182.617C131.265 182.617 112.205 171.869 109.05 170.001C108.769 169.835 108.637 169.514 108.703 169.194L129.346 68.593Z" fill="#577096" fill-opacity="0.75"/>
</mask>
<g mask="url(#mask1)">
<path d="M145.213 140.791C126.045 134.964 111.381 157.499 107.812 168.223C138.808 215.326 185.181 188.861 202.344 168.223C174.815 183.398 169.174 148.075 145.213 140.791Z" fill="url(#paint6_radial)"/>
<path d="M165.625 132.611C165.625 127.933 168.889 118.613 181.942 118.752C194.996 118.89 198.375 128.049 198.433 132.611C198.549 135.96 196.593 143.213 187.844 145.431C176.908 148.203 165.625 141.966 165.625 132.611Z" fill="url(#paint7_radial)"/>
<path d="M116.406 78.0864C120.474 77.0873 129.558 78.9429 130.477 86.9361C131.182 93.0737 130.62 103.636 125.595 108.346C119.709 113.864 120.117 126.884 128.61 129.899C136.65 132.754 146.393 128.615 147.705 121.906C149.715 111.629 141.902 106.153 142.393 100.21C144.222 78.0864 181.31 90.1776 186.719 85.0732C186.719 59.2592 125.595 7.64506 116.406 78.0864Z" fill="url(#paint8_radial)"/>
</g>
<g filter="url(#filter12_f)">
<mask id="mask2" style="mask-type:alpha" maskUnits="userSpaceOnUse" x="108" y="67" width="87" height="117">
<path d="M128.958 68.5955C129.031 68.2309 129.351 67.9688 129.723 67.9688H173.402C173.774 67.9688 174.094 68.2309 174.168 68.5955L194.793 170.846C194.868 171.216 194.683 171.579 194.331 171.717C190.148 173.348 164.797 183.024 151.563 183.203C138.317 183.382 112.934 173.391 108.784 171.72C108.437 171.58 108.257 171.22 108.331 170.853L128.958 68.5955Z" fill="#577096" fill-opacity="0.75"/>
</mask>
<g mask="url(#mask2)">
<g filter="url(#filter13_f)">
<path d="M178.779 52.3438C181.914 81.6253 126.264 100.742 98.0469 106.641L98.0469 52.3438L178.779 52.3438Z" fill="url(#paint9_linear)" fill-opacity="0.5"/>
</g>
<g filter="url(#filter14_f)">
<path d="M134.378 94.5106C135.289 77.1247 116.433 60.9806 111.682 44.5369C115.504 42.993 124.644 47.7865 132.036 52.3594C141.277 58.0756 140.782 80.6443 142.279 94.9244C143.476 106.348 128.418 178.596 124.613 194.094L114.071 193.542C121.379 171.121 133.675 107.928 134.378 94.5106Z" fill="url(#paint10_linear)" fill-opacity="0.6"/>
</g>
</g>
</g>
<path d="M133.779 44.0346C133.792 43.9662 133.795 43.8969 133.804 43.8277C133.881 43.1562 135.043 39.4531 151.185 39.4531C167.624 39.4531 168.839 43.2943 168.928 43.8618C168.936 43.9096 168.94 43.9554 168.949 44.003L173.753 69.5638C173.8 69.8134 173.725 70.0659 173.527 70.2245C172.232 71.2595 166.505 75 151.367 75C136.229 75 130.503 71.2595 129.208 70.2245C129.009 70.0659 128.934 69.8134 128.981 69.5638L133.779 44.0346Z" fill="#3A4B8C"/>
<path d="M133.779 44.0346C133.792 43.9662 133.795 43.8969 133.804 43.8277C133.881 43.1562 135.043 39.4531 151.185 39.4531C167.624 39.4531 168.839 43.2943 168.928 43.8618C168.936 43.9096 168.94 43.9554 168.949 44.003L173.753 69.5638C173.8 69.8134 173.725 70.0659 173.527 70.2245C172.232 71.2595 166.505 75 151.367 75C136.229 75 130.503 71.2595 129.208 70.2245C129.009 70.0659 128.934 69.8134 128.981 69.5638L133.779 44.0346Z" fill="url(#paint11_linear)"/>
<path d="M151.721 259.766C173.582 259.766 191.461 251.622 194.905 249.948C195.252 249.78 195.399 249.359 195.261 248.98L184.033 218.162C183.978 218.011 183.968 217.844 184.006 217.687L195.163 170.964C195.302 170.383 194.806 169.855 194.273 169.972L194.368 169.907C194.617 169.735 194.731 169.42 194.667 169.111L174.079 69.7534C174.036 69.5445 173.916 69.3708 173.756 69.2623L168.994 44.0077C168.985 43.957 168.98 43.9081 168.972 43.8571C168.876 43.2737 167.62 39.4531 151.172 39.4531L151.721 259.766Z" fill="#161A70" fill-opacity="0.1"/>
</g>
<defs>
<filter id="filter0_f" x="-159.766" y="62.8906" width="514.076" height="192.188" filterUnits="userSpaceOnUse" color-interpolation-filters="sRGB">
<feFlood flood-opacity="0" result="BackgroundImageFix"/>
<feBlend mode="normal" in="SourceGraphic" in2="BackgroundImageFix" result="shape"/>
<feGaussianBlur stdDeviation="3.90625" result="effect1_foregroundBlur"/>
</filter>
<filter id="filter1_d" x="109.651" y="10.6712" width="80.4973" height="22.0966" filterUnits="userSpaceOnUse" color-interpolation-filters="sRGB">
<feFlood flood-opacity="0" result="BackgroundImageFix"/>
<feColorMatrix in="SourceAlpha" type="matrix" values="0 0 0 0 0 0 0 0 0 0 0 0 0 0 0 0 0 0 127 0" result="hardAlpha"/>
<feOffset/>
<feGaussianBlur stdDeviation="1.42461"/>
<feComposite in2="hardAlpha" operator="out"/>
<feColorMatrix type="matrix" values="0 0 0 0 1 0 0 0 0 1 0 0 0 0 1 0 0 0 1 0"/>
<feBlend mode="normal" in2="BackgroundImageFix" result="effect1_dropShadow"/>
<feBlend mode="normal" in="SourceGraphic" in2="effect1_dropShadow" result="shape"/>
</filter>
<filter id="filter2_d" x="194.166" y="96.2472" width="48.5213" height="39.7275" filterUnits="userSpaceOnUse" color-interpolation-filters="sRGB">
<feFlood flood-opacity="0" result="BackgroundImageFix"/>
<feColorMatrix in="SourceAlpha" type="matrix" values="0 0 0 0 0 0 0 0 0 0 0 0 0 0 0 0 0 0 127 0" result="hardAlpha"/>
<feOffset/>
<feGaussianBlur stdDeviation="1.42461"/>
<feComposite in2="hardAlpha" operator="out"/>
<feColorMatrix type="matrix" values="0 0 0 0 1 0 0 0 0 1 0 0 0 0 1 0 0 0 1 0"/>
<feBlend mode="normal" in2="BackgroundImageFix" result="effect1_dropShadow"/>
<feBlend mode="normal" in="SourceGraphic" in2="effect1_dropShadow" result="shape"/>
</filter>
<filter id="filter3_d" x="193.274" y="128.531" width="57.406" height="26.1873" filterUnits="userSpaceOnUse" color-interpolation-filters="sRGB">
<feFlood flood-opacity="0" result="BackgroundImageFix"/>
<feColorMatrix in="SourceAlpha" type="matrix" values="0 0 0 0 0 0 0 0 0 0 0 0 0 0 0 0 0 0 127 0" result="hardAlpha"/>
<feOffset/>
<feGaussianBlur stdDeviation="1.42461"/>
<feComposite in2="hardAlpha" operator="out"/>
<feColorMatrix type="matrix" values="0 0 0 0 1 0 0 0 0 1 0 0 0 0 1 0 0 0 1 0"/>
<feBlend mode="normal" in2="BackgroundImageFix" result="effect1_dropShadow"/>
<feBlend mode="normal" in="SourceGraphic" in2="effect1_dropShadow" result="shape"/>
</filter>
<filter id="filter4_d" x="57.2595" y="96.2472" width="48.5213" height="39.7275" filterUnits="userSpaceOnUse" color-interpolation-filters="sRGB">
<feFlood flood-opacity="0" result="BackgroundImageFix"/>
<feColorMatrix in="SourceAlpha" type="matrix" values="0 0 0 0 0 0 0 0 0 0 0 0 0 0 0 0 0 0 127 0" result="hardAlpha"/>
<feOffset/>
<feGaussianBlur stdDeviation="1.42461"/>
<feComposite in2="hardAlpha" operator="out"/>
<feColorMatrix type="matrix" values="0 0 0 0 1 0 0 0 0 1 0 0 0 0 1 0 0 0 1 0"/>
<feBlend mode="normal" in2="BackgroundImageFix" result="effect1_dropShadow"/>
<feBlend mode="normal" in="SourceGraphic" in2="effect1_dropShadow" result="shape"/>
</filter>
<filter id="filter5_d" x="49.2664" y="128.531" width="57.406" height="26.1873" filterUnits="userSpaceOnUse" color-interpolation-filters="sRGB">
<feFlood flood-opacity="0" result="BackgroundImageFix"/>
<feColorMatrix in="SourceAlpha" type="matrix" values="0 0 0 0 0 0 0 0 0 0 0 0 0 0 0 0 0 0 127 0" result="hardAlpha"/>
<feOffset/>
<feGaussianBlur stdDeviation="1.42461"/>
<feComposite in2="hardAlpha" operator="out"/>
<feColorMatrix type="matrix" values="0 0 0 0 0.99386 0 0 0 0 0.950889 0 0 0 0 0.105333 0 0 0 1 0"/>
<feBlend mode="normal" in2="BackgroundImageFix" result="effect1_dropShadow"/>
<feBlend mode="normal" in="SourceGraphic" in2="effect1_dropShadow" result="shape"/>
</filter>
<filter id="filter6_d" x="106.434" y="169.983" width="91.4282" height="94.4706" filterUnits="userSpaceOnUse" color-interpolation-filters="sRGB">
<feFlood flood-opacity="0" result="BackgroundImageFix"/>
<feColorMatrix in="SourceAlpha" type="matrix" values="0 0 0 0 0 0 0 0 0 0 0 0 0 0 0 0 0 0 127 0" result="hardAlpha"/>
<feOffset dx="0.390625" dy="2.34375"/>
<feGaussianBlur stdDeviation="1.17188"/>
<feComposite in2="hardAlpha" operator="out"/>
<feColorMatrix type="matrix" values="0 0 0 0 0 0 0 0 0 0 0 0 0 0 0 0 0 0 0.25 0"/>
<feBlend mode="normal" in2="BackgroundImageFix" result="effect1_dropShadow"/>
<feBlend mode="normal" in="SourceGraphic" in2="effect1_dropShadow" result="shape"/>
</filter>
<filter id="filter7_f" x="106.25" y="167.578" width="97.4393" height="94.9219" filterUnits="userSpaceOnUse" color-interpolation-filters="sRGB">
<feFlood flood-opacity="0" result="BackgroundImageFix"/>
<feBlend mode="normal" in="SourceGraphic" in2="BackgroundImageFix" result="shape"/>
<feGaussianBlur stdDeviation="0.976562" result="effect1_foregroundBlur"/>
</filter>
<filter id="filter8_df" x="64.4532" y="162.5" width="153.516" height="62.5" filterUnits="userSpaceOnUse" color-interpolation-filters="sRGB">
<feFlood flood-opacity="0" result="BackgroundImageFix"/>
<feColorMatrix in="SourceAlpha" type="matrix" values="0 0 0 0 0 0 0 0 0 0 0 0 0 0 0 0 0 0 127 0" result="hardAlpha"/>
<feOffset dy="0.78125"/>
<feGaussianBlur stdDeviation="0.585938"/>
<feComposite in2="hardAlpha" operator="out"/>
<feColorMatrix type="matrix" values="0 0 0 0 0 0 0 0 0 0 0 0 0 0 0 0 0 0 0.25 0"/>
<feBlend mode="normal" in2="BackgroundImageFix" result="effect1_dropShadow"/>
<feBlend mode="normal" in="SourceGraphic" in2="effect1_dropShadow" result="shape"/>
<feGaussianBlur stdDeviation="0.390625" result="effect2_foregroundBlur"/>
</filter>
<filter id="filter9_f" x="61.3282" y="135.547" width="79.6875" height="151.172" filterUnits="userSpaceOnUse" color-interpolation-filters="sRGB">
<feFlood flood-opacity="0" result="BackgroundImageFix"/>
<feBlend mode="normal" in="SourceGraphic" in2="BackgroundImageFix" result="shape"/>
<feGaussianBlur stdDeviation="0.195312" result="effect1_foregroundBlur"/>
</filter>
<filter id="filter10_f" x="73.8282" y="139.062" width="79.6875" height="151.172" filterUnits="userSpaceOnUse" color-interpolation-filters="sRGB">
<feFlood flood-opacity="0" result="BackgroundImageFix"/>
<feBlend mode="normal" in="SourceGraphic" in2="BackgroundImageFix" result="shape"/>
<feGaussianBlur stdDeviation="0.195312" result="effect1_foregroundBlur"/>
</filter>
<filter id="filter11_b" x="99.3024" y="59.7656" width="104.52" height="131.641" filterUnits="userSpaceOnUse" color-interpolation-filters="sRGB">
<feFlood flood-opacity="0" result="BackgroundImageFix"/>
<feGaussianBlur in="BackgroundImage" stdDeviation="4.6875"/>
<feComposite in2="SourceAlpha" operator="in" result="effect1_backgroundBlur"/>
<feBlend mode="normal" in="SourceGraphic" in2="effect1_backgroundBlur" result="shape"/>
</filter>
<filter id="filter12_f" x="106.25" y="66.0156" width="90.625" height="123.438" filterUnits="userSpaceOnUse" color-interpolation-filters="sRGB">
<feFlood flood-opacity="0" result="BackgroundImageFix"/>
<feBlend mode="normal" in="SourceGraphic" in2="BackgroundImageFix" result="shape"/>
<feGaussianBlur stdDeviation="0.976562" result="effect1_foregroundBlur"/>
</filter>
<filter id="filter13_f" x="97.2656" y="51.5625" width="82.4219" height="55.8594" filterUnits="userSpaceOnUse" color-interpolation-filters="sRGB">
<feFlood flood-opacity="0" result="BackgroundImageFix"/>
<feBlend mode="normal" in="SourceGraphic" in2="BackgroundImageFix" result="shape"/>
<feGaussianBlur stdDeviation="0.390625" result="effect1_foregroundBlur"/>
</filter>
<filter id="filter14_f" x="110.901" y="43.4604" width="32.2268" height="151.414" filterUnits="userSpaceOnUse" color-interpolation-filters="sRGB">
<feFlood flood-opacity="0" result="BackgroundImageFix"/>
<feBlend mode="normal" in="SourceGraphic" in2="BackgroundImageFix" result="shape"/>
<feGaussianBlur stdDeviation="0.390625" result="effect1_foregroundBlur"/>
</filter>
<linearGradient id="paint0_linear" x1="150" y1="0" x2="150" y2="300" gradientUnits="userSpaceOnUse">
<stop offset="0.213542" stop-color="#2FA2F5"/>
<stop offset="1" stop-color="white"/>
</linearGradient>
<linearGradient id="paint1_linear" x1="108.203" y1="169.531" x2="188.681" y2="231.402" gradientUnits="userSpaceOnUse">
<stop stop-color="#EEEEEE" stop-opacity="0.79"/>
<stop offset="1" stop-color="white" stop-opacity="0.17"/>
</linearGradient>
<linearGradient id="paint2_linear" x1="108.594" y1="173.437" x2="202.057" y2="256.359" gradientUnits="userSpaceOnUse">
<stop stop-color="#C3C3C3"/>
<stop offset="1" stop-color="#C3C3C3" stop-opacity="0.15"/>
</linearGradient>
<linearGradient id="paint3_linear" x1="177.557" y1="183.677" x2="99.642" y2="245.101" gradientUnits="userSpaceOnUse">
<stop stop-color="white" stop-opacity="0"/>
<stop offset="0.471361" stop-color="white"/>
<stop offset="1" stop-color="white"/>
</linearGradient>
<radialGradient id="paint4_radial" cx="0" cy="0" r="1" gradientUnits="userSpaceOnUse" gradientTransform="translate(108.16 216.114) rotate(79.4004) scale(71.4328 31.7372)">
<stop stop-color="#F2F2F2"/>
<stop offset="0.0001" stop-color="#F2F2F2"/>
<stop offset="1" stop-color="#F2F2F2" stop-opacity="0"/>
</radialGradient>
<radialGradient id="paint5_radial" cx="0" cy="0" r="1" gradientUnits="userSpaceOnUse" gradientTransform="translate(120.66 219.63) rotate(79.4004) scale(71.4328 31.7372)">
<stop stop-color="#F2F2F2"/>
<stop offset="0.0001" stop-color="#F2F2F2"/>
<stop offset="1" stop-color="#F2F2F2" stop-opacity="0"/>
</radialGradient>
<radialGradient id="paint6_radial" cx="0" cy="0" r="1" gradientUnits="userSpaceOnUse" gradientTransform="translate(128.148 152.629) rotate(33.8708) scale(59.7272 48.9646)">
<stop offset="0.239583" stop-color="#5000B6"/>
<stop offset="1" stop-color="#7E5EFF"/>
</radialGradient>
<radialGradient id="paint7_radial" cx="0" cy="0" r="1" gradientUnits="userSpaceOnUse" gradientTransform="translate(172.684 125.143) rotate(44.0357) scale(23.944 21.1978)">
<stop offset="0.239583" stop-color="#5000B6"/>
<stop offset="1" stop-color="#7E5EFF"/>
</radialGradient>
<radialGradient id="paint8_radial" cx="0" cy="0" r="1" gradientUnits="userSpaceOnUse" gradientTransform="translate(132.879 111.664) rotate(-72.0103) scale(36.3811 27.1738)">
<stop offset="0.3125" stop-color="#F85449"/>
<stop offset="1" stop-color="#CF0000"/>
<stop offset="1" stop-color="#C53434"/>
</radialGradient>
<linearGradient id="paint9_linear" x1="125.642" y1="92.5465" x2="134.74" y2="49.0737" gradientUnits="userSpaceOnUse">
<stop stop-color="white" stop-opacity="0"/>
<stop offset="0.471361" stop-color="white"/>
<stop offset="1" stop-color="white"/>
</linearGradient>
<linearGradient id="paint10_linear" x1="138.94" y1="176.485" x2="174.275" y2="139.681" gradientUnits="userSpaceOnUse">
<stop stop-color="#F2F2F2"/>
<stop offset="0.0001" stop-color="#F2F2F2"/>
<stop offset="0.0520833" stop-color="#F2F2F2" stop-opacity="0.948011"/>
<stop offset="1" stop-color="#F2F2F2" stop-opacity="0"/>
</linearGradient>
<linearGradient id="paint11_linear" x1="131.575" y1="43.9315" x2="165.363" y2="84.8098" gradientUnits="userSpaceOnUse">
<stop stop-color="#ECECEC" stop-opacity="0.71"/>
<stop offset="1" stop-color="#C3C3C3" stop-opacity="0.15"/>
</linearGradient>
<clipPath id="clip0">
<rect width="300" height="300" fill="white"/>
</clipPath>
</defs>
</svg>
