<svg width="351" height="350" viewBox="0 0 351 350" fill="none" xmlns="http://www.w3.org/2000/svg">
<g clip-path="url(#clip0_617_59843)">
<g clip-path="url(#clip1_617_59843)">
<rect width="350" height="350" transform="translate(0.996094)" fill="white"/>
<rect x="1.07422" y="0.0439453" width="350" height="350" fill="#E9C4E7" fill-opacity="0.78"/>
<path d="M126.974 290.538L300.828 190.751L431.983 233.88L213.555 294.049L126.974 290.538Z" fill="url(#paint0_linear_617_59843)" fill-opacity="0.1"/>
<g opacity="0.45" filter="url(#filter0_f_617_59843)">
<ellipse rx="194.596" ry="66.7643" transform="matrix(0.999998 0.00221055 0.00221055 -0.999998 177.074 304.638)" fill="url(#paint1_radial_617_59843)"/>
</g>
<g opacity="0.7" filter="url(#filter1_f_617_59843)">
<ellipse cx="175.392" cy="137.609" rx="196.647" ry="242.448" transform="rotate(0.126655 175.392 137.609)" fill="url(#paint2_radial_617_59843)"/>
</g>
</g>
<g filter="url(#filter2_d_617_59843)">
<path d="M231.596 316.09L205.313 285.742H175.801H146.466L120.398 316.09C120.398 316.09 138.08 336.1 175.997 336.1C213.915 336.1 231.596 316.09 231.596 316.09Z" fill="black"/>
</g>
<path d="M149.857 95.0636C149.944 94.6399 150.317 94.3359 150.749 94.3359H201.241C201.674 94.3359 202.047 94.6399 202.134 95.0636L226.009 210.996C226.08 211.342 225.95 211.694 225.659 211.895C222.539 214.056 203.975 226.042 175.995 226.042C148.016 226.042 129.452 214.056 126.332 211.895C126.041 211.694 125.911 211.342 125.982 210.996L149.857 95.0636Z" fill="#F56513" fill-opacity="0.75"/>
<path d="M224.104 211.889C218.518 215.444 200.991 225.13 175.883 225.13C147.897 225.13 129.331 213.097 126.217 210.933C126.027 210.801 125.906 210.605 125.865 210.389C129.803 199.004 145.11 175.859 165.059 181.918C174.939 184.919 181.855 192.451 188.359 199.535C198.434 210.507 207.52 220.404 225.101 210.722C224.779 211.109 224.446 211.498 224.104 211.889Z" fill="url(#paint3_radial_617_59843)"/>
<path d="M215.046 156.619L219.826 179.909C217.927 182.156 215.113 184.129 211.032 185.164C198.273 188.398 185.109 181.121 185.109 170.207C185.109 164.75 188.917 153.876 204.146 154.038C208.738 154.087 212.304 155.092 215.046 156.619Z" fill="url(#paint4_radial_617_59843)"/>
<path d="M178.73 130.913C178.73 127.951 180.77 122.048 188.929 122.136C197.087 122.224 199.199 128.024 199.235 130.913C199.308 133.035 198.085 137.628 192.617 139.033C185.782 140.788 178.73 136.838 178.73 130.913Z" fill="url(#paint5_radial_617_59843)"/>
<path d="M202.045 94.2302L206.109 114.031C204.52 113.76 202.867 113.447 201.176 113.127C187.034 110.452 170.248 107.276 165.999 123.73C164.144 130.914 166.832 135.212 169.447 139.393C171.971 143.43 174.427 147.358 172.664 153.668C170.519 161.349 158.855 166.324 149.475 162.994C139.566 159.476 140.262 144.903 145.958 137.849C151.653 130.794 152.476 120.03 151.653 112.87C151.255 109.409 149.545 106.934 147.309 105.25L149.645 93.8799C149.679 93.9469 149.723 94.0092 149.778 94.0646C151.113 95.4133 157.769 101.029 175.996 101.029C193.554 101.029 200.374 95.8187 202.045 94.2302Z" fill="url(#paint6_radial_617_59843)"/>
<mask id="mask0_617_59843" style="mask-type:alpha" maskUnits="userSpaceOnUse" x="141" y="93" width="66" height="72">
<path d="M202.045 94.2302L206.109 114.031C204.52 113.76 202.867 113.447 201.176 113.127C187.034 110.452 170.248 107.276 165.999 123.73C164.144 130.914 166.832 135.212 169.447 139.393C171.971 143.43 174.427 147.358 172.664 153.668C170.519 161.349 158.855 166.324 149.475 162.994C139.566 159.476 140.262 144.903 145.958 137.849C151.653 130.794 152.476 120.03 151.653 112.87C151.255 109.409 149.545 106.934 147.309 105.25L149.645 93.8799C149.679 93.9469 149.723 94.0092 149.778 94.0646C151.113 95.4133 157.769 101.029 175.996 101.029C193.554 101.029 200.374 95.8187 202.045 94.2302Z" fill="url(#paint7_radial_617_59843)"/>
</mask>
<g mask="url(#mask0_617_59843)">
<g filter="url(#filter3_f_617_59843)">
<mask id="mask1_617_59843" style="mask-type:alpha" maskUnits="userSpaceOnUse" x="125" y="94" width="102" height="132">
<path d="M149.857 95.0639C149.944 94.6401 150.317 94.3359 150.75 94.3359H201.241C201.674 94.3359 202.047 94.6401 202.134 95.0639L225.988 211.159C226.07 211.555 225.883 211.955 225.522 212.137C221.619 214.109 199.371 224.817 175.995 225.128C152.574 225.438 130.283 214.178 126.446 212.141C126.095 211.954 125.92 211.562 125.999 211.173L149.857 95.0639Z" fill="#577096" fill-opacity="0.75"/>
</mask>
<g mask="url(#mask1_617_59843)">
<g filter="url(#filter4_f_617_59843)">
<path d="M208.203 76.1064C211.861 110.268 146.936 132.571 114.016 139.453L114.016 76.1064L208.203 76.1064Z" fill="url(#paint8_linear_617_59843)" fill-opacity="0.5"/>
</g>
<g filter="url(#filter5_f_617_59843)">
<path d="M156.403 125.301C157.466 105.018 135.467 86.1828 129.925 66.9985C134.384 65.1973 145.047 70.7896 153.671 76.1247C164.452 82.7936 163.875 109.124 165.621 125.784C167.018 139.112 149.45 223.401 145.011 241.481L132.712 240.837C141.238 214.68 155.584 140.955 156.403 125.301Z" fill="url(#paint9_linear_617_59843)" fill-opacity="0.6"/>
</g>
</g>
</g>
</g>
<mask id="mask2_617_59843" style="mask-type:alpha" maskUnits="userSpaceOnUse" x="125" y="180" width="101" height="46">
<path d="M224.104 211.89C218.518 215.445 200.991 225.131 175.883 225.131C147.897 225.131 129.331 213.098 126.217 210.934C126.027 210.802 125.906 210.606 125.865 210.39C129.803 199.005 145.11 175.86 165.059 181.919C174.939 184.92 181.855 192.452 188.359 199.536C198.434 210.508 207.52 220.405 225.101 210.722C224.779 211.11 224.446 211.499 224.104 211.89Z" fill="url(#paint10_radial_617_59843)"/>
</mask>
<g mask="url(#mask2_617_59843)">
<g filter="url(#filter6_f_617_59843)">
<mask id="mask3_617_59843" style="mask-type:alpha" maskUnits="userSpaceOnUse" x="125" y="94" width="102" height="132">
<path d="M149.857 95.0639C149.944 94.6401 150.317 94.3359 150.75 94.3359H201.241C201.674 94.3359 202.047 94.6401 202.134 95.0639L225.988 211.159C226.07 211.555 225.883 211.955 225.522 212.137C221.619 214.109 199.371 224.817 175.995 225.128C152.574 225.438 130.283 214.178 126.446 212.141C126.095 211.954 125.92 211.562 125.999 211.173L149.857 95.0639Z" fill="#577096" fill-opacity="0.75"/>
</mask>
<g mask="url(#mask3_617_59843)">
<g filter="url(#filter7_f_617_59843)">
<path d="M156.403 125.301C157.466 105.018 135.467 86.1828 129.925 66.9985C134.384 65.1973 145.047 70.7896 153.671 76.1247C164.452 82.7936 163.875 109.124 165.621 125.784C167.018 139.112 149.45 223.401 145.011 241.481L132.712 240.837C141.238 214.68 155.584 140.955 156.403 125.301Z" fill="url(#paint11_linear_617_59843)" fill-opacity="0.6"/>
</g>
</g>
</g>
</g>
<path d="M156.655 63.3069C160.109 50.3293 162.896 33.7236 175.782 33.7236C188.668 33.7236 193.183 54.2841 195.339 63.6233C197.262 71.9576 201.399 90.8907 202.267 94.8688C202.372 95.3475 202.256 95.8292 201.899 96.165C200.076 97.8814 193.201 102.994 175.997 102.994C158.728 102.994 151.867 97.8434 150.074 96.146C149.731 95.8205 149.613 95.355 149.702 94.89C150.394 91.2707 153.596 74.7994 156.655 63.3069Z" fill="black"/>
<path d="M156.655 63.3069C160.109 50.3293 162.896 33.7236 175.782 33.7236C188.668 33.7236 193.183 54.2841 195.339 63.6233C197.262 71.9576 201.399 90.8907 202.267 94.8688C202.372 95.3475 202.256 95.8292 201.899 96.165C200.076 97.8814 193.201 102.994 175.997 102.994C158.728 102.994 151.867 97.8434 150.074 96.146C149.731 95.8205 149.613 95.355 149.702 94.89C150.394 91.2707 153.596 74.7994 156.655 63.3069Z" fill="url(#paint12_linear_617_59843)" fill-opacity="0.45"/>
<path d="M125.789 210.091C125.789 210.091 149.108 225.13 176.224 225.13C203.34 225.13 226.204 210.091 226.204 210.091C229.728 225.095 246.142 263.492 233.893 282.944C218.479 307.424 201.517 315.82 175.996 315.82C150.475 315.82 133.514 307.424 118.099 282.944C105.851 263.492 122.265 225.095 125.789 210.091Z" fill="url(#paint13_radial_617_59843)"/>
<mask id="mask4_617_59843" style="mask-type:alpha" maskUnits="userSpaceOnUse" x="113" y="210" width="126" height="107">
<path d="M125.722 210.547C125.722 210.547 149.042 225.586 176.158 225.586C203.274 225.586 226.138 210.547 226.138 210.547C229.661 225.551 246.076 263.948 233.827 283.4C218.412 307.88 201.451 316.276 175.93 316.276C150.409 316.276 133.448 307.88 118.033 283.4C105.784 263.948 122.199 225.551 125.722 210.547Z" fill="url(#paint14_radial_617_59843)"/>
</mask>
<g mask="url(#mask4_617_59843)">
<path d="M204.641 319.922C211.519 301.926 221.148 256.681 204.641 219.661" stroke="#773B06" stroke-opacity="0.1" stroke-width="4.55729"/>
<path d="M182.311 319.922C187.779 302.604 193.248 257.031 182.311 219.661" stroke="#773B06" stroke-opacity="0.1" stroke-width="4.55729"/>
<path d="M166.359 319.922C160.891 302.604 155.422 257.031 166.359 219.661" stroke="#773B06" stroke-opacity="0.1" stroke-width="4.55729"/>
<path d="M144.029 319.922C137.151 301.926 127.522 256.681 144.029 219.661" stroke="#773B06" stroke-opacity="0.1" stroke-width="4.55729"/>
</g>
<path d="M155.67 246.321C156.196 245.41 157.512 245.41 158.038 246.321L167.905 263.411C168.431 264.323 167.773 265.462 166.721 265.462H146.987C145.935 265.462 145.277 264.323 145.803 263.411L155.67 246.321Z" fill="black"/>
<path d="M195.408 246.321C194.882 245.41 193.566 245.41 193.04 246.321L183.173 263.411C182.647 264.323 183.305 265.462 184.357 265.462H204.091C205.143 265.462 205.801 264.323 205.275 263.411L195.408 246.321Z" fill="black"/>
<path fill-rule="evenodd" clip-rule="evenodd" d="M164.577 276.72H186.248V283.063H193.648V276.72H210.038C211.851 276.72 212.838 278.655 211.619 279.997C206.791 285.311 195.301 295.22 176.733 295.22C176.199 295.22 175.671 295.211 175.148 295.195V288.877H167.748V294.417C154.292 291.964 145.311 284.468 141.037 280.058C139.747 278.727 140.722 276.72 142.576 276.72H157.177V283.063H164.577V276.72Z" fill="black"/>
<path d="M195.441 63.1377C193.241 53.5913 188.663 33.7236 175.996 33.7236L176.211 336.1C214.128 336.1 231.81 316.09 231.81 316.09L219.053 301.36C224.362 296.625 229.31 290.564 234.108 282.944C243.924 267.354 235.331 239.598 229.717 221.465C228.326 216.972 227.118 213.07 226.419 210.091C226.419 210.091 226.304 210.166 226.082 210.306L202.461 95.6033C202.53 95.372 202.536 95.12 202.481 94.8688C201.613 90.8907 197.477 71.9576 195.553 63.6233L195.441 63.1377Z" fill="#161A70" fill-opacity="0.1"/>
</g>
<defs>
<filter id="filter0_f_617_59843" x="-22.0788" y="233.315" width="398.306" height="142.646" filterUnits="userSpaceOnUse" color-interpolation-filters="sRGB">
<feFlood flood-opacity="0" result="BackgroundImageFix"/>
<feBlend mode="normal" in="SourceGraphic" in2="BackgroundImageFix" result="shape"/>
<feGaussianBlur stdDeviation="2.27865" result="effect1_foregroundBlur_617_59843"/>
</filter>
<filter id="filter1_f_617_59843" x="-25.8132" y="-109.396" width="402.41" height="494.01" filterUnits="userSpaceOnUse" color-interpolation-filters="sRGB">
<feFlood flood-opacity="0" result="BackgroundImageFix"/>
<feBlend mode="normal" in="SourceGraphic" in2="BackgroundImageFix" result="shape"/>
<feGaussianBlur stdDeviation="2.27865" result="effect1_foregroundBlur_617_59843"/>
</filter>
<filter id="filter2_d_617_59843" x="118.12" y="285.742" width="116.666" height="55.8271" filterUnits="userSpaceOnUse" color-interpolation-filters="sRGB">
<feFlood flood-opacity="0" result="BackgroundImageFix"/>
<feColorMatrix in="SourceAlpha" type="matrix" values="0 0 0 0 0 0 0 0 0 0 0 0 0 0 0 0 0 0 127 0" result="hardAlpha"/>
<feOffset dx="0.455729" dy="2.73438"/>
<feGaussianBlur stdDeviation="1.36719"/>
<feComposite in2="hardAlpha" operator="out"/>
<feColorMatrix type="matrix" values="0 0 0 0 0 0 0 0 0 0 0 0 0 0 0 0 0 0 0.25 0"/>
<feBlend mode="normal" in2="BackgroundImageFix" result="effect1_dropShadow_617_59843"/>
<feBlend mode="normal" in="SourceGraphic" in2="effect1_dropShadow_617_59843" result="shape"/>
</filter>
<filter id="filter3_f_617_59843" x="123.587" y="92.0573" width="104.817" height="135.355" filterUnits="userSpaceOnUse" color-interpolation-filters="sRGB">
<feFlood flood-opacity="0" result="BackgroundImageFix"/>
<feBlend mode="normal" in="SourceGraphic" in2="BackgroundImageFix" result="shape"/>
<feGaussianBlur stdDeviation="1.13932" result="effect1_foregroundBlur_617_59843"/>
</filter>
<filter id="filter4_f_617_59843" x="113.104" y="75.195" width="96.1589" height="65.1696" filterUnits="userSpaceOnUse" color-interpolation-filters="sRGB">
<feFlood flood-opacity="0" result="BackgroundImageFix"/>
<feBlend mode="normal" in="SourceGraphic" in2="BackgroundImageFix" result="shape"/>
<feGaussianBlur stdDeviation="0.455729" result="effect1_foregroundBlur_617_59843"/>
</filter>
<filter id="filter5_f_617_59843" x="129.014" y="65.7428" width="37.5964" height="176.65" filterUnits="userSpaceOnUse" color-interpolation-filters="sRGB">
<feFlood flood-opacity="0" result="BackgroundImageFix"/>
<feBlend mode="normal" in="SourceGraphic" in2="BackgroundImageFix" result="shape"/>
<feGaussianBlur stdDeviation="0.455729" result="effect1_foregroundBlur_617_59843"/>
</filter>
<filter id="filter6_f_617_59843" x="123.587" y="92.0573" width="104.817" height="135.355" filterUnits="userSpaceOnUse" color-interpolation-filters="sRGB">
<feFlood flood-opacity="0" result="BackgroundImageFix"/>
<feBlend mode="normal" in="SourceGraphic" in2="BackgroundImageFix" result="shape"/>
<feGaussianBlur stdDeviation="1.13932" result="effect1_foregroundBlur_617_59843"/>
</filter>
<filter id="filter7_f_617_59843" x="129.014" y="65.7428" width="37.5964" height="176.65" filterUnits="userSpaceOnUse" color-interpolation-filters="sRGB">
<feFlood flood-opacity="0" result="BackgroundImageFix"/>
<feBlend mode="normal" in="SourceGraphic" in2="BackgroundImageFix" result="shape"/>
<feGaussianBlur stdDeviation="0.455729" result="effect1_foregroundBlur_617_59843"/>
</filter>
<linearGradient id="paint0_linear_617_59843" x1="195.831" y1="271.639" x2="317.533" y2="167.937" gradientUnits="userSpaceOnUse">
<stop/>
<stop offset="1" stop-color="#333333" stop-opacity="0"/>
</linearGradient>
<radialGradient id="paint1_radial_617_59843" cx="0" cy="0" r="1" gradientUnits="userSpaceOnUse" gradientTransform="translate(194.596 76.624) rotate(99.1226) scale(43.9775 125.337)">
<stop stop-color="#F221F7" stop-opacity="0.62"/>
<stop offset="1" stop-color="#D32EE1" stop-opacity="0"/>
</radialGradient>
<radialGradient id="paint2_radial_617_59843" cx="0" cy="0" r="1" gradientUnits="userSpaceOnUse" gradientTransform="translate(175.392 173.413) rotate(92.5586) scale(157.837 128.153)">
<stop stop-color="#F221F7" stop-opacity="0.62"/>
<stop offset="1" stop-color="#D32EE1" stop-opacity="0"/>
</radialGradient>
<radialGradient id="paint3_radial_617_59843" cx="0" cy="0" r="1" gradientUnits="userSpaceOnUse" gradientTransform="translate(147.213 191.258) rotate(27.3324) scale(58.602 42.3474)">
<stop offset="0.3125" stop-color="#FABE09"/>
<stop offset="1" stop-color="#FDF21B"/>
</radialGradient>
<radialGradient id="paint4_radial_617_59843" cx="0" cy="0" r="1" gradientUnits="userSpaceOnUse" gradientTransform="translate(193.243 160.957) rotate(66.0735) scale(13.6794 12.8945)">
<stop offset="0.3125" stop-color="#F85449"/>
<stop offset="1" stop-color="#CF0000"/>
<stop offset="1" stop-color="#C53434"/>
</radialGradient>
<radialGradient id="paint5_radial_617_59843" cx="0" cy="0" r="1" gradientUnits="userSpaceOnUse" gradientTransform="translate(183.142 126.183) rotate(44.415) scale(15.0618 13.3391)">
<stop offset="0.328125" stop-color="#FF00D6"/>
<stop offset="0.619792" stop-color="#D700B4"/>
</radialGradient>
<radialGradient id="paint6_radial_617_59843" cx="0" cy="0" r="1" gradientUnits="userSpaceOnUse" gradientTransform="translate(155.647 110.284) rotate(51.7012) scale(54.4207 46.8936)">
<stop offset="0.302083" stop-color="#FFB800"/>
<stop offset="1" stop-color="#FF7800"/>
</radialGradient>
<radialGradient id="paint7_radial_617_59843" cx="0" cy="0" r="1" gradientUnits="userSpaceOnUse" gradientTransform="translate(156.878 109.101) rotate(53.1177) scale(37.8178 40.2646)">
<stop offset="0.203125" stop-color="#71FF30"/>
<stop offset="0.890625" stop-color="#25BC46"/>
</radialGradient>
<linearGradient id="paint8_linear_617_59843" x1="146.21" y1="123.01" x2="156.824" y2="72.2914" gradientUnits="userSpaceOnUse">
<stop stop-color="white" stop-opacity="0"/>
<stop offset="0.471361" stop-color="white"/>
<stop offset="1" stop-color="white"/>
</linearGradient>
<linearGradient id="paint9_linear_617_59843" x1="161.726" y1="220.938" x2="202.95" y2="178" gradientUnits="userSpaceOnUse">
<stop stop-color="#F2F2F2"/>
<stop offset="0.0001" stop-color="#F2F2F2"/>
<stop offset="0.0520833" stop-color="#F2F2F2" stop-opacity="0.948011"/>
<stop offset="1" stop-color="#F2F2F2" stop-opacity="0"/>
</linearGradient>
<radialGradient id="paint10_radial_617_59843" cx="0" cy="0" r="1" gradientUnits="userSpaceOnUse" gradientTransform="translate(147.213 191.259) rotate(27.3324) scale(58.602 42.3474)">
<stop offset="0.302083" stop-color="#FFB800"/>
<stop offset="1" stop-color="#FF7800"/>
</radialGradient>
<linearGradient id="paint11_linear_617_59843" x1="161.726" y1="220.938" x2="202.95" y2="178" gradientUnits="userSpaceOnUse">
<stop stop-color="#F2F2F2"/>
<stop offset="0.0001" stop-color="#F2F2F2"/>
<stop offset="0.0520833" stop-color="#F2F2F2" stop-opacity="0.948011"/>
<stop offset="1" stop-color="#F2F2F2" stop-opacity="0"/>
</linearGradient>
<linearGradient id="paint12_linear_617_59843" x1="165.971" y1="48.7627" x2="175.997" y2="102.994" gradientUnits="userSpaceOnUse">
<stop stop-color="white" stop-opacity="0.17"/>
<stop offset="1" stop-color="#C3C3C3" stop-opacity="0"/>
</linearGradient>
<radialGradient id="paint13_radial_617_59843" cx="0" cy="0" r="1" gradientUnits="userSpaceOnUse" gradientTransform="translate(154.121 257.487) rotate(36.2538) scale(76.2935 67.5721)">
<stop offset="0.0989583" stop-color="#FFB800"/>
<stop offset="1" stop-color="#E96D00"/>
</radialGradient>
<radialGradient id="paint14_radial_617_59843" cx="0" cy="0" r="1" gradientUnits="userSpaceOnUse" gradientTransform="translate(154.055 257.943) rotate(36.2538) scale(76.2935 67.5721)">
<stop offset="0.0989583" stop-color="#FFB800"/>
<stop offset="1" stop-color="#E96D00"/>
</radialGradient>
<clipPath id="clip0_617_59843">
<rect width="350" height="350" fill="white" transform="translate(0.996094)"/>
</clipPath>
<clipPath id="clip1_617_59843">
<rect width="350" height="350" fill="white" transform="translate(0.996094)"/>
</clipPath>
</defs>
</svg>
