<svg width="350" height="350" viewBox="0 0 350 350" fill="none" xmlns="http://www.w3.org/2000/svg">
<g clip-path="url(#clip0_650_62780)">
<g clip-path="url(#clip1_650_62780)">
<g clip-path="url(#clip2_650_62780)">
<rect x="0.078125" y="0.0439453" width="350" height="350" fill="#5A1353"/>
<rect x="0.078125" y="0.0439453" width="350" height="350" fill="url(#paint0_radial_650_62780)" fill-opacity="0.2"/>
<path d="M125.978 290.538L299.832 190.751L430.987 233.88L212.559 294.049L125.978 290.538Z" fill="url(#paint1_linear_650_62780)"/>
<g opacity="0.7" filter="url(#filter0_f_650_62780)">
<ellipse rx="194.596" ry="66.7643" transform="matrix(0.999998 0.00221055 0.00221055 -0.999998 176.077 304.638)" fill="url(#paint2_radial_650_62780)"/>
</g>
<g opacity="0.7" filter="url(#filter1_f_650_62780)">
<ellipse cx="174.396" cy="137.609" rx="196.647" ry="242.448" transform="rotate(0.126655 174.396 137.609)" fill="url(#paint3_radial_650_62780)"/>
</g>
<g clip-path="url(#clip3_650_62780)">
<g clip-path="url(#clip4_650_62780)">
<g style="mix-blend-mode:overlay">
<path fill-rule="evenodd" clip-rule="evenodd" d="M276.2 378.343C323.569 390.154 371.541 361.329 383.349 313.965C395.158 266.599 366.336 218.619 318.969 206.811C271.614 195.002 223.642 223.83 211.839 271.199C200.026 318.56 228.85 366.534 276.2 378.343ZM317.129 257.675C329.377 261.893 338.334 268.218 336.574 279.982C335.3 288.594 330.526 292.763 324.188 294.224C332.891 298.755 337.32 305.704 333.101 317.75C327.866 332.711 315.427 333.974 298.886 330.843L294.872 346.931L285.171 344.514L289.133 328.641C286.619 328.017 284.049 327.354 281.403 326.635L277.427 342.583L267.738 340.165L271.752 324.047C270.846 323.815 269.935 323.577 269.018 323.338C267.639 322.978 266.246 322.615 264.837 322.262L252.213 319.115L257.029 308.011C257.029 308.011 264.176 309.912 264.08 309.771C266.826 310.451 268.044 308.66 268.525 307.467L274.868 282.035C275.107 282.092 275.34 282.15 275.565 282.207C275.677 282.235 275.786 282.262 275.893 282.289C275.507 282.134 275.156 282.035 274.885 281.966L279.411 263.811C279.529 261.75 278.819 259.15 274.891 258.169C275.043 258.067 267.845 256.417 267.845 256.417L270.426 246.057L283.804 249.397L283.793 249.447C285.804 249.947 287.876 250.422 289.987 250.903L293.963 234.972L303.657 237.39L299.762 253.008C302.364 253.602 304.984 254.202 307.534 254.837L311.402 239.321L321.102 241.738L317.129 257.675ZM286.446 315.453C294.361 317.544 311.66 322.113 314.41 311.061C317.229 299.761 300.452 295.997 292.265 294.16C291.35 293.954 290.543 293.773 289.882 293.608L284.555 314.962C285.098 315.097 285.734 315.265 286.446 315.453ZM293.91 284.25C300.509 286.011 314.904 289.852 317.411 279.808C319.971 269.534 305.981 266.436 299.148 264.924C298.38 264.754 297.702 264.604 297.148 264.466L292.319 283.833C292.775 283.947 293.31 284.09 293.91 284.25Z" fill="white" fill-opacity="0.3"/>
</g>
</g>
<g clip-path="url(#clip5_650_62780)">
<g style="mix-blend-mode:overlay">
<path fill-rule="evenodd" clip-rule="evenodd" d="M34.2081 141.363C81.5773 153.175 129.549 124.35 141.357 76.9859C153.166 29.6195 124.344 -18.3603 76.9771 -30.1688C29.6217 -41.9772 -18.3498 -13.1495 -30.1527 34.2197C-41.9667 81.5806 -13.1418 129.555 34.2081 141.363ZM75.137 20.695C87.3847 24.9138 96.3419 31.238 94.582 43.0023C93.3083 51.6141 88.5341 55.7833 82.1961 57.2448C90.8991 61.7759 95.3279 68.7245 91.109 80.7706C85.8734 95.7314 73.435 96.994 56.8938 93.8637L52.8794 109.952L43.179 107.534L47.1409 91.6617C44.6267 91.0373 42.0573 90.3743 39.4104 89.6559L35.4347 105.603L25.7453 103.186L29.7598 87.0671C28.8543 86.8352 27.943 86.5976 27.0253 86.3583C25.647 85.9988 24.2541 85.6356 22.8444 85.2823L10.2209 82.1354L15.0365 71.0315C15.0365 71.0315 22.184 72.9323 22.0873 72.7914C24.8336 73.4711 26.052 71.6807 26.5328 70.4872L32.8763 45.0551C33.1145 45.1123 33.3477 45.1708 33.5728 45.2272C33.6844 45.2552 33.7941 45.2827 33.9013 45.3093C33.5145 45.1545 33.1636 45.0551 32.8929 44.986L37.4184 26.8313C37.5372 24.7702 36.8272 22.1703 32.8984 21.1895C33.0503 21.0873 25.8531 19.4379 25.8531 19.4379L28.4336 9.07714L41.8114 12.4174L41.8003 12.4672C43.8117 12.9673 45.8838 13.4425 47.9946 13.9232L51.9704 -2.00744L61.6653 0.410057L57.7696 16.0285C60.3722 16.6225 62.9914 17.2221 65.5415 17.8575L69.4096 2.3413L79.1099 4.7588L75.137 20.695ZM44.454 78.4737C52.3691 80.5643 69.6681 85.1334 72.4183 74.0817C75.2365 62.7817 58.4594 59.0171 50.2729 57.1801C49.3581 56.9748 48.5506 56.7936 47.8896 56.6287L42.5629 77.9828C43.1056 78.1176 43.7418 78.2856 44.454 78.4737ZM51.9177 47.2703C58.5169 49.0314 72.9114 52.8729 75.4188 42.8282C77.9793 32.554 63.9889 29.4569 57.1563 27.9443C56.3877 27.7742 55.7097 27.6241 55.156 27.4861L50.3265 46.8537C50.7827 46.9674 51.318 47.1103 51.9177 47.2703Z" fill="white" fill-opacity="0.3"/>
</g>
</g>
<g clip-path="url(#clip6_650_62780)">
<g style="mix-blend-mode:overlay">
<path fill-rule="evenodd" clip-rule="evenodd" d="M261.081 135.706C295.509 144.291 330.375 123.341 338.958 88.9167C347.54 54.4905 326.592 19.6186 292.166 11.0362C257.748 2.45375 222.882 23.4058 214.304 57.834C205.717 92.2561 226.667 127.124 261.081 135.706ZM290.828 48.0043C299.729 51.0706 306.239 55.667 304.96 64.2173C304.035 70.4764 300.565 73.5066 295.958 74.5689C302.284 77.8621 305.503 82.9123 302.436 91.6675C298.631 102.541 289.591 103.459 277.568 101.184L274.651 112.877L267.6 111.12L270.48 99.5832C268.653 99.1294 266.785 98.6475 264.861 98.1254L261.972 109.716L254.93 107.959L257.847 96.2438C257.189 96.0753 256.527 95.9026 255.86 95.7286C254.858 95.4674 253.846 95.2034 252.821 94.9466L243.646 92.6595L247.146 84.5891C247.146 84.5891 252.341 85.9706 252.271 85.8682C254.267 86.3622 255.152 85.061 255.502 84.1935L260.112 65.7093C260.285 65.7509 260.455 65.7934 260.618 65.8344C260.7 65.8547 260.779 65.8747 260.857 65.8941C260.576 65.7816 260.321 65.7093 260.124 65.6591L263.414 52.4642C263.5 50.9662 262.984 49.0766 260.128 48.3637C260.239 48.2894 255.008 47.0906 255.008 47.0906L256.883 39.5604L266.606 41.9881L266.598 42.0243C268.06 42.3877 269.566 42.7331 271.1 43.0825L273.99 31.5041L281.036 33.2611L278.205 44.6127C280.097 45.0444 282 45.4802 283.854 45.942L286.665 34.6648L293.715 36.4218L290.828 48.0043ZM268.527 89.9981C274.28 91.5176 286.853 94.8384 288.852 86.806C290.9 78.5931 278.706 75.857 272.756 74.5219C272.091 74.3727 271.505 74.241 271.024 74.1211L267.153 89.6413C267.547 89.7393 268.01 89.8614 268.527 89.9981ZM273.952 67.3194C278.748 68.5993 289.21 71.3913 291.032 64.0908C292.893 56.6235 282.725 54.3725 277.759 53.2731C277.201 53.1495 276.708 53.0404 276.305 52.9401L272.795 67.0166C273.127 67.0992 273.516 67.203 273.952 67.3194Z" fill="white" fill-opacity="0.3"/>
</g>
</g>
<g clip-path="url(#clip7_650_62780)">
<g style="mix-blend-mode:overlay">
<path fill-rule="evenodd" clip-rule="evenodd" d="M27.9122 382.244C54.4047 388.85 81.2342 372.729 87.8384 346.239C94.4426 319.748 78.323 292.914 51.832 286.31C25.3471 279.706 -1.48231 295.828 -8.08343 322.321C-14.6907 348.809 1.4304 375.64 27.9122 382.244ZM50.8024 314.757C57.6523 317.116 62.6619 320.653 61.6776 327.233C60.9653 332.049 58.2951 334.381 54.7504 335.198C59.6178 337.732 62.0948 341.619 59.7353 348.356C56.8071 356.723 49.8506 357.429 40.5994 355.678L38.3542 364.676L32.929 363.324L35.1449 354.447C33.7387 354.098 32.3017 353.727 30.8214 353.325L28.5978 362.244L23.1788 360.892L25.424 351.877C24.9176 351.748 24.408 351.615 23.8948 351.481C23.1239 351.28 22.3448 351.077 21.5563 350.879L14.4963 349.119L17.1895 342.909C17.1895 342.909 21.187 343.972 21.1329 343.893C22.6689 344.273 23.3503 343.272 23.6192 342.604L27.1669 328.381C27.3 328.413 27.4303 328.445 27.556 328.477C27.6186 328.493 27.6801 328.508 27.7402 328.523C27.5239 328.436 27.3276 328.381 27.1762 328.342L29.7073 318.189C29.7737 317.036 29.3766 315.582 27.1793 315.033C27.2643 314.976 23.239 314.054 23.239 314.054L24.6823 308.259L32.1641 310.127L32.158 310.155C33.2829 310.435 34.4418 310.701 35.6223 310.969L37.8459 302.06L43.268 303.412L41.0893 312.147C42.5448 312.479 44.0097 312.814 45.4359 313.17L47.5992 304.492L53.0244 305.844L50.8024 314.757ZM33.6421 347.071C38.0689 348.24 47.7438 350.796 49.2819 344.615C50.8581 338.295 41.475 336.19 36.8965 335.162C36.3849 335.047 35.9332 334.946 35.5636 334.854L32.5844 346.797C32.888 346.872 33.2438 346.966 33.6421 347.071ZM37.8164 329.62C41.5072 330.605 49.5577 332.753 50.96 327.135C52.3921 321.389 44.5676 319.657 40.7462 318.811C40.3164 318.716 39.9372 318.632 39.6275 318.555L36.9265 329.387C37.1816 329.45 37.481 329.53 37.8164 329.62Z" fill="white" fill-opacity="0.3"/>
</g>
</g>
<g clip-path="url(#clip8_650_62780)">
<g style="mix-blend-mode:overlay">
<path fill-rule="evenodd" clip-rule="evenodd" d="M84.1173 235.997C101.698 240.38 119.501 229.682 123.884 212.104C128.267 194.525 117.57 176.718 99.9904 172.335C82.4152 167.953 64.6113 178.652 60.2308 196.232C55.8463 213.809 66.5442 231.614 84.1173 235.997ZM99.3067 191.213C103.852 192.779 107.177 195.126 106.523 199.492C106.051 202.688 104.279 204.235 101.927 204.778C105.157 206.46 106.8 209.038 105.235 213.509C103.291 219.062 98.6751 219.53 92.5361 218.368L91.0462 224.339L87.4461 223.442L88.9165 217.551C87.9834 217.319 87.0297 217.073 86.0474 216.807L84.5719 222.725L80.9758 221.828L82.4657 215.846C82.1297 215.76 81.7915 215.672 81.451 215.583C80.9394 215.45 80.4224 215.315 79.8992 215.184L75.2142 214.016L77.0014 209.895C77.0014 209.895 79.6541 210.6 79.6182 210.548C80.6375 210.8 81.0897 210.136 81.2681 209.693L83.6224 200.254C83.7108 200.275 83.7973 200.297 83.8808 200.318C83.9223 200.328 83.963 200.338 84.0028 200.348C83.8592 200.291 83.729 200.254 83.6285 200.228L85.3081 193.49C85.3522 192.725 85.0887 191.761 83.6306 191.397C83.687 191.359 81.0158 190.746 81.0158 190.746L81.9735 186.901L86.9385 188.141L86.9344 188.159C87.6809 188.345 88.4499 188.521 89.2333 188.7L90.7088 182.787L94.3069 183.685L92.8611 189.481C93.8271 189.702 94.7991 189.924 95.7456 190.16L97.1811 184.401L100.781 185.299L99.3067 191.213ZM87.9193 212.657C90.8568 213.433 97.2771 215.128 98.2978 211.027C99.3437 206.833 93.1172 205.436 90.0789 204.754C89.7393 204.678 89.4396 204.61 89.1943 204.549L87.2174 212.475C87.4188 212.525 87.655 212.587 87.9193 212.657ZM90.6893 201.076C93.1385 201.73 98.4808 203.155 99.4113 199.427C100.362 195.614 95.1693 194.465 92.6335 193.904C92.3483 193.84 92.0966 193.785 91.8911 193.733L90.0987 200.921C90.268 200.964 90.4667 201.017 90.6893 201.076Z" fill="white" fill-opacity="0.3"/>
</g>
</g>
</g>
</g>
<g filter="url(#filter2_d_650_62780)">
<path d="M125.512 312.513C125.131 312.308 124.967 311.865 125.102 311.454L138.023 272.345C138.074 272.19 138.083 272.025 138.049 271.866L125.383 213.372C125.204 212.549 126.172 211.895 126.886 212.341C132.551 215.874 149.852 225.175 174.999 225.175C200.145 225.175 217.447 215.874 223.112 212.341C223.826 211.895 224.793 212.549 224.615 213.372L211.949 271.866C211.915 272.025 211.923 272.19 211.974 272.345L224.895 311.454C225.031 311.865 224.867 312.308 224.486 312.513C220.653 314.573 200.123 324.932 174.999 324.932C149.875 324.932 129.345 314.573 125.512 312.513Z" fill="url(#paint4_linear_650_62780)" shape-rendering="crispEdges"/>
</g>
<g filter="url(#filter3_f_650_62780)">
<mask id="mask0_650_62780" style="mask-type:alpha" maskUnits="userSpaceOnUse" x="123" y="211" width="102" height="115">
<path d="M124.148 312.918C123.765 312.713 123.6 312.268 123.737 311.856L136.776 272.59C136.827 272.435 136.836 272.269 136.801 272.109L123.877 212.725C123.72 212.002 124.44 211.377 125.135 211.631C130.396 213.553 148.086 219.208 174.087 219.208C200.089 219.208 217.779 213.553 223.04 211.631C223.735 211.377 224.455 212.002 224.298 212.725L211.374 272.109C211.339 272.269 211.348 272.435 211.399 272.59L224.438 311.856C224.575 312.268 224.41 312.713 224.027 312.918C220.165 314.983 199.445 325.388 174.087 325.388C148.73 325.388 128.01 314.983 124.148 312.918Z" fill="#2D2E32"/>
<path d="M124.148 312.918C123.765 312.713 123.6 312.268 123.737 311.856L136.776 272.59C136.827 272.435 136.836 272.269 136.801 272.109L123.877 212.725C123.72 212.002 124.44 211.377 125.135 211.631C130.396 213.553 148.086 219.208 174.087 219.208C200.089 219.208 217.779 213.553 223.04 211.631C223.735 211.377 224.455 212.002 224.298 212.725L211.374 272.109C211.339 272.269 211.348 272.435 211.399 272.59L224.438 311.856C224.575 312.268 224.41 312.713 224.027 312.918C220.165 314.983 199.445 325.388 174.087 325.388C148.73 325.388 128.01 314.983 124.148 312.918Z" fill="url(#paint5_linear_650_62780)"/>
</mask>
<g mask="url(#mask0_650_62780)">
<g opacity="0.25" filter="url(#filter4_d_650_62780)">
<path d="M72.916 273.325C168.028 276.029 230.123 228.041 249.282 203.709H72.916V273.325Z" fill="url(#paint6_linear_650_62780)" fill-opacity="0.55" shape-rendering="crispEdges"/>
</g>
<path opacity="0.25" d="M133.952 266.928C133.952 244.078 107.518 196.064 97.7282 174.838C104.255 172.552 120.637 169.352 133.952 174.838C150.596 181.696 156.218 243.966 160.134 262.58C163.267 277.471 139.174 326.689 133.952 347.263H68.3574C118.288 320.811 133.952 284.563 133.952 266.928Z" fill="url(#paint7_radial_650_62780)"/>
<path opacity="0.25" d="M148.536 271.03C148.536 248.18 122.102 200.166 112.312 178.939C118.839 176.653 135.221 173.453 148.536 178.939C165.18 185.797 170.802 248.067 174.718 266.681C177.851 281.573 153.758 330.791 148.536 351.364H82.9414C132.872 324.913 148.536 288.664 148.536 271.03Z" fill="url(#paint8_radial_650_62780)"/>
</g>
</g>
<path d="M148.648 94.335L124.888 210.017C124.817 210.362 124.947 210.713 125.237 210.915C128.357 213.082 146.959 225.128 174.999 225.128C203.039 225.128 221.641 213.082 224.761 210.915C225.051 210.713 225.181 210.362 225.11 210.017L201.35 94.335C201.316 94.4019 201.272 94.4642 201.217 94.5197C199.881 95.8684 193.226 101.484 174.999 101.484C156.772 101.484 150.116 95.8684 148.781 94.5197C148.726 94.4642 148.682 94.4019 148.648 94.335Z" fill="black" fill-opacity="0.75"/>
<path d="M214.052 156.62L218.832 179.91C216.933 182.156 214.118 184.13 210.037 185.164C197.279 188.398 184.115 181.122 184.115 170.208C184.115 164.751 187.923 153.877 203.152 154.039C207.743 154.088 211.309 155.093 214.052 156.62Z" fill="url(#paint9_radial_650_62780)"/>
<path d="M201.05 94.2312L205.114 114.032C203.525 113.761 201.872 113.448 200.182 113.128C186.039 110.452 169.254 107.277 165.005 123.731C163.15 130.915 165.837 135.213 168.452 139.394C170.976 143.43 173.433 147.358 171.67 153.669C169.525 161.35 157.861 166.325 148.481 162.994C138.572 159.476 139.268 144.904 144.963 137.849C150.658 130.795 151.482 120.031 150.658 112.871C150.261 109.41 148.551 106.935 146.315 105.251L148.651 93.8809C148.684 93.9478 148.729 94.0101 148.784 94.0656C150.119 95.4143 156.774 101.03 175.002 101.03C192.559 101.03 199.379 95.8196 201.05 94.2312Z" fill="url(#paint10_radial_650_62780)"/>
<mask id="mask1_650_62780" style="mask-type:alpha" maskUnits="userSpaceOnUse" x="140" y="93" width="66" height="72">
<path d="M201.047 94.2302L205.11 114.031C203.521 113.76 201.868 113.447 200.178 113.127C186.035 110.451 169.25 107.276 165.001 123.73C163.146 130.914 165.833 135.212 168.448 139.393C170.972 143.429 173.429 147.357 171.666 153.668C169.521 161.349 157.857 166.324 148.477 162.993C138.568 159.475 139.264 144.903 144.959 137.848C150.654 130.794 151.478 120.03 150.654 112.87C150.257 109.409 148.547 106.934 146.311 105.25L148.647 93.8799C148.681 93.9469 148.725 94.0092 148.78 94.0646C150.115 95.4133 156.77 101.029 174.998 101.029C192.555 101.029 199.375 95.8186 201.047 94.2302Z" fill="url(#paint11_radial_650_62780)"/>
</mask>
<g mask="url(#mask1_650_62780)">
<g filter="url(#filter5_f_650_62780)">
<mask id="mask2_650_62780" style="mask-type:alpha" maskUnits="userSpaceOnUse" x="124" y="94" width="102" height="132">
<path d="M148.859 95.0639C148.946 94.6401 149.319 94.3359 149.752 94.3359H200.242C200.675 94.3359 201.048 94.6401 201.135 95.0639L224.989 211.158C225.071 211.554 224.884 211.954 224.523 212.136C220.62 214.108 198.372 224.816 174.997 225.126C151.575 225.437 129.285 214.177 125.448 212.14C125.097 211.953 124.921 211.561 125.001 211.172L148.859 95.0639Z" fill="#577096" fill-opacity="0.75"/>
</mask>
<g mask="url(#mask2_650_62780)">
<g filter="url(#filter6_f_650_62780)">
<path d="M207.204 76.1074C210.862 110.269 145.937 132.572 113.018 139.453L113.018 76.1074L207.204 76.1074Z" fill="url(#paint12_linear_650_62780)" fill-opacity="0.5"/>
</g>
<g filter="url(#filter7_f_650_62780)">
<path d="M155.405 125.302C156.467 105.018 134.469 86.1836 128.927 66.9994C133.386 65.1982 144.048 70.7906 152.673 76.1256C163.453 82.7944 162.877 109.124 164.623 125.784C166.02 139.112 148.451 223.401 144.013 241.481L131.714 240.837C140.24 214.68 154.585 140.955 155.405 125.302Z" fill="url(#paint13_linear_650_62780)" fill-opacity="0.6"/>
</g>
</g>
</g>
</g>
<mask id="mask3_650_62780" style="mask-type:alpha" maskUnits="userSpaceOnUse" x="124" y="180" width="101" height="46">
<path d="M223.108 211.888C217.521 215.443 199.995 225.128 174.886 225.128C146.9 225.128 128.335 213.096 125.221 210.931C125.031 210.8 124.91 210.604 124.869 210.388C128.807 199.003 144.114 175.858 164.063 181.917C173.942 184.918 180.858 192.45 187.363 199.534C197.437 210.506 206.524 220.403 224.104 210.72C223.782 211.108 223.449 211.497 223.108 211.888Z" fill="url(#paint14_radial_650_62780)"/>
</mask>
<g mask="url(#mask3_650_62780)">
<g filter="url(#filter8_f_650_62780)">
<mask id="mask4_650_62780" style="mask-type:alpha" maskUnits="userSpaceOnUse" x="124" y="94" width="102" height="132">
<path d="M148.861 95.063C148.948 94.6391 149.321 94.335 149.753 94.335H200.244C200.677 94.335 201.05 94.6391 201.137 95.063L224.991 211.157C225.073 211.553 224.886 211.953 224.525 212.135C220.622 214.107 198.374 224.815 174.999 225.125C151.577 225.436 129.287 214.176 125.449 212.139C125.099 211.952 124.923 211.56 125.003 211.171L148.861 95.063Z" fill="#577096" fill-opacity="0.75"/>
</mask>
<g mask="url(#mask4_650_62780)">
<g filter="url(#filter9_f_650_62780)">
<path d="M155.407 125.301C156.469 105.017 134.471 86.1826 128.929 66.9985C133.388 65.1973 144.05 70.7896 152.675 76.1246C163.455 82.7934 162.878 109.123 164.625 125.783C166.022 139.111 148.453 223.4 144.015 241.48L131.716 240.836C140.242 214.679 154.587 140.954 155.407 125.301Z" fill="url(#paint15_linear_650_62780)" fill-opacity="0.6"/>
</g>
</g>
</g>
</g>
<path d="M175.436 324.932C200.388 324.932 220.779 314.573 224.586 312.513C224.965 312.308 225.127 311.865 224.993 311.454L212.16 272.345C212.109 272.19 212.1 272.025 212.134 271.866L224.853 212.727C224.994 212.071 224.419 211.498 223.797 211.585C224.205 211.317 224.528 211.096 224.763 210.932C225.051 210.73 225.179 210.38 225.109 210.034L201.396 93.6963C201.342 93.4292 201.174 93.2096 200.95 93.0837L195.578 55.4276C195.574 55.4004 195.571 55.3737 195.568 55.3469C195.565 55.3258 195.563 55.3046 195.56 55.2832C195.468 54.6575 194.145 50.1299 174.998 50.1299L175.436 324.932Z" fill="#161A70" fill-opacity="0.1"/>
<path d="M154.309 55.4581C154.319 55.3893 154.321 55.3223 154.327 55.2531C154.399 54.5254 155.623 50.1299 174.784 50.1299C194.295 50.1299 195.582 54.6879 195.667 55.2894C195.673 55.3334 195.676 55.3767 195.683 55.4207L201.373 93.9911C201.41 94.2404 201.343 94.491 201.166 94.6702C199.833 96.0173 193.191 101.627 174.998 101.627C156.806 101.627 150.164 96.0173 148.831 94.6702C148.654 94.491 148.587 94.2404 148.624 93.9911L154.309 55.4581Z" fill="url(#paint16_linear_650_62780)"/>
<g filter="url(#filter10_d_650_62780)">
<path d="M216.24 25.3082C216.24 25.3082 216.24 25.3119 216.238 25.3194C216.238 25.312 216.239 25.3082 216.24 25.3082ZM215.963 24.9661C216.147 25.163 216.21 25.2858 216.231 25.3391C216.21 25.3923 216.147 25.5151 215.963 25.712C215.626 26.0736 215.016 26.5321 214.038 27.0394C212.086 28.051 209.113 29.0299 205.248 29.8772C197.555 31.5637 186.818 32.626 174.883 32.626C162.947 32.626 152.211 31.5637 144.518 29.8772C140.653 29.0299 137.679 28.051 135.727 27.0394C134.749 26.5321 134.14 26.0736 133.802 25.712C133.618 25.5151 133.555 25.3923 133.534 25.3391C133.555 25.2858 133.618 25.163 133.802 24.9661C134.14 24.6045 134.749 24.146 135.727 23.6387C137.679 22.6271 140.653 21.6483 144.518 20.8009C152.211 19.1144 162.947 18.0521 174.883 18.0521C186.818 18.0521 197.555 19.1144 205.248 20.8009C209.113 21.6483 212.086 22.6271 214.038 23.6387C215.016 24.146 215.626 24.6045 215.963 24.9661ZM133.526 25.3082C133.526 25.3082 133.527 25.312 133.528 25.3194C133.526 25.3119 133.525 25.3082 133.526 25.3082ZM133.526 25.3699C133.525 25.3699 133.526 25.3662 133.528 25.3587C133.527 25.3661 133.526 25.3699 133.526 25.3699ZM216.238 25.3587C216.24 25.3662 216.24 25.3699 216.24 25.3699C216.239 25.3699 216.238 25.3661 216.238 25.3587Z" stroke="#FDF21B" stroke-width="4.55729" shape-rendering="crispEdges"/>
</g>
</g>
</g>
<defs>
<filter id="filter0_f_650_62780" x="-23.0749" y="233.315" width="398.306" height="142.646" filterUnits="userSpaceOnUse" color-interpolation-filters="sRGB">
<feFlood flood-opacity="0" result="BackgroundImageFix"/>
<feBlend mode="normal" in="SourceGraphic" in2="BackgroundImageFix" result="shape"/>
<feGaussianBlur stdDeviation="2.27865" result="effect1_foregroundBlur_650_62780"/>
</filter>
<filter id="filter1_f_650_62780" x="-26.8092" y="-109.396" width="402.41" height="494.01" filterUnits="userSpaceOnUse" color-interpolation-filters="sRGB">
<feFlood flood-opacity="0" result="BackgroundImageFix"/>
<feBlend mode="normal" in="SourceGraphic" in2="BackgroundImageFix" result="shape"/>
<feGaussianBlur stdDeviation="2.27865" result="effect1_foregroundBlur_650_62780"/>
</filter>
<filter id="filter2_d_650_62780" x="122.776" y="212.196" width="105.357" height="118.205" filterUnits="userSpaceOnUse" color-interpolation-filters="sRGB">
<feFlood flood-opacity="0" result="BackgroundImageFix"/>
<feColorMatrix in="SourceAlpha" type="matrix" values="0 0 0 0 0 0 0 0 0 0 0 0 0 0 0 0 0 0 127 0" result="hardAlpha"/>
<feOffset dx="0.455725" dy="2.73435"/>
<feGaussianBlur stdDeviation="1.36718"/>
<feComposite in2="hardAlpha" operator="out"/>
<feColorMatrix type="matrix" values="0 0 0 0 0 0 0 0 0 0 0 0 0 0 0 0 0 0 0.25 0"/>
<feBlend mode="normal" in2="BackgroundImageFix" result="effect1_dropShadow_650_62780"/>
<feBlend mode="normal" in="SourceGraphic" in2="effect1_dropShadow_650_62780" result="shape"/>
</filter>
<filter id="filter3_f_650_62780" x="120.311" y="208.722" width="106.452" height="118.944" filterUnits="userSpaceOnUse" color-interpolation-filters="sRGB">
<feFlood flood-opacity="0" result="BackgroundImageFix"/>
<feBlend mode="normal" in="SourceGraphic" in2="BackgroundImageFix" result="shape"/>
<feGaussianBlur stdDeviation="1.13931" result="effect1_foregroundBlur_650_62780"/>
</filter>
<filter id="filter4_d_650_62780" x="71.5488" y="203.253" width="179.1" height="72.4599" filterUnits="userSpaceOnUse" color-interpolation-filters="sRGB">
<feFlood flood-opacity="0" result="BackgroundImageFix"/>
<feColorMatrix in="SourceAlpha" type="matrix" values="0 0 0 0 0 0 0 0 0 0 0 0 0 0 0 0 0 0 127 0" result="hardAlpha"/>
<feOffset dy="0.911451"/>
<feGaussianBlur stdDeviation="0.683588"/>
<feComposite in2="hardAlpha" operator="out"/>
<feColorMatrix type="matrix" values="0 0 0 0 0 0 0 0 0 0 0 0 0 0 0 0 0 0 0.25 0"/>
<feBlend mode="normal" in2="BackgroundImageFix" result="effect1_dropShadow_650_62780"/>
<feBlend mode="normal" in="SourceGraphic" in2="effect1_dropShadow_650_62780" result="shape"/>
</filter>
<filter id="filter5_f_650_62780" x="122.589" y="92.0573" width="104.817" height="135.354" filterUnits="userSpaceOnUse" color-interpolation-filters="sRGB">
<feFlood flood-opacity="0" result="BackgroundImageFix"/>
<feBlend mode="normal" in="SourceGraphic" in2="BackgroundImageFix" result="shape"/>
<feGaussianBlur stdDeviation="1.13931" result="effect1_foregroundBlur_650_62780"/>
</filter>
<filter id="filter6_f_650_62780" x="112.106" y="75.196" width="96.1588" height="65.1686" filterUnits="userSpaceOnUse" color-interpolation-filters="sRGB">
<feFlood flood-opacity="0" result="BackgroundImageFix"/>
<feBlend mode="normal" in="SourceGraphic" in2="BackgroundImageFix" result="shape"/>
<feGaussianBlur stdDeviation="0.455725" result="effect1_foregroundBlur_650_62780"/>
</filter>
<filter id="filter7_f_650_62780" x="128.016" y="65.7438" width="37.5963" height="176.648" filterUnits="userSpaceOnUse" color-interpolation-filters="sRGB">
<feFlood flood-opacity="0" result="BackgroundImageFix"/>
<feBlend mode="normal" in="SourceGraphic" in2="BackgroundImageFix" result="shape"/>
<feGaussianBlur stdDeviation="0.455725" result="effect1_foregroundBlur_650_62780"/>
</filter>
<filter id="filter8_f_650_62780" x="122.591" y="92.0563" width="104.817" height="135.354" filterUnits="userSpaceOnUse" color-interpolation-filters="sRGB">
<feFlood flood-opacity="0" result="BackgroundImageFix"/>
<feBlend mode="normal" in="SourceGraphic" in2="BackgroundImageFix" result="shape"/>
<feGaussianBlur stdDeviation="1.13931" result="effect1_foregroundBlur_650_62780"/>
</filter>
<filter id="filter9_f_650_62780" x="128.018" y="65.7428" width="37.5963" height="176.648" filterUnits="userSpaceOnUse" color-interpolation-filters="sRGB">
<feFlood flood-opacity="0" result="BackgroundImageFix"/>
<feBlend mode="normal" in="SourceGraphic" in2="BackgroundImageFix" result="shape"/>
<feGaussianBlur stdDeviation="0.455725" result="effect1_foregroundBlur_650_62780"/>
</filter>
<filter id="filter10_d_650_62780" x="127.926" y="12.4493" width="93.9138" height="25.779" filterUnits="userSpaceOnUse" color-interpolation-filters="sRGB">
<feFlood flood-opacity="0" result="BackgroundImageFix"/>
<feColorMatrix in="SourceAlpha" type="matrix" values="0 0 0 0 0 0 0 0 0 0 0 0 0 0 0 0 0 0 127 0" result="hardAlpha"/>
<feOffset/>
<feGaussianBlur stdDeviation="1.66205"/>
<feComposite in2="hardAlpha" operator="out"/>
<feColorMatrix type="matrix" values="0 0 0 0 1 0 0 0 0 1 0 0 0 0 1 0 0 0 1 0"/>
<feBlend mode="normal" in2="BackgroundImageFix" result="effect1_dropShadow_650_62780"/>
<feBlend mode="normal" in="SourceGraphic" in2="effect1_dropShadow_650_62780" result="shape"/>
</filter>
<radialGradient id="paint0_radial_650_62780" cx="0" cy="0" r="1" gradientUnits="userSpaceOnUse" gradientTransform="translate(156.621 401.541) rotate(-84.441) scale(239.93 241.682)">
<stop/>
<stop offset="1" stop-opacity="0"/>
</radialGradient>
<linearGradient id="paint1_linear_650_62780" x1="194.835" y1="271.639" x2="316.537" y2="167.937" gradientUnits="userSpaceOnUse">
<stop/>
<stop offset="1" stop-color="#333333" stop-opacity="0"/>
</linearGradient>
<radialGradient id="paint2_radial_650_62780" cx="0" cy="0" r="1" gradientUnits="userSpaceOnUse" gradientTransform="translate(194.596 76.624) rotate(99.1226) scale(43.9775 125.337)">
<stop stop-color="#F721E1"/>
<stop offset="1" stop-color="#DE2EE1" stop-opacity="0"/>
</radialGradient>
<radialGradient id="paint3_radial_650_62780" cx="0" cy="0" r="1" gradientUnits="userSpaceOnUse" gradientTransform="translate(174.396 173.413) rotate(92.5586) scale(157.837 128.153)">
<stop stop-color="#F721E1"/>
<stop offset="1" stop-color="#DE2EE1" stop-opacity="0"/>
</radialGradient>
<linearGradient id="paint4_linear_650_62780" x1="99.3485" y1="200.975" x2="216.014" y2="304.88" gradientUnits="userSpaceOnUse">
<stop stop-color="#C59651"/>
<stop offset="0.536458" stop-color="#E0A50D" stop-opacity="0.98"/>
<stop offset="1" stop-color="#FFF27B" stop-opacity="0.98"/>
</linearGradient>
<linearGradient id="paint5_linear_650_62780" x1="123.502" y1="211.001" x2="241.34" y2="297.278" gradientUnits="userSpaceOnUse">
<stop stop-color="#C3C3C3"/>
<stop offset="1" stop-color="#C3C3C3" stop-opacity="0.15"/>
</linearGradient>
<linearGradient id="paint6_linear_650_62780" x1="203.502" y1="227.504" x2="112.602" y2="299.164" gradientUnits="userSpaceOnUse">
<stop stop-color="white" stop-opacity="0"/>
<stop offset="0.471361" stop-color="white"/>
<stop offset="1" stop-color="white"/>
</linearGradient>
<radialGradient id="paint7_radial_650_62780" cx="0" cy="0" r="1" gradientUnits="userSpaceOnUse" gradientTransform="translate(122.539 265.347) rotate(79.4004) scale(83.3375 37.0264)">
<stop stop-color="#F2F2F2"/>
<stop offset="0.0001" stop-color="#F2F2F2"/>
<stop offset="1" stop-color="#F2F2F2" stop-opacity="0"/>
</radialGradient>
<radialGradient id="paint8_radial_650_62780" cx="0" cy="0" r="1" gradientUnits="userSpaceOnUse" gradientTransform="translate(137.123 269.449) rotate(79.4004) scale(83.3375 37.0264)">
<stop stop-color="#F2F2F2"/>
<stop offset="0.0001" stop-color="#F2F2F2"/>
<stop offset="1" stop-color="#F2F2F2" stop-opacity="0"/>
</radialGradient>
<radialGradient id="paint9_radial_650_62780" cx="0" cy="0" r="1" gradientUnits="userSpaceOnUse" gradientTransform="translate(191.584 161.495) rotate(46.8342) scale(26.6219 23.5336)">
<stop offset="0.328125" stop-color="#FF00D6"/>
<stop offset="0.619792" stop-color="#D700B4"/>
</radialGradient>
<radialGradient id="paint10_radial_650_62780" cx="0" cy="0" r="1" gradientUnits="userSpaceOnUse" gradientTransform="translate(154.653 110.284) rotate(51.7012) scale(54.4202 46.8931)">
<stop offset="0.239583" stop-color="#21F6EA"/>
<stop offset="1" stop-color="#2183F6"/>
</radialGradient>
<radialGradient id="paint11_radial_650_62780" cx="0" cy="0" r="1" gradientUnits="userSpaceOnUse" gradientTransform="translate(155.88 109.101) rotate(53.1177) scale(37.8174 40.2642)">
<stop offset="0.203125" stop-color="#71FF30"/>
<stop offset="0.890625" stop-color="#25BC46"/>
</radialGradient>
<linearGradient id="paint12_linear_650_62780" x1="145.211" y1="123.01" x2="155.826" y2="72.2924" gradientUnits="userSpaceOnUse">
<stop stop-color="white" stop-opacity="0"/>
<stop offset="0.471361" stop-color="white"/>
<stop offset="1" stop-color="white"/>
</linearGradient>
<linearGradient id="paint13_linear_650_62780" x1="160.727" y1="220.938" x2="201.952" y2="178" gradientUnits="userSpaceOnUse">
<stop stop-color="#F2F2F2"/>
<stop offset="0.0001" stop-color="#F2F2F2"/>
<stop offset="0.0520833" stop-color="#F2F2F2" stop-opacity="0.948011"/>
<stop offset="1" stop-color="#F2F2F2" stop-opacity="0"/>
</linearGradient>
<radialGradient id="paint14_radial_650_62780" cx="0" cy="0" r="1" gradientUnits="userSpaceOnUse" gradientTransform="translate(146.217 191.257) rotate(27.3324) scale(58.6015 42.3471)">
<stop offset="0.302083" stop-color="#FFB800"/>
<stop offset="1" stop-color="#FF7800"/>
</radialGradient>
<linearGradient id="paint15_linear_650_62780" x1="160.729" y1="220.937" x2="201.954" y2="177.999" gradientUnits="userSpaceOnUse">
<stop stop-color="#F2F2F2"/>
<stop offset="0.0001" stop-color="#F2F2F2"/>
<stop offset="0.0520833" stop-color="#F2F2F2" stop-opacity="0.948011"/>
<stop offset="1" stop-color="#F2F2F2" stop-opacity="0"/>
</linearGradient>
<linearGradient id="paint16_linear_650_62780" x1="156.015" y1="58.5754" x2="197.676" y2="103.509" gradientUnits="userSpaceOnUse">
<stop stop-color="#C59651"/>
<stop offset="0.536458" stop-color="#E0AE0D" stop-opacity="0.98"/>
<stop offset="1" stop-color="#FFF27B" stop-opacity="0.98"/>
</linearGradient>
<clipPath id="clip0_650_62780">
<rect width="349.997" height="349.997" fill="white"/>
</clipPath>
<clipPath id="clip1_650_62780">
<rect width="349.997" height="349.997" fill="white"/>
</clipPath>
<clipPath id="clip2_650_62780">
<rect width="350" height="350" fill="white"/>
</clipPath>
<clipPath id="clip3_650_62780">
<rect width="350" height="350" fill="white"/>
</clipPath>
<clipPath id="clip4_650_62780">
<rect width="176.823" height="176.823" fill="white" transform="translate(209.18 204.167)"/>
</clipPath>
<clipPath id="clip5_650_62780">
<rect width="176.823" height="176.823" fill="white" transform="translate(-32.8125 -32.8125)"/>
</clipPath>
<clipPath id="clip6_650_62780">
<rect width="128.516" height="128.516" fill="white" transform="translate(212.369 9.11426)"/>
</clipPath>
<clipPath id="clip7_650_62780">
<rect width="98.8932" height="98.8932" fill="white" transform="translate(-9.57031 284.831)"/>
</clipPath>
<clipPath id="clip8_650_62780">
<rect width="65.625" height="65.625" fill="white" transform="translate(59.2441 171.354)"/>
</clipPath>
</defs>
</svg>
