<svg width="350" height="350" viewBox="0 0 350 350" fill="none" xmlns="http://www.w3.org/2000/svg">
<g clip-path="url(#clip0_631_62032)">
<g filter="url(#filter0_f_631_62032)">
<rect x="350.08" y="350.045" width="350" height="350" transform="rotate(-180 350.08 350.045)" fill="#0E103E"/>
</g>
<g style="mix-blend-mode:overlay" filter="url(#filter1_f_631_62032)">
<ellipse rx="270.447" ry="92.7881" transform="matrix(0.999998 0.00221055 0.00221055 -0.999998 176.734 365.186)" fill="url(#paint0_radial_631_62032)"/>
</g>
<g style="mix-blend-mode:overlay" filter="url(#filter2_f_631_62032)">
<ellipse cx="174.396" cy="133.051" rx="273.297" ry="336.951" transform="rotate(0.126655 174.396 133.051)" fill="url(#paint1_radial_631_62032)"/>
</g>
<g opacity="0.6">
<circle cx="21.3368" cy="78.6415" r="1.16688" fill="white"/>
<circle cx="214.321" cy="248.225" r="1.16688" transform="rotate(165 214.321 248.225)" fill="white"/>
<circle cx="325.548" cy="113.156" r="1.16688" transform="rotate(75 325.548 113.156)" fill="white"/>
<circle cx="340.034" cy="124.932" r="1.16688" transform="rotate(75 340.034 124.932)" fill="white"/>
<circle cx="322.718" cy="82.5492" r="1.16688" transform="rotate(75 322.718 82.5492)" fill="white"/>
<circle cx="157.077" cy="146.73" r="1.16688" transform="rotate(75 157.077 146.73)" fill="white"/>
<circle cx="266.452" cy="142.628" r="1.16688" transform="rotate(75 266.452 142.628)" fill="white"/>
<circle cx="8.71981" cy="30.1401" r="1.16688" transform="rotate(75 8.71981 30.1401)" fill="white"/>
<circle cx="64.4345" cy="118.315" r="1.16688" fill="white"/>
<circle cx="162.424" cy="221.057" r="1.16688" transform="rotate(165 162.424 221.057)" fill="white"/>
<circle cx="298.38" cy="165.052" r="1.16688" transform="rotate(75 298.38 165.052)" fill="white"/>
<circle cx="129.909" cy="198.626" r="1.16688" transform="rotate(75 129.909 198.626)" fill="white"/>
<circle cx="239.284" cy="194.525" r="1.16688" transform="rotate(75 239.284 194.525)" fill="white"/>
<circle cx="40.587" cy="93.808" r="1.16688" transform="rotate(75 40.587 93.808)" fill="white"/>
<circle cx="58.3661" cy="79.7304" r="1.16688" fill="white"/>
<circle cx="178.272" cy="256.756" r="1.16688" transform="rotate(165 178.272 256.756)" fill="white"/>
<circle cx="334.079" cy="149.205" r="1.16688" transform="rotate(75 334.079 149.205)" fill="white"/>
<circle cx="165.608" cy="182.779" r="1.16688" transform="rotate(75 165.608 182.779)" fill="white"/>
<circle cx="274.983" cy="178.677" r="1.16688" transform="rotate(75 274.983 178.677)" fill="white"/>
<circle cx="294.007" cy="195.115" r="1.16688" transform="rotate(75 294.007 195.115)" fill="white"/>
<circle cx="67.0538" cy="101.69" r="1.16688" transform="rotate(75 67.0538 101.69)" fill="white"/>
<circle cx="17.2919" cy="169.813" r="1.16688" fill="white"/>
<circle cx="194.631" cy="159.112" r="1.16688" transform="rotate(165 194.631 159.112)" fill="white"/>
<circle cx="236.435" cy="132.845" r="1.16688" transform="rotate(75 236.435 132.845)" fill="white"/>
<circle cx="67.964" cy="166.419" r="1.16688" transform="rotate(75 67.964 166.419)" fill="white"/>
<circle cx="177.339" cy="162.318" r="1.16688" transform="rotate(75 177.339 162.318)" fill="white"/>
<circle cx="3.44422" cy="159.7" r="1.16688" fill="white"/>
<circle cx="210.624" cy="165.296" r="1.16688" transform="rotate(165 210.624 165.296)" fill="white"/>
<circle cx="242.618" cy="116.853" r="1.16688" transform="rotate(75 242.618 116.853)" fill="white"/>
<circle cx="74.1495" cy="150.427" r="1.16688" transform="rotate(75 74.1495 150.427)" fill="white"/>
<circle cx="183.525" cy="146.326" r="1.16688" transform="rotate(75 183.525 146.326)" fill="white"/>
<circle cx="52.2977" cy="174.792" r="1.16688" fill="white"/>
<circle cx="59.4989" cy="192.118" r="1.16688" fill="white"/>
<circle cx="159.53" cy="163.363" r="1.16688" transform="rotate(165 159.53 163.363)" fill="white"/>
<circle cx="278.968" cy="303.578" r="1.16688" transform="rotate(75 278.968 303.578)" fill="white"/>
<circle cx="72.2159" cy="201.521" r="1.16688" transform="rotate(75 72.2159 201.521)" fill="white"/>
<circle cx="181.591" cy="197.419" r="1.16688" transform="rotate(75 181.591 197.419)" fill="white"/>
<circle cx="9.20203" cy="90.7772" r="1.16688" fill="white"/>
<circle cx="222.903" cy="233.361" r="1.16688" transform="rotate(165 222.903 233.361)" fill="white"/>
<circle cx="310.685" cy="104.575" r="1.16688" transform="rotate(75 310.685 104.575)" fill="white"/>
<circle cx="214.253" cy="306.768" r="1.16688" transform="rotate(75 214.253 306.768)" fill="white"/>
<circle cx="251.589" cy="134.047" r="1.16688" transform="rotate(75 251.589 134.047)" fill="white"/>
<circle cx="10.087" cy="12.3666" r="1.16688" transform="rotate(75 10.087 12.3666)" fill="white"/>
<circle cx="320.177" cy="231.31" r="1.16688" fill="white"/>
<circle cx="217.76" cy="208.162" r="1.16688" transform="rotate(165 217.76 208.162)" fill="white"/>
<circle cx="216.987" cy="70.7006" r="1.16688" transform="rotate(75 216.987 70.7006)" fill="white"/>
<circle cx="117.015" cy="143.289" r="1.16688" transform="rotate(75 117.015 143.289)" fill="white"/>
<circle cx="226.39" cy="139.188" r="1.16688" transform="rotate(75 226.39 139.188)" fill="white"/>
<circle cx="27.6925" cy="38.4721" r="1.16688" transform="rotate(75 27.6925 38.4721)" fill="white"/>
<circle cx="23.6708" cy="121.893" r="1.16688" fill="white"/>
<circle cx="200.874" cy="207.05" r="1.16688" transform="rotate(165 200.874 207.05)" fill="white"/>
<circle cx="284.372" cy="126.604" r="1.16688" transform="rotate(75 284.372 126.604)" fill="white"/>
<circle cx="13.7335" cy="323.63" r="1.16688" transform="rotate(75 13.7335 323.63)" fill="white"/>
<circle cx="225.278" cy="156.077" r="1.16688" transform="rotate(75 225.278 156.077)" fill="white"/>
<circle cx="26.5792" cy="55.3608" r="1.16688" transform="rotate(75 26.5792 55.3608)" fill="white"/>
<circle cx="43.0927" cy="61.3231" r="1.16688" fill="white"/>
<circle cx="49.4735" cy="27.1434" r="1.16688" fill="white"/>
<circle cx="69.5263" cy="41.2714" r="1.16688" fill="white"/>
<circle cx="81.3739" cy="11.1932" r="1.16688" fill="white"/>
<circle cx="273.692" cy="83.6542" r="1.16688" fill="white"/>
<circle cx="312.886" cy="35.8026" r="1.16688" fill="white"/>
<circle cx="253.64" cy="54.9432" r="1.16688" fill="white"/>
<circle cx="249.083" cy="29.4227" r="1.16688" fill="white"/>
<circle cx="167.052" cy="5.72449" r="1.16688" fill="white"/>
<circle cx="133.784" cy="8.91492" r="1.16688" fill="white"/>
<circle cx="136.061" cy="40.8153" r="1.16688" fill="white"/>
<circle cx="90.4891" cy="71.8055" r="1.16688" fill="white"/>
<circle cx="208.067" cy="17.5731" r="1.16688" fill="white"/>
<circle cx="219.005" cy="47.1962" r="1.16688" fill="white"/>
<circle cx="243.614" cy="90.0341" r="1.16688" fill="white"/>
<circle cx="123.302" cy="71.8055" r="1.16688" fill="white"/>
<circle cx="107.808" cy="96.4149" r="1.16688" fill="white"/>
<circle cx="144.319" cy="266.498" r="1.16688" transform="rotate(165 144.319 266.498)" fill="white"/>
<circle cx="343.821" cy="183.158" r="1.16688" transform="rotate(75 343.821 183.158)" fill="white"/>
<circle cx="175.351" cy="216.732" r="1.16688" transform="rotate(75 175.351 216.732)" fill="white"/>
<circle cx="284.726" cy="212.63" r="1.16688" transform="rotate(75 284.726 212.63)" fill="white"/>
<circle cx="86.0284" cy="111.914" r="1.16688" transform="rotate(75 86.0284 111.914)" fill="white"/>
<circle cx="9.37" cy="55.8544" r="1.16688" fill="white"/>
<circle cx="126.225" cy="263.293" r="1.16688" transform="rotate(165 126.225 263.293)" fill="white"/>
<circle cx="340.616" cy="201.251" r="1.16688" transform="rotate(75 340.616 201.251)" fill="white"/>
<circle cx="114.448" cy="331.377" r="1.16688" transform="rotate(75 114.448 331.377)" fill="white"/>
<circle cx="281.521" cy="230.724" r="1.16688" transform="rotate(75 281.521 230.724)" fill="white"/>
<circle cx="308.134" cy="246.157" r="1.16688" transform="rotate(75 308.134 246.157)" fill="white"/>
<circle cx="279.878" cy="253.904" r="1.16688" transform="rotate(75 279.878 253.904)" fill="white"/>
<circle cx="239.775" cy="278.513" r="1.16688" transform="rotate(75 239.775 278.513)" fill="white"/>
<circle cx="197.847" cy="185.088" r="1.16688" transform="rotate(75 197.847 185.088)" fill="white"/>
<circle cx="144.983" cy="206.963" r="1.16688" transform="rotate(75 144.983 206.963)" fill="white"/>
<circle cx="145.894" cy="244.333" r="1.16688" transform="rotate(75 145.894 244.333)" fill="white"/>
<circle cx="93.9405" cy="209.698" r="1.16688" transform="rotate(75 93.9405 209.698)" fill="white"/>
<circle cx="93.0304" cy="184.177" r="1.16688" transform="rotate(75 93.0304 184.177)" fill="white"/>
<circle cx="82.8233" cy="130.007" r="1.16688" transform="rotate(75 82.8233 130.007)" fill="white"/>
<circle cx="101.774" cy="130.295" r="1.16688" fill="white"/>
<circle cx="123.256" cy="219.15" r="1.16688" transform="rotate(165 123.256 219.15)" fill="white"/>
<circle cx="326.362" cy="266.208" r="1.16688" transform="rotate(75 326.362 266.208)" fill="white"/>
<circle cx="313.603" cy="187.823" r="1.16688" transform="rotate(75 313.603 187.823)" fill="white"/>
<circle cx="321.806" cy="169.594" r="1.16688" transform="rotate(75 321.806 169.594)" fill="white"/>
<circle cx="285.347" cy="148.63" r="1.16688" transform="rotate(75 285.347 148.63)" fill="white"/>
<circle cx="329.097" cy="322.718" r="1.16688" transform="rotate(75 329.097 322.718)" fill="white"/>
<circle cx="255.726" cy="157.745" r="1.16688" transform="rotate(75 255.726 157.745)" fill="white"/>
<circle cx="337.757" cy="91.2084" r="1.16688" transform="rotate(75 337.757 91.2084)" fill="white"/>
<circle cx="341.401" cy="69.3334" r="1.16688" transform="rotate(75 341.401 69.3334)" fill="white"/>
<circle cx="128.003" cy="237.794" r="1.16688" transform="rotate(75 128.003 237.794)" fill="white"/>
<circle cx="237.378" cy="233.693" r="1.16688" transform="rotate(75 237.378 233.693)" fill="white"/>
<circle cx="247.066" cy="216.534" r="1.16688" transform="rotate(75 247.066 216.534)" fill="white"/>
<circle cx="221.546" cy="184.633" r="1.16688" transform="rotate(75 221.546 184.633)" fill="white"/>
<circle cx="38.6788" cy="132.977" r="1.16688" transform="rotate(75 38.6788 132.977)" fill="white"/>
<circle cx="46.7391" cy="342.053" r="1.16688" fill="white"/>
<circle cx="131.026" cy="187.43" r="1.16688" transform="rotate(165 131.026 187.43)" fill="white"/>
<circle cx="264.753" cy="196.452" r="1.16688" transform="rotate(75 264.753 196.452)" fill="white"/>
<circle cx="96.2823" cy="230.026" r="1.16688" transform="rotate(75 96.2823 230.026)" fill="white"/>
<circle cx="205.657" cy="225.924" r="1.16688" transform="rotate(75 205.657 225.924)" fill="white"/>
<circle cx="269.398" cy="336.846" r="1.16688" transform="rotate(75 269.398 336.846)" fill="white"/>
<circle cx="79.8368" cy="172.925" r="1.16688" fill="white"/>
<circle cx="133.413" cy="172.294" r="1.16688" transform="rotate(165 133.413 172.294)" fill="white"/>
<circle cx="249.616" cy="194.064" r="1.16688" transform="rotate(75 249.616 194.064)" fill="white"/>
<circle cx="81.1476" cy="227.638" r="1.16688" transform="rotate(75 81.1476 227.638)" fill="white"/>
<circle cx="190.523" cy="223.537" r="1.16688" transform="rotate(75 190.523 223.537)" fill="white"/>
<circle cx="105.663" cy="158.611" r="1.16688" fill="white"/>
<circle cx="112.17" cy="192.805" r="1.16688" transform="rotate(165 112.17 192.805)" fill="white"/>
<circle cx="270.128" cy="215.306" r="1.16688" transform="rotate(75 270.128 215.306)" fill="white"/>
<circle cx="101.657" cy="248.88" r="1.16688" transform="rotate(75 101.657 248.88)" fill="white"/>
<circle cx="211.032" cy="244.779" r="1.16688" transform="rotate(75 211.032 244.779)" fill="white"/>
<circle cx="12.335" cy="144.062" r="1.16688" transform="rotate(75 12.335 144.062)" fill="white"/>
<path d="M255.397 175.378L254.977 174.242L253.841 173.822L254.977 173.402L255.397 172.266L255.818 173.402L256.953 173.822L255.818 174.242L255.397 175.378Z" fill="#FFF7B0"/>
<path d="M88.8035 163.528L88.3833 162.393L87.2477 161.972L88.3833 161.552L88.8035 160.417L89.2238 161.552L90.3594 161.972L89.2238 162.393L88.8035 163.528Z" fill="#FFF7B0"/>
<path d="M53.7117 68.2812L53.2915 67.1456L52.1559 66.7254L53.2915 66.3052L53.7117 65.1696L54.132 66.3052L55.2676 66.7254L54.132 67.1456L53.7117 68.2812Z" fill="#FFF7B0"/>
<path d="M339.251 47.7734L338.831 46.6378L337.695 46.2176L338.831 45.7974L339.251 44.6618L339.671 45.7974L340.807 46.2176L339.671 46.6378L339.251 47.7734Z" fill="#FFF7B0"/>
<path d="M239.907 220.862L239.487 219.727L238.351 219.306L239.487 218.886L239.907 217.751L240.327 218.886L241.463 219.306L240.327 219.727L239.907 220.862Z" fill="#FFF7B0"/>
<path d="M80.4012 217.672L79.981 216.536L78.8454 216.116L79.981 215.696L80.4012 214.56L80.8214 215.696L81.957 216.116L80.8214 216.536L80.4012 217.672Z" fill="#FFF7B0"/>
<path d="M45.3094 122.425L44.8892 121.289L43.7536 120.869L44.8892 120.449L45.3094 119.313L45.7296 120.449L46.8652 120.869L45.7296 121.289L45.3094 122.425Z" fill="#FFF7B0"/>
<path d="M288.214 116.5L287.793 115.364L286.658 114.944L287.793 114.524L288.214 113.388L288.634 114.524L289.77 114.944L288.634 115.364L288.214 116.5Z" fill="#FFF7B0"/>
<path d="M250.641 205.148L250.221 204.013L249.086 203.593L250.221 203.172L250.641 202.037L251.062 203.172L252.197 203.593L251.062 204.013L250.641 205.148Z" fill="#FFF7B0"/>
<path d="M91.1356 201.958L90.7154 200.822L89.5797 200.402L90.7154 199.982L91.1356 198.846L91.5558 199.982L92.6914 200.402L91.5558 200.822L91.1356 201.958Z" fill="#FFF7B0"/>
<path d="M56.0457 106.711L55.6255 105.575L54.4899 105.155L55.6255 104.735L56.0457 103.599L56.4659 104.735L57.6016 105.155L56.4659 105.575L56.0457 106.711Z" fill="#FFF7B0"/>
<path d="M298.948 100.786L298.528 99.6505L297.392 99.2303L298.528 98.8101L298.948 97.6745L299.368 98.8101L300.504 99.2303L299.368 99.6505L298.948 100.786Z" fill="#FFF7B0"/>
<path d="M248.307 243.577L247.887 242.442L246.752 242.021L247.887 241.601L248.307 240.465L248.728 241.601L249.863 242.021L248.728 242.442L248.307 243.577Z" fill="#FFF7B0"/>
<path d="M270.891 243.737L270.471 242.602L269.336 242.181L270.471 241.761L270.891 240.626L271.312 241.761L272.447 242.181L271.312 242.602L270.891 243.737Z" fill="#FFF7B0"/>
<path d="M254.485 258.32L254.065 257.185L252.929 256.764L254.065 256.344L254.485 255.209L254.905 256.344L256.041 256.764L254.905 257.185L254.485 258.32Z" fill="#FFF7B0"/>
<path d="M88.8035 240.388L88.3833 239.252L87.2477 238.832L88.3833 238.412L88.8035 237.276L89.2238 238.412L90.3594 238.832L89.2238 239.252L88.8035 240.388Z" fill="#FFF7B0"/>
<path d="M53.7117 145.14L53.2915 144.004L52.1559 143.584L53.2915 143.164L53.7117 142.028L54.132 143.164L55.2676 143.584L54.132 144.004L53.7117 145.14Z" fill="#FFF7B0"/>
<path d="M296.614 139.216L296.194 138.08L295.058 137.66L296.194 137.24L296.614 136.104L297.034 137.24L298.17 137.66L297.034 138.08L296.614 139.216Z" fill="#FFF7B0"/>
<path d="M161.316 310.329L160.581 308.342L158.594 307.606L160.581 306.871L161.316 304.884L162.052 306.871L164.039 307.606L162.052 308.342L161.316 310.329Z" fill="#FFF7B0"/>
<path d="M110.662 247.233L109.927 245.246L107.939 244.511L109.927 243.775L110.662 241.788L111.397 243.775L113.385 244.511L111.397 245.246L110.662 247.233Z" fill="#FFF7B0"/>
<path d="M91.1328 146.722L90.3974 144.734L88.41 143.999L90.3974 143.264L91.1328 141.276L91.8681 143.264L93.8555 143.999L91.8681 144.734L91.1328 146.722Z" fill="#FFF7B0"/>
<path d="M98.4257 43.7266L97.6903 41.7392L95.703 41.0038L97.6903 40.2685L98.4257 38.2811L99.1611 40.2685L101.148 41.0038L99.1611 41.7392L98.4257 43.7266Z" fill="#FFF7B0"/>
<path d="M311.25 209.612L310.515 207.625L308.527 206.89L310.515 206.154L311.25 204.167L311.985 206.154L313.973 206.89L311.985 207.625L311.25 209.612Z" fill="#FFF7B0"/>
<path d="M221.314 199.392L220.579 197.404L218.592 196.669L220.579 195.934L221.314 193.946L222.05 195.934L224.037 196.669L222.05 197.404L221.314 199.392Z" fill="#FFF7B0"/>
<path d="M65.6132 303.493L64.8778 301.506L62.8905 300.77L64.8778 300.035L65.6132 298.048L66.3486 300.035L68.3359 300.77L66.3486 301.506L65.6132 303.493Z" fill="#FFF7B0"/>
<path d="M26.7167 100.954L25.9814 98.9668L23.994 98.2314L25.9814 97.496L26.7167 95.5087L27.4521 97.496L29.4395 98.2314L27.4521 98.9668L26.7167 100.954Z" fill="#FFF7B0"/>
<path d="M301.68 86.1104L300.944 84.123L298.957 83.3876L300.944 82.6523L301.68 80.6649L302.415 82.6523L304.402 83.3876L302.415 84.123L301.68 86.1104Z" fill="#FFF7B0"/>
<path d="M287.098 50.5635L286.362 48.5761L284.375 47.8408L286.362 47.1054L287.098 45.118L287.833 47.1054L289.82 47.8408L287.833 48.5761L287.098 50.5635Z" fill="#FFF7B0"/>
<path d="M335.859 5.90137L335.124 3.91403L333.137 3.17865L335.124 2.44327L335.859 0.455936L336.595 2.44327L338.582 3.17865L336.595 3.91403L335.859 5.90137Z" fill="#FFF7B0"/>
<path d="M264.723 228.33L263.987 226.343L262 225.607L263.987 224.872L264.723 222.885L265.458 224.872L267.445 225.607L265.458 226.343L264.723 228.33Z" fill="#FFF7B0"/>
<path d="M292.109 267.49L291.374 265.503L289.387 264.768L291.374 264.032L292.109 262.045L292.845 264.032L294.832 264.768L292.845 265.503L292.109 267.49Z" fill="#FFF7B0"/>
<path d="M264.766 284.808L264.03 282.82L262.043 282.085L264.03 281.35L264.766 279.362L265.501 281.35L267.488 282.085L265.501 282.82L264.766 284.808Z" fill="#FFF7B0"/>
<path d="M105.217 225.14L104.481 223.152L102.494 222.417L104.481 221.682L105.217 219.694L105.952 221.682L107.939 222.417L105.952 223.152L105.217 225.14Z" fill="#FFF7B0"/>
<path d="M16.3945 261.11L15.6591 259.123L13.6718 258.388L15.6591 257.652L16.3945 255.665L17.1299 257.652L19.1172 258.388L17.1299 259.123L16.3945 261.11Z" fill="#FFF7B0"/>
<path d="M313.029 123.968L312.294 121.98L310.307 121.245L312.294 120.51L313.029 118.522L313.765 120.51L315.752 121.245L313.765 121.98L313.029 123.968Z" fill="#FFF7B0"/>
<path d="M280.125 170.608L279.39 168.621L277.402 167.886L279.39 167.15L280.125 165.163L280.86 167.15L282.848 167.886L280.86 168.621L280.125 170.608Z" fill="#FFF7B0"/>
<path d="M232.41 175.889L231.675 173.901L229.687 173.166L231.675 172.431L232.41 170.443L233.145 172.431L235.133 173.166L233.145 173.901L232.41 175.889Z" fill="#FFF7B0"/>
<path d="M29.1542 236.045L28.4189 234.058L26.4315 233.322L28.4189 232.587L29.1542 230.599L29.8896 232.587L31.877 233.322L29.8896 234.058L29.1542 236.045Z" fill="#FFF7B0"/>
<path d="M73.8163 273.415L73.081 271.428L71.0936 270.692L73.081 269.957L73.8163 267.97L74.5517 269.957L76.5391 270.692L74.5517 271.428L73.8163 273.415Z" fill="#FFF7B0"/>
<path d="M37.8255 287.109L36.2254 282.785L31.901 281.185L36.2254 279.585L37.8255 275.26L39.4257 279.585L43.75 281.185L39.4257 282.785L37.8255 287.109Z" fill="#FFF7B0"/>
<path d="M114.843 25.9766L113.243 21.6522L108.919 20.0521L113.243 18.4519L114.843 14.1276L116.443 18.4519L120.768 20.0521L116.443 21.6522L114.843 25.9766Z" fill="#FFF7B0"/>
<path d="M313.997 154.948L312.397 150.624L308.073 149.024L312.397 147.424L313.997 143.099L315.598 147.424L319.922 149.024L315.598 150.624L313.997 154.948Z" fill="#FFF7B0"/>
<path d="M121.668 298.024L120.933 296.037L118.945 295.302L120.933 294.566L121.668 292.579L122.403 294.566L124.391 295.302L122.403 296.037L121.668 298.024Z" fill="#FFF7B0"/>
<path d="M36.4453 185.915L35.7099 183.928L33.7225 183.192L35.7099 182.457L36.4453 180.47L37.1806 182.457L39.168 183.192L37.1806 183.928L36.4453 185.915Z" fill="#FFF7B0"/>
<path d="M328.432 66.2461L327.696 64.2588L325.709 63.5234L327.696 62.788L328.432 60.8007L329.167 62.788L331.154 63.5234L329.167 64.2588L328.432 66.2461Z" fill="#FFF7B0"/>
<path d="M280.262 19.1172L279.526 17.1299L277.539 16.3945L279.526 15.6591L280.262 13.6718L280.997 15.6591L282.984 16.3945L280.997 17.1299L280.262 19.1172Z" fill="#FFF7B0"/>
<path d="M227.46 250.423L227.04 249.287L225.904 248.867L227.04 248.447L227.46 247.311L227.88 248.447L229.016 248.867L227.88 249.287L227.46 250.423Z" fill="#FFF7B0"/>
<path d="M67.9539 247.233L67.5337 246.098L66.3981 245.678L67.5337 245.257L67.9539 244.122L68.3741 245.257L69.5098 245.678L68.3741 246.098L67.9539 247.233Z" fill="#FFF7B0"/>
<path d="M32.8641 151.985L32.4439 150.85L31.3082 150.43L32.4439 150.009L32.8641 148.874L33.2843 150.009L34.4199 150.43L33.2843 150.85L32.8641 151.985Z" fill="#FFF7B0"/>
<path d="M275.766 146.062L275.346 144.926L274.211 144.506L275.346 144.085L275.766 142.95L276.187 144.085L277.322 144.506L276.187 144.926L275.766 146.062Z" fill="#FFF7B0"/>
<path d="M210.657 227.396L210.237 226.261L209.101 225.841L210.237 225.42L210.657 224.285L211.077 225.42L212.213 225.841L211.077 226.261L210.657 227.396Z" fill="#FFF7B0"/>
<path d="M51.1512 224.207L50.731 223.071L49.5954 222.651L50.731 222.231L51.1512 221.095L51.5714 222.231L52.707 222.651L51.5714 223.071L51.1512 224.207Z" fill="#FFF7B0"/>
<path d="M196.151 340.808L195.731 339.672L194.595 339.252L195.731 338.832L196.151 337.696L196.571 338.832L197.707 339.252L196.571 339.672L196.151 340.808Z" fill="#FFF7B0"/>
<path d="M258.964 123.035L258.543 121.9L257.408 121.479L258.543 121.059L258.964 119.923L259.384 121.059L260.52 121.479L259.384 121.9L258.964 123.035Z" fill="#FFF7B0"/>
<path d="M249.472 297.058L249.051 295.922L247.916 295.502L249.051 295.082L249.472 293.946L249.892 295.082L251.027 295.502L249.892 295.922L249.472 297.058Z" fill="#FFF7B0"/>
<path d="M48.0399 263.103L47.6196 261.967L46.484 261.547L47.6196 261.126L48.0399 259.991L48.4601 261.126L49.5957 261.547L48.4601 261.967L48.0399 263.103Z" fill="#FFF7B0"/>
<path d="M15.6824 205.911L15.2622 204.776L14.1266 204.355L15.2622 203.935L15.6824 202.799L16.1027 203.935L17.2383 204.355L16.1027 204.776L15.6824 205.911Z" fill="#FFF7B0"/>
<path d="M266.79 160.339L266.37 159.203L265.234 158.783L266.37 158.363L266.79 157.227L267.21 158.363L268.346 158.783L267.21 159.203L266.79 160.339Z" fill="#FFF7B0"/>
</g>
<g clip-path="url(#clip1_631_62032)">
<g style="mix-blend-mode:overlay">
<path fill-rule="evenodd" clip-rule="evenodd" d="M10.4369 299.782C54.2415 325.073 110.254 310.064 135.545 266.26C160.835 222.455 145.827 166.443 102.022 141.152C58.2176 115.861 2.205 130.87 -23.0856 174.674C-48.3761 218.479 -33.3676 274.492 10.4369 299.782ZM-9.86639 182.307C9.869 148.124 52.0534 134.983 87.3121 150.756L50.9362 213.761L-19.1339 232.536C-21.8209 215.821 -18.9908 198.11 -9.86639 182.307ZM64.1556 221.392L100.562 158.335C132.245 180.885 142.165 224.264 122.325 258.628C113.123 274.566 99.0398 285.93 83.0537 291.921L64.1556 221.392ZM68.2984 295.83C53.8474 298.153 38.6516 296.353 24.5878 289.926L53.3621 240.087L68.2984 295.83ZM-15.2247 247.291L40.1428 232.455L11.399 282.241C-1.06556 273.218 -10.1065 260.949 -15.2247 247.291Z" fill="white" fill-opacity="0.25"/>
</g>
<g style="mix-blend-mode:overlay">
<path fill-rule="evenodd" clip-rule="evenodd" d="M345.566 216.307C379.83 196.525 391.57 152.711 371.788 118.446C352.005 84.1814 308.191 72.4415 273.926 92.2242C239.662 112.007 227.922 155.821 247.704 190.086C267.487 224.35 311.301 236.09 345.566 216.307ZM258.045 184.116C242.607 157.377 250.204 123.661 274.679 105.945L303.133 155.229L288.446 210.039C276.073 205.322 265.182 196.478 258.045 184.116ZM313.473 149.258L284.995 99.934C312.663 87.2907 345.928 97.5364 361.447 124.416C368.646 136.884 370.835 150.868 368.642 164.041L313.473 149.258ZM365.519 175.565C361.441 186.263 354.278 195.853 344.423 202.866L321.916 163.882L365.519 175.565ZM299.971 213.161L311.576 169.852L334.059 208.795C323.072 213.71 311.225 215.036 299.971 213.161Z" fill="white" fill-opacity="0.25"/>
</g>
<g style="mix-blend-mode:overlay">
<path fill-rule="evenodd" clip-rule="evenodd" d="M161.393 63.3176C185.121 49.6185 193.25 19.2784 179.551 -4.44903C165.852 -28.1765 135.512 -36.3061 111.785 -22.607C88.0571 -8.90799 79.9275 21.4321 93.6266 45.1596C107.326 68.887 137.666 77.0166 161.393 63.3176ZM100.787 41.0255C90.097 22.5099 95.3577 -0.837533 112.306 -13.1056L132.009 21.022L121.839 58.9766C113.271 55.7102 105.729 49.5859 100.787 41.0255ZM139.17 16.8878L119.45 -17.2682C138.608 -26.0233 161.644 -18.9285 172.391 -0.314977C177.375 8.31846 178.892 18.0026 177.373 27.1243L139.17 16.8878ZM175.21 35.1046C172.386 42.5128 167.426 49.1533 160.602 54.0101L145.016 27.0142L175.21 35.1046ZM129.82 61.139L137.856 31.1483L153.425 58.1156C145.817 61.519 137.613 62.4372 129.82 61.139Z" fill="white" fill-opacity="0.25"/>
</g>
</g>
</g>
<path d="M125.512 312.516C125.131 312.311 124.967 311.868 125.102 311.457L138.024 272.347C138.075 272.193 138.083 272.027 138.049 271.868L125.243 212.729C125.086 212.005 125.808 211.381 126.503 211.636C131.736 213.556 149.257 219.177 174.999 219.177C200.742 219.177 218.263 213.556 223.496 211.636C224.191 211.381 224.912 212.005 224.756 212.729L211.95 271.868C211.915 272.027 211.924 272.193 211.975 272.347L224.896 311.457C225.032 311.868 224.868 312.311 224.487 312.516C220.654 314.576 200.123 324.935 174.999 324.935C149.876 324.935 129.345 314.576 125.512 312.516Z" fill="url(#paint2_linear_631_62032)"/>
<g filter="url(#filter3_f_631_62032)">
<mask id="mask0_631_62032" style="mask-type:alpha" maskUnits="userSpaceOnUse" x="123" y="211" width="102" height="115">
<path d="M124.15 312.921C123.767 312.716 123.602 312.271 123.739 311.859L136.778 272.593C136.829 272.437 136.838 272.271 136.803 272.112L123.879 212.727C123.722 212.004 124.442 211.379 125.137 211.633C130.398 213.555 148.088 219.21 174.09 219.21C200.092 219.21 217.781 213.555 223.043 211.633C223.738 211.379 224.458 212.004 224.301 212.727L211.376 272.112C211.341 272.271 211.35 272.437 211.402 272.593L224.441 311.859C224.577 312.271 224.412 312.716 224.03 312.921C220.168 314.985 199.447 325.391 174.09 325.391C148.732 325.391 128.012 314.985 124.15 312.921Z" fill="#2D2E32"/>
<path d="M124.15 312.921C123.767 312.716 123.602 312.271 123.739 311.859L136.778 272.593C136.829 272.437 136.838 272.271 136.803 272.112L123.879 212.727C123.722 212.004 124.442 211.379 125.137 211.633C130.398 213.555 148.088 219.21 174.09 219.21C200.092 219.21 217.781 213.555 223.043 211.633C223.738 211.379 224.458 212.004 224.301 212.727L211.376 272.112C211.341 272.271 211.35 272.437 211.402 272.593L224.441 311.859C224.577 312.271 224.412 312.716 224.03 312.921C220.168 314.985 199.447 325.391 174.09 325.391C148.732 325.391 128.012 314.985 124.15 312.921Z" fill="url(#paint3_linear_631_62032)"/>
</mask>
<g mask="url(#mask0_631_62032)">
<g opacity="0.25" filter="url(#filter4_df_631_62032)">
<path d="M72.918 273.328C168.03 276.031 230.126 228.043 249.285 203.711H72.918V273.328Z" fill="url(#paint4_linear_631_62032)" fill-opacity="0.55" shape-rendering="crispEdges"/>
</g>
<path opacity="0.25" d="M133.955 266.931C133.955 244.081 107.521 196.067 97.7304 174.84C104.257 172.554 120.64 169.354 133.955 174.84C150.598 181.698 156.221 243.968 160.137 262.583C163.27 277.474 139.176 326.693 133.955 347.266H68.3594C118.29 320.814 133.955 284.566 133.955 266.931Z" fill="url(#paint5_radial_631_62032)"/>
<path opacity="0.25" d="M148.539 271.033C148.539 248.183 122.105 200.168 112.314 178.941C118.841 176.655 135.224 173.455 148.539 178.941C165.182 185.799 170.805 248.07 174.721 266.684C177.854 281.576 153.76 330.794 148.539 351.368H82.9434C132.874 324.916 148.539 288.667 148.539 271.033Z" fill="url(#paint6_radial_631_62032)"/>
</g>
</g>
<mask id="mask1_631_62032" style="mask-type:alpha" maskUnits="userSpaceOnUse" x="125" y="211" width="100" height="114">
<path d="M125.512 312.516C125.131 312.311 124.967 311.868 125.102 311.457L138.024 272.347C138.075 272.193 138.083 272.027 138.049 271.868L125.243 212.729C125.086 212.005 125.808 211.381 126.503 211.636C131.736 213.556 149.257 219.177 174.999 219.177C200.742 219.177 218.263 213.556 223.496 211.636C224.191 211.381 224.912 212.005 224.756 212.729L211.95 271.868C211.915 272.027 211.924 272.193 211.975 272.347L224.896 311.457C225.032 311.868 224.868 312.311 224.487 312.516C220.654 314.576 200.123 324.935 174.999 324.935C149.876 324.935 129.345 314.576 125.512 312.516Z" fill="url(#paint7_linear_631_62032)"/>
</mask>
<g mask="url(#mask1_631_62032)">
<g style="mix-blend-mode:overlay">
<circle cx="146.593" cy="302.831" r="1.22977" fill="white"/>
<circle cx="137.222" cy="247.41" r="1.22977" fill="white"/>
<circle cx="158.355" cy="262.299" r="1.22977" fill="white"/>
<circle cx="160.734" cy="240.944" r="1.22977" fill="white"/>
<circle cx="180.449" cy="294.479" r="1.22977" fill="white"/>
<circle cx="215.029" cy="294.479" r="1.22977" fill="white"/>
<circle cx="198.699" cy="320.414" r="1.22977" fill="white"/>
<path d="M141.688 290.765L141.246 289.568L140.049 289.125L141.246 288.682L141.688 287.485L142.131 288.682L143.328 289.125L142.131 289.568L141.688 290.765Z" fill="#FFF7B0"/>
<path d="M188.812 264.888L188.037 262.793L185.943 262.018L188.037 261.243L188.812 259.149L189.587 261.243L191.682 262.018L189.587 262.793L188.812 264.888Z" fill="#FFF7B0"/>
<path d="M175.134 239.528L174.359 237.434L172.265 236.659L174.359 235.884L175.134 233.789L175.909 235.884L178.004 236.659L175.909 237.434L175.134 239.528Z" fill="#FFF7B0"/>
<path d="M161.463 315.635L160.688 313.54L158.593 312.765L160.688 311.99L161.463 309.896L162.238 311.99L164.332 312.765L162.238 313.54L161.463 315.635Z" fill="#FFF7B0"/>
<path d="M197.009 295.583L196.234 293.489L194.14 292.714L196.234 291.939L197.009 289.844L197.784 291.939L199.879 292.714L197.784 293.489L197.009 295.583Z" fill="#FFF7B0"/>
<path d="M206.114 246.181L204.427 241.623L199.87 239.937L204.427 238.251L206.114 233.693L207.8 238.251L212.357 239.937L207.8 241.623L206.114 246.181Z" fill="#FFF7B0"/>
<path opacity="0.25" d="M147.198 237.436L143.628 227.789L133.982 224.219L143.628 220.65L147.198 211.003L150.767 220.65L160.414 224.219L150.767 227.789L147.198 237.436Z" fill="#FFF7B0"/>
<path opacity="0.25" d="M161.782 298.959L158.212 289.146L148.566 285.515L158.212 281.884L161.782 272.071L165.351 281.884L174.998 285.515L165.351 289.146L161.782 298.959Z" fill="#FFF7B0"/>
<path opacity="0.25" d="M211.686 280.273L208.547 271.791L200.064 268.652L208.547 265.514L211.686 257.031L214.824 265.514L223.307 268.652L214.824 271.791L211.686 280.273Z" fill="#FFF7B0"/>
</g>
</g>
<path d="M148.648 94.3359L124.888 210.019C124.817 210.364 124.947 210.715 125.237 210.917C128.357 213.084 146.959 225.13 174.999 225.13C203.04 225.13 221.642 213.084 224.761 210.917C225.052 210.715 225.182 210.364 225.11 210.019L201.351 94.3359C201.317 94.4029 201.272 94.4652 201.218 94.5207C199.882 95.8694 193.227 101.485 174.999 101.485C156.772 101.485 150.117 95.8694 148.781 94.5207C148.726 94.4652 148.682 94.4029 148.648 94.3359Z" fill="black" fill-opacity="0.75"/>
<path d="M223.108 211.889C217.521 215.444 199.995 225.13 174.886 225.13C146.901 225.13 128.335 213.097 125.221 210.933C125.031 210.801 124.91 210.605 124.869 210.389C128.807 199.004 144.114 175.859 164.063 181.918C173.943 184.919 180.859 192.451 187.363 199.535C197.437 210.507 206.524 220.404 224.105 210.722C223.783 211.109 223.45 211.498 223.108 211.889Z" fill="url(#paint8_radial_631_62032)"/>
<path d="M214.05 156.619L218.83 179.909C216.931 182.156 214.117 184.129 210.035 185.164C197.277 188.398 184.113 181.121 184.113 170.207C184.113 164.75 187.921 153.876 203.15 154.038C207.742 154.087 211.307 155.092 214.05 156.619Z" fill="url(#paint9_radial_631_62032)"/>
<path d="M177.734 130.913C177.734 127.951 179.774 122.048 187.933 122.136C196.091 122.224 198.203 128.024 198.239 130.913C198.312 133.035 197.089 137.628 191.621 139.033C184.786 140.788 177.734 136.838 177.734 130.913Z" fill="url(#paint10_radial_631_62032)"/>
<path d="M201.049 94.2302L205.113 114.031C203.523 113.76 201.871 113.447 200.18 113.127C186.038 110.452 169.252 107.276 165.003 123.73C163.148 130.914 165.836 135.212 168.45 139.393C170.975 143.43 173.431 147.358 171.668 153.668C169.523 161.349 157.859 166.324 148.479 162.994C138.57 159.476 139.266 144.903 144.961 137.849C150.656 130.794 151.48 120.03 150.656 112.87C150.259 109.409 148.549 106.934 146.313 105.25L148.649 93.8799C148.683 93.9469 148.727 94.0092 148.782 94.0646C150.117 95.4133 156.772 101.029 175 101.029C192.557 101.029 199.378 95.8187 201.049 94.2302Z" fill="url(#paint11_radial_631_62032)"/>
<mask id="mask2_631_62032" style="mask-type:alpha" maskUnits="userSpaceOnUse" x="124" y="180" width="101" height="46">
<path d="M223.108 211.89C217.521 215.445 199.995 225.131 174.886 225.131C146.901 225.131 128.335 213.098 125.221 210.934C125.031 210.802 124.91 210.606 124.869 210.39C128.807 199.005 144.114 175.86 164.063 181.919C173.943 184.92 180.859 192.452 187.363 199.536C197.437 210.508 206.524 220.405 224.105 210.722C223.783 211.11 223.45 211.499 223.108 211.89Z" fill="url(#paint12_radial_631_62032)"/>
</mask>
<g mask="url(#mask2_631_62032)">
<g filter="url(#filter5_f_631_62032)">
<mask id="mask3_631_62032" style="mask-type:alpha" maskUnits="userSpaceOnUse" x="124" y="94" width="102" height="132">
<path d="M148.861 95.0639C148.948 94.6401 149.321 94.3359 149.754 94.3359H200.245C200.678 94.3359 201.051 94.6401 201.138 95.0639L224.992 211.159C225.074 211.555 224.887 211.955 224.526 212.137C220.623 214.109 198.375 224.817 174.999 225.128C151.577 225.438 129.287 214.178 125.449 212.14C125.099 211.954 124.923 211.562 125.003 211.173L148.861 95.0639Z" fill="#577096" fill-opacity="0.75"/>
</mask>
<g mask="url(#mask3_631_62032)">
<g filter="url(#filter6_f_631_62032)">
<path d="M155.405 125.301C156.468 105.018 134.469 86.1828 128.927 66.9985C133.386 65.1973 144.048 70.7896 152.673 76.1247C163.454 82.7936 162.877 109.124 164.623 125.784C166.02 139.112 148.451 223.401 144.013 241.481L131.714 240.837C140.24 214.68 154.586 140.955 155.405 125.301Z" fill="url(#paint13_linear_631_62032)" fill-opacity="0.6"/>
</g>
</g>
</g>
</g>
<g filter="url(#filter7_d_631_62032)">
<path d="M216.24 25.3082C216.24 25.3082 216.24 25.3119 216.238 25.3194C216.238 25.312 216.239 25.3082 216.24 25.3082ZM215.963 24.9661C216.147 25.163 216.21 25.2858 216.231 25.3391C216.21 25.3923 216.147 25.5151 215.963 25.712C215.626 26.0736 215.016 26.5321 214.038 27.0394C212.086 28.051 209.113 29.0299 205.248 29.8772C197.555 31.5637 186.818 32.626 174.883 32.626C162.947 32.626 152.211 31.5637 144.518 29.8772C140.653 29.0299 137.679 28.051 135.727 27.0394C134.749 26.5321 134.14 26.0736 133.802 25.712C133.618 25.5151 133.555 25.3923 133.534 25.3391C133.555 25.2858 133.618 25.163 133.802 24.9661C134.14 24.6045 134.749 24.146 135.727 23.6387C137.679 22.6271 140.653 21.6483 144.518 20.8009C152.211 19.1144 162.947 18.0521 174.883 18.0521C186.818 18.0521 197.555 19.1144 205.248 20.8009C209.113 21.6483 212.086 22.6271 214.038 23.6387C215.016 24.146 215.626 24.6045 215.963 24.9661ZM133.526 25.3082C133.526 25.3082 133.527 25.312 133.528 25.3194C133.526 25.3119 133.525 25.3082 133.526 25.3082ZM133.526 25.3699C133.525 25.3699 133.526 25.3662 133.528 25.3587C133.527 25.3661 133.526 25.3699 133.526 25.3699ZM216.238 25.3587C216.24 25.3662 216.24 25.3699 216.24 25.3699C216.239 25.3699 216.238 25.3661 216.238 25.3587Z" stroke="#FDF21B" stroke-width="4.55729" shape-rendering="crispEdges"/>
</g>
<path d="M154.311 55.4581C154.321 55.3893 154.323 55.3223 154.329 55.2531C154.401 54.5254 155.625 50.1299 174.786 50.1299C194.297 50.1299 195.584 54.688 195.669 55.2894C195.676 55.3335 195.679 55.3767 195.685 55.4208L201.375 93.9915C201.412 94.2408 201.345 94.4914 201.168 94.6706C199.835 96.0177 193.193 101.627 175.001 101.627C156.808 101.627 150.166 96.0177 148.833 94.6706C148.656 94.4914 148.589 94.2408 148.626 93.9915L154.311 55.4581Z" fill="url(#paint14_linear_631_62032)"/>
<mask id="mask4_631_62032" style="mask-type:alpha" maskUnits="userSpaceOnUse" x="148" y="49" width="54" height="53">
<path d="M154.311 55.003C154.321 54.9343 154.323 54.8672 154.329 54.7981C154.401 54.0704 155.625 49.6748 174.786 49.6748C194.297 49.6748 195.584 54.2329 195.669 54.8343C195.676 54.8784 195.679 54.9217 195.685 54.9657L201.375 93.5364C201.412 93.7857 201.345 94.0363 201.168 94.2155C199.835 95.5626 193.193 101.172 175.001 101.172C156.808 101.172 150.166 95.5626 148.833 94.2155C148.656 94.0363 148.589 93.7857 148.626 93.5364L154.311 55.003Z" fill="url(#paint15_linear_631_62032)"/>
</mask>
<g mask="url(#mask4_631_62032)">
<g style="mix-blend-mode:overlay">
<circle cx="156.737" cy="69.3848" r="1.21779" fill="white"/>
<circle cx="159.471" cy="52.0345" r="1.21779" transform="rotate(75 159.471 52.0345)" fill="white"/>
<circle cx="175.928" cy="81.5872" r="1.21779" transform="rotate(75 175.928 81.5872)" fill="white"/>
<circle cx="195.706" cy="81.8877" r="1.21779" fill="white"/>
<path d="M184.602 99.0312L183.834 96.9572L181.76 96.1897L183.834 95.4223L184.602 93.3482L185.369 95.4223L187.443 96.1897L185.369 96.9572L184.602 99.0312Z" fill="#FFF7B0"/>
<path d="M167.848 64.0391L167.08 61.965L165.006 61.1976L167.08 60.4301L167.848 58.356L168.615 60.4301L170.689 61.1976L168.615 61.965L167.848 64.0391Z" fill="#FFF7B0"/>
<path d="M183.766 76.3213L182.998 74.2472L180.924 73.4798L182.998 72.7123L183.766 70.6383L184.533 72.7123L186.607 73.4798L184.533 74.2472L183.766 76.3213Z" fill="#FFF7B0"/>
<path opacity="0.25" d="M162.697 94.3359L160.358 88.0158L154.038 85.6771L160.358 83.3384L162.697 77.0182L165.035 83.3384L171.355 85.6771L165.035 88.0158L162.697 94.3359Z" fill="#FFF7B0"/>
<path opacity="0.25" d="M192.773 63.8018L190.434 57.4816L184.114 55.1429L190.434 52.8042L192.773 46.4841L195.111 52.8042L201.432 55.1429L195.111 57.4816L192.773 63.8018Z" fill="#FFF7B0"/>
</g>
</g>
<path d="M175.436 324.935C200.388 324.935 220.779 314.576 224.586 312.516C224.965 312.311 225.127 311.868 224.993 311.457L212.16 272.348C212.109 272.193 212.1 272.028 212.134 271.869L224.853 212.73C224.994 212.074 224.419 211.501 223.797 211.588C224.205 211.32 224.528 211.099 224.763 210.935C225.051 210.733 225.179 210.383 225.109 210.037L201.396 93.6992C201.342 93.4322 201.174 93.2125 200.95 93.0866L195.578 55.4305C195.574 55.4034 195.571 55.3767 195.568 55.3498C195.565 55.3287 195.563 55.3076 195.56 55.2861C195.468 54.6605 194.145 50.1328 174.998 50.1328L175.436 324.935Z" fill="#161A70" fill-opacity="0.1"/>
<defs>
<filter id="filter0_f_631_62032" x="-1.74284" y="-1.77799" width="353.646" height="353.646" filterUnits="userSpaceOnUse" color-interpolation-filters="sRGB">
<feFlood flood-opacity="0" result="BackgroundImageFix"/>
<feBlend mode="normal" in="SourceGraphic" in2="BackgroundImageFix" result="shape"/>
<feGaussianBlur stdDeviation="0.911458" result="effect1_foregroundBlur_631_62032"/>
</filter>
<filter id="filter1_f_631_62032" x="-98.2702" y="267.839" width="550.007" height="194.694" filterUnits="userSpaceOnUse" color-interpolation-filters="sRGB">
<feFlood flood-opacity="0" result="BackgroundImageFix"/>
<feBlend mode="normal" in="SourceGraphic" in2="BackgroundImageFix" result="shape"/>
<feGaussianBlur stdDeviation="2.27865" result="effect1_foregroundBlur_631_62032"/>
</filter>
<filter id="filter2_f_631_62032" x="-103.46" y="-208.457" width="555.71" height="683.016" filterUnits="userSpaceOnUse" color-interpolation-filters="sRGB">
<feFlood flood-opacity="0" result="BackgroundImageFix"/>
<feBlend mode="normal" in="SourceGraphic" in2="BackgroundImageFix" result="shape"/>
<feGaussianBlur stdDeviation="2.27865" result="effect1_foregroundBlur_631_62032"/>
</filter>
<filter id="filter3_f_631_62032" x="120.313" y="208.724" width="106.454" height="118.945" filterUnits="userSpaceOnUse" color-interpolation-filters="sRGB">
<feFlood flood-opacity="0" result="BackgroundImageFix"/>
<feBlend mode="normal" in="SourceGraphic" in2="BackgroundImageFix" result="shape"/>
<feGaussianBlur stdDeviation="1.13932" result="effect1_foregroundBlur_631_62032"/>
</filter>
<filter id="filter4_df_631_62032" x="71.5508" y="202.799" width="179.102" height="72.9167" filterUnits="userSpaceOnUse" color-interpolation-filters="sRGB">
<feFlood flood-opacity="0" result="BackgroundImageFix"/>
<feColorMatrix in="SourceAlpha" type="matrix" values="0 0 0 0 0 0 0 0 0 0 0 0 0 0 0 0 0 0 127 0" result="hardAlpha"/>
<feOffset dy="0.911458"/>
<feGaussianBlur stdDeviation="0.683594"/>
<feComposite in2="hardAlpha" operator="out"/>
<feColorMatrix type="matrix" values="0 0 0 0 0 0 0 0 0 0 0 0 0 0 0 0 0 0 0.25 0"/>
<feBlend mode="normal" in2="BackgroundImageFix" result="effect1_dropShadow_631_62032"/>
<feBlend mode="normal" in="SourceGraphic" in2="effect1_dropShadow_631_62032" result="shape"/>
<feGaussianBlur stdDeviation="0.455729" result="effect2_foregroundBlur_631_62032"/>
</filter>
<filter id="filter5_f_631_62032" x="122.59" y="92.0573" width="104.817" height="135.355" filterUnits="userSpaceOnUse" color-interpolation-filters="sRGB">
<feFlood flood-opacity="0" result="BackgroundImageFix"/>
<feBlend mode="normal" in="SourceGraphic" in2="BackgroundImageFix" result="shape"/>
<feGaussianBlur stdDeviation="1.13932" result="effect1_foregroundBlur_631_62032"/>
</filter>
<filter id="filter6_f_631_62032" x="128.016" y="65.7428" width="37.5964" height="176.65" filterUnits="userSpaceOnUse" color-interpolation-filters="sRGB">
<feFlood flood-opacity="0" result="BackgroundImageFix"/>
<feBlend mode="normal" in="SourceGraphic" in2="BackgroundImageFix" result="shape"/>
<feGaussianBlur stdDeviation="0.455729" result="effect1_foregroundBlur_631_62032"/>
</filter>
<filter id="filter7_d_631_62032" x="127.926" y="12.4493" width="93.9138" height="25.779" filterUnits="userSpaceOnUse" color-interpolation-filters="sRGB">
<feFlood flood-opacity="0" result="BackgroundImageFix"/>
<feColorMatrix in="SourceAlpha" type="matrix" values="0 0 0 0 0 0 0 0 0 0 0 0 0 0 0 0 0 0 127 0" result="hardAlpha"/>
<feOffset/>
<feGaussianBlur stdDeviation="1.66205"/>
<feComposite in2="hardAlpha" operator="out"/>
<feColorMatrix type="matrix" values="0 0 0 0 1 0 0 0 0 1 0 0 0 0 1 0 0 0 1 0"/>
<feBlend mode="normal" in2="BackgroundImageFix" result="effect1_dropShadow_631_62032"/>
<feBlend mode="normal" in="SourceGraphic" in2="effect1_dropShadow_631_62032" result="shape"/>
</filter>
<radialGradient id="paint0_radial_631_62032" cx="0" cy="0" r="1" gradientUnits="userSpaceOnUse" gradientTransform="translate(270.447 106.491) rotate(99.1226) scale(61.1193 174.192)">
<stop stop-color="white" stop-opacity="0.75"/>
<stop offset="1" stop-color="white" stop-opacity="0"/>
</radialGradient>
<radialGradient id="paint1_radial_631_62032" cx="0" cy="0" r="1" gradientUnits="userSpaceOnUse" gradientTransform="translate(174.396 182.812) rotate(92.5586) scale(219.36 178.105)">
<stop stop-color="white" stop-opacity="0.75"/>
<stop offset="1" stop-color="white" stop-opacity="0"/>
</radialGradient>
<linearGradient id="paint2_linear_631_62032" x1="124.869" y1="225.131" x2="241.041" y2="324.98" gradientUnits="userSpaceOnUse">
<stop offset="0.109375" stop-color="#6A9EE2"/>
<stop offset="0.401042" stop-color="#4883C2" stop-opacity="0.98"/>
<stop offset="0.677083" stop-color="#9CCBF4" stop-opacity="0.98"/>
<stop offset="0.958333" stop-color="#E8F3FC" stop-opacity="0.98"/>
</linearGradient>
<linearGradient id="paint3_linear_631_62032" x1="123.504" y1="211.003" x2="241.342" y2="297.281" gradientUnits="userSpaceOnUse">
<stop stop-color="#C3C3C3"/>
<stop offset="1" stop-color="#C3C3C3" stop-opacity="0.15"/>
</linearGradient>
<linearGradient id="paint4_linear_631_62032" x1="203.505" y1="227.507" x2="112.604" y2="299.167" gradientUnits="userSpaceOnUse">
<stop stop-color="white" stop-opacity="0"/>
<stop offset="0.471361" stop-color="white"/>
<stop offset="1" stop-color="white"/>
</linearGradient>
<radialGradient id="paint5_radial_631_62032" cx="0" cy="0" r="1" gradientUnits="userSpaceOnUse" gradientTransform="translate(122.541 265.35) rotate(79.4004) scale(83.3382 37.0268)">
<stop stop-color="#F2F2F2"/>
<stop offset="0.0001" stop-color="#F2F2F2"/>
<stop offset="1" stop-color="#F2F2F2" stop-opacity="0"/>
</radialGradient>
<radialGradient id="paint6_radial_631_62032" cx="0" cy="0" r="1" gradientUnits="userSpaceOnUse" gradientTransform="translate(137.125 269.452) rotate(79.4004) scale(83.3382 37.0268)">
<stop stop-color="#F2F2F2"/>
<stop offset="0.0001" stop-color="#F2F2F2"/>
<stop offset="1" stop-color="#F2F2F2" stop-opacity="0"/>
</radialGradient>
<linearGradient id="paint7_linear_631_62032" x1="124.869" y1="225.131" x2="241.041" y2="324.98" gradientUnits="userSpaceOnUse">
<stop offset="0.109375" stop-color="#6A9EE2"/>
<stop offset="0.401042" stop-color="#4883C2" stop-opacity="0.98"/>
<stop offset="0.677083" stop-color="#9CCBF4" stop-opacity="0.98"/>
<stop offset="0.958333" stop-color="#E8F3FC" stop-opacity="0.98"/>
</linearGradient>
<radialGradient id="paint8_radial_631_62032" cx="0" cy="0" r="1" gradientUnits="userSpaceOnUse" gradientTransform="translate(146.217 191.258) rotate(27.3324) scale(58.602 42.3474)">
<stop offset="0.239583" stop-color="#5000B6"/>
<stop offset="1" stop-color="#7E5EFF"/>
</radialGradient>
<radialGradient id="paint9_radial_631_62032" cx="0" cy="0" r="1" gradientUnits="userSpaceOnUse" gradientTransform="translate(191.582 161.494) rotate(46.8342) scale(26.6221 23.5338)">
<stop offset="0.328125" stop-color="#FF00D6"/>
<stop offset="0.619792" stop-color="#D700B4"/>
</radialGradient>
<radialGradient id="paint10_radial_631_62032" cx="0" cy="0" r="1" gradientUnits="userSpaceOnUse" gradientTransform="translate(182.146 126.183) rotate(44.415) scale(15.0618 13.3391)">
<stop offset="0.3125" stop-color="#FABE09"/>
<stop offset="1" stop-color="#FDF21B"/>
</radialGradient>
<radialGradient id="paint11_radial_631_62032" cx="0" cy="0" r="1" gradientUnits="userSpaceOnUse" gradientTransform="translate(154.651 110.284) rotate(51.7012) scale(54.4207 46.8935)">
<stop offset="0.3125" stop-color="#321A93"/>
<stop offset="1" stop-color="#3603FF"/>
<stop offset="1" stop-color="#3603FF"/>
</radialGradient>
<radialGradient id="paint12_radial_631_62032" cx="0" cy="0" r="1" gradientUnits="userSpaceOnUse" gradientTransform="translate(146.217 191.259) rotate(27.3324) scale(58.602 42.3474)">
<stop offset="0.302083" stop-color="#FFB800"/>
<stop offset="1" stop-color="#FF7800"/>
</radialGradient>
<linearGradient id="paint13_linear_631_62032" x1="160.728" y1="220.938" x2="201.952" y2="178" gradientUnits="userSpaceOnUse">
<stop stop-color="#F2F2F2"/>
<stop offset="0.0001" stop-color="#F2F2F2"/>
<stop offset="0.0520833" stop-color="#F2F2F2" stop-opacity="0.948011"/>
<stop offset="1" stop-color="#F2F2F2" stop-opacity="0"/>
</linearGradient>
<linearGradient id="paint14_linear_631_62032" x1="141.732" y1="28.2549" x2="227.55" y2="134.377" gradientUnits="userSpaceOnUse">
<stop offset="0.109375" stop-color="#6A9EE2"/>
<stop offset="0.401042" stop-color="#4883C2" stop-opacity="0.98"/>
<stop offset="0.677083" stop-color="#9CCBF4" stop-opacity="0.98"/>
<stop offset="0.958333" stop-color="#E8F3FC" stop-opacity="0.98"/>
</linearGradient>
<linearGradient id="paint15_linear_631_62032" x1="141.732" y1="27.7998" x2="227.55" y2="133.922" gradientUnits="userSpaceOnUse">
<stop offset="0.109375" stop-color="#6A9EE2"/>
<stop offset="0.401042" stop-color="#4883C2" stop-opacity="0.98"/>
<stop offset="0.677083" stop-color="#9CCBF4" stop-opacity="0.98"/>
<stop offset="0.958333" stop-color="#E8F3FC" stop-opacity="0.98"/>
</linearGradient>
<clipPath id="clip0_631_62032">
<rect width="350" height="350" fill="white"/>
</clipPath>
<clipPath id="clip1_631_62032">
<rect width="350" height="350" fill="white"/>
</clipPath>
</defs>
</svg>
