<svg width="350" height="350" viewBox="0 0 350 350" fill="none" xmlns="http://www.w3.org/2000/svg">
<g clip-path="url(#clip0_630_53188)">
<g clip-path="url(#clip1_630_53188)">
<g filter="url(#filter0_f_630_53188)">
<rect x="350.08" y="350.045" width="350" height="350" transform="rotate(-180 350.08 350.045)" fill="#0E103E"/>
</g>
<g style="mix-blend-mode:overlay" filter="url(#filter1_f_630_53188)">
<ellipse rx="270.447" ry="92.7881" transform="matrix(0.999998 0.00221055 0.00221055 -0.999998 176.734 365.186)" fill="url(#paint0_radial_630_53188)"/>
</g>
<g style="mix-blend-mode:overlay" filter="url(#filter2_f_630_53188)">
<ellipse cx="174.396" cy="133.051" rx="273.297" ry="336.951" transform="rotate(0.126655 174.396 133.051)" fill="url(#paint1_radial_630_53188)"/>
</g>
<g opacity="0.6">
<circle cx="21.3368" cy="78.6415" r="1.16688" fill="white"/>
<circle cx="214.321" cy="248.225" r="1.16688" transform="rotate(165 214.321 248.225)" fill="white"/>
<circle cx="325.548" cy="113.156" r="1.16688" transform="rotate(75 325.548 113.156)" fill="white"/>
<circle cx="340.034" cy="124.932" r="1.16688" transform="rotate(75 340.034 124.932)" fill="white"/>
<circle cx="322.718" cy="82.5492" r="1.16688" transform="rotate(75 322.718 82.5492)" fill="white"/>
<circle cx="157.077" cy="146.73" r="1.16688" transform="rotate(75 157.077 146.73)" fill="white"/>
<circle cx="266.452" cy="142.628" r="1.16688" transform="rotate(75 266.452 142.628)" fill="white"/>
<circle cx="8.71981" cy="30.1401" r="1.16688" transform="rotate(75 8.71981 30.1401)" fill="white"/>
<circle cx="64.4345" cy="118.315" r="1.16688" fill="white"/>
<circle cx="162.424" cy="221.057" r="1.16688" transform="rotate(165 162.424 221.057)" fill="white"/>
<circle cx="298.38" cy="165.052" r="1.16688" transform="rotate(75 298.38 165.052)" fill="white"/>
<circle cx="129.909" cy="198.626" r="1.16688" transform="rotate(75 129.909 198.626)" fill="white"/>
<circle cx="239.284" cy="194.525" r="1.16688" transform="rotate(75 239.284 194.525)" fill="white"/>
<circle cx="40.587" cy="93.808" r="1.16688" transform="rotate(75 40.587 93.808)" fill="white"/>
<circle cx="58.3661" cy="79.7304" r="1.16688" fill="white"/>
<circle cx="178.272" cy="256.756" r="1.16688" transform="rotate(165 178.272 256.756)" fill="white"/>
<circle cx="334.079" cy="149.205" r="1.16688" transform="rotate(75 334.079 149.205)" fill="white"/>
<circle cx="165.608" cy="182.779" r="1.16688" transform="rotate(75 165.608 182.779)" fill="white"/>
<circle cx="274.983" cy="178.677" r="1.16688" transform="rotate(75 274.983 178.677)" fill="white"/>
<circle cx="294.007" cy="195.115" r="1.16688" transform="rotate(75 294.007 195.115)" fill="white"/>
<circle cx="67.0538" cy="101.69" r="1.16688" transform="rotate(75 67.0538 101.69)" fill="white"/>
<circle cx="17.2919" cy="169.813" r="1.16688" fill="white"/>
<circle cx="194.631" cy="159.112" r="1.16688" transform="rotate(165 194.631 159.112)" fill="white"/>
<circle cx="236.435" cy="132.845" r="1.16688" transform="rotate(75 236.435 132.845)" fill="white"/>
<circle cx="67.964" cy="166.419" r="1.16688" transform="rotate(75 67.964 166.419)" fill="white"/>
<circle cx="177.339" cy="162.318" r="1.16688" transform="rotate(75 177.339 162.318)" fill="white"/>
<circle cx="3.44422" cy="159.7" r="1.16688" fill="white"/>
<circle cx="210.624" cy="165.296" r="1.16688" transform="rotate(165 210.624 165.296)" fill="white"/>
<circle cx="242.618" cy="116.853" r="1.16688" transform="rotate(75 242.618 116.853)" fill="white"/>
<circle cx="74.1495" cy="150.427" r="1.16688" transform="rotate(75 74.1495 150.427)" fill="white"/>
<circle cx="183.525" cy="146.326" r="1.16688" transform="rotate(75 183.525 146.326)" fill="white"/>
<circle cx="52.2977" cy="174.792" r="1.16688" fill="white"/>
<circle cx="59.4989" cy="192.118" r="1.16688" fill="white"/>
<circle cx="159.53" cy="163.363" r="1.16688" transform="rotate(165 159.53 163.363)" fill="white"/>
<circle cx="278.968" cy="303.578" r="1.16688" transform="rotate(75 278.968 303.578)" fill="white"/>
<circle cx="72.2159" cy="201.521" r="1.16688" transform="rotate(75 72.2159 201.521)" fill="white"/>
<circle cx="181.591" cy="197.419" r="1.16688" transform="rotate(75 181.591 197.419)" fill="white"/>
<circle cx="9.20203" cy="90.7772" r="1.16688" fill="white"/>
<circle cx="222.903" cy="233.361" r="1.16688" transform="rotate(165 222.903 233.361)" fill="white"/>
<circle cx="310.685" cy="104.575" r="1.16688" transform="rotate(75 310.685 104.575)" fill="white"/>
<circle cx="214.253" cy="306.768" r="1.16688" transform="rotate(75 214.253 306.768)" fill="white"/>
<circle cx="251.589" cy="134.047" r="1.16688" transform="rotate(75 251.589 134.047)" fill="white"/>
<circle cx="10.087" cy="12.3666" r="1.16688" transform="rotate(75 10.087 12.3666)" fill="white"/>
<circle cx="320.177" cy="231.31" r="1.16688" fill="white"/>
<circle cx="217.76" cy="208.162" r="1.16688" transform="rotate(165 217.76 208.162)" fill="white"/>
<circle cx="216.987" cy="70.7006" r="1.16688" transform="rotate(75 216.987 70.7006)" fill="white"/>
<circle cx="117.015" cy="143.289" r="1.16688" transform="rotate(75 117.015 143.289)" fill="white"/>
<circle cx="226.39" cy="139.188" r="1.16688" transform="rotate(75 226.39 139.188)" fill="white"/>
<circle cx="27.6925" cy="38.4721" r="1.16688" transform="rotate(75 27.6925 38.4721)" fill="white"/>
<circle cx="23.6708" cy="121.893" r="1.16688" fill="white"/>
<circle cx="200.874" cy="207.05" r="1.16688" transform="rotate(165 200.874 207.05)" fill="white"/>
<circle cx="284.372" cy="126.604" r="1.16688" transform="rotate(75 284.372 126.604)" fill="white"/>
<circle cx="13.7335" cy="323.63" r="1.16688" transform="rotate(75 13.7335 323.63)" fill="white"/>
<circle cx="225.278" cy="156.077" r="1.16688" transform="rotate(75 225.278 156.077)" fill="white"/>
<circle cx="26.5792" cy="55.3608" r="1.16688" transform="rotate(75 26.5792 55.3608)" fill="white"/>
<circle cx="43.0927" cy="61.3231" r="1.16688" fill="white"/>
<circle cx="49.4735" cy="27.1434" r="1.16688" fill="white"/>
<circle cx="69.5263" cy="41.2714" r="1.16688" fill="white"/>
<circle cx="81.3739" cy="11.1932" r="1.16688" fill="white"/>
<circle cx="273.692" cy="83.6542" r="1.16688" fill="white"/>
<circle cx="312.886" cy="35.8026" r="1.16688" fill="white"/>
<circle cx="253.64" cy="54.9432" r="1.16688" fill="white"/>
<circle cx="249.083" cy="29.4227" r="1.16688" fill="white"/>
<circle cx="167.052" cy="5.72449" r="1.16688" fill="white"/>
<circle cx="133.784" cy="8.91492" r="1.16688" fill="white"/>
<circle cx="136.061" cy="40.8153" r="1.16688" fill="white"/>
<circle cx="90.4891" cy="71.8055" r="1.16688" fill="white"/>
<circle cx="208.067" cy="17.5731" r="1.16688" fill="white"/>
<circle cx="219.005" cy="47.1962" r="1.16688" fill="white"/>
<circle cx="243.614" cy="90.0341" r="1.16688" fill="white"/>
<circle cx="123.302" cy="71.8055" r="1.16688" fill="white"/>
<circle cx="107.808" cy="96.4149" r="1.16688" fill="white"/>
<circle cx="144.319" cy="266.498" r="1.16688" transform="rotate(165 144.319 266.498)" fill="white"/>
<circle cx="343.821" cy="183.158" r="1.16688" transform="rotate(75 343.821 183.158)" fill="white"/>
<circle cx="175.351" cy="216.732" r="1.16688" transform="rotate(75 175.351 216.732)" fill="white"/>
<circle cx="284.726" cy="212.63" r="1.16688" transform="rotate(75 284.726 212.63)" fill="white"/>
<circle cx="86.0284" cy="111.914" r="1.16688" transform="rotate(75 86.0284 111.914)" fill="white"/>
<circle cx="9.37" cy="55.8544" r="1.16688" fill="white"/>
<circle cx="126.225" cy="263.293" r="1.16688" transform="rotate(165 126.225 263.293)" fill="white"/>
<circle cx="340.616" cy="201.251" r="1.16688" transform="rotate(75 340.616 201.251)" fill="white"/>
<circle cx="114.448" cy="331.377" r="1.16688" transform="rotate(75 114.448 331.377)" fill="white"/>
<circle cx="281.521" cy="230.724" r="1.16688" transform="rotate(75 281.521 230.724)" fill="white"/>
<circle cx="308.134" cy="246.157" r="1.16688" transform="rotate(75 308.134 246.157)" fill="white"/>
<circle cx="279.878" cy="253.904" r="1.16688" transform="rotate(75 279.878 253.904)" fill="white"/>
<circle cx="239.775" cy="278.513" r="1.16688" transform="rotate(75 239.775 278.513)" fill="white"/>
<circle cx="197.847" cy="185.088" r="1.16688" transform="rotate(75 197.847 185.088)" fill="white"/>
<circle cx="144.983" cy="206.963" r="1.16688" transform="rotate(75 144.983 206.963)" fill="white"/>
<circle cx="145.894" cy="244.333" r="1.16688" transform="rotate(75 145.894 244.333)" fill="white"/>
<circle cx="93.9405" cy="209.698" r="1.16688" transform="rotate(75 93.9405 209.698)" fill="white"/>
<circle cx="93.0304" cy="184.177" r="1.16688" transform="rotate(75 93.0304 184.177)" fill="white"/>
<circle cx="82.8233" cy="130.007" r="1.16688" transform="rotate(75 82.8233 130.007)" fill="white"/>
<circle cx="101.774" cy="130.295" r="1.16688" fill="white"/>
<circle cx="123.256" cy="219.15" r="1.16688" transform="rotate(165 123.256 219.15)" fill="white"/>
<circle cx="326.362" cy="266.208" r="1.16688" transform="rotate(75 326.362 266.208)" fill="white"/>
<circle cx="313.603" cy="187.823" r="1.16688" transform="rotate(75 313.603 187.823)" fill="white"/>
<circle cx="321.806" cy="169.594" r="1.16688" transform="rotate(75 321.806 169.594)" fill="white"/>
<circle cx="285.347" cy="148.63" r="1.16688" transform="rotate(75 285.347 148.63)" fill="white"/>
<circle cx="329.097" cy="322.718" r="1.16688" transform="rotate(75 329.097 322.718)" fill="white"/>
<circle cx="255.726" cy="157.745" r="1.16688" transform="rotate(75 255.726 157.745)" fill="white"/>
<circle cx="337.757" cy="91.2084" r="1.16688" transform="rotate(75 337.757 91.2084)" fill="white"/>
<circle cx="341.401" cy="69.3334" r="1.16688" transform="rotate(75 341.401 69.3334)" fill="white"/>
<circle cx="128.003" cy="237.794" r="1.16688" transform="rotate(75 128.003 237.794)" fill="white"/>
<circle cx="237.378" cy="233.693" r="1.16688" transform="rotate(75 237.378 233.693)" fill="white"/>
<circle cx="247.066" cy="216.534" r="1.16688" transform="rotate(75 247.066 216.534)" fill="white"/>
<circle cx="221.546" cy="184.633" r="1.16688" transform="rotate(75 221.546 184.633)" fill="white"/>
<circle cx="38.6788" cy="132.977" r="1.16688" transform="rotate(75 38.6788 132.977)" fill="white"/>
<circle cx="46.7391" cy="342.053" r="1.16688" fill="white"/>
<circle cx="131.026" cy="187.43" r="1.16688" transform="rotate(165 131.026 187.43)" fill="white"/>
<circle cx="264.753" cy="196.452" r="1.16688" transform="rotate(75 264.753 196.452)" fill="white"/>
<circle cx="96.2823" cy="230.026" r="1.16688" transform="rotate(75 96.2823 230.026)" fill="white"/>
<circle cx="205.657" cy="225.924" r="1.16688" transform="rotate(75 205.657 225.924)" fill="white"/>
<circle cx="269.398" cy="336.846" r="1.16688" transform="rotate(75 269.398 336.846)" fill="white"/>
<circle cx="79.8368" cy="172.925" r="1.16688" fill="white"/>
<circle cx="133.413" cy="172.294" r="1.16688" transform="rotate(165 133.413 172.294)" fill="white"/>
<circle cx="249.616" cy="194.064" r="1.16688" transform="rotate(75 249.616 194.064)" fill="white"/>
<circle cx="81.1476" cy="227.638" r="1.16688" transform="rotate(75 81.1476 227.638)" fill="white"/>
<circle cx="190.523" cy="223.537" r="1.16688" transform="rotate(75 190.523 223.537)" fill="white"/>
<circle cx="105.663" cy="158.611" r="1.16688" fill="white"/>
<circle cx="112.17" cy="192.805" r="1.16688" transform="rotate(165 112.17 192.805)" fill="white"/>
<circle cx="270.128" cy="215.306" r="1.16688" transform="rotate(75 270.128 215.306)" fill="white"/>
<circle cx="101.657" cy="248.88" r="1.16688" transform="rotate(75 101.657 248.88)" fill="white"/>
<circle cx="211.032" cy="244.779" r="1.16688" transform="rotate(75 211.032 244.779)" fill="white"/>
<circle cx="12.335" cy="144.062" r="1.16688" transform="rotate(75 12.335 144.062)" fill="white"/>
<path d="M255.397 175.378L254.977 174.242L253.841 173.822L254.977 173.402L255.397 172.266L255.818 173.402L256.953 173.822L255.818 174.242L255.397 175.378Z" fill="#FFF7B0"/>
<path d="M88.8035 163.528L88.3833 162.393L87.2477 161.972L88.3833 161.552L88.8035 160.417L89.2238 161.552L90.3594 161.972L89.2238 162.393L88.8035 163.528Z" fill="#FFF7B0"/>
<path d="M53.7117 68.2812L53.2915 67.1456L52.1559 66.7254L53.2915 66.3052L53.7117 65.1696L54.132 66.3052L55.2676 66.7254L54.132 67.1456L53.7117 68.2812Z" fill="#FFF7B0"/>
<path d="M339.251 47.7734L338.831 46.6378L337.695 46.2176L338.831 45.7974L339.251 44.6618L339.671 45.7974L340.807 46.2176L339.671 46.6378L339.251 47.7734Z" fill="#FFF7B0"/>
<path d="M239.907 220.862L239.487 219.727L238.351 219.306L239.487 218.886L239.907 217.751L240.327 218.886L241.463 219.306L240.327 219.727L239.907 220.862Z" fill="#FFF7B0"/>
<path d="M80.4012 217.672L79.981 216.536L78.8454 216.116L79.981 215.696L80.4012 214.56L80.8214 215.696L81.957 216.116L80.8214 216.536L80.4012 217.672Z" fill="#FFF7B0"/>
<path d="M45.3094 122.425L44.8892 121.289L43.7536 120.869L44.8892 120.449L45.3094 119.313L45.7296 120.449L46.8652 120.869L45.7296 121.289L45.3094 122.425Z" fill="#FFF7B0"/>
<path d="M288.214 116.5L287.793 115.364L286.658 114.944L287.793 114.524L288.214 113.388L288.634 114.524L289.77 114.944L288.634 115.364L288.214 116.5Z" fill="#FFF7B0"/>
<path d="M250.641 205.148L250.221 204.013L249.086 203.593L250.221 203.172L250.641 202.037L251.062 203.172L252.197 203.593L251.062 204.013L250.641 205.148Z" fill="#FFF7B0"/>
<path d="M91.1356 201.958L90.7154 200.822L89.5797 200.402L90.7154 199.982L91.1356 198.846L91.5558 199.982L92.6914 200.402L91.5558 200.822L91.1356 201.958Z" fill="#FFF7B0"/>
<path d="M56.0457 106.711L55.6255 105.575L54.4899 105.155L55.6255 104.735L56.0457 103.599L56.4659 104.735L57.6016 105.155L56.4659 105.575L56.0457 106.711Z" fill="#FFF7B0"/>
<path d="M298.948 100.786L298.528 99.6505L297.392 99.2303L298.528 98.8101L298.948 97.6745L299.368 98.8101L300.504 99.2303L299.368 99.6505L298.948 100.786Z" fill="#FFF7B0"/>
<path d="M248.307 243.577L247.887 242.442L246.752 242.021L247.887 241.601L248.307 240.465L248.728 241.601L249.863 242.021L248.728 242.442L248.307 243.577Z" fill="#FFF7B0"/>
<path d="M270.891 243.737L270.471 242.602L269.336 242.181L270.471 241.761L270.891 240.626L271.312 241.761L272.447 242.181L271.312 242.602L270.891 243.737Z" fill="#FFF7B0"/>
<path d="M254.485 258.32L254.065 257.185L252.929 256.764L254.065 256.344L254.485 255.209L254.905 256.344L256.041 256.764L254.905 257.185L254.485 258.32Z" fill="#FFF7B0"/>
<path d="M88.8035 240.388L88.3833 239.252L87.2477 238.832L88.3833 238.412L88.8035 237.276L89.2238 238.412L90.3594 238.832L89.2238 239.252L88.8035 240.388Z" fill="#FFF7B0"/>
<path d="M53.7117 145.14L53.2915 144.004L52.1559 143.584L53.2915 143.164L53.7117 142.028L54.132 143.164L55.2676 143.584L54.132 144.004L53.7117 145.14Z" fill="#FFF7B0"/>
<path d="M296.614 139.216L296.194 138.08L295.058 137.66L296.194 137.24L296.614 136.104L297.034 137.24L298.17 137.66L297.034 138.08L296.614 139.216Z" fill="#FFF7B0"/>
<path d="M161.316 310.329L160.581 308.342L158.594 307.606L160.581 306.871L161.316 304.884L162.052 306.871L164.039 307.606L162.052 308.342L161.316 310.329Z" fill="#FFF7B0"/>
<path d="M110.662 247.233L109.927 245.246L107.939 244.511L109.927 243.775L110.662 241.788L111.397 243.775L113.385 244.511L111.397 245.246L110.662 247.233Z" fill="#FFF7B0"/>
<path d="M91.1328 146.722L90.3974 144.734L88.41 143.999L90.3974 143.264L91.1328 141.276L91.8681 143.264L93.8555 143.999L91.8681 144.734L91.1328 146.722Z" fill="#FFF7B0"/>
<path d="M98.4257 43.7266L97.6903 41.7392L95.703 41.0038L97.6903 40.2685L98.4257 38.2811L99.1611 40.2685L101.148 41.0038L99.1611 41.7392L98.4257 43.7266Z" fill="#FFF7B0"/>
<path d="M311.25 209.612L310.515 207.625L308.527 206.89L310.515 206.154L311.25 204.167L311.985 206.154L313.973 206.89L311.985 207.625L311.25 209.612Z" fill="#FFF7B0"/>
<path d="M221.314 199.392L220.579 197.404L218.592 196.669L220.579 195.934L221.314 193.946L222.05 195.934L224.037 196.669L222.05 197.404L221.314 199.392Z" fill="#FFF7B0"/>
<path d="M65.6132 303.493L64.8778 301.506L62.8905 300.77L64.8778 300.035L65.6132 298.048L66.3486 300.035L68.3359 300.77L66.3486 301.506L65.6132 303.493Z" fill="#FFF7B0"/>
<path d="M26.7167 100.954L25.9814 98.9668L23.994 98.2314L25.9814 97.496L26.7167 95.5087L27.4521 97.496L29.4395 98.2314L27.4521 98.9668L26.7167 100.954Z" fill="#FFF7B0"/>
<path d="M301.68 86.1104L300.944 84.123L298.957 83.3876L300.944 82.6523L301.68 80.6649L302.415 82.6523L304.402 83.3876L302.415 84.123L301.68 86.1104Z" fill="#FFF7B0"/>
<path d="M287.098 50.5635L286.362 48.5761L284.375 47.8408L286.362 47.1054L287.098 45.118L287.833 47.1054L289.82 47.8408L287.833 48.5761L287.098 50.5635Z" fill="#FFF7B0"/>
<path d="M335.859 5.90137L335.124 3.91403L333.137 3.17865L335.124 2.44327L335.859 0.455936L336.595 2.44327L338.582 3.17865L336.595 3.91403L335.859 5.90137Z" fill="#FFF7B0"/>
<path d="M264.723 228.33L263.987 226.343L262 225.607L263.987 224.872L264.723 222.885L265.458 224.872L267.445 225.607L265.458 226.343L264.723 228.33Z" fill="#FFF7B0"/>
<path d="M292.109 267.49L291.374 265.503L289.387 264.768L291.374 264.032L292.109 262.045L292.845 264.032L294.832 264.768L292.845 265.503L292.109 267.49Z" fill="#FFF7B0"/>
<path d="M264.766 284.808L264.03 282.82L262.043 282.085L264.03 281.35L264.766 279.362L265.501 281.35L267.488 282.085L265.501 282.82L264.766 284.808Z" fill="#FFF7B0"/>
<path d="M105.217 225.14L104.481 223.152L102.494 222.417L104.481 221.682L105.217 219.694L105.952 221.682L107.939 222.417L105.952 223.152L105.217 225.14Z" fill="#FFF7B0"/>
<path d="M16.3945 261.11L15.6591 259.123L13.6718 258.388L15.6591 257.652L16.3945 255.665L17.1299 257.652L19.1172 258.388L17.1299 259.123L16.3945 261.11Z" fill="#FFF7B0"/>
<path d="M313.029 123.968L312.294 121.98L310.307 121.245L312.294 120.51L313.029 118.522L313.765 120.51L315.752 121.245L313.765 121.98L313.029 123.968Z" fill="#FFF7B0"/>
<path d="M280.125 170.608L279.39 168.621L277.402 167.886L279.39 167.15L280.125 165.163L280.86 167.15L282.848 167.886L280.86 168.621L280.125 170.608Z" fill="#FFF7B0"/>
<path d="M232.41 175.889L231.675 173.901L229.687 173.166L231.675 172.431L232.41 170.443L233.145 172.431L235.133 173.166L233.145 173.901L232.41 175.889Z" fill="#FFF7B0"/>
<path d="M29.1542 236.045L28.4189 234.058L26.4315 233.322L28.4189 232.587L29.1542 230.599L29.8896 232.587L31.877 233.322L29.8896 234.058L29.1542 236.045Z" fill="#FFF7B0"/>
<path d="M73.8163 273.415L73.081 271.428L71.0936 270.692L73.081 269.957L73.8163 267.97L74.5517 269.957L76.5391 270.692L74.5517 271.428L73.8163 273.415Z" fill="#FFF7B0"/>
<path d="M37.8255 287.109L36.2254 282.785L31.901 281.185L36.2254 279.585L37.8255 275.26L39.4257 279.585L43.75 281.185L39.4257 282.785L37.8255 287.109Z" fill="#FFF7B0"/>
<path d="M114.843 25.9766L113.243 21.6522L108.919 20.0521L113.243 18.4519L114.843 14.1276L116.443 18.4519L120.768 20.0521L116.443 21.6522L114.843 25.9766Z" fill="#FFF7B0"/>
<path d="M313.997 154.948L312.397 150.624L308.073 149.024L312.397 147.424L313.997 143.099L315.598 147.424L319.922 149.024L315.598 150.624L313.997 154.948Z" fill="#FFF7B0"/>
<path d="M121.668 298.024L120.933 296.037L118.945 295.302L120.933 294.566L121.668 292.579L122.403 294.566L124.391 295.302L122.403 296.037L121.668 298.024Z" fill="#FFF7B0"/>
<path d="M36.4453 185.915L35.7099 183.928L33.7225 183.192L35.7099 182.457L36.4453 180.47L37.1806 182.457L39.168 183.192L37.1806 183.928L36.4453 185.915Z" fill="#FFF7B0"/>
<path d="M328.432 66.2461L327.696 64.2588L325.709 63.5234L327.696 62.788L328.432 60.8007L329.167 62.788L331.154 63.5234L329.167 64.2588L328.432 66.2461Z" fill="#FFF7B0"/>
<path d="M280.262 19.1172L279.526 17.1299L277.539 16.3945L279.526 15.6591L280.262 13.6718L280.997 15.6591L282.984 16.3945L280.997 17.1299L280.262 19.1172Z" fill="#FFF7B0"/>
<path d="M227.46 250.423L227.04 249.287L225.904 248.867L227.04 248.447L227.46 247.311L227.88 248.447L229.016 248.867L227.88 249.287L227.46 250.423Z" fill="#FFF7B0"/>
<path d="M67.9539 247.233L67.5337 246.098L66.3981 245.678L67.5337 245.257L67.9539 244.122L68.3741 245.257L69.5098 245.678L68.3741 246.098L67.9539 247.233Z" fill="#FFF7B0"/>
<path d="M32.8641 151.985L32.4439 150.85L31.3082 150.43L32.4439 150.009L32.8641 148.874L33.2843 150.009L34.4199 150.43L33.2843 150.85L32.8641 151.985Z" fill="#FFF7B0"/>
<path d="M275.766 146.062L275.346 144.926L274.211 144.506L275.346 144.085L275.766 142.95L276.187 144.085L277.322 144.506L276.187 144.926L275.766 146.062Z" fill="#FFF7B0"/>
<path d="M210.657 227.396L210.237 226.261L209.101 225.841L210.237 225.42L210.657 224.285L211.077 225.42L212.213 225.841L211.077 226.261L210.657 227.396Z" fill="#FFF7B0"/>
<path d="M51.1512 224.207L50.731 223.071L49.5954 222.651L50.731 222.231L51.1512 221.095L51.5714 222.231L52.707 222.651L51.5714 223.071L51.1512 224.207Z" fill="#FFF7B0"/>
<path d="M196.151 340.808L195.731 339.672L194.595 339.252L195.731 338.832L196.151 337.696L196.571 338.832L197.707 339.252L196.571 339.672L196.151 340.808Z" fill="#FFF7B0"/>
<path d="M258.964 123.035L258.543 121.9L257.408 121.479L258.543 121.059L258.964 119.923L259.384 121.059L260.52 121.479L259.384 121.9L258.964 123.035Z" fill="#FFF7B0"/>
<path d="M249.472 297.058L249.051 295.922L247.916 295.502L249.051 295.082L249.472 293.946L249.892 295.082L251.027 295.502L249.892 295.922L249.472 297.058Z" fill="#FFF7B0"/>
<path d="M48.0399 263.103L47.6196 261.967L46.484 261.547L47.6196 261.126L48.0399 259.991L48.4601 261.126L49.5957 261.547L48.4601 261.967L48.0399 263.103Z" fill="#FFF7B0"/>
<path d="M15.6824 205.911L15.2622 204.776L14.1266 204.355L15.2622 203.935L15.6824 202.799L16.1027 203.935L17.2383 204.355L16.1027 204.776L15.6824 205.911Z" fill="#FFF7B0"/>
<path d="M266.79 160.339L266.37 159.203L265.234 158.783L266.37 158.363L266.79 157.227L267.21 158.363L268.346 158.783L267.21 159.203L266.79 160.339Z" fill="#FFF7B0"/>
</g>
</g>
<g clip-path="url(#clip2_630_53188)">
<path d="M148.717 95L125.019 209.98C124.948 210.324 125.078 210.673 125.367 210.873C128.479 213.027 147.033 225 175 225C202.967 225 221.521 213.027 224.633 210.873C224.922 210.673 225.052 210.324 224.981 209.98L201.283 95C201.249 95.0666 201.205 95.1285 201.15 95.1836C199.818 96.5241 193.18 102.106 175 102.106C156.82 102.106 150.182 96.5241 148.85 95.1836C148.795 95.1285 148.751 95.0666 148.717 95Z" fill="white" fill-opacity="0.75"/>
<path d="M225 210.659C220.5 214 200.704 225 175.402 225C147.201 225 128.492 213.024 125.354 210.869C125.163 210.738 125.042 210.543 125 210.328C128.968 198.996 144.393 175.959 164.496 181.99C174.451 184.976 181.421 192.474 187.975 199.525C198.127 210.446 208 213.5 225 210.659C224.675 211.045 225.345 210.27 225 210.659Z" fill="url(#paint2_radial_630_53188)"/>
<mask id="mask0_630_53188" style="mask-type:alpha" maskUnits="userSpaceOnUse" x="124" y="180" width="101" height="45">
<path d="M223.865 211.799C218.235 215.343 200.574 225 175.272 225C147.07 225 128.361 213.003 125.224 210.845C125.033 210.714 124.911 210.519 124.869 210.303C128.838 198.951 144.262 175.875 164.365 181.916C174.32 184.908 181.29 192.418 187.844 199.481C197.996 210.421 207.153 220.288 224.869 210.635C224.544 211.021 224.209 211.409 223.865 211.799Z" fill="url(#paint3_radial_630_53188)"/>
</mask>
<g mask="url(#mask0_630_53188)">
<g filter="url(#filter3_f_630_53188)">
<mask id="mask1_630_53188" style="mask-type:alpha" maskUnits="userSpaceOnUse" x="124" y="94" width="102" height="132">
<path d="M148.861 95.3198C148.948 94.896 149.321 94.5918 149.754 94.5918H200.245C200.678 94.5918 201.051 94.896 201.138 95.3198L224.992 211.414C225.074 211.811 224.887 212.211 224.526 212.393C220.623 214.365 198.375 225.073 174.999 225.383C151.577 225.694 129.287 214.434 125.449 212.396C125.099 212.21 124.923 211.818 125.003 211.429L148.861 95.3198Z" fill="#577096" fill-opacity="0.75"/>
</mask>
<g mask="url(#mask1_630_53188)">
<g filter="url(#filter4_f_630_53188)">
<path d="M155.407 125.557C156.47 105.273 134.471 86.4386 128.929 67.2543C133.388 65.4531 144.05 71.0455 152.675 76.3806C163.456 83.0494 162.879 109.38 164.625 126.04C166.022 139.368 148.453 223.657 144.015 241.737L131.716 241.093C140.242 214.936 154.587 141.211 155.407 125.557Z" fill="url(#paint4_linear_630_53188)" fill-opacity="0.6"/>
</g>
</g>
</g>
</g>
<path d="M214.38 157.604L219.199 181.084C217.285 183.349 214.447 185.339 210.333 186.382C197.47 189.642 184.199 182.306 184.199 171.303C184.199 165.801 188.038 154.839 203.391 155.002C208.02 155.051 211.615 156.065 214.38 157.604Z" fill="url(#paint5_radial_630_53188)"/>
<path d="M178.203 131.059C178.203 128.163 180.223 122.394 188.3 122.479C196.378 122.565 198.469 128.235 198.505 131.059C198.577 133.132 197.366 137.622 191.953 138.995C185.185 140.711 178.203 136.85 178.203 131.059Z" fill="url(#paint6_radial_630_53188)"/>
<path d="M201.33 94.2312L205.4 114.032C203.808 113.761 202.153 113.448 200.459 113.128C186.293 110.453 169.479 107.277 165.223 123.731C163.365 130.915 166.057 135.213 168.676 139.394C171.205 143.431 173.665 147.359 171.9 153.669C169.751 161.35 158.067 166.325 148.671 162.995C138.746 159.477 139.443 144.904 145.148 137.85C150.853 130.795 151.677 120.031 150.853 112.871C150.454 109.41 148.742 106.935 146.502 105.251L148.841 93.8809C148.875 93.9478 148.92 94.0101 148.975 94.0656C150.853 95.9589 156.979 101.03 175.237 101.03C192.824 101.03 199.656 95.8196 201.33 94.2312Z" fill="url(#paint7_radial_630_53188)"/>
<mask id="mask2_630_53188" style="mask-type:alpha" maskUnits="userSpaceOnUse" x="141" y="93" width="65" height="72">
<path d="M201.33 94.2302L205.4 114.031C203.808 113.76 202.153 113.447 200.459 113.127C186.293 110.452 169.479 107.276 165.223 123.73C163.365 130.914 166.057 135.212 168.676 139.393C171.205 143.43 173.665 147.358 171.9 153.668C169.751 161.349 158.067 166.324 148.671 162.994C138.746 159.476 139.443 144.903 145.148 137.849C150.853 130.794 151.677 120.03 150.853 112.87C150.454 109.409 148.742 106.934 146.502 105.25L148.841 93.8799C148.875 93.9469 148.92 94.0092 148.975 94.0646C150.313 95.4133 156.979 101.029 175.237 101.029C192.824 101.029 199.656 95.8187 201.33 94.2302Z" fill="url(#paint8_radial_630_53188)"/>
</mask>
<g mask="url(#mask2_630_53188)">
<g filter="url(#filter5_f_630_53188)">
<mask id="mask3_630_53188" style="mask-type:alpha" maskUnits="userSpaceOnUse" x="125" y="94" width="101" height="132">
<path d="M149.015 95.0639C149.102 94.6401 149.475 94.3359 149.908 94.3359H200.399C200.832 94.3359 201.205 94.6401 201.292 95.0639L225.147 211.159C225.228 211.555 225.041 211.955 224.68 212.137C220.777 214.109 198.529 224.817 175.154 225.128C151.732 225.438 129.441 214.178 125.604 212.141C125.253 211.954 125.078 211.562 125.158 211.173L149.015 95.0639Z" fill="#577096" fill-opacity="0.75"/>
</mask>
<g mask="url(#mask3_630_53188)">
<g filter="url(#filter6_f_630_53188)">
<path d="M207.362 76.1064C211.019 110.268 146.094 132.571 113.174 139.453L113.174 76.1064L207.362 76.1064Z" fill="url(#paint9_linear_630_53188)" fill-opacity="0.5"/>
</g>
<g filter="url(#filter7_f_630_53188)">
<path d="M155.562 125.301C156.624 105.018 134.626 86.1828 129.083 66.9985C133.542 65.1973 144.205 70.7896 152.829 76.1247C163.61 82.7936 163.033 109.124 164.779 125.784C166.176 139.112 148.608 223.401 144.169 241.481L131.87 240.837C140.397 214.68 154.742 140.955 155.562 125.301Z" fill="url(#paint10_linear_630_53188)" fill-opacity="0.6"/>
</g>
</g>
</g>
</g>
</g>
<g filter="url(#filter8_d_630_53188)">
<path d="M216.24 25.3082C216.24 25.3082 216.24 25.3119 216.238 25.3194C216.238 25.312 216.239 25.3082 216.24 25.3082ZM215.963 24.9661C216.147 25.163 216.21 25.2858 216.231 25.3391C216.21 25.3923 216.147 25.5151 215.963 25.712C215.626 26.0736 215.016 26.5321 214.038 27.0394C212.086 28.051 209.113 29.0299 205.248 29.8772C197.555 31.5637 186.818 32.626 174.883 32.626C162.947 32.626 152.211 31.5637 144.518 29.8772C140.653 29.0299 137.679 28.051 135.727 27.0394C134.749 26.5321 134.14 26.0736 133.802 25.712C133.618 25.5151 133.555 25.3923 133.534 25.3391C133.555 25.2858 133.618 25.163 133.802 24.9661C134.14 24.6045 134.749 24.146 135.727 23.6387C137.679 22.6271 140.653 21.6483 144.518 20.8009C152.211 19.1144 162.947 18.0521 174.883 18.0521C186.818 18.0521 197.555 19.1144 205.248 20.8009C209.113 21.6483 212.086 22.6271 214.038 23.6387C215.016 24.146 215.626 24.6045 215.963 24.9661ZM133.526 25.3082C133.526 25.3082 133.527 25.312 133.528 25.3194C133.526 25.3119 133.525 25.3082 133.526 25.3082ZM133.526 25.3699C133.525 25.3699 133.526 25.3662 133.528 25.3587C133.527 25.3661 133.526 25.3699 133.526 25.3699ZM216.238 25.3587C216.24 25.3662 216.24 25.3699 216.24 25.3699C216.239 25.3699 216.238 25.3661 216.238 25.3587Z" stroke="#FDF21B" stroke-width="4.55729" shape-rendering="crispEdges"/>
</g>
<path d="M213.19 76.7275C217.942 89.7838 215.892 107.136 212.704 115.88C212.455 116.562 211.545 116.642 211.124 116.05C202.016 103.246 185.881 97.0907 169.228 97.0907C156.624 97.0907 146.154 105.66 142.314 111.059C141.891 111.653 140.964 111.625 140.707 110.942C136.577 99.9827 144.432 81.6187 149.695 73.5957C150.187 72.8468 149.431 71.6663 148.541 71.7709C134.384 73.4357 103.681 64.9706 98.209 56.7044C98.0645 56.486 98.046 56.2219 98.1296 55.9737L99.2641 52.6078C99.4626 52.0187 100.181 51.7939 100.721 52.1024C113.571 59.448 151.571 46.3509 174.236 43.7059C198.721 40.8485 208.181 62.9688 213.19 76.7275Z" fill="url(#paint11_linear_630_53188)"/>
<path d="M103.819 49.622C101.941 57.338 94.6866 59.9213 86.9707 58.0434C79.2547 56.1655 73.9989 50.5375 75.8768 42.8216C77.7547 35.1056 85.0089 32.5223 92.7249 34.4002C100.441 36.2781 105.697 41.9061 103.819 49.622Z" fill="url(#paint12_linear_630_53188)" stroke="#D1CDC5" stroke-width="1.09091"/>
<mask id="mask4_630_53188" style="mask-type:alpha" maskUnits="userSpaceOnUse" x="99" y="44" width="118" height="74">
<path d="M214.19 77.7275C219.026 91.013 216.818 108.746 213.535 117.332C213.348 117.819 212.696 117.87 212.398 117.441C203.343 104.371 187.05 98.0907 170.228 98.0907C157.312 98.0907 146.638 107.089 143.042 112.453C142.75 112.888 142.084 112.872 141.883 112.388C137.228 101.167 145.843 81.6162 151.16 73.9049C151.525 73.3754 151.003 72.5615 150.368 72.6593C136.565 74.7811 104.549 66.0696 99.1467 57.6084C99.0454 57.4499 99.0325 57.262 99.0925 57.0838L100.378 53.2704C100.52 52.8474 101.031 52.6835 101.411 52.9181C113.949 60.6629 152.385 47.3725 175.236 44.7059C199.721 41.8485 209.181 63.9688 214.19 77.7275Z" fill="url(#paint13_radial_630_53188)"/>
</mask>
<g mask="url(#mask4_630_53188)">
<mask id="mask5_630_53188" style="mask-type:alpha" maskUnits="userSpaceOnUse" x="99" y="23" width="125" height="98">
<path d="M214.744 86.8235C218.643 76.7514 209.776 41.0151 204.265 23.7088C204.144 23.3282 203.729 23.1517 203.37 23.3261C198.815 25.5364 172.224 38.2353 162.45 38.2353C152.512 38.2353 125.898 25.1071 122.131 23.2239C121.86 23.0884 121.548 23.1612 121.355 23.3947C117.442 28.1255 110.614 38.4197 112.215 44.8235C114.274 53.0588 107.686 60.0588 105.215 69.9412C102.744 79.8235 110.156 84.3529 110.156 90.9412C110.156 97.5294 103.156 93.4118 100.273 99.5882C98.2116 104.006 99.0684 108.753 99.9597 111.18C100.105 111.576 100.588 111.693 100.944 111.468C110.843 105.184 139.675 115.041 153.269 120.947C153.352 120.983 153.437 121 153.527 121H172.915C173.07 121 173.223 120.942 173.342 120.842C195.538 102.121 221.747 113.165 222.979 109.059C223.952 105.815 218.085 101.507 214.891 99.6722C214.793 99.6159 214.684 99.5911 214.572 99.579C212.946 99.4039 210.927 96.6846 214.744 86.8235Z" fill="url(#paint14_radial_630_53188)"/>
<path d="M203.745 23.8743C206.495 32.5101 210.084 45.7504 212.498 58.0837C213.705 64.2509 214.616 70.1794 214.982 75.1862C215.351 80.2203 215.162 84.2328 214.235 86.6266C212.315 91.5862 211.828 94.8315 212.075 96.8982C212.324 98.9863 213.361 99.9972 214.514 100.121C214.588 100.129 214.613 100.141 214.619 100.145C216.191 101.048 218.415 102.557 220.116 104.227C220.967 105.062 221.665 105.916 222.091 106.734C222.518 107.553 222.644 108.278 222.457 108.902C222.405 109.074 222.188 109.311 221.325 109.436C220.507 109.555 219.347 109.538 217.855 109.455C217.121 109.414 216.313 109.358 215.441 109.297C212.812 109.114 209.594 108.889 206.017 108.924C196.466 109.017 184.221 110.952 172.991 120.425C172.967 120.445 172.937 120.455 172.915 120.455H153.527C153.509 120.455 153.498 120.452 153.487 120.447C146.669 117.485 136.032 113.532 125.848 111.106C120.756 109.893 115.76 109.056 111.401 108.922C107.061 108.788 103.267 109.347 100.652 111.007C100.604 111.038 100.553 111.041 100.518 111.031C100.501 111.027 100.492 111.02 100.486 111.016C100.482 111.012 100.477 111.006 100.472 110.992C99.6081 108.64 98.7902 104.056 100.767 99.8189C102.028 97.1171 104.101 96.5667 106.143 96.0242C106.241 95.9981 106.339 95.9722 106.437 95.9459C107.478 95.6666 108.571 95.345 109.384 94.6069C110.233 93.8363 110.702 92.6904 110.702 90.9412C110.702 89.1894 110.208 87.5927 109.537 86.0523C109.135 85.1313 108.65 84.1904 108.163 83.2465C107.852 82.6438 107.541 82.0398 107.25 81.4389C105.733 78.304 104.553 74.8394 105.744 70.0735C106.647 66.4618 108.099 63.26 109.491 60.1904C109.982 59.1069 110.466 58.04 110.916 56.9772C112.624 52.9406 113.819 48.9902 112.744 44.6912C112.373 43.2077 112.483 41.4603 112.947 39.569C113.411 37.6818 114.218 35.6867 115.205 33.727C117.178 29.8067 119.838 26.0846 121.775 23.7423C121.797 23.7163 121.818 23.7065 121.833 23.7032C121.847 23.7001 121.865 23.7003 121.887 23.7118C123.775 24.6554 131.382 28.4144 139.765 31.9386C143.956 33.7005 148.349 35.4072 152.322 36.6743C156.279 37.9363 159.875 38.7807 162.45 38.7807C164.982 38.7807 168.545 37.9641 172.489 36.7374C176.448 35.5058 180.847 33.843 185.074 32.1144C193.528 28.657 201.327 24.9239 203.608 23.8168C203.644 23.7992 203.673 23.8025 203.693 23.8109C203.712 23.8193 203.733 23.837 203.745 23.8743Z" stroke="white" stroke-opacity="0.5" stroke-width="1.09091"/>
</mask>
<g mask="url(#mask5_630_53188)">
<g style="mix-blend-mode:overlay">
<circle cx="104.44" cy="115.641" r="1.01275" fill="white"/>
<circle cx="114.126" cy="82.2618" r="1.01275" fill="white"/>
<circle cx="116.085" cy="64.6749" r="1.01275" fill="white"/>
<circle cx="132.319" cy="108.763" r="1.01275" fill="white"/>
<circle cx="160.798" cy="108.763" r="1.01275" fill="white"/>
<path d="M100.4 105.704L100.035 104.718L99.0493 104.354L100.035 103.989L100.4 103.003L100.764 103.989L101.75 104.354L100.764 104.718L100.4 105.704Z" fill="#FFF7B0"/>
<path d="M139.209 84.3936L138.571 82.6687L136.846 82.0305L138.571 81.3922L139.209 79.6674L139.847 81.3922L141.572 82.0305L139.847 82.6687L139.209 84.3936Z" fill="#FFF7B0"/>
<path d="M127.944 63.5088L127.305 61.784L125.58 61.1457L127.305 60.5075L127.944 58.7826L128.582 60.5075L130.307 61.1457L128.582 61.784L127.944 63.5088Z" fill="#FFF7B0"/>
<path d="M145.959 109.672L145.321 107.947L143.596 107.309L145.321 106.671L145.959 104.946L146.597 106.671L148.322 107.309L146.597 107.947L145.959 109.672Z" fill="#FFF7B0"/>
<path d="M153.458 68.9873L152.069 65.2342L148.316 63.8454L152.069 62.4566L153.458 58.7034L154.846 62.4566L158.6 63.8454L154.846 65.2342L153.458 68.9873Z" fill="#FFF7B0"/>
<path opacity="0.25" d="M104.938 61.7852L101.999 53.8409L94.0545 50.9013L101.999 47.9616L104.938 40.0174L107.878 47.9616L115.822 50.9013L107.878 53.8409L104.938 61.7852Z" fill="#FFF7B0"/>
<path opacity="0.25" d="M116.948 112.452L114.009 104.371L106.064 101.381L114.009 98.3903L116.948 90.3091L119.888 98.3903L127.832 101.381L119.888 104.371L116.948 112.452Z" fill="#FFF7B0"/>
<path opacity="0.25" d="M158.045 97.0645L155.46 90.079L148.475 87.4941L155.46 84.9093L158.045 77.9238L160.63 84.9093L167.615 87.4941L160.63 90.079L158.045 97.0645Z" fill="#FFF7B0"/>
</g>
<g style="mix-blend-mode:overlay">
<circle cx="176.089" cy="113.993" r="1.01275" fill="white"/>
<circle cx="168.37" cy="68.3526" r="1.01275" fill="white"/>
<circle cx="185.774" cy="80.6143" r="1.01275" fill="white"/>
<circle cx="187.733" cy="63.0274" r="1.01275" fill="white"/>
<circle cx="203.968" cy="107.115" r="1.01275" fill="white"/>
<path d="M172.048 104.057L171.683 103.071L170.698 102.706L171.683 102.342L172.048 101.356L172.413 102.342L173.398 102.706L172.413 103.071L172.048 104.057Z" fill="#FFF7B0"/>
<path d="M210.858 82.7461L210.219 81.0213L208.495 80.383L210.219 79.7448L210.858 78.0199L211.496 79.7448L213.221 80.383L211.496 81.0213L210.858 82.7461Z" fill="#FFF7B0"/>
<path d="M199.592 61.8613L198.954 60.1365L197.229 59.4982L198.954 58.86L199.592 57.1352L200.23 58.86L201.955 59.4982L200.23 60.1365L199.592 61.8613Z" fill="#FFF7B0"/>
<path d="M217.608 108.024L216.969 106.3L215.245 105.661L216.969 105.023L217.608 103.298L218.246 105.023L219.971 105.661L218.246 106.3L217.608 108.024Z" fill="#FFF7B0"/>
<path opacity="0.25" d="M176.587 60.1377L173.647 52.1934L165.703 49.2538L173.647 46.3142L176.587 38.3699L179.526 46.3142L187.471 49.2538L179.526 52.1934L176.587 60.1377Z" fill="#FFF7B0"/>
<path opacity="0.25" d="M188.597 110.805L185.657 102.723L177.713 99.7331L185.657 96.7428L188.597 88.6616L191.536 96.7428L199.48 99.7332L191.536 102.723L188.597 110.805Z" fill="#FFF7B0"/>
</g>
</g>
</g>
<path d="M167.849 79.4541C153.475 79.4541 141.761 90.355 138.825 95.8408C138.812 95.8654 138.8 95.8848 138.785 95.9077C138.396 96.466 132.998 104.362 132.998 111.712C132.998 118.527 141.632 118.313 143.467 118.191C143.683 118.177 143.865 118.053 143.968 117.861C146.957 112.297 153.704 101.741 167.849 101.741C185.74 101.741 200.095 108.689 209.395 123.161C209.508 123.336 209.693 123.45 209.902 123.453C211.504 123.476 218.45 123.214 218.964 116.991C219.526 110.177 213.012 101.715 212.595 101.181C212.581 101.163 212.568 101.145 212.556 101.126C203.256 86.483 184.682 79.4541 167.849 79.4541Z" fill="url(#paint15_linear_630_53188)" stroke="#D1CDC5" stroke-width="1.09091"/>
<path d="M98.3154 318.461C103.193 304.238 148.815 306.961 148.815 306.961L159.84 281.336C159.84 281.336 172.815 317.961 160.036 331.694C147.257 345.427 93.4375 332.684 98.3154 318.461Z" fill="url(#paint16_radial_630_53188)"/>
<path d="M251.353 318.461C246.475 304.238 200.853 306.961 200.853 306.961L189.828 281.336C189.828 281.336 176.853 317.961 189.632 331.694C202.41 345.427 256.23 332.684 251.353 318.461Z" fill="url(#paint17_radial_630_53188)"/>
<path d="M124.795 208.428C124.795 208.428 148.115 223.011 175.231 223.011C202.347 223.011 225.211 208.428 225.211 208.428C228.734 223.432 236.034 261.828 223.786 281.281C208.371 305.761 182.906 314.157 175.003 314.157C167.1 314.157 141.635 305.761 126.221 281.281C113.972 261.828 121.272 223.432 124.795 208.428Z" fill="#FFE3B9"/>
<path d="M238.55 285.836C243.275 273.63 232.562 230.388 225.867 209.325C225.698 208.795 225.103 208.555 224.603 208.798C218.699 211.659 186.825 226.836 175.05 226.836C163.05 226.836 131.024 211.071 126.171 208.647C125.793 208.459 125.358 208.562 125.09 208.887C120.329 214.664 112.115 227.092 114.051 234.836C116.551 244.836 108.551 253.336 105.551 265.336C102.551 277.336 111.551 282.836 111.551 290.836C111.551 298.836 103.05 293.836 99.5499 301.336C97.0854 306.617 98.0555 312.286 99.119 315.273C99.3159 315.826 99.9905 315.99 100.491 315.682C112.623 308.217 147.422 320.114 163.881 327.262C163.996 327.312 164.115 327.336 164.24 327.336H187.714C187.931 327.336 188.144 327.255 188.31 327.116C215.255 304.422 247.055 317.82 248.55 312.836C249.729 308.906 242.64 303.69 238.755 301.453C238.619 301.375 238.467 301.34 238.311 301.321C236.342 301.078 233.938 297.749 238.55 285.836Z" fill="url(#paint18_linear_630_53188)"/>
<mask id="mask6_630_53188" style="mask-type:alpha" maskUnits="userSpaceOnUse" x="98" y="208" width="151" height="120">
<path d="M238.55 285.836C243.296 273.576 232.465 229.999 225.777 209.043C225.655 208.662 225.252 208.482 224.893 208.657C219.839 211.114 187.034 226.836 175.05 226.836C162.903 226.836 130.234 210.681 126.004 208.564C125.733 208.428 125.415 208.495 125.222 208.728C120.483 214.433 112.097 227.02 114.051 234.836C116.551 244.836 108.551 253.336 105.551 265.336C102.551 277.336 111.551 282.836 111.551 290.836C111.551 298.836 103.05 293.836 99.5499 301.336C96.9991 306.802 98.1277 312.683 99.2309 315.577C99.3811 315.971 99.8629 316.089 100.215 315.857C112.099 308.027 147.363 320.083 163.929 327.283C164.011 327.319 164.096 327.336 164.186 327.336H187.809C187.965 327.336 188.118 327.278 188.237 327.178C215.197 304.398 247.053 317.824 248.55 312.836C249.735 308.886 242.568 303.637 238.697 301.42C238.599 301.363 238.491 301.338 238.378 301.328C236.397 301.153 233.886 297.884 238.55 285.836Z" fill="url(#paint19_radial_630_53188)"/>
<path d="M225.257 209.209C228.596 219.669 232.97 235.782 235.916 250.805C237.389 258.317 238.503 265.545 238.953 271.652C239.405 277.786 239.18 282.698 238.041 285.639C235.698 291.692 235.122 295.623 235.431 298.102C235.743 300.605 236.997 301.753 238.33 301.872C238.395 301.877 238.419 301.889 238.426 301.893C240.336 302.987 243.054 304.827 245.138 306.868C246.181 307.889 247.042 308.939 247.571 309.95C248.101 310.963 248.268 311.879 248.027 312.679C247.943 312.962 247.609 313.258 246.556 313.41C245.55 313.556 244.128 313.534 242.316 313.433C241.423 313.384 240.443 313.315 239.385 313.242C236.188 313.019 232.282 312.747 227.937 312.79C216.345 312.905 201.498 315.259 187.885 326.761C187.861 326.781 187.831 326.79 187.809 326.79H164.186C164.174 326.79 164.165 326.789 164.157 326.787C164.153 326.786 164.15 326.784 164.146 326.783C155.843 323.174 142.854 318.347 130.442 315.403C124.237 313.931 118.157 312.924 112.869 312.781C107.599 312.639 103.028 313.351 99.9148 315.402C99.8706 315.431 99.8239 315.435 99.7906 315.426C99.7748 315.421 99.7643 315.415 99.758 315.409C99.7525 315.404 99.7461 315.397 99.7405 315.382C98.6665 312.565 97.579 306.849 100.044 301.567C101.599 298.236 104.164 297.555 106.643 296.896C106.764 296.864 106.884 296.832 107.004 296.8C108.271 296.46 109.571 296.075 110.535 295.201C111.533 294.294 112.096 292.938 112.096 290.836C112.096 288.731 111.504 286.809 110.691 284.946C110.205 283.83 109.619 282.695 109.03 281.552C108.652 280.82 108.273 280.084 107.917 279.348C106.069 275.53 104.624 271.293 106.08 265.468C107.179 261.071 108.949 257.169 110.64 253.439C111.236 252.126 111.822 250.834 112.366 249.548C114.437 244.652 115.875 239.885 114.58 234.704C114.121 232.868 114.261 230.713 114.835 228.392C115.408 226.077 116.402 223.632 117.613 221.236C120.035 216.444 123.291 211.906 125.641 209.077C125.659 209.055 125.679 209.045 125.696 209.042C125.713 209.038 125.735 209.039 125.76 209.052C127.879 210.112 137.116 214.686 147.346 218.997C152.461 221.151 157.832 223.244 162.691 224.798C167.533 226.348 171.922 227.381 175.05 227.381C178.136 227.381 182.501 226.376 187.346 224.862C192.207 223.343 197.605 221.294 202.777 219.172C213.124 214.929 222.601 210.378 225.131 209.148C225.167 209.13 225.19 209.135 225.205 209.141C225.22 209.148 225.243 209.165 225.257 209.209Z" stroke="white" stroke-opacity="0.5" stroke-width="1.09091"/>
</mask>
<g mask="url(#mask6_630_53188)">
<g style="mix-blend-mode:overlay">
<circle cx="104.611" cy="320.828" r="1.22977" fill="white"/>
<circle cx="116.372" cy="280.296" r="1.22977" fill="white"/>
<circle cx="118.751" cy="258.941" r="1.22977" fill="white"/>
<circle cx="138.466" cy="312.476" r="1.22977" fill="white"/>
<circle cx="173.046" cy="312.476" r="1.22977" fill="white"/>
<path d="M99.706 308.762L99.2632 307.565L98.0663 307.122L99.2632 306.679L99.706 305.482L100.149 306.679L101.346 307.122L100.149 307.565L99.706 308.762Z" fill="#FFF7B0"/>
<path d="M146.83 282.885L146.055 280.79L143.96 280.015L146.055 279.24L146.83 277.146L147.605 279.24L149.699 280.015L147.605 280.79L146.83 282.885Z" fill="#FFF7B0"/>
<path d="M133.152 257.525L132.377 255.431L130.283 254.656L132.377 253.881L133.152 251.786L133.927 253.881L136.021 254.656L133.927 255.431L133.152 257.525Z" fill="#FFF7B0"/>
<path d="M155.027 313.58L154.252 311.486L152.158 310.711L154.252 309.936L155.027 307.841L155.802 309.936L157.896 310.711L155.802 311.486L155.027 313.58Z" fill="#FFF7B0"/>
<path d="M164.131 264.178L162.445 259.62L157.887 257.934L162.445 256.248L164.131 251.69L165.818 256.248L170.375 257.934L165.818 259.62L164.131 264.178Z" fill="#FFF7B0"/>
<path opacity="0.25" d="M105.215 255.433L101.646 245.786L91.9993 242.216L101.646 238.647L105.215 229L108.785 238.647L118.432 242.216L108.785 245.786L105.215 255.433Z" fill="#FFF7B0"/>
<path opacity="0.25" d="M119.799 316.956L116.23 307.143L106.583 303.512L116.23 299.881L119.799 290.068L123.369 299.881L133.016 303.512L123.369 307.143L119.799 316.956Z" fill="#FFF7B0"/>
<path opacity="0.25" d="M169.703 298.271L166.564 289.788L158.082 286.649L166.564 283.511L169.703 275.028L172.842 283.511L181.324 286.649L172.842 289.788L169.703 298.271Z" fill="#FFF7B0"/>
</g>
<g style="mix-blend-mode:overlay">
<circle cx="191.611" cy="318.828" r="1.22977" fill="white"/>
<circle cx="182.24" cy="263.408" r="1.22977" fill="white"/>
<circle cx="203.372" cy="278.296" r="1.22977" fill="white"/>
<circle cx="205.751" cy="256.941" r="1.22977" fill="white"/>
<circle cx="225.466" cy="310.476" r="1.22977" fill="white"/>
<path d="M186.706 306.762L186.263 305.565L185.066 305.122L186.263 304.679L186.706 303.482L187.149 304.679L188.346 305.122L187.149 305.565L186.706 306.762Z" fill="#FFF7B0"/>
<path d="M233.83 280.885L233.055 278.79L230.96 278.015L233.055 277.24L233.83 275.146L234.605 277.24L236.699 278.015L234.605 278.79L233.83 280.885Z" fill="#FFF7B0"/>
<path d="M220.152 255.525L219.377 253.431L217.283 252.656L219.377 251.881L220.152 249.786L220.927 251.881L223.021 252.656L220.927 253.431L220.152 255.525Z" fill="#FFF7B0"/>
<path d="M206.48 331.632L205.705 329.537L203.611 328.762L205.705 327.987L206.48 325.893L207.255 327.987L209.35 328.762L207.255 329.537L206.48 331.632Z" fill="#FFF7B0"/>
<path d="M242.027 311.58L241.252 309.486L239.158 308.711L241.252 307.936L242.027 305.841L242.802 307.936L244.896 308.711L242.802 309.486L242.027 311.58Z" fill="#FFF7B0"/>
<path d="M251.131 262.178L249.445 257.62L244.887 255.934L249.445 254.248L251.131 249.69L252.818 254.248L257.375 255.934L252.818 257.62L251.131 262.178Z" fill="#FFF7B0"/>
<path opacity="0.25" d="M192.215 253.433L188.646 243.786L178.999 240.216L188.646 236.647L192.215 227L195.785 236.647L205.432 240.216L195.785 243.786L192.215 253.433Z" fill="#FFF7B0"/>
<path opacity="0.25" d="M206.799 314.956L203.23 305.143L193.583 301.512L203.23 297.881L206.799 288.068L210.369 297.881L220.016 301.512L210.369 305.143L206.799 314.956Z" fill="#FFF7B0"/>
<path opacity="0.25" d="M256.703 296.271L253.564 287.788L245.082 284.649L253.564 281.511L256.703 273.028L259.842 281.511L268.324 284.649L259.842 287.788L256.703 296.271Z" fill="#FFF7B0"/>
</g>
</g>
<path d="M166.663 280.313C170.58 252.676 166.469 236.599 160.872 226.402C160.748 226.177 160.505 226.05 160.249 226.072L147.164 227.166C146.941 227.185 146.743 227.314 146.642 227.514C140.673 239.373 141.888 260.029 154.959 292.078C158.914 301.777 168.785 317.629 182.49 325.499C183.023 325.804 183.522 325.314 183.164 324.815C178.669 318.561 163.031 305.944 166.663 280.313Z" fill="url(#paint20_linear_630_53188)" stroke="#D1CDC5" stroke-width="1.09091"/>
<path d="M155.89 289.197C142.232 255.706 156.083 228.423 165.446 218.448C165.825 218.044 165.585 217.366 165.034 217.306L147.76 215.431C147.566 215.41 147.375 215.474 147.237 215.611C135.59 227.183 129.938 254.786 145.858 293.864C145.874 293.903 145.894 293.942 145.917 293.977C157.844 312.115 177.858 327.128 172.003 320.836C169.753 318.418 158.374 296.187 155.89 289.197Z" fill="url(#paint21_linear_630_53188)" stroke="#D1CDC5" stroke-width="1.09091"/>
<path d="M144.763 287.135C131.105 253.645 144.752 226.081 154.1 216.087C154.479 215.682 154.239 215.005 153.688 214.945L136.414 213.07C136.22 213.049 136.029 213.113 135.89 213.25C124.222 224.786 117.279 248.991 133.229 288.1C138.153 300.172 151.694 311.048 160.004 314.053C160.552 314.251 160.994 313.679 160.673 313.192C156.876 307.419 147.619 296.09 144.763 287.135Z" fill="url(#paint22_linear_630_53188)" stroke="#D1CDC5" stroke-width="1.09091"/>
<path d="M121.981 259.487C120.007 236.711 127.623 218.771 138.725 213.162C145.907 209.533 152.315 208.152 155.943 207.629C156.646 207.528 156.767 206.537 156.083 206.349C150.856 204.91 139.683 202.938 129.874 208.566C116.536 216.219 109.847 228.358 112.087 254.208C112.751 261.872 118.857 272.846 123.212 276.8C123.644 277.192 124.238 276.793 124.118 276.223C123.255 272.123 122.024 264.937 121.981 259.487Z" fill="url(#paint23_linear_630_53188)" stroke="#D1CDC5" stroke-width="1.09091"/>
<path d="M134.676 281.11C127.363 252.788 133.174 228.538 145.994 219.11C154.835 212.608 163.105 209.515 167.387 208.222C168.066 208.016 168.035 207.018 167.33 206.934C160.855 206.158 145.537 205.596 133.853 215.184C118.643 227.666 112.774 244.399 121.074 276.543C123.585 286.264 133.97 299.134 140.274 302.929C140.774 303.23 141.295 302.728 141.08 302.186C139.135 297.281 135.918 288.17 134.676 281.11Z" fill="url(#paint24_linear_630_53188)" stroke="#D1CDC5" stroke-width="1.09091"/>
<path d="M183.503 294.336C191.618 266.598 184.7 244.804 180.36 233.424C180.269 233.185 180.048 233.028 179.792 233.012L166.202 232.191C165.978 232.177 165.764 232.277 165.635 232.461C157.757 243.717 155.934 265.054 164.569 299.825C167.181 310.345 169.548 313.736 182.017 322.767C182.515 323.127 183.119 322.681 182.809 322.15C180.599 318.357 176.2 319.299 183.503 294.336Z" fill="url(#paint25_linear_630_53188)" stroke="#D1CDC5" stroke-width="1.09091"/>
<path d="M175.521 280.313C171.604 252.677 176.69 238.553 182.311 228.403C182.435 228.178 182.679 228.05 182.934 228.072L196.019 229.166C196.243 229.185 196.441 229.314 196.541 229.515C202.511 241.373 201.295 262.029 188.225 294.078C184.269 303.777 174.398 319.629 160.693 327.499C160.161 327.805 159.647 327.307 159.987 326.796C164.324 320.271 179.157 305.97 175.521 280.313Z" fill="url(#paint26_linear_630_53188)" stroke="#D1CDC5" stroke-width="1.09091"/>
<path d="M187.293 291.197C200.951 257.706 187.1 230.423 177.737 220.448C177.358 220.044 177.598 219.366 178.149 219.306L195.423 217.431C195.617 217.41 195.808 217.474 195.946 217.611C207.591 229.182 213.243 256.779 197.331 295.85C197.311 295.898 197.284 295.946 197.253 295.989C183.345 315.106 168.814 323.989 174.668 317.698C176.918 315.28 184.809 298.187 187.293 291.197Z" fill="url(#paint27_linear_630_53188)" stroke="#D1CDC5" stroke-width="1.09091"/>
<path d="M198.421 289.135C212.08 255.644 198.433 228.081 189.084 218.087C188.705 217.682 188.946 217.004 189.497 216.944L206.771 215.07C206.965 215.049 207.156 215.113 207.295 215.25C218.962 226.786 225.905 250.991 209.955 290.1C205.034 302.167 192.385 313.039 184.18 316.049C183.633 316.25 183.187 315.676 183.499 315.184C187.168 309.409 195.567 298.086 198.421 289.135Z" fill="url(#paint28_linear_630_53188)" stroke="#D1CDC5" stroke-width="1.09091"/>
<path d="M227.201 259.487C229.175 236.711 221.558 218.771 210.457 213.162C203.274 209.533 196.867 208.152 193.239 207.629C192.536 207.528 192.414 206.537 193.099 206.349C198.326 204.91 209.499 202.938 219.308 208.566C232.646 216.219 239.335 228.358 237.095 254.208C236.431 261.872 230.325 272.846 225.97 276.8C225.538 277.192 224.943 276.793 225.064 276.223C225.926 272.123 227.158 264.937 227.201 259.487Z" fill="url(#paint29_linear_630_53188)" stroke="#D1CDC5" stroke-width="1.09091"/>
<path d="M214.505 281.11C221.819 252.788 216.008 228.538 203.187 219.11C194.347 212.608 186.077 209.515 181.795 208.222C181.115 208.016 181.146 207.018 181.851 206.934C188.327 206.158 203.645 205.596 215.329 215.184C230.539 227.666 236.408 244.399 228.107 276.543C225.597 286.264 215.211 299.134 208.908 302.929C208.408 303.23 207.887 302.728 208.102 302.186C210.046 297.281 213.263 288.17 214.505 281.11Z" fill="url(#paint30_linear_630_53188)" stroke="#D1CDC5" stroke-width="1.09091"/>
<path d="M170.672 212.457C185.792 211.858 208.391 212.77 216.055 232.008C222.693 248.668 231.641 253.352 237.212 252.119C237.825 251.904 238.423 251.685 239.004 251.462C238.458 251.754 237.857 251.977 237.212 252.119C215.294 259.816 173.972 262.015 170.057 213.175C170.027 212.807 170.303 212.472 170.672 212.457Z" fill="url(#paint31_linear_630_53188)"/>
<path d="M216.055 232.008C208.391 212.77 185.792 211.858 170.672 212.457C170.303 212.472 170.027 212.807 170.057 213.175C174.082 263.381 217.635 259.653 239.004 251.462C233.747 254.277 223.462 250.6 216.055 232.008Z" stroke="#D1CDC5" stroke-width="1.09091"/>
<path d="M179.336 212.457C164.216 211.858 141.617 212.77 133.953 232.008C127.315 248.668 118.367 253.352 112.796 252.119C112.183 251.904 111.585 251.685 111.004 251.462C111.55 251.754 112.15 251.977 112.796 252.119C134.714 259.816 176.036 262.015 179.951 213.175C179.981 212.807 179.705 212.472 179.336 212.457Z" fill="url(#paint32_linear_630_53188)"/>
<path d="M133.953 232.008C141.617 212.77 164.216 211.858 179.336 212.457C179.705 212.472 179.981 212.807 179.951 213.175C175.926 263.381 132.373 259.653 111.004 251.462C116.261 254.277 126.546 250.6 133.953 232.008Z" stroke="#D1CDC5" stroke-width="1.09091"/>
<g filter="url(#filter9_d_630_53188)">
<path d="M174.217 235.138C191.973 235.589 201.686 228.722 203.254 221.521C206.052 208.673 184.717 202.636 170.369 203.68C156.021 204.724 147.024 208.975 145.558 215.802C144.092 222.629 156.461 234.687 174.217 235.138Z" fill="#FFE3B9"/>
</g>
</g>
<defs>
<filter id="filter0_f_630_53188" x="-1.74284" y="-1.77799" width="353.646" height="353.646" filterUnits="userSpaceOnUse" color-interpolation-filters="sRGB">
<feFlood flood-opacity="0" result="BackgroundImageFix"/>
<feBlend mode="normal" in="SourceGraphic" in2="BackgroundImageFix" result="shape"/>
<feGaussianBlur stdDeviation="0.911458" result="effect1_foregroundBlur_630_53188"/>
</filter>
<filter id="filter1_f_630_53188" x="-98.2702" y="267.839" width="550.007" height="194.694" filterUnits="userSpaceOnUse" color-interpolation-filters="sRGB">
<feFlood flood-opacity="0" result="BackgroundImageFix"/>
<feBlend mode="normal" in="SourceGraphic" in2="BackgroundImageFix" result="shape"/>
<feGaussianBlur stdDeviation="2.27865" result="effect1_foregroundBlur_630_53188"/>
</filter>
<filter id="filter2_f_630_53188" x="-103.46" y="-208.457" width="555.71" height="683.016" filterUnits="userSpaceOnUse" color-interpolation-filters="sRGB">
<feFlood flood-opacity="0" result="BackgroundImageFix"/>
<feBlend mode="normal" in="SourceGraphic" in2="BackgroundImageFix" result="shape"/>
<feGaussianBlur stdDeviation="2.27865" result="effect1_foregroundBlur_630_53188"/>
</filter>
<filter id="filter3_f_630_53188" x="122.59" y="92.3132" width="105.59" height="135.355" filterUnits="userSpaceOnUse" color-interpolation-filters="sRGB">
<feFlood flood-opacity="0" result="BackgroundImageFix"/>
<feBlend mode="normal" in="SourceGraphic" in2="BackgroundImageFix" result="shape"/>
<feGaussianBlur stdDeviation="1.13932" result="effect1_foregroundBlur_630_53188"/>
</filter>
<filter id="filter4_f_630_53188" x="128.018" y="65.9987" width="37.5964" height="176.65" filterUnits="userSpaceOnUse" color-interpolation-filters="sRGB">
<feFlood flood-opacity="0" result="BackgroundImageFix"/>
<feBlend mode="normal" in="SourceGraphic" in2="BackgroundImageFix" result="shape"/>
<feGaussianBlur stdDeviation="0.455729" result="effect1_foregroundBlur_630_53188"/>
</filter>
<filter id="filter5_f_630_53188" x="122.745" y="92.0573" width="104.985" height="135.355" filterUnits="userSpaceOnUse" color-interpolation-filters="sRGB">
<feFlood flood-opacity="0" result="BackgroundImageFix"/>
<feBlend mode="normal" in="SourceGraphic" in2="BackgroundImageFix" result="shape"/>
<feGaussianBlur stdDeviation="1.13932" result="effect1_foregroundBlur_630_53188"/>
</filter>
<filter id="filter6_f_630_53188" x="112.262" y="75.195" width="96.1589" height="65.1696" filterUnits="userSpaceOnUse" color-interpolation-filters="sRGB">
<feFlood flood-opacity="0" result="BackgroundImageFix"/>
<feBlend mode="normal" in="SourceGraphic" in2="BackgroundImageFix" result="shape"/>
<feGaussianBlur stdDeviation="0.455729" result="effect1_foregroundBlur_630_53188"/>
</filter>
<filter id="filter7_f_630_53188" x="128.173" y="65.7428" width="37.5964" height="176.65" filterUnits="userSpaceOnUse" color-interpolation-filters="sRGB">
<feFlood flood-opacity="0" result="BackgroundImageFix"/>
<feBlend mode="normal" in="SourceGraphic" in2="BackgroundImageFix" result="shape"/>
<feGaussianBlur stdDeviation="0.455729" result="effect1_foregroundBlur_630_53188"/>
</filter>
<filter id="filter8_d_630_53188" x="127.926" y="12.4493" width="93.9138" height="25.779" filterUnits="userSpaceOnUse" color-interpolation-filters="sRGB">
<feFlood flood-opacity="0" result="BackgroundImageFix"/>
<feColorMatrix in="SourceAlpha" type="matrix" values="0 0 0 0 0 0 0 0 0 0 0 0 0 0 0 0 0 0 127 0" result="hardAlpha"/>
<feOffset/>
<feGaussianBlur stdDeviation="1.66205"/>
<feComposite in2="hardAlpha" operator="out"/>
<feColorMatrix type="matrix" values="0 0 0 0 1 0 0 0 0 1 0 0 0 0 1 0 0 0 1 0"/>
<feBlend mode="normal" in2="BackgroundImageFix" result="effect1_dropShadow_630_53188"/>
<feBlend mode="normal" in="SourceGraphic" in2="effect1_dropShadow_630_53188" result="shape"/>
</filter>
<filter id="filter9_d_630_53188" x="143.439" y="203.564" width="62.0645" height="35.5947" filterUnits="userSpaceOnUse" color-interpolation-filters="sRGB">
<feFlood flood-opacity="0" result="BackgroundImageFix"/>
<feColorMatrix in="SourceAlpha" type="matrix" values="0 0 0 0 0 0 0 0 0 0 0 0 0 0 0 0 0 0 127 0" result="hardAlpha"/>
<feOffset dy="2"/>
<feGaussianBlur stdDeviation="1"/>
<feComposite in2="hardAlpha" operator="out"/>
<feColorMatrix type="matrix" values="0 0 0 0 0 0 0 0 0 0 0 0 0 0 0 0 0 0 0.25 0"/>
<feBlend mode="normal" in2="BackgroundImageFix" result="effect1_dropShadow_630_53188"/>
<feBlend mode="normal" in="SourceGraphic" in2="effect1_dropShadow_630_53188" result="shape"/>
</filter>
<radialGradient id="paint0_radial_630_53188" cx="0" cy="0" r="1" gradientUnits="userSpaceOnUse" gradientTransform="translate(270.447 106.491) rotate(99.1226) scale(61.1193 174.192)">
<stop stop-color="white" stop-opacity="0.75"/>
<stop offset="1" stop-color="white" stop-opacity="0"/>
</radialGradient>
<radialGradient id="paint1_radial_630_53188" cx="0" cy="0" r="1" gradientUnits="userSpaceOnUse" gradientTransform="translate(174.396 182.812) rotate(92.5586) scale(219.36 178.105)">
<stop stop-color="white" stop-opacity="0.75"/>
<stop offset="1" stop-color="white" stop-opacity="0"/>
</radialGradient>
<radialGradient id="paint2_radial_630_53188" cx="0" cy="0" r="1" gradientUnits="userSpaceOnUse" gradientTransform="translate(146.534 191.287) rotate(27.0217) scale(58.9487 42.2679)">
<stop offset="0.239583" stop-color="#21F6EA"/>
<stop offset="1" stop-color="#2183F6"/>
</radialGradient>
<radialGradient id="paint3_radial_630_53188" cx="0" cy="0" r="1" gradientUnits="userSpaceOnUse" gradientTransform="translate(146.381 191.229) rotate(27.0849) scale(58.9221 42.3164)">
<stop offset="0.302083" stop-color="#FFB800"/>
<stop offset="1" stop-color="#FF7800"/>
</radialGradient>
<linearGradient id="paint4_linear_630_53188" x1="160.729" y1="221.194" x2="201.954" y2="178.256" gradientUnits="userSpaceOnUse">
<stop stop-color="#F2F2F2"/>
<stop offset="0.0001" stop-color="#F2F2F2"/>
<stop offset="0.0520833" stop-color="#F2F2F2" stop-opacity="0.948011"/>
<stop offset="1" stop-color="#F2F2F2" stop-opacity="0"/>
</linearGradient>
<radialGradient id="paint5_radial_630_53188" cx="0" cy="0" r="1" gradientUnits="userSpaceOnUse" gradientTransform="translate(191.729 162.519) rotate(46.8342) scale(26.8393 23.7258)">
<stop offset="0.239583" stop-color="#21F6EA"/>
<stop offset="1" stop-color="#2183F6"/>
</radialGradient>
<radialGradient id="paint6_radial_630_53188" cx="0" cy="0" r="1" gradientUnits="userSpaceOnUse" gradientTransform="translate(182.571 126.436) rotate(44.0466) scale(14.8196 13.1201)">
<stop offset="0.239583" stop-color="#21F6EA"/>
<stop offset="1" stop-color="#2183F6"/>
</radialGradient>
<radialGradient id="paint7_radial_630_53188" cx="0" cy="0" r="1" gradientUnits="userSpaceOnUse" gradientTransform="translate(154.854 110.285) rotate(51.6546) scale(54.4557 46.9419)">
<stop offset="0.239583" stop-color="#21F6EA"/>
<stop offset="1" stop-color="#2183F6"/>
</radialGradient>
<radialGradient id="paint8_radial_630_53188" cx="0" cy="0" r="1" gradientUnits="userSpaceOnUse" gradientTransform="translate(156.087 109.101) rotate(53.0717) scale(37.8406 40.3077)">
<stop offset="0.203125" stop-color="#71FF30"/>
<stop offset="0.890625" stop-color="#25BC46"/>
</radialGradient>
<linearGradient id="paint9_linear_630_53188" x1="145.368" y1="123.01" x2="155.982" y2="72.2914" gradientUnits="userSpaceOnUse">
<stop stop-color="white" stop-opacity="0"/>
<stop offset="0.471361" stop-color="white"/>
<stop offset="1" stop-color="white"/>
</linearGradient>
<linearGradient id="paint10_linear_630_53188" x1="160.884" y1="220.938" x2="202.109" y2="178" gradientUnits="userSpaceOnUse">
<stop stop-color="#F2F2F2"/>
<stop offset="0.0001" stop-color="#F2F2F2"/>
<stop offset="0.0520833" stop-color="#F2F2F2" stop-opacity="0.948011"/>
<stop offset="1" stop-color="#F2F2F2" stop-opacity="0"/>
</linearGradient>
<linearGradient id="paint11_linear_630_53188" x1="115.408" y1="51.4282" x2="162.913" y2="137.165" gradientUnits="userSpaceOnUse">
<stop offset="0.0192398" stop-color="#E8F3FC" stop-opacity="0.98"/>
<stop offset="0.281022" stop-color="#6A9EE2"/>
<stop offset="0.548814" stop-color="#1D5DA2" stop-opacity="0.98"/>
<stop offset="0.847389" stop-color="#9CCBF4" stop-opacity="0.98"/>
<stop offset="1" stop-color="#E8F3FC" stop-opacity="0.98"/>
</linearGradient>
<linearGradient id="paint12_linear_630_53188" x1="85.5682" y1="29.7186" x2="99.1447" y2="43.5331" gradientUnits="userSpaceOnUse">
<stop stop-color="#F9F0E3"/>
<stop offset="0.713155" stop-color="white"/>
<stop offset="1" stop-color="#F1EBE2"/>
</linearGradient>
<radialGradient id="paint13_radial_630_53188" cx="0" cy="0" r="1" gradientUnits="userSpaceOnUse" gradientTransform="translate(124.383 61.7541) rotate(36.0407) scale(76.556 64.5247)">
<stop offset="0.239583" stop-color="#8846DD"/>
<stop offset="1" stop-color="#A894F7"/>
</radialGradient>
<radialGradient id="paint14_radial_630_53188" cx="0" cy="0" r="1" gradientUnits="userSpaceOnUse" gradientTransform="translate(125.694 45.9109) rotate(42.5006) scale(88.2934 77.9137)">
<stop offset="0.239583" stop-color="#8846DD"/>
<stop offset="1" stop-color="#A894F7"/>
</radialGradient>
<linearGradient id="paint15_linear_630_53188" x1="151.892" y1="74.289" x2="185.095" y2="108.362" gradientUnits="userSpaceOnUse">
<stop stop-color="#F9F0E3"/>
<stop offset="0.713155" stop-color="white"/>
<stop offset="1" stop-color="#F1EBE2"/>
</linearGradient>
<radialGradient id="paint16_radial_630_53188" cx="0" cy="0" r="1" gradientUnits="userSpaceOnUse" gradientTransform="translate(131.835 309.458) rotate(90) scale(28.1223 33.8308)">
<stop offset="0.453125" stop-color="#564D61"/>
<stop offset="1" stop-color="#1D1A21"/>
</radialGradient>
<radialGradient id="paint17_radial_630_53188" cx="0" cy="0" r="1" gradientUnits="userSpaceOnUse" gradientTransform="translate(217.833 309.458) rotate(90) scale(28.1223 33.8308)">
<stop offset="0.453125" stop-color="#564D61"/>
<stop offset="1" stop-color="#1D1A21"/>
</radialGradient>
<linearGradient id="paint18_linear_630_53188" x1="120.235" y1="221.159" x2="204.801" y2="342.352" gradientUnits="userSpaceOnUse">
<stop offset="0.0192398" stop-color="#E8F3FC" stop-opacity="0.98"/>
<stop offset="0.281022" stop-color="#6A9EE2"/>
<stop offset="0.548814" stop-color="#1D5DA2" stop-opacity="0.98"/>
<stop offset="0.847389" stop-color="#9CCBF4" stop-opacity="0.98"/>
<stop offset="1" stop-color="#E8F3FC" stop-opacity="0.98"/>
</linearGradient>
<radialGradient id="paint19_radial_630_53188" cx="0" cy="0" r="1" gradientUnits="userSpaceOnUse" gradientTransform="translate(130.418 236.156) rotate(42.5006) scale(107.213 94.6095)">
<stop offset="0.239583" stop-color="#8846DD"/>
<stop offset="1" stop-color="#A894F7"/>
</radialGradient>
<linearGradient id="paint20_linear_630_53188" x1="168.193" y1="227.378" x2="140.864" y2="229.71" gradientUnits="userSpaceOnUse">
<stop stop-color="#F9F0E3"/>
<stop offset="0.713155" stop-color="white"/>
<stop offset="1" stop-color="#F1EBE2"/>
</linearGradient>
<linearGradient id="paint21_linear_630_53188" x1="166.293" y1="214.764" x2="135.33" y2="216.53" gradientUnits="userSpaceOnUse">
<stop stop-color="#F9F0E3"/>
<stop offset="0.713155" stop-color="white"/>
<stop offset="1" stop-color="#F1EBE2"/>
</linearGradient>
<linearGradient id="paint22_linear_630_53188" x1="161.336" y1="213.824" x2="123.123" y2="220.166" gradientUnits="userSpaceOnUse">
<stop stop-color="#F9F0E3"/>
<stop offset="0.713155" stop-color="white"/>
<stop offset="1" stop-color="#F1EBE2"/>
</linearGradient>
<linearGradient id="paint23_linear_630_53188" x1="153.501" y1="202.661" x2="129.369" y2="197.697" gradientUnits="userSpaceOnUse">
<stop stop-color="#F9F0E3"/>
<stop offset="0.713155" stop-color="white"/>
<stop offset="1" stop-color="#F1EBE2"/>
</linearGradient>
<linearGradient id="paint24_linear_630_53188" x1="162.416" y1="202.73" x2="130.914" y2="201.577" gradientUnits="userSpaceOnUse">
<stop stop-color="#F9F0E3"/>
<stop offset="0.713155" stop-color="white"/>
<stop offset="1" stop-color="#F1EBE2"/>
</linearGradient>
<linearGradient id="paint25_linear_630_53188" x1="187.718" y1="235.527" x2="159.384" y2="233.862" gradientUnits="userSpaceOnUse">
<stop stop-color="#F9F0E3"/>
<stop offset="0.713155" stop-color="white"/>
<stop offset="1" stop-color="#F1EBE2"/>
</linearGradient>
<linearGradient id="paint26_linear_630_53188" x1="174.991" y1="229.378" x2="202.32" y2="231.71" gradientUnits="userSpaceOnUse">
<stop stop-color="#F9F0E3"/>
<stop offset="0.713155" stop-color="white"/>
<stop offset="1" stop-color="#F1EBE2"/>
</linearGradient>
<linearGradient id="paint27_linear_630_53188" x1="176.891" y1="216.764" x2="207.853" y2="218.53" gradientUnits="userSpaceOnUse">
<stop stop-color="#F9F0E3"/>
<stop offset="0.713155" stop-color="white"/>
<stop offset="1" stop-color="#F1EBE2"/>
</linearGradient>
<linearGradient id="paint28_linear_630_53188" x1="181.849" y1="215.823" x2="220.062" y2="222.166" gradientUnits="userSpaceOnUse">
<stop stop-color="#F9F0E3"/>
<stop offset="0.713155" stop-color="white"/>
<stop offset="1" stop-color="#F1EBE2"/>
</linearGradient>
<linearGradient id="paint29_linear_630_53188" x1="195.681" y1="202.661" x2="219.813" y2="197.697" gradientUnits="userSpaceOnUse">
<stop stop-color="#F9F0E3"/>
<stop offset="0.713155" stop-color="white"/>
<stop offset="1" stop-color="#F1EBE2"/>
</linearGradient>
<linearGradient id="paint30_linear_630_53188" x1="186.766" y1="202.73" x2="218.267" y2="201.577" gradientUnits="userSpaceOnUse">
<stop stop-color="#F9F0E3"/>
<stop offset="0.713155" stop-color="white"/>
<stop offset="1" stop-color="#F1EBE2"/>
</linearGradient>
<linearGradient id="paint31_linear_630_53188" x1="187.661" y1="211.431" x2="215.49" y2="243.029" gradientUnits="userSpaceOnUse">
<stop stop-color="#F9F0E3"/>
<stop offset="0.713155" stop-color="white"/>
<stop offset="1" stop-color="#F1EBE2"/>
</linearGradient>
<linearGradient id="paint32_linear_630_53188" x1="162.347" y1="211.431" x2="134.518" y2="243.029" gradientUnits="userSpaceOnUse">
<stop stop-color="#F9F0E3"/>
<stop offset="0.713155" stop-color="white"/>
<stop offset="1" stop-color="#F1EBE2"/>
</linearGradient>
<clipPath id="clip0_630_53188">
<rect width="350" height="350" fill="white"/>
</clipPath>
<clipPath id="clip1_630_53188">
<rect width="350" height="350" fill="white"/>
</clipPath>
<clipPath id="clip2_630_53188">
<rect width="350" height="350" fill="white"/>
</clipPath>
</defs>
</svg>
