<svg width="350" height="350" viewBox="0 0 350 350" fill="none" xmlns="http://www.w3.org/2000/svg">
<g clip-path="url(#clip0_650_62646)">
<rect x="0.078125" y="0.0439453" width="350" height="350" fill="#13235A"/>
<rect x="0.078125" y="0.0439453" width="350" height="350" fill="url(#paint0_radial_650_62646)" fill-opacity="0.2"/>
<path d="M125.978 290.538L299.832 190.751L430.987 233.88L212.559 294.049L125.978 290.538Z" fill="url(#paint1_linear_650_62646)"/>
<g opacity="0.45" filter="url(#filter0_f_650_62646)">
<ellipse rx="194.596" ry="66.7643" transform="matrix(0.999998 0.00221055 0.00221055 -0.999998 176.077 304.638)" fill="url(#paint2_radial_650_62646)"/>
</g>
<g opacity="0.7" filter="url(#filter1_f_650_62646)">
<ellipse cx="174.396" cy="137.609" rx="196.647" ry="242.448" transform="rotate(0.126655 174.396 137.609)" fill="url(#paint3_radial_650_62646)"/>
</g>
</g>
<path d="M148.648 94.3359L124.888 210.019C124.817 210.364 124.947 210.715 125.237 210.917C128.357 213.084 146.959 225.13 174.999 225.13C203.04 225.13 221.642 213.084 224.761 210.917C225.052 210.715 225.182 210.364 225.11 210.019L201.351 94.3359C201.317 94.4029 201.272 94.4652 201.218 94.5207C199.882 95.8694 193.227 101.485 174.999 101.485C156.772 101.485 150.117 95.8694 148.781 94.5207C148.726 94.4652 148.682 94.4029 148.648 94.3359Z" fill="black" fill-opacity="0.75"/>
<path d="M223.108 211.889C217.521 215.444 199.995 225.13 174.886 225.13C146.901 225.13 128.335 213.097 125.221 210.933C125.031 210.801 124.91 210.605 124.869 210.389C128.807 199.004 144.114 175.859 164.063 181.918C173.943 184.919 180.859 192.451 187.363 199.535C197.437 210.507 206.524 220.404 224.105 210.722C223.783 211.109 223.45 211.498 223.108 211.889Z" fill="url(#paint4_radial_650_62646)"/>
<path d="M177.734 130.913C177.734 127.951 179.774 122.048 187.933 122.136C196.091 122.224 198.203 128.024 198.239 130.913C198.312 133.035 197.089 137.628 191.621 139.033C184.786 140.788 177.734 136.838 177.734 130.913Z" fill="url(#paint5_radial_650_62646)"/>
<path d="M201.049 94.2302L205.113 114.031C203.523 113.76 201.871 113.447 200.18 113.127C186.038 110.452 169.252 107.276 165.003 123.73C163.148 130.914 165.836 135.212 168.45 139.393C170.975 143.43 173.431 147.358 171.668 153.668C169.523 161.349 157.859 166.324 148.479 162.994C138.57 159.476 139.266 144.903 144.961 137.849C150.656 130.794 151.48 120.03 150.656 112.87C150.259 109.409 148.549 106.934 146.313 105.25L148.649 93.8799C148.683 93.9469 148.727 94.0092 148.782 94.0646C150.117 95.4133 156.772 101.029 175 101.029C192.557 101.029 199.378 95.8187 201.049 94.2302Z" fill="url(#paint6_radial_650_62646)"/>
<mask id="mask0_650_62646" style="mask-type:alpha" maskUnits="userSpaceOnUse" x="140" y="93" width="66" height="72">
<path d="M201.049 94.2302L205.113 114.031C203.523 113.76 201.871 113.447 200.18 113.127C186.038 110.452 169.252 107.276 165.003 123.73C163.148 130.914 165.836 135.212 168.45 139.393C170.975 143.43 173.431 147.358 171.668 153.668C169.523 161.349 157.859 166.324 148.479 162.994C138.57 159.476 139.266 144.903 144.961 137.849C150.656 130.794 151.48 120.03 150.656 112.87C150.259 109.409 148.549 106.934 146.313 105.25L148.649 93.8799C148.683 93.9469 148.727 94.0092 148.782 94.0646C150.117 95.4133 156.772 101.029 175 101.029C192.557 101.029 199.378 95.8187 201.049 94.2302Z" fill="url(#paint7_radial_650_62646)"/>
</mask>
<g mask="url(#mask0_650_62646)">
<g filter="url(#filter2_f_650_62646)">
<mask id="mask1_650_62646" style="mask-type:alpha" maskUnits="userSpaceOnUse" x="124" y="94" width="102" height="132">
<path d="M148.861 95.0639C148.948 94.6401 149.321 94.3359 149.754 94.3359H200.245C200.678 94.3359 201.051 94.6401 201.138 95.0639L224.992 211.159C225.074 211.555 224.887 211.955 224.526 212.137C220.623 214.109 198.375 224.817 174.999 225.128C151.577 225.438 129.287 214.178 125.449 212.141C125.099 211.954 124.923 211.562 125.003 211.173L148.861 95.0639Z" fill="#577096" fill-opacity="0.75"/>
</mask>
<g mask="url(#mask1_650_62646)">
<g filter="url(#filter3_f_650_62646)">
<path d="M207.207 76.1064C210.865 110.268 145.939 132.571 113.02 139.453L113.02 76.1064L207.207 76.1064Z" fill="url(#paint8_linear_650_62646)" fill-opacity="0.5"/>
</g>
<g filter="url(#filter4_f_650_62646)">
<path d="M155.407 125.301C156.47 105.018 134.471 86.1828 128.929 66.9985C133.388 65.1973 144.05 70.7896 152.675 76.1247C163.456 82.7936 162.879 109.124 164.625 125.784C166.022 139.112 148.453 223.401 144.015 241.481L131.716 240.837C140.242 214.68 154.587 140.955 155.407 125.301Z" fill="url(#paint9_linear_650_62646)" fill-opacity="0.6"/>
</g>
</g>
</g>
</g>
<mask id="mask2_650_62646" style="mask-type:alpha" maskUnits="userSpaceOnUse" x="124" y="180" width="101" height="46">
<path d="M223.108 211.89C217.521 215.445 199.995 225.131 174.886 225.131C146.901 225.131 128.335 213.098 125.221 210.934C125.031 210.802 124.91 210.606 124.869 210.39C128.807 199.005 144.114 175.86 164.063 181.919C173.943 184.92 180.859 192.452 187.363 199.536C197.437 210.508 206.524 220.405 224.105 210.722C223.783 211.11 223.45 211.499 223.108 211.89Z" fill="url(#paint10_radial_650_62646)"/>
</mask>
<g mask="url(#mask2_650_62646)">
<g filter="url(#filter5_f_650_62646)">
<mask id="mask3_650_62646" style="mask-type:alpha" maskUnits="userSpaceOnUse" x="124" y="94" width="102" height="132">
<path d="M148.861 95.0639C148.948 94.6401 149.321 94.3359 149.754 94.3359H200.245C200.678 94.3359 201.051 94.6401 201.138 95.0639L224.992 211.159C225.074 211.555 224.887 211.955 224.526 212.137C220.623 214.109 198.375 224.817 174.999 225.128C151.577 225.438 129.287 214.178 125.449 212.141C125.099 211.954 124.923 211.562 125.003 211.173L148.861 95.0639Z" fill="#577096" fill-opacity="0.75"/>
</mask>
<g mask="url(#mask3_650_62646)">
<g filter="url(#filter6_f_650_62646)">
<path d="M155.407 125.301C156.47 105.018 134.471 86.1828 128.929 66.9985C133.388 65.1973 144.05 70.7896 152.675 76.1247C163.456 82.7936 162.879 109.124 164.625 125.784C166.022 139.112 148.453 223.401 144.015 241.481L131.716 240.837C140.242 214.68 154.587 140.955 155.407 125.301Z" fill="url(#paint11_linear_650_62646)" fill-opacity="0.6"/>
</g>
</g>
</g>
</g>
<path d="M155.659 61.9397C159.113 48.9622 161.899 32.3564 174.786 32.3564C187.672 32.3564 192.187 52.9169 194.342 62.2561C196.266 70.5904 200.403 89.5235 201.271 93.5016C201.376 93.9803 201.26 94.462 200.903 94.7978C199.08 96.5143 192.205 101.627 175.001 101.627C157.732 101.627 150.87 96.4762 149.078 94.7788C148.734 94.4533 148.616 93.9878 148.705 93.5228C149.398 89.9035 152.6 73.4323 155.659 61.9397Z" fill="black"/>
<path d="M155.659 61.9397C159.113 48.9622 161.899 32.3564 174.786 32.3564C187.672 32.3564 192.187 52.9169 194.342 62.2561C196.266 70.5904 200.403 89.5235 201.271 93.5016C201.376 93.9803 201.26 94.462 200.903 94.7978C199.08 96.5143 192.205 101.627 175.001 101.627C157.732 101.627 150.87 96.4762 149.078 94.7788C148.734 94.4533 148.616 93.9878 148.705 93.5228C149.398 89.9035 152.6 73.4323 155.659 61.9397Z" fill="url(#paint12_linear_650_62646)" fill-opacity="0.45"/>
<path d="M228.321 314.723L202.038 284.375H172.526H143.19L117.123 314.723C117.123 314.723 134.805 334.733 172.722 334.733C210.639 334.733 228.321 314.723 228.321 314.723Z" fill="black"/>
<path d="M124.792 210.091C124.792 210.091 148.111 224.674 175.227 224.674C202.343 224.674 225.207 210.091 225.207 210.091C228.73 225.095 236.03 263.492 223.782 282.944C208.367 307.424 182.902 315.82 174.999 315.82C167.097 315.82 141.632 307.424 126.217 282.944C113.968 263.492 121.268 225.095 124.792 210.091Z" fill="#6DF244"/>
<path d="M124.792 210.091C124.792 210.091 148.111 224.674 175.227 224.674C202.343 224.674 225.207 210.091 225.207 210.091C228.73 225.095 236.03 263.492 223.782 282.944C208.367 307.424 182.902 315.82 174.999 315.82C167.097 315.82 141.632 307.424 126.217 282.944C113.968 263.492 121.268 225.095 124.792 210.091Z" fill="url(#paint13_linear_650_62646)" fill-opacity="0.8"/>
<path d="M155.659 61.9397C159.113 48.9622 161.899 32.3564 174.786 32.3564C187.672 32.3564 192.187 52.9169 194.342 62.2561C196.266 70.5904 200.403 89.5235 201.271 93.5016C201.376 93.9803 201.26 94.462 200.903 94.7978C199.08 96.5143 192.205 101.627 175.001 101.627C157.732 101.627 150.87 96.4762 149.078 94.7788C148.734 94.4533 148.616 93.9878 148.705 93.5228C149.398 89.9035 152.6 73.4323 155.659 61.9397Z" fill="black"/>
<path d="M155.659 61.9397C159.113 48.9622 161.899 32.3564 174.786 32.3564C187.672 32.3564 192.187 52.9169 194.342 62.2561C196.266 70.5904 200.403 89.5235 201.271 93.5016C201.376 93.9803 201.26 94.462 200.903 94.7978C199.08 96.5143 192.205 101.627 175.001 101.627C157.732 101.627 150.87 96.4762 149.078 94.7788C148.734 94.4533 148.616 93.9878 148.705 93.5228C149.398 89.9035 152.6 73.4323 155.659 61.9397Z" fill="url(#paint14_linear_650_62646)" fill-opacity="0.45"/>
<g filter="url(#filter7_d_650_62646)">
<path d="M228.319 314.723L202.036 284.375H172.524H143.188L117.121 314.723C117.121 314.723 134.803 334.733 172.72 334.733C210.637 334.733 228.319 314.723 228.319 314.723Z" fill="black"/>
</g>
<path d="M124.79 210.091C124.79 210.091 148.109 224.674 175.225 224.674C202.341 224.674 225.205 210.091 225.205 210.091C228.729 225.095 236.028 263.492 223.78 282.944C208.365 307.424 182.9 315.82 174.997 315.82C167.095 315.82 141.63 307.424 126.215 282.944C113.966 263.492 121.266 225.095 124.79 210.091Z" fill="#6DF244"/>
<path d="M124.79 210.091C124.79 210.091 148.109 224.674 175.225 224.674C202.341 224.674 225.205 210.091 225.205 210.091C228.729 225.095 236.028 263.492 223.78 282.944C208.365 307.424 182.9 315.82 174.997 315.82C167.095 315.82 141.63 307.424 126.215 282.944C113.966 263.492 121.266 225.095 124.79 210.091Z" fill="url(#paint15_linear_650_62646)" fill-opacity="0.8"/>
<path d="M130.948 277.638C122.169 263.011 123.202 251.575 128.366 246.788C137.581 238.247 152.638 253.171 158.577 265.671C164.516 278.17 165.29 287.745 160.384 292.266C155.478 296.787 139.728 292.266 130.948 277.638Z" stroke="url(#paint16_linear_650_62646)" stroke-width="1.82292"/>
<path fill-rule="evenodd" clip-rule="evenodd" d="M174.998 303.507C172.002 303.606 166.494 302.828 162.693 298.958H174.087H175.91H187.303C183.502 302.828 177.994 303.606 174.998 303.507Z" fill="#57BF37"/>
<path d="M218.289 276.699C226.251 263.682 225.314 253.505 220.631 249.245C212.273 241.644 198.617 254.926 193.23 266.049C187.844 277.173 187.141 285.693 191.591 289.716C196.041 293.74 210.326 289.716 218.289 276.699Z" fill="#070707" stroke="#070707" stroke-width="0.455729"/>
<path d="M218.517 277.638C227.398 263.011 226.353 251.575 221.129 246.788C211.807 238.247 196.575 253.171 190.567 265.671C184.559 278.17 183.775 287.745 188.739 292.266C193.702 296.787 209.635 292.266 218.517 277.638Z" stroke="url(#paint17_linear_650_62646)" stroke-width="1.82292"/>
<path d="M219.429 277.638C228.31 263.011 227.265 251.575 222.041 246.788C212.719 238.247 197.487 253.171 191.479 265.671C185.471 278.17 184.688 287.745 189.651 292.266C194.614 296.787 210.547 292.266 219.429 277.638Z" stroke="url(#paint18_linear_650_62646)" stroke-width="1.82292"/>
<path d="M220.588 256.216C219.787 252.566 217.885 250.967 216.325 251.048C213.542 251.195 213.375 255.887 214.312 258.758C215.249 261.629 216.576 263.228 218.054 263.147C219.531 263.065 221.389 259.866 220.588 256.216Z" fill="url(#paint19_radial_650_62646)"/>
<path fill-rule="evenodd" clip-rule="evenodd" d="M174.999 292.165C173.54 291.986 170.04 292.273 167.707 294.856H174.999H182.29C179.957 292.273 176.457 291.986 174.999 292.165Z" fill="#57BF37"/>
<path d="M132.088 276.699C124.228 263.682 125.153 253.505 129.777 249.245C138.027 241.644 151.508 254.926 156.826 266.049C162.143 277.173 162.836 285.693 158.444 289.716C154.051 293.74 139.949 289.716 132.088 276.699Z" fill="#070707" stroke="#070707" stroke-width="0.455729"/>
<path d="M129.561 256.216C130.362 252.566 132.263 250.967 133.823 251.048C136.606 251.195 136.774 255.887 135.837 258.758C134.9 261.629 133.573 263.228 132.095 263.147C130.617 263.065 128.76 259.866 129.561 256.216Z" fill="url(#paint20_radial_650_62646)"/>
<path d="M130.948 277.638C122.169 263.011 123.202 251.575 128.366 246.788C137.581 238.247 152.638 253.171 158.577 265.671C164.516 278.17 165.29 287.745 160.384 292.266C155.478 296.787 139.728 292.266 130.948 277.638Z" stroke="url(#paint21_linear_650_62646)" stroke-width="1.82292"/>
<path fill-rule="evenodd" clip-rule="evenodd" d="M177.408 224.674L177.305 224.674C177.892 224.673 178.474 224.667 179.052 224.655C178.506 224.668 177.958 224.674 177.408 224.674Z" fill="#161A70" fill-opacity="0.1"/>
<path fill-rule="evenodd" clip-rule="evenodd" d="M228.41 314.723C228.41 314.723 211.425 334.733 175 334.733V32.3564C187.169 32.3564 192.181 52.2241 194.294 61.7705L194.402 62.2561C196.25 70.5904 200.68 89.5235 201.514 93.5016C201.566 93.7528 201.561 94.0048 201.494 94.2361L225.233 209.629C225.279 209.859 225.238 210.093 225.123 210.282C225.319 210.158 225.42 210.091 225.42 210.091C228.805 225.095 235.817 263.492 224.051 282.944C220.851 288.234 217.2 292.774 213.365 296.639L228.41 314.723ZM177.408 224.674L177.305 224.674C177.892 224.673 178.474 224.667 179.052 224.655C178.506 224.668 177.958 224.674 177.408 224.674Z" fill="#161A70" fill-opacity="0.1"/>
<g filter="url(#filter8_d_650_62646)">
<path d="M130.999 154.49C132.15 149.477 130.8 146.279 128.887 145.372C125.473 143.755 122.56 149.427 122.022 153.568C121.483 157.709 122.146 160.536 123.961 161.39C125.777 162.243 129.847 159.503 130.999 154.49Z" fill="#6DF244"/>
<path d="M100.212 190.945C99.0017 189.835 98.0935 188.541 97.4789 187.155L81.7388 187.434L81.6133 180.363L96.7603 180.094C97.3926 177.146 99.1826 174.424 102.053 172.698L106.117 170.254C108.851 168.61 111.937 168.254 114.742 168.945L121.802 156.199L127.988 159.626L120.764 172.669C121.712 173.789 122.462 175.119 122.937 176.629L127.602 197.103L124.412 212.37L100.212 190.945Z" fill="url(#paint22_radial_650_62646)"/>
<path d="M75.793 187.683C70.8252 186.35 68.6336 183.658 68.7301 181.543C68.9023 177.769 75.278 177.856 79.1881 179.323C83.0983 180.789 85.2845 182.7 85.1871 184.704C85.0898 186.707 80.7607 189.017 75.793 187.683Z" fill="#6DF244"/>
<path d="M62.564 151.617C60.244 144.391 59.9498 118.89 68.6994 113.629C77.449 108.368 99.0653 121.05 104.936 126.14C110.806 131.231 117.27 136.312 117.037 147.628C116.743 161.869 108.128 171.872 104.793 173.877C101.458 175.882 88.5832 178.8 75.8678 172.381C65.7642 167.281 64.884 158.842 62.564 151.617Z" fill="#6DF244"/>
<path d="M62.564 151.617C60.244 144.391 59.9498 118.89 68.6994 113.629C77.449 108.368 99.0653 121.05 104.936 126.14C110.806 131.231 117.27 136.312 117.037 147.628C116.743 161.869 108.128 171.872 104.793 173.877C101.458 175.882 88.5832 178.8 75.8678 172.381C65.7642 167.281 64.884 158.842 62.564 151.617Z" fill="url(#paint23_linear_650_62646)" fill-opacity="0.8"/>
<path d="M76.5187 168.942C69.103 164.997 66.6376 159.91 67.6021 156.58C69.3232 150.638 79.4633 153.115 85.1405 156.883C90.8178 160.65 93.5737 164.494 92.6506 167.646C91.7275 170.799 83.9343 172.887 76.5187 168.942Z" stroke="url(#paint24_linear_650_62646)" stroke-width="0.880654"/>
<path fill-rule="evenodd" clip-rule="evenodd" d="M103.54 171.792C104.869 171.141 106.676 168.883 105.706 163.64L100.13 166.993L100.13 166.993L95.3223 169.884C99.4995 173.199 102.342 172.662 103.54 171.792Z" fill="#57BF37"/>
<path d="M113.134 146.386C113.191 138.874 110.214 134.817 107.157 134.208C101.702 133.121 99.3088 142.19 99.8581 148.25C100.407 154.31 102.273 158.084 105.171 158.653C108.069 159.221 113.076 153.899 113.134 146.386Z" fill="#070707" stroke="#070707" stroke-width="0.220163"/>
<path d="M113.469 146.725C113.505 138.3 110.163 133.739 106.744 133.045C100.643 131.806 98.0024 141.968 98.6386 148.767C99.2748 155.565 101.373 159.804 104.614 160.453C107.856 161.101 113.432 155.151 113.469 146.725Z" stroke="url(#paint25_linear_650_62646)" stroke-width="0.880654"/>
<path d="M113.853 146.494C113.89 138.068 110.548 133.508 107.129 132.814C101.028 131.574 98.3872 141.736 99.0234 148.535C99.6595 155.334 101.758 159.573 104.999 160.221C108.241 160.87 113.817 154.919 113.853 146.494Z" stroke="url(#paint26_linear_650_62646)" stroke-width="0.880654"/>
<path d="M108.908 137.16C107.644 135.823 106.435 135.631 105.798 136.061C104.661 136.829 105.78 138.852 106.904 139.825C108.028 140.799 108.994 141.137 109.597 140.728C110.199 140.318 110.172 138.497 108.908 137.16Z" fill="url(#paint27_radial_650_62646)"/>
<path fill-rule="evenodd" clip-rule="evenodd" d="M98.7909 163.896C98.13 164.19 96.7259 165.199 96.3969 166.881L99.4737 165.031L102.55 163.181C100.91 162.683 99.3607 163.45 98.7909 163.896Z" fill="#57BF37"/>
<path d="M76.7609 168.257C70.1415 164.759 67.9499 160.23 68.8201 157.259C70.3729 151.959 79.4311 154.142 84.497 157.487C89.5629 160.832 92.0172 164.251 91.1845 167.063C90.3517 169.875 83.3804 171.755 76.7609 168.257Z" fill="#070707" stroke="#070707" stroke-width="0.220163"/>
<path d="M70.4977 160.255C69.9097 158.511 70.3062 157.354 70.9852 156.993C72.1968 156.348 73.4581 158.286 73.7911 159.735C74.124 161.184 73.9699 162.196 73.3254 162.536C72.681 162.876 71.0858 161.998 70.4977 160.255Z" fill="url(#paint28_radial_650_62646)"/>
<path d="M76.5187 168.942C69.103 164.997 66.6376 159.91 67.6021 156.58C69.3232 150.638 79.4633 153.115 85.1405 156.883C90.8178 160.65 93.5737 164.494 92.6506 167.646C91.7275 170.799 83.9343 172.887 76.5187 168.942Z" stroke="url(#paint29_linear_650_62646)" stroke-width="0.880654"/>
<rect width="4.0506" height="27.9009" transform="matrix(0.99987 -0.0160966 0.0193936 0.999812 87.3574 106.92)" fill="#6DF244"/>
<path d="M95.2877 103.652C95.2926 97.7489 92.9482 94.5455 90.5599 94.0505C86.2983 93.1673 84.4797 100.281 84.9405 105.046C85.4013 109.811 86.8765 112.786 89.1407 113.249C91.4049 113.711 95.2829 109.556 95.2877 103.652Z" fill="#57BF37"/>
<rect width="4.05059" height="27.9009" transform="matrix(-0.483106 0.875562 0.873962 0.485994 53.9727 126.993)" fill="#6DF244"/>
<path d="M47.3681 132.466C42.1518 129.701 40.4219 126.129 41.1047 123.787C42.323 119.609 49.4589 121.339 53.4515 123.98C57.444 126.622 59.3799 129.32 58.7265 131.537C58.0731 133.753 52.5843 135.23 47.3681 132.466Z" fill="#57BF37"/>
<g filter="url(#filter9_d_650_62646)">
<circle cx="110.523" cy="181.467" r="4.33642" transform="rotate(-6.77196 110.523 181.467)" fill="url(#paint30_radial_650_62646)" stroke="#56CCF2" stroke-width="0.47927"/>
<g filter="url(#filter10_d_650_62646)">
<path d="M114.083 179.006C117.013 178.182 118.278 177.96 118.426 178.383C118.637 178.985 115.662 181.231 110.761 182.947C105.86 184.663 102.543 185.004 102.332 184.402C102.182 183.972 103.246 182.992 106.119 181.786" stroke="#6DF244" stroke-width="0.684672"/>
</g>
</g>
</g>
<defs>
<filter id="filter0_f_650_62646" x="-23.0749" y="233.315" width="398.306" height="142.646" filterUnits="userSpaceOnUse" color-interpolation-filters="sRGB">
<feFlood flood-opacity="0" result="BackgroundImageFix"/>
<feBlend mode="normal" in="SourceGraphic" in2="BackgroundImageFix" result="shape"/>
<feGaussianBlur stdDeviation="2.27865" result="effect1_foregroundBlur_650_62646"/>
</filter>
<filter id="filter1_f_650_62646" x="-26.8092" y="-109.396" width="402.41" height="494.01" filterUnits="userSpaceOnUse" color-interpolation-filters="sRGB">
<feFlood flood-opacity="0" result="BackgroundImageFix"/>
<feBlend mode="normal" in="SourceGraphic" in2="BackgroundImageFix" result="shape"/>
<feGaussianBlur stdDeviation="2.27865" result="effect1_foregroundBlur_650_62646"/>
</filter>
<filter id="filter2_f_650_62646" x="122.59" y="92.0573" width="104.817" height="135.355" filterUnits="userSpaceOnUse" color-interpolation-filters="sRGB">
<feFlood flood-opacity="0" result="BackgroundImageFix"/>
<feBlend mode="normal" in="SourceGraphic" in2="BackgroundImageFix" result="shape"/>
<feGaussianBlur stdDeviation="1.13932" result="effect1_foregroundBlur_650_62646"/>
</filter>
<filter id="filter3_f_650_62646" x="112.108" y="75.195" width="96.1589" height="65.1696" filterUnits="userSpaceOnUse" color-interpolation-filters="sRGB">
<feFlood flood-opacity="0" result="BackgroundImageFix"/>
<feBlend mode="normal" in="SourceGraphic" in2="BackgroundImageFix" result="shape"/>
<feGaussianBlur stdDeviation="0.455729" result="effect1_foregroundBlur_650_62646"/>
</filter>
<filter id="filter4_f_650_62646" x="128.018" y="65.7428" width="37.5964" height="176.65" filterUnits="userSpaceOnUse" color-interpolation-filters="sRGB">
<feFlood flood-opacity="0" result="BackgroundImageFix"/>
<feBlend mode="normal" in="SourceGraphic" in2="BackgroundImageFix" result="shape"/>
<feGaussianBlur stdDeviation="0.455729" result="effect1_foregroundBlur_650_62646"/>
</filter>
<filter id="filter5_f_650_62646" x="122.59" y="92.0573" width="104.817" height="135.355" filterUnits="userSpaceOnUse" color-interpolation-filters="sRGB">
<feFlood flood-opacity="0" result="BackgroundImageFix"/>
<feBlend mode="normal" in="SourceGraphic" in2="BackgroundImageFix" result="shape"/>
<feGaussianBlur stdDeviation="1.13932" result="effect1_foregroundBlur_650_62646"/>
</filter>
<filter id="filter6_f_650_62646" x="128.018" y="65.7428" width="37.5964" height="176.65" filterUnits="userSpaceOnUse" color-interpolation-filters="sRGB">
<feFlood flood-opacity="0" result="BackgroundImageFix"/>
<feBlend mode="normal" in="SourceGraphic" in2="BackgroundImageFix" result="shape"/>
<feGaussianBlur stdDeviation="0.455729" result="effect1_foregroundBlur_650_62646"/>
</filter>
<filter id="filter7_d_650_62646" x="114.842" y="284.375" width="116.666" height="55.8271" filterUnits="userSpaceOnUse" color-interpolation-filters="sRGB">
<feFlood flood-opacity="0" result="BackgroundImageFix"/>
<feColorMatrix in="SourceAlpha" type="matrix" values="0 0 0 0 0 0 0 0 0 0 0 0 0 0 0 0 0 0 127 0" result="hardAlpha"/>
<feOffset dx="0.455729" dy="2.73438"/>
<feGaussianBlur stdDeviation="1.36719"/>
<feComposite in2="hardAlpha" operator="out"/>
<feColorMatrix type="matrix" values="0 0 0 0 0 0 0 0 0 0 0 0 0 0 0 0 0 0 0.25 0"/>
<feBlend mode="normal" in2="BackgroundImageFix" result="effect1_dropShadow_650_62646"/>
<feBlend mode="normal" in="SourceGraphic" in2="effect1_dropShadow_650_62646" result="shape"/>
</filter>
<filter id="filter8_d_650_62646" x="38.2285" y="93.5199" width="95.9297" height="123.863" filterUnits="userSpaceOnUse" color-interpolation-filters="sRGB">
<feFlood flood-opacity="0" result="BackgroundImageFix"/>
<feColorMatrix in="SourceAlpha" type="matrix" values="0 0 0 0 0 0 0 0 0 0 0 0 0 0 0 0 0 0 127 0" result="hardAlpha"/>
<feOffset dy="2.27865"/>
<feGaussianBlur stdDeviation="1.36719"/>
<feComposite in2="hardAlpha" operator="out"/>
<feColorMatrix type="matrix" values="0 0 0 0 0 0 0 0 0 0 0 0 0 0 0 0 0 0 0.15 0"/>
<feBlend mode="normal" in2="BackgroundImageFix" result="effect1_dropShadow_650_62646"/>
<feBlend mode="normal" in="SourceGraphic" in2="effect1_dropShadow_650_62646" result="shape"/>
</filter>
<filter id="filter9_d_650_62646" x="101.701" y="176.891" width="17.3524" height="9.70106" filterUnits="userSpaceOnUse" color-interpolation-filters="sRGB">
<feFlood flood-opacity="0" result="BackgroundImageFix"/>
<feColorMatrix in="SourceAlpha" type="matrix" values="0 0 0 0 0 0 0 0 0 0 0 0 0 0 0 0 0 0 127 0" result="hardAlpha"/>
<feOffset dy="0.273869"/>
<feGaussianBlur stdDeviation="0.136934"/>
<feComposite in2="hardAlpha" operator="out"/>
<feColorMatrix type="matrix" values="0 0 0 0 0 0 0 0 0 0 0 0 0 0 0 0 0 0 0.25 0"/>
<feBlend mode="normal" in2="BackgroundImageFix" result="effect1_dropShadow_650_62646"/>
<feBlend mode="normal" in="SourceGraphic" in2="effect1_dropShadow_650_62646" result="shape"/>
</filter>
<filter id="filter10_d_650_62646" x="101.085" y="176.941" width="18.5848" height="8.96862" filterUnits="userSpaceOnUse" color-interpolation-filters="sRGB">
<feFlood flood-opacity="0" result="BackgroundImageFix"/>
<feColorMatrix in="SourceAlpha" type="matrix" values="0 0 0 0 0 0 0 0 0 0 0 0 0 0 0 0 0 0 127 0" result="hardAlpha"/>
<feOffset/>
<feGaussianBlur stdDeviation="0.445037"/>
<feComposite in2="hardAlpha" operator="out"/>
<feColorMatrix type="matrix" values="0 0 0 0 1 0 0 0 0 1 0 0 0 0 1 0 0 0 1 0"/>
<feBlend mode="normal" in2="BackgroundImageFix" result="effect1_dropShadow_650_62646"/>
<feBlend mode="normal" in="SourceGraphic" in2="effect1_dropShadow_650_62646" result="shape"/>
</filter>
<radialGradient id="paint0_radial_650_62646" cx="0" cy="0" r="1" gradientUnits="userSpaceOnUse" gradientTransform="translate(156.621 401.541) rotate(-84.441) scale(239.93 241.682)">
<stop/>
<stop offset="1" stop-opacity="0"/>
</radialGradient>
<linearGradient id="paint1_linear_650_62646" x1="194.835" y1="271.639" x2="316.537" y2="167.937" gradientUnits="userSpaceOnUse">
<stop/>
<stop offset="1" stop-color="#333333" stop-opacity="0"/>
</linearGradient>
<radialGradient id="paint2_radial_650_62646" cx="0" cy="0" r="1" gradientUnits="userSpaceOnUse" gradientTransform="translate(194.596 76.624) rotate(99.1226) scale(43.9775 125.337)">
<stop stop-color="#2183F7"/>
<stop offset="1" stop-color="#2E55E1" stop-opacity="0"/>
</radialGradient>
<radialGradient id="paint3_radial_650_62646" cx="0" cy="0" r="1" gradientUnits="userSpaceOnUse" gradientTransform="translate(174.396 173.413) rotate(92.5586) scale(157.837 128.153)">
<stop stop-color="#2183F7"/>
<stop offset="1" stop-color="#2E55E1" stop-opacity="0"/>
</radialGradient>
<radialGradient id="paint4_radial_650_62646" cx="0" cy="0" r="1" gradientUnits="userSpaceOnUse" gradientTransform="translate(146.217 191.258) rotate(27.3324) scale(58.602 42.3474)">
<stop offset="0.302083" stop-color="#FFB800"/>
<stop offset="1" stop-color="#FF7800"/>
</radialGradient>
<radialGradient id="paint5_radial_650_62646" cx="0" cy="0" r="1" gradientUnits="userSpaceOnUse" gradientTransform="translate(182.146 126.183) rotate(44.415) scale(15.0618 13.3391)">
<stop offset="0.239583" stop-color="#21F6EA"/>
<stop offset="1" stop-color="#2183F6"/>
</radialGradient>
<radialGradient id="paint6_radial_650_62646" cx="0" cy="0" r="1" gradientUnits="userSpaceOnUse" gradientTransform="translate(154.651 110.284) rotate(51.7012) scale(54.4207 46.8936)">
<stop offset="0.3125" stop-color="#321A93"/>
<stop offset="1" stop-color="#3603FF"/>
<stop offset="1" stop-color="#3603FF"/>
</radialGradient>
<radialGradient id="paint7_radial_650_62646" cx="0" cy="0" r="1" gradientUnits="userSpaceOnUse" gradientTransform="translate(155.882 109.101) rotate(53.1177) scale(37.8178 40.2646)">
<stop offset="0.203125" stop-color="#71FF30"/>
<stop offset="0.890625" stop-color="#25BC46"/>
</radialGradient>
<linearGradient id="paint8_linear_650_62646" x1="145.214" y1="123.01" x2="155.828" y2="72.2914" gradientUnits="userSpaceOnUse">
<stop stop-color="white" stop-opacity="0"/>
<stop offset="0.471361" stop-color="white"/>
<stop offset="1" stop-color="white"/>
</linearGradient>
<linearGradient id="paint9_linear_650_62646" x1="160.729" y1="220.938" x2="201.954" y2="178" gradientUnits="userSpaceOnUse">
<stop stop-color="#F2F2F2"/>
<stop offset="0.0001" stop-color="#F2F2F2"/>
<stop offset="0.0520833" stop-color="#F2F2F2" stop-opacity="0.948011"/>
<stop offset="1" stop-color="#F2F2F2" stop-opacity="0"/>
</linearGradient>
<radialGradient id="paint10_radial_650_62646" cx="0" cy="0" r="1" gradientUnits="userSpaceOnUse" gradientTransform="translate(146.217 191.259) rotate(27.3324) scale(58.602 42.3474)">
<stop offset="0.302083" stop-color="#FFB800"/>
<stop offset="1" stop-color="#FF7800"/>
</radialGradient>
<linearGradient id="paint11_linear_650_62646" x1="160.729" y1="220.938" x2="201.954" y2="178" gradientUnits="userSpaceOnUse">
<stop stop-color="#F2F2F2"/>
<stop offset="0.0001" stop-color="#F2F2F2"/>
<stop offset="0.0520833" stop-color="#F2F2F2" stop-opacity="0.948011"/>
<stop offset="1" stop-color="#F2F2F2" stop-opacity="0"/>
</linearGradient>
<linearGradient id="paint12_linear_650_62646" x1="164.975" y1="47.3955" x2="175.001" y2="101.627" gradientUnits="userSpaceOnUse">
<stop stop-color="white" stop-opacity="0.17"/>
<stop offset="1" stop-color="#C3C3C3" stop-opacity="0"/>
</linearGradient>
<linearGradient id="paint13_linear_650_62646" x1="174.999" y1="293.489" x2="174.999" y2="226.953" gradientUnits="userSpaceOnUse">
<stop offset="0.527397" stop-color="#6DF244"/>
<stop offset="1" stop-color="#388E1D"/>
</linearGradient>
<linearGradient id="paint14_linear_650_62646" x1="164.975" y1="47.3955" x2="175.001" y2="101.627" gradientUnits="userSpaceOnUse">
<stop stop-color="white" stop-opacity="0.17"/>
<stop offset="1" stop-color="#C3C3C3" stop-opacity="0"/>
</linearGradient>
<linearGradient id="paint15_linear_650_62646" x1="174.997" y1="293.489" x2="174.997" y2="226.953" gradientUnits="userSpaceOnUse">
<stop offset="0.527397" stop-color="#6DF244"/>
<stop offset="1" stop-color="#388E1D"/>
</linearGradient>
<linearGradient id="paint16_linear_650_62646" x1="144.008" y1="244.271" x2="144.008" y2="293.945" gradientUnits="userSpaceOnUse">
<stop stop-color="#6CB835"/>
<stop offset="0.40625" stop-color="#6CB835" stop-opacity="0"/>
</linearGradient>
<linearGradient id="paint17_linear_650_62646" x1="205.305" y1="244.271" x2="205.305" y2="293.945" gradientUnits="userSpaceOnUse">
<stop stop-color="#6CB835"/>
<stop offset="0.40625" stop-color="#6CB835" stop-opacity="0"/>
</linearGradient>
<linearGradient id="paint18_linear_650_62646" x1="206.217" y1="244.271" x2="206.217" y2="293.945" gradientUnits="userSpaceOnUse">
<stop offset="0.541667" stop-color="#6CB835" stop-opacity="0"/>
<stop offset="1" stop-color="#6CB835"/>
</linearGradient>
<radialGradient id="paint19_radial_650_62646" cx="0" cy="0" r="1" gradientUnits="userSpaceOnUse" gradientTransform="translate(217.185 256.975) rotate(79.0248) scale(5.68455 4.63752)">
<stop stop-color="white" stop-opacity="0.75"/>
<stop offset="1" stop-color="white" stop-opacity="0"/>
<stop offset="1" stop-color="white"/>
</radialGradient>
<radialGradient id="paint20_radial_650_62646" cx="0" cy="0" r="1" gradientUnits="userSpaceOnUse" gradientTransform="translate(132.963 256.975) rotate(100.975) scale(5.68455 4.63752)">
<stop stop-color="white" stop-opacity="0.75"/>
<stop offset="1" stop-color="white" stop-opacity="0"/>
<stop offset="1" stop-color="white"/>
</radialGradient>
<linearGradient id="paint21_linear_650_62646" x1="144.008" y1="244.271" x2="144.008" y2="293.945" gradientUnits="userSpaceOnUse">
<stop offset="0.671875" stop-color="#6CB835" stop-opacity="0"/>
<stop offset="1" stop-color="#6CB835"/>
</linearGradient>
<radialGradient id="paint22_radial_650_62646" cx="0" cy="0" r="1" gradientUnits="userSpaceOnUse" gradientTransform="translate(105.856 176.821) rotate(61.8214) scale(36.1903 30.5505)">
<stop offset="0.552083" stop-color="white"/>
<stop offset="1" stop-color="#CCD0C9"/>
</radialGradient>
<linearGradient id="paint23_linear_650_62646" x1="99.1276" y1="164.454" x2="67.1981" y2="113.092" gradientUnits="userSpaceOnUse">
<stop offset="0.527397" stop-color="#6DF244"/>
<stop offset="1" stop-color="#388E1D"/>
</linearGradient>
<linearGradient id="paint24_linear_650_62646" x1="73.5638" y1="151.549" x2="86.1667" y2="172.509" gradientUnits="userSpaceOnUse">
<stop stop-color="#6CB835"/>
<stop offset="0.40625" stop-color="#6CB835" stop-opacity="0"/>
</linearGradient>
<linearGradient id="paint25_linear_650_62646" x1="99.4279" y1="135.997" x2="112.031" y2="156.958" gradientUnits="userSpaceOnUse">
<stop stop-color="#6CB835"/>
<stop offset="0.40625" stop-color="#6CB835" stop-opacity="0"/>
</linearGradient>
<linearGradient id="paint26_linear_650_62646" x1="99.8127" y1="135.766" x2="112.416" y2="156.727" gradientUnits="userSpaceOnUse">
<stop offset="0.541667" stop-color="#6CB835" stop-opacity="0"/>
<stop offset="1" stop-color="#6CB835"/>
</linearGradient>
<radialGradient id="paint27_radial_650_62646" cx="0" cy="0" r="1" gradientUnits="userSpaceOnUse" gradientTransform="translate(107.664 138.344) rotate(48.0079) scale(2.79886 2.28334)">
<stop stop-color="white" stop-opacity="0.75"/>
<stop offset="1" stop-color="white" stop-opacity="0"/>
<stop offset="1" stop-color="white"/>
</radialGradient>
<radialGradient id="paint28_radial_650_62646" cx="0" cy="0" r="1" gradientUnits="userSpaceOnUse" gradientTransform="translate(72.126 159.711) rotate(69.9583) scale(2.79886 2.28334)">
<stop stop-color="white" stop-opacity="0.75"/>
<stop offset="1" stop-color="white" stop-opacity="0"/>
<stop offset="1" stop-color="white"/>
</radialGradient>
<linearGradient id="paint29_linear_650_62646" x1="73.5638" y1="151.549" x2="86.1667" y2="172.509" gradientUnits="userSpaceOnUse">
<stop offset="0.671875" stop-color="#6CB835" stop-opacity="0"/>
<stop offset="1" stop-color="#6CB835"/>
</linearGradient>
<radialGradient id="paint30_radial_650_62646" cx="0" cy="0" r="1" gradientUnits="userSpaceOnUse" gradientTransform="translate(107.916 179.031) rotate(49.243) scale(7.35423 6.44312)">
<stop offset="0.3125" stop-color="#321A93"/>
<stop offset="1" stop-color="#3603FF"/>
<stop offset="1" stop-color="#3603FF"/>
</radialGradient>
<clipPath id="clip0_650_62646">
<rect width="350" height="350" fill="white"/>
</clipPath>
</defs>
</svg>
