<svg width="350" height="350" viewBox="0 0 350 350" fill="none" xmlns="http://www.w3.org/2000/svg">
<g clip-path="url(#clip0_650_67846)">
<g clip-path="url(#clip1_650_67846)">
<g clip-path="url(#clip2_650_67846)">
<rect x="0.0800781" y="0.956055" width="350" height="350" fill="#27004F" fill-opacity="0.89"/>
<rect x="0.0800781" y="0.956055" width="350" height="350" fill="url(#paint0_radial_650_67846)" fill-opacity="0.2"/>
<path d="M125.978 291.449L299.832 191.662L430.987 234.791L212.559 294.96L125.978 291.449Z" fill="url(#paint1_linear_650_67846)"/>
<g opacity="0.7" filter="url(#filter0_f_650_67846)">
<ellipse cx="174.607" cy="127.099" rx="209.039" ry="257.726" transform="rotate(0.126655 174.607 127.099)" fill="url(#paint2_radial_650_67846)"/>
</g>
<g clip-path="url(#clip3_650_67846)">
<g style="mix-blend-mode:overlay">
<path fill-rule="evenodd" clip-rule="evenodd" d="M78.8411 118.762C113.323 118.762 141.276 90.8093 141.276 56.3275C141.276 21.8456 113.323 -6.10742 78.8411 -6.10742C44.3593 -6.10742 16.4062 21.8456 16.4062 56.3275C16.4062 90.8093 44.3593 118.762 78.8411 118.762ZM78.8411 0.881559C79.6131 0.881559 80.3813 0.897333 81.1455 0.928577C116.331 4.8084 114.168 55.3956 79.0743 55.3956C79.0411 55.3956 79.0081 55.3996 78.9751 55.4075C78.6985 55.3996 78.4208 55.3956 78.1422 55.3956C62.3166 55.3956 49.4874 68.2248 49.4874 84.0504C49.4874 96.0151 56.8204 106.267 67.2372 110.557C42.1859 105.223 23.3952 82.9696 23.3952 56.3275C23.3952 25.7055 48.2192 0.881559 78.8411 0.881559ZM78.1422 91.7383C82.3881 91.7383 85.8301 88.2963 85.8301 84.0504C85.8301 79.8045 82.3881 76.3626 78.1422 76.3626C73.8963 76.3626 70.4544 79.8045 70.4544 84.0504C70.4544 88.2963 73.8963 91.7383 78.1422 91.7383Z" fill="white" fill-opacity="0.25"/>
<path d="M85.8301 28.6045C85.8301 32.8504 82.3881 36.2924 78.1422 36.2924C73.8964 36.2924 70.4544 32.8504 70.4544 28.6045C70.4544 24.3586 73.8964 20.9166 78.1422 20.9166C82.3881 20.9166 85.8301 24.3586 85.8301 28.6045Z" fill="white" fill-opacity="0.25"/>
</g>
<g style="mix-blend-mode:overlay">
<path fill-rule="evenodd" clip-rule="evenodd" d="M91.8301 271.432C113.35 271.432 130.795 253.986 130.795 232.467C130.795 210.947 113.35 193.502 91.8301 193.502C70.3104 193.502 52.8652 210.947 52.8652 232.467C52.8652 253.986 70.3104 271.432 91.8301 271.432ZM91.8301 197.864C92.3118 197.864 92.7913 197.874 93.2682 197.893C115.227 200.314 113.877 231.885 91.9756 231.885C91.9549 231.885 91.9342 231.888 91.9137 231.893C91.741 231.888 91.5678 231.885 91.3939 231.885C81.5173 231.885 73.5108 239.892 73.5108 249.768C73.5108 257.235 78.0872 263.633 84.5882 266.311C68.954 262.982 57.227 249.094 57.227 232.467C57.227 213.356 72.7193 197.864 91.8301 197.864ZM91.3939 254.566C94.0437 254.566 96.1918 252.418 96.1918 249.768C96.1918 247.119 94.0437 244.97 91.3939 244.97C88.7441 244.97 86.596 247.119 86.596 249.768C86.596 252.418 88.7441 254.566 91.3939 254.566Z" fill="white" fill-opacity="0.25"/>
<path d="M96.1918 215.165C96.1918 217.815 94.0437 219.963 91.3939 219.963C88.7441 219.963 86.596 217.815 86.596 215.165C86.596 212.515 88.7441 210.367 91.3939 210.367C94.0437 210.367 96.1918 212.515 96.1918 215.165Z" fill="white" fill-opacity="0.25"/>
</g>
<g style="mix-blend-mode:overlay">
<path fill-rule="evenodd" clip-rule="evenodd" d="M255.436 367.591C276.955 367.591 294.4 350.146 294.4 328.626C294.4 307.106 276.955 289.661 255.436 289.661C233.916 289.661 216.471 307.106 216.471 328.626C216.471 350.146 233.916 367.591 255.436 367.591ZM255.436 294.023C255.917 294.023 256.397 294.033 256.874 294.052C278.832 296.474 277.483 328.044 255.581 328.044C255.56 328.044 255.54 328.047 255.519 328.052C255.346 328.047 255.173 328.044 254.999 328.044C245.123 328.044 237.116 336.051 237.116 345.928C237.116 353.395 241.693 359.793 248.194 362.47C232.559 359.141 220.832 345.253 220.832 328.626C220.832 309.515 236.325 294.023 255.436 294.023ZM254.999 350.725C257.649 350.725 259.797 348.577 259.797 345.928C259.797 343.278 257.649 341.13 254.999 341.13C252.35 341.13 250.201 343.278 250.201 345.928C250.201 348.577 252.35 350.725 254.999 350.725Z" fill="white" fill-opacity="0.25"/>
<path d="M259.797 311.324C259.797 313.974 257.649 316.122 254.999 316.122C252.35 316.122 250.201 313.974 250.201 311.324C250.201 308.675 252.35 306.527 254.999 306.527C257.649 306.527 259.797 308.675 259.797 311.324Z" fill="white" fill-opacity="0.25"/>
</g>
<g style="mix-blend-mode:overlay">
<path fill-rule="evenodd" clip-rule="evenodd" d="M236.752 44.0234C258.272 44.0234 275.717 26.5783 275.717 5.05859C275.717 -16.4611 258.272 -33.9062 236.752 -33.9062C215.232 -33.9062 197.787 -16.4611 197.787 5.05859C197.787 26.5783 215.232 44.0234 236.752 44.0234ZM236.752 -29.5445C237.234 -29.5445 237.713 -29.5347 238.19 -29.5152C260.149 -27.0938 258.799 4.47699 236.897 4.47699C236.877 4.47699 236.856 4.47949 236.836 4.48444C236.663 4.47951 236.49 4.47703 236.316 4.47703C226.439 4.47703 218.433 12.4836 218.433 22.3601C218.433 29.8271 223.009 36.2253 229.51 38.9027C213.876 35.5736 202.149 21.6856 202.149 5.05859C202.149 -14.0522 217.641 -29.5445 236.752 -29.5445ZM236.316 27.1581C238.966 27.1581 241.114 25.01 241.114 22.3601C241.114 19.7103 238.966 17.5622 236.316 17.5622C233.666 17.5622 231.518 19.7103 231.518 22.3601C231.518 25.01 233.666 27.1581 236.316 27.1581Z" fill="white" fill-opacity="0.25"/>
<path d="M241.114 -12.243C241.114 -9.59315 238.966 -7.44505 236.316 -7.44505C233.666 -7.44505 231.518 -9.59315 231.518 -12.243C231.518 -14.8928 233.666 -17.0409 236.316 -17.0409C238.966 -17.0409 241.114 -14.8928 241.114 -12.243Z" fill="white" fill-opacity="0.25"/>
</g>
<g style="mix-blend-mode:overlay">
<path fill-rule="evenodd" clip-rule="evenodd" d="M289.387 212.643C315.312 212.643 336.327 191.627 336.327 165.703C336.327 139.778 315.312 118.763 289.387 118.763C263.463 118.763 242.447 139.778 242.447 165.703C242.447 191.627 263.463 212.643 289.387 212.643ZM289.387 124.017C289.968 124.017 290.545 124.029 291.12 124.053C317.573 126.969 315.947 165.002 289.563 165.002C289.538 165.002 289.513 165.005 289.488 165.011C289.28 165.005 289.071 165.002 288.862 165.002C276.964 165.002 267.319 174.648 267.319 186.546C267.319 195.541 272.832 203.249 280.663 206.474C261.829 202.464 247.702 185.733 247.702 165.703C247.702 142.68 266.365 124.017 289.387 124.017ZM288.862 192.326C292.054 192.326 294.642 189.738 294.642 186.546C294.642 183.353 292.054 180.766 288.862 180.766C285.67 180.766 283.082 183.353 283.082 186.546C283.082 189.738 285.67 192.326 288.862 192.326Z" fill="white" fill-opacity="0.25"/>
<path d="M294.642 144.86C294.642 148.052 292.054 150.64 288.862 150.64C285.67 150.64 283.082 148.052 283.082 144.86C283.082 141.668 285.67 139.08 288.862 139.08C292.054 139.08 294.642 141.668 294.642 144.86Z" fill="white" fill-opacity="0.25"/>
</g>
</g>
</g>
<mask id="mask0_650_67846" style="mask-type:alpha" maskUnits="userSpaceOnUse" x="217" y="76" width="102" height="210">
<path d="M286.124 140.454L286.149 140.715L286.408 140.755L286.538 140.775L286.025 144.08C285.934 144.666 285.476 145.104 284.904 145.147C283.984 145.216 282.553 145.29 280.643 145.289L280.364 145.289L280.312 145.563L274.16 178.04C274.099 178.362 273.929 178.58 273.695 178.656C273.132 178.837 272.004 179.074 269.927 179.105L269.711 179.108L269.624 179.306C267.404 184.342 266.166 194.417 271.757 208.393C279.967 228.918 284.553 241.085 276.779 257.342C273.716 263.745 266.666 269.665 258.908 274.548C251.338 279.313 243.147 283.058 237.475 285.276L234.165 264.097C237.669 262.925 242.53 260.735 247.124 257.641C251.835 254.469 256.295 250.326 258.701 245.328C263.363 235.647 259.678 227.345 255.921 218.88L255.9 218.832C254.806 216.368 253.707 213.89 252.79 211.344C251.363 207.38 250.486 201.437 250.188 195.361L250.179 195.174L250.015 195.083C249.157 194.608 248.077 194.306 246.737 194.306H229.269V194.306L229.26 194.306C228.618 194.324 227.882 194.745 227.182 195.333C226.466 195.934 225.728 196.76 225.074 197.689C224.419 198.619 223.842 199.663 223.453 200.704C223.327 201.043 223.22 201.384 223.137 201.722L218.351 183.347C219.024 183.637 220.001 183.964 221.208 184.247C222.942 184.655 225.174 184.98 227.705 184.98H244.652H244.663L244.674 184.979C245.922 184.895 248.451 184.503 250.224 183.553L250.383 183.468L250.4 183.288C250.658 180.571 251.068 178.172 251.627 176.332L251.714 176.044L251.439 175.925C249.576 175.115 248.572 174.354 248.093 173.914C247.897 173.734 247.808 173.453 247.84 173.133L251.021 140.955L251.048 140.685L250.79 140.601C249.14 140.066 247.887 139.596 247.064 139.269C246.522 139.053 246.212 138.489 246.304 137.896L246.815 134.609L246.921 134.625L247.569 134.726L247.274 134.141C247.268 134.129 247.265 134.12 247.263 134.115C247.263 134.114 247.262 134.113 247.262 134.112C247.267 134.104 247.281 134.085 247.318 134.058C247.384 134.008 247.496 133.951 247.671 133.894C248.02 133.78 248.542 133.693 249.23 133.638C250.601 133.528 252.556 133.554 254.93 133.713L255.047 133.72L255.144 133.654C255.834 133.178 256.631 132.162 257.392 130.574C258.158 128.977 258.903 126.768 259.469 123.868C260.894 116.572 261.735 110.364 260.552 104.144C260.438 103.545 260.123 102.686 259.698 101.663C259.27 100.633 258.717 99.4084 258.112 98.0689L258.111 98.0651C256.628 94.7801 254.829 90.7936 253.722 87.1666C253.168 85.3532 252.792 83.6455 252.712 82.171C252.63 80.6908 252.849 79.4909 253.434 78.6503C253.616 78.3874 253.931 78.1388 254.395 77.9159C254.857 77.694 255.447 77.5072 256.154 77.3571C257.569 77.0567 259.413 76.9111 261.547 76.9001C265.813 76.8781 271.189 77.3938 276.506 78.2431C281.822 79.0924 287.066 80.2729 291.068 81.5752C293.07 82.2269 294.75 82.9051 295.969 83.5817C296.579 83.92 297.064 84.2524 297.415 84.5736C297.769 84.8975 297.964 85.1893 298.035 85.4423C298.249 86.2099 298.135 87.094 297.734 88.0912C297.332 89.088 296.653 90.1695 295.779 91.3119C294.03 93.5982 291.546 96.0696 289.076 98.5258L289.053 98.5483C286.287 101.299 283.533 104.038 281.941 106.425C280.829 108.093 279.962 110.177 279.297 112.413L279.142 112.937L279.679 112.841C280.966 112.611 283.491 112.631 286.83 112.897C290.156 113.161 294.255 113.665 298.67 114.385C304.119 115.273 309.007 116.322 312.504 117.298C314.254 117.787 315.644 118.254 316.579 118.669C317.05 118.878 317.386 119.066 317.595 119.227C317.699 119.308 317.756 119.37 317.783 119.412C317.783 119.412 317.783 119.412 317.784 119.413L317.343 119.863L317.99 119.964L318.169 119.992L317.656 123.296C317.565 123.883 317.108 124.321 316.535 124.364C313.993 124.555 307.539 124.782 297.855 123.358C288.009 121.91 281.258 119.505 278.696 118.485C278.62 118.455 278.549 118.418 278.483 118.376L278.042 118.091L277.967 118.61C277.52 121.673 277.36 124.637 277.406 126.925C277.444 128.776 277.806 131.112 278.247 133.149C278.467 134.169 278.708 135.12 278.94 135.904C279.169 136.681 279.395 137.314 279.59 137.687L279.658 137.817L279.799 137.856C281.784 138.4 283.391 138.933 284.506 139.418C285.065 139.661 285.486 139.886 285.766 140.086C285.907 140.186 286.001 140.273 286.059 140.344C286.119 140.416 286.124 140.452 286.124 140.454ZM247.26 134.116C247.26 134.117 247.26 134.116 247.26 134.115L247.26 134.116Z" fill="#C4C4C4" stroke="black" stroke-width="0.673831"/>
</mask>
<g mask="url(#mask0_650_67846)">
<rect x="318.098" y="288.932" width="135.807" height="226.497" rx="2" transform="rotate(-180 318.098 288.932)" fill="url(#paint3_linear_650_67846)"/>
<g opacity="0.5">
<g style="mix-blend-mode:overlay" opacity="0.5">
<path d="M240.661 127.973C221.244 114.82 267.81 90.7695 283.754 89.1895H231.181C215.323 90.9132 210.783 98.8135 210.496 102.548V134.006C214.949 140.039 224.009 151.953 252.296 159.431C289.787 169.342 335.001 150.088 319.521 127.973C307.455 110.736 267.379 146.072 240.661 127.973Z" fill="white"/>
</g>
<g style="mix-blend-mode:overlay" opacity="0.5">
<path fill-rule="evenodd" clip-rule="evenodd" d="M301.854 93.9297C289.214 96.6589 266.001 103.41 274.275 108.581C278.06 110.947 286.003 110.946 295.335 110.945C311.496 110.942 331.823 110.939 341.931 123.233C358.29 143.13 345.378 174.514 305.733 187.01C305.18 187.185 304.624 187.36 304.065 187.536C264.532 199.992 210.121 217.136 241.955 233.551C251.795 238.625 262.732 234.921 274.042 231.092C294.432 224.188 316.034 216.874 334.605 259.838H369.079C344.516 243.462 346.799 211.581 362.615 203.817C380.684 194.947 378.55 177.645 377.024 165.276C376.548 161.421 376.132 158.045 376.405 155.553V93.9297H301.854ZM334.605 191.32C328.744 200.628 307.456 205.828 297.545 207.264C289.357 217.176 309.18 212.866 312.197 210.281C315.213 207.695 321.246 213.728 322.97 221.916C324.693 230.103 339.345 228.811 338.483 221.916C337.621 215.021 337.621 207.264 347.533 199.507C357.444 191.751 341.931 179.685 334.605 191.32Z" fill="white"/>
</g>
<g style="mix-blend-mode:overlay" opacity="0.5">
<path d="M245.402 176.237C263.501 176.237 262.639 190.889 245.402 193.905C228.599 196.846 212.206 201.424 211.789 210.435V211.143C211.779 210.904 211.779 210.668 211.789 210.435V166.319C218.744 170.252 232.441 176.237 245.402 176.237Z" fill="white"/>
</g>
</g>
<g opacity="0.6">
<circle cx="231.229" cy="193.51" r="1.16688" fill="white"/>
<circle cx="296.704" cy="273.821" r="1.16688" transform="rotate(75 296.704 273.821)" fill="white"/>
<circle cx="225.161" cy="154.925" r="1.16688" fill="white"/>
<circle cx="233.849" cy="176.884" r="1.16688" transform="rotate(75 233.849 176.884)" fill="white"/>
<circle cx="234.759" cy="241.614" r="1.16688" transform="rotate(75 234.759 241.614)" fill="white"/>
<circle cx="240.944" cy="225.621" r="1.16688" transform="rotate(75 240.944 225.621)" fill="white"/>
<circle cx="219.093" cy="249.986" r="1.16688" fill="white"/>
<circle cx="226.296" cy="267.312" r="1.16688" fill="white"/>
<circle cx="239.011" cy="276.715" r="1.16688" transform="rotate(75 239.011 276.715)" fill="white"/>
<circle cx="283.81" cy="218.484" r="1.16688" transform="rotate(75 283.81 218.484)" fill="white"/>
<circle cx="236.321" cy="116.466" r="1.16688" fill="white"/>
<circle cx="248.169" cy="86.3876" r="1.16688" fill="white"/>
<circle cx="300.577" cy="84.1093" r="1.16688" fill="white"/>
<circle cx="302.858" cy="116.01" r="1.16688" fill="white"/>
<circle cx="257.284" cy="147" r="1.16688" fill="white"/>
<circle cx="290.097" cy="147" r="1.16688" fill="white"/>
<circle cx="274.6" cy="171.609" r="1.16688" fill="white"/>
<circle cx="252.823" cy="187.109" r="1.16688" transform="rotate(75 252.823 187.109)" fill="white"/>
<circle cx="311.778" cy="282.158" r="1.16688" transform="rotate(75 311.778 282.158)" fill="white"/>
<circle cx="260.735" cy="284.892" r="1.16688" transform="rotate(75 260.735 284.892)" fill="white"/>
<circle cx="259.825" cy="259.372" r="1.16688" transform="rotate(75 259.825 259.372)" fill="white"/>
<circle cx="249.618" cy="205.202" r="1.16688" transform="rotate(75 249.618 205.202)" fill="white"/>
<circle cx="268.569" cy="205.489" r="1.16688" fill="white"/>
<circle cx="297.821" cy="262.624" r="1.16688" transform="rotate(165 297.821 262.624)" fill="white"/>
<circle cx="246.632" cy="248.119" r="1.16688" fill="white"/>
<circle cx="300.208" cy="247.488" r="1.16688" transform="rotate(165 300.208 247.488)" fill="white"/>
<circle cx="272.458" cy="233.806" r="1.16688" fill="white"/>
<circle cx="278.965" cy="267.999" r="1.16688" transform="rotate(165 278.965 267.999)" fill="white"/>
<path d="M255.598 238.723L255.178 237.587L254.043 237.167L255.178 236.747L255.598 235.611L256.019 236.747L257.154 237.167L256.019 237.587L255.598 238.723Z" fill="#FFF7B0"/>
<path d="M220.507 143.476L220.086 142.34L218.951 141.92L220.086 141.5L220.507 140.364L220.927 141.5L222.063 141.92L220.927 142.34L220.507 143.476Z" fill="#FFF7B0"/>
<path d="M257.93 277.152L257.51 276.017L256.375 275.597L257.51 275.176L257.93 274.041L258.351 275.176L259.486 275.597L258.351 276.017L257.93 277.152Z" fill="#FFF7B0"/>
<path d="M222.841 181.905L222.42 180.77L221.285 180.349L222.42 179.929L222.841 178.794L223.261 179.929L224.396 180.349L223.261 180.77L222.841 181.905Z" fill="#FFF7B0"/>
<path d="M220.507 220.334L220.086 219.198L218.951 218.778L220.086 218.358L220.507 217.222L220.927 218.358L222.063 218.778L220.927 219.198L220.507 220.334Z" fill="#FFF7B0"/>
<path d="M257.93 221.916L257.194 219.929L255.207 219.193L257.194 218.458L257.93 216.471L258.665 218.458L260.652 219.193L258.665 219.929L257.93 221.916Z" fill="#FFF7B0"/>
<path d="M265.219 118.921L264.483 116.934L262.496 116.198L264.483 115.463L265.219 113.475L265.954 115.463L267.941 116.198L265.954 116.934L265.219 118.921Z" fill="#FFF7B0"/>
<path d="M281.638 101.171L280.038 96.8466L275.714 95.2464L280.038 93.6463L281.638 89.3219L283.238 93.6463L287.563 95.2464L283.238 96.8466L281.638 101.171Z" fill="#FFF7B0"/>
</g>
</g>
<path d="M148.648 94.3359L124.888 210.019C124.817 210.364 124.947 210.715 125.237 210.917C128.357 213.084 146.959 225.13 174.999 225.13C203.04 225.13 221.642 213.084 224.761 210.917C225.052 210.715 225.182 210.364 225.11 210.019L201.351 94.3359C201.317 94.4029 201.272 94.4652 201.218 94.5207C199.882 95.8694 193.227 101.485 174.999 101.485C156.772 101.485 150.117 95.8694 148.781 94.5207C148.726 94.4652 148.682 94.4029 148.648 94.3359Z" fill="black" fill-opacity="0.75"/>
<path d="M223.108 212.345C217.521 215.9 199.995 225.586 174.886 225.586C146.901 225.586 128.335 213.553 125.221 211.389C125.031 211.257 124.91 211.061 124.869 210.845C128.807 199.46 144.114 176.315 164.063 182.374C173.943 185.375 180.859 192.907 187.363 199.991C197.437 210.963 206.524 220.86 224.105 211.178C223.783 211.565 223.45 211.955 223.108 212.345Z" fill="url(#paint4_radial_650_67846)"/>
<path d="M214.05 157.075L218.83 180.365C216.931 182.612 214.117 184.585 210.035 185.62C197.277 188.854 184.113 181.578 184.113 170.663C184.113 165.206 187.921 154.332 203.15 154.494C207.742 154.543 211.307 155.548 214.05 157.075Z" fill="url(#paint5_radial_650_67846)"/>
<path d="M177.734 131.369C177.734 128.407 179.774 122.504 187.933 122.592C196.091 122.68 198.203 128.48 198.239 131.369C198.312 133.491 197.089 138.084 191.621 139.489C184.786 141.244 177.734 137.294 177.734 131.369Z" fill="url(#paint6_radial_650_67846)"/>
<path d="M201.049 94.6862L205.113 114.487C203.523 114.216 201.871 113.903 200.18 113.583C186.038 110.908 169.252 107.732 165.003 124.186C163.148 131.37 165.836 135.668 168.45 139.85C170.975 143.886 173.431 147.814 171.668 154.125C169.523 161.805 157.859 166.78 148.479 163.45C138.57 159.932 139.266 145.359 144.961 138.305C150.656 131.25 151.48 120.486 150.656 113.326C150.259 109.865 148.549 107.391 146.313 105.706L148.649 94.3359C148.683 94.4029 148.727 94.4652 148.782 94.5207C150.117 95.8694 156.772 101.485 175 101.485C192.557 101.485 199.378 96.2747 201.049 94.6862Z" fill="url(#paint7_radial_650_67846)"/>
<mask id="mask1_650_67846" style="mask-type:alpha" maskUnits="userSpaceOnUse" x="140" y="94" width="66" height="71">
<path d="M201.049 94.6862L205.113 114.487C203.523 114.216 201.871 113.903 200.18 113.583C186.038 110.908 169.252 107.732 165.003 124.186C163.148 131.37 165.836 135.668 168.45 139.85C170.975 143.886 173.431 147.814 171.668 154.125C169.523 161.805 157.859 166.78 148.479 163.45C138.57 159.932 139.266 145.359 144.961 138.305C150.656 131.25 151.48 120.486 150.656 113.326C150.259 109.865 148.549 107.391 146.313 105.706L148.649 94.3359C148.683 94.4029 148.727 94.4652 148.782 94.5207C150.117 95.8694 156.772 101.485 175 101.485C192.557 101.485 199.378 96.2747 201.049 94.6862Z" fill="url(#paint8_radial_650_67846)"/>
</mask>
<g mask="url(#mask1_650_67846)">
<g filter="url(#filter1_f_650_67846)">
<mask id="mask2_650_67846" style="mask-type:alpha" maskUnits="userSpaceOnUse" x="124" y="94" width="102" height="132">
<path d="M148.861 95.52C148.948 95.0962 149.321 94.792 149.754 94.792H200.245C200.678 94.792 201.051 95.0962 201.138 95.52L224.992 211.615C225.074 212.011 224.887 212.411 224.526 212.593C220.623 214.565 198.375 225.273 174.999 225.584C151.577 225.894 129.287 214.634 125.449 212.597C125.099 212.41 124.923 212.019 125.003 211.63L148.861 95.52Z" fill="#577096" fill-opacity="0.75"/>
</mask>
<g mask="url(#mask2_650_67846)">
<g filter="url(#filter2_f_650_67846)">
<path d="M207.207 76.5625C210.865 110.724 145.939 133.027 113.02 139.909L113.02 76.5625L207.207 76.5625Z" fill="url(#paint9_linear_650_67846)" fill-opacity="0.5"/>
</g>
<g filter="url(#filter3_f_650_67846)">
<path d="M155.407 125.757C156.47 105.474 134.471 86.6388 128.929 67.4545C133.388 65.6533 144.05 71.2457 152.675 76.5808C163.456 83.2496 162.879 109.58 164.625 126.24C166.022 139.568 148.453 223.857 144.015 241.937L131.716 241.293C140.242 215.136 154.587 141.411 155.407 125.757Z" fill="url(#paint10_linear_650_67846)" fill-opacity="0.6"/>
</g>
</g>
</g>
</g>
<mask id="mask3_650_67846" style="mask-type:alpha" maskUnits="userSpaceOnUse" x="124" y="181" width="101" height="45">
<path d="M223.108 212.346C217.521 215.901 199.995 225.587 174.886 225.587C146.901 225.587 128.335 213.554 125.221 211.39C125.031 211.258 124.91 211.062 124.869 210.846C128.807 199.461 144.114 176.316 164.063 182.375C173.943 185.376 180.859 192.908 187.363 199.992C197.437 210.964 206.524 220.861 224.105 211.179C223.783 211.566 223.45 211.956 223.108 212.346Z" fill="url(#paint11_radial_650_67846)"/>
</mask>
<g mask="url(#mask3_650_67846)">
<g filter="url(#filter4_f_650_67846)">
<mask id="mask4_650_67846" style="mask-type:alpha" maskUnits="userSpaceOnUse" x="124" y="94" width="102" height="132">
<path d="M148.861 95.52C148.948 95.0962 149.321 94.792 149.754 94.792H200.245C200.678 94.792 201.051 95.0962 201.138 95.52L224.992 211.615C225.074 212.011 224.887 212.411 224.526 212.593C220.623 214.565 198.375 225.273 174.999 225.584C151.577 225.894 129.287 214.634 125.449 212.597C125.099 212.41 124.923 212.019 125.003 211.63L148.861 95.52Z" fill="#577096" fill-opacity="0.75"/>
</mask>
<g mask="url(#mask4_650_67846)">
<g filter="url(#filter5_f_650_67846)">
<path d="M155.407 125.757C156.47 105.474 134.471 86.6388 128.929 67.4545C133.388 65.6533 144.05 71.2457 152.675 76.5808C163.456 83.2496 162.879 109.58 164.625 126.24C166.022 139.568 148.453 223.857 144.015 241.937L131.716 241.293C140.242 215.136 154.587 141.411 155.407 125.757Z" fill="url(#paint12_linear_650_67846)" fill-opacity="0.6"/>
</g>
</g>
</g>
</g>
<g filter="url(#filter6_d_650_67846)">
<mask id="mask5_650_67846" style="mask-type:alpha" maskUnits="userSpaceOnUse" x="112" y="211" width="128" height="104">
<path d="M205.982 314.453H176.558H145.384C122.516 314.453 108.299 292.001 113.716 268.715L115.606 260.588L125.527 211.458C136.098 220.297 153.514 224.875 176.558 224.875C199.603 224.875 211.686 219.433 224.674 211.458L235.757 260.588L237.648 268.706C243.071 291.994 228.853 314.453 205.982 314.453Z" fill="url(#paint13_radial_650_67846)" stroke="black" stroke-width="0.455729"/>
</mask>
<g mask="url(#mask5_650_67846)">
<rect x="274.365" y="369.596" width="166.797" height="166.797" rx="0.911458" transform="rotate(-180 274.365 369.596)" fill="url(#paint14_linear_650_67846)"/>
<g style="mix-blend-mode:overlay" filter="url(#filter7_f_650_67846)">
<ellipse cx="263.736" cy="246.072" rx="273.297" ry="336.951" transform="rotate(0.126655 263.736 246.072)" fill="url(#paint15_radial_650_67846)"/>
</g>
<g opacity="0.5">
<g style="mix-blend-mode:overlay" opacity="0.5">
<path d="M141.262 209.182C115.613 191.808 177.123 160.039 198.184 157.952H128.739C107.791 160.229 101.795 170.665 101.416 175.598V217.151C107.298 225.121 119.266 240.858 156.631 250.736C206.153 263.828 265.878 238.394 245.43 209.182C229.491 186.413 176.554 233.09 141.262 209.182Z" fill="white"/>
</g>
<g style="mix-blend-mode:overlay" opacity="0.5">
<path fill-rule="evenodd" clip-rule="evenodd" d="M222.092 164.214C205.394 167.819 174.732 176.737 185.661 183.567C190.662 186.693 201.154 186.691 213.48 186.689C234.828 186.686 261.677 186.682 275.029 202.921C296.639 229.203 279.583 270.659 227.215 287.166C226.485 287.396 225.75 287.628 225.012 287.86C172.791 304.314 100.919 326.96 142.97 348.642C155.967 355.344 170.414 350.453 185.354 345.395C212.287 336.275 240.822 326.614 265.353 383.365H310.891C278.445 361.734 281.46 319.622 302.352 309.366C326.219 297.649 323.4 274.795 321.385 258.457C320.757 253.364 320.207 248.905 320.567 245.613V164.214H222.092ZM265.353 292.858C257.611 305.154 229.492 312.022 216.399 313.92C205.584 327.012 231.768 321.32 235.753 317.904C239.738 314.489 247.707 322.458 249.984 333.273C252.26 344.089 271.614 342.381 270.476 333.273C269.337 324.166 269.337 313.92 282.429 303.674C295.521 293.428 275.029 277.489 265.353 292.858Z" fill="white"/>
</g>
<g style="mix-blend-mode:overlay" opacity="0.5">
<path d="M147.523 272.936C171.43 272.936 170.292 292.289 147.523 296.274C125.328 300.158 103.674 306.206 103.123 318.108V319.043C103.109 318.727 103.109 318.415 103.123 318.108V259.834C112.31 265.03 130.403 272.936 147.523 272.936Z" fill="white"/>
</g>
</g>
<g opacity="0.6">
<ellipse rx="1.10576" ry="1.1626" transform="matrix(-0.961979 0.273124 -0.24516 -0.969483 232.684 276.48)" fill="white"/>
<ellipse rx="1.10576" ry="1.1626" transform="matrix(-0.961979 0.273124 -0.24516 -0.969483 183.706 249.312)" fill="white"/>
<ellipse rx="1.1626" ry="1.10576" transform="matrix(0.24516 0.969483 -0.961979 0.273124 153.02 226.881)" fill="white"/>
<ellipse rx="1.10576" ry="1.1626" transform="matrix(-0.961979 0.273124 -0.24516 -0.969483 198.661 285.011)" fill="white"/>
<ellipse rx="1.1626" ry="1.10576" transform="matrix(0.24516 0.969483 -0.961979 0.273124 186.712 211.034)" fill="white"/>
<ellipse rx="1.1626" ry="1.10576" transform="matrix(0.24516 0.969483 -0.961979 0.273124 201.794 225.674)" fill="white"/>
<ellipse rx="1.10576" ry="1.1626" transform="matrix(-0.961979 0.273124 -0.24516 -0.969483 235.929 236.417)" fill="white"/>
<ellipse rx="1.10576" ry="1.1626" transform="matrix(-0.961979 0.273124 -0.24516 -0.969483 219.991 235.305)" fill="white"/>
<ellipse rx="1.10576" ry="1.1626" transform="matrix(-0.961979 0.273124 -0.24516 -0.969483 166.618 294.753)" fill="white"/>
<ellipse rx="1.1626" ry="1.10576" transform="matrix(0.24516 0.969483 -0.961979 0.273124 195.905 244.987)" fill="white"/>
<ellipse rx="1.10576" ry="1.1626" transform="matrix(-0.961979 0.273124 -0.24516 -0.969483 149.544 291.548)" fill="white"/>
<ellipse rx="1.1626" ry="1.10576" transform="matrix(0.24516 0.969483 -0.961979 0.273124 217.137 213.343)" fill="white"/>
<ellipse rx="1.1626" ry="1.10576" transform="matrix(0.24516 0.969483 -0.961979 0.273124 167.245 235.218)" fill="white"/>
<ellipse rx="1.1626" ry="1.10576" transform="matrix(0.24516 0.969483 -0.961979 0.273124 168.106 272.588)" fill="white"/>
<ellipse rx="1.1626" ry="1.10576" transform="matrix(0.24516 0.969483 -0.961979 0.273124 119.075 237.953)" fill="white"/>
<ellipse rx="1.1626" ry="1.10576" transform="matrix(0.24516 0.969483 -0.961979 0.273124 118.215 212.431)" fill="white"/>
<ellipse rx="1.10576" ry="1.1626" transform="matrix(-0.961979 0.273124 -0.24516 -0.969483 146.741 247.404)" fill="white"/>
<ellipse rx="1.1626" ry="1.10576" transform="matrix(0.24516 0.969483 -0.961979 0.273124 151.219 266.049)" fill="white"/>
<ellipse rx="1.1626" ry="1.10576" transform="matrix(0.24516 0.969483 -0.961979 0.273124 239.503 212.887)" fill="white"/>
<ellipse rx="1.10576" ry="1.1626" transform="matrix(-0.961979 0.273124 -0.24516 -0.969483 154.073 215.685)" fill="white"/>
<ellipse rx="1.1626" ry="1.10576" transform="matrix(0.24516 0.969483 -0.961979 0.273124 121.286 258.28)" fill="white"/>
<ellipse rx="1.1626" ry="1.10576" transform="matrix(0.24516 0.969483 -0.961979 0.273124 224.506 254.178)" fill="white"/>
<ellipse rx="1.1626" ry="1.10576" transform="matrix(0.24516 0.969483 -0.961979 0.273124 210.223 251.791)" fill="white"/>
<ellipse rx="1.10576" ry="1.1626" transform="matrix(-0.961979 0.273124 -0.24516 -0.969483 136.278 221.06)" fill="white"/>
<ellipse rx="1.1626" ry="1.10576" transform="matrix(0.24516 0.969483 -0.961979 0.273124 126.356 277.135)" fill="white"/>
<ellipse rx="1.1626" ry="1.10576" transform="matrix(0.24516 0.969483 -0.961979 0.273124 229.579 273.034)" fill="white"/>
<path d="M116.428 230.213L116.032 229.077L114.96 228.657L116.032 228.237L116.428 227.101L116.825 228.237L117.896 228.657L116.825 229.077L116.428 230.213Z" fill="#7A6F0C"/>
<path d="M114.225 268.642L113.828 267.506L112.757 267.086L113.828 266.666L114.225 265.53L114.622 266.666L115.693 267.086L114.622 267.506L114.225 268.642Z" fill="#7A6F0C"/>
<path d="M134.854 275.487L134.16 273.5L132.285 272.765L134.16 272.029L134.854 270.042L135.548 272.029L137.424 272.765L135.548 273.5L134.854 275.487Z" fill="#7A6F0C"/>
<path d="M239.284 227.646L238.59 225.658L236.714 224.923L238.59 224.187L239.284 222.2L239.978 224.187L241.854 224.923L239.978 225.658L239.284 227.646Z" fill="#7A6F0C"/>
<path d="M129.716 253.395L129.022 251.407L127.146 250.672L129.022 249.936L129.716 247.949L130.41 249.936L132.285 250.672L130.41 251.407L129.716 253.395Z" fill="#7A6F0C"/>
<path d="M229.225 255.651L228.828 254.516L227.757 254.096L228.828 253.675L229.225 252.54L229.622 253.675L230.693 254.096L229.622 254.516L229.225 255.651Z" fill="#7A6F0C"/>
</g>
</g>
</g>
<ellipse cx="275.03" cy="84.3021" rx="20.0253" ry="3.1901" transform="rotate(9.26455 275.03 84.3021)" fill="white" fill-opacity="0.45"/>
<mask id="mask6_650_67846" style="mask-type:alpha" maskUnits="userSpaceOnUse" x="148" y="48" width="54" height="54">
<path d="M148.568 48.7656H201.433V94.3385C201.433 94.3385 195.508 101.448 175.001 101.448C154.493 101.448 148.568 94.3385 148.568 94.3385V48.7656Z" fill="url(#paint16_radial_650_67846)"/>
</mask>
<g mask="url(#mask6_650_67846)">
<rect x="242.223" y="186.007" width="133.35" height="147.652" rx="2" transform="rotate(-171.671 242.223 186.007)" fill="url(#paint17_linear_650_67846)"/>
<g style="mix-blend-mode:overlay" filter="url(#filter8_f_650_67846)">
<ellipse cx="251.378" cy="67.7823" rx="241.928" ry="298.276" transform="rotate(0.126655 251.378 67.7823)" fill="url(#paint18_radial_650_67846)"/>
</g>
<g opacity="0.5">
<g style="mix-blend-mode:overlay" opacity="0.5">
<path d="M118.354 91.6058C95.6499 76.2255 150.099 48.1034 168.743 46.2559H107.269C88.7256 48.2714 83.418 57.5094 83.082 61.8764V98.6602C88.2889 105.715 98.883 119.645 131.959 128.39C175.797 139.979 228.667 117.464 210.566 91.6058C196.457 71.4503 149.595 112.769 118.354 91.6058Z" fill="white"/>
</g>
<g style="mix-blend-mode:overlay" opacity="0.5">
<path fill-rule="evenodd" clip-rule="evenodd" d="M189.907 51.7988C175.126 54.9901 147.983 62.8844 157.658 68.931C162.085 71.6977 171.372 71.6963 182.283 71.6946C201.181 71.6918 224.949 71.6882 236.768 86.0632C255.898 109.328 240.8 146.026 194.442 160.639C193.796 160.842 193.146 161.047 192.492 161.253C146.265 175.818 82.6422 195.865 119.866 215.059C131.372 220.991 144.161 216.661 157.386 212.184C181.228 204.111 206.487 195.559 228.202 245.796H268.513C239.792 226.648 242.461 189.369 260.955 180.29C282.083 169.919 279.587 149.687 277.803 135.225C277.247 130.717 276.76 126.769 277.08 123.855V51.7988H189.907ZM228.202 165.678C221.35 176.562 196.457 182.642 184.868 184.321C175.294 195.911 198.473 190.872 202 187.849C205.527 184.825 212.582 191.88 214.597 201.454C216.613 211.028 233.745 209.516 232.737 201.454C231.73 193.391 231.73 184.321 243.319 175.251C254.908 166.181 236.768 152.073 228.202 165.678Z" fill="white"/>
</g>
</g>
<g opacity="0.6">
<circle cx="154.039" cy="54.737" r="1.03294" fill="white"/>
<circle cx="157.164" cy="97.3198" r="1.03294" transform="rotate(75 157.164 97.3198)" fill="white"/>
<circle cx="162.639" cy="83.1635" r="1.03294" transform="rotate(75 162.639 83.1635)" fill="white"/>
<circle cx="200.584" cy="76.8461" r="1.03294" transform="rotate(75 200.584 76.8461)" fill="white"/>
<circle cx="173.154" cy="49.0708" r="1.03294" transform="rotate(75 173.154 49.0708)" fill="white"/>
<circle cx="170.316" cy="65.0874" r="1.03294" transform="rotate(75 170.316 65.0874)" fill="white"/>
<circle cx="187.092" cy="65.3425" r="1.03294" fill="white"/>
<circle cx="190.535" cy="90.4079" r="1.03294" fill="white"/>
<path d="M175.609 94.7617L175.237 93.7564L174.232 93.3845L175.237 93.0125L175.609 92.0072L175.981 93.0125L176.986 93.3845L175.981 93.7564L175.609 94.7617Z" fill="#FFF7B0"/>
<path d="M177.674 79.8838L177.023 78.1246L175.264 77.4736L177.023 76.8226L177.674 75.0634L178.325 76.8226L180.084 77.4736L178.325 78.1246L177.674 79.8838Z" fill="#FFF7B0"/>
</g>
</g>
<mask id="mask7_650_67846" style="mask-type:alpha" maskUnits="userSpaceOnUse" x="144" y="39" width="63" height="10">
<rect x="144.465" y="39.6484" width="61.9792" height="9.11458" rx="2.27865" fill="#C4C4C4"/>
</mask>
<g mask="url(#mask7_650_67846)">
<rect x="309.787" y="117.426" width="166.797" height="166.797" rx="0.911458" transform="rotate(-180 309.787 117.426)" fill="url(#paint19_linear_650_67846)"/>
<g style="mix-blend-mode:overlay" filter="url(#filter9_f_650_67846)">
<ellipse cx="299.157" cy="-6.09835" rx="273.297" ry="336.951" transform="rotate(0.126655 299.157 -6.09835)" fill="url(#paint20_radial_650_67846)"/>
</g>
<g opacity="0.5">
<g style="mix-blend-mode:overlay" opacity="0.5">
<path fill-rule="evenodd" clip-rule="evenodd" d="M257.515 -87.9561C240.818 -84.351 210.156 -75.4331 221.085 -68.6024C226.086 -65.4771 236.578 -65.4787 248.904 -65.4805C270.251 -65.4837 297.101 -65.4878 310.453 -49.2488C332.063 -22.967 315.007 18.4888 262.639 34.9963C261.909 35.2264 261.174 35.4577 260.436 35.6903C208.215 52.1442 136.343 74.79 178.393 96.4724C191.391 103.174 205.838 98.2829 220.778 93.2247C247.711 84.1055 276.245 74.4442 300.776 131.195H346.314C313.869 109.565 316.884 67.452 337.776 57.196C361.643 45.4793 358.824 22.625 356.809 6.28724C356.181 1.19431 355.63 -3.26539 355.991 -6.55707V-87.9561H257.515ZM300.776 40.6885C293.035 52.9837 264.915 59.8524 251.823 61.7498C241.008 74.8419 267.192 69.1497 271.177 65.7343C275.161 62.319 283.131 70.2881 285.407 81.1034C287.684 91.9186 307.038 90.211 305.899 81.1034C304.761 71.9958 304.761 61.7498 317.853 51.5038C330.945 41.2577 310.453 25.3195 300.776 40.6885Z" fill="white"/>
</g>
<g style="mix-blend-mode:overlay" opacity="0.5">
<path d="M182.947 20.7656C206.854 20.7656 205.716 40.1192 182.947 44.1038C160.752 47.9879 139.098 54.0356 138.547 65.9377V66.8728C138.533 66.5571 138.533 66.2454 138.547 65.9377V7.66363C147.734 12.8601 165.827 20.7656 182.947 20.7656Z" fill="white"/>
</g>
</g>
<g opacity="0.6">
<path d="M161.207 46.7656L160.472 44.7783L158.484 44.0429L160.472 43.3075L161.207 41.3202L161.942 43.3075L163.93 44.0429L161.942 44.7783L161.207 46.7656Z" fill="#7A6F0C"/>
</g>
</g>
<path d="M243.547 194.643C239.376 194.643 235.177 194.643 231.092 194.643M243.547 194.643H231.092M243.547 194.643C247.719 194.643 249.048 194.933 249.851 195.378C250.15 201.466 251.029 207.448 252.473 211.458C256.575 222.852 264.322 232.878 258.398 245.182C253.658 255.026 243.055 261.589 236.067 263.867M231.092 194.643C227.007 194.643 223.041 200.202 223.459 203.711L219.205 182.713C221.159 183.356 222.699 184.643 227.705 184.643M227.705 184.643C232.711 184.643 241.089 184.643 244.652 184.643M227.705 184.643H244.652M244.652 184.643C245.882 184.56 248.355 184.173 250.065 183.256C250.324 180.527 250.736 178.104 251.305 176.234M318.098 119.71L317.534 123.348C317.42 124.08 316.843 124.645 316.105 124.7C313.54 124.893 307.516 125.119 297.806 123.692C287.929 122.239 280.873 119.745 278.291 118.717M238.118 285.514C249.511 281.109 271.095 270.703 277.083 257.487C284.929 240.169 280.273 228.776 272.07 208.268C266.505 194.357 267.756 184.378 269.932 179.442M246.989 134.224L246.427 137.844C246.312 138.584 246.244 139.305 246.94 139.582C247.768 139.912 249.029 140.384 250.686 140.922M286.467 140.494L285.902 144.131C285.788 144.863 285.667 145.428 284.929 145.483C284.002 145.553 282.562 145.627 280.643 145.626M269.932 179.442C272.031 179.411 273.194 179.171 273.798 178.977C274.186 178.852 274.415 178.504 274.491 178.103L280.643 145.626M269.932 179.442C267.933 179.471 265.086 179.31 261.065 178.74C256.489 178.09 253.381 177.136 251.305 176.234M251.305 176.234C249.411 175.411 248.375 174.63 247.865 174.162C247.572 173.892 247.466 173.496 247.505 173.1L250.686 140.922M280.643 145.626C277.255 145.624 272.373 145.386 266.175 144.475C259.468 143.489 254.191 142.059 250.686 140.922M254.953 133.376C254.622 133.604 254.334 133.682 254.11 133.623C260.479 136.64 271.877 138.651 280.09 137.813C279.475 137.366 277.824 130.941 277.743 126.918C277.672 123.396 278.094 118.246 279.31 113.619C279.408 113.245 279.512 112.875 279.62 112.509M254.953 133.376C256.192 132.523 258.014 129.561 259.139 123.803C260.563 116.511 261.391 110.359 260.221 104.207C259.487 100.352 249.511 83.6987 253.157 78.4579C256.803 73.2171 296.849 79.9409 298.359 85.3517C299.869 90.7626 286.579 100.075 282.222 106.612C281.135 108.242 280.279 110.292 279.62 112.509M254.953 133.376C250.192 133.059 247.057 133.268 246.929 134.057C246.708 135.408 255.378 137.946 266.294 139.727C277.209 141.507 286.237 141.856 286.457 140.505C286.577 139.769 284.058 138.681 279.975 137.554M279.62 112.509C282.289 112.032 289.881 112.61 298.724 114.052C309.639 115.833 318.328 118.257 318.13 119.468C317.933 120.678 308.924 120.216 298.009 118.436C288.881 116.947 281.311 115.008 279.191 113.704M294.937 87.5985C294.654 89.3374 285.575 89.3036 274.66 87.5231C263.744 85.7426 255.126 82.8895 255.409 81.1507C255.693 79.4118 264.772 79.4456 275.687 81.2261C286.602 83.0066 295.221 85.8597 294.937 87.5985Z" stroke="black" stroke-width="0.911458"/>
<path d="M225.131 211.458C225.131 211.458 206.618 225.13 175.229 225.13C143.839 225.13 125.326 211.458 125.326 211.458" stroke="black" stroke-width="0.911458"/>
<path d="M201.433 94.3359C201.433 94.3359 192.774 101.172 175.001 101.172C157.227 101.172 148.568 94.3359 148.568 94.3359" stroke="black" stroke-width="0.911458"/>
<g filter="url(#filter10_b_650_67846)">
<mask id="path-127-inside-1_650_67846" fill="white">
<path fill-rule="evenodd" clip-rule="evenodd" d="M147.107 49.1759C145.345 49.1759 143.917 47.7476 143.917 45.9858V42.3825C143.917 40.6206 145.345 39.1924 147.107 39.1924H203.712C205.474 39.1924 206.902 40.6206 206.902 42.3825V45.9858C206.902 47.7476 205.474 49.1759 203.712 49.1759H203.084C202.424 49.1759 201.888 49.7113 201.888 50.3717V95.9705C201.888 96.0494 201.896 96.1281 201.912 96.2055L213.06 151.838L225.178 210.112C225.184 210.142 225.221 210.154 225.244 210.134V210.134C225.267 210.115 225.303 210.127 225.31 210.157L236.173 259.873L237.619 267.136C243.059 290.733 229.704 314.909 206.761 314.909H176.334H144.151C121.212 314.909 108.312 290.74 113.746 267.145L115.192 259.873L125.13 210.159C125.136 210.128 125.173 210.115 125.197 210.135V210.135C125.22 210.155 125.257 210.143 125.263 210.112L148.819 92.5623C148.827 92.5207 148.838 92.4799 148.85 92.4402C148.925 92.1989 149.024 91.9581 149.024 91.7054V50.3717C149.024 49.7113 148.488 49.1759 147.828 49.1759H147.107Z"/>
</mask>
<path d="M213.06 151.838L212.166 152.017L212.167 152.023L213.06 151.838ZM236.173 259.873L237.067 259.695L237.065 259.687L237.064 259.678L236.173 259.873ZM237.619 267.136L236.725 267.314L236.728 267.327L236.731 267.34L237.619 267.136ZM113.746 267.145L114.634 267.35L114.637 267.336L114.64 267.323L113.746 267.145ZM115.192 259.873L114.298 259.694L114.298 259.695L115.192 259.873ZM148.819 92.5623L149.712 92.7414V92.7414L148.819 92.5623ZM125.263 210.112L126.157 210.291L125.263 210.112ZM201.912 96.2055L202.805 96.0264L201.912 96.2055ZM125.13 210.159L124.237 209.98L125.13 210.159ZM148.85 92.4402L147.98 92.1686L148.85 92.4402ZM225.31 210.157L224.42 210.351L225.31 210.157ZM225.178 210.112L226.07 209.926L225.178 210.112ZM143.006 45.9858C143.006 48.251 144.842 50.0873 147.107 50.0873V48.2644C145.849 48.2644 144.829 47.2442 144.829 45.9858H143.006ZM143.006 42.3825V45.9858H144.829V42.3825H143.006ZM147.107 38.2809C144.842 38.2809 143.006 40.1173 143.006 42.3825H144.829C144.829 41.124 145.849 40.1038 147.107 40.1038V38.2809ZM203.712 38.2809H147.107V40.1038H203.712V38.2809ZM207.813 42.3825C207.813 40.1173 205.977 38.2809 203.712 38.2809V40.1038C204.97 40.1038 205.991 41.124 205.991 42.3825H207.813ZM207.813 45.9858V42.3825H205.991V45.9858H207.813ZM203.712 50.0873C205.977 50.0873 207.813 48.251 207.813 45.9858H205.991C205.991 47.2442 204.97 48.2644 203.712 48.2644V50.0873ZM203.084 50.0873H203.712V48.2644H203.084V50.0873ZM202.8 95.9705V50.3717H200.977V95.9705H202.8ZM213.953 151.659L202.805 96.0264L201.018 96.3845L212.166 152.017L213.953 151.659ZM226.07 209.926L213.952 151.652L212.167 152.023L224.286 210.297L226.07 209.926ZM237.064 259.678L226.2 209.962L224.42 210.351L235.283 260.068L237.064 259.678ZM238.513 266.958L237.067 259.695L235.279 260.051L236.725 267.314L238.513 266.958ZM206.761 315.821C218.59 315.821 227.94 309.575 233.61 300.349C239.27 291.138 241.277 278.947 238.507 266.931L236.731 267.34C239.401 278.922 237.45 290.618 232.057 299.394C226.673 308.155 217.874 313.998 206.761 313.998V315.821ZM176.334 315.821H206.761V313.998H176.334V315.821ZM144.151 315.821H176.334V313.998H144.151V315.821ZM112.858 266.941C110.092 278.949 111.983 291.135 117.528 300.345C123.083 309.574 132.321 315.821 144.151 315.821V313.998C133.042 313.998 124.36 308.16 119.089 299.405C113.808 290.633 111.966 278.936 114.634 267.35L112.858 266.941ZM114.298 259.695L112.852 266.967L114.64 267.323L116.086 260.051L114.298 259.695ZM124.237 209.98L114.298 259.694L116.086 260.052L126.024 210.337L124.237 209.98ZM147.925 92.3832L124.369 209.933L126.157 210.291L149.712 92.7414L147.925 92.3832ZM147.98 92.1686C147.958 92.2387 147.94 92.3103 147.925 92.3832L149.712 92.7414C149.715 92.7311 149.717 92.7212 149.72 92.7118L147.98 92.1686ZM148.112 50.3717V91.7054H149.935V50.3717H148.112ZM147.107 50.0873H147.828V48.2644H147.107V50.0873ZM149.935 50.3717C149.935 49.2079 148.992 48.2644 147.828 48.2644V50.0873C147.985 50.0873 148.112 50.2147 148.112 50.3717H149.935ZM124.61 210.833C125.164 211.299 126.015 211.001 126.157 210.291L124.369 209.933C124.499 209.284 125.277 209.012 125.784 209.438L124.61 210.833ZM200.977 95.9705C200.977 96.1095 200.991 96.2482 201.018 96.3845L202.805 96.0264C202.802 96.008 202.8 95.9893 202.8 95.9705H200.977ZM126.024 210.337C125.894 210.987 125.116 211.259 124.61 210.833L125.784 209.438C125.23 208.972 124.379 209.27 124.237 209.98L126.024 210.337ZM149.72 92.7118C149.761 92.5804 149.935 92.1396 149.935 91.7054H148.112C148.112 91.7156 148.11 91.7497 148.087 91.832C148.076 91.8726 148.062 91.9175 148.043 91.9751C148.026 92.0267 148.001 92.0999 147.98 92.1686L149.72 92.7118ZM225.831 210.832C225.329 211.254 224.559 210.991 224.42 210.351L226.2 209.962C226.048 209.262 225.206 208.976 224.657 209.437L225.831 210.832ZM224.286 210.297C224.432 211.003 225.279 211.296 225.831 210.832L224.657 209.437C225.162 209.013 225.936 209.281 226.07 209.926L224.286 210.297ZM203.084 48.2644C201.92 48.2644 200.977 49.2079 200.977 50.3717H202.8C202.8 50.2147 202.927 50.0873 203.084 50.0873V48.2644Z" fill="black" mask="url(#path-127-inside-1_650_67846)"/>
</g>
</g>
</g>
<defs>
<filter id="filter0_f_650_67846" x="-44.4316" y="-140.627" width="438.078" height="535.451" filterUnits="userSpaceOnUse" color-interpolation-filters="sRGB">
<feFlood flood-opacity="0" result="BackgroundImageFix"/>
<feBlend mode="normal" in="SourceGraphic" in2="BackgroundImageFix" result="shape"/>
<feGaussianBlur stdDeviation="5" result="effect1_foregroundBlur_650_67846"/>
</filter>
<filter id="filter1_f_650_67846" x="122.59" y="92.5133" width="104.817" height="135.355" filterUnits="userSpaceOnUse" color-interpolation-filters="sRGB">
<feFlood flood-opacity="0" result="BackgroundImageFix"/>
<feBlend mode="normal" in="SourceGraphic" in2="BackgroundImageFix" result="shape"/>
<feGaussianBlur stdDeviation="1.13932" result="effect1_foregroundBlur_650_67846"/>
</filter>
<filter id="filter2_f_650_67846" x="112.108" y="75.651" width="96.1589" height="65.1696" filterUnits="userSpaceOnUse" color-interpolation-filters="sRGB">
<feFlood flood-opacity="0" result="BackgroundImageFix"/>
<feBlend mode="normal" in="SourceGraphic" in2="BackgroundImageFix" result="shape"/>
<feGaussianBlur stdDeviation="0.455729" result="effect1_foregroundBlur_650_67846"/>
</filter>
<filter id="filter3_f_650_67846" x="128.018" y="66.1989" width="37.5964" height="176.65" filterUnits="userSpaceOnUse" color-interpolation-filters="sRGB">
<feFlood flood-opacity="0" result="BackgroundImageFix"/>
<feBlend mode="normal" in="SourceGraphic" in2="BackgroundImageFix" result="shape"/>
<feGaussianBlur stdDeviation="0.455729" result="effect1_foregroundBlur_650_67846"/>
</filter>
<filter id="filter4_f_650_67846" x="122.59" y="92.5133" width="104.817" height="135.355" filterUnits="userSpaceOnUse" color-interpolation-filters="sRGB">
<feFlood flood-opacity="0" result="BackgroundImageFix"/>
<feBlend mode="normal" in="SourceGraphic" in2="BackgroundImageFix" result="shape"/>
<feGaussianBlur stdDeviation="1.13932" result="effect1_foregroundBlur_650_67846"/>
</filter>
<filter id="filter5_f_650_67846" x="128.018" y="66.1989" width="37.5964" height="176.65" filterUnits="userSpaceOnUse" color-interpolation-filters="sRGB">
<feFlood flood-opacity="0" result="BackgroundImageFix"/>
<feBlend mode="normal" in="SourceGraphic" in2="BackgroundImageFix" result="shape"/>
<feGaussianBlur stdDeviation="0.455729" result="effect1_foregroundBlur_650_67846"/>
</filter>
<filter id="filter6_d_650_67846" x="110.059" y="211.037" width="132.16" height="109.112" filterUnits="userSpaceOnUse" color-interpolation-filters="sRGB">
<feFlood flood-opacity="0" result="BackgroundImageFix"/>
<feColorMatrix in="SourceAlpha" type="matrix" values="0 0 0 0 0 0 0 0 0 0 0 0 0 0 0 0 0 0 127 0" result="hardAlpha"/>
<feOffset dx="0.455729" dy="2.73438"/>
<feGaussianBlur stdDeviation="1.36719"/>
<feComposite in2="hardAlpha" operator="out"/>
<feColorMatrix type="matrix" values="0 0 0 0 0 0 0 0 0 0 0 0 0 0 0 0 0 0 0.25 0"/>
<feBlend mode="normal" in2="BackgroundImageFix" result="effect1_dropShadow_650_67846"/>
<feBlend mode="normal" in="SourceGraphic" in2="effect1_dropShadow_650_67846" result="shape"/>
</filter>
<filter id="filter7_f_650_67846" x="-14.1198" y="-95.4362" width="555.71" height="683.016" filterUnits="userSpaceOnUse" color-interpolation-filters="sRGB">
<feFlood flood-opacity="0" result="BackgroundImageFix"/>
<feBlend mode="normal" in="SourceGraphic" in2="BackgroundImageFix" result="shape"/>
<feGaussianBlur stdDeviation="2.27865" result="effect1_foregroundBlur_650_67846"/>
</filter>
<filter id="filter8_f_650_67846" x="5.41501" y="-234.527" width="491.926" height="604.619" filterUnits="userSpaceOnUse" color-interpolation-filters="sRGB">
<feFlood flood-opacity="0" result="BackgroundImageFix"/>
<feBlend mode="normal" in="SourceGraphic" in2="BackgroundImageFix" result="shape"/>
<feGaussianBlur stdDeviation="2.0171" result="effect1_foregroundBlur_650_67846"/>
</filter>
<filter id="filter9_f_650_67846" x="21.3021" y="-347.606" width="555.71" height="683.016" filterUnits="userSpaceOnUse" color-interpolation-filters="sRGB">
<feFlood flood-opacity="0" result="BackgroundImageFix"/>
<feBlend mode="normal" in="SourceGraphic" in2="BackgroundImageFix" result="shape"/>
<feGaussianBlur stdDeviation="2.27865" result="effect1_foregroundBlur_650_67846"/>
</filter>
<filter id="filter10_b_650_67846" x="98.1595" y="24.8421" width="155.021" height="304.417" filterUnits="userSpaceOnUse" color-interpolation-filters="sRGB">
<feFlood flood-opacity="0" result="BackgroundImageFix"/>
<feGaussianBlur in="BackgroundImage" stdDeviation="7.17515"/>
<feComposite in2="SourceAlpha" operator="in" result="effect1_backgroundBlur_650_67846"/>
<feBlend mode="normal" in="SourceGraphic" in2="effect1_backgroundBlur_650_67846" result="shape"/>
</filter>
<radialGradient id="paint0_radial_650_67846" cx="0" cy="0" r="1" gradientUnits="userSpaceOnUse" gradientTransform="translate(156.623 402.453) rotate(-84.441) scale(239.93 241.682)">
<stop/>
<stop offset="1" stop-opacity="0"/>
</radialGradient>
<linearGradient id="paint1_linear_650_67846" x1="194.835" y1="272.55" x2="316.537" y2="168.848" gradientUnits="userSpaceOnUse">
<stop/>
<stop offset="1" stop-color="#333333" stop-opacity="0"/>
</linearGradient>
<radialGradient id="paint2_radial_650_67846" cx="0" cy="0" r="1" gradientUnits="userSpaceOnUse" gradientTransform="translate(174.607 165.159) rotate(92.5586) scale(167.784 136.229)">
<stop stop-color="#737373"/>
<stop offset="1" stop-color="#9A9A9A" stop-opacity="0"/>
</radialGradient>
<linearGradient id="paint3_linear_650_67846" x1="462.1" y1="262.572" x2="518.184" y2="572.649" gradientUnits="userSpaceOnUse">
<stop stop-color="#003802"/>
<stop offset="0.473958" stop-color="#00B806" stop-opacity="0.98"/>
<stop offset="1" stop-color="#B5FFB7" stop-opacity="0.98"/>
</linearGradient>
<radialGradient id="paint4_radial_650_67846" cx="0" cy="0" r="1" gradientUnits="userSpaceOnUse" gradientTransform="translate(146.217 191.714) rotate(27.3324) scale(58.602 42.3474)">
<stop offset="0.302083" stop-color="#FFB800"/>
<stop offset="1" stop-color="#FF7800"/>
</radialGradient>
<radialGradient id="paint5_radial_650_67846" cx="0" cy="0" r="1" gradientUnits="userSpaceOnUse" gradientTransform="translate(191.582 161.95) rotate(46.8342) scale(26.6221 23.5338)">
<stop offset="0.3125" stop-color="#FABE09"/>
<stop offset="1" stop-color="#FDF21B"/>
</radialGradient>
<radialGradient id="paint6_radial_650_67846" cx="0" cy="0" r="1" gradientUnits="userSpaceOnUse" gradientTransform="translate(182.539 126.348) rotate(45.8803) scale(10.3998 11.5271)">
<stop offset="0.203125" stop-color="#71FF30"/>
<stop offset="0.890625" stop-color="#25BC46"/>
</radialGradient>
<radialGradient id="paint7_radial_650_67846" cx="0" cy="0" r="1" gradientUnits="userSpaceOnUse" gradientTransform="translate(154.651 110.74) rotate(51.7012) scale(54.4207 46.8936)">
<stop offset="0.239583" stop-color="#5000B6"/>
<stop offset="1" stop-color="#7E5EFF"/>
</radialGradient>
<radialGradient id="paint8_radial_650_67846" cx="0" cy="0" r="1" gradientUnits="userSpaceOnUse" gradientTransform="translate(155.882 109.557) rotate(53.1177) scale(37.8178 40.2646)">
<stop offset="0.203125" stop-color="#71FF30"/>
<stop offset="0.890625" stop-color="#25BC46"/>
</radialGradient>
<linearGradient id="paint9_linear_650_67846" x1="145.214" y1="123.466" x2="155.828" y2="72.7474" gradientUnits="userSpaceOnUse">
<stop stop-color="white" stop-opacity="0"/>
<stop offset="0.471361" stop-color="white"/>
<stop offset="1" stop-color="white"/>
</linearGradient>
<linearGradient id="paint10_linear_650_67846" x1="160.729" y1="221.394" x2="201.954" y2="178.456" gradientUnits="userSpaceOnUse">
<stop stop-color="#F2F2F2"/>
<stop offset="0.0001" stop-color="#F2F2F2"/>
<stop offset="0.0520833" stop-color="#F2F2F2" stop-opacity="0.948011"/>
<stop offset="1" stop-color="#F2F2F2" stop-opacity="0"/>
</linearGradient>
<radialGradient id="paint11_radial_650_67846" cx="0" cy="0" r="1" gradientUnits="userSpaceOnUse" gradientTransform="translate(146.217 191.715) rotate(27.3324) scale(58.602 42.3474)">
<stop offset="0.302083" stop-color="#FFB800"/>
<stop offset="1" stop-color="#FF7800"/>
</radialGradient>
<linearGradient id="paint12_linear_650_67846" x1="160.729" y1="221.394" x2="201.954" y2="178.456" gradientUnits="userSpaceOnUse">
<stop stop-color="#F2F2F2"/>
<stop offset="0.0001" stop-color="#F2F2F2"/>
<stop offset="0.0520833" stop-color="#F2F2F2" stop-opacity="0.948011"/>
<stop offset="1" stop-color="#F2F2F2" stop-opacity="0"/>
</linearGradient>
<radialGradient id="paint13_radial_650_67846" cx="0" cy="0" r="1" gradientUnits="userSpaceOnUse" gradientTransform="translate(231.778 200.521) rotate(136.943) scale(153.528 198.077)">
<stop stop-color="#FF0000"/>
<stop offset="0.530354" stop-color="#FFE925"/>
<stop offset="1" stop-color="#289B04"/>
</radialGradient>
<linearGradient id="paint14_linear_650_67846" x1="460.776" y1="473.958" x2="295.017" y2="491.934" gradientUnits="userSpaceOnUse">
<stop stop-color="#003802"/>
<stop offset="0.473958" stop-color="#00B806" stop-opacity="0.98"/>
<stop offset="1" stop-color="#003802"/>
</linearGradient>
<radialGradient id="paint15_radial_650_67846" cx="0" cy="0" r="1" gradientUnits="userSpaceOnUse" gradientTransform="translate(263.736 295.832) rotate(92.5586) scale(219.36 178.105)">
<stop offset="0.479167" stop-color="white" stop-opacity="0.75"/>
<stop offset="1" stop-color="white" stop-opacity="0"/>
</radialGradient>
<radialGradient id="paint16_radial_650_67846" cx="0" cy="0" r="1" gradientUnits="userSpaceOnUse" gradientTransform="translate(198.492 43.4421) rotate(132.639) scale(69.3519 89.3771)">
<stop stop-color="#FF0000"/>
<stop offset="0.530354" stop-color="#FFE925"/>
<stop offset="1" stop-color="#6DF244"/>
</radialGradient>
<linearGradient id="paint17_linear_650_67846" x1="350.843" y1="278.61" x2="301.763" y2="283.417" gradientUnits="userSpaceOnUse">
<stop stop-color="#003802"/>
<stop offset="0.473958" stop-color="#00B806" stop-opacity="0.98"/>
<stop offset="1" stop-color="#003802"/>
</linearGradient>
<radialGradient id="paint18_radial_650_67846" cx="0" cy="0" r="1" gradientUnits="userSpaceOnUse" gradientTransform="translate(251.378 111.831) rotate(92.5586) scale(194.182 157.662)">
<stop offset="0.479167" stop-color="white" stop-opacity="0.75"/>
<stop offset="1" stop-color="white" stop-opacity="0"/>
</radialGradient>
<linearGradient id="paint19_linear_650_67846" x1="482.401" y1="222.036" x2="408.53" y2="230.047" gradientUnits="userSpaceOnUse">
<stop stop-color="#003802"/>
<stop offset="0.473958" stop-color="#00B806" stop-opacity="0.98"/>
<stop offset="1" stop-color="#003802"/>
</linearGradient>
<radialGradient id="paint20_radial_650_67846" cx="0" cy="0" r="1" gradientUnits="userSpaceOnUse" gradientTransform="translate(299.157 43.6623) rotate(92.5586) scale(219.36 178.105)">
<stop offset="0.479167" stop-color="white" stop-opacity="0.75"/>
<stop offset="1" stop-color="white" stop-opacity="0"/>
</radialGradient>
<clipPath id="clip0_650_67846">
<rect width="350" height="350" fill="white"/>
</clipPath>
<clipPath id="clip1_650_67846">
<rect width="350" height="350" fill="white"/>
</clipPath>
<clipPath id="clip2_650_67846">
<rect width="350" height="350" fill="white" transform="translate(0 0.911133)"/>
</clipPath>
<clipPath id="clip3_650_67846">
<rect width="350" height="350" fill="white" transform="translate(0 0.911133)"/>
</clipPath>
</defs>
</svg>
