<svg width="350" height="350" viewBox="0 0 350 350" fill="none" xmlns="http://www.w3.org/2000/svg">
<g clip-path="url(#clip0_617_53579)">
<g clip-path="url(#clip1_617_53579)">
<rect x="0.0800781" y="0.0449219" width="350" height="350" fill="#5A1320"/>
<rect x="0.0800781" y="0.0449219" width="350" height="350" fill="url(#paint0_radial_617_53579)" fill-opacity="0.2"/>
<path d="M125.978 290.538L299.832 190.751L430.987 233.88L212.559 294.049L125.978 290.538Z" fill="url(#paint1_linear_617_53579)"/>
<g opacity="0.45" filter="url(#filter0_f_617_53579)">
<ellipse rx="194.596" ry="66.7643" transform="matrix(0.999998 0.00221055 0.00221055 -0.999998 176.077 304.638)" fill="url(#paint2_radial_617_53579)"/>
</g>
<g opacity="0.7" filter="url(#filter1_f_617_53579)">
<ellipse cx="174.396" cy="137.609" rx="196.647" ry="242.448" transform="rotate(0.126655 174.396 137.609)" fill="url(#paint3_radial_617_53579)"/>
</g>
<g clip-path="url(#clip2_617_53579)">
<g style="mix-blend-mode:overlay">
<path fill-rule="evenodd" clip-rule="evenodd" d="M10.4369 299.782C54.2415 325.073 110.254 310.064 135.545 266.26C160.835 222.455 145.827 166.443 102.022 141.152C58.2176 115.861 2.205 130.87 -23.0856 174.674C-48.3761 218.479 -33.3676 274.492 10.4369 299.782ZM-9.86639 182.307C9.869 148.124 52.0534 134.983 87.3121 150.756L50.9362 213.761L-19.1339 232.536C-21.8209 215.821 -18.9908 198.11 -9.86639 182.307ZM64.1556 221.392L100.562 158.335C132.245 180.885 142.165 224.264 122.325 258.628C113.123 274.566 99.0398 285.93 83.0537 291.921L64.1556 221.392ZM68.2984 295.83C53.8474 298.153 38.6516 296.353 24.5878 289.926L53.3621 240.087L68.2984 295.83ZM-15.2247 247.291L40.1428 232.455L11.399 282.241C-1.06556 273.218 -10.1065 260.949 -15.2247 247.291Z" fill="white" fill-opacity="0.25"/>
</g>
<g style="mix-blend-mode:overlay">
<path fill-rule="evenodd" clip-rule="evenodd" d="M345.566 216.307C379.83 196.525 391.57 152.711 371.788 118.446C352.005 84.1814 308.191 72.4415 273.926 92.2242C239.662 112.007 227.922 155.821 247.704 190.086C267.487 224.35 311.301 236.09 345.566 216.307ZM258.045 184.116C242.607 157.377 250.204 123.661 274.679 105.945L303.133 155.229L288.446 210.039C276.073 205.322 265.182 196.478 258.045 184.116ZM313.473 149.258L284.995 99.934C312.663 87.2907 345.928 97.5364 361.447 124.416C368.646 136.884 370.835 150.868 368.642 164.041L313.473 149.258ZM365.519 175.565C361.441 186.263 354.278 195.853 344.423 202.866L321.916 163.882L365.519 175.565ZM299.971 213.161L311.576 169.852L334.059 208.795C323.072 213.71 311.225 215.036 299.971 213.161Z" fill="white" fill-opacity="0.25"/>
</g>
<g style="mix-blend-mode:overlay">
<path fill-rule="evenodd" clip-rule="evenodd" d="M161.393 63.3176C185.121 49.6185 193.25 19.2784 179.551 -4.44903C165.852 -28.1765 135.512 -36.3061 111.785 -22.607C88.0571 -8.90799 79.9275 21.4321 93.6266 45.1596C107.326 68.887 137.666 77.0166 161.393 63.3176ZM100.787 41.0255C90.097 22.5099 95.3577 -0.837533 112.306 -13.1056L132.009 21.022L121.839 58.9766C113.271 55.7102 105.729 49.5859 100.787 41.0255ZM139.17 16.8878L119.45 -17.2682C138.608 -26.0233 161.644 -18.9285 172.391 -0.314977C177.375 8.31846 178.892 18.0026 177.373 27.1243L139.17 16.8878ZM175.21 35.1046C172.386 42.5128 167.426 49.1533 160.602 54.0101L145.016 27.0142L175.21 35.1046ZM129.82 61.139L137.856 31.1483L153.425 58.1156C145.817 61.519 137.613 62.4372 129.82 61.139Z" fill="white" fill-opacity="0.25"/>
</g>
</g>
</g>
<path d="M148.648 94.3359L124.888 210.019C124.817 210.364 124.947 210.715 125.237 210.917C128.357 213.084 146.959 225.13 174.999 225.13C203.04 225.13 221.642 213.084 224.761 210.917C225.052 210.715 225.182 210.364 225.11 210.019L201.351 94.3359C201.317 94.4029 201.272 94.4652 201.218 94.5207C199.882 95.8694 193.227 101.485 174.999 101.485C156.772 101.485 150.117 95.8694 148.781 94.5207C148.726 94.4652 148.682 94.4029 148.648 94.3359Z" fill="black" fill-opacity="0.75"/>
<path d="M223.108 211.889C217.521 215.444 199.995 225.13 174.886 225.13C146.901 225.13 128.335 213.097 125.221 210.933C125.031 210.801 124.91 210.605 124.869 210.389C128.807 199.004 144.114 175.859 164.063 181.918C173.943 184.919 180.859 192.451 187.363 199.535C197.437 210.507 206.524 220.404 224.105 210.722C223.783 211.109 223.45 211.498 223.108 211.889Z" fill="url(#paint4_radial_617_53579)"/>
<path d="M214.05 156.619L218.83 179.909C216.931 182.156 214.117 184.129 210.035 185.164C197.277 188.398 184.113 181.121 184.113 170.207C184.113 164.75 187.921 153.876 203.15 154.038C207.742 154.087 211.307 155.092 214.05 156.619Z" fill="url(#paint5_radial_617_53579)"/>
<path d="M177.734 130.913C177.734 127.951 179.774 122.048 187.933 122.136C196.091 122.224 198.203 128.024 198.239 130.913C198.312 133.035 197.089 137.628 191.621 139.033C184.786 140.788 177.734 136.838 177.734 130.913Z" fill="url(#paint6_radial_617_53579)"/>
<path d="M201.049 94.2302L205.113 114.031C203.524 113.76 201.871 113.447 200.18 113.127C186.038 110.452 169.252 107.276 165.003 123.73C163.148 130.914 165.836 135.212 168.45 139.393C170.975 143.43 173.431 147.358 171.668 153.668C169.523 161.349 157.859 166.324 148.479 162.994C138.57 159.476 139.266 144.903 144.961 137.849C150.656 130.794 151.48 120.03 150.656 112.87C150.259 109.409 148.549 106.934 146.313 105.25L148.649 93.8799C148.683 93.9469 148.727 94.0092 148.782 94.0646C150.117 95.4133 156.772 101.029 175 101.029C192.557 101.029 199.378 95.8187 201.049 94.2302Z" fill="url(#paint7_radial_617_53579)"/>
<mask id="mask0_617_53579" style="mask-type:alpha" maskUnits="userSpaceOnUse" x="140" y="93" width="66" height="72">
<path d="M201.049 94.2302L205.113 114.031C203.524 113.76 201.871 113.447 200.18 113.127C186.038 110.452 169.252 107.276 165.003 123.73C163.148 130.914 165.836 135.212 168.45 139.393C170.975 143.43 173.431 147.358 171.668 153.668C169.523 161.349 157.859 166.324 148.479 162.994C138.57 159.476 139.266 144.903 144.961 137.849C150.656 130.794 151.48 120.03 150.656 112.87C150.259 109.409 148.549 106.934 146.313 105.25L148.649 93.8799C148.683 93.9469 148.727 94.0092 148.782 94.0646C150.117 95.4133 156.772 101.029 175 101.029C192.557 101.029 199.378 95.8187 201.049 94.2302Z" fill="url(#paint8_radial_617_53579)"/>
</mask>
<g mask="url(#mask0_617_53579)">
<g filter="url(#filter2_f_617_53579)">
<mask id="mask1_617_53579" style="mask-type:alpha" maskUnits="userSpaceOnUse" x="124" y="94" width="102" height="132">
<path d="M148.861 95.0639C148.948 94.6401 149.321 94.3359 149.754 94.3359H200.245C200.678 94.3359 201.051 94.6401 201.138 95.0639L224.992 211.159C225.074 211.555 224.887 211.955 224.526 212.137C220.623 214.109 198.375 224.817 174.999 225.128C151.577 225.438 129.287 214.178 125.449 212.141C125.099 211.954 124.923 211.562 125.003 211.173L148.861 95.0639Z" fill="#577096" fill-opacity="0.75"/>
</mask>
<g mask="url(#mask1_617_53579)">
<g filter="url(#filter3_f_617_53579)">
<path d="M207.207 76.1064C210.865 110.268 145.939 132.571 113.02 139.453L113.02 76.1064L207.207 76.1064Z" fill="url(#paint9_linear_617_53579)" fill-opacity="0.5"/>
</g>
<g filter="url(#filter4_f_617_53579)">
<path d="M155.407 125.301C156.47 105.018 134.471 86.1828 128.929 66.9985C133.388 65.1973 144.05 70.7896 152.675 76.1247C163.456 82.7936 162.879 109.124 164.625 125.784C166.022 139.112 148.453 223.401 144.015 241.481L131.716 240.837C140.242 214.68 154.587 140.955 155.407 125.301Z" fill="url(#paint10_linear_617_53579)" fill-opacity="0.6"/>
</g>
</g>
</g>
</g>
<mask id="mask2_617_53579" style="mask-type:alpha" maskUnits="userSpaceOnUse" x="124" y="180" width="101" height="46">
<path d="M223.108 211.89C217.521 215.445 199.995 225.131 174.886 225.131C146.901 225.131 128.335 213.098 125.221 210.934C125.031 210.802 124.91 210.606 124.869 210.39C128.807 199.005 144.114 175.86 164.063 181.919C173.943 184.92 180.859 192.452 187.363 199.536C197.437 210.508 206.524 220.405 224.105 210.723C223.783 211.11 223.45 211.499 223.108 211.89Z" fill="url(#paint11_radial_617_53579)"/>
</mask>
<g mask="url(#mask2_617_53579)">
<g filter="url(#filter5_f_617_53579)">
<mask id="mask3_617_53579" style="mask-type:alpha" maskUnits="userSpaceOnUse" x="124" y="94" width="102" height="132">
<path d="M148.861 95.0639C148.948 94.6401 149.321 94.3359 149.754 94.3359H200.245C200.678 94.3359 201.051 94.6401 201.138 95.0639L224.992 211.159C225.074 211.555 224.887 211.955 224.526 212.137C220.623 214.109 198.375 224.817 174.999 225.128C151.577 225.438 129.287 214.178 125.449 212.141C125.099 211.954 124.923 211.562 125.003 211.173L148.861 95.0639Z" fill="#577096" fill-opacity="0.75"/>
</mask>
<g mask="url(#mask3_617_53579)">
<g filter="url(#filter6_f_617_53579)">
<path d="M155.407 125.301C156.47 105.018 134.471 86.1828 128.929 66.9985C133.388 65.1973 144.05 70.7896 152.675 76.1247C163.456 82.7936 162.879 109.124 164.625 125.784C166.022 139.112 148.453 223.401 144.015 241.481L131.716 240.837C140.242 214.68 154.587 140.955 155.407 125.301Z" fill="url(#paint12_linear_617_53579)" fill-opacity="0.6"/>
</g>
</g>
</g>
</g>
<path d="M155.659 61.9407C159.113 48.9631 161.899 32.3574 174.786 32.3574C187.672 32.3574 192.187 52.9179 194.342 62.2571C196.266 70.5914 200.403 89.5245 201.271 93.5026C201.376 93.9813 201.26 94.463 200.903 94.7988C199.08 96.5152 192.205 101.628 175.001 101.628C157.732 101.628 150.87 96.4772 149.078 94.7798C148.734 94.4542 148.616 93.9888 148.705 93.5238C149.398 89.9045 152.6 73.4332 155.659 61.9407Z" fill="black"/>
<path d="M155.659 61.9407C159.113 48.9631 161.899 32.3574 174.786 32.3574C187.672 32.3574 192.187 52.9179 194.342 62.2571C196.266 70.5914 200.403 89.5245 201.271 93.5026C201.376 93.9813 201.26 94.463 200.903 94.7988C199.08 96.5152 192.205 101.628 175.001 101.628C157.732 101.628 150.87 96.4772 149.078 94.7798C148.734 94.4542 148.616 93.9888 148.705 93.5238C149.398 89.9045 152.6 73.4332 155.659 61.9407Z" fill="url(#paint13_linear_617_53579)" fill-opacity="0.45"/>
<path d="M228.321 314.723L202.038 284.375H172.526H143.19L117.123 314.723C117.123 314.723 134.805 334.733 172.722 334.733C210.639 334.733 228.321 314.723 228.321 314.723Z" fill="black"/>
<path d="M124.794 210.091C124.794 210.091 148.113 224.674 175.229 224.674C202.345 224.674 225.209 210.091 225.209 210.091C228.732 225.095 236.032 263.492 223.784 282.944C208.369 307.424 182.904 315.82 175.001 315.82C167.098 315.82 141.634 307.424 126.219 282.944C113.97 263.492 121.27 225.095 124.794 210.091Z" fill="#6DF244"/>
<path d="M124.794 210.091C124.794 210.091 148.113 224.674 175.229 224.674C202.345 224.674 225.209 210.091 225.209 210.091C228.732 225.095 236.032 263.492 223.784 282.944C208.369 307.424 182.904 315.82 175.001 315.82C167.098 315.82 141.634 307.424 126.219 282.944C113.97 263.492 121.27 225.095 124.794 210.091Z" fill="url(#paint14_linear_617_53579)" fill-opacity="0.8"/>
<path d="M155.659 61.9407C159.113 48.9631 161.899 32.3574 174.786 32.3574C187.672 32.3574 192.187 52.9179 194.342 62.2571C196.329 70.8616 200.674 90.7634 201.345 93.8415C201.403 94.1061 201.336 94.3674 201.146 94.5609C199.763 95.9726 193.095 101.628 175.001 101.628C156.851 101.628 150.198 95.9383 148.843 94.5482C148.66 94.3608 148.594 94.1081 148.643 93.8511C149.178 91.0443 152.494 73.8288 155.659 61.9407Z" fill="url(#paint15_linear_617_53579)"/>
<path d="M227.799 314.12L202.311 284.69C202.138 284.49 201.886 284.375 201.622 284.375H172.526H143.609C143.343 284.375 143.091 284.491 142.918 284.693L117.64 314.121C117.344 314.466 117.342 314.966 117.662 315.29C120.884 318.546 138.618 334.733 172.722 334.733C206.818 334.733 224.552 318.553 227.78 315.292C228.101 314.967 228.098 314.466 227.799 314.12Z" fill="url(#paint16_linear_617_53579)"/>
<path d="M124.506 211.323C124.645 210.714 125.342 210.426 125.883 210.738C130.784 213.564 151.56 224.674 175.227 224.674C198.857 224.674 219.258 213.6 224.113 210.752C224.655 210.434 225.355 210.722 225.495 211.335C229.104 227.121 235.705 264.008 223.782 282.944C208.367 307.424 182.902 315.82 174.999 315.82C167.097 315.82 141.632 307.424 126.217 282.944C114.291 264.003 120.898 227.102 124.506 211.323Z" fill="url(#paint17_linear_617_53579)"/>
<path d="M130.95 277.638C122.171 263.011 123.204 251.575 128.368 246.788C137.583 238.247 152.64 253.171 158.579 265.671C164.518 278.17 165.292 287.745 160.386 292.266C155.48 296.787 139.73 292.266 130.95 277.638Z" stroke="url(#paint18_linear_617_53579)" stroke-width="1.82292"/>
<path fill-rule="evenodd" clip-rule="evenodd" d="M175 303.507C172.005 303.606 166.496 302.828 162.695 298.958H174.089H175.911H187.305C183.504 302.828 177.996 303.606 175 303.507Z" fill="#8B1414"/>
<path d="M218.291 276.699C226.253 263.682 225.316 253.505 220.632 249.245C212.275 241.644 198.619 254.926 193.232 266.049C187.846 277.173 187.143 285.693 191.593 289.716C196.043 293.74 210.328 289.716 218.291 276.699Z" fill="#070707" stroke="#070707" stroke-width="0.455729"/>
<path d="M219.431 277.638C228.312 263.011 227.267 251.575 222.043 246.788C212.721 238.247 197.489 253.171 191.481 265.671C185.473 278.17 184.69 287.745 189.653 292.266C194.616 296.787 210.549 292.266 219.431 277.638Z" stroke="url(#paint19_linear_617_53579)" stroke-width="1.82292"/>
<path d="M220.59 256.216C219.789 252.566 217.887 250.967 216.327 251.048C213.544 251.195 213.376 255.887 214.313 258.758C215.25 261.629 216.578 263.228 218.056 263.147C219.533 263.065 221.391 259.866 220.59 256.216Z" fill="url(#paint20_radial_617_53579)"/>
<path fill-rule="evenodd" clip-rule="evenodd" d="M175.001 292.165C173.542 291.986 170.042 292.273 167.709 294.856H175.001H182.292C179.959 292.273 176.459 291.986 175.001 292.165Z" fill="#8B1414"/>
<path d="M132.09 276.699C124.23 263.682 125.155 253.505 129.779 249.245C138.029 241.644 151.51 254.926 156.828 266.049C162.145 277.173 162.838 285.693 158.446 289.716C154.053 293.74 139.951 289.716 132.09 276.699Z" fill="#070707" stroke="#070707" stroke-width="0.455729"/>
<path d="M129.564 256.216C130.366 252.566 132.267 250.967 133.827 251.048C136.61 251.195 136.778 255.887 135.841 258.758C134.904 261.629 133.577 263.228 132.099 263.147C130.621 263.065 128.763 259.866 129.564 256.216Z" fill="url(#paint21_radial_617_53579)"/>
<path d="M130.95 277.638C122.171 263.011 123.204 251.575 128.368 246.788C137.583 238.247 152.64 253.171 158.579 265.671C164.518 278.17 165.292 287.745 160.386 292.266C155.48 296.787 139.73 292.266 130.95 277.638Z" stroke="url(#paint22_linear_617_53579)" stroke-width="1.82292"/>
</g>
<path fill-rule="evenodd" clip-rule="evenodd" d="M177.408 224.674L177.305 224.674C177.892 224.673 178.474 224.667 179.052 224.655C178.506 224.668 177.958 224.674 177.408 224.674Z" fill="#161A70" fill-opacity="0.1"/>
<path fill-rule="evenodd" clip-rule="evenodd" d="M228.41 314.723C228.41 314.723 211.425 334.733 175 334.733V32.3564C187.169 32.3564 192.181 52.2241 194.294 61.7705L194.402 62.2561C196.25 70.5904 200.68 89.5235 201.514 93.5016C201.566 93.7528 201.561 94.0048 201.494 94.2361L225.233 209.629C225.279 209.859 225.238 210.093 225.123 210.282C225.319 210.158 225.42 210.091 225.42 210.091C228.805 225.095 235.817 263.492 224.051 282.944C220.851 288.234 217.2 292.774 213.365 296.639L228.41 314.723ZM177.408 224.674L177.305 224.674C177.892 224.673 178.474 224.667 179.052 224.655C178.506 224.668 177.958 224.674 177.408 224.674Z" fill="#161A70" fill-opacity="0.1"/>
<defs>
<filter id="filter0_f_617_53579" x="-23.0749" y="233.315" width="398.306" height="142.646" filterUnits="userSpaceOnUse" color-interpolation-filters="sRGB">
<feFlood flood-opacity="0" result="BackgroundImageFix"/>
<feBlend mode="normal" in="SourceGraphic" in2="BackgroundImageFix" result="shape"/>
<feGaussianBlur stdDeviation="2.27865" result="effect1_foregroundBlur_617_53579"/>
</filter>
<filter id="filter1_f_617_53579" x="-26.8092" y="-109.396" width="402.41" height="494.01" filterUnits="userSpaceOnUse" color-interpolation-filters="sRGB">
<feFlood flood-opacity="0" result="BackgroundImageFix"/>
<feBlend mode="normal" in="SourceGraphic" in2="BackgroundImageFix" result="shape"/>
<feGaussianBlur stdDeviation="2.27865" result="effect1_foregroundBlur_617_53579"/>
</filter>
<filter id="filter2_f_617_53579" x="122.59" y="92.0573" width="104.817" height="135.355" filterUnits="userSpaceOnUse" color-interpolation-filters="sRGB">
<feFlood flood-opacity="0" result="BackgroundImageFix"/>
<feBlend mode="normal" in="SourceGraphic" in2="BackgroundImageFix" result="shape"/>
<feGaussianBlur stdDeviation="1.13932" result="effect1_foregroundBlur_617_53579"/>
</filter>
<filter id="filter3_f_617_53579" x="112.108" y="75.195" width="96.1589" height="65.1696" filterUnits="userSpaceOnUse" color-interpolation-filters="sRGB">
<feFlood flood-opacity="0" result="BackgroundImageFix"/>
<feBlend mode="normal" in="SourceGraphic" in2="BackgroundImageFix" result="shape"/>
<feGaussianBlur stdDeviation="0.455729" result="effect1_foregroundBlur_617_53579"/>
</filter>
<filter id="filter4_f_617_53579" x="128.018" y="65.7428" width="37.5964" height="176.65" filterUnits="userSpaceOnUse" color-interpolation-filters="sRGB">
<feFlood flood-opacity="0" result="BackgroundImageFix"/>
<feBlend mode="normal" in="SourceGraphic" in2="BackgroundImageFix" result="shape"/>
<feGaussianBlur stdDeviation="0.455729" result="effect1_foregroundBlur_617_53579"/>
</filter>
<filter id="filter5_f_617_53579" x="122.59" y="92.0573" width="104.817" height="135.355" filterUnits="userSpaceOnUse" color-interpolation-filters="sRGB">
<feFlood flood-opacity="0" result="BackgroundImageFix"/>
<feBlend mode="normal" in="SourceGraphic" in2="BackgroundImageFix" result="shape"/>
<feGaussianBlur stdDeviation="1.13932" result="effect1_foregroundBlur_617_53579"/>
</filter>
<filter id="filter6_f_617_53579" x="128.018" y="65.7428" width="37.5964" height="176.65" filterUnits="userSpaceOnUse" color-interpolation-filters="sRGB">
<feFlood flood-opacity="0" result="BackgroundImageFix"/>
<feBlend mode="normal" in="SourceGraphic" in2="BackgroundImageFix" result="shape"/>
<feGaussianBlur stdDeviation="0.455729" result="effect1_foregroundBlur_617_53579"/>
</filter>
<radialGradient id="paint0_radial_617_53579" cx="0" cy="0" r="1" gradientUnits="userSpaceOnUse" gradientTransform="translate(156.623 401.542) rotate(-84.441) scale(239.93 241.682)">
<stop/>
<stop offset="1" stop-opacity="0"/>
</radialGradient>
<linearGradient id="paint1_linear_617_53579" x1="194.835" y1="271.639" x2="316.537" y2="167.937" gradientUnits="userSpaceOnUse">
<stop/>
<stop offset="1" stop-color="#333333" stop-opacity="0"/>
</linearGradient>
<radialGradient id="paint2_radial_617_53579" cx="0" cy="0" r="1" gradientUnits="userSpaceOnUse" gradientTransform="translate(194.596 76.624) rotate(99.1226) scale(43.9775 125.337)">
<stop stop-color="#CF0000"/>
<stop offset="1" stop-color="#CF0000" stop-opacity="0"/>
</radialGradient>
<radialGradient id="paint3_radial_617_53579" cx="0" cy="0" r="1" gradientUnits="userSpaceOnUse" gradientTransform="translate(174.396 173.413) rotate(92.5586) scale(157.837 128.153)">
<stop stop-color="#CF0000"/>
<stop offset="1" stop-color="#CF0000" stop-opacity="0"/>
</radialGradient>
<radialGradient id="paint4_radial_617_53579" cx="0" cy="0" r="1" gradientUnits="userSpaceOnUse" gradientTransform="translate(146.217 191.258) rotate(27.3324) scale(58.602 42.3474)">
<stop offset="0.552083" stop-color="white"/>
<stop offset="1" stop-color="#D0C9C9"/>
</radialGradient>
<radialGradient id="paint5_radial_617_53579" cx="0" cy="0" r="1" gradientUnits="userSpaceOnUse" gradientTransform="translate(191.582 161.494) rotate(46.8342) scale(26.6221 23.5338)">
<stop offset="0.552083" stop-color="white"/>
<stop offset="1" stop-color="#D0C9C9"/>
</radialGradient>
<radialGradient id="paint6_radial_617_53579" cx="0" cy="0" r="1" gradientUnits="userSpaceOnUse" gradientTransform="translate(182.146 126.183) rotate(44.415) scale(15.0618 13.3391)">
<stop offset="0.552083" stop-color="white"/>
<stop offset="1" stop-color="#D0C9C9"/>
</radialGradient>
<radialGradient id="paint7_radial_617_53579" cx="0" cy="0" r="1" gradientUnits="userSpaceOnUse" gradientTransform="translate(154.651 110.284) rotate(51.7012) scale(54.4207 46.8936)">
<stop offset="0.552083" stop-color="white"/>
<stop offset="1" stop-color="#D0C9C9"/>
</radialGradient>
<radialGradient id="paint8_radial_617_53579" cx="0" cy="0" r="1" gradientUnits="userSpaceOnUse" gradientTransform="translate(155.882 109.101) rotate(53.1177) scale(37.8178 40.2646)">
<stop offset="0.203125" stop-color="#71FF30"/>
<stop offset="0.890625" stop-color="#25BC46"/>
</radialGradient>
<linearGradient id="paint9_linear_617_53579" x1="145.214" y1="123.01" x2="155.828" y2="72.2914" gradientUnits="userSpaceOnUse">
<stop stop-color="white" stop-opacity="0"/>
<stop offset="0.471361" stop-color="white"/>
<stop offset="1" stop-color="white"/>
</linearGradient>
<linearGradient id="paint10_linear_617_53579" x1="160.729" y1="220.938" x2="201.954" y2="178" gradientUnits="userSpaceOnUse">
<stop stop-color="#F2F2F2"/>
<stop offset="0.0001" stop-color="#F2F2F2"/>
<stop offset="0.0520833" stop-color="#F2F2F2" stop-opacity="0.948011"/>
<stop offset="1" stop-color="#F2F2F2" stop-opacity="0"/>
</linearGradient>
<radialGradient id="paint11_radial_617_53579" cx="0" cy="0" r="1" gradientUnits="userSpaceOnUse" gradientTransform="translate(146.217 191.259) rotate(27.3324) scale(58.602 42.3474)">
<stop offset="0.302083" stop-color="#FFB800"/>
<stop offset="1" stop-color="#FF7800"/>
</radialGradient>
<linearGradient id="paint12_linear_617_53579" x1="160.729" y1="220.938" x2="201.954" y2="178" gradientUnits="userSpaceOnUse">
<stop stop-color="#F2F2F2"/>
<stop offset="0.0001" stop-color="#F2F2F2"/>
<stop offset="0.0520833" stop-color="#F2F2F2" stop-opacity="0.948011"/>
<stop offset="1" stop-color="#F2F2F2" stop-opacity="0"/>
</linearGradient>
<linearGradient id="paint13_linear_617_53579" x1="164.975" y1="47.3965" x2="175.001" y2="101.628" gradientUnits="userSpaceOnUse">
<stop stop-color="white" stop-opacity="0.17"/>
<stop offset="1" stop-color="#C3C3C3" stop-opacity="0"/>
</linearGradient>
<linearGradient id="paint14_linear_617_53579" x1="175.001" y1="293.489" x2="175.001" y2="226.953" gradientUnits="userSpaceOnUse">
<stop offset="0.527397" stop-color="#6DF244"/>
<stop offset="1" stop-color="#388E1D"/>
</linearGradient>
<linearGradient id="paint15_linear_617_53579" x1="175.001" y1="8.76951" x2="152.222" y2="101.084" gradientUnits="userSpaceOnUse">
<stop stop-color="#830101"/>
<stop offset="0.979167" stop-color="#FF1818" stop-opacity="0.98"/>
</linearGradient>
<linearGradient id="paint16_linear_617_53579" x1="132.792" y1="292.634" x2="162.494" y2="361.543" gradientUnits="userSpaceOnUse">
<stop stop-color="#9A0404"/>
<stop offset="0.473958" stop-color="#D80101" stop-opacity="0.98"/>
<stop offset="1" stop-color="#FF8080" stop-opacity="0.98"/>
</linearGradient>
<linearGradient id="paint17_linear_617_53579" x1="174.999" y1="174.088" x2="149.067" y2="318.924" gradientUnits="userSpaceOnUse">
<stop stop-color="#830101"/>
<stop offset="0.979167" stop-color="#FF1818" stop-opacity="0.98"/>
</linearGradient>
<linearGradient id="paint18_linear_617_53579" x1="144.01" y1="244.271" x2="144.01" y2="293.945" gradientUnits="userSpaceOnUse">
<stop stop-color="#CF0000"/>
<stop offset="0.40625" stop-color="#CF0000" stop-opacity="0.37"/>
</linearGradient>
<linearGradient id="paint19_linear_617_53579" x1="206.219" y1="244.271" x2="206.219" y2="293.945" gradientUnits="userSpaceOnUse">
<stop offset="0.338542" stop-color="#CF0000" stop-opacity="0.37"/>
<stop offset="1" stop-color="#FF4E4E"/>
</linearGradient>
<radialGradient id="paint20_radial_617_53579" cx="0" cy="0" r="1" gradientUnits="userSpaceOnUse" gradientTransform="translate(217.187 256.975) rotate(79.0248) scale(5.68455 4.63752)">
<stop stop-color="white" stop-opacity="0.75"/>
<stop offset="1" stop-color="white" stop-opacity="0"/>
<stop offset="1" stop-color="white"/>
</radialGradient>
<radialGradient id="paint21_radial_617_53579" cx="0" cy="0" r="1" gradientUnits="userSpaceOnUse" gradientTransform="translate(132.967 256.975) rotate(100.975) scale(5.68455 4.63752)">
<stop stop-color="white" stop-opacity="0.75"/>
<stop offset="1" stop-color="white" stop-opacity="0"/>
<stop offset="1" stop-color="white"/>
</radialGradient>
<linearGradient id="paint22_linear_617_53579" x1="144.01" y1="244.271" x2="144.01" y2="293.945" gradientUnits="userSpaceOnUse">
<stop offset="0.338542" stop-color="#CF0000" stop-opacity="0.37"/>
<stop offset="1" stop-color="#FF4E4E"/>
</linearGradient>
<clipPath id="clip0_617_53579">
<rect width="350" height="350" fill="white"/>
</clipPath>
<clipPath id="clip1_617_53579">
<rect width="350" height="350" fill="white"/>
</clipPath>
<clipPath id="clip2_617_53579">
<rect width="350" height="350" fill="white"/>
</clipPath>
</defs>
</svg>
