<svg width="351" height="350" viewBox="0 0 351 350" fill="none" xmlns="http://www.w3.org/2000/svg">
<g clip-path="url(#clip0_559_63195)">
<g clip-path="url(#clip1_559_63195)">
<g clip-path="url(#clip2_559_63195)">
<rect x="1.07422" y="0.0439453" width="350" height="350" fill="black" fill-opacity="0.89"/>
<rect x="1.07422" y="0.0439453" width="350" height="350" fill="url(#paint0_radial_559_63195)" fill-opacity="0.2"/>
<path d="M126.974 290.538L300.828 190.751L431.983 233.88L231.784 294.049L126.974 290.538Z" fill="url(#paint1_linear_559_63195)"/>
<g opacity="0.45" filter="url(#filter0_f_559_63195)">
<ellipse rx="194.596" ry="66.7643" transform="matrix(0.999998 0.00221055 0.00221055 -0.999998 177.074 304.638)" fill="url(#paint2_radial_559_63195)"/>
</g>
<g opacity="0.7" filter="url(#filter1_f_559_63195)">
<ellipse cx="175.392" cy="137.609" rx="196.647" ry="242.448" transform="rotate(0.126655 175.392 137.609)" fill="url(#paint3_radial_559_63195)"/>
</g>
<g clip-path="url(#clip3_559_63195)">
<g clip-path="url(#clip4_559_63195)">
<path d="M43.1024 2.27832L42.2402 5.26886V92.0475L43.1024 92.9258L82.5723 69.1154L43.1024 2.27832Z" fill="white" fill-opacity="0.05"/>
<path d="M42.2283 2.27832L1.9082 69.1057L42.2283 92.9129V50.7993V2.27832Z" fill="white" fill-opacity="0.15"/>
<path d="M42.7303 100.626L42.2402 101.229V132.082L42.7303 133.528L82.5723 76.873L42.7303 100.626Z" fill="white" fill-opacity="0.1"/>
<path d="M42.2283 133.499V100.538L1.9082 76.7432L42.2283 133.499Z" fill="white" fill-opacity="0.15"/>
<path d="M42.2285 92.9128L82.5479 69.1062L42.2285 50.7998V92.9128Z" fill="white" fill-opacity="0.1"/>
<path d="M1.9082 69.1062L42.2276 92.9128V50.7998L1.9082 69.1062Z" fill="white" fill-opacity="0.1"/>
</g>
<g clip-path="url(#clip5_559_63195)">
<path d="M264.294 -6.83594L263.725 -4.84224V53.0102L264.294 53.5957L290.385 37.7221L264.294 -6.83594Z" fill="white" fill-opacity="0.05"/>
<path d="M263.717 -6.83594L237.064 37.7156L263.717 53.5871V25.5114V-6.83594Z" fill="white" fill-opacity="0.15"/>
<path d="M264.049 58.7297L263.725 59.1319V79.7006L264.049 80.6643L290.385 42.8945L264.049 58.7297Z" fill="white" fill-opacity="0.1"/>
<path d="M263.717 80.6436V58.67L237.064 42.8066L263.717 80.6436Z" fill="white" fill-opacity="0.15"/>
<path d="M263.717 53.5871L290.369 37.716L263.717 25.5117V53.5871Z" fill="white" fill-opacity="0.1"/>
<path d="M237.064 37.716L263.716 53.587V25.5117L237.064 37.716Z" fill="white" fill-opacity="0.1"/>
</g>
<g clip-path="url(#clip6_559_63195)">
<path d="M142.615 92.9688L142.045 94.9624V152.815L142.615 153.4L168.705 137.527L142.615 92.9688Z" fill="white" fill-opacity="0.05"/>
<path d="M142.037 92.9688L115.385 137.52L142.037 153.392V125.316V92.9688Z" fill="white" fill-opacity="0.15"/>
<path d="M142.369 158.534L142.045 158.937V179.505L142.369 180.469L168.705 142.699L142.369 158.534Z" fill="white" fill-opacity="0.1"/>
<path d="M142.037 180.448V158.475L115.385 142.611L142.037 180.448Z" fill="white" fill-opacity="0.15"/>
<path d="M142.037 153.392L168.689 137.521L142.037 125.316V153.392Z" fill="white" fill-opacity="0.1"/>
<path d="M115.385 137.521L142.037 153.392V125.316L115.385 137.521Z" fill="white" fill-opacity="0.1"/>
</g>
<g clip-path="url(#clip7_559_63195)">
<path d="M-4.1313 125.325L-4.70117 127.319V185.171L-4.1313 185.757L21.959 169.883L-4.1313 125.325Z" fill="white" fill-opacity="0.05"/>
<path d="M-4.37721 190.891L-4.70117 191.293V211.862L-4.37721 212.825L21.959 175.056L-4.37721 190.891Z" fill="white" fill-opacity="0.1"/>
<path d="M-4.70898 185.748L21.9428 169.877L-4.70898 157.673V185.748Z" fill="white" fill-opacity="0.1"/>
</g>
<g clip-path="url(#clip8_559_63195)">
<path d="M236.951 106.185L236.381 108.178V166.031L236.951 166.616L263.041 150.743L236.951 106.185Z" fill="white" fill-opacity="0.05"/>
<path d="M236.373 106.185L209.721 150.736L236.373 166.608V138.532V106.185Z" fill="white" fill-opacity="0.15"/>
<path d="M236.705 171.75L236.381 172.152V192.721L236.705 193.685L263.041 155.915L236.705 171.75Z" fill="white" fill-opacity="0.1"/>
<path d="M236.373 193.664V171.69L209.721 155.827L236.373 193.664Z" fill="white" fill-opacity="0.15"/>
<path d="M236.373 166.608L263.025 150.736L236.373 138.532V166.608Z" fill="white" fill-opacity="0.1"/>
<path d="M209.721 150.736L236.373 166.608V138.532L209.721 150.736Z" fill="white" fill-opacity="0.1"/>
</g>
<g clip-path="url(#clip9_559_63195)">
<path d="M116.181 306.25L115.611 308.244V366.096L116.181 366.682L142.271 350.808L116.181 306.25Z" fill="white" fill-opacity="0.05"/>
<path d="M115.603 306.25L88.9512 350.802L115.603 366.673V338.597V306.25Z" fill="white" fill-opacity="0.15"/>
<path d="M115.604 366.673L142.255 350.802L115.604 338.598V366.673Z" fill="white" fill-opacity="0.1"/>
<path d="M88.9512 350.802L115.603 366.673V338.598L88.9512 350.802Z" fill="white" fill-opacity="0.1"/>
</g>
<g clip-path="url(#clip10_559_63195)">
<path d="M351.217 306.25L324.564 350.802L351.217 366.673V338.597V306.25Z" fill="white" fill-opacity="0.15"/>
<path d="M324.564 350.802L351.216 366.673V338.598L324.564 350.802Z" fill="white" fill-opacity="0.1"/>
</g>
<g clip-path="url(#clip11_559_63195)">
<path d="M2.70464 244.271L2.13477 246.264V304.117L2.70464 304.702L28.7949 288.829L2.70464 244.271Z" fill="white" fill-opacity="0.05"/>
<path d="M2.12685 244.271L-24.5254 288.822L2.12685 304.694V276.618V244.271Z" fill="white" fill-opacity="0.15"/>
<path d="M2.45873 309.836L2.13477 310.238V330.807L2.45873 331.771L28.7949 294.001L2.45873 309.836Z" fill="white" fill-opacity="0.1"/>
<path d="M2.12685 331.75V309.776L-24.5254 293.913L2.12685 331.75Z" fill="white" fill-opacity="0.15"/>
<path d="M2.12695 304.693L28.7788 288.822L2.12695 276.618V304.693Z" fill="white" fill-opacity="0.1"/>
<path d="M-24.5254 288.822L2.12644 304.693V276.618L-24.5254 288.822Z" fill="white" fill-opacity="0.1"/>
</g>
<g clip-path="url(#clip12_559_63195)">
<path d="M142.615 -36.9141L142.045 -34.9204V22.9321L142.615 23.5176L168.705 7.64399L142.615 -36.9141Z" fill="white" fill-opacity="0.05"/>
<path d="M142.037 -36.9141L115.385 7.6375L142.037 23.509V-4.56676V-36.9141Z" fill="white" fill-opacity="0.15"/>
<path d="M142.369 28.6516L142.045 29.0537V49.6225L142.369 50.5862L168.705 12.8164L142.369 28.6516Z" fill="white" fill-opacity="0.1"/>
<path d="M142.037 50.5655V28.5918L115.385 12.7285L142.037 50.5655Z" fill="white" fill-opacity="0.15"/>
<path d="M142.037 23.5089L168.689 7.63785L142.037 -4.56641V23.5089Z" fill="white" fill-opacity="0.1"/>
<path d="M115.385 7.63785L142.037 23.5089V-4.56641L115.385 7.63785Z" fill="white" fill-opacity="0.1"/>
</g>
<g clip-path="url(#clip13_559_63195)">
<path d="M83.9426 184.57L83.2559 186.959V256.261L83.9426 256.962L115.385 237.947L83.9426 184.57Z" fill="white" fill-opacity="0.05"/>
<path d="M83.2463 184.57L51.127 237.939L83.2463 256.952V223.32V184.57Z" fill="white" fill-opacity="0.15"/>
<path d="M83.6463 263.113L83.2559 263.595V288.234L83.6463 289.389L115.385 244.144L83.6463 263.113Z" fill="white" fill-opacity="0.1"/>
<path d="M83.2463 289.365V263.042L51.127 244.039L83.2463 289.365Z" fill="white" fill-opacity="0.15"/>
<path d="M83.2461 256.951L115.365 237.939L83.2461 223.319V256.951Z" fill="white" fill-opacity="0.1"/>
<path d="M51.127 237.939L83.2458 256.951V223.319L51.127 237.939Z" fill="white" fill-opacity="0.1"/>
</g>
<g clip-path="url(#clip14_559_63195)">
<path d="M350.99 80.6641L350.084 83.8207V175.42L350.99 176.348L392.467 151.214L350.99 80.6641Z" fill="white" fill-opacity="0.05"/>
<path d="M350.071 80.6641L307.701 151.204L350.071 176.334V131.881V80.6641Z" fill="white" fill-opacity="0.15"/>
<path d="M350.599 184.476L350.084 185.112V217.68L350.599 219.205L392.467 159.403L350.599 184.476Z" fill="white" fill-opacity="0.1"/>
<path d="M350.071 219.174V184.383L307.701 159.266L350.071 219.174Z" fill="white" fill-opacity="0.15"/>
<path d="M350.072 176.333L392.442 151.204L350.072 131.881V176.333Z" fill="white" fill-opacity="0.1"/>
<path d="M307.701 151.204L350.071 176.333V131.881L307.701 151.204Z" fill="white" fill-opacity="0.1"/>
</g>
<g clip-path="url(#clip15_559_63195)">
<path d="M237.931 224.219L237.064 227.23V314.611L237.931 315.496L277.624 291.52L237.931 224.219Z" fill="white" fill-opacity="0.05"/>
<path d="M237.052 224.219L196.504 291.51L237.052 315.483V273.077V224.219Z" fill="white" fill-opacity="0.15"/>
<path d="M237.557 323.25L237.064 323.857V354.925L237.557 356.38L277.624 299.332L237.557 323.25Z" fill="white" fill-opacity="0.1"/>
<path d="M237.052 356.35V323.16L196.504 299.2L237.052 356.35Z" fill="white" fill-opacity="0.15"/>
<path d="M237.051 315.483L277.598 291.511L237.051 273.077V315.483Z" fill="white" fill-opacity="0.1"/>
<path d="M196.504 291.511L237.051 315.483V273.077L196.504 291.511Z" fill="white" fill-opacity="0.1"/>
</g>
</g>
</g>
<path d="M149.644 94.3359L125.884 210.019C125.813 210.364 125.943 210.715 126.233 210.917C129.353 213.084 147.955 225.13 175.995 225.13C204.036 225.13 222.638 213.084 225.757 210.917C226.048 210.715 226.178 210.364 226.107 210.019L202.347 94.3359C202.313 94.4029 202.269 94.4652 202.214 94.5207C200.878 95.8694 194.223 101.485 175.995 101.485C157.768 101.485 151.113 95.8694 149.777 94.5207C149.722 94.4652 149.678 94.4029 149.644 94.3359Z" fill="#FF67EC" fill-opacity="0.75"/>
<path d="M224.104 211.889C218.518 215.444 200.991 225.13 175.883 225.13C147.897 225.13 129.331 213.097 126.217 210.933C126.027 210.801 125.906 210.605 125.865 210.389C129.803 199.004 145.11 175.859 165.059 181.918C174.939 184.919 181.855 192.451 188.359 199.535C198.434 210.507 207.52 220.404 225.101 210.722C224.779 211.109 224.446 211.498 224.104 211.889Z" fill="url(#paint4_radial_559_63195)"/>
<path d="M215.046 156.619L219.826 179.909C217.927 182.156 215.113 184.129 211.032 185.164C198.273 188.398 185.109 181.121 185.109 170.207C185.109 164.75 188.917 153.876 204.146 154.038C208.738 154.087 212.304 155.092 215.046 156.619Z" fill="url(#paint5_radial_559_63195)"/>
<path d="M178.73 130.913C178.73 127.951 180.77 122.048 188.929 122.136C197.087 122.224 199.199 128.024 199.235 130.913C199.308 133.035 198.085 137.628 192.617 139.033C185.782 140.788 178.73 136.838 178.73 130.913Z" fill="url(#paint6_radial_559_63195)"/>
<path d="M202.045 94.2302L206.109 114.031C204.52 113.76 202.867 113.447 201.176 113.127C187.034 110.452 170.248 107.276 165.999 123.73C164.144 130.914 166.832 135.212 169.447 139.393C171.971 143.43 174.427 147.358 172.664 153.668C170.519 161.349 158.855 166.324 149.475 162.994C139.566 159.476 140.262 144.903 145.958 137.849C151.653 130.794 152.476 120.03 151.653 112.87C151.255 109.409 149.545 106.934 147.309 105.25L149.645 93.8799C149.679 93.9469 149.723 94.0092 149.778 94.0646C151.113 95.4133 157.769 101.029 175.996 101.029C193.554 101.029 200.374 95.8187 202.045 94.2302Z" fill="url(#paint7_radial_559_63195)"/>
<mask id="mask0_559_63195" style="mask-type:alpha" maskUnits="userSpaceOnUse" x="141" y="93" width="66" height="72">
<path d="M202.045 94.2302L206.109 114.031C204.52 113.76 202.867 113.447 201.176 113.127C187.034 110.452 170.248 107.276 165.999 123.73C164.144 130.914 166.832 135.212 169.447 139.393C171.971 143.43 174.427 147.358 172.664 153.668C170.519 161.349 158.855 166.324 149.475 162.994C139.566 159.476 140.262 144.903 145.958 137.849C151.653 130.794 152.476 120.03 151.653 112.87C151.255 109.409 149.545 106.934 147.309 105.25L149.645 93.8799C149.679 93.9469 149.723 94.0092 149.778 94.0646C151.113 95.4133 157.769 101.029 175.996 101.029C193.554 101.029 200.374 95.8187 202.045 94.2302Z" fill="url(#paint8_radial_559_63195)"/>
</mask>
<g mask="url(#mask0_559_63195)">
<g filter="url(#filter2_f_559_63195)">
<mask id="mask1_559_63195" style="mask-type:alpha" maskUnits="userSpaceOnUse" x="125" y="94" width="102" height="132">
<path d="M149.857 95.0639C149.944 94.6401 150.317 94.3359 150.75 94.3359H201.241C201.674 94.3359 202.047 94.6401 202.134 95.0639L225.988 211.159C226.07 211.555 225.883 211.955 225.522 212.137C221.619 214.109 199.371 224.817 175.995 225.128C152.574 225.438 130.283 214.178 126.446 212.141C126.095 211.954 125.92 211.562 125.999 211.173L149.857 95.0639Z" fill="#577096" fill-opacity="0.75"/>
</mask>
<g mask="url(#mask1_559_63195)">
<g filter="url(#filter3_f_559_63195)">
<path d="M208.203 76.1064C211.861 110.268 146.936 132.571 114.016 139.453L114.016 76.1064L208.203 76.1064Z" fill="url(#paint9_linear_559_63195)" fill-opacity="0.5"/>
</g>
<g filter="url(#filter4_f_559_63195)">
<path d="M156.403 125.301C157.466 105.018 135.467 86.1828 129.925 66.9985C134.384 65.1973 145.047 70.7896 153.671 76.1247C164.452 82.7936 163.875 109.124 165.621 125.784C167.018 139.112 149.45 223.401 145.011 241.481L132.712 240.837C141.238 214.68 155.584 140.955 156.403 125.301Z" fill="url(#paint10_linear_559_63195)" fill-opacity="0.6"/>
</g>
</g>
</g>
</g>
<mask id="mask2_559_63195" style="mask-type:alpha" maskUnits="userSpaceOnUse" x="125" y="180" width="101" height="46">
<path d="M224.104 211.89C218.518 215.445 200.991 225.131 175.883 225.131C147.897 225.131 129.331 213.098 126.217 210.934C126.027 210.802 125.906 210.606 125.865 210.39C129.803 199.005 145.11 175.86 165.059 181.919C174.939 184.92 181.855 192.452 188.359 199.536C198.434 210.508 207.52 220.405 225.101 210.722C224.779 211.11 224.446 211.499 224.104 211.89Z" fill="url(#paint11_radial_559_63195)"/>
</mask>
<g mask="url(#mask2_559_63195)">
<g filter="url(#filter5_f_559_63195)">
<mask id="mask3_559_63195" style="mask-type:alpha" maskUnits="userSpaceOnUse" x="125" y="94" width="102" height="132">
<path d="M149.857 95.0639C149.944 94.6401 150.317 94.3359 150.75 94.3359H201.241C201.674 94.3359 202.047 94.6401 202.134 95.0639L225.988 211.159C226.07 211.555 225.883 211.955 225.522 212.137C221.619 214.109 199.371 224.817 175.995 225.128C152.574 225.438 130.283 214.178 126.446 212.141C126.095 211.954 125.92 211.562 125.999 211.173L149.857 95.0639Z" fill="#577096" fill-opacity="0.75"/>
</mask>
<g mask="url(#mask3_559_63195)">
<g filter="url(#filter6_f_559_63195)">
<path d="M156.403 125.301C157.466 105.018 135.467 86.1828 129.925 66.9985C134.384 65.1973 145.047 70.7896 153.671 76.1247C164.452 82.7936 163.875 109.124 165.621 125.784C167.018 139.112 149.45 223.401 145.011 241.481L132.712 240.837C141.238 214.68 155.584 140.955 156.403 125.301Z" fill="url(#paint12_linear_559_63195)" fill-opacity="0.6"/>
</g>
</g>
</g>
</g>
<path d="M156.655 61.9397C160.109 48.9622 162.896 32.3564 175.782 32.3564C188.668 32.3564 193.183 52.9169 195.339 62.2561C197.262 70.5904 201.399 89.5235 202.267 93.5016C202.372 93.9803 202.256 94.462 201.899 94.7978C200.076 96.5143 193.201 101.627 175.997 101.627C158.728 101.627 151.867 96.4762 150.074 94.7788C149.731 94.4533 149.613 93.9878 149.702 93.5228C150.394 89.9035 153.596 73.4323 156.655 61.9397Z" fill="black"/>
<path d="M156.655 61.9397C160.109 48.9622 162.896 32.3564 175.782 32.3564C188.668 32.3564 193.183 52.9169 195.339 62.2561C197.262 70.5904 201.399 89.5235 202.267 93.5016C202.372 93.9803 202.256 94.462 201.899 94.7978C200.076 96.5143 193.201 101.627 175.997 101.627C158.728 101.627 151.867 96.4762 150.074 94.7788C149.731 94.4533 149.613 93.9878 149.702 93.5228C150.394 89.9035 153.596 73.4323 156.655 61.9397Z" fill="url(#paint13_linear_559_63195)" fill-opacity="0.45"/>
<path d="M229.317 314.723L203.034 284.375H173.522H144.187L118.119 314.723C118.119 314.723 135.801 334.733 173.718 334.733C211.635 334.733 229.317 314.723 229.317 314.723Z" fill="black"/>
<path d="M125.788 210.092C125.788 210.092 149.107 224.675 176.223 224.675C203.339 224.675 226.203 210.092 226.203 210.092C229.727 225.096 237.026 263.493 224.778 282.945C209.363 307.425 183.898 315.821 175.995 315.821C168.093 315.821 142.628 307.425 127.213 282.945C114.964 263.493 122.264 225.096 125.788 210.092Z" fill="#6DF244"/>
<path d="M125.788 210.092C125.788 210.092 149.107 224.675 176.223 224.675C203.339 224.675 226.203 210.092 226.203 210.092C229.727 225.096 237.026 263.493 224.778 282.945C209.363 307.425 183.898 315.821 175.995 315.821C168.093 315.821 142.628 307.425 127.213 282.945C114.964 263.493 122.264 225.096 125.788 210.092Z" fill="url(#paint14_linear_559_63195)" fill-opacity="0.8"/>
<path d="M156.655 61.9397C160.109 48.9622 162.896 32.3564 175.782 32.3564C188.668 32.3564 193.183 52.9169 195.339 62.2561C197.325 70.8606 201.67 90.7625 202.341 93.8406C202.399 94.1051 202.332 94.3665 202.142 94.5599C200.76 95.9716 194.091 101.627 175.997 101.627C157.848 101.627 151.194 95.9373 149.839 94.5472C149.656 94.3598 149.59 94.1072 149.639 93.8501C150.174 91.0433 153.491 73.8278 156.655 61.9397Z" fill="url(#paint15_linear_559_63195)"/>
<path d="M228.793 314.12L203.305 284.69C203.132 284.49 202.88 284.375 202.616 284.375H173.52H144.603C144.337 284.375 144.085 284.491 143.912 284.693L118.635 314.121C118.338 314.466 118.336 314.966 118.656 315.29C121.879 318.546 139.612 334.733 173.716 334.733C207.812 334.733 225.546 318.553 228.774 315.292C229.095 314.967 229.092 314.466 228.793 314.12Z" fill="url(#paint16_linear_559_63195)"/>
<path d="M125.5 211.323C125.64 210.714 126.336 210.426 126.877 210.738C131.778 213.564 152.554 224.674 176.221 224.674C199.851 224.674 220.252 213.6 225.107 210.752C225.649 210.434 226.35 210.722 226.489 211.335C230.099 227.121 236.699 264.008 224.776 282.944C209.361 307.424 183.896 315.82 175.993 315.82C168.091 315.82 142.626 307.424 127.211 282.944C115.285 264.003 121.892 227.102 125.5 211.323Z" fill="url(#paint17_linear_559_63195)"/>
<path d="M131.944 277.638C123.165 263.011 124.198 251.575 129.362 246.788C138.577 238.247 153.634 253.171 159.573 265.671C165.512 278.17 166.286 287.745 161.38 292.266C156.474 296.787 140.724 292.266 131.944 277.638Z" stroke="url(#paint18_linear_559_63195)" stroke-width="1.82292"/>
<path fill-rule="evenodd" clip-rule="evenodd" d="M175.995 303.507C173.408 303.593 168.949 303.024 165.333 300.377C164.681 299.9 165.055 298.958 165.863 298.958H175.083H176.906H186.127C186.935 298.958 187.308 299.9 186.656 300.377C183.04 303.024 178.581 303.593 175.995 303.507Z" fill="#003802" fill-opacity="0.5"/>
<path d="M219.285 276.699C227.248 263.682 226.31 253.505 221.627 249.245C213.269 241.644 199.613 254.926 194.226 266.049C188.84 277.173 188.137 285.693 192.587 289.716C197.037 293.74 211.322 289.716 219.285 276.699Z" fill="#070707" stroke="#070707" stroke-width="0.455729"/>
<path d="M220.425 277.638C229.306 263.011 228.261 251.575 223.037 246.788C213.715 238.247 198.483 253.171 192.475 265.671C186.467 278.17 185.684 287.745 190.647 292.266C195.61 296.787 211.544 292.266 220.425 277.638Z" stroke="url(#paint19_linear_559_63195)" stroke-width="1.82292"/>
<path d="M221.584 256.216C220.783 252.566 218.881 250.967 217.322 251.048C214.538 251.195 214.371 255.887 215.308 258.758C216.245 261.629 217.572 263.228 219.05 263.147C220.528 263.065 222.385 259.866 221.584 256.216Z" fill="url(#paint20_radial_559_63195)"/>
<path fill-rule="evenodd" clip-rule="evenodd" d="M176.104 292.153C176.03 292.16 175.957 292.16 175.883 292.153C174.685 292.033 172.325 292.216 170.264 293.536C169.599 293.962 169.963 294.856 170.753 294.856H175.993H181.234C182.024 294.856 182.388 293.962 181.722 293.536C179.662 292.216 177.301 292.033 176.104 292.153Z" fill="#003802" fill-opacity="0.5"/>
<path d="M133.085 276.699C125.224 263.682 126.149 253.505 130.773 249.245C139.023 241.644 152.504 254.926 157.822 266.049C163.139 277.173 163.833 285.693 159.44 289.716C155.047 293.74 140.945 289.716 133.085 276.699Z" fill="#070707" stroke="#070707" stroke-width="0.455729"/>
<path d="M130.557 256.216C131.358 252.566 133.259 250.967 134.819 251.048C137.602 251.195 137.77 255.887 136.833 258.758C135.896 261.629 134.569 263.228 133.091 263.147C131.613 263.065 129.756 259.866 130.557 256.216Z" fill="url(#paint21_radial_559_63195)"/>
</g>
<path fill-rule="evenodd" clip-rule="evenodd" d="M178.404 224.674L178.302 224.674C178.888 224.673 179.47 224.667 180.048 224.655C179.502 224.668 178.954 224.674 178.404 224.674Z" fill="#161A70" fill-opacity="0.1"/>
<path fill-rule="evenodd" clip-rule="evenodd" d="M229.406 314.723C229.406 314.723 212.421 334.733 175.996 334.733V32.3564C188.165 32.3564 193.178 52.2241 195.291 61.7705L195.398 62.2561C197.246 70.5904 201.676 89.5235 202.51 93.5016C202.562 93.7528 202.557 94.0048 202.49 94.2361L226.229 209.629C226.275 209.859 226.234 210.093 226.12 210.282C226.315 210.158 226.416 210.091 226.416 210.091C229.801 225.095 236.813 263.492 225.047 282.944C221.847 288.234 218.196 292.774 214.362 296.639L229.406 314.723ZM178.404 224.674L178.302 224.674C178.888 224.673 179.47 224.667 180.048 224.655C179.502 224.668 178.954 224.674 178.404 224.674Z" fill="#161A70" fill-opacity="0.1"/>
</g>
<defs>
<filter id="filter0_f_559_63195" x="-22.0788" y="233.315" width="398.306" height="142.646" filterUnits="userSpaceOnUse" color-interpolation-filters="sRGB">
<feFlood flood-opacity="0" result="BackgroundImageFix"/>
<feBlend mode="normal" in="SourceGraphic" in2="BackgroundImageFix" result="shape"/>
<feGaussianBlur stdDeviation="2.27865" result="effect1_foregroundBlur_559_63195"/>
</filter>
<filter id="filter1_f_559_63195" x="-25.8132" y="-109.396" width="402.41" height="494.01" filterUnits="userSpaceOnUse" color-interpolation-filters="sRGB">
<feFlood flood-opacity="0" result="BackgroundImageFix"/>
<feBlend mode="normal" in="SourceGraphic" in2="BackgroundImageFix" result="shape"/>
<feGaussianBlur stdDeviation="2.27865" result="effect1_foregroundBlur_559_63195"/>
</filter>
<filter id="filter2_f_559_63195" x="123.587" y="92.0573" width="104.817" height="135.355" filterUnits="userSpaceOnUse" color-interpolation-filters="sRGB">
<feFlood flood-opacity="0" result="BackgroundImageFix"/>
<feBlend mode="normal" in="SourceGraphic" in2="BackgroundImageFix" result="shape"/>
<feGaussianBlur stdDeviation="1.13932" result="effect1_foregroundBlur_559_63195"/>
</filter>
<filter id="filter3_f_559_63195" x="113.104" y="75.195" width="96.1589" height="65.1696" filterUnits="userSpaceOnUse" color-interpolation-filters="sRGB">
<feFlood flood-opacity="0" result="BackgroundImageFix"/>
<feBlend mode="normal" in="SourceGraphic" in2="BackgroundImageFix" result="shape"/>
<feGaussianBlur stdDeviation="0.455729" result="effect1_foregroundBlur_559_63195"/>
</filter>
<filter id="filter4_f_559_63195" x="129.014" y="65.7428" width="37.5964" height="176.65" filterUnits="userSpaceOnUse" color-interpolation-filters="sRGB">
<feFlood flood-opacity="0" result="BackgroundImageFix"/>
<feBlend mode="normal" in="SourceGraphic" in2="BackgroundImageFix" result="shape"/>
<feGaussianBlur stdDeviation="0.455729" result="effect1_foregroundBlur_559_63195"/>
</filter>
<filter id="filter5_f_559_63195" x="123.587" y="92.0573" width="104.817" height="135.355" filterUnits="userSpaceOnUse" color-interpolation-filters="sRGB">
<feFlood flood-opacity="0" result="BackgroundImageFix"/>
<feBlend mode="normal" in="SourceGraphic" in2="BackgroundImageFix" result="shape"/>
<feGaussianBlur stdDeviation="1.13932" result="effect1_foregroundBlur_559_63195"/>
</filter>
<filter id="filter6_f_559_63195" x="129.014" y="65.7428" width="37.5964" height="176.65" filterUnits="userSpaceOnUse" color-interpolation-filters="sRGB">
<feFlood flood-opacity="0" result="BackgroundImageFix"/>
<feBlend mode="normal" in="SourceGraphic" in2="BackgroundImageFix" result="shape"/>
<feGaussianBlur stdDeviation="0.455729" result="effect1_foregroundBlur_559_63195"/>
</filter>
<radialGradient id="paint0_radial_559_63195" cx="0" cy="0" r="1" gradientUnits="userSpaceOnUse" gradientTransform="translate(157.617 401.541) rotate(-84.441) scale(239.93 241.682)">
<stop/>
<stop offset="1" stop-opacity="0"/>
</radialGradient>
<linearGradient id="paint1_linear_559_63195" x1="195.831" y1="271.639" x2="317.533" y2="167.937" gradientUnits="userSpaceOnUse">
<stop/>
<stop offset="1" stop-color="#333333" stop-opacity="0"/>
</linearGradient>
<radialGradient id="paint2_radial_559_63195" cx="0" cy="0" r="1" gradientUnits="userSpaceOnUse" gradientTransform="translate(194.596 76.624) rotate(99.1226) scale(43.9775 125.337)">
<stop stop-color="#737373"/>
<stop offset="1" stop-color="#9A9A9A" stop-opacity="0"/>
</radialGradient>
<radialGradient id="paint3_radial_559_63195" cx="0" cy="0" r="1" gradientUnits="userSpaceOnUse" gradientTransform="translate(175.392 173.413) rotate(92.5586) scale(157.837 128.153)">
<stop stop-color="#737373"/>
<stop offset="1" stop-color="#9A9A9A" stop-opacity="0"/>
</radialGradient>
<radialGradient id="paint4_radial_559_63195" cx="0" cy="0" r="1" gradientUnits="userSpaceOnUse" gradientTransform="translate(147.213 191.258) rotate(27.3324) scale(58.602 42.3474)">
<stop offset="0.239583" stop-color="#21F6EA"/>
<stop offset="1" stop-color="#2183F6"/>
</radialGradient>
<radialGradient id="paint5_radial_559_63195" cx="0" cy="0" r="1" gradientUnits="userSpaceOnUse" gradientTransform="translate(192.578 161.494) rotate(46.8342) scale(26.6221 23.5338)">
<stop offset="0.328125" stop-color="#FF00D6"/>
<stop offset="0.619792" stop-color="#D700B4"/>
</radialGradient>
<radialGradient id="paint6_radial_559_63195" cx="0" cy="0" r="1" gradientUnits="userSpaceOnUse" gradientTransform="translate(183.142 126.183) rotate(44.415) scale(15.0618 13.3391)">
<stop offset="0.239583" stop-color="#5000B6"/>
<stop offset="1" stop-color="#7E5EFF"/>
</radialGradient>
<radialGradient id="paint7_radial_559_63195" cx="0" cy="0" r="1" gradientUnits="userSpaceOnUse" gradientTransform="translate(155.647 110.284) rotate(51.7012) scale(54.4207 46.8936)">
<stop offset="0.302083" stop-color="#FFB800"/>
<stop offset="1" stop-color="#FF7800"/>
</radialGradient>
<radialGradient id="paint8_radial_559_63195" cx="0" cy="0" r="1" gradientUnits="userSpaceOnUse" gradientTransform="translate(156.878 109.101) rotate(53.1177) scale(37.8178 40.2646)">
<stop offset="0.203125" stop-color="#71FF30"/>
<stop offset="0.890625" stop-color="#25BC46"/>
</radialGradient>
<linearGradient id="paint9_linear_559_63195" x1="146.21" y1="123.01" x2="156.824" y2="72.2914" gradientUnits="userSpaceOnUse">
<stop stop-color="white" stop-opacity="0"/>
<stop offset="0.471361" stop-color="white"/>
<stop offset="1" stop-color="white"/>
</linearGradient>
<linearGradient id="paint10_linear_559_63195" x1="161.726" y1="220.938" x2="202.95" y2="178" gradientUnits="userSpaceOnUse">
<stop stop-color="#F2F2F2"/>
<stop offset="0.0001" stop-color="#F2F2F2"/>
<stop offset="0.0520833" stop-color="#F2F2F2" stop-opacity="0.948011"/>
<stop offset="1" stop-color="#F2F2F2" stop-opacity="0"/>
</linearGradient>
<radialGradient id="paint11_radial_559_63195" cx="0" cy="0" r="1" gradientUnits="userSpaceOnUse" gradientTransform="translate(147.213 191.259) rotate(27.3324) scale(58.602 42.3474)">
<stop offset="0.302083" stop-color="#FFB800"/>
<stop offset="1" stop-color="#FF7800"/>
</radialGradient>
<linearGradient id="paint12_linear_559_63195" x1="161.726" y1="220.938" x2="202.95" y2="178" gradientUnits="userSpaceOnUse">
<stop stop-color="#F2F2F2"/>
<stop offset="0.0001" stop-color="#F2F2F2"/>
<stop offset="0.0520833" stop-color="#F2F2F2" stop-opacity="0.948011"/>
<stop offset="1" stop-color="#F2F2F2" stop-opacity="0"/>
</linearGradient>
<linearGradient id="paint13_linear_559_63195" x1="165.971" y1="47.3955" x2="175.997" y2="101.627" gradientUnits="userSpaceOnUse">
<stop stop-color="white" stop-opacity="0.17"/>
<stop offset="1" stop-color="#C3C3C3" stop-opacity="0"/>
</linearGradient>
<linearGradient id="paint14_linear_559_63195" x1="175.995" y1="293.49" x2="175.995" y2="226.954" gradientUnits="userSpaceOnUse">
<stop offset="0.527397" stop-color="#6DF244"/>
<stop offset="1" stop-color="#388E1D"/>
</linearGradient>
<linearGradient id="paint15_linear_559_63195" x1="205.619" y1="32.3564" x2="215.268" y2="100.256" gradientUnits="userSpaceOnUse">
<stop stop-color="#003802"/>
<stop offset="0.473958" stop-color="#07A70C" stop-opacity="0.98"/>
<stop offset="1" stop-color="#B5FFB7" stop-opacity="0.98"/>
</linearGradient>
<linearGradient id="paint16_linear_559_63195" x1="133.786" y1="292.634" x2="163.488" y2="361.543" gradientUnits="userSpaceOnUse">
<stop stop-color="#003802"/>
<stop offset="0.473958" stop-color="#07A70C" stop-opacity="0.98"/>
<stop offset="1" stop-color="#B5FFB7" stop-opacity="0.98"/>
</linearGradient>
<linearGradient id="paint17_linear_559_63195" x1="238.303" y1="197.786" x2="253.554" y2="345.693" gradientUnits="userSpaceOnUse">
<stop stop-color="#003802"/>
<stop offset="0.473958" stop-color="#00B806" stop-opacity="0.98"/>
<stop offset="1" stop-color="#B5FFB7" stop-opacity="0.98"/>
</linearGradient>
<linearGradient id="paint18_linear_559_63195" x1="145.005" y1="244.271" x2="145.005" y2="293.945" gradientUnits="userSpaceOnUse">
<stop stop-color="#003802"/>
<stop offset="0.40625" stop-color="#003802" stop-opacity="0.37"/>
</linearGradient>
<linearGradient id="paint19_linear_559_63195" x1="207.213" y1="244.271" x2="207.213" y2="293.945" gradientUnits="userSpaceOnUse">
<stop offset="0.338542" stop-color="#003802" stop-opacity="0.37"/>
<stop offset="1" stop-color="#003802"/>
</linearGradient>
<radialGradient id="paint20_radial_559_63195" cx="0" cy="0" r="1" gradientUnits="userSpaceOnUse" gradientTransform="translate(218.181 256.975) rotate(79.0248) scale(5.68455 4.63752)">
<stop stop-color="white" stop-opacity="0.75"/>
<stop offset="1" stop-color="white" stop-opacity="0"/>
<stop offset="1" stop-color="white"/>
</radialGradient>
<radialGradient id="paint21_radial_559_63195" cx="0" cy="0" r="1" gradientUnits="userSpaceOnUse" gradientTransform="translate(133.959 256.975) rotate(100.975) scale(5.68455 4.63752)">
<stop stop-color="white" stop-opacity="0.75"/>
<stop offset="1" stop-color="white" stop-opacity="0"/>
<stop offset="1" stop-color="white"/>
</radialGradient>
<clipPath id="clip0_559_63195">
<rect width="350" height="350" fill="white" transform="translate(0.996094)"/>
</clipPath>
<clipPath id="clip1_559_63195">
<rect width="350" height="350" fill="white" transform="translate(0.996094)"/>
</clipPath>
<clipPath id="clip2_559_63195">
<rect width="350" height="350" fill="white" transform="translate(0.996094)"/>
</clipPath>
<clipPath id="clip3_559_63195">
<rect width="350" height="350" fill="white" transform="translate(0.996094)"/>
</clipPath>
<clipPath id="clip4_559_63195">
<rect width="80.6641" height="131.25" fill="white" transform="translate(1.9082 2.27832)"/>
</clipPath>
<clipPath id="clip5_559_63195">
<rect width="53.3203" height="87.5" fill="white" transform="translate(237.064 -6.83594)"/>
</clipPath>
<clipPath id="clip6_559_63195">
<rect width="53.3203" height="87.5" fill="white" transform="translate(115.385 92.9688)"/>
</clipPath>
<clipPath id="clip7_559_63195">
<rect width="53.3203" height="87.5" fill="white" transform="translate(-31.3613 125.325)"/>
</clipPath>
<clipPath id="clip8_559_63195">
<rect width="53.3203" height="87.5" fill="white" transform="translate(209.721 106.185)"/>
</clipPath>
<clipPath id="clip9_559_63195">
<rect width="53.3203" height="87.5" fill="white" transform="translate(88.9512 306.25)"/>
</clipPath>
<clipPath id="clip10_559_63195">
<rect width="53.3203" height="87.5" fill="white" transform="translate(324.564 306.25)"/>
</clipPath>
<clipPath id="clip11_559_63195">
<rect width="53.3203" height="87.5" fill="white" transform="translate(-24.5254 244.271)"/>
</clipPath>
<clipPath id="clip12_559_63195">
<rect width="53.3203" height="87.5" fill="white" transform="translate(115.385 -36.9141)"/>
</clipPath>
<clipPath id="clip13_559_63195">
<rect width="64.2578" height="104.818" fill="white" transform="translate(51.127 184.57)"/>
</clipPath>
<clipPath id="clip14_559_63195">
<rect width="84.7656" height="138.542" fill="white" transform="translate(307.701 80.6641)"/>
</clipPath>
<clipPath id="clip15_559_63195">
<rect width="81.1198" height="132.161" fill="white" transform="translate(196.504 224.219)"/>
</clipPath>
</defs>
</svg>
