<svg width="350" height="350" viewBox="0 0 350 350" fill="none" xmlns="http://www.w3.org/2000/svg">
<g clip-path="url(#clip0_579_49939)">
<rect width="350" height="350" fill="white"/>
<rect x="0.078125" y="0.0439453" width="350" height="350" fill="#2183F7" fill-opacity="0.25"/>
<path d="M125.978 290.538L299.832 190.751L430.987 233.88L212.559 294.049L125.978 290.538Z" fill="url(#paint0_linear_579_49939)" fill-opacity="0.1"/>
<g opacity="0.45" filter="url(#filter0_f_579_49939)">
<ellipse rx="194.596" ry="66.7643" transform="matrix(0.999998 0.00221055 0.00221055 -0.999998 176.077 304.638)" fill="url(#paint1_radial_579_49939)"/>
</g>
<g opacity="0.7" filter="url(#filter1_f_579_49939)">
<ellipse cx="174.396" cy="137.609" rx="196.647" ry="242.448" transform="rotate(0.126655 174.396 137.609)" fill="url(#paint2_radial_579_49939)"/>
</g>
<g opacity="0.5" clip-path="url(#clip1_579_49939)">
<g style="mix-blend-mode:overlay" opacity="0.5">
<path d="M64.4989 79.5454C24.1345 52.5678 120.936 3.24074 154.082 0H44.7907C11.8243 3.53535 2.38823 19.7391 1.79102 27.399V91.9192C11.0479 104.293 29.8825 128.728 88.6863 144.066C166.623 164.394 260.616 124.902 228.435 79.5454C203.352 44.1919 120.04 116.667 64.4989 79.5454Z" fill="white"/>
</g>
<g style="mix-blend-mode:overlay" opacity="0.5">
<path fill-rule="evenodd" clip-rule="evenodd" d="M191.707 0.883789C165.429 6.48143 117.174 29.1666 134.374 39.7727C142.244 44.6255 158.755 44.623 178.154 44.6201C211.75 44.6151 254.006 44.6088 275.019 69.8232C309.027 110.631 282.185 175 199.769 200.631C198.621 200.989 197.465 201.348 196.303 201.709C114.12 227.257 1.00854 262.419 67.1869 296.086C87.6423 306.492 110.378 298.897 133.89 291.043C176.277 276.884 221.184 261.882 259.79 350H331.456C280.394 316.414 285.14 251.025 318.019 235.101C355.58 216.908 356.07 181.422 352.899 156.055C351.91 148.147 351.492 141.222 352.06 136.111L359.227 0.883789H191.707ZM259.79 209.47C247.607 228.561 203.353 239.226 182.749 242.172C165.728 262.5 206.936 253.662 213.207 248.359C219.478 243.055 232.019 255.429 235.602 272.222C239.186 289.015 269.644 286.364 267.852 272.222C266.061 258.081 266.061 242.172 286.665 226.263C307.269 210.353 275.019 185.606 259.79 209.47Z" fill="white"/>
</g>
<g style="mix-blend-mode:overlay" opacity="0.5">
<path d="M74.3546 178.536C111.979 178.536 110.188 208.586 74.3546 214.773C39.3243 220.821 0.869502 231.304 0.000928402 249.937L0.000928521 251.231C-0.0191419 250.796 -0.0189774 250.364 0.000928402 249.937L0.000920534 159.091C14.4579 167.16 47.4115 178.536 74.3546 178.536Z" fill="white"/>
</g>
</g>
</g>
<g filter="url(#filter2_d_579_49939)">
<path d="M230.6 316.09L204.317 285.742H174.805H145.47L119.402 316.09C119.402 316.09 137.084 336.1 175.001 336.1C212.919 336.1 230.6 316.09 230.6 316.09Z" fill="black"/>
</g>
<path d="M148.861 95.0636C148.948 94.6399 149.321 94.3359 149.753 94.3359H200.245C200.678 94.3359 201.051 94.6399 201.138 95.0636L225.013 210.996C225.084 211.342 224.954 211.694 224.663 211.895C221.543 214.056 202.979 226.042 174.999 226.042C147.02 226.042 128.456 214.056 125.336 211.895C125.045 211.694 124.915 211.342 124.986 210.996L148.861 95.0636Z" fill="black" fill-opacity="0.75"/>
<path d="M223.108 211.889C217.521 215.444 199.995 225.13 174.886 225.13C146.901 225.13 128.335 213.097 125.221 210.933C125.031 210.801 124.91 210.605 124.869 210.389C128.807 199.004 144.114 175.859 164.063 181.918C173.943 184.919 180.859 192.451 187.363 199.535C197.437 210.507 206.524 220.404 224.105 210.722C223.783 211.109 223.45 211.498 223.108 211.889Z" fill="url(#paint3_radial_579_49939)"/>
<path d="M214.05 156.619L218.83 179.909C216.931 182.156 214.117 184.129 210.035 185.164C197.277 188.398 184.113 181.121 184.113 170.207C184.113 164.75 187.921 153.876 203.15 154.038C207.742 154.087 211.307 155.092 214.05 156.619Z" fill="url(#paint4_radial_579_49939)"/>
<path d="M177.734 130.913C177.734 127.951 179.774 122.048 187.933 122.136C196.091 122.224 198.203 128.024 198.239 130.913C198.312 133.035 197.089 137.628 191.621 139.033C184.786 140.788 177.734 136.838 177.734 130.913Z" fill="url(#paint5_radial_579_49939)"/>
<path d="M201.049 94.2302L205.113 114.031C203.523 113.76 201.871 113.447 200.18 113.127C186.038 110.452 169.252 107.276 165.003 123.73C163.148 130.914 165.836 135.212 168.45 139.393C170.975 143.43 173.431 147.358 171.668 153.668C169.523 161.349 157.859 166.324 148.479 162.994C138.57 159.476 139.266 144.903 144.961 137.849C150.656 130.794 151.48 120.03 150.656 112.87C150.259 109.409 148.549 106.934 146.313 105.25L148.649 93.8799C148.683 93.9469 148.727 94.0092 148.782 94.0646C150.117 95.4133 156.772 101.029 175 101.029C192.557 101.029 199.378 95.8187 201.049 94.2302Z" fill="url(#paint6_radial_579_49939)"/>
<mask id="mask0_579_49939" style="mask-type:alpha" maskUnits="userSpaceOnUse" x="140" y="93" width="66" height="72">
<path d="M201.049 94.2302L205.113 114.031C203.523 113.76 201.871 113.447 200.18 113.127C186.038 110.452 169.252 107.276 165.003 123.73C163.148 130.914 165.836 135.212 168.45 139.393C170.975 143.43 173.431 147.358 171.668 153.668C169.523 161.349 157.859 166.324 148.479 162.994C138.57 159.476 139.266 144.903 144.961 137.849C150.656 130.794 151.48 120.03 150.656 112.87C150.259 109.409 148.549 106.934 146.313 105.25L148.649 93.8799C148.683 93.9469 148.727 94.0092 148.782 94.0646C150.117 95.4133 156.772 101.029 175 101.029C192.557 101.029 199.378 95.8187 201.049 94.2302Z" fill="url(#paint7_radial_579_49939)"/>
</mask>
<g mask="url(#mask0_579_49939)">
<g filter="url(#filter3_f_579_49939)">
<mask id="mask1_579_49939" style="mask-type:alpha" maskUnits="userSpaceOnUse" x="124" y="94" width="102" height="132">
<path d="M148.861 95.0639C148.948 94.6401 149.321 94.3359 149.754 94.3359H200.245C200.678 94.3359 201.051 94.6401 201.138 95.0639L224.992 211.159C225.074 211.555 224.887 211.955 224.526 212.137C220.623 214.109 198.375 224.817 174.999 225.128C151.577 225.438 129.287 214.178 125.449 212.141C125.099 211.954 124.923 211.562 125.003 211.173L148.861 95.0639Z" fill="#577096" fill-opacity="0.75"/>
</mask>
<g mask="url(#mask1_579_49939)">
<g filter="url(#filter4_f_579_49939)">
<path d="M207.207 76.1064C210.865 110.268 145.939 132.571 113.02 139.453L113.02 76.1064L207.207 76.1064Z" fill="url(#paint8_linear_579_49939)" fill-opacity="0.5"/>
</g>
<g filter="url(#filter5_f_579_49939)">
<path d="M155.407 125.301C156.47 105.018 134.471 86.1828 128.929 66.9985C133.388 65.1973 144.05 70.7896 152.675 76.1247C163.456 82.7936 162.879 109.124 164.625 125.784C166.022 139.112 148.453 223.401 144.015 241.481L131.716 240.837C140.242 214.68 154.587 140.955 155.407 125.301Z" fill="url(#paint9_linear_579_49939)" fill-opacity="0.6"/>
</g>
</g>
</g>
</g>
<mask id="mask2_579_49939" style="mask-type:alpha" maskUnits="userSpaceOnUse" x="124" y="180" width="101" height="46">
<path d="M223.108 211.89C217.521 215.445 199.995 225.131 174.886 225.131C146.901 225.131 128.335 213.098 125.221 210.934C125.031 210.802 124.91 210.606 124.869 210.39C128.807 199.005 144.114 175.86 164.063 181.919C173.943 184.92 180.859 192.452 187.363 199.536C197.437 210.508 206.524 220.405 224.105 210.722C223.783 211.11 223.45 211.499 223.108 211.89Z" fill="url(#paint10_radial_579_49939)"/>
</mask>
<g mask="url(#mask2_579_49939)">
<g filter="url(#filter6_f_579_49939)">
<mask id="mask3_579_49939" style="mask-type:alpha" maskUnits="userSpaceOnUse" x="124" y="94" width="102" height="132">
<path d="M148.861 95.0639C148.948 94.6401 149.321 94.3359 149.754 94.3359H200.245C200.678 94.3359 201.051 94.6401 201.138 95.0639L224.992 211.159C225.074 211.555 224.887 211.955 224.526 212.137C220.623 214.109 198.375 224.817 174.999 225.128C151.577 225.438 129.287 214.178 125.449 212.141C125.099 211.954 124.923 211.562 125.003 211.173L148.861 95.0639Z" fill="#577096" fill-opacity="0.75"/>
</mask>
<g mask="url(#mask3_579_49939)">
<g filter="url(#filter7_f_579_49939)">
<path d="M155.407 125.301C156.47 105.018 134.471 86.1828 128.929 66.9985C133.388 65.1973 144.05 70.7896 152.675 76.1247C163.456 82.7936 162.879 109.124 164.625 125.784C166.022 139.112 148.453 223.401 144.015 241.481L131.716 240.837C140.242 214.68 154.587 140.955 155.407 125.301Z" fill="url(#paint11_linear_579_49939)" fill-opacity="0.6"/>
</g>
</g>
</g>
</g>
<path d="M155.659 63.3069C159.113 50.3293 161.899 33.7236 174.786 33.7236C187.672 33.7236 192.187 54.2841 194.342 63.6233C196.266 71.9576 200.403 90.8907 201.271 94.8688C201.376 95.3475 201.26 95.8292 200.903 96.165C199.08 97.8814 192.205 102.994 175.001 102.994C157.732 102.994 150.87 97.8434 149.078 96.146C148.734 95.8205 148.616 95.355 148.705 94.89C149.398 91.2707 152.6 74.7994 155.659 63.3069Z" fill="black"/>
<path d="M155.659 63.3069C159.113 50.3293 161.899 33.7236 174.786 33.7236C187.672 33.7236 192.187 54.2841 194.342 63.6233C196.266 71.9576 200.403 90.8907 201.271 94.8688C201.376 95.3475 201.26 95.8292 200.903 96.165C199.08 97.8814 192.205 102.994 175.001 102.994C157.732 102.994 150.87 97.8434 149.078 96.146C148.734 95.8205 148.616 95.355 148.705 94.89C149.398 91.2707 152.6 74.7994 155.659 63.3069Z" fill="url(#paint12_linear_579_49939)" fill-opacity="0.45"/>
<path d="M124.792 210.091C124.792 210.091 148.112 225.13 175.228 225.13C202.344 225.13 225.208 210.091 225.208 210.091C228.731 225.095 245.146 263.492 232.897 282.944C217.483 307.424 200.521 315.82 175 315.82C149.479 315.82 132.518 307.424 117.103 282.944C104.855 263.492 121.269 225.095 124.792 210.091Z" fill="url(#paint13_radial_579_49939)"/>
<mask id="mask4_579_49939" style="mask-type:alpha" maskUnits="userSpaceOnUse" x="112" y="210" width="126" height="107">
<path d="M124.726 210.547C124.726 210.547 148.046 225.586 175.162 225.586C202.278 225.586 225.142 210.547 225.142 210.547C228.665 225.551 245.079 263.948 232.831 283.4C217.416 307.88 200.455 316.276 174.934 316.276C149.413 316.276 132.452 307.88 117.037 283.4C104.788 263.948 121.203 225.551 124.726 210.547Z" fill="url(#paint14_radial_579_49939)"/>
</mask>
<g mask="url(#mask4_579_49939)">
<path d="M203.645 319.922C210.523 301.926 220.152 256.681 203.645 219.661" stroke="#773B06" stroke-opacity="0.1" stroke-width="4.55729"/>
<path d="M181.314 319.922C186.783 302.604 192.252 257.031 181.314 219.661" stroke="#773B06" stroke-opacity="0.1" stroke-width="4.55729"/>
<path d="M165.363 319.922C159.895 302.604 154.426 257.031 165.363 219.661" stroke="#773B06" stroke-opacity="0.1" stroke-width="4.55729"/>
<path d="M143.033 319.922C136.155 301.926 126.526 256.681 143.033 219.661" stroke="#773B06" stroke-opacity="0.1" stroke-width="4.55729"/>
</g>
<path d="M154.674 246.321C155.2 245.41 156.516 245.41 157.042 246.321L166.909 263.411C167.435 264.323 166.777 265.462 165.725 265.462H145.991C144.939 265.462 144.281 264.323 144.807 263.411L154.674 246.321Z" fill="black"/>
<path d="M194.412 246.321C193.886 245.41 192.57 245.41 192.044 246.321L182.177 263.411C181.651 264.323 182.309 265.462 183.361 265.462H203.095C204.147 265.462 204.805 264.323 204.279 263.411L194.412 246.321Z" fill="black"/>
<path fill-rule="evenodd" clip-rule="evenodd" d="M163.58 276.72H185.252V283.063H192.652V276.72H209.042C210.855 276.72 211.842 278.655 210.622 279.997C205.795 285.311 194.305 295.22 175.737 295.22C175.203 295.22 174.675 295.211 174.152 295.195V288.877H166.752V294.417C153.296 291.964 144.315 284.468 140.041 280.058C138.751 278.727 139.726 276.72 141.58 276.72H156.181V283.063H163.58V276.72Z" fill="black"/>
<path d="M194.445 63.1377C192.245 53.5913 187.667 33.7236 175 33.7236L175.215 336.1C213.132 336.1 230.814 316.09 230.814 316.09L218.057 301.36C223.366 296.625 228.314 290.564 233.112 282.944C242.928 267.354 234.335 239.598 228.721 221.465C227.33 216.972 226.122 213.07 225.423 210.091C225.423 210.091 225.308 210.166 225.086 210.306L201.465 95.6033C201.534 95.372 201.54 95.12 201.485 94.8688C200.617 90.8907 196.48 71.9576 194.557 63.6233L194.445 63.1377Z" fill="#161A70" fill-opacity="0.1"/>
<g filter="url(#filter8_d_579_49939)">
<path d="M130.999 154.49C132.15 149.477 130.8 146.279 128.887 145.372C125.473 143.755 122.56 149.427 122.022 153.568C121.483 157.709 122.146 160.536 123.961 161.39C125.777 162.243 129.847 159.503 130.999 154.49Z" fill="#6DF244"/>
<path d="M100.212 190.945C99.0017 189.835 98.0935 188.541 97.4789 187.155L81.7388 187.434L81.6133 180.363L96.7603 180.094C97.3926 177.146 99.1826 174.424 102.053 172.698L106.117 170.254C108.851 168.61 111.937 168.254 114.742 168.945L121.802 156.199L127.988 159.626L120.764 172.669C121.712 173.789 122.462 175.119 122.937 176.629L127.602 197.103L124.412 212.37L100.212 190.945Z" fill="url(#paint15_radial_579_49939)"/>
<path d="M75.793 187.683C70.8252 186.35 68.6336 183.658 68.7301 181.543C68.9023 177.769 75.278 177.856 79.1881 179.323C83.0983 180.789 85.2845 182.7 85.1871 184.704C85.0898 186.707 80.7607 189.017 75.793 187.683Z" fill="#6DF244"/>
<path d="M62.564 151.617C60.244 144.391 59.9498 118.89 68.6994 113.629C77.449 108.368 99.0653 121.05 104.936 126.14C110.806 131.231 117.27 136.312 117.037 147.628C116.743 161.869 108.128 171.872 104.793 173.877C101.458 175.882 88.5832 178.8 75.8678 172.381C65.7642 167.281 64.884 158.842 62.564 151.617Z" fill="#6DF244"/>
<path d="M62.564 151.617C60.244 144.391 59.9498 118.89 68.6994 113.629C77.449 108.368 99.0653 121.05 104.936 126.14C110.806 131.231 117.27 136.312 117.037 147.628C116.743 161.869 108.128 171.872 104.793 173.877C101.458 175.882 88.5832 178.8 75.8678 172.381C65.7642 167.281 64.884 158.842 62.564 151.617Z" fill="url(#paint16_linear_579_49939)" fill-opacity="0.8"/>
<path d="M76.5187 168.942C69.103 164.997 66.6376 159.91 67.6021 156.58C69.3232 150.638 79.4633 153.115 85.1405 156.883C90.8178 160.65 93.5737 164.494 92.6506 167.646C91.7275 170.799 83.9343 172.887 76.5187 168.942Z" stroke="url(#paint17_linear_579_49939)" stroke-width="0.880654"/>
<path fill-rule="evenodd" clip-rule="evenodd" d="M103.54 171.792C104.869 171.141 106.676 168.883 105.706 163.64L100.13 166.993L100.13 166.993L95.3223 169.884C99.4995 173.199 102.342 172.662 103.54 171.792Z" fill="#57BF37"/>
<path d="M113.134 146.386C113.191 138.874 110.214 134.817 107.157 134.208C101.702 133.121 99.3088 142.19 99.8581 148.25C100.407 154.31 102.273 158.084 105.171 158.653C108.069 159.221 113.076 153.899 113.134 146.386Z" fill="#070707" stroke="#070707" stroke-width="0.220163"/>
<path d="M113.469 146.725C113.505 138.3 110.163 133.739 106.744 133.045C100.643 131.806 98.0024 141.968 98.6386 148.767C99.2748 155.565 101.373 159.804 104.614 160.453C107.856 161.101 113.432 155.151 113.469 146.725Z" stroke="url(#paint18_linear_579_49939)" stroke-width="0.880654"/>
<path d="M113.853 146.494C113.89 138.068 110.548 133.508 107.129 132.814C101.028 131.574 98.3872 141.736 99.0234 148.535C99.6595 155.334 101.758 159.573 104.999 160.221C108.241 160.87 113.817 154.919 113.853 146.494Z" stroke="url(#paint19_linear_579_49939)" stroke-width="0.880654"/>
<path d="M108.908 137.16C107.644 135.823 106.435 135.631 105.798 136.061C104.661 136.829 105.78 138.852 106.904 139.825C108.028 140.799 108.994 141.137 109.597 140.728C110.199 140.318 110.172 138.497 108.908 137.16Z" fill="url(#paint20_radial_579_49939)"/>
<path fill-rule="evenodd" clip-rule="evenodd" d="M98.7909 163.896C98.13 164.19 96.7259 165.199 96.3969 166.881L99.4737 165.031L102.55 163.181C100.91 162.683 99.3607 163.45 98.7909 163.896Z" fill="#57BF37"/>
<path d="M76.7609 168.257C70.1415 164.759 67.9499 160.23 68.8201 157.259C70.3729 151.959 79.4311 154.142 84.497 157.487C89.5629 160.832 92.0172 164.251 91.1845 167.063C90.3517 169.875 83.3804 171.755 76.7609 168.257Z" fill="#070707" stroke="#070707" stroke-width="0.220163"/>
<path d="M70.4977 160.255C69.9097 158.511 70.3062 157.354 70.9852 156.993C72.1968 156.348 73.4581 158.286 73.7911 159.735C74.124 161.184 73.9699 162.196 73.3254 162.536C72.681 162.876 71.0858 161.998 70.4977 160.255Z" fill="url(#paint21_radial_579_49939)"/>
<path d="M76.5187 168.942C69.103 164.997 66.6376 159.91 67.6021 156.58C69.3232 150.638 79.4633 153.115 85.1405 156.883C90.8178 160.65 93.5737 164.494 92.6506 167.646C91.7275 170.799 83.9343 172.887 76.5187 168.942Z" stroke="url(#paint22_linear_579_49939)" stroke-width="0.880654"/>
<rect width="4.0506" height="27.9009" transform="matrix(0.99987 -0.0160966 0.0193936 0.999812 87.3574 106.92)" fill="#6DF244"/>
<path d="M95.2877 103.652C95.2926 97.7489 92.9482 94.5455 90.5599 94.0505C86.2983 93.1673 84.4797 100.281 84.9405 105.046C85.4013 109.811 86.8765 112.786 89.1407 113.249C91.4049 113.711 95.2829 109.556 95.2877 103.652Z" fill="#57BF37"/>
<rect width="4.05059" height="27.9009" transform="matrix(-0.483106 0.875562 0.873962 0.485994 53.9727 126.993)" fill="#6DF244"/>
<path d="M47.3681 132.466C42.1518 129.701 40.4219 126.129 41.1047 123.787C42.323 119.609 49.4589 121.339 53.4515 123.98C57.444 126.622 59.3799 129.32 58.7265 131.537C58.0731 133.753 52.5843 135.23 47.3681 132.466Z" fill="#57BF37"/>
<g filter="url(#filter9_d_579_49939)">
<circle cx="110.523" cy="181.467" r="4.33642" transform="rotate(-6.77196 110.523 181.467)" fill="url(#paint23_radial_579_49939)" stroke="#56CCF2" stroke-width="0.47927"/>
<g filter="url(#filter10_d_579_49939)">
<path d="M114.083 179.006C117.013 178.182 118.278 177.96 118.426 178.383C118.637 178.985 115.662 181.231 110.761 182.947C105.86 184.663 102.543 185.004 102.332 184.402C102.182 183.972 103.246 182.992 106.119 181.786" stroke="#6DF244" stroke-width="0.684672"/>
</g>
</g>
</g>
<defs>
<filter id="filter0_f_579_49939" x="-23.0749" y="233.315" width="398.306" height="142.646" filterUnits="userSpaceOnUse" color-interpolation-filters="sRGB">
<feFlood flood-opacity="0" result="BackgroundImageFix"/>
<feBlend mode="normal" in="SourceGraphic" in2="BackgroundImageFix" result="shape"/>
<feGaussianBlur stdDeviation="2.27865" result="effect1_foregroundBlur_579_49939"/>
</filter>
<filter id="filter1_f_579_49939" x="-26.8092" y="-109.396" width="402.41" height="494.01" filterUnits="userSpaceOnUse" color-interpolation-filters="sRGB">
<feFlood flood-opacity="0" result="BackgroundImageFix"/>
<feBlend mode="normal" in="SourceGraphic" in2="BackgroundImageFix" result="shape"/>
<feGaussianBlur stdDeviation="2.27865" result="effect1_foregroundBlur_579_49939"/>
</filter>
<filter id="filter2_d_579_49939" x="117.124" y="285.742" width="116.666" height="55.8271" filterUnits="userSpaceOnUse" color-interpolation-filters="sRGB">
<feFlood flood-opacity="0" result="BackgroundImageFix"/>
<feColorMatrix in="SourceAlpha" type="matrix" values="0 0 0 0 0 0 0 0 0 0 0 0 0 0 0 0 0 0 127 0" result="hardAlpha"/>
<feOffset dx="0.455729" dy="2.73438"/>
<feGaussianBlur stdDeviation="1.36719"/>
<feComposite in2="hardAlpha" operator="out"/>
<feColorMatrix type="matrix" values="0 0 0 0 0 0 0 0 0 0 0 0 0 0 0 0 0 0 0.25 0"/>
<feBlend mode="normal" in2="BackgroundImageFix" result="effect1_dropShadow_579_49939"/>
<feBlend mode="normal" in="SourceGraphic" in2="effect1_dropShadow_579_49939" result="shape"/>
</filter>
<filter id="filter3_f_579_49939" x="122.59" y="92.0573" width="104.817" height="135.355" filterUnits="userSpaceOnUse" color-interpolation-filters="sRGB">
<feFlood flood-opacity="0" result="BackgroundImageFix"/>
<feBlend mode="normal" in="SourceGraphic" in2="BackgroundImageFix" result="shape"/>
<feGaussianBlur stdDeviation="1.13932" result="effect1_foregroundBlur_579_49939"/>
</filter>
<filter id="filter4_f_579_49939" x="112.108" y="75.195" width="96.1589" height="65.1696" filterUnits="userSpaceOnUse" color-interpolation-filters="sRGB">
<feFlood flood-opacity="0" result="BackgroundImageFix"/>
<feBlend mode="normal" in="SourceGraphic" in2="BackgroundImageFix" result="shape"/>
<feGaussianBlur stdDeviation="0.455729" result="effect1_foregroundBlur_579_49939"/>
</filter>
<filter id="filter5_f_579_49939" x="128.018" y="65.7428" width="37.5964" height="176.65" filterUnits="userSpaceOnUse" color-interpolation-filters="sRGB">
<feFlood flood-opacity="0" result="BackgroundImageFix"/>
<feBlend mode="normal" in="SourceGraphic" in2="BackgroundImageFix" result="shape"/>
<feGaussianBlur stdDeviation="0.455729" result="effect1_foregroundBlur_579_49939"/>
</filter>
<filter id="filter6_f_579_49939" x="122.59" y="92.0573" width="104.817" height="135.355" filterUnits="userSpaceOnUse" color-interpolation-filters="sRGB">
<feFlood flood-opacity="0" result="BackgroundImageFix"/>
<feBlend mode="normal" in="SourceGraphic" in2="BackgroundImageFix" result="shape"/>
<feGaussianBlur stdDeviation="1.13932" result="effect1_foregroundBlur_579_49939"/>
</filter>
<filter id="filter7_f_579_49939" x="128.018" y="65.7428" width="37.5964" height="176.65" filterUnits="userSpaceOnUse" color-interpolation-filters="sRGB">
<feFlood flood-opacity="0" result="BackgroundImageFix"/>
<feBlend mode="normal" in="SourceGraphic" in2="BackgroundImageFix" result="shape"/>
<feGaussianBlur stdDeviation="0.455729" result="effect1_foregroundBlur_579_49939"/>
</filter>
<filter id="filter8_d_579_49939" x="38.2285" y="93.5199" width="95.9297" height="123.863" filterUnits="userSpaceOnUse" color-interpolation-filters="sRGB">
<feFlood flood-opacity="0" result="BackgroundImageFix"/>
<feColorMatrix in="SourceAlpha" type="matrix" values="0 0 0 0 0 0 0 0 0 0 0 0 0 0 0 0 0 0 127 0" result="hardAlpha"/>
<feOffset dy="2.27865"/>
<feGaussianBlur stdDeviation="1.36719"/>
<feComposite in2="hardAlpha" operator="out"/>
<feColorMatrix type="matrix" values="0 0 0 0 0 0 0 0 0 0 0 0 0 0 0 0 0 0 0.15 0"/>
<feBlend mode="normal" in2="BackgroundImageFix" result="effect1_dropShadow_579_49939"/>
<feBlend mode="normal" in="SourceGraphic" in2="effect1_dropShadow_579_49939" result="shape"/>
</filter>
<filter id="filter9_d_579_49939" x="101.701" y="176.891" width="17.3524" height="9.70106" filterUnits="userSpaceOnUse" color-interpolation-filters="sRGB">
<feFlood flood-opacity="0" result="BackgroundImageFix"/>
<feColorMatrix in="SourceAlpha" type="matrix" values="0 0 0 0 0 0 0 0 0 0 0 0 0 0 0 0 0 0 127 0" result="hardAlpha"/>
<feOffset dy="0.273869"/>
<feGaussianBlur stdDeviation="0.136934"/>
<feComposite in2="hardAlpha" operator="out"/>
<feColorMatrix type="matrix" values="0 0 0 0 0 0 0 0 0 0 0 0 0 0 0 0 0 0 0.25 0"/>
<feBlend mode="normal" in2="BackgroundImageFix" result="effect1_dropShadow_579_49939"/>
<feBlend mode="normal" in="SourceGraphic" in2="effect1_dropShadow_579_49939" result="shape"/>
</filter>
<filter id="filter10_d_579_49939" x="101.085" y="176.941" width="18.5848" height="8.96862" filterUnits="userSpaceOnUse" color-interpolation-filters="sRGB">
<feFlood flood-opacity="0" result="BackgroundImageFix"/>
<feColorMatrix in="SourceAlpha" type="matrix" values="0 0 0 0 0 0 0 0 0 0 0 0 0 0 0 0 0 0 127 0" result="hardAlpha"/>
<feOffset/>
<feGaussianBlur stdDeviation="0.445037"/>
<feComposite in2="hardAlpha" operator="out"/>
<feColorMatrix type="matrix" values="0 0 0 0 1 0 0 0 0 1 0 0 0 0 1 0 0 0 1 0"/>
<feBlend mode="normal" in2="BackgroundImageFix" result="effect1_dropShadow_579_49939"/>
<feBlend mode="normal" in="SourceGraphic" in2="effect1_dropShadow_579_49939" result="shape"/>
</filter>
<linearGradient id="paint0_linear_579_49939" x1="194.835" y1="271.639" x2="316.537" y2="167.937" gradientUnits="userSpaceOnUse">
<stop/>
<stop offset="1" stop-color="#333333" stop-opacity="0"/>
</linearGradient>
<radialGradient id="paint1_radial_579_49939" cx="0" cy="0" r="1" gradientUnits="userSpaceOnUse" gradientTransform="translate(194.596 76.624) rotate(99.1226) scale(43.9775 125.337)">
<stop stop-color="#2183F7"/>
<stop offset="1" stop-color="#2183F7" stop-opacity="0"/>
</radialGradient>
<radialGradient id="paint2_radial_579_49939" cx="0" cy="0" r="1" gradientUnits="userSpaceOnUse" gradientTransform="translate(174.396 173.413) rotate(92.5586) scale(157.837 128.153)">
<stop stop-color="#2183F7"/>
<stop offset="1" stop-color="#2183F7" stop-opacity="0"/>
</radialGradient>
<radialGradient id="paint3_radial_579_49939" cx="0" cy="0" r="1" gradientUnits="userSpaceOnUse" gradientTransform="translate(146.217 191.258) rotate(27.3324) scale(58.602 42.3474)">
<stop offset="0.239583" stop-color="#21F6EA"/>
<stop offset="1" stop-color="#2183F6"/>
</radialGradient>
<radialGradient id="paint4_radial_579_49939" cx="0" cy="0" r="1" gradientUnits="userSpaceOnUse" gradientTransform="translate(191.582 161.494) rotate(46.8342) scale(26.6221 23.5338)">
<stop offset="0.302083" stop-color="#FFB800"/>
<stop offset="1" stop-color="#FF7800"/>
</radialGradient>
<radialGradient id="paint5_radial_579_49939" cx="0" cy="0" r="1" gradientUnits="userSpaceOnUse" gradientTransform="translate(182.146 126.183) rotate(44.415) scale(15.0618 13.3391)">
<stop offset="0.302083" stop-color="#FFB800"/>
<stop offset="1" stop-color="#FF7800"/>
</radialGradient>
<radialGradient id="paint6_radial_579_49939" cx="0" cy="0" r="1" gradientUnits="userSpaceOnUse" gradientTransform="translate(154.651 110.284) rotate(51.7012) scale(54.4207 46.8936)">
<stop offset="0.239583" stop-color="#5000B6"/>
<stop offset="1" stop-color="#7E5EFF"/>
</radialGradient>
<radialGradient id="paint7_radial_579_49939" cx="0" cy="0" r="1" gradientUnits="userSpaceOnUse" gradientTransform="translate(155.882 109.101) rotate(53.1177) scale(37.8178 40.2646)">
<stop offset="0.203125" stop-color="#71FF30"/>
<stop offset="0.890625" stop-color="#25BC46"/>
</radialGradient>
<linearGradient id="paint8_linear_579_49939" x1="145.214" y1="123.01" x2="155.828" y2="72.2914" gradientUnits="userSpaceOnUse">
<stop stop-color="white" stop-opacity="0"/>
<stop offset="0.471361" stop-color="white"/>
<stop offset="1" stop-color="white"/>
</linearGradient>
<linearGradient id="paint9_linear_579_49939" x1="160.729" y1="220.938" x2="201.954" y2="178" gradientUnits="userSpaceOnUse">
<stop stop-color="#F2F2F2"/>
<stop offset="0.0001" stop-color="#F2F2F2"/>
<stop offset="0.0520833" stop-color="#F2F2F2" stop-opacity="0.948011"/>
<stop offset="1" stop-color="#F2F2F2" stop-opacity="0"/>
</linearGradient>
<radialGradient id="paint10_radial_579_49939" cx="0" cy="0" r="1" gradientUnits="userSpaceOnUse" gradientTransform="translate(146.217 191.259) rotate(27.3324) scale(58.602 42.3474)">
<stop offset="0.302083" stop-color="#FFB800"/>
<stop offset="1" stop-color="#FF7800"/>
</radialGradient>
<linearGradient id="paint11_linear_579_49939" x1="160.729" y1="220.938" x2="201.954" y2="178" gradientUnits="userSpaceOnUse">
<stop stop-color="#F2F2F2"/>
<stop offset="0.0001" stop-color="#F2F2F2"/>
<stop offset="0.0520833" stop-color="#F2F2F2" stop-opacity="0.948011"/>
<stop offset="1" stop-color="#F2F2F2" stop-opacity="0"/>
</linearGradient>
<linearGradient id="paint12_linear_579_49939" x1="164.975" y1="48.7627" x2="175.001" y2="102.994" gradientUnits="userSpaceOnUse">
<stop stop-color="white" stop-opacity="0.17"/>
<stop offset="1" stop-color="#C3C3C3" stop-opacity="0"/>
</linearGradient>
<radialGradient id="paint13_radial_579_49939" cx="0" cy="0" r="1" gradientUnits="userSpaceOnUse" gradientTransform="translate(153.125 257.487) rotate(36.2538) scale(76.2935 67.5721)">
<stop offset="0.0989583" stop-color="#FFB800"/>
<stop offset="1" stop-color="#E96D00"/>
</radialGradient>
<radialGradient id="paint14_radial_579_49939" cx="0" cy="0" r="1" gradientUnits="userSpaceOnUse" gradientTransform="translate(153.059 257.943) rotate(36.2538) scale(76.2935 67.5721)">
<stop offset="0.0989583" stop-color="#FFB800"/>
<stop offset="1" stop-color="#E96D00"/>
</radialGradient>
<radialGradient id="paint15_radial_579_49939" cx="0" cy="0" r="1" gradientUnits="userSpaceOnUse" gradientTransform="translate(105.856 176.821) rotate(61.8214) scale(36.1903 30.5505)">
<stop offset="0.552083" stop-color="white"/>
<stop offset="1" stop-color="#CCD0C9"/>
</radialGradient>
<linearGradient id="paint16_linear_579_49939" x1="99.1276" y1="164.454" x2="67.1981" y2="113.092" gradientUnits="userSpaceOnUse">
<stop offset="0.527397" stop-color="#6DF244"/>
<stop offset="1" stop-color="#388E1D"/>
</linearGradient>
<linearGradient id="paint17_linear_579_49939" x1="73.5638" y1="151.549" x2="86.1667" y2="172.509" gradientUnits="userSpaceOnUse">
<stop stop-color="#6CB835"/>
<stop offset="0.40625" stop-color="#6CB835" stop-opacity="0"/>
</linearGradient>
<linearGradient id="paint18_linear_579_49939" x1="99.4279" y1="135.997" x2="112.031" y2="156.958" gradientUnits="userSpaceOnUse">
<stop stop-color="#6CB835"/>
<stop offset="0.40625" stop-color="#6CB835" stop-opacity="0"/>
</linearGradient>
<linearGradient id="paint19_linear_579_49939" x1="99.8127" y1="135.766" x2="112.416" y2="156.727" gradientUnits="userSpaceOnUse">
<stop offset="0.541667" stop-color="#6CB835" stop-opacity="0"/>
<stop offset="1" stop-color="#6CB835"/>
</linearGradient>
<radialGradient id="paint20_radial_579_49939" cx="0" cy="0" r="1" gradientUnits="userSpaceOnUse" gradientTransform="translate(107.664 138.344) rotate(48.0079) scale(2.79886 2.28334)">
<stop stop-color="white" stop-opacity="0.75"/>
<stop offset="1" stop-color="white" stop-opacity="0"/>
<stop offset="1" stop-color="white"/>
</radialGradient>
<radialGradient id="paint21_radial_579_49939" cx="0" cy="0" r="1" gradientUnits="userSpaceOnUse" gradientTransform="translate(72.126 159.711) rotate(69.9583) scale(2.79886 2.28334)">
<stop stop-color="white" stop-opacity="0.75"/>
<stop offset="1" stop-color="white" stop-opacity="0"/>
<stop offset="1" stop-color="white"/>
</radialGradient>
<linearGradient id="paint22_linear_579_49939" x1="73.5638" y1="151.549" x2="86.1667" y2="172.509" gradientUnits="userSpaceOnUse">
<stop offset="0.671875" stop-color="#6CB835" stop-opacity="0"/>
<stop offset="1" stop-color="#6CB835"/>
</linearGradient>
<radialGradient id="paint23_radial_579_49939" cx="0" cy="0" r="1" gradientUnits="userSpaceOnUse" gradientTransform="translate(107.916 179.031) rotate(49.243) scale(7.35423 6.44312)">
<stop offset="0.3125" stop-color="#321A93"/>
<stop offset="1" stop-color="#3603FF"/>
<stop offset="1" stop-color="#3603FF"/>
</radialGradient>
<clipPath id="clip0_579_49939">
<rect width="350" height="350" fill="white"/>
</clipPath>
<clipPath id="clip1_579_49939">
<rect width="350" height="350" fill="white"/>
</clipPath>
</defs>
</svg>
