<svg width="350" height="350" viewBox="0 0 350 350" fill="none" xmlns="http://www.w3.org/2000/svg">
<g clip-path="url(#clip0_579_49937)">
<g clip-path="url(#clip1_579_49937)">
<g clip-path="url(#clip2_579_49937)">
<rect x="0.0800781" y="0.956055" width="350" height="350" fill="#5A1320"/>
<rect x="0.0800781" y="0.956055" width="350" height="350" fill="url(#paint0_radial_579_49937)" fill-opacity="0.2"/>
<path d="M125.978 291.449L299.832 191.662L430.987 234.791L212.559 294.96L125.978 291.449Z" fill="url(#paint1_linear_579_49937)"/>
<g opacity="0.45" filter="url(#filter0_f_579_49937)">
<ellipse rx="194.596" ry="66.7643" transform="matrix(0.999998 0.00221055 0.00221055 -0.999998 176.077 305.549)" fill="url(#paint2_radial_579_49937)"/>
</g>
<g opacity="0.7" filter="url(#filter1_f_579_49937)">
<ellipse cx="174.396" cy="138.52" rx="196.647" ry="242.448" transform="rotate(0.126655 174.396 138.52)" fill="url(#paint3_radial_579_49937)"/>
</g>
<g opacity="0.5" clip-path="url(#clip3_579_49937)">
<g style="mix-blend-mode:overlay" opacity="0.5">
<path d="M64.4989 80.4566C24.1345 53.4789 120.936 4.15187 154.082 0.911133H44.7907C11.8243 4.44649 2.38823 20.6502 1.79102 28.3101V92.8303C11.0479 105.204 29.8825 129.639 88.6863 144.977C166.623 165.305 260.616 125.814 228.435 80.4566C203.352 45.1031 120.04 117.578 64.4989 80.4566Z" fill="white"/>
</g>
<g style="mix-blend-mode:overlay" opacity="0.5">
<path fill-rule="evenodd" clip-rule="evenodd" d="M191.707 1.79492C165.429 7.39256 117.174 30.0777 134.374 40.6838C142.244 45.5366 158.755 45.5341 178.154 45.5313C211.75 45.5262 254.006 45.52 275.019 70.7343C309.027 111.542 282.185 175.911 199.769 201.542C198.621 201.9 197.465 202.259 196.303 202.62C114.12 228.168 1.00854 263.33 67.1869 296.997C87.6423 307.403 110.378 299.808 133.89 291.954C176.277 277.795 221.184 262.794 259.79 350.911H331.456C280.394 317.325 285.14 251.937 318.019 236.012C355.58 217.82 356.07 182.333 352.899 156.966C351.91 149.058 351.492 142.133 352.06 137.022L359.227 1.79492H191.707ZM259.79 210.381C247.607 229.472 203.353 240.137 182.749 243.083C165.728 263.411 206.936 254.573 213.207 249.27C219.478 243.967 232.019 256.34 235.602 273.133C239.186 289.926 269.644 287.275 267.852 273.133C266.061 258.992 266.061 243.083 286.665 227.174C307.269 211.265 275.019 186.517 259.79 210.381Z" fill="white"/>
</g>
<g style="mix-blend-mode:overlay" opacity="0.5">
<path d="M74.3546 179.447C111.979 179.447 110.188 209.497 74.3546 215.684C39.3243 221.732 0.869502 232.215 0.000928402 250.849L0.000928521 252.143C-0.0191419 251.707 -0.0189774 251.276 0.000928402 250.849L0.000920534 160.003C14.4579 168.071 47.4115 179.447 74.3546 179.447Z" fill="white"/>
</g>
</g>
</g>
<mask id="mask0_579_49937" style="mask-type:alpha" maskUnits="userSpaceOnUse" x="217" y="76" width="102" height="210">
<path d="M286.134 140.452L286.159 140.712L286.417 140.752L286.548 140.772L286.035 144.077C285.944 144.663 285.486 145.101 284.914 145.144C283.994 145.214 282.563 145.287 280.653 145.286L280.373 145.286L280.321 145.56L274.169 178.037C274.109 178.359 273.939 178.577 273.704 178.653C273.142 178.834 272.014 179.071 269.937 179.102L269.721 179.105L269.633 179.303C267.413 184.339 266.176 194.414 271.767 208.39C279.976 228.915 284.563 241.082 276.788 257.339C273.726 263.742 266.676 269.662 258.918 274.545C251.348 279.31 243.156 283.055 237.484 285.273L234.175 264.095C237.679 262.922 242.54 260.732 247.134 257.638C251.845 254.466 256.305 250.323 258.711 245.326C263.373 235.644 259.688 227.342 255.931 218.877L255.91 218.829C254.816 216.365 253.716 213.887 252.8 211.341C251.373 207.377 250.496 201.434 250.198 195.359L250.189 195.171L250.025 195.08C249.167 194.605 248.087 194.303 246.747 194.303H229.279V194.303L229.27 194.303C228.627 194.321 227.892 194.742 227.192 195.33C226.476 195.931 225.738 196.757 225.084 197.686C224.429 198.616 223.851 199.66 223.463 200.701C223.337 201.04 223.23 201.381 223.147 201.719L218.361 183.344C219.033 183.634 220.011 183.961 221.218 184.244C222.952 184.652 225.183 184.977 227.715 184.977H244.661H244.673L244.684 184.976C245.932 184.892 248.461 184.5 250.234 183.55L250.393 183.465L250.41 183.285C250.668 180.568 251.077 178.169 251.637 176.329L251.724 176.042L251.449 175.922C249.586 175.112 248.582 174.351 248.103 173.911C247.907 173.731 247.818 173.45 247.85 173.13L251.031 140.952L251.058 140.682L250.8 140.599C249.15 140.063 247.896 139.593 247.074 139.266C246.532 139.05 246.222 138.486 246.314 137.893L246.824 134.606L246.931 134.622L247.579 134.723L247.283 134.138C247.277 134.126 247.274 134.117 247.273 134.112C247.272 134.111 247.272 134.11 247.272 134.109C247.277 134.101 247.291 134.082 247.327 134.055C247.393 134.005 247.506 133.948 247.681 133.891C248.03 133.777 248.552 133.69 249.24 133.635C250.611 133.525 252.566 133.551 254.94 133.71L255.057 133.717L255.153 133.651C255.844 133.175 256.641 132.159 257.402 130.571C258.168 128.974 258.912 126.765 259.479 123.865C260.904 116.569 261.745 110.361 260.561 104.141C260.448 103.542 260.133 102.683 259.708 101.66C259.279 100.63 258.727 99.4054 258.122 98.066L258.12 98.0622C256.638 94.7771 254.839 90.7907 253.732 87.1637C253.178 85.3503 252.802 83.6426 252.721 82.1681C252.64 80.6879 252.859 79.488 253.443 78.6474C253.626 78.3845 253.941 78.1358 254.404 77.913C254.866 77.6911 255.456 77.5043 256.164 77.3541C257.579 77.0538 259.422 76.9082 261.557 76.8972C265.823 76.8752 271.199 77.3909 276.516 78.2402C281.832 79.0895 287.075 80.27 291.077 81.5723C293.08 82.224 294.759 82.9022 295.979 83.5787C296.589 83.9171 297.074 84.2495 297.425 84.5706C297.779 84.8946 297.974 85.1864 298.044 85.4394C298.259 86.2069 298.145 87.0911 297.743 88.0882C297.342 89.085 296.663 90.1666 295.789 91.309C294.04 93.5952 291.556 96.0667 289.086 98.5229L289.063 98.5454C286.296 101.296 283.542 104.035 281.951 106.422C280.839 108.09 279.972 110.174 279.307 112.41L279.151 112.934L279.689 112.838C280.976 112.608 283.501 112.629 286.84 112.894C290.166 113.158 294.265 113.662 298.679 114.382C304.129 115.271 309.017 116.319 312.514 117.295C314.264 117.784 315.654 118.251 316.589 118.666C317.059 118.875 317.396 119.063 317.604 119.224C317.709 119.305 317.766 119.367 317.793 119.409C317.793 119.409 317.793 119.409 317.793 119.41L317.353 119.86L318 119.961L318.179 119.989L317.666 123.294C317.575 123.88 317.118 124.318 316.545 124.361C314.003 124.552 307.549 124.779 297.865 123.355C288.018 121.907 281.268 119.502 278.705 118.483C278.629 118.452 278.558 118.415 278.493 118.373L278.052 118.088L277.976 118.607C277.53 121.67 277.37 124.634 277.416 126.922C277.453 128.773 277.816 131.109 278.256 133.146C278.477 134.167 278.718 135.117 278.949 135.901C279.179 136.678 279.405 137.311 279.6 137.684L279.667 137.814L279.809 137.853C281.793 138.397 283.401 138.93 284.515 139.415C285.074 139.658 285.496 139.883 285.776 140.083C285.916 140.183 286.011 140.27 286.069 140.341C286.128 140.413 286.134 140.449 286.134 140.452ZM247.27 134.114C247.27 134.114 247.27 134.113 247.27 134.112L247.27 134.114Z" fill="#C4C4C4" stroke="black" stroke-width="0.673831"/>
</mask>
<g mask="url(#mask0_579_49937)">
<g filter="url(#filter2_f_579_49937)">
<rect x="318.107" y="288.929" width="135.807" height="226.497" transform="rotate(-180 318.107 288.929)" fill="url(#paint4_linear_579_49937)"/>
</g>
<g style="mix-blend-mode:overlay" opacity="0.5">
<path d="M290.554 165.914C242.391 133.288 357.895 73.6322 397.445 69.7129H267.038C227.702 73.9885 216.443 93.5851 215.73 102.849V180.879C226.776 195.844 249.249 225.395 319.414 243.945C412.409 268.529 524.562 220.769 486.164 165.914C456.234 123.158 356.826 210.808 290.554 165.914Z" fill="black" fill-opacity="0.75"/>
</g>
<g style="mix-blend-mode:overlay" opacity="0.5">
<path fill-rule="evenodd" clip-rule="evenodd" d="M442.338 81.4707C410.983 88.2404 353.405 104.987 373.928 117.814C383.318 123.682 403.02 123.679 426.166 123.676C466.254 123.67 516.673 123.662 541.746 154.156C582.325 203.509 550.297 281.356 451.958 312.354C450.587 312.786 449.209 313.221 447.822 313.658C349.76 344.555 214.796 387.08 293.76 427.796C318.167 440.381 345.296 431.196 373.35 421.697C423.927 404.573 477.51 386.431 523.575 492.999H609.087C548.16 452.381 553.822 373.301 593.054 354.042C637.872 332.04 632.578 289.123 628.794 258.444C627.614 248.88 626.581 240.505 627.259 234.324V81.4707H442.338ZM523.575 323.043C509.038 346.132 456.234 359.03 431.649 362.593C411.34 387.178 460.509 376.489 467.992 370.075C475.474 363.662 490.439 378.627 494.714 398.936C498.99 419.245 535.333 416.038 533.195 398.936C531.057 381.833 531.057 362.593 555.642 343.353C580.227 324.112 541.746 294.183 523.575 323.043Z" fill="black" fill-opacity="0.75"/>
</g>
<g style="mix-blend-mode:overlay" opacity="0.5">
<path d="M302.311 285.631C347.205 285.631 345.067 321.974 302.311 329.457C260.632 336.75 219.97 348.107 218.936 370.457V372.213C218.909 371.62 218.91 371.035 218.936 370.457V261.028C236.187 270.786 270.162 285.631 302.311 285.631Z" fill="black" fill-opacity="0.75"/>
</g>
<g opacity="0.5">
<g style="mix-blend-mode:overlay" opacity="0.5">
<path d="M256.19 74.2273C233.548 58.8885 287.85 30.8426 306.443 29H245.135C226.642 31.0101 221.349 40.2231 221.014 44.5783V81.2626C226.206 88.298 236.772 102.191 269.759 110.912C313.478 122.47 366.205 100.016 348.153 74.2273C334.082 54.1263 287.347 95.3333 256.19 74.2273Z" fill="white"/>
</g>
<g style="mix-blend-mode:overlay" opacity="0.5">
<path fill-rule="evenodd" clip-rule="evenodd" d="M327.548 34.5273C312.808 37.71 285.738 45.5829 295.387 51.6132C299.801 54.3724 309.064 54.371 319.946 54.3693C338.792 54.3665 362.496 54.3629 374.283 68.6991C393.361 91.9014 378.303 128.5 332.071 143.073C331.427 143.276 330.779 143.48 330.127 143.686C284.025 158.211 220.574 178.204 257.697 197.346C269.172 203.262 281.926 198.944 295.115 194.478C318.893 186.428 344.084 177.898 365.74 228H405.942C377.298 208.904 379.961 171.726 398.405 162.671C419.475 152.328 416.986 132.151 415.207 117.728C414.653 113.232 414.167 109.294 414.485 106.388V34.5273H327.548ZM365.74 148.098C358.906 158.953 334.081 165.016 322.523 166.692C312.975 178.25 336.091 173.224 339.609 170.209C343.127 167.194 350.162 174.229 352.172 183.777C354.182 193.325 371.268 191.818 370.263 183.777C369.258 175.737 369.258 166.692 380.816 157.646C392.374 148.601 374.283 134.53 365.74 148.098Z" fill="white"/>
</g>
<g style="mix-blend-mode:overlay" opacity="0.5">
<path d="M261.717 130.51C282.823 130.51 281.818 147.596 261.717 151.114C242.123 154.543 223.006 159.882 222.52 170.389V171.215C222.508 170.936 222.508 170.661 222.52 170.389V118.943C230.63 123.531 246.603 130.51 261.717 130.51Z" fill="white"/>
</g>
</g>
<g opacity="0.6">
<circle cx="231.239" cy="193.507" r="1.16688" fill="white"/>
<circle cx="296.714" cy="273.818" r="1.16688" transform="rotate(75 296.714 273.818)" fill="white"/>
<circle cx="225.171" cy="154.922" r="1.16688" fill="white"/>
<circle cx="233.858" cy="176.881" r="1.16688" transform="rotate(75 233.858 176.881)" fill="white"/>
<circle cx="234.769" cy="241.611" r="1.16688" transform="rotate(75 234.769 241.611)" fill="white"/>
<circle cx="240.954" cy="225.618" r="1.16688" transform="rotate(75 240.954 225.618)" fill="white"/>
<circle cx="219.102" cy="249.983" r="1.16688" fill="white"/>
<circle cx="226.306" cy="267.309" r="1.16688" fill="white"/>
<circle cx="239.021" cy="276.712" r="1.16688" transform="rotate(75 239.021 276.712)" fill="white"/>
<circle cx="283.819" cy="218.481" r="1.16688" transform="rotate(75 283.819 218.481)" fill="white"/>
<circle cx="236.331" cy="116.463" r="1.16688" fill="white"/>
<circle cx="248.179" cy="86.3847" r="1.16688" fill="white"/>
<circle cx="300.587" cy="84.1063" r="1.16688" fill="white"/>
<circle cx="302.868" cy="116.007" r="1.16688" fill="white"/>
<circle cx="257.294" cy="146.997" r="1.16688" fill="white"/>
<circle cx="290.106" cy="146.997" r="1.16688" fill="white"/>
<circle cx="274.61" cy="171.606" r="1.16688" fill="white"/>
<circle cx="252.833" cy="187.106" r="1.16688" transform="rotate(75 252.833 187.106)" fill="white"/>
<circle cx="311.788" cy="282.155" r="1.16688" transform="rotate(75 311.788 282.155)" fill="white"/>
<circle cx="260.745" cy="284.889" r="1.16688" transform="rotate(75 260.745 284.889)" fill="white"/>
<circle cx="259.835" cy="259.369" r="1.16688" transform="rotate(75 259.835 259.369)" fill="white"/>
<circle cx="249.628" cy="205.199" r="1.16688" transform="rotate(75 249.628 205.199)" fill="white"/>
<circle cx="268.579" cy="205.486" r="1.16688" fill="white"/>
<circle cx="297.831" cy="262.621" r="1.16688" transform="rotate(165 297.831 262.621)" fill="white"/>
<circle cx="246.641" cy="248.116" r="1.16688" fill="white"/>
<circle cx="300.217" cy="247.485" r="1.16688" transform="rotate(165 300.217 247.485)" fill="white"/>
<circle cx="272.468" cy="233.803" r="1.16688" fill="white"/>
<circle cx="278.975" cy="267.996" r="1.16688" transform="rotate(165 278.975 267.996)" fill="white"/>
<path d="M255.608 238.72L255.188 237.584L254.052 237.164L255.188 236.744L255.608 235.608L256.028 236.744L257.164 237.164L256.028 237.584L255.608 238.72Z" fill="#FFF7B0"/>
<path d="M220.516 143.473L220.096 142.337L218.961 141.917L220.096 141.497L220.516 140.361L220.937 141.497L222.072 141.917L220.937 142.337L220.516 143.473Z" fill="#FFF7B0"/>
<path d="M257.94 277.149L257.52 276.014L256.384 275.594L257.52 275.173L257.94 274.038L258.36 275.173L259.496 275.594L258.36 276.014L257.94 277.149Z" fill="#FFF7B0"/>
<path d="M222.85 181.902L222.43 180.767L221.295 180.347L222.43 179.926L222.85 178.791L223.271 179.926L224.406 180.347L223.271 180.767L222.85 181.902Z" fill="#FFF7B0"/>
<path d="M220.516 220.331L220.096 219.195L218.961 218.775L220.096 218.355L220.516 217.219L220.937 218.355L222.072 218.775L220.937 219.195L220.516 220.331Z" fill="#FFF7B0"/>
<path d="M257.939 221.913L257.204 219.926L255.217 219.19L257.204 218.455L257.939 216.468L258.675 218.455L260.662 219.19L258.675 219.926L257.939 221.913Z" fill="#FFF7B0"/>
<path d="M265.228 118.918L264.493 116.931L262.506 116.195L264.493 115.46L265.228 113.473L265.964 115.46L267.951 116.195L265.964 116.931L265.228 118.918Z" fill="#FFF7B0"/>
<path d="M281.648 101.168L280.048 96.8436L275.723 95.2435L280.048 93.6433L281.648 89.319L283.248 93.6433L287.572 95.2435L283.248 96.8436L281.648 101.168Z" fill="#FFF7B0"/>
</g>
</g>
<path d="M148.648 94.335L124.888 210.017C124.817 210.362 124.947 210.713 125.237 210.915C128.357 213.082 146.959 225.128 174.999 225.128C203.039 225.128 221.641 213.082 224.761 210.915C225.051 210.713 225.181 210.362 225.11 210.017L201.35 94.335C201.316 94.4019 201.272 94.4642 201.217 94.5197C199.881 95.8684 193.226 101.484 174.999 101.484C156.772 101.484 150.116 95.8684 148.781 94.5197C148.726 94.4642 148.682 94.4019 148.648 94.335Z" fill="black" fill-opacity="0.75"/>
<path d="M223.11 212.346C217.523 215.901 199.997 225.586 174.888 225.586C146.902 225.586 128.336 213.554 125.223 211.389C125.033 211.258 124.912 211.062 124.871 210.846C128.809 199.461 144.116 176.316 164.065 182.375C173.944 185.376 180.86 192.908 187.365 199.992C197.439 210.964 206.525 220.861 224.106 211.178C223.784 211.566 223.451 211.955 223.11 212.346Z" fill="url(#paint5_radial_579_49937)"/>
<path d="M214.052 157.076L218.832 180.366C216.933 182.612 214.118 184.586 210.037 185.621C197.279 188.854 184.115 181.578 184.115 170.664C184.115 165.207 187.923 154.333 203.152 154.495C207.743 154.544 211.309 155.549 214.052 157.076Z" fill="url(#paint6_radial_579_49937)"/>
<path d="M177.736 131.37C177.736 128.408 179.776 122.505 187.934 122.593C196.093 122.681 198.205 128.481 198.241 131.37C198.313 133.492 197.091 138.085 191.623 139.49C184.788 141.245 177.736 137.295 177.736 131.37Z" fill="url(#paint7_radial_579_49937)"/>
<path d="M201.05 94.6872L205.114 114.488C203.525 114.217 201.872 113.904 200.182 113.584C186.039 110.908 169.254 107.733 165.005 124.187C163.15 131.371 165.837 135.669 168.452 139.85C170.976 143.886 173.433 147.814 171.67 154.125C169.525 161.806 157.861 166.781 148.481 163.45C138.572 159.932 139.268 145.36 144.963 138.305C150.658 131.251 151.482 120.487 150.658 113.327C150.261 109.866 148.551 107.391 146.315 105.707L148.651 94.3369C148.684 94.4039 148.729 94.4662 148.784 94.5217C150.119 95.8703 156.774 101.486 175.002 101.486C192.559 101.486 199.379 96.2757 201.05 94.6872Z" fill="url(#paint8_radial_579_49937)"/>
<mask id="mask1_579_49937" style="mask-type:alpha" maskUnits="userSpaceOnUse" x="140" y="94" width="66" height="71">
<path d="M201.047 94.6862L205.11 114.487C203.521 114.216 201.868 113.903 200.178 113.583C186.035 110.907 169.25 107.732 165.001 124.186C163.146 131.37 165.833 135.668 168.448 139.849C170.972 143.885 173.429 147.813 171.666 154.124C169.521 161.805 157.857 166.78 148.477 163.449C138.568 159.931 139.264 145.359 144.959 138.304C150.654 131.25 151.478 120.486 150.654 113.326C150.257 109.865 148.547 107.39 146.311 105.706L148.647 94.3359C148.681 94.4029 148.725 94.4652 148.78 94.5207C150.115 95.8694 156.77 101.485 174.998 101.485C192.555 101.485 199.375 96.2747 201.047 94.6862Z" fill="url(#paint9_radial_579_49937)"/>
</mask>
<g mask="url(#mask1_579_49937)">
<g filter="url(#filter3_f_579_49937)">
<mask id="mask2_579_49937" style="mask-type:alpha" maskUnits="userSpaceOnUse" x="124" y="94" width="102" height="132">
<path d="M148.859 95.52C148.946 95.0962 149.319 94.792 149.752 94.792H200.242C200.675 94.792 201.048 95.0962 201.135 95.52L224.989 211.614C225.071 212.01 224.884 212.41 224.523 212.592C220.62 214.564 198.372 225.272 174.997 225.582C151.575 225.893 129.285 214.633 125.448 212.596C125.097 212.409 124.921 212.017 125.001 211.629L148.859 95.52Z" fill="#577096" fill-opacity="0.75"/>
</mask>
<g mask="url(#mask2_579_49937)">
<g filter="url(#filter4_f_579_49937)">
<path d="M207.204 76.5635C210.862 110.725 145.937 133.028 113.018 139.909L113.018 76.5635L207.204 76.5635Z" fill="url(#paint10_linear_579_49937)" fill-opacity="0.5"/>
</g>
<g filter="url(#filter5_f_579_49937)">
<path d="M155.405 125.758C156.467 105.474 134.469 86.6396 128.927 67.4555C133.386 65.6543 144.048 71.2466 152.673 76.5817C163.453 83.2505 162.877 109.58 164.623 126.24C166.02 139.568 148.451 223.857 144.013 241.937L131.714 241.293C140.24 215.136 154.585 141.411 155.405 125.758Z" fill="url(#paint11_linear_579_49937)" fill-opacity="0.6"/>
</g>
</g>
</g>
</g>
<mask id="mask3_579_49937" style="mask-type:alpha" maskUnits="userSpaceOnUse" x="124" y="181" width="101" height="45">
<path d="M223.108 212.344C217.521 215.899 199.995 225.584 174.886 225.584C146.9 225.584 128.335 213.552 125.221 211.388C125.031 211.256 124.91 211.06 124.869 210.844C128.807 199.459 144.114 176.314 164.063 182.373C173.942 185.374 180.858 192.906 187.363 199.99C197.437 210.962 206.524 220.859 224.104 211.176C223.782 211.564 223.449 211.953 223.108 212.344Z" fill="url(#paint12_radial_579_49937)"/>
</mask>
<g mask="url(#mask3_579_49937)">
<g filter="url(#filter6_f_579_49937)">
<mask id="mask4_579_49937" style="mask-type:alpha" maskUnits="userSpaceOnUse" x="124" y="94" width="102" height="132">
<path d="M148.861 95.519C148.948 95.0952 149.321 94.791 149.753 94.791H200.244C200.677 94.791 201.05 95.0952 201.137 95.519L224.991 211.613C225.073 212.009 224.886 212.409 224.525 212.591C220.622 214.563 198.374 225.271 174.999 225.581C151.577 225.892 129.287 214.632 125.449 212.595C125.099 212.408 124.923 212.017 125.003 211.628L148.861 95.519Z" fill="#577096" fill-opacity="0.75"/>
</mask>
<g mask="url(#mask4_579_49937)">
<g filter="url(#filter7_f_579_49937)">
<path d="M155.407 125.757C156.469 105.473 134.471 86.6387 128.929 67.4545C133.388 65.6533 144.05 71.2457 152.675 76.5807C163.455 83.2495 162.878 109.579 164.625 126.239C166.022 139.567 148.453 223.856 144.015 241.936L131.716 241.292C140.242 215.135 154.587 141.41 155.407 125.757Z" fill="url(#paint13_linear_579_49937)" fill-opacity="0.6"/>
</g>
</g>
</g>
</g>
<g filter="url(#filter8_d_579_49937)">
<mask id="mask5_579_49937" style="mask-type:alpha" maskUnits="userSpaceOnUse" x="112" y="211" width="128" height="104">
<path d="M205.981 314.451H176.558H145.384C122.516 314.451 108.299 291.999 113.716 268.713L115.606 260.586L125.527 211.457C136.098 220.296 153.514 224.874 176.558 224.874C199.602 224.874 211.685 219.432 224.673 211.457L235.756 260.586L237.646 268.704C243.07 291.992 228.852 314.451 205.981 314.451Z" fill="url(#paint14_radial_579_49937)" stroke="black" stroke-width="0.455725"/>
</mask>
<g mask="url(#mask5_579_49937)">
<rect x="274.365" y="369.594" width="166.795" height="166.795" transform="rotate(-180 274.365 369.594)" fill="url(#paint15_linear_579_49937)"/>
<g style="mix-blend-mode:overlay" filter="url(#filter9_f_579_49937)">
<ellipse cx="263.735" cy="246.071" rx="273.295" ry="336.948" transform="rotate(0.126655 263.735 246.071)" fill="url(#paint16_radial_579_49937)"/>
</g>
<g opacity="0.5">
<g style="mix-blend-mode:overlay" opacity="0.5">
<path d="M141.261 209.182C115.613 191.807 177.122 160.039 198.183 157.952H128.739C107.791 160.229 101.795 170.665 101.416 175.598V217.151C107.298 225.12 119.266 240.857 156.63 250.735C206.152 263.827 265.876 238.393 245.428 209.182C229.49 186.413 176.553 233.089 141.261 209.182Z" fill="white"/>
</g>
<g style="mix-blend-mode:overlay" opacity="0.5">
<path fill-rule="evenodd" clip-rule="evenodd" d="M222.091 164.214C205.394 167.819 174.732 176.737 185.661 183.567C190.661 186.693 201.153 186.691 213.479 186.689C234.827 186.686 261.676 186.682 275.028 202.921C296.638 229.202 279.582 270.658 227.214 287.165C226.484 287.395 225.75 287.627 225.011 287.859C172.791 304.313 100.919 326.958 142.969 348.641C155.967 355.343 170.414 350.451 185.353 345.393C212.286 336.274 240.821 326.613 265.351 383.363H310.889C278.444 361.733 281.459 319.621 302.351 309.365C326.218 297.648 323.399 274.794 321.383 258.456C320.755 253.363 320.205 248.904 320.566 245.612V164.214H222.091ZM265.351 292.857C257.61 305.152 229.491 312.021 216.399 313.918C205.583 327.01 231.768 321.318 235.752 317.903C239.737 314.488 247.706 322.457 249.983 333.272C252.259 344.087 271.613 342.379 270.474 333.272C269.336 324.164 269.336 313.918 282.428 303.672C295.52 293.427 275.028 277.488 265.351 292.857Z" fill="white"/>
</g>
<g style="mix-blend-mode:overlay" opacity="0.5">
<path d="M147.522 272.934C171.43 272.934 170.291 292.288 147.522 296.272C125.328 300.157 103.674 306.204 103.123 318.106V319.041C103.109 318.726 103.109 318.414 103.123 318.106V259.833C112.31 265.029 130.403 272.934 147.522 272.934Z" fill="white"/>
</g>
</g>
<g opacity="0.6">
<ellipse rx="1.10575" ry="1.16259" transform="matrix(-0.961979 0.273124 -0.24516 -0.969483 232.683 276.477)" fill="white"/>
<ellipse rx="1.10575" ry="1.16259" transform="matrix(-0.961979 0.273124 -0.24516 -0.969483 183.704 249.31)" fill="white"/>
<ellipse rx="1.16259" ry="1.10575" transform="matrix(0.24516 0.969483 -0.961979 0.273124 153.018 226.879)" fill="white"/>
<ellipse rx="1.10575" ry="1.16259" transform="matrix(-0.961979 0.273124 -0.24516 -0.969483 198.661 285.009)" fill="white"/>
<ellipse rx="1.16259" ry="1.10575" transform="matrix(0.24516 0.969483 -0.961979 0.273124 186.71 211.032)" fill="white"/>
<ellipse rx="1.16259" ry="1.10575" transform="matrix(0.24516 0.969483 -0.961979 0.273124 201.794 225.672)" fill="white"/>
<ellipse rx="1.10575" ry="1.16259" transform="matrix(-0.961979 0.273124 -0.24516 -0.969483 235.927 236.415)" fill="white"/>
<ellipse rx="1.10575" ry="1.16259" transform="matrix(-0.961979 0.273124 -0.24516 -0.969483 219.989 235.303)" fill="white"/>
<ellipse rx="1.10575" ry="1.16259" transform="matrix(-0.961979 0.273124 -0.24516 -0.969483 166.618 294.751)" fill="white"/>
<ellipse rx="1.16259" ry="1.10575" transform="matrix(0.24516 0.969483 -0.961979 0.273124 195.903 244.985)" fill="white"/>
<ellipse rx="1.10575" ry="1.16259" transform="matrix(-0.961979 0.273124 -0.24516 -0.969483 149.542 291.545)" fill="white"/>
<ellipse rx="1.16259" ry="1.10575" transform="matrix(0.24516 0.969483 -0.961979 0.273124 217.135 213.341)" fill="white"/>
<ellipse rx="1.16259" ry="1.10575" transform="matrix(0.24516 0.969483 -0.961979 0.273124 167.245 235.216)" fill="white"/>
<ellipse rx="1.16259" ry="1.10575" transform="matrix(0.24516 0.969483 -0.961979 0.273124 168.104 272.586)" fill="white"/>
<ellipse rx="1.16259" ry="1.10575" transform="matrix(0.24516 0.969483 -0.961979 0.273124 119.075 237.951)" fill="white"/>
<ellipse rx="1.16259" ry="1.10575" transform="matrix(0.24516 0.969483 -0.961979 0.273124 118.213 212.43)" fill="white"/>
<ellipse rx="1.10575" ry="1.16259" transform="matrix(-0.961979 0.273124 -0.24516 -0.969483 146.739 247.402)" fill="white"/>
<ellipse rx="1.16259" ry="1.10575" transform="matrix(0.24516 0.969483 -0.961979 0.273124 151.219 266.047)" fill="white"/>
<ellipse rx="1.16259" ry="1.10575" transform="matrix(0.24516 0.969483 -0.961979 0.273124 239.501 212.886)" fill="white"/>
<ellipse rx="1.10575" ry="1.16259" transform="matrix(-0.961979 0.273124 -0.24516 -0.969483 154.071 215.684)" fill="white"/>
<ellipse rx="1.16259" ry="1.10575" transform="matrix(0.24516 0.969483 -0.961979 0.273124 121.284 258.278)" fill="white"/>
<ellipse rx="1.16259" ry="1.10575" transform="matrix(0.24516 0.969483 -0.961979 0.273124 224.505 254.176)" fill="white"/>
<ellipse rx="1.16259" ry="1.10575" transform="matrix(0.24516 0.969483 -0.961979 0.273124 210.221 251.789)" fill="white"/>
<ellipse rx="1.10575" ry="1.16259" transform="matrix(-0.961979 0.273124 -0.24516 -0.969483 136.278 221.058)" fill="white"/>
<ellipse rx="1.16259" ry="1.10575" transform="matrix(0.24516 0.969483 -0.961979 0.273124 126.356 277.132)" fill="white"/>
<ellipse rx="1.16259" ry="1.10575" transform="matrix(0.24516 0.969483 -0.961979 0.273124 229.579 273.031)" fill="white"/>
<path d="M116.426 230.211L116.03 229.075L114.958 228.655L116.03 228.235L116.426 227.099L116.823 228.235L117.895 228.655L116.823 229.075L116.426 230.211Z" fill="#7A6F0C"/>
<path d="M114.225 268.64L113.828 267.504L112.757 267.084L113.828 266.664L114.225 265.528L114.622 266.664L115.693 267.084L114.622 267.504L114.225 268.64Z" fill="#7A6F0C"/>
<path d="M134.854 275.485L134.16 273.498L132.285 272.763L134.16 272.027L134.854 270.04L135.548 272.027L137.424 272.763L135.548 273.498L134.854 275.485Z" fill="#7A6F0C"/>
<path d="M239.282 227.645L238.588 225.657L236.712 224.922L238.588 224.186L239.282 222.199L239.976 224.186L241.852 224.922L239.976 225.657L239.282 227.645Z" fill="#7A6F0C"/>
<path d="M129.716 253.393L129.022 251.405L127.146 250.67L129.022 249.935L129.716 247.947L130.41 249.935L132.285 250.67L130.41 251.405L129.716 253.393Z" fill="#7A6F0C"/>
<path d="M229.223 255.649L228.827 254.514L227.755 254.094L228.827 253.673L229.223 252.538L229.62 253.673L230.691 254.094L229.62 254.514L229.223 255.649Z" fill="#7A6F0C"/>
</g>
</g>
</g>
<mask id="mask6_579_49937" style="mask-type:alpha" maskUnits="userSpaceOnUse" x="148" y="48" width="54" height="54">
<path d="M148.576 48.7627H201.441V94.3356C201.441 94.3356 195.516 101.445 175.008 101.445C154.501 101.445 148.576 94.3356 148.576 94.3356V48.7627Z" fill="url(#paint17_radial_579_49937)"/>
</mask>
<g mask="url(#mask6_579_49937)">
<rect x="271.008" y="177" width="131" height="148" transform="rotate(-180 271.008 177)" fill="url(#paint18_linear_579_49937)"/>
<g style="mix-blend-mode:overlay" opacity="0.5">
<path d="M152.68 14.144C116.325 -10.4834 203.511 -55.5133 233.364 -58.4717H134.93C105.238 -55.2443 96.7391 -40.4522 96.2012 -33.4596V25.4398C104.539 36.7356 121.502 59.0419 174.465 73.0435C244.66 91.6008 329.316 55.5497 300.332 14.144C277.74 -18.1296 202.704 48.0314 152.68 14.144Z" fill="black" fill-opacity="0.75"/>
</g>
<g style="mix-blend-mode:overlay" opacity="0.5">
<path fill-rule="evenodd" clip-rule="evenodd" d="M267.252 -49.5967C243.584 -44.4867 200.122 -31.8462 215.614 -22.1641C222.702 -17.734 237.573 -17.7363 255.045 -17.7389C285.304 -17.7435 323.362 -17.7492 342.288 5.26853C372.918 42.5215 348.743 101.283 274.513 124.681C273.479 125.007 272.438 125.335 271.392 125.665C197.371 148.987 95.4962 181.086 155.101 211.82C173.524 221.32 194.002 214.386 215.178 207.216C253.354 194.291 293.8 180.596 328.572 261.037H393.119C347.129 230.377 351.404 170.685 381.016 156.148C414.847 139.54 410.851 107.146 407.994 83.9877C407.104 76.7687 406.324 70.4474 406.835 65.7816V-49.5967H267.252ZM328.572 132.749C317.599 150.177 277.741 159.913 259.183 162.603C243.853 181.16 280.968 173.092 286.616 168.25C292.264 163.409 303.56 174.705 306.787 190.035C310.014 205.365 337.447 202.945 335.833 190.035C334.22 177.126 334.22 162.603 352.777 148.079C371.334 133.556 342.288 110.965 328.572 132.749Z" fill="black" fill-opacity="0.75"/>
</g>
<g style="mix-blend-mode:overlay" opacity="0.5">
<path d="M161.556 104.51C195.443 104.51 193.829 131.943 161.556 137.591C130.096 143.096 99.4021 151.668 98.6221 168.539V169.864C98.6018 169.417 98.6019 168.975 98.6221 168.539V85.9388C111.643 93.3044 137.289 104.51 161.556 104.51Z" fill="black" fill-opacity="0.75"/>
</g>
<g style="mix-blend-mode:overlay" filter="url(#filter10_f_579_49937)">
<ellipse cx="251.386" cy="67.7794" rx="241.928" ry="298.276" transform="rotate(0.126655 251.386 67.7794)" fill="url(#paint19_radial_579_49937)"/>
</g>
<g opacity="0.5">
<g style="mix-blend-mode:overlay" opacity="0.5">
<path d="M118.362 91.6029C95.6577 76.2225 150.107 48.1005 168.751 46.2529H107.276C88.7334 48.2685 83.4258 57.5064 83.0898 61.8735V98.6573C88.2967 105.712 98.8908 119.642 131.967 128.387C175.805 139.976 228.675 117.462 210.574 91.6029C196.465 71.4473 149.603 112.766 118.362 91.6029Z" fill="white"/>
</g>
<g style="mix-blend-mode:overlay" opacity="0.5">
<path fill-rule="evenodd" clip-rule="evenodd" d="M189.915 51.7959C175.134 54.9872 147.991 62.8814 157.666 68.9281C162.092 71.6947 171.38 71.6933 182.291 71.6917C201.189 71.6888 224.957 71.6853 236.776 86.0603C255.905 109.326 240.807 146.023 194.45 160.636C193.804 160.839 193.154 161.044 192.5 161.25C146.273 175.815 82.65 195.862 119.874 215.056C131.38 220.988 144.169 216.658 157.393 212.181C181.235 204.108 206.495 195.556 228.21 245.793H268.521C239.8 226.645 242.469 189.366 260.963 180.287C282.091 169.916 279.595 149.684 277.811 135.222C277.255 130.714 276.768 126.766 277.087 123.852V51.7959H189.915ZM228.21 165.675C221.357 176.559 196.465 182.639 184.876 184.319C175.302 195.908 198.481 190.869 202.008 187.846C205.535 184.822 212.59 191.877 214.605 201.451C216.621 211.025 233.753 209.513 232.745 201.451C231.737 193.389 231.737 184.319 243.327 175.249C254.916 166.179 236.776 152.07 228.21 165.675Z" fill="white"/>
</g>
</g>
<g opacity="0.6">
<circle cx="154.047" cy="54.7341" r="1.03294" fill="white"/>
<circle cx="157.172" cy="97.3168" r="1.03294" transform="rotate(75 157.172 97.3168)" fill="white"/>
<circle cx="162.647" cy="83.1606" r="1.03294" transform="rotate(75 162.647 83.1606)" fill="white"/>
<circle cx="200.592" cy="76.8432" r="1.03294" transform="rotate(75 200.592 76.8432)" fill="white"/>
<circle cx="173.162" cy="49.0678" r="1.03294" transform="rotate(75 173.162 49.0678)" fill="white"/>
<circle cx="170.324" cy="65.0844" r="1.03294" transform="rotate(75 170.324 65.0844)" fill="white"/>
<circle cx="187.099" cy="65.3396" r="1.03294" fill="white"/>
<circle cx="190.543" cy="90.405" r="1.03294" fill="white"/>
<path d="M175.617 94.7588L175.245 93.7535L174.24 93.3815L175.245 93.0095L175.617 92.0043L175.989 93.0095L176.994 93.3815L175.989 93.7535L175.617 94.7588Z" fill="#FFF7B0"/>
<path d="M177.682 79.8809L177.031 78.1216L175.271 77.4707L177.031 76.8197L177.682 75.0605L178.333 76.8197L180.092 77.4707L178.333 78.1216L177.682 79.8809Z" fill="#FFF7B0"/>
</g>
</g>
<ellipse cx="275.028" cy="84.3011" rx="20.0251" ry="3.19008" transform="rotate(9.26455 275.028 84.3011)" fill="white" fill-opacity="0.45"/>
<mask id="mask7_579_49937" style="mask-type:alpha" maskUnits="userSpaceOnUse" x="143" y="39" width="64" height="10">
<rect x="143.553" y="39.6484" width="62.8901" height="9.1145" rx="2.27863" fill="#C4C4C4"/>
</mask>
<g mask="url(#mask7_579_49937)">
<g filter="url(#filter11_f_579_49937)">
<rect x="308.586" y="117.426" width="166.795" height="166.795" transform="rotate(-180 308.586 117.426)" fill="url(#paint20_linear_579_49937)"/>
</g>
<g style="mix-blend-mode:overlay" filter="url(#filter12_f_579_49937)">
<ellipse cx="297.956" cy="-6.09738" rx="273.295" ry="336.948" transform="rotate(0.126655 297.956 -6.09738)" fill="url(#paint21_radial_579_49937)"/>
</g>
<g opacity="0.5">
<g style="mix-blend-mode:overlay" opacity="0.5">
<path fill-rule="evenodd" clip-rule="evenodd" d="M256.312 -87.9541C239.614 -84.349 208.953 -75.4313 219.882 -68.6007C224.882 -65.4753 235.374 -65.4769 247.7 -65.4788C269.047 -65.482 295.897 -65.486 309.249 -49.2472C330.858 -22.9656 313.803 18.4898 261.435 34.9971C260.705 35.2272 259.97 35.4586 259.232 35.6912C207.012 52.1449 135.14 74.7905 177.19 96.4728C190.188 103.175 204.635 98.2833 219.574 93.225C246.507 84.106 275.041 74.4448 299.572 131.195H345.11C312.664 109.565 315.68 67.4526 336.571 57.1967C360.438 45.4801 357.619 22.626 355.604 6.28838C354.976 1.19549 354.426 -3.26417 354.786 -6.55582V-87.9541H256.312ZM299.572 40.6893C291.831 52.9845 263.711 59.853 250.619 61.7504C239.804 74.8425 265.988 69.1503 269.973 65.735C273.957 62.3196 281.926 70.2887 284.203 81.1039C286.48 91.919 305.834 90.2114 304.695 81.1039C303.557 71.9964 303.557 61.7504 316.649 51.5045C329.741 41.2586 309.249 25.3204 299.572 40.6893Z" fill="white"/>
</g>
<g style="mix-blend-mode:overlay" opacity="0.5">
<path d="M181.743 20.7665C205.65 20.7665 204.512 40.1199 181.743 44.1045C159.548 47.9886 137.894 54.0362 137.344 65.9381V66.8732C137.33 66.5576 137.33 66.2459 137.344 65.9381V7.6646C146.53 12.861 164.623 20.7665 181.743 20.7665Z" fill="white"/>
</g>
</g>
<g opacity="0.6">
<path d="M160.006 46.7656L159.27 44.7783L157.283 44.0429L159.27 43.3076L160.006 41.3202L160.741 43.3076L162.729 44.0429L160.741 44.7783L160.006 46.7656Z" fill="#7A6F0C"/>
</g>
</g>
<path d="M243.545 194.641C239.374 194.641 235.175 194.641 231.09 194.641M243.545 194.641H231.09M243.545 194.641C247.717 194.641 249.046 194.931 249.849 195.376C250.148 201.464 251.027 207.446 252.471 211.456C256.573 222.849 264.32 232.875 258.395 245.18C253.656 255.024 243.053 261.586 236.065 263.865M231.09 194.641C227.005 194.641 223.039 200.2 223.457 203.709L219.203 182.711C221.157 183.355 222.697 184.641 227.703 184.641M227.703 184.641C232.709 184.641 241.086 184.641 244.65 184.641M227.703 184.641H244.65M244.65 184.641C245.88 184.558 248.353 184.171 250.062 183.255C250.321 180.525 250.734 178.102 251.302 176.232M318.095 119.709L317.531 123.347C317.417 124.078 316.84 124.643 316.102 124.699C313.537 124.892 307.514 125.118 297.803 123.69C287.926 122.238 280.871 119.744 278.289 118.716M238.116 285.512C249.509 281.106 271.092 270.7 277.08 257.484C284.927 240.167 280.27 228.774 272.067 208.266C266.503 194.355 267.754 184.376 269.93 179.44M246.987 134.223L246.425 137.843C246.31 138.583 246.242 139.304 246.937 139.58C247.766 139.91 249.027 140.383 250.684 140.92M286.464 140.492L285.899 144.13C285.786 144.861 285.665 145.426 284.927 145.482C283.999 145.552 282.559 145.626 280.64 145.624M269.93 179.44C272.029 179.409 273.192 179.169 273.795 178.975C274.184 178.85 274.412 178.502 274.488 178.101L280.64 145.624M269.93 179.44C267.931 179.469 265.084 179.308 261.063 178.738C256.487 178.088 253.379 177.134 251.302 176.232M251.302 176.232C249.409 175.409 248.373 174.628 247.863 174.16C247.57 173.891 247.463 173.494 247.503 173.098L250.684 140.92M280.64 145.624C277.253 145.622 272.371 145.385 266.172 144.473C259.465 143.487 254.188 142.058 250.684 140.92M254.95 133.375C254.62 133.602 254.331 133.68 254.108 133.621C260.477 136.638 271.874 138.65 280.087 137.812C279.473 137.365 277.822 130.94 277.741 126.917C277.669 123.395 278.091 118.244 279.307 113.617C279.406 113.244 279.509 112.873 279.618 112.508M254.95 133.375C256.19 132.521 258.011 129.56 259.136 123.802C260.561 116.51 261.389 110.358 260.218 104.205C259.485 100.35 249.509 83.6977 253.155 78.4569C256.8 73.2161 296.846 79.9398 298.356 85.3507C299.867 90.7615 286.577 100.074 282.219 106.61C281.132 108.241 280.277 110.291 279.618 112.508M254.95 133.375C250.19 133.057 247.055 133.267 246.927 134.056C246.706 135.406 255.376 137.945 266.291 139.725C277.207 141.506 286.234 141.854 286.454 140.504C286.574 139.768 284.056 138.679 279.972 137.553M279.618 112.508C282.287 112.031 289.878 112.608 298.721 114.051C309.636 115.831 318.325 118.256 318.127 119.467C317.93 120.677 308.921 120.215 298.006 118.434C288.879 116.946 281.308 115.006 279.189 113.703M294.935 87.5975C294.651 89.3363 285.573 89.3025 274.657 87.522C263.742 85.7415 255.123 82.8885 255.407 81.1496C255.691 79.4108 264.769 79.4446 275.685 81.2251C286.6 83.0056 295.218 85.8586 294.935 87.5975Z" stroke="black" stroke-width="0.911451"/>
<path d="M225.128 211.457C225.128 211.457 206.615 225.129 175.226 225.129C143.837 225.129 125.324 211.457 125.324 211.457" stroke="black" stroke-width="0.911451"/>
<path d="M201.431 94.335C201.431 94.335 192.772 101.171 174.998 101.171C157.225 101.171 148.566 94.335 148.566 94.335" stroke="black" stroke-width="0.911451"/>
<g filter="url(#filter13_b_579_49937)">
<mask id="path-132-inside-1_579_49937" fill="white">
<path fill-rule="evenodd" clip-rule="evenodd" d="M147.107 49.1758C145.345 49.1758 143.917 47.7475 143.917 45.9857V42.3825C143.917 40.6206 145.345 39.1924 147.107 39.1924H203.711C205.473 39.1924 206.901 40.6206 206.901 42.3825V45.9857C206.901 47.7475 205.473 49.1758 203.711 49.1758H203.083C202.423 49.1758 201.888 49.7112 201.888 50.3716V95.9699C201.888 96.0488 201.895 96.1275 201.911 96.2049L213.059 151.837L225.177 210.11C225.183 210.14 225.22 210.153 225.243 210.133V210.133C225.267 210.113 225.302 210.125 225.309 210.155L236.172 259.871L237.618 267.134C243.058 290.731 229.703 314.907 206.76 314.907H176.333H144.151C121.211 314.907 108.312 290.738 113.746 267.143L115.192 259.871L125.13 210.157C125.136 210.127 125.173 210.114 125.197 210.134V210.134C125.22 210.154 125.257 210.141 125.263 210.111L148.818 92.5618C148.827 92.5201 148.837 92.4794 148.85 92.4396C148.925 92.1984 149.023 91.9576 149.023 91.7048V50.3716C149.023 49.7112 148.488 49.1758 147.828 49.1758H147.107Z"/>
</mask>
<path d="M213.059 151.837L212.165 152.016L212.167 152.022L213.059 151.837ZM236.172 259.871L237.066 259.693L237.064 259.685L237.063 259.676L236.172 259.871ZM237.618 267.134L236.724 267.312L236.727 267.325L236.73 267.338L237.618 267.134ZM113.746 267.143L114.634 267.348L114.637 267.334L114.64 267.321L113.746 267.143ZM115.192 259.871L114.298 259.692L114.298 259.693L115.192 259.871ZM148.818 92.5618L149.712 92.7408V92.7408L148.818 92.5618ZM125.263 210.111L124.369 209.932L125.263 210.111ZM201.911 96.2049L201.017 96.384L201.911 96.2049ZM125.13 210.157L126.024 210.336L125.13 210.157ZM148.85 92.4396L147.98 92.1681L148.85 92.4396ZM225.309 210.155L226.199 209.961L225.309 210.155ZM225.177 210.11L226.069 209.924L225.177 210.11ZM143.005 45.9857C143.005 48.2509 144.842 50.0872 147.107 50.0872V48.2643C145.849 48.2643 144.828 47.2442 144.828 45.9857H143.005ZM143.005 42.3825V45.9857H144.828V42.3825H143.005ZM147.107 38.2809C144.842 38.2809 143.005 40.1172 143.005 42.3825H144.828C144.828 41.124 145.849 40.1038 147.107 40.1038V38.2809ZM203.711 38.2809H147.107V40.1038H203.711V38.2809ZM207.813 42.3825C207.813 40.1172 205.976 38.2809 203.711 38.2809V40.1038C204.97 40.1038 205.99 41.124 205.99 42.3825H207.813ZM207.813 45.9857V42.3825H205.99V45.9857H207.813ZM203.711 50.0872C205.976 50.0872 207.813 48.2509 207.813 45.9857H205.99C205.99 47.2442 204.97 48.2643 203.711 48.2643V50.0872ZM203.083 50.0872H203.711V48.2643H203.083V50.0872ZM202.799 95.9699V50.3716H200.976V95.9699H202.799ZM213.953 151.658L202.805 96.0258L201.017 96.384L212.165 152.016L213.953 151.658ZM226.069 209.924L213.951 151.651L212.167 152.022L224.285 210.296L226.069 209.924ZM237.063 259.676L226.199 209.961L224.419 210.35L235.282 260.066L237.063 259.676ZM238.512 266.956L237.066 259.693L235.278 260.049L236.724 267.312L238.512 266.956ZM206.76 315.818C218.589 315.818 227.939 309.573 233.609 300.346C239.269 291.136 241.276 278.945 238.506 266.929L236.73 267.338C239.4 278.92 237.449 290.616 232.056 299.392C226.672 308.153 217.873 313.995 206.76 313.995V315.818ZM176.333 315.818H206.76V313.995H176.333V315.818ZM144.151 315.818H176.333V313.995H144.151V315.818ZM112.858 266.939C110.092 278.947 111.983 291.133 117.528 300.343C123.083 309.572 132.32 315.818 144.151 315.818V313.995C133.042 313.995 124.36 308.157 119.089 299.403C113.808 290.63 111.966 278.934 114.634 267.348L112.858 266.939ZM114.298 259.693L112.852 266.965L114.64 267.321L116.086 260.049L114.298 259.693ZM124.236 209.979L114.298 259.692L116.086 260.05L126.024 210.336L124.236 209.979ZM147.925 92.3827L124.369 209.932L126.157 210.29L149.712 92.7408L147.925 92.3827ZM147.98 92.1681C147.958 92.2381 147.939 92.3097 147.925 92.3827L149.712 92.7408C149.714 92.7306 149.717 92.7207 149.72 92.7112L147.98 92.1681ZM148.112 50.3716V91.7048H149.935V50.3716H148.112ZM147.107 50.0872H147.828V48.2643H147.107V50.0872ZM149.935 50.3716C149.935 49.2078 148.991 48.2643 147.828 48.2643V50.0872C147.985 50.0872 148.112 50.2146 148.112 50.3716H149.935ZM124.61 210.831C125.164 211.297 126.014 211 126.157 210.29L124.369 209.932C124.499 209.283 125.277 209.01 125.783 209.437L124.61 210.831ZM200.976 95.9699C200.976 96.109 200.99 96.2477 201.017 96.384L202.805 96.0258C202.801 96.0074 202.799 95.9887 202.799 95.9699H200.976ZM126.024 210.336C125.894 210.985 125.116 211.258 124.61 210.831L125.783 209.437C125.229 208.97 124.378 209.268 124.236 209.979L126.024 210.336ZM149.72 92.7112C149.761 92.5799 149.935 92.1391 149.935 91.7048H148.112C148.112 91.715 148.11 91.7491 148.087 91.8315C148.076 91.8721 148.061 91.917 148.043 91.9745C148.026 92.0262 148.001 92.0994 147.98 92.1681L149.72 92.7112ZM225.83 210.83C225.328 211.252 224.558 210.99 224.419 210.35L226.199 209.961C226.047 209.261 225.205 208.974 224.656 209.435L225.83 210.83ZM224.285 210.296C224.431 211.001 225.278 211.294 225.83 210.83L224.656 209.435C225.161 209.011 225.935 209.279 226.069 209.924L224.285 210.296ZM203.083 48.2643C201.92 48.2643 200.976 49.2078 200.976 50.3716H202.799C202.799 50.2146 202.926 50.0872 203.083 50.0872V48.2643Z" fill="black" mask="url(#path-132-inside-1_579_49937)"/>
</g>
<g filter="url(#filter14_d_579_49937)">
<path d="M257.528 151.358C249.651 153.99 240.882 153.857 234.141 152.717C243.181 142.566 255.175 130.387 264.686 123.52C267.287 121.642 269.628 120.217 271.616 119.336C273.669 118.426 275.031 118.241 275.82 118.397C276.161 118.464 276.385 118.592 276.565 118.77C276.76 118.963 277.002 119.317 277.198 119.975C277.607 121.351 277.703 123.676 277.121 127.305C274.869 141.363 266.78 148.265 257.528 151.358Z" stroke="white" stroke-width="4.55729" shape-rendering="crispEdges"/>
</g>
<g filter="url(#filter15_d_579_49937)">
<path d="M250.353 172.131C242.922 168.423 236.815 162.128 232.855 156.555C246.425 155.769 263.518 155.639 275.098 157.509C278.266 158.02 280.929 158.667 282.957 159.45C285.053 160.259 286.147 161.09 286.595 161.759C286.788 162.047 286.856 162.296 286.857 162.55C286.858 162.823 286.779 163.245 286.453 163.848C285.77 165.111 284.193 166.823 281.215 168.978C269.682 177.326 259.082 176.487 250.353 172.131Z" stroke="white" stroke-width="4.55729" shape-rendering="crispEdges"/>
</g>
<g filter="url(#filter16_d_579_49937)">
<path d="M92.41 151.358C100.286 153.99 109.056 153.857 115.796 152.717C106.757 142.566 94.7621 130.387 85.2516 123.52C82.6502 121.642 80.3093 120.217 78.3217 119.336C76.2681 118.426 74.9063 118.241 74.1174 118.397C73.7768 118.464 73.5521 118.592 73.3723 118.77C73.178 118.963 72.9358 119.317 72.7399 119.975C72.33 121.351 72.2345 123.676 72.816 127.305C75.0683 141.363 83.1571 148.265 92.41 151.358Z" stroke="white" stroke-width="4.55729" shape-rendering="crispEdges"/>
</g>
<g filter="url(#filter17_d_579_49937)">
<path d="M99.5847 172.131C107.015 168.423 113.123 162.128 117.082 156.555C103.513 155.769 86.4197 155.639 74.8391 157.509C71.6714 158.02 69.0081 158.667 66.98 159.45C64.8846 160.259 63.7905 161.09 63.3429 161.759C63.1498 162.047 63.0812 162.296 63.0803 162.55C63.0793 162.823 63.1584 163.245 63.4848 163.848C64.1679 165.111 65.7443 166.823 68.7222 168.978C80.2553 177.326 90.8552 176.487 99.5847 172.131Z" stroke="white" stroke-width="4.55729" shape-rendering="crispEdges"/>
</g>
</g>
</g>
<defs>
<filter id="filter0_f_579_49937" x="-23.0749" y="234.226" width="398.306" height="142.646" filterUnits="userSpaceOnUse" color-interpolation-filters="sRGB">
<feFlood flood-opacity="0" result="BackgroundImageFix"/>
<feBlend mode="normal" in="SourceGraphic" in2="BackgroundImageFix" result="shape"/>
<feGaussianBlur stdDeviation="2.27865" result="effect1_foregroundBlur_579_49937"/>
</filter>
<filter id="filter1_f_579_49937" x="-26.8092" y="-108.485" width="402.41" height="494.01" filterUnits="userSpaceOnUse" color-interpolation-filters="sRGB">
<feFlood flood-opacity="0" result="BackgroundImageFix"/>
<feBlend mode="normal" in="SourceGraphic" in2="BackgroundImageFix" result="shape"/>
<feGaussianBlur stdDeviation="2.27865" result="effect1_foregroundBlur_579_49937"/>
</filter>
<filter id="filter2_f_579_49937" x="178.301" y="58.4316" width="143.807" height="234.497" filterUnits="userSpaceOnUse" color-interpolation-filters="sRGB">
<feFlood flood-opacity="0" result="BackgroundImageFix"/>
<feBlend mode="normal" in="SourceGraphic" in2="BackgroundImageFix" result="shape"/>
<feGaussianBlur stdDeviation="2" result="effect1_foregroundBlur_579_49937"/>
</filter>
<filter id="filter3_f_579_49937" x="122.589" y="92.5134" width="104.817" height="135.354" filterUnits="userSpaceOnUse" color-interpolation-filters="sRGB">
<feFlood flood-opacity="0" result="BackgroundImageFix"/>
<feBlend mode="normal" in="SourceGraphic" in2="BackgroundImageFix" result="shape"/>
<feGaussianBlur stdDeviation="1.13931" result="effect1_foregroundBlur_579_49937"/>
</filter>
<filter id="filter4_f_579_49937" x="112.106" y="75.652" width="96.1588" height="65.1686" filterUnits="userSpaceOnUse" color-interpolation-filters="sRGB">
<feFlood flood-opacity="0" result="BackgroundImageFix"/>
<feBlend mode="normal" in="SourceGraphic" in2="BackgroundImageFix" result="shape"/>
<feGaussianBlur stdDeviation="0.455725" result="effect1_foregroundBlur_579_49937"/>
</filter>
<filter id="filter5_f_579_49937" x="128.016" y="66.1999" width="37.5963" height="176.648" filterUnits="userSpaceOnUse" color-interpolation-filters="sRGB">
<feFlood flood-opacity="0" result="BackgroundImageFix"/>
<feBlend mode="normal" in="SourceGraphic" in2="BackgroundImageFix" result="shape"/>
<feGaussianBlur stdDeviation="0.455725" result="effect1_foregroundBlur_579_49937"/>
</filter>
<filter id="filter6_f_579_49937" x="122.591" y="92.5124" width="104.817" height="135.354" filterUnits="userSpaceOnUse" color-interpolation-filters="sRGB">
<feFlood flood-opacity="0" result="BackgroundImageFix"/>
<feBlend mode="normal" in="SourceGraphic" in2="BackgroundImageFix" result="shape"/>
<feGaussianBlur stdDeviation="1.13931" result="effect1_foregroundBlur_579_49937"/>
</filter>
<filter id="filter7_f_579_49937" x="128.018" y="66.1989" width="37.5963" height="176.648" filterUnits="userSpaceOnUse" color-interpolation-filters="sRGB">
<feFlood flood-opacity="0" result="BackgroundImageFix"/>
<feBlend mode="normal" in="SourceGraphic" in2="BackgroundImageFix" result="shape"/>
<feGaussianBlur stdDeviation="0.455725" result="effect1_foregroundBlur_579_49937"/>
</filter>
<filter id="filter8_d_579_49937" x="110.059" y="211.036" width="132.158" height="109.111" filterUnits="userSpaceOnUse" color-interpolation-filters="sRGB">
<feFlood flood-opacity="0" result="BackgroundImageFix"/>
<feColorMatrix in="SourceAlpha" type="matrix" values="0 0 0 0 0 0 0 0 0 0 0 0 0 0 0 0 0 0 127 0" result="hardAlpha"/>
<feOffset dx="0.455725" dy="2.73435"/>
<feGaussianBlur stdDeviation="1.36718"/>
<feComposite in2="hardAlpha" operator="out"/>
<feColorMatrix type="matrix" values="0 0 0 0 0 0 0 0 0 0 0 0 0 0 0 0 0 0 0.25 0"/>
<feBlend mode="normal" in2="BackgroundImageFix" result="effect1_dropShadow_579_49937"/>
<feBlend mode="normal" in="SourceGraphic" in2="effect1_dropShadow_579_49937" result="shape"/>
</filter>
<filter id="filter9_f_579_49937" x="-14.1178" y="-95.4342" width="555.706" height="683.01" filterUnits="userSpaceOnUse" color-interpolation-filters="sRGB">
<feFlood flood-opacity="0" result="BackgroundImageFix"/>
<feBlend mode="normal" in="SourceGraphic" in2="BackgroundImageFix" result="shape"/>
<feGaussianBlur stdDeviation="2.27863" result="effect1_foregroundBlur_579_49937"/>
</filter>
<filter id="filter10_f_579_49937" x="5.42282" y="-234.53" width="491.926" height="604.619" filterUnits="userSpaceOnUse" color-interpolation-filters="sRGB">
<feFlood flood-opacity="0" result="BackgroundImageFix"/>
<feBlend mode="normal" in="SourceGraphic" in2="BackgroundImageFix" result="shape"/>
<feGaussianBlur stdDeviation="2.0171" result="effect1_foregroundBlur_579_49937"/>
</filter>
<filter id="filter11_f_579_49937" x="139.968" y="-51.193" width="170.441" height="170.442" filterUnits="userSpaceOnUse" color-interpolation-filters="sRGB">
<feFlood flood-opacity="0" result="BackgroundImageFix"/>
<feBlend mode="normal" in="SourceGraphic" in2="BackgroundImageFix" result="shape"/>
<feGaussianBlur stdDeviation="0.911451" result="effect1_foregroundBlur_579_49937"/>
</filter>
<filter id="filter12_f_579_49937" x="20.1029" y="-347.602" width="555.706" height="683.01" filterUnits="userSpaceOnUse" color-interpolation-filters="sRGB">
<feFlood flood-opacity="0" result="BackgroundImageFix"/>
<feBlend mode="normal" in="SourceGraphic" in2="BackgroundImageFix" result="shape"/>
<feGaussianBlur stdDeviation="2.27863" result="effect1_foregroundBlur_579_49937"/>
</filter>
<filter id="filter13_b_579_49937" x="98.1596" y="24.8422" width="155.019" height="304.414" filterUnits="userSpaceOnUse" color-interpolation-filters="sRGB">
<feFlood flood-opacity="0" result="BackgroundImageFix"/>
<feGaussianBlur in="BackgroundImage" stdDeviation="7.17509"/>
<feComposite in2="SourceAlpha" operator="in" result="effect1_backgroundBlur_579_49937"/>
<feBlend mode="normal" in="SourceGraphic" in2="effect1_backgroundBlur_579_49937" result="shape"/>
</filter>
<filter id="filter14_d_579_49937" x="226.526" y="112.744" width="56.6091" height="46.3494" filterUnits="userSpaceOnUse" color-interpolation-filters="sRGB">
<feFlood flood-opacity="0" result="BackgroundImageFix"/>
<feColorMatrix in="SourceAlpha" type="matrix" values="0 0 0 0 0 0 0 0 0 0 0 0 0 0 0 0 0 0 127 0" result="hardAlpha"/>
<feOffset/>
<feGaussianBlur stdDeviation="1.66205"/>
<feComposite in2="hardAlpha" operator="out"/>
<feColorMatrix type="matrix" values="0 0 0 0 1 0 0 0 0 1 0 0 0 0 1 0 0 0 1 0"/>
<feBlend mode="normal" in2="BackgroundImageFix" result="effect1_dropShadow_579_49937"/>
<feBlend mode="normal" in="SourceGraphic" in2="effect1_dropShadow_579_49937" result="shape"/>
</filter>
<filter id="filter15_d_579_49937" x="225.486" y="150.409" width="66.9744" height="30.5515" filterUnits="userSpaceOnUse" color-interpolation-filters="sRGB">
<feFlood flood-opacity="0" result="BackgroundImageFix"/>
<feColorMatrix in="SourceAlpha" type="matrix" values="0 0 0 0 0 0 0 0 0 0 0 0 0 0 0 0 0 0 127 0" result="hardAlpha"/>
<feOffset/>
<feGaussianBlur stdDeviation="1.66205"/>
<feComposite in2="hardAlpha" operator="out"/>
<feColorMatrix type="matrix" values="0 0 0 0 1 0 0 0 0 1 0 0 0 0 1 0 0 0 1 0"/>
<feBlend mode="normal" in2="BackgroundImageFix" result="effect1_dropShadow_579_49937"/>
<feBlend mode="normal" in="SourceGraphic" in2="effect1_dropShadow_579_49937" result="shape"/>
</filter>
<filter id="filter16_d_579_49937" x="66.8029" y="112.744" width="56.6091" height="46.3494" filterUnits="userSpaceOnUse" color-interpolation-filters="sRGB">
<feFlood flood-opacity="0" result="BackgroundImageFix"/>
<feColorMatrix in="SourceAlpha" type="matrix" values="0 0 0 0 0 0 0 0 0 0 0 0 0 0 0 0 0 0 127 0" result="hardAlpha"/>
<feOffset/>
<feGaussianBlur stdDeviation="1.66205"/>
<feComposite in2="hardAlpha" operator="out"/>
<feColorMatrix type="matrix" values="0 0 0 0 1 0 0 0 0 1 0 0 0 0 1 0 0 0 1 0"/>
<feBlend mode="normal" in2="BackgroundImageFix" result="effect1_dropShadow_579_49937"/>
<feBlend mode="normal" in="SourceGraphic" in2="effect1_dropShadow_579_49937" result="shape"/>
</filter>
<filter id="filter17_d_579_49937" x="57.4767" y="150.409" width="66.9744" height="30.5515" filterUnits="userSpaceOnUse" color-interpolation-filters="sRGB">
<feFlood flood-opacity="0" result="BackgroundImageFix"/>
<feColorMatrix in="SourceAlpha" type="matrix" values="0 0 0 0 0 0 0 0 0 0 0 0 0 0 0 0 0 0 127 0" result="hardAlpha"/>
<feOffset/>
<feGaussianBlur stdDeviation="1.66205"/>
<feComposite in2="hardAlpha" operator="out"/>
<feColorMatrix type="matrix" values="0 0 0 0 1 0 0 0 0 1 0 0 0 0 1 0 0 0 1 0"/>
<feBlend mode="normal" in2="BackgroundImageFix" result="effect1_dropShadow_579_49937"/>
<feBlend mode="normal" in="SourceGraphic" in2="effect1_dropShadow_579_49937" result="shape"/>
</filter>
<radialGradient id="paint0_radial_579_49937" cx="0" cy="0" r="1" gradientUnits="userSpaceOnUse" gradientTransform="translate(156.623 402.453) rotate(-84.441) scale(239.93 241.682)">
<stop/>
<stop offset="1" stop-opacity="0"/>
</radialGradient>
<linearGradient id="paint1_linear_579_49937" x1="194.835" y1="272.55" x2="316.537" y2="168.848" gradientUnits="userSpaceOnUse">
<stop/>
<stop offset="1" stop-color="#333333" stop-opacity="0"/>
</linearGradient>
<radialGradient id="paint2_radial_579_49937" cx="0" cy="0" r="1" gradientUnits="userSpaceOnUse" gradientTransform="translate(194.596 76.624) rotate(99.1226) scale(43.9775 125.337)">
<stop stop-color="#CF0000"/>
<stop offset="1" stop-color="#CF0000" stop-opacity="0"/>
</radialGradient>
<radialGradient id="paint3_radial_579_49937" cx="0" cy="0" r="1" gradientUnits="userSpaceOnUse" gradientTransform="translate(174.396 174.324) rotate(92.5586) scale(157.837 128.153)">
<stop stop-color="#CF0000"/>
<stop offset="1" stop-color="#CF0000" stop-opacity="0"/>
</radialGradient>
<linearGradient id="paint4_linear_579_49937" x1="343.339" y1="425.694" x2="448.72" y2="425.694" gradientUnits="userSpaceOnUse">
<stop stop-color="#E68A00"/>
<stop offset="0.479167" stop-color="#F1BC10"/>
</linearGradient>
<radialGradient id="paint5_radial_579_49937" cx="0" cy="0" r="1" gradientUnits="userSpaceOnUse" gradientTransform="translate(148.119 190.971) rotate(28.5454) scale(39.8811 37.1284)">
<stop offset="0.203125" stop-color="#71FF30"/>
<stop offset="0.890625" stop-color="#25BC46"/>
</radialGradient>
<radialGradient id="paint6_radial_579_49937" cx="0" cy="0" r="1" gradientUnits="userSpaceOnUse" gradientTransform="translate(191.584 161.951) rotate(46.8342) scale(26.6219 23.5336)">
<stop offset="0.3125" stop-color="#FABE09"/>
<stop offset="1" stop-color="#FDF21B"/>
</radialGradient>
<radialGradient id="paint7_radial_579_49937" cx="0" cy="0" r="1" gradientUnits="userSpaceOnUse" gradientTransform="translate(182.148 126.64) rotate(44.415) scale(15.0616 13.339)">
<stop offset="0.552083" stop-color="white"/>
<stop offset="1" stop-color="#D0C9C9"/>
</radialGradient>
<radialGradient id="paint8_radial_579_49937" cx="0" cy="0" r="1" gradientUnits="userSpaceOnUse" gradientTransform="translate(155.884 109.558) rotate(69.5155) scale(29.3583 24.4722)">
<stop offset="0.3125" stop-color="#F85449"/>
<stop offset="1" stop-color="#CF0000"/>
<stop offset="1" stop-color="#C53434"/>
</radialGradient>
<radialGradient id="paint9_radial_579_49937" cx="0" cy="0" r="1" gradientUnits="userSpaceOnUse" gradientTransform="translate(155.88 109.557) rotate(53.1177) scale(37.8174 40.2642)">
<stop offset="0.203125" stop-color="#71FF30"/>
<stop offset="0.890625" stop-color="#25BC46"/>
</radialGradient>
<linearGradient id="paint10_linear_579_49937" x1="145.211" y1="123.466" x2="155.826" y2="72.7485" gradientUnits="userSpaceOnUse">
<stop stop-color="white" stop-opacity="0"/>
<stop offset="0.471361" stop-color="white"/>
<stop offset="1" stop-color="white"/>
</linearGradient>
<linearGradient id="paint11_linear_579_49937" x1="160.727" y1="221.394" x2="201.952" y2="178.456" gradientUnits="userSpaceOnUse">
<stop stop-color="#F2F2F2"/>
<stop offset="0.0001" stop-color="#F2F2F2"/>
<stop offset="0.0520833" stop-color="#F2F2F2" stop-opacity="0.948011"/>
<stop offset="1" stop-color="#F2F2F2" stop-opacity="0"/>
</linearGradient>
<radialGradient id="paint12_radial_579_49937" cx="0" cy="0" r="1" gradientUnits="userSpaceOnUse" gradientTransform="translate(146.217 191.713) rotate(27.3324) scale(58.6015 42.3471)">
<stop offset="0.302083" stop-color="#FFB800"/>
<stop offset="1" stop-color="#FF7800"/>
</radialGradient>
<linearGradient id="paint13_linear_579_49937" x1="160.729" y1="221.393" x2="201.954" y2="178.455" gradientUnits="userSpaceOnUse">
<stop stop-color="#F2F2F2"/>
<stop offset="0.0001" stop-color="#F2F2F2"/>
<stop offset="0.0520833" stop-color="#F2F2F2" stop-opacity="0.948011"/>
<stop offset="1" stop-color="#F2F2F2" stop-opacity="0"/>
</linearGradient>
<radialGradient id="paint14_radial_579_49937" cx="0" cy="0" r="1" gradientUnits="userSpaceOnUse" gradientTransform="translate(231.777 200.52) rotate(136.943) scale(153.527 198.075)">
<stop stop-color="#FF0000"/>
<stop offset="0.530354" stop-color="#FFE925"/>
<stop offset="1" stop-color="#289B04"/>
</radialGradient>
<linearGradient id="paint15_linear_579_49937" x1="305.355" y1="470.309" x2="434.781" y2="470.309" gradientUnits="userSpaceOnUse">
<stop stop-color="#E68A00"/>
<stop offset="0.464789" stop-color="#BF9F35"/>
<stop offset="1" stop-color="#E68A00"/>
</linearGradient>
<radialGradient id="paint16_radial_579_49937" cx="0" cy="0" r="1" gradientUnits="userSpaceOnUse" gradientTransform="translate(263.735 295.831) rotate(92.5586) scale(219.358 178.104)">
<stop offset="0.479167" stop-color="white" stop-opacity="0.75"/>
<stop offset="1" stop-color="white" stop-opacity="0"/>
</radialGradient>
<radialGradient id="paint17_radial_579_49937" cx="0" cy="0" r="1" gradientUnits="userSpaceOnUse" gradientTransform="translate(198.5 43.4391) rotate(132.639) scale(69.3519 89.3771)">
<stop stop-color="#FF0000"/>
<stop offset="0.530354" stop-color="#FFE925"/>
<stop offset="1" stop-color="#6DF244"/>
</radialGradient>
<linearGradient id="paint18_linear_579_49937" x1="295.347" y1="266.366" x2="396.997" y2="266.366" gradientUnits="userSpaceOnUse">
<stop stop-color="#E68A00"/>
<stop offset="0.464789" stop-color="#BF9F35"/>
<stop offset="1" stop-color="#E68A00"/>
</linearGradient>
<radialGradient id="paint19_radial_579_49937" cx="0" cy="0" r="1" gradientUnits="userSpaceOnUse" gradientTransform="translate(251.386 111.828) rotate(92.5586) scale(194.182 157.662)">
<stop offset="0.479167" stop-color="white" stop-opacity="0.75"/>
<stop offset="1" stop-color="white" stop-opacity="0"/>
</radialGradient>
<linearGradient id="paint20_linear_579_49937" x1="339.575" y1="218.141" x2="469.001" y2="218.141" gradientUnits="userSpaceOnUse">
<stop stop-color="#E68A00"/>
<stop offset="0.464789" stop-color="#BF9F35"/>
<stop offset="1" stop-color="#E68A00"/>
</linearGradient>
<radialGradient id="paint21_radial_579_49937" cx="0" cy="0" r="1" gradientUnits="userSpaceOnUse" gradientTransform="translate(297.956 43.6628) rotate(92.5586) scale(219.358 178.104)">
<stop offset="0.479167" stop-color="white" stop-opacity="0.75"/>
<stop offset="1" stop-color="white" stop-opacity="0"/>
</radialGradient>
<clipPath id="clip0_579_49937">
<rect width="349.997" height="349.997" fill="white"/>
</clipPath>
<clipPath id="clip1_579_49937">
<rect width="349.997" height="349.997" fill="white"/>
</clipPath>
<clipPath id="clip2_579_49937">
<rect width="350" height="350" fill="white" transform="translate(0 0.911133)"/>
</clipPath>
<clipPath id="clip3_579_49937">
<rect width="350" height="350" fill="white" transform="translate(0 0.911133)"/>
</clipPath>
</defs>
</svg>
