<svg width="350" height="350" viewBox="0 0 350 350" fill="none" xmlns="http://www.w3.org/2000/svg">
<g clip-path="url(#clip0_579_49935)">
<g clip-path="url(#clip1_579_49935)">
<g clip-path="url(#clip2_579_49935)">
<g filter="url(#filter0_f_579_49935)">
<rect x="350.08" y="350.045" width="350" height="350" transform="rotate(-180 350.08 350.045)" fill="#0E103E"/>
</g>
<g style="mix-blend-mode:overlay" filter="url(#filter1_f_579_49935)">
<ellipse rx="270.447" ry="92.7881" transform="matrix(0.999998 0.00221055 0.00221055 -0.999998 176.734 365.185)" fill="url(#paint0_radial_579_49935)"/>
</g>
<g style="mix-blend-mode:overlay" filter="url(#filter2_f_579_49935)">
<ellipse cx="174.396" cy="133.051" rx="273.297" ry="336.951" transform="rotate(0.126655 174.396 133.051)" fill="url(#paint1_radial_579_49935)"/>
</g>
<g opacity="0.6">
<circle cx="21.3368" cy="78.6415" r="1.16688" fill="white"/>
<circle cx="214.321" cy="248.225" r="1.16688" transform="rotate(165 214.321 248.225)" fill="white"/>
<circle cx="325.548" cy="113.156" r="1.16688" transform="rotate(75 325.548 113.156)" fill="white"/>
<circle cx="340.034" cy="124.932" r="1.16688" transform="rotate(75 340.034 124.932)" fill="white"/>
<circle cx="322.718" cy="82.5492" r="1.16688" transform="rotate(75 322.718 82.5492)" fill="white"/>
<circle cx="157.077" cy="146.73" r="1.16688" transform="rotate(75 157.077 146.73)" fill="white"/>
<circle cx="266.452" cy="142.628" r="1.16688" transform="rotate(75 266.452 142.628)" fill="white"/>
<circle cx="8.71981" cy="30.1401" r="1.16688" transform="rotate(75 8.71981 30.1401)" fill="white"/>
<circle cx="64.4345" cy="118.315" r="1.16688" fill="white"/>
<circle cx="162.424" cy="221.057" r="1.16688" transform="rotate(165 162.424 221.057)" fill="white"/>
<circle cx="298.38" cy="165.052" r="1.16688" transform="rotate(75 298.38 165.052)" fill="white"/>
<circle cx="129.909" cy="198.626" r="1.16688" transform="rotate(75 129.909 198.626)" fill="white"/>
<circle cx="239.284" cy="194.525" r="1.16688" transform="rotate(75 239.284 194.525)" fill="white"/>
<circle cx="40.587" cy="93.808" r="1.16688" transform="rotate(75 40.587 93.808)" fill="white"/>
<circle cx="58.3661" cy="79.7304" r="1.16688" fill="white"/>
<circle cx="178.272" cy="256.756" r="1.16688" transform="rotate(165 178.272 256.756)" fill="white"/>
<circle cx="334.079" cy="149.205" r="1.16688" transform="rotate(75 334.079 149.205)" fill="white"/>
<circle cx="165.608" cy="182.779" r="1.16688" transform="rotate(75 165.608 182.779)" fill="white"/>
<circle cx="274.983" cy="178.677" r="1.16688" transform="rotate(75 274.983 178.677)" fill="white"/>
<circle cx="294.007" cy="195.115" r="1.16688" transform="rotate(75 294.007 195.115)" fill="white"/>
<circle cx="67.0538" cy="101.69" r="1.16688" transform="rotate(75 67.0538 101.69)" fill="white"/>
<circle cx="17.2919" cy="169.813" r="1.16688" fill="white"/>
<circle cx="194.631" cy="159.112" r="1.16688" transform="rotate(165 194.631 159.112)" fill="white"/>
<circle cx="236.435" cy="132.845" r="1.16688" transform="rotate(75 236.435 132.845)" fill="white"/>
<circle cx="67.964" cy="166.419" r="1.16688" transform="rotate(75 67.964 166.419)" fill="white"/>
<circle cx="177.339" cy="162.318" r="1.16688" transform="rotate(75 177.339 162.318)" fill="white"/>
<circle cx="3.44422" cy="159.7" r="1.16688" fill="white"/>
<circle cx="210.624" cy="165.296" r="1.16688" transform="rotate(165 210.624 165.296)" fill="white"/>
<circle cx="242.618" cy="116.853" r="1.16688" transform="rotate(75 242.618 116.853)" fill="white"/>
<circle cx="74.1495" cy="150.427" r="1.16688" transform="rotate(75 74.1495 150.427)" fill="white"/>
<circle cx="183.525" cy="146.326" r="1.16688" transform="rotate(75 183.525 146.326)" fill="white"/>
<circle cx="52.2977" cy="174.792" r="1.16688" fill="white"/>
<circle cx="59.4989" cy="192.118" r="1.16688" fill="white"/>
<circle cx="159.53" cy="163.363" r="1.16688" transform="rotate(165 159.53 163.363)" fill="white"/>
<circle cx="278.968" cy="303.578" r="1.16688" transform="rotate(75 278.968 303.578)" fill="white"/>
<circle cx="72.2159" cy="201.521" r="1.16688" transform="rotate(75 72.2159 201.521)" fill="white"/>
<circle cx="181.591" cy="197.419" r="1.16688" transform="rotate(75 181.591 197.419)" fill="white"/>
<circle cx="9.20203" cy="90.7772" r="1.16688" fill="white"/>
<circle cx="222.903" cy="233.361" r="1.16688" transform="rotate(165 222.903 233.361)" fill="white"/>
<circle cx="310.685" cy="104.575" r="1.16688" transform="rotate(75 310.685 104.575)" fill="white"/>
<circle cx="214.253" cy="306.768" r="1.16688" transform="rotate(75 214.253 306.768)" fill="white"/>
<circle cx="251.589" cy="134.047" r="1.16688" transform="rotate(75 251.589 134.047)" fill="white"/>
<circle cx="10.087" cy="12.3666" r="1.16688" transform="rotate(75 10.087 12.3666)" fill="white"/>
<circle cx="320.177" cy="231.31" r="1.16688" fill="white"/>
<circle cx="217.76" cy="208.162" r="1.16688" transform="rotate(165 217.76 208.162)" fill="white"/>
<circle cx="216.987" cy="70.7006" r="1.16688" transform="rotate(75 216.987 70.7006)" fill="white"/>
<circle cx="117.015" cy="143.289" r="1.16688" transform="rotate(75 117.015 143.289)" fill="white"/>
<circle cx="226.39" cy="139.188" r="1.16688" transform="rotate(75 226.39 139.188)" fill="white"/>
<circle cx="27.6925" cy="38.4721" r="1.16688" transform="rotate(75 27.6925 38.4721)" fill="white"/>
<circle cx="23.6708" cy="121.893" r="1.16688" fill="white"/>
<circle cx="200.874" cy="207.05" r="1.16688" transform="rotate(165 200.874 207.05)" fill="white"/>
<circle cx="284.372" cy="126.604" r="1.16688" transform="rotate(75 284.372 126.604)" fill="white"/>
<circle cx="13.7335" cy="323.63" r="1.16688" transform="rotate(75 13.7335 323.63)" fill="white"/>
<circle cx="225.278" cy="156.077" r="1.16688" transform="rotate(75 225.278 156.077)" fill="white"/>
<circle cx="26.5792" cy="55.3608" r="1.16688" transform="rotate(75 26.5792 55.3608)" fill="white"/>
<circle cx="43.0927" cy="61.3231" r="1.16688" fill="white"/>
<circle cx="49.4735" cy="27.1434" r="1.16688" fill="white"/>
<circle cx="69.5263" cy="41.2714" r="1.16688" fill="white"/>
<circle cx="81.3739" cy="11.1932" r="1.16688" fill="white"/>
<circle cx="273.692" cy="83.6542" r="1.16688" fill="white"/>
<circle cx="312.886" cy="35.8026" r="1.16688" fill="white"/>
<circle cx="253.64" cy="54.9432" r="1.16688" fill="white"/>
<circle cx="249.083" cy="29.4227" r="1.16688" fill="white"/>
<circle cx="167.052" cy="5.72449" r="1.16688" fill="white"/>
<circle cx="133.784" cy="8.91492" r="1.16688" fill="white"/>
<circle cx="136.061" cy="40.8153" r="1.16688" fill="white"/>
<circle cx="90.4891" cy="71.8055" r="1.16688" fill="white"/>
<circle cx="208.067" cy="17.5731" r="1.16688" fill="white"/>
<circle cx="219.005" cy="47.1962" r="1.16688" fill="white"/>
<circle cx="243.614" cy="90.0341" r="1.16688" fill="white"/>
<circle cx="123.302" cy="71.8055" r="1.16688" fill="white"/>
<circle cx="107.808" cy="96.4149" r="1.16688" fill="white"/>
<circle cx="144.319" cy="266.498" r="1.16688" transform="rotate(165 144.319 266.498)" fill="white"/>
<circle cx="343.821" cy="183.158" r="1.16688" transform="rotate(75 343.821 183.158)" fill="white"/>
<circle cx="175.351" cy="216.732" r="1.16688" transform="rotate(75 175.351 216.732)" fill="white"/>
<circle cx="284.726" cy="212.63" r="1.16688" transform="rotate(75 284.726 212.63)" fill="white"/>
<circle cx="86.0284" cy="111.914" r="1.16688" transform="rotate(75 86.0284 111.914)" fill="white"/>
<circle cx="9.37" cy="55.8544" r="1.16688" fill="white"/>
<circle cx="126.225" cy="263.293" r="1.16688" transform="rotate(165 126.225 263.293)" fill="white"/>
<circle cx="340.616" cy="201.251" r="1.16688" transform="rotate(75 340.616 201.251)" fill="white"/>
<circle cx="114.448" cy="331.377" r="1.16688" transform="rotate(75 114.448 331.377)" fill="white"/>
<circle cx="281.521" cy="230.724" r="1.16688" transform="rotate(75 281.521 230.724)" fill="white"/>
<circle cx="308.134" cy="246.157" r="1.16688" transform="rotate(75 308.134 246.157)" fill="white"/>
<circle cx="279.878" cy="253.904" r="1.16688" transform="rotate(75 279.878 253.904)" fill="white"/>
<circle cx="239.775" cy="278.513" r="1.16688" transform="rotate(75 239.775 278.513)" fill="white"/>
<circle cx="197.847" cy="185.088" r="1.16688" transform="rotate(75 197.847 185.088)" fill="white"/>
<circle cx="144.983" cy="206.963" r="1.16688" transform="rotate(75 144.983 206.963)" fill="white"/>
<circle cx="145.894" cy="244.333" r="1.16688" transform="rotate(75 145.894 244.333)" fill="white"/>
<circle cx="93.9405" cy="209.698" r="1.16688" transform="rotate(75 93.9405 209.698)" fill="white"/>
<circle cx="93.0304" cy="184.177" r="1.16688" transform="rotate(75 93.0304 184.177)" fill="white"/>
<circle cx="82.8233" cy="130.007" r="1.16688" transform="rotate(75 82.8233 130.007)" fill="white"/>
<circle cx="101.774" cy="130.295" r="1.16688" fill="white"/>
<circle cx="123.256" cy="219.15" r="1.16688" transform="rotate(165 123.256 219.15)" fill="white"/>
<circle cx="326.362" cy="266.208" r="1.16688" transform="rotate(75 326.362 266.208)" fill="white"/>
<circle cx="313.603" cy="187.823" r="1.16688" transform="rotate(75 313.603 187.823)" fill="white"/>
<circle cx="321.806" cy="169.594" r="1.16688" transform="rotate(75 321.806 169.594)" fill="white"/>
<circle cx="285.347" cy="148.63" r="1.16688" transform="rotate(75 285.347 148.63)" fill="white"/>
<circle cx="329.097" cy="322.718" r="1.16688" transform="rotate(75 329.097 322.718)" fill="white"/>
<circle cx="255.726" cy="157.745" r="1.16688" transform="rotate(75 255.726 157.745)" fill="white"/>
<circle cx="337.757" cy="91.2084" r="1.16688" transform="rotate(75 337.757 91.2084)" fill="white"/>
<circle cx="341.401" cy="69.3334" r="1.16688" transform="rotate(75 341.401 69.3334)" fill="white"/>
<circle cx="128.003" cy="237.794" r="1.16688" transform="rotate(75 128.003 237.794)" fill="white"/>
<circle cx="237.378" cy="233.693" r="1.16688" transform="rotate(75 237.378 233.693)" fill="white"/>
<circle cx="247.066" cy="216.534" r="1.16688" transform="rotate(75 247.066 216.534)" fill="white"/>
<circle cx="221.546" cy="184.633" r="1.16688" transform="rotate(75 221.546 184.633)" fill="white"/>
<circle cx="38.6788" cy="132.977" r="1.16688" transform="rotate(75 38.6788 132.977)" fill="white"/>
<circle cx="46.7391" cy="342.053" r="1.16688" fill="white"/>
<circle cx="131.026" cy="187.43" r="1.16688" transform="rotate(165 131.026 187.43)" fill="white"/>
<circle cx="264.753" cy="196.452" r="1.16688" transform="rotate(75 264.753 196.452)" fill="white"/>
<circle cx="96.2823" cy="230.026" r="1.16688" transform="rotate(75 96.2823 230.026)" fill="white"/>
<circle cx="205.657" cy="225.924" r="1.16688" transform="rotate(75 205.657 225.924)" fill="white"/>
<circle cx="269.398" cy="336.846" r="1.16688" transform="rotate(75 269.398 336.846)" fill="white"/>
<circle cx="79.8368" cy="172.925" r="1.16688" fill="white"/>
<circle cx="133.413" cy="172.294" r="1.16688" transform="rotate(165 133.413 172.294)" fill="white"/>
<circle cx="249.616" cy="194.064" r="1.16688" transform="rotate(75 249.616 194.064)" fill="white"/>
<circle cx="81.1476" cy="227.638" r="1.16688" transform="rotate(75 81.1476 227.638)" fill="white"/>
<circle cx="190.523" cy="223.537" r="1.16688" transform="rotate(75 190.523 223.537)" fill="white"/>
<circle cx="105.663" cy="158.611" r="1.16688" fill="white"/>
<circle cx="112.17" cy="192.805" r="1.16688" transform="rotate(165 112.17 192.805)" fill="white"/>
<circle cx="270.128" cy="215.306" r="1.16688" transform="rotate(75 270.128 215.306)" fill="white"/>
<circle cx="101.657" cy="248.88" r="1.16688" transform="rotate(75 101.657 248.88)" fill="white"/>
<circle cx="211.032" cy="244.779" r="1.16688" transform="rotate(75 211.032 244.779)" fill="white"/>
<circle cx="12.335" cy="144.062" r="1.16688" transform="rotate(75 12.335 144.062)" fill="white"/>
<path d="M255.397 175.378L254.977 174.242L253.841 173.822L254.977 173.402L255.397 172.266L255.818 173.402L256.953 173.822L255.818 174.242L255.397 175.378Z" fill="#FFF7B0"/>
<path d="M88.8035 163.528L88.3833 162.393L87.2477 161.972L88.3833 161.552L88.8035 160.417L89.2238 161.552L90.3594 161.972L89.2238 162.393L88.8035 163.528Z" fill="#FFF7B0"/>
<path d="M53.7117 68.2812L53.2915 67.1456L52.1559 66.7254L53.2915 66.3052L53.7117 65.1696L54.132 66.3052L55.2676 66.7254L54.132 67.1456L53.7117 68.2812Z" fill="#FFF7B0"/>
<path d="M339.251 47.7734L338.831 46.6378L337.695 46.2176L338.831 45.7974L339.251 44.6618L339.671 45.7974L340.807 46.2176L339.671 46.6378L339.251 47.7734Z" fill="#FFF7B0"/>
<path d="M239.907 220.862L239.487 219.727L238.351 219.306L239.487 218.886L239.907 217.751L240.327 218.886L241.463 219.306L240.327 219.727L239.907 220.862Z" fill="#FFF7B0"/>
<path d="M80.4012 217.672L79.981 216.536L78.8454 216.116L79.981 215.696L80.4012 214.56L80.8214 215.696L81.957 216.116L80.8214 216.536L80.4012 217.672Z" fill="#FFF7B0"/>
<path d="M45.3094 122.425L44.8892 121.289L43.7536 120.869L44.8892 120.449L45.3094 119.313L45.7296 120.449L46.8652 120.869L45.7296 121.289L45.3094 122.425Z" fill="#FFF7B0"/>
<path d="M288.214 116.5L287.793 115.364L286.658 114.944L287.793 114.524L288.214 113.388L288.634 114.524L289.77 114.944L288.634 115.364L288.214 116.5Z" fill="#FFF7B0"/>
<path d="M250.641 205.148L250.221 204.013L249.086 203.593L250.221 203.172L250.641 202.037L251.062 203.172L252.197 203.593L251.062 204.013L250.641 205.148Z" fill="#FFF7B0"/>
<path d="M91.1356 201.958L90.7154 200.822L89.5797 200.402L90.7154 199.982L91.1356 198.846L91.5558 199.982L92.6914 200.402L91.5558 200.822L91.1356 201.958Z" fill="#FFF7B0"/>
<path d="M56.0457 106.711L55.6255 105.575L54.4899 105.155L55.6255 104.735L56.0457 103.599L56.4659 104.735L57.6016 105.155L56.4659 105.575L56.0457 106.711Z" fill="#FFF7B0"/>
<path d="M298.948 100.786L298.528 99.6505L297.392 99.2303L298.528 98.8101L298.948 97.6745L299.368 98.8101L300.504 99.2303L299.368 99.6505L298.948 100.786Z" fill="#FFF7B0"/>
<path d="M248.307 243.577L247.887 242.442L246.752 242.021L247.887 241.601L248.307 240.465L248.728 241.601L249.863 242.021L248.728 242.442L248.307 243.577Z" fill="#FFF7B0"/>
<path d="M270.891 243.737L270.471 242.602L269.336 242.181L270.471 241.761L270.891 240.626L271.312 241.761L272.447 242.181L271.312 242.602L270.891 243.737Z" fill="#FFF7B0"/>
<path d="M254.485 258.32L254.065 257.185L252.929 256.764L254.065 256.344L254.485 255.209L254.905 256.344L256.041 256.764L254.905 257.185L254.485 258.32Z" fill="#FFF7B0"/>
<path d="M88.8035 240.388L88.3833 239.252L87.2477 238.832L88.3833 238.412L88.8035 237.276L89.2238 238.412L90.3594 238.832L89.2238 239.252L88.8035 240.388Z" fill="#FFF7B0"/>
<path d="M53.7117 145.14L53.2915 144.004L52.1559 143.584L53.2915 143.164L53.7117 142.028L54.132 143.164L55.2676 143.584L54.132 144.004L53.7117 145.14Z" fill="#FFF7B0"/>
<path d="M296.614 139.216L296.194 138.08L295.058 137.66L296.194 137.24L296.614 136.104L297.034 137.24L298.17 137.66L297.034 138.08L296.614 139.216Z" fill="#FFF7B0"/>
<path d="M161.316 310.329L160.581 308.342L158.594 307.606L160.581 306.871L161.316 304.884L162.052 306.871L164.039 307.606L162.052 308.342L161.316 310.329Z" fill="#FFF7B0"/>
<path d="M110.662 247.233L109.927 245.246L107.939 244.511L109.927 243.775L110.662 241.788L111.397 243.775L113.385 244.511L111.397 245.246L110.662 247.233Z" fill="#FFF7B0"/>
<path d="M91.1328 146.722L90.3974 144.734L88.41 143.999L90.3974 143.264L91.1328 141.276L91.8681 143.264L93.8555 143.999L91.8681 144.734L91.1328 146.722Z" fill="#FFF7B0"/>
<path d="M98.4257 43.7266L97.6903 41.7392L95.703 41.0038L97.6903 40.2685L98.4257 38.2811L99.1611 40.2685L101.148 41.0038L99.1611 41.7392L98.4257 43.7266Z" fill="#FFF7B0"/>
<path d="M311.25 209.612L310.515 207.625L308.527 206.89L310.515 206.154L311.25 204.167L311.985 206.154L313.973 206.89L311.985 207.625L311.25 209.612Z" fill="#FFF7B0"/>
<path d="M221.314 199.392L220.579 197.404L218.592 196.669L220.579 195.934L221.314 193.946L222.05 195.934L224.037 196.669L222.05 197.404L221.314 199.392Z" fill="#FFF7B0"/>
<path d="M65.6132 303.493L64.8778 301.506L62.8905 300.77L64.8778 300.035L65.6132 298.048L66.3486 300.035L68.3359 300.77L66.3486 301.506L65.6132 303.493Z" fill="#FFF7B0"/>
<path d="M26.7167 100.954L25.9814 98.9668L23.994 98.2314L25.9814 97.496L26.7167 95.5087L27.4521 97.496L29.4395 98.2314L27.4521 98.9668L26.7167 100.954Z" fill="#FFF7B0"/>
<path d="M301.68 86.1104L300.944 84.123L298.957 83.3876L300.944 82.6523L301.68 80.6649L302.415 82.6523L304.402 83.3876L302.415 84.123L301.68 86.1104Z" fill="#FFF7B0"/>
<path d="M287.098 50.5635L286.362 48.5761L284.375 47.8408L286.362 47.1054L287.098 45.118L287.833 47.1054L289.82 47.8408L287.833 48.5761L287.098 50.5635Z" fill="#FFF7B0"/>
<path d="M335.859 5.90137L335.124 3.91403L333.137 3.17865L335.124 2.44327L335.859 0.455936L336.595 2.44327L338.582 3.17865L336.595 3.91403L335.859 5.90137Z" fill="#FFF7B0"/>
<path d="M264.723 228.33L263.987 226.343L262 225.607L263.987 224.872L264.723 222.885L265.458 224.872L267.445 225.607L265.458 226.343L264.723 228.33Z" fill="#FFF7B0"/>
<path d="M292.109 267.49L291.374 265.503L289.387 264.768L291.374 264.032L292.109 262.045L292.845 264.032L294.832 264.768L292.845 265.503L292.109 267.49Z" fill="#FFF7B0"/>
<path d="M264.766 284.808L264.03 282.82L262.043 282.085L264.03 281.35L264.766 279.362L265.501 281.35L267.488 282.085L265.501 282.82L264.766 284.808Z" fill="#FFF7B0"/>
<path d="M105.217 225.14L104.481 223.152L102.494 222.417L104.481 221.682L105.217 219.694L105.952 221.682L107.939 222.417L105.952 223.152L105.217 225.14Z" fill="#FFF7B0"/>
<path d="M16.3945 261.11L15.6591 259.123L13.6718 258.388L15.6591 257.652L16.3945 255.665L17.1299 257.652L19.1172 258.388L17.1299 259.123L16.3945 261.11Z" fill="#FFF7B0"/>
<path d="M313.029 123.968L312.294 121.98L310.307 121.245L312.294 120.51L313.029 118.522L313.765 120.51L315.752 121.245L313.765 121.98L313.029 123.968Z" fill="#FFF7B0"/>
<path d="M280.125 170.608L279.39 168.621L277.402 167.886L279.39 167.15L280.125 165.163L280.86 167.15L282.848 167.886L280.86 168.621L280.125 170.608Z" fill="#FFF7B0"/>
<path d="M232.41 175.889L231.675 173.901L229.687 173.166L231.675 172.431L232.41 170.443L233.145 172.431L235.133 173.166L233.145 173.901L232.41 175.889Z" fill="#FFF7B0"/>
<path d="M29.1542 236.045L28.4189 234.058L26.4315 233.322L28.4189 232.587L29.1542 230.599L29.8896 232.587L31.877 233.322L29.8896 234.058L29.1542 236.045Z" fill="#FFF7B0"/>
<path d="M73.8163 273.415L73.081 271.428L71.0936 270.692L73.081 269.957L73.8163 267.97L74.5517 269.957L76.5391 270.692L74.5517 271.428L73.8163 273.415Z" fill="#FFF7B0"/>
<path d="M37.8255 287.109L36.2254 282.785L31.901 281.185L36.2254 279.585L37.8255 275.26L39.4257 279.585L43.75 281.185L39.4257 282.785L37.8255 287.109Z" fill="#FFF7B0"/>
<path d="M114.843 25.9766L113.243 21.6522L108.919 20.0521L113.243 18.4519L114.843 14.1276L116.443 18.4519L120.768 20.0521L116.443 21.6522L114.843 25.9766Z" fill="#FFF7B0"/>
<path d="M313.997 154.948L312.397 150.624L308.073 149.024L312.397 147.424L313.997 143.099L315.598 147.424L319.922 149.024L315.598 150.624L313.997 154.948Z" fill="#FFF7B0"/>
<path d="M121.668 298.024L120.933 296.037L118.945 295.302L120.933 294.566L121.668 292.579L122.403 294.566L124.391 295.302L122.403 296.037L121.668 298.024Z" fill="#FFF7B0"/>
<path d="M36.4453 185.915L35.7099 183.928L33.7225 183.192L35.7099 182.457L36.4453 180.47L37.1806 182.457L39.168 183.192L37.1806 183.928L36.4453 185.915Z" fill="#FFF7B0"/>
<path d="M328.432 66.2461L327.696 64.2588L325.709 63.5234L327.696 62.788L328.432 60.8007L329.167 62.788L331.154 63.5234L329.167 64.2588L328.432 66.2461Z" fill="#FFF7B0"/>
<path d="M280.262 19.1172L279.526 17.1299L277.539 16.3945L279.526 15.6591L280.262 13.6718L280.997 15.6591L282.984 16.3945L280.997 17.1299L280.262 19.1172Z" fill="#FFF7B0"/>
<path d="M227.46 250.423L227.04 249.287L225.904 248.867L227.04 248.447L227.46 247.311L227.88 248.447L229.016 248.867L227.88 249.287L227.46 250.423Z" fill="#FFF7B0"/>
<path d="M67.9539 247.233L67.5337 246.098L66.3981 245.678L67.5337 245.257L67.9539 244.122L68.3741 245.257L69.5098 245.678L68.3741 246.098L67.9539 247.233Z" fill="#FFF7B0"/>
<path d="M32.8641 151.985L32.4439 150.85L31.3082 150.43L32.4439 150.009L32.8641 148.874L33.2843 150.009L34.4199 150.43L33.2843 150.85L32.8641 151.985Z" fill="#FFF7B0"/>
<path d="M275.766 146.062L275.346 144.926L274.211 144.506L275.346 144.085L275.766 142.95L276.187 144.085L277.322 144.506L276.187 144.926L275.766 146.062Z" fill="#FFF7B0"/>
<path d="M210.657 227.396L210.237 226.261L209.101 225.841L210.237 225.42L210.657 224.285L211.077 225.42L212.213 225.841L211.077 226.261L210.657 227.396Z" fill="#FFF7B0"/>
<path d="M51.1512 224.207L50.731 223.071L49.5954 222.651L50.731 222.231L51.1512 221.095L51.5714 222.231L52.707 222.651L51.5714 223.071L51.1512 224.207Z" fill="#FFF7B0"/>
<path d="M196.151 340.808L195.731 339.672L194.595 339.252L195.731 338.832L196.151 337.696L196.571 338.832L197.707 339.252L196.571 339.672L196.151 340.808Z" fill="#FFF7B0"/>
<path d="M258.964 123.035L258.543 121.9L257.408 121.479L258.543 121.059L258.964 119.923L259.384 121.059L260.52 121.479L259.384 121.9L258.964 123.035Z" fill="#FFF7B0"/>
<path d="M249.472 297.058L249.051 295.922L247.916 295.502L249.051 295.082L249.472 293.946L249.892 295.082L251.027 295.502L249.892 295.922L249.472 297.058Z" fill="#FFF7B0"/>
<path d="M48.0399 263.103L47.6196 261.967L46.484 261.547L47.6196 261.126L48.0399 259.991L48.4601 261.126L49.5957 261.547L48.4601 261.967L48.0399 263.103Z" fill="#FFF7B0"/>
<path d="M15.6824 205.911L15.2622 204.776L14.1266 204.355L15.2622 203.935L15.6824 202.799L16.1027 203.935L17.2383 204.355L16.1027 204.776L15.6824 205.911Z" fill="#FFF7B0"/>
<path d="M266.79 160.339L266.37 159.203L265.234 158.783L266.37 158.363L266.79 157.227L267.21 158.363L268.346 158.783L267.21 159.203L266.79 160.339Z" fill="#FFF7B0"/>
</g>
<g style="mix-blend-mode:overlay" clip-path="url(#clip3_579_49935)">
<circle cx="267.057" cy="334.05" r="28.7109" fill="white" fill-opacity="0.25"/>
<circle cx="114.388" cy="66.5365" r="22.7865" fill="white" fill-opacity="0.25"/>
<circle cx="279.361" cy="110.286" r="16.4062" fill="white" fill-opacity="0.25"/>
<circle cx="8.20312" cy="234.7" r="16.4062" fill="white" fill-opacity="0.25"/>
<circle cx="335.872" cy="14.5837" r="40.1042" fill="white" fill-opacity="0.25"/>
<path d="M65.9326 288.461C29.3383 277.34 1.34401 320.345 -5.46875 340.81C53.705 430.698 146.791 390.295 179.557 350.911C127.002 379.87 111.675 302.361 65.9326 288.461Z" fill="white" fill-opacity="0.25"/>
<path d="M296.665 236.375C285.544 199.781 328.549 171.786 349.014 164.974C438.902 224.147 398.499 317.234 359.115 350C388.074 297.444 310.565 282.118 296.665 236.375Z" fill="white" fill-opacity="0.25"/>
<path d="M-26.4316 3.86932C-13.354 0.661134 15.8474 6.61923 18.8014 32.2847C21.0696 51.9921 19.2629 85.9071 3.10828 101.031C-15.8157 118.748 -14.5038 160.553 12.801 170.237C38.6485 179.403 69.9705 166.112 74.1887 144.571C80.5455 112.109 53.2638 106.516 57.1109 74.9077C67.4486 -10.0264 219.592 11.8323 236.98 -4.55761C236.98 -87.4441 3.10828 -222.312 -26.4316 3.86932Z" fill="white" fill-opacity="0.25"/>
</g>
</g>
<path d="M230.597 316.087L204.315 285.739H174.802H145.468L119.4 316.087C119.4 316.087 137.082 336.097 174.999 336.097C212.916 336.097 230.597 316.087 230.597 316.087Z" fill="url(#paint2_linear_579_49935)"/>
<path d="M148.86 95.0626C148.948 94.6389 149.321 94.335 149.753 94.335H200.245C200.677 94.335 201.05 94.6389 201.137 95.0626L225.012 210.994C225.083 211.34 224.953 211.692 224.662 211.893C221.542 214.054 202.978 226.04 174.999 226.04C147.019 226.04 128.456 214.054 125.336 211.893C125.045 211.692 124.915 211.34 124.986 210.994L148.86 95.0626Z" fill="black" fill-opacity="0.75"/>
<path d="M223.11 211.89C217.523 215.445 199.997 225.13 174.888 225.13C146.902 225.13 128.336 213.098 125.223 210.933C125.033 210.802 124.912 210.606 124.871 210.39C128.809 199.005 144.116 175.86 164.065 181.919C173.944 184.92 180.86 192.452 187.365 199.536C197.439 210.508 206.525 220.405 224.106 210.722C223.784 211.11 223.451 211.499 223.11 211.89Z" fill="url(#paint3_radial_579_49935)"/>
<path d="M214.052 156.62L218.832 179.91C216.933 182.156 214.118 184.13 210.037 185.164C197.279 188.398 184.115 181.122 184.115 170.208C184.115 164.751 187.923 153.877 203.152 154.039C207.743 154.088 211.309 155.093 214.052 156.62Z" fill="url(#paint4_radial_579_49935)"/>
<path d="M177.736 130.914C177.736 127.952 179.776 122.049 187.934 122.137C196.093 122.224 198.205 128.025 198.241 130.914C198.313 133.035 197.091 137.629 191.623 139.033C184.788 140.789 177.736 136.839 177.736 130.914Z" fill="url(#paint5_radial_579_49935)"/>
<path d="M201.05 94.2312L205.114 114.032C203.525 113.761 201.872 113.448 200.182 113.128C186.039 110.452 169.254 107.277 165.005 123.731C163.15 130.915 165.837 135.213 168.452 139.394C170.976 143.43 173.433 147.358 171.67 153.669C169.525 161.35 157.861 166.325 148.481 162.994C138.572 159.476 139.268 144.904 144.963 137.849C150.658 130.795 151.482 120.031 150.658 112.871C150.261 109.41 148.551 106.935 146.315 105.251L148.651 93.8809C148.684 93.9478 148.729 94.0101 148.784 94.0656C150.119 95.4143 156.774 101.03 175.002 101.03C192.559 101.03 199.379 95.8196 201.05 94.2312Z" fill="url(#paint6_radial_579_49935)"/>
<mask id="mask0_579_49935" style="mask-type:alpha" maskUnits="userSpaceOnUse" x="140" y="93" width="66" height="72">
<path d="M201.047 94.2302L205.11 114.031C203.521 113.76 201.868 113.447 200.178 113.127C186.035 110.451 169.25 107.276 165.001 123.73C163.146 130.914 165.833 135.212 168.448 139.393C170.972 143.429 173.429 147.357 171.666 153.668C169.521 161.349 157.857 166.324 148.477 162.993C138.568 159.475 139.264 144.903 144.959 137.848C150.654 130.794 151.478 120.03 150.654 112.87C150.257 109.409 148.547 106.934 146.311 105.25L148.647 93.8799C148.681 93.9469 148.725 94.0092 148.78 94.0646C150.115 95.4133 156.77 101.029 174.998 101.029C192.555 101.029 199.375 95.8186 201.047 94.2302Z" fill="url(#paint7_radial_579_49935)"/>
</mask>
<g mask="url(#mask0_579_49935)">
<g filter="url(#filter3_f_579_49935)">
<mask id="mask1_579_49935" style="mask-type:alpha" maskUnits="userSpaceOnUse" x="124" y="94" width="102" height="132">
<path d="M148.859 95.0639C148.946 94.6401 149.319 94.3359 149.752 94.3359H200.242C200.675 94.3359 201.048 94.6401 201.135 95.0639L224.989 211.158C225.071 211.554 224.884 211.954 224.523 212.136C220.62 214.108 198.372 224.816 174.997 225.126C151.575 225.437 129.285 214.177 125.448 212.14C125.097 211.953 124.921 211.561 125.001 211.172L148.859 95.0639Z" fill="#577096" fill-opacity="0.75"/>
</mask>
<g mask="url(#mask1_579_49935)">
<g filter="url(#filter4_f_579_49935)">
<path d="M207.204 76.1074C210.862 110.269 145.937 132.572 113.018 139.453L113.018 76.1074L207.204 76.1074Z" fill="url(#paint8_linear_579_49935)" fill-opacity="0.5"/>
</g>
<g filter="url(#filter5_f_579_49935)">
<path d="M155.405 125.302C156.467 105.018 134.469 86.1836 128.927 66.9994C133.386 65.1982 144.048 70.7906 152.673 76.1256C163.453 82.7944 162.877 109.124 164.623 125.784C166.02 139.112 148.451 223.401 144.013 241.481L131.714 240.837C140.24 214.68 154.585 140.955 155.405 125.302Z" fill="url(#paint9_linear_579_49935)" fill-opacity="0.6"/>
</g>
</g>
</g>
</g>
<mask id="mask2_579_49935" style="mask-type:alpha" maskUnits="userSpaceOnUse" x="124" y="180" width="101" height="46">
<path d="M223.108 211.888C217.521 215.443 199.995 225.128 174.886 225.128C146.9 225.128 128.335 213.096 125.221 210.931C125.031 210.8 124.91 210.604 124.869 210.388C128.807 199.003 144.114 175.858 164.063 181.917C173.942 184.918 180.858 192.45 187.363 199.534C197.437 210.506 206.524 220.403 224.104 210.72C223.782 211.108 223.449 211.497 223.108 211.888Z" fill="url(#paint10_radial_579_49935)"/>
</mask>
<g mask="url(#mask2_579_49935)">
<g filter="url(#filter6_f_579_49935)">
<mask id="mask3_579_49935" style="mask-type:alpha" maskUnits="userSpaceOnUse" x="124" y="94" width="102" height="132">
<path d="M148.861 95.063C148.948 94.6391 149.321 94.335 149.753 94.335H200.244C200.677 94.335 201.05 94.6391 201.137 95.063L224.991 211.157C225.073 211.553 224.886 211.953 224.525 212.135C220.622 214.107 198.374 224.815 174.999 225.125C151.577 225.436 129.287 214.176 125.449 212.139C125.099 211.952 124.923 211.56 125.003 211.171L148.861 95.063Z" fill="#577096" fill-opacity="0.75"/>
</mask>
<g mask="url(#mask3_579_49935)">
<g filter="url(#filter7_f_579_49935)">
<path d="M155.407 125.301C156.469 105.017 134.471 86.1826 128.929 66.9985C133.388 65.1973 144.05 70.7896 152.675 76.1246C163.455 82.7934 162.878 109.123 164.625 125.783C166.022 139.111 148.453 223.4 144.015 241.48L131.716 240.836C140.242 214.679 154.587 140.954 155.407 125.301Z" fill="url(#paint11_linear_579_49935)" fill-opacity="0.6"/>
</g>
</g>
</g>
</g>
<path d="M155.657 63.3067C159.111 50.3292 161.897 33.7236 174.784 33.7236C187.67 33.7236 192.184 54.2839 194.34 63.6231C196.326 72.2275 200.671 92.1291 201.343 95.2072C201.4 95.4717 201.333 95.7331 201.144 95.9265C199.761 97.3383 193.093 102.994 174.998 102.994C156.849 102.994 150.196 97.304 148.841 95.9138C148.658 95.7265 148.592 95.4738 148.641 95.2168C149.176 92.41 152.492 75.1947 155.657 63.3067Z" fill="url(#paint12_linear_579_49935)"/>
<path d="M124.79 210.089C124.79 210.089 148.11 225.128 175.226 225.128C202.341 225.128 225.205 210.089 225.205 210.089C228.728 225.093 245.143 263.489 232.894 282.941C217.48 307.422 200.518 315.817 174.998 315.817C149.477 315.817 132.516 307.422 117.101 282.941C104.853 263.489 121.267 225.093 124.79 210.089Z" fill="url(#paint13_radial_579_49935)"/>
<mask id="mask4_579_49935" style="mask-type:alpha" maskUnits="userSpaceOnUse" x="112" y="210" width="126" height="107">
<path d="M124.724 210.545C124.724 210.545 148.044 225.584 175.159 225.584C202.275 225.584 225.139 210.545 225.139 210.545C228.662 225.549 245.076 263.945 232.828 283.397C217.413 307.878 200.452 316.273 174.931 316.273C149.411 316.273 132.449 307.878 117.035 283.397C104.786 263.945 121.201 225.549 124.724 210.545Z" fill="url(#paint14_radial_579_49935)"/>
</mask>
<g mask="url(#mask4_579_49935)">
<path d="M203.641 319.919C210.519 301.924 220.148 256.678 203.641 219.659" stroke="#773B06" stroke-opacity="0.1" stroke-width="4.55725"/>
<path d="M181.311 319.919C186.779 302.601 192.248 257.029 181.311 219.659" stroke="#773B06" stroke-opacity="0.1" stroke-width="4.55725"/>
<path d="M165.359 319.919C159.891 302.601 154.422 257.029 165.359 219.659" stroke="#773B06" stroke-opacity="0.1" stroke-width="4.55725"/>
<path d="M143.031 319.919C136.153 301.924 126.524 256.678 143.031 219.659" stroke="#773B06" stroke-opacity="0.1" stroke-width="4.55725"/>
</g>
<path d="M154.672 246.319C155.198 245.408 156.514 245.408 157.04 246.319L166.907 263.409C167.433 264.32 166.775 265.46 165.723 265.46H145.989C144.937 265.46 144.279 264.32 144.805 263.409L154.672 246.319Z" fill="black"/>
<path d="M194.41 246.319C193.884 245.408 192.568 245.408 192.042 246.319L182.175 263.409C181.649 264.32 182.307 265.46 183.359 265.46H203.093C204.145 265.46 204.803 264.32 204.277 263.409L194.41 246.319Z" fill="black"/>
<path fill-rule="evenodd" clip-rule="evenodd" d="M163.578 276.718H185.249V283.061H192.649V276.718H209.039C210.852 276.718 211.839 278.653 210.62 279.995C205.793 285.309 194.302 295.217 175.735 295.217C175.201 295.217 174.672 295.209 174.149 295.193V288.875H166.749V294.415C153.294 291.962 144.313 284.466 140.039 280.056C138.749 278.725 139.724 276.718 141.578 276.718H156.178V283.061H163.578V276.718Z" fill="black"/>
<path d="M194.443 63.1374C192.243 53.5911 187.665 33.7236 174.998 33.7236L175.213 336.097C213.13 336.097 230.811 316.088 230.811 316.088L218.055 301.358C223.364 296.623 228.312 290.561 233.109 282.942C242.926 267.352 234.332 239.596 228.719 221.464C227.328 216.971 226.12 213.069 225.42 210.089C225.42 210.089 225.306 210.165 225.084 210.304L201.463 95.6028C201.532 95.3715 201.538 95.1195 201.483 94.8683C200.615 90.8902 196.478 71.9573 194.555 63.6231L194.443 63.1374Z" fill="#161A70" fill-opacity="0.1"/>
<g filter="url(#filter8_d_579_49935)">
<path d="M216.24 25.3082C216.24 25.3082 216.24 25.3119 216.238 25.3194C216.238 25.312 216.239 25.3082 216.24 25.3082ZM215.963 24.9661C216.147 25.163 216.21 25.2858 216.231 25.3391C216.21 25.3923 216.147 25.5151 215.963 25.712C215.626 26.0736 215.016 26.5321 214.038 27.0394C212.086 28.051 209.113 29.0299 205.248 29.8772C197.555 31.5637 186.818 32.626 174.883 32.626C162.947 32.626 152.211 31.5637 144.518 29.8772C140.653 29.0299 137.679 28.051 135.727 27.0394C134.749 26.5321 134.14 26.0736 133.802 25.712C133.618 25.5151 133.555 25.3923 133.534 25.3391C133.555 25.2858 133.618 25.163 133.802 24.9661C134.14 24.6045 134.749 24.146 135.727 23.6387C137.679 22.6271 140.653 21.6483 144.518 20.8009C152.211 19.1144 162.947 18.0521 174.883 18.0521C186.818 18.0521 197.555 19.1144 205.248 20.8009C209.113 21.6483 212.086 22.6271 214.038 23.6387C215.016 24.146 215.626 24.6045 215.963 24.9661ZM133.526 25.3082C133.526 25.3082 133.527 25.312 133.528 25.3194C133.526 25.3119 133.525 25.3082 133.526 25.3082ZM133.526 25.3699C133.525 25.3699 133.526 25.3662 133.528 25.3587C133.527 25.3661 133.526 25.3699 133.526 25.3699ZM216.238 25.3587C216.24 25.3662 216.24 25.3699 216.24 25.3699C216.239 25.3699 216.238 25.3661 216.238 25.3587Z" stroke="#FDF21B" stroke-width="4.55729" shape-rendering="crispEdges"/>
</g>
</g>
</g>
<defs>
<filter id="filter0_f_579_49935" x="-1.74284" y="-1.77799" width="353.646" height="353.646" filterUnits="userSpaceOnUse" color-interpolation-filters="sRGB">
<feFlood flood-opacity="0" result="BackgroundImageFix"/>
<feBlend mode="normal" in="SourceGraphic" in2="BackgroundImageFix" result="shape"/>
<feGaussianBlur stdDeviation="0.911458" result="effect1_foregroundBlur_579_49935"/>
</filter>
<filter id="filter1_f_579_49935" x="-98.2702" y="267.838" width="550.007" height="194.694" filterUnits="userSpaceOnUse" color-interpolation-filters="sRGB">
<feFlood flood-opacity="0" result="BackgroundImageFix"/>
<feBlend mode="normal" in="SourceGraphic" in2="BackgroundImageFix" result="shape"/>
<feGaussianBlur stdDeviation="2.27865" result="effect1_foregroundBlur_579_49935"/>
</filter>
<filter id="filter2_f_579_49935" x="-103.46" y="-208.457" width="555.71" height="683.015" filterUnits="userSpaceOnUse" color-interpolation-filters="sRGB">
<feFlood flood-opacity="0" result="BackgroundImageFix"/>
<feBlend mode="normal" in="SourceGraphic" in2="BackgroundImageFix" result="shape"/>
<feGaussianBlur stdDeviation="2.27865" result="effect1_foregroundBlur_579_49935"/>
</filter>
<filter id="filter3_f_579_49935" x="122.589" y="92.0573" width="104.817" height="135.354" filterUnits="userSpaceOnUse" color-interpolation-filters="sRGB">
<feFlood flood-opacity="0" result="BackgroundImageFix"/>
<feBlend mode="normal" in="SourceGraphic" in2="BackgroundImageFix" result="shape"/>
<feGaussianBlur stdDeviation="1.13931" result="effect1_foregroundBlur_579_49935"/>
</filter>
<filter id="filter4_f_579_49935" x="112.106" y="75.196" width="96.1588" height="65.1686" filterUnits="userSpaceOnUse" color-interpolation-filters="sRGB">
<feFlood flood-opacity="0" result="BackgroundImageFix"/>
<feBlend mode="normal" in="SourceGraphic" in2="BackgroundImageFix" result="shape"/>
<feGaussianBlur stdDeviation="0.455725" result="effect1_foregroundBlur_579_49935"/>
</filter>
<filter id="filter5_f_579_49935" x="128.016" y="65.7438" width="37.5963" height="176.648" filterUnits="userSpaceOnUse" color-interpolation-filters="sRGB">
<feFlood flood-opacity="0" result="BackgroundImageFix"/>
<feBlend mode="normal" in="SourceGraphic" in2="BackgroundImageFix" result="shape"/>
<feGaussianBlur stdDeviation="0.455725" result="effect1_foregroundBlur_579_49935"/>
</filter>
<filter id="filter6_f_579_49935" x="122.591" y="92.0563" width="104.817" height="135.354" filterUnits="userSpaceOnUse" color-interpolation-filters="sRGB">
<feFlood flood-opacity="0" result="BackgroundImageFix"/>
<feBlend mode="normal" in="SourceGraphic" in2="BackgroundImageFix" result="shape"/>
<feGaussianBlur stdDeviation="1.13931" result="effect1_foregroundBlur_579_49935"/>
</filter>
<filter id="filter7_f_579_49935" x="128.018" y="65.7428" width="37.5963" height="176.648" filterUnits="userSpaceOnUse" color-interpolation-filters="sRGB">
<feFlood flood-opacity="0" result="BackgroundImageFix"/>
<feBlend mode="normal" in="SourceGraphic" in2="BackgroundImageFix" result="shape"/>
<feGaussianBlur stdDeviation="0.455725" result="effect1_foregroundBlur_579_49935"/>
</filter>
<filter id="filter8_d_579_49935" x="127.926" y="12.4493" width="93.9138" height="25.779" filterUnits="userSpaceOnUse" color-interpolation-filters="sRGB">
<feFlood flood-opacity="0" result="BackgroundImageFix"/>
<feColorMatrix in="SourceAlpha" type="matrix" values="0 0 0 0 0 0 0 0 0 0 0 0 0 0 0 0 0 0 127 0" result="hardAlpha"/>
<feOffset/>
<feGaussianBlur stdDeviation="1.66205"/>
<feComposite in2="hardAlpha" operator="out"/>
<feColorMatrix type="matrix" values="0 0 0 0 1 0 0 0 0 1 0 0 0 0 1 0 0 0 1 0"/>
<feBlend mode="normal" in2="BackgroundImageFix" result="effect1_dropShadow_579_49935"/>
<feBlend mode="normal" in="SourceGraphic" in2="effect1_dropShadow_579_49935" result="shape"/>
</filter>
<radialGradient id="paint0_radial_579_49935" cx="0" cy="0" r="1" gradientUnits="userSpaceOnUse" gradientTransform="translate(270.447 106.491) rotate(99.1226) scale(61.1193 174.192)">
<stop stop-color="white" stop-opacity="0.75"/>
<stop offset="1" stop-color="white" stop-opacity="0"/>
</radialGradient>
<radialGradient id="paint1_radial_579_49935" cx="0" cy="0" r="1" gradientUnits="userSpaceOnUse" gradientTransform="translate(174.396 182.812) rotate(92.5586) scale(219.36 178.105)">
<stop stop-color="white" stop-opacity="0.75"/>
<stop offset="1" stop-color="white" stop-opacity="0"/>
</radialGradient>
<linearGradient id="paint2_linear_579_49935" x1="135.069" y1="293.998" x2="164.771" y2="362.906" gradientUnits="userSpaceOnUse">
<stop stop-color="#C59651"/>
<stop offset="0.536458" stop-color="#E0AE0D" stop-opacity="0.98"/>
<stop offset="1" stop-color="#FFF27B" stop-opacity="0.98"/>
</linearGradient>
<radialGradient id="paint3_radial_579_49935" cx="0" cy="0" r="1" gradientUnits="userSpaceOnUse" gradientTransform="translate(146.219 191.259) rotate(27.3324) scale(58.6015 42.3471)">
<stop offset="0.328125" stop-color="#FF00D6"/>
<stop offset="0.619792" stop-color="#D700B4"/>
</radialGradient>
<radialGradient id="paint4_radial_579_49935" cx="0" cy="0" r="1" gradientUnits="userSpaceOnUse" gradientTransform="translate(191.584 161.495) rotate(46.8342) scale(26.6219 23.5336)">
<stop offset="0.3125" stop-color="#FABE09"/>
<stop offset="1" stop-color="#FDF21B"/>
</radialGradient>
<radialGradient id="paint5_radial_579_49935" cx="0" cy="0" r="1" gradientUnits="userSpaceOnUse" gradientTransform="translate(182.148 126.184) rotate(44.415) scale(15.0616 13.339)">
<stop offset="0.552083" stop-color="white"/>
<stop offset="1" stop-color="#D0C9C9"/>
</radialGradient>
<radialGradient id="paint6_radial_579_49935" cx="0" cy="0" r="1" gradientUnits="userSpaceOnUse" gradientTransform="translate(155.884 109.102) rotate(69.5155) scale(29.3583 24.4722)">
<stop offset="0.3125" stop-color="#F85449"/>
<stop offset="1" stop-color="#CF0000"/>
<stop offset="1" stop-color="#C53434"/>
</radialGradient>
<radialGradient id="paint7_radial_579_49935" cx="0" cy="0" r="1" gradientUnits="userSpaceOnUse" gradientTransform="translate(155.88 109.101) rotate(53.1177) scale(37.8174 40.2642)">
<stop offset="0.203125" stop-color="#71FF30"/>
<stop offset="0.890625" stop-color="#25BC46"/>
</radialGradient>
<linearGradient id="paint8_linear_579_49935" x1="145.211" y1="123.01" x2="155.826" y2="72.2924" gradientUnits="userSpaceOnUse">
<stop stop-color="white" stop-opacity="0"/>
<stop offset="0.471361" stop-color="white"/>
<stop offset="1" stop-color="white"/>
</linearGradient>
<linearGradient id="paint9_linear_579_49935" x1="160.727" y1="220.938" x2="201.952" y2="178" gradientUnits="userSpaceOnUse">
<stop stop-color="#F2F2F2"/>
<stop offset="0.0001" stop-color="#F2F2F2"/>
<stop offset="0.0520833" stop-color="#F2F2F2" stop-opacity="0.948011"/>
<stop offset="1" stop-color="#F2F2F2" stop-opacity="0"/>
</linearGradient>
<radialGradient id="paint10_radial_579_49935" cx="0" cy="0" r="1" gradientUnits="userSpaceOnUse" gradientTransform="translate(146.217 191.257) rotate(27.3324) scale(58.6015 42.3471)">
<stop offset="0.302083" stop-color="#FFB800"/>
<stop offset="1" stop-color="#FF7800"/>
</radialGradient>
<linearGradient id="paint11_linear_579_49935" x1="160.729" y1="220.937" x2="201.954" y2="177.999" gradientUnits="userSpaceOnUse">
<stop stop-color="#F2F2F2"/>
<stop offset="0.0001" stop-color="#F2F2F2"/>
<stop offset="0.0520833" stop-color="#F2F2F2" stop-opacity="0.948011"/>
<stop offset="1" stop-color="#F2F2F2" stop-opacity="0"/>
</linearGradient>
<linearGradient id="paint12_linear_579_49935" x1="156.015" y1="45.084" x2="210.871" y2="89.0685" gradientUnits="userSpaceOnUse">
<stop stop-color="#C59651"/>
<stop offset="0.536458" stop-color="#E0AE0D" stop-opacity="0.98"/>
<stop offset="1" stop-color="#FFF27B" stop-opacity="0.98"/>
</linearGradient>
<radialGradient id="paint13_radial_579_49935" cx="0" cy="0" r="1" gradientUnits="userSpaceOnUse" gradientTransform="translate(153.123 257.484) rotate(36.2538) scale(76.2928 67.5715)">
<stop offset="0.0989583" stop-color="#FFF27B"/>
<stop offset="0.703125" stop-color="#FBC412"/>
</radialGradient>
<radialGradient id="paint14_radial_579_49935" cx="0" cy="0" r="1" gradientUnits="userSpaceOnUse" gradientTransform="translate(153.057 257.94) rotate(36.2538) scale(76.2928 67.5715)">
<stop offset="0.0989583" stop-color="#FFB800"/>
<stop offset="1" stop-color="#E96D00"/>
</radialGradient>
<clipPath id="clip0_579_49935">
<rect width="349.997" height="349.997" fill="white"/>
</clipPath>
<clipPath id="clip1_579_49935">
<rect width="349.997" height="349.997" fill="white"/>
</clipPath>
<clipPath id="clip2_579_49935">
<rect width="350" height="350" fill="white"/>
</clipPath>
<clipPath id="clip3_579_49935">
<rect width="350" height="350" fill="white"/>
</clipPath>
</defs>
</svg>
