<svg width="350" height="350" viewBox="0 0 350 350" fill="none" xmlns="http://www.w3.org/2000/svg">
<g clip-path="url(#clip0_650_67224)">
<g clip-path="url(#clip1_650_67224)">
<g clip-path="url(#clip2_650_67224)">
<g filter="url(#filter0_f_650_67224)">
<rect x="350.08" y="350.045" width="350" height="350" transform="rotate(-180 350.08 350.045)" fill="#0E103E"/>
</g>
<g style="mix-blend-mode:overlay" filter="url(#filter1_f_650_67224)">
<ellipse rx="270.447" ry="92.7881" transform="matrix(0.999998 0.00221055 0.00221055 -0.999998 176.734 365.186)" fill="url(#paint0_radial_650_67224)"/>
</g>
<g style="mix-blend-mode:overlay" filter="url(#filter2_f_650_67224)">
<ellipse cx="174.396" cy="133.051" rx="273.297" ry="336.951" transform="rotate(0.126655 174.396 133.051)" fill="url(#paint1_radial_650_67224)"/>
</g>
<g opacity="0.6">
<circle cx="21.3368" cy="78.6415" r="1.16688" fill="white"/>
<circle cx="214.321" cy="248.225" r="1.16688" transform="rotate(165 214.321 248.225)" fill="white"/>
<circle cx="325.548" cy="113.156" r="1.16688" transform="rotate(75 325.548 113.156)" fill="white"/>
<circle cx="340.034" cy="124.932" r="1.16688" transform="rotate(75 340.034 124.932)" fill="white"/>
<circle cx="322.718" cy="82.5492" r="1.16688" transform="rotate(75 322.718 82.5492)" fill="white"/>
<circle cx="157.077" cy="146.73" r="1.16688" transform="rotate(75 157.077 146.73)" fill="white"/>
<circle cx="266.452" cy="142.628" r="1.16688" transform="rotate(75 266.452 142.628)" fill="white"/>
<circle cx="8.71981" cy="30.1401" r="1.16688" transform="rotate(75 8.71981 30.1401)" fill="white"/>
<circle cx="64.4345" cy="118.315" r="1.16688" fill="white"/>
<circle cx="162.424" cy="221.057" r="1.16688" transform="rotate(165 162.424 221.057)" fill="white"/>
<circle cx="298.38" cy="165.052" r="1.16688" transform="rotate(75 298.38 165.052)" fill="white"/>
<circle cx="129.909" cy="198.626" r="1.16688" transform="rotate(75 129.909 198.626)" fill="white"/>
<circle cx="239.284" cy="194.525" r="1.16688" transform="rotate(75 239.284 194.525)" fill="white"/>
<circle cx="40.587" cy="93.808" r="1.16688" transform="rotate(75 40.587 93.808)" fill="white"/>
<circle cx="58.3661" cy="79.7304" r="1.16688" fill="white"/>
<circle cx="178.272" cy="256.756" r="1.16688" transform="rotate(165 178.272 256.756)" fill="white"/>
<circle cx="334.079" cy="149.205" r="1.16688" transform="rotate(75 334.079 149.205)" fill="white"/>
<circle cx="165.608" cy="182.779" r="1.16688" transform="rotate(75 165.608 182.779)" fill="white"/>
<circle cx="274.983" cy="178.677" r="1.16688" transform="rotate(75 274.983 178.677)" fill="white"/>
<circle cx="294.007" cy="195.115" r="1.16688" transform="rotate(75 294.007 195.115)" fill="white"/>
<circle cx="67.0538" cy="101.69" r="1.16688" transform="rotate(75 67.0538 101.69)" fill="white"/>
<circle cx="17.2919" cy="169.813" r="1.16688" fill="white"/>
<circle cx="194.631" cy="159.112" r="1.16688" transform="rotate(165 194.631 159.112)" fill="white"/>
<circle cx="236.435" cy="132.845" r="1.16688" transform="rotate(75 236.435 132.845)" fill="white"/>
<circle cx="67.964" cy="166.419" r="1.16688" transform="rotate(75 67.964 166.419)" fill="white"/>
<circle cx="177.339" cy="162.318" r="1.16688" transform="rotate(75 177.339 162.318)" fill="white"/>
<circle cx="3.44422" cy="159.7" r="1.16688" fill="white"/>
<circle cx="210.624" cy="165.296" r="1.16688" transform="rotate(165 210.624 165.296)" fill="white"/>
<circle cx="242.618" cy="116.853" r="1.16688" transform="rotate(75 242.618 116.853)" fill="white"/>
<circle cx="74.1495" cy="150.427" r="1.16688" transform="rotate(75 74.1495 150.427)" fill="white"/>
<circle cx="183.525" cy="146.326" r="1.16688" transform="rotate(75 183.525 146.326)" fill="white"/>
<circle cx="52.2977" cy="174.792" r="1.16688" fill="white"/>
<circle cx="59.4989" cy="192.118" r="1.16688" fill="white"/>
<circle cx="159.53" cy="163.363" r="1.16688" transform="rotate(165 159.53 163.363)" fill="white"/>
<circle cx="278.968" cy="303.578" r="1.16688" transform="rotate(75 278.968 303.578)" fill="white"/>
<circle cx="72.2159" cy="201.521" r="1.16688" transform="rotate(75 72.2159 201.521)" fill="white"/>
<circle cx="181.591" cy="197.419" r="1.16688" transform="rotate(75 181.591 197.419)" fill="white"/>
<circle cx="9.20203" cy="90.7772" r="1.16688" fill="white"/>
<circle cx="222.903" cy="233.361" r="1.16688" transform="rotate(165 222.903 233.361)" fill="white"/>
<circle cx="310.685" cy="104.575" r="1.16688" transform="rotate(75 310.685 104.575)" fill="white"/>
<circle cx="214.253" cy="306.768" r="1.16688" transform="rotate(75 214.253 306.768)" fill="white"/>
<circle cx="251.589" cy="134.047" r="1.16688" transform="rotate(75 251.589 134.047)" fill="white"/>
<circle cx="10.087" cy="12.3666" r="1.16688" transform="rotate(75 10.087 12.3666)" fill="white"/>
<circle cx="320.177" cy="231.31" r="1.16688" fill="white"/>
<circle cx="217.76" cy="208.162" r="1.16688" transform="rotate(165 217.76 208.162)" fill="white"/>
<circle cx="216.987" cy="70.7006" r="1.16688" transform="rotate(75 216.987 70.7006)" fill="white"/>
<circle cx="117.015" cy="143.289" r="1.16688" transform="rotate(75 117.015 143.289)" fill="white"/>
<circle cx="226.39" cy="139.188" r="1.16688" transform="rotate(75 226.39 139.188)" fill="white"/>
<circle cx="27.6925" cy="38.4721" r="1.16688" transform="rotate(75 27.6925 38.4721)" fill="white"/>
<circle cx="23.6708" cy="121.893" r="1.16688" fill="white"/>
<circle cx="200.874" cy="207.05" r="1.16688" transform="rotate(165 200.874 207.05)" fill="white"/>
<circle cx="284.372" cy="126.604" r="1.16688" transform="rotate(75 284.372 126.604)" fill="white"/>
<circle cx="13.7335" cy="323.63" r="1.16688" transform="rotate(75 13.7335 323.63)" fill="white"/>
<circle cx="225.278" cy="156.077" r="1.16688" transform="rotate(75 225.278 156.077)" fill="white"/>
<circle cx="26.5792" cy="55.3608" r="1.16688" transform="rotate(75 26.5792 55.3608)" fill="white"/>
<circle cx="43.0927" cy="61.3231" r="1.16688" fill="white"/>
<circle cx="49.4735" cy="27.1434" r="1.16688" fill="white"/>
<circle cx="69.5263" cy="41.2714" r="1.16688" fill="white"/>
<circle cx="81.3739" cy="11.1932" r="1.16688" fill="white"/>
<circle cx="273.692" cy="83.6542" r="1.16688" fill="white"/>
<circle cx="312.886" cy="35.8026" r="1.16688" fill="white"/>
<circle cx="253.64" cy="54.9432" r="1.16688" fill="white"/>
<circle cx="249.083" cy="29.4227" r="1.16688" fill="white"/>
<circle cx="167.052" cy="5.72449" r="1.16688" fill="white"/>
<circle cx="133.784" cy="8.91492" r="1.16688" fill="white"/>
<circle cx="136.061" cy="40.8153" r="1.16688" fill="white"/>
<circle cx="90.4891" cy="71.8055" r="1.16688" fill="white"/>
<circle cx="208.067" cy="17.5731" r="1.16688" fill="white"/>
<circle cx="219.005" cy="47.1962" r="1.16688" fill="white"/>
<circle cx="243.614" cy="90.0341" r="1.16688" fill="white"/>
<circle cx="123.302" cy="71.8055" r="1.16688" fill="white"/>
<circle cx="107.808" cy="96.4149" r="1.16688" fill="white"/>
<circle cx="144.319" cy="266.498" r="1.16688" transform="rotate(165 144.319 266.498)" fill="white"/>
<circle cx="343.821" cy="183.158" r="1.16688" transform="rotate(75 343.821 183.158)" fill="white"/>
<circle cx="175.351" cy="216.732" r="1.16688" transform="rotate(75 175.351 216.732)" fill="white"/>
<circle cx="284.726" cy="212.63" r="1.16688" transform="rotate(75 284.726 212.63)" fill="white"/>
<circle cx="86.0284" cy="111.914" r="1.16688" transform="rotate(75 86.0284 111.914)" fill="white"/>
<circle cx="9.37" cy="55.8544" r="1.16688" fill="white"/>
<circle cx="126.225" cy="263.293" r="1.16688" transform="rotate(165 126.225 263.293)" fill="white"/>
<circle cx="340.616" cy="201.251" r="1.16688" transform="rotate(75 340.616 201.251)" fill="white"/>
<circle cx="114.448" cy="331.377" r="1.16688" transform="rotate(75 114.448 331.377)" fill="white"/>
<circle cx="281.521" cy="230.724" r="1.16688" transform="rotate(75 281.521 230.724)" fill="white"/>
<circle cx="308.134" cy="246.157" r="1.16688" transform="rotate(75 308.134 246.157)" fill="white"/>
<circle cx="279.878" cy="253.904" r="1.16688" transform="rotate(75 279.878 253.904)" fill="white"/>
<circle cx="239.775" cy="278.513" r="1.16688" transform="rotate(75 239.775 278.513)" fill="white"/>
<circle cx="197.847" cy="185.088" r="1.16688" transform="rotate(75 197.847 185.088)" fill="white"/>
<circle cx="144.983" cy="206.963" r="1.16688" transform="rotate(75 144.983 206.963)" fill="white"/>
<circle cx="145.894" cy="244.333" r="1.16688" transform="rotate(75 145.894 244.333)" fill="white"/>
<circle cx="93.9405" cy="209.698" r="1.16688" transform="rotate(75 93.9405 209.698)" fill="white"/>
<circle cx="93.0304" cy="184.177" r="1.16688" transform="rotate(75 93.0304 184.177)" fill="white"/>
<circle cx="82.8233" cy="130.007" r="1.16688" transform="rotate(75 82.8233 130.007)" fill="white"/>
<circle cx="101.774" cy="130.295" r="1.16688" fill="white"/>
<circle cx="123.256" cy="219.15" r="1.16688" transform="rotate(165 123.256 219.15)" fill="white"/>
<circle cx="326.362" cy="266.208" r="1.16688" transform="rotate(75 326.362 266.208)" fill="white"/>
<circle cx="313.603" cy="187.823" r="1.16688" transform="rotate(75 313.603 187.823)" fill="white"/>
<circle cx="321.806" cy="169.594" r="1.16688" transform="rotate(75 321.806 169.594)" fill="white"/>
<circle cx="285.347" cy="148.63" r="1.16688" transform="rotate(75 285.347 148.63)" fill="white"/>
<circle cx="329.097" cy="322.718" r="1.16688" transform="rotate(75 329.097 322.718)" fill="white"/>
<circle cx="255.726" cy="157.745" r="1.16688" transform="rotate(75 255.726 157.745)" fill="white"/>
<circle cx="337.757" cy="91.2084" r="1.16688" transform="rotate(75 337.757 91.2084)" fill="white"/>
<circle cx="341.401" cy="69.3334" r="1.16688" transform="rotate(75 341.401 69.3334)" fill="white"/>
<circle cx="128.003" cy="237.794" r="1.16688" transform="rotate(75 128.003 237.794)" fill="white"/>
<circle cx="237.378" cy="233.693" r="1.16688" transform="rotate(75 237.378 233.693)" fill="white"/>
<circle cx="247.066" cy="216.534" r="1.16688" transform="rotate(75 247.066 216.534)" fill="white"/>
<circle cx="221.546" cy="184.633" r="1.16688" transform="rotate(75 221.546 184.633)" fill="white"/>
<circle cx="38.6788" cy="132.977" r="1.16688" transform="rotate(75 38.6788 132.977)" fill="white"/>
<circle cx="46.7391" cy="342.053" r="1.16688" fill="white"/>
<circle cx="131.026" cy="187.43" r="1.16688" transform="rotate(165 131.026 187.43)" fill="white"/>
<circle cx="264.753" cy="196.452" r="1.16688" transform="rotate(75 264.753 196.452)" fill="white"/>
<circle cx="96.2823" cy="230.026" r="1.16688" transform="rotate(75 96.2823 230.026)" fill="white"/>
<circle cx="205.657" cy="225.924" r="1.16688" transform="rotate(75 205.657 225.924)" fill="white"/>
<circle cx="269.398" cy="336.846" r="1.16688" transform="rotate(75 269.398 336.846)" fill="white"/>
<circle cx="79.8368" cy="172.925" r="1.16688" fill="white"/>
<circle cx="133.413" cy="172.294" r="1.16688" transform="rotate(165 133.413 172.294)" fill="white"/>
<circle cx="249.616" cy="194.064" r="1.16688" transform="rotate(75 249.616 194.064)" fill="white"/>
<circle cx="81.1476" cy="227.638" r="1.16688" transform="rotate(75 81.1476 227.638)" fill="white"/>
<circle cx="190.523" cy="223.537" r="1.16688" transform="rotate(75 190.523 223.537)" fill="white"/>
<circle cx="105.663" cy="158.611" r="1.16688" fill="white"/>
<circle cx="112.17" cy="192.805" r="1.16688" transform="rotate(165 112.17 192.805)" fill="white"/>
<circle cx="270.128" cy="215.306" r="1.16688" transform="rotate(75 270.128 215.306)" fill="white"/>
<circle cx="101.657" cy="248.88" r="1.16688" transform="rotate(75 101.657 248.88)" fill="white"/>
<circle cx="211.032" cy="244.779" r="1.16688" transform="rotate(75 211.032 244.779)" fill="white"/>
<circle cx="12.335" cy="144.062" r="1.16688" transform="rotate(75 12.335 144.062)" fill="white"/>
<path d="M255.397 175.378L254.977 174.242L253.841 173.822L254.977 173.402L255.397 172.266L255.818 173.402L256.953 173.822L255.818 174.242L255.397 175.378Z" fill="#FFF7B0"/>
<path d="M88.8035 163.528L88.3833 162.393L87.2477 161.972L88.3833 161.552L88.8035 160.417L89.2238 161.552L90.3594 161.972L89.2238 162.393L88.8035 163.528Z" fill="#FFF7B0"/>
<path d="M53.7117 68.2812L53.2915 67.1456L52.1559 66.7254L53.2915 66.3052L53.7117 65.1696L54.132 66.3052L55.2676 66.7254L54.132 67.1456L53.7117 68.2812Z" fill="#FFF7B0"/>
<path d="M339.251 47.7734L338.831 46.6378L337.695 46.2176L338.831 45.7974L339.251 44.6618L339.671 45.7974L340.807 46.2176L339.671 46.6378L339.251 47.7734Z" fill="#FFF7B0"/>
<path d="M239.907 220.862L239.487 219.727L238.351 219.306L239.487 218.886L239.907 217.751L240.327 218.886L241.463 219.306L240.327 219.727L239.907 220.862Z" fill="#FFF7B0"/>
<path d="M80.4012 217.672L79.981 216.536L78.8454 216.116L79.981 215.696L80.4012 214.56L80.8214 215.696L81.957 216.116L80.8214 216.536L80.4012 217.672Z" fill="#FFF7B0"/>
<path d="M45.3094 122.425L44.8892 121.289L43.7536 120.869L44.8892 120.449L45.3094 119.313L45.7296 120.449L46.8652 120.869L45.7296 121.289L45.3094 122.425Z" fill="#FFF7B0"/>
<path d="M288.214 116.5L287.793 115.364L286.658 114.944L287.793 114.524L288.214 113.388L288.634 114.524L289.77 114.944L288.634 115.364L288.214 116.5Z" fill="#FFF7B0"/>
<path d="M250.641 205.148L250.221 204.013L249.086 203.593L250.221 203.172L250.641 202.037L251.062 203.172L252.197 203.593L251.062 204.013L250.641 205.148Z" fill="#FFF7B0"/>
<path d="M91.1356 201.958L90.7154 200.822L89.5797 200.402L90.7154 199.982L91.1356 198.846L91.5558 199.982L92.6914 200.402L91.5558 200.822L91.1356 201.958Z" fill="#FFF7B0"/>
<path d="M56.0457 106.711L55.6255 105.575L54.4899 105.155L55.6255 104.735L56.0457 103.599L56.4659 104.735L57.6016 105.155L56.4659 105.575L56.0457 106.711Z" fill="#FFF7B0"/>
<path d="M298.948 100.786L298.528 99.6505L297.392 99.2303L298.528 98.8101L298.948 97.6745L299.368 98.8101L300.504 99.2303L299.368 99.6505L298.948 100.786Z" fill="#FFF7B0"/>
<path d="M248.307 243.577L247.887 242.442L246.752 242.021L247.887 241.601L248.307 240.465L248.728 241.601L249.863 242.021L248.728 242.442L248.307 243.577Z" fill="#FFF7B0"/>
<path d="M270.891 243.737L270.471 242.602L269.336 242.181L270.471 241.761L270.891 240.626L271.312 241.761L272.447 242.181L271.312 242.602L270.891 243.737Z" fill="#FFF7B0"/>
<path d="M254.485 258.32L254.065 257.185L252.929 256.764L254.065 256.344L254.485 255.209L254.905 256.344L256.041 256.764L254.905 257.185L254.485 258.32Z" fill="#FFF7B0"/>
<path d="M88.8035 240.388L88.3833 239.252L87.2477 238.832L88.3833 238.412L88.8035 237.276L89.2238 238.412L90.3594 238.832L89.2238 239.252L88.8035 240.388Z" fill="#FFF7B0"/>
<path d="M53.7117 145.14L53.2915 144.004L52.1559 143.584L53.2915 143.164L53.7117 142.028L54.132 143.164L55.2676 143.584L54.132 144.004L53.7117 145.14Z" fill="#FFF7B0"/>
<path d="M296.614 139.216L296.194 138.08L295.058 137.66L296.194 137.24L296.614 136.104L297.034 137.24L298.17 137.66L297.034 138.08L296.614 139.216Z" fill="#FFF7B0"/>
<path d="M161.316 310.329L160.581 308.342L158.594 307.606L160.581 306.871L161.316 304.884L162.052 306.871L164.039 307.606L162.052 308.342L161.316 310.329Z" fill="#FFF7B0"/>
<path d="M110.662 247.233L109.927 245.246L107.939 244.511L109.927 243.775L110.662 241.788L111.397 243.775L113.385 244.511L111.397 245.246L110.662 247.233Z" fill="#FFF7B0"/>
<path d="M91.1328 146.722L90.3974 144.734L88.41 143.999L90.3974 143.264L91.1328 141.276L91.8681 143.264L93.8555 143.999L91.8681 144.734L91.1328 146.722Z" fill="#FFF7B0"/>
<path d="M98.4257 43.7266L97.6903 41.7392L95.703 41.0038L97.6903 40.2685L98.4257 38.2811L99.1611 40.2685L101.148 41.0038L99.1611 41.7392L98.4257 43.7266Z" fill="#FFF7B0"/>
<path d="M311.25 209.612L310.515 207.625L308.527 206.89L310.515 206.154L311.25 204.167L311.985 206.154L313.973 206.89L311.985 207.625L311.25 209.612Z" fill="#FFF7B0"/>
<path d="M221.314 199.392L220.579 197.404L218.592 196.669L220.579 195.934L221.314 193.946L222.05 195.934L224.037 196.669L222.05 197.404L221.314 199.392Z" fill="#FFF7B0"/>
<path d="M65.6132 303.493L64.8778 301.506L62.8905 300.77L64.8778 300.035L65.6132 298.048L66.3486 300.035L68.3359 300.77L66.3486 301.506L65.6132 303.493Z" fill="#FFF7B0"/>
<path d="M26.7167 100.954L25.9814 98.9668L23.994 98.2314L25.9814 97.496L26.7167 95.5087L27.4521 97.496L29.4395 98.2314L27.4521 98.9668L26.7167 100.954Z" fill="#FFF7B0"/>
<path d="M301.68 86.1104L300.944 84.123L298.957 83.3876L300.944 82.6523L301.68 80.6649L302.415 82.6523L304.402 83.3876L302.415 84.123L301.68 86.1104Z" fill="#FFF7B0"/>
<path d="M287.098 50.5635L286.362 48.5761L284.375 47.8408L286.362 47.1054L287.098 45.118L287.833 47.1054L289.82 47.8408L287.833 48.5761L287.098 50.5635Z" fill="#FFF7B0"/>
<path d="M335.859 5.90137L335.124 3.91403L333.137 3.17865L335.124 2.44327L335.859 0.455936L336.595 2.44327L338.582 3.17865L336.595 3.91403L335.859 5.90137Z" fill="#FFF7B0"/>
<path d="M264.723 228.33L263.987 226.343L262 225.607L263.987 224.872L264.723 222.885L265.458 224.872L267.445 225.607L265.458 226.343L264.723 228.33Z" fill="#FFF7B0"/>
<path d="M292.109 267.49L291.374 265.503L289.387 264.768L291.374 264.032L292.109 262.045L292.845 264.032L294.832 264.768L292.845 265.503L292.109 267.49Z" fill="#FFF7B0"/>
<path d="M264.766 284.808L264.03 282.82L262.043 282.085L264.03 281.35L264.766 279.362L265.501 281.35L267.488 282.085L265.501 282.82L264.766 284.808Z" fill="#FFF7B0"/>
<path d="M105.217 225.14L104.481 223.152L102.494 222.417L104.481 221.682L105.217 219.694L105.952 221.682L107.939 222.417L105.952 223.152L105.217 225.14Z" fill="#FFF7B0"/>
<path d="M16.3945 261.11L15.6591 259.123L13.6718 258.388L15.6591 257.652L16.3945 255.665L17.1299 257.652L19.1172 258.388L17.1299 259.123L16.3945 261.11Z" fill="#FFF7B0"/>
<path d="M313.029 123.968L312.294 121.98L310.307 121.245L312.294 120.51L313.029 118.522L313.765 120.51L315.752 121.245L313.765 121.98L313.029 123.968Z" fill="#FFF7B0"/>
<path d="M280.125 170.608L279.39 168.621L277.402 167.886L279.39 167.15L280.125 165.163L280.86 167.15L282.848 167.886L280.86 168.621L280.125 170.608Z" fill="#FFF7B0"/>
<path d="M232.41 175.889L231.675 173.901L229.687 173.166L231.675 172.431L232.41 170.443L233.145 172.431L235.133 173.166L233.145 173.901L232.41 175.889Z" fill="#FFF7B0"/>
<path d="M29.1542 236.045L28.4189 234.058L26.4315 233.322L28.4189 232.587L29.1542 230.599L29.8896 232.587L31.877 233.322L29.8896 234.058L29.1542 236.045Z" fill="#FFF7B0"/>
<path d="M73.8163 273.415L73.081 271.428L71.0936 270.692L73.081 269.957L73.8163 267.97L74.5517 269.957L76.5391 270.692L74.5517 271.428L73.8163 273.415Z" fill="#FFF7B0"/>
<path d="M37.8255 287.109L36.2254 282.785L31.901 281.185L36.2254 279.585L37.8255 275.26L39.4257 279.585L43.75 281.185L39.4257 282.785L37.8255 287.109Z" fill="#FFF7B0"/>
<path d="M114.843 25.9766L113.243 21.6522L108.919 20.0521L113.243 18.4519L114.843 14.1276L116.443 18.4519L120.768 20.0521L116.443 21.6522L114.843 25.9766Z" fill="#FFF7B0"/>
<path d="M313.997 154.948L312.397 150.624L308.073 149.024L312.397 147.424L313.997 143.099L315.598 147.424L319.922 149.024L315.598 150.624L313.997 154.948Z" fill="#FFF7B0"/>
<path d="M121.668 298.024L120.933 296.037L118.945 295.302L120.933 294.566L121.668 292.579L122.403 294.566L124.391 295.302L122.403 296.037L121.668 298.024Z" fill="#FFF7B0"/>
<path d="M36.4453 185.915L35.7099 183.928L33.7225 183.192L35.7099 182.457L36.4453 180.47L37.1806 182.457L39.168 183.192L37.1806 183.928L36.4453 185.915Z" fill="#FFF7B0"/>
<path d="M328.432 66.2461L327.696 64.2588L325.709 63.5234L327.696 62.788L328.432 60.8007L329.167 62.788L331.154 63.5234L329.167 64.2588L328.432 66.2461Z" fill="#FFF7B0"/>
<path d="M280.262 19.1172L279.526 17.1299L277.539 16.3945L279.526 15.6591L280.262 13.6718L280.997 15.6591L282.984 16.3945L280.997 17.1299L280.262 19.1172Z" fill="#FFF7B0"/>
<path d="M227.46 250.423L227.04 249.287L225.904 248.867L227.04 248.447L227.46 247.311L227.88 248.447L229.016 248.867L227.88 249.287L227.46 250.423Z" fill="#FFF7B0"/>
<path d="M67.9539 247.233L67.5337 246.098L66.3981 245.678L67.5337 245.257L67.9539 244.122L68.3741 245.257L69.5098 245.678L68.3741 246.098L67.9539 247.233Z" fill="#FFF7B0"/>
<path d="M32.8641 151.985L32.4439 150.85L31.3082 150.43L32.4439 150.009L32.8641 148.874L33.2843 150.009L34.4199 150.43L33.2843 150.85L32.8641 151.985Z" fill="#FFF7B0"/>
<path d="M275.766 146.062L275.346 144.926L274.211 144.506L275.346 144.085L275.766 142.95L276.187 144.085L277.322 144.506L276.187 144.926L275.766 146.062Z" fill="#FFF7B0"/>
<path d="M210.657 227.396L210.237 226.261L209.101 225.841L210.237 225.42L210.657 224.285L211.077 225.42L212.213 225.841L211.077 226.261L210.657 227.396Z" fill="#FFF7B0"/>
<path d="M51.1512 224.207L50.731 223.071L49.5954 222.651L50.731 222.231L51.1512 221.095L51.5714 222.231L52.707 222.651L51.5714 223.071L51.1512 224.207Z" fill="#FFF7B0"/>
<path d="M196.151 340.808L195.731 339.672L194.595 339.252L195.731 338.832L196.151 337.696L196.571 338.832L197.707 339.252L196.571 339.672L196.151 340.808Z" fill="#FFF7B0"/>
<path d="M258.964 123.035L258.543 121.9L257.408 121.479L258.543 121.059L258.964 119.923L259.384 121.059L260.52 121.479L259.384 121.9L258.964 123.035Z" fill="#FFF7B0"/>
<path d="M249.472 297.058L249.051 295.922L247.916 295.502L249.051 295.082L249.472 293.946L249.892 295.082L251.027 295.502L249.892 295.922L249.472 297.058Z" fill="#FFF7B0"/>
<path d="M48.0399 263.103L47.6196 261.967L46.484 261.547L47.6196 261.126L48.0399 259.991L48.4601 261.126L49.5957 261.547L48.4601 261.967L48.0399 263.103Z" fill="#FFF7B0"/>
<path d="M15.6824 205.911L15.2622 204.776L14.1266 204.355L15.2622 203.935L15.6824 202.799L16.1027 203.935L17.2383 204.355L16.1027 204.776L15.6824 205.911Z" fill="#FFF7B0"/>
<path d="M266.79 160.339L266.37 159.203L265.234 158.783L266.37 158.363L266.79 157.227L267.21 158.363L268.346 158.783L267.21 159.203L266.79 160.339Z" fill="#FFF7B0"/>
</g>
</g>
<path d="M148.648 94.335L124.888 210.017C124.817 210.362 124.947 210.713 125.237 210.915C128.357 213.082 146.959 225.128 174.999 225.128C203.039 225.128 221.641 213.082 224.761 210.915C225.051 210.713 225.181 210.362 225.11 210.017L201.35 94.335C201.316 94.4019 201.272 94.4642 201.217 94.5197C199.881 95.8684 193.226 101.484 174.999 101.484C156.772 101.484 150.116 95.8684 148.781 94.5197C148.726 94.4642 148.682 94.4019 148.648 94.335Z" fill="#7B5BFA" fill-opacity="0.75"/>
<path d="M223.11 211.89C217.523 215.445 199.997 225.13 174.888 225.13C146.902 225.13 128.336 213.098 125.223 210.933C125.033 210.802 124.912 210.606 124.871 210.39C128.809 199.005 144.116 175.86 164.065 181.919C173.944 184.92 180.86 192.452 187.365 199.536C197.439 210.508 206.525 220.405 224.106 210.722C223.784 211.11 223.451 211.499 223.11 211.89Z" fill="url(#paint2_radial_650_67224)"/>
<path d="M214.052 156.62L218.832 179.91C216.933 182.156 214.118 184.13 210.037 185.164C197.279 188.398 184.115 181.122 184.115 170.208C184.115 164.751 187.923 153.877 203.152 154.039C207.743 154.088 211.309 155.093 214.052 156.62Z" fill="url(#paint3_radial_650_67224)"/>
<path d="M177.736 130.914C177.736 127.952 179.776 122.049 187.934 122.137C196.093 122.224 198.205 128.025 198.241 130.914C198.313 133.035 197.091 137.629 191.623 139.033C184.788 140.789 177.736 136.839 177.736 130.914Z" fill="url(#paint4_radial_650_67224)"/>
<mask id="mask0_650_67224" style="mask-type:alpha" maskUnits="userSpaceOnUse" x="124" y="180" width="101" height="46">
<path d="M223.108 211.888C217.521 215.443 199.995 225.128 174.886 225.128C146.9 225.128 128.335 213.096 125.221 210.931C125.031 210.8 124.91 210.604 124.869 210.388C128.807 199.003 144.114 175.858 164.063 181.917C173.942 184.918 180.858 192.45 187.363 199.534C197.437 210.506 206.524 220.403 224.104 210.72C223.782 211.108 223.449 211.497 223.108 211.888Z" fill="url(#paint5_radial_650_67224)"/>
</mask>
<g mask="url(#mask0_650_67224)">
<g filter="url(#filter3_f_650_67224)">
<mask id="mask1_650_67224" style="mask-type:alpha" maskUnits="userSpaceOnUse" x="124" y="94" width="102" height="132">
<path d="M148.861 95.063C148.948 94.6391 149.321 94.335 149.753 94.335H200.244C200.677 94.335 201.05 94.6391 201.137 95.063L224.991 211.157C225.073 211.553 224.886 211.953 224.525 212.135C220.622 214.107 198.374 224.815 174.999 225.125C151.577 225.436 129.287 214.176 125.449 212.139C125.099 211.952 124.923 211.56 125.003 211.171L148.861 95.063Z" fill="#577096" fill-opacity="0.75"/>
</mask>
<g mask="url(#mask1_650_67224)">
<g filter="url(#filter4_f_650_67224)">
<path d="M155.407 125.301C156.469 105.017 134.471 86.1826 128.929 66.9985C133.388 65.1973 144.05 70.7896 152.675 76.1246C163.455 82.7934 162.878 109.123 164.625 125.783C166.022 139.111 148.453 223.4 144.015 241.48L131.716 240.836C140.242 214.679 154.587 140.954 155.407 125.301Z" fill="url(#paint6_linear_650_67224)" fill-opacity="0.6"/>
</g>
</g>
</g>
</g>
<g filter="url(#filter5_d_650_67224)">
<path d="M147.433 221.637C147.224 220.752 145.976 220.678 145.653 221.528C135.556 248.09 116.919 274.655 115.806 335.228C115.787 336.265 117.24 336.496 117.576 335.515C131.888 293.711 145.728 277.769 159.918 280.902C160.609 281.055 161.264 280.446 161.102 279.757L147.433 221.637Z" fill="url(#paint7_linear_650_67224)"/>
<path d="M202.564 221.637C202.772 220.752 204.02 220.678 204.343 221.528C214.44 248.09 233.077 274.655 234.19 335.228C234.209 336.265 232.756 336.496 232.42 335.515C218.108 293.711 204.268 277.769 190.078 280.902C189.387 281.055 188.732 280.446 188.894 279.757L202.564 221.637Z" fill="url(#paint8_linear_650_67224)"/>
<path d="M125.847 211.154C125.099 210.746 124.17 211.484 124.419 212.299L137.221 254.13C137.226 254.146 137.224 254.143 137.23 254.158C137.413 254.656 153.264 297.585 174.997 297.585C196.731 297.585 212.582 254.656 212.765 254.158C212.771 254.143 212.769 254.146 212.774 254.13L225.576 212.299C225.825 211.484 224.896 210.746 224.148 211.154C218.249 214.371 200.593 222.64 174.997 222.64C149.401 222.64 131.746 214.371 125.847 211.154Z" fill="url(#paint9_linear_650_67224)"/>
<path d="M174.998 223.319C174.998 222.371 176.242 222.066 176.662 222.916C189.644 249.183 192.089 279.871 192.249 338.858C192.252 339.92 190.942 340.084 190.742 339.041C187.343 321.296 188.494 303.065 175.214 287.113C175.076 286.948 174.998 286.737 174.998 286.522V223.319Z" fill="url(#paint10_linear_650_67224)"/>
</g>
<path d="M155.657 61.9395C159.111 48.962 161.897 32.3564 174.784 32.3564C187.67 32.3564 192.184 52.9167 194.34 62.2559C196.326 70.8603 200.671 90.7619 201.343 93.84C201.4 94.1046 201.333 94.3659 201.144 94.5594C199.761 95.9711 193.093 101.627 174.998 101.627C156.849 101.627 150.196 95.9368 148.841 94.5467C148.658 94.3593 148.592 94.1066 148.641 93.8496C149.176 91.0428 152.492 73.8275 155.657 61.9395Z" fill="url(#paint11_linear_650_67224)"/>
<g filter="url(#filter6_d_650_67224)">
<path d="M130.999 154.49C132.15 149.477 130.8 146.279 128.887 145.372C125.473 143.755 122.56 149.427 122.022 153.568C121.483 157.709 122.146 160.536 123.961 161.39C125.777 162.243 129.847 159.503 130.999 154.49Z" fill="#6DF244"/>
<path d="M100.212 190.945C99.0017 189.835 98.0935 188.541 97.4789 187.155L81.7388 187.434L81.6133 180.363L96.7603 180.094C97.3926 177.146 99.1826 174.424 102.053 172.698L106.117 170.254C108.851 168.61 111.937 168.254 114.742 168.945L121.802 156.199L127.988 159.626L120.764 172.669C121.712 173.789 122.462 175.119 122.937 176.629L127.602 197.103L124.412 212.37L100.212 190.945Z" fill="url(#paint12_radial_650_67224)"/>
<path d="M75.793 187.683C70.8252 186.35 68.6336 183.658 68.7301 181.543C68.9023 177.769 75.278 177.856 79.1881 179.323C83.0983 180.789 85.2845 182.7 85.1871 184.704C85.0898 186.707 80.7607 189.017 75.793 187.683Z" fill="#6DF244"/>
<path d="M62.564 151.617C60.244 144.391 59.9498 118.89 68.6994 113.629C77.449 108.368 99.0653 121.05 104.936 126.14C110.806 131.231 117.27 136.312 117.037 147.628C116.743 161.869 108.128 171.872 104.793 173.877C101.458 175.882 88.5832 178.8 75.8678 172.381C65.7642 167.281 64.884 158.842 62.564 151.617Z" fill="#6DF244"/>
<path d="M62.564 151.617C60.244 144.391 59.9498 118.89 68.6994 113.629C77.449 108.368 99.0653 121.05 104.936 126.14C110.806 131.231 117.27 136.312 117.037 147.628C116.743 161.869 108.128 171.872 104.793 173.877C101.458 175.882 88.5832 178.8 75.8678 172.381C65.7642 167.281 64.884 158.842 62.564 151.617Z" fill="url(#paint13_linear_650_67224)" fill-opacity="0.8"/>
<path d="M76.5187 168.942C69.103 164.997 66.6376 159.91 67.6021 156.58C69.3232 150.638 79.4633 153.115 85.1405 156.883C90.8178 160.65 93.5737 164.494 92.6506 167.646C91.7275 170.799 83.9343 172.887 76.5187 168.942Z" stroke="url(#paint14_linear_650_67224)" stroke-width="0.880654"/>
<path fill-rule="evenodd" clip-rule="evenodd" d="M103.54 171.792C104.869 171.141 106.676 168.883 105.706 163.64L100.13 166.993L100.13 166.993L95.3223 169.884C99.4995 173.199 102.342 172.662 103.54 171.792Z" fill="#57BF37"/>
<path d="M113.134 146.386C113.191 138.874 110.214 134.817 107.157 134.208C101.702 133.121 99.3088 142.19 99.8581 148.25C100.407 154.31 102.273 158.084 105.171 158.653C108.069 159.221 113.076 153.899 113.134 146.386Z" fill="#070707" stroke="#070707" stroke-width="0.220163"/>
<path d="M113.469 146.725C113.505 138.3 110.163 133.739 106.744 133.045C100.643 131.806 98.0024 141.968 98.6386 148.767C99.2748 155.565 101.373 159.804 104.614 160.453C107.856 161.101 113.432 155.151 113.469 146.725Z" stroke="url(#paint15_linear_650_67224)" stroke-width="0.880654"/>
<path d="M113.853 146.494C113.89 138.068 110.548 133.508 107.129 132.814C101.028 131.574 98.3872 141.736 99.0234 148.535C99.6595 155.334 101.758 159.573 104.999 160.221C108.241 160.87 113.817 154.919 113.853 146.494Z" stroke="url(#paint16_linear_650_67224)" stroke-width="0.880654"/>
<path d="M108.908 137.16C107.644 135.823 106.435 135.631 105.798 136.061C104.661 136.829 105.78 138.852 106.904 139.825C108.028 140.799 108.994 141.137 109.597 140.728C110.199 140.318 110.172 138.497 108.908 137.16Z" fill="url(#paint17_radial_650_67224)"/>
<path fill-rule="evenodd" clip-rule="evenodd" d="M98.7909 163.896C98.13 164.19 96.7259 165.199 96.3969 166.881L99.4737 165.031L102.55 163.181C100.91 162.683 99.3607 163.45 98.7909 163.896Z" fill="#57BF37"/>
<path d="M76.7609 168.257C70.1415 164.759 67.9499 160.23 68.8201 157.259C70.3729 151.959 79.4311 154.142 84.497 157.487C89.5629 160.832 92.0172 164.251 91.1845 167.063C90.3517 169.875 83.3804 171.755 76.7609 168.257Z" fill="#070707" stroke="#070707" stroke-width="0.220163"/>
<path d="M70.4977 160.255C69.9097 158.511 70.3062 157.354 70.9852 156.993C72.1968 156.348 73.4581 158.286 73.7911 159.735C74.124 161.184 73.9699 162.196 73.3254 162.536C72.681 162.876 71.0858 161.998 70.4977 160.255Z" fill="url(#paint18_radial_650_67224)"/>
<path d="M76.5187 168.942C69.103 164.997 66.6376 159.91 67.6021 156.58C69.3232 150.638 79.4633 153.115 85.1405 156.883C90.8178 160.65 93.5737 164.494 92.6506 167.646C91.7275 170.799 83.9343 172.887 76.5187 168.942Z" stroke="url(#paint19_linear_650_67224)" stroke-width="0.880654"/>
<rect width="4.0506" height="27.9009" transform="matrix(0.99987 -0.0160966 0.0193936 0.999812 87.3574 106.92)" fill="#6DF244"/>
<path d="M95.2877 103.652C95.2926 97.7489 92.9482 94.5455 90.5599 94.0505C86.2983 93.1673 84.4797 100.281 84.9405 105.046C85.4013 109.811 86.8765 112.786 89.1407 113.249C91.4049 113.711 95.2829 109.556 95.2877 103.652Z" fill="#57BF37"/>
<rect width="4.05059" height="27.9009" transform="matrix(-0.483106 0.875562 0.873962 0.485994 53.9727 126.993)" fill="#6DF244"/>
<path d="M47.3681 132.466C42.1518 129.701 40.4219 126.129 41.1047 123.787C42.323 119.609 49.4589 121.339 53.4515 123.98C57.444 126.622 59.3799 129.32 58.7265 131.537C58.0731 133.753 52.5843 135.23 47.3681 132.466Z" fill="#57BF37"/>
<g filter="url(#filter7_d_650_67224)">
<circle cx="110.523" cy="181.467" r="4.33642" transform="rotate(-6.77196 110.523 181.467)" fill="url(#paint20_radial_650_67224)" stroke="#56CCF2" stroke-width="0.47927"/>
<g filter="url(#filter8_d_650_67224)">
<path d="M114.083 179.006C117.013 178.182 118.278 177.96 118.426 178.383C118.637 178.985 115.662 181.231 110.761 182.947C105.86 184.663 102.543 185.004 102.332 184.402C102.182 183.972 103.246 182.992 106.119 181.786" stroke="#6DF244" stroke-width="0.684672"/>
</g>
</g>
</g>
</g>
</g>
<defs>
<filter id="filter0_f_650_67224" x="-1.74284" y="-1.77799" width="353.646" height="353.646" filterUnits="userSpaceOnUse" color-interpolation-filters="sRGB">
<feFlood flood-opacity="0" result="BackgroundImageFix"/>
<feBlend mode="normal" in="SourceGraphic" in2="BackgroundImageFix" result="shape"/>
<feGaussianBlur stdDeviation="0.911458" result="effect1_foregroundBlur_650_67224"/>
</filter>
<filter id="filter1_f_650_67224" x="-98.2702" y="267.839" width="550.007" height="194.694" filterUnits="userSpaceOnUse" color-interpolation-filters="sRGB">
<feFlood flood-opacity="0" result="BackgroundImageFix"/>
<feBlend mode="normal" in="SourceGraphic" in2="BackgroundImageFix" result="shape"/>
<feGaussianBlur stdDeviation="2.27865" result="effect1_foregroundBlur_650_67224"/>
</filter>
<filter id="filter2_f_650_67224" x="-103.46" y="-208.457" width="555.71" height="683.016" filterUnits="userSpaceOnUse" color-interpolation-filters="sRGB">
<feFlood flood-opacity="0" result="BackgroundImageFix"/>
<feBlend mode="normal" in="SourceGraphic" in2="BackgroundImageFix" result="shape"/>
<feGaussianBlur stdDeviation="2.27865" result="effect1_foregroundBlur_650_67224"/>
</filter>
<filter id="filter3_f_650_67224" x="122.591" y="92.0563" width="104.817" height="135.354" filterUnits="userSpaceOnUse" color-interpolation-filters="sRGB">
<feFlood flood-opacity="0" result="BackgroundImageFix"/>
<feBlend mode="normal" in="SourceGraphic" in2="BackgroundImageFix" result="shape"/>
<feGaussianBlur stdDeviation="1.13931" result="effect1_foregroundBlur_650_67224"/>
</filter>
<filter id="filter4_f_650_67224" x="128.018" y="65.7428" width="37.5963" height="176.648" filterUnits="userSpaceOnUse" color-interpolation-filters="sRGB">
<feFlood flood-opacity="0" result="BackgroundImageFix"/>
<feBlend mode="normal" in="SourceGraphic" in2="BackgroundImageFix" result="shape"/>
<feGaussianBlur stdDeviation="0.455725" result="effect1_foregroundBlur_650_67224"/>
</filter>
<filter id="filter5_d_650_67224" x="113.528" y="211.038" width="123.852" height="134.175" filterUnits="userSpaceOnUse" color-interpolation-filters="sRGB">
<feFlood flood-opacity="0" result="BackgroundImageFix"/>
<feColorMatrix in="SourceAlpha" type="matrix" values="0 0 0 0 0 0 0 0 0 0 0 0 0 0 0 0 0 0 127 0" result="hardAlpha"/>
<feOffset dx="0.455725" dy="2.73435"/>
<feGaussianBlur stdDeviation="1.36718"/>
<feComposite in2="hardAlpha" operator="out"/>
<feColorMatrix type="matrix" values="0 0 0 0 0 0 0 0 0 0 0 0 0 0 0 0 0 0 0.25 0"/>
<feBlend mode="normal" in2="BackgroundImageFix" result="effect1_dropShadow_650_67224"/>
<feBlend mode="normal" in="SourceGraphic" in2="effect1_dropShadow_650_67224" result="shape"/>
</filter>
<filter id="filter6_d_650_67224" x="38.2285" y="93.5199" width="95.9297" height="123.863" filterUnits="userSpaceOnUse" color-interpolation-filters="sRGB">
<feFlood flood-opacity="0" result="BackgroundImageFix"/>
<feColorMatrix in="SourceAlpha" type="matrix" values="0 0 0 0 0 0 0 0 0 0 0 0 0 0 0 0 0 0 127 0" result="hardAlpha"/>
<feOffset dy="2.27865"/>
<feGaussianBlur stdDeviation="1.36719"/>
<feComposite in2="hardAlpha" operator="out"/>
<feColorMatrix type="matrix" values="0 0 0 0 0 0 0 0 0 0 0 0 0 0 0 0 0 0 0.15 0"/>
<feBlend mode="normal" in2="BackgroundImageFix" result="effect1_dropShadow_650_67224"/>
<feBlend mode="normal" in="SourceGraphic" in2="effect1_dropShadow_650_67224" result="shape"/>
</filter>
<filter id="filter7_d_650_67224" x="101.701" y="176.891" width="17.3524" height="9.70106" filterUnits="userSpaceOnUse" color-interpolation-filters="sRGB">
<feFlood flood-opacity="0" result="BackgroundImageFix"/>
<feColorMatrix in="SourceAlpha" type="matrix" values="0 0 0 0 0 0 0 0 0 0 0 0 0 0 0 0 0 0 127 0" result="hardAlpha"/>
<feOffset dy="0.273869"/>
<feGaussianBlur stdDeviation="0.136934"/>
<feComposite in2="hardAlpha" operator="out"/>
<feColorMatrix type="matrix" values="0 0 0 0 0 0 0 0 0 0 0 0 0 0 0 0 0 0 0.25 0"/>
<feBlend mode="normal" in2="BackgroundImageFix" result="effect1_dropShadow_650_67224"/>
<feBlend mode="normal" in="SourceGraphic" in2="effect1_dropShadow_650_67224" result="shape"/>
</filter>
<filter id="filter8_d_650_67224" x="101.085" y="176.941" width="18.5848" height="8.96862" filterUnits="userSpaceOnUse" color-interpolation-filters="sRGB">
<feFlood flood-opacity="0" result="BackgroundImageFix"/>
<feColorMatrix in="SourceAlpha" type="matrix" values="0 0 0 0 0 0 0 0 0 0 0 0 0 0 0 0 0 0 127 0" result="hardAlpha"/>
<feOffset/>
<feGaussianBlur stdDeviation="0.445037"/>
<feComposite in2="hardAlpha" operator="out"/>
<feColorMatrix type="matrix" values="0 0 0 0 1 0 0 0 0 1 0 0 0 0 1 0 0 0 1 0"/>
<feBlend mode="normal" in2="BackgroundImageFix" result="effect1_dropShadow_650_67224"/>
<feBlend mode="normal" in="SourceGraphic" in2="effect1_dropShadow_650_67224" result="shape"/>
</filter>
<radialGradient id="paint0_radial_650_67224" cx="0" cy="0" r="1" gradientUnits="userSpaceOnUse" gradientTransform="translate(270.447 106.491) rotate(99.1226) scale(61.1193 174.192)">
<stop stop-color="white" stop-opacity="0.75"/>
<stop offset="1" stop-color="white" stop-opacity="0"/>
</radialGradient>
<radialGradient id="paint1_radial_650_67224" cx="0" cy="0" r="1" gradientUnits="userSpaceOnUse" gradientTransform="translate(174.396 182.812) rotate(92.5586) scale(219.36 178.105)">
<stop stop-color="white" stop-opacity="0.75"/>
<stop offset="1" stop-color="white" stop-opacity="0"/>
</radialGradient>
<radialGradient id="paint2_radial_650_67224" cx="0" cy="0" r="1" gradientUnits="userSpaceOnUse" gradientTransform="translate(148.119 190.514) rotate(28.5454) scale(39.8811 37.1284)">
<stop offset="0.203125" stop-color="#71FF30"/>
<stop offset="0.890625" stop-color="#25BC46"/>
</radialGradient>
<radialGradient id="paint3_radial_650_67224" cx="0" cy="0" r="1" gradientUnits="userSpaceOnUse" gradientTransform="translate(191.584 161.495) rotate(46.8342) scale(26.6219 23.5336)">
<stop offset="0.552083" stop-color="white"/>
<stop offset="1" stop-color="#D0C9C9"/>
</radialGradient>
<radialGradient id="paint4_radial_650_67224" cx="0" cy="0" r="1" gradientUnits="userSpaceOnUse" gradientTransform="translate(182.148 126.184) rotate(44.415) scale(15.0616 13.339)">
<stop offset="0.3125" stop-color="#321A93"/>
<stop offset="1" stop-color="#3603FF"/>
<stop offset="1" stop-color="#3603FF"/>
</radialGradient>
<radialGradient id="paint5_radial_650_67224" cx="0" cy="0" r="1" gradientUnits="userSpaceOnUse" gradientTransform="translate(146.217 191.257) rotate(27.3324) scale(58.6015 42.3471)">
<stop offset="0.302083" stop-color="#FFB800"/>
<stop offset="1" stop-color="#FF7800"/>
</radialGradient>
<linearGradient id="paint6_linear_650_67224" x1="160.729" y1="220.937" x2="201.954" y2="177.999" gradientUnits="userSpaceOnUse">
<stop stop-color="#F2F2F2"/>
<stop offset="0.0001" stop-color="#F2F2F2"/>
<stop offset="0.0520833" stop-color="#F2F2F2" stop-opacity="0.948011"/>
<stop offset="1" stop-color="#F2F2F2" stop-opacity="0"/>
</linearGradient>
<linearGradient id="paint7_linear_650_67224" x1="122.196" y1="234.875" x2="190.367" y2="260.676" gradientUnits="userSpaceOnUse">
<stop stop-color="#C59651"/>
<stop offset="0.536458" stop-color="#E0AE0D" stop-opacity="0.98"/>
<stop offset="1" stop-color="#FFE07B" stop-opacity="0.98"/>
</linearGradient>
<linearGradient id="paint8_linear_650_67224" x1="227.8" y1="234.875" x2="159.629" y2="260.676" gradientUnits="userSpaceOnUse">
<stop stop-color="#C59651"/>
<stop offset="0.536458" stop-color="#E0AE0D" stop-opacity="0.98"/>
<stop offset="1" stop-color="#FFE07B" stop-opacity="0.98"/>
</linearGradient>
<linearGradient id="paint9_linear_650_67224" x1="174.997" y1="197.329" x2="157.129" y2="308.385" gradientUnits="userSpaceOnUse">
<stop stop-color="#C59651"/>
<stop offset="0.366795" stop-color="#FBC412" stop-opacity="0.98"/>
<stop offset="1" stop-color="#FFF27B" stop-opacity="0.98"/>
</linearGradient>
<linearGradient id="paint10_linear_650_67224" x1="189.826" y1="240.337" x2="160.998" y2="244.487" gradientUnits="userSpaceOnUse">
<stop stop-color="#C59651"/>
<stop offset="0.536458" stop-color="#E0AE0D" stop-opacity="0.98"/>
<stop offset="1" stop-color="#FFE07B" stop-opacity="0.98"/>
</linearGradient>
<linearGradient id="paint11_linear_650_67224" x1="156.015" y1="43.7168" x2="210.871" y2="87.7013" gradientUnits="userSpaceOnUse">
<stop stop-color="#C59651"/>
<stop offset="0.536458" stop-color="#E0AE0D" stop-opacity="0.98"/>
<stop offset="1" stop-color="#FFF27B" stop-opacity="0.98"/>
</linearGradient>
<radialGradient id="paint12_radial_650_67224" cx="0" cy="0" r="1" gradientUnits="userSpaceOnUse" gradientTransform="translate(105.856 176.821) rotate(61.8214) scale(36.1903 30.5505)">
<stop offset="0.552083" stop-color="white"/>
<stop offset="1" stop-color="#CCD0C9"/>
</radialGradient>
<linearGradient id="paint13_linear_650_67224" x1="99.1276" y1="164.454" x2="67.1981" y2="113.092" gradientUnits="userSpaceOnUse">
<stop offset="0.527397" stop-color="#6DF244"/>
<stop offset="1" stop-color="#388E1D"/>
</linearGradient>
<linearGradient id="paint14_linear_650_67224" x1="73.5638" y1="151.549" x2="86.1667" y2="172.509" gradientUnits="userSpaceOnUse">
<stop stop-color="#6CB835"/>
<stop offset="0.40625" stop-color="#6CB835" stop-opacity="0"/>
</linearGradient>
<linearGradient id="paint15_linear_650_67224" x1="99.4279" y1="135.997" x2="112.031" y2="156.958" gradientUnits="userSpaceOnUse">
<stop stop-color="#6CB835"/>
<stop offset="0.40625" stop-color="#6CB835" stop-opacity="0"/>
</linearGradient>
<linearGradient id="paint16_linear_650_67224" x1="99.8127" y1="135.766" x2="112.416" y2="156.727" gradientUnits="userSpaceOnUse">
<stop offset="0.541667" stop-color="#6CB835" stop-opacity="0"/>
<stop offset="1" stop-color="#6CB835"/>
</linearGradient>
<radialGradient id="paint17_radial_650_67224" cx="0" cy="0" r="1" gradientUnits="userSpaceOnUse" gradientTransform="translate(107.664 138.344) rotate(48.0079) scale(2.79886 2.28334)">
<stop stop-color="white" stop-opacity="0.75"/>
<stop offset="1" stop-color="white" stop-opacity="0"/>
<stop offset="1" stop-color="white"/>
</radialGradient>
<radialGradient id="paint18_radial_650_67224" cx="0" cy="0" r="1" gradientUnits="userSpaceOnUse" gradientTransform="translate(72.126 159.711) rotate(69.9583) scale(2.79886 2.28334)">
<stop stop-color="white" stop-opacity="0.75"/>
<stop offset="1" stop-color="white" stop-opacity="0"/>
<stop offset="1" stop-color="white"/>
</radialGradient>
<linearGradient id="paint19_linear_650_67224" x1="73.5638" y1="151.549" x2="86.1667" y2="172.509" gradientUnits="userSpaceOnUse">
<stop offset="0.671875" stop-color="#6CB835" stop-opacity="0"/>
<stop offset="1" stop-color="#6CB835"/>
</linearGradient>
<radialGradient id="paint20_radial_650_67224" cx="0" cy="0" r="1" gradientUnits="userSpaceOnUse" gradientTransform="translate(107.916 179.031) rotate(49.243) scale(7.35423 6.44312)">
<stop offset="0.3125" stop-color="#321A93"/>
<stop offset="1" stop-color="#3603FF"/>
<stop offset="1" stop-color="#3603FF"/>
</radialGradient>
<clipPath id="clip0_650_67224">
<rect width="349.997" height="349.997" fill="white"/>
</clipPath>
<clipPath id="clip1_650_67224">
<rect width="349.997" height="349.997" fill="white"/>
</clipPath>
<clipPath id="clip2_650_67224">
<rect width="350" height="350" fill="white"/>
</clipPath>
</defs>
</svg>
