<svg width="351" height="350" viewBox="0 0 351 350" fill="none" xmlns="http://www.w3.org/2000/svg">
<g clip-path="url(#clip0_579_49934)">
<g clip-path="url(#clip1_579_49934)">
<rect width="350" height="350" transform="translate(0.996094)" fill="url(#paint0_linear_579_49934)"/>
<g opacity="0.7" filter="url(#filter0_f_579_49934)">
<g style="mix-blend-mode:overlay" opacity="0.5">
<path d="M300.519 241.661C367.929 257.538 206.266 286.569 150.911 288.477L333.432 288.477C388.488 286.396 404.247 276.859 405.244 272.351L405.244 234.378C389.785 227.096 358.33 212.715 260.125 203.688C129.966 191.724 -27.0068 214.966 26.7364 241.661C68.6266 262.468 207.762 219.813 300.519 241.661Z" fill="white"/>
</g>
<g style="mix-blend-mode:overlay" opacity="0.5">
<path fill-rule="evenodd" clip-rule="evenodd" d="M88.076 282.755C131.961 279.46 212.55 271.311 183.825 265.069C170.682 262.213 143.107 262.214 110.71 262.216C54.6021 262.219 -15.9665 262.223 -51.0593 247.383C-107.855 223.366 -63.028 185.482 74.6111 170.397C76.5296 170.187 78.4595 169.975 80.3996 169.763C217.651 154.727 406.552 134.032 296.031 114.218C261.869 108.093 223.899 112.563 184.633 117.186C113.845 125.519 38.8482 134.348 -25.6261 82.4871L-145.312 82.4871C-60.0359 102.254 -67.9619 140.738 -122.871 150.11C-185.601 160.817 -178.191 181.702 -172.895 196.632C-171.243 201.286 -169.798 205.362 -170.746 208.37L-170.746 282.755L88.076 282.755ZM-25.6261 165.195C-5.27948 153.959 68.6268 147.683 103.037 145.949C131.462 133.985 62.6426 139.186 52.17 142.307C41.6975 145.428 20.7524 138.146 14.7681 128.263C8.78378 118.379 -42.0829 119.94 -39.0907 128.263C-36.0986 136.585 -36.0986 145.949 -70.5083 155.312C-104.918 164.675 -51.0593 179.24 -25.6261 165.195Z" fill="white"/>
</g>
<g style="mix-blend-mode:overlay" opacity="0.5">
<path d="M284.062 183.401C221.227 183.401 224.219 165.715 284.062 162.074C342.397 158.525 399.31 152.998 400.756 142.121L400.756 141.267C400.794 141.555 400.793 141.84 400.756 142.121L400.756 195.374C376.612 190.626 329.058 183.401 284.062 183.401Z" fill="white"/>
</g>
</g>
<g clip-path="url(#clip2_579_49934)">
<g opacity="0.7" filter="url(#filter1_f_579_49934)">
<g style="mix-blend-mode:overlay" opacity="0.5">
<path d="M319.698 93.5386C373.223 106.146 244.86 129.196 200.908 130.711L345.832 130.711C389.547 129.059 402.06 121.487 402.852 117.907L402.852 87.7562C390.577 81.9739 365.601 70.5552 287.625 63.3877C184.277 53.8881 59.6389 72.3428 102.312 93.5386C135.573 110.06 246.048 76.1915 319.698 93.5386Z" fill="white" fill-opacity="0.5"/>
</g>
<g style="mix-blend-mode:overlay" opacity="0.5">
<path fill-rule="evenodd" clip-rule="evenodd" d="M151.016 126.167C185.862 123.551 249.85 117.08 227.042 112.124C216.607 109.856 194.711 109.857 168.988 109.859C124.438 109.861 68.4053 109.864 40.5412 98.0812C-4.55544 79.0112 31.0379 48.9311 140.325 36.9533C141.848 36.7864 143.381 36.6185 144.921 36.4498C253.9 24.5109 403.89 8.07923 316.135 -7.65346C289.01 -12.5164 258.861 -8.96715 227.684 -5.29691C171.477 1.3199 111.929 8.33008 60.7355 -32.8481L-34.2969 -32.8481C33.4136 -17.1531 27.1203 13.4036 -16.4784 20.8453C-66.2864 29.3468 -60.4032 45.9298 -56.1976 57.7845C-54.8865 61.4799 -53.7385 64.7158 -54.4913 67.1042L-54.4913 126.167L151.016 126.167ZM60.7355 32.8231C76.891 23.9017 135.574 18.9179 162.895 17.5411C185.466 8.04152 130.822 12.1718 122.507 14.6499C114.191 17.1281 97.5606 11.3457 92.809 3.49822C88.0574 -4.34928 47.6686 -3.1102 50.0444 3.49822C52.4202 10.1066 52.4202 17.5411 25.0984 24.9756C-2.2234 32.41 40.5412 43.9748 60.7355 32.8231Z" fill="white" fill-opacity="0.5"/>
</g>
<g style="mix-blend-mode:overlay" opacity="0.5">
<path d="M306.632 47.2789C256.74 47.2789 259.116 33.236 306.632 30.3448C352.951 27.5265 398.141 23.1383 399.289 14.5023L399.289 13.8238C399.319 14.0528 399.319 14.279 399.289 14.5023L399.289 56.7857C380.118 53.0152 342.36 47.2789 306.632 47.2789Z" fill="white" fill-opacity="0.5"/>
</g>
</g>
</g>
</g>
<path d="M149.646 94.3359L125.886 210.019C125.815 210.364 125.945 210.715 126.235 210.917C129.355 213.084 147.957 225.13 175.997 225.13C204.038 225.13 222.64 213.084 225.759 210.917C226.05 210.715 226.18 210.364 226.109 210.019L202.349 94.3359C202.315 94.4029 202.27 94.4652 202.216 94.5207C200.88 95.8694 194.225 101.485 175.997 101.485C157.77 101.485 151.115 95.8694 149.779 94.5207C149.724 94.4652 149.68 94.4029 149.646 94.3359Z" fill="black" fill-opacity="0.75"/>
<path d="M224.104 211.889C218.518 215.444 200.991 225.13 175.883 225.13C147.897 225.13 129.331 213.097 126.217 210.933C126.027 210.801 125.906 210.605 125.865 210.389C129.803 199.004 145.11 175.859 165.059 181.918C174.939 184.919 181.855 192.451 188.359 199.535C198.434 210.507 207.52 220.404 225.101 210.722C224.779 211.109 224.446 211.498 224.104 211.889Z" fill="url(#paint1_radial_579_49934)"/>
<path d="M215.046 156.619L219.826 179.909C217.927 182.156 215.113 184.129 211.032 185.164C198.273 188.398 185.109 181.121 185.109 170.207C185.109 164.75 188.917 153.876 204.146 154.038C208.738 154.087 212.304 155.092 215.046 156.619Z" fill="url(#paint2_radial_579_49934)"/>
<path d="M178.73 130.913C178.73 127.951 180.77 122.048 188.929 122.136C197.087 122.224 199.199 128.024 199.235 130.913C199.308 133.035 198.085 137.628 192.617 139.033C185.782 140.788 178.73 136.838 178.73 130.913Z" fill="url(#paint3_radial_579_49934)"/>
<path d="M202.045 94.2302L206.109 114.031C204.52 113.76 202.867 113.447 201.176 113.127C187.034 110.452 170.248 107.276 165.999 123.73C164.144 130.914 166.832 135.212 169.447 139.393C171.971 143.43 174.427 147.358 172.664 153.668C170.519 161.349 158.855 166.324 149.475 162.994C139.566 159.476 140.262 144.903 145.958 137.849C151.653 130.794 152.476 120.03 151.653 112.87C151.255 109.409 149.545 106.934 147.309 105.25L149.645 93.8799C149.679 93.9469 149.723 94.0092 149.778 94.0646C151.113 95.4133 157.769 101.029 175.996 101.029C193.554 101.029 200.374 95.8187 202.045 94.2302Z" fill="url(#paint4_radial_579_49934)"/>
<mask id="mask0_579_49934" style="mask-type:alpha" maskUnits="userSpaceOnUse" x="141" y="93" width="66" height="72">
<path d="M202.045 94.2302L206.109 114.031C204.52 113.76 202.867 113.447 201.176 113.127C187.034 110.452 170.248 107.276 165.999 123.73C164.144 130.914 166.832 135.212 169.447 139.393C171.971 143.43 174.427 147.358 172.664 153.668C170.519 161.349 158.855 166.324 149.475 162.994C139.566 159.476 140.262 144.903 145.958 137.849C151.653 130.794 152.476 120.03 151.653 112.87C151.255 109.409 149.545 106.934 147.309 105.25L149.645 93.8799C149.679 93.9469 149.723 94.0092 149.778 94.0646C151.113 95.4133 157.769 101.029 175.996 101.029C193.554 101.029 200.374 95.8187 202.045 94.2302Z" fill="url(#paint5_radial_579_49934)"/>
</mask>
<g mask="url(#mask0_579_49934)">
<g filter="url(#filter2_f_579_49934)">
<mask id="mask1_579_49934" style="mask-type:alpha" maskUnits="userSpaceOnUse" x="125" y="94" width="102" height="132">
<path d="M149.857 95.0639C149.944 94.6401 150.317 94.3359 150.75 94.3359H201.241C201.674 94.3359 202.047 94.6401 202.134 95.0639L225.988 211.159C226.07 211.555 225.883 211.955 225.522 212.137C221.619 214.109 199.371 224.817 175.995 225.128C152.574 225.438 130.283 214.178 126.446 212.141C126.095 211.954 125.92 211.562 125.999 211.173L149.857 95.0639Z" fill="#577096" fill-opacity="0.75"/>
</mask>
<g mask="url(#mask1_579_49934)">
<g filter="url(#filter3_f_579_49934)">
<path d="M208.203 76.1064C211.861 110.268 146.936 132.571 114.016 139.453L114.016 76.1064L208.203 76.1064Z" fill="url(#paint6_linear_579_49934)" fill-opacity="0.5"/>
</g>
<g filter="url(#filter4_f_579_49934)">
<path d="M156.403 125.301C157.466 105.018 135.467 86.1828 129.925 66.9985C134.384 65.1973 145.047 70.7896 153.671 76.1247C164.452 82.7936 163.875 109.124 165.621 125.784C167.018 139.112 149.45 223.401 145.011 241.481L132.712 240.837C141.238 214.68 155.584 140.955 156.403 125.301Z" fill="url(#paint7_linear_579_49934)" fill-opacity="0.6"/>
</g>
</g>
</g>
</g>
<mask id="mask2_579_49934" style="mask-type:alpha" maskUnits="userSpaceOnUse" x="125" y="180" width="101" height="46">
<path d="M224.104 211.89C218.518 215.445 200.991 225.131 175.883 225.131C147.897 225.131 129.331 213.098 126.217 210.934C126.027 210.802 125.906 210.606 125.865 210.39C129.803 199.005 145.11 175.86 165.059 181.919C174.939 184.92 181.855 192.452 188.359 199.536C198.434 210.508 207.52 220.405 225.101 210.722C224.779 211.11 224.446 211.499 224.104 211.89Z" fill="url(#paint8_radial_579_49934)"/>
</mask>
<g mask="url(#mask2_579_49934)">
<g filter="url(#filter5_f_579_49934)">
<mask id="mask3_579_49934" style="mask-type:alpha" maskUnits="userSpaceOnUse" x="125" y="94" width="102" height="132">
<path d="M149.857 95.0639C149.944 94.6401 150.317 94.3359 150.75 94.3359H201.241C201.674 94.3359 202.047 94.6401 202.134 95.0639L225.988 211.159C226.07 211.555 225.883 211.955 225.522 212.137C221.619 214.109 199.371 224.817 175.995 225.128C152.574 225.438 130.283 214.178 126.446 212.141C126.095 211.954 125.92 211.562 125.999 211.173L149.857 95.0639Z" fill="#577096" fill-opacity="0.75"/>
</mask>
<g mask="url(#mask3_579_49934)">
<g filter="url(#filter6_f_579_49934)">
<path d="M156.403 125.301C157.466 105.018 135.467 86.1828 129.925 66.9985C134.384 65.1973 145.047 70.7896 153.671 76.1247C164.452 82.7936 163.875 109.124 165.621 125.784C167.018 139.112 149.45 223.401 145.011 241.481L132.712 240.837C141.238 214.68 155.584 140.955 156.403 125.301Z" fill="url(#paint9_linear_579_49934)" fill-opacity="0.6"/>
</g>
</g>
</g>
</g>
<g filter="url(#filter7_d_579_49934)">
<path d="M148.431 221.639C148.223 220.753 146.975 220.68 146.651 221.53C136.554 248.092 117.917 274.657 116.804 335.231C116.785 336.268 118.238 336.499 118.574 335.518C132.886 293.713 146.726 277.771 160.917 280.905C161.608 281.057 162.263 280.448 162.101 279.759L148.431 221.639Z" fill="#333333"/>
<path d="M148.431 221.639C148.223 220.753 146.975 220.68 146.651 221.53C136.554 248.092 117.917 274.657 116.804 335.231C116.785 336.268 118.238 336.499 118.574 335.518C132.886 293.713 146.726 277.771 160.917 280.905C161.608 281.057 162.263 280.448 162.101 279.759L148.431 221.639Z" fill="url(#paint10_linear_579_49934)"/>
<path d="M203.563 221.639C203.771 220.753 205.02 220.68 205.343 221.53C215.44 248.092 234.077 274.657 235.19 335.231C235.209 336.268 233.756 336.499 233.42 335.518C219.108 293.713 205.268 277.771 191.078 280.905C190.387 281.057 189.731 280.448 189.894 279.759L203.563 221.639Z" fill="#333333"/>
<path d="M203.563 221.639C203.771 220.753 205.02 220.68 205.343 221.53C215.44 248.092 234.077 274.657 235.19 335.231C235.209 336.268 233.756 336.499 233.42 335.518C219.108 293.713 205.268 277.771 191.078 280.905C190.387 281.057 189.731 280.448 189.894 279.759L203.563 221.639Z" fill="url(#paint11_linear_579_49934)"/>
<path d="M126.845 211.156C126.097 210.748 125.168 211.486 125.417 212.301L138.219 254.133C138.224 254.148 138.222 254.145 138.228 254.16C138.411 254.659 154.262 297.588 175.996 297.588C197.729 297.588 213.581 254.659 213.764 254.16C213.769 254.145 213.768 254.148 213.773 254.133L226.575 212.301C226.824 211.486 225.895 210.748 225.147 211.156C219.248 214.373 201.592 222.642 175.996 222.642C150.4 222.642 132.744 214.373 126.845 211.156Z" fill="#333333"/>
<path d="M126.845 211.156C126.097 210.748 125.168 211.486 125.417 212.301L138.219 254.133C138.224 254.148 138.222 254.145 138.228 254.16C138.411 254.659 154.262 297.588 175.996 297.588C197.729 297.588 213.581 254.659 213.764 254.16C213.769 254.145 213.768 254.148 213.773 254.133L226.575 212.301C226.824 211.486 225.895 210.748 225.147 211.156C219.248 214.373 201.592 222.642 175.996 222.642C150.4 222.642 132.744 214.373 126.845 211.156Z" fill="url(#paint12_linear_579_49934)"/>
<path d="M175.998 223.321C175.998 222.373 177.242 222.068 177.662 222.918C190.644 249.185 193.089 279.874 193.249 338.861C193.252 339.923 191.942 340.087 191.742 339.044C188.343 321.299 189.494 303.067 176.214 287.116C176.076 286.95 175.998 286.74 175.998 286.525V223.321Z" fill="#333333"/>
<path d="M175.998 223.321C175.998 222.373 177.242 222.068 177.662 222.918C190.644 249.185 193.089 279.874 193.249 338.861C193.252 339.923 191.942 340.087 191.742 339.044C188.343 321.299 189.494 303.067 176.214 287.116C176.076 286.95 175.998 286.74 175.998 286.525V223.321Z" fill="url(#paint13_linear_579_49934)"/>
</g>
<path d="M156.655 61.9397C160.109 48.9622 162.896 32.3564 175.782 32.3564C188.668 32.3564 193.183 52.9169 195.339 62.2561C197.325 70.8606 201.67 90.7625 202.341 93.8406C202.399 94.1051 202.332 94.3665 202.142 94.5599C200.76 95.9716 194.091 101.627 175.997 101.627C157.848 101.627 151.194 95.9373 149.839 94.5472C149.656 94.3598 149.59 94.1072 149.639 93.8501C150.174 91.0433 153.491 73.8278 156.655 61.9397Z" fill="#333333"/>
<path d="M156.655 61.9397C160.109 48.9622 162.896 32.3564 175.782 32.3564C188.668 32.3564 193.183 52.9169 195.339 62.2561C197.325 70.8606 201.67 90.7625 202.341 93.8406C202.399 94.1051 202.332 94.3665 202.142 94.5599C200.76 95.9716 194.091 101.627 175.997 101.627C157.848 101.627 151.194 95.9373 149.839 94.5472C149.656 94.3598 149.59 94.1072 149.639 93.8501C150.174 91.0433 153.491 73.8278 156.655 61.9397Z" fill="url(#paint14_linear_579_49934)"/>
<g filter="url(#filter8_d_579_49934)">
<path d="M258.524 150.902C250.647 153.534 241.878 153.401 235.137 152.261C244.177 142.11 256.171 129.931 265.682 123.064C268.283 121.186 270.624 119.761 272.612 118.88C274.665 117.97 276.027 117.785 276.816 117.941C277.157 118.008 277.381 118.136 277.561 118.314C277.756 118.507 277.998 118.861 278.194 119.519C278.604 120.895 278.699 123.22 278.118 126.849C275.865 140.907 267.776 147.809 258.524 150.902Z" stroke="white" stroke-width="4.55729" shape-rendering="crispEdges"/>
</g>
<g filter="url(#filter9_d_579_49934)">
<path d="M251.349 171.675C243.918 167.967 237.811 161.672 233.851 156.099C247.421 155.313 264.514 155.183 276.095 157.052C279.262 157.564 281.925 158.211 283.954 158.994C286.049 159.803 287.143 160.634 287.591 161.303C287.784 161.591 287.852 161.84 287.853 162.094C287.854 162.367 287.775 162.789 287.449 163.392C286.766 164.655 285.189 166.367 282.211 168.522C270.678 176.87 260.078 176.031 251.349 171.675Z" stroke="white" stroke-width="4.55729" shape-rendering="crispEdges"/>
</g>
<g filter="url(#filter10_d_579_49934)">
<path d="M93.4061 150.902C101.282 153.534 110.052 153.401 116.792 152.261C107.753 142.11 95.7582 129.931 86.2477 123.064C83.6463 121.186 81.3054 119.761 79.3178 118.88C77.2642 117.97 75.9024 117.785 75.1135 117.941C74.7729 118.008 74.5482 118.136 74.3684 118.314C74.1741 118.507 73.9319 118.861 73.736 119.519C73.3261 120.895 73.2306 123.22 73.8121 126.849C76.0644 140.907 84.1532 147.809 93.4061 150.902Z" stroke="white" stroke-width="4.55729" shape-rendering="crispEdges"/>
</g>
<g filter="url(#filter11_d_579_49934)">
<path d="M100.581 171.675C108.011 167.967 114.119 161.672 118.078 156.099C104.509 155.313 87.4158 155.183 75.8352 157.052C72.6675 157.564 70.0042 158.211 67.9761 158.994C65.8807 159.803 64.7866 160.634 64.339 161.303C64.1459 161.591 64.0773 161.84 64.0764 162.094C64.0754 162.367 64.1545 162.789 64.4809 163.392C65.164 164.655 66.7404 166.367 69.7183 168.522C81.2514 176.87 91.8513 176.031 100.581 171.675Z" stroke="white" stroke-width="4.55729" shape-rendering="crispEdges"/>
</g>
</g>
<defs>
<filter id="filter0_f_579_49934" x="-185.396" y="73.3727" width="602.747" height="224.218" filterUnits="userSpaceOnUse" color-interpolation-filters="sRGB">
<feFlood flood-opacity="0" result="BackgroundImageFix"/>
<feBlend mode="normal" in="SourceGraphic" in2="BackgroundImageFix" result="shape"/>
<feGaussianBlur stdDeviation="4.55729" result="effect1_foregroundBlur_579_49934"/>
</filter>
<filter id="filter1_f_579_49934" x="-68.0013" y="-41.9622" width="482.344" height="181.788" filterUnits="userSpaceOnUse" color-interpolation-filters="sRGB">
<feFlood flood-opacity="0" result="BackgroundImageFix"/>
<feBlend mode="normal" in="SourceGraphic" in2="BackgroundImageFix" result="shape"/>
<feGaussianBlur stdDeviation="4.55729" result="effect1_foregroundBlur_579_49934"/>
</filter>
<filter id="filter2_f_579_49934" x="123.587" y="92.0573" width="104.817" height="135.355" filterUnits="userSpaceOnUse" color-interpolation-filters="sRGB">
<feFlood flood-opacity="0" result="BackgroundImageFix"/>
<feBlend mode="normal" in="SourceGraphic" in2="BackgroundImageFix" result="shape"/>
<feGaussianBlur stdDeviation="1.13932" result="effect1_foregroundBlur_579_49934"/>
</filter>
<filter id="filter3_f_579_49934" x="113.104" y="75.195" width="96.1589" height="65.1696" filterUnits="userSpaceOnUse" color-interpolation-filters="sRGB">
<feFlood flood-opacity="0" result="BackgroundImageFix"/>
<feBlend mode="normal" in="SourceGraphic" in2="BackgroundImageFix" result="shape"/>
<feGaussianBlur stdDeviation="0.455729" result="effect1_foregroundBlur_579_49934"/>
</filter>
<filter id="filter4_f_579_49934" x="129.014" y="65.7428" width="37.5964" height="176.65" filterUnits="userSpaceOnUse" color-interpolation-filters="sRGB">
<feFlood flood-opacity="0" result="BackgroundImageFix"/>
<feBlend mode="normal" in="SourceGraphic" in2="BackgroundImageFix" result="shape"/>
<feGaussianBlur stdDeviation="0.455729" result="effect1_foregroundBlur_579_49934"/>
</filter>
<filter id="filter5_f_579_49934" x="123.587" y="92.0573" width="104.817" height="135.355" filterUnits="userSpaceOnUse" color-interpolation-filters="sRGB">
<feFlood flood-opacity="0" result="BackgroundImageFix"/>
<feBlend mode="normal" in="SourceGraphic" in2="BackgroundImageFix" result="shape"/>
<feGaussianBlur stdDeviation="1.13932" result="effect1_foregroundBlur_579_49934"/>
</filter>
<filter id="filter6_f_579_49934" x="129.014" y="65.7428" width="37.5964" height="176.65" filterUnits="userSpaceOnUse" color-interpolation-filters="sRGB">
<feFlood flood-opacity="0" result="BackgroundImageFix"/>
<feBlend mode="normal" in="SourceGraphic" in2="BackgroundImageFix" result="shape"/>
<feGaussianBlur stdDeviation="0.455729" result="effect1_foregroundBlur_579_49934"/>
</filter>
<filter id="filter7_d_579_49934" x="114.526" y="211.04" width="123.854" height="134.176" filterUnits="userSpaceOnUse" color-interpolation-filters="sRGB">
<feFlood flood-opacity="0" result="BackgroundImageFix"/>
<feColorMatrix in="SourceAlpha" type="matrix" values="0 0 0 0 0 0 0 0 0 0 0 0 0 0 0 0 0 0 127 0" result="hardAlpha"/>
<feOffset dx="0.455729" dy="2.73438"/>
<feGaussianBlur stdDeviation="1.36719"/>
<feComposite in2="hardAlpha" operator="out"/>
<feColorMatrix type="matrix" values="0 0 0 0 0 0 0 0 0 0 0 0 0 0 0 0 0 0 0.25 0"/>
<feBlend mode="normal" in2="BackgroundImageFix" result="effect1_dropShadow_579_49934"/>
<feBlend mode="normal" in="SourceGraphic" in2="effect1_dropShadow_579_49934" result="shape"/>
</filter>
<filter id="filter8_d_579_49934" x="227.522" y="112.288" width="56.6091" height="46.3494" filterUnits="userSpaceOnUse" color-interpolation-filters="sRGB">
<feFlood flood-opacity="0" result="BackgroundImageFix"/>
<feColorMatrix in="SourceAlpha" type="matrix" values="0 0 0 0 0 0 0 0 0 0 0 0 0 0 0 0 0 0 127 0" result="hardAlpha"/>
<feOffset/>
<feGaussianBlur stdDeviation="1.66205"/>
<feComposite in2="hardAlpha" operator="out"/>
<feColorMatrix type="matrix" values="0 0 0 0 1 0 0 0 0 1 0 0 0 0 1 0 0 0 1 0"/>
<feBlend mode="normal" in2="BackgroundImageFix" result="effect1_dropShadow_579_49934"/>
<feBlend mode="normal" in="SourceGraphic" in2="effect1_dropShadow_579_49934" result="shape"/>
</filter>
<filter id="filter9_d_579_49934" x="226.483" y="149.953" width="66.9744" height="30.5515" filterUnits="userSpaceOnUse" color-interpolation-filters="sRGB">
<feFlood flood-opacity="0" result="BackgroundImageFix"/>
<feColorMatrix in="SourceAlpha" type="matrix" values="0 0 0 0 0 0 0 0 0 0 0 0 0 0 0 0 0 0 127 0" result="hardAlpha"/>
<feOffset/>
<feGaussianBlur stdDeviation="1.66205"/>
<feComposite in2="hardAlpha" operator="out"/>
<feColorMatrix type="matrix" values="0 0 0 0 1 0 0 0 0 1 0 0 0 0 1 0 0 0 1 0"/>
<feBlend mode="normal" in2="BackgroundImageFix" result="effect1_dropShadow_579_49934"/>
<feBlend mode="normal" in="SourceGraphic" in2="effect1_dropShadow_579_49934" result="shape"/>
</filter>
<filter id="filter10_d_579_49934" x="67.799" y="112.288" width="56.6091" height="46.3494" filterUnits="userSpaceOnUse" color-interpolation-filters="sRGB">
<feFlood flood-opacity="0" result="BackgroundImageFix"/>
<feColorMatrix in="SourceAlpha" type="matrix" values="0 0 0 0 0 0 0 0 0 0 0 0 0 0 0 0 0 0 127 0" result="hardAlpha"/>
<feOffset/>
<feGaussianBlur stdDeviation="1.66205"/>
<feComposite in2="hardAlpha" operator="out"/>
<feColorMatrix type="matrix" values="0 0 0 0 1 0 0 0 0 1 0 0 0 0 1 0 0 0 1 0"/>
<feBlend mode="normal" in2="BackgroundImageFix" result="effect1_dropShadow_579_49934"/>
<feBlend mode="normal" in="SourceGraphic" in2="effect1_dropShadow_579_49934" result="shape"/>
</filter>
<filter id="filter11_d_579_49934" x="58.4728" y="149.953" width="66.9744" height="30.5515" filterUnits="userSpaceOnUse" color-interpolation-filters="sRGB">
<feFlood flood-opacity="0" result="BackgroundImageFix"/>
<feColorMatrix in="SourceAlpha" type="matrix" values="0 0 0 0 0 0 0 0 0 0 0 0 0 0 0 0 0 0 127 0" result="hardAlpha"/>
<feOffset/>
<feGaussianBlur stdDeviation="1.66205"/>
<feComposite in2="hardAlpha" operator="out"/>
<feColorMatrix type="matrix" values="0 0 0 0 1 0 0 0 0 1 0 0 0 0 1 0 0 0 1 0"/>
<feBlend mode="normal" in2="BackgroundImageFix" result="effect1_dropShadow_579_49934"/>
<feBlend mode="normal" in="SourceGraphic" in2="effect1_dropShadow_579_49934" result="shape"/>
</filter>
<linearGradient id="paint0_linear_579_49934" x1="175" y1="0" x2="175" y2="350" gradientUnits="userSpaceOnUse">
<stop offset="0.213542" stop-color="#2FA2F5"/>
<stop offset="1" stop-color="white"/>
</linearGradient>
<radialGradient id="paint1_radial_579_49934" cx="0" cy="0" r="1" gradientUnits="userSpaceOnUse" gradientTransform="translate(147.213 191.258) rotate(27.3324) scale(58.602 42.3474)">
<stop offset="0.328125" stop-color="#FF00D6"/>
<stop offset="0.619792" stop-color="#D700B4"/>
</radialGradient>
<radialGradient id="paint2_radial_579_49934" cx="0" cy="0" r="1" gradientUnits="userSpaceOnUse" gradientTransform="translate(192.578 161.494) rotate(46.8342) scale(26.6221 23.5338)">
<stop offset="0.3125" stop-color="#FABE09"/>
<stop offset="1" stop-color="#FDF21B"/>
</radialGradient>
<radialGradient id="paint3_radial_579_49934" cx="0" cy="0" r="1" gradientUnits="userSpaceOnUse" gradientTransform="translate(183.142 126.183) rotate(44.415) scale(15.0618 13.3391)">
<stop offset="0.552083" stop-color="white"/>
<stop offset="1" stop-color="#D0C9C9"/>
</radialGradient>
<radialGradient id="paint4_radial_579_49934" cx="0" cy="0" r="1" gradientUnits="userSpaceOnUse" gradientTransform="translate(156.878 109.101) rotate(69.5155) scale(29.3586 24.4724)">
<stop offset="0.3125" stop-color="#F85449"/>
<stop offset="1" stop-color="#CF0000"/>
<stop offset="1" stop-color="#C53434"/>
</radialGradient>
<radialGradient id="paint5_radial_579_49934" cx="0" cy="0" r="1" gradientUnits="userSpaceOnUse" gradientTransform="translate(156.878 109.101) rotate(53.1177) scale(37.8178 40.2646)">
<stop offset="0.203125" stop-color="#71FF30"/>
<stop offset="0.890625" stop-color="#25BC46"/>
</radialGradient>
<linearGradient id="paint6_linear_579_49934" x1="146.21" y1="123.01" x2="156.824" y2="72.2914" gradientUnits="userSpaceOnUse">
<stop stop-color="white" stop-opacity="0"/>
<stop offset="0.471361" stop-color="white"/>
<stop offset="1" stop-color="white"/>
</linearGradient>
<linearGradient id="paint7_linear_579_49934" x1="161.726" y1="220.938" x2="202.95" y2="178" gradientUnits="userSpaceOnUse">
<stop stop-color="#F2F2F2"/>
<stop offset="0.0001" stop-color="#F2F2F2"/>
<stop offset="0.0520833" stop-color="#F2F2F2" stop-opacity="0.948011"/>
<stop offset="1" stop-color="#F2F2F2" stop-opacity="0"/>
</linearGradient>
<radialGradient id="paint8_radial_579_49934" cx="0" cy="0" r="1" gradientUnits="userSpaceOnUse" gradientTransform="translate(147.213 191.259) rotate(27.3324) scale(58.602 42.3474)">
<stop offset="0.302083" stop-color="#FFB800"/>
<stop offset="1" stop-color="#FF7800"/>
</radialGradient>
<linearGradient id="paint9_linear_579_49934" x1="161.726" y1="220.938" x2="202.95" y2="178" gradientUnits="userSpaceOnUse">
<stop stop-color="#F2F2F2"/>
<stop offset="0.0001" stop-color="#F2F2F2"/>
<stop offset="0.0520833" stop-color="#F2F2F2" stop-opacity="0.948011"/>
<stop offset="1" stop-color="#F2F2F2" stop-opacity="0"/>
</linearGradient>
<linearGradient id="paint10_linear_579_49934" x1="119.468" y1="229.256" x2="195.294" y2="255.219" gradientUnits="userSpaceOnUse">
<stop stop-color="#ECECEC" stop-opacity="0.71"/>
<stop offset="1" stop-color="#C3C3C3" stop-opacity="0.15"/>
</linearGradient>
<linearGradient id="paint11_linear_579_49934" x1="232.526" y1="229.256" x2="156.7" y2="255.219" gradientUnits="userSpaceOnUse">
<stop stop-color="#ECECEC" stop-opacity="0.71"/>
<stop offset="1" stop-color="#C3C3C3" stop-opacity="0.15"/>
</linearGradient>
<linearGradient id="paint12_linear_579_49934" x1="130.778" y1="223.106" x2="228.707" y2="318.154" gradientUnits="userSpaceOnUse">
<stop stop-color="#ECECEC" stop-opacity="0.71"/>
<stop offset="1" stop-color="#C3C3C3" stop-opacity="0.15"/>
</linearGradient>
<linearGradient id="paint13_linear_579_49934" x1="195.13" y1="235.551" x2="95.7905" y2="286.801" gradientUnits="userSpaceOnUse">
<stop stop-color="#ECECEC" stop-opacity="0.71"/>
<stop offset="1" stop-color="#C3C3C3" stop-opacity="0.15"/>
</linearGradient>
<linearGradient id="paint14_linear_579_49934" x1="152.705" y1="56.5723" x2="204.079" y2="105.495" gradientUnits="userSpaceOnUse">
<stop stop-color="#ECECEC" stop-opacity="0.71"/>
<stop offset="1" stop-color="#C3C3C3" stop-opacity="0.15"/>
</linearGradient>
<clipPath id="clip0_579_49934">
<rect width="350" height="350" fill="white" transform="translate(0.996094)"/>
</clipPath>
<clipPath id="clip1_579_49934">
<rect width="350" height="350" fill="white" transform="translate(0.996094)"/>
</clipPath>
<clipPath id="clip2_579_49934">
<path d="M0.996094 0H350.996V350H0.996094V0Z" fill="white"/>
</clipPath>
</defs>
</svg>
