<svg width="1920" height="746" viewBox="0 0 1920 746" fill="none" xmlns="http://www.w3.org/2000/svg">
<rect width="1920" height="746" fill="black"/>
<mask id="mask0_1081_105532" style="mask-type:alpha" maskUnits="userSpaceOnUse" x="0" y="0" width="1920" height="746">
<rect width="1920" height="746" fill="black"/>
</mask>
<g mask="url(#mask0_1081_105532)">
<path d="M-1.03896e-05 695.424C920.479 468 1920 746.424 1920 746.424L1920 90.2577C1644.86 162 1196.06 86.3174 818.426 20.9996C502.261 -33.6863 188.097 23.9996 -1.03896e-05 118.573L-1.03896e-05 695.424Z" fill="url(#paint0_radial_1081_105532)"/>
<g style="mix-blend-mode:overlay" filter="url(#filter0_d_1081_105532)">
<path fill-rule="evenodd" clip-rule="evenodd" d="M62.7005 500.663C140.974 520.169 220.242 472.564 239.754 394.34C259.267 316.113 211.641 236.872 133.372 217.369C55.122 197.867 -24.1464 245.477 -43.6497 323.71C-63.1712 401.929 -15.5407 481.16 62.7005 500.663ZM130.332 301.373C150.57 308.341 165.371 318.785 162.463 338.215C160.358 352.437 152.469 359.323 141.996 361.737C156.377 369.22 163.695 380.696 156.724 400.591C148.073 425.299 127.519 427.384 100.186 422.215L93.553 448.785L77.524 444.792L84.0707 418.578C79.9162 417.547 75.6705 416.451 71.2968 415.265L64.7273 441.603L48.7165 437.61L55.35 410.99C53.8535 410.607 52.3475 410.214 50.8308 409.819C48.5535 409.225 46.2522 408.625 43.9229 408.042L23.0638 402.845L31.0212 384.506C31.0212 384.506 42.8318 387.645 42.672 387.413C47.21 388.535 49.2233 385.578 50.0177 383.607L60.4997 341.605C60.8932 341.699 61.2784 341.796 61.6501 341.889C61.8348 341.935 62.0162 341.981 62.1935 342.025C61.5544 341.769 60.9745 341.605 60.5271 341.491L68.0052 311.507C68.2015 308.103 67.0282 303.81 60.5363 302.19C60.7874 302.021 48.8946 299.297 48.8946 299.297L53.1586 282.186L75.2641 287.702L75.2459 287.784C78.5695 288.61 81.9935 289.395 85.4814 290.189L92.051 263.879L108.071 267.872L101.634 293.666C105.934 294.647 110.262 295.637 114.476 296.687L120.868 271.061L136.897 275.054L130.332 301.373ZM79.6308 396.797C92.7098 400.25 121.295 407.796 125.839 389.544C130.496 370.881 102.773 364.664 89.246 361.63C87.7344 361.291 86.4001 360.992 85.3079 360.719L76.5059 395.986C77.4028 396.209 78.4541 396.487 79.6308 396.797ZM91.9639 345.263C102.868 348.172 126.654 354.516 130.797 337.927C135.028 320.959 111.91 315.844 100.62 313.346C99.3501 313.065 98.2298 312.817 97.3149 312.589L89.3346 344.575C90.0884 344.763 90.973 344.999 91.9639 345.263Z" fill="white"/>
</g>
<g style="mix-blend-mode:overlay" filter="url(#filter1_d_1081_105532)">
<path fill-rule="evenodd" clip-rule="evenodd" d="M523.799 124.118C575.802 137.078 628.467 105.45 641.431 53.4795C654.394 1.50626 622.752 -51.14 570.752 -64.097C518.764 -77.0539 466.099 -45.4225 453.142 6.55383C440.172 58.521 471.817 111.161 523.799 124.118ZM568.731 -8.28683C582.177 -3.65762 592.011 3.28165 590.078 16.1901C588.68 25.6395 583.439 30.2141 576.481 31.8178C586.035 36.7896 590.897 44.414 586.266 57.6317C580.518 74.0477 566.863 75.4331 548.703 71.9983L544.296 89.6512L533.647 86.9985L537.996 69.5822C535.236 68.897 532.415 68.1694 529.509 67.3812L525.145 84.8795L514.507 82.2268L518.915 64.5406C517.92 64.2861 516.92 64.0253 515.912 63.7627C514.399 63.3683 512.87 62.9698 511.323 62.5822L497.464 59.1293L502.751 46.9454C502.751 46.9454 510.598 49.0311 510.492 48.8765C513.507 49.6223 514.844 47.6578 515.372 46.3482L522.336 18.4425C522.598 18.5054 522.854 18.5697 523.101 18.6316C523.224 18.6623 523.344 18.6924 523.461 18.7214C523.037 18.5517 522.651 18.4425 522.354 18.3668L527.323 -1.55371C527.453 -3.81526 526.673 -6.66798 522.36 -7.74418C522.527 -7.85635 514.626 -9.6662 514.626 -9.6662L517.459 -21.0346L532.145 -17.3694L532.133 -17.3149C534.341 -16.7661 536.616 -16.2447 538.933 -15.7172L543.298 -33.1973L553.941 -30.5446L549.665 -13.4072C552.522 -12.7554 555.397 -12.0975 558.197 -11.4003L562.443 -28.4256L573.093 -25.7729L568.731 -8.28683ZM535.046 55.1115C543.736 57.4054 562.727 62.4188 565.747 50.2922C568.84 37.8932 550.422 33.7625 541.435 31.7469C540.43 31.5216 539.544 31.3228 538.818 31.1418L532.97 54.5728C533.566 54.7207 534.265 54.9051 535.046 55.1115ZM543.24 20.8732C550.485 22.8056 566.288 27.0207 569.041 15.9991C571.851 4.72561 556.492 1.32726 548.991 -0.332416C548.148 -0.519107 547.403 -0.683803 546.795 -0.835231L541.493 20.4161C541.994 20.5409 542.582 20.6976 543.24 20.8732Z" fill="white"/>
</g>
<g style="mix-blend-mode:overlay" filter="url(#filter2_d_1081_105532)">
<path fill-rule="evenodd" clip-rule="evenodd" d="M1836.44 605.794C1911.76 624.563 1988.03 578.756 2006.81 503.489C2025.58 428.217 1979.76 351.97 1904.44 333.204C1829.15 314.439 1752.88 360.25 1734.11 435.527C1715.33 510.79 1761.16 587.028 1836.44 605.794ZM1901.52 414.034C1920.99 420.739 1935.23 430.789 1932.44 449.484C1930.41 463.169 1922.82 469.795 1912.74 472.117C1926.58 479.318 1933.62 490.36 1926.91 509.503C1918.59 533.278 1898.81 535.285 1872.51 530.31L1866.13 555.877L1850.71 552.035L1857.01 526.811C1853.01 525.819 1848.92 524.765 1844.71 523.623L1838.39 548.966L1822.99 545.124L1829.37 519.509C1827.93 519.141 1826.48 518.763 1825.02 518.383C1822.83 517.812 1820.62 517.234 1818.37 516.673L1798.3 511.672L1805.96 494.026C1805.96 494.026 1817.32 497.047 1817.17 496.823C1821.54 497.903 1823.47 495.058 1824.24 493.161L1834.33 452.746C1834.7 452.837 1835.07 452.93 1835.43 453.02C1835.61 453.064 1835.78 453.108 1835.96 453.15C1835.34 452.904 1834.78 452.746 1834.35 452.636L1841.55 423.786C1841.74 420.511 1840.61 416.379 1834.36 414.82C1834.6 414.658 1823.16 412.037 1823.16 412.037L1827.26 395.572L1848.53 400.88L1848.51 400.959C1851.71 401.754 1855.01 402.509 1858.36 403.273L1864.68 377.957L1880.1 381.799L1873.91 406.619C1878.04 407.563 1882.21 408.515 1886.26 409.525L1892.41 384.868L1907.84 388.71L1901.52 414.034ZM1852.73 505.853C1865.32 509.175 1892.82 516.436 1897.2 498.874C1901.68 480.916 1875 474.934 1861.99 472.015C1860.53 471.688 1859.25 471.4 1858.2 471.138L1849.73 505.073C1850.59 505.287 1851.6 505.554 1852.73 505.853ZM1864.6 456.266C1875.09 459.065 1897.98 465.17 1901.97 449.207C1906.04 432.88 1883.79 427.958 1872.93 425.555C1871.71 425.284 1870.63 425.046 1869.75 424.826L1862.07 455.604C1862.8 455.785 1863.65 456.012 1864.6 456.266Z" fill="white"/>
</g>
</g>
<defs>
<filter id="filter0_d_1081_105532" x="-48.0254" y="213" width="302.152" height="300.034" filterUnits="userSpaceOnUse" color-interpolation-filters="sRGB">
<feFlood flood-opacity="0" result="BackgroundImageFix"/>
<feColorMatrix in="SourceAlpha" type="matrix" values="0 0 0 0 0 0 0 0 0 0 0 0 0 0 0 0 0 0 127 0" result="hardAlpha"/>
<feOffset dx="6" dy="4"/>
<feGaussianBlur stdDeviation="2"/>
<feComposite in2="hardAlpha" operator="out"/>
<feColorMatrix type="matrix" values="0 0 0 0 0 0 0 0 0 0 0 0 0 0 0 0 0 0 0.25 0"/>
<feBlend mode="normal" in2="BackgroundImageFix" result="effect1_dropShadow_1081_105532"/>
<feBlend mode="normal" in="SourceGraphic" in2="effect1_dropShadow_1081_105532" result="shape"/>
</filter>
<filter id="filter1_d_1081_105532" x="450.234" y="-67" width="204.102" height="202.022" filterUnits="userSpaceOnUse" color-interpolation-filters="sRGB">
<feFlood flood-opacity="0" result="BackgroundImageFix"/>
<feColorMatrix in="SourceAlpha" type="matrix" values="0 0 0 0 0 0 0 0 0 0 0 0 0 0 0 0 0 0 127 0" result="hardAlpha"/>
<feOffset dx="6" dy="4"/>
<feGaussianBlur stdDeviation="2"/>
<feComposite in2="hardAlpha" operator="out"/>
<feColorMatrix type="matrix" values="0 0 0 0 0 0 0 0 0 0 0 0 0 0 0 0 0 0 0.25 0"/>
<feBlend mode="normal" in2="BackgroundImageFix" result="effect1_dropShadow_1081_105532"/>
<feBlend mode="normal" in="SourceGraphic" in2="effect1_dropShadow_1081_105532" result="shape"/>
</filter>
<filter id="filter2_d_1081_105532" x="1729.9" y="329" width="291.113" height="289" filterUnits="userSpaceOnUse" color-interpolation-filters="sRGB">
<feFlood flood-opacity="0" result="BackgroundImageFix"/>
<feColorMatrix in="SourceAlpha" type="matrix" values="0 0 0 0 0 0 0 0 0 0 0 0 0 0 0 0 0 0 127 0" result="hardAlpha"/>
<feOffset dx="6" dy="4"/>
<feGaussianBlur stdDeviation="2"/>
<feComposite in2="hardAlpha" operator="out"/>
<feColorMatrix type="matrix" values="0 0 0 0 0 0 0 0 0 0 0 0 0 0 0 0 0 0 0.25 0"/>
<feBlend mode="normal" in2="BackgroundImageFix" result="effect1_dropShadow_1081_105532"/>
<feBlend mode="normal" in="SourceGraphic" in2="effect1_dropShadow_1081_105532" result="shape"/>
</filter>
<radialGradient id="paint0_radial_1081_105532" cx="0" cy="0" r="1" gradientUnits="userSpaceOnUse" gradientTransform="translate(449.8 161.762) rotate(43.6455) scale(424.008 538.467)">
<stop offset="0.3125" stop-color="#F85449"/>
<stop offset="1" stop-color="#CF0000"/>
</radialGradient>
</defs>
</svg>
