<svg width="414" height="896" viewBox="0 0 414 896" fill="none" xmlns="http://www.w3.org/2000/svg">
<g clip-path="url(#clip0_1081_105524)">
<rect width="414" height="896" fill="black"/>
<path d="M113 155.693C113 142.298 122.326 115.607 159.632 116.004C196.938 116.401 206.595 142.629 206.76 155.693C207.091 165.284 201.502 186.054 176.499 192.404C145.246 200.342 113 182.482 113 155.693Z" fill="url(#paint0_radial_1081_105524)"/>
<path d="M288 297.693C288 284.298 297.326 257.607 334.632 258.004C371.938 258.401 381.595 284.629 381.76 297.693C382.091 307.284 376.502 328.054 351.499 334.404C320.246 342.342 288 324.482 288 297.693Z" fill="url(#paint1_radial_1081_105524)"/>
<path d="M254 73.4469C254 66.2093 259.024 51.7879 279.122 52.0024C299.219 52.2168 304.421 66.388 304.511 73.4469C304.689 78.6293 301.678 89.8519 288.208 93.283C271.371 97.5719 254 87.9219 254 73.4469Z" fill="url(#paint2_radial_1081_105524)"/>
<path d="M86.1293 90.7771C-20.4051 109.214 -101.903 37.915 -121.736 3.9868C50.5319 -145.041 308.26 -61.3089 403.65 3.98693C250.648 -44.0247 219.297 67.7315 86.1293 90.7771Z" fill="url(#paint3_radial_1081_105524)"/>
<path d="M317.768 -17.8058C332.801 -21.4936 366.37 -14.6448 369.766 14.8576C372.374 37.5112 378.073 69.2164 351.726 93.8817C322.504 121.238 331.48 162.302 362.868 173.433C392.582 183.969 428.589 168.691 433.438 143.93C440.866 105.999 411.99 85.7859 413.806 63.8525C420.566 -17.8058 557.63 26.822 577.619 7.98186C577.619 -87.2959 351.726 -277.8 317.768 -17.8058Z" fill="url(#paint4_radial_1081_105524)"/>
</g>
<defs>
<radialGradient id="paint0_radial_1081_105524" cx="0" cy="0" r="1" gradientUnits="userSpaceOnUse" gradientTransform="translate(142.025 136.508) rotate(44.6204) scale(69.01 69.969)">
<stop offset="0.3125" stop-color="#F85449"/>
<stop offset="1" stop-color="#CF0000"/>
</radialGradient>
<radialGradient id="paint1_radial_1081_105524" cx="0" cy="0" r="1" gradientUnits="userSpaceOnUse" gradientTransform="translate(317.025 278.508) rotate(44.6204) scale(69.01 69.969)">
<stop offset="0.3125" stop-color="#F85449"/>
<stop offset="1" stop-color="#CF0000"/>
</radialGradient>
<radialGradient id="paint2_radial_1081_105524" cx="0" cy="0" r="1" gradientUnits="userSpaceOnUse" gradientTransform="translate(269.636 63.0809) rotate(44.7055) scale(37.2317 37.7504)">
<stop offset="0.3125" stop-color="#F85449"/>
<stop offset="1" stop-color="#CF0000"/>
</radialGradient>
<radialGradient id="paint3_radial_1081_105524" cx="0" cy="0" r="1" gradientUnits="userSpaceOnUse" gradientTransform="translate(1.34619 56.2386) rotate(-38.9298) scale(107.927 134.146)">
<stop offset="0.3125" stop-color="#F85449"/>
<stop offset="1" stop-color="#CF0000"/>
</radialGradient>
<radialGradient id="paint4_radial_1081_105524" cx="0" cy="0" r="1" gradientUnits="userSpaceOnUse" gradientTransform="translate(373.668 124.178) rotate(-65.2426) scale(103.88 100.448)">
<stop offset="0.3125" stop-color="#F85449"/>
<stop offset="1" stop-color="#CF0000"/>
</radialGradient>
<clipPath id="clip0_1081_105524">
<rect width="414" height="896" fill="white"/>
</clipPath>
</defs>
</svg>
