<svg width="381" height="511" viewBox="0 0 381 511" fill="none" xmlns="http://www.w3.org/2000/svg">
<g filter="url(#filter0_d_1278_66776)">
<path d="M352.769 235.193C357.145 216.143 352.016 203.99 344.745 200.545C331.773 194.399 320.705 215.953 318.658 231.689C316.612 247.425 319.131 258.169 326.028 261.413C332.926 264.656 348.394 254.243 352.769 235.193Z" fill="#6DF244"/>
<path d="M235.783 373.722C231.182 369.501 227.731 364.584 225.396 359.317L165.583 360.378L165.106 333.509L222.665 332.488C225.068 321.282 231.87 310.939 242.777 304.381L258.221 295.095C268.609 288.849 280.335 287.495 290.995 290.121L317.825 241.686L341.332 254.707L313.878 304.269C317.48 308.528 320.331 313.582 322.136 319.319L370 417V491L235.783 373.722Z" fill="url(#paint0_radial_1278_66776)"/>
<path d="M142.988 361.325C124.111 356.256 115.783 346.026 116.15 337.99C116.804 323.65 141.032 323.981 155.89 329.554C170.749 335.126 179.056 342.389 178.686 350.002C178.317 357.615 161.866 366.393 142.988 361.325Z" fill="#6DF244"/>
<path d="M92.7152 224.272C83.8992 196.816 82.781 99.9108 116.03 79.9198C149.278 59.9287 231.42 108.118 253.727 127.461C276.034 146.805 300.597 166.116 299.711 209.115C298.596 263.23 265.858 301.242 253.186 308.862C240.514 316.481 191.588 327.569 143.27 303.177C104.876 283.795 101.531 251.727 92.7152 224.272Z" fill="#6DF244"/>
<path d="M92.7152 224.272C83.8992 196.816 82.781 99.9108 116.03 79.9198C149.278 59.9287 231.42 108.118 253.727 127.461C276.034 146.805 300.597 166.116 299.711 209.115C298.596 263.23 265.858 301.242 253.186 308.862C240.514 316.481 191.588 327.569 143.27 303.177C104.876 283.795 101.531 251.727 92.7152 224.272Z" fill="url(#paint1_linear_1278_66776)" fill-opacity="0.8"/>
<path d="M145.743 290.107C117.563 275.117 108.195 255.784 111.86 243.13C118.4 220.55 156.932 229.964 178.506 244.281C200.08 258.598 210.552 273.203 207.044 285.183C203.537 297.162 173.923 305.098 145.743 290.107Z" stroke="url(#paint2_linear_1278_66776)" stroke-width="3.34648"/>
<path fill-rule="evenodd" clip-rule="evenodd" d="M248.426 300.942C253.479 298.468 260.342 289.885 256.659 269.963L235.468 282.705L235.468 282.705L217.199 293.689C233.073 306.288 243.874 304.247 248.426 300.942Z" fill="#57BF37"/>
<path d="M284.884 204.399C285.102 175.85 273.788 160.435 262.17 158.12C241.441 153.989 232.348 188.452 234.436 211.481C236.523 234.51 243.611 248.849 254.625 251.011C265.638 253.172 284.665 232.948 284.884 204.399Z" fill="#070707" stroke="#070707" stroke-width="0.836621"/>
<path d="M286.156 205.685C286.294 173.668 273.593 156.339 260.601 153.7C237.419 148.99 227.384 187.606 229.801 213.441C232.219 239.276 240.193 255.384 252.51 257.848C264.827 260.313 286.017 237.702 286.156 205.685Z" stroke="url(#paint3_linear_1278_66776)" stroke-width="3.34648"/>
<path d="M287.614 204.805C287.753 172.788 275.052 155.459 262.06 152.82C238.878 148.111 228.843 186.727 231.26 212.562C233.678 238.397 241.652 254.504 253.969 256.969C266.286 259.434 287.476 236.822 287.614 204.805Z" stroke="url(#paint4_linear_1278_66776)" stroke-width="3.34648"/>
<path d="M268.824 169.338C264.021 164.258 259.43 163.526 257.008 165.161C252.686 168.079 256.941 175.765 261.211 179.465C265.482 183.165 269.152 184.45 271.443 182.894C273.733 181.338 273.628 174.419 268.824 169.338Z" fill="url(#paint5_radial_1278_66776)"/>
<path fill-rule="evenodd" clip-rule="evenodd" d="M230.378 270.932C227.867 272.05 222.531 275.885 221.281 282.277L232.973 275.247L244.664 268.217C238.432 266.324 232.543 269.238 230.378 270.932Z" fill="#57BF37"/>
<path d="M146.664 287.506C121.51 274.212 113.182 257.002 116.489 245.714C122.39 225.571 156.811 233.87 176.061 246.58C195.312 259.29 204.638 272.283 201.474 282.969C198.309 293.655 171.818 300.8 146.664 287.506Z" fill="#070707" stroke="#070707" stroke-width="0.836621"/>
<path d="M122.863 257.096C120.628 250.471 122.135 246.074 124.715 244.701C129.319 242.252 134.112 249.615 135.378 255.122C136.643 260.628 136.057 264.472 133.608 265.766C131.159 267.059 125.097 263.721 122.863 257.096Z" fill="url(#paint6_radial_1278_66776)"/>
<path d="M145.743 290.107C117.563 275.117 108.195 255.784 111.86 243.13C118.4 220.55 156.932 229.964 178.506 244.281C200.08 258.598 210.552 273.203 207.044 285.183C203.537 297.162 173.923 305.098 145.743 290.107Z" stroke="url(#paint7_linear_1278_66776)" stroke-width="3.34648"/>
<rect width="15.3923" height="106.024" transform="matrix(0.99987 -0.0160966 0.0193936 0.999812 186.935 54.4224)" fill="#6DF244"/>
<path d="M217.066 42.0076C217.084 19.5748 208.175 7.40185 199.1 5.52082C182.906 2.16447 175.995 29.1966 177.746 47.3041C179.497 65.4116 185.103 76.717 193.707 78.474C202.311 80.2311 217.047 64.4404 217.066 42.0076Z" fill="#57BF37"/>
<rect width="15.3922" height="106.023" transform="matrix(-0.483106 0.875562 0.873962 0.485994 60.0684 130.703)" fill="#6DF244"/>
<path d="M34.9729 151.499C15.1512 140.995 8.57744 127.418 11.1721 118.52C15.8017 102.644 42.9179 109.217 58.0897 119.255C73.2616 129.293 80.6179 139.546 78.135 147.969C75.6521 156.392 54.7947 162.002 34.9729 151.499Z" fill="#57BF37"/>
<g filter="url(#filter1_d_1278_66776)">
<circle cx="274.961" cy="337.703" r="16.4784" transform="rotate(-6.77196 274.961 337.703)" fill="url(#paint8_radial_1278_66776)" stroke="#56CCF2" stroke-width="1.82123"/>
<g filter="url(#filter2_d_1278_66776)">
<path d="M288.488 328.35C299.625 325.22 304.43 324.376 304.994 325.984C305.795 328.272 294.488 336.806 275.866 343.328C257.243 349.849 244.637 351.144 243.836 348.856C243.264 347.224 247.307 343.497 258.228 338.914" stroke="#6DF244" stroke-width="2.60175"/>
</g>
</g>
</g>
<defs>
<filter id="filter0_d_1278_66776" x="0.242189" y="3.50407" width="380.148" height="506.545" filterUnits="userSpaceOnUse" color-interpolation-filters="sRGB">
<feFlood flood-opacity="0" result="BackgroundImageFix"/>
<feColorMatrix in="SourceAlpha" type="matrix" values="0 0 0 0 0 0 0 0 0 0 0 0 0 0 0 0 0 0 127 0" result="hardAlpha"/>
<feOffset dy="8.65885"/>
<feGaussianBlur stdDeviation="5.19531"/>
<feComposite in2="hardAlpha" operator="out"/>
<feColorMatrix type="matrix" values="0 0 0 0 0 0 0 0 0 0 0 0 0 0 0 0 0 0 0.15 0"/>
<feBlend mode="normal" in2="BackgroundImageFix" result="effect1_dropShadow_1278_66776"/>
<feBlend mode="normal" in="SourceGraphic" in2="effect1_dropShadow_1278_66776" result="shape"/>
</filter>
<filter id="filter1_d_1278_66776" x="241.44" y="320.312" width="65.9359" height="36.8627" filterUnits="userSpaceOnUse" color-interpolation-filters="sRGB">
<feFlood flood-opacity="0" result="BackgroundImageFix"/>
<feColorMatrix in="SourceAlpha" type="matrix" values="0 0 0 0 0 0 0 0 0 0 0 0 0 0 0 0 0 0 127 0" result="hardAlpha"/>
<feOffset dy="1.0407"/>
<feGaussianBlur stdDeviation="0.520351"/>
<feComposite in2="hardAlpha" operator="out"/>
<feColorMatrix type="matrix" values="0 0 0 0 0 0 0 0 0 0 0 0 0 0 0 0 0 0 0.25 0"/>
<feBlend mode="normal" in2="BackgroundImageFix" result="effect1_dropShadow_1278_66776"/>
<feBlend mode="normal" in="SourceGraphic" in2="effect1_dropShadow_1278_66776" result="shape"/>
</filter>
<filter id="filter2_d_1278_66776" x="239.098" y="320.504" width="70.6191" height="34.0819" filterUnits="userSpaceOnUse" color-interpolation-filters="sRGB">
<feFlood flood-opacity="0" result="BackgroundImageFix"/>
<feColorMatrix in="SourceAlpha" type="matrix" values="0 0 0 0 0 0 0 0 0 0 0 0 0 0 0 0 0 0 127 0" result="hardAlpha"/>
<feOffset/>
<feGaussianBlur stdDeviation="1.69114"/>
<feComposite in2="hardAlpha" operator="out"/>
<feColorMatrix type="matrix" values="0 0 0 0 1 0 0 0 0 1 0 0 0 0 1 0 0 0 1 0"/>
<feBlend mode="normal" in2="BackgroundImageFix" result="effect1_dropShadow_1278_66776"/>
<feBlend mode="normal" in="SourceGraphic" in2="effect1_dropShadow_1278_66776" result="shape"/>
</filter>
<radialGradient id="paint0_radial_1278_66776" cx="0" cy="0" r="1" gradientUnits="userSpaceOnUse" gradientTransform="translate(257.23 320.049) rotate(61.8214) scale(137.523 116.092)">
<stop offset="0.552083" stop-color="white"/>
<stop offset="1" stop-color="#CCD0C9"/>
</radialGradient>
<linearGradient id="paint1_linear_1278_66776" x1="231.657" y1="273.055" x2="110.325" y2="77.8778" gradientUnits="userSpaceOnUse">
<stop offset="0.527397" stop-color="#6DF244"/>
<stop offset="1" stop-color="#388E1D"/>
</linearGradient>
<linearGradient id="paint2_linear_1278_66776" x1="134.515" y1="224.012" x2="182.406" y2="303.663" gradientUnits="userSpaceOnUse">
<stop stop-color="#6CB835"/>
<stop offset="0.40625" stop-color="#6CB835" stop-opacity="0"/>
</linearGradient>
<linearGradient id="paint3_linear_1278_66776" x1="232.801" y1="164.919" x2="280.692" y2="244.569" gradientUnits="userSpaceOnUse">
<stop stop-color="#6CB835"/>
<stop offset="0.40625" stop-color="#6CB835" stop-opacity="0"/>
</linearGradient>
<linearGradient id="paint4_linear_1278_66776" x1="234.26" y1="164.039" x2="282.151" y2="243.69" gradientUnits="userSpaceOnUse">
<stop offset="0.541667" stop-color="#6CB835" stop-opacity="0"/>
<stop offset="1" stop-color="#6CB835"/>
</linearGradient>
<radialGradient id="paint5_radial_1278_66776" cx="0" cy="0" r="1" gradientUnits="userSpaceOnUse" gradientTransform="translate(264.1 173.835) rotate(48.0079) scale(10.6357 8.67669)">
<stop stop-color="white" stop-opacity="0.75"/>
<stop offset="1" stop-color="white" stop-opacity="0"/>
<stop offset="1" stop-color="white"/>
</radialGradient>
<radialGradient id="paint6_radial_1278_66776" cx="0" cy="0" r="1" gradientUnits="userSpaceOnUse" gradientTransform="translate(129.05 255.032) rotate(69.9583) scale(10.6356 8.67669)">
<stop stop-color="white" stop-opacity="0.75"/>
<stop offset="1" stop-color="white" stop-opacity="0"/>
<stop offset="1" stop-color="white"/>
</radialGradient>
<linearGradient id="paint7_linear_1278_66776" x1="134.515" y1="224.012" x2="182.406" y2="303.663" gradientUnits="userSpaceOnUse">
<stop offset="0.671875" stop-color="#6CB835" stop-opacity="0"/>
<stop offset="1" stop-color="#6CB835"/>
</linearGradient>
<radialGradient id="paint8_radial_1278_66776" cx="0" cy="0" r="1" gradientUnits="userSpaceOnUse" gradientTransform="translate(265.053 328.445) rotate(49.243) scale(27.9461 24.4839)">
<stop offset="0.3125" stop-color="#321A93"/>
<stop offset="1" stop-color="#3603FF"/>
<stop offset="1" stop-color="#3603FF"/>
</radialGradient>
</defs>
</svg>
