<svg width="1920" height="1150" viewBox="0 0 1920 1150" fill="none" xmlns="http://www.w3.org/2000/svg">
<g clip-path="url(#clip0)">
<rect width="1920" height="1150" fill="black"/>
<path d="M1385 944.715C1385 902.291 1414.54 817.757 1532.69 819.014C1650.85 820.271 1681.43 903.338 1681.96 944.715C1683 975.092 1665.3 1040.88 1586.11 1060.99C1487.13 1086.13 1385 1029.56 1385 944.715Z" fill="url(#paint0_radial)"/>
<path d="M222.351 277.51C-115.064 335.902 -373.183 110.085 -436 2.62817C109.607 -469.373 925.882 -204.176 1228 2.62858C743.414 -149.434 644.12 204.52 222.351 277.51Z" fill="url(#paint1_radial)"/>
<path d="M1488 -0.394226C1535.61 -12.0742 1641.93 9.61733 1652.69 103.057C1660.95 174.805 1679 275.222 1595.55 353.342C1503 439.986 1531.43 570.043 1630.84 605.296C1724.95 638.667 1838.99 590.278 1854.35 511.856C1877.88 391.719 1786.42 327.701 1792.17 258.234C1813.58 -0.394228 2247.69 140.951 2311 81.2803C2311 -220.483 1595.55 -823.848 1488 -0.394226Z" fill="url(#paint2_radial)"/>
<path d="M260 711.926C260 689.004 275.913 643.328 339.565 644.007C403.217 644.687 419.695 689.57 419.977 711.926C420.541 728.34 411.005 763.884 368.344 774.751C315.018 788.335 260 757.772 260 711.926Z" fill="url(#paint3_radial)"/>
<rect x="-3" y="1149" width="1921" height="395" fill="#F7FAFF" fill-opacity="0.1"/>
</g>
<defs>
<radialGradient id="paint0_radial" cx="0" cy="0" r="1" gradientUnits="userSpaceOnUse" gradientTransform="translate(1476.93 883.952) rotate(44.6204) scale(218.568 221.606)">
<stop offset="0.3125" stop-color="#F85449"/>
<stop offset="1" stop-color="#CF0000"/>
<stop offset="1" stop-color="#C53434"/>
</radialGradient>
<radialGradient id="paint1_radial" cx="0" cy="0" r="1" gradientUnits="userSpaceOnUse" gradientTransform="translate(-46.1736 168.12) rotate(-38.9298) scale(341.827 424.868)">
<stop offset="0.3125" stop-color="#F85449"/>
<stop offset="1" stop-color="#CF0000"/>
<stop offset="1" stop-color="#C53434"/>
</radialGradient>
<radialGradient id="paint2_radial" cx="0" cy="0" r="1" gradientUnits="userSpaceOnUse" gradientTransform="translate(1665.05 449.296) rotate(-65.2426) scale(329.007 318.14)">
<stop offset="0.3125" stop-color="#F85449"/>
<stop offset="1" stop-color="#CF0000"/>
<stop offset="1" stop-color="#C53434"/>
</radialGradient>
<radialGradient id="paint3_radial" cx="0" cy="0" r="1" gradientUnits="userSpaceOnUse" gradientTransform="translate(309.524 679.095) rotate(44.7055) scale(117.92 119.563)">
<stop offset="0.3125" stop-color="#F85449"/>
<stop offset="1" stop-color="#CF0000"/>
<stop offset="1" stop-color="#C53434"/>
</radialGradient>
<clipPath id="clip0">
<rect width="1920" height="1150" fill="white"/>
</clipPath>
</defs>
</svg>
