<svg width="300" height="300" viewBox="0 0 300 300" fill="none" xmlns="http://www.w3.org/2000/svg">
<g clip-path="url(#clip0)">
<rect width="300" height="300" fill="white"/>
<g filter="url(#filter0_f)">
<rect x="300.068" y="300.038" width="300" height="300" transform="rotate(-180 300.068 300.038)" fill="#0E103E"/>
</g>
<g style="mix-blend-mode:overlay" filter="url(#filter1_f)">
<ellipse rx="231.812" ry="79.5327" transform="matrix(0.999998 0.00221055 0.00221055 -0.999998 151.486 313.016)" fill="url(#paint0_radial)"/>
</g>
<g style="mix-blend-mode:overlay" filter="url(#filter2_f)">
<ellipse cx="149.482" cy="114.044" rx="234.255" ry="288.815" transform="rotate(0.126655 149.482 114.044)" fill="url(#paint1_radial)"/>
</g>
<g opacity="0.5">
<g style="mix-blend-mode:overlay" opacity="0.5">
<path d="M53.9063 62.1094C18.7045 38.263 103.125 -5.33854 132.031 -8.20312H36.7188C7.96875 -5.07812 -0.260417 9.24479 -0.78125 16.0156V73.0469C7.29167 83.9844 23.7173 105.583 75 119.141C142.969 137.109 224.94 102.202 196.875 62.1094C175 30.8594 102.344 94.9219 53.9063 62.1094Z" fill="white"/>
</g>
<g style="mix-blend-mode:overlay" opacity="0.5">
<path fill-rule="evenodd" clip-rule="evenodd" d="M164.844 0.390625C141.927 5.33854 99.8437 17.5781 114.844 26.9531C121.707 31.2426 136.107 31.2405 153.024 31.2379C182.324 31.2335 219.175 31.2279 237.5 53.5156C267.159 89.587 243.75 146.484 171.875 169.141C170.873 169.456 169.865 169.774 168.852 170.093C97.18 192.676 -1.46403 223.757 56.25 253.516C74.0892 262.714 93.9173 256 114.422 249.058C151.387 236.542 190.55 223.282 224.219 301.172H286.719C242.188 271.484 246.326 213.686 275 199.609C307.757 183.528 303.888 152.161 301.122 129.738C300.26 122.748 299.505 116.627 300 112.109V0.390625H164.844ZM224.219 176.953C213.594 193.828 175 203.255 157.031 205.859C142.187 223.828 178.125 216.016 183.594 211.328C189.062 206.641 200 217.578 203.125 232.422C206.25 247.266 232.812 244.922 231.25 232.422C229.687 219.922 229.687 205.859 247.656 191.797C265.625 177.734 237.5 155.859 224.219 176.953Z" fill="white"/>
</g>
<g style="mix-blend-mode:overlay" opacity="0.5">
<path d="M62.5 149.609C95.3125 149.609 93.75 176.172 62.5 181.641C32.0377 186.972 2.31777 195.272 1.5625 211.607V212.891C1.54281 212.457 1.54297 212.03 1.5625 211.607V131.627C14.1704 138.759 39.0029 149.609 62.5 149.609Z" fill="white"/>
</g>
</g>
<g opacity="0.6">
<circle cx="18.2895" cy="67.4064" r="1.00018" fill="white"/>
<circle cx="183.705" cy="212.763" r="1.00018" transform="rotate(165 183.705 212.763)" fill="white"/>
<circle cx="279.041" cy="96.9901" r="1.00018" transform="rotate(75 279.041 96.9901)" fill="white"/>
<circle cx="291.459" cy="107.084" r="1.00018" transform="rotate(75 291.459 107.084)" fill="white"/>
<circle cx="276.616" cy="70.7561" r="1.00018" transform="rotate(75 276.616 70.7561)" fill="white"/>
<circle cx="134.638" cy="125.768" r="1.00018" transform="rotate(75 134.638 125.768)" fill="white"/>
<circle cx="228.388" cy="122.252" r="1.00018" transform="rotate(75 228.388 122.252)" fill="white"/>
<circle cx="7.47489" cy="25.8343" r="1.00018" transform="rotate(75 7.47489 25.8343)" fill="white"/>
<circle cx="55.2297" cy="101.412" r="1.00018" fill="white"/>
<circle cx="139.222" cy="189.477" r="1.00018" transform="rotate(165 139.222 189.477)" fill="white"/>
<circle cx="255.754" cy="141.473" r="1.00018" transform="rotate(75 255.754 141.473)" fill="white"/>
<circle cx="111.352" cy="170.251" r="1.00018" transform="rotate(75 111.352 170.251)" fill="white"/>
<circle cx="205.102" cy="166.735" r="1.00018" transform="rotate(75 205.102 166.735)" fill="white"/>
<circle cx="34.7891" cy="80.4067" r="1.00018" transform="rotate(75 34.7891 80.4067)" fill="white"/>
<circle cx="50.0285" cy="68.3399" r="1.00018" fill="white"/>
<circle cx="152.805" cy="220.076" r="1.00018" transform="rotate(165 152.805 220.076)" fill="white"/>
<circle cx="286.354" cy="127.889" r="1.00018" transform="rotate(75 286.354 127.889)" fill="white"/>
<circle cx="141.951" cy="156.667" r="1.00018" transform="rotate(75 141.951 156.667)" fill="white"/>
<circle cx="235.701" cy="153.151" r="1.00018" transform="rotate(75 235.701 153.151)" fill="white"/>
<circle cx="252.006" cy="167.24" r="1.00018" transform="rotate(75 252.006 167.24)" fill="white"/>
<circle cx="57.4751" cy="87.1625" r="1.00018" transform="rotate(75 57.4751 87.1625)" fill="white"/>
<circle cx="14.822" cy="145.554" r="1.00018" fill="white"/>
<circle cx="166.828" cy="136.381" r="1.00018" transform="rotate(165 166.828 136.381)" fill="white"/>
<circle cx="202.659" cy="113.867" r="1.00018" transform="rotate(75 202.659 113.867)" fill="white"/>
<circle cx="58.2561" cy="142.645" r="1.00018" transform="rotate(75 58.2561 142.645)" fill="white"/>
<circle cx="152.006" cy="139.129" r="1.00018" transform="rotate(75 152.006 139.129)" fill="white"/>
<circle cx="2.95331" cy="136.886" r="1.00018" fill="white"/>
<circle cx="180.536" cy="141.682" r="1.00018" transform="rotate(165 180.536 141.682)" fill="white"/>
<circle cx="207.96" cy="100.159" r="1.00018" transform="rotate(75 207.96 100.159)" fill="white"/>
<circle cx="63.5572" cy="128.937" r="1.00018" transform="rotate(75 63.5572 128.937)" fill="white"/>
<circle cx="157.307" cy="125.421" r="1.00018" transform="rotate(75 157.307 125.421)" fill="white"/>
<circle cx="44.8276" cy="149.821" r="1.00018" fill="white"/>
<circle cx="51.0002" cy="164.672" r="1.00018" fill="white"/>
<circle cx="136.74" cy="140.025" r="1.00018" transform="rotate(165 136.74 140.025)" fill="white"/>
<circle cx="239.116" cy="260.209" r="1.00018" transform="rotate(75 239.116 260.209)" fill="white"/>
<circle cx="61.9002" cy="172.732" r="1.00018" transform="rotate(75 61.9002 172.732)" fill="white"/>
<circle cx="155.65" cy="169.216" r="1.00018" transform="rotate(75 155.65 169.216)" fill="white"/>
<circle cx="7.88763" cy="77.8083" r="1.00018" fill="white"/>
<circle cx="191.06" cy="200.024" r="1.00018" transform="rotate(165 191.06 200.024)" fill="white"/>
<circle cx="266.301" cy="89.6348" r="1.00018" transform="rotate(75 266.301 89.6348)" fill="white"/>
<circle cx="183.647" cy="262.944" r="1.00018" transform="rotate(75 183.647 262.944)" fill="white"/>
<circle cx="215.649" cy="114.897" r="1.00018" transform="rotate(75 215.649 114.897)" fill="white"/>
<circle cx="8.64677" cy="10.6" r="1.00018" transform="rotate(75 8.64677 10.6)" fill="white"/>
<circle cx="274.438" cy="198.266" r="1.00018" fill="white"/>
<circle cx="186.653" cy="178.424" r="1.00018" transform="rotate(165 186.653 178.424)" fill="white"/>
<circle cx="185.991" cy="60.6" r="1.00018" transform="rotate(75 185.991 60.6)" fill="white"/>
<circle cx="100.299" cy="122.819" r="1.00018" transform="rotate(75 100.299 122.819)" fill="white"/>
<circle cx="194.049" cy="119.304" r="1.00018" transform="rotate(75 194.049 119.304)" fill="white"/>
<circle cx="23.7366" cy="32.9758" r="1.00018" transform="rotate(75 23.7366 32.9758)" fill="white"/>
<circle cx="20.2897" cy="104.48" r="1.00018" fill="white"/>
<circle cx="172.177" cy="177.471" r="1.00018" transform="rotate(165 172.177 177.471)" fill="white"/>
<circle cx="243.749" cy="108.517" r="1.00018" transform="rotate(75 243.749 108.517)" fill="white"/>
<circle cx="11.772" cy="277.397" r="1.00018" transform="rotate(75 11.772 277.397)" fill="white"/>
<circle cx="193.096" cy="133.779" r="1.00018" transform="rotate(75 193.096 133.779)" fill="white"/>
<circle cx="22.7835" cy="47.4513" r="1.00018" transform="rotate(75 22.7835 47.4513)" fill="white"/>
<circle cx="36.9377" cy="52.5627" r="1.00018" fill="white"/>
<circle cx="42.4067" cy="23.2658" r="1.00018" fill="white"/>
<circle cx="59.5939" cy="35.3751" r="1.00018" fill="white"/>
<circle cx="69.7502" cy="9.59381" r="1.00018" fill="white"/>
<circle cx="234.594" cy="71.7032" r="1.00018" fill="white"/>
<circle cx="268.188" cy="30.6876" r="1.00018" fill="white"/>
<circle cx="217.406" cy="47.0938" r="1.00018" fill="white"/>
<circle cx="213.5" cy="25.2189" r="1.00018" fill="white"/>
<circle cx="143.188" cy="4.90631" r="1.00018" fill="white"/>
<circle cx="114.672" cy="7.64068" r="1.00018" fill="white"/>
<circle cx="116.625" cy="34.9846" r="1.00018" fill="white"/>
<circle cx="77.5629" cy="61.5471" r="1.00018" fill="white"/>
<circle cx="178.344" cy="15.0627" r="1.00018" fill="white"/>
<circle cx="187.719" cy="40.4533" r="1.00018" fill="white"/>
<circle cx="208.813" cy="77.1721" r="1.00018" fill="white"/>
<circle cx="105.688" cy="61.5471" r="1.00018" fill="white"/>
<circle cx="92.4064" cy="82.6407" r="1.00018" fill="white"/>
<circle cx="123.703" cy="228.427" r="1.00018" transform="rotate(165 123.703 228.427)" fill="white"/>
<circle cx="294.704" cy="156.992" r="1.00018" transform="rotate(75 294.704 156.992)" fill="white"/>
<circle cx="150.302" cy="185.77" r="1.00018" transform="rotate(75 150.302 185.77)" fill="white"/>
<circle cx="244.052" cy="182.254" r="1.00018" transform="rotate(75 244.052 182.254)" fill="white"/>
<circle cx="73.7391" cy="95.9259" r="1.00018" transform="rotate(75 73.7391 95.9259)" fill="white"/>
<circle cx="8.03143" cy="47.8752" r="1.00018" fill="white"/>
<circle cx="108.194" cy="225.679" r="1.00018" transform="rotate(165 108.194 225.679)" fill="white"/>
<circle cx="291.957" cy="172.501" r="1.00018" transform="rotate(75 291.957 172.501)" fill="white"/>
<circle cx="98.0999" cy="284.037" r="1.00018" transform="rotate(75 98.0999 284.037)" fill="white"/>
<circle cx="241.304" cy="197.763" r="1.00018" transform="rotate(75 241.304 197.763)" fill="white"/>
<circle cx="264.116" cy="210.991" r="1.00018" transform="rotate(75 264.116 210.991)" fill="white"/>
<circle cx="239.897" cy="217.631" r="1.00018" transform="rotate(75 239.897 217.631)" fill="white"/>
<circle cx="205.522" cy="238.725" r="1.00018" transform="rotate(75 205.522 238.725)" fill="white"/>
<circle cx="169.584" cy="158.647" r="1.00018" transform="rotate(75 169.584 158.647)" fill="white"/>
<circle cx="124.272" cy="177.397" r="1.00018" transform="rotate(75 124.272 177.397)" fill="white"/>
<circle cx="125.053" cy="209.428" r="1.00018" transform="rotate(75 125.053 209.428)" fill="white"/>
<circle cx="80.5218" cy="179.741" r="1.00018" transform="rotate(75 80.5218 179.741)" fill="white"/>
<circle cx="79.7408" cy="157.865" r="1.00018" transform="rotate(75 79.7408 157.865)" fill="white"/>
<circle cx="70.9917" cy="111.435" r="1.00018" transform="rotate(75 70.9917 111.435)" fill="white"/>
<circle cx="87.2353" cy="111.681" r="1.00018" fill="white"/>
<circle cx="105.649" cy="187.842" r="1.00018" transform="rotate(165 105.649 187.842)" fill="white"/>
<circle cx="279.741" cy="228.178" r="1.00018" transform="rotate(75 279.741 228.178)" fill="white"/>
<circle cx="268.803" cy="160.991" r="1.00018" transform="rotate(75 268.803 160.991)" fill="white"/>
<circle cx="275.835" cy="145.366" r="1.00018" transform="rotate(75 275.835 145.366)" fill="white"/>
<circle cx="244.584" cy="127.397" r="1.00018" transform="rotate(75 244.584 127.397)" fill="white"/>
<circle cx="282.084" cy="276.616" r="1.00018" transform="rotate(75 282.084 276.616)" fill="white"/>
<circle cx="219.194" cy="135.209" r="1.00018" transform="rotate(75 219.194 135.209)" fill="white"/>
<circle cx="289.506" cy="78.178" r="1.00018" transform="rotate(75 289.506 78.178)" fill="white"/>
<circle cx="292.631" cy="59.4281" r="1.00018" transform="rotate(75 292.631 59.4281)" fill="white"/>
<circle cx="109.717" cy="203.823" r="1.00018" transform="rotate(75 109.717 203.823)" fill="white"/>
<circle cx="203.467" cy="200.308" r="1.00018" transform="rotate(75 203.467 200.308)" fill="white"/>
<circle cx="211.772" cy="185.6" r="1.00018" transform="rotate(75 211.772 185.6)" fill="white"/>
<circle cx="189.897" cy="158.256" r="1.00018" transform="rotate(75 189.897 158.256)" fill="white"/>
<circle cx="33.1543" cy="113.98" r="1.00018" transform="rotate(75 33.1543 113.98)" fill="white"/>
<circle cx="40.0629" cy="293.188" r="1.00018" fill="white"/>
<circle cx="112.308" cy="160.654" r="1.00018" transform="rotate(165 112.308 160.654)" fill="white"/>
<circle cx="226.932" cy="168.386" r="1.00018" transform="rotate(75 226.932 168.386)" fill="white"/>
<circle cx="82.5291" cy="197.164" r="1.00018" transform="rotate(75 82.5291 197.164)" fill="white"/>
<circle cx="176.279" cy="193.649" r="1.00018" transform="rotate(75 176.279 193.649)" fill="white"/>
<circle cx="230.913" cy="288.725" r="1.00018" transform="rotate(75 230.913 288.725)" fill="white"/>
<circle cx="68.4318" cy="148.221" r="1.00018" fill="white"/>
<circle cx="114.354" cy="147.68" r="1.00018" transform="rotate(165 114.354 147.68)" fill="white"/>
<circle cx="213.958" cy="166.34" r="1.00018" transform="rotate(75 213.958 166.34)" fill="white"/>
<circle cx="69.555" cy="195.118" r="1.00018" transform="rotate(75 69.555 195.118)" fill="white"/>
<circle cx="163.305" cy="191.602" r="1.00018" transform="rotate(75 163.305 191.602)" fill="white"/>
<circle cx="90.569" cy="135.952" r="1.00018" fill="white"/>
<circle cx="96.1471" cy="165.261" r="1.00018" transform="rotate(165 96.1471 165.261)" fill="white"/>
<circle cx="231.538" cy="184.548" r="1.00018" transform="rotate(75 231.538 184.548)" fill="white"/>
<circle cx="87.1355" cy="213.325" r="1.00018" transform="rotate(75 87.1355 213.325)" fill="white"/>
<circle cx="180.886" cy="209.81" r="1.00018" transform="rotate(75 180.886 209.81)" fill="white"/>
<circle cx="10.573" cy="123.482" r="1.00018" transform="rotate(75 10.573 123.482)" fill="white"/>
<path d="M218.912 150.323L218.552 149.35L217.578 148.99L218.552 148.629L218.912 147.656L219.272 148.629L220.246 148.99L219.272 149.35L218.912 150.323Z" fill="#FFF7B0"/>
<path d="M76.1171 140.167L75.7569 139.194L74.7835 138.834L75.7569 138.473L76.1171 137.5L76.4773 138.473L77.4507 138.834L76.4773 139.194L76.1171 140.167Z" fill="#FFF7B0"/>
<path d="M46.039 58.5265L45.6788 57.5531L44.7054 57.1929L45.6788 56.8327L46.039 55.8593L46.3992 56.8327L47.3726 57.1929L46.3992 57.5531L46.039 58.5265Z" fill="#FFF7B0"/>
<path d="M290.787 40.9484L290.427 39.975L289.453 39.6148L290.427 39.2546L290.787 38.2812L291.147 39.2546L292.121 39.6148L291.147 39.975L290.787 40.9484Z" fill="#FFF7B0"/>
<path d="M205.635 189.31L205.275 188.336L204.301 187.976L205.275 187.616L205.635 186.643L205.995 187.616L206.968 187.976L205.995 188.336L205.635 189.31Z" fill="#FFF7B0"/>
<path d="M68.9159 186.576L68.5558 185.602L67.5824 185.242L68.5558 184.882L68.9159 183.908L69.2761 184.882L70.2495 185.242L69.2761 185.602L68.9159 186.576Z" fill="#FFF7B0"/>
<path d="M38.8378 104.935L38.4776 103.961L37.5042 103.601L38.4776 103.241L38.8378 102.268L39.198 103.241L40.1714 103.601L39.198 103.961L38.8378 104.935Z" fill="#FFF7B0"/>
<path d="M247.041 99.8568L246.681 98.8834L245.707 98.5232L246.681 98.1631L247.041 97.1897L247.401 98.1631L248.375 98.5232L247.401 98.8834L247.041 99.8568Z" fill="#FFF7B0"/>
<path d="M214.836 175.841L214.476 174.867L213.503 174.507L214.476 174.147L214.836 173.174L215.197 174.147L216.17 174.507L215.197 174.867L214.836 175.841Z" fill="#FFF7B0"/>
<path d="M78.1176 173.106L77.7574 172.133L76.784 171.773L77.7574 171.413L78.1176 170.439L78.4778 171.413L79.4512 171.773L78.4778 172.133L78.1176 173.106Z" fill="#FFF7B0"/>
<path d="M48.0395 91.4657L47.6793 90.4923L46.7059 90.1321L47.6793 89.7719L48.0395 88.7985L48.3997 89.7719L49.373 90.1321L48.3997 90.4923L48.0395 91.4657Z" fill="#FFF7B0"/>
<path d="M256.243 86.3877L255.882 85.4143L254.909 85.0541L255.882 84.6939L256.243 83.7205L256.603 84.6939L257.576 85.0541L256.603 85.4143L256.243 86.3877Z" fill="#FFF7B0"/>
<path d="M212.836 208.78L212.476 207.807L211.502 207.447L212.476 207.086L212.836 206.113L213.196 207.086L214.169 207.447L213.196 207.807L212.836 208.78Z" fill="#FFF7B0"/>
<path d="M232.193 208.917L231.833 207.944L230.859 207.583L231.833 207.223L232.193 206.25L232.553 207.223L233.527 207.583L232.553 207.944L232.193 208.917Z" fill="#FFF7B0"/>
<path d="M218.131 221.417L217.77 220.444L216.797 220.084L217.77 219.723L218.131 218.75L218.491 219.723L219.464 220.084L218.491 220.444L218.131 221.417Z" fill="#FFF7B0"/>
<path d="M76.1171 206.046L75.7569 205.072L74.7835 204.712L75.7569 204.352L76.1171 203.379L76.4773 204.352L77.4507 204.712L76.4773 205.072L76.1171 206.046Z" fill="#FFF7B0"/>
<path d="M46.039 124.405L45.6788 123.432L44.7054 123.072L45.6788 122.711L46.039 121.738L46.3992 122.711L47.3726 123.072L46.3992 123.432L46.039 124.405Z" fill="#FFF7B0"/>
<path d="M254.242 119.327L253.882 118.354L252.909 117.993L253.882 117.633L254.242 116.66L254.602 117.633L255.576 117.993L254.602 118.354L254.242 119.327Z" fill="#FFF7B0"/>
<path d="M138.271 265.996L137.641 264.292L135.937 263.662L137.641 263.032L138.271 261.328L138.902 263.032L140.605 263.662L138.902 264.292L138.271 265.996Z" fill="#FFF7B0"/>
<path d="M94.8537 211.913L94.2234 210.21L92.52 209.58L94.2234 208.949L94.8537 207.246L95.4841 208.949L97.1875 209.58L95.4841 210.21L94.8537 211.913Z" fill="#FFF7B0"/>
<path d="M78.115 125.761L77.4846 124.058L75.7812 123.427L77.4846 122.797L78.115 121.094L78.7453 122.797L80.4487 123.427L78.7453 124.058L78.115 125.761Z" fill="#FFF7B0"/>
<path d="M84.365 37.48L83.7346 35.7766L82.0312 35.1462L83.7346 34.5159L84.365 32.8125L84.9953 34.5159L86.6987 35.1462L84.9953 35.7766L84.365 37.48Z" fill="#FFF7B0"/>
<path d="M266.787 179.667L266.157 177.964L264.453 177.334L266.157 176.703L266.787 175L267.417 176.703L269.121 177.334L267.417 177.964L266.787 179.667Z" fill="#FFF7B0"/>
<path d="M189.698 170.906L189.068 169.203L187.365 168.573L189.068 167.942L189.698 166.239L190.329 167.942L192.032 168.573L190.329 169.203L189.698 170.906Z" fill="#FFF7B0"/>
<path d="M56.24 260.136L55.6096 258.433L53.9062 257.802L55.6096 257.172L56.24 255.469L56.8703 257.172L58.5737 257.802L56.8703 258.433L56.24 260.136Z" fill="#FFF7B0"/>
<path d="M22.9016 86.5315L22.2713 84.8281L20.5678 84.1977L22.2713 83.5674L22.9016 81.864L23.5319 83.5674L25.2354 84.1977L23.5319 84.8281L22.9016 86.5315Z" fill="#FFF7B0"/>
<path d="M258.584 73.8081L257.953 72.1047L256.25 71.4743L257.953 70.844L258.584 69.1406L259.214 70.844L260.917 71.4743L259.214 72.1047L258.584 73.8081Z" fill="#FFF7B0"/>
<path d="M246.084 43.3394L245.453 41.6359L243.75 41.0056L245.453 40.3753L246.084 38.6718L246.714 40.3753L248.417 41.0056L246.714 41.6359L246.084 43.3394Z" fill="#FFF7B0"/>
<path d="M287.881 5.05798L287.25 3.35455L285.547 2.72423L287.25 2.0939L287.881 0.390471L288.511 2.0939L290.214 2.72423L288.511 3.35455L287.881 5.05798Z" fill="#FFF7B0"/>
<path d="M226.905 195.711L226.275 194.008L224.572 193.377L226.275 192.747L226.905 191.044L227.536 192.747L229.239 193.377L227.536 194.008L226.905 195.711Z" fill="#FFF7B0"/>
<path d="M250.381 229.277L249.75 227.573L248.047 226.943L249.75 226.313L250.381 224.609L251.011 226.313L252.714 226.943L251.011 227.573L250.381 229.277Z" fill="#FFF7B0"/>
<path d="M226.943 244.121L226.313 242.417L224.609 241.787L226.313 241.157L226.943 239.453L227.573 241.157L229.277 241.787L227.573 242.417L226.943 244.121Z" fill="#FFF7B0"/>
<path d="M90.1865 192.977L89.5562 191.273L87.8528 190.643L89.5562 190.012L90.1865 188.309L90.8168 190.012L92.5203 190.643L90.8168 191.273L90.1865 192.977Z" fill="#FFF7B0"/>
<path d="M14.0525 223.808L13.4221 222.105L11.7187 221.474L13.4221 220.844L14.0525 219.141L14.6828 220.844L16.3862 221.474L14.6828 222.105L14.0525 223.808Z" fill="#FFF7B0"/>
<path d="M268.312 106.258L267.681 104.554L265.978 103.924L267.681 103.294L268.312 101.59L268.942 103.294L270.645 103.924L268.942 104.554L268.312 106.258Z" fill="#FFF7B0"/>
<path d="M240.108 146.235L239.477 144.532L237.774 143.902L239.477 143.271L240.108 141.568L240.738 143.271L242.441 143.902L240.738 144.532L240.108 146.235Z" fill="#FFF7B0"/>
<path d="M199.209 150.761L198.578 149.058L196.875 148.427L198.578 147.797L199.209 146.094L199.839 147.797L201.542 148.427L199.839 149.058L199.209 150.761Z" fill="#FFF7B0"/>
<path d="M24.9902 202.324L24.3599 200.62L22.6565 199.99L24.3599 199.36L24.9902 197.656L25.6205 199.36L27.324 199.99L25.6205 200.62L24.9902 202.324Z" fill="#FFF7B0"/>
<path d="M63.2712 234.355L62.6409 232.651L60.9375 232.021L62.6409 231.391L63.2712 229.687L63.9016 231.391L65.605 232.021L63.9016 232.651L63.2712 234.355Z" fill="#FFF7B0"/>
<path d="M32.4219 246.094L31.0503 242.387L27.3437 241.016L31.0503 239.644L32.4219 235.938L33.7934 239.644L37.5 241.016L33.7934 242.387L32.4219 246.094Z" fill="#FFF7B0"/>
<path d="M98.4375 22.2655L97.0659 18.5589L93.3594 17.1874L97.0659 15.8158L98.4375 12.1093L99.8091 15.8158L103.516 17.1874L99.8091 18.5589L98.4375 22.2655Z" fill="#FFF7B0"/>
<path d="M269.141 132.812L267.769 129.106L264.062 127.734L267.769 126.363L269.141 122.656L270.512 126.363L274.219 127.734L270.512 129.106L269.141 132.812Z" fill="#FFF7B0"/>
<path d="M104.287 255.449L103.657 253.745L101.953 253.115L103.657 252.485L104.287 250.781L104.917 252.485L106.621 253.115L104.917 253.745L104.287 255.449Z" fill="#FFF7B0"/>
<path d="M31.24 159.355L30.6096 157.652L28.9062 157.021L30.6096 156.391L31.24 154.687L31.8703 156.391L33.5737 157.021L31.8703 157.652L31.24 159.355Z" fill="#FFF7B0"/>
<path d="M281.514 56.7822L280.884 55.0788L279.18 54.4485L280.884 53.8181L281.514 52.1147L282.144 53.8181L283.848 54.4485L282.144 55.0788L281.514 56.7822Z" fill="#FFF7B0"/>
<path d="M240.224 16.3861L239.594 14.6827L237.891 14.0524L239.594 13.422L240.224 11.7186L240.855 13.422L242.558 14.0524L240.855 14.6827L240.224 16.3861Z" fill="#FFF7B0"/>
<path d="M194.966 214.648L194.606 213.674L193.632 213.314L194.606 212.954L194.966 211.981L195.326 212.954L196.3 213.314L195.326 213.674L194.966 214.648Z" fill="#FFF7B0"/>
<path d="M58.2475 211.913L57.8873 210.94L56.9139 210.58L57.8873 210.22L58.2475 209.246L58.6077 210.22L59.5811 210.58L58.6077 210.94L58.2475 211.913Z" fill="#FFF7B0"/>
<path d="M28.1694 130.273L27.8092 129.299L26.8358 128.939L27.8092 128.579L28.1694 127.606L28.5295 128.579L29.5029 128.939L28.5295 129.299L28.1694 130.273Z" fill="#FFF7B0"/>
<path d="M236.372 125.195L236.012 124.221L235.039 123.861L236.012 123.501L236.372 122.528L236.733 123.501L237.706 123.861L236.733 124.221L236.372 125.195Z" fill="#FFF7B0"/>
<path d="M180.563 194.911L180.203 193.938L179.23 193.577L180.203 193.217L180.563 192.244L180.924 193.217L181.897 193.577L180.924 193.938L180.563 194.911Z" fill="#FFF7B0"/>
<path d="M43.8446 192.177L43.4845 191.203L42.5111 190.843L43.4845 190.483L43.8446 189.509L44.2048 190.483L45.1782 190.843L44.2048 191.203L43.8446 192.177Z" fill="#FFF7B0"/>
<path d="M168.131 292.12L167.771 291.147L166.797 290.787L167.771 290.426L168.131 289.453L168.491 290.426L169.464 290.787L168.491 291.147L168.131 292.12Z" fill="#FFF7B0"/>
<path d="M221.97 105.458L221.609 104.484L220.636 104.124L221.609 103.764L221.97 102.791L222.33 103.764L223.303 104.124L222.33 104.484L221.97 105.458Z" fill="#FFF7B0"/>
<path d="M213.834 254.62L213.474 253.647L212.5 253.287L213.474 252.926L213.834 251.953L214.194 252.926L215.167 253.287L214.194 253.647L213.834 254.62Z" fill="#FFF7B0"/>
<path d="M41.1774 225.516L40.8172 224.542L39.8438 224.182L40.8172 223.822L41.1774 222.849L41.5376 223.822L42.511 224.182L41.5376 224.542L41.1774 225.516Z" fill="#FFF7B0"/>
<path d="M13.4433 176.495L13.0831 175.522L12.1097 175.162L13.0831 174.801L13.4433 173.828L13.8035 174.801L14.7769 175.162L13.8035 175.522L13.4433 176.495Z" fill="#FFF7B0"/>
<path d="M228.677 137.433L228.317 136.459L227.344 136.099L228.317 135.739L228.677 134.765L229.038 135.739L230.011 136.099L229.038 136.459L228.677 137.433Z" fill="#FFF7B0"/>
</g>
<g filter="url(#filter3_b)">
<path d="M131.774 69.7942C131.837 69.4171 132.163 69.1406 132.545 69.1406H167.064C167.447 69.1406 167.773 69.4171 167.835 69.7942L184.306 169.207C184.349 169.466 184.264 169.724 184.066 169.895C181.951 171.718 169.137 182.031 149.805 182.031C130.472 182.031 117.658 171.718 115.544 169.895C115.345 169.724 115.26 169.466 115.303 169.207L131.774 69.7942Z" fill="white" fill-opacity="0.75"/>
</g>
<mask id="mask0" style="mask-type:alpha" maskUnits="userSpaceOnUse" x="115" y="67" width="70" height="116">
<path d="M131.926 68.623C131.988 68.2456 132.314 67.9688 132.697 67.9688H166.913C167.295 67.9688 167.621 68.2456 167.683 68.623L184.301 169.45C184.347 169.728 184.247 170.003 184.023 170.174C181.581 172.041 166.767 182.812 150.119 182.812C133.469 182.812 118.129 172.038 115.599 170.173C115.368 170.003 115.263 169.724 115.31 169.441L131.926 68.623Z" fill="#577096" fill-opacity="0.75"/>
</mask>
<g mask="url(#mask0)">
<path d="M145.213 140.791C126.045 134.964 111.381 157.499 107.812 168.223C138.808 215.326 185.181 188.861 202.344 168.223C174.815 183.398 169.174 148.075 145.213 140.791Z" fill="url(#paint2_radial)"/>
<path d="M165.625 132.611C165.625 127.933 168.888 118.613 181.942 118.752C194.996 118.89 198.375 128.049 198.433 132.611C198.548 135.96 196.593 143.213 187.844 145.431C176.908 148.203 165.625 141.966 165.625 132.611Z" fill="url(#paint3_radial)"/>
<path d="M152.344 103.618C152.344 101.079 154.092 96.0193 161.085 96.0946C168.078 96.1698 169.888 101.142 169.919 103.618C169.981 105.436 168.934 109.374 164.247 110.578C158.388 112.082 152.344 108.697 152.344 103.618Z" fill="url(#paint4_radial)"/>
<path d="M116.406 78.0864C120.474 77.0873 129.558 78.9429 130.476 86.9361C131.182 93.0737 130.62 103.636 125.595 108.346C119.708 113.864 120.117 126.884 128.61 129.899C136.65 132.754 146.393 128.615 147.705 121.906C149.715 111.629 141.902 106.153 142.393 100.21C144.222 78.0864 181.31 90.1776 186.719 85.0732C186.719 59.2592 125.595 7.64506 116.406 78.0864Z" fill="url(#paint5_radial)"/>
</g>
<path d="M137.797 47.0978C137.805 47.0703 137.809 47.0523 137.814 47.0242C137.954 46.1476 141.012 27.7344 149.657 27.7344C158.331 27.7344 161.664 46.2722 161.797 47.0324C161.801 47.0567 161.804 47.0684 161.811 47.0921L167.867 69.584C167.931 69.8218 167.881 70.0723 167.704 70.2445C166.619 71.3069 161.969 75 149.805 75C137.641 75 132.991 71.3069 131.905 70.2445C131.729 70.0723 131.678 69.8218 131.742 69.584L137.797 47.0978Z" fill="#333333"/>
<path d="M137.797 47.0978C137.805 47.0703 137.809 47.0523 137.814 47.0242C137.954 46.1476 141.012 27.7344 149.657 27.7344C158.331 27.7344 161.664 46.2722 161.797 47.0324C161.801 47.0567 161.804 47.0684 161.811 47.0921L167.867 69.584C167.931 69.8218 167.881 70.0723 167.704 70.2445C166.619 71.3069 161.969 75 149.805 75C137.641 75 132.991 71.3069 131.905 70.2445C131.729 70.0723 131.678 69.8218 131.742 69.584L137.797 47.0978Z" fill="url(#paint6_linear)"/>
<path d="M126.904 174.561C126.738 173.792 125.657 173.717 125.38 174.453C116.919 196.936 101.385 223.185 100.436 273.988C100.42 274.877 101.665 275.072 101.953 274.231C113.923 239.31 125.5 225.99 137.369 228.608C137.955 228.737 138.514 228.227 138.387 227.641L126.904 174.561Z" fill="#333333"/>
<path d="M126.904 174.561C126.738 173.792 125.657 173.717 125.38 174.453C116.919 196.936 101.385 223.185 100.436 273.988C100.42 274.877 101.665 275.072 101.953 274.231C113.923 239.31 125.5 225.99 137.369 228.608C137.955 228.737 138.514 228.227 138.387 227.641L126.904 174.561Z" fill="url(#paint7_linear)"/>
<path d="M173.096 174.561C173.262 173.792 174.343 173.717 174.62 174.453C183.081 196.936 198.615 223.185 199.564 273.988C199.58 274.877 198.335 275.072 198.047 274.231C186.077 239.31 174.5 225.99 162.631 228.608C162.045 228.737 161.486 228.227 161.613 227.641L173.096 174.561Z" fill="#333333"/>
<path d="M173.096 174.561C173.262 173.792 174.343 173.717 174.62 174.453C183.081 196.936 198.615 223.185 199.564 273.988C199.58 274.877 198.335 275.072 198.047 274.231C186.077 239.31 174.5 225.99 162.631 228.608C162.045 228.737 161.486 228.227 161.613 227.641L173.096 174.561Z" fill="url(#paint8_linear)"/>
<path d="M115.202 170.177C114.586 169.933 113.924 170.505 114.09 171.147L123.154 206.194C123.156 206.205 123.155 206.202 123.159 206.213C123.268 206.569 134.375 242.578 149.609 242.578C164.843 242.578 175.951 206.569 176.06 206.213C176.063 206.202 176.062 206.205 176.065 206.194L185.129 171.147C185.295 170.505 184.633 169.933 184.016 170.177C179.87 171.815 167.513 176.005 149.609 176.005C131.706 176.005 119.349 171.815 115.202 170.177Z" fill="#333333"/>
<path d="M115.202 170.177C114.586 169.933 113.924 170.505 114.09 171.147L123.154 206.194C123.156 206.205 123.155 206.202 123.159 206.213C123.268 206.569 134.375 242.578 149.609 242.578C164.843 242.578 175.951 206.569 176.06 206.213C176.063 206.202 176.062 206.205 176.065 206.194L185.129 171.147C185.295 170.505 184.633 169.933 184.016 170.177C179.87 171.815 167.513 176.005 149.609 176.005C131.706 176.005 119.349 171.815 115.202 170.177Z" fill="url(#paint9_linear)"/>
<path d="M150 180.462C150 179.65 151.066 179.389 151.425 180.118C162.259 202.078 164.308 227.747 164.445 277.004C164.448 277.914 163.329 278.056 163.159 277.161C160.343 262.346 161.268 247.132 150.185 233.815C150.067 233.673 150 233.493 150 233.308V180.462Z" fill="#333333"/>
<path d="M150 180.462C150 179.65 151.066 179.389 151.425 180.118C162.259 202.078 164.308 227.747 164.445 277.004C164.448 277.914 163.329 278.056 163.159 277.161C160.343 262.346 161.268 247.132 150.185 233.815C150.067 233.673 150 233.493 150 233.308V180.462Z" fill="url(#paint10_linear)"/>
</g>
<defs>
<filter id="filter0_f" x="-1.49438" y="-1.52405" width="303.125" height="303.125" filterUnits="userSpaceOnUse" color-interpolation-filters="sRGB">
<feFlood flood-opacity="0" result="BackgroundImageFix"/>
<feBlend mode="normal" in="SourceGraphic" in2="BackgroundImageFix" result="shape"/>
<feGaussianBlur stdDeviation="0.78125" result="effect1_foregroundBlur"/>
</filter>
<filter id="filter1_f" x="-84.2319" y="229.576" width="471.435" height="166.881" filterUnits="userSpaceOnUse" color-interpolation-filters="sRGB">
<feFlood flood-opacity="0" result="BackgroundImageFix"/>
<feBlend mode="normal" in="SourceGraphic" in2="BackgroundImageFix" result="shape"/>
<feGaussianBlur stdDeviation="1.95312" result="effect1_foregroundBlur"/>
</filter>
<filter id="filter2_f" x="-88.6794" y="-178.677" width="476.323" height="585.442" filterUnits="userSpaceOnUse" color-interpolation-filters="sRGB">
<feFlood flood-opacity="0" result="BackgroundImageFix"/>
<feBlend mode="normal" in="SourceGraphic" in2="BackgroundImageFix" result="shape"/>
<feGaussianBlur stdDeviation="1.95312" result="effect1_foregroundBlur"/>
</filter>
<filter id="filter3_b" x="105.917" y="59.7656" width="87.7749" height="131.641" filterUnits="userSpaceOnUse" color-interpolation-filters="sRGB">
<feFlood flood-opacity="0" result="BackgroundImageFix"/>
<feGaussianBlur in="BackgroundImage" stdDeviation="4.6875"/>
<feComposite in2="SourceAlpha" operator="in" result="effect1_backgroundBlur"/>
<feBlend mode="normal" in="SourceGraphic" in2="effect1_backgroundBlur" result="shape"/>
</filter>
<radialGradient id="paint0_radial" cx="0" cy="0" r="1" gradientUnits="userSpaceOnUse" gradientTransform="translate(231.812 91.278) rotate(99.1226) scale(52.388 149.308)">
<stop stop-color="white" stop-opacity="0.75"/>
<stop offset="1" stop-color="white" stop-opacity="0"/>
</radialGradient>
<radialGradient id="paint1_radial" cx="0" cy="0" r="1" gradientUnits="userSpaceOnUse" gradientTransform="translate(149.482 156.696) rotate(92.5586) scale(188.023 152.662)">
<stop stop-color="white" stop-opacity="0.75"/>
<stop offset="1" stop-color="white" stop-opacity="0"/>
</radialGradient>
<radialGradient id="paint2_radial" cx="0" cy="0" r="1" gradientUnits="userSpaceOnUse" gradientTransform="translate(128.148 152.629) rotate(33.8708) scale(59.7272 48.9646)">
<stop offset="0.239583" stop-color="#5000B6"/>
<stop offset="1" stop-color="#7E5EFF"/>
</radialGradient>
<radialGradient id="paint3_radial" cx="0" cy="0" r="1" gradientUnits="userSpaceOnUse" gradientTransform="translate(173.312 124.682) rotate(45.5009) scale(16.5271 18.3245)">
<stop offset="0.203125" stop-color="#71FF30"/>
<stop offset="0.890625" stop-color="#25BC46"/>
</radialGradient>
<radialGradient id="paint4_radial" cx="0" cy="0" r="1" gradientUnits="userSpaceOnUse" gradientTransform="translate(156.125 99.564) rotate(44.415) scale(12.9101 11.4335)">
<stop offset="0.302083" stop-color="#FFB800"/>
<stop offset="1" stop-color="#FF7800"/>
</radialGradient>
<radialGradient id="paint5_radial" cx="0" cy="0" r="1" gradientUnits="userSpaceOnUse" gradientTransform="translate(131.532 110.176) rotate(-55.5326) scale(65.1771 53.8762)">
<stop offset="0.239583" stop-color="#21F6EA"/>
<stop offset="1" stop-color="#2183F6"/>
</radialGradient>
<linearGradient id="paint6_linear" x1="133.799" y1="43.9315" x2="168.194" y2="77.5831" gradientUnits="userSpaceOnUse">
<stop stop-color="#ECECEC" stop-opacity="0.71"/>
<stop offset="1" stop-color="#C3C3C3" stop-opacity="0.15"/>
</linearGradient>
<linearGradient id="paint7_linear" x1="102.665" y1="185.359" x2="166.159" y2="207.1" gradientUnits="userSpaceOnUse">
<stop stop-color="#ECECEC" stop-opacity="0.71"/>
<stop offset="1" stop-color="#C3C3C3" stop-opacity="0.15"/>
</linearGradient>
<linearGradient id="paint8_linear" x1="197.335" y1="185.359" x2="133.841" y2="207.1" gradientUnits="userSpaceOnUse">
<stop stop-color="#ECECEC" stop-opacity="0.71"/>
<stop offset="1" stop-color="#C3C3C3" stop-opacity="0.15"/>
</linearGradient>
<linearGradient id="paint9_linear" x1="117.942" y1="180.21" x2="198.228" y2="245.383" gradientUnits="userSpaceOnUse">
<stop stop-color="#ECECEC" stop-opacity="0.71"/>
<stop offset="1" stop-color="#C3C3C3" stop-opacity="0.15"/>
</linearGradient>
<linearGradient id="paint10_linear" x1="166.021" y1="190.631" x2="82.8376" y2="233.547" gradientUnits="userSpaceOnUse">
<stop stop-color="#ECECEC" stop-opacity="0.71"/>
<stop offset="1" stop-color="#C3C3C3" stop-opacity="0.15"/>
</linearGradient>
<clipPath id="clip0">
<rect width="300" height="300" fill="white"/>
</clipPath>
</defs>
</svg>
