
        <svg width="350" height="350" viewBox="0 0 350 350" fill="none" xmlns="http://www.w3.org/2000/svg">
        
  <g clip-path="url(#clip0_28_290)">
  <rect x="0.0789795" y="0.0444336" width="350" height="350" fill="black" fill-opacity="0.89"/>
  <rect x="0.0789795" y="0.0444336" width="350" height="350" fill="url(#paint0_radial_28_290)" fill-opacity="0.2"/>
  <path d="M125.979 290.538L299.832 190.751L430.987 233.879L230.789 294.049L125.979 290.538Z" fill="url(#paint1_linear_28_290)"/>
  <g opacity="0.45" filter="url(#filter0_f_28_290)">
  <ellipse rx="194.596" ry="66.7643" transform="matrix(0.999998 0.00221055 0.00221055 -0.999998 176.078 304.637)" fill="url(#paint2_radial_28_290)"/>
  </g>
  <g opacity="0.7" filter="url(#filter1_f_28_290)">
  <ellipse cx="174.396" cy="137.609" rx="196.647" ry="242.448" transform="rotate(0.126655 174.396 137.609)" fill="url(#paint3_radial_28_290)"/>
  </g>
  </g>
  <defs>
  <filter id="filter0_f_28_290" x="-23.0754" y="233.314" width="398.306" height="142.646" filterUnits="userSpaceOnUse" color-interpolation-filters="sRGB">
  <feFlood flood-opacity="0" result="BackgroundImageFix"/>
  <feBlend mode="normal" in="SourceGraphic" in2="BackgroundImageFix" result="shape"/>
  <feGaussianBlur stdDeviation="2.27865" result="effect1_foregroundBlur_28_290"/>
  </filter>
  <filter id="filter1_f_28_290" x="-26.8086" y="-109.396" width="402.41" height="494.01" filterUnits="userSpaceOnUse" color-interpolation-filters="sRGB">
  <feFlood flood-opacity="0" result="BackgroundImageFix"/>
  <feBlend mode="normal" in="SourceGraphic" in2="BackgroundImageFix" result="shape"/>
  <feGaussianBlur stdDeviation="2.27865" result="effect1_foregroundBlur_28_290"/>
  </filter>
  <radialGradient id="paint0_radial_28_290" cx="0" cy="0" r="1" gradientUnits="userSpaceOnUse" gradientTransform="translate(156.622 401.542) rotate(-84.441) scale(239.93 241.682)">
  <stop/>
  <stop offset="1" stop-opacity="0"/>
  </radialGradient>
  <linearGradient id="paint1_linear_28_290" x1="194.836" y1="271.638" x2="316.537" y2="167.936" gradientUnits="userSpaceOnUse">
  <stop/>
  <stop offset="1" stop-color="#333333" stop-opacity="0"/>
  </linearGradient>
  <radialGradient id="paint2_radial_28_290" cx="0" cy="0" r="1" gradientUnits="userSpaceOnUse" gradientTransform="translate(194.596 76.624) rotate(99.1226) scale(43.9775 125.337)">
  <stop stop-color="#737373"/>
  <stop offset="1" stop-color="#9A9A9A" stop-opacity="0"/>
  </radialGradient>
  <radialGradient id="paint3_radial_28_290" cx="0" cy="0" r="1" gradientUnits="userSpaceOnUse" gradientTransform="translate(174.396 173.413) rotate(92.5586) scale(157.837 128.153)">
  <stop stop-color="#737373"/>
  <stop offset="1" stop-color="#9A9A9A" stop-opacity="0"/>
  </radialGradient>
  <clipPath id="clip0_28_290">
  <rect width="350" height="350" fill="white"/>
  </clipPath>
  </defs>
  
        
    <mask id="mask0_765_92122" style="mask-type:alpha" maskUnits="userSpaceOnUse" x="217" y="76" width="102" height="210">
      <path d="M286.125 140.454L286.15 140.715L286.409 140.755L286.539 140.775L286.026 144.08C285.935 144.666 285.477 145.104 284.905 145.147C283.985 145.216 282.554 145.29 280.644 145.289L280.365 145.289L280.313 145.563L274.161 178.04C274.1 178.362 273.93 178.58 273.696 178.656C273.133 178.837 272.005 179.074 269.928 179.105L269.712 179.108L269.625 179.306C267.405 184.342 266.167 194.417 271.758 208.393C279.968 228.918 284.554 241.085 276.78 257.342C273.717 263.745 266.667 269.665 258.909 274.548C251.339 279.313 243.148 283.058 237.476 285.276L234.166 264.097C237.67 262.925 242.531 260.735 247.125 257.641C251.836 254.469 256.296 250.326 258.702 245.328C263.364 235.647 259.679 227.345 255.922 218.88L255.901 218.832C254.807 216.368 253.708 213.89 252.791 211.344C251.364 207.38 250.487 201.437 250.189 195.362L250.18 195.174L250.016 195.083C249.158 194.608 248.078 194.306 246.738 194.306H229.27V194.306L229.261 194.306C228.619 194.324 227.883 194.745 227.183 195.333C226.467 195.934 225.729 196.76 225.075 197.689C224.42 198.619 223.843 199.663 223.454 200.704C223.328 201.043 223.221 201.384 223.138 201.722L218.352 183.347C219.025 183.637 220.002 183.964 221.209 184.247C222.943 184.655 225.175 184.98 227.706 184.98H244.653H244.664L244.675 184.979C245.923 184.895 248.452 184.503 250.225 183.553L250.384 183.468L250.401 183.288C250.659 180.571 251.069 178.172 251.628 176.332L251.715 176.045L251.44 175.925C249.577 175.115 248.573 174.354 248.094 173.914C247.898 173.734 247.809 173.453 247.841 173.133L251.022 140.955L251.049 140.685L250.791 140.601C249.141 140.066 247.887 139.596 247.065 139.269C246.523 139.053 246.213 138.489 246.305 137.896L246.815 134.609L246.922 134.625L247.57 134.726L247.275 134.141C247.267 134.126 247.264 134.116 247.263 134.112C247.268 134.104 247.282 134.085 247.319 134.058C247.384 134.008 247.497 133.951 247.672 133.894C248.021 133.78 248.543 133.693 249.231 133.638C250.602 133.528 252.557 133.554 254.931 133.713L255.048 133.72L255.145 133.654C255.835 133.178 256.632 132.162 257.393 130.574C258.159 128.977 258.904 126.768 259.47 123.868C260.895 116.572 261.736 110.364 260.553 104.144C260.439 103.545 260.124 102.686 259.699 101.663C259.271 100.633 258.718 99.4085 258.113 98.0691L258.112 98.0651C256.629 94.7801 254.83 90.7936 253.723 87.1666C253.169 85.3532 252.793 83.6455 252.712 82.171C252.631 80.6908 252.85 79.4909 253.435 78.6503C253.617 78.3874 253.932 78.1388 254.396 77.9159C254.858 77.694 255.448 77.5072 256.155 77.3571C257.57 77.0567 259.414 76.9111 261.548 76.9001C265.814 76.8781 271.19 77.3938 276.507 78.2431C281.823 79.0924 287.067 80.2729 291.069 81.5752C293.071 82.2269 294.751 82.9051 295.97 83.5817C296.58 83.92 297.065 84.2524 297.416 84.5736C297.77 84.8975 297.965 85.1893 298.036 85.4423C298.25 86.2099 298.136 87.094 297.735 88.0912C297.333 89.088 296.654 90.1695 295.78 91.3119C294.031 93.5982 291.547 96.0696 289.077 98.5258L289.054 98.5482C286.288 101.299 283.534 104.038 281.942 106.425C280.83 108.093 279.963 110.177 279.298 112.413L279.143 112.937L279.68 112.841C280.967 112.611 283.492 112.632 286.831 112.897C290.157 113.161 294.256 113.665 298.67 114.385C304.12 115.273 309.008 116.322 312.505 117.298C314.255 117.787 315.645 118.254 316.58 118.669C317.05 118.878 317.387 119.066 317.596 119.227C317.7 119.308 317.757 119.37 317.784 119.412C317.784 119.412 317.784 119.412 317.785 119.413L317.344 119.863L317.991 119.964L318.17 119.992L317.657 123.296C317.566 123.883 317.109 124.321 316.536 124.364C313.994 124.555 307.54 124.782 297.856 123.358C288.009 121.91 281.259 119.505 278.697 118.486C278.621 118.455 278.55 118.418 278.484 118.376L278.043 118.091L277.968 118.61C277.521 121.673 277.361 124.637 277.407 126.925C277.445 128.776 277.807 131.112 278.248 133.149C278.468 134.169 278.709 135.12 278.941 135.904C279.17 136.681 279.396 137.314 279.591 137.687L279.659 137.817L279.8 137.856C281.785 138.4 283.392 138.933 284.507 139.418C285.066 139.661 285.487 139.886 285.767 140.086C285.908 140.186 286.002 140.273 286.06 140.344C286.12 140.416 286.125 140.452 286.125 140.454ZM247.261 134.116C247.261 134.116 247.261 134.116 247.261 134.115L247.261 134.116Z" fill="#C4C4C4" stroke="black" stroke-width="0.673831"/>
    </mask>
    <g mask="url(#mask0_765_92122)">
      <g filter="url(#filter0_f_765_92122)">
        <rect x="375.432" y="356.934" width="190.661" height="292.316" transform="rotate(-180 375.432 356.934)" fill="url(#paint0_linear_765_92122)"/>
      </g>
      <g style="mix-blend-mode:overlay" filter="url(#filter1_f_765_92122)">
        <ellipse cx="393.199" cy="253.331" rx="270.942" ry="334.047" transform="rotate(0.126655 393.199 253.331)" fill="url(#paint1_radial_765_92122)"/>
      </g>
      <g opacity="0.5">
        <g style="mix-blend-mode:overlay" opacity="0.5">
          <path d="M242.309 119.006C223.266 106.106 268.934 82.5189 284.571 80.9692H233.011C217.458 82.6597 213.006 90.4079 212.725 94.0707V124.922C217.092 130.839 225.977 142.523 253.719 149.857C290.488 159.578 334.831 140.694 319.649 119.006C307.816 102.101 268.511 136.756 242.309 119.006Z" fill="white"/>
        </g>
        <g style="mix-blend-mode:overlay" opacity="0.5">
          <path fill-rule="evenodd" clip-rule="evenodd" d="M302.321 85.6182C289.924 88.2948 267.159 94.916 275.273 99.9875C278.986 102.308 286.776 102.307 295.927 102.305C311.777 102.303 331.712 102.3 341.626 114.357C357.67 133.87 345.007 164.649 306.125 176.906C305.583 177.077 305.038 177.248 304.49 177.421C265.718 189.637 212.355 206.451 243.576 222.549C253.226 227.525 263.953 223.894 275.045 220.138C295.042 213.367 316.228 206.194 334.441 248.33H368.251C344.161 232.27 346.4 201.003 361.912 193.388C379.632 184.689 377.539 167.72 376.043 155.59C375.576 151.809 375.168 148.498 375.436 146.054V85.6182H302.321ZM334.441 181.132C328.693 190.261 307.815 195.36 298.095 196.769C290.065 206.49 309.506 202.263 312.464 199.728C315.423 197.192 321.34 203.109 323.03 211.138C324.721 219.168 339.09 217.901 338.245 211.138C337.399 204.376 337.399 196.769 347.12 189.162C356.84 181.555 341.626 169.721 334.441 181.132Z" fill="white"/>
        </g>
        <g style="mix-blend-mode:overlay" opacity="0.5">
          <path d="M246.957 166.34C264.707 166.34 263.862 180.709 246.957 183.668C230.478 186.551 214.401 191.042 213.992 199.878V200.573C213.981 200.338 213.981 200.107 213.992 199.878V156.612C220.812 160.47 234.246 166.34 246.957 166.34Z" fill="white"/>
        </g>
      </g>
      <g opacity="0.6">
        <circle cx="233.289" cy="194.563" r="1.15682" fill="white"/>
        <circle cx="298.201" cy="274.182" r="1.15682" transform="rotate(75 298.201 274.182)" fill="white"/>
        <circle cx="227.273" cy="156.311" r="1.15682" fill="white"/>
        <circle cx="235.886" cy="178.081" r="1.15682" transform="rotate(75 235.886 178.081)" fill="white"/>
        <circle cx="236.789" cy="242.253" r="1.15682" transform="rotate(75 236.789 242.253)" fill="white"/>
        <circle cx="242.92" cy="226.398" r="1.15682" transform="rotate(75 242.92 226.398)" fill="white"/>
        <circle cx="221.257" cy="250.553" r="1.15682" fill="white"/>
        <circle cx="228.397" cy="267.73" r="1.15682" fill="white"/>
        <circle cx="241.004" cy="277.052" r="1.15682" transform="rotate(75 241.004 277.052)" fill="white"/>
        <circle cx="285.416" cy="219.323" r="1.15682" transform="rotate(75 285.416 219.323)" fill="white"/>
        <circle cx="218.458" cy="104.178" r="1.15682" fill="white"/>
        <circle cx="238.337" cy="118.183" r="1.15682" fill="white"/>
        <circle cx="250.084" cy="88.3643" r="1.15682" fill="white"/>
        <circle cx="302.041" cy="86.1053" r="1.15682" fill="white"/>
        <circle cx="304.299" cy="117.732" r="1.15682" fill="white"/>
        <circle cx="259.12" cy="148.454" r="1.15682" fill="white"/>
        <circle cx="291.649" cy="148.454" r="1.15682" fill="white"/>
        <circle cx="276.288" cy="172.851" r="1.15682" fill="white"/>
        <circle cx="254.697" cy="188.217" r="1.15682" transform="rotate(75 254.697 188.217)" fill="white"/>
        <circle cx="313.144" cy="282.448" r="1.15682" transform="rotate(75 313.144 282.448)" fill="white"/>
        <circle cx="262.542" cy="285.159" r="1.15682" transform="rotate(75 262.542 285.159)" fill="white"/>
        <circle cx="261.638" cy="259.857" r="1.15682" transform="rotate(75 261.638 259.857)" fill="white"/>
        <circle cx="251.519" cy="206.155" r="1.15682" transform="rotate(75 251.519 206.155)" fill="white"/>
        <circle cx="270.307" cy="206.44" r="1.15682" fill="white"/>
        <circle cx="299.307" cy="263.083" r="1.15682" transform="rotate(165 299.307 263.083)" fill="white"/>
        <circle cx="248.559" cy="248.702" r="1.15682" fill="white"/>
        <circle cx="301.673" cy="248.077" r="1.15682" transform="rotate(165 301.673 248.077)" fill="white"/>
        <circle cx="274.163" cy="234.512" r="1.15682" fill="white"/>
        <circle cx="280.614" cy="268.411" r="1.15682" transform="rotate(165 280.614 268.411)" fill="white"/>
        <path d="M257.448 239.387L257.031 238.261L255.905 237.845L257.031 237.428L257.448 236.302L257.864 237.428L258.99 237.845L257.864 238.261L257.448 239.387Z" fill="#FFF7B0"/>
        <path d="M222.659 144.96L222.242 143.835L221.116 143.418L222.242 143.001L222.659 141.876L223.075 143.001L224.201 143.418L223.075 143.835L222.659 144.96Z" fill="#FFF7B0"/>
        <path d="M259.761 277.485L259.345 276.36L258.219 275.943L259.345 275.526L259.761 274.4L260.178 275.526L261.304 275.943L260.178 276.36L259.761 277.485Z" fill="#FFF7B0"/>
        <path d="M224.972 183.059L224.556 181.933L223.43 181.516L224.556 181.1L224.972 179.974L225.389 181.1L226.515 181.516L225.389 181.933L224.972 183.059Z" fill="#FFF7B0"/>
        <path d="M222.659 221.157L222.242 220.031L221.116 219.614L222.242 219.198L222.659 218.072L223.075 219.198L224.201 219.614L223.075 220.031L222.659 221.157Z" fill="#FFF7B0"/>
        <path d="M259.759 222.725L259.03 220.755L257.059 220.026L259.03 219.297L259.759 217.327L260.488 219.297L262.458 220.026L260.488 220.755L259.759 222.725Z" fill="#FFF7B0"/>
        <path d="M266.987 120.618L266.258 118.648L264.288 117.919L266.258 117.19L266.987 115.219L267.716 117.19L269.687 117.919L267.716 118.648L266.987 120.618Z" fill="#FFF7B0"/>
        <path d="M283.263 103.021L281.677 98.7337L277.39 97.1473L281.677 95.561L283.263 91.2739L284.85 95.561L289.137 97.1473L284.85 98.7337L283.263 103.021Z" fill="#FFF7B0"/>
      </g>
    </g>
    <g filter="url(#filter2_d_765_92122)">
      <mask id="mask1_765_92122" style="mask-type:alpha" maskUnits="userSpaceOnUse" x="112" y="211" width="128" height="104">
        <path d="M205.982 314.453H176.558H145.384C122.516 314.453 108.299 292.001 113.716 268.715L115.606 260.588L125.527 211.458C136.098 220.298 153.514 224.875 176.558 224.875C199.603 224.875 211.686 219.434 224.674 211.458L235.757 260.588L237.648 268.706C243.071 291.994 228.853 314.453 205.982 314.453Z" fill="url(#paint2_radial_765_92122)" stroke="black" stroke-width="0.455729"/>
      </mask>
      <g mask="url(#mask1_765_92122)">
        <g filter="url(#filter3_f_765_92122)">
          <rect x="274.366" y="369.596" width="166.797" height="166.797" transform="rotate(-180 274.366 369.596)" fill="url(#paint3_linear_765_92122)"/>
        </g>
        <g style="mix-blend-mode:overlay" filter="url(#filter4_f_765_92122)">
          <ellipse cx="263.736" cy="246.072" rx="273.297" ry="336.951" transform="rotate(0.126655 263.736 246.072)" fill="url(#paint4_radial_765_92122)"/>
        </g>
        <g opacity="0.5">
          <g style="mix-blend-mode:overlay" opacity="0.5">
            <path d="M141.261 209.183C115.612 191.808 177.122 160.04 198.183 157.953H128.738C107.79 160.23 101.795 170.665 101.415 175.599V217.152C107.297 225.121 119.265 240.858 156.63 250.736C206.152 263.828 265.877 238.394 245.429 209.183C229.49 186.414 176.553 233.09 141.261 209.183Z" fill="white"/>
          </g>
          <g style="mix-blend-mode:overlay" opacity="0.5">
            <path fill-rule="evenodd" clip-rule="evenodd" d="M222.092 164.214C205.394 167.819 174.732 176.737 185.661 183.568C190.662 186.693 201.154 186.692 213.48 186.69C234.828 186.686 261.677 186.682 275.029 202.921C296.639 229.203 279.583 270.659 227.215 287.166C226.485 287.397 225.75 287.628 225.012 287.86C172.791 304.314 100.919 326.96 142.97 348.643C155.967 355.345 170.414 350.453 185.354 345.395C212.287 336.276 240.822 326.614 265.353 383.365H310.891C278.445 361.735 281.46 319.622 302.352 309.366C326.219 297.65 323.4 274.795 321.385 258.457C320.757 253.364 320.207 248.905 320.567 245.613V164.214H222.092ZM265.353 292.859C257.611 305.154 229.492 312.023 216.399 313.92C205.584 327.012 231.768 321.32 235.753 317.905C239.738 314.489 247.707 322.458 249.984 333.274C252.26 344.089 271.614 342.381 270.476 333.274C269.337 324.166 269.337 313.92 282.429 303.674C295.521 293.428 275.029 277.49 265.353 292.859Z" fill="white"/>
          </g>
          <g style="mix-blend-mode:overlay" opacity="0.5">
            <path d="M147.523 272.936C171.43 272.936 170.292 292.289 147.523 296.274C125.328 300.158 103.674 306.206 103.123 318.108V319.043C103.109 318.727 103.109 318.416 103.123 318.108V259.834C112.31 265.03 130.403 272.936 147.523 272.936Z" fill="white"/>
          </g>
        </g>
        <g opacity="0.6">
          <ellipse rx="1.10576" ry="1.1626" transform="matrix(-0.961979 0.273124 -0.24516 -0.969483 232.683 276.479)" fill="white"/>
          <ellipse rx="1.10576" ry="1.1626" transform="matrix(-0.961979 0.273124 -0.24516 -0.969483 183.705 249.311)" fill="white"/>
          <ellipse rx="1.1626" ry="1.10576" transform="matrix(0.24516 0.969483 -0.961979 0.273124 153.018 226.881)" fill="white"/>
          <ellipse rx="1.10576" ry="1.1626" transform="matrix(-0.961979 0.273124 -0.24516 -0.969483 198.661 285.011)" fill="white"/>
          <ellipse rx="1.1626" ry="1.10576" transform="matrix(0.24516 0.969483 -0.961979 0.273124 186.711 211.033)" fill="white"/>
          <ellipse rx="1.1626" ry="1.10576" transform="matrix(0.24516 0.969483 -0.961979 0.273124 201.794 225.674)" fill="white"/>
          <ellipse rx="1.10576" ry="1.1626" transform="matrix(-0.961979 0.273124 -0.24516 -0.969483 235.929 236.417)" fill="white"/>
          <ellipse rx="1.10576" ry="1.1626" transform="matrix(-0.961979 0.273124 -0.24516 -0.969483 219.99 235.305)" fill="white"/>
          <ellipse rx="1.10576" ry="1.1626" transform="matrix(-0.961979 0.273124 -0.24516 -0.969483 166.618 294.753)" fill="white"/>
          <ellipse rx="1.1626" ry="1.10576" transform="matrix(0.24516 0.969483 -0.961979 0.273124 195.904 244.987)" fill="white"/>
          <ellipse rx="1.10576" ry="1.1626" transform="matrix(-0.961979 0.273124 -0.24516 -0.969483 149.542 291.547)" fill="white"/>
          <ellipse rx="1.1626" ry="1.10576" transform="matrix(0.24516 0.969483 -0.961979 0.273124 217.135 213.343)" fill="white"/>
          <ellipse rx="1.1626" ry="1.10576" transform="matrix(0.24516 0.969483 -0.961979 0.273124 167.244 235.218)" fill="white"/>
          <ellipse rx="1.1626" ry="1.10576" transform="matrix(0.24516 0.969483 -0.961979 0.273124 168.105 272.588)" fill="white"/>
          <ellipse rx="1.1626" ry="1.10576" transform="matrix(0.24516 0.969483 -0.961979 0.273124 119.074 237.952)" fill="white"/>
          <ellipse rx="1.1626" ry="1.10576" transform="matrix(0.24516 0.969483 -0.961979 0.273124 118.213 212.432)" fill="white"/>
          <ellipse rx="1.10576" ry="1.1626" transform="matrix(-0.961979 0.273124 -0.24516 -0.969483 146.74 247.404)" fill="white"/>
          <ellipse rx="1.1626" ry="1.10576" transform="matrix(0.24516 0.969483 -0.961979 0.273124 151.218 266.049)" fill="white"/>
          <ellipse rx="1.1626" ry="1.10576" transform="matrix(0.24516 0.969483 -0.961979 0.273124 239.501 212.887)" fill="white"/>
          <ellipse rx="1.10576" ry="1.1626" transform="matrix(-0.961979 0.273124 -0.24516 -0.969483 154.072 215.685)" fill="white"/>
          <ellipse rx="1.1626" ry="1.10576" transform="matrix(0.24516 0.969483 -0.961979 0.273124 121.284 258.28)" fill="white"/>
          <ellipse rx="1.1626" ry="1.10576" transform="matrix(0.24516 0.969483 -0.961979 0.273124 224.506 254.178)" fill="white"/>
          <ellipse rx="1.1626" ry="1.10576" transform="matrix(0.24516 0.969483 -0.961979 0.273124 210.222 251.791)" fill="white"/>
          <ellipse rx="1.10576" ry="1.1626" transform="matrix(-0.961979 0.273124 -0.24516 -0.969483 136.278 221.059)" fill="white"/>
          <ellipse rx="1.1626" ry="1.10576" transform="matrix(0.24516 0.969483 -0.961979 0.273124 126.356 277.135)" fill="white"/>
          <ellipse rx="1.1626" ry="1.10576" transform="matrix(0.24516 0.969483 -0.961979 0.273124 229.579 273.033)" fill="white"/>
          <path d="M116.426 230.213L116.03 229.077L114.958 228.657L116.03 228.237L116.426 227.101L116.823 228.237L117.895 228.657L116.823 229.077L116.426 230.213Z" fill="#FFF7B0"/>
          <path d="M114.224 268.642L113.827 267.506L112.756 267.086L113.827 266.666L114.224 265.53L114.621 266.666L115.692 267.086L114.621 267.506L114.224 268.642Z" fill="#FFF7B0"/>
          <path d="M134.854 275.488L134.16 273.5L132.285 272.765L134.16 272.029L134.854 270.042L135.548 272.029L137.424 272.765L135.548 273.5L134.854 275.488Z" fill="#FFF7B0"/>
          <path d="M239.282 227.646L238.588 225.659L236.712 224.923L238.588 224.188L239.282 222.201L239.976 224.188L241.852 224.923L239.976 225.659L239.282 227.646Z" fill="#FFF7B0"/>
          <path d="M129.715 253.395L129.021 251.407L127.145 250.672L129.021 249.936L129.715 247.949L130.409 249.936L132.284 250.672L130.409 251.407L129.715 253.395Z" fill="#FFF7B0"/>
          <path d="M229.223 255.651L228.827 254.516L227.755 254.096L228.827 253.675L229.223 252.54L229.62 253.675L230.691 254.096L229.62 254.516L229.223 255.651Z" fill="#FFF7B0"/>
        </g>
      </g>
    </g>
    <mask id="mask2_765_92122" style="mask-type:alpha" maskUnits="userSpaceOnUse" x="148" y="48" width="54" height="54">
      <path d="M148.568 48.7632H201.433V94.3361C201.433 94.3361 195.508 101.445 175.001 101.445C154.493 101.445 148.568 94.3361 148.568 94.3361V48.7632Z" fill="url(#paint5_radial_765_92122)"/>
    </mask>
    <g mask="url(#mask2_765_92122)">
      <rect x="260.789" y="177.126" width="147.652" height="147.652" transform="rotate(-180 260.789 177.126)" fill="url(#paint6_linear_765_92122)"/>
      <g style="mix-blend-mode:overlay" filter="url(#filter5_f_765_92122)">
        <ellipse cx="251.379" cy="67.7799" rx="241.928" ry="298.276" transform="rotate(0.126655 251.379 67.7799)" fill="url(#paint7_radial_765_92122)"/>
      </g>
      <g opacity="0.5">
        <g style="mix-blend-mode:overlay" opacity="0.5">
          <path d="M118.353 91.6034C95.6489 76.223 150.098 48.101 168.742 46.2534H107.268C88.7246 48.269 83.417 57.5069 83.0811 61.874V98.6578C88.2879 105.712 98.8821 119.643 131.958 128.387C175.797 139.977 228.666 117.462 210.565 91.6034C196.456 71.4478 149.594 112.767 118.353 91.6034Z" fill="white"/>
        </g>
        <g style="mix-blend-mode:overlay" opacity="0.5">
          <path fill-rule="evenodd" clip-rule="evenodd" d="M189.905 51.7961C175.124 54.9874 147.981 62.8817 157.656 68.9283C162.083 71.695 171.37 71.6936 182.281 71.6919C201.179 71.6891 224.947 71.6855 236.767 86.0605C255.896 109.326 240.798 146.023 194.44 160.636C193.794 160.84 193.144 161.044 192.49 161.25C146.263 175.816 82.6402 195.862 119.864 215.056C131.37 220.989 144.159 216.659 157.384 212.181C181.226 204.109 206.485 195.556 228.2 245.793H268.512C239.79 226.645 242.459 189.366 260.953 180.288C282.081 169.916 279.585 149.685 277.801 135.222C277.245 130.714 276.758 126.766 277.078 123.852V51.7961H189.905ZM228.2 165.675C221.348 176.559 196.455 182.639 184.866 184.319C175.292 195.908 198.471 190.869 201.998 187.846C205.525 184.823 212.58 191.877 214.595 201.451C216.611 211.025 233.743 209.513 232.735 201.451C231.728 193.389 231.728 184.319 243.317 175.249C254.906 166.179 236.767 152.07 228.2 165.675Z" fill="white"/>
        </g>
      </g>
      <g opacity="0.6">
        <circle cx="154.039" cy="54.7346" r="1.03294" fill="white"/>
        <circle cx="157.165" cy="97.3173" r="1.03294" transform="rotate(75 157.165 97.3173)" fill="white"/>
        <circle cx="162.64" cy="83.1606" r="1.03294" transform="rotate(75 162.64 83.1606)" fill="white"/>
        <circle cx="200.585" cy="76.843" r="1.03294" transform="rotate(75 200.585 76.843)" fill="white"/>
        <circle cx="173.154" cy="49.0683" r="1.03294" transform="rotate(75 173.154 49.0683)" fill="white"/>
        <circle cx="170.317" cy="65.0852" r="1.03294" transform="rotate(75 170.317 65.0852)" fill="white"/>
        <circle cx="187.093" cy="65.3396" r="1.03294" fill="white"/>
        <circle cx="190.536" cy="90.4057" r="1.03294" fill="white"/>
        <path d="M175.611 94.7588L175.239 93.7535L174.234 93.3815L175.239 93.0095L175.611 92.0043L175.983 93.0095L176.988 93.3815L175.983 93.7535L175.611 94.7588Z" fill="#FFF7B0"/>
        <path d="M177.674 79.8809L177.023 78.1216L175.264 77.4707L177.023 76.8197L177.674 75.0605L178.325 76.8197L180.084 77.4707L178.325 78.1216L177.674 79.8809Z" fill="#FFF7B0"/>
      </g>
    </g>
    <ellipse cx="275.03" cy="84.3021" rx="20.0253" ry="3.1901" transform="rotate(9.26455 275.03 84.3021)" fill="white" fill-opacity="0.45"/>
    <mask id="mask3_765_92122" style="mask-type:alpha" maskUnits="userSpaceOnUse" x="143" y="39" width="64" height="10">
      <rect x="143.555" y="39.6484" width="62.8906" height="9.11458" rx="2.27865" fill="#C4C4C4"/>
    </mask>
    <g mask="url(#mask3_765_92122)">
      <g filter="url(#filter6_f_765_92122)">
        <rect x="308.588" y="117.426" width="166.797" height="166.797" transform="rotate(-180 308.588 117.426)" fill="url(#paint8_linear_765_92122)"/>
      </g>
      <g style="mix-blend-mode:overlay" filter="url(#filter7_f_765_92122)">
        <ellipse cx="297.957" cy="-6.0981" rx="273.297" ry="336.951" transform="rotate(0.126655 297.957 -6.0981)" fill="url(#paint9_radial_765_92122)"/>
      </g>
      <g opacity="0.5">
        <g style="mix-blend-mode:overlay" opacity="0.5">
          <path fill-rule="evenodd" clip-rule="evenodd" d="M256.311 -87.9563C239.614 -84.3512 208.952 -75.4334 219.881 -68.6027C224.882 -65.4773 235.373 -65.4789 247.699 -65.4808C269.047 -65.484 295.897 -65.488 309.249 -49.2491C330.859 -22.9672 313.803 18.4885 261.434 34.996C260.704 35.2261 259.97 35.4575 259.232 35.69C207.011 52.1439 135.138 74.7897 177.189 96.4722C190.187 103.174 204.634 98.2827 219.573 93.2244C246.507 84.1053 275.041 74.444 299.572 131.195H345.11C312.665 109.564 315.68 67.4517 336.572 57.1957C360.439 45.4791 357.62 22.6248 355.605 6.287C354.977 1.19406 354.426 -3.26563 354.787 -6.55731V-87.9563H256.311ZM299.572 40.6883C291.831 52.9835 263.711 59.8521 250.619 61.7495C239.804 74.8417 265.988 69.1494 269.973 65.7341C273.957 62.3188 281.926 70.2879 284.203 81.1031C286.48 91.9184 305.834 90.2107 304.695 81.1031C303.557 71.9956 303.557 61.7495 316.649 51.5035C329.741 41.2575 309.249 25.3192 299.572 40.6883Z" fill="white"/>
        </g>
        <g style="mix-blend-mode:overlay" opacity="0.5">
          <path d="M181.744 20.7654C205.651 20.7654 204.513 40.119 181.744 44.1036C159.549 47.9877 137.894 54.0354 137.344 65.9374V66.8725C137.33 66.5569 137.33 66.2452 137.344 65.9374V7.66339C146.53 12.8598 164.624 20.7654 181.744 20.7654Z" fill="white"/>
        </g>
      </g>
      <g opacity="0.6">
        <path d="M160.009 46.7646L159.273 44.7773L157.286 44.0419L159.273 43.3066L160.009 41.3192L160.744 43.3066L162.731 44.0419L160.744 44.7773L160.009 46.7646Z" fill="#FFF7B0"/>
      </g>
    </g>
    <path d="M243.547 194.643C239.376 194.643 235.177 194.643 231.092 194.643M243.547 194.643H231.092M243.547 194.643C247.719 194.643 249.048 194.933 249.851 195.378C250.15 201.466 251.029 207.448 252.473 211.458C256.575 222.852 264.322 232.878 258.398 245.182C253.658 255.026 243.055 261.589 236.067 263.867M231.092 194.643C227.007 194.643 223.041 200.202 223.459 203.711L219.205 182.713C221.159 183.356 222.699 184.643 227.705 184.643M227.705 184.643C232.711 184.643 241.089 184.643 244.652 184.643M227.705 184.643H244.652M244.652 184.643C245.882 184.56 248.355 184.173 250.065 183.256C250.324 180.527 250.736 178.104 251.305 176.234M318.098 119.71L317.534 123.348C317.42 124.08 316.843 124.645 316.105 124.7C313.54 124.893 307.516 125.119 297.806 123.692C287.929 122.239 280.873 119.745 278.291 118.717M238.118 285.514C249.511 281.109 271.095 270.703 277.083 257.487C284.929 240.169 280.273 228.776 272.07 208.268C266.505 194.357 267.756 184.378 269.932 179.442M246.989 134.224L246.427 137.844C246.312 138.584 246.244 139.305 246.94 139.582C247.768 139.912 249.029 140.384 250.686 140.922M286.467 140.494L285.902 144.131C285.788 144.863 285.667 145.428 284.929 145.483C284.002 145.553 282.562 145.627 280.643 145.626M269.932 179.442C272.031 179.411 273.194 179.171 273.798 178.977C274.186 178.852 274.415 178.504 274.491 178.103L280.643 145.626M269.932 179.442C267.933 179.471 265.086 179.31 261.065 178.74C256.489 178.09 253.381 177.136 251.305 176.234M251.305 176.234C249.411 175.411 248.375 174.63 247.865 174.162C247.572 173.892 247.466 173.496 247.505 173.1L250.686 140.922M280.643 145.626C277.255 145.624 272.373 145.386 266.175 144.475C259.468 143.489 254.191 142.059 250.686 140.922M254.952 133.376C254.622 133.604 254.334 133.682 254.11 133.623C260.479 136.64 271.877 138.651 280.09 137.813C279.475 137.366 277.824 130.941 277.743 126.918C277.672 123.396 278.094 118.246 279.31 113.619C279.408 113.245 279.512 112.875 279.62 112.509M254.952 133.376C256.192 132.523 258.014 129.561 259.139 123.803C260.563 116.511 261.391 110.359 260.221 104.207C259.487 100.352 249.511 83.6987 253.157 78.4579C256.803 73.2171 296.849 79.9409 298.359 85.3517C299.869 90.7626 286.579 100.075 282.222 106.612C281.135 108.242 280.279 110.292 279.62 112.509M254.952 133.376C250.192 133.059 247.057 133.268 246.929 134.057C246.708 135.408 255.378 137.946 266.294 139.727C277.209 141.507 286.237 141.856 286.457 140.505C286.577 139.769 284.058 138.681 279.975 137.554M279.62 112.509C282.289 112.032 289.881 112.61 298.724 114.052C309.639 115.833 318.328 118.257 318.13 119.468C317.933 120.678 308.924 120.216 298.009 118.436C288.881 116.947 281.311 115.008 279.191 113.704M294.937 87.5985C294.654 89.3374 285.575 89.3036 274.66 87.5231C263.744 85.7426 255.126 82.8895 255.409 81.1507C255.693 79.4118 264.772 79.4456 275.687 81.2261C286.602 83.0066 295.221 85.8597 294.937 87.5985Z" stroke="black" stroke-width="0.911458"/>
    <path d="M225.13 211.458C225.13 211.458 206.617 225.13 175.228 225.13C143.838 225.13 125.325 211.458 125.325 211.458" stroke="black" stroke-width="0.911458"/>
    <path d="M201.433 94.3359C201.433 94.3359 192.774 101.172 175.001 101.172C157.227 101.172 148.568 94.3359 148.568 94.3359" stroke="black" stroke-width="0.911458"/>
    <g filter="url(#filter8_b_765_92122)">
      <mask id="path-109-inside-1_765_92122" fill="white">
        <path fill-rule="evenodd" clip-rule="evenodd" d="M147.107 49.1761C145.345 49.1761 143.917 47.7479 143.917 45.986V42.3827C143.917 40.6209 145.345 39.1926 147.107 39.1926H203.712C205.474 39.1926 206.902 40.6209 206.902 42.3827V45.986C206.902 47.7479 205.474 49.1761 203.712 49.1761H203.084C202.424 49.1761 201.888 49.7115 201.888 50.372V95.9707C201.888 96.0496 201.896 96.1283 201.912 96.2057L213.06 151.838L225.178 210.112C225.184 210.142 225.221 210.155 225.244 210.135V210.135C225.267 210.115 225.303 210.127 225.31 210.157L236.173 259.873L237.619 267.136C243.059 290.734 229.704 314.909 206.761 314.909H176.334H144.151C121.212 314.909 108.312 290.741 113.746 267.145L115.192 259.873L125.13 210.159C125.136 210.129 125.173 210.116 125.197 210.136V210.136C125.22 210.156 125.257 210.143 125.263 210.113L148.819 92.5625C148.827 92.5209 148.838 92.4802 148.85 92.4404C148.925 92.1992 149.024 91.9583 149.024 91.7056V50.372C149.024 49.7115 148.488 49.1761 147.828 49.1761H147.107Z"/>
      </mask>
        <path d="M213.06 151.838L212.166 152.017L212.167 152.023L213.06 151.838ZM236.173 259.873L237.067 259.695L237.065 259.687L237.064 259.679L236.173 259.873ZM237.619 267.136L236.725 267.314L236.728 267.327L236.731 267.341L237.619 267.136ZM113.746 267.145L114.634 267.35L114.637 267.337L114.64 267.323L113.746 267.145ZM115.192 259.873L114.298 259.695L114.298 259.696L115.192 259.873ZM148.819 92.5625L149.712 92.7416L149.712 92.7416L148.819 92.5625ZM125.263 210.113L124.369 209.934L125.263 210.113ZM201.912 96.2057L202.805 96.0266L201.912 96.2057ZM125.13 210.159L124.237 209.98L125.13 210.159ZM148.85 92.4404L147.98 92.1688L148.85 92.4404ZM225.31 210.157L224.42 210.352L225.31 210.157ZM225.178 210.112L224.286 210.297L225.178 210.112ZM143.006 45.986C143.006 48.2512 144.842 50.0876 147.107 50.0876V48.2647C145.849 48.2647 144.829 47.2445 144.829 45.986H143.006ZM143.006 42.3827V45.986H144.829V42.3827H143.006ZM147.107 38.2812C144.842 38.2812 143.006 40.1175 143.006 42.3827H144.829C144.829 41.1243 145.849 40.1041 147.107 40.1041V38.2812ZM203.712 38.2812H147.107V40.1041H203.712V38.2812ZM207.813 42.3827C207.813 40.1175 205.977 38.2812 203.712 38.2812V40.1041C204.97 40.1041 205.991 41.1243 205.991 42.3827H207.813ZM207.813 45.986V42.3827H205.991V45.986H207.813ZM203.712 50.0876C205.977 50.0876 207.813 48.2512 207.813 45.986H205.991C205.991 47.2445 204.97 48.2647 203.712 48.2647V50.0876ZM203.084 50.0876H203.712V48.2647H203.084V50.0876ZM202.8 95.9707V50.372H200.977V95.9707H202.8ZM213.953 151.659L202.805 96.0266L201.018 96.3848L212.166 152.017L213.953 151.659ZM226.07 209.926L213.952 151.652L212.167 152.023L224.286 210.297L226.07 209.926ZM237.064 259.679L226.2 209.963L224.42 210.352L235.283 260.068L237.064 259.679ZM238.513 266.958L237.067 259.695L235.279 260.051L236.725 267.314L238.513 266.958ZM206.761 315.821C218.59 315.821 227.94 309.576 233.61 300.349C239.27 291.138 241.277 278.948 238.507 266.931L236.731 267.341C239.401 278.922 237.45 290.618 232.057 299.395C226.673 308.156 217.874 313.998 206.761 313.998V315.821ZM176.334 315.821H206.761V313.998H176.334V315.821ZM144.151 315.821H176.334V313.998H144.151V315.821ZM112.858 266.941C110.092 278.95 111.983 291.135 117.528 300.346C123.083 309.574 132.321 315.821 144.151 315.821V313.998C133.042 313.998 124.36 308.16 119.089 299.406C113.808 290.633 111.966 278.937 114.634 267.35L112.858 266.941ZM114.298 259.696L112.852 266.968L114.64 267.323L116.086 260.051L114.298 259.696ZM124.237 209.98L114.298 259.695L116.086 260.052L126.024 210.338L124.237 209.98ZM147.925 92.3834L124.369 209.934L126.157 210.292L149.712 92.7416L147.925 92.3834ZM147.98 92.1688C147.958 92.2389 147.94 92.3105 147.925 92.3834L149.712 92.7416C149.715 92.7313 149.717 92.7215 149.72 92.712L147.98 92.1688ZM148.112 50.372V91.7056H149.935V50.372H148.112ZM147.107 50.0876H147.828V48.2647H147.107V50.0876ZM149.935 50.372C149.935 49.2081 148.992 48.2647 147.828 48.2647V50.0876C147.985 50.0876 148.112 50.2149 148.112 50.372H149.935ZM124.61 210.833C125.164 211.299 126.015 211.001 126.157 210.292L124.369 209.934C124.499 209.285 125.277 209.012 125.784 209.438L124.61 210.833ZM200.977 95.9707C200.977 96.1098 200.991 96.2485 201.018 96.3848L202.805 96.0266C202.802 96.0082 202.8 95.9895 202.8 95.9707H200.977ZM126.024 210.338C125.894 210.987 125.116 211.259 124.61 210.833L125.784 209.438C125.23 208.972 124.379 209.27 124.237 209.98L126.024 210.338ZM149.72 92.712C149.761 92.5807 149.935 92.1399 149.935 91.7056H148.112C148.112 91.7158 148.11 91.7499 148.087 91.8322C148.076 91.8729 148.062 91.9177 148.043 91.9753C148.026 92.027 148.001 92.1002 147.98 92.1688L149.72 92.712ZM225.831 210.832C225.329 211.254 224.559 210.992 224.42 210.352L226.2 209.963C226.048 209.263 225.206 208.976 224.657 209.437L225.831 210.832ZM224.286 210.297C224.432 211.003 225.279 211.296 225.831 210.832L224.657 209.437C225.162 209.013 225.936 209.281 226.07 209.926L224.286 210.297ZM203.084 48.2647C201.92 48.2647 200.977 49.2081 200.977 50.372H202.8C202.8 50.2149 202.927 50.0876 203.084 50.0876V48.2647Z" fill="black" mask="url(#path-109-inside-1_765_92122)"/>
    </g>
    <defs>
      <filter id="filter0_f_765_92122" x="182.964" y="62.8102" width="194.275" height="295.931" filterUnits="userSpaceOnUse" color-interpolation-filters="sRGB">
        <feFlood flood-opacity="0" result="BackgroundImageFix"/>
        <feBlend mode="normal" in="SourceGraphic" in2="BackgroundImageFix" result="shape"/>
        <feGaussianBlur stdDeviation="0.903605" result="effect1_foregroundBlur_765_92122"/>
      </filter>
      <filter id="filter1_f_765_92122" x="117.739" y="-85.2343" width="550.922" height="677.13" filterUnits="userSpaceOnUse" color-interpolation-filters="sRGB">
        <feFlood flood-opacity="0" result="BackgroundImageFix"/>
        <feBlend mode="normal" in="SourceGraphic" in2="BackgroundImageFix" result="shape"/>
        <feGaussianBlur stdDeviation="2.25901" result="effect1_foregroundBlur_765_92122"/>
      </filter>
      <filter id="filter2_d_765_92122" x="110.059" y="211.038" width="132.159" height="109.112" filterUnits="userSpaceOnUse" color-interpolation-filters="sRGB">
        <feFlood flood-opacity="0" result="BackgroundImageFix"/>
        <feColorMatrix in="SourceAlpha" type="matrix" values="0 0 0 0 0 0 0 0 0 0 0 0 0 0 0 0 0 0 127 0" result="hardAlpha"/>
        <feOffset dx="0.455729" dy="2.73438"/>
        <feGaussianBlur stdDeviation="1.36719"/>
        <feComposite in2="hardAlpha" operator="out"/>
        <feColorMatrix type="matrix" values="0 0 0 0 0 0 0 0 0 0 0 0 0 0 0 0 0 0 0.25 0"/>
        <feBlend mode="normal" in2="BackgroundImageFix" result="effect1_dropShadow_765_92122"/>
        <feBlend mode="normal" in="SourceGraphic" in2="effect1_dropShadow_765_92122" result="shape"/>
      </filter>
      <filter id="filter3_f_765_92122" x="105.746" y="200.977" width="170.443" height="170.443" filterUnits="userSpaceOnUse" color-interpolation-filters="sRGB">
        <feFlood flood-opacity="0" result="BackgroundImageFix"/>
        <feBlend mode="normal" in="SourceGraphic" in2="BackgroundImageFix" result="shape"/>
        <feGaussianBlur stdDeviation="0.911458" result="effect1_foregroundBlur_765_92122"/>
      </filter>
      <filter id="filter4_f_765_92122" x="-14.1198" y="-95.4357" width="555.71" height="683.015" filterUnits="userSpaceOnUse" color-interpolation-filters="sRGB">
        <feFlood flood-opacity="0" result="BackgroundImageFix"/>
        <feBlend mode="normal" in="SourceGraphic" in2="BackgroundImageFix" result="shape"/>
        <feGaussianBlur stdDeviation="2.27865" result="effect1_foregroundBlur_765_92122"/>
      </filter>
      <filter id="filter5_f_765_92122" x="5.41599" y="-234.53" width="491.926" height="604.619" filterUnits="userSpaceOnUse" color-interpolation-filters="sRGB">
        <feFlood flood-opacity="0" result="BackgroundImageFix"/>
        <feBlend mode="normal" in="SourceGraphic" in2="BackgroundImageFix" result="shape"/>
        <feGaussianBlur stdDeviation="2.0171" result="effect1_foregroundBlur_765_92122"/>
      </filter>
      <filter id="filter6_f_765_92122" x="139.968" y="-51.1935" width="170.443" height="170.443" filterUnits="userSpaceOnUse" color-interpolation-filters="sRGB">
        <feFlood flood-opacity="0" result="BackgroundImageFix"/>
        <feBlend mode="normal" in="SourceGraphic" in2="BackgroundImageFix" result="shape"/>
        <feGaussianBlur stdDeviation="0.911458" result="effect1_foregroundBlur_765_92122"/>
      </filter>
      <filter id="filter7_f_765_92122" x="20.1019" y="-347.606" width="555.71" height="683.015" filterUnits="userSpaceOnUse" color-interpolation-filters="sRGB">
        <feFlood flood-opacity="0" result="BackgroundImageFix"/>
        <feBlend mode="normal" in="SourceGraphic" in2="BackgroundImageFix" result="shape"/>
        <feGaussianBlur stdDeviation="2.27865" result="effect1_foregroundBlur_765_92122"/>
      </filter>
      <filter id="filter8_b_765_92122" x="98.1595" y="24.8423" width="155.02" height="304.417" filterUnits="userSpaceOnUse" color-interpolation-filters="sRGB">
        <feFlood flood-opacity="0" result="BackgroundImageFix"/>
        <feGaussianBlur in="BackgroundImage" stdDeviation="7.17515"/>
        <feComposite in2="SourceAlpha" operator="in" result="effect1_backgroundBlur_765_92122"/>
        <feBlend mode="normal" in="SourceGraphic" in2="effect1_backgroundBlur_765_92122" result="shape"/>
      </filter>
      <linearGradient id="paint0_linear_765_92122" x1="410.855" y1="533.441" x2="558.799" y2="533.441" gradientUnits="userSpaceOnUse">
        <stop stop-color="#551D8D"/>
        <stop offset="0.464789" stop-color="#9B48EF"/>
        <stop offset="1" stop-color="#551D8D"/>
      </linearGradient>
      <radialGradient id="paint1_radial_765_92122" cx="0" cy="0" r="1" gradientUnits="userSpaceOnUse" gradientTransform="translate(393.2 302.663) rotate(92.5586) scale(217.47 176.571)">
        <stop offset="0.479167" stop-color="white" stop-opacity="0.75"/>
        <stop offset="1" stop-color="white" stop-opacity="0"/>
      </radialGradient>
      <radialGradient id="paint2_radial_765_92122" cx="0" cy="0" r="1" gradientUnits="userSpaceOnUse" gradientTransform="translate(231.778 200.521) rotate(136.943) scale(153.528 198.077)">
        <stop stop-color="#FF0000"/>
        <stop offset="0.530354" stop-color="#FFE925"/>
        <stop offset="1" stop-color="#289B04"/>
      </radialGradient>
      <linearGradient id="paint3_linear_765_92122" x1="305.356" y1="470.313" x2="434.783" y2="470.313" gradientUnits="userSpaceOnUse">
        <stop stop-color="#551D8D"/>
        <stop offset="0.464789" stop-color="#9B48EF"/>
        <stop offset="1" stop-color="#551D8D"/>
      </linearGradient>
      <radialGradient id="paint4_radial_765_92122" cx="0" cy="0" r="1" gradientUnits="userSpaceOnUse" gradientTransform="translate(263.736 295.833) rotate(92.5586) scale(219.36 178.105)">
        <stop offset="0.479167" stop-color="white" stop-opacity="0.75"/>
        <stop offset="1" stop-color="white" stop-opacity="0"/>
      </radialGradient>
      <radialGradient id="paint5_radial_765_92122" cx="0" cy="0" r="1" gradientUnits="userSpaceOnUse" gradientTransform="translate(198.492 43.4396) rotate(132.639) scale(69.3519 89.3771)">
        <stop stop-color="#FF0000"/>
        <stop offset="0.530354" stop-color="#FFE925"/>
        <stop offset="1" stop-color="#6DF244"/>
      </radialGradient>
      <linearGradient id="paint6_linear_765_92122" x1="288.222" y1="266.282" x2="402.793" y2="266.282" gradientUnits="userSpaceOnUse">
        <stop stop-color="#551D8D"/>
        <stop offset="0.464789" stop-color="#9B48EF"/>
        <stop offset="1" stop-color="#551D8D"/>
      </linearGradient>
      <radialGradient id="paint7_radial_765_92122" cx="0" cy="0" r="1" gradientUnits="userSpaceOnUse" gradientTransform="translate(251.379 111.829) rotate(92.5586) scale(194.182 157.662)">
        <stop offset="0.479167" stop-color="white" stop-opacity="0.75"/>
        <stop offset="1" stop-color="white" stop-opacity="0"/>
      </radialGradient>
      <linearGradient id="paint8_linear_765_92122" x1="339.577" y1="218.142" x2="469.005" y2="218.142" gradientUnits="userSpaceOnUse">
        <stop stop-color="#551D8D"/>
        <stop offset="0.464789" stop-color="#9B48EF"/>
        <stop offset="1" stop-color="#551D8D"/>
      </linearGradient>
      <radialGradient id="paint9_radial_765_92122" cx="0" cy="0" r="1" gradientUnits="userSpaceOnUse" gradientTransform="translate(297.957 43.6625) rotate(92.5586) scale(219.36 178.105)">
        <stop offset="0.479167" stop-color="white" stop-opacity="0.75"/>
        <stop offset="1" stop-color="white" stop-opacity="0"/>
      </radialGradient>
    </defs>
  
        <path d="M148.717 94L125.019 208.98C124.948 209.324 125.078 209.673 125.367 209.873C128.479 212.027 147.033 224 175 224C202.967 224 221.521 212.027 224.633 209.873C224.922 209.673 225.052 209.324 224.981 208.98L201.283 94C201.249 94.0666 201.205 94.1285 201.15 94.1836C199.818 95.5241 193.18 101.106 175 101.106C156.82 101.106 150.182 95.5241 148.85 94.1836C148.795 94.1285 148.751 94.0666 148.717 94Z" fill="#FFFFFF" fill-opacity="0.75"/>;
        </svg>
      