
      <svg width="350" height="350" viewBox="0 0 350 350" fill="none" xmlns="http://www.w3.org/2000/svg">
      
  <g clip-path="url(#clip0_28_290)">
  <rect x="0.0789795" y="0.0444336" width="350" height="350" fill="black" fill-opacity="0.89"/>
  <rect x="0.0789795" y="0.0444336" width="350" height="350" fill="url(#paint0_radial_28_290)" fill-opacity="0.2"/>
  <path d="M125.979 290.538L299.832 190.751L430.987 233.879L230.789 294.049L125.979 290.538Z" fill="url(#paint1_linear_28_290)"/>
  <g opacity="0.45" filter="url(#filter0_f_28_290)">
  <ellipse rx="194.596" ry="66.7643" transform="matrix(0.999998 0.00221055 0.00221055 -0.999998 176.078 304.637)" fill="url(#paint2_radial_28_290)"/>
  </g>
  <g opacity="0.7" filter="url(#filter1_f_28_290)">
  <ellipse cx="174.396" cy="137.609" rx="196.647" ry="242.448" transform="rotate(0.126655 174.396 137.609)" fill="url(#paint3_radial_28_290)"/>
  </g>
  </g>
  <defs>
  <filter id="filter0_f_28_290" x="-23.0754" y="233.314" width="398.306" height="142.646" filterUnits="userSpaceOnUse" color-interpolation-filters="sRGB">
  <feFlood flood-opacity="0" result="BackgroundImageFix"/>
  <feBlend mode="normal" in="SourceGraphic" in2="BackgroundImageFix" result="shape"/>
  <feGaussianBlur stdDeviation="2.27865" result="effect1_foregroundBlur_28_290"/>
  </filter>
  <filter id="filter1_f_28_290" x="-26.8086" y="-109.396" width="402.41" height="494.01" filterUnits="userSpaceOnUse" color-interpolation-filters="sRGB">
  <feFlood flood-opacity="0" result="BackgroundImageFix"/>
  <feBlend mode="normal" in="SourceGraphic" in2="BackgroundImageFix" result="shape"/>
  <feGaussianBlur stdDeviation="2.27865" result="effect1_foregroundBlur_28_290"/>
  </filter>
  <radialGradient id="paint0_radial_28_290" cx="0" cy="0" r="1" gradientUnits="userSpaceOnUse" gradientTransform="translate(156.622 401.542) rotate(-84.441) scale(239.93 241.682)">
  <stop/>
  <stop offset="1" stop-opacity="0"/>
  </radialGradient>
  <linearGradient id="paint1_linear_28_290" x1="194.836" y1="271.638" x2="316.537" y2="167.936" gradientUnits="userSpaceOnUse">
  <stop/>
  <stop offset="1" stop-color="#333333" stop-opacity="0"/>
  </linearGradient>
  <radialGradient id="paint2_radial_28_290" cx="0" cy="0" r="1" gradientUnits="userSpaceOnUse" gradientTransform="translate(194.596 76.624) rotate(99.1226) scale(43.9775 125.337)">
  <stop stop-color="#737373"/>
  <stop offset="1" stop-color="#9A9A9A" stop-opacity="0"/>
  </radialGradient>
  <radialGradient id="paint3_radial_28_290" cx="0" cy="0" r="1" gradientUnits="userSpaceOnUse" gradientTransform="translate(174.396 173.413) rotate(92.5586) scale(157.837 128.153)">
  <stop stop-color="#737373"/>
  <stop offset="1" stop-color="#9A9A9A" stop-opacity="0"/>
  </radialGradient>
  <clipPath id="clip0_28_290">
  <rect width="350" height="350" fill="white"/>
  </clipPath>
  </defs>
  
      
  <g opacity="0.5" clip-path="url(#clip0_579_26007)">
  <g style="mix-blend-mode:overlay" opacity="0.5">
  <path d="M64.4994 79.5454C24.135 52.5678 120.937 3.24074 154.082 0H44.7912C11.8248 3.53535 2.38872 19.7391 1.7915 27.399V91.9192C11.0484 104.293 29.883 128.728 88.6868 144.066C166.624 164.394 260.616 124.902 228.436 79.5454C203.353 44.1919 120.041 116.667 64.4994 79.5454Z" fill="white"/>
  </g>
  <g style="mix-blend-mode:overlay" opacity="0.5">
  <path fill-rule="evenodd" clip-rule="evenodd" d="M191.707 0.883873C165.429 6.48152 117.174 29.1667 134.374 39.7728C142.244 44.6255 158.756 44.6231 178.154 44.6202C211.751 44.6152 254.006 44.6089 275.019 69.8233C309.027 110.631 282.186 175 199.77 200.631C198.621 200.989 197.465 201.348 196.304 201.709C114.12 227.257 1.00879 262.419 67.1871 296.086C87.6425 306.492 110.379 298.897 133.89 291.043C176.277 276.884 221.184 261.883 259.79 350H331.456C280.394 316.414 285.14 251.026 318.019 235.101C355.58 216.909 356.071 181.422 352.899 156.055C351.91 148.147 351.493 141.222 352.06 136.111L359.227 0.883873H191.707ZM259.79 209.47C247.607 228.561 203.353 239.226 182.749 242.172C165.728 262.5 206.936 253.662 213.207 248.359C219.478 243.056 232.019 255.429 235.603 272.222C239.186 289.015 269.644 286.364 267.852 272.222C266.061 258.081 266.061 242.172 286.665 226.263C307.269 210.354 275.019 185.606 259.79 209.47Z" fill="white"/>
  </g>
  <g style="mix-blend-mode:overlay" opacity="0.5">
  <path d="M74.3539 178.535C111.979 178.535 110.187 208.586 74.3539 214.773C39.3236 220.821 0.86877 231.304 0.00019598 249.937L0.000196099 251.231C-0.0198743 250.795 -0.0197098 250.364 0.00019598 249.937L0.000188112 159.091C14.4572 167.16 47.4107 178.535 74.3539 178.535Z" fill="white"/>
  </g>
  </g>
  <defs>
  <clipPath id="clip0_579_26007">
  <rect width="350" height="350" fill="white"/>
  </clipPath>
  </defs>

      </svg>
    