
        <svg width="350" height="350" viewBox="0 0 350 350" fill="none" xmlns="http://www.w3.org/2000/svg">
        
  <g clip-path="url(#clip0_28_290)">
  <rect x="0.0789795" y="0.0444336" width="350" height="350" fill="black" fill-opacity="0.89"/>
  <rect x="0.0789795" y="0.0444336" width="350" height="350" fill="url(#paint0_radial_28_290)" fill-opacity="0.2"/>
  <path d="M125.979 290.538L299.832 190.751L430.987 233.879L230.789 294.049L125.979 290.538Z" fill="url(#paint1_linear_28_290)"/>
  <g opacity="0.45" filter="url(#filter0_f_28_290)">
  <ellipse rx="194.596" ry="66.7643" transform="matrix(0.999998 0.00221055 0.00221055 -0.999998 176.078 304.637)" fill="url(#paint2_radial_28_290)"/>
  </g>
  <g opacity="0.7" filter="url(#filter1_f_28_290)">
  <ellipse cx="174.396" cy="137.609" rx="196.647" ry="242.448" transform="rotate(0.126655 174.396 137.609)" fill="url(#paint3_radial_28_290)"/>
  </g>
  </g>
  <defs>
  <filter id="filter0_f_28_290" x="-23.0754" y="233.314" width="398.306" height="142.646" filterUnits="userSpaceOnUse" color-interpolation-filters="sRGB">
  <feFlood flood-opacity="0" result="BackgroundImageFix"/>
  <feBlend mode="normal" in="SourceGraphic" in2="BackgroundImageFix" result="shape"/>
  <feGaussianBlur stdDeviation="2.27865" result="effect1_foregroundBlur_28_290"/>
  </filter>
  <filter id="filter1_f_28_290" x="-26.8086" y="-109.396" width="402.41" height="494.01" filterUnits="userSpaceOnUse" color-interpolation-filters="sRGB">
  <feFlood flood-opacity="0" result="BackgroundImageFix"/>
  <feBlend mode="normal" in="SourceGraphic" in2="BackgroundImageFix" result="shape"/>
  <feGaussianBlur stdDeviation="2.27865" result="effect1_foregroundBlur_28_290"/>
  </filter>
  <radialGradient id="paint0_radial_28_290" cx="0" cy="0" r="1" gradientUnits="userSpaceOnUse" gradientTransform="translate(156.622 401.542) rotate(-84.441) scale(239.93 241.682)">
  <stop/>
  <stop offset="1" stop-opacity="0"/>
  </radialGradient>
  <linearGradient id="paint1_linear_28_290" x1="194.836" y1="271.638" x2="316.537" y2="167.936" gradientUnits="userSpaceOnUse">
  <stop/>
  <stop offset="1" stop-color="#333333" stop-opacity="0"/>
  </linearGradient>
  <radialGradient id="paint2_radial_28_290" cx="0" cy="0" r="1" gradientUnits="userSpaceOnUse" gradientTransform="translate(194.596 76.624) rotate(99.1226) scale(43.9775 125.337)">
  <stop stop-color="#737373"/>
  <stop offset="1" stop-color="#9A9A9A" stop-opacity="0"/>
  </radialGradient>
  <radialGradient id="paint3_radial_28_290" cx="0" cy="0" r="1" gradientUnits="userSpaceOnUse" gradientTransform="translate(174.396 173.413) rotate(92.5586) scale(157.837 128.153)">
  <stop stop-color="#737373"/>
  <stop offset="1" stop-color="#9A9A9A" stop-opacity="0"/>
  </radialGradient>
  <clipPath id="clip0_28_290">
  <rect width="350" height="350" fill="white"/>
  </clipPath>
  </defs>
  
        
    <g filter="url(#filter0_d_765_92124)">
      <path d="M147.435 221.638C147.227 220.753 145.978 220.679 145.655 221.529C135.558 248.092 116.921 274.657 115.808 335.23C115.789 336.267 117.242 336.499 117.578 335.518C131.89 293.713 145.73 277.771 159.921 280.904C160.612 281.057 161.267 280.448 161.105 279.759L147.435 221.638Z" fill="#333333"/>
      <path d="M147.435 221.638C147.227 220.753 145.978 220.679 145.655 221.529C135.558 248.092 116.921 274.657 115.808 335.23C115.789 336.267 117.242 336.499 117.578 335.518C131.89 293.713 145.73 277.771 159.921 280.904C160.612 281.057 161.267 280.448 161.105 279.759L147.435 221.638Z" fill="url(#paint0_linear_765_92124)"/>
      <path d="M202.566 221.638C202.774 220.753 204.023 220.679 204.346 221.529C214.443 248.092 233.08 274.657 234.193 335.23C234.212 336.267 232.759 336.499 232.423 335.518C218.111 293.713 204.271 277.771 190.08 280.904C189.389 281.057 188.734 280.448 188.896 279.759L202.566 221.638Z" fill="#333333"/>
      <path d="M202.566 221.638C202.774 220.753 204.023 220.679 204.346 221.529C214.443 248.092 233.08 274.657 234.193 335.23C234.212 336.267 232.759 336.499 232.423 335.518C218.111 293.713 204.271 277.771 190.08 280.904C189.389 281.057 188.734 280.448 188.896 279.759L202.566 221.638Z" fill="url(#paint1_linear_765_92124)"/>
      <path d="M125.85 211.156C125.102 210.748 124.173 211.486 124.422 212.301L137.224 254.133C137.229 254.148 137.227 254.145 137.233 254.16C137.416 254.659 153.267 297.588 175.001 297.588C196.734 297.588 212.585 254.659 212.769 254.16C212.774 254.145 212.773 254.148 212.777 254.133L225.58 212.301C225.829 211.486 224.9 210.748 224.152 211.156C218.252 214.373 200.597 222.642 175.001 222.642C149.405 222.642 131.749 214.373 125.85 211.156Z" fill="#333333"/>
      <path d="M125.85 211.156C125.102 210.748 124.173 211.486 124.422 212.301L137.224 254.133C137.229 254.148 137.227 254.145 137.233 254.16C137.416 254.659 153.267 297.588 175.001 297.588C196.734 297.588 212.585 254.659 212.769 254.16C212.774 254.145 212.773 254.148 212.777 254.133L225.58 212.301C225.829 211.486 224.9 210.748 224.152 211.156C218.252 214.373 200.597 222.642 175.001 222.642C149.405 222.642 131.749 214.373 125.85 211.156Z" fill="url(#paint2_linear_765_92124)"/>
      <path d="M175 223.322C175 222.373 176.245 222.069 176.665 222.919C189.647 249.186 192.092 279.874 192.252 338.861C192.255 339.924 190.945 340.088 190.745 339.044C187.346 321.3 188.497 303.068 175.217 287.116C175.079 286.951 175 286.74 175 286.525V223.322Z" fill="#333333"/>
      <path d="M175 223.322C175 222.373 176.245 222.069 176.665 222.919C189.647 249.186 192.092 279.874 192.252 338.861C192.255 339.924 190.945 340.088 190.745 339.044C187.346 321.3 188.497 303.068 175.217 287.116C175.079 286.951 175 286.74 175 286.525V223.322Z" fill="url(#paint3_linear_765_92124)"/>
    </g>
    <path d="M155.659 61.9402C159.113 48.9626 161.899 32.3569 174.786 32.3569C187.672 32.3569 192.187 52.9174 194.342 62.2566C196.329 70.8611 200.674 90.7629 201.345 93.8411C201.403 94.1056 201.336 94.367 201.146 94.5604C199.763 95.9721 193.095 101.628 175.001 101.628C156.851 101.628 150.198 95.9378 148.843 94.5477C148.66 94.3603 148.594 94.1076 148.643 93.8506C149.178 91.0438 152.494 73.8283 155.659 61.9402Z" fill="#333333"/>
    <path d="M155.659 61.9402C159.113 48.9626 161.899 32.3569 174.786 32.3569C187.672 32.3569 192.187 52.9174 194.342 62.2566C196.329 70.8611 200.674 90.7629 201.345 93.8411C201.403 94.1056 201.336 94.367 201.146 94.5604C199.763 95.9721 193.095 101.628 175.001 101.628C156.851 101.628 150.198 95.9378 148.843 94.5477C148.66 94.3603 148.594 94.1076 148.643 93.8506C149.178 91.0438 152.494 73.8283 155.659 61.9402Z" fill="url(#paint4_linear_765_92124)"/>
    <defs>
      <filter id="filter0_d_765_92124" x="113.529" y="211.04" width="123.854" height="134.176" filterUnits="userSpaceOnUse" color-interpolation-filters="sRGB">
        <feFlood flood-opacity="0" result="BackgroundImageFix"/>
        <feColorMatrix in="SourceAlpha" type="matrix" values="0 0 0 0 0 0 0 0 0 0 0 0 0 0 0 0 0 0 127 0" result="hardAlpha"/>
        <feOffset dx="0.455729" dy="2.73438"/>
        <feGaussianBlur stdDeviation="1.36719"/>
        <feComposite in2="hardAlpha" operator="out"/>
        <feColorMatrix type="matrix" values="0 0 0 0 0 0 0 0 0 0 0 0 0 0 0 0 0 0 0.25 0"/>
        <feBlend mode="normal" in2="BackgroundImageFix" result="effect1_dropShadow_765_92124"/>
        <feBlend mode="normal" in="SourceGraphic" in2="effect1_dropShadow_765_92124" result="shape"/>
      </filter>
      <linearGradient id="paint0_linear_765_92124" x1="118.472" y1="229.255" x2="194.298" y2="255.219" gradientUnits="userSpaceOnUse">
        <stop stop-color="#ECECEC" stop-opacity="0.71"/>
        <stop offset="1" stop-color="#C3C3C3" stop-opacity="0.15"/>
      </linearGradient>
      <linearGradient id="paint1_linear_765_92124" x1="231.529" y1="229.255" x2="155.703" y2="255.219" gradientUnits="userSpaceOnUse">
        <stop stop-color="#ECECEC" stop-opacity="0.71"/>
        <stop offset="1" stop-color="#C3C3C3" stop-opacity="0.15"/>
      </linearGradient>
      <linearGradient id="paint2_linear_765_92124" x1="129.783" y1="223.106" x2="227.712" y2="318.154" gradientUnits="userSpaceOnUse">
        <stop stop-color="#ECECEC" stop-opacity="0.71"/>
        <stop offset="1" stop-color="#C3C3C3" stop-opacity="0.15"/>
      </linearGradient>
      <linearGradient id="paint3_linear_765_92124" x1="194.133" y1="235.551" x2="94.7935" y2="286.802" gradientUnits="userSpaceOnUse">
        <stop stop-color="#ECECEC" stop-opacity="0.71"/>
        <stop offset="1" stop-color="#C3C3C3" stop-opacity="0.15"/>
      </linearGradient>
      <linearGradient id="paint4_linear_765_92124" x1="151.709" y1="56.5728" x2="203.083" y2="105.496" gradientUnits="userSpaceOnUse">
        <stop stop-color="#ECECEC" stop-opacity="0.71"/>
        <stop offset="1" stop-color="#C3C3C3" stop-opacity="0.15"/>
      </linearGradient>
    </defs>
  
        <path d="M148.717 94L125.019 208.98C124.948 209.324 125.078 209.673 125.367 209.873C128.479 212.027 147.033 224 175 224C202.967 224 221.521 212.027 224.633 209.873C224.922 209.673 225.052 209.324 224.981 208.98L201.283 94C201.249 94.0666 201.205 94.1285 201.15 94.1836C199.818 95.5241 193.18 101.106 175 101.106C156.82 101.106 150.182 95.5241 148.85 94.1836C148.795 94.1285 148.751 94.0666 148.717 94Z" fill="#FFFFFF" fill-opacity="0.75"/>;
        </svg>
      