
      <svg width="350" height="350" viewBox="0 0 350 350" fill="none" xmlns="http://www.w3.org/2000/svg">
      
  <g clip-path="url(#clip0_28_290)">
  <rect x="0.0789795" y="0.0444336" width="350" height="350" fill="black" fill-opacity="0.89"/>
  <rect x="0.0789795" y="0.0444336" width="350" height="350" fill="url(#paint0_radial_28_290)" fill-opacity="0.2"/>
  <path d="M125.979 290.538L299.832 190.751L430.987 233.879L230.789 294.049L125.979 290.538Z" fill="url(#paint1_linear_28_290)"/>
  <g opacity="0.45" filter="url(#filter0_f_28_290)">
  <ellipse rx="194.596" ry="66.7643" transform="matrix(0.999998 0.00221055 0.00221055 -0.999998 176.078 304.637)" fill="url(#paint2_radial_28_290)"/>
  </g>
  <g opacity="0.7" filter="url(#filter1_f_28_290)">
  <ellipse cx="174.396" cy="137.609" rx="196.647" ry="242.448" transform="rotate(0.126655 174.396 137.609)" fill="url(#paint3_radial_28_290)"/>
  </g>
  </g>
  <defs>
  <filter id="filter0_f_28_290" x="-23.0754" y="233.314" width="398.306" height="142.646" filterUnits="userSpaceOnUse" color-interpolation-filters="sRGB">
  <feFlood flood-opacity="0" result="BackgroundImageFix"/>
  <feBlend mode="normal" in="SourceGraphic" in2="BackgroundImageFix" result="shape"/>
  <feGaussianBlur stdDeviation="2.27865" result="effect1_foregroundBlur_28_290"/>
  </filter>
  <filter id="filter1_f_28_290" x="-26.8086" y="-109.396" width="402.41" height="494.01" filterUnits="userSpaceOnUse" color-interpolation-filters="sRGB">
  <feFlood flood-opacity="0" result="BackgroundImageFix"/>
  <feBlend mode="normal" in="SourceGraphic" in2="BackgroundImageFix" result="shape"/>
  <feGaussianBlur stdDeviation="2.27865" result="effect1_foregroundBlur_28_290"/>
  </filter>
  <radialGradient id="paint0_radial_28_290" cx="0" cy="0" r="1" gradientUnits="userSpaceOnUse" gradientTransform="translate(156.622 401.542) rotate(-84.441) scale(239.93 241.682)">
  <stop/>
  <stop offset="1" stop-opacity="0"/>
  </radialGradient>
  <linearGradient id="paint1_linear_28_290" x1="194.836" y1="271.638" x2="316.537" y2="167.936" gradientUnits="userSpaceOnUse">
  <stop/>
  <stop offset="1" stop-color="#333333" stop-opacity="0"/>
  </linearGradient>
  <radialGradient id="paint2_radial_28_290" cx="0" cy="0" r="1" gradientUnits="userSpaceOnUse" gradientTransform="translate(194.596 76.624) rotate(99.1226) scale(43.9775 125.337)">
  <stop stop-color="#737373"/>
  <stop offset="1" stop-color="#9A9A9A" stop-opacity="0"/>
  </radialGradient>
  <radialGradient id="paint3_radial_28_290" cx="0" cy="0" r="1" gradientUnits="userSpaceOnUse" gradientTransform="translate(174.396 173.413) rotate(92.5586) scale(157.837 128.153)">
  <stop stop-color="#737373"/>
  <stop offset="1" stop-color="#9A9A9A" stop-opacity="0"/>
  </radialGradient>
  <clipPath id="clip0_28_290">
  <rect width="350" height="350" fill="white"/>
  </clipPath>
  </defs>
  
      
  <g filter="url(#filter0_d_559_36466)">
  <path d="M216.24 25.3087C216.24 25.3087 216.24 25.3124 216.238 25.3199C216.238 25.3125 216.239 25.3087 216.24 25.3087ZM215.963 24.9666C216.147 25.1635 216.21 25.2863 216.231 25.3395C216.21 25.3928 216.147 25.5156 215.963 25.7125C215.626 26.0741 215.016 26.5326 214.038 27.0399C212.086 28.0515 209.113 29.0303 205.248 29.8777C197.555 31.5642 186.818 32.6265 174.883 32.6265C162.947 32.6265 152.211 31.5642 144.518 29.8777C140.653 29.0303 137.679 28.0515 135.727 27.0399C134.749 26.5326 134.14 26.0741 133.802 25.7125C133.618 25.5156 133.555 25.3928 133.534 25.3395C133.555 25.2863 133.618 25.1635 133.802 24.9666C134.14 24.605 134.749 24.1465 135.727 23.6392C137.679 22.6276 140.653 21.6487 144.518 20.8014C152.211 19.1149 162.947 18.0526 174.883 18.0526C186.818 18.0526 197.555 19.1149 205.248 20.8014C209.113 21.6487 212.086 22.6276 214.038 23.6392C215.016 24.1465 215.626 24.605 215.963 24.9666ZM133.526 25.3087C133.526 25.3087 133.527 25.3125 133.528 25.3199C133.526 25.3124 133.525 25.3087 133.526 25.3087ZM133.526 25.3704C133.525 25.3704 133.526 25.3667 133.528 25.3592C133.527 25.3666 133.526 25.3704 133.526 25.3704ZM216.238 25.3591C216.24 25.3667 216.24 25.3704 216.24 25.3704C216.239 25.3703 216.238 25.3666 216.238 25.3591Z" stroke="#FDF21B" stroke-width="4.55729" shape-rendering="crispEdges"/>
  </g>
  <defs>
  <filter id="filter0_d_559_36466" x="127.926" y="12.4498" width="93.9133" height="25.7795" filterUnits="userSpaceOnUse" color-interpolation-filters="sRGB">
  <feFlood flood-opacity="0" result="BackgroundImageFix"/>
  <feColorMatrix in="SourceAlpha" type="matrix" values="0 0 0 0 0 0 0 0 0 0 0 0 0 0 0 0 0 0 127 0" result="hardAlpha"/>
  <feOffset/>
  <feGaussianBlur stdDeviation="1.66205"/>
  <feComposite in2="hardAlpha" operator="out"/>
  <feColorMatrix type="matrix" values="0 0 0 0 1 0 0 0 0 1 0 0 0 0 1 0 0 0 1 0"/>
  <feBlend mode="normal" in2="BackgroundImageFix" result="effect1_dropShadow_559_36466"/>
  <feBlend mode="normal" in="SourceGraphic" in2="effect1_dropShadow_559_36466" result="shape"/>
  </filter>
  </defs>
    
      </svg>
    