
        <svg width="350" height="350" viewBox="0 0 350 350" fill="none" xmlns="http://www.w3.org/2000/svg">
        
  <g clip-path="url(#clip0_28_290)">
  <rect x="0.0789795" y="0.0444336" width="350" height="350" fill="black" fill-opacity="0.89"/>
  <rect x="0.0789795" y="0.0444336" width="350" height="350" fill="url(#paint0_radial_28_290)" fill-opacity="0.2"/>
  <path d="M125.979 290.538L299.832 190.751L430.987 233.879L230.789 294.049L125.979 290.538Z" fill="url(#paint1_linear_28_290)"/>
  <g opacity="0.45" filter="url(#filter0_f_28_290)">
  <ellipse rx="194.596" ry="66.7643" transform="matrix(0.999998 0.00221055 0.00221055 -0.999998 176.078 304.637)" fill="url(#paint2_radial_28_290)"/>
  </g>
  <g opacity="0.7" filter="url(#filter1_f_28_290)">
  <ellipse cx="174.396" cy="137.609" rx="196.647" ry="242.448" transform="rotate(0.126655 174.396 137.609)" fill="url(#paint3_radial_28_290)"/>
  </g>
  </g>
  <defs>
  <filter id="filter0_f_28_290" x="-23.0754" y="233.314" width="398.306" height="142.646" filterUnits="userSpaceOnUse" color-interpolation-filters="sRGB">
  <feFlood flood-opacity="0" result="BackgroundImageFix"/>
  <feBlend mode="normal" in="SourceGraphic" in2="BackgroundImageFix" result="shape"/>
  <feGaussianBlur stdDeviation="2.27865" result="effect1_foregroundBlur_28_290"/>
  </filter>
  <filter id="filter1_f_28_290" x="-26.8086" y="-109.396" width="402.41" height="494.01" filterUnits="userSpaceOnUse" color-interpolation-filters="sRGB">
  <feFlood flood-opacity="0" result="BackgroundImageFix"/>
  <feBlend mode="normal" in="SourceGraphic" in2="BackgroundImageFix" result="shape"/>
  <feGaussianBlur stdDeviation="2.27865" result="effect1_foregroundBlur_28_290"/>
  </filter>
  <radialGradient id="paint0_radial_28_290" cx="0" cy="0" r="1" gradientUnits="userSpaceOnUse" gradientTransform="translate(156.622 401.542) rotate(-84.441) scale(239.93 241.682)">
  <stop/>
  <stop offset="1" stop-opacity="0"/>
  </radialGradient>
  <linearGradient id="paint1_linear_28_290" x1="194.836" y1="271.638" x2="316.537" y2="167.936" gradientUnits="userSpaceOnUse">
  <stop/>
  <stop offset="1" stop-color="#333333" stop-opacity="0"/>
  </linearGradient>
  <radialGradient id="paint2_radial_28_290" cx="0" cy="0" r="1" gradientUnits="userSpaceOnUse" gradientTransform="translate(194.596 76.624) rotate(99.1226) scale(43.9775 125.337)">
  <stop stop-color="#737373"/>
  <stop offset="1" stop-color="#9A9A9A" stop-opacity="0"/>
  </radialGradient>
  <radialGradient id="paint3_radial_28_290" cx="0" cy="0" r="1" gradientUnits="userSpaceOnUse" gradientTransform="translate(174.396 173.413) rotate(92.5586) scale(157.837 128.153)">
  <stop stop-color="#737373"/>
  <stop offset="1" stop-color="#9A9A9A" stop-opacity="0"/>
  </radialGradient>
  <clipPath id="clip0_28_290">
  <rect width="350" height="350" fill="white"/>
  </clipPath>
  </defs>
  
        
    <path d="M156.654 61.9395C160.108 48.962 162.894 32.3564 175.781 32.3564C188.667 32.3564 193.181 52.9167 195.337 62.2559C197.261 70.5901 201.398 89.523 202.266 93.5011C202.37 93.9797 202.254 94.4614 201.898 94.7973C200.075 96.5137 193.2 101.627 175.996 101.627C158.727 101.627 151.866 96.4756 150.073 94.7783C149.73 94.4527 149.612 93.9873 149.701 93.5223C150.393 89.9031 153.595 73.4319 156.654 61.9395Z" fill="black"/>
    <path d="M156.654 61.9395C160.108 48.962 162.894 32.3564 175.781 32.3564C188.667 32.3564 193.181 52.9167 195.337 62.2559C197.261 70.5901 201.398 89.523 202.266 93.5011C202.37 93.9797 202.254 94.4614 201.898 94.7973C200.075 96.5137 193.2 101.627 175.996 101.627C158.727 101.627 151.866 96.4756 150.073 94.7783C149.73 94.4527 149.612 93.9873 149.701 93.5223C150.393 89.9031 153.595 73.4319 156.654 61.9395Z" fill="url(#paint0_linear_765_92127)" fill-opacity="0.45"/>
    <path d="M229.315 314.72L203.032 284.373H173.52H144.185L118.118 314.72C118.118 314.72 135.8 334.73 173.717 334.73C211.634 334.73 229.315 314.72 229.315 314.72Z" fill="black"/>
    <path d="M125.789 210.089C125.789 210.089 149.108 224.673 176.224 224.673C203.339 224.673 226.203 210.089 226.203 210.089C229.727 225.093 237.026 263.49 224.778 282.942C209.363 307.422 183.899 315.818 175.996 315.818C168.093 315.818 142.628 307.422 127.214 282.942C114.965 263.49 122.265 225.093 125.789 210.089Z" fill="#6DF244"/>
    <path d="M125.789 210.089C125.789 210.089 149.108 224.673 176.224 224.673C203.339 224.673 226.203 210.089 226.203 210.089C229.727 225.093 237.026 263.49 224.778 282.942C209.363 307.422 183.899 315.818 175.996 315.818C168.093 315.818 142.628 307.422 127.214 282.942C114.965 263.49 122.265 225.093 125.789 210.089Z" fill="url(#paint1_linear_765_92127)" fill-opacity="0.8"/>
    <path d="M156.654 61.9395C160.108 48.962 162.894 32.3564 175.781 32.3564C188.667 32.3564 193.181 52.9167 195.337 62.2559C197.323 70.8603 201.668 90.7619 202.34 93.84C202.397 94.1046 202.33 94.3659 202.141 94.5594C200.758 95.9711 194.09 101.627 175.996 101.627C157.847 101.627 151.193 95.9368 149.838 94.5467C149.655 94.3593 149.589 94.1066 149.638 93.8496C150.173 91.0428 153.489 73.8275 156.654 61.9395Z" fill="url(#paint2_linear_765_92127)"/>
    <path d="M229.315 314.72L203.032 284.373H173.52H144.185L118.118 314.72C118.118 314.72 135.8 334.73 173.717 334.73C211.634 334.73 229.315 314.72 229.315 314.72Z" fill="url(#paint3_linear_765_92127)"/>
    <path d="M125.502 211.321C125.641 210.712 126.338 210.425 126.879 210.737C131.78 213.562 152.555 224.673 176.223 224.673C199.852 224.673 220.253 213.598 225.108 210.751C225.65 210.433 226.351 210.721 226.491 211.333C230.1 227.119 236.7 264.006 224.777 282.942C209.362 307.422 183.898 315.818 175.995 315.818C168.092 315.818 142.627 307.422 127.213 282.942C115.287 264.001 121.894 227.1 125.502 211.321Z" fill="url(#paint4_linear_765_92127)"/>
    <path d="M131.946 277.636C123.167 263.009 124.2 251.573 129.364 246.786C138.579 238.245 153.636 253.169 159.574 265.669C165.513 278.168 166.288 287.743 161.382 292.264C156.476 296.785 140.726 292.264 131.946 277.636Z" stroke="url(#paint5_linear_765_92127)" stroke-width="1.8229"/>
    <path fill-rule="evenodd" clip-rule="evenodd" d="M175.995 303.505C172.999 303.604 167.491 302.826 163.69 298.956H175.084H176.906H188.3C184.499 302.826 178.991 303.604 175.995 303.505Z" fill="#E0AE0D"/>
    <path d="M219.286 276.697C227.248 263.68 226.311 253.504 221.628 249.244C213.27 241.642 199.614 254.924 194.228 266.047C188.841 277.171 188.139 285.691 192.588 289.714C197.038 293.738 211.323 289.714 219.286 276.697Z" fill="#070707" stroke="#070707" stroke-width="0.455725"/>
    <path d="M219.513 277.636C228.394 263.009 227.349 251.573 222.125 246.786C212.803 238.245 197.571 253.169 191.563 265.669C185.556 278.168 184.772 287.743 189.735 292.264C194.698 296.785 210.632 292.264 219.513 277.636Z" stroke="url(#paint6_linear_765_92127)" stroke-width="1.8229"/>
    <path d="M220.424 277.636C229.305 263.009 228.26 251.573 223.036 246.786C213.715 238.245 198.482 253.169 192.475 265.669C186.467 278.168 185.683 287.743 190.646 292.264C195.609 296.785 211.543 292.264 220.424 277.636Z" stroke="url(#paint7_linear_765_92127)" stroke-width="1.8229"/>
    <path d="M221.583 256.215C220.782 252.565 218.88 250.965 217.321 251.047C214.537 251.193 214.37 255.886 215.307 258.757C216.244 261.627 217.571 263.227 219.049 263.145C220.527 263.063 222.384 259.865 221.583 256.215Z" fill="url(#paint8_radial_765_92127)"/>
    <path fill-rule="evenodd" clip-rule="evenodd" d="M175.996 292.163C174.537 291.984 171.037 292.271 168.704 294.854H175.996H183.287C180.954 292.271 177.454 291.984 175.996 292.163Z" fill="#E0AE0D"/>
    <path d="M133.084 276.697C125.224 263.68 126.149 253.504 130.773 249.244C139.023 241.642 152.504 254.924 157.821 266.047C163.139 277.171 163.832 285.691 159.44 289.714C155.047 293.738 140.945 289.714 133.084 276.697Z" fill="#070707" stroke="#070707" stroke-width="0.455725"/>
    <path d="M130.559 256.215C131.36 252.565 133.261 250.965 134.821 251.047C137.604 251.193 137.772 255.886 136.835 258.757C135.898 261.627 134.571 263.227 133.093 263.145C131.615 263.063 129.758 259.865 130.559 256.215Z" fill="url(#paint9_radial_765_92127)"/>
    <path d="M131.946 277.636C123.167 263.009 124.2 251.573 129.364 246.786C138.579 238.245 153.636 253.169 159.574 265.669C165.513 278.168 166.288 287.743 161.382 292.264C156.476 296.785 140.726 292.264 131.946 277.636Z" stroke="url(#paint10_linear_765_92127)" stroke-width="1.8229"/>
    <path fill-rule="evenodd" clip-rule="evenodd" d="M178.403 224.673L178.301 224.672C178.887 224.672 179.469 224.665 180.047 224.653C179.501 224.666 178.953 224.673 178.403 224.673Z" fill="#161A70" fill-opacity="0.1"/>
    <path fill-rule="evenodd" clip-rule="evenodd" d="M229.405 314.72C229.405 314.72 212.419 334.73 175.995 334.73V32.3564C188.164 32.3564 193.176 52.2239 195.289 61.7702L195.397 62.2559C197.245 70.5901 201.675 89.523 202.509 93.5011C202.561 93.7523 202.556 94.0043 202.489 94.2356L226.228 209.627C226.274 209.858 226.233 210.091 226.118 210.281C226.314 210.156 226.415 210.089 226.415 210.089C229.799 225.093 236.812 263.49 225.046 282.942C221.845 288.232 218.194 292.771 214.36 296.637L229.405 314.72ZM178.403 224.673L178.301 224.672C178.887 224.672 179.469 224.665 180.047 224.653C179.501 224.666 178.953 224.673 178.403 224.673Z" fill="#161A70" fill-opacity="0.1"/>
    <defs>
      <linearGradient id="paint0_linear_765_92127" x1="165.97" y1="47.3954" x2="175.996" y2="101.627" gradientUnits="userSpaceOnUse">
        <stop stop-color="white" stop-opacity="0.17"/>
        <stop offset="1" stop-color="#C3C3C3" stop-opacity="0"/>
      </linearGradient>
      <linearGradient id="paint1_linear_765_92127" x1="175.996" y1="293.487" x2="175.996" y2="226.951" gradientUnits="userSpaceOnUse">
        <stop offset="0.527397" stop-color="#6DF244"/>
        <stop offset="1" stop-color="#388E1D"/>
      </linearGradient>
      <linearGradient id="paint2_linear_765_92127" x1="157.013" y1="43.7168" x2="211.868" y2="87.7013" gradientUnits="userSpaceOnUse">
        <stop stop-color="#C59651"/>
        <stop offset="0.536458" stop-color="#E0AE0D" stop-opacity="0.98"/>
        <stop offset="1" stop-color="#FFF27B" stop-opacity="0.98"/>
      </linearGradient>
      <linearGradient id="paint3_linear_765_92127" x1="133.787" y1="292.631" x2="163.488" y2="361.539" gradientUnits="userSpaceOnUse">
        <stop stop-color="#C59651"/>
        <stop offset="0.536458" stop-color="#E0AE0D" stop-opacity="0.98"/>
        <stop offset="1" stop-color="#FFF27B" stop-opacity="0.98"/>
      </linearGradient>
      <linearGradient id="paint4_linear_765_92127" x1="175.995" y1="202.342" x2="155.518" y2="316.708" gradientUnits="userSpaceOnUse">
        <stop stop-color="#C59651"/>
        <stop offset="0.366795" stop-color="#FFC300" stop-opacity="0.98"/>
        <stop offset="1" stop-color="#FFF27B" stop-opacity="0.98"/>
      </linearGradient>
      <linearGradient id="paint5_linear_765_92127" x1="145.006" y1="244.269" x2="145.006" y2="293.943" gradientUnits="userSpaceOnUse">
        <stop stop-color="#E0AE0D"/>
        <stop offset="0.40625" stop-color="#E0AE0D" stop-opacity="0"/>
      </linearGradient>
      <linearGradient id="paint6_linear_765_92127" x1="206.301" y1="244.269" x2="206.301" y2="293.943" gradientUnits="userSpaceOnUse">
        <stop stop-color="#E0AE0D"/>
        <stop offset="0.40625" stop-color="#E0AE0D" stop-opacity="0"/>
      </linearGradient>
      <linearGradient id="paint7_linear_765_92127" x1="207.212" y1="244.269" x2="207.212" y2="293.943" gradientUnits="userSpaceOnUse">
        <stop offset="0.541667" stop-color="#E0AE0D" stop-opacity="0"/>
        <stop offset="1" stop-color="#E0AE0D"/>
      </linearGradient>
      <radialGradient id="paint8_radial_765_92127" cx="0" cy="0" r="1" gradientUnits="userSpaceOnUse" gradientTransform="translate(218.18 256.973) rotate(79.0248) scale(5.6845 4.63748)">
        <stop stop-color="white" stop-opacity="0.75"/>
        <stop offset="1" stop-color="white" stop-opacity="0"/>
        <stop offset="1" stop-color="white"/>
      </radialGradient>
      <radialGradient id="paint9_radial_765_92127" cx="0" cy="0" r="1" gradientUnits="userSpaceOnUse" gradientTransform="translate(133.961 256.973) rotate(100.975) scale(5.6845 4.63748)">
        <stop stop-color="white" stop-opacity="0.75"/>
        <stop offset="1" stop-color="white" stop-opacity="0"/>
        <stop offset="1" stop-color="white"/>
      </radialGradient>
      <linearGradient id="paint10_linear_765_92127" x1="145.006" y1="244.269" x2="145.006" y2="293.943" gradientUnits="userSpaceOnUse">
        <stop offset="0.671875" stop-color="#E0AE0D" stop-opacity="0"/>
        <stop offset="1" stop-color="#E0AE0D"/>
      </linearGradient>
    </defs>
  
        <path d="M148.717 94L125.019 208.98C124.948 209.324 125.078 209.673 125.367 209.873C128.479 212.027 147.033 224 175 224C202.967 224 221.521 212.027 224.633 209.873C224.922 209.673 225.052 209.324 224.981 208.98L201.283 94C201.249 94.0666 201.205 94.1285 201.15 94.1836C199.818 95.5241 193.18 101.106 175 101.106C156.82 101.106 150.182 95.5241 148.85 94.1836C148.795 94.1285 148.751 94.0666 148.717 94Z" fill="#FFFFFF" fill-opacity="0.75"/>;
        </svg>
      