
        <svg width="350" height="350" viewBox="0 0 350 350" fill="none" xmlns="http://www.w3.org/2000/svg">
        
  <g clip-path="url(#clip0_28_290)">
  <rect x="0.0789795" y="0.0444336" width="350" height="350" fill="black" fill-opacity="0.89"/>
  <rect x="0.0789795" y="0.0444336" width="350" height="350" fill="url(#paint0_radial_28_290)" fill-opacity="0.2"/>
  <path d="M125.979 290.538L299.832 190.751L430.987 233.879L230.789 294.049L125.979 290.538Z" fill="url(#paint1_linear_28_290)"/>
  <g opacity="0.45" filter="url(#filter0_f_28_290)">
  <ellipse rx="194.596" ry="66.7643" transform="matrix(0.999998 0.00221055 0.00221055 -0.999998 176.078 304.637)" fill="url(#paint2_radial_28_290)"/>
  </g>
  <g opacity="0.7" filter="url(#filter1_f_28_290)">
  <ellipse cx="174.396" cy="137.609" rx="196.647" ry="242.448" transform="rotate(0.126655 174.396 137.609)" fill="url(#paint3_radial_28_290)"/>
  </g>
  </g>
  <defs>
  <filter id="filter0_f_28_290" x="-23.0754" y="233.314" width="398.306" height="142.646" filterUnits="userSpaceOnUse" color-interpolation-filters="sRGB">
  <feFlood flood-opacity="0" result="BackgroundImageFix"/>
  <feBlend mode="normal" in="SourceGraphic" in2="BackgroundImageFix" result="shape"/>
  <feGaussianBlur stdDeviation="2.27865" result="effect1_foregroundBlur_28_290"/>
  </filter>
  <filter id="filter1_f_28_290" x="-26.8086" y="-109.396" width="402.41" height="494.01" filterUnits="userSpaceOnUse" color-interpolation-filters="sRGB">
  <feFlood flood-opacity="0" result="BackgroundImageFix"/>
  <feBlend mode="normal" in="SourceGraphic" in2="BackgroundImageFix" result="shape"/>
  <feGaussianBlur stdDeviation="2.27865" result="effect1_foregroundBlur_28_290"/>
  </filter>
  <radialGradient id="paint0_radial_28_290" cx="0" cy="0" r="1" gradientUnits="userSpaceOnUse" gradientTransform="translate(156.622 401.542) rotate(-84.441) scale(239.93 241.682)">
  <stop/>
  <stop offset="1" stop-opacity="0"/>
  </radialGradient>
  <linearGradient id="paint1_linear_28_290" x1="194.836" y1="271.638" x2="316.537" y2="167.936" gradientUnits="userSpaceOnUse">
  <stop/>
  <stop offset="1" stop-color="#333333" stop-opacity="0"/>
  </linearGradient>
  <radialGradient id="paint2_radial_28_290" cx="0" cy="0" r="1" gradientUnits="userSpaceOnUse" gradientTransform="translate(194.596 76.624) rotate(99.1226) scale(43.9775 125.337)">
  <stop stop-color="#737373"/>
  <stop offset="1" stop-color="#9A9A9A" stop-opacity="0"/>
  </radialGradient>
  <radialGradient id="paint3_radial_28_290" cx="0" cy="0" r="1" gradientUnits="userSpaceOnUse" gradientTransform="translate(174.396 173.413) rotate(92.5586) scale(157.837 128.153)">
  <stop stop-color="#737373"/>
  <stop offset="1" stop-color="#9A9A9A" stop-opacity="0"/>
  </radialGradient>
  <clipPath id="clip0_28_290">
  <rect width="350" height="350" fill="white"/>
  </clipPath>
  </defs>
  
        
    <mask id="mask0_765_92123" style="mask-type:alpha" maskUnits="userSpaceOnUse" x="217" y="77" width="102" height="210">
      <path d="M286.125 141.452L286.15 141.712L286.409 141.752L286.539 141.772L286.026 145.077C285.935 145.663 285.477 146.101 284.905 146.144C283.985 146.214 282.554 146.287 280.644 146.286L280.365 146.286L280.313 146.56L274.161 179.037C274.1 179.359 273.93 179.577 273.696 179.653C273.133 179.834 272.005 180.071 269.928 180.102L269.712 180.105L269.625 180.303C267.405 185.339 266.167 195.414 271.758 209.39C279.968 229.915 284.554 242.082 276.78 258.339C273.717 264.742 266.667 270.662 258.909 275.545C251.339 280.31 243.148 284.055 237.476 286.273L234.166 265.095C237.67 263.922 242.531 261.732 247.125 258.638C251.836 255.466 256.296 251.323 258.702 246.326C263.364 236.644 259.679 228.342 255.922 219.877L255.901 219.829C254.807 217.365 253.708 214.887 252.791 212.341C251.364 208.377 250.487 202.434 250.189 196.359L250.18 196.171L250.016 196.08C249.158 195.605 248.078 195.303 246.738 195.303H229.27V195.303L229.261 195.303C228.619 195.321 227.883 195.742 227.183 196.33C226.467 196.931 225.729 197.757 225.075 198.686C224.42 199.616 223.843 200.66 223.454 201.701C223.328 202.04 223.221 202.381 223.138 202.719L218.352 184.344C219.025 184.634 220.002 184.961 221.209 185.244C222.943 185.652 225.175 185.977 227.706 185.977H244.653H244.664L244.675 185.976C245.923 185.892 248.452 185.5 250.225 184.55L250.384 184.465L250.401 184.285C250.659 181.568 251.069 179.169 251.628 177.329L251.715 177.042L251.44 176.922C249.577 176.112 248.573 175.351 248.094 174.911C247.898 174.731 247.809 174.45 247.841 174.13L251.022 141.952L251.049 141.682L250.791 141.599C249.141 141.063 247.887 140.593 247.065 140.266C246.523 140.05 246.213 139.486 246.305 138.893L246.815 135.606L246.922 135.622L247.57 135.723L247.275 135.138C247.269 135.126 247.266 135.117 247.264 135.112C247.264 135.111 247.263 135.11 247.263 135.109C247.268 135.101 247.282 135.082 247.319 135.055C247.384 135.005 247.497 134.948 247.672 134.891C248.021 134.777 248.543 134.69 249.231 134.635C250.602 134.525 252.557 134.551 254.931 134.71L255.048 134.717L255.145 134.651C255.835 134.175 256.632 133.159 257.393 131.571C258.159 129.974 258.904 127.765 259.47 124.865C260.895 117.569 261.736 111.361 260.553 105.141C260.439 104.542 260.124 103.683 259.699 102.66C259.271 101.63 258.718 100.405 258.113 99.066L258.112 99.0622C256.629 95.7771 254.83 91.7907 253.723 88.1637C253.169 86.3503 252.793 84.6426 252.712 83.1681C252.631 81.6879 252.85 80.488 253.435 79.6474C253.617 79.3845 253.932 79.1358 254.396 78.913C254.858 78.6911 255.448 78.5043 256.155 78.3541C257.57 78.0538 259.414 77.9082 261.548 77.8972C265.814 77.8752 271.19 78.3909 276.507 79.2402C281.823 80.0895 287.067 81.27 291.069 82.5723C293.071 83.224 294.751 83.9022 295.97 84.5787C296.58 84.9171 297.065 85.2495 297.416 85.5706C297.77 85.8946 297.965 86.1864 298.036 86.4394C298.25 87.2069 298.136 88.0911 297.735 89.0882C297.333 90.085 296.654 91.1666 295.78 92.309C294.031 94.5952 291.547 97.0667 289.077 99.5229L289.054 99.5454C286.288 102.296 283.534 105.035 281.942 107.422C280.83 109.09 279.963 111.174 279.298 113.41L279.143 113.934L279.68 113.838C280.967 113.608 283.492 113.629 286.831 113.894C290.157 114.158 294.256 114.662 298.67 115.382C304.12 116.271 309.008 117.319 312.505 118.295C314.255 118.784 315.645 119.251 316.58 119.666C317.05 119.875 317.387 120.063 317.596 120.224C317.7 120.305 317.757 120.367 317.784 120.409C317.784 120.409 317.784 120.409 317.785 120.41L317.344 120.86L317.991 120.961L318.17 120.989L317.657 124.294C317.566 124.88 317.109 125.318 316.536 125.361C313.994 125.552 307.54 125.779 297.856 124.355C288.009 122.907 281.259 120.502 278.697 119.483C278.621 119.452 278.55 119.415 278.484 119.373L278.043 119.088L277.968 119.607C277.521 122.67 277.361 125.634 277.407 127.922C277.445 129.773 277.807 132.109 278.248 134.146C278.468 135.167 278.709 136.117 278.941 136.901C279.17 137.678 279.396 138.311 279.591 138.684L279.659 138.814L279.8 138.853C281.785 139.397 283.392 139.93 284.507 140.415C285.066 140.658 285.487 140.883 285.767 141.083C285.907 141.183 286.002 141.27 286.06 141.341C286.12 141.413 286.125 141.449 286.125 141.452ZM247.261 135.114C247.261 135.114 247.261 135.113 247.261 135.112L247.261 135.114Z" fill="#C4C4C4" stroke="black" stroke-width="0.673831"/>
    </mask>
    <g mask="url(#mask0_765_92123)">
      <rect x="318.099" y="289.929" width="135.807" height="226.497" rx="0.911458" transform="rotate(-180 318.099 289.929)" fill="url(#paint0_linear_765_92123)"/>
      <g opacity="0.5">
        <g style="mix-blend-mode:overlay" opacity="0.5">
          <path d="M237.346 124.824C220.005 113.077 261.592 91.5977 275.832 90.1865H228.879C214.717 91.726 210.663 98.7817 210.406 102.117V130.212C214.383 135.6 222.475 146.24 247.738 152.918C281.22 161.77 321.601 144.574 307.775 124.824C296.999 109.429 261.208 140.988 237.346 124.824Z" fill="white"/>
        </g>
        <g style="mix-blend-mode:overlay" opacity="0.5">
          <path fill-rule="evenodd" clip-rule="evenodd" d="M291.996 94.4199C280.707 96.8574 259.976 102.887 267.365 107.505C270.746 109.618 277.84 109.617 286.174 109.616C300.607 109.614 318.761 109.611 327.788 120.59C342.398 138.36 330.867 166.388 295.46 177.549C294.966 177.705 294.47 177.861 293.971 178.019C258.664 189.143 210.07 204.454 238.501 219.114C247.289 223.645 257.057 220.338 267.157 216.918C285.367 210.753 304.66 204.221 321.245 242.59H352.034C330.097 227.966 332.136 199.493 346.261   192.559C362.398 184.637 360.492 169.185 359.13 158.139C358.705 154.695 358.333 151.68 358.577 149.455V94.4199H291.996ZM321.245 181.398C316.011 189.711 296.999 194.355 288.148 195.638C280.835 204.489 298.539 200.641 301.233 198.332C303.927 196.023 309.315 201.411 310.854 208.723C312.394 216.035 325.479 214.881 324.709 208.723C323.939 202.565 323.939 195.638 332.791 188.71C341.643 181.783 327.788 171.007 321.245 181.398Z" fill="white"/>
        </g>
        <g style="mix-blend-mode:overlay" opacity="0.5">
          <path d="M241.58 167.928C257.744 167.928 256.974 181.013 241.58 183.707C226.574 186.333 211.933 190.422 211.561 198.469V199.101C211.551 198.888 211.551 198.677 211.561 198.469V159.07C217.772 162.583 230.005 167.928 241.58 167.928Z" fill="white"/>
        </g>
      </g>
      <g opacity="0.6">
        <circle cx="231.232" cy="194.507" r="1.16688" fill="white"/>
        <circle cx="296.707" cy="274.818" r="1.16688" transform="rotate(75 296.707 274.818)" fill="white"/>
        <circle cx="225.164" cy="155.922" r="1.16688" fill="white"/>
        <circle cx="233.852" cy="177.882" r="1.16688" transform="rotate(75 233.852 177.882)" fill="white"/>
        <circle cx="234.763" cy="242.611" r="1.16688" transform="rotate(75 234.763 242.611)" fill="white"/>
        <circle cx="240.947" cy="226.619" r="1.16688" transform="rotate(75 240.947 226.619)" fill="white"/>
        <circle cx="219.097" cy="250.984" r="1.16688" fill="white"/>
        <circle cx="226.298" cy="268.31" r="1.16688" fill="white"/>
        <circle cx="239.014" cy="277.713" r="1.16688" transform="rotate(75 239.014 277.713)" fill="white"/>
        <circle cx="283.813" cy="219.482" r="1.16688" transform="rotate(75 283.813 219.482)" fill="white"/>
        <circle cx="236.324" cy="117.463" r="1.16688" fill="white"/>
        <circle cx="248.173" cy="87.3851" r="1.16688" fill="white"/>
        <circle cx="300.581" cy="85.1066" r="1.16688" fill="white"/>
        <circle cx="302.86" cy="117.008" r="1.16688" fill="white"/>
        <circle cx="257.287" cy="147.997" r="1.16688" fill="white"/>
        <circle cx="290.099" cy="147.997" r="1.16688" fill="white"/>
        <circle cx="274.604" cy="172.607" r="1.16688" fill="white"/>
        <circle cx="252.826" cy="188.106" r="1.16688" transform="rotate(75 252.826 188.106)" fill="white"/>
        <circle cx="311.781" cy="283.155" r="1.16688" transform="rotate(75 311.781 283.155)" fill="white"/>
        <circle cx="260.739" cy="285.89" r="1.16688" transform="rotate(75 260.739 285.89)" fill="white"/>
        <circle cx="259.827" cy="260.369" r="1.16688" transform="rotate(75 259.827 260.369)" fill="white"/>
        <circle cx="249.621" cy="206.199" r="1.16688" transform="rotate(75 249.621 206.199)" fill="white"/>
        <circle cx="268.572" cy="206.487" r="1.16688" fill="white"/>
        <circle cx="297.823" cy="263.622" r="1.16688" transform="rotate(165 297.823 263.622)" fill="white"/>
        <circle cx="246.635" cy="249.117" r="1.16688" fill="white"/>
        <circle cx="300.211" cy="248.486" r="1.16688" transform="rotate(165 300.211 248.486)" fill="white"/>
        <circle cx="272.461" cy="234.803" r="1.16688" fill="white"/>
        <circle cx="278.968" cy="268.996" r="1.16688" transform="rotate(165 278.968 268.996)" fill="white"/>
        <path d="M255.6 239.72L255.18 238.585L254.045 238.165L255.18 237.744L255.6 236.609L256.021 237.744L257.156 238.165L256.021 238.585L255.6 239.72Z" fill="#FFF7B0"/>
        <path d="M220.51 144.473L220.089 143.338L218.954 142.917L220.089 142.497L220.51 141.361L220.93 142.497L222.065 142.917L220.93 143.338L220.51 144.473Z" fill="#FFF7B0"/>
        <path d="M257.934 278.15L257.514 277.014L256.379 276.594L257.514 276.174L257.934 275.038L258.355 276.174L259.49 276.594L258.355 277.014L257.934 278.15Z" fill="#FFF7B0"/>
        <path d="M222.843 182.902L222.422 181.767L221.287 181.347L222.422 180.926L222.843 179.791L223.263 180.926L224.398 181.347L223.263 181.767L222.843 182.902Z" fill="#FFF7B0"/>
        <path d="M220.51 221.332L220.089 220.196L218.954 219.776L220.089 219.355L220.51 218.22L220.93 219.355L222.065 219.776L220.93 220.196L220.51 221.332Z" fill="#FFF7B0"/>
        <path d="M257.932 222.914L257.196 220.926L255.209 220.191L257.196 219.455L257.932 217.468L258.667 219.455L260.654 220.191L258.667 220.926L257.932 222.914Z" fill="#FFF7B0"/>
        <path d="M265.223 119.919L264.487 117.932L262.5 117.196L264.487 116.461L265.223 114.474L265.958 116.461L267.945 117.196L265.958 117.932L265.223 119.919Z" fill="#FFF7B0"/>
        <path d="M281.641 102.169L280.041 97.8444L275.716 96.2442L280.041 94.6441L281.641 90.3197L283.241 94.6441L287.565 96.2442L283.241 97.8444L281.641 102.169Z" fill="#FFF7B0"/>
      </g>
    </g>
    <g filter="url(#filter0_d_765_92123)">
      <mask id="mask1_765_92123" style="mask-type:alpha" maskUnits="userSpaceOnUse" x="112" y="212" width="128" height="104">
        <path d="M205.982 315.45H176.558H145.384C122.516 315.45 108.299 292.998 113.716 269.712L115.606 261.585L125.527 212.455C136.098 221.295 153.514 225.872 176.558 225.872C199.603 225.872 211.686 220.431 224.674 212.455L235.757 261.585L237.648 269.703C243.071 292.991 228.853 315.45 205.982 315.45Z" fill="url(#paint1_radial_765_92123)" stroke="black" stroke-width="0.455729"/>
      </mask>
      <g mask="url(#mask1_765_92123)">
        <rect x="241.081" y="315.45" width="133.529" height="111.654" rx="0.911458" transform="rotate(-180 241.081 315.45)" fill="url(#paint2_linear_765_92123)"/>
        <g opacity="0.5">
          <g style="mix-blend-mode:overlay" opacity="0.5">
            <path d="M141.263 210.18C115.614 192.805 177.124 161.037 198.185 158.949H128.74C107.792 161.226 101.796 171.662 101.417 176.595V218.149C107.299 226.118 119.267 241.855 156.632 251.733C206.154 264.825 265.879 239.391 245.431 210.18C229.492 187.411 176.555 234.087 141.263 210.18Z" fill="white"/>
          </g>
          <g style="mix-blend-mode:overlay" opacity="0.5">
            <path fill-rule="evenodd" clip-rule="evenodd" d="M222.093 165.211C205.395 168.816 174.733 177.734 185.662 184.565C190.663 187.69 201.155 187.688 213.481 187.686C234.829 187.683 261.678 187.679 275.03 203.918C296.64 230.2 279.584 271.656 227.216 288.163C226.486 288.393 225.751 288.625 225.013 288.857C172.792 305.311 100.92 327.957 142.971 349.639C155.968 356.341 170.415 351.45 185.355 346.392C212.288 337.272 240.823 327.611 265.354 384.362H310.892C278.446 362.732 281.461 320.619 302.353 310.363C326.22 298.646 323.401 275.792 321.386 259.454C320.758 254.361 320.208 249.902 320.568 246.61V165.211H222.093ZM265.354 293.855C257.612 306.151 229.493 313.019 216.4 314.917C205.585 328.009 231.769 322.317 235.754 318.901C239.739 315.486 247.708 323.455 249.985 334.27C252.261 345.086 271.615 343.378 270.477 334.27C269.338 325.163 269.338 314.917 282.43 304.671C295.522 294.425 275.03 278.486 265.354 293.855Z" fill="white"/>
          </g>
          <g style="mix-blend-mode:overlay" opacity="0.5">
            <path d="M147.524 273.933C171.431 273.933 170.293 293.286 147.524 297.271C125.329 301.155 103.675 307.203 103.124 319.105V320.04C103.11 319.724 103.11 319.412 103.124 319.105V260.831C112.311 266.027 130.404 273.933 147.524 273.933Z" fill="white"/>
          </g>
        </g>
        <g style="mix-blend-mode:overlay">
          <circle cx="116.122" cy="256.294" r="1.6042" fill="white"/>
          <circle cx="119.723" cy="233.438" r="1.6042" transform="rotate(75 119.723 233.438)" fill="white"/>
          <circle cx="141.404" cy="272.369" r="1.6042" transform="rotate(75 141.404 272.369)" fill="white"/>
          <circle cx="167.457" cy="272.764" r="1.6042" fill="white"/>
          <circle cx="211.24" cy="266.924" r="1.6042" fill="white"/>
          <path d="M152.828 295.347L151.817 292.615L149.085 291.604L151.817 290.593L152.828 287.861L153.839 290.593L156.571 291.604L153.839 292.615L152.828 295.347Z" fill="#FFF7B0"/>
          <path d="M130.759 249.252L129.748 246.52L127.016 245.509L129.748 244.498L130.759 241.765L131.77 244.498L134.502 245.509L131.77 246.52L130.759 249.252Z" fill="#FFF7B0"/>
          <path d="M151.73 265.431L150.719 262.699L147.986 261.688L150.719 260.677L151.73 257.945L152.741 260.677L155.473 261.688L152.741 262.699L151.73 265.431Z" fill="#FFF7B0"/>
          <path opacity="0.25" d="M123.972 289.162L120.891 280.837L112.565 277.756L120.891 274.675L123.972 266.35L127.052 274.675L135.378 277.756L127.052 280.837L123.972 289.162Z" fill="#FFF7B0"/>
          <path opacity="0.25" d="M190.053 265.802L186.972 257.476L178.646 254.396L186.972 251.315L190.053 242.989L193.133 251.315L201.459 254.396L193.133 257.476L190.053 265.802Z" fill="#FFF7B0"/>
          <path opacity="0.25" d="M163.594 248.94L160.513 240.614L152.187 237.534L160.513 234.453L163.594 226.127L166.674 234.453L175 237.534L166.674 240.614L163.594 248.94Z" fill="#FFF7B0"/>
          <path opacity="0.25" d="M224.232 248.94L221.152 240.614L212.826 237.534L221.152 234.453L224.232 226.127L227.313 234.453L235.639 237.534L227.313 240.614L224.232 248.94Z" fill="#FFF7B0"/>
          <path d="M197.885 235.892L196.874 233.16L194.142 232.149L196.874 231.138L197.885 228.406L198.896 231.138L201.628 232.149L198.896 233.16L197.885 235.892Z" fill="#FFF7B0"/>
          <path d="M145.019 233.614L144.008 230.881L141.275 229.87L144.008 228.859L145.019 226.127L146.03 228.859L148.762 229.87L146.03 230.881L145.019 233.614Z" fill="#FFF7B0"/>
        </g>
      </g>
    </g>
    <path d="M183.756 301.062L182.745 298.329L180.013 297.318L182.745 296.307L183.756 293.575L184.767 296.307L187.499 297.318L184.767 298.329L183.756 301.062Z" fill="#FFF7B0"/>
    <path d="M221.581 286.022L220.57 283.29L217.838 282.279L220.57 281.268L221.581 278.536L222.592 281.268L225.324 282.279L222.592 283.29L221.581 286.022Z" fill="#FFF7B0"/>
    <path opacity="0.25" d="M235.625 282.208L232.544 273.883L224.218 270.802L232.544 267.721L235.625 259.396L238.706 267.721L247.031 270.802L238.706 273.883L235.625 282.208Z" fill="#FFF7B0"/>
    <circle cx="131.392" cy="291.438" r="1.6042" transform="rotate(75 131.392 291.438)" fill="white"/>
    <circle cx="186.175" cy="278.317" r="1.6042" fill="white"/>
    <circle cx="161.565" cy="299.737" r="1.6042" fill="white"/>
    <path opacity="0.25" d="M212.839 309.552L209.758 301.226L201.432 298.146L209.758 295.065L212.839 286.739L215.919 295.065L224.245 298.146L215.919 301.226L212.839 309.552Z" fill="#FFF7B0"/>
    <mask id="mask2_765_92123" style="mask-type:alpha" maskUnits="userSpaceOnUse" x="148" y="49" width="54" height="54">
      <path d="M148.567 49.76H201.432V95.3329C201.432 95.3329 195.507 102.442 175 102.442C154.492 102.442 148.567 95.3329 148.567 95.3329V49.76Z" fill="url(#paint3_radial_765_92123)"/>
    </mask>
    <g mask="url(#mask2_765_92123)">
      <rect x="208.268" y="103.536" width="65.625" height="65.625" rx="0.911458" transform="rotate(-180 208.268 103.536)" fill="url(#paint4_linear_765_92123)"/>
      <g opacity="0.5">
        <g style="mix-blend-mode:overlay" opacity="0.5">
          <path d="M119.883 98.3183C94.2345 80.9437 155.744 49.1753 176.805 47.0881H107.36C86.4124 49.365 80.4166 59.8008 80.0371 64.7341V106.287C85.9191 114.257 97.8869 129.994 135.252 139.872C184.774 152.964 244.499 127.53 224.051 98.3183C208.112 75.5493 155.175 122.226 119.883 98.3183Z" fill="white"/>
        </g>
        <g style="mix-blend-mode:overlay" opacity="0.5">
          <path fill-rule="evenodd" clip-rule="evenodd" d="M200.713 53.3496C184.015 56.9547 153.353 65.8725 164.282 72.7032C169.283 75.8286 179.775 75.827 192.101 75.8251C213.449 75.8219 240.298 75.8179 253.651 92.0568C275.26 118.339 258.204 159.794 205.836 176.302C205.106 176.532 204.372 176.763 203.633 176.996C151.412 193.45 79.5398 216.096 121.591 237.778C134.588 244.48 149.035 239.589 163.975 234.53C190.908 225.411 219.443 215.75 243.974 272.501H289.512C257.066 250.87 260.082 208.758 280.973 198.502C304.84 186.785 302.021 163.931 300.006 147.593C299.378 142.5 298.828 138.04 299.188 134.749V53.3496H200.713ZM243.974 181.994C236.232 194.289 208.113 201.158 195.02 203.055C184.205 216.148 210.39 210.455 214.374 207.04C218.359 203.625 226.328 211.594 228.605 222.409C230.882 233.224 250.235 231.517 249.097 222.409C247.958 213.301 247.958 203.055 261.05 192.809C274.143 182.563 253.651 166.625 243.974 181.994Z" fill="white"/>
        </g>
      </g>
      <g opacity="0.6">
        <circle cx="160.195" cy="56.6688" r="1.16688" fill="white"/>
        <circle cx="169.909" cy="88.7804" r="1.16688" transform="rotate(75 169.909 88.7804)" fill="white"/>
        <circle cx="181.789" cy="50.2677" r="1.16688" transform="rotate(75 181.789 50.2677)" fill="white"/>
        <circle cx="178.583" cy="68.3613" r="1.16688" transform="rotate(75 178.583 68.3613)" fill="white"/>
        <circle cx="197.534" cy="68.6488" r="1.16688" fill="white"/>
        <circle cx="201.424" cy="96.965" r="1.16688" fill="white"/>
        <path d="M184.563 101.882L184.143 100.747L183.007 100.326L184.143 99.9063L184.563 98.7707L184.984 99.9063L186.119 100.326L184.984 100.747L184.563 101.882Z" fill="#FFF7B0"/>
        <path d="M149.472 83.4937L149.052 82.358L147.917 81.9378L149.052 81.5176L149.472 80.382L149.893 81.5176L151.028 81.9378L149.893 82.358L149.472 83.4937Z" fill="#FFF7B0"/>
        <path d="M186.894 85.0754L186.159 83.0881L184.172 82.3527L186.159 81.6173L186.894 79.63L187.63 81.6173L189.617 82.3527L187.63 83.0881L186.894 85.0754Z" fill="#FFF7B0"/>
      </g>
    </g>
    <ellipse cx="275.03" cy="85.2992" rx="20.0253" ry="3.1901" transform="rotate(9.26455 275.03 85.2992)" fill="white" fill-opacity="0.45"/>
    <mask id="mask3_765_92123" style="mask-type:alpha" maskUnits="userSpaceOnUse" x="143" y="40" width="64" height="10">
      <rect x="143.555" y="40.6455" width="62.8906" height="9.11458" rx="2.27865" fill="#C4C4C4"/>
    </mask>
    <g mask="url(#mask3_765_92123)">
      <rect x="205.534" y="55.6846" width="63.8021" height="28.2552" rx="0.911458" transform="rotate(-180 205.534 55.6846)" fill="url(#paint5_linear_765_92123)"/>
      <g opacity="0.5">
        <g style="mix-blend-mode:overlay" opacity="0.5">
          <path fill-rule="evenodd" clip-rule="evenodd" d="M256.312 -86.959C239.615 -83.3539 208.953 -74.4361 219.882 -67.6054C224.883 -64.48 235.374 -64.4816 247.7 -64.4835C269.048 -64.4867 295.898 -64.4907 309.25 -48.2518C330.86 -21.9699 313.804 19.4858 261.435 35.9933C260.705 36.2234 259.971 36.4548 259.233 36.6874C207.012 53.1412 135.139 75.787 177.19 97.4695C190.188 104.171 204.635 99.28 219.574 94.2217C246.508 85.1026 275.042 75.4413 299.573 132.192H345.111C312.666 110.562 315.681 68.449 336.573 58.193C360.44 46.4764 357.621 23.6221 355.606 7.2843C354.977 2.19137 354.427 -2.26833 354.788 -5.56V-86.959H256.312ZM299.573 41.6856C291.832 53.9808 263.712 60.8494 250.62 62.7468C239.805 75.839 265.989 70.1467 269.974 66.7314C273.958 63.3161 281.927 71.2852 284.204 82.1004C286.481 92.9157 305.835 91.208 304.696 82.1004C303.558 72.9929 303.558 62.7468 316.65 52.5008C329.742 42.2548 309.25 26.3165 299.573 41.6856Z" fill="white"/>
        </g>
        <g style="mix-blend-mode:overlay" opacity="0.5">
          <path d="M181.744 21.7627C205.651 21.7627 204.513 41.1163 181.744 45.1009C159.549 48.985 137.894 55.0327 137.344 66.9347V67.8698C137.33 67.5542 137.33 67.2425 137.344 66.9347V8.6607C146.53 13.8571 164.623 21.7627 181.744 21.7627Z" fill="white"/>
        </g>
      </g>
      <g opacity="0.6">
        <path d="M160.008 47.7622L159.272 45.7749L157.285 45.0395L159.272 44.3041L160.008 42.3168L160.743 44.3041L162.73 45.0395L160.743 45.7749L160.008 47.7622Z" fill="#FFF7B0"/>
      </g>
    </g>
    <path d="M243.548 195.64C239.377 195.64 235.178 195.64 231.093 195.64M243.548 195.64H231.093M243.548 195.64C247.72 195.64 249.049 195.93 249.852 196.375C250.151 202.463 251.03 208.445 252.474 212.455C256.576 223.849 264.323 233.875 258.399 246.179C253.659 256.023 243.056 262.586 236.068 264.864M231.093 195.64C227.008 195.64 223.042 201.199 223.46 204.708L219.206 183.71C221.16 184.353 222.7 185.64 227.706 185.64M227.706 185.64C232.712 185.64 241.089 185.64 244.653 185.64M227.706 185.64H244.653M244.653 185.64C245.883 185.557 248.356 185.17 250.066 184.253C250.325 181.524 250.737 179.101 251.306 177.231M318.099 120.707L317.535 124.345C317.421 125.077 316.844 125.642 316.106 125.697C313.541 125.89 307.517 126.117 297.807 124.689C287.93 123.236 280.874 120.742 278.292 119.715M238.119 286.511C249.512 282.106 271.096 271.7 277.084 258.484C284.93 241.166 280.274 229.773 272.071 209.265C266.506 195.354 267.757 185.375 269.933 180.439M246.99 135.221L246.428 138.841C246.313 139.581 246.245 140.302 246.94 140.579C247.769 140.909 249.03 141.381 250.687 141.919M286.468 141.491L285.903 145.129C285.789 145.86 285.668 146.425 284.93 146.48C284.003 146.55 282.563 146.624 280.644 146.623M269.933 180.439C272.032 180.408 273.195 180.168 273.799 179.974C274.187 179.849 274.416 179.501 274.492 179.1L280.644 146.623M269.933 180.439C267.934 180.468 265.087 180.307 261.066 179.737C256.49 179.087 253.382 178.133 251.306 177.231M251.306 177.231C249.412 176.408 248.376 175.627 247.866 175.159C247.573 174.889 247.466 174.493 247.506 174.097L250.687 141.919M280.644 146.623C277.256 146.621 272.374 146.383 266.175 145.472C259.469 144.486 254.192 143.057 250.687 141.919M254.953 134.373C254.623 134.601 254.335 134.679 254.111 134.62C260.48 137.637 271.878 139.648 280.091 138.81C279.476 138.363 277.825 131.938 277.744 127.916C277.673 124.393 278.095 119.243 279.311 114.616C279.409 114.242 279.512 113.872 279.621 113.506M254.953 134.373C256.193 133.52 258.015 130.558 259.14 124.8C260.564 117.508 261.392 111.356 260.222 105.204C259.488 101.349 249.512 84.6958 253.158 79.455C256.804 74.2141 296.85 80.9379 298.36 86.3488C299.87 91.7597 286.58 101.072 282.223 107.609C281.136 109.239 280.28 111.289 279.621 113.506M254.953 134.373C250.193 134.056 247.058 134.265 246.93 135.054C246.709 136.405 255.379 138.943 266.295 140.724C277.21 142.504 286.237 142.853 286.458 141.502C286.578 140.766 284.059 139.678 279.976 138.552M279.621 113.506C282.29 113.029 289.882 113.607 298.725 115.049C309.64 116.83 318.329 119.254 318.131 120.465C317.934 121.675 308.925 121.213 298.01 119.433C288.882 117.944 281.312 116.005 279.192 114.701M294.938 88.5956C294.655 90.3345 285.576 90.3007 274.661 88.5202C263.745 86.7396 255.127 83.8866 255.41 82.1477C255.694 80.4089 264.773 80.4427 275.688 82.2232C286.603 84.0037 295.222 86.8567 294.938 88.5956Z" stroke="black" stroke-width="0.911458"/>
    <path d="M225.13 212.455C225.13 212.455 206.617 226.127 175.228 226.127C143.838 226.127 125.325 212.455 125.325 212.455" stroke="black" stroke-width="0.911458"/>
    <path d="M201.432 95.333C201.432 95.333 192.773 102.169 175 102.169C157.226 102.169 148.567 95.333 148.567 95.333" stroke="black" stroke-width="0.911458"/>
    <g filter="url(#filter1_b_765_92123)">
      <mask id="path-92-inside-1_765_92123" fill="white">
        <path fill-rule="evenodd" clip-rule="evenodd" d="M147.107 50.1732C145.345 50.1732 143.917 48.7449 143.917 46.9831V43.3798C143.917 41.618 145.345 40.1897 147.107 40.1897H203.712C205.473 40.1897 206.902 41.618 206.902 43.3798V46.9831C206.902 48.7449 205.473 50.1732 203.712 50.1732H203.084C202.424 50.1732 201.888 50.7086 201.888 51.3691V96.9687C201.888 97.0476 201.896 97.1263 201.912 97.2036L213.059 152.835L225.178 211.109C225.184 211.139 225.22 211.152 225.244 211.132V211.132C225.267 211.112 225.303 211.124 225.31 211.154L236.173 260.87L237.619 268.133C243.059 291.731 229.704 315.906 206.761 315.906H176.334H144.151C121.211 315.906 108.312 291.738 113.746 268.142L115.192 260.87L125.13 211.156C125.136 211.125 125.173 211.113 125.197 211.133V211.133C125.22 211.153 125.257 211.14 125.263 211.109L148.818 93.5596C148.827 93.5179 148.837 93.4771 148.85 93.4373C148.925 93.196 149.024 92.9551 149.024 92.7023V51.3691C149.024 50.7086 148.488 50.1732 147.828 50.1732H147.107Z"/>
      </mask>
      <path d="M213.06 152.835L212.166 153.014L212.167 153.021L213.06 152.835ZM236.173 260.87L237.067 260.692L237.065 260.684L237.064 260.676L236.173 260.87ZM237.619 268.133L236.725 268.311L236.728 268.324L236.731 268.338L237.619 268.133ZM113.746 268.142L114.634 268.347L114.637 268.334L114.64 268.32L113.746 268.142ZM115.192 260.87L114.298 260.692L114.298 260.693L115.192 260.87ZM148.819 93.5596L147.925 93.3805L147.925 93.3805L148.819 93.5596ZM125.263 211.109L126.157 211.289L125.263 211.109ZM201.912 97.2036L201.018 97.3827L201.912 97.2036ZM125.13 211.156L124.237 210.977L125.13 211.156ZM148.85 93.4373L147.98 93.1657L148.85 93.4373ZM225.31 211.154L226.2 210.96L225.31 211.154ZM225.178 211.109L226.07 210.923L225.178 211.109ZM143.005 46.9831C143.005 49.2483 144.842 51.0846 147.107 51.0846V49.2617C145.849 49.2617 144.828 48.2415 144.828 46.9831H143.005ZM143.005 43.3798V46.9831H144.828V43.3798H143.005ZM147.107 39.2782C144.842 39.2782 143.005 41.1146 143.005 43.3798H144.828C144.828 42.1213 145.849 41.1012 147.107 41.1012V39.2782ZM203.712 39.2782H147.107V41.1012H203.712V39.2782ZM207.813 43.3798C207.813 41.1146 205.977 39.2782 203.712 39.2782V41.1012C204.97 41.1012 205.99 42.1213 205.99 43.3798H207.813ZM207.813 46.9831V43.3798H205.99V46.9831H207.813ZM203.712 51.0846C205.977 51.0846 207.813 49.2483 207.813 46.9831H205.99C205.99 48.2415 204.97 49.2617 203.712 49.2617V51.0846ZM203.084 51.0846H203.712V49.2617H203.084V51.0846ZM202.8 96.9687V51.369H200.977V96.9687H202.8ZM213.953 152.656L202.805 97.0245L201.018 97.3827L212.166 153.014L213.953 152.656ZM226.07 210.923L213.952 152.649L212.167 153.021L224.285 211.294L226.07 210.923ZM237.064 260.676L226.2 210.96L224.42 211.349L235.283 261.065L237.064 260.676ZM238.513 267.955L237.067 260.692L235.279 261.048L236.725 268.311L238.513 267.955ZM206.761 316.818C218.59 316.818 227.94 310.572 233.61 301.346C239.27 292.135 241.277 279.945 238.507 267.928L236.731 268.338C239.401 279.919 237.45 291.615 232.057 300.392C226.673 309.152 217.874 314.995 206.761 314.995V316.818ZM176.334 316.818H206.761V314.995H176.334V316.818ZM144.151 316.818H176.334V314.995H144.151V316.818ZM112.858 267.938C110.092 279.946 111.983 292.132 117.528 301.343C123.083 310.571 132.321 316.818 144.151 316.818V314.995C133.042 314.995 124.36 309.157 119.089 300.403C113.808 291.63 111.966 279.934 114.634 268.347L112.858 267.938ZM114.298 260.693L112.852 267.965L114.64 268.32L116.086 261.048L114.298 260.693ZM124.237 210.977L114.298 260.692L116.086 261.049L126.024 211.335L124.237 210.977ZM147.925 93.3805L124.369 210.93L126.157 211.289L149.712 93.7387L147.925 93.3805ZM147.98 93.1657C147.958 93.2358 147.94 93.3075 147.925 93.3805L149.712 93.7387C149.714 93.7284 149.717 93.7185 149.72 93.709L147.98 93.1657ZM148.112 51.369V92.7023H149.935V51.369H148.112ZM147.107 51.0846H147.828V49.2617H147.107V51.0846ZM149.935 51.369C149.935 50.2052 148.992 49.2617 147.828 49.2617V51.0846C147.985 51.0846 148.112 51.212 148.112 51.369H149.935ZM124.61 211.83C125.164 212.296 126.014 211.998 126.157 211.289L124.369 210.93C124.499 210.281 125.277 210.009 125.784 210.435L124.61 211.83ZM200.977 96.9687C200.977 97.1077 200.991 97.2464 201.018 97.3827L202.805 97.0245C202.802 97.0061 202.8 96.9874 202.8 96.9687H200.977ZM126.024 211.335C125.894 211.984 125.116 212.256 124.61 211.83L125.784 210.435C125.23 209.969 124.379 210.267 124.237 210.977L126.024 211.335ZM149.72 93.709C149.761 93.5776 149.935 93.1367 149.935 92.7023H148.112C148.112 92.7125 148.11 92.7466 148.087 92.8289C148.076 92.8696 148.062 92.9145 148.043 92.9721C148.026 93.0238 148.001 93.097 147.98 93.1657L149.72 93.709ZM225.831 211.829C225.329 212.251 224.559 211.989 224.42 211.349L226.2 210.96C226.048 210.26 225.206 209.973 224.657 210.434L225.831 211.829ZM224.285 211.294C224.432 212 225.279 212.293 225.831 211.829L224.657 210.434C225.162 210.01 225.936 210.278 226.07 210.923L224.285 211.294ZM203.084 49.2617C201.92 49.2617 200.977 50.2052 200.977 51.369H202.8C202.8 51.212 202.927 51.0846 203.084 51.0846V49.2617Z" fill="black" mask="url(#path-92-inside-1_765_92123)"/>
    </g>
    <defs>
      <filter id="filter0_d_765_92123" x="110.059" y="212.035" width="132.159" height="109.112" filterUnits="userSpaceOnUse" color-interpolation-filters="sRGB">
        <feFlood flood-opacity="0" result="BackgroundImageFix"/>
        <feColorMatrix in="SourceAlpha" type="matrix" values="0 0 0 0 0 0 0 0 0 0 0 0 0 0 0 0 0 0 127 0" result="hardAlpha"/>
        <feOffset dx="0.455729" dy="2.73438"/>
        <feGaussianBlur stdDeviation="1.36719"/>
        <feComposite in2="hardAlpha" operator="out"/>
        <feColorMatrix type="matrix" values="0 0 0 0 0 0 0 0 0 0 0 0 0 0 0 0 0 0 0.25 0"/>
        <feBlend mode="normal" in2="BackgroundImageFix" result="effect1_dropShadow_765_92123"/>
        <feBlend mode="normal" in="SourceGraphic" in2="effect1_dropShadow_765_92123" result="shape"/>
      </filter>
      <filter id="filter1_b_765_92123" x="98.1595" y="25.8394" width="155.02" height="304.417" filterUnits="userSpaceOnUse" color-interpolation-filters="sRGB">
        <feFlood flood-opacity="0" result="BackgroundImageFix"/>
        <feGaussianBlur in="BackgroundImage" stdDeviation="7.17515"/>
        <feComposite in2="SourceAlpha" operator="in" result="effect1_backgroundBlur_765_92123"/>
        <feBlend mode="normal" in="SourceGraphic" in2="effect1_backgroundBlur_765_92123" result="shape"/>
      </filter>
      <linearGradient id="paint0_linear_765_92123" x1="338.136" y1="314.336" x2="446.504" y2="489.702" gradientUnits="userSpaceOnUse">
        <stop offset="0.00712166" stop-color="#6A9EE2"/>
        <stop offset="0.282888" stop-color="#4883C2" stop-opacity="0.98"/>
        <stop offset="0.635608" stop-color="#9CCBF4" stop-opacity="0.98"/>
        <stop offset="1" stop-color="#E8F3FC" stop-opacity="0.98"/>
      </linearGradient>
      <radialGradient id="paint1_radial_765_92123" cx="0" cy="0" r="1" gradientUnits="userSpaceOnUse" gradientTransform="translate(231.778 201.518) rotate(136.943) scale(153.528 198.077)">
        <stop stop-color="#FF0000"/>
        <stop offset="0.530354" stop-color="#FFE925"/>
        <stop offset="1" stop-color="#289B04"/>
      </radialGradient>
      <linearGradient id="paint2_linear_765_92123" x1="260.782" y1="327.482" x2="294.552" y2="436.479" gradientUnits="userSpaceOnUse">
        <stop offset="0.00712166" stop-color="#6A9EE2"/>
        <stop offset="0.282888" stop-color="#4883C2" stop-opacity="0.98"/>
        <stop offset="0.635608" stop-color="#9CCBF4" stop-opacity="0.98"/>
        <stop offset="1" stop-color="#E8F3FC" stop-opacity="0.98"/>
      </linearGradient>
      <radialGradient id="paint3_radial_765_92123" cx="0" cy="0" r="1" gradientUnits="userSpaceOnUse" gradientTransform="translate(198.491 44.4364) rotate(132.639) scale(69.3519 89.3771)">
        <stop stop-color="#FF0000"/>
        <stop offset="0.530354" stop-color="#FFE925"/>
        <stop offset="1" stop-color="#6DF244"/>
      </radialGradient>
      <linearGradient id="paint4_linear_765_92123" x1="217.95" y1="110.608" x2="240.825" y2="172.345" gradientUnits="userSpaceOnUse">
        <stop offset="0.00712166" stop-color="#6A9EE2"/>
        <stop offset="0.282888" stop-color="#4883C2" stop-opacity="0.98"/>
        <stop offset="0.635608" stop-color="#9CCBF4" stop-opacity="0.98"/>
        <stop offset="1" stop-color="#E8F3FC" stop-opacity="0.98"/>
      </linearGradient>
      <linearGradient id="paint5_linear_765_92123" x1="214.948" y1="58.7293" x2="219.778" y2="88.1672" gradientUnits="userSpaceOnUse">
        <stop offset="0.00712166" stop-color="#6A9EE2"/>
        <stop offset="0.282888" stop-color="#4883C2" stop-opacity="0.98"/>
        <stop offset="0.635608" stop-color="#9CCBF4" stop-opacity="0.98"/>
        <stop offset="1" stop-color="#E8F3FC" stop-opacity="0.98"/>
      </linearGradient>
    </defs>
  
        </svg>
      