
        <svg width="350" height="350" viewBox="0 0 350 350" fill="none" xmlns="http://www.w3.org/2000/svg">
        
  <g clip-path="url(#clip0_28_290)">
  <rect x="0.0789795" y="0.0444336" width="350" height="350" fill="black" fill-opacity="0.89"/>
  <rect x="0.0789795" y="0.0444336" width="350" height="350" fill="url(#paint0_radial_28_290)" fill-opacity="0.2"/>
  <path d="M125.979 290.538L299.832 190.751L430.987 233.879L230.789 294.049L125.979 290.538Z" fill="url(#paint1_linear_28_290)"/>
  <g opacity="0.45" filter="url(#filter0_f_28_290)">
  <ellipse rx="194.596" ry="66.7643" transform="matrix(0.999998 0.00221055 0.00221055 -0.999998 176.078 304.637)" fill="url(#paint2_radial_28_290)"/>
  </g>
  <g opacity="0.7" filter="url(#filter1_f_28_290)">
  <ellipse cx="174.396" cy="137.609" rx="196.647" ry="242.448" transform="rotate(0.126655 174.396 137.609)" fill="url(#paint3_radial_28_290)"/>
  </g>
  </g>
  <defs>
  <filter id="filter0_f_28_290" x="-23.0754" y="233.314" width="398.306" height="142.646" filterUnits="userSpaceOnUse" color-interpolation-filters="sRGB">
  <feFlood flood-opacity="0" result="BackgroundImageFix"/>
  <feBlend mode="normal" in="SourceGraphic" in2="BackgroundImageFix" result="shape"/>
  <feGaussianBlur stdDeviation="2.27865" result="effect1_foregroundBlur_28_290"/>
  </filter>
  <filter id="filter1_f_28_290" x="-26.8086" y="-109.396" width="402.41" height="494.01" filterUnits="userSpaceOnUse" color-interpolation-filters="sRGB">
  <feFlood flood-opacity="0" result="BackgroundImageFix"/>
  <feBlend mode="normal" in="SourceGraphic" in2="BackgroundImageFix" result="shape"/>
  <feGaussianBlur stdDeviation="2.27865" result="effect1_foregroundBlur_28_290"/>
  </filter>
  <radialGradient id="paint0_radial_28_290" cx="0" cy="0" r="1" gradientUnits="userSpaceOnUse" gradientTransform="translate(156.622 401.542) rotate(-84.441) scale(239.93 241.682)">
  <stop/>
  <stop offset="1" stop-opacity="0"/>
  </radialGradient>
  <linearGradient id="paint1_linear_28_290" x1="194.836" y1="271.638" x2="316.537" y2="167.936" gradientUnits="userSpaceOnUse">
  <stop/>
  <stop offset="1" stop-color="#333333" stop-opacity="0"/>
  </linearGradient>
  <radialGradient id="paint2_radial_28_290" cx="0" cy="0" r="1" gradientUnits="userSpaceOnUse" gradientTransform="translate(194.596 76.624) rotate(99.1226) scale(43.9775 125.337)">
  <stop stop-color="#737373"/>
  <stop offset="1" stop-color="#9A9A9A" stop-opacity="0"/>
  </radialGradient>
  <radialGradient id="paint3_radial_28_290" cx="0" cy="0" r="1" gradientUnits="userSpaceOnUse" gradientTransform="translate(174.396 173.413) rotate(92.5586) scale(157.837 128.153)">
  <stop stop-color="#737373"/>
  <stop offset="1" stop-color="#9A9A9A" stop-opacity="0"/>
  </radialGradient>
  <clipPath id="clip0_28_290">
  <rect width="350" height="350" fill="white"/>
  </clipPath>
  </defs>
  
        
    <mask id="mask0_765_92133" style="mask-type:alpha" maskUnits="userSpaceOnUse" x="218" y="76" width="102" height="210">
      <path d="M287.124 140.452L287.149 140.712L287.408 140.752L287.538 140.772L287.025 144.077C286.934 144.663 286.476 145.101 285.904 145.144C284.984 145.214 283.553 145.287 281.643 145.286L281.364 145.286L281.312 145.56L275.16 178.037C275.099 178.359 274.929 178.577 274.695 178.653C274.132 178.834 273.004 179.071 270.927 179.102L270.711 179.105L270.624 179.303C268.404 184.339 267.166 194.414 272.757 208.39C280.967 228.915 285.553 241.082 277.779 257.339C274.716 263.742 267.666 269.662 259.908 274.545C252.338 279.31 244.147 283.055 238.475 285.273L235.165 264.095C238.669 262.922 243.53 260.732 248.124 257.638C252.835 254.466 257.295 250.323 259.701 245.326C264.363 235.644 260.678 227.342 256.921 218.877L256.9 218.829C255.806 216.365 254.707 213.887 253.79 211.341C252.363 207.377 251.486 201.434 251.188 195.359L251.179 195.171L251.015 195.08C250.157 194.605 249.077 194.303 247.737 194.303H230.269V194.303L230.26 194.303C229.618 194.321 228.882 194.742 228.182 195.33C227.466 195.931 226.728 196.757 226.074 197.686C225.419 198.616 224.842 199.66 224.453 200.701C224.327 201.04 224.22 201.381 224.137 201.719L219.351 183.344C220.024 183.634 221.001 183.961 222.208 184.244C223.942 184.652 226.174 184.977 228.705 184.977H245.652H245.663L245.674 184.976C246.922 184.892 249.451 184.5 251.224 183.55L251.383 183.465L251.4 183.285C251.658 180.568 252.068 178.169 252.627 176.329L252.714 176.042L252.439 175.922C250.576 175.112 249.572 174.351 249.093 173.911C248.897 173.731 248.808 173.45 248.84 173.13L252.021 140.952L252.048 140.682L251.79 140.599C250.14 140.063 248.887 139.593 248.064 139.266C247.522 139.05 247.212 138.486 247.304 137.893L247.815 134.606L247.921 134.622L248.569 134.723L248.274 134.138C248.268 134.126 248.265 134.117 248.263 134.112C248.263 134.111 248.262 134.11 248.262 134.109C248.267 134.101 248.281 134.082 248.318 134.055C248.384 134.005 248.496 133.948 248.671 133.891C249.02 133.777 249.542 133.69 250.23 133.635C251.601 133.525 253.556 133.551 255.93 133.71L256.047 133.717L256.144 133.651C256.834 133.175 257.631 132.159 258.392 130.571C259.158 128.974 259.903 126.765 260.469 123.865C261.894 116.569 262.735 110.361 261.552 104.141C261.438 103.542 261.123 102.683 260.698 101.66C260.27 100.63 259.717 99.4054 259.112 98.066L259.111 98.0622C257.628 94.7771 255.829 90.7907 254.722 87.1637C254.168 85.3503 253.792 83.6426 253.712 82.1681C253.63 80.6879 253.849 79.488 254.434 78.6474C254.616 78.3845 254.931 78.1358 255.395 77.913C255.857 77.6911 256.447 77.5043 257.154 77.3541C258.569 77.0538 260.413 76.9082 262.547 76.8972C266.813 76.8752 272.189 77.3909 277.506 78.2402C282.822 79.0895 288.066 80.27 292.068 81.5723C294.07 82.224 295.75 82.9022 296.969 83.5787C297.579 83.9171 298.064 84.2495 298.415 84.5706C298.769 84.8946 298.964 85.1864 299.035 85.4394C299.249 86.2069 299.135 87.0911 298.734 88.0882C298.332 89.085 297.653 90.1666 296.779 91.309C295.03 93.5952 292.546 96.0667 290.076 98.5229L290.053 98.5454C287.287 101.296 284.533 104.035 282.941 106.422C281.829 108.09 280.962 110.174 280.297 112.41L280.142 112.934L280.679 112.838C281.966 112.608 284.491 112.629 287.83 112.894C291.156 113.158 295.255 113.662 299.67 114.382C305.119 115.271 310.007 116.319 313.504 117.295C315.254 117.784 316.644 118.251 317.579 118.666C318.05 118.875 318.386 119.063 318.595 119.224C318.699 119.305 318.756 119.367 318.783 119.409C318.783 119.409 318.783 119.409 318.784 119.41L318.343 119.86L318.99 119.961L319.169 119.989L318.656 123.294C318.565 123.88 318.108 124.318 317.535 124.361C314.993 124.552 308.539 124.779 298.855 123.355C289.009 121.907 282.258 119.502 279.696 118.483C279.62 118.452 279.549 118.415 279.483 118.373L279.042 118.088L278.967 118.607C278.52 121.67 278.36 124.634 278.406 126.922C278.444 128.773 278.806 131.109 279.247 133.146C279.467 134.167 279.708 135.117 279.94 135.901C280.169 136.678 280.395 137.311 280.59 137.684L280.658 137.814L280.799 137.853C282.784 138.397 284.391 138.93 285.506 139.415C286.065 139.658 286.486 139.883 286.766 140.083C286.907 140.183 287.001 140.27 287.059 140.341C287.119 140.413 287.124 140.449 287.124 140.452ZM248.26 134.114C248.26 134.114 248.26 134.113 248.26 134.112L248.26 134.114Z" fill="#C4C4C4" stroke="black" stroke-width="0.673831"/>
    </mask>
    <g mask="url(#mask0_765_92133)">
      <g filter="url(#filter0_f_765_92133)">
        <rect x="319.098" y="288.929" width="135.807" height="226.497" transform="rotate(-180 319.098 288.929)" fill="url(#paint0_linear_765_92133)"/>
      </g>
      <g style="mix-blend-mode:overlay" opacity="0.5">
        <path d="M291.544 165.915C243.381 133.288 358.885 73.6325 398.435 69.7131H268.028C228.692 73.9888 217.433 93.5854 216.721 102.849V180.879C227.766 195.844 250.24 225.395 320.405 243.945C413.399 268.53 525.552 220.769 487.154 165.915C457.225 123.158 357.816 210.809 291.544 165.915Z" fill="white" fill-opacity="0.75"/>
      </g>
      <g style="mix-blend-mode:overlay" opacity="0.5">
        <path fill-rule="evenodd" clip-rule="evenodd" d="M443.329 81.4712C411.974 88.2409 354.396 104.987 374.919 117.814C384.309 123.683 404.011 123.68 427.157 123.676C467.245 123.67 517.664 123.663 542.737 154.157C583.316 203.51 551.289 281.357 452.949 312.355C451.579 312.787 450.2 313.221 448.814 313.658C350.752 344.556 215.787 387.081 294.751 427.797C319.159 440.382 346.288 431.197 374.341 421.698C424.918 404.574 478.501 386.431 524.566 493H610.078C549.151 452.382 554.814 373.301 594.045 354.042C638.863 332.04 633.57 289.124 629.785 258.444C628.606 248.881 627.572 240.506 628.25 234.325V81.4712H443.329ZM524.566 323.044C510.029 346.132 457.225 359.03 432.64 362.593C412.331 387.178 461.5 376.489 468.983 370.076C476.465 363.662 491.43 378.627 495.705 398.936C499.981 419.245 536.324 416.039 534.186 398.936C532.048 381.834 532.048 362.593 556.633 343.353C581.218 324.113 542.737 294.183 524.566 323.044Z" fill="white" fill-opacity="0.75"/>
      </g>
      <g style="mix-blend-mode:overlay" opacity="0.5">
        <path d="M303.302 285.632C348.196 285.632 346.058 321.975 303.302 329.457C261.624 336.751 220.961 348.108 219.928 370.458V372.214C219.901 371.621 219.901 371.035 219.928 370.458V261.029C237.178 270.787 271.154 285.632 303.302 285.632Z" fill="white" fill-opacity="0.75"/>
      </g>
      <g opacity="0.5">
        <g style="mix-blend-mode:overlay" opacity="0.5">
          <path d="M257.182 74.2273C234.539 58.8885 288.841 30.8426 307.434 29H246.126C227.633 31.0101 222.34 40.2231 222.005 44.5783V81.2626C227.198 88.298 237.763 102.191 270.75 110.912C314.47 122.47 367.196 100.016 349.144 74.2273C335.073 54.1263 288.338 95.3333 257.182 74.2273Z" fill="white"/>
        </g>
        <g style="mix-blend-mode:overlay" opacity="0.5">
          <path fill-rule="evenodd" clip-rule="evenodd" d="M328.541 34.5276C313.8 37.7102 286.73 45.5831 296.379 51.6134C300.794 54.3726 310.056 54.3712 320.938 54.3696C339.784 54.3667 363.488 54.3631 375.275 68.6993C394.353 91.9016 379.296 128.5 333.063 143.073C332.419 143.276 331.771 143.48 331.119 143.686C285.017 158.212 221.566 178.204 258.69 197.346C270.164 203.262 282.918 198.944 296.107 194.479C319.885 186.428 345.076 177.899 366.733 228H406.935C378.291 208.904 380.953 171.726 399.397 162.672C420.467 152.328 417.978 132.151 416.199 117.728C415.645 113.232 415.159 109.295 415.478 106.389V34.5276H328.541ZM366.733 148.098C359.898 158.953 335.073 165.017 323.515 166.692C313.967 178.25 337.084 173.225 340.601 170.209C344.119 167.194 351.154 174.23 353.164 183.778C355.174 193.326 372.26 191.818 371.255 183.778C370.25 175.737 370.25 166.692 381.808 157.646C393.366 148.601 375.275 134.53 366.733 148.098Z" fill="white"/>
        </g>
        <g style="mix-blend-mode:overlay" opacity="0.5">
          <path d="M262.71 130.51C283.816 130.51 282.811 147.596 262.71 151.114C243.115 154.543 223.998 159.882 223.513 170.389V171.215C223.5 170.936 223.5 170.661 223.513 170.389V118.943C231.622 123.531 247.596 130.51 262.71 130.51Z" fill="white"/>
        </g>
      </g>
      <g opacity="0.6">
        <circle cx="232.231" cy="193.507" r="1.16688" fill="white"/>
        <circle cx="297.706" cy="273.818" r="1.16688" transform="rotate(75 297.706 273.818)" fill="white"/>
        <circle cx="226.163" cy="154.922" r="1.16688" fill="white"/>
        <circle cx="234.851" cy="176.882" r="1.16688" transform="rotate(75 234.851 176.882)" fill="white"/>
        <circle cx="235.762" cy="241.611" r="1.16688" transform="rotate(75 235.762 241.611)" fill="white"/>
        <circle cx="241.946" cy="225.619" r="1.16688" transform="rotate(75 241.946 225.619)" fill="white"/>
        <circle cx="220.096" cy="249.984" r="1.16688" fill="white"/>
        <circle cx="227.297" cy="267.31" r="1.16688" fill="white"/>
        <circle cx="240.013" cy="276.713" r="1.16688" transform="rotate(75 240.013 276.713)" fill="white"/>
        <circle cx="284.812" cy="218.482" r="1.16688" transform="rotate(75 284.812 218.482)" fill="white"/>
        <circle cx="237.323" cy="116.463" r="1.16688" fill="white"/>
        <circle cx="249.172" cy="86.3851" r="1.16688" fill="white"/>
        <circle cx="301.58" cy="84.1066" r="1.16688" fill="white"/>
        <circle cx="303.859" cy="116.008" r="1.16688" fill="white"/>
        <circle cx="258.286" cy="146.997" r="1.16688" fill="white"/>
        <circle cx="291.099" cy="146.997" r="1.16688" fill="white"/>
        <circle cx="275.603" cy="171.607" r="1.16688" fill="white"/>
        <circle cx="253.825" cy="187.106" r="1.16688" transform="rotate(75 253.825 187.106)" fill="white"/>
        <circle cx="312.78" cy="282.155" r="1.16688" transform="rotate(75 312.78 282.155)" fill="white"/>
        <circle cx="261.738" cy="284.89" r="1.16688" transform="rotate(75 261.738 284.89)" fill="white"/>
        <circle cx="260.827" cy="259.369" r="1.16688" transform="rotate(75 260.827 259.369)" fill="white"/>
        <circle cx="250.62" cy="205.199" r="1.16688" transform="rotate(75 250.62 205.199)" fill="white"/>
        <circle cx="269.571" cy="205.487" r="1.16688" fill="white"/>
        <circle cx="298.822" cy="262.622" r="1.16688" transform="rotate(165 298.822 262.622)" fill="white"/>
        <circle cx="247.634" cy="248.117" r="1.16688" fill="white"/>
        <circle cx="301.21" cy="247.486" r="1.16688" transform="rotate(165 301.21 247.486)" fill="white"/>
        <circle cx="273.46" cy="233.803" r="1.16688" fill="white"/>
        <circle cx="279.967" cy="267.996" r="1.16688" transform="rotate(165 279.967 267.996)" fill="white"/>
        <path d="M256.599 238.72L256.179 237.585L255.044 237.165L256.179 236.744L256.599 235.609L257.02 236.744L258.155 237.165L257.02 237.585L256.599 238.72Z" fill="#FFF7B0"/>
        <path d="M221.509 143.473L221.088 142.338L219.953 141.917L221.088 141.497L221.509 140.361L221.929 141.497L223.064 141.917L221.929 142.338L221.509 143.473Z" fill="#FFF7B0"/>
        <path d="M258.933 277.15L258.513 276.014L257.378 275.594L258.513 275.174L258.933 274.038L259.354 275.174L260.489 275.594L259.354 276.014L258.933 277.15Z" fill="#FFF7B0"/>
        <path d="M223.842 181.902L223.421 180.767L222.286 180.347L223.421 179.926L223.842 178.791L224.262 179.926L225.397 180.347L224.262 180.767L223.842 181.902Z" fill="#FFF7B0"/>
        <path d="M221.509 220.332L221.088 219.196L219.953 218.776L221.088 218.355L221.509 217.22L221.929 218.355L223.064 218.776L221.929 219.196L221.509 220.332Z" fill="#FFF7B0"/>
        <path d="M258.931 221.914L258.195 219.926L256.208 219.191L258.195 218.455L258.931 216.468L259.666 218.455L261.653 219.191L259.666 219.926L258.931 221.914Z" fill="#FFF7B0"/>
        <path d="M266.222 118.919L265.486 116.932L263.499 116.196L265.486 115.461L266.222 113.474L266.957 115.461L268.944 116.196L266.957 116.932L266.222 118.919Z" fill="#FFF7B0"/>
        <path d="M282.64 101.169L281.04 96.8444L276.715 95.2442L281.04 93.6441L282.64 89.3197L284.24 93.6441L288.564 95.2442L284.24 96.8444L282.64 101.169Z" fill="#FFF7B0"/>
      </g>
    </g>
    <g filter="url(#filter1_d_765_92133)">
      <mask id="mask1_765_92133" style="mask-type:alpha" maskUnits="userSpaceOnUse" x="113" y="211" width="128" height="104">
      <path d="M206.971 314.45H177.548H146.374C123.506 314.45 109.289 291.999 114.706 268.713L116.597 260.586L126.518 211.457C137.088 220.296 154.504 224.873 177.548 224.873C200.592 224.873 212.675 219.432 225.663 211.457L236.746 260.586L238.637 268.704C244.06 291.992 229.843 314.45 206.971 314.45Z" fill="url(#paint1_radial_765_92133)" stroke="black" stroke-width="0.455725"/>
      </mask>
      <g mask="url(#mask1_765_92133)">
        <rect x="275.354" y="369.593" width="166.795" height="166.795" transform="rotate(-180 275.354 369.593)" fill="url(#paint2_linear_765_92133)"/>
        <g style="mix-blend-mode:overlay" filter="url(#filter2_f_765_92133)">
          <ellipse cx="264.724" cy="246.07" rx="273.295" ry="336.948" transform="rotate(0.126655 264.724 246.07)" fill="url(#paint3_radial_765_92133)"/>
        </g>
        <g opacity="0.5">
          <g style="mix-blend-mode:overlay" opacity="0.5">
            <path d="M142.25 209.181C116.602 191.807 178.11 160.039 199.172 157.951H129.727C108.78 160.228 102.784 170.664 102.404 175.597V217.15C108.286 225.119 120.254 240.856 157.619 250.734C207.141 263.826 266.865 238.392 246.417 209.181C230.479 186.412 177.541 233.088 142.25 209.181Z" fill="white"/>
          </g>
          <g style="mix-blend-mode:overlay" opacity="0.5">
            <path fill-rule="evenodd" clip-rule="evenodd" d="M223.079 164.213C206.382 167.818 175.72 176.736 186.649 183.566C191.65 186.692 202.141 186.69 214.467 186.688C235.815 186.685 262.665 186.681 276.016 202.92C297.626 229.201 280.57 270.657 228.202 287.164C227.472 287.394 226.738 287.626 226 287.858C173.779 304.312 101.907 326.957 143.958 348.64C156.955 355.342 171.402 350.45 186.341 345.392C213.275 336.273 241.809 326.612 266.34 383.362H311.877C279.432 361.732 282.447 319.62 303.339 309.364C327.206 297.647 324.387 274.793 322.372 258.455C321.743 253.362 321.193 248.903 321.554 245.611V164.213H223.079ZM266.34 292.856C258.598 305.151 230.479 312.02 217.387 313.917C206.572 327.009 232.756 321.317 236.74 317.902C240.725 314.487 248.694 322.456 250.971 333.271C253.248 344.086 272.601 342.378 271.463 333.271C270.324 324.163 270.324 313.917 283.416 303.671C296.508 293.426 276.016 277.487 266.34 292.856Z" fill="white"/>
          </g>
          <g style="mix-blend-mode:overlay" opacity="0.5">
            <path d="M148.512 272.933C172.419 272.933 171.281 292.287 148.512 296.271C126.317 300.156 104.663 306.203 104.113 318.105V319.04C104.098 318.725 104.098 318.413 104.113 318.105V259.832C113.299 265.028 131.392 272.933 148.512 272.933Z" fill="white"/>
          </g>
        </g>
        <g opacity="0.6">
          <ellipse rx="1.10575" ry="1.16259" transform="matrix(-0.961979 0.273124 -0.24516 -0.969483 233.672 276.477)" fill="white"/>
          <ellipse rx="1.10575" ry="1.16259" transform="matrix(-0.961979 0.273124 -0.24516 -0.969483 184.695 249.309)" fill="white"/>
          <ellipse rx="1.16259" ry="1.10575" transform="matrix(0.24516 0.969483 -0.961979 0.273124 154.008 226.879)" fill="white"/>
          <ellipse rx="1.10575" ry="1.16259" transform="matrix(-0.961979 0.273124 -0.24516 -0.969483 199.65 285.009)" fill="white"/>
          <ellipse rx="1.16259" ry="1.10575" transform="matrix(0.24516 0.969483 -0.961979 0.273124 187.7 211.032)" fill="white"/>
          <ellipse rx="1.16259" ry="1.10575" transform="matrix(0.24516 0.969483 -0.961979 0.273124 202.783 225.672)" fill="white"/>
          <ellipse rx="1.10575" ry="1.16259" transform="matrix(-0.961979 0.273124 -0.24516 -0.969483 236.918 236.415)" fill="white"/>
          <ellipse rx="1.10575" ry="1.16259" transform="matrix(-0.961979 0.273124 -0.24516 -0.969483 220.979 235.303)" fill="white"/>
          <ellipse rx="1.10575" ry="1.16259" transform="matrix(-0.961979 0.273124 -0.24516 -0.969483 167.607 294.751)" fill="white"/>
          <ellipse rx="1.16259" ry="1.10575" transform="matrix(0.24516 0.969483 -0.961979 0.273124 196.894 244.984)" fill="white"/>
          <ellipse rx="1.10575" ry="1.16259" transform="matrix(-0.961979 0.273124 -0.24516 -0.969483 150.532 291.545)" fill="white"/>
          <ellipse rx="1.16259" ry="1.10575" transform="matrix(0.24516 0.969483 -0.961979 0.273124 218.125 213.341)" fill="white"/>
          <ellipse rx="1.16259" ry="1.10575" transform="matrix(0.24516 0.969483 -0.961979 0.273124 168.234 235.216)" fill="white"/>
          <ellipse rx="1.16259" ry="1.10575" transform="matrix(0.24516 0.969483 -0.961979 0.273124 169.094 272.586)" fill="white"/>
          <ellipse rx="1.16259" ry="1.10575" transform="matrix(0.24516 0.969483 -0.961979 0.273124 120.064 237.951)" fill="white"/>
          <ellipse rx="1.16259" ry="1.10575" transform="matrix(0.24516 0.969483 -0.961979 0.273124 119.204 212.43)" fill="white"/>
          <ellipse rx="1.10575" ry="1.16259" transform="matrix(-0.961979 0.273124 -0.24516 -0.969483 147.73 247.402)" fill="white"/>
          <ellipse rx="1.16259" ry="1.10575" transform="matrix(0.24516 0.969483 -0.961979 0.273124 152.209 266.047)" fill="white"/>
          <ellipse rx="1.16259" ry="1.10575" transform="matrix(0.24516 0.969483 -0.961979 0.273124 240.49 212.886)" fill="white"/>
          <ellipse rx="1.10575" ry="1.16259" transform="matrix(-0.961979 0.273124 -0.24516 -0.969483 155.062 215.683)" fill="white"/>
          <ellipse rx="1.16259" ry="1.10575" transform="matrix(0.24516 0.969483 -0.961979 0.273124 122.274 258.278)" fill="white"/>
          <ellipse rx="1.16259" ry="1.10575" transform="matrix(0.24516 0.969483 -0.961979 0.273124 225.496 254.176)" fill="white"/>
          <ellipse rx="1.16259" ry="1.10575" transform="matrix(0.24516 0.969483 -0.961979 0.273124 211.212 251.789)" fill="white"/>
          <ellipse rx="1.10575" ry="1.16259" transform="matrix(-0.961979 0.273124 -0.24516 -0.969483 137.268 221.057)" fill="white"/>
          <ellipse rx="1.16259" ry="1.10575" transform="matrix(0.24516 0.969483 -0.961979 0.273124 127.346 277.132)" fill="white"/>
          <ellipse rx="1.16259" ry="1.10575" transform="matrix(0.24516 0.969483 -0.961979 0.273124 230.568 273.031)" fill="white"/>
          <path d="M117.416 230.211L117.02 229.075L115.948 228.655L117.02 228.235L117.416 227.099L117.813 228.235L118.885 228.655L117.813 229.075L117.416 230.211Z" fill="#7A6F0C"/>
          <path d="M115.214 268.64L114.818 267.504L113.746 267.084L114.818 266.664L115.214 265.528L115.611 266.664L116.683 267.084L115.611 267.504L115.214 268.64Z" fill="#7A6F0C"/>
          <path d="M135.845 275.485L135.151 273.498L133.275 272.763L135.151 272.027L135.845 270.04L136.539 272.027L138.414 272.763L136.539 273.498L135.845 275.485Z" fill="#7A6F0C"/>
          <path d="M240.271 227.644L239.577 225.657L237.702 224.922L239.577 224.186L240.271 222.199L240.965 224.186L242.841 224.922L240.965 225.657L240.271 227.644Z" fill="#7A6F0C"/>
          <path d="M130.705 253.393L130.011 251.405L128.135 250.67L130.011 249.935L130.705 247.947L131.399 249.935L133.274 250.67L131.399 251.405L130.705 253.393Z" fill="#7A6F0C"/>
          <path d="M230.212 255.649L229.816 254.514L228.744 254.093L229.816 253.673L230.212 252.538L230.609 253.673L231.681 254.093L230.609 254.514L230.212 255.649Z" fill="#7A6F0C"/>
        </g>
      </g>
    </g>
    <mask id="mask2_765_92133" style="mask-type:alpha" maskUnits="userSpaceOnUse" x="149" y="48" width="54" height="54">
      <path d="M149.568 48.7632H202.433V94.3361C202.433 94.3361 196.508 101.445 176.001 101.445C155.493 101.445 149.568 94.3361 149.568 94.3361V48.7632Z" fill="url(#paint4_radial_765_92133)"/>
    </mask>
    <g mask="url(#mask2_765_92133)">
      <rect x="272" y="177" width="131" height="148" transform="rotate(-180 272 177)" fill="url(#paint5_linear_765_92133)"/>
      <g style="mix-blend-mode:overlay" opacity="0.5">
        <path d="M153.671 14.144C117.316 -10.4834 204.502 -55.5133 234.355 -58.4717H135.921C106.229 -55.2443 97.7303 -40.4522 97.1924 -33.4596V25.4398C105.53 36.7356 122.493 59.0419 175.456 73.0435C245.651 91.6008 330.307 55.5497 301.323 14.144C278.732 -18.1296 203.695 48.0314 153.671 14.144Z" fill="white" fill-opacity="0.75"/>
      </g>
      <g style="mix-blend-mode:overlay" opacity="0.5">
        <path fill-rule="evenodd" clip-rule="evenodd" d="M268.243 -49.5964C244.576 -44.4864 201.114 -31.8459 216.605 -22.1638C223.693 -17.7338 238.565 -17.736 256.036 -17.7387C286.295 -17.7432 324.353 -17.749 343.279 5.26877C373.909 42.5218 349.734 101.283 275.505 124.681C274.47 125.007 273.429 125.335 272.383 125.665C198.363 148.987 96.4874 181.087 156.092 211.82C174.515 221.32 194.993 214.386 216.169 207.217C254.346 194.291 294.792 180.596 329.563 261.037H394.11C348.12 230.378 352.395 170.685 382.008 156.148C415.838 139.54 411.842 107.146 408.985 83.9879C408.095 76.769 407.315 70.4476 407.827 65.7819V-49.5964H268.243ZM329.563 132.75C318.59 150.177 278.732 159.913 260.174 162.603C244.844 181.16 281.959 173.092 287.607 168.251C293.255 163.41 304.551 174.705 307.778 190.035C311.005 205.365 338.438 202.945 336.824 190.035C335.211 177.126 335.211 162.603 353.768 148.08C372.325 133.557 343.279 110.965 329.563 132.75Z" fill="white" fill-opacity="0.75"/>
      </g>
      <g style="mix-blend-mode:overlay" opacity="0.5">
        <path d="M162.547 104.51C196.434 104.51 194.821 131.943 162.547 137.591C131.087 143.096 100.393 151.669 99.6133 168.539V169.864C99.593 169.417 99.5931 168.975 99.6133 168.539V85.939C112.634 93.3046 138.28 104.51 162.547 104.51Z" fill="white" fill-opacity="0.75"/>
      </g>
      <g style="mix-blend-mode:overlay" filter="url(#filter3_f_765_92133)">
        <ellipse cx="252.379" cy="67.7799" rx="241.928" ry="298.276" transform="rotate(0.126655 252.379 67.7799)" fill="url(#paint6_radial_765_92133)"/>
      </g>
      <g opacity="0.5">
        <g style="mix-blend-mode:overlay" opacity="0.5">
          <path d="M119.353 91.6034C96.6489 76.223 151.098 48.101 169.742 46.2534H108.268C89.7246 48.269 84.417 57.5069 84.0811 61.874V98.6578C89.2879 105.712 99.8821 119.643 132.958 128.387C176.797 139.977 229.666 117.462 211.565 91.6034C197.456 71.4478 150.594 112.767 119.353 91.6034Z" fill="white"/>
        </g>
        <g style="mix-blend-mode:overlay" opacity="0.5">
          <path fill-rule="evenodd" clip-rule="evenodd" d="M190.905 51.7961C176.124 54.9874 148.981 62.8817 158.656 68.9283C163.083 71.695 172.37 71.6936 183.281 71.6919C202.179 71.6891 225.947 71.6855 237.767 86.0605C256.896 109.326 241.798 146.023 195.44 160.636C194.794 160.84 194.144 161.044 193.49 161.25C147.263 175.816 83.6402 195.862 120.864 215.056C132.37 220.989 145.159 216.659 158.384 212.181C182.226 204.109 207.485 195.556 229.2 245.793H269.512C240.79 226.645 243.459 189.366 261.953 180.288C283.081 169.916 280.585 149.685 278.801 135.222C278.245 130.714 277.758 126.766 278.078 123.852V51.7961H190.905ZM229.2 165.675C222.348 176.559 197.455 182.639 185.866 184.319C176.292 195.908 199.471 190.869 202.998 187.846C206.525 184.823 213.58 191.877 215.595 201.451C217.611 211.025 234.743 209.513 233.735 201.451C232.728 193.389 232.728 184.319 244.317 175.249C255.906 166.179 237.767 152.07 229.2 165.675Z" fill="white"/>
        </g>
      </g>
      <g opacity="0.6">
        <circle cx="155.039" cy="54.7346" r="1.03294" fill="white"/>
        <circle cx="158.165" cy="97.3173" r="1.03294" transform="rotate(75 158.165 97.3173)" fill="white"/>
        <circle cx="163.64" cy="83.1606" r="1.03294" transform="rotate(75 163.64 83.1606)" fill="white"/>
        <circle cx="201.585" cy="76.843" r="1.03294" transform="rotate(75 201.585 76.843)" fill="white"/>
        <circle cx="174.154" cy="49.0683" r="1.03294" transform="rotate(75 174.154 49.0683)" fill="white"/>
        <circle cx="171.317" cy="65.0852" r="1.03294" transform="rotate(75 171.317 65.0852)" fill="white"/>
        <circle cx="188.093" cy="65.3396" r="1.03294" fill="white"/>
        <circle cx="191.536" cy="90.4057" r="1.03294" fill="white"/>
        <path d="M176.611 94.7588L176.239 93.7535L175.234 93.3815L176.239 93.0095L176.611 92.0043L176.983 93.0095L177.988 93.3815L176.983 93.7535L176.611 94.7588Z" fill="#FFF7B0"/>
        <path d="M178.674 79.8809L178.023 78.1216L176.264 77.4707L178.023 76.8197L178.674 75.0605L179.325 76.8197L181.084 77.4707L179.325 78.1216L178.674 79.8809Z" fill="#FFF7B0"/>
      </g>
    </g>
    <ellipse cx="276.019" cy="84.3013" rx="20.0251" ry="3.19008" transform="rotate(9.26455 276.019 84.3013)" fill="white" fill-opacity="0.45"/>
    <mask id="mask3_765_92133" style="mask-type:alpha" maskUnits="userSpaceOnUse" x="144" y="39" width="64" height="10">
      <rect x="144.545" y="39.6479" width="62.8901" height="9.1145" rx="2.27863" fill="#C4C4C4"/>
    </mask>
    <g mask="url(#mask3_765_92133)">
      <g filter="url(#filter4_f_765_92133)">
        <rect x="309.576" y="117.425" width="166.795" height="166.795" transform="rotate(-180 309.576 117.425)" fill="url(#paint7_linear_765_92133)"/>
      </g>
      <g style="mix-blend-mode:overlay" filter="url(#filter5_f_765_92133)">
        <ellipse cx="298.946" cy="-6.09811" rx="273.295" ry="336.948" transform="rotate(0.126655 298.946 -6.09811)" fill="url(#paint8_radial_765_92133)"/>
      </g>
      <g opacity="0.5">
        <g style="mix-blend-mode:overlay" opacity="0.5">
          <path fill-rule="evenodd" clip-rule="evenodd" d="M257.301 -87.9556C240.604 -84.3505 209.942 -75.4328 220.871 -68.6021C225.871 -65.4768 236.363 -65.4784 248.689 -65.4802C270.037 -65.4835 296.886 -65.4875 310.238 -49.2487C331.847 -22.9671 314.792 18.4883 262.424 34.9957C261.694 35.2258 260.96 35.4571 260.221 35.6897C208.001 52.1435 136.129 74.789 178.179 96.4713C191.177 103.173 205.624 98.2818 220.563 93.2236C247.496 84.1045 276.031 74.4433 300.561 131.194H346.099C313.654 109.563 316.669 67.4511 337.561 57.1952C361.428 45.4787 358.609 22.6245 356.593 6.28691C355.965 1.19402 355.415 -3.26564 355.776 -6.55728V-87.9556H257.301ZM300.561 40.6879C292.82 52.983 264.701 59.8516 251.609 61.749C240.793 74.841 266.978 69.1488 270.962 65.7335C274.947 62.3182 282.916 70.2872 285.193 81.1024C287.469 91.9176 306.823 90.2099 305.684 81.1024C304.546 71.9949 304.546 61.749 317.638 51.503C330.73 41.2571 310.238 25.319 300.561 40.6879Z" fill="white"/>
        </g>
        <g style="mix-blend-mode:overlay" opacity="0.5">
          <path d="M182.733 20.7653C206.641 20.7653 205.502 40.1187 182.733 44.1032C160.539 47.9873 138.885 54.035 138.334 65.9369V66.872C138.32 66.5563 138.32 66.2447 138.334 65.9369V7.66338C147.521 12.8598 165.613 20.7653 182.733 20.7653Z" fill="white"/>
        </g>
      </g>
      <g opacity="0.6">
        <path d="M160.998 46.7644L160.263 44.7771L158.275 44.0417L160.263 43.3063L160.998 41.319L161.733 43.3063L163.721 44.0417L161.733 44.7771L160.998 46.7644Z" fill="#7A6F0C"/>
      </g>
    </g>
    <path d="M244.537 194.641C240.366 194.641 236.167 194.641 232.082 194.641M244.537 194.641H232.082M244.537 194.641C248.709 194.641 250.038 194.931 250.841 195.376C251.14 201.465 252.019 207.446 253.463 211.457C257.565 222.85 265.312 232.876 259.388 245.18C254.648 255.024 244.045 261.586 237.057 263.865M232.082 194.641C227.998 194.641 224.032 200.201 224.449 203.709L220.195 182.712C222.15 183.355 223.689 184.642 228.695 184.642M228.695 184.642C233.701 184.642 242.079 184.642 245.642 184.642M228.695 184.642H245.642M245.642 184.642C246.872 184.559 249.345 184.171 251.055 183.255C251.314 180.526 251.726 178.103 252.295 176.232M319.088 119.709L318.523 123.347C318.409 124.079 317.832 124.644 317.094 124.699C314.53 124.892 308.506 125.119 298.796 123.691C288.918 122.238 281.863 119.744 279.281 118.717M239.108 285.512C250.501 281.107 272.084 270.701 278.072 257.485C285.919 240.167 281.262 228.774 273.059 208.267C267.495 194.356 268.746 184.376 270.922 179.44M247.979 134.223L247.417 137.843C247.302 138.583 247.234 139.304 247.93 139.581C248.758 139.911 250.019 140.383 251.676 140.921M287.456 140.493L286.892 144.13C286.778 144.862 286.657 145.427 285.919 145.482C284.991 145.552 283.552 145.626 281.632 145.625M270.922 179.44C273.021 179.409 274.184 179.169 274.788 178.975C275.176 178.851 275.405 178.502 275.48 178.102L281.632 145.625M270.922 179.44C268.923 179.469 266.076 179.309 262.055 178.738C257.479 178.089 254.371 177.135 252.295 176.232M252.295 176.232C250.401 175.409 249.365 174.629 248.855 174.16C248.562 173.891 248.456 173.495 248.495 173.099L251.676 140.921M281.632 145.625C278.245 145.623 273.363 145.385 267.164 144.474C260.457 143.488 255.181 142.058 251.676 140.921M255.942 133.375C255.612 133.603 255.324 133.681 255.1 133.622C261.469 136.639 272.867 138.65 281.079 137.812C280.465 137.365 278.814 130.94 278.733 126.918C278.662 123.395 279.084 118.245 280.3 113.618C280.398 113.244 280.501 112.874 280.61 112.508M255.942 133.375C257.182 132.522 259.004 129.56 260.128 123.802C261.553 116.51 262.381 110.358 261.211 104.206C260.477 100.351 250.501 83.6982 254.147 78.4574C257.793 73.2166 297.839 79.9403 299.349 85.3512C300.859 90.762 287.569 100.074 283.211 106.611C282.124 108.241 281.269 110.291 280.61 112.508M255.942 133.375C251.182 133.058 248.047 133.267 247.919 134.056C247.698 135.407 256.368 137.945 267.284 139.726C278.199 141.506 287.226 141.855 287.447 140.504C287.567 139.768 285.048 138.68 280.965 137.553M280.61 112.508C283.279 112.032 290.87 112.609 299.713 114.051C310.629 115.832 319.317 118.256 319.12 119.467C318.922 120.678 309.914 120.216 298.998 118.435C289.871 116.946 282.301 115.007 280.181 113.704M295.927 87.598C295.643 89.3368 286.565 89.303 275.65 87.5225C264.734 85.742 256.116 82.889 256.399 81.1501C256.683 79.4113 265.761 79.4451 276.677 81.2256C287.592 83.0061 296.211 85.8591 295.927 87.598Z" stroke="black" stroke-width="0.911451"/>
    <path d="M226.119 211.457C226.119 211.457 207.606 225.128 176.217 225.128C144.828 225.128 126.315 211.457 126.315 211.457" stroke="black" stroke-width="0.911451"/>
    <path d="M202.422 94.3352C202.422 94.3352 193.763 101.171 175.99 101.171C158.216 101.171 149.558 94.3352 149.558 94.3352" stroke="black" stroke-width="0.911451"/>
    <g filter="url(#filter6_b_765_92133)">
      <mask id="path-112-inside-1_765_92133" fill="white">
        <path fill-rule="evenodd" clip-rule="evenodd" d="M148.097 49.1755C146.335 49.1755 144.907 47.7473 144.907 45.9855V42.3822C144.907 40.6204 146.335 39.1921 148.097 39.1921H204.701C206.463 39.1921 207.891 40.6204 207.891 42.3822V45.9855C207.891 47.7473 206.463 49.1755 204.701 49.1755H204.074C203.413 49.1755 202.878 49.7109 202.878 50.3714V95.9697C202.878 96.0486 202.886 96.1273 202.901 96.2047L214.049 151.836L226.167 210.11C226.174 210.14 226.21 210.152 226.233 210.133V210.133C226.257 210.113 226.293 210.125 226.299 210.155L237.162 259.871L238.608 267.133C244.048 290.731 230.693 314.906 207.75 314.906H177.324H145.141C122.202 314.906 109.303 290.738 114.736 267.143L116.182 259.871L126.12 210.157C126.127 210.126 126.163 210.114 126.187 210.134V210.134C126.211 210.154 126.247 210.141 126.253 210.11L149.809 92.5615C149.817 92.5199 149.827 92.4792 149.84 92.4394C149.915 92.1981 150.014 91.9573 150.014 91.7046V50.3714C150.014 49.7109 149.478 49.1755 148.818 49.1755H148.097Z"/>
      </mask>
      <path d="M214.049 151.836L213.155 152.015L213.157 152.022L214.049 151.836ZM237.162 259.871L238.056 259.693L238.055 259.685L238.053 259.676L237.162 259.871ZM238.608 267.133L237.714 267.311L237.717 267.325L237.72 267.338L238.608 267.133ZM114.736 267.143L115.625 267.347L115.628 267.334L115.63 267.321L114.736 267.143ZM116.182 259.871L115.288 259.692L115.288 259.693L116.182 259.871ZM149.809 92.5615L150.702 92.7406L150.702 92.7406L149.809 92.5615ZM126.253 210.11L125.36 209.931L126.253 210.11ZM202.901 96.2047L202.007 96.3837L202.901 96.2047ZM126.12 210.157L127.014 210.336L126.12 210.157ZM149.84 92.4394L148.97 92.1678L149.84 92.4394ZM226.299 210.155L227.19 209.96L227.19 209.96L226.299 210.155ZM226.167 210.11L227.06 209.924L226.167 210.11ZM143.996 45.9855C143.996 48.2507 145.832 50.087 148.097 50.087V48.2641C146.839 48.2641 145.819 47.2439 145.819 45.9855H143.996ZM143.996 42.3822V45.9855H145.819V42.3822H143.996ZM148.097 38.2807C145.832 38.2807 143.996 40.117 143.996 42.3822H145.819C145.819 41.1238 146.839 40.1036 148.097 40.1036V38.2807ZM204.701 38.2807H148.097V40.1036H204.701V38.2807ZM208.803 42.3822C208.803 40.117 206.967 38.2807 204.701 38.2807V40.1036C205.96 40.1036 206.98 41.1238 206.98 42.3822H208.803ZM208.803 45.9855V42.3822H206.98V45.9855H208.803ZM204.701 50.087C206.967 50.087 208.803 48.2507 208.803 45.9855H206.98C206.98 47.2439 205.96 48.2641 204.701 48.2641V50.087ZM204.074 50.087H204.701V48.2641H204.074V50.087ZM203.789 95.9697V50.3714H201.966V95.9697H203.789ZM214.943 151.657L203.795 96.0256L202.007 96.3837L213.155 152.015L214.943 151.657ZM227.06 209.924L214.941 151.651L213.157 152.022L225.275 210.295L227.06 209.924ZM238.053 259.676L227.19 209.96L225.409 210.35L236.272 260.065L238.053 259.676ZM239.502 266.955L238.056 259.693L236.268 260.049L237.714 267.311L239.502 266.955ZM207.75 315.818C219.579 315.818 228.93 309.573 234.599 300.346C240.259 291.136 242.267 278.945 239.496 266.929L237.72 267.338C240.39 278.919 238.439 290.615 233.046 299.392C227.663 308.153 218.864 313.995 207.75 313.995V315.818ZM177.324 315.818H207.75V313.995H177.324V315.818ZM145.141 315.818H177.324V313.995H145.141V315.818ZM113.848 266.938C111.083 278.947 112.973 291.133 118.518 300.343C124.073 309.571 133.311 315.818 145.141 315.818V313.995C134.032 313.995 125.35 308.157 120.08 299.403C114.798 290.63 112.956 278.934 115.625 267.347L113.848 266.938ZM115.288 259.693L113.842 266.965L115.63 267.321L117.076 260.049L115.288 259.693ZM125.227 209.978L115.288 259.692L117.076 260.049L127.014 210.336L125.227 209.978ZM148.915 92.3824L125.36 209.931L127.147 210.29L150.702 92.7406L148.915 92.3824ZM148.97 92.1678C148.948 92.2379 148.93 92.3095 148.915 92.3824L150.702 92.7406C150.704 92.7303 150.707 92.7204 150.71 92.711L148.97 92.1678ZM149.102 50.3714V91.7046H150.925V50.3714H149.102ZM148.097 50.087H148.818V48.2641H148.097V50.087ZM150.925 50.3714C150.925 49.2076 149.982 48.2641 148.818 48.2641V50.087C148.975 50.087 149.102 50.2143 149.102 50.3714H150.925ZM125.6 210.831C126.154 211.297 127.005 210.999 127.147 210.29L125.36 209.931C125.49 209.283 126.267 209.01 126.774 209.436L125.6 210.831ZM201.966 95.9697C201.966 96.1087 201.98 96.2474 202.007 96.3837L203.795 96.0256C203.791 96.0072 203.789 95.9885 203.789 95.9697H201.966ZM127.014 210.336C126.884 210.985 126.106 211.257 125.6 210.831L126.774 209.436C126.22 208.97 125.369 209.268 125.227 209.978L127.014 210.336ZM150.71 92.711C150.751 92.5796 150.925 92.1388 150.925 91.7046H149.102C149.102 91.7148 149.1 91.7489 149.077 91.8312C149.066 91.8719 149.052 91.9167 149.033 91.9743C149.016 92.026 148.991 92.0992 148.97 92.1678L150.71 92.711ZM226.82 210.83C226.319 211.252 225.549 210.99 225.409 210.35L227.19 209.96C227.037 209.261 226.195 208.974 225.647 209.435L226.82 210.83ZM225.275 210.295C225.422 211.001 226.269 211.294 226.82 210.83L225.647 209.435C226.151 209.011 226.925 209.279 227.06 209.924L225.275 210.295ZM204.074 48.2641C202.91 48.2641 201.966 49.2076 201.966 50.3714H203.789C203.789 50.2143 203.917 50.087 204.074 50.087V48.2641Z" fill="black" mask="url(#path-112-inside-1_765_92133)"/>
    </g>
    <defs>
      <filter id="filter0_f_765_92133" x="179.29" y="58.4319" width="143.808" height="234.497" filterUnits="userSpaceOnUse" color-interpolation-filters="sRGB">
        <feFlood flood-opacity="0" result="BackgroundImageFix"/>
        <feBlend mode="normal" in="SourceGraphic" in2="BackgroundImageFix" result="shape"/>
        <feGaussianBlur stdDeviation="2" result="effect1_foregroundBlur_765_92133"/>
      </filter>
      <filter id="filter1_d_765_92133" x="111.049" y="211.036" width="132.158" height="109.111" filterUnits="userSpaceOnUse" color-interpolation-filters="sRGB">
        <feFlood flood-opacity="0" result="BackgroundImageFix"/>
        <feColorMatrix in="SourceAlpha" type="matrix" values="0 0 0 0 0 0 0 0 0 0 0 0 0 0 0 0 0 0 127 0" result="hardAlpha"/>
        <feOffset dx="0.455725" dy="2.73435"/>
        <feGaussianBlur stdDeviation="1.36718"/>
        <feComposite in2="hardAlpha" operator="out"/>
        <feColorMatrix type="matrix" values="0 0 0 0 0 0 0 0 0 0 0 0 0 0 0 0 0 0 0.25 0"/>
        <feBlend mode="normal" in2="BackgroundImageFix" result="effect1_dropShadow_765_92133"/>
        <feBlend mode="normal" in="SourceGraphic" in2="effect1_dropShadow_765_92133" result="shape"/>
      </filter>
      <filter id="filter2_f_765_92133" x="-13.1285" y="-95.4347" width="555.705" height="683.01" filterUnits="userSpaceOnUse" color-interpolation-filters="sRGB">
        <feFlood flood-opacity="0" result="BackgroundImageFix"/>
        <feBlend mode="normal" in="SourceGraphic" in2="BackgroundImageFix" result="shape"/>
        <feGaussianBlur stdDeviation="2.27863" result="effect1_foregroundBlur_765_92133"/>
      </filter>
      <filter id="filter3_f_765_92133" x="6.41599" y="-234.53" width="491.926" height="604.619" filterUnits="userSpaceOnUse" color-interpolation-filters="sRGB">
        <feFlood flood-opacity="0" result="BackgroundImageFix"/>
        <feBlend mode="normal" in="SourceGraphic" in2="BackgroundImageFix" result="shape"/>
        <feGaussianBlur stdDeviation="2.0171" result="effect1_foregroundBlur_765_92133"/>
      </filter>
      <filter id="filter4_f_765_92133" x="140.957" y="-51.1933" width="170.442" height="170.441" filterUnits="userSpaceOnUse" color-interpolation-filters="sRGB">
        <feFlood flood-opacity="0" result="BackgroundImageFix"/>
        <feBlend mode="normal" in="SourceGraphic" in2="BackgroundImageFix" result="shape"/>
        <feGaussianBlur stdDeviation="0.911451" result="effect1_foregroundBlur_765_92133"/>
      </filter>
      <filter id="filter5_f_765_92133" x="21.0931" y="-347.603" width="555.705" height="683.01" filterUnits="userSpaceOnUse" color-interpolation-filters="sRGB">
        <feFlood flood-opacity="0" result="BackgroundImageFix"/>
        <feBlend mode="normal" in="SourceGraphic" in2="BackgroundImageFix" result="shape"/>
        <feGaussianBlur stdDeviation="2.27863" result="effect1_foregroundBlur_765_92133"/>
      </filter>
      <filter id="filter6_b_765_92133" x="99.1498" y="24.842" width="155.019" height="304.414" filterUnits="userSpaceOnUse" color-interpolation-filters="sRGB">
        <feFlood flood-opacity="0" result="BackgroundImageFix"/>
        <feGaussianBlur in="BackgroundImage" stdDeviation="7.17509"/>
        <feComposite in2="SourceAlpha" operator="in" result="effect1_backgroundBlur_765_92133"/>
        <feBlend mode="normal" in="SourceGraphic" in2="effect1_backgroundBlur_765_92133" result="shape"/>
      </filter>
      <linearGradient id="paint0_linear_765_92133" x1="344.33" y1="425.694" x2="449.71" y2="425.694" gradientUnits="userSpaceOnUse">
        <stop stop-color="#E68A00"/>
        <stop offset="0.479167" stop-color="#F1BC10"/>
      </linearGradient>
      <radialGradient id="paint1_radial_765_92133" cx="0" cy="0" r="1" gradientUnits="userSpaceOnUse" gradientTransform="translate(232.768 200.519) rotate(136.943) scale(153.527 198.075)">
        <stop stop-color="#FF0000"/>
        <stop offset="0.530354" stop-color="#FFE925"/>
        <stop offset="1" stop-color="#289B04"/>
      </radialGradient>
      <linearGradient id="paint2_linear_765_92133" x1="306.344" y1="470.309" x2="435.77" y2="470.309" gradientUnits="userSpaceOnUse">
        <stop stop-color="#E68A00"/>
        <stop offset="0.464789" stop-color="#BF9F35"/>
        <stop offset="1" stop-color="#E68A00"/>
      </linearGradient>
      <radialGradient id="paint3_radial_765_92133" cx="0" cy="0" r="1" gradientUnits="userSpaceOnUse" gradientTransform="translate(264.724 295.83) rotate(92.5586) scale(219.358 178.104)">
        <stop offset="0.479167" stop-color="white" stop-opacity="0.75"/>
        <stop offset="1" stop-color="white" stop-opacity="0"/>
      </radialGradient>
      <radialGradient id="paint4_radial_765_92133" cx="0" cy="0" r="1" gradientUnits="userSpaceOnUse" gradientTransform="translate(199.492 43.4396) rotate(132.639) scale(69.3519 89.3771)">
        <stop stop-color="#FF0000"/>
        <stop offset="0.530354" stop-color="#FFE925"/>
        <stop offset="1" stop-color="#6DF244"/>
      </radialGradient>
      <linearGradient id="paint5_linear_765_92133" x1="296.339" y1="266.366" x2="397.989" y2="266.366" gradientUnits="userSpaceOnUse">
        <stop stop-color="#E68A00"/>
        <stop offset="0.464789" stop-color="#BF9F35"/>
        <stop offset="1" stop-color="#E68A00"/>
      </linearGradient>
      <radialGradient id="paint6_radial_765_92133" cx="0" cy="0" r="1" gradientUnits="userSpaceOnUse" gradientTransform="translate(252.379 111.829) rotate(92.5586) scale(194.182 157.662)">
        <stop offset="0.479167" stop-color="white" stop-opacity="0.75"/>
        <stop offset="1" stop-color="white" stop-opacity="0"/>
      </radialGradient>
      <linearGradient id="paint7_linear_765_92133" x1="340.565" y1="218.14" x2="469.991" y2="218.14" gradientUnits="userSpaceOnUse">
        <stop stop-color="#E68A00"/>
        <stop offset="0.464789" stop-color="#BF9F35"/>
        <stop offset="1" stop-color="#E68A00"/>
      </linearGradient>
      <radialGradient id="paint8_radial_765_92133" cx="0" cy="0" r="1" gradientUnits="userSpaceOnUse" gradientTransform="translate(298.946 43.6621) rotate(92.5586) scale(219.358 178.104)">
        <stop offset="0.479167" stop-color="white" stop-opacity="0.75"/>
        <stop offset="1" stop-color="white" stop-opacity="0"/>
      </radialGradient>
    </defs>
  
        </svg>
      