
        <svg width="350" height="350" viewBox="0 0 350 350" fill="none" xmlns="http://www.w3.org/2000/svg">
        
  <g clip-path="url(#clip0_28_290)">
  <rect x="0.0789795" y="0.0444336" width="350" height="350" fill="black" fill-opacity="0.89"/>
  <rect x="0.0789795" y="0.0444336" width="350" height="350" fill="url(#paint0_radial_28_290)" fill-opacity="0.2"/>
  <path d="M125.979 290.538L299.832 190.751L430.987 233.879L230.789 294.049L125.979 290.538Z" fill="url(#paint1_linear_28_290)"/>
  <g opacity="0.45" filter="url(#filter0_f_28_290)">
  <ellipse rx="194.596" ry="66.7643" transform="matrix(0.999998 0.00221055 0.00221055 -0.999998 176.078 304.637)" fill="url(#paint2_radial_28_290)"/>
  </g>
  <g opacity="0.7" filter="url(#filter1_f_28_290)">
  <ellipse cx="174.396" cy="137.609" rx="196.647" ry="242.448" transform="rotate(0.126655 174.396 137.609)" fill="url(#paint3_radial_28_290)"/>
  </g>
  </g>
  <defs>
  <filter id="filter0_f_28_290" x="-23.0754" y="233.314" width="398.306" height="142.646" filterUnits="userSpaceOnUse" color-interpolation-filters="sRGB">
  <feFlood flood-opacity="0" result="BackgroundImageFix"/>
  <feBlend mode="normal" in="SourceGraphic" in2="BackgroundImageFix" result="shape"/>
  <feGaussianBlur stdDeviation="2.27865" result="effect1_foregroundBlur_28_290"/>
  </filter>
  <filter id="filter1_f_28_290" x="-26.8086" y="-109.396" width="402.41" height="494.01" filterUnits="userSpaceOnUse" color-interpolation-filters="sRGB">
  <feFlood flood-opacity="0" result="BackgroundImageFix"/>
  <feBlend mode="normal" in="SourceGraphic" in2="BackgroundImageFix" result="shape"/>
  <feGaussianBlur stdDeviation="2.27865" result="effect1_foregroundBlur_28_290"/>
  </filter>
  <radialGradient id="paint0_radial_28_290" cx="0" cy="0" r="1" gradientUnits="userSpaceOnUse" gradientTransform="translate(156.622 401.542) rotate(-84.441) scale(239.93 241.682)">
  <stop/>
  <stop offset="1" stop-opacity="0"/>
  </radialGradient>
  <linearGradient id="paint1_linear_28_290" x1="194.836" y1="271.638" x2="316.537" y2="167.936" gradientUnits="userSpaceOnUse">
  <stop/>
  <stop offset="1" stop-color="#333333" stop-opacity="0"/>
  </linearGradient>
  <radialGradient id="paint2_radial_28_290" cx="0" cy="0" r="1" gradientUnits="userSpaceOnUse" gradientTransform="translate(194.596 76.624) rotate(99.1226) scale(43.9775 125.337)">
  <stop stop-color="#737373"/>
  <stop offset="1" stop-color="#9A9A9A" stop-opacity="0"/>
  </radialGradient>
  <radialGradient id="paint3_radial_28_290" cx="0" cy="0" r="1" gradientUnits="userSpaceOnUse" gradientTransform="translate(174.396 173.413) rotate(92.5586) scale(157.837 128.153)">
  <stop stop-color="#737373"/>
  <stop offset="1" stop-color="#9A9A9A" stop-opacity="0"/>
  </radialGradient>
  <clipPath id="clip0_28_290">
  <rect width="350" height="350" fill="white"/>
  </clipPath>
  </defs>
  
        
    <path d="M155.658 61.9402C159.112 48.9626 161.898 32.3569 174.785 32.3569C187.671 32.3569 192.186 52.9174 194.341 62.2566C196.265 70.5909 200.402 89.524 201.27 93.5021C201.375 93.9808 201.259 94.4625 200.902 94.7983C199.079 96.5147 192.204 101.628 175 101.628C157.731 101.628 150.87 96.4767 149.077 94.7793C148.733 94.4538 148.616 93.9883 148.705 93.5233C149.397 89.904 152.599 73.4327 155.658 61.9402Z" fill="black"/>
    <path d="M155.658 61.9402C159.112 48.9626 161.898 32.3569 174.785 32.3569C187.671 32.3569 192.186 52.9174 194.341 62.2566C196.265 70.5909 200.402 89.524 201.27 93.5021C201.375 93.9808 201.259 94.4625 200.902 94.7983C199.079 96.5147 192.204 101.628 175 101.628C157.731 101.628 150.87 96.4767 149.077 94.7793C148.733 94.4538 148.616 93.9883 148.705 93.5233C149.397 89.904 152.599 73.4327 155.658 61.9402Z" fill="url(#paint0_linear_765_92118)" fill-opacity="0.45"/>
    <path d="M228.32 314.723L202.037 284.375H172.525H143.189L117.122 314.723C117.122 314.723 134.804 334.733 172.721 334.733C210.638 334.733 228.32 314.723 228.32 314.723Z" fill="black"/>
    <path d="M124.793 210.091C124.793 210.091 148.112 224.675 175.228 224.675C202.344 224.675 225.208 210.091 225.208 210.091C228.731 225.096 236.031 263.492 223.783 282.944C208.368 307.425 182.903 315.82 175 315.82C167.098 315.82 141.633 307.425 126.218 282.944C113.969 263.492 121.269 225.096 124.793 210.091Z" fill="#6DF244"/>
    <path d="M124.793 210.091C124.793 210.091 148.112 224.675 175.228 224.675C202.344 224.675 225.208 210.091 225.208 210.091C228.731 225.096 236.031 263.492 223.783 282.944C208.368 307.425 182.903 315.82 175 315.82C167.098 315.82 141.633 307.425 126.218 282.944C113.969 263.492 121.269 225.096 124.793 210.091Z" fill="url(#paint1_linear_765_92118)" fill-opacity="0.8"/>
    <path d="M155.658 61.9402C159.112 48.9626 161.898 32.3569 174.785 32.3569C187.671 32.3569 192.186 52.9174 194.341 62.2566C196.265 70.5909 200.402 89.524 201.27 93.5021C201.375 93.9808 201.259 94.4625 200.902 94.7983C199.079 96.5147 192.204 101.628 175 101.628C157.731 101.628 150.87 96.4767 149.077 94.7793C148.733 94.4538 148.616 93.9883 148.705 93.5233C149.397 89.904 152.599 73.4327 155.658 61.9402Z" fill="black"/>
    <path d="M155.658 61.9402C159.112 48.9626 161.898 32.3569 174.785 32.3569C187.671 32.3569 192.186 52.9174 194.341 62.2566C196.265 70.5909 200.402 89.524 201.27 93.5021C201.375 93.9808 201.259 94.4625 200.902 94.7983C199.079 96.5147 192.204 101.628 175 101.628C157.731 101.628 150.87 96.4767 149.077 94.7793C148.733 94.4538 148.616 93.9883 148.705 93.5233C149.397 89.904 152.599 73.4327 155.658 61.9402Z" fill="url(#paint2_linear_765_92118)" fill-opacity="0.45"/>
    <g filter="url(#filter0_d_765_92118)">
      <path d="M228.32 314.723L202.037 284.375H172.525H143.189L117.122 314.723C117.122 314.723 134.804 334.733 172.721 334.733C210.638 334.733 228.32 314.723 228.32 314.723Z" fill="black"/>
    </g>
    <path d="M124.792 210.091C124.792 210.091 148.111 224.675 175.227 224.675C202.343 224.675 225.207 210.091 225.207 210.091C228.73 225.096 236.03 263.492 223.782 282.944C208.367 307.425 182.902 315.82 174.999 315.82C167.097 315.82 141.632 307.425 126.217 282.944C113.968 263.492 121.268 225.096 124.792 210.091Z" fill="#6DF244"/>
    <path d="M124.792 210.091C124.792 210.091 148.111 224.675 175.227 224.675C202.343 224.675 225.207 210.091 225.207 210.091C228.73 225.096 236.03 263.492 223.782 282.944C208.367 307.425 182.902 315.82 174.999 315.82C167.097 315.82 141.632 307.425 126.217 282.944C113.968 263.492 121.268 225.096 124.792 210.091Z" fill="url(#paint3_linear_765_92118)" fill-opacity="0.8"/>
    <path d="M130.95 277.639C122.171 263.011 123.204 251.576 128.368 246.789C137.583 238.247 152.64 253.172 158.579 265.671C164.518 278.171 165.292 287.745 160.386 292.266C155.48 296.787 139.73 292.266 130.95 277.639Z" stroke="url(#paint4_linear_765_92118)" stroke-width="1.82292"/>
    <path fill-rule="evenodd" clip-rule="evenodd" d="M175 303.508C172.004 303.607 166.496 302.828 162.695 298.958H174.089H175.911H187.305C183.504 302.828 177.996 303.607 175 303.508Z" fill="#57BF37"/>
    <path d="M218.291 276.7C226.253 263.683 225.316 253.506 220.632 249.246C212.275 241.645 198.619 254.926 193.232 266.05C187.846 277.173 187.143 285.693 191.593 289.717C196.043 293.74 210.328 289.717 218.291 276.7Z" fill="#070707" stroke="#070707" stroke-width="0.455729"/>
    <path d="M218.518 277.639C227.399 263.011 226.354 251.576 221.13 246.789C211.808 238.247 196.576 253.172 190.568 265.671C184.56 278.171 183.776 287.745 188.74 292.266C193.703 296.787 209.636 292.266 218.518 277.639Z" stroke="url(#paint5_linear_765_92118)" stroke-width="1.82292"/>
    <path d="M219.429 277.639C228.31 263.011 227.265 251.576 222.041 246.789C212.719 238.247 197.487 253.172 191.479 265.671C185.471 278.171 184.688 287.745 189.651 292.266C194.614 296.787 210.547 292.266 219.429 277.639Z" stroke="url(#paint6_linear_765_92118)" stroke-width="1.82292"/>
    <path d="M220.588 256.217C219.787 252.567 217.885 250.967 216.325 251.049C213.542 251.195 213.375 255.888 214.312 258.759C215.249 261.63 216.576 263.229 218.054 263.147C219.531 263.065 221.389 259.867 220.588 256.217Z" fill="url(#paint7_radial_765_92118)"/>
    <path fill-rule="evenodd" clip-rule="evenodd" d="M175.001 292.166C173.542 291.986 170.042 292.273 167.709 294.857H175.001H182.292C179.959 292.273 176.459 291.986 175.001 292.166Z" fill="#57BF37"/>
    <path d="M132.088 276.7C124.228 263.683 125.153 253.506 129.777 249.246C138.027 241.645 151.508 254.926 156.826 266.05C162.143 277.173 162.836 285.693 158.444 289.717C154.051 293.74 139.949 289.717 132.088 276.7Z" fill="#070707" stroke="#070707" stroke-width="0.455729"/>
    <path d="M129.563 256.217C130.364 252.567 132.265 250.967 133.825 251.049C136.608 251.195 136.776 255.888 135.839 258.759C134.902 261.63 133.575 263.229 132.097 263.147C130.619 263.065 128.761 259.867 129.563 256.217Z" fill="url(#paint8_radial_765_92118)"/>
    <path d="M130.95 277.639C122.171 263.011 123.204 251.576 128.368 246.789C137.583 238.247 152.64 253.172 158.579 265.671C164.518 278.171 165.292 287.745 160.386 292.266C155.48 296.787 139.73 292.266 130.95 277.639Z" stroke="url(#paint9_linear_765_92118)" stroke-width="1.82292"/>
    <path fill-rule="evenodd" clip-rule="evenodd" d="M177.408 224.675L177.305 224.675C177.892 224.674 178.474 224.667 179.052 224.655C178.506 224.668 177.958 224.675 177.408 224.675Z" fill="#161A70" fill-opacity="0.1"/>
    <path fill-rule="evenodd" clip-rule="evenodd" d="M228.41 314.723C228.41 314.723 211.425 334.733 175 334.733V32.3569C187.169 32.3569 192.181 52.2246 194.294 61.771L194.402 62.2566C196.25 70.5909 200.68 89.524 201.514 93.5021C201.566 93.7533 201.561 94.0053 201.494 94.2366L225.233 209.629C225.279 209.86 225.238 210.093 225.123 210.283C225.319 210.158 225.42 210.091 225.42 210.091C228.805 225.096 235.817 263.492 224.051 282.944C220.851 288.235 217.2 292.774 213.365 296.64L228.41 314.723ZM177.408 224.675L177.305 224.675C177.892 224.674 178.474 224.667 179.052 224.655C178.506 224.668 177.958 224.675 177.408 224.675Z" fill="#161A70" fill-opacity="0.1"/>
    <defs>
      <filter id="filter0_d_765_92118" x="114.843" y="284.375" width="116.667" height="55.8269" filterUnits="userSpaceOnUse" color-interpolation-filters="sRGB">
        <feFlood flood-opacity="0" result="BackgroundImageFix"/>
        <feColorMatrix in="SourceAlpha" type="matrix" values="0 0 0 0 0 0 0 0 0 0 0 0 0 0 0 0 0 0 127 0" result="hardAlpha"/>
        <feOffset dx="0.455729" dy="2.73438"/>
        <feGaussianBlur stdDeviation="1.36719"/>
        <feComposite in2="hardAlpha" operator="out"/>
        <feColorMatrix type="matrix" values="0 0 0 0 0 0 0 0 0 0 0 0 0 0 0 0 0 0 0.25 0"/>
        <feBlend mode="normal" in2="BackgroundImageFix" result="effect1_dropShadow_765_92118"/>
        <feBlend mode="normal" in="SourceGraphic" in2="effect1_dropShadow_765_92118" result="shape"/>
      </filter>
      <linearGradient id="paint0_linear_765_92118" x1="164.974" y1="47.396" x2="175" y2="101.628" gradientUnits="userSpaceOnUse">
        <stop stop-color="white" stop-opacity="0.17"/>
        <stop offset="1" stop-color="#C3C3C3" stop-opacity="0"/>
      </linearGradient>
      <linearGradient id="paint1_linear_765_92118" x1="175" y1="293.49" x2="175" y2="226.953" gradientUnits="userSpaceOnUse">
        <stop offset="0.527397" stop-color="#6DF244"/>
        <stop offset="1" stop-color="#388E1D"/>
      </linearGradient>
      <linearGradient id="paint2_linear_765_92118" x1="164.974" y1="47.396" x2="175" y2="101.628" gradientUnits="userSpaceOnUse">
        <stop stop-color="white" stop-opacity="0.17"/>
        <stop offset="1" stop-color="#C3C3C3" stop-opacity="0"/>
      </linearGradient>
      <linearGradient id="paint3_linear_765_92118" x1="174.999" y1="293.49" x2="174.999" y2="226.953" gradientUnits="userSpaceOnUse">
        <stop offset="0.527397" stop-color="#6DF244"/>
        <stop offset="1" stop-color="#388E1D"/>
      </linearGradient>
      <linearGradient id="paint4_linear_765_92118" x1="144.01" y1="244.271" x2="144.01" y2="293.945" gradientUnits="userSpaceOnUse">
        <stop stop-color="#6CB835"/>
        <stop offset="0.40625" stop-color="#6CB835" stop-opacity="0"/>
      </linearGradient>
      <linearGradient id="paint5_linear_765_92118" x1="205.306" y1="244.271" x2="205.306" y2="293.945" gradientUnits="userSpaceOnUse">
        <stop stop-color="#6CB835"/>
        <stop offset="0.40625" stop-color="#6CB835" stop-opacity="0"/>
      </linearGradient>
      <linearGradient id="paint6_linear_765_92118" x1="206.217" y1="244.271" x2="206.217" y2="293.945" gradientUnits="userSpaceOnUse">
        <stop offset="0.541667" stop-color="#6CB835" stop-opacity="0"/>
        <stop offset="1" stop-color="#6CB835"/>
      </linearGradient>
      <radialGradient id="paint7_radial_765_92118" cx="0" cy="0" r="1" gradientUnits="userSpaceOnUse" gradientTransform="translate(217.185 256.975) rotate(79.0248) scale(5.68455 4.63752)">
        <stop stop-color="white" stop-opacity="0.75"/>
        <stop offset="1" stop-color="white" stop-opacity="0"/>
        <stop offset="1" stop-color="white"/>
      </radialGradient>
      <radialGradient id="paint8_radial_765_92118" cx="0" cy="0" r="1" gradientUnits="userSpaceOnUse" gradientTransform="translate(132.965 256.975) rotate(100.975) scale(5.68455 4.63752)">
        <stop stop-color="white" stop-opacity="0.75"/>
        <stop offset="1" stop-color="white" stop-opacity="0"/>
        <stop offset="1" stop-color="white"/>
      </radialGradient>
      <linearGradient id="paint9_linear_765_92118" x1="144.01" y1="244.271" x2="144.01" y2="293.945" gradientUnits="userSpaceOnUse">
        <stop offset="0.671875" stop-color="#6CB835" stop-opacity="0"/>
        <stop offset="1" stop-color="#6CB835"/>
      </linearGradient>
    </defs>
  
        </svg>
      