
        <svg width="350" height="350" viewBox="0 0 350 350" fill="none" xmlns="http://www.w3.org/2000/svg">
        
  <g clip-path="url(#clip0_28_290)">
  <rect x="0.0789795" y="0.0444336" width="350" height="350" fill="black" fill-opacity="0.89"/>
  <rect x="0.0789795" y="0.0444336" width="350" height="350" fill="url(#paint0_radial_28_290)" fill-opacity="0.2"/>
  <path d="M125.979 290.538L299.832 190.751L430.987 233.879L230.789 294.049L125.979 290.538Z" fill="url(#paint1_linear_28_290)"/>
  <g opacity="0.45" filter="url(#filter0_f_28_290)">
  <ellipse rx="194.596" ry="66.7643" transform="matrix(0.999998 0.00221055 0.00221055 -0.999998 176.078 304.637)" fill="url(#paint2_radial_28_290)"/>
  </g>
  <g opacity="0.7" filter="url(#filter1_f_28_290)">
  <ellipse cx="174.396" cy="137.609" rx="196.647" ry="242.448" transform="rotate(0.126655 174.396 137.609)" fill="url(#paint3_radial_28_290)"/>
  </g>
  </g>
  <defs>
  <filter id="filter0_f_28_290" x="-23.0754" y="233.314" width="398.306" height="142.646" filterUnits="userSpaceOnUse" color-interpolation-filters="sRGB">
  <feFlood flood-opacity="0" result="BackgroundImageFix"/>
  <feBlend mode="normal" in="SourceGraphic" in2="BackgroundImageFix" result="shape"/>
  <feGaussianBlur stdDeviation="2.27865" result="effect1_foregroundBlur_28_290"/>
  </filter>
  <filter id="filter1_f_28_290" x="-26.8086" y="-109.396" width="402.41" height="494.01" filterUnits="userSpaceOnUse" color-interpolation-filters="sRGB">
  <feFlood flood-opacity="0" result="BackgroundImageFix"/>
  <feBlend mode="normal" in="SourceGraphic" in2="BackgroundImageFix" result="shape"/>
  <feGaussianBlur stdDeviation="2.27865" result="effect1_foregroundBlur_28_290"/>
  </filter>
  <radialGradient id="paint0_radial_28_290" cx="0" cy="0" r="1" gradientUnits="userSpaceOnUse" gradientTransform="translate(156.622 401.542) rotate(-84.441) scale(239.93 241.682)">
  <stop/>
  <stop offset="1" stop-opacity="0"/>
  </radialGradient>
  <linearGradient id="paint1_linear_28_290" x1="194.836" y1="271.638" x2="316.537" y2="167.936" gradientUnits="userSpaceOnUse">
  <stop/>
  <stop offset="1" stop-color="#333333" stop-opacity="0"/>
  </linearGradient>
  <radialGradient id="paint2_radial_28_290" cx="0" cy="0" r="1" gradientUnits="userSpaceOnUse" gradientTransform="translate(194.596 76.624) rotate(99.1226) scale(43.9775 125.337)">
  <stop stop-color="#737373"/>
  <stop offset="1" stop-color="#9A9A9A" stop-opacity="0"/>
  </radialGradient>
  <radialGradient id="paint3_radial_28_290" cx="0" cy="0" r="1" gradientUnits="userSpaceOnUse" gradientTransform="translate(174.396 173.413) rotate(92.5586) scale(157.837 128.153)">
  <stop stop-color="#737373"/>
  <stop offset="1" stop-color="#9A9A9A" stop-opacity="0"/>
  </radialGradient>
  <clipPath id="clip0_28_290">
  <rect width="350" height="350" fill="white"/>
  </clipPath>
  </defs>
  
        
    <g filter="url(#filter0_d_765_92126)">
      <path d="M125.512 312.516C125.131 312.311 124.967 311.867 125.103 311.456L138.024 272.347C138.075 272.192 138.084 272.027 138.049 271.868L125.383 213.374C125.205 212.551 126.172 211.897 126.887 212.343C132.552 215.876 149.853 225.177 175 225.177C200.147 225.177 217.448 215.876 223.113 212.343C223.827 211.897 224.795 212.551 224.617 213.374L211.95 271.868C211.916 272.027 211.925 272.192 211.976 272.347L224.897 311.456C225.033 311.867 224.869 312.311 224.487 312.516C220.654 314.575 200.124 324.935 175 324.935C149.876 324.935 129.346 314.575 125.512 312.516Z" fill="#3A4B8C"/>
      <path d="M125.512 312.516C125.131 312.311 124.967 311.867 125.103 311.456L138.024 272.347C138.075 272.192 138.084 272.027 138.049 271.868L125.383 213.374C125.205 212.551 126.172 211.897 126.887 212.343C132.552 215.876 149.853 225.177 175 225.177C200.147 225.177 217.448 215.876 223.113 212.343C223.827 211.897 224.795 212.551 224.617 213.374L211.95 271.868C211.916 272.027 211.925 272.192 211.976 272.347L224.897 311.456C225.033 311.867 224.869 312.311 224.487 312.516C220.654 314.575 200.124 324.935 175 324.935C149.876 324.935 129.346 314.575 125.512 312.516Z" fill="url(#paint0_linear_765_92126)"/>
    </g>
    <g filter="url(#filter1_f_765_92126)">
      <mask id="mask0_765_92126" style="mask-type:alpha" maskUnits="userSpaceOnUse" x="123" y="211" width="102" height="115">
        <path d="M124.149 312.921C123.766 312.716 123.601 312.271 123.738 311.859L136.777 272.592C136.828 272.437 136.837 272.271 136.802 272.111L123.878 212.727C123.721 212.004 124.441 211.379 125.136 211.633C130.397 213.555 148.087 219.21 174.089 219.21C200.091 219.21 217.781 213.555 223.042 211.633C223.737 211.379 224.457 212.004 224.3 212.727L211.375 272.111C211.341 272.271 211.349 272.437 211.401 272.592L224.44 311.859C224.576 312.271 224.411 312.716 224.029 312.921C220.167 314.985 199.446 325.391 174.089 325.391C148.731 325.391 128.011 314.985 124.149 312.921Z" fill="#2D2E32"/>
        <path d="M124.149 312.921C123.766 312.716 123.601 312.271 123.738 311.859L136.777 272.592C136.828 272.437 136.837 272.271 136.802 272.111L123.878 212.727C123.721 212.004 124.441 211.379 125.136 211.633C130.397 213.555 148.087 219.21 174.089 219.21C200.091 219.21 217.781 213.555 223.042 211.633C223.737 211.379 224.457 212.004 224.3 212.727L211.375 272.111C211.341 272.271 211.349 272.437 211.401 272.592L224.44 311.859C224.576 312.271 224.411 312.716 224.029 312.921C220.167 314.985 199.446 325.391 174.089 325.391C148.731 325.391 128.011 314.985 124.149 312.921Z" fill="url(#paint1_linear_765_92126)"/>
      </mask>
      <g mask="url(#mask0_765_92126)">
        <g opacity="0.25" filter="url(#filter2_d_765_92126)">
          <path d="M72.917 273.328C168.029 276.031 230.125 228.043 249.284 203.711H72.917V273.328Z" fill="url(#paint2_linear_765_92126)" fill-opacity="0.55" shape-rendering="crispEdges"/>
        </g>
        <path opacity="0.25" d="M133.955 266.93C133.955 244.08 107.521 196.066 97.7304 174.839C104.257 172.553 120.64 169.353 133.955 174.839C150.598 181.697 156.221 243.968 160.137 262.582C163.27 277.473 139.176 326.692 133.955 347.266H68.3594C118.29 320.814 133.955 284.565 133.955 266.93Z" fill="url(#paint3_radial_765_92126)"/>
        <path opacity="0.25" d="M148.538 271.032C148.538 248.182 122.104 200.168 112.313 178.941C118.84 176.655 135.223 173.455 148.538 178.941C165.181 185.799 170.804 248.069 174.72 266.684C177.853 281.575 153.759 330.794 148.538 351.367H82.9424C132.873 324.916 148.538 288.667 148.538 271.032Z" fill="url(#paint4_radial_765_92126)"/>
      </g>
    </g>
    <path d="M175.438 324.935C200.391 324.935 220.781 314.575 224.588 312.516C224.967 312.311 225.13 311.867 224.995 311.456L212.162 272.347C212.111 272.193 212.102 272.027 212.137 271.868L224.855 212.729C224.996 212.073 224.422 211.5 223.799 211.587C224.208 211.319 224.531 211.098 224.765 210.934C225.053 210.732 225.182 210.382 225.111 210.036L201.398 93.6971C201.344 93.4301 201.176 93.2105 200.953 93.0845L195.58 55.4281C195.576 55.401 195.573 55.3743 195.57 55.3474C195.567 55.3263 195.565 55.3052 195.562 55.2837C195.47 54.6581 194.147 50.1304 175 50.1304L175.438 324.935Z" fill="#161A70" fill-opacity="0.1"/>
    <path d="M154.31 55.4586C154.32 55.3898 154.322 55.3228 154.328 55.2536C154.4 54.5259 155.624 50.1304 174.785 50.1304C194.296 50.1304 195.584 54.6884 195.668 55.2899C195.675 55.334 195.678 55.3772 195.684 55.4213L201.374 93.9919C201.411 94.2413 201.344 94.4919 201.167 94.6711C199.834 96.0182 193.192 101.628 175 101.628C156.807 101.628 150.165 96.0182 148.832 94.6711C148.655 94.4919 148.588 94.2413 148.625 93.9919L154.31 55.4586Z" fill="#3A4B8C"/>
    <path d="M154.31 55.4586C154.32 55.3898 154.322 55.3228 154.328 55.2536C154.4 54.5259 155.624 50.1304 174.785 50.1304C194.296 50.1304 195.584 54.6884 195.668 55.2899C195.675 55.334 195.678 55.3772 195.684 55.4213L201.374 93.9919C201.411 94.2413 201.344 94.4919 201.167 94.6711C199.834 96.0182 193.192 101.628 175 101.628C156.807 101.628 150.165 96.0182 148.832 94.6711C148.655 94.4919 148.588 94.2413 148.625 93.9919L154.31 55.4586Z" fill="url(#paint5_linear_765_92126)"/>
    <defs>
      <filter id="filter0_d_765_92126" x="122.777" y="212.198" width="105.357" height="118.206" filterUnits="userSpaceOnUse" color-interpolation-filters="sRGB">
        <feFlood flood-opacity="0" result="BackgroundImageFix"/>
        <feColorMatrix in="SourceAlpha" type="matrix" values="0 0 0 0 0 0 0 0 0 0 0 0 0 0 0 0 0 0 127 0" result="hardAlpha"/>
        <feOffset dx="0.455729" dy="2.73438"/>
        <feGaussianBlur stdDeviation="1.36719"/>
        <feComposite in2="hardAlpha" operator="out"/>
        <feColorMatrix type="matrix" values="0 0 0 0 0 0 0 0 0 0 0 0 0 0 0 0 0 0 0.25 0"/>
        <feBlend mode="normal" in2="BackgroundImageFix" result="effect1_dropShadow_765_92126"/>
        <feBlend mode="normal" in="SourceGraphic" in2="effect1_dropShadow_765_92126" result="shape"/>
      </filter>
      <filter id="filter1_f_765_92126" x="120.313" y="208.724" width="106.453" height="118.945" filterUnits="userSpaceOnUse" color-interpolation-filters="sRGB">
        <feFlood flood-opacity="0" result="BackgroundImageFix"/>
        <feBlend mode="normal" in="SourceGraphic" in2="BackgroundImageFix" result="shape"/>
        <feGaussianBlur stdDeviation="1.13932" result="effect1_foregroundBlur_765_92126"/>
      </filter>
      <filter id="filter2_d_765_92126" x="71.5498" y="203.255" width="179.102" height="72.4609" filterUnits="userSpaceOnUse" color-interpolation-filters="sRGB">
        <feFlood flood-opacity="0" result="BackgroundImageFix"/>
        <feColorMatrix in="SourceAlpha" type="matrix" values="0 0 0 0 0 0 0 0 0 0 0 0 0 0 0 0 0 0 127 0" result="hardAlpha"/>
        <feOffset dy="0.911458"/>
        <feGaussianBlur stdDeviation="0.683594"/>
        <feComposite in2="hardAlpha" operator="out"/>
        <feColorMatrix type="matrix" values="0 0 0 0 0 0 0 0 0 0 0 0 0 0 0 0 0 0 0.25 0"/>
        <feBlend mode="normal" in2="BackgroundImageFix" result="effect1_dropShadow_765_92126"/>
        <feBlend mode="normal" in="SourceGraphic" in2="effect1_dropShadow_765_92126" result="shape"/>
      </filter>
      <linearGradient id="paint0_linear_765_92126" x1="124.87" y1="211.003" x2="223.704" y2="280.267" gradientUnits="userSpaceOnUse">
        <stop stop-color="#EEEEEE" stop-opacity="0.79"/>
        <stop offset="1" stop-color="white" stop-opacity="0.17"/>
      </linearGradient>
      <linearGradient id="paint1_linear_765_92126" x1="123.503" y1="211.003" x2="241.342" y2="297.281" gradientUnits="userSpaceOnUse">
        <stop stop-color="#C3C3C3"/>
        <stop offset="1" stop-color="#C3C3C3" stop-opacity="0.15"/>
      </linearGradient>
      <linearGradient id="paint2_linear_765_92126" x1="203.504" y1="227.507" x2="112.603" y2="299.167" gradientUnits="userSpaceOnUse">
        <stop stop-color="white" stop-opacity="0"/>
        <stop offset="0.471361" stop-color="white"/>
        <stop offset="1" stop-color="white"/>
      </linearGradient>
      <radialGradient id="paint3_radial_765_92126" cx="0" cy="0" r="1" gradientUnits="userSpaceOnUse" gradientTransform="translate(122.541 265.349) rotate(79.4004) scale(83.3383 37.0268)">
        <stop stop-color="#F2F2F2"/>
        <stop offset="0.0001" stop-color="#F2F2F2"/>
        <stop offset="1" stop-color="#F2F2F2" stop-opacity="0"/>
      </radialGradient>
      <radialGradient id="paint4_radial_765_92126" cx="0" cy="0" r="1" gradientUnits="userSpaceOnUse" gradientTransform="translate(137.124 269.451) rotate(79.4004) scale(83.3383 37.0268)">
        <stop stop-color="#F2F2F2"/>
        <stop offset="0.0001" stop-color="#F2F2F2"/>
        <stop offset="1" stop-color="#F2F2F2" stop-opacity="0"/>
      </radialGradient>
      <linearGradient id="paint5_linear_765_92126" x1="151.708" y1="64.4697" x2="191.062" y2="112.496" gradientUnits="userSpaceOnUse">
        <stop stop-color="#ECECEC" stop-opacity="0.71"/>
        <stop offset="1" stop-color="#C3C3C3" stop-opacity="0.15"/>
      </linearGradient>
    </defs>
  
        </svg>
      