
        <svg width="350" height="350" viewBox="0 0 350 350" fill="none" xmlns="http://www.w3.org/2000/svg">
        
  <g clip-path="url(#clip0_28_290)">
  <rect x="0.0789795" y="0.0444336" width="350" height="350" fill="black" fill-opacity="0.89"/>
  <rect x="0.0789795" y="0.0444336" width="350" height="350" fill="url(#paint0_radial_28_290)" fill-opacity="0.2"/>
  <path d="M125.979 290.538L299.832 190.751L430.987 233.879L230.789 294.049L125.979 290.538Z" fill="url(#paint1_linear_28_290)"/>
  <g opacity="0.45" filter="url(#filter0_f_28_290)">
  <ellipse rx="194.596" ry="66.7643" transform="matrix(0.999998 0.00221055 0.00221055 -0.999998 176.078 304.637)" fill="url(#paint2_radial_28_290)"/>
  </g>
  <g opacity="0.7" filter="url(#filter1_f_28_290)">
  <ellipse cx="174.396" cy="137.609" rx="196.647" ry="242.448" transform="rotate(0.126655 174.396 137.609)" fill="url(#paint3_radial_28_290)"/>
  </g>
  </g>
  <defs>
  <filter id="filter0_f_28_290" x="-23.0754" y="233.314" width="398.306" height="142.646" filterUnits="userSpaceOnUse" color-interpolation-filters="sRGB">
  <feFlood flood-opacity="0" result="BackgroundImageFix"/>
  <feBlend mode="normal" in="SourceGraphic" in2="BackgroundImageFix" result="shape"/>
  <feGaussianBlur stdDeviation="2.27865" result="effect1_foregroundBlur_28_290"/>
  </filter>
  <filter id="filter1_f_28_290" x="-26.8086" y="-109.396" width="402.41" height="494.01" filterUnits="userSpaceOnUse" color-interpolation-filters="sRGB">
  <feFlood flood-opacity="0" result="BackgroundImageFix"/>
  <feBlend mode="normal" in="SourceGraphic" in2="BackgroundImageFix" result="shape"/>
  <feGaussianBlur stdDeviation="2.27865" result="effect1_foregroundBlur_28_290"/>
  </filter>
  <radialGradient id="paint0_radial_28_290" cx="0" cy="0" r="1" gradientUnits="userSpaceOnUse" gradientTransform="translate(156.622 401.542) rotate(-84.441) scale(239.93 241.682)">
  <stop/>
  <stop offset="1" stop-opacity="0"/>
  </radialGradient>
  <linearGradient id="paint1_linear_28_290" x1="194.836" y1="271.638" x2="316.537" y2="167.936" gradientUnits="userSpaceOnUse">
  <stop/>
  <stop offset="1" stop-color="#333333" stop-opacity="0"/>
  </linearGradient>
  <radialGradient id="paint2_radial_28_290" cx="0" cy="0" r="1" gradientUnits="userSpaceOnUse" gradientTransform="translate(194.596 76.624) rotate(99.1226) scale(43.9775 125.337)">
  <stop stop-color="#737373"/>
  <stop offset="1" stop-color="#9A9A9A" stop-opacity="0"/>
  </radialGradient>
  <radialGradient id="paint3_radial_28_290" cx="0" cy="0" r="1" gradientUnits="userSpaceOnUse" gradientTransform="translate(174.396 173.413) rotate(92.5586) scale(157.837 128.153)">
  <stop stop-color="#737373"/>
  <stop offset="1" stop-color="#9A9A9A" stop-opacity="0"/>
  </radialGradient>
  <clipPath id="clip0_28_290">
  <rect width="350" height="350" fill="white"/>
  </clipPath>
  </defs>
  
        
    <path d="M125.512 313.513C125.131 313.308 124.967 312.865 125.103 312.454L138.024 273.344C138.075 273.19 138.084 273.024 138.049 272.865L125.357 214.252C125.182 213.444 126.114 212.796 126.828 213.211C132.432 216.469 149.766 225.175 175 225.175C200.234 225.175 217.568 216.469 223.171 213.211C223.886 212.796 224.817 213.444 224.642 214.252L211.95 272.865C211.916 273.024 211.925 273.19 211.976 273.344L224.897 312.454C225.033 312.865 224.869 313.308 224.487 313.513C220.654 315.573 200.124 325.932 175 325.932C149.876 325.932 129.346 315.573 125.512 313.513Z" fill="url(#paint0_linear_765_92140)"/>
    <g filter="url(#filter0_f_765_92140)">
      <mask id="mask0_765_92140" style="mask-type:alpha" maskUnits="userSpaceOnUse" x="123" y="212" width="102" height="115">
        <path d="M124.149 313.918C123.766 313.713 123.601 313.268 123.738 312.856L136.776 273.59C136.828 273.435 136.837 273.268 136.802 273.109L123.878 213.724C123.72 213.001 124.441 212.376 125.136 212.63C130.397 214.552 148.086 220.207 174.088 220.207C200.091 220.207 217.78 214.552 223.041 212.63C223.736 212.376 224.456 213.001 224.299 213.724L211.375 273.109C211.34 273.268 211.349 273.435 211.4 273.59L224.439 312.856C224.576 313.268 224.411 313.713 224.028 313.918C220.167 315.982 199.446 326.388 174.088 326.388C148.731 326.388 128.01 315.982 124.149 313.918Z" fill="#2D2E32"/>
        <path d="M124.149 313.918C123.766 313.713 123.601 313.268 123.738 312.856L136.776 273.59C136.828 273.435 136.837 273.268 136.802 273.109L123.878 213.724C123.72 213.001 124.441 212.376 125.136 212.63C130.397 214.552 148.086 220.207 174.088 220.207C200.091 220.207 217.78 214.552 223.041 212.63C223.736 212.376 224.456 213.001 224.299 213.724L211.375 273.109C211.34 273.268 211.349 273.435 211.4 273.59L224.439 312.856C224.576 313.268 224.411 313.713 224.028 313.918C220.167 315.982 199.446 326.388 174.088 326.388C148.731 326.388 128.01 315.982 124.149 313.918Z" fill="url(#paint1_linear_765_92140)"/>
      </mask>
      <g mask="url(#mask0_765_92140)">
        <g opacity="0.25" filter="url(#filter1_df_765_92140)">
          <path d="M72.9165 274.325C168.029 277.029 230.125 229.041 249.284 204.708H72.9165V274.325Z" fill="url(#paint2_linear_765_92140)" fill-opacity="0.55" shape-rendering="crispEdges"/>
        </g>
        <path opacity="0.25" d="M133.955 267.928C133.955 245.078 107.521 197.063 97.7304 175.836C104.257 173.55 120.64 170.35 133.955 175.836C150.598 182.694 156.221 244.965 160.137 263.579C163.27 278.471 139.176 327.689 133.955 348.263H68.3594C118.29 321.811 133.955 285.562 133.955 267.928Z" fill="url(#paint3_radial_765_92140)"/>
        <path opacity="0.25" d="M148.538 272.029C148.538 249.179 122.104 201.165 112.314 179.938C118.841 177.652 135.223 174.452 148.538 179.938C165.182 186.796 170.804 249.067 174.72 267.681C177.853 282.572 153.76 331.791 148.538 352.364H82.9429C132.874 325.913 148.538 289.664 148.538 272.029Z" fill="url(#paint4_radial_765_92140)"/>
      </g>
    </g>
    <path d="M175.438 325.932C200.391 325.932 220.781 315.572 224.588 313.513C224.967 313.308 225.13 312.864 224.995 312.453L212.162 273.344C212.111 273.19 212.102 273.024 212.137 272.865L224.855 213.726C224.996 213.07 224.422 212.497 223.799 212.584C224.208 212.316 224.531 212.095 224.765 211.931C225.053 211.729 225.182 211.379 225.111 211.033L201.398 94.6942C201.344 94.4272 201.176 94.2075 200.953 94.0816L195.58 56.4252C195.576 56.398 195.573 56.3713 195.57 56.3445C195.567 56.3234 195.565 56.3022 195.562 56.2808C195.47 55.6551 194.147 51.1274 175 51.1274L175.438 325.932Z" fill="#161A70" fill-opacity="0.1"/>
    <path d="M154.31 56.4557C154.32 56.3869 154.322 56.3199 154.329 56.2507C154.4 55.523 155.625 51.1274 174.785 51.1274C194.297 51.1274 195.584 55.6855 195.669 56.287C195.675 56.331 195.678 56.3743 195.685 56.4183L201.375 94.989C201.412 95.2383 201.345 95.489 201.168 95.6681C199.835 97.0153 193.192 102.625 175 102.625C156.808 102.625 150.166 97.0153 148.833 95.6681C148.656 95.489 148.589 95.2383 148.626 94.989L154.31 56.4557Z" fill="url(#paint5_linear_765_92140)"/>
    <defs>
      <filter id="filter0_f_765_92140" x="120.313" y="209.721" width="106.452" height="118.945" filterUnits="userSpaceOnUse" color-interpolation-filters="sRGB">
        <feFlood flood-opacity="0" result="BackgroundImageFix"/>
        <feBlend mode="normal" in="SourceGraphic" in2="BackgroundImageFix" result="shape"/>
        <feGaussianBlur stdDeviation="1.13932" result="effect1_foregroundBlur_765_92140"/>
      </filter>
      <filter id="filter1_df_765_92140" x="71.5493" y="203.797" width="179.101" height="72.9167" filterUnits="userSpaceOnUse" color-interpolation-filters="sRGB">
        <feFlood flood-opacity="0" result="BackgroundImageFix"/>
        <feColorMatrix in="SourceAlpha" type="matrix" values="0 0 0 0 0 0 0 0 0 0 0 0 0 0 0 0 0 0 127 0" result="hardAlpha"/>
        <feOffset dy="0.911458"/>
        <feGaussianBlur stdDeviation="0.683594"/>
        <feComposite in2="hardAlpha" operator="out"/>
        <feColorMatrix type="matrix" values="0 0 0 0 0 0 0 0 0 0 0 0 0 0 0 0 0 0 0.25 0"/>
        <feBlend mode="normal" in2="BackgroundImageFix" result="effect1_dropShadow_765_92140"/>
        <feBlend mode="normal" in="SourceGraphic" in2="effect1_dropShadow_765_92140" result="shape"/>
        <feGaussianBlur stdDeviation="0.455729" result="effect2_foregroundBlur_765_92140"/>
      </filter>
      <linearGradient id="paint0_linear_765_92140" x1="138.997" y1="230.685" x2="231.147" y2="315.885" gradientUnits="userSpaceOnUse">
        <stop stop-color="#9A0404"/>
        <stop offset="0.473958" stop-color="#D80101" stop-opacity="0.98"/>
        <stop offset="1" stop-color="#FF8080" stop-opacity="0.98"/>
      </linearGradient>
      <linearGradient id="paint1_linear_765_92140" x1="123.502" y1="212" x2="241.341" y2="298.278" gradientUnits="userSpaceOnUse">
        <stop stop-color="#C3C3C3"/>
        <stop offset="1" stop-color="#C3C3C3" stop-opacity="0.15"/>
      </linearGradient>
      <linearGradient id="paint2_linear_765_92140" x1="203.503" y1="228.504" x2="112.603" y2="300.165" gradientUnits="userSpaceOnUse">
        <stop stop-color="white" stop-opacity="0"/>
        <stop offset="0.471361" stop-color="white"/>
        <stop offset="1" stop-color="white"/>
      </linearGradient>
      <radialGradient id="paint3_radial_765_92140" cx="0" cy="0" r="1" gradientUnits="userSpaceOnUse" gradientTransform="translate(122.541 266.347) rotate(79.4004) scale(83.3383 37.0268)">
        <stop stop-color="#F2F2F2"/>
        <stop offset="0.0001" stop-color="#F2F2F2"/>
        <stop offset="1" stop-color="#F2F2F2" stop-opacity="0"/>
      </radialGradient>
      <radialGradient id="paint4_radial_765_92140" cx="0" cy="0" r="1" gradientUnits="userSpaceOnUse" gradientTransform="translate(137.125 270.448) rotate(79.4004) scale(83.3383 37.0268)">
        <stop stop-color="#F2F2F2"/>
        <stop offset="0.0001" stop-color="#F2F2F2"/>
        <stop offset="1" stop-color="#F2F2F2" stop-opacity="0"/>
      </radialGradient>
      <linearGradient id="paint5_linear_765_92140" x1="156.017" y1="59.573" x2="197.678" y2="104.507" gradientUnits="userSpaceOnUse">
        <stop stop-color="#9A0404"/>
        <stop offset="0.473958" stop-color="#D80101" stop-opacity="0.98"/>
        <stop offset="1" stop-color="#FF8080" stop-opacity="0.98"/>
      </linearGradient>
    </defs>
  
        </svg>
      