
        <svg width="350" height="350" viewBox="0 0 350 350" fill="none" xmlns="http://www.w3.org/2000/svg">
        
  <g clip-path="url(#clip0_28_290)">
  <rect x="0.0789795" y="0.0444336" width="350" height="350" fill="black" fill-opacity="0.89"/>
  <rect x="0.0789795" y="0.0444336" width="350" height="350" fill="url(#paint0_radial_28_290)" fill-opacity="0.2"/>
  <path d="M125.979 290.538L299.832 190.751L430.987 233.879L230.789 294.049L125.979 290.538Z" fill="url(#paint1_linear_28_290)"/>
  <g opacity="0.45" filter="url(#filter0_f_28_290)">
  <ellipse rx="194.596" ry="66.7643" transform="matrix(0.999998 0.00221055 0.00221055 -0.999998 176.078 304.637)" fill="url(#paint2_radial_28_290)"/>
  </g>
  <g opacity="0.7" filter="url(#filter1_f_28_290)">
  <ellipse cx="174.396" cy="137.609" rx="196.647" ry="242.448" transform="rotate(0.126655 174.396 137.609)" fill="url(#paint3_radial_28_290)"/>
  </g>
  </g>
  <defs>
  <filter id="filter0_f_28_290" x="-23.0754" y="233.314" width="398.306" height="142.646" filterUnits="userSpaceOnUse" color-interpolation-filters="sRGB">
  <feFlood flood-opacity="0" result="BackgroundImageFix"/>
  <feBlend mode="normal" in="SourceGraphic" in2="BackgroundImageFix" result="shape"/>
  <feGaussianBlur stdDeviation="2.27865" result="effect1_foregroundBlur_28_290"/>
  </filter>
  <filter id="filter1_f_28_290" x="-26.8086" y="-109.396" width="402.41" height="494.01" filterUnits="userSpaceOnUse" color-interpolation-filters="sRGB">
  <feFlood flood-opacity="0" result="BackgroundImageFix"/>
  <feBlend mode="normal" in="SourceGraphic" in2="BackgroundImageFix" result="shape"/>
  <feGaussianBlur stdDeviation="2.27865" result="effect1_foregroundBlur_28_290"/>
  </filter>
  <radialGradient id="paint0_radial_28_290" cx="0" cy="0" r="1" gradientUnits="userSpaceOnUse" gradientTransform="translate(156.622 401.542) rotate(-84.441) scale(239.93 241.682)">
  <stop/>
  <stop offset="1" stop-opacity="0"/>
  </radialGradient>
  <linearGradient id="paint1_linear_28_290" x1="194.836" y1="271.638" x2="316.537" y2="167.936" gradientUnits="userSpaceOnUse">
  <stop/>
  <stop offset="1" stop-color="#333333" stop-opacity="0"/>
  </linearGradient>
  <radialGradient id="paint2_radial_28_290" cx="0" cy="0" r="1" gradientUnits="userSpaceOnUse" gradientTransform="translate(194.596 76.624) rotate(99.1226) scale(43.9775 125.337)">
  <stop stop-color="#737373"/>
  <stop offset="1" stop-color="#9A9A9A" stop-opacity="0"/>
  </radialGradient>
  <radialGradient id="paint3_radial_28_290" cx="0" cy="0" r="1" gradientUnits="userSpaceOnUse" gradientTransform="translate(174.396 173.413) rotate(92.5586) scale(157.837 128.153)">
  <stop stop-color="#737373"/>
  <stop offset="1" stop-color="#9A9A9A" stop-opacity="0"/>
  </radialGradient>
  <clipPath id="clip0_28_290">
  <rect width="350" height="350" fill="white"/>
  </clipPath>
  </defs>
  
        
    <g clip-path="url(#clip0_765_92137)">
      <g filter="url(#filter0_d_765_92137)">
        <path d="M147.435 222.635C147.227 221.75 145.978 221.676 145.655 222.526C135.558 249.089 116.921 275.654 115.808 336.227C115.789 337.264 117.242 337.496 117.578 336.515C131.89 294.71 145.73 278.768 159.921 281.901C160.612 282.054 161.267 281.445 161.105 280.756L147.435 222.635Z" fill="url(#paint0_linear_765_92137)"/>
        <path d="M202.566 222.635C202.774 221.75 204.023 221.676 204.346 222.526C214.443 249.089 233.08 275.654 234.193 336.227C234.212 337.264 232.759 337.496 232.423 336.515C218.111 294.71 204.271 278.768 190.08 281.901C189.389 282.054 188.734 281.445 188.896 280.756L202.566 222.635Z" fill="url(#paint1_linear_765_92137)"/>
        <path d="M125.85 212.153C125.102 211.745 124.173 212.483 124.422 213.298L137.224 255.13C137.229 255.145 137.227 255.142 137.233 255.158C137.416 255.656 153.267 298.585 175.001 298.585C196.734 298.585 212.585 255.656 212.769 255.158C212.774 255.142 212.773 255.145 212.777 255.13L225.58 213.298C225.829 212.483 224.9 211.745 224.152 212.153C218.252 215.37 200.597 223.639 175.001 223.639C149.405 223.639 131.749 215.37 125.85 212.153Z" fill="url(#paint2_linear_765_92137)"/>
        <path d="M175 224.319C175 223.37 176.245 223.066 176.665 223.916C189.647 250.183 192.092 280.871 192.252 339.858C192.255 340.921 190.945 341.085 190.745 340.041C187.346 322.297 188.497 304.065 175.217 288.113C175.079 287.948 175 287.737 175 287.522V224.319Z" fill="url(#paint3_linear_765_92137)"/>
      </g>
      <path d="M155.658 62.9373C159.112 49.9597 161.898 33.354 174.785 33.354C187.671 33.354 192.186 53.9144 194.341 63.2537C196.328 71.8582 200.673 91.76 201.344 94.8381C201.402 95.1026 201.335 95.364 201.145 95.5575C199.762 96.9692 193.094 102.625 175 102.625C156.85 102.625 150.197 96.9349 148.842 95.5448C148.659 95.3574 148.593 95.1047 148.642 94.8477C149.177 92.0409 152.493 74.8254 155.658 62.9373Z" fill="url(#paint4_linear_765_92137)"/>
    </g>
    <defs>
      <filter id="filter0_d_765_92137" x="113.529" y="212.038" width="123.854" height="134.176" filterUnits="userSpaceOnUse" color-interpolation-filters="sRGB">
        <feFlood flood-opacity="0" result="BackgroundImageFix"/>
        <feColorMatrix in="SourceAlpha" type="matrix" values="0 0 0 0 0 0 0 0 0 0 0 0 0 0 0 0 0 0 127 0" result="hardAlpha"/>
        <feOffset dx="0.455729" dy="2.73438"/>
        <feGaussianBlur stdDeviation="1.36719"/>
        <feComposite in2="hardAlpha" operator="out"/>
        <feColorMatrix type="matrix" values="0 0 0 0 0 0 0 0 0 0 0 0 0 0 0 0 0 0 0.25 0"/>
        <feBlend mode="normal" in2="BackgroundImageFix" result="effect1_dropShadow_765_92137"/>
        <feBlend mode="normal" in="SourceGraphic" in2="effect1_dropShadow_765_92137" result="shape"/>
      </filter>
      <linearGradient id="paint0_linear_765_92137" x1="161.473" y1="235.534" x2="93.991" y2="330.916" gradientUnits="userSpaceOnUse">
        <stop stop-color="#830101"/>
        <stop offset="0.979167" stop-color="#FF1818" stop-opacity="0.98"/>
      </linearGradient>
      <linearGradient id="paint1_linear_765_92137" x1="188.528" y1="235.534" x2="256.01" y2="330.916" gradientUnits="userSpaceOnUse">
        <stop stop-color="#830101"/>
        <stop offset="0.979167" stop-color="#FF1818" stop-opacity="0.98"/>
      </linearGradient>
      <linearGradient id="paint2_linear_765_92137" x1="175.001" y1="181.035" x2="155.557" y2="301.882" gradientUnits="userSpaceOnUse">
        <stop stop-color="#830101"/>
        <stop offset="0.979167" stop-color="#FF1818" stop-opacity="0.98"/>
      </linearGradient>
      <linearGradient id="paint3_linear_765_92137" x1="175" y1="237.065" x2="235.201" y2="268.272" gradientUnits="userSpaceOnUse">
        <stop stop-color="#830101"/>
        <stop offset="0.979167" stop-color="#FF1818" stop-opacity="0.98"/>
      </linearGradient>
      <linearGradient id="paint4_linear_765_92137" x1="175" y1="9.76609" x2="152.221" y2="102.08" gradientUnits="userSpaceOnUse">
        <stop stop-color="#830101"/>
        <stop offset="0.979167" stop-color="#FF1818" stop-opacity="0.98"/>
      </linearGradient>
      <clipPath id="clip0_765_92137">
        <rect width="350" height="350" fill="white" transform="translate(0 0.99707)"/>
      </clipPath>
    </defs>
  
        <path d="M148.717 94L125.019 208.98C124.948 209.324 125.078 209.673 125.367 209.873C128.479 212.027 147.033 224 175 224C202.967 224 221.521 212.027 224.633 209.873C224.922 209.673 225.052 209.324 224.981 208.98L201.283 94C201.249 94.0666 201.205 94.1285 201.15 94.1836C199.818 95.5241 193.18 101.106 175 101.106C156.82 101.106 150.182 95.5241 148.85 94.1836C148.795 94.1285 148.751 94.0666 148.717 94Z" fill="#FFFFFF" fill-opacity="0.75"/>;
        </svg>
      