
      <svg width="350" height="350" viewBox="0 0 350 350" fill="none" xmlns="http://www.w3.org/2000/svg">
      
  <g clip-path="url(#clip0_28_300)">
  <g filter="url(#filter0_f_28_300)">
  <rect x="350.08" y="350.045" width="350" height="350" transform="rotate(-180 350.08 350.045)" fill="#0E103E"/>
  </g>
  <g style="mix-blend-mode:overlay" filter="url(#filter1_f_28_300)">
  <ellipse rx="270.447" ry="92.7881" transform="matrix(0.999998 0.00221055 0.00221055 -0.999998 176.733 365.186)" fill="url(#paint0_radial_28_300)"/>
  </g>
  <g style="mix-blend-mode:overlay" filter="url(#filter2_f_28_300)">
  <ellipse cx="174.396" cy="133.051" rx="273.297" ry="336.951" transform="rotate(0.126655 174.396 133.051)" fill="url(#paint1_radial_28_300)"/>
  </g>
  <g opacity="0.6">
  <circle cx="21.3375" cy="78.6408" r="1.16688" fill="white"/>
  <circle cx="214.322" cy="248.224" r="1.16688" transform="rotate(165 214.322 248.224)" fill="white"/>
  <circle cx="325.548" cy="113.155" r="1.16688" transform="rotate(75 325.548 113.155)" fill="white"/>
  <circle cx="340.036" cy="124.932" r="1.16688" transform="rotate(75 340.036 124.932)" fill="white"/>
  <circle cx="322.718" cy="82.5488" r="1.16688" transform="rotate(75 322.718 82.5488)" fill="white"/>
  <circle cx="157.078" cy="146.729" r="1.16688" transform="rotate(75 157.078 146.729)" fill="white"/>
  <circle cx="266.453" cy="142.627" r="1.16688" transform="rotate(75 266.453 142.627)" fill="white"/>
  <circle cx="8.72079" cy="30.1401" r="1.16688" transform="rotate(75 8.72079 30.1401)" fill="white"/>
  <circle cx="64.4347" cy="118.315" r="1.16688" fill="white"/>
  <circle cx="162.425" cy="221.056" r="1.16688" transform="rotate(165 162.425 221.056)" fill="white"/>
  <circle cx="298.38" cy="165.052" r="1.16688" transform="rotate(75 298.38 165.052)" fill="white"/>
  <circle cx="129.91" cy="198.626" r="1.16688" transform="rotate(75 129.91 198.626)" fill="white"/>
  <circle cx="239.285" cy="194.524" r="1.16688" transform="rotate(75 239.285 194.524)" fill="white"/>
  <circle cx="40.5872" cy="93.8078" r="1.16688" transform="rotate(75 40.5872 93.8078)" fill="white"/>
  <circle cx="58.3666" cy="79.7299" r="1.16688" fill="white"/>
  <circle cx="178.273" cy="256.756" r="1.16688" transform="rotate(165 178.273 256.756)" fill="white"/>
  <circle cx="334.079" cy="149.204" r="1.16688" transform="rotate(75 334.079 149.204)" fill="white"/>
  <circle cx="165.609" cy="182.778" r="1.16688" transform="rotate(75 165.609 182.778)" fill="white"/>
  <circle cx="274.984" cy="178.677" r="1.16688" transform="rotate(75 274.984 178.677)" fill="white"/>
  <circle cx="294.007" cy="195.114" r="1.16688" transform="rotate(75 294.007 195.114)" fill="white"/>
  <circle cx="67.0543" cy="101.689" r="1.16688" transform="rotate(75 67.0543 101.689)" fill="white"/>
  <circle cx="17.2924" cy="169.813" r="1.16688" fill="white"/>
  <circle cx="194.632" cy="159.112" r="1.16688" transform="rotate(165 194.632 159.112)" fill="white"/>
  <circle cx="236.435" cy="132.845" r="1.16688" transform="rotate(75 236.435 132.845)" fill="white"/>
  <circle cx="67.9657" cy="166.419" r="1.16688" transform="rotate(75 67.9657 166.419)" fill="white"/>
  <circle cx="177.341" cy="162.317" r="1.16688" transform="rotate(75 177.341 162.317)" fill="white"/>
  <circle cx="3.44544" cy="159.7" r="1.16688" fill="white"/>
  <circle cx="210.625" cy="165.296" r="1.16688" transform="rotate(165 210.625 165.296)" fill="white"/>
  <circle cx="242.62" cy="116.852" r="1.16688" transform="rotate(75 242.62 116.852)" fill="white"/>
  <circle cx="74.15" cy="150.426" r="1.16688" transform="rotate(75 74.15 150.426)" fill="white"/>
  <circle cx="183.525" cy="146.325" r="1.16688" transform="rotate(75 183.525 146.325)" fill="white"/>
  <circle cx="52.2987" cy="174.792" r="1.16688" fill="white"/>
  <circle cx="59.5001" cy="192.117" r="1.16688" fill="white"/>
  <circle cx="159.53" cy="163.363" r="1.16688" transform="rotate(165 159.53 163.363)" fill="white"/>
  <circle cx="278.968" cy="303.578" r="1.16688" transform="rotate(75 278.968 303.578)" fill="white"/>
  <circle cx="72.2166" cy="201.521" r="1.16688" transform="rotate(75 72.2166 201.521)" fill="white"/>
  <circle cx="181.592" cy="197.419" r="1.16688" transform="rotate(75 181.592 197.419)" fill="white"/>
  <circle cx="9.20203" cy="90.7765" r="1.16688" fill="white"/>
  <circle cx="222.903" cy="233.361" r="1.16688" transform="rotate(165 222.903 233.361)" fill="white"/>
  <circle cx="310.685" cy="104.574" r="1.16688" transform="rotate(75 310.685 104.574)" fill="white"/>
  <circle cx="214.255" cy="306.768" r="1.16688" transform="rotate(75 214.255 306.768)" fill="white"/>
  <circle cx="251.59" cy="134.046" r="1.16688" transform="rotate(75 251.59 134.046)" fill="white"/>
  <circle cx="10.088" cy="12.3666" r="1.16688" transform="rotate(75 10.088 12.3666)" fill="white"/>
  <circle cx="320.177" cy="231.31" r="1.16688" fill="white"/>
  <circle cx="217.762" cy="208.162" r="1.16688" transform="rotate(165 217.762 208.162)" fill="white"/>
  <circle cx="216.989" cy="70.6999" r="1.16688" transform="rotate(75 216.989 70.6999)" fill="white"/>
  <circle cx="117.016" cy="143.289" r="1.16688" transform="rotate(75 117.016 143.289)" fill="white"/>
  <circle cx="226.39" cy="139.188" r="1.16688" transform="rotate(75 226.39 139.188)" fill="white"/>
  <circle cx="27.6927" cy="38.4716" r="1.16688" transform="rotate(75 27.6927 38.4716)" fill="white"/>
  <circle cx="23.6713" cy="121.893" r="1.16688" fill="white"/>
  <circle cx="200.874" cy="207.05" r="1.16688" transform="rotate(165 200.874 207.05)" fill="white"/>
  <circle cx="284.373" cy="126.604" r="1.16688" transform="rotate(75 284.373 126.604)" fill="white"/>
  <circle cx="13.734" cy="323.63" r="1.16688" transform="rotate(75 13.734 323.63)" fill="white"/>
  <circle cx="225.278" cy="156.076" r="1.16688" transform="rotate(75 225.278 156.076)" fill="white"/>
  <circle cx="26.5804" cy="55.3598" r="1.16688" transform="rotate(75 26.5804 55.3598)" fill="white"/>
  <circle cx="43.0939" cy="61.3231" r="1.16688" fill="white"/>
  <circle cx="49.4743" cy="27.1434" r="1.16688" fill="white"/>
  <circle cx="69.5263" cy="41.2709" r="1.16688" fill="white"/>
  <circle cx="81.3751" cy="11.1928" r="1.16688" fill="white"/>
  <circle cx="273.693" cy="83.6537" r="1.16688" fill="white"/>
  <circle cx="312.886" cy="35.8021" r="1.16688" fill="white"/>
  <circle cx="253.641" cy="54.9428" r="1.16688" fill="white"/>
  <circle cx="249.084" cy="29.422" r="1.16688" fill="white"/>
  <circle cx="167.052" cy="5.72401" r="1.16688" fill="white"/>
  <circle cx="133.784" cy="8.91419" r="1.16688" fill="white"/>
  <circle cx="136.063" cy="40.8153" r="1.16688" fill="white"/>
  <circle cx="90.4899" cy="71.8048" r="1.16688" fill="white"/>
  <circle cx="208.068" cy="17.5731" r="1.16688" fill="white"/>
  <circle cx="219.006" cy="47.1954" r="1.16688" fill="white"/>
  <circle cx="243.615" cy="90.0341" r="1.16688" fill="white"/>
  <circle cx="123.302" cy="71.8048" r="1.16688" fill="white"/>
  <circle cx="107.808" cy="96.4142" r="1.16688" fill="white"/>
  <circle cx="144.319" cy="266.498" r="1.16688" transform="rotate(165 144.319 266.498)" fill="white"/>
  <circle cx="343.821" cy="183.158" r="1.16688" transform="rotate(75 343.821 183.158)" fill="white"/>
  <circle cx="175.352" cy="216.731" r="1.16688" transform="rotate(75 175.352 216.731)" fill="white"/>
  <circle cx="284.727" cy="212.63" r="1.16688" transform="rotate(75 284.727 212.63)" fill="white"/>
  <circle cx="86.0289" cy="111.914" r="1.16688" transform="rotate(75 86.0289 111.914)" fill="white"/>
  <circle cx="9.37" cy="55.8544" r="1.16688" fill="white"/>
  <circle cx="126.226" cy="263.292" r="1.16688" transform="rotate(165 126.226 263.292)" fill="white"/>
  <circle cx="340.616" cy="201.251" r="1.16688" transform="rotate(75 340.616 201.251)" fill="white"/>
  <circle cx="114.45" cy="331.377" r="1.16688" transform="rotate(75 114.45 331.377)" fill="white"/>
  <circle cx="281.522" cy="230.723" r="1.16688" transform="rotate(75 281.522 230.723)" fill="white"/>
  <circle cx="308.135" cy="246.156" r="1.16688" transform="rotate(75 308.135 246.156)" fill="white"/>
  <circle cx="279.88" cy="253.903" r="1.16688" transform="rotate(75 279.88 253.903)" fill="white"/>
  <circle cx="239.775" cy="278.513" r="1.16688" transform="rotate(75 239.775 278.513)" fill="white"/>
  <circle cx="197.848" cy="185.088" r="1.16688" transform="rotate(75 197.848 185.088)" fill="white"/>
  <circle cx="144.984" cy="206.963" r="1.16688" transform="rotate(75 144.984 206.963)" fill="white"/>
  <circle cx="145.895" cy="244.333" r="1.16688" transform="rotate(75 145.895 244.333)" fill="white"/>
  <circle cx="93.9422" cy="209.697" r="1.16688" transform="rotate(75 93.9422 209.697)" fill="white"/>
  <circle cx="93.0309" cy="184.177" r="1.16688" transform="rotate(75 93.0309 184.177)" fill="white"/>
  <circle cx="82.8236" cy="130.007" r="1.16688" transform="rotate(75 82.8236 130.007)" fill="white"/>
  <circle cx="101.775" cy="130.295" r="1.16688" fill="white"/>
  <circle cx="123.257" cy="219.149" r="1.16688" transform="rotate(165 123.257 219.149)" fill="white"/>
  <circle cx="326.364" cy="266.208" r="1.16688" transform="rotate(75 326.364 266.208)" fill="white"/>
  <circle cx="313.604" cy="187.822" r="1.16688" transform="rotate(75 313.604 187.822)" fill="white"/>
  <circle cx="321.807" cy="169.593" r="1.16688" transform="rotate(75 321.807 169.593)" fill="white"/>
  <circle cx="285.348" cy="148.63" r="1.16688" transform="rotate(75 285.348 148.63)" fill="white"/>
  <circle cx="329.098" cy="322.718" r="1.16688" transform="rotate(75 329.098 322.718)" fill="white"/>
  <circle cx="255.726" cy="157.744" r="1.16688" transform="rotate(75 255.726 157.744)" fill="white"/>
  <circle cx="337.757" cy="91.2077" r="1.16688" transform="rotate(75 337.757 91.2077)" fill="white"/>
  <circle cx="341.403" cy="69.3327" r="1.16688" transform="rotate(75 341.403 69.3327)" fill="white"/>
  <circle cx="128.003" cy="237.794" r="1.16688" transform="rotate(75 128.003 237.794)" fill="white"/>
  <circle cx="237.378" cy="233.693" r="1.16688" transform="rotate(75 237.378 233.693)" fill="white"/>
  <circle cx="247.067" cy="216.533" r="1.16688" transform="rotate(75 247.067 216.533)" fill="white"/>
  <circle cx="221.546" cy="184.632" r="1.16688" transform="rotate(75 221.546 184.632)" fill="white"/>
  <circle cx="38.68" cy="132.976" r="1.16688" transform="rotate(75 38.68 132.976)" fill="white"/>
  <circle cx="46.7399" cy="342.052" r="1.16688" fill="white"/>
  <circle cx="131.026" cy="187.43" r="1.16688" transform="rotate(165 131.026 187.43)" fill="white"/>
  <circle cx="264.754" cy="196.451" r="1.16688" transform="rotate(75 264.754 196.451)" fill="white"/>
  <circle cx="96.2838" cy="230.025" r="1.16688" transform="rotate(75 96.2838 230.025)" fill="white"/>
  <circle cx="205.659" cy="225.923" r="1.16688" transform="rotate(75 205.659 225.923)" fill="white"/>
  <circle cx="269.398" cy="336.846" r="1.16688" transform="rotate(75 269.398 336.846)" fill="white"/>
  <circle cx="79.837" cy="172.925" r="1.16688" fill="white"/>
  <circle cx="133.413" cy="172.294" r="1.16688" transform="rotate(165 133.413 172.294)" fill="white"/>
  <circle cx="249.617" cy="194.064" r="1.16688" transform="rotate(75 249.617 194.064)" fill="white"/>
  <circle cx="81.1476" cy="227.638" r="1.16688" transform="rotate(75 81.1476 227.638)" fill="white"/>
  <circle cx="190.523" cy="223.536" r="1.16688" transform="rotate(75 190.523 223.536)" fill="white"/>
  <circle cx="105.664" cy="158.611" r="1.16688" fill="white"/>
  <circle cx="112.171" cy="192.804" r="1.16688" transform="rotate(165 112.171 192.804)" fill="white"/>
  <circle cx="270.128" cy="215.306" r="1.16688" transform="rotate(75 270.128 215.306)" fill="white"/>
  <circle cx="101.658" cy="248.879" r="1.16688" transform="rotate(75 101.658 248.879)" fill="white"/>
  <circle cx="211.033" cy="244.778" r="1.16688" transform="rotate(75 211.033 244.778)" fill="white"/>
  <circle cx="12.335" cy="144.062" r="1.16688" transform="rotate(75 12.335 144.062)" fill="white"/>
  <path d="M255.397 175.377L254.977 174.242L253.841 173.821L254.977 173.401L255.397 172.266L255.818 173.401L256.953 173.821L255.818 174.242L255.397 175.377Z" fill="#FFF7B0"/>
  <path d="M88.8035 163.528L88.3833 162.393L87.2477 161.972L88.3833 161.552L88.8035 160.417L89.2238 161.552L90.3594 161.972L89.2238 162.393L88.8035 163.528Z" fill="#FFF7B0"/>
  <path d="M53.7122 68.2808L53.292 67.1451L52.1564 66.7249L53.292 66.3047L53.7122 65.1691L54.1324 66.3047L55.2681 66.7249L54.1324 67.1451L53.7122 68.2808Z" fill="#FFF7B0"/>
  <path d="M339.252 47.7729L338.831 46.6373L337.696 46.2171L338.831 45.7969L339.252 44.6613L339.672 45.7969L340.807 46.2171L339.672 46.6373L339.252 47.7729Z" fill="#FFF7B0"/>
  <path d="M239.907 220.862L239.487 219.726L238.351 219.306L239.487 218.886L239.907 217.75L240.327 218.886L241.463 219.306L240.327 219.726L239.907 220.862Z" fill="#FFF7B0"/>
  <path d="M80.4019 217.672L79.9817 216.536L78.8461 216.116L79.9817 215.695L80.4019 214.56L80.8221 215.695L81.9578 216.116L80.8221 216.536L80.4019 217.672Z" fill="#FFF7B0"/>
  <path d="M45.3109 122.424L44.8906 121.289L43.755 120.868L44.8906 120.448L45.3109 119.313L45.7311 120.448L46.8667 120.868L45.7311 121.289L45.3109 122.424Z" fill="#FFF7B0"/>
  <path d="M288.214 116.5L287.794 115.364L286.659 114.944L287.794 114.524L288.214 113.388L288.635 114.524L289.77 114.944L288.635 115.364L288.214 116.5Z" fill="#FFF7B0"/>
  <path d="M250.642 205.148L250.222 204.012L249.087 203.592L250.222 203.172L250.642 202.036L251.063 203.172L252.198 203.592L251.063 204.012L250.642 205.148Z" fill="#FFF7B0"/>
  <path d="M91.137 201.958L90.7168 200.822L89.5812 200.402L90.7168 199.981L91.137 198.846L91.5573 199.981L92.6929 200.402L91.5573 200.822L91.137 201.958Z" fill="#FFF7B0"/>
  <path d="M56.046 106.71L55.6258 105.575L54.4901 105.154L55.6258 104.734L56.046 103.599L56.4662 104.734L57.6018 105.154L56.4662 105.575L56.046 106.71Z" fill="#FFF7B0"/>
  <path d="M298.95 100.786L298.529 99.65L297.394 99.2298L298.529 98.8096L298.95 97.674L299.37 98.8096L300.505 99.2298L299.37 99.65L298.95 100.786Z" fill="#FFF7B0"/>
  <path d="M248.308 243.577L247.888 242.441L246.753 242.021L247.888 241.601L248.308 240.465L248.729 241.601L249.864 242.021L248.729 242.441L248.308 243.577Z" fill="#FFF7B0"/>
  <path d="M270.892 243.737L270.472 242.601L269.336 242.181L270.472 241.761L270.892 240.625L271.312 241.761L272.448 242.181L271.312 242.601L270.892 243.737Z" fill="#FFF7B0"/>
  <path d="M254.486 258.32L254.066 257.184L252.93 256.764L254.066 256.344L254.486 255.208L254.906 256.344L256.042 256.764L254.906 257.184L254.486 258.32Z" fill="#FFF7B0"/>
  <path d="M88.8035 240.387L88.3833 239.251L87.2477 238.831L88.3833 238.411L88.8035 237.275L89.2238 238.411L90.3594 238.831L89.2238 239.251L88.8035 240.387Z" fill="#FFF7B0"/>
  <path d="M53.7122 145.139L53.292 144.004L52.1564 143.584L53.292 143.163L53.7122 142.028L54.1324 143.163L55.2681 143.584L54.1324 144.004L53.7122 145.139Z" fill="#FFF7B0"/>
  <path d="M296.616 139.215L296.195 138.079L295.06 137.659L296.195 137.239L296.616 136.103L297.036 137.239L298.171 137.659L297.036 138.079L296.616 139.215Z" fill="#FFF7B0"/>
  <path d="M161.316 310.328L160.581 308.341L158.594 307.605L160.581 306.87L161.316 304.883L162.052 306.87L164.039 307.605L162.052 308.341L161.316 310.328Z" fill="#FFF7B0"/>
  <path d="M110.663 247.232L109.927 245.245L107.94 244.51L109.927 243.774L110.663 241.787L111.398 243.774L113.385 244.51L111.398 245.245L110.663 247.232Z" fill="#FFF7B0"/>
  <path d="M91.1342 146.721L90.3988 144.734L88.4115 143.999L90.3988 143.263L91.1342 141.276L91.8696 143.263L93.8569 143.999L91.8696 144.734L91.1342 146.721Z" fill="#FFF7B0"/>
  <path d="M98.4257 43.7266L97.6903 41.7392L95.703 41.0038L97.6903 40.2685L98.4257 38.2811L99.1611 40.2685L101.148 41.0038L99.1611 41.7392L98.4257 43.7266Z" fill="#FFF7B0"/>
  <path d="M311.251 209.612L310.516 207.625L308.529 206.889L310.516 206.154L311.251 204.167L311.987 206.154L313.974 206.889L311.987 207.625L311.251 209.612Z" fill="#FFF7B0"/>
  <path d="M221.315 199.391L220.579 197.404L218.592 196.668L220.579 195.933L221.315 193.946L222.05 195.933L224.037 196.668L222.05 197.404L221.315 199.391Z" fill="#FFF7B0"/>
  <path d="M65.6132 303.492L64.8778 301.505L62.8905 300.769L64.8778 300.034L65.6132 298.047L66.3486 300.034L68.3359 300.769L66.3486 301.505L65.6132 303.492Z" fill="#FFF7B0"/>
  <path d="M26.7184 100.953L25.9831 98.966L23.9957 98.2307L25.9831 97.4953L26.7184 95.5079L27.4538 97.4953L29.4412 98.2307L27.4538 98.966L26.7184 100.953Z" fill="#FFF7B0"/>
  <path d="M301.681 86.1096L300.946 84.1223L298.958 83.3869L300.946 82.6515L301.681 80.6642L302.416 82.6515L304.404 83.3869L302.416 84.1223L301.681 86.1096Z" fill="#FFF7B0"/>
  <path d="M287.098 50.5627L286.362 48.5754L284.375 47.84L286.362 47.1046L287.098 45.1173L287.833 47.1046L289.82 47.84L287.833 48.5754L287.098 50.5627Z" fill="#FFF7B0"/>
  <path d="M335.861 5.90088L335.125 3.91354L333.138 3.17816L335.125 2.44278L335.861 0.455448L336.596 2.44278L338.583 3.17816L336.596 3.91354L335.861 5.90088Z" fill="#FFF7B0"/>
  <path d="M264.723 228.33L263.987 226.342L262 225.607L263.987 224.871L264.723 222.884L265.458 224.871L267.445 225.607L265.458 226.342L264.723 228.33Z" fill="#FFF7B0"/>
  <path d="M292.111 267.49L291.375 265.502L289.388 264.767L291.375 264.032L292.111 262.044L292.846 264.032L294.833 264.767L292.846 265.502L292.111 267.49Z" fill="#FFF7B0"/>
  <path d="M264.767 284.807L264.032 282.82L262.044 282.085L264.032 281.349L264.767 279.362L265.502 281.349L267.49 282.085L265.502 282.82L264.767 284.807Z" fill="#FFF7B0"/>
  <path d="M105.217 225.14L104.482 223.152L102.495 222.417L104.482 221.681L105.217 219.694L105.953 221.681L107.94 222.417L105.953 223.152L105.217 225.14Z" fill="#FFF7B0"/>
  <path d="M16.3945 261.109L15.6591 259.122L13.6718 258.387L15.6591 257.651L16.3945 255.664L17.1299 257.651L19.1172 258.387L17.1299 259.122L16.3945 261.109Z" fill="#FFF7B0"/>
  <path d="M313.03 123.968L312.295 121.98L310.307 121.245L312.295 120.509L313.03 118.522L313.765 120.509L315.753 121.245L313.765 121.98L313.03 123.968Z" fill="#FFF7B0"/>
  <path d="M280.125 170.608L279.39 168.621L277.402 167.885L279.39 167.15L280.125 165.163L280.861 167.15L282.848 167.885L280.861 168.621L280.125 170.608Z" fill="#FFF7B0"/>
  <path d="M232.41 175.888L231.675 173.901L229.687 173.165L231.675 172.43L232.41 170.443L233.145 172.43L235.133 173.165L233.145 173.901L232.41 175.888Z" fill="#FFF7B0"/>
  <path d="M29.155 236.044L28.4196 234.057L26.4323 233.322L28.4196 232.586L29.155 230.599L29.8904 232.586L31.8777 233.322L29.8904 234.057L29.155 236.044Z" fill="#FFF7B0"/>
  <path d="M73.8163 273.414L73.081 271.427L71.0936 270.691L73.081 269.956L73.8163 267.969L74.5517 269.956L76.5391 270.691L74.5517 271.427L73.8163 273.414Z" fill="#FFF7B0"/>
  <path d="M37.8255 287.109L36.2254 282.785L31.901 281.185L36.2254 279.585L37.8255 275.26L39.4257 279.585L43.75 281.185L39.4257 282.785L37.8255 287.109Z" fill="#FFF7B0"/>
  <path d="M114.844 25.9766L113.244 21.6522L108.919 20.0521L113.244 18.4519L114.844 14.1276L116.444 18.4519L120.768 20.0521L116.444 21.6522L114.844 25.9766Z" fill="#FFF7B0"/>
  <path d="M313.997 154.948L312.397 150.623L308.073 149.023L312.397 147.423L313.997 143.099L315.598 147.423L319.922 149.023L315.598 150.623L313.997 154.948Z" fill="#FFF7B0"/>
  <path d="M121.668 298.023L120.933 296.036L118.945 295.301L120.933 294.565L121.668 292.578L122.403 294.565L124.391 295.301L122.403 296.036L121.668 298.023Z" fill="#FFF7B0"/>
  <path d="M36.4467 185.914L35.7113 183.927L33.724 183.191L35.7113 182.456L36.4467 180.469L37.1821 182.456L39.1694 183.191L37.1821 183.927L36.4467 185.914Z" fill="#FFF7B0"/>
  <path d="M328.433 66.2458L327.697 64.2585L325.71 63.5231L327.697 62.7878L328.433 60.8004L329.168 62.7878L331.155 63.5231L329.168 64.2585L328.433 66.2458Z" fill="#FFF7B0"/>
  <path d="M280.262 19.1172L279.526 17.1299L277.539 16.3945L279.526 15.6591L280.262 13.6718L280.997 15.6591L282.984 16.3945L280.997 17.1299L280.262 19.1172Z" fill="#FFF7B0"/>
  <path d="M227.461 250.423L227.04 249.287L225.905 248.867L227.04 248.447L227.461 247.311L227.881 248.447L229.016 248.867L227.881 249.287L227.461 250.423Z" fill="#FFF7B0"/>
  <path d="M67.9554 247.232L67.5352 246.097L66.3996 245.677L67.5352 245.256L67.9554 244.121L68.3756 245.256L69.5112 245.677L68.3756 246.097L67.9554 247.232Z" fill="#FFF7B0"/>
  <path d="M32.8641 151.985L32.4439 150.849L31.3082 150.429L32.4439 150.009L32.8641 148.873L33.2843 150.009L34.4199 150.429L33.2843 150.849L32.8641 151.985Z" fill="#FFF7B0"/>
  <path d="M275.768 146.061L275.348 144.925L274.212 144.505L275.348 144.084L275.768 142.949L276.188 144.084L277.324 144.505L276.188 144.925L275.768 146.061Z" fill="#FFF7B0"/>
  <path d="M210.657 227.396L210.237 226.261L209.101 225.84L210.237 225.42L210.657 224.285L211.078 225.42L212.213 225.84L211.078 226.261L210.657 227.396Z" fill="#FFF7B0"/>
  <path d="M51.1519 224.206L50.7317 223.07L49.5961 222.65L50.7317 222.23L51.1519 221.094L51.5721 222.23L52.7078 222.65L51.5721 223.07L51.1519 224.206Z" fill="#FFF7B0"/>
  <path d="M196.152 340.807L195.732 339.671L194.597 339.251L195.732 338.831L196.152 337.695L196.573 338.831L197.708 339.251L196.573 339.671L196.152 340.807Z" fill="#FFF7B0"/>
  <path d="M258.964 123.034L258.544 121.899L257.409 121.478L258.544 121.058L258.964 119.923L259.385 121.058L260.52 121.478L259.385 121.899L258.964 123.034Z" fill="#FFF7B0"/>
  <path d="M249.473 297.057L249.053 295.921L247.917 295.501L249.053 295.081L249.473 293.945L249.893 295.081L251.029 295.501L249.893 295.921L249.473 297.057Z" fill="#FFF7B0"/>
  <path d="M48.0406 263.102L47.6204 261.966L46.4848 261.546L47.6204 261.126L48.0406 259.99L48.4608 261.126L49.5964 261.546L48.4608 261.966L48.0406 263.102Z" fill="#FFF7B0"/>
  <path d="M15.6837 205.911L15.2634 204.776L14.1278 204.355L15.2634 203.935L15.6837 202.799L16.1039 203.935L17.2395 204.355L16.1039 204.776L15.6837 205.911Z" fill="#FFF7B0"/>
  <path d="M266.791 160.338L266.37 159.203L265.235 158.782L266.37 158.362L266.791 157.226L267.211 158.362L268.346 158.782L267.211 159.203L266.791 160.338Z" fill="#FFF7B0"/>
  </g>
  </g>
  <defs>
  <filter id="filter0_f_28_300" x="-1.74333" y="-1.77824" width="353.646" height="353.646" filterUnits="userSpaceOnUse" color-interpolation-filters="sRGB">
  <feFlood flood-opacity="0" result="BackgroundImageFix"/>
  <feBlend mode="normal" in="SourceGraphic" in2="BackgroundImageFix" result="shape"/>
  <feGaussianBlur stdDeviation="0.911458" result="effect1_foregroundBlur_28_300"/>
  </filter>
  <filter id="filter1_f_28_300" x="-98.2707" y="267.838" width="550.008" height="194.694" filterUnits="userSpaceOnUse" color-interpolation-filters="sRGB">
  <feFlood flood-opacity="0" result="BackgroundImageFix"/>
  <feBlend mode="normal" in="SourceGraphic" in2="BackgroundImageFix" result="shape"/>
  <feGaussianBlur stdDeviation="2.27865" result="effect1_foregroundBlur_28_300"/>
  </filter>
  <filter id="filter2_f_28_300" x="-103.459" y="-208.456" width="555.71" height="683.015" filterUnits="userSpaceOnUse" color-interpolation-filters="sRGB">
  <feFlood flood-opacity="0" result="BackgroundImageFix"/>
  <feBlend mode="normal" in="SourceGraphic" in2="BackgroundImageFix" result="shape"/>
  <feGaussianBlur stdDeviation="2.27865" result="effect1_foregroundBlur_28_300"/>
  </filter>
  <radialGradient id="paint0_radial_28_300" cx="0" cy="0" r="1" gradientUnits="userSpaceOnUse" gradientTransform="translate(270.447 106.491) rotate(99.1226) scale(61.1193 174.192)">
  <stop stop-color="white" stop-opacity="0.75"/>
  <stop offset="1" stop-color="white" stop-opacity="0"/>
  </radialGradient>
  <radialGradient id="paint1_radial_28_300" cx="0" cy="0" r="1" gradientUnits="userSpaceOnUse" gradientTransform="translate(174.396 182.812) rotate(92.5586) scale(219.36 178.105)">
  <stop stop-color="white" stop-opacity="0.75"/>
  <stop offset="1" stop-color="white" stop-opacity="0"/>
  </radialGradient>
  <clipPath id="clip0_28_300">
  <rect width="350" height="350" fill="white"/>
  </clipPath>
  </defs>
      </svg>
    