
        <svg width="350" height="350" viewBox="0 0 350 350" fill="none" xmlns="http://www.w3.org/2000/svg">
        
  <g clip-path="url(#clip0_28_290)">
  <rect x="0.0789795" y="0.0444336" width="350" height="350" fill="black" fill-opacity="0.89"/>
  <rect x="0.0789795" y="0.0444336" width="350" height="350" fill="url(#paint0_radial_28_290)" fill-opacity="0.2"/>
  <path d="M125.979 290.538L299.832 190.751L430.987 233.879L230.789 294.049L125.979 290.538Z" fill="url(#paint1_linear_28_290)"/>
  <g opacity="0.45" filter="url(#filter0_f_28_290)">
  <ellipse rx="194.596" ry="66.7643" transform="matrix(0.999998 0.00221055 0.00221055 -0.999998 176.078 304.637)" fill="url(#paint2_radial_28_290)"/>
  </g>
  <g opacity="0.7" filter="url(#filter1_f_28_290)">
  <ellipse cx="174.396" cy="137.609" rx="196.647" ry="242.448" transform="rotate(0.126655 174.396 137.609)" fill="url(#paint3_radial_28_290)"/>
  </g>
  </g>
  <defs>
  <filter id="filter0_f_28_290" x="-23.0754" y="233.314" width="398.306" height="142.646" filterUnits="userSpaceOnUse" color-interpolation-filters="sRGB">
  <feFlood flood-opacity="0" result="BackgroundImageFix"/>
  <feBlend mode="normal" in="SourceGraphic" in2="BackgroundImageFix" result="shape"/>
  <feGaussianBlur stdDeviation="2.27865" result="effect1_foregroundBlur_28_290"/>
  </filter>
  <filter id="filter1_f_28_290" x="-26.8086" y="-109.396" width="402.41" height="494.01" filterUnits="userSpaceOnUse" color-interpolation-filters="sRGB">
  <feFlood flood-opacity="0" result="BackgroundImageFix"/>
  <feBlend mode="normal" in="SourceGraphic" in2="BackgroundImageFix" result="shape"/>
  <feGaussianBlur stdDeviation="2.27865" result="effect1_foregroundBlur_28_290"/>
  </filter>
  <radialGradient id="paint0_radial_28_290" cx="0" cy="0" r="1" gradientUnits="userSpaceOnUse" gradientTransform="translate(156.622 401.542) rotate(-84.441) scale(239.93 241.682)">
  <stop/>
  <stop offset="1" stop-opacity="0"/>
  </radialGradient>
  <linearGradient id="paint1_linear_28_290" x1="194.836" y1="271.638" x2="316.537" y2="167.936" gradientUnits="userSpaceOnUse">
  <stop/>
  <stop offset="1" stop-color="#333333" stop-opacity="0"/>
  </linearGradient>
  <radialGradient id="paint2_radial_28_290" cx="0" cy="0" r="1" gradientUnits="userSpaceOnUse" gradientTransform="translate(194.596 76.624) rotate(99.1226) scale(43.9775 125.337)">
  <stop stop-color="#737373"/>
  <stop offset="1" stop-color="#9A9A9A" stop-opacity="0"/>
  </radialGradient>
  <radialGradient id="paint3_radial_28_290" cx="0" cy="0" r="1" gradientUnits="userSpaceOnUse" gradientTransform="translate(174.396 173.413) rotate(92.5586) scale(157.837 128.153)">
  <stop stop-color="#737373"/>
  <stop offset="1" stop-color="#9A9A9A" stop-opacity="0"/>
  </radialGradient>
  <clipPath id="clip0_28_290">
  <rect width="350" height="350" fill="white"/>
  </clipPath>
  </defs>
  
        
    <g filter="url(#filter0_d_765_92136)">
      <path d="M148.427 221.637C148.218 220.751 146.97 220.677 146.647 221.527C136.55 248.09 117.913 274.654 116.8 335.227C116.781 336.265 118.234 336.496 118.57 335.515C132.882 293.71 146.722 277.769 160.912 280.902C161.603 281.055 162.258 280.445 162.096 279.756L148.427 221.637Z" fill="url(#paint0_linear_765_92136)"/>
      <path d="M203.558 221.637C203.766 220.751 205.014 220.677 205.337 221.527C215.435 248.09 234.071 274.654 235.184 335.227C235.203 336.265 233.75 336.496 233.414 335.515C219.102 293.71 205.262 277.769 191.072 280.902C190.381 281.055 189.726 280.445 189.888 279.756L203.558 221.637Z" fill="url(#paint1_linear_765_92136)"/>
      <path d="M126.842 211.154C126.094 210.746 125.165 211.484 125.414 212.299L138.216 254.13C138.221 254.146 138.219 254.143 138.225 254.158C138.408 254.656 154.259 297.585 175.993 297.585C197.726 297.585 213.577 254.656 213.76 254.158C213.766 254.143 213.764 254.146 213.769 254.13L226.571 212.299C226.82 211.484 225.891 210.746 225.143 211.154C219.244 214.371 201.589 222.64 175.993 222.64C150.397 222.64 132.741 214.371 126.842 211.154Z" fill="url(#paint2_linear_765_92136)"/>
      <path d="M175.993 223.32C175.993 222.371 177.237 222.067 177.657 222.917C190.639 249.183 193.084 279.872 193.244 338.858C193.247 339.921 191.937 340.085 191.737 339.041C188.338 321.297 189.489 303.065 176.209 287.114C176.071 286.948 175.993 286.738 175.993 286.523V223.32Z" fill="url(#paint3_linear_765_92136)"/>
    </g>
    <path d="M156.651 61.9395C160.105 48.962 162.892 32.3564 175.778 32.3564C188.664 32.3564 193.178 52.9167 195.334 62.2559C197.32 70.8603 201.665 90.7619 202.337 93.84C202.395 94.1046 202.327 94.3659 202.138 94.5594C200.755 95.9711 194.087 101.627 175.993 101.627C157.844 101.627 151.19 95.9368 149.835 94.5467C149.652 94.3593 149.586 94.1066 149.635 93.8496C150.17 91.0428 153.487 73.8275 156.651 61.9395Z" fill="url(#paint4_linear_765_92136)"/>
    <defs>
      <filter id="filter0_d_765_92136" x="114.521" y="211.038" width="123.853" height="134.175" filterUnits="userSpaceOnUse" color-interpolation-filters="sRGB">
        <feFlood flood-opacity="0" result="BackgroundImageFix"/>
        <feColorMatrix in="SourceAlpha" type="matrix" values="0 0 0 0 0 0 0 0 0 0 0 0 0 0 0 0 0 0 127 0" result="hardAlpha"/>
        <feOffset dx="0.455725" dy="2.73435"/>
        <feGaussianBlur stdDeviation="1.36718"/>
        <feComposite in2="hardAlpha" operator="out"/>
        <feColorMatrix type="matrix" values="0 0 0 0 0 0 0 0 0 0 0 0 0 0 0 0 0 0 0.25 0"/>
        <feBlend mode="normal" in2="BackgroundImageFix" result="effect1_dropShadow_765_92136"/>
        <feBlend mode="normal" in="SourceGraphic" in2="effect1_dropShadow_765_92136" result="shape"/>
      </filter>
      <linearGradient id="paint0_linear_765_92136" x1="123.19" y1="234.874" x2="191.361" y2="260.676" gradientUnits="userSpaceOnUse">
        <stop stop-color="#C59651"/>
        <stop offset="0.536458" stop-color="#E0AE0D" stop-opacity="0.98"/>
        <stop offset="1" stop-color="#FFE07B" stop-opacity="0.98"/>
      </linearGradient>
      <linearGradient id="paint1_linear_765_92136" x1="228.795" y1="234.874" x2="160.623" y2="260.676" gradientUnits="userSpaceOnUse">
        <stop stop-color="#C59651"/>
        <stop offset="0.536458" stop-color="#E0AE0D" stop-opacity="0.98"/>
        <stop offset="1" stop-color="#FFE07B" stop-opacity="0.98"/>
      </linearGradient>
      <linearGradient id="paint2_linear_765_92136" x1="175.993" y1="197.329" x2="158.124" y2="308.385" gradientUnits="userSpaceOnUse">
        <stop stop-color="#C59651"/>
        <stop offset="0.366795" stop-color="#FBC412" stop-opacity="0.98"/>
        <stop offset="1" stop-color="#FFF27B" stop-opacity="0.98"/>
      </linearGradient>
      <linearGradient id="paint3_linear_765_92136" x1="190.821" y1="240.337" x2="161.993" y2="244.488" gradientUnits="userSpaceOnUse">
        <stop stop-color="#C59651"/>
        <stop offset="0.536458" stop-color="#E0AE0D" stop-opacity="0.98"/>
        <stop offset="1" stop-color="#FFE07B" stop-opacity="0.98"/>
      </linearGradient>
      <linearGradient id="paint4_linear_765_92136" x1="157.01" y1="43.7168" x2="211.865" y2="87.7013" gradientUnits="userSpaceOnUse">
        <stop stop-color="#C59651"/>
        <stop offset="0.536458" stop-color="#E0AE0D" stop-opacity="0.98"/>
        <stop offset="1" stop-color="#FFF27B" stop-opacity="0.98"/>
      </linearGradient>
    </defs>
  
        </svg>
      