
      <svg width="350" height="350" viewBox="0 0 350 350" fill="none" xmlns="http://www.w3.org/2000/svg">
      
  <g clip-path="url(#clip0_28_290)">
  <rect x="0.0789795" y="0.0444336" width="350" height="350" fill="black" fill-opacity="0.89"/>
  <rect x="0.0789795" y="0.0444336" width="350" height="350" fill="url(#paint0_radial_28_290)" fill-opacity="0.2"/>
  <path d="M125.979 290.538L299.832 190.751L430.987 233.879L230.789 294.049L125.979 290.538Z" fill="url(#paint1_linear_28_290)"/>
  <g opacity="0.45" filter="url(#filter0_f_28_290)">
  <ellipse rx="194.596" ry="66.7643" transform="matrix(0.999998 0.00221055 0.00221055 -0.999998 176.078 304.637)" fill="url(#paint2_radial_28_290)"/>
  </g>
  <g opacity="0.7" filter="url(#filter1_f_28_290)">
  <ellipse cx="174.396" cy="137.609" rx="196.647" ry="242.448" transform="rotate(0.126655 174.396 137.609)" fill="url(#paint3_radial_28_290)"/>
  </g>
  </g>
  <defs>
  <filter id="filter0_f_28_290" x="-23.0754" y="233.314" width="398.306" height="142.646" filterUnits="userSpaceOnUse" color-interpolation-filters="sRGB">
  <feFlood flood-opacity="0" result="BackgroundImageFix"/>
  <feBlend mode="normal" in="SourceGraphic" in2="BackgroundImageFix" result="shape"/>
  <feGaussianBlur stdDeviation="2.27865" result="effect1_foregroundBlur_28_290"/>
  </filter>
  <filter id="filter1_f_28_290" x="-26.8086" y="-109.396" width="402.41" height="494.01" filterUnits="userSpaceOnUse" color-interpolation-filters="sRGB">
  <feFlood flood-opacity="0" result="BackgroundImageFix"/>
  <feBlend mode="normal" in="SourceGraphic" in2="BackgroundImageFix" result="shape"/>
  <feGaussianBlur stdDeviation="2.27865" result="effect1_foregroundBlur_28_290"/>
  </filter>
  <radialGradient id="paint0_radial_28_290" cx="0" cy="0" r="1" gradientUnits="userSpaceOnUse" gradientTransform="translate(156.622 401.542) rotate(-84.441) scale(239.93 241.682)">
  <stop/>
  <stop offset="1" stop-opacity="0"/>
  </radialGradient>
  <linearGradient id="paint1_linear_28_290" x1="194.836" y1="271.638" x2="316.537" y2="167.936" gradientUnits="userSpaceOnUse">
  <stop/>
  <stop offset="1" stop-color="#333333" stop-opacity="0"/>
  </linearGradient>
  <radialGradient id="paint2_radial_28_290" cx="0" cy="0" r="1" gradientUnits="userSpaceOnUse" gradientTransform="translate(194.596 76.624) rotate(99.1226) scale(43.9775 125.337)">
  <stop stop-color="#737373"/>
  <stop offset="1" stop-color="#9A9A9A" stop-opacity="0"/>
  </radialGradient>
  <radialGradient id="paint3_radial_28_290" cx="0" cy="0" r="1" gradientUnits="userSpaceOnUse" gradientTransform="translate(174.396 173.413) rotate(92.5586) scale(157.837 128.153)">
  <stop stop-color="#737373"/>
  <stop offset="1" stop-color="#9A9A9A" stop-opacity="0"/>
  </radialGradient>
  <clipPath id="clip0_28_290">
  <rect width="350" height="350" fill="white"/>
  </clipPath>
  </defs>
  
      
  <g style="mix-blend-mode:overlay" clip-path="url(#clip0_559_45925)">
  <circle cx="267.057" cy="334.049" r="28.7109" fill="white" fill-opacity="0.25"/>
  <circle cx="114.388" cy="66.5365" r="22.7865" fill="white" fill-opacity="0.25"/>
  <circle cx="279.362" cy="110.287" r="16.4062" fill="white" fill-opacity="0.25"/>
  <circle cx="8.20312" cy="234.701" r="16.4062" fill="white" fill-opacity="0.25"/>
  <circle cx="335.872" cy="14.5833" r="40.1042" fill="white" fill-opacity="0.25"/>
  <path d="M65.9326 288.461C29.3383 277.341 1.34401 320.346 -5.46875 340.81C53.705 430.699 146.791 390.296 179.557 350.911C127.002 379.87 111.675 302.361 65.9326 288.461Z" fill="white" fill-opacity="0.25"/>
  <path d="M296.664 236.375C285.544 199.781 328.549 171.787 349.013 164.974C438.902 224.148 398.499 317.234 359.115 350C388.074 297.444 310.565 282.118 296.664 236.375Z" fill="white" fill-opacity="0.25"/>
  <path d="M-26.4321 3.86974C-13.3545 0.661562 15.8469 6.61965 18.8009 32.2851C21.0691 51.9925 19.2624 85.9076 3.10779 101.032C-15.8162 118.749 -14.5043 160.554 12.8006 170.237C38.648 179.403 69.97 166.112 74.1882 144.572C80.545 112.109 53.2633 106.516 57.1104 74.9081C67.4481 -10.0259 219.591 11.8327 236.979 -4.55717C236.979 -87.4437 3.10779 -222.311 -26.4321 3.86974Z" fill="white" fill-opacity="0.25"/>
  </g>
  <defs>
  <clipPath id="clip0_559_45925">
  <rect width="350" height="350" fill="white"/>
  </clipPath>
  </defs>

      </svg>
    