
        <svg width="350" height="350" viewBox="0 0 350 350" fill="none" xmlns="http://www.w3.org/2000/svg">
        
  <g clip-path="url(#clip0_28_290)">
  <rect x="0.0789795" y="0.0444336" width="350" height="350" fill="black" fill-opacity="0.89"/>
  <rect x="0.0789795" y="0.0444336" width="350" height="350" fill="url(#paint0_radial_28_290)" fill-opacity="0.2"/>
  <path d="M125.979 290.538L299.832 190.751L430.987 233.879L230.789 294.049L125.979 290.538Z" fill="url(#paint1_linear_28_290)"/>
  <g opacity="0.45" filter="url(#filter0_f_28_290)">
  <ellipse rx="194.596" ry="66.7643" transform="matrix(0.999998 0.00221055 0.00221055 -0.999998 176.078 304.637)" fill="url(#paint2_radial_28_290)"/>
  </g>
  <g opacity="0.7" filter="url(#filter1_f_28_290)">
  <ellipse cx="174.396" cy="137.609" rx="196.647" ry="242.448" transform="rotate(0.126655 174.396 137.609)" fill="url(#paint3_radial_28_290)"/>
  </g>
  </g>
  <defs>
  <filter id="filter0_f_28_290" x="-23.0754" y="233.314" width="398.306" height="142.646" filterUnits="userSpaceOnUse" color-interpolation-filters="sRGB">
  <feFlood flood-opacity="0" result="BackgroundImageFix"/>
  <feBlend mode="normal" in="SourceGraphic" in2="BackgroundImageFix" result="shape"/>
  <feGaussianBlur stdDeviation="2.27865" result="effect1_foregroundBlur_28_290"/>
  </filter>
  <filter id="filter1_f_28_290" x="-26.8086" y="-109.396" width="402.41" height="494.01" filterUnits="userSpaceOnUse" color-interpolation-filters="sRGB">
  <feFlood flood-opacity="0" result="BackgroundImageFix"/>
  <feBlend mode="normal" in="SourceGraphic" in2="BackgroundImageFix" result="shape"/>
  <feGaussianBlur stdDeviation="2.27865" result="effect1_foregroundBlur_28_290"/>
  </filter>
  <radialGradient id="paint0_radial_28_290" cx="0" cy="0" r="1" gradientUnits="userSpaceOnUse" gradientTransform="translate(156.622 401.542) rotate(-84.441) scale(239.93 241.682)">
  <stop/>
  <stop offset="1" stop-opacity="0"/>
  </radialGradient>
  <linearGradient id="paint1_linear_28_290" x1="194.836" y1="271.638" x2="316.537" y2="167.936" gradientUnits="userSpaceOnUse">
  <stop/>
  <stop offset="1" stop-color="#333333" stop-opacity="0"/>
  </linearGradient>
  <radialGradient id="paint2_radial_28_290" cx="0" cy="0" r="1" gradientUnits="userSpaceOnUse" gradientTransform="translate(194.596 76.624) rotate(99.1226) scale(43.9775 125.337)">
  <stop stop-color="#737373"/>
  <stop offset="1" stop-color="#9A9A9A" stop-opacity="0"/>
  </radialGradient>
  <radialGradient id="paint3_radial_28_290" cx="0" cy="0" r="1" gradientUnits="userSpaceOnUse" gradientTransform="translate(174.396 173.413) rotate(92.5586) scale(157.837 128.153)">
  <stop stop-color="#737373"/>
  <stop offset="1" stop-color="#9A9A9A" stop-opacity="0"/>
  </radialGradient>
  <clipPath id="clip0_28_290">
  <rect width="350" height="350" fill="white"/>
  </clipPath>
  </defs>
  
        
    <path d="M231.586 316.088L205.303 285.74H175.791H146.456L120.389 316.088C120.389 316.088 138.07 336.097 175.987 336.097C213.904 336.097 231.586 316.088 231.586 316.088Z" fill="url(#paint0_linear_765_92130)"/>
    <path d="M156.645 63.3067C160.1 50.3292 162.886 33.7236 175.772 33.7236C188.658 33.7236 193.173 54.2839 195.328 63.6231C197.314 72.2275 201.66 92.1291 202.331 95.2072C202.389 95.4717 202.321 95.7331 202.132 95.9265C200.749 97.3383 194.081 102.994 175.987 102.994C157.838 102.994 151.184 97.304 149.829 95.9138C149.647 95.7265 149.58 95.4738 149.629 95.2168C150.164 92.41 153.481 75.1947 156.645 63.3067Z" fill="url(#paint1_linear_765_92130)"/>
    <path d="M125.781 210.089C125.781 210.089 149.1 225.128 176.216 225.128C203.332 225.128 226.195 210.089 226.195 210.089C229.719 225.093 246.133 263.49 233.885 282.942C218.47 307.422 201.509 315.818 175.988 315.818C150.467 315.818 133.506 307.422 118.091 282.942C105.843 263.49 122.257 225.093 125.781 210.089Z" fill="url(#paint2_radial_765_92130)"/>
    <mask id="mask0_765_92130" style="mask-type:alpha" maskUnits="userSpaceOnUse" x="113" y="210" width="126" height="107">
      <path d="M125.713 210.545C125.713 210.545 149.033 225.584 176.148 225.584C203.264 225.584 226.128 210.545 226.128 210.545C229.651 225.549 246.066 263.945 233.817 283.398C218.403 307.878 201.441 316.273 175.921 316.273C150.4 316.273 133.439 307.878 118.024 283.398C105.776 263.945 122.19 225.549 125.713 210.545Z" fill="url(#paint3_radial_765_92130)"/>
    </mask>
    <g mask="url(#mask0_765_92130)">
      <path d="M204.631 319.919C211.509 301.924 221.138 256.679 204.631 219.66" stroke="#773B06" stroke-opacity="0.1" stroke-width="4.55725"/>
      <path d="M182.301 319.919C187.769 302.602 193.238 257.029 182.301 219.66" stroke="#773B06" stroke-opacity="0.1" stroke-width="4.55725"/>
      <path d="M166.35 319.919C160.881 302.602 155.412 257.029 166.35 219.66" stroke="#773B06" stroke-opacity="0.1" stroke-width="4.55725"/>
      <path d="M144.02 319.919C137.142 301.924 127.512 256.679 144.02 219.66" stroke="#773B06" stroke-opacity="0.1" stroke-width="4.55725"/>
    </g>
    <path d="M155.661 246.32C156.187 245.408 157.503 245.408 158.029 246.32L167.896 263.409C168.422 264.321 167.764 265.46 166.712 265.46H146.979C145.926 265.46 145.268 264.321 145.795 263.409L155.661 246.32Z" fill="black"/>
    <path d="M195.398 246.32C194.872 245.408 193.557 245.408 193.03 246.32L183.164 263.409C182.637 264.321 183.295 265.46 184.348 265.46H204.081C205.134 265.46 205.791 264.321 205.265 263.409L195.398 246.32Z" fill="black"/>
    <path fill-rule="evenodd" clip-rule="evenodd" d="M164.566 276.718H186.237V283.061H193.637V276.718H210.027C211.84 276.718 212.827 278.653 211.608 279.995C206.781 285.309 195.291 295.217 176.723 295.217C176.189 295.217 175.66 295.209 175.137 295.193V288.875H167.737V294.415C154.282 291.962 145.301 284.466 141.027 280.056C139.738 278.725 140.713 276.718 142.566 276.718H157.166V283.061H164.566V276.718Z" fill="black"/>
    <path d="M195.432 63.1374C193.232 53.5911 188.655 33.7236 175.987 33.7236L176.202 336.097C214.119 336.097 231.801 316.088 231.801 316.088L219.044 301.358C224.353 296.623 229.301 290.561 234.099 282.942C243.915 267.352 235.322 239.596 229.708 221.464C228.317 216.971 227.109 213.069 226.409 210.089C226.409 210.089 226.295 210.165 226.073 210.304L202.452 95.6028C202.521 95.3715 202.527 95.1195 202.472 94.8683C201.604 90.8902 197.468 71.9573 195.544 63.6231L195.432 63.1374Z" fill="#161A70" fill-opacity="0.1"/>
    <defs>
      <linearGradient id="paint0_linear_765_92130" x1="136.057" y1="293.998" x2="165.759" y2="362.907" gradientUnits="userSpaceOnUse">
        <stop stop-color="#C59651"/>
        <stop offset="0.536458" stop-color="#E0AE0D" stop-opacity="0.98"/>
        <stop offset="1" stop-color="#FFF27B" stop-opacity="0.98"/>
      </linearGradient>
      <linearGradient id="paint1_linear_765_92130" x1="157.004" y1="45.084" x2="211.859" y2="89.0685" gradientUnits="userSpaceOnUse">
        <stop stop-color="#C59651"/>
        <stop offset="0.536458" stop-color="#E0AE0D" stop-opacity="0.98"/>
        <stop offset="1" stop-color="#FFF27B" stop-opacity="0.98"/>
      </linearGradient>
      <radialGradient id="paint2_radial_765_92130" cx="0" cy="0" r="1" gradientUnits="userSpaceOnUse" gradientTransform="translate(154.113 257.485) rotate(36.2538) scale(76.2928 67.5715)">
        <stop offset="0.0989583" stop-color="#FFF27B"/>
        <stop offset="0.703125" stop-color="#FBC412"/>
      </radialGradient>
      <radialGradient id="paint3_radial_765_92130" cx="0" cy="0" r="1" gradientUnits="userSpaceOnUse" gradientTransform="translate(154.046 257.941) rotate(36.2538) scale(76.2928 67.5715)">
        <stop offset="0.0989583" stop-color="#FFB800"/>
        <stop offset="1" stop-color="#E96D00"/>
      </radialGradient>
    </defs>
  
        <path d="M148.717 94L125.019 208.98C124.948 209.324 125.078 209.673 125.367 209.873C128.479 212.027 147.033 224 175 224C202.967 224 221.521 212.027 224.633 209.873C224.922 209.673 225.052 209.324 224.981 208.98L201.283 94C201.249 94.0666 201.205 94.1285 201.15 94.1836C199.818 95.5241 193.18 101.106 175 101.106C156.82 101.106 150.182 95.5241 148.85 94.1836C148.795 94.1285 148.751 94.0666 148.717 94Z" fill="#FFFFFF" fill-opacity="0.75"/>;
        </svg>
      