
        <svg width="350" height="350" viewBox="0 0 350 350" fill="none" xmlns="http://www.w3.org/2000/svg">
        
  <g clip-path="url(#clip0_28_290)">
  <rect x="0.0789795" y="0.0444336" width="350" height="350" fill="black" fill-opacity="0.89"/>
  <rect x="0.0789795" y="0.0444336" width="350" height="350" fill="url(#paint0_radial_28_290)" fill-opacity="0.2"/>
  <path d="M125.979 290.538L299.832 190.751L430.987 233.879L230.789 294.049L125.979 290.538Z" fill="url(#paint1_linear_28_290)"/>
  <g opacity="0.45" filter="url(#filter0_f_28_290)">
  <ellipse rx="194.596" ry="66.7643" transform="matrix(0.999998 0.00221055 0.00221055 -0.999998 176.078 304.637)" fill="url(#paint2_radial_28_290)"/>
  </g>
  <g opacity="0.7" filter="url(#filter1_f_28_290)">
  <ellipse cx="174.396" cy="137.609" rx="196.647" ry="242.448" transform="rotate(0.126655 174.396 137.609)" fill="url(#paint3_radial_28_290)"/>
  </g>
  </g>
  <defs>
  <filter id="filter0_f_28_290" x="-23.0754" y="233.314" width="398.306" height="142.646" filterUnits="userSpaceOnUse" color-interpolation-filters="sRGB">
  <feFlood flood-opacity="0" result="BackgroundImageFix"/>
  <feBlend mode="normal" in="SourceGraphic" in2="BackgroundImageFix" result="shape"/>
  <feGaussianBlur stdDeviation="2.27865" result="effect1_foregroundBlur_28_290"/>
  </filter>
  <filter id="filter1_f_28_290" x="-26.8086" y="-109.396" width="402.41" height="494.01" filterUnits="userSpaceOnUse" color-interpolation-filters="sRGB">
  <feFlood flood-opacity="0" result="BackgroundImageFix"/>
  <feBlend mode="normal" in="SourceGraphic" in2="BackgroundImageFix" result="shape"/>
  <feGaussianBlur stdDeviation="2.27865" result="effect1_foregroundBlur_28_290"/>
  </filter>
  <radialGradient id="paint0_radial_28_290" cx="0" cy="0" r="1" gradientUnits="userSpaceOnUse" gradientTransform="translate(156.622 401.542) rotate(-84.441) scale(239.93 241.682)">
  <stop/>
  <stop offset="1" stop-opacity="0"/>
  </radialGradient>
  <linearGradient id="paint1_linear_28_290" x1="194.836" y1="271.638" x2="316.537" y2="167.936" gradientUnits="userSpaceOnUse">
  <stop/>
  <stop offset="1" stop-color="#333333" stop-opacity="0"/>
  </linearGradient>
  <radialGradient id="paint2_radial_28_290" cx="0" cy="0" r="1" gradientUnits="userSpaceOnUse" gradientTransform="translate(194.596 76.624) rotate(99.1226) scale(43.9775 125.337)">
  <stop stop-color="#737373"/>
  <stop offset="1" stop-color="#9A9A9A" stop-opacity="0"/>
  </radialGradient>
  <radialGradient id="paint3_radial_28_290" cx="0" cy="0" r="1" gradientUnits="userSpaceOnUse" gradientTransform="translate(174.396 173.413) rotate(92.5586) scale(157.837 128.153)">
  <stop stop-color="#737373"/>
  <stop offset="1" stop-color="#9A9A9A" stop-opacity="0"/>
  </radialGradient>
  <clipPath id="clip0_28_290">
  <rect width="350" height="350" fill="white"/>
  </clipPath>
  </defs>
  
        
    <path d="M230.077 316.485L204.589 287.054C204.416 286.854 204.164 286.739 203.9 286.739H174.804H145.887C145.622 286.739 145.369 286.855 145.196 287.057L119.919 316.485C119.622 316.83 119.62 317.33 119.941 317.654C123.163 320.91 140.897 337.097 175 337.097C209.097 337.097 226.83 320.917 230.058 317.656C230.379 317.332 230.376 316.83 230.077 316.485Z" fill="url(#paint0_linear_765_92121)"/>
    <mask id="mask0_765_92121" style="mask-type:alpha" maskUnits="userSpaceOnUse" x="119" y="286" width="111" height="51">
      <path d="M229.621 316.029L204.133 286.598C203.96 286.399 203.708 286.284 203.444 286.284H174.348H145.431C145.166 286.284 144.913 286.4 144.74 286.601L119.463 316.03C119.166 316.375 119.164 316.875 119.485 317.198C122.707 320.455 140.441 336.642 174.544 336.642C208.64 336.642 226.374 320.462 229.602 317.201C229.923 316.876 229.92 316.374 229.621 316.029Z" fill="url(#paint1_linear_765_92121)"/>
    </mask>
    <g mask="url(#mask0_765_92121)">
      <g style="mix-blend-mode:overlay">
        <circle cx="169.836" cy="326.159" r="1.22977" fill="white"/>
        <circle cx="137.679" cy="307.197" r="1.22977" fill="white"/>
        <circle cx="154.254" cy="317.528" r="1.22977" fill="white"/>
        <circle cx="188.535" cy="323.516" r="1.22977" fill="white"/>
        <path d="M125.467 315.559L124.692 313.464L122.598 312.689L124.692 311.914L125.467 309.82L126.242 311.914L128.337 312.689L126.242 313.464L125.467 315.559Z" fill="#FFF7B0"/>
        <path d="M139.132 322.101L138.357 320.006L136.263 319.231L138.357 318.456L139.132 316.362L139.908 318.456L142.002 319.231L139.908 320.006L139.132 322.101Z" fill="#FFF7B0"/>
        <path d="M184.705 338.507L183.93 336.413L181.835 335.638L183.93 334.863L184.705 332.768L185.48 334.863L187.574 335.638L185.48 336.413L184.705 338.507Z" fill="#FFF7B0"/>
        <path d="M222.067 315.081L220.38 310.524L215.823 308.838L220.38 307.151L222.067 302.594L223.753 307.151L228.311 308.838L223.753 310.524L222.067 315.081Z" fill="#FFF7B0"/>
        <path opacity="0.25" d="M143.099 292.664L139.53 283.017L129.883 279.448L139.53 275.878L143.099 266.232L146.669 275.878L156.315 279.448L146.669 283.017L143.099 292.664Z" fill="#FFF7B0"/>
        <path opacity="0.25" d="M157.683 354.187L154.114 344.375L144.467 340.743L154.114 337.112L157.683 327.299L161.253 337.112L170.899 340.743L161.253 344.375L157.683 354.187Z" fill="#FFF7B0"/>
        <path opacity="0.25" d="M207.584 335.502L204.445 327.02L195.963 323.881L204.445 320.743L207.584 312.26L210.723 320.743L219.205 323.881L210.723 327.02L207.584 335.502Z" fill="#FFF7B0"/>
      </g>
    </g>
    <path d="M155.658 64.3045C159.112 51.3269 161.898 34.7212 174.785 34.7212C187.671 34.7212 192.186 55.2816 194.341 64.6209C196.328 73.2254 200.673 93.1272 201.344 96.2053C201.402 96.4698 201.335 96.7312 201.145 96.9246C199.762 98.3364 193.094 103.992 175 103.992C156.85 103.992 150.197 98.3021 148.842 96.9119C148.659 96.7246 148.593 96.4719 148.642 96.2149C149.177 93.4081 152.493 76.1926 155.658 64.3045Z" fill="url(#paint2_linear_765_92121)"/>
    <path d="M124.486 212.334C124.643 211.724 125.35 211.438 125.891 211.76C130.804 214.68 151.572 226.127 175.229 226.127C198.848 226.127 219.241 214.717 224.108 211.774C224.65 211.446 225.362 211.733 225.52 212.346C229.593 228.14 244.818 265.011 232.898 283.941C217.484 308.422 200.522 316.818 175.001 316.818C149.48 316.818 132.519 308.422 117.104 283.941C105.181 265.006 120.418 228.121 124.486 212.334Z" fill="url(#paint3_linear_765_92121)"/>
    <mask id="mask1_765_92121" style="mask-type:alpha" maskUnits="userSpaceOnUse" x="112" y="211" width="126" height="107">
      <path d="M124.726 211.543C124.726 211.543 148.046 226.582 175.162 226.582C202.278 226.582 225.142 211.543 225.142 211.543C228.665 226.547 245.079 264.944 232.831 284.396C217.416 308.877 200.455 317.272 174.934 317.272C149.413 317.272 132.451 308.877 117.037 284.396C104.788 264.944 121.203 226.547 124.726 211.543Z" fill="url(#paint4_radial_765_92121)"/>
    </mask>
    <g mask="url(#mask1_765_92121)">
      <path d="M203.645 320.919C210.523 302.924 220.152 257.678 203.645 220.659" stroke="#773B06" stroke-opacity="0.1" stroke-width="4.55729"/>
      <path d="M181.313 320.919C186.782 303.601 192.251 258.029 181.313 220.659" stroke="#773B06" stroke-opacity="0.1" stroke-width="4.55729"/>
      <path d="M165.362 320.919C159.894 303.601 154.425 258.029 165.362 220.659" stroke="#773B06" stroke-opacity="0.1" stroke-width="4.55729"/>
      <path d="M143.032 320.919C136.154 302.924 126.525 257.678 143.032 220.659" stroke="#773B06" stroke-opacity="0.1" stroke-width="4.55729"/>
    </g>
    <path d="M154.675 247.319C155.201 246.407 156.517 246.407 157.043 247.319L166.91 264.409C167.436 265.32 166.778 266.459 165.726 266.459H145.992C144.94 266.459 144.282 265.32 144.808 264.409L154.675 247.319Z" fill="black"/>
    <path d="M194.413 247.319C193.887 246.407 192.571 246.407 192.045 247.319L182.178 264.409C181.652 265.32 182.31 266.459 183.362 266.459H203.096C204.148 266.459 204.806 265.32 204.28 264.409L194.413 247.319Z" fill="black"/>
    <path fill-rule="evenodd" clip-rule="evenodd" d="M163.58 277.717H185.252V284.06H192.652V277.717H209.041C210.855 277.717 211.842 279.653 210.622 280.995C205.795 286.309 194.305 296.217 175.737 296.217C175.203 296.217 174.674 296.209 174.151 296.193V289.874H166.751V295.414C153.296 292.961 144.315 285.466 140.041 281.056C138.751 279.725 139.726 277.717 141.58 277.717H156.18V284.06H163.58V277.717Z" fill="black"/>
    <path d="M194.445 64.1352C192.245 54.5888 187.667 34.7212 175 34.7212L175.215 337.097C213.132 337.097 230.814 317.088 230.814 317.088L218.057 302.358C223.366 297.623 228.314 291.561 233.112 283.941C242.928 268.352 234.335 240.595 228.721 222.463C227.33 217.97 226.122 214.068 225.423 211.088C225.423 211.088 225.308 211.164 225.086 211.303L201.465 96.6009C201.534 96.3695 201.54 96.1175 201.485 95.8664C200.617 91.8882 196.48 72.9551 194.557 64.6209L194.445 64.1352Z" fill="#161A70" fill-opacity="0.1"/>
    <mask id="mask2_765_92121" style="mask-type:alpha" maskUnits="userSpaceOnUse" x="112" y="211" width="126" height="106">
      <path d="M124.419 212.334C124.577 211.724 125.283 211.438 125.825 211.76C130.738 214.68 151.506 226.127 175.163 226.127C198.782 226.127 219.175 214.717 224.042 211.774C224.584 211.446 225.295 211.733 225.453 212.346C229.527 228.14 244.752 265.011 232.832 283.941C217.417 308.422 200.456 316.818 174.935 316.818C149.414 316.818 132.452 308.422 117.038 283.941C105.115 265.006 120.351 228.121 124.419 212.334Z" fill="url(#paint5_linear_765_92121)"/>
    </mask>
    <g mask="url(#mask2_765_92121)">
      <g style="mix-blend-mode:overlay">
        <circle cx="134.289" cy="302.917" r="1.22977" fill="white"/>
        <circle cx="124.918" cy="247.496" r="1.22977" fill="white"/>
        <circle cx="146.051" cy="262.385" r="1.22977" fill="white"/>
        <circle cx="148.43" cy="241.029" r="1.22977" fill="white"/>
        <circle cx="157.089" cy="309.388" r="1.22977" fill="white"/>
        <circle cx="202.725" cy="294.564" r="1.22977" fill="white"/>
        <path d="M127.877 290.93L127.434 289.733L126.237 289.29L127.434 288.848L127.877 287.651L128.32 288.848L129.517 289.29L128.32 289.733L127.877 290.93Z" fill="#FFF7B0"/>
        <path d="M114.204 261.308L113.761 260.111L112.564 259.668L113.761 259.225L114.204 258.028L114.647 259.225L115.844 259.668L114.647 260.111L114.204 261.308Z" fill="#FFF7B0"/>
        <path d="M214.009 229.407L213.566 228.21L212.369 227.767L213.566 227.324L214.009 226.127L214.452 227.324L215.648 227.767L214.452 228.21L214.009 229.407Z" fill="#FFF7B0"/>
        <path d="M222.212 254.472L221.769 253.275L220.572 252.832L221.769 252.389L222.212 251.193L222.655 252.389L223.852 252.832L222.655 253.275L222.212 254.472Z" fill="#FFF7B0"/>
        <path d="M176.507 264.973L175.732 262.878L173.638 262.103L175.732 261.328L176.507 259.234L177.283 261.328L179.377 262.103L177.283 262.878L176.507 264.973Z" fill="#FFF7B0"/>
        <path d="M162.83 239.614L162.055 237.519L159.96 236.744L162.055 235.969L162.83 233.875L163.605 235.969L165.699 236.744L163.605 237.519L162.83 239.614Z" fill="#FFF7B0"/>
        <path d="M149.159 315.72L148.384 313.626L146.289 312.851L148.384 312.076L149.159 309.982L149.934 312.076L152.028 312.851L149.934 313.626L149.159 315.72Z" fill="#FFF7B0"/>
        <path d="M186.072 307.517L185.297 305.423L183.202 304.648L185.297 303.873L186.072 301.778L186.847 303.873L188.941 304.648L186.847 305.423L186.072 307.517Z" fill="#FFF7B0"/>
        <path d="M193.81 246.266L192.124 241.709L187.566 240.022L192.124 238.336L193.81 233.779L195.496 238.336L200.054 240.022L195.496 241.709L193.81 246.266Z" fill="#FFF7B0"/>
        <path opacity="0.25" d="M134.895 237.521L131.326 227.874L121.679 224.305L131.326 220.735L134.895 211.088L138.465 220.735L148.111 224.305L138.465 227.874L134.895 237.521Z" fill="#FFF7B0"/>
        <path opacity="0.25" d="M152.669 278.536L149.099 268.723L139.452 265.092L149.099 261.461L152.669 251.648L156.238 261.461L165.885 265.092L156.238 268.723L152.669 278.536Z" fill="#FFF7B0"/>
        <path opacity="0.25" d="M199.381 280.359L196.242 271.877L187.76 268.738L196.242 265.599L199.381 257.117L202.52 265.599L211.002 268.738L202.52 271.877L199.381 280.359Z" fill="#FFF7B0"/>
      </g>
    </g>
    <mask id="mask3_765_92121" style="mask-type:alpha" maskUnits="userSpaceOnUse" x="148" y="33" width="54" height="70">
      <path d="M155.658 62.9373C159.112 49.9597 161.898 33.354 174.785 33.354C187.671 33.354 192.186 53.9144 194.341 63.2537C196.328 71.8582 200.673 91.76 201.344 94.8381C201.402 95.1026 201.335 95.364 201.145 95.5574C199.762 96.9692 193.094 102.625 175 102.625C156.85 102.625 150.197 96.9349 148.842 95.5447C148.659 95.3574 148.593 95.1047 148.642 94.8477C149.177 92.0409 152.493 74.8254 155.658 62.9373Z" fill="url(#paint6_linear_765_92121)"/>
    </mask>
    <g mask="url(#mask3_765_92121)">
      <g style="mix-blend-mode:overlay">
        <circle cx="151.269" cy="56.2542" r="1.21779" fill="white"/>
        <circle cx="154.002" cy="38.9038" r="1.21779" transform="rotate(75 154.002 38.9038)" fill="white"/>
        <circle cx="170.46" cy="68.4568" r="1.21779" transform="rotate(75 170.46 68.4568)" fill="white"/>
        <circle cx="190.237" cy="68.7571" r="1.21779" fill="white"/>
        <path d="M179.132 85.9004L178.365 83.8263L176.291 83.0589L178.365 82.2914L179.132 80.2174L179.9 82.2914L181.974 83.0589L179.9 83.8263L179.132 85.9004Z" fill="#FFF7B0"/>
        <path d="M162.379 50.9084L161.612 48.8344L159.538 48.0669L161.612 47.2995L162.379 45.2254L163.147 47.2995L165.221 48.0669L163.147 48.8344L162.379 50.9084Z" fill="#FFF7B0"/>
        <path d="M162.804 95.5474L162.037 93.4733L159.962 92.7059L162.037 91.9384L162.804 89.8643L163.571 91.9384L165.646 92.7059L163.571 93.4733L162.804 95.5474Z" fill="#FFF7B0"/>
        <path d="M191.514 92.3574L190.746 90.2834L188.672 89.5159L190.746 88.7484L191.514 86.6744L192.281 88.7484L194.355 89.5159L192.281 90.2834L191.514 92.3574Z" fill="#FFF7B0"/>
        <path d="M178.298 63.1907L177.531 61.1166L175.457 60.3492L177.531 59.5817L178.298 57.5077L179.066 59.5817L181.14 60.3492L179.066 61.1166L178.298 63.1907Z" fill="#FFF7B0"/>
        <path opacity="0.25" d="M157.228 81.2056L154.889 74.8854L148.569 72.5467L154.889 70.208L157.228 63.8879L159.567 70.208L165.887 72.5467L159.567 74.8854L157.228 81.2056Z" fill="#FFF7B0"/>
        <path opacity="0.25" d="M175 112.651L172.662 106.331L166.341 103.992L172.662 101.653L175 95.3332L177.339 101.653L183.659 103.992L177.339 106.331L175 112.651Z" fill="#FFF7B0"/>
        <path opacity="0.25" d="M144.011 99.8904L141.672 93.5702L135.352 91.2315L141.672 88.8929L144.011 82.5727L146.35 88.8929L152.67 91.2315L146.35 93.5702L144.011 99.8904Z" fill="#FFF7B0"/>
        <path opacity="0.25" d="M187.305 50.6716L184.966 44.3515L178.646 42.0128L184.966 39.6741L187.305 33.3539L189.644 39.6741L195.964 42.0128L189.644 44.3515L187.305 50.6716Z" fill="#FFF7B0"/>
      </g>
    </g>
    <defs>
      <linearGradient id="paint0_linear_765_92121" x1="135.808" y1="292.166" x2="144.601" y2="344.569" gradientUnits="userSpaceOnUse">
        <stop offset="0.00712166" stop-color="#6A9EE2"/>
        <stop offset="0.282888" stop-color="#4883C2" stop-opacity="0.98"/>
        <stop offset="0.635608" stop-color="#9CCBF4" stop-opacity="0.98"/>
        <stop offset="1" stop-color="#E8F3FC" stop-opacity="0.98"/>
      </linearGradient>
      <linearGradient id="paint1_linear_765_92121" x1="135.352" y1="291.71" x2="144.145" y2="344.113" gradientUnits="userSpaceOnUse">
        <stop offset="0.00712166" stop-color="#6A9EE2"/>
        <stop offset="0.282888" stop-color="#4883C2" stop-opacity="0.98"/>
        <stop offset="0.635608" stop-color="#9CCBF4" stop-opacity="0.98"/>
        <stop offset="1" stop-color="#E8F3FC" stop-opacity="0.98"/>
      </linearGradient>
      <linearGradient id="paint2_linear_765_92121" x1="156.367" y1="42.1857" x2="185.486" y2="102.162" gradientUnits="userSpaceOnUse">
        <stop offset="0.00712166" stop-color="#6A9EE2"/>
        <stop offset="0.282888" stop-color="#4883C2" stop-opacity="0.98"/>
        <stop offset="0.635608" stop-color="#9CCBF4" stop-opacity="0.98"/>
        <stop offset="1" stop-color="#E8F3FC" stop-opacity="0.98"/>
      </linearGradient>
      <linearGradient id="paint3_linear_765_92121" x1="131.036" y1="222.482" x2="163.373" y2="325.447" gradientUnits="userSpaceOnUse">
        <stop offset="0.00712166" stop-color="#6A9EE2"/>
        <stop offset="0.282888" stop-color="#4883C2" stop-opacity="0.98"/>
        <stop offset="0.635608" stop-color="#9CCBF4" stop-opacity="0.98"/>
        <stop offset="1" stop-color="#E8F3FC" stop-opacity="0.98"/>
      </linearGradient>
      <radialGradient id="paint4_radial_765_92121" cx="0" cy="0" r="1" gradientUnits="userSpaceOnUse" gradientTransform="translate(153.059 258.939) rotate(36.2538) scale(76.2935 67.5721)">
        <stop offset="0.0989583" stop-color="#FFB800"/>
        <stop offset="1" stop-color="#E96D00"/>
      </radialGradient>
      <linearGradient id="paint5_linear_765_92121" x1="130.97" y1="222.482" x2="163.307" y2="325.447" gradientUnits="userSpaceOnUse">
        <stop offset="0.00712166" stop-color="#6A9EE2"/>
        <stop offset="0.282888" stop-color="#4883C2" stop-opacity="0.98"/>
        <stop offset="0.635608" stop-color="#9CCBF4" stop-opacity="0.98"/>
        <stop offset="1" stop-color="#E8F3FC" stop-opacity="0.98"/>
      </linearGradient>
      <linearGradient id="paint6_linear_765_92121" x1="156.367" y1="40.8185" x2="185.486" y2="100.794" gradientUnits="userSpaceOnUse">
        <stop offset="0.00712166" stop-color="#6A9EE2"/>
        <stop offset="0.282888" stop-color="#4883C2" stop-opacity="0.98"/>
        <stop offset="0.635608" stop-color="#9CCBF4" stop-opacity="0.98"/>
        <stop offset="1" stop-color="#E8F3FC" stop-opacity="0.98"/>
      </linearGradient>
    </defs>
  
        </svg>
      