
        <svg width="350" height="350" viewBox="0 0 350 350" fill="none" xmlns="http://www.w3.org/2000/svg">
        
  <g clip-path="url(#clip0_28_290)">
  <rect x="0.0789795" y="0.0444336" width="350" height="350" fill="black" fill-opacity="0.89"/>
  <rect x="0.0789795" y="0.0444336" width="350" height="350" fill="url(#paint0_radial_28_290)" fill-opacity="0.2"/>
  <path d="M125.979 290.538L299.832 190.751L430.987 233.879L230.789 294.049L125.979 290.538Z" fill="url(#paint1_linear_28_290)"/>
  <g opacity="0.45" filter="url(#filter0_f_28_290)">
  <ellipse rx="194.596" ry="66.7643" transform="matrix(0.999998 0.00221055 0.00221055 -0.999998 176.078 304.637)" fill="url(#paint2_radial_28_290)"/>
  </g>
  <g opacity="0.7" filter="url(#filter1_f_28_290)">
  <ellipse cx="174.396" cy="137.609" rx="196.647" ry="242.448" transform="rotate(0.126655 174.396 137.609)" fill="url(#paint3_radial_28_290)"/>
  </g>
  </g>
  <defs>
  <filter id="filter0_f_28_290" x="-23.0754" y="233.314" width="398.306" height="142.646" filterUnits="userSpaceOnUse" color-interpolation-filters="sRGB">
  <feFlood flood-opacity="0" result="BackgroundImageFix"/>
  <feBlend mode="normal" in="SourceGraphic" in2="BackgroundImageFix" result="shape"/>
  <feGaussianBlur stdDeviation="2.27865" result="effect1_foregroundBlur_28_290"/>
  </filter>
  <filter id="filter1_f_28_290" x="-26.8086" y="-109.396" width="402.41" height="494.01" filterUnits="userSpaceOnUse" color-interpolation-filters="sRGB">
  <feFlood flood-opacity="0" result="BackgroundImageFix"/>
  <feBlend mode="normal" in="SourceGraphic" in2="BackgroundImageFix" result="shape"/>
  <feGaussianBlur stdDeviation="2.27865" result="effect1_foregroundBlur_28_290"/>
  </filter>
  <radialGradient id="paint0_radial_28_290" cx="0" cy="0" r="1" gradientUnits="userSpaceOnUse" gradientTransform="translate(156.622 401.542) rotate(-84.441) scale(239.93 241.682)">
  <stop/>
  <stop offset="1" stop-opacity="0"/>
  </radialGradient>
  <linearGradient id="paint1_linear_28_290" x1="194.836" y1="271.638" x2="316.537" y2="167.936" gradientUnits="userSpaceOnUse">
  <stop/>
  <stop offset="1" stop-color="#333333" stop-opacity="0"/>
  </linearGradient>
  <radialGradient id="paint2_radial_28_290" cx="0" cy="0" r="1" gradientUnits="userSpaceOnUse" gradientTransform="translate(194.596 76.624) rotate(99.1226) scale(43.9775 125.337)">
  <stop stop-color="#737373"/>
  <stop offset="1" stop-color="#9A9A9A" stop-opacity="0"/>
  </radialGradient>
  <radialGradient id="paint3_radial_28_290" cx="0" cy="0" r="1" gradientUnits="userSpaceOnUse" gradientTransform="translate(174.396 173.413) rotate(92.5586) scale(157.837 128.153)">
  <stop stop-color="#737373"/>
  <stop offset="1" stop-color="#9A9A9A" stop-opacity="0"/>
  </radialGradient>
  <clipPath id="clip0_28_290">
  <rect width="350" height="350" fill="white"/>
  </clipPath>
  </defs>
  
        
    <path d="M230.076 316.485L204.588 287.054C204.415 286.854 204.163 286.739 203.899 286.739H174.803H145.886C145.621 286.739 145.368 286.855 145.195 287.057L119.918 316.485C119.621 316.83 119.619 317.33 119.94 317.654C123.162 320.91 140.896 337.097 174.999 337.097C209.096 337.097 226.829 320.917 230.057 317.656C230.378 317.332 230.375 316.83 230.076 316.485Z" fill="url(#paint0_linear_765_92131)"/>
    <path d="M155.657 64.3045C159.111 51.3269 161.897 34.7212 174.784 34.7212C187.67 34.7212 192.185 55.2816 194.34 64.6209C196.327 73.2254 200.672 93.1272 201.343 96.2053C201.401 96.4698 201.334 96.7312 201.144 96.9246C199.761 98.3364 193.093 103.992 174.999 103.992C156.85 103.992 150.196 98.3021 148.841 96.9119C148.658 96.7246 148.592 96.4719 148.641 96.2149C149.176 93.4081 152.492 76.1926 155.657 64.3045Z" fill="url(#paint1_linear_765_92131)"/>
    <path d="M124.486 212.334C124.643 211.724 125.35 211.438 125.891 211.76C130.804 214.68 151.572 226.127 175.229 226.127C198.848 226.127 219.241 214.717 224.108 211.774C224.65 211.446 225.362 211.733 225.52 212.346C229.593 228.14 244.818 265.011 232.898 283.941C217.484 308.422 200.522 316.818 175.001 316.818C149.48 316.818 132.519 308.422 117.104 283.941C105.181 265.006 120.418 228.121 124.486 212.334Z" fill="url(#paint2_linear_765_92131)"/>
    <mask id="mask0_765_92131" style="mask-type:alpha" maskUnits="userSpaceOnUse" x="112" y="211" width="126" height="107">
      <path d="M124.726 211.544C124.726 211.544 148.046 226.583 175.162 226.583C202.278 226.583 225.142 211.544 225.142 211.544C228.665 226.548 245.079 264.945 232.831 284.397C217.416 308.878 200.455 317.273 174.934 317.273C149.413 317.273 132.451 308.878 117.037 284.397C104.788 264.945 121.203 226.548 124.726 211.544Z" fill="url(#paint3_radial_765_92131)"/>
    </mask>
    <g mask="url(#mask0_765_92131)">
      <path d="M203.645 320.919C210.523 302.923 220.152 257.678 203.645 220.659" stroke="#773B06" stroke-opacity="0.1" stroke-width="4.55729"/>
      <path d="M181.314 320.919C186.783 303.601 192.252 258.028 181.314 220.659" stroke="#773B06" stroke-opacity="0.1" stroke-width="4.55729"/>
      <path d="M165.363 320.919C159.895 303.601 154.426 258.028 165.363 220.659" stroke="#773B06" stroke-opacity="0.1" stroke-width="4.55729"/>
      <path d="M143.033 320.919C136.155 302.923 126.526 257.678 143.033 220.659" stroke="#773B06" stroke-opacity="0.1" stroke-width="4.55729"/>
    </g>
    <path d="M154.675 247.319C155.201 246.407 156.517 246.407 157.043 247.319L166.91 264.409C167.436 265.32 166.778 266.459 165.726 266.459H145.992C144.94 266.459 144.282 265.32 144.808 264.409L154.675 247.319Z" fill="black"/>
    <path d="M194.413 247.319C193.887 246.407 192.571 246.407 192.045 247.319L182.178 264.409C181.652 265.32 182.31 266.459 183.362 266.459H203.096C204.148 266.459 204.806 265.32 204.28 264.409L194.413 247.319Z" fill="black"/>
    <path fill-rule="evenodd" clip-rule="evenodd" d="M163.58 277.717H185.251V284.06H192.651V277.717H209.041C210.855 277.717 211.842 279.653 210.622 280.995C205.795 286.309 194.305 296.217 175.737 296.217C175.203 296.217 174.674 296.209 174.151 296.193V289.874H166.751V295.414C153.296 292.961 144.315 285.466 140.041 281.056C138.751 279.725 139.726 277.717 141.58 277.717H156.18V284.06H163.58V277.717Z" fill="black"/>
    <path d="M194.445 64.1352C192.245 54.5888 187.667 34.7212 175 34.7212L175.215 337.098C213.132 337.098 230.814 317.088 230.814 317.088L218.057 302.358C223.366 297.623 228.314 291.561 233.112 283.941C242.928 268.352 234.335 240.595 228.721 222.463C227.33 217.97 226.122 214.068 225.423 211.088C225.423 211.088 225.308 211.164 225.086 211.303L201.465 96.6009C201.534 96.3695 201.54 96.1175 201.485 95.8664C200.617 91.8882 196.48 72.9551 194.557 64.6209L194.445 64.1352Z" fill="#161A70" fill-opacity="0.1"/>
    <defs>
      <linearGradient id="paint0_linear_765_92131" x1="135.069" y1="294.998" x2="164.771" y2="363.907" gradientUnits="userSpaceOnUse">
        <stop stop-color="#9A0404"/>
        <stop offset="0.473958" stop-color="#D80101" stop-opacity="0.98"/>
        <stop offset="1" stop-color="#FF8080" stop-opacity="0.98"/>
      </linearGradient>
      <linearGradient id="paint1_linear_765_92131" x1="174.999" y1="11.1333" x2="152.22" y2="103.447" gradientUnits="userSpaceOnUse">
        <stop stop-color="#830101"/>
        <stop offset="0.979167" stop-color="#FF1818" stop-opacity="0.98"/>
      </linearGradient>
      <linearGradient id="paint2_linear_765_92131" x1="175.001" y1="205.164" x2="160.105" y2="298.489" gradientUnits="userSpaceOnUse">
        <stop stop-color="#830101"/>
        <stop offset="0.979167" stop-color="#FF1818" stop-opacity="0.98"/>
      </linearGradient>
      <radialGradient id="paint3_radial_765_92131" cx="0" cy="0" r="1" gradientUnits="userSpaceOnUse" gradientTransform="translate(153.059 258.94) rotate(36.2538) scale(76.2935 67.5721)">
        <stop offset="0.0989583" stop-color="#FFB800"/>
        <stop offset="1" stop-color="#E96D00"/>
      </radialGradient>
    </defs>
  
        <path d="M148.717 94L125.019 208.98C124.948 209.324 125.078 209.673 125.367 209.873C128.479 212.027 147.033 224 175 224C202.967 224 221.521 212.027 224.633 209.873C224.922 209.673 225.052 209.324 224.981 208.98L201.283 94C201.249 94.0666 201.205 94.1285 201.15 94.1836C199.818 95.5241 193.18 101.106 175 101.106C156.82 101.106 150.182 95.5241 148.85 94.1836C148.795 94.1285 148.751 94.0666 148.717 94Z" fill="#FFFFFF" fill-opacity="0.75"/>;
        </svg>
      