
        <svg width="350" height="350" viewBox="0 0 350 350" fill="none" xmlns="http://www.w3.org/2000/svg">
        
  <g clip-path="url(#clip0_28_290)">
  <rect x="0.0789795" y="0.0444336" width="350" height="350" fill="black" fill-opacity="0.89"/>
  <rect x="0.0789795" y="0.0444336" width="350" height="350" fill="url(#paint0_radial_28_290)" fill-opacity="0.2"/>
  <path d="M125.979 290.538L299.832 190.751L430.987 233.879L230.789 294.049L125.979 290.538Z" fill="url(#paint1_linear_28_290)"/>
  <g opacity="0.45" filter="url(#filter0_f_28_290)">
  <ellipse rx="194.596" ry="66.7643" transform="matrix(0.999998 0.00221055 0.00221055 -0.999998 176.078 304.637)" fill="url(#paint2_radial_28_290)"/>
  </g>
  <g opacity="0.7" filter="url(#filter1_f_28_290)">
  <ellipse cx="174.396" cy="137.609" rx="196.647" ry="242.448" transform="rotate(0.126655 174.396 137.609)" fill="url(#paint3_radial_28_290)"/>
  </g>
  </g>
  <defs>
  <filter id="filter0_f_28_290" x="-23.0754" y="233.314" width="398.306" height="142.646" filterUnits="userSpaceOnUse" color-interpolation-filters="sRGB">
  <feFlood flood-opacity="0" result="BackgroundImageFix"/>
  <feBlend mode="normal" in="SourceGraphic" in2="BackgroundImageFix" result="shape"/>
  <feGaussianBlur stdDeviation="2.27865" result="effect1_foregroundBlur_28_290"/>
  </filter>
  <filter id="filter1_f_28_290" x="-26.8086" y="-109.396" width="402.41" height="494.01" filterUnits="userSpaceOnUse" color-interpolation-filters="sRGB">
  <feFlood flood-opacity="0" result="BackgroundImageFix"/>
  <feBlend mode="normal" in="SourceGraphic" in2="BackgroundImageFix" result="shape"/>
  <feGaussianBlur stdDeviation="2.27865" result="effect1_foregroundBlur_28_290"/>
  </filter>
  <radialGradient id="paint0_radial_28_290" cx="0" cy="0" r="1" gradientUnits="userSpaceOnUse" gradientTransform="translate(156.622 401.542) rotate(-84.441) scale(239.93 241.682)">
  <stop/>
  <stop offset="1" stop-opacity="0"/>
  </radialGradient>
  <linearGradient id="paint1_linear_28_290" x1="194.836" y1="271.638" x2="316.537" y2="167.936" gradientUnits="userSpaceOnUse">
  <stop/>
  <stop offset="1" stop-color="#333333" stop-opacity="0"/>
  </linearGradient>
  <radialGradient id="paint2_radial_28_290" cx="0" cy="0" r="1" gradientUnits="userSpaceOnUse" gradientTransform="translate(194.596 76.624) rotate(99.1226) scale(43.9775 125.337)">
  <stop stop-color="#737373"/>
  <stop offset="1" stop-color="#9A9A9A" stop-opacity="0"/>
  </radialGradient>
  <radialGradient id="paint3_radial_28_290" cx="0" cy="0" r="1" gradientUnits="userSpaceOnUse" gradientTransform="translate(174.396 173.413) rotate(92.5586) scale(157.837 128.153)">
  <stop stop-color="#737373"/>
  <stop offset="1" stop-color="#9A9A9A" stop-opacity="0"/>
  </radialGradient>
  <clipPath id="clip0_28_290">
  <rect width="350" height="350" fill="white"/>
  </clipPath>
  </defs>
  
        
    <g filter="url(#filter0_d_765_92139)">
      <path d="M125.511 312.513C125.13 312.308 124.966 311.864 125.102 311.454L138.023 272.344C138.074 272.19 138.083 272.025 138.048 271.866L125.382 213.372C125.204 212.549 126.171 211.895 126.886 212.341C132.551 215.874 149.852 225.175 174.998 225.175C200.145 225.175 217.446 215.874 223.111 212.341C223.825 211.895 224.793 212.549 224.615 213.372L211.949 271.866C211.914 272.025 211.923 272.19 211.974 272.344L224.895 311.454C225.031 311.864 224.867 312.308 224.485 312.513C220.652 314.572 200.122 324.932 174.998 324.932C149.875 324.932 129.345 314.572 125.511 312.513Z" fill="url(#paint0_linear_765_92139)" shape-rendering="crispEdges"/>
    </g>
    <g filter="url(#filter1_f_765_92139)">
      <mask id="mask0_765_92139" style="mask-type:alpha" maskUnits="userSpaceOnUse" x="123" y="211" width="102" height="115">
        <path d="M124.148 312.918C123.765 312.713 123.6 312.268 123.737 311.856L136.776 272.59C136.827 272.435 136.836 272.269 136.801 272.109L123.877 212.725C123.72 212.002 124.44 211.377 125.135 211.631C130.396 213.553 148.086 219.208 174.087 219.208C200.089 219.208 217.779 213.553 223.04 211.631C223.735 211.377 224.455 212.002 224.298 212.725L211.374 272.109C211.339 272.269 211.348 272.435 211.399 272.59L224.438 311.856C224.575 312.268 224.41 312.713 224.027 312.918C220.165 314.982 199.445 325.388 174.087 325.388C148.73 325.388 128.01 314.982 124.148 312.918Z" fill="#2D2E32"/>
        <path d="M124.148 312.918C123.765 312.713 123.6 312.268 123.737 311.856L136.776 272.59C136.827 272.435 136.836 272.269 136.801 272.109L123.877 212.725C123.72 212.002 124.44 211.377 125.135 211.631C130.396 213.553 148.086 219.208 174.087 219.208C200.089 219.208 217.779 213.553 223.04 211.631C223.735 211.377 224.455 212.002 224.298 212.725L211.374 272.109C211.339 272.269 211.348 272.435 211.399 272.59L224.438 311.856C224.575 312.268 224.41 312.713 224.027 312.918C220.165 314.982 199.445 325.388 174.087 325.388C148.73 325.388 128.01 314.982 124.148 312.918Z" fill="url(#paint1_linear_765_92139)"/>
      </mask>
      <g mask="url(#mask0_765_92139)">
        <g opacity="0.25" filter="url(#filter2_d_765_92139)">
          <path d="M72.916 273.326C168.028 276.029 230.123 228.041 249.282 203.709H72.916V273.326Z" fill="url(#paint2_linear_765_92139)" fill-opacity="0.55" shape-rendering="crispEdges"/>
        </g>
        <path opacity="0.25" d="M133.954 266.928C133.954 244.078 107.52 196.064 97.7297 174.838C104.257 172.552 120.639 169.351 133.954 174.838C150.597 181.695 156.219 243.966 160.136 262.58C163.268 277.471 139.175 326.689 133.954 347.263H68.3589C118.289 320.811 133.954 284.563 133.954 266.928Z" fill="url(#paint3_radial_765_92139)"/>
        <path opacity="0.25" d="M148.537 271.03C148.537 248.18 122.103 200.166 112.313 178.939C118.84 176.653 135.222 173.453 148.537 178.939C165.18 185.797 170.802 248.067 174.719 266.681C177.851 281.572 153.758 330.791 148.537 351.364H82.9419C132.872 324.913 148.537 288.664 148.537 271.03Z" fill="url(#paint4_radial_765_92139)"/>
      </g>
    </g>
    <path d="M175.436 324.932C200.389 324.932 220.779 314.573 224.586 312.513C224.965 312.308 225.128 311.865 224.993 311.454L212.16 272.345C212.109 272.19 212.101 272.025 212.135 271.866L224.853 212.727C224.994 212.071 224.42 211.498 223.797 211.585C224.206 211.317 224.529 211.096 224.763 210.932C225.051 210.73 225.18 210.38 225.109 210.034L201.396 93.6963C201.342 93.4292 201.175 93.2096 200.951 93.0837L195.579 55.4276C195.574 55.4004 195.571 55.3737 195.568 55.3469C195.566 55.3258 195.563 55.3046 195.56 55.2832C195.469 54.6575 194.146 50.1299 174.999 50.1299L175.436 324.932Z" fill="#161A70" fill-opacity="0.1"/>
    <path d="M154.309 55.4578C154.319 55.3891 154.321 55.322 154.327 55.2529C154.399 54.5252 155.623 50.1296 174.784 50.1296C194.295 50.1296 195.582 54.6877 195.667 55.2891C195.673 55.3332 195.676 55.3764 195.683 55.4205L201.373 93.9908C201.41 94.2402 201.343 94.4908 201.166 94.6699C199.833 96.0171 193.191 101.627 174.998 101.627C156.806 101.627 150.164 96.0171 148.831 94.6699C148.654 94.4908 148.587 94.2402 148.624 93.9908L154.309 55.4578Z" fill="url(#paint5_linear_765_92139)"/>
    <defs>
      <filter id="filter0_d_765_92139" x="122.776" y="212.196" width="105.356" height="118.205" filterUnits="userSpaceOnUse" color-interpolation-filters="sRGB">
        <feFlood flood-opacity="0" result="BackgroundImageFix"/>
        <feColorMatrix in="SourceAlpha" type="matrix" values="0 0 0 0 0 0 0 0 0 0 0 0 0 0 0 0 0 0 127 0" result="hardAlpha"/>
        <feOffset dx="0.455725" dy="2.73435"/>
        <feGaussianBlur stdDeviation="1.36718"/>
        <feComposite in2="hardAlpha" operator="out"/>
        <feColorMatrix type="matrix" values="0 0 0 0 0 0 0 0 0 0 0 0 0 0 0 0 0 0 0.25 0"/>
        <feBlend mode="normal" in2="BackgroundImageFix" result="effect1_dropShadow_765_92139"/>
        <feBlend mode="normal" in="SourceGraphic" in2="effect1_dropShadow_765_92139" result="shape"/>
      </filter>
      <filter id="filter1_f_765_92139" x="120.312" y="208.722" width="106.452" height="118.944" filterUnits="userSpaceOnUse" color-interpolation-filters="sRGB">
        <feFlood flood-opacity="0" result="BackgroundImageFix"/>
        <feBlend mode="normal" in="SourceGraphic" in2="BackgroundImageFix" result="shape"/>
        <feGaussianBlur stdDeviation="1.13931" result="effect1_foregroundBlur_765_92139"/>
      </filter>
      <filter id="filter2_d_765_92139" x="71.5488" y="203.254" width="179.1" height="72.4604" filterUnits="userSpaceOnUse" color-interpolation-filters="sRGB">
        <feFlood flood-opacity="0" result="BackgroundImageFix"/>
        <feColorMatrix in="SourceAlpha" type="matrix" values="0 0 0 0 0 0 0 0 0 0 0 0 0 0 0 0 0 0 127 0" result="hardAlpha"/>
        <feOffset dy="0.911451"/>
        <feGaussianBlur stdDeviation="0.683588"/>
        <feComposite in2="hardAlpha" operator="out"/>
        <feColorMatrix type="matrix" values="0 0 0 0 0 0 0 0 0 0 0 0 0 0 0 0 0 0 0.25 0"/>
        <feBlend mode="normal" in2="BackgroundImageFix" result="effect1_dropShadow_765_92139"/>
        <feBlend mode="normal" in="SourceGraphic" in2="effect1_dropShadow_765_92139" result="shape"/>
      </filter>
      <linearGradient id="paint0_linear_765_92139" x1="99.348" y1="200.975" x2="216.014" y2="304.88" gradientUnits="userSpaceOnUse">
        <stop stop-color="#C59651"/>
        <stop offset="0.536458" stop-color="#E0A50D" stop-opacity="0.98"/>
        <stop offset="1" stop-color="#FFF27B" stop-opacity="0.98"/>
      </linearGradient>
      <linearGradient id="paint1_linear_765_92139" x1="123.502" y1="211.001" x2="241.34" y2="297.278" gradientUnits="userSpaceOnUse">
        <stop stop-color="#C3C3C3"/>
        <stop offset="1" stop-color="#C3C3C3" stop-opacity="0.15"/>
      </linearGradient>
      <linearGradient id="paint2_linear_765_92139" x1="203.502" y1="227.505" x2="112.602" y2="299.165" gradientUnits="userSpaceOnUse">
        <stop stop-color="white" stop-opacity="0"/>
        <stop offset="0.471361" stop-color="white"/>
        <stop offset="1" stop-color="white"/>
      </linearGradient>
      <radialGradient id="paint3_radial_765_92139" cx="0" cy="0" r="1" gradientUnits="userSpaceOnUse" gradientTransform="translate(122.54 265.347) rotate(79.4004) scale(83.3375 37.0264)">
        <stop stop-color="#F2F2F2"/>
        <stop offset="0.0001" stop-color="#F2F2F2"/>
        <stop offset="1" stop-color="#F2F2F2" stop-opacity="0"/>
      </radialGradient>
      <radialGradient id="paint4_radial_765_92139" cx="0" cy="0" r="1" gradientUnits="userSpaceOnUse" gradientTransform="translate(137.123 269.449) rotate(79.4004) scale(83.3375 37.0264)">
        <stop stop-color="#F2F2F2"/>
        <stop offset="0.0001" stop-color="#F2F2F2"/>
        <stop offset="1" stop-color="#F2F2F2" stop-opacity="0"/>
      </radialGradient>
      <linearGradient id="paint5_linear_765_92139" x1="156.015" y1="58.5751" x2="197.676" y2="103.508" gradientUnits="userSpaceOnUse">
        <stop stop-color="#C59651"/>
        <stop offset="0.536458" stop-color="#E0AE0D" stop-opacity="0.98"/>
        <stop offset="1" stop-color="#FFF27B" stop-opacity="0.98"/>
      </linearGradient>
    </defs>
  
        </svg>
      