
      <svg width="350" height="350" viewBox="0 0 350 350" fill="none" xmlns="http://www.w3.org/2000/svg">
      
  <g clip-path="url(#clip0_28_290)">
  <rect x="0.0789795" y="0.0444336" width="350" height="350" fill="black" fill-opacity="0.89"/>
  <rect x="0.0789795" y="0.0444336" width="350" height="350" fill="url(#paint0_radial_28_290)" fill-opacity="0.2"/>
  <path d="M125.979 290.538L299.832 190.751L430.987 233.879L230.789 294.049L125.979 290.538Z" fill="url(#paint1_linear_28_290)"/>
  <g opacity="0.45" filter="url(#filter0_f_28_290)">
  <ellipse rx="194.596" ry="66.7643" transform="matrix(0.999998 0.00221055 0.00221055 -0.999998 176.078 304.637)" fill="url(#paint2_radial_28_290)"/>
  </g>
  <g opacity="0.7" filter="url(#filter1_f_28_290)">
  <ellipse cx="174.396" cy="137.609" rx="196.647" ry="242.448" transform="rotate(0.126655 174.396 137.609)" fill="url(#paint3_radial_28_290)"/>
  </g>
  </g>
  <defs>
  <filter id="filter0_f_28_290" x="-23.0754" y="233.314" width="398.306" height="142.646" filterUnits="userSpaceOnUse" color-interpolation-filters="sRGB">
  <feFlood flood-opacity="0" result="BackgroundImageFix"/>
  <feBlend mode="normal" in="SourceGraphic" in2="BackgroundImageFix" result="shape"/>
  <feGaussianBlur stdDeviation="2.27865" result="effect1_foregroundBlur_28_290"/>
  </filter>
  <filter id="filter1_f_28_290" x="-26.8086" y="-109.396" width="402.41" height="494.01" filterUnits="userSpaceOnUse" color-interpolation-filters="sRGB">
  <feFlood flood-opacity="0" result="BackgroundImageFix"/>
  <feBlend mode="normal" in="SourceGraphic" in2="BackgroundImageFix" result="shape"/>
  <feGaussianBlur stdDeviation="2.27865" result="effect1_foregroundBlur_28_290"/>
  </filter>
  <radialGradient id="paint0_radial_28_290" cx="0" cy="0" r="1" gradientUnits="userSpaceOnUse" gradientTransform="translate(156.622 401.542) rotate(-84.441) scale(239.93 241.682)">
  <stop/>
  <stop offset="1" stop-opacity="0"/>
  </radialGradient>
  <linearGradient id="paint1_linear_28_290" x1="194.836" y1="271.638" x2="316.537" y2="167.936" gradientUnits="userSpaceOnUse">
  <stop/>
  <stop offset="1" stop-color="#333333" stop-opacity="0"/>
  </linearGradient>
  <radialGradient id="paint2_radial_28_290" cx="0" cy="0" r="1" gradientUnits="userSpaceOnUse" gradientTransform="translate(194.596 76.624) rotate(99.1226) scale(43.9775 125.337)">
  <stop stop-color="#737373"/>
  <stop offset="1" stop-color="#9A9A9A" stop-opacity="0"/>
  </radialGradient>
  <radialGradient id="paint3_radial_28_290" cx="0" cy="0" r="1" gradientUnits="userSpaceOnUse" gradientTransform="translate(174.396 173.413) rotate(92.5586) scale(157.837 128.153)">
  <stop stop-color="#737373"/>
  <stop offset="1" stop-color="#9A9A9A" stop-opacity="0"/>
  </radialGradient>
  <clipPath id="clip0_28_290">
  <rect width="350" height="350" fill="white"/>
  </clipPath>
  </defs>
  
      
  <path d="M98.4521 197.334C97.2413 196.223 96.3332 194.929 95.7186 193.543L95 186.483C95.6323 183.534 97.4223 180.812 100.292 179.087L104.357 176.643C107.09 174.999 110.176 174.643 112.982 175.334L119.003 179.057C119.951 180.178 120.701 181.508 121.177 183.018L127 200.5L123 223L98.4521 197.334Z" fill="url(#paint0_linear_902_111870)"/>
  <path d="M122.552 156.001C128.112 165.631 123.807 179.31 106.396 189.363C88.9849 199.415 74.9852 196.303 69.4256 186.674C64.4138 177.993 62.7287 158.917 82.2958 147.62C101.863 136.323 117.541 147.32 122.552 156.001Z" fill="#0C011C"/>
  <path fill-rule="evenodd" clip-rule="evenodd" d="M88.8612 169.966C90.5617 173.254 89.3911 177.331 86.1521 179.201C82.8179 181.126 78.5545 179.984 76.6295 176.649C74.7615 173.414 75.7818 169.303 78.8905 167.304C78.7857 167.358 78.6816 167.415 78.5783 167.475C74.9107 169.592 73.6541 174.282 75.7716 177.95C77.8891 181.617 82.5789 182.874 86.2465 180.756C89.9142 178.639 91.1708 173.949 89.0533 170.281C88.9914 170.174 88.9273 170.069 88.8612 169.966Z" fill="#6DF244"/>
  <circle cx="81.2727" cy="170.749" r="1.39422" transform="rotate(-30 81.2727 170.749)" fill="white"/>
  <circle cx="85.337" cy="170.816" r="0.697108" transform="rotate(-30 85.337 170.816)" fill="white"/>
  <path fill-rule="evenodd" clip-rule="evenodd" d="M109.017 167.611C105.349 169.729 100.659 168.472 98.5417 164.804C98.4794 164.697 98.4201 164.588 98.3637 164.479C100.36 167.597 104.477 168.622 107.717 166.752C111.051 164.827 112.194 160.563 110.269 157.229C108.4 153.993 104.329 152.822 101.042 154.516C101.142 154.452 101.244 154.389 101.348 154.329C105.016 152.212 109.706 153.469 111.823 157.136C113.941 160.804 112.684 165.494 109.017 167.611Z" fill="#6DF244"/>
  <circle r="1.39422" transform="matrix(-0.866025 0.5 0.5 0.866025 102.836 158.301)" fill="white"/>
  <circle r="0.697108" transform="matrix(-0.866025 0.5 0.5 0.866025 100.862 161.855)" fill="white"/>
  <path d="M101.975 172.942C102.278 173.466 101.646 176.295 99.5497 177.505C97.4539 178.715 94.6881 177.848 94.3856 177.324C94.0831 176.8 95.5369 175.394 97.6327 174.184C99.7285 172.974 101.673 172.418 101.975 172.942Z" fill="#B97C99"/>
  <path d="M103.875 126.939C96.3872 129.744 92.3582 139.49 89.4828 144.734C104.079 139.343 112.84 146.849 115.67 151.751C115.874 141.514 111.363 124.134 103.875 126.939Z" fill="#0C011C"/>
  <path d="M103.697 131.614C98.244 133.677 96.209 140.16 94.09 143.947C101.29 141.081 110.485 144.378 112.51 147.885C112.72 140.524 109.149 129.552 103.697 131.614Z" fill="url(#paint1_linear_902_111870)"/>
  <path d="M53.8848 155.801C60.0581 150.719 70.5125 152.102 76.4916 152.234C64.5244 162.179 66.6449 173.52 69.4749 178.422C60.5076 173.48 47.7115 160.883 53.8848 155.801Z" fill="#0C011C"/>
  <path d="M58.0253 157.982C62.5374 154.291 69.1694 155.771 73.509 155.829C67.4272 160.632 65.6846 170.244 67.7094 173.75C61.2297 170.251 53.5132 161.673 58.0253 157.982Z" fill="url(#paint2_linear_902_111870)"/>
  <path d="M109.478 174.779C111.255 177.857 108.127 181.406 104.911 181.52" stroke="white" stroke-opacity="0.45" stroke-width="1.09546" stroke-linecap="round"/>
  <path d="M86.084 212.841L84.8646 214.426L86.084 212.841ZM74.3944 222.289C73.4065 222.783 72.2051 222.382 71.7111 221.394C71.2172 220.406 71.6176 219.205 72.6056 218.711L74.3944 222.289ZM121.5 220C123.358 220.741 123.357 220.743 123.356 220.745C123.356 220.746 123.355 220.748 123.354 220.749C123.353 220.752 123.352 220.755 123.351 220.758C123.348 220.764 123.346 220.77 123.343 220.776C123.338 220.789 123.332 220.803 123.325 220.818C123.312 220.849 123.296 220.884 123.277 220.923C123.239 221.001 123.189 221.097 123.126 221.207C122.999 221.427 122.817 221.703 122.563 222.014C122.052 222.64 121.264 223.391 120.079 224.109C117.708 225.547 113.844 226.798 107.584 226.798V222.798C113.325 222.798 116.419 221.651 118.006 220.689C118.799 220.208 119.24 219.759 119.464 219.485C119.577 219.347 119.638 219.248 119.663 219.206C119.675 219.184 119.678 219.177 119.674 219.185C119.672 219.189 119.669 219.197 119.663 219.209C119.66 219.215 119.657 219.222 119.654 219.231C119.652 219.235 119.65 219.239 119.648 219.244C119.648 219.246 119.647 219.249 119.646 219.251C119.645 219.252 119.644 219.254 119.644 219.255C119.643 219.257 119.642 219.259 121.5 220ZM107.584 226.798C101.061 226.798 96.5169 224.57 92.987 221.845C91.2533 220.507 89.7688 219.053 88.4571 217.752C87.1098 216.416 85.9921 215.294 84.8646 214.426L87.3034 211.256C88.6759 212.312 89.9957 213.645 91.2734 214.912C92.5867 216.214 93.9147 217.508 95.4311 218.679C98.4013 220.971 102.108 222.798 107.584 222.798V226.798ZM84.8646 214.426C79.0437 209.949 71.9102 210.447 68.0555 212.589L66.1126 209.093C71.2561 206.235 80.1243 205.733 87.3034 211.256L84.8646 214.426ZM68.0555 212.589C65.9625 213.752 64.3645 215.051 63.3426 216.662C62.3458 218.234 61.7883 220.274 62.075 223.142L58.0948 223.54C57.7319 219.908 58.4244 216.948 59.9648 214.52C61.4801 212.131 63.7065 210.43 66.1126 209.093L68.0555 212.589ZM62.075 223.142C62.3411 225.805 63.5348 227.527 65.0497 228.695C66.622 229.907 68.6121 230.568 70.4137 230.868L69.7561 234.814C67.5581 234.448 64.873 233.609 62.6076 231.863C60.2848 230.072 58.4783 227.377 58.0948 223.54L62.075 223.142ZM70.4137 230.868C73.9655 231.46 77.7847 230.34 79.2565 227.029L82.9117 228.653C80.3835 234.342 74.2035 235.555 69.7561 234.814L70.4137 230.868ZM79.2565 227.029C79.8871 225.61 79.5028 224.003 78.4739 222.93C77.5001 221.915 76.0368 221.468 74.3944 222.289L72.6056 218.711C75.9632 217.032 79.2919 218.005 81.3602 220.161C83.3733 222.259 84.2811 225.572 82.9117 228.653L79.2565 227.029Z" fill="url(#paint3_linear_902_111870)"/>
  <defs>
  <linearGradient id="paint0_linear_902_111870" x1="127" y1="206.5" x2="104.5" y2="181" gradientUnits="userSpaceOnUse">
  <stop stop-color="#0C011C"/>
  <stop offset="1" stop-color="#423752"/>
  </linearGradient>
  <linearGradient id="paint1_linear_902_111870" x1="98.8482" y1="134.269" x2="112.259" y2="148.03" gradientUnits="userSpaceOnUse">
  <stop stop-color="#9C789B"/>
  <stop offset="1" stop-color="#5B5252" stop-opacity="0"/>
  </linearGradient>
  <linearGradient id="paint2_linear_902_111870" x1="62.7485" y1="155.111" x2="67.9605" y2="173.605" gradientUnits="userSpaceOnUse">
  <stop stop-color="#9C789B"/>
  <stop offset="1" stop-color="#5B5252" stop-opacity="0"/>
  </linearGradient>
  <linearGradient id="paint3_linear_902_111870" x1="63.083" y1="223.298" x2="122.083" y2="215.298" gradientUnits="userSpaceOnUse">
  <stop stop-color="#2F1F47"/>
  <stop offset="0.855778"/>
  </linearGradient>
  </defs>
    
      </svg>
    